/* XPM */
static char *dummy[]={
"40 40 288 2",
".a c #00a15e",
"aM c #039f5e",
".w c #049759",
"b1 c #0b9456",
"aj c #0b9656",
"cc c #0c8d57",
"#f c #0e875c",
".V c #1e9262",
"bC c #20865d",
"cC c #289266",
".1 c #2d8548",
"#u c #319871",
"aK c #319c73",
"#z c #31a479",
".M c #329a72",
".E c #329c72",
".F c #329e74",
".2 c #32a277",
"Qt c #32a67a",
"aY c #338b71",
".b c #33a477",
".D c #347c5b",
"bG c #34916d",
"aV c #358970",
"bZ c #36996e",
"c# c #36a279",
".t c #379a6f",
"cz c #38a179",
".U c #3a9f79",
".5 c #3b3f44",
"aG c #3b8367",
"cu c #3b8b6a",
"bD c #3c8470",
"cn c #3c896c",
"cq c #3e9c79",
"ab c #3f4140",
"aQ c #40896e",
"ba c #417862",
"aq c #425362",
"cv c #439978",
"b# c #445668",
".m c #449667",
"ao c #454e58",
"ce c #455568",
"bm c #478c70",
"b8 c #479275",
"cA c #479678",
"as c #484e50",
"aZ c #487177",
"#s c #48826c",
".K c #495446",
"#A c #496b60",
"cr c #49866c",
"ae c #498c6d",
"aS c #4a6f61",
"bl c #4a7f6a",
".h c #4a8859",
"bz c #4a8f75",
"bb c #4a9166",
"#b c #4b493e",
"#j c #4b586e",
"ax c #4b6f65",
"bO c #4b7c51",
"bs c #4b8b72",
"bF c #4b9378",
".G c #4d5c42",
"ak c #4d5c75",
"bh c #4d6a5c",
"cj c #4d6d65",
"bx c #4d9278",
"bP c #4e5c72",
"#p c #4f5963",
"am c #4f5a6a",
"#h c #4f5b5a",
"c. c #4f776f",
"bS c #4f8458",
"aT c #4f9078",
"#G c #50655f",
"cb c #517a6b",
"#i c #525d69",
"ap c #525e71",
"cf c #527265",
"a0 c #52727d",
"#3 c #527752",
"aB c #53533f",
"a. c #53585a",
".L c #535956",
"aW c #535b65",
"a5 c #535e6e",
"#e c #53866d",
"aL c #54503e",
"aC c #545755",
"#y c #545856",
".P c #547067",
"br c #548d77",
"aJ c #555341",
"bw c #555957",
"bp c #557e6d",
"#B c #565342",
"#C c #565756",
"b5 c #565c47",
"bq c #568c77",
"bt c #585341",
"#x c #585442",
"aH c #585d5e",
".W c #586d67",
"b7 c #588b77",
"#D c #597d6f",
"aO c #598675",
"#v c #5a6c6a",
"cB c #5a8977",
"bX c #5c5f5c",
"by c #5c8877",
"#6 c #5d5c4f",
"a4 c #5d5d4f",
"a# c #5d5e57",
".x c #5d6249",
"bU c #5d6264",
"av c #5d6a70",
".I c #5e5b3f",
"an c #5e5b47",
"#l c #5e5e59",
"#S c #5e684d",
"af c #5e6c6e",
"#t c #5e7278",
"au c #5e9383",
"aw c #5f5c47",
"#q c #5f5c48",
"aX c #5f697c",
"#Z c #606764",
"ci c #607077",
"ca c #607078",
"cm c #607177",
"bE c #608577",
"ar c #615e48",
"#g c #61624b",
"b9 c #616666",
"bB c #618c81",
"b6 c #619d8c",
"bn c #625e49",
"bA c #626666",
"aA c #626a70",
".4 c #626b76",
"bH c #626e77",
"#o c #626f77",
"ct c #628377",
"bo c #629f8d",
"#k c #635f4c",
"cp c #636f77",
"a9 c #646957",
"aD c #646c71",
"#a c #647082",
"cl c #648277",
"## c #65686e",
"aF c #656e76",
"#w c #666e73",
"bM c #676757",
"#P c #676b69",
"cd c #676b6a",
"aP c #676c6c",
"bi c #676f64",
"#n c #677571",
"#r c #678076",
".# c #67aa97",
"ck c #686a69",
"be c #686e6e",
"#X c #687357",
".O c #688867",
"b3 c #68a594",
"aN c #697f76",
".l c #698a6a",
"cD c #69a191",
"#5 c #6a6462",
"ch c #6a6b6a",
"aR c #6a6b6c",
".H c #6a6d6c",
"ag c #6a6e6d",
"ay c #6a7379",
"aI c #6a7874",
"bf c #6b6c64",
"aU c #6b7d76",
".C c #6d7270",
"cw c #6d7c76",
"ac c #6e6555",
"#N c #6e6a54",
"b0 c #6e7066",
".B c #6e7373",
"bY c #6e7765",
"#F c #6e7975",
"aE c #6e7d7a",
"bT c #6e8a83",
"bu c #6f6f6e",
".X c #6f7270",
".Q c #6f7373",
"cs c #6f7a76",
"#9 c #70706c",
"b4 c #70706f",
"co c #707b7a",
"bv c #717170",
"bV c #717867",
"cg c #717976",
"cx c #718680",
".9 c #72716b",
"bk c #727a7a",
"#m c #72817d",
"#E c #737776",
"az c #73797a",
"#Y c #747474",
"#4 c #747577",
"b2 c #747868",
"at c #748091",
"cy c #757777",
".c c #75954d",
".6 c #767264",
"#. c #767676",
"bI c #798698",
"al c #7a889c",
"#Q c #7b8949",
"a6 c #7c7546",
"b. c #7d7546",
"bJ c #82784a",
".A c #858789",
".3 c #88845f",
".s c #888560",
"#8 c #89805d",
"bd c #89835f",
"#K c #8a7e48",
"bj c #8a825f",
"ai c #8a8360",
"#d c #8a8460",
".i c #8a9659",
".8 c #8b8360",
".v c #8b8561",
"a1 c #8c844c",
".y c #8c9294",
"#J c #8d7f69",
"#0 c #8d804b",
"#O c #8e806c",
"bQ c #92895b",
"ah c #937f39",
"bg c #93833b",
".n c #93843c",
".q c #949793",
"ad c #95803a",
"#7 c #95803b",
"aa c #95813c",
"bW c #95823c",
".7 c #96813b",
"#c c #96823c",
".u c #96853e",
".z c #969ea1",
"bc c #97823c",
"bL c #978b3a",
"#U c #9a8648",
".0 c #9a8a3c",
"a8 c #9a8b3c",
"#R c #9a8c3c",
".g c #9a8c3d",
"#W c #9b8b3c",
"#M c #9c883b",
"a3 c #9c893c",
"#2 c #9d893c",
".k c #9d8c3e",
"bN c #9e893c",
".J c #a38264",
".r c #aa9750",
".Y c #b0934d",
".S c #be9d57",
".R c #c3a076",
".p c #c3c2a7",
"#H c #c6a279",
".o c #c6bc7a",
".N c #ccbe53",
".d c #cfbe55",
"bK c #d0b954",
"bR c #d1b954",
"a7 c #d1bb54",
"#V c #d2ba54",
"#L c #d2bb54",
".j c #d2be57",
"a2 c #d3bb55",
".T c #d5bb54",
"#1 c #d8be55",
".Z c #dabf56",
"#T c #e5b98d",
".f c #e6cc5e",
"#I c #e9bc91",
".e c #f6dd70",
"QtQtQtQtQtQtQtQtQtQtQtQtQtQtQtQtQtQtQtQtQtQtQtQtQtQtQtQtQtQtQt.#QtQt.aQtQtQtQtQt",
"QtQtQtQt.aQtQtQtQtQtQtQt.aQtQtQtQtQtQtQt.aQtQtQtQtQtQtQt.aQtQtQtQtQtQtQtQtQtQtQt",
"Qt.aQtQtQtQtQtQtQt.aQtQtQt.#QtQtQt.aQtQtQtQtQtQtQt.aQtQtQt.#QtQtQt.aQtQtQtQtQtQt",
"QtQtQtQtQt.aQtQt.#.#QtQtQtQtQtQtQtQtQtQtQt.aQtQt.#.#QtQtQtQtQtQtQtQtQtQtQt.aQtQt",
"QtQtQtQtQtQtQt.a.#.#QtQtQtQtQtQtQtQtQtQtQtQtQt.a.#.#QtQtQtQtQtQtQtQtQtQtQtQtQt.a",
"QtQtQtQtQtQtQtQtQtQtQtQtQtQtQt.#QtQtQtQtQtQtQtQtQtQtQtQtQtQtQt.#QtQtQtQtQtQtQtQt",
"QtQt.#.#Qt.b.c.d.e.f.g.hQtQtQtQtQt.b.i.j.e.f.g.hQtQtQtQtQt.b.c.d.e.f.k.lQtQtQtQt",
"QtQt.#.#Qt.m.n.o.p.q.r.s.tQtQt.aQt.m.u.o.p.q.r.s.tQtQtQtQt.m.n.o.p.q.r.v.tQtQtQt",
"QtQtQtQtQt.w.x.y.z.A.B.C.DQtQtQtQt.E.x.y.z.A.B.C.DQt.aQtQt.E.x.y.z.A.B.C.D.aQt.#",
"QtQtQtQtQt.F.G.H.I.J.K.L.MQtQtQtQt.F.G.H.I.J.K.L.MQtQtQtQt.F.G.H.I.J.K.L.MQtQtQt",
".c.N.e.f.g.O.P.Q.R.S.T.e.f.g.hQt.U.V.W.X.Y.Z.e.f.0.1QtQtQt.2.P.X.Y.Z.e.f.0.lQtQt",
".u.o.p.q.r.3.4.5.6.7.o.p.q.r.8.9#.###a#b#c.o.p.q.r#d#e.UQt#f#a#b#c.o.p.q.r.s.tQt",
"#g.y.z.A.B.C#h#i#j#k.y.z.A.B.C#l#m#n#o#p#q.y.z.A.B.C#l#.#r#s#t#p#q.y.z.A.B.C.DQt",
".G.H.I.J.K.L#u#v#w#x.H.I.J.K#y.MQt#.#z#A#B.H.I.J.K#C#D#E#.#.#F#G#B.H.I.J.K.L.M.#",
".P.Q#H#I#J#K#L.e.f#M#N#H#I#O#P#Q.d.e.f#R#S.Q#H#T#U#V.e.f#W#X#.#Y#Z#0#1.e.f#2#3Qt",
"#a.5#4#5#6#7.o.p.q.r#8#9#5a.a#aa.o.p.q.r.8ab#4acad.o.p.q.r.saeafagah.o.p.q.raiaj",
"#t#iakalaman.y.z.A.B.Caoalapaqar.y.z.A.B.Casakat#q.y.z.A.B.C.Dauavaw.y.z.A.B.C.D",
"#zaxayazaAaB.H.I.J.KaCaDaEaFaG.G.H.I.J.K.LaHayaIaJ.H.I.J.K#C.MQtaKaL.H.I.J.K.L.M",
"QtaMaN#.aO.P.Q#H#I#OaPaQQt.##Y.P.Q#H#I#OaPaQ#..2.P.Q#H#I#OaPaRQt.2aS.Q#H#I#OaPaQ",
"QtaT#.aUaV#a.5#4#5a.aWaXQtQtaY#a.5#4#5a.aWaZQt###a.5#4#5a.aWa0#.aY#a.5#4#5a.aWa0",
".ba1a2.e.fa3a4akala5a6a7.e.fa8a9#iakala5b.a7.e.f#2a4akala5a6a7.e.fa3a4akalapb#ba",
"bbbc.o.p.q.rbdbeaEbfbg.o.p.q.r.vbhayaEbibg.o.p.q.rbjbeaEbi.7.o.p.q.rbdbebkaFblQt",
"bmbn.y.z.A.B.C.DQt.Ebn.y.z.A.B.C.DQt#.bo.x.y.z.A.B.C#lQt.E.x.y.z.A.B.Cbpbq#.brQt",
"bsbt.H.I.J.K.LbuQt.F.G.H.I.J.K#C.MQt.#bv.G.H.I.J.K.L.M#..F.G.H.I.J.Kbwbubx#.byQt",
"bzbA.Q#H#I#OaPbB#..2aS.Q#H#I#OaPaRQtQt.2bA.Q#H#I#OaPbCQt#Y.P.Q#H#I#OaPaQ#.#.bq.#",
"bD#a.5#4#5a.aWa0Qt###a.5#4#5a.aWa0#.QtaY#a.5#4#5a.aWa0QtaY#a.5#4#5a.aWa0bE#.bFQt",
"bGbH#iakbIbJbK.e.fbLbM#iakbIbJbK.e.fbNbO#t#ibPbQbR.e.f.gbO#t#iakbIbJbK.e.fbNbSQt",
".#bTbUaybVbW.o.p.q.r.sbXaybYbW.o.p.q.r.8bZaxb0#c.o.p.q.r.sb1axayb2#c.o.p.q.r.s.t",
".#b3#E#.b4.x.y.z.A.B.C.D#..E.x.y.z.A.B.C#lQt.E.x.y.z.A.B.C.DQt.ab4#g.y.z.A.B.C.D",
"QtQtbF#..Xbt.H.I.J.K.L.MQtbv.G.H.I.J.K.L.M#..Fb5.H.I.J.K.LbuQtQt.Fbt.H.I.J.K.Lb6",
"QtQtQtb7#YbA.Q#H#I#OaPbBQt.2bA.Q#H#I#OaPaQQt#Y.P.Q#H#I#OaPaQ#.Qtb8b9.Q#H#I#OaPaQ",
"QtQtQtQtc.#a.5#4#5a.aWaXQtaY#a.5#4#5a.aWa0QtaY#a.5#4#5a.aWa0c#b7###a.5#4#5a.aWaZ",
"QtQt.aQtbGca#iakalapb#cb#.cc#t#iakalapb#cdQtbG#t#iakalapcecfcg#.chci#iakalapb#cb",
"QtQtQtQtQt#zcjayazaFckclbx#.#zaxayazcmcnQt#.Qt#zaxaycocpck#.#.clcq#zaxayaEcmcnQt",
"Qt.aQtQtQtQtQtQtcqcr#E#.#.#.csctbrcu#.cvbxbr#.bEcw#.#.#.#.cxcvQtQt.aQtQtQtQtQtQt",
"QtQtQtQtQt.aQtQt.#.#c#bFctcg#.#.#.#.#.#.#.#.#.#.#.cyclaTczQtQtQtQtQtQtQtQt.aQtQt",
"QtQtQtQtQtQtQt.a.#.#QtQtQtQt.UcAbrbrb7clcBbrbrcCcD.#QtQtQtQtQtQtQtQtQtQtQtQtQt.a",
"QtQtQtQtQtQtQtQtQtQtQtQtQtQtQt.#QtQtQtQtQtQtQtQtQtQtQtQtQtQtQt.#QtQtQtQtQtQtQtQt",
"QtQt.#.#QtQtQtQtQtQtQtQtQtQtQtQtQtQt.#.#QtQtQtQtQtQtQtQtQtQtQtQtQtQt.#.#QtQtQtQt",
"QtQt.#.#QtQtQtQtQtQtQtQtQtQtQt.aQtQt.#.#QtQtQtQtQtQtQtQtQtQtQt.aQtQt.#.#QtQtQtQt"};
