/* XPM */
static char *dummy[]={
"40 40 735 2",
"as c #000000",
"bt c #009f5d",
"gv c #00a05d",
"fh c #00a05e",
".a c #00a15e",
"dG c #039758",
"ei c #059f5f",
".i c #0e8e52",
"hj c #169b64",
"eW c #186336",
"h8 c #2c8a62",
".Q c #2e8c64",
"hW c #2e8d65",
"gW c #2e9068",
"e4 c #2f865d",
".Y c #30996f",
".I c #309b70",
".r c #309b71",
".1 c #31653b",
"#h c #31683f",
"#. c #31875c",
"b5 c #318b65",
"hA c #31986e",
"dr c #319c72",
"aP c #319e74",
"d0 c #31a075",
".z c #31a176",
".0 c #31a276",
"eE c #31a277",
"dT c #31a377",
"bc c #31a478",
"dy c #31a579",
".7 c #327a51",
"fQ c #32936a",
"eV c #32936c",
"aB c #32996f",
"fV c #329c71",
"hF c #329f73",
"au c #329f74",
"dd c #32a075",
"e# c #32a376",
".A c #32a377",
"#t c #32a378",
".b c #32a579",
"#s c #32a57a",
"Qt c #32a67a",
"#n c #33764e",
"eC c #338a64",
"h6 c #338b63",
"dL c #339c72",
"iR c #339e74",
"cA c #33a478",
"eU c #34542f",
"b7 c #346e4a",
"h9 c #34714d",
"gD c #347639",
"#q c #348d68",
"ey c #34966e",
".k c #349e70",
"#Y c #34a378",
"gS c #357851",
"h1 c #358a5c",
"aI c #35956c",
"am c #35986e",
"eh c #359870",
"c2 c #359e73",
"ea c #366f33",
".y c #369066",
"dk c #369168",
"is c #369269",
"g7 c #36936c",
"gZ c #37744e",
"#D c #379068",
"jo c #37956c",
".s c #379667",
".c c #389566",
"eF c #396747",
"hS c #396a3b",
"hX c #396e3e",
"gC c #398664",
"b2 c #398b5e",
"ej c #398c5b",
".J c #39915f",
"eD c #39a27a",
"#e c #3a572f",
".H c #3a7e55",
"fi c #3aa57b",
"gw c #3b8c5c",
"fa c #3b966e",
"#M c #3c7c57",
"#u c #3d7955",
".X c #3d7c53",
"ia c #3d916e",
"bG c #3e7552",
".q c #3e845a",
"bu c #3e8a5c",
"bb c #3e9673",
"#7 c #3ea07a",
"c8 c #3eab82",
"jj c #3f805a",
"ak c #3f9f7b",
"if c #40946b",
"bs c #409472",
"eP c #416338",
"er c #41733d",
".R c #417c45",
"jc c #418f67",
"h0 c #419e7b",
".B c #427943",
"dU c #42875c",
"hZ c #429171",
"eK c #434f28",
"bH c #449172",
"eg c #457451",
"ad c #457d4c",
"fd c #458762",
"#8 c #459269",
"ib c #45936f",
"g4 c #45ab83",
"e1 c #465029",
"bd c #468d61",
"hM c #477846",
"dS c #479476",
"g1 c #485b36",
"gU c #48663a",
"## c #48683b",
"bA c #486b43",
"#V c #487248",
"ex c #48724f",
"hG c #487744",
"gi c #48855b",
"jn c #489b7b",
"iu c #493e25",
"cl c #498d72",
".6 c #4a552d",
"b4 c #4a5b35",
"b3 c #4a6b3a",
"d7 c #4a9276",
".9 c #4a9a7b",
"fH c #4b3f28",
"fq c #4b9066",
".l c #4b9666",
"i# c #4c7960",
"jz c #4c997c",
"#m c #4d572f",
"cx c #4d6249",
"gI c #4d6d59",
"by c #4d826a",
"f5 c #4d9378",
"aO c #4d9479",
"#p c #4d987c",
"iI c #4e4228",
"fS c #4e422a",
"dJ c #4f1bd6",
"a4 c #4f28b8",
"gk c #4f3499",
"e6 c #4f5f40",
"cQ c #4f835d",
"aQ c #4f855b",
".h c #4f8760",
"at c #4f977c",
"aH c #5014eb",
".P c #506c41",
"dM c #507345",
"gh c #509178",
"b6 c #50967c",
"gV c #515f3c",
"hV c #516c3e",
"cB c #51815b",
"cy c #518a73",
"#o c #518c74",
"a3 c #519279",
"fo c #51967c",
"hm c #51997e",
"hx c #5227c0",
"dm c #52492c",
".x c #528862",
"ie c #52b38e",
"fC c #5319e5",
"ar c #531be4",
"e. c #534578",
"hJ c #53676b",
"iS c #537d56",
"#C c #53957c",
"bQ c #54603b",
".8 c #548b75",
"dB c #554c2d",
"fz c #55947c",
"jb c #559b81",
"fn c #5620de",
"jh c #5625d9",
"ep c #56623a",
".f c #567045",
"av c #56895f",
"ca c #575f45",
"br c #57666c",
"#E c #577451",
"ds c #57855b",
"#U c #57937c",
"bx c #58575b",
"h3 c #585f45",
"bF c #586139",
"jp c #587f58",
"iW c #5929d2",
"f4 c #593f99",
"i. c #596046",
"a7 c #59784d",
"hi c #597f58",
"i4 c #5a27dc",
"hR c #5a585c",
"d6 c #5a587e",
"cr c #5a6046",
"gB c #5a6146",
"gt c #5a7163",
"gb c #5a7347",
".o c #5a774e",
".K c #5a7c4d",
"h. c #5a7e68",
"fE c #5ab392",
"dp c #5b2fcd",
"bY c #5b633c",
"eX c #5b6530",
"ek c #5b7144",
"fL c #5b865c",
"#f c #5b907e",
"j# c #5c2fcd",
"#4 c #5c2fcf",
"eB c #5c643e",
"#Z c #5c7d56",
"iP c #5d5031",
"hP c #5d656f",
"cw c #5d734f",
"iC c #5e5031",
"gK c #5e7648",
"e3 c #5e8676",
"gM c #5f6349",
"ck c #5f6a55",
"fF c #5fa383",
"aX c #5fab8c",
"dR c #605677",
"eT c #605b30",
"dP c #60673d",
".v c #60724c",
"jd c #60754c",
"hK c #608d6e",
"gg c #61508e",
"fN c #615336",
"gY c #616a39",
"#i c #616b39",
"bv c #617849",
"#6 c #618f7d",
"hy c #623ac3",
"ab c #623cc3",
"eG c #626733",
"d4 c #626940",
"f2 c #626944",
"fg c #627c5d",
"dZ c #627d71",
".t c #629667",
"du c #635938",
"iX c #63609d",
"ge c #636a46",
"aj c #638d7d",
"jA c #639883",
"hn c #639b87",
"#3 c #6440bf",
"a2 c #64509a",
"dI c #645938",
"g8 c #647163",
".G c #64734d",
"c1 c #648d7d",
".d c #649767",
"a6 c #64a28e",
".j c #64a592",
"aW c #64bb9a",
".2 c #656b39",
"ef c #656c45",
"aJ c #657243",
"bz c #65a692",
"c9 c #65a693",
"ah c #6644ba",
"ba c #66675f",
"g. c #666a55",
"gR c #666b3a",
"#J c #667164",
".W c #667550",
"jl c #667653",
"jC c #66785e",
"#S c #667c6f",
".Z c #667d53",
"#A c #667d70",
".u c #668b62",
"e7 c #66a88a",
"fP c #66a895",
"b. c #676741",
"dX c #676c48",
"dV c #677748",
".n c #67815a",
"he c #67a794",
"cz c #67a996",
".# c #67aa97",
"dE c #6850a6",
"ew c #686e49",
"#W c #688479",
"#r c #688b7e",
"ez c #68a895",
"aN c #694dac",
"hC c #6950a5",
"#d c #69663e",
"cn c #69693d",
"bp c #696943",
"hO c #696961",
"gs c #696e4f",
"iO c #6a5e3b",
"aU c #6a6572",
"h2 c #6a693c",
"il c #6a774a",
"bT c #6a835e",
"cb c #6a8374",
".m c #6a9268",
"aG c #6b50af",
"cj c #6b674b",
"b8 c #6b693d",
"aR c #6b6b42",
"gH c #6b7152",
".p c #6b9473",
"fy c #6c53ac",
"aK c #6c653d",
"aZ c #6c653e",
"eQ c #6c6f4d",
"#z c #6c6f62",
"hY c #6c7046",
"f7 c #6c7345",
"hv c #6c7348",
"jx c #6c7957",
"be c #6c7d51",
"ja c #6d5eac",
"dH c #6d613e",
"hw c #6d653e",
"aM c #6d7057",
"#R c #6d7063",
"hb c #6d7469",
"e5 c #6d7654",
"ji c #6d897e",
"cG c #6e58a7",
"fM c #6e5f3d",
"dw c #6e618e",
".E c #6e6844",
"bh c #6e6d4b",
"a1 c #6e7156",
"iN c #6e8f6b",
".g c #6e8f6e",
"iY c #6e9c8f",
"bI c #6eb399",
"ao c #6f6042",
"bB c #6f7146",
"bU c #6f7248",
"bL c #6f7952",
"de c #6f7a51",
"cL c #6f805e",
"gP c #6fbc9e",
"hp c #706042",
"aD c #706142",
"jg c #706195",
".U c #706a46",
"iT c #706b40",
"dx c #70817a",
".e c #708b68",
"az c #715ea1",
"#a c #717451",
"jy c #717f73",
"eN c #71988d",
"g# c #725e9f",
"cF c #72609f",
"ai c #72629d",
"c3 c #72784e",
"hz c #727e79",
"jm c #728075",
"gQ c #728166",
"iQ c #72837c",
"eM c #728780",
"iB c #736241",
"i3 c #736297",
"cU c #73629d",
"dt c #736441",
"je c #73663c",
"gz c #736e4e",
".N c #736f4e",
"f9 c #737754",
"cf c #737c5d",
"hE c #737f7a",
"cK c #739d88",
"iZ c #73a487",
"#5 c #746699",
"aS c #746c46",
"bP c #747653",
"dW c #747b57",
"ga c #747c79",
"#T c #74817c",
"#K c #748580",
"gf c #756c84",
"ht c #756d47",
"cg c #757155",
"#I c #757365",
"#B c #75817c",
"aa c #766a94",
"f3 c #766c89",
"#N c #766d4b",
"ic c #767c5e",
".S c #767f5a",
"dK c #76817d",
"ii c #768881",
"jB c #777e57",
"a5 c #777f7c",
"aV c #77817c",
"al c #77827d",
"fY c #77b79c",
"iU c #78623a",
"aw c #786d49",
"aT c #787555",
"do c #78786a",
"bM c #787a58",
"gE c #787b56",
"bg c #787c59",
"aA c #78837f",
"#g c #788c86",
"iG c #78b299",
"jf c #796a4d",
"ed c #796c4a",
"cV c #79718e",
"es c #797854",
"dD c #797868",
"jr c #797e69",
".C c #79805b",
".w c #798e73",
"ix c #799f94",
"eu c #7a6e4c",
"cH c #7a738c",
"eb c #7a7854",
"iV c #7a786e",
"aY c #7a7954",
"aC c #7a7a50",
"jq c #7a7f59",
"gX c #7a886e",
"i9 c #7b643d",
"iJ c #7b6944",
"eJ c #7b6a3d",
"i2 c #7b6b4e",
"#v c #7b6c4b",
"dC c #7b6e4a",
"cO c #7b758a",
"dA c #7b774b",
"eY c #7b7b73",
"a8 c #7b7f56",
"ac c #7b827f",
"jk c #7b8358",
"gx c #7b835b",
"#9 c #7b845e",
"en c #7c7150",
"c# c #7c7153",
"a0 c #7c7550",
"gc c #7c784a",
"eH c #7c7d77",
"#X c #7c817f",
"aL c #7d7651",
"dY c #7d7885",
"co c #7d7c75",
".M c #7d7d5c",
"d5 c #7d7d71",
"hH c #7d7f57",
"f1 c #7d7f5b",
"#j c #7d7f70",
"c0 c #7d817f",
"jv c #7d9c84",
"i1 c #7e6b43",
".5 c #7e7249",
"#F c #7e735e",
"#y c #7e7869",
"j. c #7e786c",
"b9 c #7e7d78",
"gd c #7e7e5a",
"d2 c #7e7f51",
"#L c #7e8281",
"iv c #7f6c46",
"e0 c #7f6d40",
"g6 c #7f6e4d",
"dn c #7f714c",
"cq c #7f7355",
"dl c #7f754a",
"an c #7f784d",
"f0 c #7f794c",
"#Q c #7f796a",
"f8 c #7f7b53",
"#O c #7f7c77",
"#w c #7f7d7a",
"gp c #7f7e5b",
"dQ c #7f7f76",
".3 c #7f8073",
"hd c #7f8381",
".L c #7f8461",
"dO c #7f8663",
"cW c #7f8c87",
"go c #7f8f65",
"b1 c #7fb8a3",
"ax c #806c4b",
"dv c #807659",
"gj c #807c53",
"iw c #807d77",
"el c #80805f",
"f# c #808080",
"d3 c #808562",
"eo c #808669",
"#l c #81734a",
"iK c #817d74",
"ff c #817d79",
"f. c #817e7b",
"em c #817f60",
"dN c #818053",
"hL c #81825d",
"gy c #818260",
"bq c #81826d",
"bV c #81836d",
"a9 c #818766",
"iE c #818785",
".O c #818c70",
"di c #81a282",
"gn c #81c3a8",
"h# c #827252",
"d# c #827c55",
"bE c #827c5a",
"fJ c #827f78",
"cE c #82807e",
"d9 c #82825a",
"bw c #82825d",
"bi c #828278",
"h7 c #828367",
"bC c #82846f",
"gl c #828482",
"hN c #828765",
"hI c #828766",
"js c #828886",
"fT c #83704b",
"it c #83774d",
"bX c #837c59",
"fU c #837e76",
"cT c #83817e",
"bf c #83835e",
"gL c #838361",
"bo c #838765",
"gF c #838767",
".V c #83876c",
"gq c #838867",
".T c #838868",
"hu c #838886",
".D c #838968",
"fe c #847158",
"hr c #847250",
"iD c #84765b",
"aq c #84807a",
"bn c #84835b",
"b# c #848571",
"gG c #84866c",
"jw c #848761",
"et c #84886a",
"gA c #848971",
"#G c #85817c",
"#2 c #85817d",
"ec c #85886b",
".F c #858a70",
"jt c #85938e",
"g3 c #859790",
"fR c #86794e",
"aF c #868078",
"fZ c #868361",
"ev c #868569",
"gr c #868970",
"h4 c #869488",
"fI c #87744e",
"fc c #877566",
"iH c #877d54",
"bN c #878168",
"c6 c #87817b",
"ag c #87827d",
"ee c #87876c",
"hl c #878787",
"i8 c #887852",
"fm c #88827c",
"i0 c #888666",
"fr c #88885f",
"dh c #89827a",
"bO c #8a7852",
"fO c #8a7c61",
"ip c #8a805a",
"cc c #8a918d",
"bW c #8b7955",
"ho c #8b7c55",
"#H c #8b8172",
"ch c #8b8379",
"fx c #8b837c",
"fD c #8b8b8b",
"bD c #8c7953",
"cN c #8c837b",
"#b c #8c846f",
"cP c #8c8c8c",
"bZ c #8c9480",
"fX c #8ccdb4",
"#P c #8d8478",
"d1 c #8d8f6f",
"bm c #8d9673",
"ir c #8e815d",
"#x c #8e8577",
"cs c #8e968a",
"e9 c #8f745c",
"hB c #8f8562",
"eR c #908576",
"fB c #908863",
"fG c #917a51",
"ih c #917f60",
"c7 c #92b5a8",
"df c #93815b",
"cS c #938475",
"cD c #938477",
"h5 c #949594",
"hT c #949b89",
"ij c #94b9aa",
"cC c #957f60",
"ay c #958167",
"c4 c #95825c",
"dj c #958461",
"ci c #968364",
"cm c #969b8c",
"aE c #977c57",
"cM c #97816a",
"iq c #97835e",
"ct c #979897",
"#c c #987f53",
"fj c #988e70",
"cI c #989898",
"hc c #989998",
"ju c #98d2bc",
"ap c #997e59",
"a# c #998677",
"e2 c #99a292",
"cp c #9b8970",
"hf c #9b977e",
"e8 c #9bab99",
"cR c #9c8367",
"#k c #9d855f",
"c. c #9d8a6f",
"i5 c #9e9e9e",
".4 c #9f855d",
"da c #9f8560",
"db c #9f866d",
"ae c #9f8c67",
"fu c #9f9579",
"eS c #a28456",
"eL c #a2aa9c",
"#0 c #a38c68",
"b0 c #a3baaf",
"bj c #a4a8a3",
"gm c #a4d7c4",
"af c #a58a71",
"#1 c #a58a72",
"g9 c #a5a6a5",
"bR c #a5c0b2",
"ft c #a68a73",
"a. c #a78c6d",
"hg c #a78e6a",
"hk c #a7977b",
"id c #a7c4b9",
"eZ c #a98e68",
"g5 c #a9a89c",
"dg c #aa8863",
"cZ c #aa9984",
"c5 c #ab8963",
"gO c #abdac8",
"eI c #ac8f67",
"fb c #ac9b8c",
"fv c #ad996f",
"iM c #add2c2",
"i7 c #b0a795",
"bJ c #b1ddcc",
"fk c #b39c72",
"io c #b5b9a4",
"fs c #b69871",
"fl c #b7906d",
"fw c #b7916e",
"cv c #b7c4b8",
"f6 c #b8b6a4",
"bK c #b8c2b0",
"ig c #b9b1a2",
"gN c #b9beb7",
"fW c #baaf99",
"cX c #bbc9c3",
"iA c #bcb19d",
"hU c #bcc4b3",
"eA c #bcc5b0",
"hQ c #bdc1ae",
"eO c #bec4bb",
"iy c #c1dcd4",
"cu c #c2c2c2",
"iL c #c5c7c6",
"dF c #c6c7c6",
"eq c #c6ccc4",
"d. c #c8c1b0",
"cd c #c9c9c9",
"ce c #cacdc5",
"im c #cbcdcc",
"cJ c #cbd3d0",
"bS c #cbe8dd",
"g2 c #cccfcb",
"dq c #cdcdcd",
"hq c #cfcfcf",
"g0 c #d2d2d2",
"hh c #d5d1c6",
"ha c #d6d6d0",
"ik c #d7d6cd",
"gT c #d7d7d7",
"cY c #dcd8d1",
"gJ c #dcdedb",
"gu c #e0e2df",
"dz c #e1dfdc",
"iz c #e3e9e5",
"hs c #eae9e7",
"fK c #eeeeec",
"hD c #f2f2f1",
"i6 c #f5f5f4",
"bl c #f9f9f8",
"in c #faf9f9",
"d8 c #fafaf9",
"fA c #fbfbfb",
"fp c #fcfcfc",
"iF c #fdfdfd",
"dc c #fefefe",
"bk c #ffffff",
"QtQtQtQtQtQtQtQtQtQtQtQtQtQtQtQtQtQtQtQtQtQtQtQtQtQtQtQtQtQtQt.#QtQt.aQtQtQtQtQt",
"QtQtQtQt.aQtQtQtQtQtQtQt.aQtQtQtQtQtQtQt.aQtQtQtQtQtQtQt.aQtQtQtQtQtQtQtQtQtQtQt",
"Qt.aQtQtQtQtQtQtQt.aQtQtQt.#QtQtQt.aQtQtQtQtQtQtQt.aQtQtQt.#QtQtQt.aQtQtQtQtQtQt",
"QtQtQtQtQt.aQtQt.#.#QtQtQtQtQtQtQtQtQtQtQt.aQtQt.#.#QtQtQtQtQtQtQtQtQtQtQt.aQtQt",
".b.c.d.e.f.g.h.i.j.#Qt.k.l.m.n.o.p.q.rQtQt.s.t.u.v.w.x.y.zQt.k.l.m.n.o.p.q.rQt.a",
".A.B.C.D.E.F.G.H.IQtQt.J.K.L.M.N.O.P.QQtQt.R.S.T.U.V.W.X.YQt.J.Z.L.M.N.O.P.QQtQt",
".0.1.2.3.4.5.6.7.8.9Qt#.###a#b#c#d#e#f#gQt#h#i#j#k#l#m#n#o#p#.###a#b#c#d#e#q#r#s",
"#t#u#v#w#x#y#z#A#B#CQt#D#E#F#G#H#I#J#K#LQt#M#N#O#P#Q#R#S#T#U#D#V#F#G#H#I#J#W#X#s",
"#Y#Z#0#1#2#3#4#5#6#7.a#8#9a.a#aa#4abac#pQtadaeafagah#4aiajak#8#9a.a#aa#4abal#p.#",
"amanaoapaqarasasatQtauavawaxayazasasaA.baBaCaDaEaFasasaG#CauavawaxayasasaHaAQtQt",
"aIaJaKaLaMaNasasaO.aaPaQaRaSaTaUasasaVaWaXaYaZa0a1asasa2a3aPaQaRaSaTasasa4a5QtQt",
"a6a7a8a9b.b#baasbbQtbcbdbebfbgbhbiasbjbkblbmbnbobpbqasbrbsbtbubvbwbgbhasbxbyQtQt",
"bzbAbBbCbDbEbFbGbHbIbJbKbLbMbNbObPbQbRbSbSbTbUbVbWbXbYbZb0b1b2b3bMbNbObPb4b5b6Qt",
".Ab7b8b9c.c#cacbcccdbkcecfcgchcicjckclQtQtcmcncocpcqcrcsctcucvcwcgchcicjcxcy#Xcz",
"cAcBcCcDcEcFcGcHcIcJbkcKcLcMcNcOcGazcPQtQtcQcRcScTcUcGcVcWcXcYcZcMcNcOcGazc0c1#s",
"c2c3c4c5c6arasasc7c8c9d.d#dadbazasasaAdcdddedfdgdhasasaG#C.AdidjdadbasasaHaAQt.a",
"dkdldmdndodpasasdqQtdrdsdtdudvdwasasdxdydzdAdBdCdDasasdEdFdGdsdHdIdvasasdJdKQtQt",
"dLdMdNdOdPdQdRasdSbkdTdUdVbndWdXdYasdZdyd0d1d2d3d4d5asd6d7d8dUdVd9dWdXase.dZQtQt",
"e#eaebecedeeefegeheibkejekelemeneoepeqQtQtereseteuevewexeyezeAekelemeneoeBeCeDQt",
"eEeFeGeHeIeJeKeLeMeNQteOePeQeReSeTeUeVbkQteWeXeYeZe0e1e2e3#Ue4e5eQeReSeTe6e7#X#s",
"cAe8e9f.f#f#f#f#f#eNQtfafbfcf#f#f#f#aAQtbkfdfefff#f#f#f#f##Ufafgfcf#f#f#f#f##Xfh",
"fifjfkflfmfnasasfofpQtfqfrfsftcFasasaAQtQtfufvfwfxasasfyfzfAfqfBfsftasasfCfDfEQt",
"fFfGfHfIfJarasasatQtfKfLfMfNfOazasascPfPfQfRfSfTfUasasaG#CfVfWfMfNfOasasaHcPfXQt",
"fYfZf0f1f2f3f4asf5Qt.zf6f7f8f9g.g#asgadcdrgbgcgdgegfasgggh.zgigjf8f9g.asgkglgmQt",
"gngogpgq.EgrgsgtguQtgvgwgxgy.MgzgAgBgCQtfpgDgEgF.UgGgHgIgJdygwgKgL.MgzgAgMgNgO.#",
"gPgQgR.3.4.5.6gS.8gTQt#.gU#a#b#c#dgVgWQtQtgXgY#j#k#l#mgZ#og0#.gU#a#b#c#dg1g2g3#s",
"g4g5g6#w#x#y#z#A#Bg7bk#D#E#F#G#H#Ig8g9QtQth.h##O#P#Q#R#S#T#Uha#E#F#G#H#Ihbhchd#s",
"hehfhg#1#2#3asas#6#7Qthh#9a.a#aaasasaAbkQthiaeafagasasaiajhj#8hka.a#asasabhlhmQt",
"hnhohpapaqarasashqQtauavhraxayazasasaA.bhsaCaDaEaFasasaGcdauavhtaxayasasaHhuQtQt",
"aIhvhwaLaMaNhxasaObkaPaQaRaSaTaUhyashzdyhAhBaZa0a1hCasa2a3hDaQaRaSaTaUasa4hEQt.#",
"hFhGhHhIb.b#bahJbbQtfAhKbvhLbgbhbibxbjQteEhMbnhNbpbqhOhPbsbchQbvhLbgbhbihRbyQtQt",
"e#hSbBbCbDbEbFhTbHak.#hUhVbMbNbObPb4hWbkQthXhYbVbWbXbYbZhZh0h1bLbMbNbObPb4b5b6.a",
".Ab7h2b9c.c#h3h4h5#CQth6h7cgchcicjcxh8Qtbkh9cncocpcqi.i#ctiaibiccgchcicjcxcy#X#s",
"cAcBcCcDcEcFasascIidieifcLcMcNcOasasaAQtQtigihcScTasascViiijikcZcMcNasasazc0c1#s",
"c2ilc4c5c6arasasimbkinioipdadbazasascP.bdddeiqdgdhasasaGcdind.irdadbasasaHaAQtQt",
"isitiuiviwarasasixiyiziAiBiCiDazasasiEiFiGiHiIiJiKasasaGiLiMiNiOiPiDasasaHiQQtQt",
"iRiSiTiUiViWaHiXiY.#dTiZi0i1i2i3aHi4i5dci6i7i8i9j.j#aHjajbdTjcjdjejfjgaHjhjiQt.a",
"QtQtjjjkjljmaAjnQtQtQtQtjojpjqjrjsjtgmbSgOjujvjwjxjyaAjzQtQtQtjAjpjBjCaAjiQtQtQt",
"QtQt.#.#QtQtQtQtQtQtQtQtQtQtQtQtQtQt.#.#QtQtQtQtQtQtQtQtQtQtQtQtQtQt.#.#QtQtQtQt",
"QtQt.#.#QtQtQtQtQtQtQtQtQtQtQt.aQtQt.#.#QtQtQtQtQtQtQtQtQtQtQt.aQtQt.#.#QtQtQtQt"};
