/* XPM */
static char *dummy[]={
"40 40 293 2",
"#. c #000000",
"cx c #003c23",
"cz c #00502e",
"cH c #00693d",
"aO c #009b5b",
".a c #00a15e",
"#E c #010503",
"#Y c #020202",
".V c #027645",
"by c #030302",
"cD c #030504",
"cm c #030a07",
"b8 c #040403",
"b9 c #040805",
"#F c #040f0b",
".w c #049759",
"bx c #050505",
"cB c #06140f",
"aW c #071a13",
"aP c #091f16",
"#r c #0a241a",
".9 c #0b0a05",
"b5 c #0b9456",
"ak c #0b9656",
"cn c #0c0c0c",
"cr c #0c291e",
"ci c #0c8d57",
"## c #0e1117",
"cy c #0e2e22",
"#f c #0e875c",
"bH c #0f3426",
"bB c #123e2d",
"ag c #132022",
"#D c #14382a",
"cG c #144331",
"#l c #15140f",
"ca c #154835",
"#m c #162521",
"aQ c #164331",
"bt c #174e39",
"bu c #18523c",
"cq c #1c1e1d",
"aV c #1c5d44",
"bA c #1d6248",
"ce c #1e463e",
"bv c #1e5f45",
"bI c #1f674c",
"aT c #202121",
"#n c #202e29",
"cC c #20352f",
"bC c #20654b",
"bF c #20865d",
"#e c #22563c",
"bp c #22674b",
"cF c #227153",
"cc c #236f52",
"#s c #245f49",
"cA c #257c5b",
"cw c #288663",
"af c #296c4d",
".U c #2b916a",
"bG c #2c7360",
"bW c #2d4941",
".1 c #2d8548",
"cE c #2d966e",
"cf c #2e9b72",
"#u c #319871",
"aM c #319c73",
"#z c #31a479",
"bo c #326753",
"aX c #32866e",
".M c #329a72",
".E c #329c72",
".F c #329e74",
".2 c #32a277",
"Qt c #32a67a",
"a0 c #338b71",
".b c #33a477",
"#X c #343e22",
".D c #347c5b",
"bJ c #34916d",
"b3 c #36996e",
".t c #379a6f",
".5 c #3b3f44",
"aI c #3b8367",
"ct c #3c896c",
"aJ c #3d4041",
"bX c #3e4244",
"ac c #3f4140",
"be c #3f875b",
"aS c #40896e",
"b0 c #414340",
"cj c #414544",
"cl c #416255",
"bd c #417862",
"as c #425362",
"ck c #435366",
"bc c #445668",
".m c #449667",
"bw c #45402d",
"aq c #454e58",
"#G c #455954",
"bV c #467c4f",
"au c #484e50",
"aZ c #485265",
"a1 c #487177",
".K c #495446",
"cp c #496961",
"#A c #496b60",
"bD c #4a4d4e",
"cb c #4a4e4f",
"aU c #4a6f61",
".h c #4a8859",
"#b c #4b493e",
"aD c #4b4c38",
"cd c #4b4f4f",
"#j c #4b586e",
"az c #4b6f65",
"bR c #4b7c51",
"#Z c #4d5450",
".G c #4d5c42",
"am c #4d5c75",
"bk c #4d6a5c",
"bS c #4e5c72",
"aN c #4f4b39",
"#p c #4f5963",
"ao c #4f5a6a",
"#h c #4f5b5a",
"#C c #515251",
"#v c #516361",
"ch c #517a6b",
"#y c #525755",
"#i c #525d69",
"ar c #525e71",
".W c #526761",
"a2 c #52727d",
"#3 c #527752",
"a. c #53585a",
".L c #535956",
"aY c #535b65",
"a7 c #535e6e",
"aE c #545755",
".P c #547067",
"aL c #555341",
"bz c #555957",
"bs c #557e6d",
"#x c #565340",
"#B c #565342",
"c. c #565c47",
"cI c #568f7f",
"ax c #58656b",
"bq c #59543f",
"aC c #5a636a",
"bK c #5a666f",
"#o c #5b6871",
"aw c #5b9081",
"co c #5c6b73",
"#6 c #5d5c4f",
"a6 c #5d5d4f",
"a# c #5d5e57",
".x c #5d6249",
"aH c #5d676f",
"cg c #5d6d74",
"b7 c #5d9a88",
".I c #5e5b3f",
"ap c #5e5b47",
"#S c #5e684d",
"cv c #5e6a72",
"#t c #5e7177",
"al c #5e7278",
"ay c #5f5c47",
"#q c #5f5c48",
"cs c #607177",
"at c #615e48",
"#g c #61624b",
"bE c #618c81",
"c# c #619d8c",
"bP c #626252",
".4 c #626b76",
"br c #629f8d",
"#k c #635f4c",
"a3 c #645d25",
"b# c #646957",
"aF c #646c71",
"#a c #647082",
"bi c #65675e",
"#w c #666e73",
"#P c #676b69",
"aR c #676c6c",
"bl c #676f64",
".# c #67aa97",
"bh c #686e6e",
".O c #688867",
".l c #698a6a",
"#5 c #6a6462",
".H c #6a6d6c",
"ah c #6a6e6d",
"aB c #6a7172",
"aA c #6a7379",
"aK c #6a7874",
"bn c #6b7374",
".C c #6d7270",
"cu c #6d7977",
"ad c #6e6555",
"#N c #6e6a54",
"b4 c #6e7066",
".B c #6e7373",
"b1 c #6e7765",
"aG c #6e7d7a",
".X c #6f7270",
".Q c #6f7373",
"#9 c #70706c",
"bY c #717867",
"#4 c #747577",
"b6 c #747868",
"av c #748091",
".c c #75954d",
".6 c #767264",
"bL c #798698",
"an c #7a889c",
"#Q c #7b8949",
"ba c #7c7445",
"a8 c #7c7546",
"bM c #82784a",
".A c #858789",
"b2 c #867d5a",
".8 c #867f5b",
"#d c #87805c",
".3 c #88845f",
".s c #888560",
"#8 c #89805d",
"bg c #89835f",
"#K c #8a7e48",
"aj c #8a8360",
".i c #8a9659",
"ab c #8b8360",
".v c #8b8561",
".y c #8c9294",
"#J c #8d7f69",
"#0 c #8d804b",
"#O c #8e806c",
"bf c #907b35",
"bm c #927d37",
"bT c #92895b",
"ai c #937f39",
"bj c #93833b",
".n c #93843c",
"aa c #94803b",
".q c #949793",
"ae c #95803a",
"#7 c #95803b",
"bZ c #95823c",
".7 c #96813b",
"bQ c #968235",
"#c c #96823c",
".u c #96853e",
".z c #969ea1",
"bO c #978b3a",
"#W c #98893a",
"#U c #9a8648",
".0 c #9a8a3c",
"b. c #9a8b3c",
"#R c #9a8c3c",
".g c #9a8c3d",
"#M c #9b873a",
"bb c #9c883c",
"a5 c #9c893c",
"#2 c #9d893c",
".k c #9d8c3e",
".J c #a38264",
".r c #aa9750",
".Y c #b0934d",
".S c #be9d57",
".R c #c3a076",
".p c #c3c2a7",
"#H c #c6a279",
".o c #c6bc7a",
"a4 c #ccb34d",
".N c #ccbe53",
"#L c #ceb751",
".d c #cfbe55",
"bN c #d0b954",
"bU c #d1b954",
"a9 c #d1bb54",
"#V c #d2ba54",
".j c #d2be57",
".T c #d5bb54",
"#1 c #d8be55",
".Z c #dabf56",
"#T c #e5b98d",
".f c #e6cc5e",
"#I c #e9bc91",
".e c #f6dd70",
"QtQtQtQtQtQtQtQtQtQtQtQtQtQtQtQtQtQtQtQtQtQtQtQtQtQtQtQtQtQtQt.#QtQt.aQtQtQtQtQt",
"QtQtQtQt.aQtQtQtQtQtQtQt.aQtQtQtQtQtQtQt.aQtQtQtQtQtQtQt.aQtQtQtQtQtQtQtQtQtQtQt",
"Qt.aQtQtQtQtQtQtQt.aQtQtQt.#QtQtQt.aQtQtQtQtQtQtQt.aQtQtQt.#QtQtQt.aQtQtQtQtQtQt",
"QtQtQtQtQt.aQtQt.#.#QtQtQtQtQtQtQtQtQtQtQt.aQtQt.#.#QtQtQtQtQtQtQtQtQtQtQt.aQtQt",
"QtQtQtQtQtQtQt.a.#.#QtQtQtQtQtQtQtQtQtQtQtQtQt.a.#.#QtQtQtQtQtQtQtQtQtQtQtQtQt.a",
"QtQtQtQtQtQtQtQtQtQtQtQtQtQtQt.#QtQtQtQtQtQtQtQtQtQtQtQtQtQtQt.#QtQtQtQtQtQtQtQt",
"QtQt.#.#Qt.b.c.d.e.f.g.hQtQtQtQtQt.b.i.j.e.f.g.hQtQtQtQtQt.b.c.d.e.f.k.lQtQtQtQt",
"QtQt.#.#Qt.m.n.o.p.q.r.s.tQtQt.aQt.m.u.o.p.q.r.s.tQtQtQtQt.m.n.o.p.q.r.v.tQtQtQt",
"QtQtQtQtQt.w.x.y.z.A.B.C.DQtQtQtQt.E.x.y.z.A.B.C.DQt.aQtQt.E.x.y.z.A.B.C.D.aQt.#",
"QtQtQtQtQt.F.G.H.I.J.K.L.MQtQtQtQt.F.G.H.I.J.K.L.MQtQtQtQt.F.G.H.I.J.K.L.MQtQtQt",
".c.N.e.f.g.O.P.Q.R.S.T.e.f.g.hQt.U.V.W.X.Y.Z.e.f.0.1QtQtQt.2.P.X.Y.Z.e.f.0.lQtQt",
".u.o.p.q.r.3.4.5.6.7.o.p.q.r.8.9#.###a#b#c.o.p.q.r#d#e.UQt#f#a#b#c.o.p.q.r.s.tQt",
"#g.y.z.A.B.C#h#i#j#k.y.z.A.B.C#l#m#n#o#p#q.y.z.A.B.C#l#.#r#s#t#p#q.y.z.A.B.C.DQt",
".G.H.I.J.K.L#u#v#w#x.H.I.J.K#y.MQt#.#z#A#B.H.I.J.K#C#D#E#.#.#F#G#B.H.I.J.K.L.M.#",
".P.Q#H#I#J#K#L.e.f#M#N#H#I#O#P#Q.d.e.f#R#S.Q#H#T#U#V.e.f#W#X#.#Y#Z#0#1.e.f#2#3Qt",
"#a.5#4#5#6#7.o.p.q.r#8#9#5a.a#aa.o.p.q.rabac#4adae.o.p.q.r.safagahai.o.p.q.rajak",
"al#iamanaoap.y.z.A.B.Caqanarasat.y.z.A.B.Cauamav#q.y.z.A.B.C.Dawaxay.y.z.A.B.C.D",
"#zazaAaBaCaD.H.I.J.KaEaFaGaHaI.G.H.I.J.K.LaJaAaKaL.H.I.J.K#C.MQtaMaN.H.I.J.K.L.M",
"QtaOaP#.aQ.P.Q#H#I#OaRaSQt.##Y.P.Q#H#I#OaRaS#..2.P.Q#H#I#OaRaTQt.2aU.Q#H#I#OaRaS",
"QtaV#.aWaX#a.5#4#5a.aYaZQtQta0#a.5#4#5a.aYa1Qt###a.5#4#5a.aYa2#.a0#a.5#4#5a.aYa2",
".ba3a4.e.fa5a6amana7a8a9.e.fb.b##iamana7baa9.e.fbba6amana7a8a9.e.fa5a6amanarbcbd",
"bebf.o.p.q.rbgbhaGbibj.o.p.q.r.vbkaAaGblbj.o.p.q.r#8bhaGblbm.o.p.q.rbgbhbnaHboQt",
"bpbq.y.z.A.B.C.DQt.Ebq.y.z.A.B.C.DQt#.br.x.y.z.A.B.C#lQt.E.x.y.z.A.B.Cbsbt#.buQt",
"bvbw.H.I.J.K.LbxQt.F.G.H.I.J.K#C.MQt.#by.G.H.I.J.K.L.M#..F.G.H.I.J.KbzbxbA#.bBQt",
"bCbD.Q#H#I#OaRbE#..2aU.Q#H#I#OaRaTQtQt.2bD.Q#H#I#OaRbFQt#Y.P.Q#H#I#OaRaS#.#.bt.#",
"bG#a.5#4#5a.aYa2Qt###a.5#4#5a.aYa2#.Qta0#a.5#4#5a.aYa2Qta0#a.5#4#5a.aYa2bH#.bIQt",
"bJbK#iambLbMbN.e.fbObP#iambLbMbN.e.fbQbRal#ibSbTbU.e.f.gbRal#iambLbMbN.e.fbQbVQt",
".#bWbXaAbYbZ.o.p.q.r.sb0aAb1bZ.o.p.q.rb2b3azb4#c.o.p.q.r.sb5azaAb6#c.o.p.q.r.s.t",
".#b7#E#.b8.x.y.z.A.B.C.D#..E.x.y.z.A.B.C#lQt.E.x.y.z.A.B.C.DQt.ab8#g.y.z.A.B.C.D",
"QtQtbI#.b9bw.H.I.J.K.L.MQtby.G.H.I.J.K.L.M#..Fc..H.I.J.K.LbxQtQt.Fbw.H.I.J.K.Lc#",
"QtQtQtca#Ycb.Q#H#I#OaRbEQt.2bD.Q#H#I#OaRaSQt#Y.P.Q#H#I#OaRaS#.Qtcccd.Q#H#I#OaRaS",
"QtQtQtQtce#a.5#4#5a.aYaZQta0#a.5#4#5a.aYa2Qta0#a.5#4#5a.aYa2cfca###a.5#4#5a.aYa1",
"QtQt.aQtbJcg#iamanarbcch#.cial#iamanarbccjQtbJal#iamanarckclcm#.cnco#iamanarbcch",
"QtQtQtQtQt#zcpaAaBaHcqcrbA#.#zazaAaBcsctQt#.Qt#zazaAcucvcq#.#.crcw#zazaAaGcsctQt",
"Qt.aQtQtQtQtQtQtcwcx#E#.#.#.#Fcybucz#.cAbAbu#.bHcB#.#.#.#.cCcAQtQt.aQtQtQtQtQtQt",
"QtQtQtQtQt.aQtQt.#.#cfbIcycm#.#.#.#.#.#.#.#.#.#.#.cDcraVcEQtQtQtQtQtQtQtQt.aQtQt",
"QtQtQtQtQtQtQt.a.#.#QtQtQtQt.UcFbubucacrcGbubucHcI.#QtQtQtQtQtQtQtQtQtQtQtQtQt.a",
"QtQtQtQtQtQtQtQtQtQtQtQtQtQtQt.#QtQtQtQtQtQtQtQtQtQtQtQtQtQtQt.#QtQtQtQtQtQtQtQt",
"QtQt.#.#QtQtQtQtQtQtQtQtQtQtQtQtQtQt.#.#QtQtQtQtQtQtQtQtQtQtQtQtQtQt.#.#QtQtQtQt",
"QtQt.#.#QtQtQtQtQtQtQtQtQtQtQt.aQtQt.#.#QtQtQtQtQtQtQtQtQtQtQt.aQtQt.#.#QtQtQtQt"};
