/* XPM */
static char *dummy[]={
"40 40 731 2",
"as c #000000",
"bt c #009f5d",
"gw c #00a05d",
"fi c #00a05e",
".a c #00a15e",
"hK c #00e2fb",
"gE c #00e2fc",
"iE c #00e3fd",
"dd c #00e4fe",
"bk c #00e5ff",
"bl c #01dff8",
"d9 c #01e0f9",
"hE c #02d9f1",
"i4 c #02dcf4",
"dH c #039758",
"fL c #03d6ec",
"fB c #03e2fb",
"fq c #03e2fc",
"ht c #04d2e7",
"ej c #059f5f",
"iy c #06d3e4",
"dA c #07c9dc",
"er c #08b8c4",
"eP c #0bb2bb",
"gv c #0cccdf",
"bT c #0cd5dc",
"gL c #0dc9db",
".i c #0e8e52",
"cf c #0eb9c5",
"g4 c #0fbccb",
"bS c #10b2b1",
"hc c #10c1d0",
"cw c #12b3b8",
"bK c #12cdcc",
"iL c #13c2c1",
"hV c #14b3b3",
"gQ c #14cbc8",
"bL c #15b2af",
"gn c #15c8c4",
"hl c #169b64",
"e8 c #16a08a",
"eX c #186336",
"eM c #189c9c",
"jq c #18c5bc",
"eB c #19b5b0",
"e3 c #1a9592",
"gP c #1aadb7",
"cZ c #1ac4d1",
"ik c #1bc3cc",
"cn c #1c8f8c",
"fY c #1cc1b3",
"go c #1eb7a7",
"gZ c #1f7f6e",
"iF c #1fa898",
"hQ c #1fb1ae",
"gS c #217966",
"g7 c #229b9c",
"gR c #22b49e",
"hj c #22bfc6",
"fZ c #23ae9c",
"aW c #25b59a",
"aX c #26a68c",
"cK c #27c2d0",
"gV c #27c5d7",
"eG c #286647",
"hU c #289089",
"ie c #2aaf8e",
"ix c #2accd3",
"fG c #2b9e83",
"b1 c #2baeae",
"h9 c #2c8a62",
"f7 c #2ca8a4",
"fF c #2cae92",
"g2 c #2cc1d2",
"bU c #2d7c5d",
"eD c #2d8a64",
"b0 c #2d8a80",
"g6 c #2da983",
"e7 c #2e5c40",
".Q c #2e8c64",
"hX c #2e8d65",
"gY c #2e9068",
"ib c #2e916f",
"jr c #2e9484",
"c9 c #2ea982",
"dr c #2ebdcd",
"e5 c #2f865d",
"hr c #2fbfcf",
".Y c #30996f",
".I c #309b70",
".r c #309b71",
"e9 c #309f98",
"cY c #30bbc3",
"im c #30becb",
".1 c #31653b",
"#h c #31683f",
"#. c #31875c",
"b6 c #318b65",
"hB c #31986e",
"ds c #319c72",
"aP c #319e74",
"d1 c #31a075",
".z c #31a176",
".0 c #31a276",
"eF c #31a277",
"dT c #31a377",
"bc c #31a478",
"dz c #31a579",
"id c #31b8b8",
".7 c #327a51",
"fR c #32936a",
"eW c #32936c",
"aB c #32996f",
"fW c #329c71",
"hG c #329f73",
"au c #329f74",
"de c #32a075",
"ea c #32a376",
".A c #32a377",
"#t c #32a378",
"fj c #32a47b",
".b c #32a579",
"#s c #32a57a",
"Qt c #32a67a",
"b2 c #32b0a3",
"#n c #33764e",
"h7 c #338b63",
"dL c #339c72",
"iP c #339e74",
"cB c #33a478",
"bJ c #33ad99",
"d# c #33b2b0",
"eV c #34542f",
"b8 c #346e4a",
"i. c #34714d",
"gF c #347639",
"b3 c #348a5e",
"#q c #348d68",
"ez c #34966e",
".k c #349e70",
"iX c #349e87",
"#Y c #34a378",
"gU c #357851",
"h3 c #358a5c",
"aI c #35956c",
"am c #35986e",
"ei c #359870",
"c3 c #359e73",
"ig c #35a3a2",
"dG c #35b8c6",
"eb c #366f33",
".y c #369066",
"dl c #369168",
"ir c #369269",
"g9 c #36936c",
"iK c #36b9c5",
"ce c #36bac9",
"gX c #375c3c",
"e6 c #377154",
"g1 c #37744e",
"gp c #378765",
"bm c #378e73",
"#D c #379068",
"jl c #37956c",
".s c #379667",
"bj c #379ea3",
"in c #37aba3",
".c c #389566",
"g3 c #395936",
"hS c #396a3b",
"hY c #396e3e",
"gD c #398664",
"ek c #398c5b",
".J c #39915f",
"eE c #39a27a",
"ij c #39aeaa",
"#e c #3a572f",
".H c #3a7e55",
"i5 c #3a9b95",
"gx c #3b8c5c",
"fb c #3b966e",
"#M c #3c7c57",
"bd c #3c8c61",
"ct c #3c8d8a",
"#u c #3d7955",
".X c #3d7c53",
"ia c #3d916e",
"cv c #3db4c2",
"bH c #3e7552",
".q c #3e845a",
"bu c #3e8a5c",
"h5 c #3e8d88",
"bb c #3e9673",
"#7 c #3ea07a",
"c8 c #3eaba7",
"jg c #3f805a",
"d2 c #3f886f",
"ak c #3f9f7b",
"h8 c #407c67",
"if c #40946b",
"bs c #409472",
"iz c #40a49d",
"eQ c #416338",
"es c #41733d",
".R c #417c45",
"j# c #418f67",
"h2 c #419e7b",
".B c #427943",
"dU c #42875c",
"h1 c #429171",
"eL c #434f28",
"cg c #44775c",
"bI c #449172",
"dj c #449b82",
"fX c #44a399",
"eh c #457451",
"ad c #457d4c",
"fe c #458762",
"#8 c #459269",
"e2 c #465029",
"hN c #477846",
"dS c #479476",
"bR c #485e3b",
"gW c #48663a",
"## c #48683b",
"bB c #486b43",
"#V c #487248",
"ey c #48724f",
"hH c #487744",
"ic c #48775e",
"gj c #48855b",
"jk c #489b7b",
"it c #493e25",
"cl c #496755",
"cx c #49714f",
"cm c #498d72",
".6 c #4a552d",
"b5 c #4a5b35",
"b4 c #4a6b3a",
"bM c #4a7552",
"d8 c #4a9276",
".9 c #4a9a7b",
"fI c #4b3f28",
"fr c #4b9066",
".l c #4b9666",
"j. c #4b9a81",
"i# c #4c7960",
"jv c #4c997c",
"ho c #4c997e",
"iH c #4d4228",
"fT c #4d422a",
"#m c #4d572f",
"cy c #4d6249",
"gK c #4d6d59",
"bz c #4d826a",
"f6 c #4d9378",
"aO c #4d9479",
"#p c #4d987c",
"dJ c #4f1bd6",
"a4 c #4f28b8",
"gl c #4f3499",
"cR c #4f835d",
"aQ c #4f855b",
".h c #4f8760",
"at c #4f977c",
"h# c #4f9ea5",
"aH c #5014eb",
".P c #506c41",
"dM c #507345",
"gi c #509178",
"b7 c #50967c",
"hW c #516c3e",
"f0 c #517e61",
"cC c #51815b",
"cz c #518a73",
"#o c #518c74",
"hh c #51907e",
"a3 c #519279",
"fc c #51928c",
"fp c #51967c",
"hy c #5227c0",
"e# c #524578",
"dn c #52492c",
".x c #528862",
"fD c #5319e5",
"ar c #531be4",
"br c #53656c",
"hJ c #53676b",
"iQ c #537d56",
"iM c #538c6a",
"#C c #53957c",
"i2 c #5426dc",
".8 c #548b75",
"dC c #554c2d",
"iY c #558166",
"fv c #558e79",
"fA c #55947c",
"fo c #5620de",
"je c #5625d9",
"eq c #56623a",
"eC c #56633e",
".f c #567045",
"gy c #567f5b",
"av c #56895f",
"cb c #575f45",
"hT c #576139",
"#E c #577451",
"dt c #57855b",
"#U c #57937c",
"by c #58575b",
"hR c #58585c",
"bG c #586139",
"jm c #587f58",
"cc c #588074",
"iU c #5929d2",
"f5 c #593f99",
"cs c #596046",
"gO c #596349",
"a7 c #59784d",
"hk c #597f58",
"d7 c #5a587e",
"gC c #5a6146",
"bZ c #5a633c",
"gu c #5a7163",
"gc c #5a7347",
".o c #5a774e",
".K c #5a7c4d",
"ha c #5a7e68",
"dq c #5b2fcd",
"h0 c #5b633c",
"eY c #5b6530",
"el c #5b7144",
"fM c #5b865c",
"fk c #5b886f",
"#f c #5b907e",
"#4 c #5c2fcf",
"#Z c #5c7d56",
"he c #5c9398",
"iB c #5d5031",
"hP c #5d656f",
"eH c #5d6633",
"gM c #5e7648",
"be c #5e7c51",
"e4 c #5e8676",
"cu c #5e9297",
"dR c #605677",
"eU c #605b30",
"dP c #60673d",
".v c #60724c",
"ja c #60754c",
"hC c #608162",
"hL c #608d6e",
"i3 c #60989e",
"gh c #61508e",
"fO c #615336",
"g0 c #616a39",
"#i c #616b39",
"bv c #617849",
"#6 c #618f7d",
"c0 c #619284",
"g5 c #619490",
"cL c #619b88",
"hz c #623ac3",
"ab c #623cc3",
"d5 c #626940",
"f3 c #626944",
"fh c #627c5d",
"d0 c #627d71",
"h6 c #629094",
".t c #629667",
"dv c #635938",
"iV c #63609d",
"gf c #636a46",
"gT c #636b3a",
"aj c #638d7d",
"jw c #639883",
"hp c #639b87",
"#3 c #6440bf",
"a2 c #64509a",
"i9 c #645dac",
"h. c #647163",
".G c #64734d",
"hd c #647369",
"c2 c #648d7d",
".d c #649767",
"a6 c #64a28e",
".j c #64a592",
".2 c #656b39",
"eg c #656c45",
"aJ c #657243",
"cd c #658d8d",
"bA c #65a692",
"d. c #65a693",
"ah c #6644ba",
"ba c #66675f",
"g# c #666a55",
"#J c #667164",
".W c #667550",
"ji c #667653",
"jt c #667857",
"jy c #66785e",
"gk c #667953",
"#S c #667c6f",
".Z c #667d53",
"#A c #667d70",
".u c #668b62",
"jp c #66908e",
"cJ c #669398",
"fQ c #66a895",
"b. c #676741",
"dY c #676c48",
"i6 c #677452",
"dV c #677748",
".n c #67815a",
"hg c #67a794",
"cA c #67a996",
".# c #67aa97",
"dF c #6850a6",
"iA c #686041",
"ex c #686e49",
"#W c #688479",
"#r c #688b7e",
"eA c #68a895",
"aN c #694dac",
"hD c #6950a5",
"du c #696241",
"#d c #69663e",
"co c #69693d",
"bp c #696943",
"hO c #696961",
"gt c #696e4f",
"iN c #6a5e3b",
"aU c #6a6572",
"h4 c #6a693c",
"il c #6a774a",
"jo c #6a7c69",
"gm c #6a8282",
".m c #6a9268",
"iw c #6a9d94",
"aG c #6b50af",
"hx c #6b653e",
"ck c #6b674b",
"b9 c #6b693d",
"aR c #6b6b42",
"gJ c #6b7152",
"bV c #6b7248",
".p c #6b9473",
"fz c #6c53ac",
"dI c #6c613e",
"aK c #6c653d",
"aZ c #6c653e",
"eR c #6c6f4d",
"#z c #6c6f62",
"hZ c #6c7046",
"f8 c #6c7345",
"hw c #6c7348",
"bh c #6d6d4b",
"aM c #6d7057",
"#R c #6d7063",
"jf c #6d897e",
"cH c #6e58a7",
"fN c #6e5f3d",
"dx c #6e618e",
".E c #6e6844",
"bx c #6e6d4b",
"a1 c #6e7156",
"aY c #6e7854",
"cX c #6e8b87",
".g c #6e8f6e",
"iW c #6e9c8f",
"ao c #6f6042",
"i1 c #6f6297",
"bC c #6f7146",
"df c #6f7a51",
"cM c #6f805e",
"aD c #706142",
"jd c #706195",
".U c #706a46",
"iR c #706b40",
"dy c #70817a",
"ii c #708881",
".e c #708b68",
"hm c #70917b",
"az c #715ea1",
"iZ c #716a43",
"#a c #717451",
"ju c #717f73",
"aV c #71807c",
"eO c #71988d",
"ga c #725e9f",
"cG c #72609f",
"ai c #72629d",
"c4 c #72784e",
"hA c #727e79",
"hF c #727f7a",
"jj c #728075",
"iO c #72837c",
"eN c #728780",
"cQ c #728a8c",
"cV c #73629d",
"jb c #73663c",
"gA c #736e4e",
".N c #736f4e",
"g. c #737754",
"fE c #73898b",
"#5 c #746699",
"aS c #746c46",
"hb c #747052",
"bQ c #747653",
"dX c #747b57",
"gb c #747c79",
"#T c #74817c",
"#K c #748580",
"js c #748661",
"gg c #756c84",
"hu c #756d47",
"hs c #757150",
"ch c #757155",
"#I c #757365",
"et c #757854",
"#B c #75817c",
"iD c #758685",
"hv c #758786",
"aa c #766a94",
"f4 c #766c89",
"#N c #766d4b",
".S c #767f5a",
"bn c #76815b",
"dK c #76817d",
"i7 c #77643d",
"jx c #777e57",
"jn c #777f59",
"a5 c #777f7c",
"al c #77827d",
"iS c #78623a",
"aw c #786d49",
"g8 c #786e4d",
"aT c #787555",
"dp c #78786a",
"bN c #787a58",
"gG c #787b56",
"iG c #787c54",
"bg c #787c59",
"aA c #78837f",
"hn c #788687",
"#g c #788c86",
"jc c #796a4d",
"i0 c #796a4e",
"ee c #796c4a",
"cW c #79718e",
"ec c #797854",
"dE c #797868",
".C c #79805b",
".w c #798e73",
"ev c #7a6e4c",
"cI c #7a738c",
"i8 c #7a776c",
"iT c #7a786e",
"aC c #7a7a50",
"gq c #7a7d5b",
"iI c #7b6944",
"eK c #7b6a3d",
"#v c #7b6c4b",
"dD c #7b6e4a",
"cP c #7b758a",
"dB c #7b774b",
"eZ c #7b7b73",
"a8 c #7b7f56",
"hI c #7b7f57",
"ac c #7b827f",
"hf c #7b8281",
"jh c #7b8358",
"#9 c #7b845e",
"eo c #7c7150",
"ca c #7c7153",
"a0 c #7c7550",
"gd c #7c784a",
"eI c #7c7d77",
"#X c #7c817f",
"aL c #7d7651",
"dZ c #7d7885",
"f1 c #7d794c",
"cp c #7d7c75",
".M c #7d7d5c",
"d6 c #7d7d71",
"f2 c #7d7f5b",
"#j c #7d7f70",
"c1 c #7d817f",
"dk c #7d8261",
".5 c #7e7249",
"#F c #7e735e",
"#y c #7e7869",
"c. c #7e7d78",
"ge c #7e7e5a",
"d3 c #7e7f51",
"#L c #7e8281",
"iu c #7f6c46",
"e1 c #7f6d40",
"do c #7f714c",
"cr c #7f7355",
"dm c #7f754a",
"an c #7f784d",
"#Q c #7f796a",
"f9 c #7f7b53",
"hq c #7f7b55",
"#O c #7f7c77",
"#w c #7f7d7a",
"dQ c #7f7f76",
"iq c #7f805d",
".3 c #7f8073",
".L c #7f8461",
"dO c #7f8663",
"ax c #806c4b",
"dw c #807659",
"iv c #807d77",
"io c #807e5a",
"dN c #808053",
"em c #80805f",
"fa c #808080",
"bf c #80835e",
"d4 c #808562",
"ep c #808669",
"#l c #81734a",
"iJ c #817d74",
"fg c #817d79",
"f# c #817e7b",
"en c #817f60",
"hM c #81825d",
"gz c #818260",
"bq c #81826d",
"dW c #81835b",
"gN c #818361",
"bW c #81836d",
"a9 c #818766",
".O c #818c70",
"da c #827c55",
"bF c #827c5a",
"fK c #827f78",
"cF c #82807e",
"e. c #82825a",
"bw c #82825d",
"bi c #828278",
"bD c #82846f",
"bo c #828765",
"fU c #83704b",
"is c #83774d",
"bY c #837c59",
"fV c #837e76",
"cU c #83817e",
"gH c #838767",
".V c #83876c",
"gr c #838867",
".T c #838868",
".D c #838968",
"ff c #847158",
"iC c #84765b",
"aq c #84807a",
"b# c #848571",
"gI c #84866c",
"eu c #84886a",
"gB c #848971",
"#G c #85817c",
"#2 c #85817d",
"ed c #85886b",
".F c #858a70",
"f. c #86735c",
"fS c #86794e",
"aF c #868078",
"ew c #868569",
"gs c #868970",
"fJ c #87744e",
"fd c #877566",
"bO c #878168",
"c7 c #87817b",
"ag c #87827d",
"ef c #87876c",
"fn c #88827c",
"fs c #88885f",
"fH c #897951",
"di c #89827a",
"bP c #8a7852",
"fP c #8a7c61",
"bX c #8b7955",
"#H c #8b8172",
"ci c #8b8379",
"fy c #8b837c",
"bE c #8c7953",
"cO c #8c837b",
"#b c #8c846f",
"#P c #8d8478",
"#x c #8e8577",
"cS c #8f8267",
"eS c #908576",
"fC c #908863",
"ih c #917f60",
"ip c #92825e",
"dg c #93815b",
"cT c #938475",
"cE c #938477",
"cD c #957f60",
"ay c #958167",
"c5 c #95825c",
"cj c #968364",
"aE c #977c57",
"cN c #97816a",
"#c c #987f53",
"ap c #997e59",
"a# c #998677",
"cq c #9b8970",
"#k c #9d855f",
"c# c #9d8a6f",
".4 c #9f855d",
"db c #9f8560",
"dc c #9f866d",
"ae c #9f8c67",
"eT c #a28456",
"hi c #a28d6a",
"#0 c #a38c68",
"af c #a58a71",
"#1 c #a58a72",
"fu c #a68a73",
"a. c #a78c6d",
"e0 c #a98e68",
"dh c #aa8863",
"c6 c #ab8963",
"eJ c #ac8f67",
"fw c #ad996f",
"fl c #b09b72",
"ft c #b69871",
"fm c #b7906d",
"fx c #b7916e",
"QtQtQtQtQtQtQtQtQtQtQtQtQtQtQtQtQtQtQtQtQtQtQtQtQtQtQtQtQtQtQt.#QtQt.aQtQtQtQtQt",
"QtQtQtQt.aQtQtQtQtQtQtQt.aQtQtQtQtQtQtQt.aQtQtQtQtQtQtQt.aQtQtQtQtQtQtQtQtQtQtQt",
"Qt.aQtQtQtQtQtQtQt.aQtQtQt.#QtQtQt.aQtQtQtQtQtQtQt.aQtQtQt.#QtQtQt.aQtQtQtQtQtQt",
"QtQtQtQtQt.aQtQt.#.#QtQtQtQtQtQtQtQtQtQtQt.aQtQt.#.#QtQtQtQtQtQtQtQtQtQtQt.aQtQt",
".b.c.d.e.f.g.h.i.j.#Qt.k.l.m.n.o.p.q.rQtQt.s.t.u.v.w.x.y.zQt.k.l.m.n.o.p.q.rQt.a",
".A.B.C.D.E.F.G.H.IQtQt.J.K.L.M.N.O.P.QQtQt.R.S.T.U.V.W.X.YQt.J.Z.L.M.N.O.P.QQtQt",
".0.1.2.3.4.5.6.7.8.9Qt#.###a#b#c#d#e#f#gQt#h#i#j#k#l#m#n#o#p#.###a#b#c#d#e#q#r#s",
"#t#u#v#w#x#y#z#A#B#CQt#D#E#F#G#H#I#J#K#LQt#M#N#O#P#Q#R#S#T#U#D#V#F#G#H#I#J#W#X#s",
"#Y#Z#0#1#2#3#4#5#6#7.a#8#9a.a#aa#4abac#pQtadaeafagah#4aiajak#8#9a.a#aa#4abal#p.#",
"amanaoapaqarasasatQtauavawaxayazasasaA.baBaCaDaEaFasasaG#CauavawaxayasasaHaAQtQt",
"aIaJaKaLaMaNasasaO.aaPaQaRaSaTaUasasaVaWaXaYaZa0a1asasa2a3aPaQaRaSaTasasa4a5QtQt",
"a6a7a8a9b.b#baasbbQtbcbdbebfbgbhbiasbjbkblbmbnbobpbqasbrbsbtbubvbwbgbxasbybzQtQt",
"bAbBbCbDbEbFbGbHbIbJbKbLbMbNbObPbQbRbSbTbTbUbVbWbXbYbZb0b1b2b3b4bNbObPbQb5b6b7Qt",
".Ab8b9c.c#cacbcccdcebkcfcgchcicjckclcmQtQtcncocpcqcrcsctcucvcwcxchcicjckcycz#XcA",
"cBcCcDcEcFcGcHcIcJcKbkcLcMcNcOcPcHazcQQtQtcRcScTcUcVcHcWcXcYcZc0cNcOcPcHazc1c2#s",
"c3c4c5c6c7arasasc8c9d.d#dadbdcazasasaAdddedfdgdhdiasasaG#C.AdjdkdbdcasasaHaAQt.a",
"dldmdndodpdqasasdrQtdsdtdudvdwdxasasdydzdAdBdCdDdEasasdFdGdHdtdIdvdwasasdJdKQtQt",
"dLdMdNdOdPdQdRasdSbkdTdUdVdWdXdYdZasd0dzd1d2d3d4d5d6asd7d8d9dUdVe.dXdYase#d0QtQt",
"eaebecedeeefegeheiejbkekelemeneoepeqerQtQteseteuevewexeyezeAeBelemeneoepeCeDeEQt",
"eFeGeHeIeJeKeLeMeNeOQtePeQeReSeTeUeVeWbkQteXeYeZe0e1e2e3e4#Ue5e6eReSeTeUe7e8#X#s",
"cBe9f.f#fafafafafaeOQtfbfcfdfafafafaaAQtbkfefffgfafafafafa#Ufbfhfdfafafafafa#Xfi",
"fjfkflfmfnfoasasfpfqQtfrfsftfucGasasaAQtQtfvfwfxfyasasfzfAfBfrfCftfuasasfDfEfFQt",
"fGfHfIfJfKarasasatQtfLfMfNfOfPazasascQfQfRfSfTfUfVasasaG#CfWfXfNfOfPasasaHcQfYQt",
"fZf0f1f2f3f4f5asf6Qt.zf7f8f9g.g#gaasgbdddsgcgdgegfggasghgi.zgjgkf9g.g#asglgmgnQt",
"gogpgqgr.EgsgtgugvQtgwgxgygz.MgAgBgCgDQtgEgFgGgH.UgIgJgKgLdzgxgMgN.MgAgBgOgPgQ.#",
"gRgSgT.3.4.5.6gU.8gVQt#.gW#a#b#c#dgXgYQtQtgZg0#j#k#l#mg1#og2#.gW#a#b#c#dg3g4g5#s",
"g6g7g8#w#x#y#z#A#Bg9bk#D#E#F#G#H#Ih.h#QtQthahb#O#P#Q#R#S#T#Uhc#E#F#G#H#Ihdhehf#s",
"hghhhi#1#2#3asas#6#7Qthj#9a.a#aaasasaAbkQthkaeafagasasaiajhl#8hma.a#asasabhnhoQt",
"hphqaoapaqarasashrQtauavhsaxayazasasaA.bhtaCaDaEaFasasaGceauavhuaxayasasaHhvQtQt",
"aIhwhxaLaMaNhyasaObkaPaQaRaSaTaUhzashAdzhBhCaZa0a1hDasa2a3hEaQaRaSaTaUasa4hFQt.#",
"hGhHhIa9b.b#bahJbbQthKhLbvhMbgbxbibybjQteFhNbnbobpbqhOhPbsbchQbvhMbgbhbihRbzQtQt",
"eahSbCbDbEbFhThUbIak.#hVhWbNbObPbQb5hXbkQthYhZbWbXbYh0b0h1h2h3bMbNbObPbQb5b6b7.a",
".Ab8h4c.c#cacbh5h6#CQth7h8chcicjckcyh9Qtbki.cocpcqcrcsi#cuiaibicchcicjckcycz#X#s",
"cBcCcDcEcFcGasascJidieifcMcNcOcPasasaAQtQtigihcTcUasascWiiijikc0cNcOasasazc1c2#s",
"c3ilc5c6c7arasasimbkd9iniodbdcazasascQ.bdedfipdhdiasasaGced9d#iqdbdcasasaHaAQtQt",
"irisitiuivarasasiwixiyiziAiBiCazasasiDiEiFiGiHiIiJasasaGiKiLiMiNiBiCasasaHiOQtQt",
"iPiQiRiSiTiUaHiViW.#dTiXiYiZi0i1aHi2i3ddi4i5i6i7i8dqaHi9j.dTj#jajbjcjdaHjejfQt.a",
"QtQtjgjhjijjaAjkQtQtQtQtjljmjnjohvjpgnbTgQjqjrjsjtjuaAjvQtQtQtjwjmjxjyaAjfQtQtQt",
"QtQt.#.#QtQtQtQtQtQtQtQtQtQtQtQtQtQt.#.#QtQtQtQtQtQtQtQtQtQtQtQtQtQt.#.#QtQtQtQt",
"QtQt.#.#QtQtQtQtQtQtQtQtQtQtQt.aQtQt.#.#QtQtQtQtQtQtQtQtQtQtQt.aQtQt.#.#QtQtQtQt"};
