/* XPM */
static char *dummy[]={
"40 40 890 2",
"kD c #605a49",
"h7 c #686354",
"fK c #6a6556",
"aQ c #6c6759",
"ai c #4c4638",
"fi c #575040",
"hU c #585141",
"km c #595242",
"lT c #1e1b15",
"lZ c #1f1b15",
"l2 c #1f1c15",
"ko c #1f1c20",
"hL c #1f1e37",
"iy c #1f1e3a",
"l3 c #201c15",
"kp c #201f31",
"iX c #222033",
"h0 c #22203b",
"ku c #242137",
"hw c #24223e",
"l0 c #26221c",
"j7 c #262330",
"lM c #27231c",
"lU c #27231d",
"kd c #272540",
"kq c #272640",
"hh c #272641",
"lR c #28231c",
"lC c #28241b",
"g1 c #282641",
"cQ c #29241b",
"lV c #29241d",
"lK c #29251b",
"lS c #29251d",
"jj c #292843",
"lN c #2a251d",
"iI c #2a2842",
"gM c #2b251c",
"gR c #2b251d",
"i7 c #2b261d",
"lW c #2b271e",
"jC c #2b2944",
"j. c #2c261d",
"lQ c #2c271f",
"lX c #2c281f",
"iw c #2c2c2c",
"lO c #2d2920",
"lL c #2d2921",
"jO c #2d2934",
"jS c #2d2b45",
"l1 c #2e2a21",
"am c #2f2920",
"lP c #2f2a21",
"lY c #2f2b21",
"av c #302921",
"h5 c #302a1f",
"kC c #302b20",
"hY c #303030",
"kK c #312a20",
"aA c #312a21",
"ky c #312b20",
"fH c #312b21",
"je c #312e2d",
"gK c #312f48",
"iF c #313131",
"kW c #322c22",
"i3 c #32314a",
"k2 c #332c22",
"jh c #333333",
"ik c #342e24",
"iU c #343434",
"jd c #352e23",
"iG c #353535",
"fX c #363025",
"ig c #36344a",
"ga c #363636",
"db c #373126",
"lB c #373227",
"gn c #373737",
"cX c #383126",
"cU c #383226",
"cP c #383227",
"aZ c #383228",
"lt c #383327",
"a6 c #383328",
"gz c #38354c",
"g0 c #383838",
"i6 c #393328",
"cV c #39332a",
"lk c #393427",
"aB c #39342a",
"fP c #393939",
"cR c #3a3327",
"cO c #3a3429",
"aw c #3a342b",
"cn c #3a3529",
"an c #3a352b",
"fu c #3a3a3a",
"gN c #3b3428",
"cL c #3b3429",
"hR c #3b3528",
"cu c #3b3529",
"fv c #3b3b3b",
"au c #3c3529",
"gQ c #3c352a",
"kh c #3c3628",
"iY c #3c3629",
"gL c #3c362a",
"kv c #3c372c",
"gp c #3c394e",
"eY c #3c3c3c",
"fG c #3d3629",
"cS c #3d362a",
"h3 c #3d362b",
"h4 c #3d372a",
"cN c #3d372b",
"jm c #3d372c",
"jq c #3d372d",
"gc c #3d3a4f",
"eZ c #3d3d3d",
"gO c #3e372a",
"ao c #3e372b",
"cW c #3e372c",
"kx c #3e382b",
"ie c #3e3e3e",
"kB c #3f372a",
"aC c #3f372b",
"fI c #3f372c",
"i8 c #3f382b",
"ap c #3f382c",
"aD c #3f382d",
"g9 c #3f382e",
"fB c #3f392d",
"lI c #3f392e",
"lH c #3f3a2e",
"g. c #3f3f3f",
"hQ c #40382b",
"i9 c #40382c",
"i1 c #40392c",
"aE c #40392d",
"dt c #40392f",
"lA c #403a2c",
"h1 c #403a2d",
"lD c #403a2e",
"fk c #403a30",
"jy c #403a37",
"hI c #404040",
"al c #413a2d",
"aq c #413a2e",
"fC c #413a2f",
"eN c #413b2e",
"fj c #413b2f",
"#6 c #413b30",
"j3 c #413c2e",
"l. c #413c2f",
"et c #414141",
"ak c #423a2e",
"lE c #423b2e",
"cM c #423b2f",
"fA c #423b31",
"h2 c #423c2f",
"fd c #423c30",
"#Z c #423c31",
"h6 c #423d31",
"iv c #424242",
"lz c #433c2f",
"cT c #433c30",
"kn c #433c31",
"kA c #433d30",
"kz c #433e32",
"es c #434343",
"cm c #443d2f",
"ct c #443d30",
"i2 c #443d31",
"gP c #443e31",
"cK c #443e33",
"lx c #443f32",
"eU c #444444",
"gB c #453e30",
"aj c #453e31",
"at c #453e32",
"gF c #453f34",
"eq c #454545",
"ly c #463f30",
"lG c #463f31",
"az c #463f32",
"lJ c #464031",
"fD c #464032",
"gm c #464646",
"lF c #473f30",
"hC c #473f31",
"j0 c #474031",
"kw c #474032",
"fF c #474033",
"i0 c #474035",
"iR c #474354",
"ic c #474747",
"eB c #484033",
"jW c #484132",
"ar c #484133",
"ax c #484134",
"i# c #484350",
"kt c #484559",
"hu c #484848",
"eM c #494133",
"fJ c #494234",
"ay c #494335",
"ft c #494949",
"dY c #4a4151",
"lq c #4a4233",
"#O c #4a4234",
"ll c #4a4332",
"lr c #4a4333",
"as c #4a4335",
"fE c #4a4436",
"#P c #4a4538",
"he c #4a4a4a",
"fW c #4b4856",
"gI c #4b4b4b",
"#Y c #4c4436",
"b3 c #4c4536",
"iL c #4c4537",
"gW c #4c4c4c",
"lj c #4d4435",
"#5 c #4d4436",
"fc c #4d4537",
"bX c #4d4637",
"gi c #4d483a",
"id c #4d4d4d",
"lw c #4e4435",
"lh c #4e4534",
"hB c #4e4536",
"ex c #4e4754",
"ge c #4e483b",
"b# c #4e4940",
"gx c #4e4e4e",
"jU c #4f4537",
"jV c #4f4636",
"hA c #4f4637",
"eh c #4f4838",
"eG c #4f493b",
"by c #4f493c",
"hK c #4f4b5d",
"gX c #4f4f4f",
"cy c #504838",
"cv c #504839",
"cs c #504938",
"#x c #50493c",
"br c #504a3c",
"er c #505050",
"bW c #514838",
"ln c #514938",
"cg c #514939",
"ip c #51493c",
"lu c #514a38",
"ho c #514a3c",
"#t c #514a3d",
"cY c #514e47",
"ht c #515151",
"hP c #524838",
"iK c #524938",
"gt c #524939",
"dZ c #524948",
"ls c #524a38",
"cl c #524a39",
"e8 c #524a3a",
"d4 c #524a3c",
"dL c #524b3d",
"eA c #524b4d",
"ez c #524c51",
"fN c #524d5c",
"hG c #524e5e",
"iW c #525060",
"fq c #525252",
"lv c #534a39",
"gA c #534a3a",
"eg c #534a3c",
"li c #534b38",
"e9 c #534b3a",
"kj c #534c3b",
"kX c #534c3d",
"f4 c #534c3e",
"#R c #534d3a",
"kF c #534d40",
"f8 c #534f60",
"e6 c #534f61",
"g# c #535353",
"lo c #544b39",
"cp c #544b3a",
"ch c #544b3b",
"gu c #544b3c",
"#1 c #544c3a",
"j5 c #544c3b",
"ff c #544d3b",
"kR c #544d3e",
"aY c #544d3f",
"kO c #544e41",
"gl c #545062",
"fQ c #545454",
"gC c #554b3b",
"l# c #554c39",
"#S c #554c3a",
"fg c #554c3b",
"ki c #554d3b",
"b. c #554d3f",
"kJ c #554d40",
"kf c #554e3b",
"jc c #554e41",
"ey c #554f57",
"kN c #555043",
"kP c #555044",
"gv c #555163",
"eV c #555555",
"hF c #564d3c",
"kL c #564e3f",
"k1 c #564e41",
"kE c #565042",
"ek c #565053",
"kT c #565144",
"e7 c #565145",
"gG c #565264",
"eL c #574e3c",
"ck c #574e3e",
"#4 c #57503d",
"k0 c #575043",
"co c #575142",
"kU c #575143",
"#Q c #575242",
"hX c #575757",
"#N c #584d3c",
"jM c #584e3b",
"#X c #584e3c",
"#i c #584e3d",
"cz c #584e3e",
"hx c #584f3b",
"eE c #584f3c",
"#M c #584f3d",
"gE c #584f3e",
"#V c #58513d",
"jl c #585143",
"in c #585144",
"hS c #58523e",
"#0 c #585242",
"#7 c #585243",
"kY c #585244",
"j4 c #58533e",
"kG c #585346",
"dj c #585360",
"fz c #585465",
"kr c #585766",
"fb c #594e3d",
"iZ c #594f3e",
"lp c #59503d",
"#s c #59503e",
"ke c #59513f",
"kI c #595244",
"da c #595245",
"kM c #595345",
"fe c #595444",
"kQ c #595446",
"ih c #595448",
"e0 c #595959",
"eK c #5a4f3f",
"bV c #5a503d",
"b2 c #5a503e",
"d6 c #5a503f",
"gk c #5a513e",
"cj c #5a513f",
"dM c #5a5140",
"ei c #5a523d",
"jK c #5a533e",
"g8 c #5a5344",
"kV c #5a5447",
"el c #5a545a",
"kH c #5a5547",
"eO c #5a5657",
"j8 c #5a5868",
"gY c #5a5a5a",
"#m c #5b513d",
"b6 c #5b513e",
"hz c #5b513f",
"hO c #5b5140",
"cx c #5b523f",
"iQ c #5b5240",
"d2 c #5b5241",
"lm c #5b533e",
"eC c #5b533f",
"cr c #5b5340",
"ij c #5b5345",
"jX c #5b543f",
"#j c #5b5444",
"cf c #5b5445",
"ds c #5b5446",
"ii c #5b5647",
"io c #5b5649",
"hf c #5b5b5b",
"#h c #5c513e",
"#r c #5c513f",
"kg c #5c5140",
"bR c #5c523d",
"#w c #5c523f",
"#W c #5c5240",
"hm c #5c5241",
"d3 c #5c5242",
"b5 c #5c533e",
"gD c #5c5340",
"jE c #5c5341",
"jD c #5c5342",
"#8 c #5c543f",
"j1 c #5c5440",
"hN c #5c5441",
"gs c #5c5445",
"iO c #5c5545",
"i. c #5c5648",
"jo c #5c5749",
"cA c #5c584e",
"eX c #5c5c5c",
"fa c #5d5341",
"hn c #5d5342",
"jF c #5d5343",
"cq c #5d543f",
"#2 c #5d5440",
"d1 c #5d5442",
"hl c #5d5443",
"#T c #5d5540",
"hT c #5d5541",
"kl c #5d5542",
"f0 c #5d5548",
"f# c #5d5642",
"fY c #5d5646",
"f3 c #5d5647",
"kS c #5d5749",
"f1 c #5d574a",
"kZ c #5d5849",
"do c #5d5864",
"be c #5d5950",
"gZ c #5d5d5d",
"cw c #5e5540",
"ci c #5e5541",
"ee c #5e5542",
"aX c #5e5647",
"#U c #5e5743",
"a5 c #5e5747",
"a9 c #5e5748",
"aT c #5e5849",
"aU c #5e584a",
"il c #5e584b",
"dQ c #5e5856",
"g4 c #5e594b",
"eW c #5e5e5e",
"hr c #5f5445",
"jI c #5f5542",
"iP c #5f5641",
"f. c #5f5642",
"ej c #5f5644",
"k9 c #5f5645",
"#3 c #5f5743",
"a8 c #5f574a",
"a7 c #5f5848",
"a4 c #5f584a",
"aV c #5f594b",
"em c #5f5b65",
"jf c #5f5d6a",
"fs c #5f5f5f",
"kk c #605642",
"dN c #605644",
"ef c #605645",
"jL c #605740",
"hM c #605742",
"j6 c #605743",
"fh c #605843",
"a0 c #605949",
"jb c #60594a",
"f2 c #605a4c",
"im c #605a4d",
"dp c #605b53",
"dR c #605b69",
"fT c #606060",
"#g c #615542",
"jY c #615740",
"jN c #615743",
"hi c #615745",
"jJ c #615746",
"hD c #615840",
"eD c #615841",
"gd c #615846",
"#L c #615a48",
"gU c #615a4d",
"dg c #615b4d",
"di c #615b51",
"e. c #615c4f",
"it c #615f6d",
"fr c #616161",
"hE c #625743",
"bU c #625843",
"#q c #625844",
"eF c #625845",
"jx c #625846",
"iN c #625943",
"iJ c #625947",
"jk c #625a4a",
"g6 c #625b4d",
"aW c #625c4d",
"jn c #625c4e",
".2 c #625d4f",
"ja c #625d50",
"e5 c #625d6e",
"j# c #625f53",
"fR c #626262",
"gq c #635943",
"k6 c #635945",
"bS c #635a43",
"b0 c #635a44",
"dK c #635a4b",
"jp c #635b4b",
"jr c #635c4b",
"h8 c #635c4c",
"dq c #635d4e",
"a3 c #635d4f",
".X c #635e50",
"bF c #636057",
"dk c #63606e",
"fS c #636363",
"lb c #645947",
"ld c #645a47",
"#v c #645b44",
"lc c #645b45",
"la c #645b46",
"jw c #645c4d",
"g3 c #645e50",
"fM c #645e52",
"h9 c #645f50",
"iV c #646464",
"#n c #655c44",
"k5 c #655c48",
"g7 c #655c4d",
"bE c #655d4a",
"h. c #655e4d",
"fL c #655e4e",
"d# c #655e4f",
"h# c #655f50",
"g5 c #656052",
"gT c #656053",
"aF c #656054",
"d7 c #665c48",
"dO c #665c49",
"bQ c #665d46",
"hj c #665d49",
"bx c #665d4a",
"bq c #665d4b",
"iz c #665e4b",
"dr c #665e4e",
"aR c #665f4f",
"bY c #66604c",
"aS c #666051",
"df c #666052",
"dw c #666152",
".N c #666153",
"gS c #666255",
"ks c #666571",
"i5 c #666671",
"jT c #675c48",
"iC c #675d47",
"eJ c #675d4a",
"bZ c #675e48",
"#p c #675e49",
"jG c #675e4a",
"k8 c #675e4b",
"d0 c #675f4b",
"fZ c #676052",
"dd c #676152",
"dh c #676153",
"d. c #676255",
"b7 c #676257",
"kc c #676671",
"hy c #685d49",
"b4 c #685e48",
"dP c #685e49",
"hk c #685e4a",
"#o c #685f48",
"iM c #685f49",
"#l c #685f4a",
".L c #685f4b",
"#z c #68604a",
"lg c #68604c",
"du c #686150",
"js c #686152",
"bn c #695f4a",
"eI c #69604b",
"bw c #69604c",
"ed c #69614e",
"bs c #69624d",
"bP c #696251",
"a2 c #696253",
"a1 c #696254",
"c9 c #696558",
"bT c #6a604a",
"b1 c #6a614b",
".M c #6a614d",
"hq c #6a614e",
"g2 c #6a6254",
"bz c #6a634e",
"gj c #6a6351",
"dc c #6a6352",
"ha c #6a6354",
"ji c #6a6973",
"jZ c #6b604a",
"j2 c #6b604b",
"bt c #6b614b",
"gr c #6b614c",
"gf c #6b624c",
"d8 c #6b624d",
"le c #6b634d",
"lf c #6b6350",
"d5 c #6b644e",
"iA c #6b644f",
".V c #6b6451",
"de c #6b6455",
"bm c #6c624c",
"f7 c #6c624e",
"is c #6c634d",
"k7 c #6c6451",
"#k c #6c6551",
"#u c #6c6552",
"dv c #6c6556",
"aP c #6c675c",
"bA c #6d634e",
".0 c #6d644e",
".K c #6d644f",
".S c #6d654e",
"hp c #6d6650",
"jH c #6d6651",
"#y c #6d6653",
"hV c #6d6b78",
"bl c #6e644d",
"bu c #6e6653",
"eH c #6e6754",
"ir c #6f654f",
"bp c #6f6651",
"bB c #6f6654",
"bD c #6f6751",
"gg c #6f6754",
"jB c #6f6e77",
"ib c #6f6f6f",
"bk c #706750",
"f6 c #706851",
"gh c #706852",
".U c #706853",
"fl c #706d7a",
"fp c #707070",
"iq c #716851",
".R c #716853",
"dJ c #716857",
"k4 c #716a58",
".5 c #726952",
"#f c #726954",
".Q c #726a53",
"ec c #726a54",
"k3 c #726d5c",
"eb c #736a53",
"jv c #736a59",
"iB c #736b54",
"bC c #736b56",
"dx c #736f61",
"bv c #746b56",
"bo c #746c57",
"bj c #746e5b",
"f5 c #746f5b",
".T c #756d59",
"d9 c #756e5a",
".1 c #756e5c",
".W c #756f5c",
".I c #75746c",
"jR c #76777d",
"bi c #77746a",
"fo c #777ea7",
"hZ c #797c77",
"fw c #797ea6",
"hJ c #797f8a",
".P c #7a725c",
".Z c #7a725d",
".4 c #7b735e",
"#9 c #7b7563",
"if c #7b8285",
"ea c #7c745f",
"dl c #7c7a86",
"jz c #7d7e83",
"dI c #7f7865",
"hc c #7f7866",
".u c #807366",
"dH c #807a68",
".m c #817467",
"ju c #817a67",
".J c #817b66",
"iH c #818884",
"hb c #827c69",
"cE c #827c70",
"jt c #837d6a",
"#A c #857f6c",
"cC c #868173",
"#J c #878175",
"aI c #878274",
"bh c #87857b",
"aJ c #888375",
"dn c #888691",
"hv c #888694",
"jP c #88888d",
".c c #897d6f",
".6 c #898472",
"cD c #898477",
"kb c #898a8e",
"ae c #8a8578",
"af c #8a8579",
"ag c #8a8679",
"dB c #8a897e",
"#I c #8b8678",
"aO c #8b867a",
".O c #8b8773",
".Y c #8c8774",
"iT c #8c94af",
"#H c #8d877a",
".3 c #8d8875",
"aM c #8d887d",
"bd c #8d8a7d",
"eP c #8e8c92",
".k c #8f8677",
".s c #8f8777",
"e# c #8f8b78",
"ah c #8f8b7f",
"bc c #8f8c7f",
"ew c #8f8d97",
"dm c #8f8e97",
"bf c #908e83",
"jA c #909599",
"c. c #918d80",
"cF c #918e85",
"iD c #919196",
".h c #92897a",
"aN c #928c80",
"b9 c #928d7f",
"bg c #929086",
"aH c #938e81",
"#K c #938e82",
".y c #958f82",
"#e c #959188",
"ix c #959886",
"bb c #969389",
".H c #96968e",
"cb c #979284",
"bL c #979386",
"ia c #97979a",
"aK c #989589",
".G c #98988f",
".t c #998978",
".i c #998e7f",
".q c #998f7f",
".w c #999182",
"#d c #999489",
"cI c #999688",
"bK c #99968c",
"fn c #999bb3",
"j9 c #999c9a",
"k# c #999e9b",
".r c #9a8976",
".j c #9a8977",
".l c #9a8a78",
"ad c #9a9688",
"aL c #9a978c",
".e c #9b8f7e",
".o c #9b9183",
"cJ c #9b9689",
".n c #9c907e",
".f c #9c9283",
"aa c #9c9688",
"bJ c #9c998c",
"c# c #9c998f",
"cH c #9c9a8b",
".C c #9c9d95",
"#G c #9d9a8b",
".x c #9e9283",
".a c #9e998c",
"ab c #9e9a8c",
".g c #a09080",
"#c c #a09c92",
".p c #a19181",
".b c #a19282",
"a# c #a19c8d",
"bM c #a19e91",
"c0 c #a1a096",
"ba c #a1a198",
".D c #a1a29a",
"Qt c #a29b8d",
"en c #a29ea6",
"c2 c #a2a197",
".B c #a2a39b",
"i4 c #a2a6a1",
"c3 c #a3a39b",
"fV c #a3a4a0",
"ka c #a3a8a3",
"#b c #a4a296",
"c8 c #a4a297",
".F c #a4a59d",
"iu c #a4a6a5",
".v c #a59d8e",
"e1 c #a5b3df",
"jg c #a6aba6",
"ca c #a7a495",
"bH c #a7a598",
"c7 c #a7a59b",
"ce c #a8a495",
"#F c #a8a595",
"bI c #a8a698",
"hH c #a8a9a9",
".E c #a8aaa2",
".# c #a9a093",
"#E c #a9a697",
"c5 c #a9a79d",
"iS c #a9aca9",
"ac c #aaa799",
"#a c #aaa79b",
"c6 c #aaaa9f",
".A c #aaaca5",
"hW c #aaacac",
"iE c #aaaeae",
".d c #ab9e8d",
"cG c #aba99b",
"dX c #acacb4",
"bO c #ada99c",
"cc c #adab9c",
".9 c #adaba1",
"#D c #aeaa9c",
"#C c #aeab9e",
"c1 c #aeafa6",
"k. c #aeb2ac",
"cB c #afaea5",
"dA c #afafa2",
"jQ c #afb3ad",
"bN c #b0ada1",
"dz c #b0afa2",
"## c #b1aea3",
"dD c #b2b1a3",
"cd c #b4b2a5",
"dE c #b4b3a7",
"c4 c #b4b3a9",
"dG c #b4b4a8",
".z c #b4b7b1",
"dy c #b5b5aa",
"dF c #b7b8ad",
"#. c #b8b7ae",
"aG c #b9bab1",
"a. c #bbbcb2",
"b8 c #bcbdb5",
"dC c #bdbeb2",
"cZ c #c0c2bb",
"ep c #c0c5d2",
"#B c #c4c6bd",
"hg c #c5c6cd",
".8 c #c5c7bf",
"bG c #c5c7c0",
"fy c #c9c7ce",
"eT c #c9cbce",
"fU c #cacbda",
"gJ c #cfcfd7",
"eu c #d0d2e1",
"gy c #d1d0d7",
".7 c #d1d4ce",
"eQ c #d2d1d4",
"dV c #d2d3e2",
"e4 c #d4d3d7",
"hd c #d8d7df",
"dU c #dcdae0",
"fm c #dcdce0",
"go c #dcdce1",
"hs c #dfdee2",
"gb c #e1e1e5",
"fO c #e3e3e8",
"gw c #e3e3eb",
"gH c #e4e4eb",
"gV c #e6e5ec",
"f9 c #e7e7ed",
"dS c #e9e8ea",
"fx c #f0f1f5",
"dT c #f6f8ef",
"eo c #f9f9f8",
"ev c #f9f9f9",
"e3 c #fbfbfb",
"dW c #fbfff5",
"e2 c #fcfcfe",
"eS c #fffefd",
"eR c #ffffff",
"Qt.#.a.b.c.d.e.f.g.h.i.j.k.l.m.d.n.o.p.h.q.r.s.t.u.v.n.w.x.y.z.A.B.C.D.E.F.G.H.I",
".J.K.L.M.N.O.P.Q.R.S.T.U.V.W.X.Y.Z.Q.R.0.T.R.V.1.2.3.4.5.R.6.7.8.9#.###a#b#c#d#e",
"#f#g#h#i#j#k#l#m#n#o#p#q#r#s#t#u#l#m#v#o#p#q#w#s#x#y#z#m#v#A#B#C#D#E#F#G#H#I#J#K",
"#L#M#N#O#P#Q#R#S#T#U#V#W#X#Y#Z#0#R#1#2#3#4#W#X#5#6#7#R#1#8#9a.a#aaabacadaeafagah",
"aiajakalamanaoapaqarasatauauavawaoapalaxayazauauaAaBaCaDaEaFaGaHaIaJaKaLaMaNaOaP",
"aQaRaSaTaUaVaWaXaYaZa0a1a2a3a4aVaWa5aYa6a7a1a2a3a8aVaWa9b.b#babbbcbdbebfbgbgbhbi",
"bjbkblbmbnbobp.Lbqbrbs.Qbt.0bubvbpbwbxbybz.QbtbAbBbCbDbwbEbFbGbHbIbJbKbHbLbMbNbO",
"bPbQbRbSbnbTbUbVbWbXbYbZbRb0b1bTbUb2bWb3bYb4b5bSb1bTbUb6bWb7b8b9adc.c#cacbcccdce",
"cfcgchcicjcgckclcmcncocgcpcqcrcsckclctcucocvcpcwcxcyczclctcAcBcCcDcEcFcGcHcIcJ#E",
"cKcLaoaucMcNcOcPaucQaBcRcScScTaocLcUaucQcVcRcScScTcWcLcXcucYcZc0c1c2c3c4c5c6c7c8",
"c9d.d#dadbdcdddedfdgdhdidjdkdldmdndodpdgdhdqdrdsdtdudddvdwdxdydzdzdAdBdCdDdEdFdG",
"dHdIdJdKdLbsdMdNdOdPdQdRdSdTdUdVdWdXdYdZd0d1d2d3d4d5d6dNd7d8d9#f#u.We.e#eaebec.S",
"edeeefegeheiejekelemeneoepeqereseteuevewexeyezeAeBeCeDeEbUbt#peF#w#seGeHeI#m#v#o",
"eJeKeLeMeNeOePeQeReSeTeUeVeWeXereYeZe0e1e2e3e4e5e6e7e8e9f.f##Vfafbfcfdfefffg#2fh",
"fiazfjfkflfmfnfofpesfqeXfreWfsftfufufvfvetftfwfxfyfzfAfBfCfDfEfFcSfGfHawfIaEalfJ",
"fKfLfMfNfOeUfufPfQeXfrfRfSfSfTftfPfPfPfufufvfueXfUfVfWcfdLfXfYfZfZdgf0f1f2f3f4cP",
"f5f6f7f8f9fug.g#fRfSfrfSfSfSfretfPfPfufufufufPgafugbgcgdbxged5ebgfbAggbCghbwbxgi",
"gjbQgkglf9fPgmfqe0fsfSfSfSfSfreZfPfPfPfufPfPfPfPgngogpb6bWb3bY#ob5gqgrbTbUb6bW#Y",
"gsgtgugvgwfugxfqeVe0frfRfSfSfrg.fPfPfPfPfPfPfPfugngygzgAgBcucocggCcwgDcggEe9gBcu",
"gFauaDgGgHfverfqgIe0eXfrfSfSfreYfPfPfPfPfPfPfPfPgngJgKcPgLgMaBgNgOaogPapgQcPgLgR",
"gSgTgUgGgVfvgWergxgXgYgZfTfTfreYfPfPfPfug0fPfPfPgagJg1g2g3g4g5g6g7g8g9h.h#hag3g4",
"hbhcdJgvhdfuesergXheeVe0hffTfreZfPfPfPfueYfPfPfPgahghhhihjhkd0hlhmhnhohpdMhihjhk",
"hqeehrglhseYeYhtgXgIhuere0gZfreZfPfPfPfueZfvfPfPg0hvhwhxbUbthyhzhAhBhC#8hDhxhEbt",
"eJd6hFhGhHfRfPftgXgXhefteVgYgYeZfPfPfuhIetetfvfuhJhKhLcphMhNffhOhPhQhRhSe9cpf.hT",
"hUfF#6fChVhWeYetgxgXgxftfthXgYeZfPfuethIethIeYhYhZh0fjh1h2fFazfGh3h4h5h6cTh1cMfF",
"h7h8h9i.i#iaibfPicgIgXheidide0iefPetetetetfPg0ifigihiiij#xik#0ilimg4inioiicfipik",
".WiqirisdPitiuhtg.hugXgXgXerfQesetivetetfugniwixiybCgh.MizgeiAiBbm.0ggbC.R.Mbqgi",
"gjiCb5bSbnbTiDiEiFieftgXerfQfQivetivetfviGhYiHiIiJbTbUb6iKiLbYiMb5bSgrbTiNb6iKb3",
"iOe8fgiPiQe8iRiSiTgaieidfQfQfQiveteteYiGiUiViWiXcxcl#scpgBiY#0e8fgcwhNcliZcpgBgL",
"i0cSi1aoi2apcui3i4ftfvhIfqfQfQiveteZgagnhXi5h0aoazaDh3i6cNi7anaui8i9azaDh3i6cNj.",
"j#jajbjcjdfLa3jejfjgiFieetfqfQetfvgajhfTjijjjkjljmh8a3fZjnjo.Xf2jpjljqjrdqjsjnjo",
"jtjujvjwdLiAd2jxjyjzjAfPg.hIidgngaiGeVjBjCjDjEjFdLhpiQjxjGbnd0hljEjFhojHiQjxjGbn",
"hqjIjJguehjKjLjMjNjOjPjQfTfPiFgnjhfrjRjSjThzjUjVjWjXjYhxbUjZhyhzhAjVj0j1jYhxjNj2",
"jGd6eLeMj3j4j5j5j6crj7j8j9k.k#kakbkckdkekfkghPhQkhj4e9j5hMhTkikghPhQhRj4kjj5kkkl",
"kmeB#ZcMa6h6knaqi2fJgBkokpkqkrksktkukvfJkwgOapkxkykzi2eNkAfJfFkBapkxkCkzi2eNkAfJ",
"kDf3aVkEkFkGkHkIkJkKkLkMi.kNkOkPkQjljcfHkRdakSkTkUkGkVkIjckWkXkYkZkTk0kGkVkIk1k2",
"k3k4#lk5k6k7k8klk9l.l#hpgflalbk7d0klk9l.l#hpgflcld.Vd0d1k9fjl#hplelcldlflgd1k9fj",
"#jd2lhli#MgkiKlj#OlklllmlnlolpgkiKljlqlklrlmlnlolpgklsljlqltlrlmlulilp#slvlwlqlt",
"lxcNaplylzlAakaplBlClDlElAlFlGlAakapcPcQlHlElAlylGlAaki8cPcQlIeNlAlylJlAaki8cPlK",
"lLlMlNlNlOlPlQlRlSlTlUlVlWlXlYlPlQlRlSlZl0lVlWlXlYl1lQlRlSl2l0lVlWlQlYl1lXlRlSl3"};
