/* XPM */
static char *dummy[]={
"40 40 660 2",
".2 c #00a15e",
"h7 c #051263",
"he c #061365",
"hu c #0a196c",
"d0 c #0a1d70",
"h6 c #0b1c6f",
"eF c #0b1e71",
"gj c #0b1e72",
"fP c #0b1e73",
"dZ c #0c1e72",
"fv c #0c1f75",
"fd c #0d2073",
"f0 c #0d2075",
"gy c #0d2076",
"f1 c #0d2077",
"hC c #0e1e74",
"en c #0e247d",
"hV c #0f1c68",
"hf c #0f227c",
"hv c #0f227d",
"g1 c #10237f",
"hD c #10247f",
"hX c #102481",
"hW c #11237d",
"gz c #112580",
"hN c #112583",
"fQ c #122986",
"c3 c #132b8c",
"eG c #132c8b",
"dG c #142981",
"dl c #142a86",
"c4 c #1438ac",
"gM c #152c8e",
"g2 c #152e8f",
"f4 c #162e8d",
"gk c #163094",
"hg c #163095",
"dH c #163bb5",
"gl c #173094",
"gO c #173195",
"fS c #173196",
"gN c #173298",
"fw c #173397",
"hY c #17349b",
"hw c #17359b",
"d1 c #173db5",
"dm c #173eba",
"f3 c #183297",
"ff c #183299",
"gP c #18349a",
"eX c #18369f",
"fz c #1836a1",
"f5 c #1838a5",
"fy c #19359b",
"gA c #19359c",
"fR c #19369d",
"hh c #19369e",
"g3 c #1937a2",
"hi c #1937a3",
"fe c #1938a2",
"hE c #193bab",
"gB c #1940bc",
"gQ c #1942c3",
"fg c #1943c2",
"eZ c #1943c3",
"f6 c #1944c5",
"gm c #1944c7",
"dY c #1a2979",
"fx c #1a38a1",
"f2 c #1a38a4",
"g4 c #1a3db0",
"hj c #1a3db1",
"fT c #1a3eb2",
"eI c #1a43c2",
"fA c #1a45c1",
"fU c #1a46c8",
"dI c #1a47c9",
"fh c #1a47ca",
"d2 c #1a47cc",
"do c #1a47cd",
"fB c #1a48cb",
"f7 c #1a48cc",
"eH c #1b3ba9",
"eo c #1b3cab",
"eY c #1b3eaf",
"dK c #1b49d0",
"dn c #1b49d2",
"eJ c #1b4ad1",
"dL c #1b4bcf",
"fC c #1b4bd2",
"d6 c #1b4bd4",
"fD c #1b4bd6",
"fi c #1b4dd6",
"dJ c #1c4dd7",
"er c #1c4dd9",
"eL c #1c4ed8",
"ep c #1c4eda",
"d3 c #1c4edb",
"d4 c #1d50db",
"eK c #1d50dc",
"eq c #1d50dd",
"d5 c #1d50de",
"hB c #232e75",
"iq c #272640",
"g0 c #283988",
"ip c #2e2d2e",
"hz c #32314a",
"d7 c #32a579",
"Qt c #32a67a",
"c5 c #33a579",
"cu c #36a579",
"cc c #36a679",
"id c #373328",
"bW c #3aa579",
"h2 c #3b382b",
"h5 c #3c4987",
"gi c #3d4c8f",
".# c #3fa578",
".I c #40a578",
".3 c #41a578",
"bd c #43a577",
"gn c #45a578",
"io c #47411c",
"hr c #4b4752",
"go c #4ca474",
"gp c #4da576",
"gJ c #4e484b",
"gL c #4e5b90",
"hK c #4f4a15",
"dF c #505b94",
"el c #534f60",
"eE c #545062",
"eV c #555163",
"hP c #559f55",
"c7 c #55a370",
"fb c #565264",
"gg c #574d5c",
"c6 c #57a476",
"ir c #585766",
"ie c #5a5868",
"c8 c #5aa675",
"#j c #5da472",
"#i c #5ea476",
"hL c #5f5d6a",
"dW c #605456",
"gY c #615f6d",
"hS c #645d1d",
"g5 c #659f62",
"hF c #669e5b",
"dp c #67a996",
"bp c #67aa97",
"#k c #68a472",
"bc c #68a996",
"gw c #6e6c78",
"hO c #6e9f64",
"hZ c #6ea163",
"cr c #716055",
"fj c #71a270",
"h8 c #72a36a",
"cG c #736662",
"fk c #739c58",
"ii c #74a46c",
"cs c #756a67",
"dE c #777ea7",
"cZ c #786859",
"hk c #789f5a",
"dB c #797278",
"hx c #799f5d",
"bY c #7a994f",
"fl c #7ca160",
"hT c #7d7e83",
"gC c #829d53",
"gR c #839c59",
"f8 c #869b5a",
"bX c #869f67",
"h3 c #88888d",
"bZ c #88a25b",
"cj c #897a15",
"#F c #8a7b18",
"fE c #8a9b4a",
"cY c #8b6f48",
"fM c #8b7b16",
"fV c #8b994d",
"cm c #8c7a1e",
"dw c #8c7e15",
"ht c #8c94af",
"gq c #8d9d55",
"ct c #8f8682",
"#E c #90801a",
"hU c #909599",
"cg c #918317",
"hc c #919196",
"es c #919540",
".L c #928416",
"g6 c #929540",
"da c #936627",
"hq c #948125",
"fK c #94851b",
"ci c #948618",
"eR c #948716",
"h9 c #958716",
"cl c #958718",
".c c #958836",
"dg c #959090",
"eM c #969842",
"dR c #978719",
"ij c #97891b",
".b c #978a38",
"gK c #97979a",
"g7 c #979941",
"cR c #98871b",
"ez c #988725",
"e8 c #988818",
"ck c #988a1d",
"d9 c #989334",
"e0 c #98984e",
"fr c #994522",
"gv c #99732d",
"cC c #998a1b",
"ch c #998a1f",
".K c #998c17",
"fL c #998c1a",
"dt c #998d16",
"dD c #999bb3",
"if c #999c9a",
"ih c #999e9b",
"b4 c #9a4021",
"b7 c #9a4120",
"fY c #9a5d2e",
"cX c #9a753f",
"ge c #9a8d18",
"dv c #9a8d19",
"eA c #9b8530",
"af c #9b8825",
"a. c #9b892a",
"aE c #9b8b21",
"ef c #9b8c1a",
"hl c #9b8f18",
"fs c #9c492b",
"bL c #9c8827",
"## c #9c8928",
"aT c #9c8929",
".R c #9c8b24",
"gX c #9c8e18",
"ex c #9c8f17",
"fJ c #9c9016",
"by c #9d8c25",
"aL c #9d8e22",
"hG c #9d901a",
"hR c #9d901c",
"#G c #9d901e",
"bI c #9d9117",
"g9 c #9d9119",
"c9 c #9d9239",
"fN c #9e5928",
"df c #9e7842",
"ey c #9e8932",
"#s c #9e8b25",
".J c #9e8b2c",
"#R c #9e8c26",
".d c #9e8c28",
"a2 c #9e8e26",
"d. c #9e8f1e",
"cN c #9e8f20",
"fp c #9e9019",
"gG c #9e9316",
"a0 c #9e932b",
"ei c #9f200e",
"b5 c #9f4125",
"gf c #9f5d2d",
"db c #9f6b37",
"a7 c #9f8b27",
"#0 c #9f8d28",
".i c #9f8e24",
"al c #9f8e25",
"e3 c #9f921a",
"gH c #9f921b",
"gS c #9f9316",
"cB c #9f9317",
"gI c #9f931a",
"hJ c #9f9417",
"#H c #9f9514",
"fm c #9f9847",
"b8 c #a0422a",
".4 c #a08b31",
"f9 c #a09121",
"cL c #a0921b",
"#S c #a09417",
"eQ c #a09419",
"gr c #a0941a",
"h0 c #a0941b",
".O c #a09517",
"e1 c #a09518",
"aO c #a09614",
"ga c #a09618",
"d8 c #a09c5e",
"gu c #a18239",
"#D c #a18a3a",
"be c #a19028",
"dM c #a1933f",
"ha c #a19419",
"#T c #a1941c",
"fn c #a19519",
"du c #a1951c",
"#J c #a19615",
"bv c #a19618",
"bf c #a19715",
"fX c #a19716",
"ap c #a28e29",
"e# c #a29033",
"hH c #a29419",
"hI c #a2941d",
"gt c #a29619",
"aA c #a29717",
"#r c #a29718",
"bs c #a29719",
"bi c #a29815",
"a6 c #a29818",
"e. c #a29a3f",
"hA c #a2a6a1",
"b2 c #a3902a",
"b0 c #a3902f",
"cv c #a39231",
"aw c #a39622",
"ds c #a39717",
"in c #a39718",
"eN c #a39719",
"cz c #a3971a",
"dq c #a3973b",
"dQ c #a39816",
"#p c #a39817",
"hp c #a39818",
"gU c #a3981a",
"et c #a39915",
".f c #a39916",
"cP c #a39917",
"ed c #a39918",
"b3 c #a44e30",
"eS c #a45426",
"d# c #a47a3d",
"#l c #a49031",
"bF c #a49131",
"g# c #a4932a",
"cM c #a49422",
"g. c #a49423",
"bq c #a49429",
"cd c #a49530",
"e2 c #a4971b",
"dO c #a49817",
"aS c #a49818",
"#m c #a49819",
"aN c #a4981b",
"aQ c #a49916",
"fF c #a49917",
"a5 c #a49918",
"ax c #a49919",
"ev c #a49a15",
"i# c #a49a16",
"gc c #a49a17",
"e4 c #a49a18",
"hQ c #a4a265",
"gZ c #a4a6a5",
"b6 c #a54224",
"hb c #a57235",
"#Z c #a59918",
"b1 c #a59919",
"bH c #a5991c",
"aR c #a59a17",
"br c #a59a18",
".Q c #a59a19",
"ea c #a59a1a",
"az c #a59b18",
"g8 c #a69943",
"#. c #a69a18",
"bx c #a69a19",
"ac c #a69b18",
".N c #a69b19",
"cx c #a69b1a",
"dN c #a69b1b",
"gW c #a69c17",
"gs c #a69c18",
"#L c #a69c19",
"hn c #a69c1a",
"gE c #a69c1b",
"hM c #a6aba6",
"gT c #a79a1a",
"ia c #a79b18",
"bu c #a79b19",
"bG c #a79b1a",
"cw c #a79b1b",
"hy c #a79b1d",
"hm c #a79c17",
"bh c #a79c18",
".h c #a79c19",
"aD c #a79c1a",
".7 c #a79d18",
"il c #a79d19",
"ho c #a79d1b",
"ft c #a83923",
"eg c #a8522d",
"ic c #a89c18",
"#V c #a89c19",
".5 c #a89c1a",
"#X c #a89c1b",
"ib c #a89c1c",
".e c #a89d19",
"am c #a89d1a",
"fW c #a89d1b",
"cf c #a89e19",
"ab c #a89e1a",
"gh c #a8a9a9",
"aM c #a99c19",
"cA c #a99c1b",
"i. c #a99c1c",
"eP c #a99c1d",
"aP c #a99d19",
"dP c #a99d1a",
"#o c #a99d1b",
"#q c #a99d1c",
".9 c #a99e19",
"h# c #a99e1a",
"fH c #a99e1c",
".M c #a99e1d",
"fI c #a99f1c",
"hs c #a9aca9",
"eh c #aa260f",
"cK c #aa9546",
".a c #aa9759",
"gV c #aa9d1b",
".8 c #aa9e19",
"bJ c #aa9e1a",
"cy c #aa9e1b",
"a4 c #aa9e1c",
"ao c #aa9e1d",
"#U c #aa9f1a",
"ae c #aa9f1b",
"cQ c #aa9f1c",
"gx c #aaacac",
"hd c #aaaeae",
"dx c #ab4920",
"aZ c #ab974a",
"gb c #ab9e1a",
"aa c #ab9e1c",
"an c #ab9e1d",
"e6 c #ab9f1a",
"ad c #ab9f1c",
"e7 c #ab9f1d",
".g c #ab9f1e",
"#W c #aba01b",
"ew c #aba01d",
"bj c #aba01e",
"eO c #aba11d",
"eu c #aba11e",
"h1 c #aba21d",
"c0 c #aba3a2",
"e9 c #ac582c",
"e5 c #ac9f1a",
"bK c #ac9f1c",
"a# c #ac9f1d",
"#Y c #aca01b",
".6 c #aca01c",
"#n c #aca01d",
"ec c #aca01e",
"bg c #aca01f",
"gF c #aca11d",
"#K c #aca11f",
"bt c #aca21d",
"fG c #aca21e",
"fq c #ad7640",
"a1 c #ad9c3c",
"cO c #ada01c",
"fo c #ada01d",
"gd c #ada01e",
"ee c #ada11e",
"bw c #ada21d",
"#I c #ada21f",
"gD c #ada31e",
"ce c #ada320",
"cF c #ae8233",
"ik c #aea01e",
"eb c #aea11c",
"h. c #aea11e",
"im c #aea11f",
".P c #aea31e",
"dr c #aea41f",
"ig c #aeb2ac",
"dc c #af3e26",
"cD c #af4323",
"eB c #af5631",
"a3 c #afa31e",
"aC c #afa520",
"h4 c #afb3ad",
"aB c #b0a620",
"dS c #b1512b",
"ay c #b1a620",
"cS c #b24422",
"cn c #b54422",
"#1 c #b63518",
"bz c #b83418",
".S c #b93519",
"aF c #ba3418",
"bM c #bb3015",
"b9 c #bc3116",
"aU c #bc3b19",
"#M c #bd3418",
".j c #bd3518",
"cU c #be2e09",
"bk c #be3518",
"aq c #be371a",
"ej c #bf2f10",
"#a c #c0421b",
"c2 c #c0c5d2",
"#t c #c33a1b",
"a8 c #c8411d",
"ag c #c9451d",
"dk c #c9cbce",
"cT c #cb2f0a",
"dh c #d6d4d3",
"fO c #d8d7df",
"f# c #d94b0f",
"cJ c #dcdae0",
"dC c #dcdce0",
"f. c #dd3e0d",
"fa c #dd5113",
"cV c #de4f15",
"bR c #df5110",
"fZ c #dfdee2",
"eC c #e04f10",
"bO c #e05210",
"bN c #e15213",
"eT c #e15a15",
"dy c #e26218",
"cq c #e39d17",
"dX c #e3e3e8",
"eW c #e3e3eb",
"cE c #e46818",
"fc c #e4e4eb",
"dT c #e55111",
"bP c #e55914",
"co c #e66617",
"fu c #e6e5ec",
"dd c #e75c12",
"bQ c #e76619",
"em c #e7e7ed",
"cH c #e9e8ea",
"dU c #ea6a16",
"bl c #eb6b12",
".k c #eb6c12",
"cW c #eb9d14",
"dV c #f09911",
"ek c #f29a10",
"eD c #f49c0f",
"cI c #f6f8ef",
"eU c #f79e0d",
"dA c #f79e0e",
"c1 c #f9f9f8",
"dz c #fb9c0d",
"de c #fea20b",
"bU c #fea609",
"bV c #fea70b",
".l c #ff461e",
".T c #ff461f",
".U c #ff481e",
".m c #ff491e",
"#b c #ff4b1d",
".n c #ff4c1d",
"#N c #ff4d1d",
"#u c #ff4e1d",
".o c #ff4f1d",
"#2 c #ff501c",
".p c #ff511c",
"ah c #ff521c",
"#3 c #ff531c",
".q c #ff541c",
".r c #ff561b",
".V c #ff571b",
"ar c #ff581b",
".s c #ff591a",
"#c c #ff5a1a",
".t c #ff5b1a",
".W c #ff5c1a",
".u c #ff5d1a",
".X c #ff5f19",
".v c #ff6019",
".Y c #ff6119",
".w c #ff6219",
".Z c #ff6318",
".x c #ff6418",
"#v c #ff6518",
".y c #ff6618",
"#w c #ff6717",
".z c #ff6817",
".A c #ff6917",
"#x c #ff6a17",
".B c #ff6b17",
"#y c #ff6c16",
".C c #ff6d16",
"#z c #ff6e16",
".D c #ff6f16",
".E c #ff7016",
".F c #ff7115",
".G c #ff7215",
".H c #ff7315",
".0 c #ff7415",
"#d c #ff7515",
".1 c #ff7614",
"#4 c #ff7714",
"#e c #ff7814",
"#f c #ff7914",
"#g c #ff7a13",
"#h c #ff7b13",
"aG c #ff7c13",
"#A c #ff7d13",
"#B c #ff7e13",
"#C c #ff7f12",
"#O c #ff8012",
"#5 c #ff8112",
"#P c #ff8212",
"#Q c #ff8312",
"#6 c #ff8411",
"#7 c #ff8511",
"#8 c #ff8611",
"#9 c #ff8711",
"as c #ff8810",
"ai c #ff8910",
"aj c #ff8a10",
"ak c #ff8b10",
"at c #ff8c10",
"a9 c #ff8d0f",
"au c #ff8e0f",
"av c #ff8f0f",
"aH c #ff900f",
"aI c #ff910f",
"aJ c #ff920e",
"aK c #ff930e",
"aV c #ff940e",
"aW c #ff950e",
"aX c #ff960e",
"aY c #ff970d",
"b. c #ff980d",
"b# c #ff990d",
"ba c #ff9a0d",
"bb c #ff9b0c",
"bA c #ff9c0c",
"bm c #ff9d0c",
"bn c #ff9e0c",
"bo c #ff9f0c",
"bB c #ffa00b",
"bC c #ffa10b",
"bD c #ffa20b",
"bE c #ffa30b",
"cp c #ffa40b",
"bS c #ffa50a",
"bT c #ffa60a",
"c. c #ffa70a",
"c# c #ffa909",
"ca c #ffab09",
"cb c #ffac09",
"dj c #fffefd",
"di c #ffffff",
"QtQt.#.a.b.c.d.e.f.g.h.i.j.k.l.m.n.o.p.q.r.s.t.u.v.w.x.y.z.A.B.C.C.D.E.F.G.G.G.H",
"QtQt.I.J.K.L.M.N.O.P.Q.R.S.T.U.n.o.p.q.V.s.W.X.Y.Z.y.z.A.B.C.D.E.G.H.0.0.1.1.1.1",
"Qt.2.3.4.5.6.7.8.6.9#.###a.U#b.o.p.q.V#c.u.X.w.x.y.A.B.C.D.F.G.0#d.1#e#f#f#g#h#h",
"#i#j#k#l#m#n#o#p.6#q#r#s#t#b#u.p.q.V#c.u.X.w#v#w#x#y#z.E.G.0.1#e#f#h#h#A#A#B#C#C",
"#D#E#F#G.e#H#I.e#J#K#L.i#M#N.p.q.V#c.u.X.w#v.z.B.C.D.G.0.1#e#g#h#A#B#O#O#P#P#P#Q",
"#R#S#T#U#V#q#W#V#X#Y#Z#0#1#2#3.r.s.u.X.w.y.A.B.C.E.H#d#4#f#h#A#C#5#P#6#6#7#8#9#9",
"a.#Va##L.eaaabacadae#pafagah.r.s.W.X.w#v.A.B#z.F.0.1#f#h#A#C#5#Q#6#8#9aiaiajakak",
"alam.han.N.han.N.eao.Qapaq.qar.t.X.w#v.z.B#z.F.0.1#f#h#B#O#P#6#9asajakatauauavav",
"aw#paxayazaAaB.haAaCaDaEaF.V.t.u.Y.x#w.B.C.F.0.1#faG#C#P#6#8asajatauavaHaIaJaJaK",
"aLaMaNaOaP#XaQ#V#XaRaSaTaU.s.u.v.Z.y#x.C.E.0.1#faG#C#P#6#9aiakauaHaIaJaVaWaXaYaY",
"aZa0a1a2ama3a4a5a3ada6a7a8.t.X.w.y.A#y.D.H.1#faG#C#P#7#9aja9avaIaKaWaYb.b#babbbb",
"bcbcbdbeacbfbgbhbibj.N.ibkbl.v.x.z.B#z.G#d#f#h#C#P#7asakauaHaJaVaYb#babbbmbnbobo",
"bpbp.3bqbrbsbtbubvbwbxbybz.X.w.y.A.C.E.0#4#h#B#P#6#9akauaHaKaWb.babAbnbBbCbDbDbE",
"QtQt.IbFbGbHbIbJbK#U#.bLbMbNbObPbQbR.G.1#f#A#O#6#9ajauaHaKaXb#bbbnbBbDbEbSbTbUbV",
"QtQtbWbXbYbZb0b1.6#q#rb2b3b4b5b6b7b8b9#e#h#C#P#8aia9aHaKaXb#bbbnbCbEbSc.c#c#cacb",
"QtQtQtQtQtcccd.N#Jcecfcgchcicjckclcmcnco#A#5#6asakavaJaWb#bbbobDcpc.c#cacqcrcsct",
"QtQt.2QtQtcucv.hcwabbucxcy#SczcAcBcCcDcE#C#Q#9ajauaIaVb.bbbnbDbSc.c#cbcFcGcHcIcJ",
"QtQtQtQtQtcucKcLcMcNa5cOcycPcOcQa5cRcScTcUcVasataHaKaYbabnbCcpcWcXcYcZc0c1c2c3c4",
"Qt.2QtQtQtc5c6c7c8c9aDbh.gbr.7a#.Nd.d#dadbdcddauaIaWb#bAbBdedfdgdhdidjdkdldmdndo",
"QtQtQtQtQt.2QtQtdpdqb1aAdr.5dsdraDdtdudvdwdxdyavaJaYbadzdAdBdCdDdEdFdGdHdIdJdKdL",
"QtQtQtQtQtQtQt.2dpdMaSdNaAdOcy#V#pdPdPdQdRdSdTaHdUb.bbdVdWdXdYdZd0d1d2dJd3d4d5d6",
"QtQtQtQtQtQtQtQtd7d8d9e.e#eaebeced#Yeea5efegeheiejb#bmekelemdZeneoepeqerd5d5d5dJ",
"QtQtbpbpQtQtQtQtQtd7d7d7esbveteubrevew.QexeyezeAeBeCbneDeEemeFeGeHeIeJeKd5d5d5eL",
"QtQtbpbpQtQtQtQtQtQtQtQteMeNaxeObxb1bwcxbvePeQeReSeTboeUeVeWdZeXeHeYeZeLd3eqd5eL",
"QtQtQtQtQt.2QtbpQtQt.2Qte0e1e2e3e4e5#naze6e7.7e8e9f.f#fafbfcfdfeeHfffgfhfid5d5eL",
"QtQtQtQtQtQtQtQtQtQtQtQtfjfkflfmfndPfoaA.hfo#rfpfqfrfsftfbfufvfwfxfyfzfAfBfCfDdJ",
"Qt.2QtQtQtbpQtQtQt.2QtQtQtQtQtfEczfFfGfHaReOfIfJfKfLfMfNeVfOfPfQfxfRfSfTfgfUfCdJ",
"bpbpQtQtQtQtQtQtQtQtQtQtQt.2QtfVcBamfW#pdPa4fF#V#qfX.KfYeEfZf0f1f2fRf3f4f5f6f7dJ",
"bpbpQtQtQtQtQtQtQtQtQtQtQtQtQtf8f9g.g#gagbeegcbJgdazgegfggghgigjgkfRfRfSglfTgmgm",
"QtQtQtQtQtQtQtbpQtQtQtQtQtQtQtgngogpgqgrgsfHamgs.5fWgtgugvgwgxgygzgAfRfyglglgBgm",
"QtQtQtQtQtQtQtQtQtQtbpbpQtQtQtQtQtQtgCeQ#pgDgE#pgFfWgGgHgIgJgKgLd0gMgNfRgOgPgPgQ",
"QtQtQtQtQtQtQt.2QtQtbpbpQtQtQtQtQtQtgRgSgTgUcPaPgVgWaPgVgWgXgYgZg0g1g2fRfRfRg3g4",
"QtQt.2QtQtQtQtQtQtQtQtQtQt.2QtbpQtQtg5g6g7g8g9bJh.#ph#h.edhahbhchdhehfhghhhihjhj",
"QtQtQtQtQtQtQtQtQtQtQtQtQtQtQtQtQtQtQtQtQthkhlhmcxhnbhe4hohphqhrhshthuhvhwhjhjhj",
"Qt.2QtQtQtQtQtQtQt.2QtQtQtbpQtQtQt.2QtQtQthxfna5ewaba5ecae#phygUhzhAhBhChDhEhjg4",
"QtQtQtQtQt.2QtQtbpbpQtQtQtQtQtQtQtQtQtQtQthFhGhHhIhJe6angse6angshKhLhMhehfhNhEg4",
"QtQtQtQtQtQtQt.2bpbpQtQtQtQtQtQtQtQtQtQtQtc6hOhPhQhR#Vcyea.hbJcw.NhShThUhVhWhXhY",
"QtQtQtQtQtQtQtQtQtQtQtQtQtQtQtbpQtQtQtQtQtQtQtQthZh0acfHh1acaDdraca5h2h3h4h5h6h7",
"QtQtbpbpQtQtQtQtQtQtQtQtQtQtQtQtQtQtbpbpQtQtQtQth8h9bhi.i#iaibi#icibetidieifigih",
"QtQtbpbpQtQtQtQtQtQtQtQtQtQtQt.2QtQtbpbpQtQtQtQtiiijaegdgsh#ikil#Vimilinioipiqir"};
