/* XPM */
static char *dummy[]={
"40 40 1009 2",
"mu c #605a49",
"jd c #686354",
"fQ c #6a6556",
"aQ c #6c6759",
"ai c #4c4638",
"fi c #575040",
"iV c #585141",
"mc c #595242",
"nK c #1e1b15",
"nQ c #1f1b15",
"nT c #1f1c15",
"nU c #201c15",
"nR c #26221c",
"nD c #27231c",
"nL c #27231d",
"nI c #28231c",
"nt c #28241b",
"cQ c #29241b",
"nM c #29241d",
"nB c #29251b",
"nJ c #29251d",
"nE c #2a251d",
"mf c #2b1c1e",
"hi c #2b251c",
"hn c #2b251d",
"kJ c #2b261d",
"nN c #2b271e",
"kM c #2c261d",
"nH c #2c271f",
"nO c #2c281f",
"nF c #2d2920",
"nC c #2d2921",
"nS c #2e2a21",
"am c #2f2920",
"nG c #2f2a21",
"nP c #2f2b21",
"av c #302921",
"jb c #302a1f",
"mt c #302b20",
"mB c #312a20",
"aA c #312a21",
"mp c #312b20",
"fN c #312b21",
"mN c #322c22",
"mT c #332c22",
"jv c #342e24",
"kR c #352e23",
"g# c #363025",
"db c #373126",
"ns c #373227",
"cX c #383126",
"cU c #383226",
"cP c #383227",
"aZ c #383228",
"nk c #383327",
"a6 c #383328",
"kS c #392e2c",
"kI c #393328",
"cV c #39332a",
"nb c #393427",
"aB c #39342a",
"cR c #3a3327",
"cO c #3a3429",
"aw c #3a342b",
"cn c #3a3529",
"an c #3a352b",
"hj c #3b3428",
"cL c #3b3429",
"iS c #3b3528",
"cu c #3b3529",
"au c #3c3529",
"hm c #3c352a",
"l9 c #3c3628",
"ks c #3c3629",
"hh c #3c362a",
"mm c #3c372c",
"lX c #3d232c",
"fM c #3d3629",
"cS c #3d362a",
"j# c #3d362b",
"ja c #3d372a",
"cN c #3d372b",
"k3 c #3d372c",
"k7 c #3d372d",
"mg c #3e1e2e",
"hk c #3e372a",
"ao c #3e372b",
"cW c #3e372c",
"mo c #3e382b",
"ms c #3f372a",
"aC c #3f372b",
"fO c #3f372c",
"kK c #3f382b",
"ap c #3f382c",
"aD c #3f382d",
"hI c #3f382e",
"fI c #3f392d",
"nz c #3f392e",
"ny c #3f3a2e",
"iR c #40382b",
"kL c #40382c",
"kv c #40392c",
"aE c #40392d",
"dt c #40392f",
"nr c #403a2c",
"i9 c #403a2d",
"nu c #403a2e",
"kr c #411e2e",
"al c #413a2d",
"aq c #413a2e",
"fk c #413a2f",
"eN c #413b2e",
"fj c #413b2f",
"#6 c #413b30",
"lT c #413c2e",
"m1 c #413c2f",
"ak c #423a2e",
"nv c #423b2e",
"cM c #423b2f",
"fH c #423b30",
"j. c #423c2f",
"fd c #423c30",
"#Z c #423c31",
"jc c #423d31",
"ml c #431f30",
"lz c #432930",
"nq c #433c2f",
"cT c #433c30",
"me c #433c31",
"mr c #433d30",
"mq c #433e32",
"cm c #443d2f",
"ct c #443d30",
"kw c #443d31",
"hl c #443e31",
"cK c #443e33",
"no c #443f32",
"iM c #451c31",
"g6 c #453e30",
"aj c #453e31",
"at c #453e32",
"g9 c #453f34",
"np c #463f30",
"nx c #463f31",
"az c #463f32",
"nA c #464031",
"fJ c #464032",
"nw c #473f30",
"is c #473f31",
"lQ c #474031",
"mn c #474032",
"fL c #474033",
"ku c #474035",
"jS c #481c34",
"md c #484033",
"lM c #484132",
"ar c #484133",
"ax c #484134",
"eB c #494032",
"eM c #494133",
"fP c #494234",
"ay c #494335",
"i8 c #4a1f35",
"nh c #4a4233",
"#O c #4a4234",
"nc c #4a4332",
"ni c #4a4333",
"as c #4a4335",
"fK c #4a4436",
"#P c #4a4538",
"ld c #4b3a35",
"#Y c #4c4436",
"b3 c #4c4536",
"ka c #4c4537",
"im c #4d2138",
"na c #4d4435",
"#5 c #4d4436",
"fc c #4d4537",
"bX c #4d4637",
"gA c #4d483a",
"l5 c #4e2338",
"mh c #4e243a",
"nn c #4e4435",
"m9 c #4e4534",
"ir c #4e4536",
"gw c #4e483b",
"b# c #4e4940",
"hA c #4f2439",
"h0 c #4f243b",
"j9 c #4f263b",
"lK c #4f4537",
"lL c #4f4636",
"iq c #4f4637",
"eh c #4f4838",
"eG c #4f493b",
"by c #4f493c",
"cy c #504838",
"cv c #504839",
"cs c #504938",
"#x c #50493c",
"br c #504a3c",
"k0 c #51263d",
"bW c #514838",
"ne c #514938",
"cg c #514939",
"jA c #51493c",
"nl c #514a38",
"h7 c #514a3c",
"#t c #514a3d",
"cY c #514e47",
"lm c #52273c",
"lI c #52293e",
"iQ c #524838",
"k# c #524938",
"gS c #524939",
"nj c #524a38",
"cl c #524a39",
"e8 c #524a3a",
"d4 c #524a3c",
"dL c #524b3d",
"nm c #534a39",
"g5 c #534a3a",
"eg c #534a3c",
"n. c #534b38",
"e9 c #534b3a",
"m# c #534c3b",
"mO c #534c3d",
"gg c #534c3e",
"#R c #534d3a",
"mw c #534d40",
"hg c #542d41",
"jr c #543243",
"nf c #544b39",
"cp c #544b3a",
"ch c #544b3b",
"lu c #544b3c",
"#1 c #544c3a",
"lV c #544c3b",
"ff c #544d3b",
"mI c #544d3e",
"aY c #544d3f",
"mF c #544e41",
"gT c #554b3b",
"m2 c #554c39",
"#S c #554c3a",
"fg c #554c3b",
"m. c #554d3b",
"b. c #554d3f",
"mA c #554d40",
"l7 c #554e3b",
"kQ c #554e41",
"mE c #555043",
"mG c #555044",
"kx c #562f44",
"mC c #564e3f",
"mS c #564e41",
"mv c #565042",
"mK c #565144",
"g4 c #573343",
"iv c #574d3c",
"eL c #574e3c",
"ck c #574e3e",
"#4 c #57503d",
"mR c #575043",
"co c #575142",
"mL c #575143",
"#Q c #575242",
"gO c #583745",
"#N c #584d3c",
"lx c #584e3b",
"#X c #584e3c",
"#i c #584e3d",
"cz c #584e3e",
"in c #584f3b",
"eE c #584f3c",
"#M c #584f3d",
"g8 c #584f3e",
"#V c #58513d",
"k2 c #585143",
"jy c #585144",
"iT c #58523e",
"#0 c #585242",
"#7 c #585243",
"mP c #585244",
"lU c #58533e",
"mx c #585346",
"gu c #593846",
"jh c #594146",
"fb c #594e3d",
"kt c #594f3e",
"ng c #59503d",
"#s c #59503e",
"l6 c #59513f",
"mz c #595244",
"da c #595245",
"mD c #595345",
"fe c #595444",
"mH c #595446",
"eK c #5a4f3f",
"bV c #5a503d",
"b2 c #5a503e",
"d6 c #5a503f",
"n# c #5a513e",
"cj c #5a513f",
"dM c #5a5140",
"ei c #5a523d",
"lv c #5a533e",
"hH c #5a5344",
"mM c #5a5447",
"js c #5a5448",
"my c #5a5547",
"e7 c #5b5043",
"#m c #5b513d",
"b6 c #5b513e",
"ip c #5b513f",
"iP c #5b5140",
"cx c #5b523f",
"kf c #5b5240",
"d2 c #5b5241",
"nd c #5b533e",
"eC c #5b533f",
"cr c #5b5340",
"ju c #5b5345",
"lN c #5b543f",
"#j c #5b5444",
"cf c #5b5445",
"ds c #5b5446",
"jt c #5b5647",
"jz c #5b5649",
"gC c #5c513d",
"#h c #5c513e",
"#r c #5c513f",
"l8 c #5c5140",
"bR c #5c523d",
"#w c #5c523f",
"#W c #5c5240",
"h5 c #5c5241",
"d3 c #5c5242",
"b5 c #5c533e",
"g7 c #5c5340",
"lo c #5c5341",
"ln c #5c5342",
"#8 c #5c543f",
"lR c #5c5440",
"iO c #5c5441",
"gR c #5c5445",
"kd c #5c5545",
"jg c #5c5648",
"k5 c #5c5749",
"cA c #5c584e",
"dY c #5d3f41",
"dZ c #5d4840",
"eA c #5d4a48",
"fa c #5d5341",
"h6 c #5d5342",
"lp c #5d5343",
"cq c #5d543f",
"#2 c #5d5440",
"d1 c #5d5442",
"h4 c #5d5443",
"#T c #5d5540",
"iU c #5d5541",
"mb c #5d5542",
"gc c #5d5548",
"f# c #5d5642",
"ga c #5d5646",
"gf c #5d5647",
"mJ c #5d5749",
"gd c #5d574a",
"mQ c #5d5849",
"be c #5d5950",
"kg c #5e414c",
"cw c #5e5540",
"ci c #5e5541",
"ee c #5e5542",
"aX c #5e5647",
"#U c #5e5743",
"a5 c #5e5747",
"a9 c #5e5748",
"aT c #5e5849",
"aU c #5e584a",
"jw c #5e584b",
"hD c #5e594b",
"ez c #5f4b4b",
"ls c #5f5542",
"ke c #5f5641",
"f. c #5f5642",
"m0 c #5f5645",
"#3 c #5f5743",
"a8 c #5f574a",
"a7 c #5f5848",
"a4 c #5f584a",
"aV c #5f594b",
"i. c #605445",
"ma c #605642",
"dN c #605644",
"ef c #605645",
"lw c #605740",
"iN c #605742",
"lW c #605743",
"fh c #605843",
"a0 c #605949",
"kP c #60594a",
"ge c #605a4c",
"jx c #605a4d",
"ex c #614549",
"g. c #61464e",
"#g c #615542",
"lO c #615740",
"ly c #615743",
"h1 c #615745",
"lt c #615746",
"it c #615840",
"eD c #615841",
"gv c #615846",
"#L c #615a48",
"hq c #615a4c",
"dg c #615b4d",
"e. c #615c4f",
"mk c #624350",
"ej c #625642",
"iu c #625743",
"bU c #625843",
"#q c #625844",
"eF c #625845",
"lc c #625846",
"kc c #625943",
"k1 c #625a4a",
"hF c #625b4d",
"aW c #625c4d",
"k4 c #625c4e",
".2 c #625d4f",
"kO c #625d50",
"kN c #625f53",
"ek c #634f4d",
"gP c #635943",
"mX c #635945",
"bS c #635a43",
"b0 c #635a44",
"dK c #635a4b",
"k6 c #635b4b",
"k8 c #635c4b",
"je c #635c4c",
"dq c #635d4e",
"a3 c #635d4f",
".X c #635e50",
"bF c #636057",
"k. c #645947",
"m5 c #645a47",
"#v c #645b44",
"m4 c #645b45",
"m3 c #645b46",
"lb c #645c4d",
"hC c #645e50",
"jf c #645f50",
"iL c #654953",
"fT c #654c53",
"ey c #654e50",
"di c #655a4f",
"dp c #655b52",
"#n c #655c44",
"mW c #655c48",
"hG c #655c4d",
"bE c #655d4a",
"hJ c #655e4d",
"fR c #655e4e",
"d# c #655e4f",
"hK c #655f50",
"hE c #656052",
"hp c #656053",
"aF c #656054",
"iw c #664c55",
"eO c #665552",
"d7 c #665c48",
"dO c #665c49",
"bQ c #665d46",
"h2 c #665d49",
"bx c #665d4a",
"bq c #665d4b",
"jT c #665e4b",
"dr c #665e4e",
"fS c #665e51",
"aR c #665f4f",
"bY c #66604c",
"aS c #666051",
"df c #666052",
"dw c #666152",
".N c #666153",
"ho c #666255",
"lJ c #675c48",
"jW c #675d47",
"eJ c #675d4a",
"bZ c #675e48",
"#p c #675e49",
"lq c #675e4a",
"mZ c #675e4b",
"d0 c #675f4b",
"gb c #676052",
"dd c #676152",
"dh c #676153",
"d. c #676255",
"b7 c #676257",
"gk c #684d57",
"kq c #684f5b",
"dQ c #685752",
"io c #685d49",
"b4 c #685e48",
"dP c #685e49",
"h3 c #685e4a",
"#o c #685f48",
"kb c #685f49",
"#l c #685f4a",
".L c #685f4b",
"#z c #68604a",
"m8 c #68604c",
"du c #686150",
"k9 c #686152",
"el c #695353",
"bn c #695f4a",
"eI c #69604b",
"bw c #69604c",
"ed c #69614e",
"bs c #69624d",
"bP c #696251",
"a2 c #696253",
"a1 c #696254",
"c9 c #696558",
"e6 c #6a4d57",
"gD c #6a4e58",
"bT c #6a604a",
"b1 c #6a614b",
".M c #6a614d",
"h9 c #6a614e",
"hB c #6a6254",
"bz c #6a634e",
"gB c #6a6351",
"dc c #6a6352",
"hL c #6a6354",
"gU c #6b4f59",
"dj c #6b5257",
"lP c #6b604a",
"lS c #6b604b",
"bt c #6b614b",
"gQ c #6b614c",
"gx c #6b624c",
"d8 c #6b624d",
"m6 c #6b634d",
"m7 c #6b6350",
"d5 c #6b644e",
"jU c #6b644f",
".V c #6b6451",
"de c #6b6455",
"h. c #6c505a",
"bm c #6c624c",
"jD c #6c634d",
"mY c #6c6451",
"#k c #6c6551",
"#u c #6c6552",
"dv c #6c6556",
"aP c #6c675c",
"fG c #6d525c",
"mi c #6d5561",
"bA c #6d634e",
".0 c #6d644e",
".K c #6d644f",
".S c #6d654e",
"h8 c #6d6650",
"lr c #6d6651",
"#y c #6d6653",
"gj c #6e624e",
"bl c #6e644d",
"bu c #6e6653",
"eH c #6e6754",
"jC c #6f654f",
"bp c #6f6651",
"bB c #6f6654",
"bD c #6f6751",
"gy c #6f6754",
"do c #70565b",
"lY c #705763",
"kT c #705b63",
"bk c #706750",
"gi c #706851",
"gz c #706852",
".U c #706853",
"jB c #716851",
".R c #716853",
"dJ c #716857",
"mV c #716a58",
"em c #725a5f",
".5 c #726952",
"#f c #726954",
".Q c #726a53",
"ec c #726a54",
"mU c #726d5c",
"dR c #735a60",
"eb c #736a53",
"la c #736a59",
"jV c #736b54",
"bC c #736b56",
"dx c #736f61",
"jE c #745e67",
"bv c #746b56",
"bo c #746c57",
"bj c #746e5b",
"gh c #746f5b",
".T c #756d59",
"d9 c #756e5a",
".1 c #756e5c",
".W c #756f5c",
".I c #75746c",
"i7 c #757d7d",
"kH c #76656f",
"e5 c #775b63",
"l4 c #77656e",
"mj c #77656f",
"bi c #77746a",
"dk c #785f67",
"kZ c #78686f",
".P c #7a725c",
".Z c #7a725d",
"ll c #7b6d73",
".4 c #7b735e",
"#9 c #7b7563",
"ea c #7c745f",
"ik c #7d085e",
"jR c #7d998d",
"iW c #7e6971",
"kG c #7f3767",
"dI c #7f7865",
"j8 c #7f818a",
"f6 c #800f5c",
"gs c #80115b",
".u c #807366",
"lH c #80757d",
"hN c #807866",
"dH c #807a68",
"i6 c #81005c",
"hY c #81095b",
"fl c #816c73",
".m c #817467",
"l# c #817a67",
".J c #817b66",
"hM c #827c69",
"cE c #827c70",
"kp c #834672",
"l. c #837d6a",
"jq c #847888",
"#A c #857f6c",
"le c #867c84",
"cC c #868173",
"gM c #870860",
"gr c #87095f",
"#J c #878175",
"aI c #878274",
"bh c #87857b",
"aJ c #888375",
"g2 c #890861",
".c c #897d6f",
".6 c #898472",
"cD c #898477",
"jQ c #8a005b",
"kY c #8a3d78",
"ae c #8a8578",
"af c #8a8579",
"ag c #8a8679",
"dB c #8a897e",
"#I c #8b8678",
"aO c #8b867a",
".O c #8b8773",
"fC c #8c2269",
".Y c #8c8774",
"#H c #8d877a",
".3 c #8d8875",
"aM c #8d887d",
"bd c #8d8a7d",
"lE c #8e0062",
"lG c #8e3a7a",
"j7 c #8f0061",
"f5 c #8f0b68",
"dl c #8f7a84",
".k c #8f8677",
".s c #8f8777",
"e# c #8f8b78",
"ah c #8f8b7f",
"bc c #8f8c7f",
"gK c #900868",
"lA c #90888d",
"l3 c #90888f",
"bf c #908e83",
"jZ c #910065",
"lg c #91066b",
"iD c #91086b",
"iK c #917690",
"c. c #918d80",
"cF c #918e85",
"f3 c #920869",
".h c #92897a",
"aN c #928c80",
"b9 c #928d7f",
"bg c #929086",
"kX c #930068",
"hy c #93076c",
"lk c #932b78",
"aH c #938e81",
"#K c #938e82",
"gp c #94076c",
".y c #958f82",
"#e c #959188",
"ih c #96076b",
"hW c #96076d",
"fB c #961071",
"bb c #969389",
".H c #96968e",
"ko c #97006b",
"et c #971172",
"eP c #978b8e",
"cb c #979284",
"bL c #979386",
"l1 c #97999f",
"kn c #98006d",
"iE c #98066e",
"eZ c #980b71",
"aK c #989589",
".G c #98988f",
"kE c #99006e",
"kF c #990071",
"fx c #99076f",
"fA c #990870",
".t c #998978",
".i c #998e7f",
".q c #998f7f",
".w c #999182",
"jX c #999196",
"#d c #999489",
"cI c #999688",
"bK c #99968c",
"lZ c #999b9e",
"j6 c #9a006e",
"kj c #9a0071",
"f4 c #9a076f",
"f7 c #9a3a7a",
".r c #9a8976",
".j c #9a8977",
".l c #9a8a78",
"ad c #9a9688",
"aL c #9a978c",
"kW c #9b006f",
"jP c #9b0070",
"kz c #9b1b77",
"il c #9b858f",
"dn c #9b868f",
".e c #9b8f7e",
"lf c #9b8f9d",
".o c #9b9183",
"cJ c #9b9689",
"lD c #9c0075",
".n c #9c907e",
".f c #9c9283",
"aa c #9c9688",
"ji c #9c979a",
"bJ c #9c998c",
"c# c #9c998f",
"cH c #9c9a8b",
".C c #9c9d95",
"hz c #9d0172",
"g0 c #9d0373",
"gq c #9d0572",
"eY c #9d0674",
"#G c #9d9a8b",
"jp c #9e0073",
"lF c #9e0074",
"fX c #9e0078",
"iF c #9e0474",
"fy c #9e0673",
"gJ c #9e0777",
".x c #9e9283",
".a c #9e998c",
"ab c #9e9a8c",
"f9 c #9ea4a2",
"jo c #9f0075",
"fW c #9f0078",
"gE c #9f007a",
"iJ c #9f0276",
"gL c #9f0374",
"fz c #9f0575",
"ew c #9f8d93",
"dm c #9f8d95",
"ky c #9fa6a7",
"g1 c #a00475",
"hV c #a00878",
".g c #a09080",
"#c c #a09c92",
"hP c #a10079",
"iz c #a1007b",
"jO c #a10177",
"ha c #a1017c",
"he c #a10778",
".p c #a19181",
".b c #a19282",
"a# c #a19c8d",
"bM c #a19e91",
"c0 c #a1a096",
"ba c #a1a198",
".D c #a1a29a",
"kA c #a20278",
"jn c #a20679",
"i2 c #a20879",
"e0 c #a22d84",
"Qt c #a29b8d",
"c2 c #a2a197",
".B c #a2a39b",
"l2 c #a2a7aa",
"hs c #a3007b",
"ia c #a3007c",
"iI c #a30279",
"hX c #a30379",
"c3 c #a3a39b",
"jF c #a3a3a6",
"iY c #a4007d",
"fV c #a40f7e",
"#b c #a4a296",
"c8 c #a4a297",
".F c #a4a59d",
"ii c #a5047b",
".v c #a59d8e",
"kU c #a5aaad",
"ib c #a6007e",
"ij c #a6027d",
"ca c #a7a495",
"bH c #a7a598",
"c7 c #a7a59b",
"kD c #a8027e",
"km c #a8037e",
"gZ c #a80680",
"lC c #a8338b",
"ce c #a8a495",
"#F c #a8a595",
"bI c #a8a698",
".E c #a8aaa2",
".# c #a9a093",
"#E c #a9a697",
"c5 c #a9a79d",
"ix c #a9a8aa",
"kh c #a9abad",
"l0 c #a9b2b3",
"ac c #aaa799",
"#a c #aaa79b",
"iX c #aaa9ac",
"c6 c #aaaa9f",
".A c #aaaca5",
"lB c #aab3b4",
".d c #ab9e8d",
"cG c #aba99b",
"en c #ac9ea0",
"jY c #aca9af",
"j0 c #ad0284",
"jj c #ad4597",
"bO c #ada99c",
"cc c #adab9c",
".9 c #adaba1",
"i5 c #ae0083",
"gm c #ae0088",
"lh c #ae0584",
"iG c #ae0684",
"#D c #aeaa9c",
"#C c #aeab9e",
"c1 c #aeafa6",
"kk c #af0285",
"i4 c #af0685",
"cB c #afaea5",
"dA c #afafa2",
"kB c #b00287",
"i3 c #b00786",
"bN c #b0ada1",
"dz c #b0afa2",
"jH c #b10386",
"iZ c #b10388",
"jN c #b10688",
"## c #b1aea3",
"go c #b20588",
"fq c #b2078c",
"fp c #b24897",
"dD c #b2b1a3",
"jM c #b3058a",
"iH c #b30689",
"iy c #b33295",
"li c #b4028a",
"jG c #b41d90",
"cd c #b4b2a5",
"dE c #b4b3a7",
"c4 c #b4b3a9",
"dG c #b4b4a8",
".z c #b4b7b1",
"j5 c #b5058c",
"dy c #b5b5aa",
"jL c #b6068d",
"kV c #b7048b",
"dF c #b7b8ad",
"#. c #b8b7ae",
"eU c #b90691",
"dX c #b9acb4",
"aG c #b9bab1",
"hQ c #ba0393",
"es c #bb0493",
"fD c #bb74a5",
"a. c #bbbcb2",
"b8 c #bcbdb5",
"fo c #bd72a9",
"dC c #bdbeb2",
"gF c #bf0398",
"ki c #bf88b4",
"fn c #bf96b1",
"cZ c #c0c2bb",
"eq c #c20499",
"ie c #c20799",
"jk c #c30599",
"#B c #c4c6bd",
"jI c #c5059c",
".8 c #c5c7bf",
"bG c #c5c7c0",
"iA c #cb06a1",
"iB c #cc07a2",
"f2 c #cd01a4",
"j1 c #cd06a3",
"ht c #ce05a6",
"hS c #ce07a4",
"id c #cf08a5",
"jl c #d006a6",
"hZ c #d1c4ce",
"fF c #d1c6c9",
"eT c #d1c9d1",
".7 c #d1d4ce",
"jm c #d206a9",
"hc c #d208a7",
"hv c #d307aa",
"lj c #d404ab",
"kl c #d405ad",
"i0 c #d507ab",
"fw c #d601aa",
"hR c #d606ad",
"eQ c #d6d1d2",
"j2 c #d706ae",
"gW c #da06b1",
"ep c #dabed6",
"g3 c #dacfd3",
"e4 c #dad3d5",
"hw c #dc05b1",
"hu c #dc08b3",
"hf c #dccfd7",
"jJ c #dd06b2",
"hb c #de07b4",
"j3 c #df06b4",
"ic c #e007b5",
"if c #e205b8",
"f8 c #e2c9d9",
"fm c #e2dce0",
"hO c #e3d6dc",
"dU c #e3d9dc",
"gN c #e4dce1",
"i# c #e5dee0",
"gG c #e708bc",
"gt c #e7e1e5",
"gn c #e907bf",
"eu c #e9cee1",
"kC c #ea05c0",
"dV c #ead1e1",
"fU c #ebe3e8",
"dS c #ebe8e8",
"dT c #ebf9f4",
"er c #ed00c1",
"gX c #ee06c4",
"hr c #efe4e8",
"h# c #efe4ea",
"gV c #f0e3eb",
"jK c #f105c6",
"gl c #f1e7ed",
"dW c #f1fffb",
"j4 c #f205c6",
"hT c #f304c8",
"fE c #f7eff6",
"fY c #f800cd",
"e1 c #f89de8",
"eo c #f8faf9",
"ev c #f9f9f9",
"fr c #fa00cc",
"e3 c #fbfbfb",
"eS c #fcfffc",
"eV c #ff00d2",
"gY c #ff00d6",
"iC c #ff00d7",
"ig c #ff00d9",
"fs c #ff00db",
"eX c #ff00dc",
"fu c #ff00de",
"f1 c #ff00df",
"fv c #ff00e0",
"ft c #ff00e1",
"fZ c #ff00e2",
"gI c #ff00e3",
"f0 c #ff00e5",
"gH c #ff01d6",
"hd c #ff01d7",
"hx c #ff01d8",
"hU c #ff01da",
"eW c #ff01dd",
"i1 c #ff02d3",
"e2 c #fffcfe",
"eR c #ffffff",
"Qt.#.a.b.c.d.e.f.g.h.i.j.k.l.m.d.n.o.p.h.q.r.s.t.u.v.n.w.x.y.z.A.B.C.D.E.F.G.H.I",
".J.K.L.M.N.O.P.Q.R.S.T.U.V.W.X.Y.Z.Q.R.0.T.R.V.1.2.3.4.5.R.6.7.8.9#.###a#b#c#d#e",
"#f#g#h#i#j#k#l#m#n#o#p#q#r#s#t#u#l#m#v#o#p#q#w#s#x#y#z#m#v#A#B#C#D#E#F#G#H#I#J#K",
"#L#M#N#O#P#Q#R#S#T#U#V#W#X#Y#Z#0#R#1#2#3#4#W#X#5#6#7#R#1#8#9a.a#aaabacadaeafagah",
"aiajakalamanaoapaqarasatauauavawaoapalaxayazauauaAaBaCaDaEaFaGaHaIaJaKaLaMaNaOaP",
"aQaRaSaTaUaVaWaXaYaZa0a1a2a3a4aVaWa5aYa6a7a1a2a3a8aVaWa9b.b#babbbcbdbebfbgbgbhbi",
"bjbkblbmbnbobp.Lbqbrbs.Qbt.0bubvbpbwbxbybz.QbtbAbBbCbDbwbEbFbGbHbIbJbKbHbLbMbNbO",
"bPbQbRbSbnbTbUbVbWbXbYbZbRb0b1bTbUb2bWb3bYb4b5bSb1bTbUb6bWb7b8b9adc.c#cacbcccdce",
"cfcgchcicjcgckclcmcncocgcpcqcrcsckclctcucocvcpcwcxcyczclctcAcBcCcDcEcFcGcHcIcJ#E",
"cKcLaoaucMcNcOcPaucQaBcRcScScTaocLcUaucQcVcRcScScTcWcLcXcucYcZc0c1c2c3c4c5c6c7c8",
"c9d.d#dadbdcdddedfdgdhdidjdkdldmdndodpdgdhdqdrdsdtdudddvdwdxdydzdzdAdBdCdDdEdFdG",
"dHdIdJdKdLbsdMdNdOdPdQdRdSdTdUdVdWdXdYdZd0d1d2d3d4d5d6dNd7d8d9#f#u.We.e#eaebec.S",
"edeeefegeheiejekelemeneoepeqereseteuevewexeyezeAeBeCeDeEbUbt#peF#w#seGeHeI#m#v#o",
"eJeKeLeMeNeOePeQeReSeTeUeVeWeXereYeZe0e1e2e3e4e5e6e7e8e9f.f##Vfafbfcfdfefffg#2fh",
"fiazfjfkflfmfnfofpfqfrfsftfufvfwfxfyfzfAfBfCfDfEfFfGfHfIfkfJfKfLcSfMfNawfOaEalfP",
"fQfRfSfTfUfVfWfXfYeXftfZf0f0f1f2f3f3f4fyfyf5f6f7f8f9g.cfdLg#gagbgbdggcgdgegfggcP",
"ghgigjgkglfWgmgnfZf0ftf0f0f0ftgof3f3gpfyfyfygqgrgsgtgugvbxgwd5ebgxbAgybCgzbwbxgA",
"gBbQgCgDglgEgFgGgHfuf0f0f0f0gIgJf3f3gKgpgLgLgLgLgMgNgOb6bWb3bY#ob5gPgQbTbUb6bW#Y",
"gRgSgTgUgVfWgWgGgXgYgIfZf0f0gIgZf3f3f3f3g0gLgLg1g2g3g4g5g6cucocggTcwg7cgg8e9g6cu",
"g9auaph.h#hahbgGhchdfsfZf0f0gIhef3f3gKf3g0gLgLgLg2hfhgcPhhhiaBhjhkaohlaphmcPhhhn",
"hohphqh.hrhshthuhvhwhxeXf1f1fteYf3f3f3hyhzgLgLgLgrhfhAhBhChDhEhFhGhHhIhJhKhLhChD",
"hMhNdJgUhOhPhQhuhRhShThdhUf1fthVf3f3f3hWhXgLgLgLhYhZh0h1h2h3d0h4h5h6h7h8dMh1h2h3",
"h9eei.gDi#iaibichRidieifigeXfthVgKf3ihg1iiijgLgLikiliminbUbtioipiqiris#8itiniubt",
"eJd6iviwixiyiziAhRhRhSiBhTiCiChViDiEiFiGiHiHiIiJiKiLiMcpiNiOffiPiQiRiSiTe9cpf.iU",
"iVfL#6fkiWiXiYiZi0hRhviBiBi1iCi2iDgpi3i4iHi4i5i6i7i8cMi9j.fLazfMj#jajbjccTi9cMfL",
"jdjejfjgjhjijjfXjkjlhRiBjmjmgYjnf3iHiHiHiHjojpjqjrjsjtju#xjv#0jwjxhDjyjzjtcfjAjv",
".WjBjCjDdPjEjFjGjHjIhRhRhRjJjKjLiHjMiHjNjOjPjQjRjSbCgz.MjTgwjUjVbm.0gybC.R.MbqgA",
"gBjWb5bSbnbTjXjYjZj0j1j2j3j4j4j5iHjMjNijj6j7j8j9k.bTbUb6k#kabYkbb5bSgQbTkcb6k#b3",
"kde8fgkekfe8kgkhkikjkkklj4j4j4jMiHiHkmknkokpkqkrcxcl#scpg6ks#0e8fgcwiOclktcpg6hh",
"kucSkvaokwapcukxkykzkAkBkCj4jKjMiHkDkEkFkGkHi8aoazaDj#kIcNkJanaukKkLazaDj#kIcNkM",
"kNkOkPkQkRfRa3kSkTkUjZj0kVkCjKiHijkWkXkYkZk0k1k2k3jea3gbk4k5.Xgek6k2k7k8dqk9k4k5",
"l.l#lalbdLjUd2lcldlelflglhliljjPkEknlklllmlnlolpdLh8kflclqbnd0h4lolph7lrkflclqbn",
"h9lsltluehlvlwlxlylzlAlBlClDlElFkXlGlHlIlJiplKlLlMlNlOinbUlPioipiqlLlQlRlOinlylS",
"lqd6eLeMlTlUlVlVlWcrlXlYlZl0l1l2l3l4l5l6l7l8iQiRl9lUe9lViNiUm.l8iQiRiSlUm#lVmamb",
"mcmd#ZcMa6jcmeaqkwfPg6mfmgmhmimjmkmlmmfPmnhkapmompmqkweNmrfPfLmsapmomtmqkweNmrfP",
"mugfaVmvmwmxmymzmAmBmCmDjgmEmFmGmHk2kQfNmIdamJmKmLmxmMmzkQmNmOmPmQmKmRmxmMmzmSmT",
"mUmV#lmWmXmYmZmbm0m1m2h8gxm3k.mYd0mbm0m1m2h8gxm4m5.Vd0d1m0fjm2h8m6m4m5m7m8d1m0fj",
"#jd2m9n.#Mn#k#na#Onbncndnenfngn#k#nanhnbnindnenfngn#njnanhnknindnln.ng#snmnnnhnk",
"nocNapnpnqnrakapnsntnunvnrnwnxnrakapcPcQnynvnrnpnxnrakkKcPcQnzeNnrnpnAnrakkKcPnB",
"nCnDnEnEnFnGnHnInJnKnLnMnNnOnPnGnHnInJnQnRnMnNnOnPnSnHnInJnTnRnMnNnHnPnSnOnInJnU"};
