/* XPM */
static char *dummy[]={
"40 40 730 2",
"as c #000000",
"bt c #009f5d",
"gt c #00a05d",
"fg c #00a05e",
".a c #00a15e",
"dE c #039758",
"eh c #059f5f",
".i c #0e8e52",
"hg c #169b64",
"eV c #186336",
"h3 c #2c8a62",
".Q c #2e8c64",
"hR c #2e8d65",
"gU c #2e9068",
"e3 c #2f865d",
".Y c #30996f",
".I c #309b70",
".r c #309b71",
".1 c #31653b",
"#h c #31683f",
"#. c #31875c",
"eB c #318962",
"b4 c #318b65",
"hw c #31986e",
"dq c #319c72",
"aP c #319e74",
"dZ c #31a075",
".z c #31a176",
".0 c #31a276",
"eD c #31a277",
"dR c #31a377",
"bc c #31a478",
"dx c #31a579",
".7 c #327a51",
"fO c #32936a",
"eU c #32936c",
"aB c #32996f",
"fT c #329c71",
"hB c #329f73",
"au c #329f74",
"dc c #32a075",
"e. c #32a376",
".A c #32a377",
"#t c #32a378",
".b c #32a579",
"#s c #32a57a",
"Qt c #32a67a",
"eE c #336241",
"#n c #33764e",
"h1 c #338b63",
"dJ c #339c72",
"iM c #339e74",
"cz c #33a478",
"eT c #34542f",
"b6 c #346e4a",
"h4 c #34714d",
"gB c #347639",
"#q c #348d68",
"ex c #34966e",
".k c #349e70",
"#Y c #34a378",
"gQ c #357851",
"hW c #358a5c",
"aI c #35956c",
"am c #35986e",
"eg c #359870",
"c1 c #359e73",
"e# c #366f33",
".y c #369066",
"dj c #369168",
"in c #369269",
"g5 c #36936c",
"gX c #37744e",
"b1 c #378a5c",
"#D c #379068",
"jj c #37956c",
".s c #379667",
"fh c #37a378",
".c c #389566",
"hN c #396a3b",
"hS c #396e3e",
"gA c #398664",
"ei c #398c5b",
".J c #39915f",
"eC c #39a27a",
"c7 c #39a67c",
"#e c #3a572f",
".H c #3a7e55",
"gu c #3b8c5c",
"f# c #3b966e",
"#M c #3c7c57",
"#u c #3d7955",
".X c #3d7c53",
"h8 c #3d8b67",
"h7 c #3d916e",
"g2 c #3da37c",
"bF c #3e7552",
".q c #3e845a",
"bu c #3e8a5c",
"bb c #3e9673",
"#7 c #3ea07a",
"je c #3f805a",
"ak c #3f9f7b",
"ia c #40946b",
"bs c #409472",
"eO c #416338",
"eq c #41733d",
".R c #417c45",
"i9 c #418f67",
"hV c #419e7b",
".B c #427943",
"dS c #42875c",
"hU c #429171",
"eJ c #434f28",
"gZ c #435631",
"bd c #438a5d",
"e5 c #445435",
"bG c #449172",
"i# c #44a681",
"ef c #457451",
"ad c #457d4c",
"fc c #458762",
"#8 c #459269",
"e0 c #465029",
"hI c #477846",
"dQ c #479476",
"gT c #485633",
"gS c #48663a",
"## c #48683b",
"bz c #486b43",
"#V c #487248",
"ew c #48724f",
"hC c #487744",
"gg c #48855b",
"ji c #489b7b",
"ip c #493e25",
"ck c #498d72",
".6 c #4a552d",
"b3 c #4a5b35",
"b2 c #4a6b3a",
"d6 c #4a9276",
".9 c #4a9a7b",
"fC c #4aa481",
"fF c #4b3f28",
"e6 c #4b8d6f",
"fo c #4b9066",
".l c #4b9666",
"aX c #4b9878",
"h6 c #4c7960",
"ju c #4c997c",
"#m c #4d572f",
"cw c #4d6249",
"gG c #4d6d59",
"bx c #4d826a",
"fD c #4d9171",
"f3 c #4d9378",
"aO c #4d9479",
"#p c #4d987c",
"iD c #4e4228",
"fQ c #4e422a",
"aW c #4ea584",
"dH c #4f1bd6",
"a4 c #4f28b8",
"gi c #4f3499",
"cP c #4f835d",
"aQ c #4f855b",
".h c #4f8760",
"at c #4f977c",
"hj c #4f987c",
"aH c #5014eb",
"bP c #505c37",
".P c #506c41",
"dK c #507345",
"gf c #509178",
"b5 c #50967c",
"hQ c #516c3e",
"cA c #51815b",
"cx c #518a73",
"#o c #518c74",
"a3 c #519279",
"fn c #51967c",
"ht c #5227c0",
"dl c #52492c",
".x c #528862",
"i8 c #52987d",
"fA c #5319e5",
"ar c #531be4",
"d9 c #534577",
"hE c #53676b",
"iN c #537d56",
"#C c #53957c",
".8 c #548b75",
"dA c #554c2d",
"br c #55646a",
"bS c #556e49",
"fx c #55947c",
"gN c #55a284",
"fm c #5620de",
"jc c #5625d9",
"eo c #56623a",
".f c #567045",
"av c #56895f",
"c# c #575f45",
"cj c #57624d",
"gO c #57664a",
"cv c #576c48",
"#E c #577451",
"dr c #57855b",
"#U c #57937c",
"iZ c #5825da",
"bw c #58575b",
"hY c #585f45",
"bE c #586139",
"jk c #587f58",
"iR c #5929d2",
"f2 c #593f99",
"hM c #59575c",
"h5 c #596046",
"a7 c #59784d",
"hf c #597f58",
"d5 c #5a587e",
"cq c #5a6046",
"gz c #5a6146",
"eA c #5a623c",
"e4 c #5a6442",
"gr c #5a7163",
"g# c #5a7347",
".o c #5a774e",
".K c #5a7c4d",
"g8 c #5a7e68",
"iB c #5a947b",
"fW c #5a9a7e",
"bH c #5a9f85",
"do c #5b2fcd",
"bX c #5b633c",
"eW c #5b6530",
"gV c #5b6950",
"ej c #5b7144",
"fJ c #5b865c",
"#f c #5b907e",
"i6 c #5c2fcc",
"#4 c #5c2fcf",
"#Z c #5c7d56",
"iK c #5d5031",
"gK c #5d6147",
"hK c #5d656f",
"ix c #5e5031",
"gI c #5e7648",
"e2 c #5e8676",
"iU c #5e9072",
"dP c #605677",
"eS c #605b30",
"eF c #606531",
"dN c #60673d",
".v c #60724c",
"j. c #60754c",
"hG c #608d6e",
"gl c #60a187",
"ge c #61508e",
"fL c #615336",
"gW c #616a39",
"#i c #616b39",
"bv c #617849",
"#6 c #618f7d",
"hu c #623ac3",
"ab c #623cc3",
"d3 c #626940",
"f0 c #626944",
"bK c #626c45",
"ff c #627c5d",
"dY c #627d71",
"jq c #62826a",
".t c #629667",
"dt c #635938",
"iS c #63609d",
"gc c #636a46",
"ce c #636c4d",
"aj c #638d7d",
"jv c #639883",
"hk c #639b87",
"#3 c #6440bf",
"a2 c #64509a",
"dG c #645938",
"g6 c #647163",
".G c #64734d",
"ca c #647c6e",
"c0 c #648d7d",
".d c #649767",
"b0 c #649f88",
"a6 c #64a28e",
".j c #64a592",
"gP c #656a39",
".2 c #656b39",
"ee c #656c45",
"aJ c #657243",
"iI c #658662",
"by c #65a692",
"c8 c #65a693",
"ah c #6644ba",
"ba c #66675f",
"f8 c #666a55",
"h9 c #666c4f",
"#J c #667164",
".W c #667550",
"jg c #667653",
"jx c #66785e",
"#S c #667c6f",
".Z c #667d53",
"#A c #667d70",
".u c #668b62",
"fV c #66a78e",
"fN c #66a895",
"b. c #676741",
"dW c #676c48",
"dT c #677748",
"gm c #67774d",
"be c #67784c",
".n c #67815a",
"hb c #67a794",
"cy c #67a996",
".# c #67aa97",
"dD c #6850a6",
"ev c #686e49",
"#W c #688479",
"#r c #688b7e",
"ey c #68a895",
"aN c #694dac",
"hy c #6950a5",
"#d c #69663e",
"cm c #69693d",
"bp c #696943",
"hJ c #696961",
"gq c #696e4f",
"i7 c #6a5ba8",
"iJ c #6a5e3b",
"aU c #6a6572",
"hX c #6a693c",
"h# c #6a7166",
"ig c #6a774a",
"js c #6a7754",
".m c #6a9268",
"aG c #6b50af",
"ci c #6b674b",
"b7 c #6b693d",
"aR c #6b6b42",
"gF c #6b7152",
".p c #6b9473",
"fw c #6c53ac",
"dF c #6c613e",
"aK c #6c653d",
"aZ c #6c653e",
"h2 c #6c6c50",
"eP c #6c6f4d",
"#z c #6c6f62",
"hT c #6c7046",
"f5 c #6c7345",
"hs c #6c7348",
"bY c #6c7460",
"dh c #6c8e6e",
"aM c #6d7057",
"#R c #6d7063",
"cl c #6d7263",
"jd c #6d897e",
"cJ c #6d9782",
"jp c #6da791",
"cF c #6e58a7",
"fK c #6e5f3d",
"dv c #6e618e",
".E c #6e6844",
"bh c #6e6d4b",
"bT c #6e7146",
"a1 c #6e7156",
"e1 c #6e7767",
"hZ c #6e7c6f",
".g c #6e8f6e",
"iT c #6e9c8f",
"iw c #6f5e3d",
"ao c #6f6042",
"ds c #6f613e",
"bA c #6f7146",
"gv c #6f774f",
"dd c #6f7a51",
"cK c #6f805e",
"hm c #706042",
"aD c #706142",
"jb c #706195",
".U c #706a46",
"iO c #706b40",
"hO c #707765",
"bm c #707956",
"dw c #70817a",
".e c #708b68",
"az c #715ea1",
"iY c #716196",
"#a c #717451",
"jt c #717f73",
"eM c #71988d",
"f9 c #725e9f",
"cE c #72609f",
"ai c #72629d",
"d0 c #727655",
"c2 c #72784e",
"hv c #727e79",
"jh c #728075",
"iL c #72837c",
"eL c #728780",
"cT c #73629d",
"j# c #73663c",
"gx c #736e4e",
".N c #736f4e",
"f7 c #737754",
"cr c #737a6f",
"eK c #737c6d",
"hA c #737e79",
"bQ c #738e80",
"#5 c #746699",
"aS c #746c46",
"fX c #74714f",
"bO c #747653",
"jm c #747964",
"dV c #747b57",
"g. c #747c79",
"#T c #74817c",
"#K c #748580",
"id c #74867f",
"is c #749a8f",
"gk c #74a794",
"gd c #756c84",
"hq c #756d47",
"cf c #757155",
"#I c #757365",
"aV c #757e7a",
"#B c #75817c",
"ie c #759a8c",
"aa c #766a94",
"f1 c #766c89",
"#N c #766d4b",
"aY c #767550",
".S c #767f5a",
"dI c #76817d",
"c6 c #76988b",
"iV c #777555",
"jw c #777e57",
"a5 c #777f7c",
"al c #77827d",
"e7 c #778775",
"iP c #78623a",
"aw c #786d49",
"gh c #78734a",
"aT c #787555",
"er c #787752",
"dn c #78786a",
"bL c #787a58",
"gC c #787b56",
"bg c #787c59",
"aA c #78837f",
"#g c #788c86",
"gM c #78a795",
"i4 c #79633b",
"ja c #796a4d",
"ec c #796c4a",
"cU c #79718e",
"ea c #797854",
"dC c #797868",
"jl c #797e58",
".C c #79805b",
"cV c #798781",
"g1 c #798b84",
".w c #798e73",
"iH c #799d8e",
"iW c #7a673f",
"iX c #7a6a4d",
"et c #7a6e4c",
"cG c #7a738c",
"iQ c #7a786e",
"aC c #7a7a50",
"bZ c #7a9286",
"iE c #7b6944",
"eI c #7b6a3d",
"#v c #7b6c4b",
"dB c #7b6e4a",
"cN c #7b758a",
"dz c #7b774b",
"eX c #7b7b73",
"gj c #7b7c7a",
"a8 c #7b7f56",
"ac c #7b827f",
"jf c #7b8358",
"#9 c #7b845e",
"jo c #7b8984",
"em c #7c7150",
"c. c #7c7153",
"a0 c #7c7550",
"i5 c #7c766a",
"ga c #7c784a",
"g3 c #7c7b6e",
"eG c #7c7d77",
"hD c #7c7f56",
"#X c #7c817f",
"bI c #7ca797",
"i3 c #7d6c47",
"g4 c #7d6c4b",
"g9 c #7d6d4e",
"aL c #7d7651",
"dX c #7d7885",
"gn c #7d7c59",
"cn c #7d7c75",
".M c #7d7d5c",
"d4 c #7d7d71",
"fZ c #7d7f5b",
"#j c #7d7f70",
"cZ c #7d817f",
"ha c #7d8180",
"iz c #7d8381",
".5 c #7e7249",
"#F c #7e735e",
"#y c #7e7869",
"fY c #7e794b",
"b8 c #7e7d78",
"gb c #7e7e5a",
"d1 c #7e7f51",
"#L c #7e8281",
"jn c #7e8381",
"hr c #7e8382",
"cb c #7e8480",
"iq c #7f6c46",
"eZ c #7f6d40",
"ho c #7f6d4b",
"dm c #7f714c",
"cp c #7f7355",
"dk c #7f754a",
"hx c #7f7552",
"an c #7f784d",
"#Q c #7f796a",
"f6 c #7f7b53",
"#O c #7f7c77",
"#w c #7f7d7a",
"dO c #7f7f76",
".3 c #7f8073",
"jr c #7f825b",
".L c #7f8461",
"dM c #7f8563",
"cu c #7f8c81",
"i. c #7f9b91",
"ax c #806c4b",
"du c #807659",
"ir c #807d77",
"bn c #807e57",
"dL c #808053",
"ek c #80805f",
"f. c #808080",
"bj c #80837e",
"d2 c #808562",
"en c #808669",
"#l c #81734a",
"iF c #817d74",
"fe c #817d79",
"e9 c #817e7b",
"el c #817f60",
"hH c #81825d",
"gw c #818260",
"bq c #81826d",
"bU c #81836d",
"a9 c #818766",
"bJ c #818b79",
".O c #818c70",
"iC c #82784f",
"d. c #827c55",
"bD c #827c5a",
"hc c #827e65",
"fH c #827f78",
"cD c #82807e",
"d8 c #82825a",
"bf c #82825d",
"gJ c #828260",
"bi c #828278",
"hi c #828282",
"bB c #82846f",
"bo c #828765",
"eN c #82887e",
"fR c #83704b",
"io c #83774d",
"fi c #837a5b",
"bW c #837c59",
"fS c #837e76",
"cS c #83817e",
"dU c #83825a",
"fB c #838383",
"gD c #838767",
".V c #83876c",
"go c #838867",
".T c #838868",
"gL c #838881",
".D c #838968",
"fd c #847158",
"iy c #84765b",
"aq c #84807a",
"h0 c #848483",
"cO c #848484",
"b# c #848571",
"cs c #848584",
"gE c #84866c",
"es c #84886a",
"gy c #848971",
"hP c #848c7b",
"#G c #85817c",
"#2 c #85817d",
"eb c #85886b",
".F c #858a70",
"ez c #858e79",
"fP c #86794e",
"ik c #867c56",
"fs c #867c60",
"aF c #868078",
"eu c #868569",
"gp c #868970",
"ep c #868c84",
"fG c #87744e",
"fb c #877566",
"hl c #877851",
"bM c #878168",
"c5 c #87817b",
"ag c #87827d",
"ed c #87876c",
"i2 c #88806d",
"fl c #88827c",
"fp c #88885f",
"cH c #888888",
"g7 c #888988",
"hL c #888c79",
"im c #897c57",
"dg c #89827a",
"f4 c #898775",
"i0 c #898989",
"bN c #8a7852",
"fM c #8a7c61",
"bV c #8b7955",
"#H c #8b8172",
"cg c #8b8379",
"fv c #8b837c",
"cd c #8b8d86",
"ij c #8b8e79",
"bR c #8ba89d",
"e8 c #8c7159",
"bC c #8c7953",
"cM c #8c837b",
"#b c #8c846f",
"g0 c #8c908b",
"cW c #8c9a95",
"di c #8d7c59",
"fa c #8d7d6d",
"ib c #8d8475",
"#P c #8d8478",
"fE c #8e774e",
"#x c #8e8577",
"it c #8ea9a1",
"eQ c #908576",
"fz c #908863",
"ic c #917f60",
"cY c #91816b",
"fU c #928772",
"iv c #928774",
"de c #93815b",
"cR c #938475",
"cC c #938477",
"h. c #93938d",
"cI c #949c99",
"cB c #957f60",
"il c #95815c",
"ay c #958167",
"c3 c #95825c",
"hh c #958468",
"ct c #959595",
"iG c #959796",
"ch c #968364",
"c9 c #968f7e",
"gH c #969995",
"aE c #977c57",
"cQ c #977f62",
"cL c #97816a",
"dy c #979693",
"cc c #979797",
"ih c #979998",
"#c c #987f53",
"if c #98968e",
"dp c #989898",
"gs c #989a97",
"iu c #989e9b",
"ap c #997e59",
"a# c #998677",
"he c #99958a",
"hn c #999999",
"gY c #9a9a9a",
"co c #9b8970",
"cX c #9b978f",
"gR c #9c9c9c",
"#k c #9d855f",
"b9 c #9d8a6f",
"hp c #9d9c9a",
".4 c #9f855d",
"d# c #9f8560",
"da c #9f866d",
"ae c #9f8c67",
"fI c #9f9e9d",
"hz c #a1a1a0",
"eR c #a28456",
"#0 c #a38c68",
"i1 c #a3a3a2",
"af c #a58a71",
"#1 c #a58a72",
"bl c #a5a5a5",
"fr c #a68a73",
"hd c #a68c69",
"ii c #a6a5a5",
"d7 c #a6a6a5",
"a. c #a78c6d",
"hF c #a7a7a6",
"fy c #a7a7a7",
"iA c #a8a7a7",
"db c #a8a8a8",
"eY c #a98e68",
"bk c #a9a9a9",
"df c #aa8863",
"c4 c #ab8963",
"eH c #ac8f67",
"ft c #ad996f",
"fj c #b29b71",
"fq c #b69871",
"fk c #b7906d",
"fu c #b7916e",
"QtQtQtQtQtQtQtQtQtQtQtQtQtQtQtQtQtQtQtQtQtQtQtQtQtQtQtQtQtQtQt.#QtQt.aQtQtQtQtQt",
"QtQtQtQt.aQtQtQtQtQtQtQt.aQtQtQtQtQtQtQt.aQtQtQtQtQtQtQt.aQtQtQtQtQtQtQtQtQtQtQt",
"Qt.aQtQtQtQtQtQtQt.aQtQtQt.#QtQtQt.aQtQtQtQtQtQtQt.aQtQtQt.#QtQtQt.aQtQtQtQtQtQt",
"QtQtQtQtQt.aQtQt.#.#QtQtQtQtQtQtQtQtQtQtQt.aQtQt.#.#QtQtQtQtQtQtQtQtQtQtQt.aQtQt",
".b.c.d.e.f.g.h.i.j.#Qt.k.l.m.n.o.p.q.rQtQt.s.t.u.v.w.x.y.zQt.k.l.m.n.o.p.q.rQt.a",
".A.B.C.D.E.F.G.H.IQtQt.J.K.L.M.N.O.P.QQtQt.R.S.T.U.V.W.X.YQt.J.Z.L.M.N.O.P.QQtQt",
".0.1.2.3.4.5.6.7.8.9Qt#.###a#b#c#d#e#f#gQt#h#i#j#k#l#m#n#o#p#.###a#b#c#d#e#q#r#s",
"#t#u#v#w#x#y#z#A#B#CQt#D#E#F#G#H#I#J#K#LQt#M#N#O#P#Q#R#S#T#U#D#V#F#G#H#I#J#W#X#s",
"#Y#Z#0#1#2#3#4#5#6#7.a#8#9a.a#aa#4abac#pQtadaeafagah#4aiajak#8#9a.a#aa#4abal#p.#",
"amanaoapaqarasasatQtauavawaxayazasasaA.baBaCaDaEaFasasaG#CauavawaxayasasaHaAQtQt",
"aIaJaKaLaMaNasasaO.aaPaQaRaSaTaUasasaVaWaXaYaZa0a1asasa2a3aPaQaRaSaTasasa4a5QtQt",
"a6a7a8a9b.b#baasbbQtbcbdbebfbgbhbiasbjbkblbmbnbobpbqasbrbsbtbubvbfbgbhasbwbxQtQt",
"bybzbAbBbCbDbEbFbGbHbIbJbKbLbMbNbObPbQbRbRbSbTbUbVbWbXbYbZb0b1b2bLbMbNbOb3b4b5Qt",
".Ab6b7b8b9c.c#cacbccbkcdcecfcgchcicjckQtQtclcmcncocpcqcrcsctcucvcfcgchcicwcx#Xcy",
"czcAcBcCcDcEcFcGcHcIbkcJcKcLcMcNcFazcOQtQtcPcQcRcScTcFcUcVcWcXcYcLcMcNcFazcZc0#s",
"c1c2c3c4c5arasasc6c7c8c9d.d#daazasasaAdbdcdddedfdgasasaG#C.Adhdid#daasasaHaAQt.a",
"djdkdldmdndoasasdpQtdqdrdsdtdudvasasdwdxdydzdAdBdCasasdDctdEdrdFdGduasasdHdIQtQt",
"dJdKdLdMdNdOdPasdQbkdRdSdTdUdVdWdXasdYdxdZd0d1d2d3d4asd5d6d7dSdTd8dVdWasd9dYQtQt",
"e.e#eaebecedeeefegehbkeiejekelemeneoepQtQteqereseteuevewexeyezejekelemeneAeBeCQt",
"eDeEeFeGeHeIeJeKeLeMQteNeOePeQeReSeTeUbkQteVeWeXeYeZe0e1e2#Ue3e4ePeQeReSe5e6#X#s",
"cze7e8e9f.f.f.f.f.eMQtf#fafbf.f.f.f.aAQtbkfcfdfef.f.f.f.f.#Uf#fffbf.f.f.f.f.#Xfg",
"fhfifjfkflfmasasfndbQtfofpfqfrcEasasaAQtQtfsftfufvasasfwfxfyfofzfqfrasasfAfBfCQt",
"fDfEfFfGfHarasasatQtfIfJfKfLfMazasascOfNfOfPfQfRfSasasaG#CfTfUfKfLfMasasaHcOfVQt",
"fWfXfYfZf0f1f2asf3Qt.zf4f5f6f7f8f9asg.dbdqg#gagbgcgdasgegf.zggghf6f7f8asgigjgkQt",
"glgmgngo.EgpgqgrgsQtgtgugvgw.MgxgygzgAQtfygBgCgD.UgEgFgGgHdxgugIgJ.MgxgygKgLgM.#",
"gNgOgP.3.4.5.6gQ.8gRQt#.gS#a#b#c#dgTgUQtQtgVgW#j#k#l#mgX#ogY#.gS#a#b#c#dgZg0g1#s",
"g2g3g4#w#x#y#z#A#Bg5bk#D#E#F#G#H#Ig6g7QtQtg8g9#O#P#Q#R#S#T#Uh.#E#F#G#H#Ih#csha#s",
"hbhchd#1#2#3asas#6#7Qthe#9a.a#aaasasaAbkQthfaeafagasasaiajhg#8hha.a#asasabhihjQt",
"hkhlhmapaqarasashnQtauavhoaxayazasasaA.bhpaCaDaEaFasasaGccauavhqaxayasasaHhrQtQt",
"aIhsaKaLaMaNhtasaObkaPaQaRaSaTaUhuashvdxhwhxaZa0a1hyasa2a3hzaQaRaSaTaUasa4hAQt.#",
"hBhChDa9b.b#bahEbbQthFhGbvhHbgbhbibwbjQteDhIbnbobpbqhJhKbsbchLbvhHbgbhbihMbxQtQt",
"e.hNbAbBbCbDbEhObGak.#hPhQbLbMbNbOb3hRbkQthShTbUbVbWbXbYhUhVhWbKbLbMbNbOb3b4b5.a",
".Ab6hXb8b9c.hYhZh0#CQth1h2cfcgchcicwh3Qtbkh4cmcncocph5h6csh7h8h9cfcgchcicwcx#X#s",
"czcAcBcCcDcEasascHi.i#iacKcLcMcNasasaAQtQtibiccRcSasascUidieifcYcLcMasasazcZc0#s",
"c1igc3c4c5arasasihbkiiijikd#daazasascO.bdcddildfdgasasaGcciic9imd#daasasaHaAQtQt",
"inioipiqirarasasisitiuiviwixiyazasasiziAiBiCiDiEiFasasaGiGiHiIiJiKiyasasaHiLQtQt",
"iMiNiOiPiQiRaHiSiT.#dRiUiViWiXiYaHiZi0dbi1i2i3i4i5i6aHi7i8dRi9j.j#jajbaHjcjdQt.a",
"QtQtjejfjgjhaAjiQtQtQtQtjjjkjljmjnjogkbRgMjpjqjrjsjtaAjuQtQtQtjvjkjwjxaAjdQtQtQt",
"QtQt.#.#QtQtQtQtQtQtQtQtQtQtQtQtQtQt.#.#QtQtQtQtQtQtQtQtQtQtQtQtQtQt.#.#QtQtQtQt",
"QtQt.#.#QtQtQtQtQtQtQtQtQtQtQt.aQtQt.#.#QtQtQtQtQtQtQtQtQtQtQt.aQtQt.#.#QtQtQtQt"};
