/* XPM */
static char *dummy[]={
"40 40 733 2",
"as c #000000",
"bs c #009f5d",
"gt c #00a05d",
"fg c #00a05e",
".a c #00a15e",
"in c #010000",
"bk c #010100",
"hD c #020201",
"fI c #030301",
"fo c #030303",
"dF c #039758",
"hq c #040301",
"eh c #059f5f",
"iz c #060c07",
"dy c #070502",
"ep c #080e06",
"eN c #0b1108",
"gs c #0c0e0b",
"bS c #0c291e",
"gH c #0d0f0c",
"ce c #0e1109",
".i c #0e8e52",
"g0 c #0f120e",
"h. c #10100a",
"bR c #102b1d",
"cv c #121f14",
"bJ c #123e2d",
"iL c #133728",
"hT c #141c0b",
"gM c #144331",
"bK c #151f0d",
"gk c #154835",
"e6 c #16593b",
"hh c #169b64",
"eK c #182012",
"js c #18523c",
"eV c #186336",
"ez c #19220d",
"cY c #1a160f",
"gL c #1a1f18",
"e1 c #1a2313",
"ik c #1b1a11",
"cm c #1c2112",
"fV c #1c5d44",
"gl c #1e6145",
"hO c #1f2411",
"gV c #1f2d13",
"iF c #1f5940",
"gO c #213015",
"hf c #221e13",
"g3 c #222115",
"gN c #226f51",
"fW c #236247",
"aW c #257b5a",
"aX c #267253",
"gR c #272727",
"cJ c #272f2c",
"hS c #28301e",
"eE c #285635",
"iy c #2a453d",
"ie c #2a8b66",
"b0 c #2b4237",
"fD c #2b6f4f",
"f4 c #2c2a18",
"gY c #2c2c2c",
"fC c #2c8564",
"h8 c #2c8a62",
"bZ c #2d3421",
"bT c #2d4621",
"eB c #2d855e",
"g2 c #2d946c",
"dp c #2e2f2e",
"e5 c #2e3e1f",
"jt c #2e4e36",
"ib c #2e7b57",
".Q c #2e8c64",
"hV c #2e8d65",
"gU c #2e9068",
"c8 c #2e9b72",
"ho c #2f2f2f",
"e3 c #2f865d",
"im c #303231",
"cX c #303e38",
"e7 c #30402e",
".Y c #30996f",
".I c #309b70",
".r c #309b71",
"id c #314d42",
".1 c #31653b",
"#h c #31683f",
"#. c #31875c",
"b5 c #318b65",
"hz c #31986e",
"dq c #319c72",
"aP c #319e74",
"d0 c #31a075",
".z c #31a176",
".0 c #31a276",
"eD c #31a277",
"dS c #31a377",
"bc c #31a478",
"dx c #31a579",
"b1 c #326c56",
".7 c #327a51",
"fO c #32936a",
"eU c #32936c",
"aB c #32996f",
"fT c #329c71",
"fh c #329d74",
"hF c #329f73",
"au c #329f74",
"dc c #32a075",
"e. c #32a376",
".A c #32a377",
"#t c #32a378",
".b c #32a579",
"#s c #32a57a",
"Qt c #32a67a",
"d. c #332c1b",
"#n c #33764e",
"bI c #33785e",
"h6 c #338b63",
"dK c #339c72",
"iQ c #339e74",
"cA c #33a478",
"eT c #34542f",
"iY c #346648",
"b7 c #346e4a",
"h9 c #34714d",
"gB c #347639",
"b2 c #348659",
"#q c #348d68",
"ex c #34966e",
".k c #349e70",
"#Y c #34a378",
"ig c #352d1e",
"dE c #353535",
"gQ c #357851",
"h1 c #358a5c",
"aI c #35956c",
"am c #35986e",
"eg c #359870",
"c2 c #359e73",
"cd c #363636",
"iK c #363937",
"e# c #366f33",
".y c #369066",
"dj c #369168",
"is c #369269",
"g5 c #36936c",
"bj c #373a36",
"io c #373b26",
"bl c #37401d",
"e4 c #37401e",
"gT c #374522",
"gm c #37471d",
"gX c #37744e",
"#D c #379068",
"jm c #37956c",
".s c #379667",
".c c #389566",
"gZ c #394d28",
"ij c #395e50",
"hQ c #396a3b",
"hW c #396e3e",
"gA c #398664",
"ei c #398c5b",
".J c #39915f",
"eC c #39a27a",
"i5 c #3a311f",
"#e c #3a572f",
".H c #3a7e55",
"gu c #3b8c5c",
"f# c #3b966e",
"cs c #3c4338",
"#M c #3c7c57",
"bd c #3c8357",
"cu c #3d3d3d",
"#u c #3d7955",
".X c #3d7c53",
"ia c #3d916e",
"h4 c #3e4c40",
"c7 c #3e6053",
"bG c #3e7552",
".q c #3e845a",
"bt c #3e8a5c",
"bb c #3e9673",
"#7 c #3ea07a",
"d1 c #3f4222",
"jh c #3f805a",
"ak c #3f9f7b",
"iA c #403521",
"h7 c #404125",
"if c #40946b",
"br c #409472",
"eO c #416338",
"eq c #41733d",
".R c #417c45",
"ja c #418f67",
"h0 c #419e7b",
".B c #427943",
"dT c #42875c",
"hZ c #429171",
"eJ c #434f28",
"fU c #443923",
"cf c #444d2d",
"dh c #446545",
"bH c #449172",
"ef c #457451",
"ad c #457d4c",
"fc c #458762",
"#8 c #459269",
"e0 c #465029",
"hL c #477846",
"dR c #479476",
"ic c #484e31",
"bQ c #48542f",
"gS c #48663a",
"## c #48683b",
"bA c #486b43",
"#V c #487248",
"ew c #48724f",
"hG c #487744",
"gg c #48855b",
"jl c #489b7b",
"iu c #493e25",
"ck c #49543f",
"cw c #495e3a",
"cl c #498d72",
"bL c #4a542d",
".6 c #4a552d",
"b4 c #4a5b35",
"b3 c #4a6b3a",
"d7 c #4a9276",
".9 c #4a9a7b",
"fF c #4b3f28",
"fp c #4b9066",
"j# c #4b9176",
".l c #4b9666",
"i# c #4c7960",
"hk c #4c9479",
"jx c #4c997c",
"iH c #4d4127",
"fQ c #4d4129",
"#m c #4d572f",
"cx c #4d6249",
"gG c #4d6d59",
"by c #4d826a",
"f3 c #4d9378",
"aO c #4d9479",
"#p c #4d987c",
"dI c #4f1bd6",
"a4 c #4f28b8",
"gi c #4f3499",
"g7 c #4f504f",
"cQ c #4f835d",
"aQ c #4f855b",
".h c #4f8760",
"at c #4f977c",
"aH c #5014eb",
".P c #506c41",
"dL c #507345",
"gf c #509178",
"b6 c #50967c",
"fa c #514031",
"fX c #514e2b",
"hd c #514e35",
"hU c #516c3e",
"cB c #51815b",
"cy c #518a73",
"#o c #518c74",
"a3 c #519279",
"fn c #51967c",
"hv c #5227c0",
"d9 c #524577",
"dl c #52492c",
".x c #528862",
"fA c #5319e5",
"ar c #531be4",
"bq c #536268",
"hI c #53676b",
"iM c #537450",
"iR c #537d56",
"#C c #53957c",
"i3 c #5421d6",
".8 c #548b75",
"ft c #554b2f",
"dA c #554c2d",
"iZ c #555334",
"fy c #55947c",
"fm c #5620de",
"jf c #5625d9",
"gv c #565e36",
"eA c #565e38",
"eo c #56623a",
".f c #567045",
"av c #56895f",
"h3 c #575e44",
"ca c #575f45",
"hR c #576139",
"#E c #577451",
"dr c #57855b",
"#U c #57937c",
"hP c #58565a",
"bx c #58575b",
"bF c #586139",
"cb c #587162",
"jn c #587f58",
"iV c #5929d2",
"f2 c #593f99",
"gK c #595d43",
"cr c #595f45",
"i. c #596046",
"a7 c #59784d",
"hg c #597f58",
"d6 c #5a587e",
"gz c #5a6146",
"bY c #5a623c",
"gr c #5a7163",
"g# c #5a7347",
".o c #5a774e",
".K c #5a7c4d",
"g8 c #5a7e68",
"i9 c #5b2ecc",
"do c #5b2fcd",
"fi c #5b5133",
"hY c #5b633c",
"eW c #5b6530",
"ej c #5b7144",
"fJ c #5b865c",
"#f c #5b907e",
"#4 c #5c2fcf",
"ha c #5c5d5c",
"#Z c #5c7d56",
"iC c #5d4f30",
"iO c #5d5031",
"eF c #5d622e",
"hN c #5d656f",
"ct c #5e5f5e",
"be c #5e6f43",
"gI c #5e7648",
"e2 c #5e8676",
"hA c #605633",
"dQ c #605677",
"eS c #605b30",
"i4 c #606060",
"dO c #60673d",
".v c #60724c",
"jb c #60754c",
"hJ c #608d6e",
"cZ c #61503b",
"ge c #61508e",
"fL c #615336",
"gW c #616a39",
"#i c #616b39",
"g1 c #61736c",
"bu c #617849",
"cK c #618b76",
"#6 c #618f7d",
"hx c #623ac3",
"ab c #623cc3",
"h5 c #626362",
"d4 c #626940",
"f0 c #626944",
"ff c #627c5d",
"dZ c #627d71",
".t c #629667",
"dH c #635838",
"dt c #635938",
"iW c #63609d",
"gP c #636937",
"gc c #636a46",
"aj c #638d7d",
"jy c #639883",
"hl c #639b87",
"#3 c #6440bf",
"a2 c #64509a",
"j. c #6454a2",
"h# c #646b60",
"g6 c #647163",
".G c #64734d",
"c1 c #648d7d",
".d c #649767",
"a6 c #64a28e",
".j c #64a592",
".2 c #656b39",
"cc c #656b67",
"ee c #656c45",
"aJ c #657243",
"bz c #65a692",
"c9 c #65a693",
"ah c #6644ba",
"gh c #666239",
"cI c #666666",
"ba c #66675f",
"f8 c #666a55",
"#J c #667164",
"jv c #667350",
"jr c #66746f",
".W c #667550",
"jj c #667653",
"jA c #66785e",
"#S c #667c6f",
".Z c #667d53",
"#A c #667d70",
".u c #668b62",
"fN c #66a895",
"i6 c #675731",
"b. c #676741",
"dX c #676c48",
"dU c #677748",
".n c #67815a",
"hc c #67a794",
"cz c #67a996",
".# c #67aa97",
"dD c #6850a6",
"iB c #685736",
"ev c #686e49",
"#W c #688479",
"#r c #688b7e",
"ey c #68a895",
"aN c #694dac",
"hC c #6950a5",
"ds c #695a37",
"#d c #69663e",
"cn c #69693d",
"bo c #696943",
"hM c #696961",
"gq c #696e4f",
"iN c #6a5e3b",
"aU c #6a6572",
"h2 c #6a693c",
"gj c #6a6c6a",
"jp c #6a6f5a",
"il c #6a774a",
"ix c #6a9085",
".m c #6a9268",
"aG c #6b50af",
"hu c #6b633c",
"cj c #6b674b",
"b8 c #6b693d",
"aR c #6b6b42",
"bU c #6b6e43",
"gF c #6b7152",
".p c #6b9473",
"fx c #6c53ac",
"dG c #6c603d",
"aZ c #6c643d",
"aK c #6c653d",
"hB c #6c653e",
"eP c #6c6f4d",
"#z c #6c6f62",
"hX c #6c7046",
"f5 c #6c7345",
"ht c #6c7348",
"bh c #6d6d4a",
"aM c #6d7057",
"#R c #6d7063",
"jg c #6d897e",
"cG c #6e58a7",
"fK c #6e5f3d",
"dv c #6e618e",
".E c #6e6844",
"bw c #6e6d4b",
"aY c #6e6e48",
"a1 c #6e7156",
"cW c #6e7b76",
".g c #6e8f6e",
"iX c #6e9c8f",
"i2 c #6f5e93",
"hn c #6f5f41",
"ao c #6f6042",
"bB c #6f7146",
"dd c #6f7a51",
"cL c #6f805e",
"hi c #706044",
"aD c #706142",
"je c #706195",
".U c #706a46",
"iS c #706b40",
"dw c #70817a",
"ii c #70837c",
".e c #708b68",
"i0 c #715e36",
"az c #715ea1",
"#a c #717451",
"aV c #717a76",
"jw c #717f73",
"eM c #71988d",
"f9 c #725e9f",
"cF c #72609f",
"ai c #72629d",
"cP c #727272",
"c3 c #72784e",
"hE c #727d78",
"hy c #727e79",
"jk c #728075",
"iP c #72837c",
"eL c #728780",
"cU c #73629d",
"jc c #73663c",
"gx c #736e4e",
".N c #736f4e",
"fB c #737373",
"f7 c #737754",
"g9 c #746444",
"#5 c #746699",
"hw c #746b46",
"aS c #746c46",
"bP c #747653",
"ju c #747851",
"dW c #747b57",
"g. c #747c79",
"#T c #74817c",
"#K c #748580",
"hp c #756341",
"gd c #756c84",
"hr c #756d47",
"cg c #757155",
"#I c #757365",
"er c #757450",
"hs c #757a78",
"jq c #757b79",
"iE c #757c79",
"#B c #75817c",
"aa c #766a94",
"f1 c #766c89",
"#N c #766d4b",
"bm c #76744d",
".S c #767f5a",
"dJ c #76817d",
"i7 c #776039",
"jo c #777c55",
"jz c #777e57",
"a5 c #777f7c",
"al c #77827d",
"iT c #78623a",
"g4 c #786847",
"aw c #786d49",
"iG c #786e45",
"aT c #787555",
"dn c #78786a",
"hj c #787878",
"bM c #787a58",
"gC c #787b56",
"bg c #787c59",
"aA c #78837f",
"#g c #788c86",
"i1 c #79694c",
"jd c #796a4d",
"ec c #796c4a",
"cV c #79718e",
"ea c #797753",
"dC c #797868",
".C c #79805b",
".w c #798e73",
"et c #7a6e4c",
"cH c #7a738c",
"i8 c #7a7468",
"iU c #7a786e",
"gn c #7a7955",
"aC c #7a7a50",
"iI c #7b6944",
"eI c #7b6a3d",
"#v c #7b6c4b",
"dB c #7b6e4a",
"cO c #7b758a",
"dz c #7b774b",
"eX c #7b7b73",
"hH c #7b7d55",
"a8 c #7b7f56",
"hb c #7b7f7d",
"ac c #7b827f",
"ji c #7b8358",
"#9 c #7b845e",
"em c #7c7150",
"c# c #7c7153",
"a0 c #7c7550",
"ga c #7c784a",
"eG c #7c7d77",
"#X c #7c817f",
"di c #7d6d49",
"aL c #7d7651",
"fY c #7d784a",
"dY c #7d7885",
"co c #7d7c75",
".M c #7d7d5c",
"d5 c #7d7d71",
"fZ c #7d7f5b",
"#j c #7d7f70",
"c0 c #7d817f",
".5 c #7e7249",
"#F c #7e735e",
"#y c #7e7869",
"b9 c #7e7d78",
"gb c #7e7e5a",
"d2 c #7e7f51",
"#L c #7e8281",
"iv c #7f6c46",
"eZ c #7f6d40",
"hm c #7f704a",
"dm c #7f714c",
"ir c #7f724d",
"cq c #7f7355",
"dk c #7f754a",
"an c #7f784d",
"#Q c #7f796a",
"f6 c #7f7b53",
"#O c #7f7c77",
"#w c #7f7d7a",
"dP c #7f7f76",
".3 c #7f8073",
".L c #7f8461",
"dN c #7f8563",
"ax c #806c4b",
"ip c #807550",
"du c #807659",
"iw c #807d77",
"dM c #808052",
"ek c #80805f",
"f. c #808080",
"bf c #80815c",
"d3 c #808562",
"en c #808669",
"#l c #81734a",
"iJ c #817d74",
"fe c #817d79",
"e9 c #817e7b",
"el c #817f60",
"gJ c #81805f",
"dV c #818159",
"hK c #81825d",
"gw c #818260",
"bp c #81826d",
"bV c #81836d",
"a9 c #818766",
".O c #818c70",
"d# c #827c55",
"bE c #827c5a",
"fH c #827f78",
"cE c #82807e",
"d8 c #82825a",
"bv c #82825d",
"bi c #828278",
"bC c #82846f",
"bn c #828765",
"fR c #83704b",
"it c #83774d",
"bX c #837c59",
"fS c #837e76",
"cT c #83817e",
"gD c #838767",
".V c #83876c",
"go c #838867",
".T c #838868",
".D c #838968",
"fd c #847158",
"iD c #84765b",
"aq c #84807a",
"b# c #848571",
"gE c #84866c",
"es c #84886a",
"gy c #848971",
"#G c #85817c",
"#2 c #85817d",
"eb c #85886b",
".F c #858a70",
"e8 c #866b53",
"fP c #86794e",
"aF c #868078",
"eu c #868569",
"gp c #868970",
"fG c #87744e",
"fb c #877566",
"bN c #878168",
"c6 c #87817b",
"ag c #87827d",
"ed c #87876c",
"fl c #88827c",
"fq c #88885f",
"fE c #897249",
"dg c #89827a",
"bO c #8a7852",
"fM c #8a7c61",
"bW c #8b7955",
"#H c #8b8172",
"ch c #8b8379",
"fw c #8b837c",
"bD c #8c7953",
"cN c #8c837b",
"#b c #8c846f",
"#P c #8d8478",
"#x c #8e8577",
"cR c #8f765a",
"eQ c #908576",
"fz c #908863",
"ih c #917f60",
"iq c #927e59",
"de c #93815b",
"cS c #938475",
"cD c #938477",
"cC c #957f60",
"ay c #958167",
"c4 c #95825c",
"ci c #968364",
"aE c #977c57",
"cM c #97816a",
"#c c #987f53",
"ap c #997e59",
"a# c #998677",
"cp c #9b8970",
"#k c #9d855f",
"c. c #9d8a6f",
".4 c #9f855d",
"da c #9f8560",
"db c #9f866d",
"ae c #9f8c67",
"eR c #a28456",
"he c #a28965",
"#0 c #a38c68",
"af c #a58a71",
"#1 c #a58a72",
"fs c #a68a73",
"a. c #a78c6d",
"eY c #a98e68",
"df c #aa8863",
"c5 c #ab8963",
"eH c #ac8f67",
"fu c #ad996f",
"fj c #b0996f",
"fr c #b69871",
"fk c #b7906d",
"fv c #b7916e",
"QtQtQtQtQtQtQtQtQtQtQtQtQtQtQtQtQtQtQtQtQtQtQtQtQtQtQtQtQtQtQt.#QtQt.aQtQtQtQtQt",
"QtQtQtQt.aQtQtQtQtQtQtQt.aQtQtQtQtQtQtQt.aQtQtQtQtQtQtQt.aQtQtQtQtQtQtQtQtQtQtQt",
"Qt.aQtQtQtQtQtQtQt.aQtQtQt.#QtQtQt.aQtQtQtQtQtQtQt.aQtQtQt.#QtQtQt.aQtQtQtQtQtQt",
"QtQtQtQtQt.aQtQt.#.#QtQtQtQtQtQtQtQtQtQtQt.aQtQt.#.#QtQtQtQtQtQtQtQtQtQtQt.aQtQt",
".b.c.d.e.f.g.h.i.j.#Qt.k.l.m.n.o.p.q.rQtQt.s.t.u.v.w.x.y.zQt.k.l.m.n.o.p.q.rQt.a",
".A.B.C.D.E.F.G.H.IQtQt.J.K.L.M.N.O.P.QQtQt.R.S.T.U.V.W.X.YQt.J.Z.L.M.N.O.P.QQtQt",
".0.1.2.3.4.5.6.7.8.9Qt#.###a#b#c#d#e#f#gQt#h#i#j#k#l#m#n#o#p#.###a#b#c#d#e#q#r#s",
"#t#u#v#w#x#y#z#A#B#CQt#D#E#F#G#H#I#J#K#LQt#M#N#O#P#Q#R#S#T#U#D#V#F#G#H#I#J#W#X#s",
"#Y#Z#0#1#2#3#4#5#6#7.a#8#9a.a#aa#4abac#pQtadaeafagah#4aiajak#8#9a.a#aa#4abal#p.#",
"amanaoapaqarasasatQtauavawaxayazasasaA.baBaCaDaEaFasasaG#CauavawaxayasasaHaAQtQt",
"aIaJaKaLaMaNasasaO.aaPaQaRaSaTaUasasaVaWaXaYaZa0a1asasa2a3aPaQaRaSaTasasa4a5QtQt",
"a6a7a8a9b.b#baasbbQtbcbdbebfbgbhbiasbjasbkblbmbnbobpasbqbrbsbtbubvbgbwasbxbyQtQt",
"bzbAbBbCbDbEbFbGbHbIbJbKbLbMbNbObPbQbRbSbSbTbUbVbWbXbYbZb0b1b2b3bMbNbObPb4b5b6Qt",
".Ab7b8b9c.c#cacbcccdascecfcgchcicjckclQtQtcmcncocpcqcrcsctcucvcwcgchcicjcxcy#Xcz",
"cAcBcCcDcEcFcGcHcIcJascKcLcMcNcOcGazcPQtQtcQcRcScTcUcGcVcWcXcYcZcMcNcOcGazc0c1#s",
"c2c3c4c5c6arasasc7c8c9d.d#dadbazasasaAasdcdddedfdgasasaG#C.AdhdidadbasasaHaAQt.a",
"djdkdldmdndoasasdpQtdqdrdsdtdudvasasdwdxdydzdAdBdCasasdDdEdFdrdGdHduasasdIdJQtQt",
"dKdLdMdNdOdPdQasdRasdSdTdUdVdWdXdYasdZdxd0d1d2d3d4d5asd6d7bkdTdUd8dWdXasd9dZQtQt",
"e.e#eaebecedeeefegehaseiejekelemeneoepQtQteqereseteuevewexeyezejekelemeneAeBeCQt",
"eDeEeFeGeHeIeJeKeLeMQteNeOePeQeReSeTeUasQteVeWeXeYeZe0e1e2#Ue3e4ePeQeReSe5e6#X#s",
"cAe7e8e9f.f.f.f.f.eMQtf#fafbf.f.f.f.aAQtasfcfdfef.f.f.f.f.#Uf#fffbf.f.f.f.f.#Xfg",
"fhfifjfkflfmasasfnfoQtfpfqfrfscFasasaAQtQtftfufvfwasasfxfyfofpfzfrfsasasfAfBfCQt",
"fDfEfFfGfHarasasatQtfIfJfKfLfMazasascPfNfOfPfQfRfSasasaG#CfTfUfKfLfMasasaHcPfVQt",
"fWfXfYfZf0f1f2asf3Qt.zf4f5f6f7f8f9asg.asdqg#gagbgcgdasgegf.zggghf6f7f8asgigjgkQt",
"glgmgngo.EgpgqgrgsQtgtgugvgw.MgxgygzgAQtasgBgCgD.UgEgFgGgHdxgugIgJ.MgxgygKgLgM.#",
"gNgOgP.3.4.5.6gQ.8gRQt#.gS#a#b#c#dgTgUQtQtgVgW#j#k#l#mgX#ogY#.gS#a#b#c#dgZg0g1#s",
"g2g3g4#w#x#y#z#A#Bg5as#D#E#F#G#H#Ig6g7QtQtg8g9#O#P#Q#R#S#T#Uh.#E#F#G#H#Ih#hahb#s",
"hchdhe#1#2#3asas#6#7Qthf#9a.a#aaasasaAasQthgaeafagasasaiajhh#8hia.a#asasabhjhkQt",
"hlhmhnapaqarasashoQtauavhpaxayazasasaA.bhqaCaDaEaFasasaGcdauavhraxayasasaHhsQtQt",
"aIhthuaLaMaNhvasaOasaPaQaRhwaTaUhxashydxhzhAhBa0a1hCasa2a3hDaQaRaSaTaUasa4hEQt.#",
"hFhGhHa9b.b#bahIbbQtashJbuhKbgbwbibxbjQteDhLbmbnbobphMhNbrbchObuhKbgbhbihPbyQtQt",
"e.hQbBbCbDbEhRhSbHak.#hThUbMbNbObPb4hVasQthWhXbVbWbXhYbZhZh0h1bLbMbNbObPb4b5b6.a",
".Ab7h2b9c.c#h3h4h5#CQth6h7cgchcicjcxh8Qtash9cncocpcqi.i#ctiaibiccgchcicjcxcy#X#s",
"cAcBcCcDcEcFasascIidieifcLcMcNcOasasaAQtQtigihcScTasascViiijikcZcMcNasasazc0c1#s",
"c2ilc4c5c6arasasimasinioipdadbazasascP.bdcddiqdfdgasasaGcdind.irdadbasasaHaAQtQt",
"isitiuiviwarasasixiyiziAiBiCiDazasasiEasiFiGiHiIiJasasaGiKiLiMiNiOiDasasaHiPQtQt",
"iQiRiSiTiUiVaHiWiX.#dSiYiZi0i1i2aHi3i4ashDi5i6i7i8i9aHj.j#dSjajbjcjdjeaHjfjgQt.a",
"QtQtjhjijjjkaAjlQtQtQtQtjmjnjojpjqjrgkbSgMjsjtjujvjwaAjxQtQtQtjyjnjzjAaAjgQtQtQt",
"QtQt.#.#QtQtQtQtQtQtQtQtQtQtQtQtQtQt.#.#QtQtQtQtQtQtQtQtQtQtQtQtQtQt.#.#QtQtQtQt",
"QtQt.#.#QtQtQtQtQtQtQtQtQtQtQt.aQtQt.#.#QtQtQtQtQtQtQtQtQtQtQt.aQtQt.#.#QtQtQtQt"};
