/* XPM */
static char *dummy[]={
"40 40 741 2",
"as c #000000",
"bt c #009f5d",
"gw c #00a05d",
"fi c #00a05e",
".a c #00a15e",
"dG c #039758",
"ej c #059f5f",
".i c #0e8e52",
"hl c #169b64",
"eX c #186336",
"ic c #2c8a62",
".Q c #2e8c64",
"h1 c #2e8d65",
"gY c #2e9068",
"e5 c #2f865d",
".Y c #30996f",
".I c #309b70",
".r c #309b71",
".1 c #31653b",
"#h c #31683f",
"#. c #31875c",
"b5 c #318b65",
"hD c #31986e",
"dr c #319c72",
"aP c #319e74",
"d1 c #31a075",
".z c #31a176",
".0 c #31a276",
"eF c #31a277",
"dT c #31a377",
"bc c #31a478",
"dy c #31a579",
".7 c #327a51",
"fR c #32936a",
"eW c #32936c",
"aB c #32996f",
"fW c #329c71",
"hJ c #329f73",
"au c #329f74",
"dd c #32a075",
"ea c #32a376",
".A c #32a377",
"#t c #32a378",
".b c #32a579",
"#s c #32a57a",
"Qt c #32a67a",
"#n c #33764e",
"eD c #338561",
"ia c #338b63",
"dL c #339c72",
"iX c #339e74",
"cA c #33a478",
"eV c #34542f",
"b7 c #346e4a",
"id c #34714d",
"gF c #347639",
"#q c #348d68",
"ez c #34966e",
".k c #349e70",
"#Y c #34a378",
"gU c #357851",
"h7 c #358a5c",
"aI c #35956c",
"am c #35986e",
"ei c #359870",
"c2 c #359e73",
"eb c #366f33",
".y c #369066",
"dk c #369168",
"iy c #369269",
"g9 c #36936c",
"g1 c #37744e",
"#D c #379068",
"ju c #37956c",
".s c #379667",
".c c #389566",
"eG c #39563e",
"hX c #396a3b",
"h2 c #396e3e",
"b2 c #39865c",
"gD c #398664",
"ek c #398c5b",
".J c #39915f",
"eE c #39a27a",
"#e c #3a572f",
".H c #3a7e55",
"fj c #3a9d77",
"gx c #3b8c5c",
"fb c #3b966e",
"#M c #3c7c57",
"#u c #3d7955",
".X c #3d7c53",
"ig c #3d916e",
"bG c #3e7552",
".q c #3e845a",
"bu c #3e8a5c",
"bb c #3e9673",
"c8 c #3e9b7a",
"#7 c #3ea07a",
"jp c #3f805a",
"ak c #3f9f7b",
"il c #40946b",
"bs c #409472",
"eQ c #416338",
"es c #41733d",
".R c #417c45",
"ji c #418f67",
"h6 c #419e7b",
".B c #427943",
"dU c #42875c",
"h5 c #429171",
"eL c #434f28",
"bH c #449172",
"eh c #457451",
"ih c #457b64",
"ad c #457d4c",
"fe c #458762",
"#8 c #459269",
"g6 c #459479",
"e2 c #465029",
"bd c #46835c",
"hR c #477846",
"dS c #479476",
"g3 c #484d2f",
"gW c #48663a",
"## c #48683b",
"bA c #486b43",
"#V c #487248",
"ey c #48724f",
"hK c #487744",
"gj c #48855b",
"jt c #489b7b",
"iA c #493e25",
"cl c #498d72",
".6 c #4a552d",
"b4 c #4a5b35",
"b3 c #4a6b3a",
"d8 c #4a9276",
".9 c #4a9a7b",
"fI c #4b3f28",
"fr c #4b9066",
".l c #4b9666",
"if c #4c7960",
"jF c #4c997c",
"#m c #4d572f",
"cx c #4d6249",
"gK c #4d6d59",
"by c #4d826a",
"f6 c #4d9378",
"aO c #4d9479",
"#p c #4d987c",
"iO c #4e4128",
"fT c #4e412a",
"dJ c #4f1bd6",
"a4 c #4f28b8",
"gl c #4f3499",
"e7 c #4f3e2f",
"cQ c #4f835d",
"aQ c #4f855b",
".h c #4f8760",
"at c #4f977c",
"aH c #5014eb",
".P c #506c41",
"dM c #507345",
"gi c #509178",
"b6 c #50967c",
"gX c #51452f",
"h0 c #516c3e",
"cB c #51815b",
"cy c #518a73",
"#o c #518c74",
"a3 c #519279",
"ho c #51947c",
"fp c #51967c",
"hz c #5227c0",
"dm c #52492c",
".x c #528862",
"ik c #528b7a",
"fD c #5319e5",
"ar c #531be4",
"e# c #534577",
"hN c #53676b",
"iY c #537d56",
"#C c #53957c",
"bQ c #545435",
".8 c #548b75",
"dB c #554c2d",
"jh c #55917c",
"fA c #55947c",
"fo c #5620de",
"jn c #5625d9",
"eq c #56623a",
".f c #567045",
"av c #56895f",
"ca c #575f45",
"br c #57626a",
"#E c #577451",
"ds c #57855b",
"#U c #57937c",
"bx c #58575b",
"h9 c #585e45",
"bF c #586139",
"jv c #587f58",
"i2 c #5929d2",
"f5 c #593f99",
"ie c #596046",
"a7 c #59784d",
"hk c #597f58",
"j. c #5a21d9",
"hW c #5a565b",
"d7 c #5a587e",
"cr c #5a5f46",
"gC c #5a6146",
"gu c #5a7163",
"gc c #5a7347",
".o c #5a774e",
".K c #5a7c4d",
"ha c #5a7e68",
"fF c #5a857b",
"dp c #5b2fcd",
"bY c #5b623c",
"h4 c #5b633c",
"eY c #5b6530",
"el c #5b7144",
"fM c #5b865c",
"#f c #5b907e",
"jf c #5c2ecc",
"#4 c #5c2fcf",
"eC c #5c5e3b",
"#Z c #5c7d56",
"iV c #5d5031",
"cw c #5d5e44",
"hU c #5d656f",
"iI c #5e4f31",
"gM c #5e7648",
"e4 c #5e8676",
"ck c #5f544a",
"gO c #5f5d46",
"fG c #5f6f6a",
"aX c #5f7270",
"dR c #605677",
"eU c #605b30",
"dP c #60673d",
".v c #60724c",
"jj c #60754c",
"hP c #608d6e",
"gh c #61508e",
"fO c #615336",
"g0 c #616a39",
"#i c #616b39",
"bv c #617849",
"#6 c #618f7d",
"hB c #623ac3",
"ab c #623cc3",
"eH c #626230",
"d5 c #626940",
"f3 c #626944",
"fh c #627c5d",
"d0 c #627d71",
".t c #629667",
"du c #635938",
"i3 c #63609d",
"gf c #636a46",
"aj c #638d7d",
"jG c #639883",
"hp c #639b87",
"#3 c #6440bf",
"a2 c #64509a",
"dI c #645838",
"h. c #647163",
".G c #64734d",
"aW c #647b7b",
"c1 c #648d7d",
".d c #649767",
"a6 c #64a28e",
".j c #64a592",
".2 c #656b39",
"eg c #656c45",
"aJ c #657243",
"bz c #65a692",
"c9 c #65a693",
"ah c #6644ba",
"e8 c #665963",
"ba c #66675f",
"gT c #666938",
"g# c #666a55",
"#J c #667164",
".W c #667550",
"jr c #667653",
"jI c #66785e",
"#S c #667c6f",
".Z c #667d53",
"#A c #667d70",
".u c #668b62",
"fQ c #66a895",
"b. c #676741",
"dY c #676c48",
"dV c #677748",
".n c #67815a",
"hg c #67a794",
"cz c #67a996",
".# c #67aa97",
"dE c #6850a6",
"ex c #686e49",
"#W c #688479",
"#r c #688b7e",
"eA c #68a895",
"aN c #694dac",
"hG c #6950a5",
"#d c #69663e",
"cn c #69693d",
"bp c #696943",
"hT c #696961",
"gt c #696e4f",
"bT c #6a463f",
"iU c #6a5e3b",
"aU c #6a6572",
"h8 c #6a693c",
"cb c #6a716b",
"ir c #6a774a",
".m c #6a9268",
"aG c #6b50af",
"cj c #6b674b",
"b8 c #6b693d",
"aR c #6b6b42",
"gJ c #6b7152",
".p c #6b9473",
"fz c #6c53ac",
"aZ c #6c643e",
"aK c #6c653d",
"hF c #6c653e",
"be c #6c6f4a",
"eR c #6c6f4d",
"#z c #6c6f62",
"h3 c #6c7046",
"f8 c #6c7345",
"hx c #6c7348",
"jD c #6c7354",
"e6 c #6d4039",
"jg c #6d54a7",
"dH c #6d603d",
"hy c #6d633d",
"hd c #6d6b65",
"aM c #6d7057",
"#R c #6d7063",
"jo c #6d897e",
"cG c #6e58a7",
"fN c #6e5f3d",
"dw c #6e618e",
".E c #6e6844",
"bh c #6e6d4b",
"a1 c #6e7156",
"iT c #6e745d",
"bI c #6e787b",
".g c #6e8f6e",
"i4 c #6e9c8f",
"bL c #6f543f",
"ao c #6f6042",
"bU c #6f6e46",
"gR c #6f6f77",
"bB c #6f7146",
"de c #6f7a51",
"cL c #6f805e",
"hr c #705f42",
"aD c #706142",
"jm c #706195",
".U c #706a46",
"iZ c #706b40",
"dx c #70817a",
".e c #708b68",
"az c #715ea1",
"#a c #717451",
"jE c #717f73",
"eO c #71988d",
"gS c #72303d",
"ga c #725e9f",
"cF c #72609f",
"ai c #72629d",
"c3 c #72784e",
"hC c #727e79",
"js c #728075",
"iW c #72837c",
"eN c #728780",
"cf c #734d45",
"iH c #73573c",
"dt c #735a3d",
"i9 c #735e95",
"cU c #73629d",
"jk c #73663c",
"i5 c #736668",
"gA c #736e4e",
".N c #736f4e",
"g. c #737754",
"hI c #737d79",
"cK c #738b80",
"#5 c #746699",
"hA c #746b46",
"aS c #746c46",
"bP c #747653",
"dX c #747b57",
"gb c #747c79",
"#T c #74817c",
"#K c #748580",
"gg c #756c84",
"hv c #756d47",
"cg c #757155",
"#I c #757365",
"#B c #75817c",
"ii c #764e48",
"aa c #766a94",
"f4 c #766c89",
"#N c #766d4b",
".S c #767f5a",
"dK c #76817d",
"io c #76837f",
"fZ c #776272",
"aV c #777a79",
"jH c #777e57",
"a5 c #777f7c",
"al c #77827d",
"iM c #78596c",
"i0 c #78623a",
"aw c #786d49",
"aT c #787555",
"do c #78786a",
"bM c #787a58",
"gG c #787b56",
"bg c #787c59",
"aA c #78837f",
"#g c #788c86",
"jl c #796a4d",
"ee c #796c4a",
"jx c #796f62",
"cV c #79718e",
"et c #797452",
"dD c #797868",
".C c #79805b",
".w c #798e73",
"iD c #79908d",
"gZ c #7a2d41",
"ev c #7a6e4c",
"aY c #7a6e4e",
"cH c #7a738c",
"ec c #7a7754",
"i1 c #7a786e",
"aC c #7a7a50",
"jw c #7a7c57",
"gy c #7b5e48",
"jd c #7b603b",
"iP c #7b6944",
"i8 c #7b694d",
"eK c #7b6a3d",
"#v c #7b6c4b",
"dC c #7b6e4a",
"cO c #7b758a",
"dA c #7b774b",
"eZ c #7b7b73",
"a8 c #7b7f56",
"ac c #7b827f",
"jq c #7b8358",
"#9 c #7b845e",
"eo c #7c7150",
"c# c #7c7153",
"a0 c #7c7550",
"gd c #7c784a",
"eI c #7c7d77",
"#X c #7c817f",
"jB c #7d4e5d",
"aL c #7d7651",
"dZ c #7d7885",
"co c #7d7c75",
"hL c #7d7d56",
".M c #7d7d5c",
"d6 c #7d7d71",
"f2 c #7d7f5b",
"#j c #7d7f70",
"c0 c #7d817f",
"i7 c #7e5e3d",
".5 c #7e7249",
"#F c #7e735e",
"je c #7e746a",
"#y c #7e7869",
"b9 c #7e7d78",
"ge c #7e7e5a",
"d3 c #7e7f51",
"#L c #7e8281",
"gp c #7f4741",
"g8 c #7f684a",
"iB c #7f6c46",
"b1 c #7f6c7c",
"e1 c #7f6d40",
"dn c #7f714c",
"cq c #7f7355",
"dl c #7f754a",
"f1 c #7f784b",
"an c #7f784d",
"gq c #7f7958",
"#Q c #7f796a",
"f9 c #7f7b53",
"cW c #7f7b7f",
"#O c #7f7c77",
"#w c #7f7d7a",
"dQ c #7f7f76",
"hf c #7f7f7f",
".3 c #7f8073",
".L c #7f8461",
"dO c #7f8563",
"gk c #806246",
"ax c #806c4b",
"dv c #807659",
"iC c #807d77",
"em c #80805f",
"fa c #808080",
"d4 c #808562",
"ep c #808669",
"go c #816177",
"di c #816564",
"#l c #81734a",
"iK c #817c7f",
"iQ c #817d74",
"fg c #817d79",
"f# c #817e7b",
"en c #817f60",
"dN c #818053",
"hQ c #81825d",
"gz c #818260",
"bq c #81826d",
"bV c #81836d",
"a9 c #818766",
".O c #818c70",
"ib c #824146",
"hb c #82644c",
"gm c #826c77",
"jy c #827b7f",
"d# c #827c55",
"bE c #827c5a",
"fK c #827f78",
"cE c #82807e",
"e. c #82825a",
"bw c #82825d",
"bi c #828278",
"bC c #82846f",
"hS c #828765",
"hM c #828766",
"fU c #83704b",
"iz c #83774d",
"hw c #837a7f",
"bX c #837c59",
"fV c #837e76",
"gN c #838060",
"bf c #83815d",
"cT c #83817e",
"bo c #838765",
"gH c #838767",
".V c #83876c",
"gr c #838867",
".T c #838868",
".D c #838968",
"ht c #846349",
"ff c #847158",
"bn c #847454",
"iJ c #84765b",
"jC c #847859",
"aq c #84807a",
"dW c #84815a",
"b# c #848571",
"gI c #84866c",
"eu c #84886a",
"gB c #848971",
"g5 c #85737e",
"jz c #85747f",
"#G c #85817c",
"#2 c #85817d",
"ed c #85886b",
".F c #858a70",
"i. c #864c64",
"f0 c #864e47",
"fS c #86794e",
"aF c #868078",
"ew c #868569",
"gs c #868970",
"iN c #876e4d",
"fJ c #87744e",
"fd c #877566",
"hn c #87787f",
"bN c #878168",
"c6 c #87817b",
"ag c #87827d",
"ef c #87876c",
"i6 c #88534d",
"jc c #885742",
"fn c #88827c",
"fs c #88885f",
"dh c #89827a",
"cc c #8a6b7a",
"iv c #8a7555",
"bO c #8a7852",
"fP c #8a7c61",
"hq c #8b704f",
"fE c #8b7380",
"bW c #8b7955",
"#H c #8b8172",
"ch c #8b8379",
"fy c #8b837c",
"bZ c #8c3451",
"fY c #8c5d7c",
"cP c #8c7280",
"bD c #8c7953",
"cN c #8c837b",
"#b c #8c846f",
"bm c #8d4048",
"d2 c #8d4248",
"#P c #8d8478",
"cs c #8e4361",
"ix c #8e7255",
"#x c #8e8577",
"hE c #8f564b",
"f. c #8f6b58",
"eS c #908576",
"fC c #908863",
"fH c #91724d",
"in c #917f60",
"c7 c #92607e",
"df c #93815b",
"cS c #938475",
"cD c #938477",
"hY c #943054",
"ip c #945e7d",
"i# c #94637b",
"dj c #956d55",
"cC c #957f60",
"ay c #958167",
"c4 c #95825c",
"cm c #962150",
"ci c #968364",
"ct c #975f7b",
"aE c #977c57",
"iw c #977e5b",
"cM c #97816a",
"fk c #985151",
"jA c #98527d",
"he c #985d7a",
"cI c #986680",
"#c c #987f53",
"e3 c #992353",
"ap c #997e59",
"a# c #998677",
"e9 c #9b4063",
"hh c #9b4e5a",
"cp c #9b8970",
"cR c #9c7660",
"#k c #9d855f",
"c. c #9d8a6f",
"j# c #9e6080",
"fv c #9f4b54",
".4 c #9f855d",
"da c #9f8560",
"db c #9f866d",
"ae c #9f8c67",
"eM c #a22057",
"eT c #a28456",
"b0 c #a34273",
"#0 c #a38c68",
"bj c #a43a6d",
"gn c #a4487d",
"bR c #a52b68",
"h# c #a5507a",
"af c #a58a71",
"#1 c #a58a72",
"fu c #a68a73",
"ij c #a74d7d",
"hm c #a7605f",
"hi c #a78968",
"a. c #a78c6d",
"g7 c #a92158",
"e0 c #a98e68",
"cZ c #aa505f",
"dg c #aa8863",
"gQ c #ab437d",
"c5 c #ab8963",
"fc c #ac405f",
"eJ c #ac8f67",
"iS c #ad3775",
"fw c #ad996f",
"jb c #b0315a",
"bJ c #b13e7d",
"fl c #b39971",
"iu c #b53b66",
"ft c #b69871",
"cv c #b71f67",
"fm c #b7906d",
"fx c #b7916e",
"bK c #b81f5f",
"f7 c #b82a5e",
"gP c #b91f68",
"im c #b92d60",
"fX c #ba395f",
"cX c #bb3e7e",
"hZ c #bc1c60",
"eB c #bc225f",
"iG c #bc3560",
"hV c #bd2460",
"eP c #be1162",
"iE c #c14589",
"cu c #c23d80",
"iR c #c5397f",
"er c #c60e66",
"dF c #c6357e",
"d. c #c82c66",
"cd c #c93680",
"ce c #ca1167",
"bS c #cb297e",
"cJ c #cb2f7f",
"is c #cb327f",
"g4 c #cc126d",
"dq c #cd2f7f",
"hs c #cf2f80",
"g2 c #d22c80",
"hj c #d51e6d",
"hc c #d6106d",
"iq c #d71a6f",
"gV c #d72780",
"gL c #dc0f74",
"cY c #dc1670",
"gv c #e00e76",
"dz c #e10570",
"iF c #e30c76",
"hu c #ea0375",
"fL c #ee0377",
"hH c #f20279",
"ja c #f5027b",
"bl c #f9017d",
"it c #fa007d",
"d9 c #fa017d",
"hO c #fb007e",
"fB c #fb0380",
"gE c #fc007e",
"fq c #fc0380",
"iL c #fd007f",
"dc c #fe007f",
"bk c #ff0080",
"QtQtQtQtQtQtQtQtQtQtQtQtQtQtQtQtQtQtQtQtQtQtQtQtQtQtQtQtQtQtQt.#QtQt.aQtQtQtQtQt",
"QtQtQtQt.aQtQtQtQtQtQtQt.aQtQtQtQtQtQtQt.aQtQtQtQtQtQtQt.aQtQtQtQtQtQtQtQtQtQtQt",
"Qt.aQtQtQtQtQtQtQt.aQtQtQt.#QtQtQt.aQtQtQtQtQtQtQt.aQtQtQt.#QtQtQt.aQtQtQtQtQtQt",
"QtQtQtQtQt.aQtQt.#.#QtQtQtQtQtQtQtQtQtQtQt.aQtQt.#.#QtQtQtQtQtQtQtQtQtQtQt.aQtQt",
".b.c.d.e.f.g.h.i.j.#Qt.k.l.m.n.o.p.q.rQtQt.s.t.u.v.w.x.y.zQt.k.l.m.n.o.p.q.rQt.a",
".A.B.C.D.E.F.G.H.IQtQt.J.K.L.M.N.O.P.QQtQt.R.S.T.U.V.W.X.YQt.J.Z.L.M.N.O.P.QQtQt",
".0.1.2.3.4.5.6.7.8.9Qt#.###a#b#c#d#e#f#gQt#h#i#j#k#l#m#n#o#p#.###a#b#c#d#e#q#r#s",
"#t#u#v#w#x#y#z#A#B#CQt#D#E#F#G#H#I#J#K#LQt#M#N#O#P#Q#R#S#T#U#D#V#F#G#H#I#J#W#X#s",
"#Y#Z#0#1#2#3#4#5#6#7.a#8#9a.a#aa#4abac#pQtadaeafagah#4aiajak#8#9a.a#aa#4abal#p.#",
"amanaoapaqarasasatQtauavawaxayazasasaA.baBaCaDaEaFasasaG#CauavawaxayasasaHaAQtQt",
"aIaJaKaLaMaNasasaO.aaPaQaRaSaTaUasasaVaWaXaYaZa0a1asasa2a3aPaQaRaSaTasasa4a5QtQt",
"a6a7a8a9b.b#baasbbQtbcbdbebfbgbhbiasbjbkblbmbnbobpbqasbrbsbtbubvbwbgbhasbxbyQtQt",
"bzbAbBbCbDbEbFbGbHbIbJbKbLbMbNbObPbQbRbSbSbTbUbVbWbXbYbZb0b1b2b3bMbNbObPb4b5b6Qt",
".Ab7b8b9c.c#cacbcccdbkcecfcgchcicjckclQtQtcmcncocpcqcrcsctcucvcwcgchcicjcxcy#Xcz",
"cAcBcCcDcEcFcGcHcIcJbkcKcLcMcNcOcGazcPQtQtcQcRcScTcUcGcVcWcXcYcZcMcNcOcGazc0c1#s",
"c2c3c4c5c6arasasc7c8c9d.d#dadbazasasaAdcdddedfdgdhasasaG#C.AdidjdadbasasaHaAQt.a",
"dkdldmdndodpasasdqQtdrdsdtdudvdwasasdxdydzdAdBdCdDasasdEdFdGdsdHdIdvasasdJdKQtQt",
"dLdMdNdOdPdQdRasdSbkdTdUdVdWdXdYdZasd0dyd1d2d3d4d5d6asd7d8d9dUdVe.dXdYase#d0QtQt",
"eaebecedeeefegeheiejbkekelemeneoepeqerQtQteseteuevewexeyezeAeBelemeneoepeCeDeEQt",
"eFeGeHeIeJeKeLeMeNeOQtePeQeReSeTeUeVeWbkQteXeYeZe0e1e2e3e4#Ue5e6eReSeTeUe7e8#X#s",
"cAe9f.f#fafafafafaeOQtfbfcfdfafafafaaAQtbkfefffgfafafafafa#Ufbfhfdfafafafafa#Xfi",
"fjfkflfmfnfoasasfpfqQtfrfsftfucFasasaAQtQtfvfwfxfyasasfzfAfBfrfCftfuasasfDfEfFQt",
"fGfHfIfJfKarasasatQtfLfMfNfOfPazasascPfQfRfSfTfUfVasasaG#CfWfXfNfOfPasasaHcPfYQt",
"fZf0f1f2f3f4f5asf6Qt.zf7f8f9g.g#gaasgbdcdrgcgdgegfggasghgi.zgjgkf9g.g#asglgmgnQt",
"gogpgqgr.EgsgtgugvQtgwgxgygz.MgAgBgCgDQtgEgFgGgH.UgIgJgKgLdygxgMgN.MgAgBgOgPgQ.#",
"gRgSgT.3.4.5.6gU.8gVQt#.gW#a#b#c#dgXgYQtQtgZg0#j#k#l#mg1#og2#.gW#a#b#c#dg3g4g5#s",
"g6g7g8#w#x#y#z#A#Bg9bk#D#E#F#G#H#Ih.h#QtQthahb#O#P#Q#R#S#T#Uhc#E#F#G#H#Ihdhehf#s",
"hghhhi#1#2#3asas#6#7Qthj#9a.a#aaasasaAbkQthkaeafagasasaiajhl#8hma.a#asasabhnhoQt",
"hphqhrapaqarasashsQtauavhtaxayazasasaA.bhuaCaDaEaFasasaGcdauavhvaxayasasaHhwQtQt",
"aIhxhyaLaMaNhzasaObkaPaQaRhAaTaUhBashCdyhDhEhFa0a1hGasa2a3hHaQaRaSaTaUasa4hIQt.#",
"hJhKhLhMb.b#bahNbbQthOhPbvhQbgbhbibxbjQteFhRbnhSbpbqhThUbsbchVbvhQbgbhbihWbyQtQt",
"eahXbBbCbDbEbFhYbHak.#hZh0bMbNbObPb4h1bkQth2h3bVbWbXh4bZh5h6h7bLbMbNbObPb4b5b6.a",
".Ab7h8b9c.c#h9i.i##CQtiaibcgchcicjcxicQtbkidcncocpcqieifctigihiicgchcicjcxcy#X#s",
"cAcBcCcDcEcFasascIijikilcLcMcNcOasasaAQtQtimincScTasascVioipiqcZcMcNasasazc0c1#s",
"c2irc4c5c6arasasisbkitiuivdadbazasascP.bdddeiwdgdhasasaGcditd.ixdadbasasaHaAQtQt",
"iyiziAiBiCarasasiDiEiFiGiHiIiJazasasiKiLiMiNiOiPiQasasaGiRiSiTiUiViJasasaHiWQtQt",
"iXiYiZi0i1i2aHi3i4.#dTi5i6i7i8i9aHj.j#dcjajbjcjdjejfaHjgjhdTjijjjkjljmaHjnjoQt.a",
"QtQtjpjqjrjsaAjtQtQtQtQtjujvjwjxjyjzgnbSgQjAjBjCjDjEaAjFQtQtQtjGjvjHjIaAjoQtQtQt",
"QtQt.#.#QtQtQtQtQtQtQtQtQtQtQtQtQtQt.#.#QtQtQtQtQtQtQtQtQtQtQtQtQtQt.#.#QtQtQtQt",
"QtQt.#.#QtQtQtQtQtQtQtQtQtQtQt.aQtQt.#.#QtQtQtQtQtQtQtQtQtQtQt.aQtQt.#.#QtQtQtQt"};
