/* XPM */
static char *dummy[]={
"40 40 292 2",
".k c #00a15e",
"bX c #020d5e",
"bI c #03135a",
"b2 c #041163",
"ci c #071567",
"b8 c #08166a",
"b7 c #09176b",
"b1 c #09176c",
"cc c #0a186c",
"ch c #0a186d",
"bW c #0a196e",
"cd c #0a1a6c",
"cu c #0a1a6f",
"bO c #0a1a70",
"bc c #0c1a6f",
"bN c #0c1b71",
"bV c #0d1d73",
"bH c #0d207c",
"a5 c #0e1c70",
"a0 c #0e1c71",
"bA c #0e1d72",
"bz c #0e1e75",
"bq c #0e1f76",
"aS c #0f1c70",
"bw c #0f1d71",
"a6 c #0f1d72",
"bi c #0f1f75",
"b6 c #0f2078",
"cb c #0f2079",
"bj c #10185d",
"aT c #101860",
"a1 c #101961",
"a7 c #101962",
"bo c #101b6b",
"br c #101c5b",
"bv c #101c6d",
"aI c #101c6e",
"ax c #101d71",
"ay c #101e72",
"bp c #102077",
"aZ c #111c68",
"aH c #111c69",
"bu c #111d68",
"bb c #111d6a",
"aR c #111d6b",
"bh c #111d6c",
"aw c #111d6e",
"al c #111f71",
"b. c #112073",
"az c #121e6e",
"aY c #122172",
"bg c #122173",
"bE c #122174",
"bM c #122175",
"a4 c #122379",
"bx c #12247d",
"bG c #12247e",
"aQ c #122580",
"aa c #122987",
"bF c #13257f",
"bU c #132680",
"by c #132681",
"bT c #132782",
"b0 c #132783",
"aG c #132f95",
"av c #13309b",
"aJ c #141e68",
"am c #14216e",
"bS c #142884",
"ak c #1438ac",
"aK c #161d5e",
"aU c #171d5e",
"aA c #19256e",
"ab c #1a266f",
"c# c #1e1d32",
"bD c #1f1d37",
"bZ c #1f1e39",
"bK c #22203c",
"bt c #24223e",
"cG c #27253b",
"bl c #272641",
"cC c #282640",
"bd c #282641",
"aB c #282e6c",
".h c #29231d",
"cl c #292843",
".C c #2a251f",
".t c #2a2620",
"b4 c #2a2842",
"cr c #2b2944",
"cx c #2d2b45",
".S c #2f2c26",
"#4 c #302b25",
"#C c #302b26",
".K c #302c26",
".2 c #312d27",
"## c #312d28",
"ba c #312f48",
"aj c #322e2a",
"b5 c #322f2a",
".i c #32a67a",
"#z c #333028",
"cp c #333d75",
"#J c #36332c",
"bQ c #36344a",
"an c #364280",
".J c #37342a",
"#. c #38342c",
".B c #38352b",
".L c #38352d",
"a9 c #38354c",
"#h c #39352e",
"#s c #3a372f",
"#F c #3b3930",
"ce c #3b3f69",
"a3 c #3c394e",
".s c #3c3a2f",
"#I c #3d3a32",
"aW c #3d3a4f",
"ca c #3d3b33",
"#H c #3e3c31",
".E c #3e3c33",
"#y c #3e3c34",
".D c #3f3b33",
"#3 c #3f3c32",
"aL c #3f447c",
"cg c #403e34",
"cy c #403f36",
"#j c #413d38",
"cn c #413e34",
"#A c #413e35",
".x c #413e36",
".Y c #414037",
"cv c #414b77",
"#x c #424036",
"cj c #424b73",
"#Q c #434138",
".u c #444138",
".w c #444239",
"#G c #464539",
"#8 c #473f50",
"af c #474251",
"bf c #47433d",
"#0 c #474442",
"bL c #48443b",
".g c #48453b",
"cF c #484559",
"aO c #494655",
"#b c #4a463c",
".b c #4a483a",
"#R c #4a483e",
"b9 c #4a4f71",
"#9 c #4b464d",
"aX c #4b4a41",
".1 c #4c4941",
"#p c #4c4b44",
".4 c #4d4a40",
"bn c #4d4a43",
"co c #4d4c43",
".a c #4e4c3e",
".F c #4e4c42",
"#N c #4e4d45",
"bC c #4f4b5d",
"#t c #504e45",
".H c #504e46",
"#E c #504e47",
"ai c #514d53",
"#w c #514f43",
"#1 c #514f48",
"#v c #515046",
"#V c #525047",
"c. c #525060",
"at c #534f61",
".n c #545247",
".y c #55534a",
".G c #55534c",
".W c #55544d",
"#q c #56534e",
".# c #565449",
"aP c #56544a",
".X c #56554e",
"#l c #57554b",
"aF c #585465",
".r c #58564d",
"#B c #59574e",
".v c #59584e",
".V c #595851",
"#o c #595853",
".o c #5a5850",
"#Z c #5b5664",
"#U c #5b5952",
"be c #5b5a51",
"#i c #5b5a55",
".c c #5c5a4f",
"#n c #5c5b51",
"#r c #5d5b53",
".A c #5d5c52",
".m c #5e5c53",
"ag c #605d68",
"as c #625d6e",
".f c #625f57",
".e c #626057",
".R c #62605c",
"a. c #62615a",
"bR c #636157",
"bm c #63625a",
".P c #64625c",
".z c #64635b",
".l c #65635a",
"#c c #65645a",
"#k c #666459",
"cE c #666571",
"cf c #666671",
"#a c #67665b",
"cB c #676671",
".j c #67aa97",
"ah c #68656e",
"#K c #68665e",
".M c #686660",
"cs c #686762",
"a# c #696863",
".p c #6a6862",
"ck c #6a6973",
"#S c #6c6a64",
"#W c #6c6b60",
".5 c #6c6b63",
"ct c #6c6b65",
"#u c #6d6b62",
"#g c #6d6c68",
"cD c #6d6d67",
"au c #6d6d68",
".I c #6e6d65",
"cm c #6f6e66",
"cq c #6f6e77",
"#2 c #706f67",
".7 c #71706a",
".d c #737169",
".O c #74736d",
"#f c #757571",
"cw c #76777d",
"#P c #77756f",
".3 c #77776c",
"Qt c #79776f",
"#T c #797870",
".6 c #797872",
"bJ c #797c77",
"aC c #797ea6",
"bB c #797f8a",
".U c #7a7a77",
"#m c #7b7971",
"#O c #7b7a72",
".9 c #7b7b76",
"bP c #7b8285",
".Z c #7e7d77",
".T c #81807d",
"b3 c #818884",
".q c #828179",
"#D c #84827d",
".N c #85837f",
"#Y c #858490",
".0 c #878680",
"bs c #888694",
"cH c #888783",
"cA c #898a8e",
"#X c #8b8a94",
".8 c #8d8d8b",
"ae c #8e8c97",
"#M c #8e8d89",
"#e c #8f8e8b",
"#L c #91908d",
"bY c #959886",
".Q c #969693",
"#d c #979691",
"aN c #a3a4a0",
"cz c #a3a8a3",
"ao c #a5b3df",
"#7 c #acacb4",
"bk c #c5c6cd",
"aE c #c9c7ce",
"aM c #cacbda",
"b# c #cfcfd7",
"ac c #d0d2e1",
"a8 c #d1d0d7",
"#5 c #d2d3e2",
"ar c #d4d3d7",
"a2 c #dcdce1",
"aV c #e1e1e5",
"aD c #f0f1f5",
"ad c #f9f9f9",
"aq c #fbfbfb",
"#6 c #fbfff5",
"ap c #fcfcfe",
"Qt.#.a.b.c.d.e.f.g.h.i.i.i.i.i.i.i.i.i.i.i.i.i.i.i.i.i.i.i.i.i.j.i.i.k.i.i.i.i.i",
".l.m.e.n.o.p.q.r.s.t.i.i.k.i.i.i.i.i.i.i.k.i.i.i.i.i.i.i.k.i.i.i.i.i.i.i.i.i.i.i",
".u.v.m.w.x.y.z.A.B.C.i.i.i.j.i.i.i.k.i.i.i.i.i.i.i.k.i.i.i.j.i.i.i.k.i.i.i.i.i.i",
".D.E.F.x.G.p.H.I.J.K.i.i.i.i.i.i.i.i.i.i.i.k.i.i.j.j.i.i.i.i.i.i.i.i.i.i.i.k.i.i",
".L.M.M.N.O.P.p.Q.R.S.i.i.i.i.i.i.i.i.i.i.i.i.i.k.j.j.i.i.i.i.i.i.i.i.i.i.i.i.i.k",
".T.U.V.W.X.Y.Z.0.1.2.i.i.i.i.i.j.i.i.i.i.i.i.i.i.i.i.i.i.i.i.i.j.i.i.i.i.i.i.i.i",
".3.4.5.6.7.8.9.1#.##.i.i.i.i.i.i.i.i.j.j.i.i.i.i.i.i.i.i.i.i.i.i.i.i.j.j.i.i.i.i",
"#a#b#c#d#e#f#g#h#i#j.i.i.i.i.i.k.i.i.j.j.i.i.i.i.i.i.i.i.i.i.i.k.i.i.j.j.i.i.i.i",
"#k.F#l#m#n#o#p#q#r#s.k.i.i.i.i.i.i.i.i.i.i.k.i.j.i.i.k.i.i.i.i.i.i.i.i.i.i.k.i.j",
"#t#u#v#w#x#y#z#A#B#C.i.i.i.i.i.i.i.i.i.i.i.i.i.i.i.i.i.i.i.i.i.i.i.i.i.i.i.i.i.i",
"#D#E#F#G#H#..E#I.w#JQt.#.a.b.c.d.e.f.g.h.i.j.i.i.i.k.i.i.i.i.i.i.i.k.i.i.i.j.i.i",
"#K.R#L#M#N.H#O#P#Q#y.l.m.e.n.o.p.q.r.s.t.i.i.i.i.i.i.i.i.i.k.i.i.j.j.i.i.i.i.i.i",
"#R#S#T#U#F#V#K#W#x#s.u.v.m.w.x.y.z.A.B.C.i.i.i.i.i.i.i.i.i.i.i.k.j.j.i.i.i.i.i.i",
"#X#Y#Z#0#1.p#E#2#3#4.D.E.F.x.G.p.H.I.J.K.i.i.i.j.i.i.i.i.i.i.i.i.i.i.i.i.i.i.i.j",
"#5#6#7#8#9a.a#.Q.R.K.L.M.M.N.O.P.p.Q.R.S.i.i.i.i.i.i.j.j.i.i.i.i.i.i.i.i.i.i.i.i",
"aaabacadaeafagahaiaj.T.U.V.W.X.Y.Z.0.1.2.i.i.i.k.i.i.j.j.i.i.i.i.i.i.i.i.i.i.i.k",
"akalamanaoapaqarasatau.4.5.6.7.8.9.1#.##.i.i.i.i.i.i.i.i.i.k.i.j.i.i.k.i.i.i.i.i",
"avawaxayazaAaBaCaDaEaF#b#c#d#e#f#g#h#i#j.i.i.i.i.i.i.i.i.i.i.i.i.i.i.i.i.i.i.i.i",
"aGaHaHaIaxaxaJaKaLaMaNaOaP#m#n#o#p#q#r#s.i.i.i.i.i.k.i.i.i.j.i.i.i.k.i.i.i.i.i.i",
"aQaHaHaRaxaxaxaSaTaUaVaWaX#w#x#y#z#A#B#C.i.k.i.i.j.j.i.i.i.i.i.i.i.i.i.i.i.k.i.i",
"aYaHaHaZaRa0a0a0a0a1a2a3#F#G#H#..E#I.w#JQt.#.a.b.c.d.e.f.g.h.i.i.i.i.i.i.i.i.i.k",
"a4aHaHaHaHa5a0a0a6a7a8a9#L#M#N.H#O#P#Q#y.l.m.e.n.o.p.q.r.s.t.i.j.i.i.i.i.i.i.i.i",
"b.aHaHaZaHa5a0a0a0a7b#ba#T#U#F#V#K#W#x#s.u.v.m.w.x.y.z.A.B.C.i.i.i.i.j.j.i.i.i.i",
"alaHaHaHbbbca0a0a0aTb#bdbebf#1.p#E#2#3#4.D.E.F.x.G.p.H.I.J.K.i.k.i.i.j.j.i.i.i.i",
"bgaHaHaHbhbia0a0a0bjbkblbmbn#Ua.a#.Q.R.K.L.M.M.N.O.P.p.Q.R.S.i.i.i.i.i.i.i.k.i.j",
"bgaZaHboa6bpbqa0a0brbsbt.V.W.X.Y.Z.0.1.2.T.U.V.W.X.Y.Z.0.1.2.i.i.i.i.i.i.i.i.i.i",
"bgbubvbwbxbybybzbAbBbCbD.5.6.7.8.9.1#.##.3.4.5.6.7.8.9.1#.##.i.i.i.k.i.i.i.j.i.i",
"bEbuaRbFbGbybGbHbIbJbKbL#c#d#e#f#g#h#i#j#a#b#c#d#e#f#g#h#i#j.i.i.j.j.i.i.i.i.i.i",
"bMaHbybybybybNbObPbQbR.F#l#m#n#o#p#q#r#s#k.F#l#m#n#o#p#q#r#s.i.k.j.j.i.i.i.i.i.i",
"bSbybTbybUbVbWbXbYbZ#t#u#v#w#x#y#z#A#B#C#t#u#v#w#x#y#z#A#B#C.i.i.i.i.i.i.i.i.i.j",
"b0bybTbUbqb1b2b3b4b5#D#E#F#G#H#..E#I.w#J#D#E#F#G#H#..E#I.w#JQt.#.a.b.c.d.e.f.g.h",
"bTbybyb6b7b8b9c.c#ca#K.R#L#M#N.H#O#P#Q#y#K.R#L#M#N.H#O#P#Q#y.l.m.e.n.o.p.q.r.s.t",
"bTbycbcccdcecfbKcg#s#R#S#T#U#F#V#K#W#x#s#R#S#T#U#F#V#K#W#x#s.u.v.m.w.x.y.z.A.B.C",
"bybqchcicjckclcm#3#4cncobebf#1.p#E#2#3#4cncobebf#1.p#E#2#3#4.D.E.F.x.G.p.H.I.J.K",
"bWccb7cpcqcrcs.Q.R.K#hctbmbn#Ua.a#.Q.R.K#hctbmbn#Ua.a#.Q.R.K.L.M.M.N.O.P.p.Q.R.S",
"cucicvcwcxcy.Z.0.1.2.T.U.V.W.X.Y.Z.0.1.2.T.U.V.W.X.Y.Z.0.1.2.T.U.V.W.X.Y.Z.0.1.2",
"czcAcBcCcD.8.9.1#.##.3.4.5.6.7.8.9.1#.##.3.4.5.6.7.8.9.1#.##.3.4.5.6.7.8.9.1#.##",
"cEcFcGcH#e#f#g#h#i#j#a#b#c#d#e#f#g#h#i#j#a#b#c#d#e#f#g#h#i#j#a#b#c#d#e#f#g#h#i#j",
"#k.F#l#m#n#o#p#q#r#s#k.F#l#m#n#o#p#q#r#s#k.F#l#m#n#o#p#q#r#s#k.F#l#m#n#o#p#q#r#s",
"#t#u#v#w#x#y#z#A#B#C#t#u#v#w#x#y#z#A#B#C#t#u#v#w#x#y#z#A#B#C#t#u#v#w#x#y#z#A#B#C"};
