/* XPM */
static char *dummy[]={
"40 40 560 2",
"#I c #00a15e",
"cr c #06a15e",
"#v c #13a15f",
"fB c #201e39",
"fi c #22203b",
"e7 c #231c34",
"eW c #24223e",
"eL c #272641",
"fW c #282530",
"ew c #282641",
"gE c #29263f",
"gc c #292843",
"fJ c #2a2842",
"gm c #2b2944",
"fz c #2c2c2c",
"gL c #2e2b35",
"gv c #2e2c44",
"fg c #303030",
"ek c #312f48",
"d# c #32a15f",
"dI c #32a579",
"dt c #32a679",
".G c #32a67a",
"g# c #333333",
"da c #33a579",
"fT c #343434",
"bf c #34a579",
"fH c #353535",
"fs c #36344a",
"dJ c #363636",
"cO c #36a579",
"cd c #36a679",
"d2 c #373737",
"ec c #38354c",
"ev c #383838",
"du c #393939",
"dc c #3a3a3a",
"dd c #3b3b3b",
"bZ c #3ba579",
"d4 c #3c394e",
"cQ c #3c3c3c",
"dL c #3d3a4f",
"cR c #3d3d3d",
"fq c #3e3e3e",
"ea c #3f3f3f",
".F c #3fa578",
"e4 c #404040",
".Z c #40a577",
"bH c #40a578",
"ct c #414141",
"#9 c #41a578",
"#d c #41a678",
"fy c #424242",
"cs c #434343",
"be c #43a578",
"fp c #46a578",
"gK c #484559",
"db c #494949",
"fn c #4da576",
"e6 c #4f4b5d",
"cP c #505050",
"fV c #525060",
"gT c #549e58",
"gk c #555555",
"d. c #56a371",
"gs c #56a472",
"f4 c #575757",
"cY c #585260",
"dh c #585465",
"c9 c #58a572",
"cS c #595959",
"ch c #5b4a49",
"dv c #5c5c5c",
"ga c #606060",
"gt c #616161",
"dy c #64544d",
"fU c #646464",
"gJ c #666571",
"f5 c #666671",
"gD c #676671",
"d1 c #67a996",
"bI c #67aa97",
"cx c #685649",
"cX c #6a626c",
"gb c #6a6973",
"gr c #6da05f",
"gl c #6f6e77",
"eJ c #6fa268",
"gq c #72a267",
"gj c #739959",
"gI c #74a46d",
"b2 c #756458",
"eI c #759d59",
"fS c #759d63",
"gu c #76777d",
"fo c #76a78b",
"f3 c #789d60",
"fh c #797c77",
"de c #797ea6",
"e5 c #797f8a",
"g. c #799f5e",
"fr c #7b8285",
"al c #7c9451",
"eH c #7ca25f",
"fG c #7d9751",
"bX c #7d9a55",
"fI c #818884",
"fx c #839c56",
"bY c #839f5a",
"bW c #85a057",
"ak c #869855",
"eU c #87964b",
"cy c #886d45",
"eV c #888694",
"e3 c #88964d",
"am c #889c64",
"gC c #898a8e",
"ff c #89974e",
"gA c #8aa375",
"aB c #8b7b19",
"eN c #8b7c14",
"c. c #8b7c16",
"b7 c #8c7e17",
"fm c #8c9c55",
"b6 c #8e7f17",
"eu c #8e913f",
"eM c #8f7e1c",
"ft c #8f8117",
"b9 c #908116",
"dj c #91821a",
"ay c #918415",
".Y c #928123",
"ei c #929443",
"dA c #938417",
"dk c #938615",
"e# c #939443",
"eX c #948615",
"ed c #948618",
"ep c #958817",
"fQ c #959743",
"fA c #959886",
"b5 c #96832a",
"ck c #96871c",
"e9 c #968a17",
"fR c #969a3d",
"gp c #96a35e",
"d7 c #978527",
"cG c #97871f",
"fX c #978821",
"fC c #978a16",
"eO c #978a1a",
"dR c #978a1c",
".D c #978b36",
"b1 c #978e8a",
"c1 c #98672c",
"fj c #986e2e",
"cz c #98753f",
"gH c #988a19",
".V c #988c16",
".C c #988e38",
"dH c #989037",
"cw c #989293",
".B c #998627",
"gS c #99891a",
"aA c #998c18",
"f9 c #998d16",
"f6 c #998d17",
"eB c #998d19",
"ds c #999039",
"d0 c #99994c",
"d6 c #9a862a",
"gz c #9a8d16",
"dl c #9a8d1a",
"es c #9a8f16",
"gM c #9a9019",
"bQ c #9b4022",
"bN c #9b4023",
"aG c #9b8925",
"b8 c #9b8e1d",
"ee c #9b8f16",
"gh c #9b9017",
"d5 c #9c8535",
".7 c #9c892b",
"#3 c #9c892c",
"aR c #9c8c21",
".X c #9c8f18",
"d8 c #9c9019",
"ez c #9d4a28",
"#8 c #9d892b",
"bA c #9d892c",
"c3 c #9d8f1d",
"fL c #9d9119",
"dZ c #9d9739",
"ey c #9e4b2b",
"c2 c #9e7334",
"fk c #9e8132",
"#n c #9e8c28",
"bq c #9e8c29",
"bG c #9e8d25",
"cc c #9e8d30",
"cL c #9e901f",
"bE c #9e9217",
"dF c #9e9314",
"dY c #9e983b",
"#c c #9f8a2e",
"cK c #9f8e24",
"cq c #9f8e30",
"a9 c #9f8f24",
"gi c #9f9119",
"fO c #9f911a",
"eh c #9f9317",
"#C c #9f9515",
"b0 c #9f968f",
"dP c #a0210e",
"bP c #a04324",
"c0 c #a06e3d",
"#u c #a08c2b",
"bS c #a08d2a",
"ad c #a08e26",
"aX c #a08e2c",
".w c #a08f25",
"go c #a0921b",
"er c #a0921c",
"fd c #a09224",
"f2 c #a09317",
"fF c #a09318",
"bD c #a0931b",
"#F c #a09514",
"ca c #a09516",
"ci c #a17426",
"a2 c #a18e27",
"#H c #a18e2a",
"#Y c #a18e2e",
"bd c #a18f29",
"gg c #a1931e",
"a4 c #a19331",
"e2 c #a19418",
"fb c #a19419",
"c8 c #a1943c",
"aP c #a19516",
"eT c #a19517",
"az c #a1951d",
"c# c #a1951e",
"gw c #a19615",
"dr c #a19617",
"fY c #a19618",
"b. c #a19715",
"eG c #a19948",
"fK c #a27037",
".E c #a2904d",
"cN c #a29131",
"#R c #a29227",
"cM c #a2931f",
"#A c #a29324",
"aQ c #a29617",
"#t c #a29618",
"dE c #a2961b",
"fu c #a2961c",
"gF c #a29716",
"av c #a29717",
"eD c #a29718",
"bn c #a29719",
".y c #a29816",
"fN c #a29817",
"fP c #a29940",
"bM c #a3452a",
"aj c #a38f2d",
"fe c #a39420",
".Q c #a39424",
"bF c #a39619",
"co c #a3961c",
".R c #a39717",
"bU c #a39718",
".S c #a39719",
"fl c #a3971a",
"aJ c #a39815",
"#r c #a39817",
"#7 c #a39818",
"gQ c #a39918",
"dx c #a3a4a0",
"gB c #a3a8a3",
"bO c #a44124",
"dX c #a49033",
"et c #a49619",
"cl c #a49718",
"eF c #a4971a",
"cm c #a4971d",
"gn c #a49818",
"aO c #a4981a",
"aM c #a49916",
"e. c #a49917",
"at c #a49918",
"bT c #a49919",
"eP c #a4991b",
"dD c #a49a16",
"f# c #a49a17",
"cn c #a49a18",
"dU c #a49a19",
"cA c #a57b39",
"fc c #a5922b",
"a5 c #a59536",
"as c #a59625",
"dG c #a59819",
"#S c #a59918",
"#o c #a59919",
"dW c #a5991a",
"dC c #a59a16",
"e0 c #a59a17",
".U c #a59a18",
"bp c #a59a19",
"dm c #a59a1c",
"gf c #a59b17",
"c6 c #a59b18",
"f1 c #a59b1a",
"cT c #a5b3df",
"bV c #a69232",
"bm c #a69a18",
"#b c #a69a19",
"eY c #a69a1b",
"fZ c #a69b16",
"fE c #a69b17",
"#B c #a69b18",
"ag c #a69b19",
"dp c #a69b1a",
"#. c #a69c18",
"#5 c #a69c19",
"dV c #a69c1a",
"fv c #a69c1b",
"cJ c #a69d19",
"aH c #a79a19",
"aN c #a79b18",
"bc c #a79b19",
"aI c #a79b1b",
"e1 c #a79b1c",
"bC c #a79c18",
".x c #a79c19",
"ai c #a79c1a",
".W c #a79c1d",
"ba c #a79d18",
"#E c #a79d19",
"d9 c #a79d1b",
"bR c #a8512f",
"dB c #a89b19",
"#V c #a89c19",
"c7 c #a89c1a",
"aL c #a89c1b",
"cp c #a89c1d",
"#a c #a89d18",
"ax c #a89d19",
"ae c #a89d1a",
"#q c #a89d1b",
"f0 c #a89e1b",
"aK c #a99d19",
"fD c #a99d1a",
"#s c #a99d1b",
"#W c #a99d1c",
"c4 c #a99e19",
".A c #a99e1a",
"aZ c #a99e1b",
"dn c #a99e1c",
"c5 c #a99e1d",
"ef c #a99f1b",
"eQ c #a99f1c",
".8 c #aa9d1a",
"#T c #aa9d1d",
"bB c #aa9e1a",
"gG c #aa9e1b",
"eZ c #aa9e1c",
"ah c #aa9e1d",
"#U c #aa9f1a",
"a1 c #aa9f1c",
"gO c #aa9f1d",
"eR c #aaa01d",
"dO c #ab3013",
"a3 c #ab9a39",
"eq c #ab9e1a",
"#6 c #ab9e1c",
"## c #ab9f1a",
"dS c #ab9f1b",
"af c #ab9f1d",
"#X c #aba01b",
"ge c #aba01c",
"f8 c #aba01d",
"eg c #aba11b",
"fw c #aba11d",
"eS c #aba21d",
"eA c #ac733b",
"gd c #ac9f1b",
"eE c #ac9f1c",
"#4 c #ac9f1d",
"cH c #ac9f1e",
".9 c #aca01c",
"#p c #aca01d",
"bb c #aca01f",
"b# c #aca11f",
"bo c #aca21d",
"#G c #aca21f",
"cg c #acacb4",
"cI c #ad9f1e",
"gR c #ada01b",
"eC c #ada01c",
"fa c #ada01e",
"f. c #ada11e",
".z c #ada11f",
"f7 c #ada21d",
"bl c #ada31d",
"do c #ada31e",
"#D c #ada31f",
"gy c #ada41f",
"dT c #aea11e",
"fM c #aea11f",
".T c #aea31d",
"gx c #aea420",
"gP c #afa21c",
"aY c #afa21f",
"a0 c #afa31e",
"cb c #afa420",
"dq c #afa51f",
"gN c #b0a31d",
"aw c #b0a520",
"au c #b1a620",
"dQ c #b85e34",
"e8 c #be7437",
"cE c #bf2f09",
"ex c #c4652d",
"eK c #c5c6cd",
"cF c #c7592b",
"dg c #c9c7ce",
"eo c #ca7438",
"dw c #cacbda",
"ej c #cfcfd7",
"dN c #d05e1a",
"cu c #d0d2e1",
"cD c #d14913",
"eb c #d1d0d7",
"ce c #d2d3e2",
"cZ c #d6911d",
"en c #d84a0e",
"cW c #d8d6d6",
"bz c #da5e22",
"b3 c #db9918",
"d3 c #dcdce1",
"bv c #df5411",
"bw c #e04e11",
"by c #e15612",
"dK c #e1e1e5",
"em c #e66218",
"cC c #e66b18",
"bx c #e96a19",
"el c #ea6819",
"dM c #eb980a",
"df c #f0f1f5",
"cB c #f5a10e",
"cv c #f9f9f9",
"di c #faa20c",
"cV c #fbfbfb",
"cf c #fbfff5",
"cU c #fcfcfe",
"dz c #fea20b",
"br c #fea60b",
".v c #ff431f",
".u c #ff461e",
".P c #ff461f",
".O c #ff481e",
".t c #ff491e",
".6 c #ff4b1d",
".s c #ff4c1d",
"#z c #ff4d1d",
"#m c #ff4e1d",
".r c #ff4f1d",
"#Q c #ff501c",
".q c #ff511c",
"#2 c #ff521c",
"#P c #ff531c",
".p c #ff541c",
".o c #ff561b",
".N c #ff571b",
"ac c #ff581b",
".n c #ff591a",
".5 c #ff5a1a",
".m c #ff5b1a",
".M c #ff5c1a",
".l c #ff5d1a",
".L c #ff5f19",
".k c #ff6019",
".K c #ff6119",
".j c #ff6219",
".J c #ff6318",
".i c #ff6418",
"#l c #ff6518",
".h c #ff6618",
"#k c #ff6717",
".g c #ff6817",
".f c #ff6917",
"#j c #ff6a17",
".e c #ff6b17",
"#i c #ff6c16",
".d c #ff6d16",
"#h c #ff6e16",
".c c #ff6f16",
".b c #ff7016",
".a c #ff7115",
".# c #ff7215",
"Qt c #ff7315",
".I c #ff7415",
".4 c #ff7515",
".H c #ff7614",
"#O c #ff7714",
".3 c #ff7814",
".2 c #ff7914",
".1 c #ff7a13",
".0 c #ff7b13",
"ar c #ff7c13",
"#g c #ff7d13",
"#f c #ff7e13",
"#e c #ff7f12",
"#y c #ff8012",
"#N c #ff8112",
"#x c #ff8212",
"#w c #ff8312",
"#M c #ff8411",
"#L c #ff8511",
"#K c #ff8611",
"#J c #ff8711",
"ab c #ff8810",
"#1 c #ff8910",
"#0 c #ff8a10",
"#Z c #ff8b10",
"aa c #ff8c10",
"aW c #ff8d0f",
"a# c #ff8e0f",
"a. c #ff8f0f",
"aq c #ff900f",
"ap c #ff910f",
"ao c #ff920e",
"an c #ff930e",
"aF c #ff940e",
"aE c #ff950e",
"aD c #ff960e",
"aC c #ff970d",
"aV c #ff980d",
"aU c #ff990d",
"aT c #ff9a0d",
"aS c #ff9b0c",
"bk c #ff9c0c",
"a8 c #ff9d0c",
"a7 c #ff9e0c",
"a6 c #ff9f0c",
"bj c #ffa00b",
"bi c #ffa10b",
"bh c #ffa20b",
"bg c #ffa30b",
"b4 c #ffa40b",
"bu c #ffa50a",
"bt c #ffa60a",
"bs c #ffa70a",
"bL c #ffa909",
"bK c #ffab09",
"bJ c #ffac09",
"cj c #ffae08",
"QtQt.#.#.#.a.b.c.d.d.e.f.g.h.i.j.k.l.m.n.o.p.q.r.s.t.u.v.w.x.y.z.A.B.C.D.E.F.G.G",
".H.H.H.H.H.I.IQt.#.b.c.d.e.f.g.h.J.K.L.M.n.N.p.q.r.s.O.P.Q.R.S.T.U.V.W.X.Y.Z.G.G",
".0.0.0.1.2.2.3.H.4.I.#.a.c.d.e.f.h.i.j.L.l.5.N.p.q.r.6.O.7.8.9#.##.9#a#b#c#d.G.G",
"#e#e#e#f#g#g.0.0.2.3.H.I.#.b#h#i#j#k#l.j.L.l.5.N.p.q#m.6#n#o#p#q#r.9#s#t#u#v.G.G",
"#w#w#x#x#x#y#y#f#g.0.1.3.H.I.#.c.d.e.g#l.j.L.l.5.N.p.q#z#A#B#C#D#E#F#G.x#H#d.G#I",
"#J#J#J#K#L#M#M#x#N#e#g.0.2#O.4Qt.b.d.e.f.h.j.L.l.n.o#P#Q#R#S#T#U#V#W#X#S#Y#d.G.G",
"#Z#Z#Z#0#1#1#J#K#M#w#N#e#g.0.2.H.I.a#h.e.f#l.j.L.M.n.o#2#3#V#4#5#V#6.A#7#8#9.G.G",
"a.a.a.a#a#aa#Z#0ab#J#M#x#y#f.0.2.H.I.a#h.e.g#l.j.L.mac.padae.xafag#Eahaiajakalam",
"ananaoaoapaqa.a#aa#0ab#K#M#x#ear.2.H.I.a.d.e#k.i.K.l.m.Nas#ratau#BavawaxayazaAaB",
"aCaCaCaDaEaFaoapaqa##Z#1#J#M#x#ear.2.H.I.b.d#j.h.J.k.l.naGaHaIaJaKaLaMaNaOaPaQaR",
"aSaSaSaTaUaVaCaEanapa.aW#0#J#L#x#ear.2.HQt.c#i.f.h.j.L.maXaiaYaZ.Ua0a1ata2a3a4a5",
"a6a6a6a7a8aSaTaUaCaFaoaqa##Zab#L#x#e.0.2.4.##h.e.g.i.k.la9#Bb.b#bab.bbbcbdbebfbf",
"bgbgbhbhbibja7bkaTaVaEanaqa##Z#J#M#x#f.0#O.I.b.d.f.h.j.L.Q.RaOblbmbnbobpbq#d.G.G",
"brbsbsbtbubgbhbja7aSaUaDanaqa##0#J#M#y#g.2.H.#bvbwbxbybzbAbB#4bC#UbDbEbFbGbH.GbI",
"bJbJbKbLbLbsbubgbia7aSaUaDanaqaW#1#K#x#e.0.3bMbNbObPbQbRbSbT.9#sbUbVbWbXbYbZ.G.G",
"b0b1b2b3bJbKbLbsb4bha6aSaUaEaoa.#Zab#M#N#g.1b5b6b7b8b9c.c##Ecacb#5cccd.G.G.G.G#I",
"cecfcgchcicjbJbLbsbubha7aSaVaFapa##0#J#w#e.0ckclcmcnbUco#a#Vcp#.#Scqcr.G.G.G.G.G",
"csctcucvcwcxcyczcAcBb4bia7aTaCanaqaacCcDcEcFcGaxcH#.#VcIcJ#ocKcLcMcNcO.G.G.G.G.G",
"cPcQcRcScTcUcVcWcXcYcZbgbjbkaUaEapa##0c0c1c2c3c4#Bc5axc6afc7c8c9d.d#da.G.G.G.G.G",
"dbdcdcddddctdbdedfdgdhdibha7aTaCaoa.#Zdjdkdldm#rdndo#rdpdqdrdsdt.G.G.G.G.G#I.G.G",
"dbdudududcdcdddcdvdwdxdydzbjaSaVaFaqaadAdBaLdC#VaLdDaKdEdFdGdHdI.G.G.G.G.G.G.G#I",
"ctdududcdcdcdcdudJdcdKdLdMbia8dNdOdPdQdRdSdTdU.AdTdVdWdXdYdZd0d1.G.G.G.G.G.G.G.G",
"cRdudududcdudududud2d3d4btbha7aTd5d6d7d8bC.Ud9bae.dn#Se#dIdIdI.G.G.GbIbI.G.G.G.G",
"eadudududududududcd2ebecbsbha6aSedeecoai#rafef#rcpegehei.G.G.G#I.G.GbIbI.G.G.G.G",
"cQdudududududududud2ejekelemeneoepeqaf#a##afbabcereseteu.G.G.G.G.G.G.G.G.G#I.GbI",
"cQdudududcevdudududJejewexeyezeAeB.xeCeD.xeEbTeFeGeHeIeJ.G.G.G.G.G.G.G.G.G.G.G.G",
"cRdudududccQdudududJeKeLbseMeNeOeP#BeQeRbCd9eSeTeU#I.G.G.G.G.G.G.G#I.G.G.GbI.G.G",
"cRdudududccRdddudueveVeWbseXbceYe.axeZe0bce1e.e2e3.G.G.G.G#I.G.GbIbI.G.G.G.G.G.G",
"cRdududce4ctctdddce5e6e7e8e9eqf.f#bBfac6fbfcfdfeff.G.G.G.G.G.G#IbIbI.G.G.G.G.G.G",
"cRdudccte4cte4cQfgfhfifjfkfl#.dn#q#.c7#qbFfmfnfofp.G.G.G.G.G.G.G.G.G.G.G.G.G.GbI",
"fqductctctctduevfrfsftdkfuaO#rdofv#rfw#qeefx.G.G.G.GbIbI.G.G.G.G.G.G.G.G.G.G.G.G",
"csctfyctctdcd2fzfAfBfC##fDe0bB#sfE#bflcafFfG.G#I.G.GbIbI.G.G.G.G.G.G.G.G.G.G.G#I",
"fyctfyctddfHfgfIfJfKfL#Ufa#7bBfMfNfOfPfQfRfS.G.G.G.G.G.G.G#I.GbI.G.G#I.G.G.G.G.G",
"fyctctcQfHfTfUfVfWfXfYdDeRbpfZf0f1f2f3.G.G.G.G.G.G.G.G.G.G.G.G.G.G.G.G.G.G.G.G.G",
"fyctcRdJd2f4f5fif6#Wbpdpf7dpbpf8aif9g..G.G.G.G.G.G#I.G.G.GbI.G.G.G#I.G.G.G.G.G.G",
"ctdddJg#gagbgce.gdgec6eq#pgffbggghgigj.G.G#I.G.GbIbI.G.G.G.G.G.G.G.G.G.G.G#I.G.G",
"d2dJfHgkglgm#Wdr.A#4avae#4gngogpgqgrgs.G.G.G.G#IbIbI.G.G.G.G.G.G.G.G.G.G.G.G.G#I",
"d2g#gtgugvgwgx.A#rgyaZe.doeQgzgA.G.G.G.G.G.G.G.G.G.G.G.G.G.G.GbI.G.G.G.G.G.G.G.G",
"gBgCgDgEeTai#V#rae.8gFaegGgFgHgI.G.GbIbI.G.G.G.G.G.G.G.G.G.G.G.G.G.GbIbI.G.G.G.G",
"gJgKgLgMfNgNgOfNgP#pgQgRf.f#gSgT.G.GbIbI.G.G.G.G.G.G.G.G.G.G.G#I.G.GbIbI.G.G.G.G"};
