/* XPM */
static char *dummy[]={
"40 40 648 2",
"hv c #32a67a",
"g7 c #332810",
"g5 c #362a11",
"g8 c #382c13",
"g6 c #392d14",
"g4 c #3a2e14",
"hx c #41300f",
"gh c #4a4425",
"fW c #4b421f",
"gg c #4b4220",
"g9 c #4c3914",
"hU c #4d3a14",
"fO c #4f4621",
"fD c #52441d",
"fn c #524e2f",
"he c #543e13",
"h# c #543e14",
"hq c #553e14",
"hl c #553f14",
"hc c #553f15",
"hg c #563f14",
"hn c #564015",
"gf c #564923",
"hj c #574015",
"hh c #574016",
"ht c #574216",
"hk c #574217",
"hb c #584015",
"hr c #584016",
"hs c #584115",
"ho c #584116",
"ha c #584216",
"hu c #594116",
"hi c #594217",
"hf c #594318",
"hm c #5a4217",
"hp c #5a4418",
"h. c #5b4317",
"hz c #5c4212",
"hC c #5c4313",
"hJ c #5c4414",
"hd c #5c4418",
"eO c #5c5c40",
"hT c #5d4312",
"hO c #5d4413",
"hM c #5d4414",
"hS c #5d4415",
"hE c #5d4515",
"hG c #5e4413",
"hR c #5e4515",
"hy c #5f4412",
"hH c #5f4513",
"hP c #5f4514",
"hN c #604412",
"hL c #604413",
"hI c #604512",
"hD c #604513",
"fa c #605f40",
"hF c #614513",
"hK c #614614",
"hA c #614715",
"hQ c #624513",
"hB c #624514",
"cR c #63654d",
"en c #65664c",
"cG c #676649",
"hw c #67aa97",
"cW c #68684f",
"df c #696950",
"hZ c #6a4f19",
"dA c #6a6a51",
"ia c #6b501a",
"gi c #6b6856",
"hW c #6c5019",
"h9 c #6c511a",
"h6 c #6c511b",
"h3 c #6d5019",
"ie c #6d511b",
"h1 c #6d531c",
"fX c #6d6c57",
"id c #6e5119",
"i. c #6e511a",
"h4 c #6e521a",
"ib c #6e531c",
"fH c #6e5c28",
"fE c #6e6e5c",
"i# c #6f531b",
"if c #705219",
"hV c #70521a",
"h0 c #70531a",
"h8 c #71521a",
"h5 c #71531a",
"ic c #71541a",
"h7 c #71541b",
"hX c #71551c",
"h2 c #72531a",
"hY c #73541b",
"bq c #736e4d",
"eX c #73725d",
"bG c #7b7554",
"by c #7b7758",
"bF c #7d744b",
"eF c #7d7d6a",
"br c #7e7b5e",
"fT c #805900",
"e6 c #835a00",
"bE c #837749",
"fK c #845b09",
"cu c #84836c",
"fI c #85817c",
"b2 c #887b4f",
"bx c #8a7945",
"fd c #8b5d03",
".C c #8c6f2c",
".H c #8d712e",
"fS c #8e5e03",
".K c #8e702c",
".N c #8e702d",
".R c #8e712e",
".t c #8e722e",
".F c #8e722f",
"cK c #8f5b02",
"fp c #8f6a1d",
".x c #8f702c",
".G c #8f712c",
".q c #8f712d",
".O c #8f712e",
".o c #8f722e",
".y c #8f732f",
"fP c #8f8e88",
"cX c #905c03",
".s c #90722e",
".Q c #90732e",
".B c #90732f",
".w c #907330",
"cJ c #915e03",
".L c #91722d",
".J c #91732e",
".v c #91742f",
".A c #917430",
"dT c #925e02",
"eq c #925e03",
"dC c #925e05",
".z c #92732e",
".D c #92742f",
".M c #927530",
"fq c #936205",
".u c #937430",
".E c #937631",
"d0 c #946004",
".I c #947630",
".P c #947631",
".p c #947731",
".r c #947732",
"dI c #956003",
".n c #957832",
"eH c #966104",
"d1 c #976204",
"cI c #976a13",
"bs c #97917a",
"e4 c #989791",
"gk c #9a7b35",
"gj c #9a7c36",
"gq c #9b7b34",
"#t c #9b7c35",
"#d c #9b7d35",
"b3 c #9b998b",
"eP c #9b9a97",
"gn c #9c7c35",
"go c #9c7c36",
"#A c #9c7d34",
"#f c #9c7d35",
"#h c #9c7d36",
"#m c #9c7d37",
"#c c #9c7e37",
"fJ c #9c938f",
"#B c #9d7c35",
"#o c #9d7d35",
"gr c #9d7d36",
"#k c #9d7e37",
"#x c #9d7f37",
"fY c #9d999d",
"e7 c #9e6706",
"fR c #9e7835",
"#w c #9e7d35",
"gu c #9e7d37",
"#j c #9e7e35",
"#q c #9e7e36",
"gt c #9e7e37",
"#r c #9e7f38",
"#C c #9e8038",
"f0 c #9e979c",
"cT c #9f6404",
"fe c #9f6806",
"fL c #9f6b09",
"cn c #9f7f36",
"#y c #9f7f37",
"du c #9f7f38",
"fy c #9f8036",
"#D c #9f8037",
"#p c #9f8038",
"#v c #9f8138",
"#i c #9f8139",
"gv c #a07f37",
"#l c #a08038",
"dm c #a08039",
"#s c #a08137",
"cb c #a08138",
"#n c #a08139",
"dk c #a0813a",
"cm c #a08238",
"#z c #a08239",
"fr c #a16a07",
"ch c #a18036",
"dq c #a18038",
"fv c #a18136",
"cc c #a18137",
"#e c #a18138",
"#g c #a18139",
"dv c #a1813a",
"ft c #a18238",
"cp c #a18239",
"dp c #a1823a",
"cf c #a18339",
"ds c #a1833b",
"dz c #a1833c",
"bp c #a18842",
"cz c #a2690b",
"e0 c #a26b07",
"eI c #a26b08",
"ce c #a28137",
"dx c #a28138",
"dr c #a28139",
"cq c #a28237",
"cj c #a28238",
"#u c #a28239",
"gs c #a2823a",
"cr c #a28339",
"fA c #a28439",
"ck c #a2843a",
"fx c #a38238",
"gl c #a3823a",
"gp c #a3833b",
"eu c #a3833d",
"ca c #a3843a",
"do c #a3843b",
"dw c #a3843c",
"ev c #a3843d",
"cl c #a3853a",
"ci c #a3863a",
"ct c #a3863c",
"bD c #a38841",
"fM c #a46b07",
"eQ c #a48148",
"dy c #a4833b",
"cs c #a48439",
"dt c #a4843a",
"dl c #a4843b",
"eE c #a4843c",
"eD c #a4843d",
"be c #a48539",
"ag c #a4853a",
"fC c #a4853b",
"dn c #a4853c",
"fw c #a4863a",
"cd c #a4863b",
"gm c #a5843b",
"bn c #a5853a",
"eB c #a5853c",
"ew c #a5853d",
"eA c #a5853e",
"#V c #a5863a",
"fu c #a5863b",
"ba c #a5863c",
"aR c #a5863f",
"fz c #a5873b",
"cg c #a5873c",
"fB c #a5883c",
"fo c #a5a0a7",
"fG c #a66d08",
"eZ c #a67721",
"bh c #a68539",
"ex c #a6853d",
"bb c #a68639",
"at c #a6863a",
"ez c #a6863e",
"aS c #a6863f",
"bj c #a6873a",
"b# c #a6873b",
"bf c #a6873c",
"#6 c #a6883b",
"aq c #a6883c",
"#J c #a6883d",
"cF c #a68a40",
"eY c #a6a3a5",
"am c #a7863a",
"eC c #a7863e",
"#0 c #a7873a",
"#H c #a7873b",
"co c #a7873c",
"a3 c #a7873e",
"ey c #a7873f",
"#F c #a7883b",
"af c #a7883c",
"#9 c #a7883d",
"dQ c #a7883e",
"cE c #a7893c",
"#X c #a7893d",
"bd c #a7893e",
"ep c #a87f36",
"#P c #a8873a",
"bc c #a8873b",
"aU c #a8873f",
"a7 c #a88740",
"bl c #a8883a",
"#U c #a8883c",
"a9 c #a8883f",
"aW c #a88840",
"au c #a8893c",
"#M c #a8893d",
"aj c #a8893e",
"a5 c #a88940",
"#Y c #a88a3d",
"aa c #a88a3e",
"#S c #a88a3f",
"dU c #a96b08",
"b8 c #a96e0b",
"#L c #a9883a",
"ac c #a9883b",
"aX c #a9883f",
"b. c #a98840",
"cy c #a9884a",
"a# c #a9893b",
"a1 c #a98940",
"a8 c #a98941",
"bo c #a98a3c",
"#2 c #a98a3d",
"bv c #a98a3e",
"a0 c #a98a41",
"eN c #a98b3d",
"#T c #a98b3e",
"ae c #a98b3f",
"dR c #a98d40",
"#R c #aa883b",
"#5 c #aa893b",
"bg c #aa893d",
"aY c #aa8940",
"a6 c #aa8941",
"bi c #aa8a3c",
"aH c #aa8a3d",
"aT c #aa8a41",
"fV c #aa8b3c",
"fU c #aa8b3d",
"ap c #aa8b3e",
"#1 c #aa8b3f",
"aZ c #aa8b42",
"bC c #aa8c3e",
"#Q c #aa8c3f",
"ad c #aa8c40",
"eM c #aa8d3f",
"cV c #aa8d40",
"eo c #aaa8a8",
"aC c #ab8a3d",
"a2 c #ab8a40",
"aV c #ab8a41",
"#Z c #ab8b3d",
"bw c #ab8b3e",
"a4 c #ab8b42",
"#3 c #ab8c3d",
"bk c #ab8c3e",
"#E c #ab8c3f",
"d9 c #ab8c40",
"aM c #ab8c41",
"ab c #ab8d3f",
"a. c #ab8d40",
"eW c #ab8e3f",
"ak c #ab8e40",
"ai c #ac8b3e",
"#N c #ac8c3e",
"aO c #ac8c3f",
"aA c #ac8c41",
"an c #ac8d3e",
"#4 c #ac8d3f",
"#K c #ac8d40",
"aJ c #ac8d41",
"el c #ac8d42",
"#O c #ac8e40",
"eL c #ac8e41",
"aF c #ac8e42",
"fF c #aca6ad",
"fb c #aca9ad",
"eG c #acaaaa",
"ay c #ad8c3d",
"aK c #ad8c3e",
"#G c #ad8d3e",
"e# c #ad8d3f",
"bm c #ad8e3e",
"#I c #ad8e40",
"eb c #ad8e41",
"ee c #ad8e42",
"al c #ad8f40",
"bu c #ad8f41",
"em c #ad8f43",
"aQ c #ad9042",
"bH c #adad9c",
"aE c #ae8d3e",
"ed c #ae8d3f",
"ar c #ae8e3e",
"#7 c #ae8e3f",
"ao c #ae8e40",
"#W c #ae8e41",
"ek c #ae8e42",
"as c #ae8f40",
"#8 c #ae8f41",
"aD c #ae8f42",
"eh c #ae8f43",
"ax c #ae9043",
"fZ c #aeaab2",
"cY c #af6d08",
"bt c #af8e3f",
"eg c #af8e40",
"aL c #af8e41",
"gL c #af8e43",
"fh c #af8e45",
"aN c #af8f40",
"az c #af8f41",
"c4 c #af8f44",
"bN c #af8f45",
"fg c #af8f46",
"cQ c #af9041",
"ei c #af9043",
"fm c #af9046",
"aB c #af9143",
"ec c #af9144",
"e5 c #afaaab",
"fQ c #afabb3",
"ah c #b09041",
"aP c #b09042",
"da c #b09044",
"fl c #b09045",
"av c #b09143",
"ef c #b09244",
"bK c #b17109",
"d4 c #b1720c",
"gG c #b18e42",
"aG c #b19041",
"aw c #b19042",
"c9 c #b19043",
"b0 c #b19045",
"bZ c #b19046",
"aI c #b19143",
"bM c #b19146",
"fk c #b19147",
"d8 c #b19243",
"ea c #b19244",
"de c #b19347",
"eR c #b2730a",
"gU c #b28f43",
"bP c #b29045",
"e. c #b29142",
"c5 c #b29144",
"bT c #b29145",
"bR c #b29146",
"bU c #b29147",
"ej c #b29244",
"c6 c #b29245",
"bY c #b29247",
"dd c #b29346",
"gW c #b39045",
"c7 c #b39144",
"b1 c #b39145",
"bX c #b39146",
"db c #b39246",
"fj c #b39247",
"fi c #b39248",
"ge c #b39346",
".T c #b39347",
"bS c #b39348",
"e1 c #b4720a",
"d# c #b49244",
"g1 c #b49246",
"bV c #b49247",
".1 c #b49346",
".6 c #b49347",
"bQ c #b49348",
"d. c #b49447",
"dc c #b49448",
"bW c #b49449",
"c3 c #b49547",
"gP c #b59144",
"gx c #b59244",
"gC c #b59245",
"gA c #b59246",
".3 c #b59346",
"bO c #b59347",
".X c #b59446",
".V c #b59447",
".7 c #b59547",
".5 c #b59548",
"c8 c #b59648",
"g3 c #b69245",
"gS c #b69346",
".m c #b69447",
".f c #b69448",
".8 c #b69546",
".Z c #b69547",
".0 c #b69648",
"## c #b69649",
"cx c #b6a174",
"gE c #b79346",
".k c #b79448",
".4 c #b79547",
".g c #b79548",
"f8 c #b79647",
"#a c #b79649",
".S c #b79749",
".Y c #b7974a",
"gJ c #b89447",
".b c #b89548",
".e c #b89549",
".i c #b89648",
".j c #b89649",
"f5 c #b89748",
".d c #b89749",
"#b c #b8974a",
".W c #b8984a",
".2 c #b8984b",
"gN c #b99548",
".h c #b99649",
"ga c #b99748",
".l c #b99749",
".U c #b99849",
"g# c #b9984a",
"#. c #b9994a",
".9 c #b9994b",
"er c #ba760b",
"es c #ba780d",
".c c #ba9749",
".a c #ba974a",
"gb c #ba994a",
"gd c #ba994b",
"f9 c #ba9a4b",
"f4 c #ba9a4c",
"fc c #baa689",
"e8 c #bb770b",
"eT c #bb770c",
"gZ c #bb9748",
"gQ c #bb9849",
"f6 c #bb994a",
"f3 c #bb9b4c",
"f7 c #bb9b4d",
"cw c #bbb197",
"dJ c #bc740a",
"dW c #bc780c",
"g. c #bc9a4b",
"f2 c #bc9b4b",
"f1 c #bc9c4c",
"gc c #bc9c4d",
"d3 c #bd790d",
"g0 c #be9a4a",
".# c #be9a4e",
"Qt c #be9b4f",
"eS c #bf780b",
"gw c #bf9c4b",
"eU c #c0780c",
"dE c #c07b0d",
"gH c #c09a4a",
"gR c #c09c4d",
"dL c #c1790d",
"gK c #c19c4c",
"gY c #c19c4d",
"ff c #c2770b",
"fN c #c2780a",
"gX c #c29d4c",
"gD c #c29d4e",
"eJ c #c37b0d",
"gI c #c39e4f",
"dV c #c47a0c",
"e9 c #c57a0c",
"gV c #c5a050",
"g2 c #c6a150",
"gB c #c7a150",
"gO c #c7a251",
"dh c #c87c0c",
"dM c #c97c0b",
"gy c #c9a454",
"e2 c #ca7d0c",
"dK c #ca7e0e",
"gz c #caa351",
"gM c #caa452",
"dD c #cb7c0c",
"gF c #cba554",
"f. c #cc7f0c",
"gT c #cca654",
"d2 c #cd800d",
"d5 c #cf7e0b",
"b7 c #d0ccc9",
"cZ c #d4830e",
"fs c #d6820b",
"cU c #d6830e",
"b4 c #d7d7d1",
"bL c #d87f05",
"bJ c #d8ccbf",
"di c #da830c",
"e3 c #dc860c",
"dX c #de850b",
"f# c #de880c",
"dS c #e1e1d6",
"bB c #e1e2d9",
"cv c #e2e1dc",
"cL c #e38607",
"dZ c #e3e4de",
"cA c #e48707",
"b9 c #ea8a07",
"cH c #eae9e3",
"bz c #ebebe8",
"eK c #ec8c09",
"bA c #edecf9",
"dB c #eeece4",
"dH c #eeeee4",
"dg c #efede3",
"cS c #f0eee7",
"dN c #f18b09",
"c0 c #f28e09",
"dj c #f48e07",
"dF c #f48f09",
"eV c #f49008",
"d6 c #f78f08",
"bI c #f8f8fa",
"et c #f99107",
"dY c #fa9109",
"cB c #fb9008",
"b6 c #fcfeff",
"dO c #fd9007",
"dG c #fd9108",
"cN c #ff8b09",
"cO c #ff8c0a",
"cM c #ff8d08",
"c2 c #ff8d09",
"cC c #ff8e08",
"dP c #ff8f07",
"cD c #ff8f08",
"cP c #ff9008",
"c1 c #ff9108",
"d7 c #ff9207",
"c. c #ff9209",
"c# c #ff9308",
"b5 c #ffffff",
"Qt.#.a.b.c.d.e.f.g.h.i.j.k.g.h.h.h.g.k.b.l.j.e.m.k.h.i.j.k.g.j.l.j.g.f.b.l.d.e.f",
".n.o.p.q.r.s.t.q.t.u.v.w.x.y.z.A.B.C.D.q.E.v.F.G.H.I.J.B.K.A.L.M.B.N.B.O.P.Q.R.L",
".S.T.U.V.W.X.Y.Z.0.d.1.2.3.Y.4.5.S.6.U.1.W.7.Y.8.0.i.6.9.3#..V###a.5.d.Z#b.V.Y.4",
"#c#d#e#f#g#h#i#j#k#l#m#n#o#p#q#r#p#h#s#t#u#k#v#w#x#y#m#z#A#n#B#p#C#k#D#h#n#h#p#j",
"#E#F#G#H#I#J#K#L#M#N#J#O#P#Q#R#S#T#U#G#V#W#X#K#L#Y#Z#J#O#P#O#0#1#T#2#3#F#4#J#E#5",
"#E#6#7#0#8#9a.a##X#Naaa.#0abacadaeaf#7agah#Ma.a##Yaiajak#0alam#K#T#Man#0ao#X#Q#5",
"ab#6#7#H#I#Xa.ac#Yapaa#O#0aba#ae#Qaqar#Vas#Ma.a##T#Zaj#O#0alat#Eaeau#N#F#4#X#Q#5",
"av#1awaiav#Kaxay#KazaAaBaCaDaEaFaD#1aGaHaIaJaxaK#KaLaMaB#ZavaiaDaD#EaNaOaPaAaQaE",
"aRaSaTaUaVaWaTaXaWaYaWaZaUa0aXa1aTaUa2a3a4aWaTaXa5a6a7aZaUaTaUa8a8aWaYa9aVa9a5b.",
"apb##3at#Eba#Q#0afaCbaadbb#Tbcbdaab##Zbe#Kbf#Q#P#Xbgba#Ebbabbhaabd#Ubibjbkba#Tbl",
"ab#Fbm#0as#9a.#L#XaKbdak#P#Q#R#Qaeaf#Gbnaz#Mak#L#Yai#M#O#0#O#0ab#Tbo#3#Hbpbqbrbs",
"#4#6bt#Hbu#9a.a##Ybkbv#O#P#4a##1#Qaq#7bnaz#Ma.#5#2bwaj#O#0#8am#K#1auaKbxbybzbAbB",
"abb##Gbc#O#9ad#L#Mbwajak#0bC#5ae#1aqaK#V#I#Yad#L#Y#Z#Ma.#0#O#0bDbEbFbGbHbIbJbKbL",
"bMbNbObPbQbRbSbTbUbVbRbWbP.TbXbYbQbZbOb0bQbYbSb1bYbVbMbWb0bSb2b3b4b5b6b7b8b9c.c#",
"cacbatccb#cbcdcecfbn#ncgchcicjckclcm#Vcncocpcdcqcrcs#nct#xcucvcwcxcyczcAcBcCc.cD",
"#Eaf#G#H#I#9#KblcE#N#Jak#PbC#Raeaeaf#Gbn#8#X#Kac#Ybw#9cFcGcHcIcJcKcLc#cCcMcNcOcP",
"abb##7#0#8#9a.a##Y#Naaa.#Paba#ad#1af#7bncQaja.#5#YaiajcFcRcScJcTcUcMcNcCcOcOcOcC",
"#Eb##G#H#O#9cV#L#M#Zaaa.#0#Ea#ae#1aq#G#V#I#McVac#YaH#McFcWcScXcYcZc0c1cNcOcOcOc2",
"c3c4.Zc5.5c6c3c7c6.XbRc8c9d.d#bY.Vda.8c9.5dbdcc7dd.1bMdedfdgcJdhcZdidjc2cMcNcOc2",
"dk#pdldmdn#ndo#edpdldkdndqdodrdsdo#ndtdubadvdwdxdpdydkdzdAdBdCdDcZdEdFdGcMcOcOc2",
"#Eaf#G#F#I#J#K#L#Y#N#J#K#PbCacae#T#U#G#V#W#X#Kac#2bw#JcVdAdHdIdJdKdLdMdNdOdPcDcC",
"#Eb##7#0#8#9a.ac#XaKaaak#Pabac#Qaeaf#7agcQbda.#5#2aidQdRdfdSdTdUdKdVdWdXdFdYdPcC",
"#4#6#7#H#I#9a.ac#Y#Zaaak#0#4a#ae#1af#7#V#8aja.a##2aHdQcFcWdZd0d1d2dVd3d4d5d6d7cC",
"d8d9e.e#eaebecedebaweeef#NaBegeheid9e.bwejekecedebaPelemeneoepeqerdVdVdWesdXetet",
"euevaUewaWexeyexezaUeAa9eBeyeCaSeyewaUeDaWezeyexezeyeAaWeEeFeGeHeIeJdVdLeseseKet",
"abaf#G#H#Iaq#Kac#Y#N#JeL#PeMac#S#1af#Gatao#X#KaceNbw#J#O#0eOePeQcKeReSdVeTeUeUeV",
"#E#F#G#0#8#9a.#L#XaKbdak#PbCac#1aeaf#Gbnaz#XeWac#Yaibd#O#0abeXeYeZe0e1dVdVdVe2e3",
"ab#6#7#0#8#Xa.a##2bkaa#O#P#4ac#Q#Qaf#7bn#8aja.#5#2#Zaj#O#0#8bje4e5e6e7e8e9f.f#f#",
"abb##Gbc#I#X#Q#L#M#Zaja.#0#Q#5ae#1bf#G#V#IaacV#L#Y#Z#Mak#0#K#0fafbfcfdfefff#f#f#",
"fgfh.6b0bSbRfibPbRfjbMbQbPfjbTfkfibZ.6flbSbUbSbTbUfjbZdcb0bQb0fmfnfofpfqfrfsf#e3",
"cdftatccbfcmfucqcfat#zbffvfwfxckclftatfy#9cpfzcqfAbn#nfBfvbfccfCfDfEfFe6e7fGfse3",
"#E#F#G#H#I#9#Kbl#X#N#J#O#PbC#Rae#Taf#Gbn#8#X#4#L#Ybw#9#O#0#Oam#Q#TfHfIfJfKfLfMfN",
"abb##7#0az#9a.a##M#Nbvak#0abac#Qaeaf#7agah#Ma.#5#Yaiaj#O#0alam#K#T#FfOfPfQfRfSfT",
"abb##G#H#I#XeMac#Yapaaak#0#Eacaeaeaq#G#V#I#McVac#2fUajak#0#Oam#E#TaufVfWfXfYfZf0",
"f1c8f2.if3.Wf4f5.Wf6#bf7f8f9.c.2f9##g..gf3g#f4gag#gb.Ygcf8f3.igdf9.df6gegfggghgi",
"gjgkgl#kgmgndvgn#rglgogpgq#n#ldu#g#hdqgogmgrdpgn#rgsgogpgqgsgtdq#lgugv#kdy#h#g#B",
"gwgxgyb1gzgAgBgC.cgDgEgFgGgD.kgHgIgJgKgLgMgNgOgPgQgRgSgTgUgVgWgXgYgZg0g1gBgEg2g3",
"g4g5g6g7g8g9h.h#hahbhchdhehfhghhhihjhkhlhmhnh.hlhohbhchdhehphqhrhihshthghuhch.hq",
"hvhvhwhwhvhxhyhzhAhBhChDhyhEhFhGhHhIhJhKhLhMhNhOhPhQhOhyhyhRhFhGhHhIhShDhFhMhyhT",
"hvhvhwhwhvhUhVhWhXhYhZh0hVh1h2h3h4h5h6h7h8h9h8i.i#hYiahVhVibicidh4h5ieh5h2iaifh4"};
