/* XPM */
static char * 5_xpm[] = {
"40 40 179 2",
"  	c None",
". 	c #565264",
"+ 	c #656273",
"@ 	c #838290",
"# 	c #9494A0",
"$ 	c #8C8B99",
"% 	c #5B5668",
"& 	c #4B4859",
"* 	c #615D6F",
"= 	c #E9E8EA",
"- 	c #F6F8EF",
"; 	c #DCDAE0",
"> 	c #D2D3E2",
", 	c #FBFFF5",
"' 	c #ACACB4",
") 	c #473E52",
"! 	c #3B3348",
"~ 	c #575365",
"{ 	c #5D5A6B",
"] 	c #A6A3AC",
"^ 	c #F9F9F8",
"/ 	c #C0C5D2",
"( 	c #141414",
"_ 	c #191919",
": 	c #131313",
"< 	c #121212",
"[ 	c #D0D2E1",
"} 	c #F9F9F9",
"| 	c #92909C",
"1 	c #494357",
"2 	c #534F62",
"3 	c #555163",
"4 	c #4F4A5E",
"5 	c #5B5869",
"6 	c #5D5969",
"7 	c #918F97",
"8 	c #D6D5D8",
"9 	c #FFFFFF",
"0 	c #FFFEFD",
"a 	c #C9CBCE",
"b 	c #1C1C1C",
"c 	c #202020",
"d 	c #1F1F1F",
"e 	c #0F0F0F",
"f 	c #101010",
"g 	c #1E1E1E",
"h 	c #A5B3DF",
"i 	c #FCFCFE",
"j 	c #FBFBFB",
"k 	c #D8D7DB",
"l 	c #645F71",
"m 	c #545063",
"n 	c #504C5F",
"o 	c #73707E",
"p 	c #DCDCE0",
"q 	c #999BB3",
"r 	c #777EA7",
"s 	c #282828",
"t 	c #1A1A1A",
"u 	c #222222",
"v 	c #161616",
"w 	c #797EA6",
"x 	c #F0F1F5",
"y 	c #C9C7CE",
"z 	c #585465",
"A 	c #4E4A5D",
"B 	c #514D5E",
"C 	c #E3E3E8",
"D 	c #0E0E0E",
"E 	c #1B1B1B",
"F 	c #212121",
"G 	c #CACBDA",
"H 	c #A3A4A0",
"I 	c #494659",
"J 	c #534F60",
"K 	c #E7E7ED",
"L 	c #111111",
"M 	c #0C0C0C",
"N 	c #E1E1E5",
"O 	c #3D3A4F",
"P 	c #545062",
"Q 	c #0D0D0D",
"R 	c #DCDCE1",
"S 	c #3C394E",
"T 	c #E3E3EB",
"U 	c #181818",
"V 	c #D1D0D7",
"W 	c #38354C",
"X 	c #E4E4EB",
"Y 	c #171717",
"Z 	c #1D1D1D",
"` 	c #CFCFD7",
" .	c #312F48",
"..	c #E6E5EC",
"+.	c #282641",
"@.	c #D8D7DF",
"#.	c #C5C6CD",
"$.	c #272641",
"%.	c #DFDEE2",
"&.	c #151515",
"*.	c #888694",
"=.	c #24223E",
"-.	c #A8A9A9",
";.	c #797F8A",
">.	c #4F4B5D",
",.	c #1D1C37",
"'.	c #474453",
").	c #6E6C79",
"!.	c #AAACAC",
"~.	c #090909",
"{.	c #797C77",
"].	c #22203C",
"^.	c #0A0A14",
"/.	c #474252",
"(.	c #97979A",
"_.	c #7B8285",
":.	c #36344A",
"<.	c #17162D",
"[.	c #272634",
"}.	c #615F6E",
"|.	c #A4A6A5",
"1.	c #080808",
"2.	c #959886",
"3.	c #1F1E3A",
"4.	c #919196",
"5.	c #AAAEAE",
"6.	c #0A0A0A",
"7.	c #818884",
"8.	c #2A2842",
"9.	c #0C0B16",
"0.	c #464356",
"a.	c #A9ACA9",
"b.	c #8C94AF",
"c.	c #232323",
"d.	c #525060",
"e.	c #1A1932",
"f.	c #000000",
"g.	c #181626",
"h.	c #32314A",
"i.	c #A2A6A1",
"j.	c #666671",
"k.	c #090912",
"l.	c #5F5D6A",
"m.	c #A6ABA6",
"n.	c #0B0B0B",
"o.	c #6A6973",
"p.	c #292843",
"q.	c #030203",
"r.	c #121122",
"s.	c #7D7E83",
"t.	c #909599",
"u.	c #6F6E77",
"v.	c #2B2944",
"w.	c #06060C",
"x.	c #1C1B2F",
"y.	c #88888D",
"z.	c #AFB3AD",
"A.	c #76777D",
"B.	c #2D2B45",
"C.	c #06060B",
"D.	c #1A192D",
"E.	c #5A5868",
"F.	c #999C9A",
"G.	c #AEB2AC",
"H.	c #999E9B",
"I.	c #A3A8A3",
"J.	c #898A8E",
"K.	c #676671",
"L.	c #272540",
"M.	c #030305",
"N.	c #020204",
"O.	c #0F0E1B",
"P.	c #1B1B32",
"Q.	c #585766",
"R.	c #666571",
"S.	c #484559",
"T.	c #211F38",
"U.	c #020102",
"V.	c #010102",
"                                                                                ",
"                                                                                ",
"                                                                                ",
"                                                                                ",
"                                                                                ",
"                                                                                ",
"                                                                                ",
"                                                                                ",
"                                . . + @ # $ % &                                 ",
"                              . * = - ; > , ' ) !                               ",
"                      . . ~ { ] ^ / ( _ : < [ } | 1 2 3 . 4                     ",
"                  5 6 7 8 9 0 a : b c d _ e f g h i j k l m n                   ",
"                3 o p q r s : t d u c c v e e e e < v w x y z A                 ",
"                B C : e D E d u u u u F v D D D e e e e d G H I                 ",
"                J K e L E u u u u u u u < D D e e e e D M e N O                 ",
"                P K D ( t g c u u u u u f D D D e D D D D Q R S                 ",
"                3 T e U t b g u u u u u L D D D D D D D e Q V W                 ",
"                . X e _ t Y Z d F u u u e D D D D D D D D Q `  .                ",
"                . ..e Y _ U _ g d F F u e D D D e Q D D D M ` +.                ",
"                3 @.e : _ _ v b Z d F u f D D D e e D D D M #.$.                ",
"                P %.e e _ _ Y &._ g d u f D D D e f e D D Q *.=.                ",
"                J -.u D v _ _ v v b g g f D D e L < < e e ;.>.,.                ",
"                '.).!.e < U _ U v v b g f D e < L < L e ~.{.].^.                ",
"                  /.(.s D &.Y _ v U U Z f D < < < < D Q _.:.<.                  ",
"                  [.}.|.t L &._ _ _ _ E : < < < < e Q 1.2.3.                    ",
"                      4.5.6.f v _ _ E E < < < < e M ~.7.8.9.                    ",
"                      0.a.b.M f U E E E < < < e M M c.d.e.f.                    ",
"                      g.h.i.v e L t E E < < f M Q b j.].f.                      ",
"                        k.l.m.6.f < t E < e M n.F o.p.q.                        ",
"                          r.s.t.D L L U Q M M b u.v.w.                          ",
"                          f.x.y.z.F D 6.Q n.F A.B.C.                            ",
"                            f.D.E.F.G.H.I.J.K.L.M.                              ",
"                              N.O.P.$.Q.R.S.T.U.                                ",
"                                  f.V.N.N.U.f.                                  ",
"                                                                                ",
"                                                                                ",
"                                                                                ",
"                                                                                ",
"                                                                                ",
"                                                                                "};
