/* XPM */
static char * 6_xpm[] = {
"40 40 337 2",
"  	c None",
". 	c #645262",
"+ 	c #736271",
"@ 	c #908290",
"# 	c #9F94A0",
"$ 	c #998B99",
"% 	c #685665",
"& 	c #594857",
"* 	c #6F5D6D",
"= 	c #EAE8E9",
"- 	c #EFF8F0",
"; 	c #E0DADF",
"> 	c #E0D2E2",
", 	c #F5FFF8",
"' 	c #B3ACB4",
") 	c #523E4B",
"! 	c #483342",
"~ 	c #655363",
"{ 	c #6B5A69",
"] 	c #ACA3AA",
"^ 	c #F8F9F8",
"/ 	c #CCC0D2",
"( 	c #6A138C",
"_ 	c #7B14AC",
": 	c #661287",
"< 	c #5C1A6F",
"[ 	c #DED0E1",
"} 	c #F9F9F9",
"| 	c #9C909B",
"1 	c #574353",
"2 	c #624F60",
"3 	c #635161",
"4 	c #5E4A5B",
"5 	c #695867",
"6 	c #695966",
"7 	c #978F96",
"8 	c #D8D5D7",
"9 	c #FFFFFF",
"0 	c #FEFFFD",
"a 	c #CCC9CE",
"b 	c #671486",
"c 	c #8517BA",
"d 	c #951BD2",
"e 	c #911ACD",
"f 	c #5B1171",
"g 	c #5A146E",
"h 	c #6E3680",
"i 	c #CCA5DF",
"j 	c #FEFCFE",
"k 	c #FBFBFB",
"l 	c #DBD7DA",
"m 	c #715F6E",
"n 	c #635061",
"o 	c #5F4C5D",
"p 	c #7E707C",
"q 	c #E0DCE0",
"r 	c #AF99B3",
"s 	c #9C77A7",
"t 	c #835094",
"u 	c #631481",
"v 	c #8316B5",
"w 	c #8D1AC9",
"x 	c #961CD7",
"y 	c #931BD0",
"z 	c #901BCF",
"A 	c #73139B",
"B 	c #5A116E",
"C 	c #5C1071",
"D 	c #5C1072",
"E 	c #5A126E",
"F 	c #5B196E",
"G 	c #60286C",
"H 	c #9D79A6",
"I 	c #F4F0F5",
"J 	c #CEC7CD",
"K 	c #655462",
"L 	c #5D4A5B",
"M 	c #5E4D5B",
"N 	c #E8E3E8",
"O 	c #621A79",
"P 	c #580C72",
"Q 	c #550A70",
"R 	c #8217B5",
"S 	c #901ACC",
"T 	c #991CDB",
"U 	c #981DDB",
"V 	c #9B1DDE",
"W 	c #951BD4",
"X 	c #6E1395",
"Y 	c #571169",
"Z 	c #5A106E",
"` 	c #571468",
" .	c #51165E",
"..	c #723F7C",
"+.	c #D8CADA",
"@.	c #A0A4A1",
"#.	c #594658",
"$.	c #604F5D",
"%.	c #EDE7ED",
"&.	c #5E0E7D",
"*.	c #7E1BAB",
"=.	c #981CDA",
"-.	c #9A1DDD",
";.	c #981CD9",
">.	c #641280",
",.	c #57116B",
"'.	c #5B0F70",
").	c #511060",
"!.	c #52175E",
"~.	c #E5E1E5",
"{.	c #4F3A4E",
"].	c #625060",
"^.	c #560B71",
"/.	c #68138B",
"(.	c #7D1BA9",
"_.	c #8B1AC2",
":.	c #931BD1",
"<.	c #991DDC",
"[.	c #961CD8",
"}.	c #5B1272",
"|.	c #561168",
"1.	c #5B0E71",
"2.	c #511061",
"3.	c #E1DCE1",
"4.	c #4E394D",
"5.	c #EAE3EB",
"6.	c #76189F",
"7.	c #801BAF",
"8.	c #8B19C3",
"9.	c #5F1279",
"0.	c #5A0E70",
"a.	c #5C0F72",
"b.	c #521062",
"c.	c #D7D0D7",
"d.	c #4C354B",
"e.	c #EAE4EB",
"f.	c #580D73",
"g.	c #7819A2",
"h.	c #741899",
"i.	c #8A19C2",
"j.	c #8E1ACA",
"k.	c #941BD6",
"l.	c #5C1173",
"m.	c #D6CFD7",
"n.	c #482F48",
"o.	c #ECE5EC",
"p.	c #590C75",
"q.	c #701797",
"r.	c #781AA1",
"s.	c #74199B",
"t.	c #7818A1",
"u.	c #881AC1",
"v.	c #8E1ACB",
"w.	c #931BD2",
"x.	c #961BD6",
"y.	c #57116A",
"z.	c #590C6F",
"A.	c #412641",
"B.	c #DFD7DF",
"C.	c #570B73",
"D.	c #651286",
"E.	c #75199D",
"F.	c #711796",
"G.	c #811AB2",
"H.	c #8E1AC8",
"I.	c #5C1273",
"J.	c #58116C",
"K.	c #5D0F75",
"L.	c #4F105D",
"M.	c #CBC5CD",
"N.	c #402641",
"O.	c #E2DEE1",
"P.	c #590D75",
"Q.	c #5B0D77",
"R.	c #7B1AA4",
"S.	c #721897",
"T.	c #6B168D",
"U.	c #7918A5",
"V.	c #8C19C5",
"W.	c #8F1ACC",
"X.	c #58106B",
"Y.	c #5E1077",
"Z.	c #5C0E76",
"`.	c #49105B",
" +	c #948693",
".+	c #3E223E",
"++	c #A8A8A9",
"@+	c #793D8F",
"#+	c #560B72",
"$+	c #701694",
"%+	c #711794",
"&+	c #8D19C7",
"*+	c #551168",
"=+	c #59106D",
"-+	c #5B0F71",
";+	c #62127D",
">+	c #651381",
",+	c #5C0E75",
"'+	c #5B0E72",
")+	c #83798A",
"!+	c #5D4B5B",
"~+	c #361C37",
"{+	c #534451",
"]+	c #796C78",
"^+	c #AAAAAC",
"/+	c #5A0D76",
"(+	c #631180",
"_+	c #75199C",
":+	c #8719BC",
"<+	c #5D1274",
"[+	c #64137F",
"}+	c #63127E",
"|+	c #600D7C",
"1+	c #43035A",
"2+	c #777C7A",
"3+	c #3C203C",
"4+	c #130A14",
"5+	c #52424E",
"6+	c #9A979A",
"7+	c #7E4E90",
"8+	c #6D158E",
"9+	c #721798",
"0+	c #711795",
"a+	c #73189A",
"b+	c #8C19C3",
"c+	c #5E1275",
"d+	c #5A0C71",
"e+	c #580A70",
"f+	c #7D7B85",
"g+	c #4A344A",
"h+	c #2C162D",
"i+	c #342634",
"j+	c #6E5F6D",
"k+	c #A4A5A6",
"l+	c #6F2888",
"m+	c #63107F",
"n+	c #6C158F",
"o+	c #7919A2",
"p+	c #811AB0",
"q+	c #671484",
"r+	c #651382",
"s+	c #641380",
"t+	c #5B0D73",
"u+	c #570A6E",
"v+	c #4B025E",
"w+	c #869888",
"x+	c #391E3A",
"y+	c #969196",
"z+	c #AAAAAE",
"A+	c #500665",
"B+	c #600F7C",
"C+	c #701695",
"D+	c #76199E",
"E+	c #7A19A3",
"F+	c #811AB1",
"G+	c #661383",
"H+	c #56096C",
"I+	c #4E0463",
"J+	c #818688",
"K+	c #422842",
"L+	c #160B16",
"M+	c #564355",
"N+	c #A9ACAC",
"O+	c #A48CAF",
"P+	c #550A6C",
"Q+	c #610F7D",
"R+	c #72179B",
"S+	c #5E0F78",
"T+	c #55096B",
"U+	c #54086A",
"V+	c #694A71",
"W+	c #60505F",
"X+	c #311932",
"Y+	c #000000",
"Z+	c #261625",
"`+	c #49314A",
" @	c #A1A6A5",
".@	c #632375",
"+@	c #5C0E74",
"@@	c #62107F",
"#@	c #7D19AB",
"$@	c #5F0F79",
"%@	c #560A6C",
"&@	c #540A6C",
"*@	c #613B69",
"=@	c #706671",
"-@	c #110912",
";@	c #6A5D69",
">@	c #A6ABAB",
",@	c #651183",
"'@	c #570A6D",
")@	c #510767",
"!@	c #664273",
"~@	c #736973",
"{@	c #422843",
"]@	c #030202",
"^@	c #221122",
"/@	c #827D83",
"(@	c #939099",
"_@	c #540F68",
":@	c #62117D",
"<@	c #641081",
"[@	c #73179B",
"}@	c #663375",
"|@	c #776E77",
"1@	c #442944",
"2@	c #0C060C",
"3@	c #2E1B2F",
"4@	c #8D888D",
"5@	c #ADB3B1",
"6@	c #743C87",
"7@	c #560B6F",
"8@	c #4E0563",
"9@	c #570A6F",
"0@	c #694177",
"a@	c #7B767D",
"b@	c #452B45",
"c@	c #0B060B",
"d@	c #2C192D",
"e@	c #685867",
"f@	c #999B9C",
"g@	c #ACB2B0",
"h@	c #999C9E",
"i@	c #A3A8A8",
"j@	c #8D898E",
"k@	c #716671",
"l@	c #402540",
"m@	c #050305",
"n@	c #040204",
"o@	c #1B0E1B",
"p@	c #301B32",
"q@	c #665766",
"r@	c #716571",
"s@	c #594558",
"t@	c #381F38",
"u@	c #020101",
"v@	c #020102",
"                                                                                ",
"                                                                                ",
"                                                                                ",
"                                                                                ",
"                                                                                ",
"                                                                                ",
"                                                                                ",
"                                                                                ",
"                                . . + @ # $ % &                                 ",
"                              . * = - ; > , ' ) !                               ",
"                      . . ~ { ] ^ / ( _ : < [ } | 1 2 3 . 4                     ",
"                  5 6 7 8 9 0 a b c d e _ f g h i j k l m n o                   ",
"                3 p q r s t u v w x y z A B C D E F G H I J K L                 ",
"                M N O P Q R S x T U V W X Y Y Z C C `  ...+.@.#.                ",
"                $.%.P &.*.=.-.;.V V V x >.Y Y ,.C C C '.).!.~.{.                ",
"                ].%.^./.(._.:.<.V V V [.}.Y Y |.,.1.1.1.1.2.3.4.                ",
"                3 5.P 6.(.7.8.[.T -.V [.9.Y Y Y Y 0.1.1.a.b.c.d.                ",
"                . e.f.g.(.h.i.j.k.V V [.l.Y Y |.Y 0.1.1.1.b.m.n.                ",
"                . o.p.q.r.s.t.u.v.w.x.x f Y Y Y y.z.1.1.1.).m.A.                ",
"                3 B.C.D.r.E.F.G.i.H.w.x I.Y Y Y J.K.1.1.1.L.M.N.                ",
"                ].O.P.Q.R.E.S.T.U.V.W.x I.|.Y X.a.Y.Z.1.1.`. +.+                ",
"                $.++@+#+$+E.E.F.%+G.&+&+I.*+=+-+;+>+>+,+'+)+!+~+                ",
"                {+]+^+/+(+_+E.s.%+%+:+&+<+*+,.[+}+>+}+|+1+2+3+4+                ",
"                  5+6+7+Q 8+9+E.0+a+a+b+c+Y >+>+>+>+d+e+f+g+h+                  ",
"                  i+j+k+l+m+n+E.E.E.o+p+q+>+r+>+s+t+u+v+w+x+                    ",
"                      y+z+A+B+C+D+E+F+F+G+>+r+s+Z.H+I+J+K+L+                    ",
"                      M+N+O+P+Q+R+F+F+F+r+>+>+S+T+U+V+W+X+Y+                    ",
"                      Z+`+ @.@+@@@#@F+p+r+>+$@%@&@*@=@3+Y+                      ",
"                        -@;@>@A+B+,@#@p+>+Z.'@)@!@~@{@]@                        ",
"                          ^@/@(@_@:@<@[@u+%@T+}@|@1@2@                          ",
"                          Y+3@4@5@6@7@8@9@)@0@a@b@c@                            ",
"                            Y+d@e@f@g@h@i@j@k@l@m@                              ",
"                              n@o@p@N.q@r@s@t@u@                                ",
"                                  Y+v@n@n@u@Y+                                  ",
"                                                                                ",
"                                                                                ",
"                                                                                ",
"                                                                                ",
"                                                                                ",
"                                                                                "};
