/* XPM */
static char * 7_xpm[] = {
"40 40 332 2",
"  	c None",
". 	c #515E69",
"+ 	c #626F78",
"@ 	c #829095",
"# 	c #94A0A3",
"$ 	c #8B999E",
"% 	c #55606D",
"& 	c #48555E",
"* 	c #5C6974",
"= 	c #E8E9EB",
"- 	c #F9F3ED",
"; 	c #D9DCE1",
"> 	c #D1E4E7",
", 	c #FFFAF3",
"' 	c #ACB4B7",
") 	c #3D4658",
"! 	c #323C4E",
"~ 	c #525F6A",
"{ 	c #5A6770",
"] 	c #A3A8AF",
"^ 	c #FAF8F8",
"/ 	c #BFD7D6",
"( 	c #0AA5AB",
"_ 	c #07D2D1",
": 	c #0A9FA5",
"< 	c #157C86",
"[ 	c #CFE2E5",
"} 	c #F9F9F9",
"| 	c #9099A0",
"1 	c #414E5C",
"2 	c #4E5C67",
"3 	c #505D68",
"4 	c #495764",
"5 	c #58656E",
"6 	c #58636D",
"7 	c #8F9599",
"8 	c #D5D7D9",
"9 	c #FFFFFF",
"0 	c #FFFCFC",
"a 	c #C9D0CF",
"b 	c #0C9EA4",
"c 	c #09E2E1",
"d 	c #0CFFFB",
"e 	c #0BF9F5",
"f 	c #0A7F8A",
"g 	c #0F7B86",
"h 	c #318C93",
"i 	c #A1EEEE",
"j 	c #FCFEFE",
"k 	c #FBFBFB",
"l 	c #D7DADD",
"m 	c #5E6976",
"n 	c #4F5D68",
"o 	c #4B5964",
"p 	c #6F7A82",
"q 	c #DCE0E1",
"r 	c #97B5BA",
"s 	c #74AEB4",
"t 	c #4BA0A6",
"u 	c #0C979D",
"v 	c #09DDDC",
"w 	c #0BF3ED",
"x 	c #0BFFF7",
"y 	c #0CFCF7",
"z 	c #0BFBF3",
"A 	c #08BABD",
"B 	c #0C7987",
"C 	c #0A7F8B",
"D 	c #0A808C",
"E 	c #0C7A87",
"F 	c #147B85",
"G 	c #24727F",
"H 	c #76ABB2",
"I 	c #EFF6F6",
"J 	c #C7CCD0",
"K 	c #535F69",
"L 	c #495762",
"M 	c #4C5862",
"N 	c #E3E8EA",
"O 	c #148992",
"P 	c #04848C",
"Q 	c #03848B",
"R 	c #0ADCDB",
"S 	c #0BF8F3",
"T 	c #0BFFF6",
"U 	c #0CFFF4",
"V 	c #0DFFF4",
"W 	c #0BFFF9",
"X 	c #09B2B5",
"Y 	c #0C7481",
"Z 	c #0B7B88",
"` 	c #0F727F",
" .	c #126572",
"..	c #3C828E",
"+.	c #C9DCDF",
"@.	c #A4A19F",
"#.	c #45545E",
"$.	c #4E5A64",
"%.	c #E7EDEF",
"&.	c #069499",
"*.	c #10CECF",
"=.	c #0B949D",
"-.	c #0B7783",
";.	c #097E8A",
">.	c #0C6876",
",.	c #136472",
"'.	c #E1E5E6",
").	c #394A55",
"!.	c #4F5C67",
"~.	c #04858C",
"{.	c #0AA5A9",
"].	c #10CCCD",
"^.	c #0CEBE9",
"/.	c #0BFDF6",
"(.	c #0CFFF6",
"_.	c #0C828C",
":.	c #0C727F",
"<.	c #087E8B",
"[.	c #0B6A77",
"}.	c #DCE1E3",
"|.	c #384954",
"1.	c #E3EBEE",
"2.	c #0EBFC1",
"3.	c #0FD4D4",
"4.	c #0AECE9",
"5.	c #0B8B94",
"6.	c #087E8A",
"7.	c #097F8C",
"8.	c #0C6B79",
"9.	c #CFD5D9",
"0.	c #344853",
"a.	c #E4ECEE",
"b.	c #06878E",
"c.	c #0EC4C5",
"d.	c #0FB4BA",
"e.	c #0BECE9",
"f.	c #0BF5F0",
"g.	c #0B838E",
"h.	c #CFD7DA",
"i.	c #2E444F",
"j.	c #E4EAEE",
"k.	c #048890",
"l.	c #0CB5B7",
"m.	c #10C1C3",
"n.	c #0FB8BB",
"o.	c #0DC1C3",
"p.	c #0BE9E4",
"q.	c #0AF6F0",
"r.	c #0AFEF7",
"s.	c #0BFFF8",
"t.	c #0B7581",
"u.	c #067C89",
"v.	c #253E49",
"w.	c #D6DCE1",
"x.	c #03868D",
"y.	c #0A9EA4",
"z.	c #0EBCBE",
"A.	c #0EB2B7",
"B.	c #0DD8D7",
"C.	c #0BF3EE",
"D.	c #0C838D",
"E.	c #0B7884",
"F.	c #08848F",
"G.	c #0C6472",
"H.	c #C5CECF",
"I.	c #254049",
"J.	c #DEE1E4",
"K.	c #05888F",
"L.	c #058A92",
"M.	c #0FC3C6",
"N.	c #0FB3B8",
"O.	c #0DA7AC",
"P.	c #0DC8C9",
"Q.	c #0BF0EC",
"R.	c #0AF7F1",
"S.	c #0B7784",
"T.	c #098792",
"U.	c #078992",
"V.	c #0B686F",
"W.	c #859198",
"X.	c #213B47",
"Y.	c #A8AAA8",
"Z.	c #379FA4",
"`.	c #04868D",
" +	c #0DAFB4",
".+	c #0EAEB4",
"++	c #0AF1EE",
"@+	c #0C7580",
"#+	c #0B7886",
"$+	c #097F8B",
"%+	c #0B9099",
"&+	c #0C959E",
"*+	c #078590",
"=+	c #07818C",
"-+	c #778E8B",
";+	c #4A5762",
">+	c #1B363F",
",+	c #434E57",
"'+	c #6B757C",
")+	c #AAACAA",
"!+	c #058991",
"~+	c #09959D",
"{+	c #0FB9BD",
"]+	c #0BE4E3",
"^+	c #0C848F",
"/+	c #0C929C",
"(+	c #0B919B",
"_+	c #069099",
":+	c #006870",
"<+	c #7D7C76",
"[+	c #1F3945",
"}+	c #091417",
"|+	c #414B56",
"1+	c #979A9B",
"2+	c #499DA0",
"3+	c #0CA5AD",
"4+	c #0DB5B9",
"5+	c #0EB0B5",
"6+	c #0EB7BA",
"7+	c #0BEDEC",
"8+	c #0B848F",
"9+	c #05808C",
"0+	c #037F8A",
"a+	c #798680",
"b+	c #334750",
"c+	c #162C34",
"d+	c #263439",
"e+	c #5E6A72",
"f+	c #A3A6A3",
"g+	c #229AA2",
"h+	c #09939C",
"i+	c #0CA9AE",
"j+	c #0EC2C4",
"k+	c #0ED5D5",
"l+	c #0C99A1",
"m+	c #0B979F",
"n+	c #0B949C",
"o+	c #06828D",
"p+	c #037D88",
"q+	c #006878",
"r+	c #998B81",
"s+	c #1D3842",
"t+	c #919698",
"u+	c #AAAFAB",
"v+	c #00727E",
"w+	c #079098",
"x+	c #0DB1B6",
"y+	c #0EBDBF",
"z+	c #0EC2C5",
"A+	c #0ED7D7",
"B+	c #0B98A0",
"C+	c #037986",
"D+	c #006E7C",
"E+	c #838980",
"F+	c #273F4A",
"G+	c #0B1519",
"H+	c #42515B",
"I+	c #ACADA9",
"J+	c #8AB7B8",
"K+	c #047C87",
"L+	c #08919A",
"M+	c #0DBABC",
"N+	c #098A94",
"O+	c #037985",
"P+	c #027884",
"Q+	c #48757B",
"R+	c #4F5D65",
"S+	c #183039",
"T+	c #000000",
"U+	c #15232B",
"V+	c #304851",
"W+	c #A6A6A0",
"X+	c #1E818B",
"Y+	c #07838E",
"Z+	c #08949C",
"`+	c #0DCFCF",
" @	c #078A94",
".@	c #047A86",
"+@	c #037D86",
"@@	c #396D76",
"#@	c #657174",
"$@	c #081114",
"%@	c #5C666D",
"&@	c #ABACA6",
"*@	c #0999A1",
"=@	c #047A87",
"-@	c #007580",
";@	c #3F7D80",
">@	c #697276",
",@	c #27424B",
"'@	c #020203",
")@	c #102127",
"!@	c #7C8484",
"~@	c #8F9B97",
"{@	c #0A7580",
"]@	c #0A909A",
"^@	c #08969E",
"/@	c #0CBABC",
"(@	c #2F7F86",
"_@	c #6D7479",
":@	c #28414C",
"<@	c #060C0E",
"[@	c #1A2D35",
"}@	c #888D8F",
"|@	c #B3B2AB",
"1@	c #36959A",
"2@	c #048189",
"3@	c #006F7C",
"4@	c #04808A",
"5@	c #3D8084",
"6@	c #767E7F",
"7@	c #2A424D",
"8@	c #060B0D",
"9@	c #182B33",
"0@	c #57656D",
"a@	c #9B9D99",
"b@	c #B2B1AA",
"c@	c #9B9E98",
"d@	c #A8A9A3",
"e@	c #888F8F",
"f@	c #667074",
"g@	c #243D48",
"h@	c #030505",
"i@	c #020404",
"j@	c #0E1A1F",
"k@	c #1A3239",
"l@	c #56646A",
"m@	c #657075",
"n@	c #44545E",
"o@	c #1E343F",
"p@	c #010102",
"q@	c #010202",
"                                                                                ",
"                                                                                ",
"                                                                                ",
"                                                                                ",
"                                                                                ",
"                                                                                ",
"                                                                                ",
"                                                                                ",
"                                . . + @ # $ % &                                 ",
"                              . * = - ; > , ' ) !                               ",
"                      . . ~ { ] ^ / ( _ : < [ } | 1 2 3 . 4                     ",
"                  5 6 7 8 9 0 a b c d e _ f g h i j k l m n o                   ",
"                3 p q r s t u v w x y z A B C D E F G H I J K L                 ",
"                M N O P Q R S x T U V W X Y Y Z C C `  ...+.@.#.                ",
"                $.%.P &.*.T U x V V V x =.Y Y -.C C C ;.>.,.'.).                ",
"                !.%.~.{.].^./.U V V V (._.Y Y :.-.<.<.<.<.[.}.|.                ",
"                3 1.P 2.].3.4.(.T U V (.5.Y Y Y Y 6.<.<.7.8.9.0.                ",
"                . a.b.c.].d.e.f.T V V (.g.Y Y :.Y 6.<.<.<.8.h.i.                ",
"                . j.k.l.m.n.o.p.q.r.s.x f Y Y Y t.u.<.<.<.>.h.v.                ",
"                3 w.x.y.m.z.A.B.e.C.r.x D.Y Y Y E.F.<.<.<.G.H.I.                ",
"                !.J.K.L.M.z.N.O.P.Q.R.x D.:.Y S.7.T.U.<.<.V.W.X.                ",
"                $.Y.Z.`. +z.z.A..+B.++++D.@+#+$+%+&+&+*+=+-+;+>+                ",
"                ,+'+)+!+~+{+z.n..+.+]+++^+@+-./+(+&+(+_+:+<+[+}+                ",
"                  |+1+2+Q 3+4+z.5+6+6+7+8+Y &+&+&+&+9+0+a+b+c+                  ",
"                  d+e+f+g+h+i+z.z.z.j+k+l+&+m+&+n+o+p+q+r+s+                    ",
"                      t+u+v+w+x+y+z+A+A+B+&+m+n+U.C+D+E+F+G+                    ",
"                      H+I+J+K+L+M+A+A+A+m+&+&+N+O+P+Q+R+S+T+                    ",
"                      U+V+W+X+Y+Z+`+A+k+m+&+ @.@+@@@#@[+T+                      ",
"                        $@%@&@v+w+*@`+k+&+U.=@-@;@>@,@'@                        ",
"                          )@!@~@{@]@^@/@p+.@O+(@_@:@<@                          ",
"                          T+[@}@|@1@2@3@4@-@5@6@7@8@                            ",
"                            T+9@0@a@b@c@d@e@f@g@h@                              ",
"                              i@j@k@I.l@m@n@o@p@                                ",
"                                  T+q@i@i@p@T+                                  ",
"                                                                                ",
"                                                                                ",
"                                                                                ",
"                                                                                ",
"                                                                                ",
"                                                                                "};
