/* XPM */
static char * 8_xpm[] = {
"40 40 322 2",
"  	c None",
". 	c #6C505A",
"+ 	c #7C616C",
"@ 	c #98828E",
"# 	c #A6939E",
"$ 	c #A18B97",
"% 	c #71545D",
"& 	c #624752",
"* 	c #775B65",
"= 	c #EBE8E8",
"- 	c #EBF9F4",
"; 	c #E3D9DC",
"> 	c #EAD1E1",
", 	c #F1FFFB",
"' 	c #B9ACB4",
") 	c #5C3C41",
"! 	c #523137",
"~ 	c #6D515B",
"{ 	c #745964",
"] 	c #B1A3A6",
"^ 	c #F8FAF9",
"/ 	c #DABED6",
"( 	c #C20499",
"_ 	c #ED00C1",
": 	c #BB0493",
"< 	c #971172",
"[ 	c #E9CEE1",
"} 	c #F9F9F9",
"| 	c #A39098",
"1 	c #604049",
"2 	c #6B4D58",
"3 	c #6B4F59",
"4 	c #684954",
"5 	c #725762",
"6 	c #705760",
"7 	c #9B8E92",
"8 	c #DAD5D6",
"9 	c #FFFFFF",
"0 	c #FCFFFC",
"a 	c #D1C9D1",
"b 	c #B90691",
"c 	c #FF00D2",
"d 	c #FF01DD",
"e 	c #FF00DC",
"f 	c #9D0674",
"g 	c #980B71",
"h 	c #A22D84",
"i 	c #F89DE8",
"j 	c #FFFCFE",
"k 	c #FBFBFB",
"l 	c #DED7D9",
"m 	c #7A5D66",
"n 	c #6C4E59",
"o 	c #684A55",
"p 	c #856F77",
"q 	c #E2DCE0",
"r 	c #BF96B1",
"s 	c #BD72A9",
"t 	c #B24897",
"u 	c #B2078C",
"v 	c #FA00CC",
"w 	c #FF00DB",
"x 	c #FF00E1",
"y 	c #FF00DE",
"z 	c #FF00E0",
"A 	c #D601AA",
"B 	c #99076F",
"C 	c #9E0673",
"D 	c #9F0575",
"E 	c #990870",
"F 	c #961071",
"G 	c #8C2269",
"H 	c #BB74A5",
"I 	c #F7EFF6",
"J 	c #D1C6C9",
"K 	c #6D525C",
"L 	c #664853",
"M 	c #664B55",
"N 	c #EBE3E8",
"O 	c #A40F7E",
"P 	c #9F0078",
"Q 	c #9E0078",
"R 	c #F800CD",
"S 	c #FF00E2",
"T 	c #FF00E5",
"U 	c #FF00DF",
"V 	c #CD01A4",
"W 	c #920869",
"X 	c #9A076F",
"Y 	c #8F0B68",
"Z 	c #800F5C",
"` 	c #9A3A7A",
" .	c #E2C9D9",
"..	c #9EA4A2",
"+.	c #624450",
"@.	c #684D57",
"#.	c #F1E7ED",
"$.	c #AE0088",
"%.	c #E907BF",
"&.	c #B20588",
"*.	c #94076C",
"=.	c #9D0572",
"-.	c #87095F",
";.	c #80115B",
">.	c #E7E1E5",
",.	c #593846",
"'.	c #6A4E58",
").	c #9F007A",
"!.	c #BF0398",
"~.	c #E708BC",
"{.	c #FF01D6",
"].	c #FF00E3",
"^.	c #9E0777",
"/.	c #900868",
"(.	c #9F0374",
"_.	c #870860",
":.	c #E4DCE1",
"<.	c #583745",
"[.	c #F0E3EB",
"}.	c #DA06B1",
"|.	c #EE06C4",
"1.	c #FF00D6",
"2.	c #A80680",
"3.	c #9D0373",
"4.	c #A00475",
"5.	c #890861",
"6.	c #DACFD3",
"7.	c #573343",
"8.	c #EFE4EA",
"9.	c #A1017C",
"0.	c #DE07B4",
"a.	c #D208A7",
"b.	c #FF01D7",
"c.	c #A10778",
"d.	c #DCCFD7",
"e.	c #542D41",
"f.	c #EFE4E8",
"g.	c #A3007B",
"h.	c #CE05A6",
"i.	c #DC08B3",
"j.	c #D307AA",
"k.	c #DC05B1",
"l.	c #FF01D8",
"m.	c #93076C",
"n.	c #9D0172",
"o.	c #4F2439",
"p.	c #E3D6DC",
"q.	c #A10079",
"r.	c #BA0393",
"s.	c #D606AD",
"t.	c #CE07A4",
"u.	c #F304C8",
"v.	c #FF01DA",
"w.	c #A00878",
"x.	c #96076D",
"y.	c #A30379",
"z.	c #81095B",
"A.	c #D1C4CE",
"B.	c #4F243B",
"C.	c #E5DEE0",
"D.	c #A3007C",
"E.	c #A6007E",
"F.	c #E007B5",
"G.	c #CF08A5",
"H.	c #C20799",
"I.	c #E205B8",
"J.	c #FF00D9",
"K.	c #96076B",
"L.	c #A5047B",
"M.	c #A6027D",
"N.	c #7D085E",
"O.	c #9B858F",
"P.	c #4D2138",
"Q.	c #A9A8AA",
"R.	c #B33295",
"S.	c #A1007B",
"T.	c #CB06A1",
"U.	c #CC07A2",
"V.	c #FF00D7",
"W.	c #91086B",
"X.	c #98066E",
"Y.	c #9E0474",
"Z.	c #AE0684",
"`.	c #B30689",
" +	c #A30279",
".+	c #9F0276",
"++	c #917690",
"@+	c #654953",
"#+	c #451A31",
"$+	c #5B434C",
"%+	c #7F6A72",
"&+	c #AAA9AC",
"*+	c #A4007D",
"=+	c #B10388",
"-+	c #D507AB",
";+	c #FF02D3",
">+	c #A20879",
",+	c #B00786",
"'+	c #AF0685",
")+	c #AE0083",
"!+	c #81005C",
"~+	c #757D7D",
"{+	c #4B1F36",
"]+	c #190912",
"^+	c #594047",
"/+	c #9C979A",
"(+	c #AD4597",
"_+	c #C30599",
":+	c #D006A6",
"<+	c #D206A9",
"[+	c #A20679",
"}+	c #9F0075",
"|+	c #9E0073",
"1+	c #847888",
"2+	c #543243",
"3+	c #391528",
"4+	c #3C2632",
"5+	c #755E68",
"6+	c #A3A3A6",
"7+	c #B41D90",
"8+	c #B10386",
"9+	c #C5059C",
"0+	c #DD06B2",
"a+	c #F105C6",
"b+	c #B6068D",
"c+	c #B3058A",
"d+	c #B10688",
"e+	c #A10177",
"f+	c #9B0070",
"g+	c #8A005B",
"h+	c #7D998D",
"i+	c #481C34",
"j+	c #999196",
"k+	c #ACA9AF",
"l+	c #910065",
"m+	c #AD0284",
"n+	c #CD06A3",
"o+	c #D706AE",
"p+	c #DF06B4",
"q+	c #F205C6",
"r+	c #B5058C",
"s+	c #9A006E",
"t+	c #8F0061",
"u+	c #7F818A",
"v+	c #4F263B",
"w+	c #1C0A13",
"x+	c #5F414D",
"y+	c #A9ABAD",
"z+	c #BF88B4",
"A+	c #9A0071",
"B+	c #AF0285",
"C+	c #D405AD",
"D+	c #A8037E",
"E+	c #98006D",
"F+	c #97006B",
"G+	c #834672",
"H+	c #684F5B",
"I+	c #3E172C",
"J+	c #000000",
"K+	c #2E1521",
"L+	c #562F44",
"M+	c #9FA6A7",
"N+	c #9B1B77",
"O+	c #A20278",
"P+	c #B00287",
"Q+	c #EA05C0",
"R+	c #A8027E",
"S+	c #99006E",
"T+	c #990071",
"U+	c #7F3767",
"V+	c #76656F",
"W+	c #160810",
"X+	c #705B63",
"Y+	c #A5AAAD",
"Z+	c #B7048B",
"`+	c #9B006F",
" @	c #930068",
".@	c #8A3D78",
"+@	c #78686F",
"@@	c #51263D",
"#@	c #030202",
"$@	c #2A101E",
"%@	c #867C84",
"&@	c #9B8F9D",
"*@	c #91066B",
"=@	c #AE0584",
"-@	c #B4028A",
";@	c #D404AB",
">@	c #932B78",
",@	c #7B6D73",
"'@	c #52273C",
")@	c #10060C",
"!@	c #391A2A",
"~@	c #90888D",
"{@	c #AAB3B4",
"]@	c #A8338B",
"^@	c #9C0075",
"/@	c #8E0062",
"(@	c #9E0074",
"_@	c #8E3A7A",
":@	c #80757D",
"<@	c #52293E",
"[@	c #0E060B",
"}@	c #371828",
"|@	c #705763",
"1@	c #999B9E",
"2@	c #A9B2B3",
"3@	c #97999F",
"4@	c #A2A7AA",
"5@	c #90888F",
"6@	c #77656E",
"7@	c #4E2338",
"8@	c #060305",
"9@	c #050204",
"0@	c #220E19",
"a@	c #3E1A2F",
"b@	c #6D5561",
"c@	c #77656F",
"d@	c #624350",
"e@	c #441D31",
"f@	c #020101",
"g@	c #020102",
"                                                                                ",
"                                                                                ",
"                                                                                ",
"                                                                                ",
"                                                                                ",
"                                                                                ",
"                                                                                ",
"                                                                                ",
"                                . . + @ # $ % &                                 ",
"                              . * = - ; > , ' ) !                               ",
"                      . . ~ { ] ^ / ( _ : < [ } | 1 2 3 . 4                     ",
"                  5 6 7 8 9 0 a b c d e _ f g h i j k l m n o                   ",
"                3 p q r s t u v w x y z A B C D E F G H I J K L                 ",
"                M N O P Q R e x S T T U V W W X C C Y Z `  ...+.                ",
"                @.#.P $.%.S T x T T T x &.W W *.C C C =.-.;.>.,.                ",
"                '.#.).!.~.{.y T T T T ].^.W W /.*.(.(.(.(._.:.<.                ",
"                3 [.P }.~.|.1.].S T T ].2.W W W W 3.(.(.4.5.6.7.                ",
"                . 8.9.0.~.a.b.w S T T ].c.W W /.W 3.(.(.(.5.d.e.                ",
"                . f.g.h.i.j.k.l.e U U x f W W W m.n.(.(.(.-.d.o.                ",
"                3 p.q.r.i.s.t.u.b.v.U x w.W W W x.y.(.(.(.z.A.B.                ",
"                '.C.D.E.F.s.G.H.I.J.e x w./.W K.4.L.M.(.(.N.O.P.                ",
"                @.Q.R.S.T.s.s.t.U.u.V.V.w.W.X.Y.Z.`.`. +.+++@+#+                ",
"                $+%+&+*+=+-+s.j.U.U.;+V.>+W.*.,+'+`.'+)+!+~+{+]+                ",
"                  ^+/+(+Q _+:+s.U.<+<+1.[+W `.`.`.`.}+|+1+2+3+                  ",
"                  4+5+6+7+8+9+s.s.s.0+a+b+`.c+`.d+e+f+g+h+i+                    ",
"                      j+k+l+m+n+o+p+q+q+r+`.c+d+M.s+t+u+v+w+                    ",
"                      x+y+z+A+B+C+q+q+q+c+`.`.D+E+F+G+H+I+J+                    ",
"                      K+L+M+N+O+P+Q+q+a+c+`.R+S+T+U+V+{+J+                      ",
"                        W+X+Y+l+m+Z+Q+a+`.M.`+ @.@+@@@#@                        ",
"                          $@%@&@*@=@-@;@f+S+E+>@,@'@)@                          ",
"                          J+!@~@{@]@^@/@(@ @_@:@<@[@                            ",
"                            J+}@|@1@2@3@4@5@6@7@8@                              ",
"                              9@0@a@B.b@c@d@e@f@                                ",
"                                  J+g@9@9@f@J+                                  ",
"                                                                                ",
"                                                                                ",
"                                                                                ",
"                                                                                ",
"                                                                                ",
"                                                                                "};
