/* XPM */
static char * 9_xpm[] = {
"40 40 279 2",
"  	c None",
". 	c #585654",
"+ 	c #686664",
"@ 	c #868483",
"# 	c #979695",
"$ 	c #8F8D8C",
"% 	c #5C5B58",
"& 	c #4E4C4A",
"* 	c #63615F",
"= 	c #E8E8E8",
"- 	c #F4F5F6",
"; 	c #DCDBDB",
"> 	c #D7D3D3",
", 	c #FBFBFD",
"' 	c #AEADAC",
") 	c #464542",
"! 	c #3B3936",
"~ 	c #595755",
"{ 	c #605E5C",
"] 	c #A6A6A4",
"^ 	c #F8F9F9",
"/ 	c #C8C4C4",
"( 	c #442928",
"_ 	c #543231",
": 	c #412726",
"< 	c #3A2A27",
"[ 	c #D6D3D2",
"} 	c #F9F9F9",
"| 	c #949391",
"1 	c #4A4846",
"2 	c #565351",
"3 	c #575553",
"4 	c #514F4D",
"5 	c #5E5C5A",
"6 	c #5F5D5B",
"7 	c #929190",
"8 	c #D6D5D5",
"9 	c #FFFFFF",
"0 	c #FDFEFE",
"a 	c #CBCACA",
"b 	c #422A28",
"c 	c #5C3837",
"d 	c #6A4140",
"e 	c #673F3E",
"f 	c #35211F",
"g 	c #362421",
"h 	c #534542",
"i 	c #BDB0B0",
"j 	c #FCFCFC",
"k 	c #FBFBFB",
"l 	c #D8D7D7",
"m 	c #656461",
"n 	c #575452",
"o 	c #53504E",
"p 	c #757372",
"q 	c #DDDCDC",
"r 	c #A29E9C",
"s 	c #897F7E",
"t 	c #6A5B5A",
"u 	c #402927",
"v 	c #593534",
"w 	c #663D3D",
"x 	c #6D4242",
"y 	c #693F3F",
"z 	c #6A4040",
"A 	c #4B2E2C",
"B 	c #34211E",
"C 	c #35221F",
"D 	c #34221F",
"E 	c #392926",
"F 	c #403230",
"G 	c #89817F",
"H 	c #F2F0F0",
"I 	c #C9C8C8",
"J 	c #5A5856",
"K 	c #514E4C",
"L 	c #53514F",
"M 	c #E4E3E3",
"N 	c #3F2C29",
"O 	c #341F1D",
"P 	c #331C1B",
"Q 	c #5A3836",
"R 	c #6F4443",
"S 	c #704444",
"T 	c #714645",
"U 	c #6B4041",
"V 	c #492D2B",
"W 	c #32201D",
"X 	c #33201D",
"Y 	c #33211F",
"Z 	c #30221F",
"` 	c #544946",
" .	c #CFCBCB",
"..	c #A2A3A3",
"+.	c #4C4A48",
"@.	c #555351",
"#.	c #E9E8E7",
"$.	c #3B2321",
"%.	c #573736",
"&.	c #6E4343",
"*.	c #6E4242",
"=.	c #3D2724",
"-.	c #33211E",
";.	c #2D1D1A",
">.	c #302320",
",.	c #E2E1E1",
"'.	c #413E3C",
").	c #565452",
"!.	c #341D1C",
"~.	c #563836",
"{.	c #613C3B",
"].	c #372421",
"^.	c #311F1D",
"/.	c #2D1E1B",
"(.	c #403D3B",
"_.	c #E5E4E3",
":.	c #503231",
"<.	c #593837",
"[.	c #623B3A",
"}.	c #3A2422",
"|.	c #2E1E1B",
"1.	c #D2D2D0",
"2.	c #3D3A37",
"3.	c #E6E5E4",
"4.	c #361F1E",
"5.	c #523433",
"6.	c #4C312F",
"7.	c #372220",
"8.	c #D1D0CF",
"9.	c #373431",
"0.	c #E7E7E5",
"a.	c #351E1D",
"b.	c #4C2F2E",
"c.	c #4F3331",
"d.	c #513331",
"e.	c #623C3C",
"f.	c #6C4141",
"g.	c #32201E",
"h.	c #311E1B",
"i.	c #2F2B28",
"j.	c #D9D9D7",
"k.	c #4B302E",
"l.	c #5A3837",
"m.	c #653E3D",
"n.	c #36221F",
"o.	c #2C1D1A",
"p.	c #C8C7C6",
"q.	c #2E2A28",
"r.	c #DFDEDE",
"s.	c #37201E",
"t.	c #533533",
"u.	c #462D2B",
"v.	c #633C3B",
"w.	c #673E3E",
"x.	c #32211D",
"y.	c #372320",
"z.	c #2D1F1C",
"A.	c #8A8987",
"B.	c #2B2725",
"C.	c #A8A8A8",
"D.	c #5D4D4B",
"E.	c #492E2C",
"F.	c #4A2F2D",
"G.	c #3C2623",
"H.	c #3E2825",
"I.	c #35211E",
"J.	c #817D7D",
"K.	c #24201E",
"L.	c #494746",
"M.	c #706F6D",
"N.	c #ABABAB",
"O.	c #3D2523",
"P.	c #5E3A39",
"Q.	c #382321",
"R.	c #39221F",
"S.	c #251211",
"T.	c #797A7A",
"U.	c #292523",
"V.	c #0D0B0A",
"W.	c #484644",
"X.	c #989797",
"Y.	c #685A59",
"Z.	c #452C2A",
"`.	c #4C302E",
" +	c #4E3230",
".+	c #613B3A",
"++	c #382421",
"@+	c #321D1B",
"#+	c #311D1A",
"$+	c #817F7F",
"%+	c #3B3736",
"&+	c #1D1918",
"*+	c #2A2827",
"=+	c #646260",
"-+	c #A5A5A5",
";+	c #4E3A38",
">+	c #3C2522",
",+	c #472D2B",
"'+	c #523432",
")+	c #402826",
"!+	c #3F2725",
"~+	c #34201D",
"{+	c #301B19",
"]+	c #24130F",
"^+	c #919495",
"/+	c #272320",
"(+	c #929191",
"_+	c #ADACAD",
":+	c #2A1714",
"<+	c #3A2421",
"[+	c #2E1B18",
"}+	c #281512",
"|+	c #868486",
"1+	c #302D2A",
"2+	c #0E0D0C",
"3+	c #494745",
"4+	c #AAAAAB",
"5+	c #9A9292",
"6+	c #4E3130",
"7+	c #382220",
"8+	c #2D1A17",
"9+	c #58504F",
"0+	c #211D1B",
"a+	c #000000",
"b+	c #1B1917",
"c+	c #393533",
"d+	c #A3A3A4",
"e+	c #42322F",
"f+	c #3C2422",
"g+	c #563635",
"h+	c #382320",
"i+	c #2F1C19",
"j+	c #4B4240",
"k+	c #696867",
"l+	c #0B0A09",
"m+	c #61605E",
"n+	c #A8A8A9",
"o+	c #3E2724",
"p+	c #2B1715",
"q+	c #554B4A",
"r+	c #6C6B6A",
"s+	c #302C2A",
"t+	c #020202",
"u+	c #161412",
"v+	c #7F7E7E",
"w+	c #959393",
"x+	c #311F1C",
"y+	c #3B2522",
"z+	c #3D2623",
"A+	c #4E302F",
"B+	c #4C3F3D",
"C+	c #71706F",
"D+	c #322E2B",
"E+	c #080706",
"F+	c #211E1D",
"G+	c #898888",
"H+	c #B0B0B1",
"I+	c #594A48",
"J+	c #281613",
"K+	c #564B4A",
"L+	c #787777",
"M+	c #33302D",
"N+	c #070606",
"O+	c #1F1C1B",
"P+	c #5D5B59",
"Q+	c #9A9A9B",
"R+	c #AFAFB0",
"S+	c #9B9B9C",
"T+	c #A5A5A6",
"U+	c #8B8989",
"V+	c #2E2A27",
"W+	c #030303",
"X+	c #12100F",
"Y+	c #221E1D",
"Z+	c #5B5958",
"`+	c #696766",
" @	c #4C4947",
".@	c #272421",
"+@	c #010101",
"                                                                                ",
"                                                                                ",
"                                                                                ",
"                                                                                ",
"                                                                                ",
"                                                                                ",
"                                                                                ",
"                                                                                ",
"                                . . + @ # $ % &                                 ",
"                              . * = - ; > , ' ) !                               ",
"                      . . ~ { ] ^ / ( _ : < [ } | 1 2 3 . 4                     ",
"                  5 6 7 8 9 0 a b c d e _ f g h i j k l m n o                   ",
"                3 p q r s t u v w x y z A B B C D E F G H I J K                 ",
"                L M N O P Q e x R S T U V W W X B B Y Z `  ...+.                ",
"                @.#.O $.%.&.T *.T T T x =.W W -.B B B X ;.>.,.'.                ",
"                ).#.!.( ~.{.z S T T T &.].W W ^.-.X X X X /.q (.                ",
"                3 _.O :.~.<.[.&.R T T &.}.W W W W X X X B |.1.2.                ",
"                . 3.4.5.~.6.{.w x T T &.7.W W ^.W X X X X |.8.9.                ",
"                . 0.a.b.5.c.d.e.e z f.x f W W W g.h.X X X ;.8.i.                ",
"                3 j.!.: 5.:.k.l.{.m.z x ].W W W -.n.X X X o.p.q.                ",
"                ).r.4.s.t.:.6.u.t.v.w.x ].^.W x.B y.n.X X z.A.B.                ",
"                @.C.D.!.E.:.:.k.F.l.v.v.].g.X B G.H.H.I.O J.4 K.                ",
"                L.M.N.4.O.c.:.c.F.F.P.v.Q.g.-.=.G.H.G.R.S.T.U.V.                ",
"                  W.X.Y.P Z.`.:.F. + +.+++W H.H.H.H.@+#+$+%+&+                  ",
"                  *+=+-+;+>+,+:.:.:.'+<.)+H.!+H.H.~+{+]+^+/+                    ",
"                      (+_+:+<+F.:.'+<.<.!+H.!+H.n.[+}+|+1+2+                    ",
"                      3+4+5+{+<+6+<.<.<.!+H.H.7+[+8+9+@.0+a+                    ",
"                      b+c+d+e+I.f+g+<.<.!+H.h+i+{+j+k+U.a+                      ",
"                        l+m+n+:+<+o+g+<.H.n.i+p+q+r+s+t+                        ",
"                          u+v+w+x+y+z+A+{+i+[+B+C+D+E+                          ",
"                          a+F+G+H+I+@+J+#+p+K+L+M+N+                            ",
"                            a+O+P+Q+R+S+T+U+k+V+W+                              ",
"                              t+X+Y+q.Z+`+ @.@+@                                ",
"                                  a++@t+t++@a+                                  ",
"                                                                                ",
"                                                                                ",
"                                                                                ",
"                                                                                ",
"                                                                                ",
"                                                                                "};
