/* XPM */
static char *dummy[]={
"40 40 642 2",
"hp c #32a67a",
"g1 c #332810",
"gZ c #362a11",
"g2 c #382c13",
"g0 c #392d14",
"gY c #3a2e14",
"hr c #41300f",
"g3 c #4c3914",
"fQ c #4d2e2c",
"hO c #4d3a14",
"gb c #4f243b",
"ga c #4f2b32",
"fI c #52322e",
"fx c #533d22",
"h. c #543e13",
"g5 c #543e14",
"hk c #553e14",
"hf c #553f14",
"g8 c #553f15",
"fh c #562f44",
"ha c #563f14",
"hh c #564015",
"g# c #573e2a",
"hd c #574015",
"hb c #574016",
"hn c #574216",
"he c #574217",
"g7 c #584015",
"hl c #584016",
"hm c #584115",
"hi c #584116",
"g6 c #584216",
"ho c #594116",
"hc c #594217",
"h# c #594318",
"hg c #5a4217",
"hj c #5a4418",
"g4 c #5b4317",
"ht c #5c4212",
"hw c #5c4313",
"hD c #5c4414",
"g9 c #5c4418",
"hN c #5d4312",
"hI c #5d4413",
"hG c #5d4414",
"hM c #5d4415",
"hy c #5d4515",
"hA c #5e4413",
"hL c #5e4515",
"hs c #5f4412",
"hB c #5f4513",
"hJ c #5f4514",
"hH c #604412",
"hF c #604413",
"hC c #604512",
"hx c #604513",
"hz c #614513",
"hE c #614614",
"hu c #614715",
"eK c #614746",
"hK c #624513",
"hv c #624514",
"e6 c #63454c",
"hq c #67aa97",
"cS c #684d57",
"cX c #6a4e58",
"hT c #6a4f19",
"ej c #6a4f56",
"df c #6b4f59",
"h6 c #6b501a",
"cH c #6b5052",
"hQ c #6c5019",
"dA c #6c505a",
"h3 c #6c511a",
"h0 c #6c511b",
"hX c #6d5019",
"i. c #6d511b",
"hV c #6d531c",
"gc c #6d5561",
"h9 c #6e5119",
"h4 c #6e511a",
"hY c #6e521a",
"h7 c #6e531c",
"fB c #6f522e",
"h5 c #6f531b",
"i# c #705219",
"hP c #70521a",
"hU c #70531a",
"fR c #705763",
"fy c #705b63",
"h2 c #71521a",
"hZ c #71531a",
"h8 c #71541a",
"h1 c #71541b",
"hR c #71551c",
"hW c #72531a",
"hS c #73541b",
"bq c #755955",
"eR c #755e67",
"bG c #7d615d",
"by c #7d6160",
"bF c #7f6251",
"eB c #7f6a71",
"br c #806567",
"bE c #84674e",
"cu c #867074",
"fC c #867c84",
"b2 c #8a6e55",
"bx c #8b6c49",
".C c #8c6f2c",
".H c #8d712e",
"fN c #8e0062",
".K c #8e702c",
".N c #8e702d",
".R c #8e712e",
".t c #8e722e",
".F c #8e722f",
".x c #8f702c",
".G c #8f712c",
".q c #8f712d",
".O c #8f712e",
".o c #8f722e",
".y c #8f732f",
".s c #90722e",
".Q c #90732e",
".B c #90732f",
".w c #907330",
"fJ c #90888d",
"e0 c #910065",
"fE c #91066b",
".L c #91722d",
".J c #91732e",
".v c #91742f",
".A c #917430",
".z c #92732e",
".D c #92742f",
".M c #927530",
".u c #937430",
".E c #937631",
".I c #947630",
".P c #947631",
".p c #947731",
".r c #947732",
".n c #957832",
"fU c #97999f",
"bs c #998285",
"eY c #999196",
"fS c #999b9e",
"e9 c #9a0071",
"ge c #9a7b35",
"gd c #9a7c36",
"fj c #9b1b77",
"gk c #9b7b34",
"#t c #9b7c35",
"#d c #9b7d35",
"fD c #9b8f9d",
"fM c #9c0075",
"gh c #9c7c35",
"gi c #9c7c36",
"#A c #9c7d34",
"#f c #9c7d35",
"#h c #9c7d36",
"#m c #9c7d37",
"#c c #9c7e37",
"b3 c #9c8e8e",
"eL c #9c979a",
"#B c #9d7c35",
"#o c #9d7d35",
"gl c #9d7d36",
"#k c #9d7e37",
"#x c #9d7f37",
"cL c #9e0078",
"#w c #9e7d35",
"go c #9e7d37",
"#j c #9e7e35",
"#q c #9e7e36",
"gn c #9e7e37",
"#r c #9e7f38",
"#C c #9e8038",
"cK c #9f0078",
"cY c #9f007a",
"cn c #9f7f36",
"#y c #9f7f37",
"du c #9f7f38",
"fs c #9f8036",
"#D c #9f8037",
"#p c #9f8038",
"#v c #9f8138",
"#i c #9f8139",
"fi c #9fa6a7",
"gp c #a07f37",
"#l c #a08038",
"dm c #a08039",
"#s c #a08137",
"cb c #a08138",
"#n c #a08139",
"dk c #a0813a",
"cm c #a08238",
"#z c #a08239",
"dQ c #a10079",
"em c #a1007b",
"dC c #a1017c",
"ch c #a18036",
"dq c #a18038",
"fp c #a18136",
"cc c #a18137",
"#e c #a18138",
"#g c #a18139",
"dv c #a1813a",
"fn c #a18238",
"cp c #a18239",
"dp c #a1823a",
"cf c #a18339",
"ds c #a1833b",
"fk c #a20278",
"ce c #a28137",
"dx c #a28138",
"dr c #a28139",
"cq c #a28237",
"cj c #a28238",
"#u c #a28239",
"gm c #a2823a",
"cr c #a28339",
"dz c #a2833c",
"bp c #a28344",
"fu c #a28439",
"ck c #a2843a",
"dH c #a3007b",
"dX c #a3007c",
"fr c #a38238",
"gf c #a3823a",
"gj c #a3833b",
"eq c #a3833d",
"ca c #a3843a",
"do c #a3843b",
"dw c #a3843c",
"er c #a3843d",
"cl c #a3853a",
"ct c #a3853c",
"bD c #a38542",
"ci c #a3863a",
"eS c #a3a3a6",
"eD c #a4007d",
"cJ c #a40f7e",
"dy c #a4833b",
"cs c #a48439",
"dt c #a4843a",
"dl c #a4843b",
"eA c #a4843c",
"ez c #a4843d",
"be c #a48539",
"ag c #a4853a",
"fw c #a4853b",
"dn c #a4853c",
"fq c #a4863a",
"cd c #a4863b",
"gg c #a5843b",
"bn c #a5853a",
"ex c #a5853c",
"es c #a5853d",
"ew c #a5853e",
"#V c #a5863a",
"fo c #a5863b",
"ba c #a5863c",
"aR c #a5863f",
"ft c #a5873b",
"cg c #a5873c",
"fv c #a5883c",
"fz c #a5aaad",
"dY c #a6007e",
"bh c #a68539",
"et c #a6853d",
"bb c #a68639",
"at c #a6863a",
"ev c #a6863e",
"aS c #a6863f",
"bj c #a6873a",
"b# c #a6873b",
"bf c #a6873c",
"#6 c #a6883b",
"aq c #a6883c",
"#J c #a6883d",
"cR c #a68840",
"cG c #a68841",
"am c #a7863a",
"ey c #a7863e",
"#0 c #a7873a",
"#H c #a7873b",
"co c #a7873c",
"a3 c #a7873e",
"eu c #a7873f",
"#F c #a7883b",
"af c #a7883c",
"#9 c #a7883d",
"dN c #a7883e",
"cF c #a7893c",
"#X c #a7893d",
"bd c #a7893e",
"fL c #a8338b",
"#P c #a8873a",
"bc c #a8873b",
"aU c #a8873f",
"a7 c #a88740",
"bl c #a8883a",
"#U c #a8883c",
"a9 c #a8883f",
"aW c #a88840",
"au c #a8893c",
"#M c #a8893d",
"aj c #a8893e",
"a5 c #a88940",
"#Y c #a88a3d",
"aa c #a88a3e",
"#S c #a88a3f",
"#L c #a9883a",
"ac c #a9883b",
"aX c #a9883f",
"b. c #a98840",
"a# c #a9893b",
"a1 c #a98940",
"a8 c #a98941",
"bo c #a98a3c",
"#2 c #a98a3d",
"bv c #a98a3e",
"a0 c #a98a41",
"eJ c #a98b3d",
"#T c #a98b3e",
"ae c #a98b3f",
"dO c #a98c40",
"ek c #a9a8aa",
"e7 c #a9abad",
"fT c #a9b2b3",
"#R c #aa883b",
"#5 c #aa893b",
"bg c #aa893d",
"aY c #aa8940",
"a6 c #aa8941",
"bi c #aa8a3c",
"aH c #aa8a3d",
"aT c #aa8a41",
"fP c #aa8b3c",
"fO c #aa8b3d",
"ap c #aa8b3e",
"#1 c #aa8b3f",
"aZ c #aa8b42",
"bC c #aa8c3e",
"#Q c #aa8c3f",
"ad c #aa8c40",
"eI c #aa8d3f",
"cW c #aa8d40",
"eC c #aaa9ac",
"fK c #aab3b4",
"aC c #ab8a3d",
"a2 c #ab8a40",
"aV c #ab8a41",
"#Z c #ab8b3d",
"bw c #ab8b3e",
"a4 c #ab8b42",
"#3 c #ab8c3d",
"bk c #ab8c3e",
"#E c #ab8c3f",
"d5 c #ab8c40",
"aM c #ab8c41",
"ab c #ab8d3f",
"a. c #ab8d40",
"eQ c #ab8e3f",
"ak c #ab8e40",
"ai c #ac8b3e",
"#N c #ac8c3e",
"aO c #ac8c3f",
"aA c #ac8c41",
"an c #ac8d3e",
"#4 c #ac8d3f",
"#K c #ac8d40",
"aJ c #ac8d41",
"eh c #ac8d42",
"#O c #ac8e40",
"eH c #ac8e41",
"aF c #ac8e42",
"eZ c #aca9af",
"e1 c #ad0284",
"eM c #ad4597",
"ay c #ad8c3d",
"aK c #ad8c3e",
"#G c #ad8d3e",
"d7 c #ad8d3f",
"bm c #ad8e3e",
"#I c #ad8e40",
"d9 c #ad8e41",
"ea c #ad8e42",
"ei c #ad8e44",
"al c #ad8f40",
"bu c #ad8f41",
"aQ c #ad9042",
"cU c #ae0088",
"fF c #ae0584",
"aE c #ae8d3e",
"e# c #ae8d3f",
"ar c #ae8e3e",
"#7 c #ae8e3f",
"ao c #ae8e40",
"#W c #ae8e41",
"eg c #ae8e42",
"as c #ae8f40",
"#8 c #ae8f41",
"aD c #ae8f42",
"ed c #ae8f43",
"ax c #ae9043",
"f. c #af0285",
"bt c #af8e3f",
"ec c #af8e40",
"aL c #af8e41",
"gF c #af8e43",
"fb c #af8e45",
"aN c #af8f40",
"az c #af8f41",
"c4 c #af8f44",
"bN c #af8f45",
"fa c #af8f46",
"cQ c #af9041",
"ee c #af9043",
"fg c #af9046",
"aB c #af9143",
"e. c #af9144",
"fl c #b00287",
"ah c #b09041",
"aP c #b09042",
"da c #b09044",
"ff c #b09045",
"av c #b09143",
"eb c #b09244",
"bH c #b0a19f",
"eU c #b10386",
"eE c #b10388",
"gA c #b18e42",
"aG c #b19041",
"aw c #b19042",
"c9 c #b19043",
"b0 c #b19045",
"bZ c #b19046",
"aI c #b19143",
"bM c #b19146",
"fe c #b19147",
"d4 c #b19243",
"d8 c #b19244",
"de c #b19248",
"cz c #b2078c",
"cy c #b24897",
"gO c #b28f43",
"bP c #b29045",
"d6 c #b29142",
"c5 c #b29144",
"bT c #b29145",
"bR c #b29146",
"bU c #b29147",
"ef c #b29244",
"c6 c #b29245",
"bY c #b29247",
"dd c #b29346",
"el c #b33295",
"gQ c #b39045",
"c7 c #b39144",
"b1 c #b39145",
"bX c #b39146",
"db c #b39246",
"fd c #b39247",
"fc c #b39248",
"g. c #b39346",
".T c #b39347",
"bS c #b39348",
"fG c #b4028a",
"eT c #b41d90",
"d# c #b49244",
"gV c #b49246",
"bV c #b49247",
".1 c #b49346",
".6 c #b49347",
"bQ c #b49348",
"d. c #b49447",
"dc c #b49448",
"bW c #b49449",
"c3 c #b49547",
"gJ c #b59144",
"gr c #b59244",
"gw c #b59245",
"gu c #b59246",
".3 c #b59346",
"bO c #b59347",
".X c #b59446",
".V c #b59447",
".7 c #b59547",
".5 c #b59548",
"c8 c #b59648",
"gX c #b69245",
"gM c #b69346",
".m c #b69447",
".f c #b69448",
".8 c #b69546",
".Z c #b69547",
".0 c #b69648",
"## c #b69649",
"fA c #b7048b",
"gy c #b79346",
".k c #b79448",
".4 c #b79547",
".g c #b79548",
"f2 c #b79647",
"#a c #b79649",
".S c #b79749",
".Y c #b7974a",
"gD c #b89447",
".b c #b89548",
".e c #b89549",
".i c #b89648",
".j c #b89649",
"fZ c #b89748",
".d c #b89749",
"#b c #b8974a",
".W c #b8984a",
".2 c #b8984b",
"b8 c #b90691",
"gH c #b99548",
".h c #b99649",
"f6 c #b99748",
".l c #b99749",
".U c #b99849",
"f5 c #b9984a",
"#. c #b9994a",
".9 c #b9994b",
"dR c #ba0393",
".c c #ba9749",
".a c #ba974a",
"f7 c #ba994a",
"f9 c #ba994b",
"f3 c #ba9a4b",
"fY c #ba9a4c",
"gT c #bb9748",
"gK c #bb9849",
"f0 c #bb994a",
"fX c #bb9b4c",
"f1 c #bb9b4d",
"f4 c #bc9a4b",
"fW c #bc9b4b",
"fV c #bc9c4c",
"f8 c #bc9c4d",
"cx c #bd72a9",
"gU c #be9a4a",
".# c #be9a4e",
"Qt c #be9b4f",
"cZ c #bf0398",
"e8 c #bf88b4",
"cw c #bf96b1",
"gq c #bf9c4b",
"gB c #c09a4a",
"gL c #c09c4d",
"gE c #c19c4c",
"gS c #c19c4d",
"bK c #c20499",
"d1 c #c20799",
"gR c #c29d4c",
"gx c #c29d4e",
"eN c #c30599",
"gC c #c39e4f",
"eV c #c5059c",
"gP c #c5a050",
"gW c #c6a150",
"gv c #c7a150",
"gI c #c7a251",
"gs c #c9a454",
"gt c #caa351",
"gG c #caa452",
"en c #cb06a1",
"gz c #cba554",
"eo c #cc07a2",
"gN c #cca654",
"e2 c #cd06a3",
"dI c #ce05a6",
"dT c #ce07a4",
"d0 c #cf08a5",
"eO c #d006a6",
"b7 c #d1c9d1",
"eP c #d206a9",
"dE c #d208a7",
"dK c #d307aa",
"fH c #d404ab",
"f# c #d405ad",
"eF c #d507ab",
"dS c #d606ad",
"e3 c #d706ae",
"b4 c #d9d3d2",
"dh c #da06b1",
"bJ c #dabed6",
"dL c #dc05b1",
"dJ c #dc08b3",
"eW c #dd06b2",
"dD c #de07b4",
"e4 c #df06b4",
"dZ c #e007b5",
"d2 c #e205b8",
"cv c #e2dce0",
"dP c #e3d6dc",
"bB c #e3d9dc",
"dW c #e5dee0",
"c0 c #e708bc",
"cV c #e907bf",
"fm c #ea05c0",
"cI c #ebe3e8",
"bz c #ebe8e8",
"bA c #ebf9f4",
"bL c #ed00c1",
"di c #ee06c4",
"dG c #efe4e8",
"dB c #efe4ea",
"dg c #f0e3eb",
"eX c #f105c6",
"cT c #f1e7ed",
"e5 c #f205c6",
"dU c #f304c8",
"cM c #f800cd",
"bI c #f8faf9",
"cA c #fa00cc",
"b6 c #fcfffc",
"b9 c #ff00d2",
"dj c #ff00d6",
"ep c #ff00d7",
"d3 c #ff00d9",
"cB c #ff00db",
"c# c #ff00dc",
"cD c #ff00de",
"cP c #ff00df",
"cE c #ff00e0",
"cC c #ff00e1",
"cN c #ff00e2",
"c2 c #ff00e3",
"cO c #ff00e5",
"c1 c #ff01d6",
"dF c #ff01d7",
"dM c #ff01d8",
"dV c #ff01da",
"c. c #ff01dd",
"eG c #ff02d3",
"b5 c #ffffff",
"Qt.#.a.b.c.d.e.f.g.h.i.j.k.g.h.h.h.g.k.b.l.j.e.m.k.h.i.j.k.g.j.l.j.g.f.b.l.d.e.f",
".n.o.p.q.r.s.t.q.t.u.v.w.x.y.z.A.B.C.D.q.E.v.F.G.H.I.J.B.K.A.L.M.B.N.B.O.P.Q.R.L",
".S.T.U.V.W.X.Y.Z.0.d.1.2.3.Y.4.5.S.6.U.1.W.7.Y.8.0.i.6.9.3#..V###a.5.d.Z#b.V.Y.4",
"#c#d#e#f#g#h#i#j#k#l#m#n#o#p#q#r#p#h#s#t#u#k#v#w#x#y#m#z#A#n#B#p#C#k#D#h#n#h#p#j",
"#E#F#G#H#I#J#K#L#M#N#J#O#P#Q#R#S#T#U#G#V#W#X#K#L#Y#Z#J#O#P#O#0#1#T#2#3#F#4#J#E#5",
"#E#6#7#0#8#9a.a##X#Naaa.#0abacadaeaf#7agah#Ma.a##Yaiajak#0alam#K#T#Man#0ao#X#Q#5",
"ab#6#7#H#I#Xa.ac#Yapaa#O#0aba#ae#Qaqar#Vas#Ma.a##T#Zaj#O#0alat#Eaeau#N#F#4#X#Q#5",
"av#1awaiav#Kaxay#KazaAaBaCaDaEaFaD#1aGaHaIaJaxaK#KaLaMaB#ZavaiaDaD#EaNaOaPaAaQaE",
"aRaSaTaUaVaWaTaXaWaYaWaZaUa0aXa1aTaUa2a3a4aWaTaXa5a6a7aZaUaTaUa8a8aWaYa9aVa9a5b.",
"apb##3at#Eba#Q#0afaCbaadbb#Tbcbdaab##Zbe#Kbf#Q#P#Xbgba#Ebbabbhaabd#Ubibjbkba#Tbl",
"ab#Fbm#0as#9a.#L#XaKbdak#P#Q#R#Qaeaf#Gbnaz#Mak#L#Yai#M#O#0#O#0ab#Tbo#3#Hbpbqbrbs",
"#4#6bt#Hbu#9a.a##Ybkbv#O#P#4a##1#Qaq#7bnaz#Ma.#5#2bwaj#O#0#8am#K#1auaKbxbybzbAbB",
"abb##Gbc#O#9ad#L#Mbwajak#0bC#5ae#1aqaK#V#I#Yad#L#Y#Z#Ma.#0#O#0bDbEbFbGbHbIbJbKbL",
"bMbNbObPbQbRbSbTbUbVbRbWbP.TbXbYbQbZbOb0bQbYbSb1bYbVbMbWb0bSb2b3b4b5b6b7b8b9c.c#",
"cacbatccb#cbcdcecfbn#ncgchcicjckclcm#Vcncocpcdcqcrcs#nct#kcucvcwcxcyczcAcBcCcDcE",
"#Eaf#G#H#I#9#KblcF#N#Jak#PbC#Raeaeaf#Gbn#8#X#Kac#Ybw#9cGcHcIcJcKcLcMc#cCcNcOcOcP",
"abb##7#0#8#9a.a##Y#Naaa.#Paba#ad#1af#7bncQaja.#5#YaiajcRcScTcKcUcVcNcOcCcOcOcOcC",
"#Eb##G#H#O#9cW#L#M#Zaaa.#0#Ea#ae#1aq#G#V#I#McWac#YaH#McRcXcTcYcZc0c1cDcOcOcOcOc2",
"c3c4.Zc5.5c6c3c7c6.XbRc8c9d.d#bY.Vda.8c9.5dbdcc7dd.1bMdedfdgcKdhc0didjc2cNcOcOc2",
"dk#pdldmdn#ndo#edpdldkdndqdodrdsdo#ndtdubadvdwdxdpdydkdzdAdBdCdDc0dEdFcBcNcOcOc2",
"#Eaf#G#F#I#J#K#L#Y#N#J#K#PbCacae#T#U#G#V#W#X#Kac#2bw#JaddAdGdHdIdJdKdLdMc#cPcPcC",
"#Eb##7#0#8#9a.ac#XaKaaak#Pabac#Qaeaf#7agcQbda.#5#2aidNdOdfdPdQdRdJdSdTdUdFdVcPcC",
"#4#6#7#H#I#9a.ac#Y#Zaaak#0#4a#ae#1af#7#V#8aja.a##2aHdNcRcXdWdXdYdZdSd0d1d2d3c#cC",
"d4d5d6d7d8d9e.e#d9aweaeb#NaBecedeed5d6bwefege.e#d9aPeheiejekelemendSdSdTeodUepep",
"eqeraUesaWeteuetevaUewa9exeueyaSeuesaUezaWeveueteveuewaWeAeBeCeDeEeFdSdKeoeoeGep",
"abaf#G#H#Iaq#Kac#Y#N#JeH#PeIac#S#1af#Gatao#X#KaceJbw#J#O#0eKeLeMcLeNeOdSeoePePdj",
"#E#F#G#0#8#9a.#L#XaKbdak#PbCac#1aeaf#Gbnaz#XeQac#Yaibd#O#0abeReSeTeUeVdSdSdSeWeX",
"ab#6#7#0#8#Xa.a##2bkaa#O#P#4ac#Q#Qaf#7bn#8aja.#5#2#Zaj#O#0#8bjeYeZe0e1e2e3e4e5e5",
"abb##Gbc#I#X#Q#L#M#Zaja.#0#Q#5ae#1bf#G#V#IaacW#L#Y#Z#Mak#0#K#0e6e7e8e9f.f#e5e5e5",
"fafb.6b0bSbRfcbPbRfdbMbQbPfdbTfefcbZ.6ffbSbUbSbTbUfdbZdcb0bQb0fgfhfifjfkflfme5eX",
"cdfnatccbfcmfocqcfat#zbffpfqfrckclfnatfs#9cpftcqfubn#nfvfpbfccfwfxfyfze0e1fAfmeX",
"#E#F#G#H#I#9#Kbl#X#N#J#O#PbC#Rae#Taf#Gbn#8#X#4#L#Ybw#9#O#0#Oam#Q#TfBfCfDfEfFfGfH",
"abb##7#0az#9a.a##M#Nbvak#0abac#Qaeaf#7agah#Ma.#5#Yaiaj#O#0alam#K#T#FfIfJfKfLfMfN",
"abb##G#H#I#XeIac#Yapaaak#0#Eacaeaeaq#G#V#I#McWac#2fOajak#0#Oam#E#TaufPfQfRfSfTfU",
"fVc8fW.ifX.WfYfZ.Wf0#bf1f2f3.c.2f3##f4.gfXf5fYf6f5f7.Yf8f2fX.if9f3.df0g.g#gagbgc",
"gdgegf#kggghdvgh#rgfgigjgk#n#ldu#g#hdqgigggldpgh#rgmgigjgkgmgndq#lgogp#kdy#h#g#B",
"gqgrgsb1gtgugvgw.cgxgygzgAgx.kgBgCgDgEgFgGgHgIgJgKgLgMgNgOgPgQgRgSgTgUgVgvgygWgX",
"gYgZg0g1g2g3g4g5g6g7g8g9h.h#hahbhchdhehfhghhg4hfhig7g8g9h.hjhkhlhchmhnhahog8g4hk",
"hphphqhqhphrhshthuhvhwhxhshyhzhAhBhChDhEhFhGhHhIhJhKhIhshshLhzhAhBhChMhxhzhGhshN",
"hphphqhqhphOhPhQhRhShThUhPhVhWhXhYhZh0h1h2h3h2h4h5hSh6hPhPh7h8h9hYhZi.hZhWh6i#hY"};
