/* XPM */
static char *dummy[]={
"40 40 870 2",
"kx c #3d372c",
"iZ c #463f32",
"gJ c #453f32",
"ds c #443e31",
"lJ c #28231a",
"hP c #423b30",
"fD c #413b30",
"iY c #6a6557",
"cV c #2c251b",
"lr c #322c20",
"fi c #2b2319",
"gI c #6a6456",
"ay c #332d21",
"gt c #2c251b",
"hy c #2b2419",
"a1 c #3d372c",
"dr c #696455",
"iE c #2c251b",
"ka c #2b2419",
"iX c #635d4f",
"gH c #645f50",
"dq c #666051",
"cU c #3f382c",
"kw c #585042",
"hO c #615a4c",
"fC c #625c4d",
"gs c #3f382c",
"cT c #3d372c",
"gr c #3e382c",
"iD c #3f382c",
"fh c #362e23",
"hx c #362f24",
"iC c #3f392d",
"k# c #373024",
"hX c #080808",
"ht c #090909",
"i. c #0a0a0a",
"iR c #0b0b0b",
"fS c #0c0c0c",
"f2 c #0d0d0d",
"fv c #0e0e0e",
"eN c #0f0f0f",
"eO c #101010",
"fR c #111111",
"ej c #121212",
"ei c #131313",
"eg c #141414",
"g3 c #151515",
"fb c #161616",
"gn c #171717",
"g# c #181818",
"eh c #191919",
"f# c #1a1a1a",
"fw c #1b1b1b",
"eK c #1c1c1c",
"go c #1d1d1d",
"eP c #1e1e1e",
"he c #1f1d37",
"j2 c #1f1e31",
"hZ c #1f1e3a",
"eM c #1f1f1f",
"j1 c #201c20",
"eL c #202020",
"lB c #211e17",
"in c #211f33",
"fx c #212121",
"lD c #221e17",
"hv c #22203b",
"fa c #222222",
"lE c #23201a",
"il c #232323",
"lC c #24201a",
"ls c #24211b",
"j7 c #242137",
"g5 c #24223e",
"lH c #26221b",
"jE c #26232f",
"lI c #27231b",
"jM c #272540",
"j3 c #272640",
"gT c #272641",
"lz c #28241c",
"lA c #28241d",
"gG c #282641",
"f. c #282828",
"lt c #29241d",
"iT c #292843",
"ia c #2a2842",
"li c #2b261c",
"ln c #2b261d",
"lv c #2b261e",
"lu c #2b271e",
"jb c #2b2944",
"j9 c #2c251b",
"cK c #2c271e",
"lG c #2c271f",
"hk c #2d271c",
"cO c #2d271e",
"ly c #2d2820",
"jo c #2d2a35",
"js c #2d2b45",
"jU c #2e271d",
"iv c #2e281f",
"lx c #2e2920",
"lF c #2e2a21",
"cs c #2f281d",
"ge c #2f291d",
"eZ c #30291d",
"hh c #302a1d",
"lw c #302c22",
"jS c #312a1d",
"gq c #312f48",
"id c #322c20",
"iO c #322f2e",
"ix c #32314a",
"bY c #332c20",
"ao c #332c22",
"ld c #332d22",
"av c #342c22",
"hF c #352f25",
"kU c #353024",
"cP c #353027",
"k8 c #363025",
"cL c #363027",
"k6 c #363125",
"cB c #363127",
"hM c #36344a",
"aa c #372f22",
"jQ c #373023",
"eD c #373024",
"bw c #373025",
"kh c #373026",
"fW c #373125",
"h4 c #373126",
"kk c #373127",
"gk c #373128",
"at c #373129",
"gf c #373228",
"eu c #383124",
"g8 c #383125",
"cI c #383227",
"kr c #383228",
"ap c #383229",
"iw c #383329",
"gb c #38354c",
"jy c #393224",
"jA c #393225",
"fq c #393328",
"iq c #393329",
"e1 c #39332a",
"dZ c #3a3326",
"fg c #3a3327",
"cC c #3a3328",
"je c #3a3426",
"hw c #3a3427",
"an c #3a3428",
"aR c #3a3429",
"lo c #3a352a",
"k. c #3b3427",
"gg c #3b3428",
"cH c #3b3429",
"cJ c #3b3529",
"e4 c #3b352a",
"lj c #3b362b",
"cE c #3c3529",
"gj c #3c352a",
"cg c #3c362a",
"j8 c #3c362b",
"le c #3c372b",
"f4 c #3c394e",
"cM c #3d3529",
"cD c #3d3629",
"#7 c #3d362a",
"hj c #3d362b",
"iu c #3d372b",
"fU c #3d3a4f",
"gi c #3e362a",
"gh c #3e372a",
"#3 c #3e372b",
"#W c #3e372c",
"hq c #3e382b",
"e5 c #3e382c",
"aq c #3f372c",
"ir c #3f382b",
"au c #3f382c",
"cG c #3f382d",
"ar c #3f392c",
"ax c #3f392d",
"iI c #3f392e",
"iN c #3f392f",
"aw c #3f3a2f",
"i9 c #3f3a37",
"#H c #40382a",
"jw c #40382b",
"er c #40382c",
"e2 c #40392d",
"it c #40392e",
"hn c #403a2d",
"gy c #403a2f",
"lq c #41392d",
"lf c #413a2d",
"lm c #413a2e",
"lk c #413b2d",
"jX c #413b2e",
"ho c #413b2f",
"kF c #413b30",
"d9 c #423a2c",
"g7 c #423a2d",
"lh c #423a2e",
"eC c #423b2d",
"cQ c #423c2f",
"jY c #423c30",
"d. c #423c31",
"gX c #433b2d",
"ji c #433b2e",
"lp c #433b2f",
"cN c #433c2f",
"cF c #433c30",
"hm c #433c31",
"hl c #433e32",
"jP c #443c2e",
"jW c #443d31",
"j0 c #443d32",
"cR c #443e31",
"jV c #444033",
"aH c #444037",
"eY c #453e2e",
"lg c #453e2f",
"cS c #453e31",
"iA c #453f31",
"e3 c #453f32",
"jZ c #454034",
"hg c #463e2f",
"jR c #463f2f",
"cr c #463f31",
"is c #463f32",
"hi c #464032",
"iB c #464033",
"## c #473f30",
"gd c #473f31",
"cf c #474031",
"cm c #474032",
"hp c #474033",
"jT c #474133",
"ii c #474354",
"am c #484034",
"#C c #484132",
"bT c #484133",
"as c #484134",
"al c #484234",
"bn c #484235",
"hJ c #484350",
"j6 c #484559",
"bO c #494133",
"dU c #494136",
"ll c #494233",
"#w c #494234",
"e0 c #494335",
"bh c #494336",
"k2 c #4a4133",
"dQ c #4a4150",
"eX c #4a4233",
"h7 c #4a4234",
"jc c #4a4236",
"#o c #4a4335",
"fM c #4a4337",
"hf c #4b4334",
"dD c #4b4337",
"kV c #4b4434",
"d2 c #4b4436",
"k7 c #4b4534",
"k9 c #4b4535",
"fA c #4b4856",
"d8 c #4c4334",
"i6 c #4c4438",
"ki c #4c4537",
"gM c #4c4538",
"gW c #4d4435",
"i1 c #4d4539",
"jh c #4e4435",
"k1 c #4e4535",
"lc c #4e4536",
"#V c #4e4637",
"kb c #4e4638",
"en c #4e4754",
"iW c #4e483a",
"lb c #4f4636",
"#2 c #4f4637",
"#6 c #4f4738",
"hd c #4f4b5d",
"c. c #504839",
"jg c #514738",
"g1 c #51473a",
"bN c #514837",
"bS c #514838",
"cc c #514939",
"if c #51493a",
"eq c #514a4d",
"cn c #514b3d",
"eW c #514b44",
"ic c #524838",
"d7 c #524839",
"h6 c #524938",
"a. c #524939",
"kY c #524a38",
"f6 c #524a39",
"dR c #524a49",
"do c #524c3d",
"ch c #524c3e",
"b9 c #524d3e",
"ft c #524e5c",
"ha c #524e5e",
"im c #525060",
"jv c #534939",
"gc c #534a3a",
"kX c #534b39",
"ce c #534b3a",
"hE c #534b3e",
"k4 c #534c39",
"eA c #534c3a",
"#5 c #534c3b",
"hG c #534c3e",
"#Y c #534d3b",
"f7 c #534e3f",
"ko c #534f43",
"fP c #534f60",
"eV c #534f61",
"h# c #54493b",
"eB c #544a3a",
"cl c #544b3a",
"c# c #544b3b",
"f8 c #544b3c",
"k0 c #544c3a",
"cp c #544c3b",
"ey c #544d3b",
"hz c #544d3e",
"fp c #544d3f",
"kn c #544d40",
"ep c #544d52",
"f5 c #544e40",
"f1 c #545062",
"jC c #554b3a",
"jO c #554b3b",
"ky c #554c3a",
"#Z c #554c3b",
"ck c #554c3c",
"kG c #554d3a",
"io c #554d3b",
"fr c #554e3f",
"ie c #554f40",
"f9 c #555163",
"cd c #564d3c",
"aQ c #564f41",
"eo c #565057",
"g9 c #56513e",
"jB c #56523e",
"km c #565245",
"gl c #565264",
"#9 c #574d3e",
"cq c #574e3d",
"#S c #57503d",
"ke c #575042",
"kt c #575142",
"ea c #575153",
"kf c #575245",
"kd c #575246",
"ks c #575346",
"#U c #584e3d",
"jk c #584f3b",
"jn c #584f3c",
"ip c #584f3d",
"#n c #584f3e",
"l. c #58503b",
"gZ c #58503c",
"k3 c #58513c",
"ev c #58513d",
"aV c #585142",
"hB c #585144",
"kp c #585345",
"de c #585460",
"ff c #585465",
"j4 c #585766",
"ew c #594f3d",
"#v c #594f3e",
"et c #59503c",
"kZ c #59503d",
"l# c #59503e",
"kW c #59513c",
"dY c #59513d",
"gV c #59513e",
"aS c #595243",
"kq c #595244",
"hN c #595344",
".6 c #595346",
"eb c #595359",
"k5 c #5a503d",
"g6 c #5a503e",
"jz c #5a503f",
"a# c #5a513e",
"#0 c #5a523e",
"es c #5a5240",
"la c #5a5241",
"iH c #5a5244",
"bv c #5a5341",
"aI c #5a5343",
"kg c #5a5344",
"kj c #5a5345",
"#X c #5a5446",
".3 c #5a5447",
"#8 c #5a5545",
"#4 c #5a5547",
"eE c #5a5557",
"jF c #5a5868",
"ci c #5b513e",
"#F c #5b523f",
"dX c #5b5241",
"ez c #5b533f",
"h3 c #5b5342",
"iV c #5b5345",
"fV c #5b5442",
"gx c #5b5446",
"kv c #5b5447",
"ex c #5b5547",
".U c #5b5548",
"kl c #5b5648",
"#T c #5c523f",
"dT c #5c5240",
"dB c #5c5241",
"#G c #5c533e",
"ca c #5c533f",
"dF c #5c5341",
"gU c #5c5342",
"f0 c #5c5441",
"hD c #5c5546",
"hC c #5c564a",
"iM c #5c5749",
"d1 c #5d523f",
"#r c #5d533f",
"#z c #5d5340",
"i0 c #5d5341",
"dC c #5d5342",
"ig c #5d5440",
"i8 c #5d5442",
"i5 c #5d5443",
"kL c #5d5542",
"fm c #5d5547",
"c9 c #5d5647",
"kc c #5d5749",
"dw c #5d574a",
"aC c #5d574e",
"dj c #5d5865",
"#m c #5e523f",
"h. c #5e5440",
"ju c #5e5441",
"dG c #5e5443",
"bI c #5e5540",
"cb c #5e5541",
"dW c #5e5542",
"gL c #5e5544",
"co c #5e5642",
"jN c #5e5643",
"gQ c #5e5645",
"dn c #5e5647",
"e. c #5e5742",
"iJ c #5e5747",
"fo c #5e5748",
"dI c #5e5856",
"ak c #5e594d",
"bP c #5f5540",
"jx c #5f5640",
"bV c #5f5641",
"ih c #5f5642",
"cj c #5f5643",
"gO c #5f5644",
"dA c #5f5645",
"jj c #5f5742",
"kT c #5f5746",
"aM c #5f5749",
"jm c #5f5843",
"fB c #5f5848",
"aX c #5f5849",
"dp c #5f594b",
"hA c #5f594c",
"fs c #5f594f",
"aN c #5f5a4c",
"hI c #5f5a4d",
"ec c #5f5b65",
"iP c #5f5d6a",
"jl c #605541",
"g0 c #605641",
"i3 c #605645",
"jD c #605743",
"e# c #605744",
"kE c #605745",
"dV c #605844",
"aP c #60594a",
"hH c #60594c",
"dd c #605950",
"gz c #605a4a",
"fn c #605a4b",
"ku c #605a4d",
"dJ c #605c6a",
"bW c #615741",
"gY c #615840",
"bJ c #615841",
"#1 c #615944",
"jd c #615945",
"aU c #615a4a",
"gv c #615a4c",
"aO c #615b4c",
"dc c #615b4d",
"dk c #615c54",
"hV c #615f6d",
"fZ c #625842",
"#A c #625942",
"kS c #625946",
"ib c #625a48",
"aZ c #625b4b",
"dl c #625b4d",
"c7 c #625c4d",
"fl c #625c4e",
"iL c #625c4f",
"eU c #625d6e",
"#s c #635942",
"d5 c #635943",
"kB c #635a44",
"bu c #635b47",
"iU c #635b4c",
"a0 c #635c4c",
"iF c #635e51",
".G c #64594c",
"kI c #645a44",
"bM c #645a45",
"kR c #645b44",
"bR c #645b45",
"bU c #645b46",
"#l c #645b47",
"h2 c #645c47",
"iG c #645c4c",
"gE c #645d4e",
"aY c #645d4f",
"aL c #645e50",
"df c #64606e",
"kC c #655b48",
"bH c #655c46",
"#u c #655c47",
"#B c #655c48",
"bg c #655d49",
"gw c #655d4d",
"aW c #655e50",
"#R c #655e52",
"gA c #655f50",
"gC c #655f51",
"gu c #656052",
"gD c #656053",
"kN c #665b48",
"#k c #665c47",
"#E c #665c48",
"fY c #665d47",
"d0 c #665d48",
"i4 c #665d49",
"fL c #665d4a",
"dS c #665e4a",
".9 c #665f4c",
"#j c #665f53",
"fj c #666051",
"j5 c #666571",
"iz c #666671",
"jt c #675c47",
"h5 c #675e47",
"dz c #675e4a",
"gK c #675e4b",
"#. c #675f4b",
"c8 c #675f4f",
"dm c #67604f",
"fk c #676052",
"fX c #67614d",
"bG c #67614e",
"d# c #676151",
"db c #676153",
"c6 c #676254",
"jL c #676671",
"d6 c #685d48",
"jf c #685d49",
"bQ c #685e48",
"dH c #685e4a",
"#t c #685f48",
"#y c #685f49",
"#q c #685f4a",
"kQ c #68604a",
"kO c #68604d",
"kM c #68614b",
"iK c #686153",
"aJ c #686253",
"bL c #695f49",
"gP c #695f4a",
"d4 c #69604a",
"kJ c #69604d",
"kD c #69614e",
"kH c #69624c",
"#D c #69624f",
"aT c #696253",
"aK c #696254",
"bq c #6a614a",
"bf c #6a614c",
"fK c #6a614d",
"fO c #6a614e",
"kz c #6a624c",
".5 c #6a624e",
".1 c #6a624f",
"kK c #6a634f",
"gB c #6a6354",
"iS c #6a6973",
"bc c #6b614b",
"bK c #6b614c",
"fG c #6b624b",
"bX c #6b624c",
"hS c #6b624d",
".S c #6b624f",
"dy c #6b634c",
"kP c #6b634f",
".Z c #6c634c",
"kA c #6c644f",
"du c #6c6451",
"bs c #6c6551",
"da c #6c6556",
".g c #6c6960",
"bb c #6d644e",
"bt c #6d654f",
"h1 c #6d6550",
"h0 c #6d6552",
"fE c #6d6752",
"hr c #6d6b78",
"bp c #6e644e",
"hQ c #6e654f",
"ba c #6e6752",
"bi c #6e6852",
"hT c #6e6853",
"bl c #6f6652",
"bo c #6f6853",
"e6 c #6f6c79",
"ja c #6f6e77",
"be c #706752",
"hU c #706755",
"bj c #706851",
"fI c #706853",
"fH c #706856",
"dE c #706952",
"gN c #706953",
"d3 c #706b58",
".X c #716852",
"hR c #716853",
"bd c #716856",
"bk c #716857",
"fN c #716952",
"fF c #716953",
"br c #716957",
"i2 c #716a53",
"i7 c #716a54",
".8 c #716a55",
"#p c #716b58",
"#x c #716b59",
"dx c #726a53",
"fJ c #726a54",
".Y c #726a55",
".2 c #726c59",
"b8 c #726e63",
"bm c #736b55",
".R c #736b56",
".T c #736c59",
".0 c #746c57",
".Q c #746c58",
"dv c #746d5a",
"dt c #756d59",
"jr c #76777d",
"cA c #777469",
"e9 c #777ea7",
"bF c #787468",
"#Q c #797367",
"hu c #797c77",
"fc c #797ea6",
"hc c #797f8a",
"hL c #7b8285",
"dg c #7c7a86",
".W c #7d7560",
".P c #7d786d",
"b# c #7d7a6e",
"j. c #7d7e83",
".l c #7f7163",
"az c #807c72",
"aG c #817f74",
"i# c #818884",
".B c #827163",
".u c #827263",
"ad c #827d70",
"aB c #847e73",
"#i c #847f73",
"ae c #868173",
"aD c #87857b",
"aA c #888377",
"di c #888691",
"g4 c #888694",
"jp c #88888d",
"af c #898376",
"ag c #898477",
"ah c #898478",
"jK c #898a8e",
"ac c #8a8376",
"b2 c #8a867a",
"aj c #8a867b",
"ab c #8b867a",
"#P c #8c877b",
"#O c #8c887a",
"aF c #8c8a80",
"ik c #8c94af",
"b7 c #8d887c",
".7 c #8d8978",
"#h c #8d897c",
"c0 c #8d8c81",
"b0 c #8e8a7e",
"eF c #8e8c92",
"dh c #8e8d96",
"em c #8f8d97",
"j# c #909599",
".i c #918574",
".E c #91897a",
".j c #91897b",
"aE c #918e84",
"h8 c #919196",
".q c #928777",
"bA c #928e80",
".A c #938675",
".t c #938a7b",
"#g c #938e80",
"ai c #938e82",
".V c #93907d",
"b1 c #939083",
"cy c #939084",
".k c #948675",
".z c #948b7b",
"bZ c #948e81",
".4 c #94917e",
".F c #958675",
"a5 c #958f83",
"by c #959082",
"a6 c #959287",
"hY c #959886",
".w c #968d7e",
".o c #968d7f",
".h c #968f81",
"c5 c #969384",
"bz c #979486",
"bB c #979488",
"b3 c #97948a",
"hK c #97979a",
"b6 c #989384",
".s c #998774",
".r c #999081",
".y c #999082",
"cx c #999488",
"bD c #999586",
"#L c #999587",
"e8 c #999bb3",
"jG c #999c9a",
"jI c #999e9b",
".D c #9a8a7a",
".b c #9a9b93",
"#K c #9b9587",
"#N c #9b9688",
"a4 c #9b9689",
"b5 c #9b9888",
"b. c #9b988b",
".d c #9b9b92",
"a3 c #9c988a",
"Qt c #9c9d96",
".N c #9d9a8f",
".f c #9d9e95",
"bx c #9e9b8c",
"cz c #9e9c91",
".e c #9fa097",
".C c #a0998c",
"#J c #a09b8c",
"#f c #a09c8d",
".O c #a09e93",
"cv c #a09f95",
".n c #a29381",
"a2 c #a29e90",
"ed c #a29ea6",
".# c #a2a39b",
"iy c #a2a6a1",
".v c #a39481",
"ct c #a3a298",
"fz c #a3a4a0",
"jJ c #a3a8a3",
"a9 c #a4a194",
".c c #a4a59d",
"hW c #a4a6a5",
".p c #a59586",
".x c #a59686",
".a c #a5a69f",
"eQ c #a5b3df",
"cu c #a6a59b",
"iQ c #a6aba6",
".m c #a79e8e",
"#e c #a7a494",
"bE c #a7a495",
"#c c #a7a497",
"a8 c #a8a698",
"hb c #a8a9a9",
"#b c #a9a597",
"ij c #a9aca9",
"#d c #aaa797",
"cw c #aaa89d",
".M c #aaa89f",
"hs c #aaacac",
"h9 c #aaaeae",
"#M c #aba99a",
"cZ c #abaa9c",
"dP c #acacb4",
".L c #adaba0",
"cX c #aeada0",
"jH c #aeb2ac",
"jq c #afb3ad",
"#I c #b0aea1",
"#a c #b2b0a2",
"cY c #b2b2a5",
"b4 c #b3b0a2",
".K c #b3b1a7",
"bC c #b3b2a3",
"c3 c #b6b5a9",
"c4 c #b6b6aa",
".J c #b7b7ae",
"cW c #b7b8ad",
".I c #b9b8af",
"c2 c #b9baad",
"a7 c #babaaf",
"c1 c #bdbfb2",
".H c #c0c1ba",
"ef c #c0c5d2",
"gS c #c5c6cd",
"fe c #c9c7ce",
"eJ c #c9cbce",
"fy c #cacbda",
"gp c #cfcfd7",
"ek c #d0d2e1",
"ga c #d1d0d7",
"eG c #d2d1d4",
"dN c #d2d3e2",
"eT c #d4d3d7",
"gR c #d8d7df",
"dM c #dcdae0",
"e7 c #dcdce0",
"f3 c #dcdce1",
"g2 c #dfdee2",
"fT c #e1e1e5",
"fu c #e3e3e8",
"g. c #e3e3eb",
"gm c #e4e4eb",
"gF c #e6e5ec",
"fQ c #e7e7ed",
"dK c #e9e8ea",
"fd c #f0f1f5",
"dL c #f6f8ef",
"ee c #f9f9f8",
"el c #f9f9f9",
"eS c #fbfbfb",
"dO c #fbfff5",
"eR c #fcfcfe",
"eI c #fffefd",
"eH c #ffffff",
"Qt.#.#.a.b.c.d.e.f.g.h.i.j.k.l.m.n.o.p.q.r.s.t.k.u.m.v.w.x.q.y.s.z.A.B.C.D.E.F.G",
".H.I.J.K.L.L.M.N.O.P.Q.R.S.T.U.V.W.X.Y.Z.Q.0.1.2.3.4.W.X.Y.Z.Q.Q.5.2.6.7.8.9#.##",
"#a#b#c#d#e#f#g#h#i#j#k#l#m#n#o#p#q#r#s#t#k#u#m#v#w#x#y#z#A#t#u#B#m#v#C#D#E#F#G#H",
"#I#J#K#L#M#N#O#P#Q#R#S#T#U#V#W#X#Y#Z#0#1#S#T#U#2#3#4#5#Z#0#1#S#T#U#6#7#8#9a.a#aa",
"abacadaeafagahaiajakalam#3anaoapaqar#Wasalam#3anaoatauauaqasasam#3anavawaxau#7ay",
"azajaAaBaCaDaEaFaGaHaIaJaKaLaMaNaOaPaQaRaSaJaTaLaMaNaOaUaQaRaVaJaTaWaXaYaZa0aOa1",
"a2a3a4a5a6a7a8a9b.b#ba.Xbbbcbdbe.Ybfbgbhbibjbbbcbkblbmbfbgbnbobjbpbqbrbsbtbubvbw",
"bxbybzbAbBbCbDbEa3bFbGbHbIbJbKbLbM#rbNbObGbHbPbJbKbQbR#rbSbTbGbUbVbWbXbQbR#rbSbY",
"bZb0b1b2b3b4b5b6b7b8b9c.c#cacbcccdcecfcgchc.c#cicjccckclcmcgcnc.c##Tcocpcqa.crcs",
"ctcuctcvctcwcxcyczcAcBcCcDcEcFcGcHcIcJcKcLcCcDcMcNcGcHcIcJcOcPcCcDcMcQcRcScTcUcV",
"cWcXcYcZc0c1c2c3c4c5c6c7c8c9d.aZd#dadbdcc6dddedfdgdhdidjdkdcc6dldmdnd.dodpdqdrds",
"dt.0dudvdw.V.Wdx.RdydzdAdBdCdDdEdFdG#ldHdIdJdKdLdMdNdOdPdQdRdSdAdTdCdUdVdWdXdYdZ",
"d0#ld1#vd2d3d4d1d5#td6#zd7d8d9e.e#eaebecedeeefegeheiejekelemeneoepeqeresbP#zeteu",
"ev#zew#VcGexey#Zez#1eA#veBeCeDeEeFeGeHeIeJeieKeLeMeheNeOePeQeReSeTeUeVeWcceXeYeZ",
"e0as#3cJaoe1aue2au#we3cDe4e5e6e7e8e9f.eif#eMfaeLeLfbeNeNeNeNejfbfcfdfeffcHfgfhfi",
"aSfjfkflfmdwfnfofpfqfrflfsftfueieNfvfweMfafafafafxfbfvfvfveNeNeNeNeMfyfzfAfBfCfD",
"fEfFbbfGfHfIfJfKfLfMbifNfOfPfQeNfRfwfafafafafafafaejfvfveNeNeNeNfvfSeNfTfUfVbvfW",
"fXfYbIfZbKbLbMd1bS#wbGfYf0f1fQfvegf#ePeLfafafafafaeOfvfvfveNfvfvfvfvf2f3f4#rbSbY",
"f5cc#Z#rdWf6cqclcrcgf7ccf8f9g.eNg#f#eKePfafafafafafRfvfvfvfvfvfvfveNf2gagbgcgdge",
"gfggghgicRaxgjcIcgcOgkcH#3glgmeNehf#gngoeMfxfafafaeNfvfvfvfvfvfvfvfvf2gpgqgrgsgt",
"gugvgwgxgygzgAgBgCdpgDgvgEglgFeNgnehg#ehePeMfxfxfaeNfvfvfveNf2fvfvfvfSgpgGgHgIgJ",
"gKgLdFdCgMgNdFgO#BgPdzgQdXf9gReNeiehehfbeKgoeMfxfaeOfvfvfveNeNfvfvfvfSgSgTgUgVdZ",
"d6#zbSgWgXe.gYgZg0bcd6#zg1f1g2eNeNehehgng3ehePeMfaeOfvfvfveNeOeNfvfvf2g4g5#zeteu",
"eyg6eBg7g8g9eAc#h.e#ey#vh#hahbfafvfbehehfbfbeKePePeOfvfveNfRejejeNeNhchdhehfhghh",
"highhj#3hkhlhmhnhohphigh#7hqhrhseNejg#ehg#fbfbeKePeOfveNejfRejfReNhthuhvgghwhxhy",
"hzhAhAhAhBhCexhDhEhFhGhHhAhIhJhKf.fvg3gnehfbg#g#goeOfvejejejejfvf2hLhM.3hNfBhOhP",
"badxhQbXbdhR.YhSfLfMhTfFhQfGhUhVhWf#fRg3ehehehehfweiejejejejeNf2hXhYhZh0h1h2h3h4",
"fXh5bIfZbKbLbMd1h6h7fXfYbPbJhSbLh8h9i.eOfbehehfwfwejejejejeNfShti#iaibbQbR#ricid",
"ieif#Zigihcecq#Zcf#7f5if#Z#rihceiiijikfSeOg#fwfwfwejejejeNfSfSiliminihioipclcmge",
"iqcEiririsit#7fqiuiviwcEiririsitcHixiyfbeNfRf#fwfwejejeOfSf2eKizhv#7iAiBcmiCiDiE",
"iFdpiGiHiIiJgEiKiLiMiFdpiGiHiNc9gEiOiPiQi.eOejf#fwejeNfSiRfxiSiTiUiVgyiW.UiXiYiZ",
"gKgLi0dCi1i2gUi3i4gPdzgLi0i5i6i7i8i3i9j.j#fvfRfRg#f2fSfSeKjajbgLi0dGjcjdcjgUgVje",
"jf#zjgjhjijjgYjkjlbcd6i0d7gWg7jmgYjnh.jojpjqfxfvi.f2iRfxjrjsjtjujvgWjwesjx#zetjy",
"iojzeBg7jAjBcpcpcbdViog6jCeCeug9cpcph.jDjEjFjGjHjIjJjKjLjMjNio#vjOjPjQdoifhfjRjS",
"jTir#WaujUjVjWjXjYaljTir#WarhkjZj0jXjYalcrj1j2j3j4j5j6j7j8asbTjw#3axj9k.giggk#ka",
"kbhNkckdkekf#XkgkekhkihNkckdkekf#Xkjkekkd2kgklkmknkokpkqkekr#okjiMksktkukvhDkwkx",
"kykzkAkBkCkD.5i8kEkFkGkHkAkIkCkJkKkLkEkFkGkMbtkIkNkOkPkLkEkFkGkQbtkRkNfOkPkSkTkU",
"kVkWkXkYkZewk0k1k2fWkVk3k4kYk5ipkyk1eXk6k7k3k4kYk5ip#Zk1eXk8k9l.k0h6k5l#lalblcld",
"lelflflg#CarlhaufqliljlflklgllarlmaufqlnljlfjXlgllarlfarfqlnlohnjXlgllhnlplq#Wlr",
"lsltlulvlwlxlylzlAlBlCltlulvlwlxlylAlAlDlCltlulvlwlxlylAlAlDlEltlvlvlwlFlGlHlIlJ"};
