/* XPM */
static char *dummy[]={
"40 40 942 2",
"g2 c #000000",
"gJ c #030302",
"gD c #040403",
"gG c #050403",
"iG c #050504",
"gK c #060403",
"gF c #060503",
"gI c #060504",
"gE c #060604",
"gH c #070604",
"h1 c #070605",
"hN c #090706",
"hx c #0a0907",
"ir c #0b0a08",
"ic c #0c0b09",
"g3 c #0d0c09",
"gL c #100f0c",
"iV c #191611",
"iF c #201d15",
"iW c #211d18",
"iM c #221e19",
"iT c #242019",
"iU c #242119",
"iX c #25211b",
"iN c #26211b",
"i1 c #26221a",
"iO c #27231b",
"iP c #27231c",
"gi c #28231a",
"iq c #28231b",
"gq c #29231b",
"iS c #29241d",
"i0 c #29251d",
"iZ c #2a261e",
"jb c #2a271a",
"jf c #2a281a",
"hO c #2b251b",
"iR c #2b261e",
"iQ c #2b271e",
"iY c #2c271e",
"hH c #2d271d",
"h0 c #2d2820",
"gt c #2e291f",
"ib c #2f2a21",
"i5 c #2f2b1d",
"jk c #2f2c1e",
"ew c #302920",
"eJ c #312a20",
"iL c #322d23",
"jg c #323022",
"jc c #333122",
"gr c #342f26",
"j# c #343223",
"gh c #352f24",
"gj c #352f26",
"eO c #352f27",
"eK c #353027",
"gm c #362f24",
"go c #362f25",
"gs c #363025",
"iE c #363026",
"eF c #363027",
"ex c #363028",
"iK c #363126",
"jl c #363424",
"ja c #363425",
"je c #363525",
"eN c #373025",
"hA c #373124",
"eE c #373125",
"hM c #373227",
"mF c #373424",
"ev c #383125",
"gd c #383126",
"hF c #383227",
"i6 c #383525",
"i3 c #383526",
"i7 c #383627",
"jd c #383628",
"gp c #393226",
"gg c #393227",
"hr c #393326",
"hG c #393327",
"iH c #39342a",
"i8 c #393626",
"jm c #393627",
"jh c #393729",
"gk c #3a3327",
"eu c #3a3328",
"ge c #3a3427",
"eD c #3a3428",
"i4 c #3a3828",
"eI c #3b3428",
"iD c #3b3529",
"eY c #3b352a",
"iA c #3b362b",
"jj c #3b3929",
"j. c #3b392b",
"eM c #3c3529",
"eG c #3c352a",
"gl c #3c362a",
"i9 c #3c392a",
"ez c #3d362a",
"ey c #3d362b",
"hK c #3d372b",
"hQ c #3d372c",
"hI c #3d382d",
"iI c #3e372b",
"ep c #3e372c",
"hL c #3e382c",
"el c #3e382d",
"hP c #3e392e",
"ji c #3e3c2c",
"i2 c #3e3c2d",
"ee c #3f382d",
"gn c #3f392d",
"d9 c #3f392e",
"hq c #40392b",
"gf c #40392d",
"hJ c #40392e",
"hz c #413a2d",
"gc c #413b2e",
"jn c #413d2e",
"mE c #413e2e",
"f# c #423b30",
"hE c #423c2f",
"h7 c #423c31",
"mL c #423f2e",
"hk c #433b2d",
"iJ c #433c2e",
"iC c #433d2f",
"ii c #433d31",
"mP c #433f2f",
"mR c #434030",
"iB c #443d2e",
"fZ c #443e30",
"gy c #443e33",
"he c #453d2f",
"f3 c #453e30",
"et c #453e31",
"eC c #453e32",
"eA c #453f32",
"gP c #453f34",
"eH c #463f32",
"eL c #464033",
"mQ c #464232",
"mM c #464333",
"iz c #473f31",
"ip c #473f32",
"eB c #474033",
"es c #474133",
"mG c #474433",
"mw c #474434",
"mO c #474435",
"lL c #484232",
"mH c #484435",
"mA c #484535",
"ij c #494232",
"is c #494233",
"fO c #494234",
"l5 c #494332",
"fJ c #4a4234",
"fF c #4a4334",
"fx c #4a4437",
"mz c #4a4836",
"mN c #4a4937",
"hd c #4b4233",
"d1 c #4b4436",
"l4 c #4b4535",
"ft c #4b4538",
"mx c #4b4937",
"my c #4b4a37",
"d8 c #4c4436",
"g7 c #4c4438",
"dV c #4c4537",
"hR c #4c4538",
"lY c #4c4635",
"hw c #4c4636",
"fo c #4c4639",
"jL c #4c4937",
"jF c #4c4938",
"mC c #4c4a38",
"mJ c #4c4b38",
"io c #4d4435",
"ek c #4d4536",
"dP c #4d4638",
"lK c #4d4736",
"dI c #4d4739",
"jB c #4d4a38",
"jw c #4d4b39",
"iy c #4e4435",
"fT c #4e4637",
"f9 c #4e4638",
"fW c #4e4737",
"eP c #4e473a",
"fE c #4f4636",
"il c #4f4736",
"ga c #4f4737",
"gW c #4f473a",
"mB c #4f4c3b",
"mI c #4f4d3c",
"hc c #504637",
"iu c #504837",
"fY c #504838",
"ht c #504939",
"jI c #504e3d",
"mK c #504f3d",
"hj c #514738",
"iv c #514836",
"gb c #514838",
"hu c #514939",
"j9 c #514a37",
"ho c #514a39",
"kg c #514b37",
"kl c #514b38",
"e# c #514b39",
"f4 c #514b3d",
"mb c #514c3b",
"mn c #514e3c",
"jE c #514f3e",
"ju c #51503b",
"mD c #51503e",
"jz c #51503f",
"hy c #524838",
"im c #524937",
"ix c #524938",
"f5 c #524a39",
"g. c #524a3a",
"kr c #524c38",
"mi c #524c3c",
"f0 c #524c3e",
"mp c #524d3c",
"mt c #524d3d",
"mg c #524e3d",
"m# c #524f3d",
"jq c #52513f",
"ea c #534a39",
"eg c #534a3a",
"h8 c #534b39",
"eq c #534b3a",
"fS c #534d3e",
"f8 c #544b3b",
"id c #544c39",
"f2 c #544c3c",
"jv c #54513e",
"fX c #554c3c",
"g1 c #554d3c",
"d5 c #554f3c",
"hB c #55503e",
"ed c #564b3a",
"ej c #564b3b",
"d7 c #564c3a",
"h2 c #564e3e",
"e. c #565042",
"gC c #565043",
"hs c #56513e",
"lJ c #565140",
"ef c #565142",
"em c #565143",
"lW c #565240",
"l1 c #565241",
"m. c #565342",
"l9 c #565343",
"mm c #565443",
"iw c #574d3b",
"in c #574e3b",
"d0 c #574e3d",
"it c #574f3b",
"ku c #575240",
"lS c #575241",
"jK c #575643",
"js c #575743",
"dU c #584e3d",
"hp c #584e3e",
"dH c #584f3d",
"gY c #584f3e",
"ik c #58513c",
"lk c #585140",
"ki c #585241",
"ky c #585242",
"kd c #585342",
"lX c #585443",
"jt c #585743",
"hh c #59503d",
"hm c #59513d",
"fV c #59513f",
"hS c #595141",
"lt c #595241",
"kI c #595242",
"kP c #595343",
"ei c #5a503e",
"d6 c #5a503f",
"gU c #5a5040",
"en c #5a513e",
"f1 c #5a513f",
"eb c #5a523e",
"f7 c #5a523f",
"eX c #5a5244",
"lz c #5a5341",
"e2 c #5a5344",
"lF c #5a5442",
"l3 c #5a5544",
"mu c #5a5644",
"j3 c #5a5742",
"jR c #5a5743",
"ms c #5a5744",
"ml c #5a5745",
"jp c #5a5945",
"dL c #5b513d",
"dS c #5b513e",
"g6 c #5b5140",
"gV c #5b5141",
"f6 c #5b523e",
"fU c #5b523f",
"g# c #5b5240",
"hf c #5b543f",
"jS c #5b5843",
"me c #5b5845",
"jy c #5b5a46",
"hb c #5c513f",
"dX c #5c523e",
"fI c #5c523f",
"g9 c #5c5241",
"fH c #5c533e",
"hC c #5c5340",
"ia c #5c5342",
"hl c #5c5541",
"dA c #5c5548",
"lO c #5c5846",
"lV c #5c5847",
"jD c #5c5a47",
"jH c #5c5b47",
"dG c #5d523f",
"hi c #5d5240",
"fR c #5d533f",
"gZ c #5d5342",
"fP c #5d543f",
"hv c #5d5440",
"gT c #5d5443",
"dv c #5d5649",
"l6 c #5d5847",
"l0 c #5d5948",
"l8 c #5d5a48",
"jr c #5d5e49",
"dT c #5e5340",
"g5 c #5e5544",
"ec c #5e5642",
"eh c #5e5742",
"lG c #5e5745",
"dp c #5e574a",
"lZ c #5e5947",
"lT c #5e5a48",
"mq c #5e5a49",
"jQ c #5e5b47",
"mk c #5e5b49",
"jU c #5e5c47",
"jA c #5e5e49",
"jJ c #5e5f49",
"eo c #5f5742",
"hD c #5f5743",
"hZ c #5f5749",
"lA c #5f5846",
"dg c #5f594b",
"jT c #5f5b48",
"lM c #5f5b49",
"md c #5f5b4a",
"jZ c #5f5c47",
"jo c #5f5e4a",
"er c #605843",
"h6 c #605849",
"lu c #605947",
"e7 c #605949",
"hV c #605b4c",
"mf c #605f4c",
"mv c #60604c",
"hn c #615742",
"ll c #615a48",
"e3 c #615a49",
"gx c #615a4a",
"hW c #615b4b",
"h3 c #615b4c",
"h4 c #615c4e",
"hg c #625841",
"fM c #625842",
"fD c #625843",
"h. c #625845",
"fA c #625942",
"fN c #625944",
"dF c #625945",
"gO c #625a4b",
"eZ c #625b4a",
"eQ c #625b4b",
"hX c #625c4e",
"h5 c #625d4d",
"jP c #625e4b",
"jY c #625f4b",
"l2 c #625f4c",
"mo c #625f4e",
"mj c #625f4f",
"mh c #62604e",
"ig c #635846",
"d3 c #635942",
"fQ c #635944",
"dO c #635945",
"g0 c #635946",
"dM c #635a43",
"dZ c #635a46",
"hY c #635d4e",
"j2 c #635f4b",
"j6 c #635f4c",
"lP c #63604c",
"ma c #63604e",
"mc c #63604f",
"kZ c #645e4c",
"kk c #645f4c",
"kq c #64604c",
"mr c #646150",
"fL c #655c46",
"fi c #655c49",
"eW c #655d4d",
"e9 c #655d4e",
"eT c #655d4f",
"e6 c #655e4d",
"f. c #655e4e",
"kT c #655f4d",
"hT c #655f4f",
"lR c #65624f",
"dY c #665c47",
"fz c #665d47",
"dE c #665d48",
"g4 c #665e4a",
"lj c #665f4c",
"ls c #66604d",
"eV c #666050",
"eU c #666051",
"e5 c #666052",
"kv c #66624e",
"lQ c #66624f",
"j1 c #66634f",
"jN c #66654f",
"ha c #675d48",
"dR c #675e48",
"dK c #675e49",
"gS c #675f4b",
"dn c #675f4c",
"ie c #67604a",
"fy c #67604d",
"kN c #67604e",
"gv c #676051",
"fG c #67614d",
"fK c #67614e",
"jX c #67634f",
"jO c #67644f",
"fC c #685e48",
"dN c #685f48",
"fh c #685f4a",
"fn c #685f4b",
"de c #685f4d",
"dD c #686049",
"i. c #68604a",
"ih c #68604c",
"gR c #686151",
"kF c #686250",
"fc c #696049",
"d4 c #69604a",
"if c #69614b",
"i# c #69614e",
"h9 c #69624c",
"kc c #696551",
"jV c #696652",
"fr c #6a604a",
"fB c #6a604b",
"ds c #6a614a",
"dl c #6a614b",
"gX c #6a634d",
"fa c #6a634e",
"fj c #6a644e",
"hU c #6a6453",
"eS c #6a6454",
"e1 c #6a6455",
"kh c #6a6652",
"j4 c #6a6752",
"j7 c #6a6753",
"fl c #6b614b",
"fd c #6b624c",
"h# c #6b624d",
"gw c #6b6352",
"fp c #6b644f",
"gQ c #6b6452",
"fu c #6b6550",
"lB c #6b6652",
"ko c #6b6653",
"ks c #6b6752",
"km c #6b6753",
"kn c #6b6853",
"j5 c #6b6953",
"j0 c #6b6954",
"gN c #6c6352",
"g8 c #6c654f",
"dJ c #6c6653",
"gA c #6c6656",
"lm c #6c6753",
"kt c #6c6754",
"k# c #6c6853",
"jW c #6c6a54",
"jx c #6c6c58",
"jC c #6c6d58",
"dQ c #6d6653",
"gz c #6d6655",
"dW c #6d6754",
"gu c #6d6758",
"gM c #6d6759",
"k. c #6d6954",
"j8 c #6d6a56",
"jG c #6d6d59",
"dk c #6e6550",
"dr c #6e6650",
"d2 c #6e6855",
"e8 c #6e6858",
"lc c #6e6956",
"dj c #6f654e",
"dx c #6f654f",
"dC c #6f6650",
"fe c #6f6654",
"fg c #6f6751",
"fm c #6f6754",
"e4 c #6f6858",
"eR c #6f6859",
"kf c #6f6c58",
"dd c #706752",
"fs c #706755",
"fq c #706851",
"dm c #706852",
"fv c #706853",
"e0 c #706959",
"dz c #706a57",
"lh c #706b57",
"lo c #706c58",
"lw c #706c59",
"lD c #706d59",
"fk c #716851",
"du c #716853",
"fb c #716951",
"fw c #716953",
"dy c #716954",
"do c #716a57",
"df c #716b58",
"lH c #716d59",
"lE c #716d5a",
"lx c #716e5a",
"jM c #71715d",
"ap c #72521a",
"ff c #726954",
"dt c #726a56",
"kE c #726d59",
"ly c #726d5a",
"lp c #726e5a",
"kp c #726f5a",
"dc c #736b57",
"gB c #736b5b",
"kM c #736e5b",
"kj c #736f5a",
"ke c #73705b",
"ka c #74725c",
"kS c #756f5c",
"lg c #75705d",
"kb c #75715c",
"l7 c #75715f",
"lU c #757260",
"kY c #76705d",
"k5 c #76715d",
"lr c #76715f",
"lI c #76725f",
"lN c #767260",
"l. c #77715e",
"k1 c #77725e",
"k3 c #77725f",
"k6 c #77735f",
"lC c #77745f",
"li c #787260",
"k4 c #78735f",
"lv c #78745f",
"ln c #787460",
".z c #79561f",
"ld c #797361",
"lq c #797462",
"di c #7a725d",
"l# c #7b7563",
"kW c #7b7564",
"bP c #7c5f24",
"kQ c #7c7664",
".u c #7d5517",
"k7 c #7d7764",
"kJ c #7d7765",
"ai c #7e5a18",
"k0 c #7e7864",
"kz c #7e7866",
"k2 c #7e7965",
"k9 c #7e7966",
"kX c #7e7967",
"kR c #7e7a67",
"aP c #7f5c23",
"la c #7f7965",
"lb c #7f7966",
"le c #7f7a66",
"kC c #7f7a68",
"c9 c #827b67",
"kw c #827c6a",
".t c #835a18",
"bI c #83611f",
"c3 c #837b68",
"cP c #837c68",
"kG c #837d6b",
"lf c #837e6c",
"k8 c #837e6d",
"kO c #847e6c",
"kU c #847f6d",
"#r c #855916",
"#k c #855a16",
"kV c #857f6d",
"kx c #857f6e",
"kH c #85806e",
"kB c #85816f",
"#e c #865a17",
"aK c #865e1e",
"#v c #866225",
"kL c #86816f",
".8 c #875b17",
"aL c #875f19",
"kK c #87816f",
"kA c #878170",
"au c #885f18",
"aB c #885f19",
"#X c #886021",
"#o c #895f1a",
".l c #8b5e19",
"dh c #8b8673",
"kD c #8b8674",
"dq c #8c8774",
".g c #8d5f1a",
"bs c #8d6720",
"dw c #8d8875",
"aO c #8e601b",
"bi c #8e6720",
"dB c #8e8976",
"aJ c #8f601c",
"aD c #8f611c",
"bM c #8f6720",
"ax c #90611c",
"bH c #906720",
"bF c #906820",
"db c #908973",
"bO c #916720",
"bK c #916821",
"bw c #916920",
"bD c #916922",
".# c #92621a",
"bt c #926922",
"bm c #926a20",
".j c #93621a",
".o c #93631a",
".v c #93631b",
"#n c #93661c",
"#g c #93671c",
"bj c #936a22",
"#R c #94651c",
"ay c #946621",
"#a c #94671d",
"#b c #946a1c",
"c0 c #958e77",
"c2 c #958f79",
".w c #966219",
"#7 c #96681c",
"cM c #968f78",
"cO c #96907a",
"cN c #96917d",
".q c #976219",
".b c #97631a",
"aw c #97641b",
".f c #97651b",
"cV c #97917d",
"c1 c #97927d",
"c8 c #97927e",
"av c #98651b",
".k c #98661c",
"at c #98681f",
"aA c #986820",
"aI c #99661b",
".e c #99661d",
"aH c #996820",
"bC c #996e23",
"aN c #9a661b",
".y c #9a661c",
".r c #9a661d",
".s c #9a671c",
"bA c #9a6d22",
"bq c #9a6e22",
"bJ c #9a6e23",
"cY c #9a937d",
".a c #9b651c",
"aM c #9b661c",
"aC c #9b671c",
".c c #9b681a",
"az c #9b6b20",
"aE c #9b6b23",
"br c #9b7325",
"cU c #9b937d",
".p c #9c651c",
".d c #9c671c",
".x c #9c681c",
"aq c #9c6c21",
"#c c #9c6e1e",
".5 c #9d691d",
".i c #9d6a1f",
"Qt c #9d6b1f",
".4 c #9d6f1e",
"#h c #9d701e",
".3 c #9e742c",
"ar c #9f6c1f",
".h c #a0691c",
"#F c #a06b1d",
"cR c #a09a83",
"cW c #a09a84",
".X c #a17020",
"cK c #a17c2e",
"c5 c #a19a84",
"d# c #a19b85",
".n c #a26c1f",
"aF c #a26e23",
".7 c #a2701e",
"ab c #a2701f",
"## c #a2711f",
"bB c #a27827",
"bl c #a27a27",
"cL c #a29b84",
"cZ c #a29b85",
"c7 c #a29c85",
"#d c #a3711e",
"#f c #a37220",
"bv c #a37b27",
"cS c #a39c85",
"cT c #a39d88",
"#j c #a4711e",
"bE c #a47c27",
"cX c #a49e89",
"#q c #a5721e",
"#m c #a57320",
"bL c #a57c27",
"#u c #a67420",
"#t c #a67521",
"#l c #a67522",
"#s c #a67820",
".m c #a76c1d",
".6 c #a7731f",
"#. c #a77622",
".9 c #a77921",
"c6 c #a7a08a",
"da c #a7a18b",
"as c #a87224",
"bh c #a87f30",
"aG c #a97224",
"ch c #aa8237",
"#i c #ae7822",
"#p c #ae7922",
"#0 c #af7921",
"ba c #af812b",
"#9 c #b07a21",
"cQ c #b0ab95",
"c4 c #b0ac95",
"#M c #b17620",
"ad c #b17b21",
"d. c #b1ac96",
"ak c #b27c22",
"co c #b2862f",
"cG c #b28830",
"#L c #b37b2b",
"#W c #b37c2c",
"bp c #b37f29",
"b# c #b38129",
"cv c #b3872f",
"#A c #b4741f",
"#I c #b4751f",
".B c #b47b24",
"#E c #b47c2b",
"#Q c #b47c2c",
"#4 c #b47f23",
"bz c #b47f2a",
"aa c #b48023",
"a5 c #b4822a",
"cD c #b4882f",
".L c #b57c25",
".S c #b57d25",
"an c #b58023",
"bG c #b5802a",
"bx c #b58329",
"bn c #b5842a",
"cI c #b58830",
".Z c #b67d25",
"bN c #b6812a",
"aY c #b6842b",
"by c #b68529",
"bk c #b6872d",
"cr c #b68b32",
"bo c #b7852a",
"bu c #b7872d",
"ck c #b78d32",
"cB c #b88d33",
"c# c #b98b36",
"#T c #ba7922",
"#y c #ba7e23",
"#B c #bb7a22",
"#D c #bb7f29",
"cy c #bb8e34",
"#x c #bc7d28",
"#K c #bc8029",
"#P c #bd8129",
"#z c #be7e23",
"#V c #be8229",
"#H c #bf7e23",
"aU c #bf8729",
"a3 c #bf882a",
"aZ c #bf8b32",
"al c #c08424",
"#G c #c08527",
".E c #c08725",
"a8 c #c0882a",
"be c #c0892a",
"bX c #c08e41",
"cg c #c08e42",
".T c #c18128",
".C c #c18129",
"ae c #c18525",
".2 c #c18725",
"c. c #c18e42",
"#w c #c28527",
"a. c #c28625",
".W c #c28726",
"cd c #c28b39",
"#8 c #c28c27",
"b1 c #c28c39",
"bU c #c28c3a",
"#1 c #c38725",
"bV c #c39042",
".P c #c48926",
"bT c #c48e38",
"bW c #c49148",
"bY c #c49239",
"b3 c #c49248",
".F c #c5892d",
"aj c #c58b27",
"bR c #c58d39",
"#Y c #c58e28",
"b0 c #c58f38",
"ce c #c59036",
"b9 c #c59348",
"#N c #c68328",
"ag c #c68826",
".0 c #c6892d",
".G c #c6892e",
".I c #c68a27",
".N c #c68a2d",
"ac c #c68c27",
"cb c #c68d38",
"b8 c #c69036",
"b7 c #c69038",
"b2 c #c69136",
"cf c #c69348",
"#S c #c78428",
"#5 c #c78826",
".U c #c7892d",
".M c #c78a2d",
"a6 c #c79236",
".H c #c8892a",
".D c #c88a2d",
".J c #c98928",
".O c #c98b2a",
"ah c #c98d29",
"cc c #c99439",
"cx c #c9993e",
"cH c #c99c3b",
"cC c #c99d3b",
"#U c #ca8e27",
"ao c #ca8e29",
"aX c #ca8e2e",
"#O c #ca8f28",
"bf c #ca8f2f",
"b6 c #ca9539",
"b4 c #ca963b",
"cq c #ca993e",
"ct c #ca9d3b",
".V c #cb8c2b",
"#6 c #cb8f2a",
"a9 c #cb8f30",
"#J c #cb9028",
"aV c #cb9030",
"aW c #cb9031",
"bZ c #cb9539",
"bS c #cb9639",
"cl c #cb9d3b",
".1 c #cc8c2b",
"a4 c #cc902e",
"#C c #cc9128",
"#3 c #cd9028",
"a# c #cd9128",
"b5 c #cd9336",
"af c #ce9128",
"b. c #ce912f",
"ca c #ce9437",
"cJ c #ce9f46",
"bg c #cf9230",
"bb c #cf9430",
"a1 c #cf9431",
"aR c #cf9531",
"cE c #cf9f46",
"a7 c #d09735",
"bQ c #d09836",
"cw c #d0a046",
"cp c #d0a047",
".Y c #d2902c",
".R c #d2912d",
"cF c #d2a040",
"#Z c #d3962b",
"a0 c #d39a34",
"cA c #d49d3a",
".Q c #d5902a",
"aQ c #d59b34",
"cj c #d59e3a",
"am c #d6982b",
"bd c #d69837",
".K c #d6992e",
"a2 c #d69937",
"#2 c #d7982b",
"aT c #d79937",
"cz c #d7a23c",
".A c #d89b2f",
"cs c #d8a43d",
"aS c #d99d3a",
"ci c #d9a53d",
"bc c #da9d3a",
"cm c #dba740",
"cn c #dda941",
"cu c #dda942",
"Qt.#.a.b.c.d.e.f.g.h.i.j.a.b.c.d.e.k.l.m.n.o.p.q.c.d.r.s.t.u.n.v.p.w.c.x.y.s.t.z",
".A.B.C.D.E.F.G.H.I.J.K.L.C.M.E.N.G.O.P.Q.R.S.T.U.E.N.G.V.W.X.Y.Z.T.0.E.N.G.1.2.3",
".4.5.6.7.8.9#.###a#b#c.5.6#d#e.9#.#f#g#h#i.5.6#j#k.9#l#m#n#o#p.5.6#q#r#s#t#u#n#v",
"#w#x#y#z#A#B#C#D#E#F#G#x#y#H#I#B#J#K#L#M#N#x#y#H#I#B#O#P#Q#R#S#x#y#H#I#T#U#V#W#X",
"#Y#Z#0#1#2#3#4#5#6#7#8#Z#9a.#2a#aa#5#6abac#Zadae#2afaaagahaiaj#Zakalamafanagaoap",
"aqarasatauav.dawaxayazarasaAaBavaCavaDaEaFaraGaHaBavaCaIaJaKaFaraGaHaLavaMaNaOaP",
"aQaRaSaTaUaVaWaXaYaZa0a1aSa2a3aVaWa4a5a6a7a1aSa2a8a9aWb.b#baa7bbbcbdbebfaWbgb#bh",
"bibjbkblbmbnbobpbqbrbsbtbubvbwbxbybzbAbBbCbDbkbEbFbxbybGbHbIbJbKbkbLbMbxbybNbObP",
"bQbRbSbTbUbVa6bWbXbYbQbRbZb0b1bVb2b3bXb4b5bRb6b7b1bVb8b9c.c#cacbccb7cdbVcecfcgch",
"cicjckclcmcncocpcqcrcscjckctcmcucvcwcxcyczcAcBcCcmcucDcEcFcGczcAcBcHcmcucIcJcFcK",
"cLcMcNcOcPcQcRcScTcUcLcMcVcOcPcQcWcScXcYcZc0c1c2c3c4c5cLc6cYc7c0c8c2c9d.d#cLdadb",
"dcdddedfdgdhdidjdkdldcdmdndodpdqdidjdrdsdtdudndodvdwdidxdrdsdtdydndzdAdBdidxdCdD",
"dEdFdGdHdIdJdKdLdMdNdEdOdGdHdPdQdRdSdMdNdEdOdTdUdVdWdRdXdMdNdYdZdTd0d1d2dRdXd3d4",
"d5d6d7d8d9e.e#eaebecd5d6edd8eeefe#egebehd5eiejekeleme#egeneod5eiejekepeme#eqener",
"eseteuevewexeyeyezeAeBeCeDeEeweFeyeyeGeHeBeCeIeEeJeKeyeyeGeHeLeCeMeNeJeOeyeyeMeP",
"eQeReReSeTeUeVeWeXeYeZeRe0e1eTeUeVeWe2eYe3e4e0e1eTe5eVe6e2eYe7e8e0e1e9e5eVf.e2f#",
"fafbfcfdfefffgfhfidIfjfkd4flfmdyddfnfifofpfqfrdlfsdudmfnfiftfufqdldsfsfvfwfnfifx",
"fyfzdXfAfBfCfDdXfEfFfGfzfHfAfBfCfDfIfEfJfKfLfHfMfBfCfNdGfEfOfKfLfPfMdlfCfQfRfEdV",
"fSfTeafUfVfWfXfYfZeDf0fTeafUf1fWf2fYf3eDf4fTf5f6f7fWf8fYf3eDf4f9g.f6g#gaf8gbf3gc",
"eKgdgeeugfeGggghgggigjgdgegkgfglgggmgggigjgdgegkgnglgggogpgqgrgdgegkgneygggsgggt",
"gugvgwgxgygzgAgBgugCgDgEgFgFgGgHgIgFgGgJgDgIgFgFgGgHgIgKgGgLgMeVgNgOgPgQgAgBe8gR",
"gSgTgUgVgWgXgYgZg0g1g2g2g2g2g2g2g2g2g2g2g2g2g2g2g2g2g2g2g2g3g4g5g6gVg7g8fVg9h.h#",
"hahbhchdhehfhghhfDfVg2g2g2g2g2g2g2g2g2g2g2g2g2g2g2g2g2g2g2g3hahihjhdhkhlhghmhndx",
"hohphjhqhrhshthuhvhwg2g2g2g2g2g2g2g2g2g2g2g2g2g2g2g2g2g2g2hxhod0hyhzhAhBhthuhChD",
"hEgphFhGhHhIhJhKhLhMg2g2g2g2g2g2g2g2g2g2g2g2g2g2g2g2g2g2g2hNhEgphFhGhOhPhJhKhQhR",
"hShThUhVhWhXhYeZhZh0g2g2g2g2g2g2g2g2g2g2g2g2g2g2g2g2g2g2g2h1h2f.hUh3eQh4h5eQh6h7",
"h8h9i.fNh.i#g4f1iaibg2g2g2g2g2g2g2g2g2g2g2g2g2g2g2g2g2g2g2icidieiffDigdnihf1gZii",
"ijikilimdHingbioipiqg2g2g2g2g2g2g2g2g2g2g2g2g2g2g2g2g2g2g2irisitiuivdHiwixiyizeY",
"iAhKhKiBiCglepiDiEiFg2g2g2g2g2g2g2g2g2g2g2g2g2g2g2g2g2g2g2iGiHhKiIiJfZglepiDiKiL",
"iMiNiOiPiQiRiSiTiUiVg2g2g2g2g2g2g2g2g2g2g2g2g2g2g2g2g2g2g2gJiWiXiOiOiYiZi0iTiUi1",
"i2i3i3i4i5i6i4i7i8i9j.j#j#jajbjcjajajajdj.j#j#jejfjgjajajajhjii8i6jjjkjli4i7jmjn",
"jojpjqjrjsjtjujvjwjxjojyjzjAjsjtjujvjBjCjojDjEjAjsjtjujvjFjGjojHjIjJjKjtjujvjLjM",
"jNjOjPjQjRjSjTjUjVjWjNjXjYjZjRjSjTjQjVj0jNj1j2jZj3jSjTjQj4j5jNj1j6jZj3jSjTjQj7j8",
"j9k.k#kakbkckdkekfj2kgk#k#kakbkhkikjkfkkklkmknkakbkokikpkfkqkrkskmkakbktkukpkfkv",
"kwkxkykzkAkBkCkDkEkFkGkHkIkJkKkLkCkDkMkNkOkxkPkQkKkLkRkDkSkTkUkVe2kWkKkLkXkDkYkZ",
"k0k1kUk2k3k4k5k6kok7k2k1k8k9k1k6l.k1ktl#lak1k8lbk1k6k1k5lcldlek1lflbk1k6k3lglhli",
"kEljlklllmlnlolplqlrkElsltlukmlvlwlxlqlrlylslzlAlBlClDlElqlrlylslFlGkhlClHlHlqlI",
"lJlKlLlMlNlOlJlPlQlRlSlKijlTlUlVlWj6lQlRlXlYijlZlUl0l1l2lQlRl3l4l5l6l7l8l1jPlQlR",
"l9m.m#mambmcmdmcmemfl9m.mgmhmimjmkmcmlmfl9mmmnmompmjmqmrmsmfl9mmmnmomtmomqmrmumv",
"mwmxmymzmAmBmCmDmEmFmGmxmymzmHmImJmKmLmFmMmNmymzmOmImJmKmPmFmQmNmymzmwmImJmKmRmF"};
