/* XPM */
static char *dummy[]={
"40 40 530 2",
"f3 c #32a67a",
"fI c #342810",
"fK c #352911",
"fJ c #3a2d14",
"fH c #3b2e14",
"f1 c #49340e",
"fG c #4d3913",
"gp c #543d13",
"fy c #543e14",
"fF c #543f15",
"fq c #553e13",
"fC c #553e14",
"fv c #553f14",
"fo c #553f15",
"fs c #563f14",
"fz c #564015",
"fu c #574015",
"fE c #574116",
"fn c #584015",
"ft c #584116",
"fm c #584217",
"fD c #594116",
"fB c #594317",
"fr c #594318",
"fw c #5a4216",
"fA c #5b4318",
"fp c #5b4418",
"fQ c #5c4415",
"fx c #5c4418",
"f0 c #5d4313",
"fN c #5d4413",
"fU c #5d4414",
"fY c #5d4514",
"fO c #5e4312",
"fS c #5e4413",
"fX c #5f4412",
"fR c #5f4413",
"fV c #5f4513",
"fL c #5f4615",
"fT c #604512",
"fP c #604513",
"fZ c #604514",
"fW c #614513",
"fM c #624513",
"f2 c #67aa97",
"gd c #6b501a",
"gk c #6c5019",
"f6 c #6c501a",
"go c #6c511a",
"gj c #6c521b",
"g# c #6d511a",
"ga c #6d521b",
"f9 c #6d521c",
"gi c #6e5119",
"gl c #6e521b",
"gg c #6e531b",
"g. c #6f511a",
"f7 c #6f5219",
"gf c #6f531b",
"f4 c #6f531c",
"gm c #705219",
"ge c #70521a",
"gb c #70531a",
"f8 c #71531a",
"gn c #71541b",
"gc c #72541b",
"f5 c #73541a",
"gh c #73541b",
".P c #896c2a",
".s c #8a6d2b",
".H c #8d702d",
".L c #8d712e",
".C c #8e702c",
".J c #8e702d",
".O c #8e702e",
".u c #8e712d",
".N c #8e712e",
".k c #8e722e",
".y c #8f702c",
".Q c #8f712e",
".z c #8f722f",
".p c #8f732f",
".o c #90702c",
".E c #90722d",
".w c #90722e",
".G c #90732e",
".n c #90732f",
".x c #907330",
".D c #907430",
".q c #91722e",
".I c #91732e",
".m c #91732f",
".B c #91742f",
".M c #92732f",
".A c #92742f",
".l c #93742f",
".F c #937531",
".r c #937631",
".t c #947630",
".v c #957731",
".K c #967731",
"eN c #977833",
"#F c #997a34",
"eM c #9a7b35",
"#G c #9a7c35",
"#D c #9a7c36",
"eI c #9b7a34",
"#z c #9b7c35",
"eF c #9b7c36",
"#n c #9b7d35",
"#l c #9b7d36",
"eB c #9c7b34",
"eJ c #9c7c35",
"ez c #9c7c36",
"#v c #9c7d35",
"#p c #9c7d36",
"#f c #9c7d37",
"#s c #9c7e37",
"#q c #9d7c34",
"#h c #9d7d35",
"#j c #9d7d36",
"dl c #9d7d37",
"eK c #9d7e37",
"#d c #9d7f37",
"cD c #9d7f38",
"#B c #9e7d35",
"cF c #9e7e35",
"#C c #9e7e36",
"#x c #9e7e37",
"#k c #9e7f37",
"#w c #9e7f38",
"dk c #9e7f39",
"dY c #9e7f3a",
"#r c #9f7f37",
"eE c #9f7f38",
"cr c #9f8037",
"#i c #9f8038",
"d9 c #9f8137",
"cq c #9f8138",
"#t c #9f8139",
"#e c #a07f37",
"#y c #a08037",
"dh c #a08038",
"#u c #a08138",
"#g c #a08139",
"c9 c #a0813a",
"cw c #a08239",
"ct c #a18035",
"cx c #a18037",
"eL c #a18039",
"cm c #a18136",
"cn c #a18137",
"d# c #a18138",
"eC c #a18139",
"dg c #a1813a",
"#o c #a18239",
"c7 c #a1823a",
"br c #a1823c",
"cp c #a1843a",
"d8 c #a28136",
"#m c #a28138",
"eD c #a28139",
"cC c #a28238",
"#A c #a28239",
"ey c #a2823a",
"dX c #a2823b",
"cz c #a28339",
"#E c #a2833a",
"db c #a2833b",
"cl c #a28439",
"d7 c #a2843a",
"bJ c #a2843c",
"cB c #a38237",
"df c #a3823a",
"ea c #a38338",
"cv c #a38339",
"di c #a3833a",
"eA c #a3833b",
"da c #a3843b",
"cu c #a3853a",
"cy c #a3853b",
"cA c #a3863b",
"dZ c #a3863c",
"aa c #a3863d",
"c8 c #a4833a",
"bK c #a48439",
"eH c #a4843b",
"dQ c #a4843d",
"bG c #a4853a",
"co c #a4853b",
"d. c #a4853c",
"bx c #a4863a",
"bV c #a4863b",
"bs c #a4863c",
"cL c #a4873b",
"e# c #a4873c",
"bR c #a4873d",
"eG c #a5843b",
"bq c #a5843d",
"do c #a58539",
"cJ c #a5853a",
"dc c #a5853b",
"dd c #a5853c",
"dS c #a5853d",
"dO c #a5853e",
"ay c #a58639",
"al c #a5863a",
"bv c #a5863b",
"de c #a5863c",
"#6 c #a5873b",
"bM c #a5873c",
"#8 c #a5873d",
"aE c #a5883d",
"dr c #a5883e",
"bD c #a6853a",
"dj c #a6853c",
"dW c #a6853d",
"dP c #a6853e",
"bz c #a68638",
"ad c #a6863a",
"bS c #a6863b",
"dN c #a6863e",
"#S c #a6873b",
"cs c #a6873c",
"dm c #a6873d",
"dT c #a6873e",
"#Q c #a6883c",
"#J c #a6883d",
"eb c #a6883e",
"#Y c #a6893e",
"#2 c #a7863a",
"dU c #a7863e",
"bo c #a7863f",
"bt c #a78739",
"aC c #a7873a",
"ai c #a7873b",
"dV c #a7873e",
"bf c #a7873f",
"aG c #a7883a",
"e. c #a7883c",
"cI c #a7883d",
"bd c #a7883f",
"cE c #a7893c",
"an c #a7893d",
"bL c #a7893e",
"bZ c #a8863a",
"#V c #a88739",
"#N c #a8873a",
"bI c #a8873b",
"b# c #a8873f",
"a9 c #a88740",
"ac c #a8883a",
"aD c #a8883b",
"bE c #a8883c",
"bk c #a8883f",
"bg c #a88840",
"dq c #a8893c",
"as c #a8893d",
"ah c #a8893e",
"a7 c #a88940",
"af c #a88a3d",
"#P c #a88a3e",
"bh c #a9873f",
"#L c #a9883a",
"#0 c #a9883b",
"bA c #a9883c",
"dR c #a9883e",
"bm c #a9883f",
"bi c #a98840",
"b1 c #a9893b",
"a# c #a9893c",
"bc c #a98940",
"bn c #a98941",
"#4 c #a98a3d",
"aB c #a98a3e",
"bl c #a98a41",
"#H c #a98b3e",
"bB c #a98b3f",
"a4 c #a98b40",
"bu c #a98c3e",
"bH c #a98c3f",
"a. c #aa893b",
"aw c #aa893c",
"a8 c #aa8940",
"bb c #aa8941",
"bF c #aa8a3c",
"#X c #aa8a3d",
"aO c #aa8a3e",
"ba c #aa8a41",
"dp c #aa8b3d",
"ap c #aa8b3e",
"du c #aa8b3f",
"#W c #aa8c3e",
"#3 c #aa8c3f",
"cN c #aa8c40",
"dI c #aa8c41",
"av c #aa8d3f",
"#Z c #aa8d40",
"aq c #ab8a3c",
"aW c #ab8a3d",
"be c #ab8a41",
"#5 c #ab8b3d",
"cH c #ab8b3e",
"b. c #ab8b42",
"bC c #ab8c3e",
"#O c #ab8c3f",
"aQ c #ab8c40",
"#M c #ab8d3f",
"#9 c #ab8d40",
"aI c #ab8d41",
"bU c #ab8e40",
"aS c #ac8a3d",
"#I c #ac8b3d",
"ag c #ac8b3e",
"dL c #ac8b3f",
"bj c #ac8b41",
"bP c #ac8c3d",
"dn c #ac8c3e",
"dw c #ac8c3f",
"bp c #ac8c42",
"by c #ac8d3f",
"aj c #ac8d40",
"aU c #ac8d41",
"#1 c #ac8e3f",
"#K c #ac8e40",
"bY c #ac8e41",
"cM c #ac8f41",
"dz c #ad8b3e",
"at c #ad8c3e",
"dD c #ad8c3f",
"bw c #ad8d3e",
"a3 c #ad8d3f",
"aT c #ad8d40",
"dF c #ad8d41",
"d6 c #ad8d44",
"bX c #ad8e3f",
"ar c #ad8e40",
"dE c #ad8e41",
"aM c #ad8e42",
"ax c #ad8f40",
"ao c #ad8f41",
"aY c #ad8f42",
"bO c #ad9041",
"bW c #ae8d3e",
"ck c #ae8d44",
"cG c #ae8e3e",
"b0 c #ae8e3f",
"#T c #ae8e40",
"bT c #ae8f40",
"d0 c #ae8f41",
"a2 c #ae8f42",
"aF c #ae9040",
"#U c #ae9041",
"aK c #ae9042",
"a1 c #ae9043",
"dH c #af8d40",
"#R c #af8e3e",
"bN c #af8e3f",
"#7 c #af8e40",
"dB c #af8e41",
"aA c #af8f3f",
"aZ c #af8f40",
"am c #af8f41",
"aL c #af8f42",
"d5 c #af8f45",
"ab c #af9041",
"dA c #af9042",
"cU c #af9044",
"c5 c #af9045",
"d4 c #af9046",
"aX c #af9142",
"aV c #af9143",
"dG c #af9144",
"cj c #b08e44",
"ak c #b08f3f",
"bQ c #b08f40",
"ds c #b08f41",
"au c #b09040",
"ae c #b09041",
"b8 c #b09046",
"ec c #b09141",
"aJ c #b09143",
"aR c #b09244",
"e2 c #b18e42",
"c1 c #b19043",
"cV c #b19044",
"cb c #b19045",
"b9 c #b19046",
"aH c #b19141",
"aP c #b19142",
"dK c #b19143",
"cQ c #b19146",
"b4 c #b19147",
"az c #b19241",
"dC c #b19243",
"c2 c #b19245",
"cX c #b19246",
"dt c #b19344",
"dy c #b19345",
"eS c #b28f43",
"cR c #b29043",
".j c #b29044",
"b6 c #b29045",
"d3 c #b29046",
"aN c #b29141",
"a0 c #b29142",
"cS c #b29144",
"eY c #b29145",
"cf c #b29146",
"c. c #b29147",
"cK c #b29241",
"dx c #b29243",
"#b c #b29246",
"b2 c #b29247",
"a5 c #b29344",
"cO c #b29346",
"fk c #b38f44",
"fg c #b39043",
"c4 c #b39144",
"e9 c #b39145",
"ch c #b39146",
"dv c #b39242",
"c0 c #b39245",
"ca c #b39246",
"b3 c #b39247",
"cd c #b39248",
"a6 c #b39343",
".Y c #b39347",
"cg c #b39348",
"dJ c #b39445",
"cZ c #b39446",
"cT c #b39447",
"e7 c #b49044",
"fi c #b49144",
".i c #b49246",
"d2 c #b49247",
"cP c #b49345",
".2 c #b49346",
".T c #b49347",
"b7 c #b49348",
"dM c #b49444",
".0 c #b49447",
"cc c #b49448",
"c# c #b49449",
"c3 c #b49547",
"fe c #b59245",
"fc c #b59246",
".4 c #b59346",
"d1 c #b59347",
"ce c #b59348",
".5 c #b59447",
"b5 c #b59448",
"cW c #b59547",
".8 c #b59548",
"ev c #b5954a",
"cY c #b59649",
"e0 c #b69346",
".V c #b69446",
".f c #b69447",
".h c #b69448",
"#a c #b69547",
"ci c #b69549",
".R c #b69648",
"eQ c #b79346",
".b c #b79448",
"## c #b79547",
"Qt c #b79548",
"eo c #b79647",
".S c #b79648",
".X c #b79649",
".7 c #b79749",
"#. c #b7974a",
".W c #b7984a",
"eW c #b89447",
"el c #b89547",
".g c #b89548",
".e c #b89549",
"ef c #b89647",
".c c #b89648",
".a c #b89649",
"c6 c #b89748",
".9 c #b89749",
"ek c #b8974a",
".6 c #b8984a",
"e5 c #b99547",
".# c #b99649",
"et c #b99748",
"eu c #b99749",
"em c #b99849",
".1 c #b9984a",
".U c #b9994a",
".3 c #b9994b",
"eq c #b99a4c",
".d c #ba9749",
"ed c #ba994a",
"eh c #ba994b",
"eg c #ba9a4b",
"es c #ba9a4c",
"ff c #bb974a",
"eO c #bb984a",
".Z c #bb9949",
"er c #bb994a",
"#c c #bb9a4b",
"ep c #bb9b4b",
"en c #bb9b4c",
"f# c #bc984a",
"ex c #bc9b4b",
"ej c #bc9b4c",
"ee c #bc9c4d",
"fa c #bd9849",
"e4 c #bd994b",
"ei c #bd9b4b",
"e3 c #be9a4b",
"ew c #be9d4d",
"eV c #bf9a4c",
"eP c #bf9b4c",
"f. c #c09b4d",
"eX c #c29d4c",
"e8 c #c39e4e",
"eT c #c39f4e",
"eU c #c49e4d",
"fd c #c8a251",
"e6 c #c8a352",
"eZ c #c9a351",
"fb c #c9a352",
"fj c #caa351",
"eR c #cba553",
"e1 c #cca654",
"fh c #cfa856",
"fl c #d0a955",
"Qt.#.a.a.b.b.c.#.#.b.bQt.d.a.e.fQt.#.c.#.bQt.e.#.#Qt.b.g.d.a.e.hQt.#.c.#.b.i.j.j",
".k.l.m.n.o.p.q.r.n.s.t.u.v.w.x.y.z.A.B.p.C.D.E.F.G.H.I.J.K.m.L.E.p.M.N.r.C.O.P.Q",
".R.S.T.U.V.W.f.X.R.Y.Z.0.1.2.3.4.XQt.5.6.4.6.5.7.R.8.9.0.1.2#.##.7#a#b#c.4.1.2.R",
"#d#e#f#g#h#i#j#i#k#l#m#n#o#p#o#q#k#r#s#t#h#u#v#i#w#x#y#z#A#p#i#B#i#C#D#E#h#u#F#G",
"#H#I#J#K#L#M#N#O#P#Q#R#S#T#J#U#V#W#X#Y#Z#0#1#2#3#P#4#5#6#7#8#9a.#3a#aaabac#1adae",
"afagah#Kac#1aiaj#P#6akalamanao#Napaq#P#Zacaradaj#Hasatalau#Java.#Waw#8#U#Naxayaz",
"#H#Xah#Kac#9aiaj#P#6aA#S#Tanao#N#Wa#aB#9aCarad#9#Hafat#6#Tan#Za.#OaDaEaFaGaralaH",
"aj#7aIaJ#IaKagaLaM#PaNaOaPaQaRaSaoaTaUaVaWaXagaKaYajaZapa0aQa1ata2a3a4a5#5aX#Xa6",
"a7a8a9b.b#bab#bbbcbdbebfbebgb.bhbcbcbgbab#bab#bbbcbia8bfbjbkblbmbnbmbobpb#bebqbr",
"an#Xbs#9btbuadaBanbvbwbxbybs#Kbz#4bA#8bB#2bCbDaBanbEbFbGa3bsbHac#HbIbJax#2bCbKa3",
"af#IbL#K#L#MbIaj#PbMbNalaZ#JbO#V#Haq#P#9ac#1#2aj#HafbPalbQ#Java.#Wa#bR#U#NarayaH",
"aB#5ah#Kac#Kaiaj#H#6akbSaZanao#N#WawaB#9aCbTadaj#HafatbvaZan#Za.#Ma##8abaCbTalaH",
"afaWahbU#Nav#N#O#PbVbWbSbXanbYbZ#Ha##P#ZaC#MaC#MaBan#5#6b0anbHa.#Wb1aEbTaCbyadae",
"b2b3b4b5b6b7b6b3.Yb8.fb9b7c.c#b6.Ycac.c#cbccb6cdcdc..Tb9cecfcgch.Ycfb8cib6cccjck",
"clbK#tbMcmbVcncocpcqaCcrcs#t#QctcucvcwbVcnbvcxcy#EczbKcrbI#tcAcBbGcCcDcEcn#6cFbG",
"af#5#J#K#Lavai#O#PcscGbv#T#Jao#V#H#XbL#9aD#1#2#OaB#4#IbvaZ#J#Ma.#Wa#aaabac#1alae",
"aBcHah#Kac#Kaiaj#P#6bQalamcIao#N#W#XaB#9aGaxadajaBasbwalae#J#Za.#Oa#aEabaGbTcJcK",
"af#X#PbU#N#MaC#O#PcLbNbSbXancM#Napa#aB#9aCbyaC#9#Pas#I#6b0ancNa.#3aDaEbTaC#1adae",
"cOcPcQ.RcR.0cScTcTcU##cVcWcXcYcRcZc0#b.8c1cWcScT.0c2.4cV#acXc3c4.0c0c5c6c1cWc1.2",
"c7c8c9d.d#dad#dadb#tdc#iddc9decx#Edfdgd.d#codhda#Ec7di#idj#gda#mda#Adkcsd#codl#w",
"#H#5#J#K#L#MbI#O#Pcs#R#S#T#J#U#V#W#XbL#9#0#1#2#3#P#4#I#6#7dm#9a.#3a#aaabac#1adae",
"afagah#KacbUaiaj#P#6aAalam#Jao#Napaq#P#ZacbX#2ajaBasdnalau#Java.#3awaE#UaCardoaz",
"#4dpah#K#N#9aC#9aB#6akbSaranao#N#Wa#aB#9aCarad#9#Hafdn#6#Tanava.#MdqdrabaGaralaH",
"aYdsaMdtataJa3aVa2dudvdwdxbYdydzdAdBaYaRdndCdDaJa1dEae#Oa6dFdGdHdA#TdIdJdndKdLdM",
"dNbfdObkdjbfdPbfdNdQdRdSbmdObgdjdTdUdObkdSbkdSbfdVdPdVdQbidObfdWbfdUdQbcdSbkdXdY",
"#H#5#Jar#L#M#N#3#Pcs#R#S#T#J#U#V#W#XbL#9#0bXai#3#P#4#I#6#7dm#9a.#Oa#dZabaDbXadae",
"af#IbL#K#L#MaCaj#Pcs#RalaZ#JbO#V#H#XbL#9aD#1#2#9aBafbPalbQ#Java.#Wa#bR#UacbXayaH",
"aB#5ah#K#N#KaiajaB#6ak#6aZcIaoac#WbFaB#KaCbTadajaBafatbvaZcIavaw#Ma##8abaGbTalaH",
"af#XahbU#N#3bI#O#PcLcG#SbXancM#V#Ha#aB#9aCbyaCaQaBan#5#6b0anbHa.#Wb1aEd0aCbyadau",
"c.cfb9ccb6.Yb6b2b2b8d1cb.TcQccb6b2cfb4b7cbb7cbb2b3cfd2cbb7d3cgchb3cfd4b5cbb7d5d6",
"d7do#g#Qd8bVcnbVd7d9aCd9e.#tanctcubK#oe#cm#ScnbVd7czdocrbEcqbVcBcoeacDafcn#6cFal",
"af#Ieb#K#L#MbIaQ#Pcs#Ral#T#J#U#V#HbFbL#9aD#1aC#OaB#4#5alaZdm#9a.#Wa#aa#UaD#1adae",
"#HcH#P#K#N#KaiaT#P#6akalamcIao#Nap#XaB#9aCaxadajaBasbwalaucI#3a.#Oaw#8#UaCbTcJcK",
"af#X#P#K#N#Mai#O#PcLbN#SbXancM#Vapa#aB#9aC#1aC#9#Paf#I#6b0an#3a.#3aDaEbTaC#Kalec",
".6ed#.eeefegc6eh.3cYei.Sejekeeel.Uem.6eneoep.ceqeh.Wer.Sejekesetegeueveweoen##ex",
"#ieyezeAeBeC#xeDeEeF#m#peGezeHeIdheC#jeyeJeCeKeDeE#x#e#feGeJc7#h#geLeMdd#z#AeN#z",
"eOePeQeReSeT.ieUeVeWeXeYeZe0e1e2e3e4e5e6e7e8e9eUf.f#faeYfbfcfdfeePfffgfhfifjfkfl",
"fmfnfofpfqfrfsftftfufmfvfwfofxfyfmfufzfAfqfBfCfDfEfDfEfvfwfFfpfvfmfufGfHfIfJfKfJ",
"fLfMfNfOfPfQfPfRfSfTfUfVfWfUfXfRfYfWfSfOfTfUfPfZf0fTfUfVfMfUfXfPfUfWf1f2f3f3f3f3",
"f4f5f6f7f8f9f8g.g#f8gagbgcgdgegfggghf6gif8gjf8gbgkf8glgbgcgdgmgngoghgpf2f3f3f3f3"};
