/* XPM */
static char *dummy[]={
"40 40 1013 2",
"mL c #3d372c",
"k3 c #463f32",
"hv c #453f32",
"ds c #443e31",
"nY c #28231a",
"jk c #423b30",
"fY c #413b30",
"k2 c #6a6557",
"cV c #2c251b",
"nG c #322c20",
"ft c #2b2319",
"hu c #6a6456",
"ay c #332d21",
"g9 c #2c251b",
"iW c #2b2419",
"a1 c #3d372c",
"dr c #696455",
"kE c #2c251b",
"mo c #2b2419",
"k1 c #635d4f",
"ht c #645f50",
"dq c #666051",
"cU c #3f382c",
"mK c #585042",
"jj c #615a4c",
"fX c #625c4d",
"g8 c #3f382c",
"cT c #3d372c",
"g7 c #3e382c",
"kD c #3f382c",
"fs c #362e23",
"iV c #362f24",
"kC c #3f392d",
"mn c #373024",
"nQ c #211e17",
"nS c #221e17",
"nT c #23201a",
"nR c #24201a",
"nH c #24211b",
"nW c #26221b",
"nX c #27231b",
"nO c #28241c",
"nP c #28241d",
"nI c #29241d",
"md c #2a2a18",
"nx c #2b261c",
"nC c #2b261d",
"nK c #2b261e",
"nJ c #2b271e",
"ml c #2c251b",
"cK c #2c271e",
"nV c #2c271f",
"iA c #2d271c",
"cO c #2d271e",
"nN c #2d2820",
"l8 c #2e271d",
"kn c #2e281f",
"nM c #2e2920",
"nU c #2e2a21",
"cs c #2f281d",
"gQ c #2f291d",
"e0 c #30291d",
"ix c #302a1d",
"nL c #302c22",
"l6 c #312a1d",
"j1 c #322c20",
"bY c #332c20",
"ao c #332c22",
"ns c #332d22",
"av c #342c22",
"i3 c #352f25",
"m9 c #353024",
"cP c #353027",
"nl c #363025",
"cL c #363027",
"nj c #363125",
"cB c #363127",
"aa c #372f22",
"l4 c #373023",
"eD c #373024",
"bw c #373025",
"mv c #373026",
"gk c #373125",
"jJ c #373126",
"my c #373127",
"gW c #373128",
"at c #373129",
"gR c #373228",
"eu c #383124",
"ia c #383125",
"cI c #383227",
"mF c #383228",
"ap c #383229",
"ko c #383329",
"lM c #393224",
"lO c #393225",
"fB c #393328",
"ki c #393329",
"e2 c #39332a",
"kP c #393728",
"lS c #393c1f",
"me c #393d1c",
"dZ c #3a3326",
"fr c #3a3327",
"cC c #3a3328",
"ln c #3a3426",
"iU c #3a3427",
"an c #3a3428",
"aR c #3a3429",
"nD c #3a352a",
"mm c #3b3427",
"gS c #3b3428",
"cH c #3b3429",
"fq c #3b3528",
"cJ c #3b3529",
"e5 c #3b3629",
"ny c #3b362b",
"cE c #3c3529",
"gV c #3c352a",
"cg c #3c362a",
"mk c #3c362b",
"nt c #3c372b",
"cM c #3d3529",
"cD c #3d3629",
"#7 c #3d362a",
"iz c #3d362b",
"km c #3d372b",
"kf c #3d421b",
"mj c #3d441e",
"iu c #3d461b",
"gU c #3e362a",
"gT c #3e372a",
"#3 c #3e372b",
"#W c #3e372c",
"gX c #3e382a",
"iG c #3e382b",
"e6 c #3e392b",
"aq c #3f372c",
"kj c #3f382b",
"au c #3f382c",
"cG c #3f382d",
"ar c #3f392c",
"ax c #3f392d",
"kI c #3f392e",
"kO c #3f392f",
"aw c #3f3a2f",
"lx c #3f4224",
"#H c #40382a",
"lK c #40382b",
"e3 c #40392d",
"kl c #40392e",
"iD c #403a2d",
"hc c #403a2f",
"iT c #404b1e",
"er c #41392b",
"nF c #41392d",
"nu c #413a2d",
"nB c #413a2e",
"nz c #413b2d",
"m# c #413b2e",
"iE c #413b2f",
"mT c #413b30",
"jE c #414a1c",
"d9 c #423a2c",
"i# c #423a2d",
"nw c #423a2e",
"eC c #423b2d",
"cQ c #423c2f",
"ma c #423c30",
"d. c #423c31",
"hT c #433b2d",
"lr c #433b2e",
"nE c #433b2f",
"cN c #433c2f",
"cF c #433c30",
"iC c #433c31",
"iB c #433e32",
"h9 c #434e20",
"l3 c #443c2e",
"m. c #443d31",
"mc c #443d32",
"cR c #443e31",
"l9 c #444033",
"aH c #444037",
"l0 c #444f23",
"eZ c #453e2e",
"nv c #453e2f",
"cS c #453e31",
"kA c #453f31",
"e4 c #453f32",
"mb c #454034",
"hs c #455024",
"iw c #463e2f",
"l5 c #463f2f",
"cr c #463f31",
"kk c #463f32",
"iy c #464032",
"kB c #464033",
"mf c #464f24",
"## c #473f30",
"gP c #473f31",
"cf c #474031",
"cm c #474032",
"iF c #474033",
"l7 c #474133",
"hP c #475024",
"am c #484034",
"#C c #484132",
"bT c #484133",
"as c #484134",
"al c #484234",
"bn c #484235",
"lb c #48462e",
"jZ c #485126",
"lk c #485327",
"bO c #494133",
"dU c #494136",
"nA c #494233",
"#w c #494234",
"e1 c #494335",
"bh c #494336",
"kX c #495226",
"nf c #4a4133",
"eY c #4a4233",
"jM c #4a4234",
"ll c #4a4236",
"#o c #4a4335",
"f7 c #4a4337",
"iv c #4b4334",
"dD c #4b4337",
"n. c #4b4434",
"d2 c #4b4436",
"nk c #4b4534",
"nm c #4b4535",
"lG c #4b5429",
"dQ c #4b5c3d",
"d8 c #4c4334",
"l. c #4c4438",
"mw c #4c4537",
"hy c #4c4538",
"hS c #4d4435",
"k5 c #4d4539",
"g6 c #4d562d",
"lq c #4e4435",
"ne c #4e4535",
"nr c #4e4536",
"#V c #4e4637",
"mp c #4e4638",
"k0 c #4e483a",
"jg c #4e5632",
"gN c #4e5933",
"nq c #4f4636",
"#2 c #4f4637",
"#6 c #4f4738",
"gA c #4f5937",
"i7 c #4f5940",
"c. c #504839",
"gi c #505a38",
"lp c #514738",
"bN c #514837",
"bS c #514838",
"cc c #514939",
"j3 c #51493a",
"cn c #514b3d",
"kp c #51582f",
"j0 c #524838",
"d7 c #524839",
"jL c #524938",
"a. c #524939",
"nb c #524a38",
"gC c #524a39",
"do c #524c3d",
"ch c #524c3e",
"b9 c #524d3e",
"lJ c #534939",
"gO c #534a3a",
"na c #534b39",
"ce c #534b3a",
"i2 c #534b3e",
"nh c #534c39",
"eA c #534c3a",
"#5 c #534c3b",
"i4 c #534c3e",
"#Y c #534d3b",
"gD c #534e3f",
"mC c #534f43",
"eB c #544a3a",
"cl c #544b3a",
"c# c #544b3b",
"nd c #544c3a",
"cp c #544c3b",
"ey c #544d3b",
"iX c #544d3e",
"fA c #544d3f",
"mB c #544d40",
"gB c #544e40",
"eX c #54513f",
"lQ c #554b3a",
"l2 c #554b3b",
"mM c #554c3a",
"#Z c #554c3b",
"ck c #554c3c",
"mU c #554d3a",
"kg c #554d3b",
"fC c #554e3f",
"j2 c #554f40",
"dR c #55593e",
"en c #556041",
"cd c #564d3c",
"aQ c #564f41",
"ib c #56513e",
"lP c #56523e",
"mA c #565245",
"j6 c #565e40",
"#9 c #574d3e",
"cq c #574e3d",
"#S c #57503d",
"ms c #575042",
"mH c #575142",
"mt c #575245",
"mr c #575246",
"mG c #575346",
"#U c #584e3d",
"lt c #584f3b",
"lw c #584f3c",
"kh c #584f3d",
"#n c #584f3e",
"nn c #58503b",
"hV c #58503c",
"ng c #58513c",
"ev c #58513d",
"aV c #585142",
"iZ c #585144",
"mD c #585345",
"eq c #585942",
"ew c #594f3d",
"#v c #594f3e",
"et c #59503c",
"nc c #59503d",
"no c #59503e",
"n# c #59513c",
"dY c #59513d",
"hR c #59513e",
"aS c #595243",
"mE c #595244",
"ji c #595344",
".6 c #595346",
"fV c #596044",
"mi c #596343",
"ni c #5a503d",
"i. c #5a503e",
"lN c #5a503f",
"a# c #5a513e",
"#0 c #5a523e",
"es c #5a5240",
"np c #5a5241",
"kH c #5a5244",
"bv c #5a5341",
"aI c #5a5343",
"mu c #5a5344",
"mx c #5a5345",
"#X c #5a5446",
".3 c #5a5447",
"#8 c #5a5545",
"jh c #5a5546",
"#4 c #5a5547",
"ci c #5b513e",
"#F c #5b523f",
"dX c #5b5241",
"ez c #5b533f",
"hD c #5b5341",
"jI c #5b5342",
"kZ c #5b5345",
"hb c #5b5446",
"mJ c #5b5447",
"ex c #5b5547",
".U c #5b5548",
"mz c #5b5648",
"#T c #5c523f",
"dT c #5c5240",
"dB c #5c5241",
"#G c #5c533e",
"ca c #5c533f",
"dF c #5c5341",
"hQ c #5c5342",
"gj c #5c5441",
"i1 c #5c5546",
"i0 c #5c564a",
"kN c #5c5749",
"ep c #5c5e46",
"fE c #5c654b",
"it c #5c6649",
"ie c #5c664b",
"d1 c #5d523f",
"#r c #5d533f",
"#z c #5d5340",
"k4 c #5d5341",
"dC c #5d5342",
"j4 c #5d5440",
"la c #5d5442",
"k9 c #5d5443",
"go c #5d5540",
"mZ c #5d5542",
"fx c #5d5547",
"c9 c #5d5647",
"mq c #5d5749",
"dw c #5d574a",
"aC c #5d574e",
"#m c #5e523f",
"ic c #5e5440",
"lI c #5e5441",
"dG c #5e5443",
"bI c #5e5540",
"cb c #5e5541",
"dW c #5e5542",
"hx c #5e5544",
"co c #5e5642",
"l1 c #5e5643",
"hC c #5e5645",
"dn c #5e5647",
"e. c #5e5742",
"kJ c #5e5747",
"fz c #5e5748",
"ak c #5e594d",
"ea c #5e6147",
"g. c #5e684d",
"bP c #5f5540",
"lL c #5f5640",
"bV c #5f5641",
"j5 c #5f5642",
"cj c #5f5643",
"hA c #5f5644",
"dA c #5f5645",
"ls c #5f5742",
"m8 c #5f5746",
"aM c #5f5749",
"lv c #5f5843",
"fW c #5f5848",
"aX c #5f5849",
"dp c #5f594b",
"iY c #5f594c",
"aN c #5f5a4c",
"i6 c #5f5a4d",
"lu c #605541",
"hW c #605641",
"k7 c #605645",
"lR c #605743",
"id c #605744",
"mS c #605745",
"dV c #605844",
"aP c #60594a",
"i5 c #60594c",
"hd c #605a4a",
"fy c #605a4b",
"mI c #605a4d",
"fD c #605c4d",
"eo c #606449",
"eE c #60644c",
"eW c #606b4c",
"bW c #615741",
"hU c #615840",
"bJ c #615841",
"#1 c #615944",
"lm c #615945",
"aU c #615a4a",
"h# c #615a4c",
"aO c #615b4c",
"dc c #615b4d",
"gp c #616b4e",
"gn c #625842",
"#A c #625942",
"m7 c #625946",
"e# c #625a42",
"aZ c #625b4b",
"dl c #625b4d",
"c7 c #625c4d",
"fw c #625c4e",
"kM c #625c4f",
"dd c #625d4d",
"eb c #62664b",
"ke c #62694f",
"gE c #626c4f",
"#s c #635942",
"d5 c #635943",
"mP c #635a44",
"bu c #635b47",
"kY c #635b4c",
"a0 c #635c4c",
"kF c #635e51",
"de c #636a4f",
"gY c #636d50",
"fp c #636d52",
".G c #64594c",
"mW c #645a44",
"bM c #645a45",
"m5 c #645b44",
"bR c #645b45",
"bU c #645b46",
"#l c #645b47",
"jH c #645c47",
"kG c #645c4c",
"hi c #645d4d",
"kK c #645d4e",
"aY c #645d4f",
"aL c #645e50",
"dk c #646150",
"dI c #64654c",
"mQ c #655b48",
"bH c #655c46",
"#u c #655c47",
"#B c #655c48",
"bg c #655d49",
"ha c #655d4d",
"aW c #655e50",
"#R c #655e52",
"he c #655f50",
"hg c #655f51",
"h. c #656052",
"hh c #656053",
"m1 c #665b48",
"#k c #665c47",
"#E c #665c48",
"gm c #665d47",
"d0 c #665d48",
"k8 c #665d49",
"f6 c #665d4a",
"dS c #665e4a",
".9 c #665f4c",
"#j c #665f53",
"fu c #666051",
"dj c #666f54",
"lH c #675c47",
"jK c #675e47",
"dz c #675e4a",
"hw c #675e4b",
"#. c #675f4b",
"c8 c #675f4f",
"dm c #67604f",
"fv c #676052",
"gl c #67614d",
"bG c #67614e",
"d# c #676151",
"db c #676153",
"c6 c #676254",
"d6 c #685d48",
"lo c #685d49",
"bQ c #685e48",
"dH c #685e4a",
"#t c #685f48",
"#y c #685f49",
"#q c #685f4a",
"m4 c #68604a",
"m2 c #68604d",
"m0 c #68614b",
"kL c #686153",
"aJ c #686253",
"mg c #686e55",
"bL c #695f49",
"hB c #695f4a",
"d4 c #69604a",
"mX c #69604d",
"mR c #69614e",
"mV c #69624c",
"#D c #69624f",
"aT c #696253",
"aK c #696254",
"bq c #6a614a",
"bf c #6a614c",
"f5 c #6a614d",
"m6 c #6a614e",
"mN c #6a624c",
".5 c #6a624e",
".1 c #6a624f",
"mY c #6a634f",
"hf c #6a6354",
"lT c #6a7157",
"kQ c #6a715b",
"bc c #6b614b",
"bK c #6b614c",
"f1 c #6b624b",
"bX c #6b624c",
"jn c #6b624d",
".S c #6b624f",
"dy c #6b634c",
"f9 c #6b634d",
"m3 c #6b634f",
".Z c #6c634c",
"mO c #6c644f",
"du c #6c6451",
"bs c #6c6551",
"da c #6c6556",
".g c #6c6960",
"ec c #6c7156",
"dJ c #6c7458",
"eV c #6c775b",
"bb c #6d644e",
"bt c #6d654f",
"jG c #6d6550",
"jF c #6d6552",
"fZ c #6d6752",
"bp c #6e644e",
"jl c #6e654f",
"ba c #6e6752",
"bi c #6e6852",
"jo c #6e6853",
"bl c #6f6652",
"bo c #6f6853",
"jq c #6f755d",
"be c #706752",
"jp c #706755",
"bj c #706851",
"f3 c #706853",
"f2 c #706856",
"dE c #706952",
"hz c #706953",
"d3 c #706b58",
".X c #716852",
"jm c #716853",
"bd c #716856",
"bk c #716857",
"f8 c #716952",
"f0 c #716953",
"br c #716957",
"k6 c #716a53",
"l# c #716a54",
".8 c #716a55",
"#p c #716b58",
"#x c #716b59",
"df c #71785e",
"dx c #726a53",
"f4 c #726a54",
".Y c #726a55",
".2 c #726c59",
"b8 c #726e63",
"lZ c #727765",
"bm c #736b55",
".R c #736b56",
".T c #736c59",
".0 c #746c57",
".Q c #746c58",
"dv c #746d5a",
"kz c #747765",
"mh c #747865",
"kW c #747968",
"dt c #756d59",
"cA c #777469",
"bF c #787468",
"lj c #787c6d",
"iH c #787f69",
"#Q c #797367",
"e7 c #7a816b",
"iS c #7b757d",
".W c #7d7560",
".P c #7d786d",
"b# c #7d7a6e",
"ky c #7d8237",
"gg c #7d8410",
"fR c #7e840e",
".l c #7f7163",
"hN c #7f8508",
"az c #807c72",
"aG c #817f74",
"h7 c #818007",
"lF c #818175",
".B c #827163",
".u c #827263",
"ad c #827d70",
"iR c #828500",
"jC c #838e00",
"jD c #847c99",
"aB c #847e73",
"#i c #847f73",
"kd c #848545",
"gf c #848b08",
"ae c #868173",
"lc c #86867c",
"gy c #868b07",
"aD c #87857b",
"jf c #887f78",
"aA c #888377",
"gL c #888d07",
"af c #898376",
"ag c #898477",
"ah c #898478",
"fl c #899021",
"jY c #8a7e83",
"ac c #8a8376",
"b2 c #8a867a",
"aj c #8a867b",
"ab c #8b867a",
"jX c #8b9300",
"#P c #8c877b",
"#O c #8c887a",
"kV c #8c893c",
"aF c #8c8a80",
"dg c #8c8f79",
"lC c #8c9300",
"b7 c #8d887c",
".7 c #8d8978",
"#h c #8d897c",
"c0 c #8d8c81",
"b0 c #8e8a7e",
"ly c #8f9088",
"fQ c #8f930a",
"jP c #8f9500",
"lY c #908f88",
".i c #918574",
".E c #91897a",
".j c #91897b",
"lE c #918e39",
"aE c #918e84",
".q c #928777",
"is c #928c76",
"bA c #928e80",
"gw c #929507",
"kU c #929700",
"eF c #92978a",
".A c #938675",
".t c #938a7b",
"#g c #938e80",
"ai c #938e82",
".V c #93907d",
"b1 c #939083",
"cy c #939084",
"fO c #939607",
".k c #948675",
".z c #948b7b",
"bZ c #948e81",
".4 c #94917e",
"il c #949507",
"h8 c #949b84",
".F c #958675",
"a5 c #958f83",
"by c #959082",
"a6 c #959287",
"le c #959605",
"hq c #959706",
".w c #968d7e",
".o c #968d7f",
".h c #968f81",
"c5 c #969384",
"li c #96962b",
"fS c #969d3a",
"bz c #979486",
"bB c #979488",
"b3 c #97948a",
"gd c #979906",
"h4 c #979b06",
"b6 c #989384",
"jN c #989991",
"di c #989b85",
"kc c #989c00",
".s c #998774",
".r c #999081",
".y c #999082",
"cx c #999488",
"bD c #999586",
"#L c #999587",
"fk c #999a0f",
"hL c #999b06",
"kb c #999d00",
".D c #9a8a7a",
"ej c #9a9b10",
".b c #9a9b93",
"im c #9a9d05",
"jW c #9a9e00",
"em c #9a9f8b",
"#K c #9b9587",
"#N c #9b9688",
"a4 c #9b9689",
"b5 c #9b9888",
"b. c #9b988b",
".d c #9b9b92",
"eP c #9b9c0a",
"i8 c #9b9c97",
"fj c #9b9d07",
"kw c #9b9e00",
"fg c #9b9e06",
"fP c #9b9f06",
"a3 c #9c988a",
"Qt c #9c9d96",
"dh c #9c9e8b",
"kT c #9c9f00",
"ld c #9d978f",
".N c #9d9a8f",
"kx c #9d9d00",
"j9 c #9d9e00",
".f c #9d9e95",
"lU c #9e999c",
"bx c #9e9b8c",
"cz c #9e9c91",
"jB c #9ea000",
"kr c #9ea01a",
"lW c #9f979b",
".e c #9fa097",
"ge c #9fa204",
".C c #a0998c",
"#J c #a09b8c",
"#f c #a09c8d",
".O c #a09e93",
"fU c #a09ea4",
"cv c #a09f95",
"hr c #a0a100",
"fh c #a0a305",
"lB c #a1a000",
"eO c #a1a105",
"gJ c #a1a202",
"je c #a1a300",
".n c #a29381",
"a2 c #a29e90",
"lD c #a2a200",
"gx c #a2a302",
"in c #a2a303",
".# c #a2a39b",
".v c #a39481",
"fI c #a3a000",
"gv c #a3a206",
"ct c #a3a298",
"jd c #a3a400",
"gK c #a3a403",
"fi c #a3a404",
"gq c #a4a100",
"a9 c #a4a194",
"fH c #a4a200",
"ir c #a4a301",
".c c #a4a59d",
".p c #a59586",
".x c #a59686",
"ih c #a5a100",
"hK c #a5a406",
"eQ c #a5a42d",
"g4 c #a5a506",
".a c #a5a69f",
"g0 c #a6a100",
"jr c #a6a3a4",
"hF c #a6a400",
"cu c #a6a59b",
"jA c #a6a600",
"jc c #a6a605",
"iN c #a6a607",
"ed c #a6ac9d",
".m c #a79e8e",
"kq c #a79fa7",
"#e c #a7a494",
"bE c #a7a495",
"#c c #a7a497",
"ks c #a7a600",
"hY c #a8a400",
"hk c #a8a500",
"a8 c #a8a698",
"iq c #a8a700",
"hM c #a8a701",
"iJ c #a9a500",
"#b c #a9a597",
"fG c #a9a70e",
"lX c #aaa2a9",
"#d c #aaa797",
"cw c #aaa89d",
".M c #aaa89f",
"if c #aaa8a8",
"h5 c #aaa902",
"hZ c #aba800",
"h6 c #aba901",
"#M c #aba99a",
"cZ c #abaa9c",
"lA c #aca932",
"kR c #ada5ac",
"gI c #adaa05",
"iI c #adaaa9",
"ka c #adab02",
".L c #adaba0",
"kv c #adac01",
"j7 c #aea9ad",
"cX c #aeada0",
"jO c #b0aaa9",
"i9 c #b0ab44",
"#I c #b0aea1",
"lV c #b2a9b3",
"jQ c #b2ae01",
"#a c #b2b0a2",
"cY c #b2b2a5",
"lz c #b3aab4",
"ga c #b3ac00",
"io c #b3af04",
"b4 c #b3b0a2",
".K c #b3b1a7",
"bC c #b3b2a3",
"k. c #b4b001",
"iQ c #b4b100",
"lf c #b4b104",
"iP c #b5b205",
"kt c #b6b101",
"jz c #b6b205",
"iO c #b6b306",
"f# c #b6b547",
"c3 c #b6b5a9",
"c4 c #b6b6aa",
"fa c #b7b005",
"iK c #b7b202",
"ig c #b7b231",
"jt c #b7b302",
"gc c #b7b304",
".J c #b7b7ae",
"cW c #b7b8ad",
"dP c #b7b9ac",
"js c #b8b31c",
"ip c #b8b405",
"lg c #b9b401",
"jy c #b9b404",
".I c #b9b8af",
"c2 c #b9baad",
"jV c #bab504",
"a7 c #babaaf",
"fm c #babd74",
"jx c #bbb605",
"kS c #bcb702",
"c1 c #bdbfb2",
"e9 c #bdc096",
"eK c #beb605",
"hG c #bfb602",
"j8 c #c0bc87",
"f. c #c0c071",
".H c #c0c1ba",
"ei c #c1b902",
"gr c #c5b901",
"h2 c #c7bd05",
"eg c #c8bf02",
"j. c #c9c204",
"ju c #cabf03",
"fo c #ccd2c6",
"ii c #d1c604",
"eJ c #d1cfc9",
"hO c #d1d1c4",
"ja c #d2c705",
"ij c #d2c806",
"fN c #d3c600",
"jR c #d3c804",
"eG c #d3d6d1",
"hl c #d4c503",
"hI c #d4c905",
"h1 c #d5ca06",
"j# c #d6c904",
"gM c #d6dacf",
"eU c #d7dad3",
"jb c #d8ca04",
"g2 c #d8cc06",
"hn c #d9cb05",
"k# c #dac903",
"lh c #daca02",
"g5 c #dadccf",
"iL c #dbcd05",
"ef c #dbd7be",
"hH c #dccc04",
"jS c #ddce05",
"ff c #ddd000",
"hE c #dfe3d6",
"dM c #dfe3d9",
"gG c #e0d004",
"fT c #e0e3c9",
"e8 c #e1e2dc",
"ho c #e2d203",
"hm c #e2d206",
"hX c #e2e5de",
"jv c #e3d304",
"gz c #e3e4dc",
"g1 c #e4d305",
"jT c #e5d604",
"h0 c #e6d705",
"gh c #e6e7e1",
"ek c #e8e9ce",
"dN c #e8ebd1",
"h3 c #e9d703",
"dK c #e9ebe8",
"fF c #eaebe3",
"hj c #ebefe4",
"gs c #eedd06",
"gF c #eef0e3",
"gZ c #eef0e4",
"dL c #efeaf9",
"ku c #f0dc02",
"gb c #f0dd05",
"g# c #f0f1e7",
"eh c #f4e200",
"gH c #f5e004",
"jw c #f7e303",
"dO c #f7f1ff",
"fn c #f7f6ef",
"ee c #f8f8fa",
"jU c #f9e503",
"el c #f9f9f9",
"hJ c #fae402",
"eR c #fbf39d",
"eT c #fbfbfb",
"eI c #fcfdff",
"fL c #ffd500",
"gu c #ffd700",
"fK c #ffd800",
"fd c #ffd900",
"fe c #ffda00",
"fM c #ffdb00",
"eM c #ffdc00",
"eN c #ffde00",
"fc c #ffdf00",
"hp c #ffe100",
"g3 c #ffe200",
"ik c #ffe300",
"gt c #ffe400",
"iM c #ffe600",
"eL c #ffe800",
"fJ c #ffe900",
"fb c #ffeb00",
"eS c #fffffc",
"eH c #ffffff",
"Qt.#.#.a.b.c.d.e.f.g.h.i.j.k.l.m.n.o.p.q.r.s.t.k.u.m.v.w.x.q.y.s.z.A.B.C.D.E.F.G",
".H.I.J.K.L.L.M.N.O.P.Q.R.S.T.U.V.W.X.Y.Z.Q.0.1.2.3.4.W.X.Y.Z.Q.Q.5.2.6.7.8.9#.##",
"#a#b#c#d#e#f#g#h#i#j#k#l#m#n#o#p#q#r#s#t#k#u#m#v#w#x#y#z#A#t#u#B#m#v#C#D#E#F#G#H",
"#I#J#K#L#M#N#O#P#Q#R#S#T#U#V#W#X#Y#Z#0#1#S#T#U#2#3#4#5#Z#0#1#S#T#U#6#7#8#9a.a#aa",
"abacadaeafagahaiajakalam#3anaoapaqar#Wasalam#3anaoatauauaqasasam#3anavawaxau#7ay",
"azajaAaBaCaDaEaFaGaHaIaJaKaLaMaNaOaPaQaRaSaJaTaLaMaNaOaUaQaRaVaJaTaWaXaYaZa0aOa1",
"a2a3a4a5a6a7a8a9b.b#ba.Xbbbcbdbe.Ybfbgbhbibjbbbcbkblbmbfbgbnbobjbpbqbrbsbtbubvbw",
"bxbybzbAbBbCbDbEa3bFbGbHbIbJbKbLbM#rbNbObGbHbPbJbKbQbR#rbSbTbGbUbVbWbXbQbR#rbSbY",
"bZb0b1b2b3b4b5b6b7b8b9c.c#cacbcccdcecfcgchc.c#cicjccckclcmcgcnc.c##Tcocpcqa.crcs",
"ctcuctcvctcwcxcyczcAcBcCcDcEcFcGcHcIcJcKcLcCcDcMcNcGcHcIcJcOcPcCcDcMcQcRcScTcUcV",
"cWcXcYcZc0c1c2c3c4c5c6c7c8c9d.aZd#dadbdcc6dddedfdgdhdidjdkdcc6dldmdnd.dodpdqdrds",
"dt.0dudvdw.V.Wdx.RdydzdAdBdCdDdEdFdG#ldHdIdJdKdLdMdNdOdPdQdRdSdAdTdCdUdVdWdXdYdZ",
"d0#ld1#vd2d3d4d1d5#td6#zd7d8d9e.e#eaebecedeeefegeheiejekelemeneoepeqeresbP#zeteu",
"ev#zew#VcGexey#Zez#1eA#veBeCeDeEeFeGeHeIeJeKeLeMeNeheOePeQeReSeTeUeVeWeXcceYeZe0",
"e1as#3cJaoe2aue3au#we4cDe5e6e7e8e9f.f#fafbfcfdeMfefffgfhfifjfkflfmfnfofpfqfrfsft",
"aSfufvfwfxdwfyfzfAfBfCfwfDfEfFfGfHfIfJeNfdfKfLfLfMfNfOfOfPfhfhfQfRfSfTfUfVfWfXfY",
"fZf0bbf1f2f3f4f5f6f7bif8f9g.g#fHgagbfKfLfdfLfLfLfdgcfOfOgdfhfhfhgegfggghgigjbvgk",
"glgmbIgnbKbLbMd1bS#wbGgmgogpg#gqgrgsgteMfLfLfLfLgugvfOfOgwgdgxgxgxgxgygzgA#rbSbY",
"gBcc#Z#rdWgCcqclcrcggDcc#ZgEgFfHgGgsgHgtgufKfLfLgugIfOfOfOfOgJgxgxgKgLgMgNgOgPgQ",
"gRgSgTgUcRaxgVcIcgcOgWcHgXgYgZg0g1gsg2g3fcfKfLfLgug4fOfOgwfOgJgxgxgxgLg5g6g7g8g9",
"h.h#hahbhchdhehfhgdphhh#higYhjhkhlhmhnhohpeNfMfMfdeOfOfOfOhqhrgxgxgxgfg5hshthuhv",
"hwhxdFdChyhzdFhA#BhBdzhChDgEhEhFhGhmhHhIhJg3fcfMfdhKfOfOfOhLhMgxgxgxhNhOhPhQhRdZ",
"d6#zbShShTe.hUhVhWbcd6#zccgphXhYhZh0hHh1h2h3hpeNfdhKgwfOh4gKh5h6gxgxh7h8h9#zeteu",
"eyi.eBi#iaibeAc#icidey#veBieifigihiihHhHhIijhJikikhKiliminioipipiqirisitiuiviwix",
"iygTiz#3iAiBiCiDiEiFiygT#7iGiHiIiJiKiLhHhnijijiMikiNilgdiOiPipiPiQiRiSiTgSiUiViW",
"iXiYiYiYiZi0exi1i2i3i4i5iYi6i7i8i9fIj.j#hHjajbjbgtjcfOipipipipjdjejfjgjhjifWjjjk",
"badxjlbXbdjm.Yjnf6f7jof0jlf1jpjqjrjsjtjuhHhHhHjvjwjxipjyipjzjAjBjCjDjEjFjGjHjIjJ",
"gljKbIgnbKbLbMd1jLjMglgmbPbJjnbLjNjOjPjQjRjSjTjUjUjVipjyjzh6jWjXjYjZbubQbR#rj0j1",
"j2j3#Zj4j5cecq#Zcf#7gBj3#Z#rj5cej6j7j8j9k.k#jUjUjUjyipipkakbkckdkekfj5kgkhclcmgQ",
"kicEkjkjkkkl#7fBkmknkocEkjkjkkklcHkpkqkrksktkujUjwjyipkvkwkxkykziT#7kAkBcmkCkDkE",
"kFdpkGkHkIkJkKkLkMkNkFdpkGkHkOc9kKkPkQkRjPjQkSkujwiph6kTkUkVkWkXkYkZhck0.Uk1k2k3",
"hwhxk4dCk5k6hQk7k8hBdzhxk4k9l.l#lak7lblcldlelflglhjBkwkbliljlkhxk4dGlllmcjhQhRln",
"lo#zlplqlrlshUltlubcd6k4d7hSi#lvhUlwiclxlylzlAlBlClDkUlElFlGlHlIlJhSlKeslL#zetlM",
"kglNeBi#lOlPcpcpcbdVkgi.lQeCeuibcpcpiclRlSlTlUlVlWlXlYlZl0l1kg#vl2l3l4doj3ivl5l6",
"l7kj#Waul8l9m.m#maall7kj#WariAmbmcm#maalcrmdmemfmgmhmimjmkasbTlK#3axmlmmgUgSmnmo",
"mpjimqmrmsmt#Xmumsmvmwjimqmrmsmt#Xmxmsmyd2mumzmAmBmCmDmEmsmF#omxkNmGmHmImJi1mKmL",
"mMmNmOmPmQmR.5lamSmTmUmVmOmWmQmXmYmZmSmTmUm0btmWm1m2m3mZmSmTmUm4btm5m1m6m3m7m8m9",
"n.n#nanbncewndnenfgkn.ngnhnbnikhmMneeYnjnkngnhnbnikh#ZneeYnlnmnnndjLninonpnqnrns",
"ntnununv#CarnwaufBnxnynunznvnAarnBaufBnCnynum#nvnAarnuarfBnCnDiDm#nvnAiDnEnF#WnG",
"nHnInJnKnLnMnNnOnPnQnRnInJnKnLnMnNnPnPnSnRnInJnKnLnMnNnPnPnSnTnInKnKnLnUnVnWnXnY"};
