/* XPM */
static char *dummy[]={
"40 40 614 2",
"#I c #00a15e",
"cr c #06a15e",
"#v c #13a15f",
"d# c #32a15f",
"dQ c #32a579",
"dx c #32a679",
".G c #32a67a",
"da c #33a579",
"bf c #34a579",
"cO c #36a579",
"cd c #36a679",
"gh c #3b2c1e",
"bZ c #3ba579",
"fD c #3c291b",
"gT c #3c2f1f",
"fU c #3c2f20",
"gG c #3d301a",
"fm c #3e3122",
".F c #3fa578",
".Z c #40a577",
"bH c #40a578",
"e9 c #413426",
"hu c #413524",
"eQ c #413526",
"#9 c #41a578",
"#d c #41a678",
"gr c #423628",
"g3 c #433628",
"hB c #43381e",
"be c #43a578",
"hb c #443829",
"hl c #463a2a",
"f1 c #46a578",
"eD c #483d2f",
"f6 c #4a4034",
"eu c #4c4335",
"fZ c #4da576",
"eh c #4e4639",
"dX c #4f473a",
"hJ c #549e58",
"d. c #56a371",
"hh c #56a472",
"c9 c #58a572",
"hA c #595145",
"fS c #5a1c03",
"fk c #5b2710",
"e7 c #5d2c10",
"fC c #5d574b",
"gf c #5e2202",
"dC c #5e3116",
"dV c #5e3217",
"dU c #602d10",
"gF c #605950",
"ef c #612d10",
"es c #622d10",
"gp c #632304",
"ch c #645a38",
"dl c #656054",
"cY c #665e4e",
"g0 c #672607",
"eb c #67a996",
"bI c #67aa97",
"fu c #682e11",
"ed c #682f11",
"dB c #683114",
"dz c #692f11",
"gR c #694c3b",
"gD c #6a2808",
"eO c #6a2f11",
"gC c #6b2909",
"fh c #6b2f10",
"dS c #6b2f11",
"gQ c #6c280a",
"go c #6c2909",
"gP c #6c2a0a",
"e5 c #6c2f11",
"dh c #6c4228",
"gZ c #6d2a0a",
"fv c #6d2f10",
"hg c #6da05f",
"ge c #6e2a0a",
"dA c #6e3010",
"dc c #6e3011",
"df c #6e3112",
"cR c #6e3114",
"dg c #6e3519",
"hi c #6f290a",
"eP c #6f2c0c",
"ct c #6f361a",
"e3 c #6fa268",
"f4 c #702a0a",
"eq c #702e0e",
"dT c #702f0f",
"f3 c #712c0c",
"ee c #712e0e",
"fw c #712f0f",
"dd c #713010",
"cQ c #713011",
"gE c #71574a",
"dG c #715e3d",
"gS c #716b66",
"hz c #716c65",
"ht c #716c66",
"fA c #722e0e",
"er c #722f0f",
"de c #723010",
"ec c #723012",
"hf c #72a267",
"gd c #732d0d",
"eB c #733011",
"e4 c #733012",
"g1 c #735042",
"cx c #736238",
"g2 c #736f69",
"h. c #739959",
"fO c #743112",
"hy c #74a46d",
"fz c #752e0e",
"e6 c #752f0f",
"f2 c #753112",
"h# c #754833",
"e2 c #759d59",
"gA c #759d63",
"fj c #762e0e",
"cX c #766e5b",
"f0 c #76a78b",
"fi c #773010",
"hj c #775041",
"ha c #77736e",
"fT c #77777c",
"gB c #782f0f",
"gN c #789d60",
"gO c #792f0f",
"ep c #793112",
"gY c #799f5e",
"fR c #7c2e0d",
"dD c #7c563f",
"al c #7c9451",
"e1 c #7ca25f",
"fx c #7d3212",
"hk c #7d7876",
"gm c #7d9751",
"bX c #7d9a55",
"fQ c #7e3212",
"fP c #7f3313",
"dR c #803212",
"gc c #803313",
"cS c #804d36",
"b2 c #806f49",
"fy c #813313",
"gb c #823313",
"gn c #833313",
"g# c #839c56",
"bY c #839f5a",
"ga c #843414",
"f5 c #857b7d",
"bW c #85a057",
"gg c #868d98",
"ak c #869855",
"cs c #873212",
"gq c #878188",
"fg c #87964b",
"ft c #88964d",
"am c #889c64",
"fN c #89974e",
"fB c #8a7b79",
"hq c #8aa375",
"aB c #8b7b19",
"f# c #8b7c14",
"c. c #8b7c16",
"b7 c #8c7e17",
"fY c #8c9c55",
"b6 c #8e7f17",
"hs c #8e8a89",
"eN c #8e913f",
"f. c #8f7e1c",
"b9 c #908116",
"f7 c #908216",
"dn c #91821a",
"ay c #918415",
".Y c #928123",
"eA c #929443",
"cy c #937638",
"dI c #938417",
"do c #938615",
"eo c #939443",
"fn c #948615",
"ev c #948618",
"fl c #948f86",
"dy c #953413",
"eI c #958817",
"gy c #959743",
"b5 c #96832a",
"ck c #96871c",
"fF c #968a17",
"gz c #969a3d",
"he c #96a35e",
"ek c #978527",
"cG c #97871f",
"gH c #978821",
"gi c #978a16",
"fa c #978a1a",
"d3 c #978a1c",
".D c #978b36",
"c1 c #98672c",
"fV c #986e2e",
"hx c #988a19",
".V c #988c16",
".C c #988e38",
"dP c #989037",
".B c #998627",
"hI c #99891a",
"aA c #998c18",
"gX c #998d16",
"gU c #998d17",
"eV c #998d19",
"dw c #999039",
"ea c #99994c",
"ej c #9a862a",
"hp c #9a8d16",
"dp c #9a8d1a",
"eL c #9a8f16",
"hC c #9a9019",
"db c #9b3513",
"bQ c #9b4022",
"bN c #9b4023",
"aG c #9b8925",
"b8 c #9b8e1d",
"ew c #9b8f16",
"g8 c #9b9017",
"ei c #9c8535",
".7 c #9c892b",
"#3 c #9c892c",
"aR c #9c8c21",
".X c #9c8f18",
"el c #9c9019",
"eT c #9d4a28",
"#8 c #9d892b",
"bA c #9d892c",
"c3 c #9d8f1d",
"gt c #9d9119",
"e# c #9d9739",
"eS c #9e4b2b",
"c2 c #9e7334",
"fW c #9e8132",
"#n c #9e8c28",
"bq c #9e8c29",
"bG c #9e8d25",
"cc c #9e8d30",
"cL c #9e901f",
"bE c #9e9217",
"dN c #9e9314",
"e. c #9e983b",
"#c c #9f8a2e",
"cK c #9f8e24",
"cq c #9f8e30",
"a9 c #9f8f24",
"g9 c #9f9119",
"gw c #9f911a",
"ez c #9f9317",
"#C c #9f9515",
"d1 c #a0210e",
"bP c #a04324",
"c0 c #a06e3d",
"cz c #a07c34",
"#u c #a08c2b",
"bS c #a08d2a",
"ad c #a08e26",
"aX c #a08e2c",
".w c #a08f25",
"hd c #a0921b",
"eK c #a0921c",
"fL c #a09224",
"gM c #a09317",
"gl c #a09318",
"bD c #a0931b",
"#F c #a09514",
"ca c #a09516",
"dF c #a0a1a4",
"a2 c #a18e27",
"#H c #a18e2a",
"#Y c #a18e2e",
"bd c #a18f29",
"g7 c #a1931e",
"a4 c #a19331",
"fs c #a19418",
"fJ c #a19419",
"c8 c #a1943c",
"aP c #a19516",
"ff c #a19517",
"az c #a1951d",
"c# c #a1951e",
"hm c #a19615",
"dv c #a19617",
"gI c #a19618",
"b. c #a19715",
"e0 c #a19948",
"cw c #a19987",
".E c #a2904d",
"cN c #a29131",
"#R c #a29227",
"cM c #a2931f",
"#A c #a29324",
"aQ c #a29617",
"#t c #a29618",
"dM c #a2961b",
"f8 c #a2961c",
"hv c #a29716",
"av c #a29717",
"eX c #a29718",
"bn c #a29719",
".y c #a29816",
"gv c #a29817",
"gx c #a29940",
"bM c #a3452a",
"gs c #a37036",
"aj c #a38f2d",
"fM c #a39420",
".Q c #a39424",
"b1 c #a3957d",
"bF c #a39619",
"co c #a3961c",
".R c #a39717",
"bU c #a39718",
".S c #a39719",
"fX c #a3971a",
"aJ c #a39815",
"#r c #a39817",
"#7 c #a39818",
"hG c #a39918",
"bO c #a44124",
"d9 c #a49033",
"eM c #a49619",
"cl c #a49718",
"eZ c #a4971a",
"cm c #a4971d",
"hc c #a49818",
"aO c #a4981a",
"aM c #a49916",
"en c #a49917",
"at c #a49918",
"bT c #a49919",
"fb c #a4991b",
"dL c #a49a16",
"fH c #a49a17",
"cn c #a49a18",
"d6 c #a49a19",
"fK c #a5922b",
"a5 c #a59536",
"as c #a59625",
"dO c #a59819",
"#S c #a59918",
"#o c #a59919",
"d8 c #a5991a",
"dK c #a59a16",
"fq c #a59a17",
".U c #a59a18",
"bp c #a59a19",
"dq c #a59a1c",
"g6 c #a59b17",
"c6 c #a59b18",
"gL c #a59b1a",
"hr c #a5a3a8",
"di c #a68979",
"bV c #a69232",
"bm c #a69a18",
"#b c #a69a19",
"fo c #a69a1b",
"gJ c #a69b16",
"gk c #a69b17",
"#B c #a69b18",
"ag c #a69b19",
"dt c #a69b1a",
"#. c #a69c18",
"#5 c #a69c19",
"d7 c #a69c1a",
"f9 c #a69c1b",
"cJ c #a69d19",
"aH c #a79a19",
"aN c #a79b18",
"bc c #a79b19",
"aI c #a79b1b",
"fr c #a79b1c",
"bC c #a79c18",
".x c #a79c19",
"ai c #a79c1a",
".W c #a79c1d",
"ba c #a79d18",
"#E c #a79d19",
"em c #a79d1b",
"bR c #a8512f",
"ci c #a87d1c",
"dJ c #a89b19",
"#V c #a89c19",
"c7 c #a89c1a",
"aL c #a89c1b",
"cp c #a89c1d",
"#a c #a89d18",
"ax c #a89d19",
"ae c #a89d1a",
"#q c #a89d1b",
"gK c #a89e1b",
"aK c #a99d19",
"gj c #a99d1a",
"#s c #a99d1b",
"#W c #a99d1c",
"c4 c #a99e19",
".A c #a99e1a",
"aZ c #a99e1b",
"dr c #a99e1c",
"c5 c #a99e1d",
"ex c #a99f1b",
"fc c #a99f1c",
"b0 c #aa9c85",
".8 c #aa9d1a",
"#T c #aa9d1d",
"bB c #aa9e1a",
"hw c #aa9e1b",
"fp c #aa9e1c",
"ah c #aa9e1d",
"#U c #aa9f1a",
"a1 c #aa9f1c",
"hE c #aa9f1d",
"fd c #aaa01d",
"d0 c #ab3013",
"a3 c #ab9a39",
"eJ c #ab9e1a",
"#6 c #ab9e1c",
"## c #ab9f1a",
"d4 c #ab9f1b",
"af c #ab9f1d",
"#X c #aba01b",
"g5 c #aba01c",
"gW c #aba01d",
"ey c #aba11b",
"g. c #aba11d",
"fe c #aba21d",
"cP c #ac3714",
"eU c #ac733b",
"cA c #ac812f",
"g4 c #ac9f1b",
"eY c #ac9f1c",
"#4 c #ac9f1d",
"cH c #ac9f1e",
".9 c #aca01c",
"#p c #aca01d",
"bb c #aca01f",
"b# c #aca11f",
"bo c #aca21d",
"#G c #aca21f",
"cI c #ad9f1e",
"hH c #ada01b",
"eW c #ada01c",
"fI c #ada01e",
"fG c #ada11e",
".z c #ada11f",
"gV c #ada21d",
"bl c #ada31d",
"ds c #ada31e",
"#D c #ada31f",
"ho c #ada41f",
"d5 c #aea11e",
"gu c #aea11f",
".T c #aea31d",
"hn c #aea420",
"hF c #afa21c",
"aY c #afa21f",
"a0 c #afa31e",
"cb c #afa420",
"du c #afa51f",
"hD c #b0a31d",
"aw c #b0a520",
"au c #b1a620",
"cg c #b4b0ac",
"d2 c #b85e34",
"fE c #be7437",
"cE c #bf2f09",
"eR c #c4652d",
"cF c #c7592b",
"eH c #ca7438",
"e8 c #cdc8c5",
"dk c #ceccc7",
"dZ c #d05e1a",
"cD c #d14913",
"eC c #d7d3cf",
"et c #d7d4d0",
"eG c #d84a0e",
"cZ c #d99419",
"bz c #da5e22",
"dE c #dad0ca",
"cW c #dbd9d2",
"b3 c #dd9b14",
"bv c #df5411",
"cT c #dfb2a5",
"bw c #e04e11",
"by c #e15612",
"cu c #e1d6d0",
"eg c #e1dedc",
"ce c #e2d8d2",
"dW c #e5e3e1",
"eF c #e66218",
"cC c #e66b18",
"bx c #e96a19",
"eE c #ea6819",
"dY c #eb9809",
"dj c #f5f1f0",
"cf c #f5f6ff",
"cB c #f6a20d",
"cv c #f9f9f9",
"dm c #faa20b",
"cV c #fbfbfb",
"dH c #fea20b",
"br c #fea60a",
"cU c #fefdfc",
".v c #ff431f",
".u c #ff461e",
".P c #ff461f",
".O c #ff481e",
".t c #ff491e",
".6 c #ff4b1d",
".s c #ff4c1d",
"#z c #ff4d1d",
"#m c #ff4e1d",
".r c #ff4f1d",
"#Q c #ff501c",
".q c #ff511c",
"#2 c #ff521c",
"#P c #ff531c",
".p c #ff541c",
".o c #ff561b",
".N c #ff571b",
"ac c #ff581b",
".n c #ff591a",
".5 c #ff5a1a",
".m c #ff5b1a",
".M c #ff5c1a",
".l c #ff5d1a",
".L c #ff5f19",
".k c #ff6019",
".K c #ff6119",
".j c #ff6219",
".J c #ff6318",
".i c #ff6418",
"#l c #ff6518",
".h c #ff6618",
"#k c #ff6717",
".g c #ff6817",
".f c #ff6917",
"#j c #ff6a17",
".e c #ff6b17",
"#i c #ff6c16",
".d c #ff6d16",
"#h c #ff6e16",
".c c #ff6f16",
".b c #ff7016",
".a c #ff7115",
".# c #ff7215",
"Qt c #ff7315",
".I c #ff7415",
".4 c #ff7515",
".H c #ff7614",
"#O c #ff7714",
".3 c #ff7814",
".2 c #ff7914",
".1 c #ff7a13",
".0 c #ff7b13",
"ar c #ff7c13",
"#g c #ff7d13",
"#f c #ff7e13",
"#e c #ff7f12",
"#y c #ff8012",
"#N c #ff8112",
"#x c #ff8212",
"#w c #ff8312",
"#M c #ff8411",
"#L c #ff8511",
"#K c #ff8611",
"#J c #ff8711",
"ab c #ff8810",
"#1 c #ff8910",
"#0 c #ff8a10",
"#Z c #ff8b10",
"aa c #ff8c10",
"aW c #ff8d0f",
"a# c #ff8e0f",
"a. c #ff8f0f",
"aq c #ff900f",
"ap c #ff910f",
"ao c #ff920e",
"an c #ff930e",
"aF c #ff940e",
"aE c #ff950e",
"aD c #ff960e",
"aC c #ff970d",
"aV c #ff980d",
"aU c #ff990d",
"aT c #ff9a0d",
"aS c #ff9b0c",
"bk c #ff9c0c",
"a8 c #ff9d0c",
"a7 c #ff9e0c",
"a6 c #ff9f0c",
"bj c #ffa00b",
"bi c #ffa10b",
"bh c #ffa20b",
"bg c #ffa30b",
"b4 c #ffa40b",
"bu c #ffa50a",
"bt c #ffa60a",
"bs c #ffa70a",
"bL c #ffa909",
"bK c #ffab09",
"bJ c #ffac09",
"cj c #ffae08",
"QtQt.#.#.#.a.b.c.d.d.e.f.g.h.i.j.k.l.m.n.o.p.q.r.s.t.u.v.w.x.y.z.A.B.C.D.E.F.G.G",
".H.H.H.H.H.I.IQt.#.b.c.d.e.f.g.h.J.K.L.M.n.N.p.q.r.s.O.P.Q.R.S.T.U.V.W.X.Y.Z.G.G",
".0.0.0.1.2.2.3.H.4.I.#.a.c.d.e.f.h.i.j.L.l.5.N.p.q.r.6.O.7.8.9#.##.9#a#b#c#d.G.G",
"#e#e#e#f#g#g.0.0.2.3.H.I.#.b#h#i#j#k#l.j.L.l.5.N.p.q#m.6#n#o#p#q#r.9#s#t#u#v.G.G",
"#w#w#x#x#x#y#y#f#g.0.1.3.H.I.#.c.d.e.g#l.j.L.l.5.N.p.q#z#A#B#C#D#E#F#G.x#H#d.G#I",
"#J#J#J#K#L#M#M#x#N#e#g.0.2#O.4Qt.b.d.e.f.h.j.L.l.n.o#P#Q#R#S#T#U#V#W#X#S#Y#d.G.G",
"#Z#Z#Z#0#1#1#J#K#M#w#N#e#g.0.2.H.I.a#h.e.f#l.j.L.M.n.o#2#3#V#4#5#V#6.A#7#8#9.G.G",
"a.a.a.a#a#aa#Z#0ab#J#M#x#y#f.0.2.H.I.a#h.e.g#l.j.L.mac.padae.xafag#Eahaiajakalam",
"ananaoaoapaqa.a#aa#0ab#K#M#x#ear.2.H.I.a.d.e#k.i.K.l.m.Nas#ratau#BavawaxayazaAaB",
"aCaCaCaDaEaFaoapaqa##Z#1#J#M#x#ear.2.H.I.b.d#j.h.J.k.l.naGaHaIaJaKaLaMaNaOaPaQaR",
"aSaSaSaTaUaVaCaEanapa.aW#0#J#L#x#ear.2.HQt.c#i.f.h.j.L.maXaiaYaZ.Ua0a1ata2a3a4a5",
"a6a6a6a7a8aSaTaUaCaFaoaqa##Zab#L#x#e.0.2.4.##h.e.g.i.k.la9#Bb.b#bab.bbbcbdbebfbf",
"bgbgbhbhbibja7bkaTaVaEanaqa##Z#J#M#x#f.0#O.I.b.d.f.h.j.L.Q.RaOblbmbnbobpbq#d.G.G",
"brbsbsbtbubgbhbja7aSaUaDanaqa##0#J#M#y#g.2.H.#bvbwbxbybzbAbB#4bC#UbDbEbFbGbH.GbI",
"bJbJbKbLbLbsbubgbia7aSaUaDanaqaW#1#K#x#e.0.3bMbNbObPbQbRbSbT.9#sbUbVbWbXbYbZ.G.G",
"b0b1b2b3bJbKbLbsb4bha6aSaUaEaoa.#Zab#M#N#g.1b5b6b7b8b9c.c##Ecacb#5cccd.G.G.G.G#I",
"cecfcgchcicjbJbLbsbubha7aSaVaFapa##0#J#w#e.0ckclcmcnbUco#a#Vcp#.#Scqcr.G.G.G.G.G",
"csctcucvcwcxcyczcAcBb4bia7aTaCanaqaacCcDcEcFcGaxcH#.#VcIcJ#ocKcLcMcNcO.G.G.G.G.G",
"cPcQcRcScTcUcVcWcXcYcZbgbjbkaUaEapa##0c0c1c2c3c4#Bc5axc6afc7c8c9d.d#da.G.G.G.G.G",
"dbdcdddedfdgdhdidjdkdldmbha7aTaCaoa.#Zdndodpdq#rdrds#rdtdudvdwdx.G.G.G.G.G#I.G.G",
"dydzdzdAdddddBdCdDdEdFdGdHbjaSaVaFaqaadIdJaLdK#VaLdLaKdMdNdOdPdQ.G.G.G.G.G.G.G#I",
"dRdzdzdSdddddddTdUdVdWdXdYbia8dZd0d1d2d3d4d5d6.Ad5d7d8d9e.e#eaeb.G.G.G.G.G.G.G.G",
"ecdzdzeddSeeeeeeeeefegehbtbha7aTeiejekelbC.Uembaendr#SeodQdQdQ.G.G.GbIbI.G.G.G.G",
"epdzdzdzdzeqeeeeereseteubsbha6aSevewcoai#rafex#rcpeyezeA.G.G.G#I.G.GbIbI.G.G.G.G",
"eBdzdzeddzeqeeeeeeeseCeDeEeFeGeHeIeJaf#a##afbabceKeLeMeN.G.G.G.G.G.G.G.G.G#I.GbI",
"cQdzdzdzeOePeeeeeedUeCeQeReSeTeUeV.xeWeX.xeYbTeZe0e1e2e3.G.G.G.G.G.G.G.G.G.G.G.G",
"e4dzdzdze5e6eeeeeee7e8e9bsf.f#fafb#BfcfdbCemfefffg#I.G.G.G.G.G.G.G#I.G.G.GbI.G.G",
"e4eddzfherfifjeeeefkflfmbsfnbcfoenaxfpfqbcfrenfsft.G.G.G.G#I.G.GbIbI.G.G.G.G.G.G",
"e4fufvfwfxfyfyfzfAfBfCfDfEfFeJfGfHbBfIc6fJfKfLfMfN.G.G.G.G.G.G#IbIbI.G.G.G.G.G.G",
"fOfudSfPfQfyfQfRfSfTfUfVfWfX#.dr#q#.c7#qbFfYfZf0f1.G.G.G.G.G.G.G.G.G.G.G.G.G.GbI",
"f2dzfyfyfyfyf3f4f5f6f7dof8aO#rdsf9#rg.#qewg#.G.G.G.GbIbI.G.G.G.G.G.G.G.G.G.G.G.G",
"gafygbfygcgdgegfggghgi##gjfqbB#sgk#bfXcaglgm.G#I.G.GbIbI.G.G.G.G.G.G.G.G.G.G.G#I",
"gnfygbgcfjgogpgqgrgsgt#UfI#7bBgugvgwgxgygzgA.G.G.G.G.G.G.G#I.GbI.G.G#I.G.G.G.G.G",
"gbfyfygBgCgDgEgFgGgHgIdLfdbpgJgKgLgMgN.G.G.G.G.G.G.G.G.G.G.G.G.G.G.G.G.G.G.G.G.G",
"gbfygOgPgQgRgSgTgU#WbpdtgVdtbpgWaigXgY.G.G.G.G.G.G#I.G.G.GbI.G.G.G#I.G.G.G.G.G.G",
"fyfjgZg0g1g2g3eng4g5c6eJ#pg6fJg7g8g9h..G.G#I.G.GbIbI.G.G.G.G.G.G.G.G.G.G.G#I.G.G",
"gegPgCh#hahb#Wdv.A#4avae#4hchdhehfhghh.G.G.G.G#IbIbI.G.G.G.G.G.G.G.G.G.G.G.G.G#I",
"hig0hjhkhlhmhn.A#rhoaZendsfchphq.G.G.G.G.G.G.G.G.G.G.G.G.G.G.GbI.G.G.G.G.G.G.G.G",
"hrhshthuffai#V#rae.8hvaehwhvhxhy.G.GbIbI.G.G.G.G.G.G.G.G.G.G.G.G.G.GbIbI.G.G.G.G",
"hzhAhBhCgvhDhEgvhF#phGhHfGfHhIhJ.G.GbIbI.G.G.G.G.G.G.G.G.G.G.G#I.G.GbIbI.G.G.G.G"};
