/* XPM */
static char *dummy[]={
"40 40 972 2",
"lV c #605a49",
"iU c #686354",
"fQ c #6a6556",
"aQ c #6c6759",
"ai c #4c4638",
"fi c #575040",
"iE c #585141",
"lE c #595242",
"n# c #1e1b15",
"nf c #1f1b15",
"ni c #1f1c15",
"lG c #1f1c20",
"iv c #1f1e37",
"jw c #1f1e3a",
"nj c #201c15",
"lH c #201f31",
"jZ c #222033",
"iN c #22203b",
"ju c #24130f",
"lM c #242137",
"ib c #24223e",
"iL c #251211",
"ng c #26221c",
"ln c #262330",
"m4 c #27231c",
"na c #27231d",
"lv c #272540",
"lI c #272640",
"hS c #272641",
"jG c #281512",
"k7 c #281613",
"m9 c #28231c",
"mU c #28241b",
"hx c #282641",
"cQ c #29241b",
"nb c #29241d",
"m2 c #29251b",
"n. c #29251d",
"kt c #292843",
"jD c #2a1714",
"m5 c #2a251d",
"jI c #2a2842",
"kq c #2b1715",
"hf c #2b251c",
"hk c #2b251d",
"kd c #2b261d",
"nc c #2b271e",
"kR c #2b2944",
"hQ c #2c1d1a",
"kg c #2c261d",
"m8 c #2c271f",
"nd c #2c281f",
"jW c #2d1a17",
"gt c #2d1d1a",
"gL c #2d1e1b",
"i# c #2d1f1c",
"m6 c #2d2920",
"m3 c #2d2921",
"k3 c #2d2934",
"l. c #2d2b45",
"jF c #2e1b18",
"gZ c #2e1e1b",
"nh c #2e2a21",
"k# c #2f1c19",
"am c #2f2920",
"m7 c #2f2a21",
"ne c #2f2b21",
"jt c #301b19",
"f7 c #30221f",
"gu c #302320",
"av c #302921",
"iS c #302a1f",
"lU c #302b20",
"i7 c #311d1a",
"hw c #311e1b",
"kL c #311f1c",
"gK c #311f1d",
"l2 c #312a20",
"aA c #312a21",
"lQ c #312b20",
"fN c #312b21",
"km c #312e2d",
"hd c #312f48",
"i6 c #321d1b",
"f4 c #32201d",
"hv c #32201e",
"h9 c #32211d",
"mc c #322c22",
"j5 c #32314a",
"fX c #331c1b",
"f5 c #33201d",
"gs c #33211e",
"f6 c #33211f",
"mi c #332c22",
"gG c #341d1c",
"fW c #341f1d",
"js c #34201d",
"fx c #34211e",
"fz c #34221f",
"jb c #342e24",
"hp c #351e1d",
"is c #35211e",
"eY c #35211f",
"fy c #35221f",
"kl c #352e23",
"h. c #361f1e",
"hP c #36221f",
"eZ c #362421",
"ga c #363025",
"i9 c #36344a",
"h4 c #37201e",
"hb c #372220",
"i. c #372320",
"gJ c #372421",
"db c #373126",
"mT c #373227",
"jV c #382220",
"k. c #382320",
"iJ c #382321",
"i5 c #382421",
"cX c #383126",
"cU c #383226",
"cP c #383227",
"aZ c #383228",
"mL c #383327",
"a6 c #383328",
"g1 c #38354c",
"iK c #39221f",
"fA c #392926",
"kc c #393328",
"cV c #39332a",
"mC c #393427",
"aB c #39342a",
"jE c #3a2421",
"gY c #3a2422",
"et c #3a2a27",
"cR c #3a3327",
"cO c #3a3429",
"aw c #3a342b",
"cn c #3a3529",
"an c #3a352b",
"gn c #3b2321",
"kM c #3b2522",
"hg c #3b3428",
"cL c #3b3429",
"iB c #3b3528",
"cu c #3b3529",
"j8 c #3c2422",
"jn c #3c2522",
"iq c #3c2623",
"au c #3c3529",
"hj c #3c352a",
"lz c #3c3628",
"j0 c #3c3629",
"he c #3c362a",
"lN c #3c372c",
"gN c #3c394e",
"iH c #3d2523",
"kN c #3d2623",
"gr c #3d2724",
"fM c #3d3629",
"cS c #3d362a",
"iQ c #3d362b",
"iR c #3d372a",
"cN c #3d372b",
"kw c #3d372c",
"kA c #3d372d",
"gw c #3d3a4f",
"kp c #3e2724",
"ir c #3e2825",
"hh c #3e372a",
"ao c #3e372b",
"cW c #3e372c",
"lP c #3e382b",
"jr c #3f2725",
"fV c #3f2c29",
"lT c #3f372a",
"aC c #3f372b",
"fO c #3f372c",
"ke c #3f382b",
"ap c #3f382c",
"aD c #3f382d",
"hF c #3f382e",
"fH c #3f392d",
"m0 c #3f392e",
"mZ c #3f3a2e",
"jq c #402826",
"fq c #402927",
"fB c #403230",
"iA c #40382b",
"kf c #40382c",
"j3 c #40392c",
"aE c #40392d",
"dt c #40392f",
"mS c #403a2c",
"iO c #403a2d",
"mV c #403a2e",
"fk c #403a30",
"kI c #403a37",
"es c #412726",
"al c #413a2d",
"aq c #413a2e",
"fI c #413a2f",
"eN c #413b2e",
"fj c #413b2f",
"#6 c #413b30",
"lj c #413c2e",
"mq c #413c2f",
"eU c #422a28",
"j7 c #42322f",
"ak c #423a2e",
"mW c #423b2e",
"cM c #423b2f",
"fG c #423b31",
"iP c #423c2f",
"fd c #423c30",
"#Z c #423c31",
"iT c #423d31",
"mR c #433c2f",
"cT c #433c30",
"lF c #433c31",
"lS c #433d30",
"lR c #433e32",
"eq c #442928",
"cm c #443d2f",
"ct c #443d30",
"j4 c #443d31",
"hi c #443e31",
"cK c #443e33",
"mP c #443f32",
"i1 c #452c2a",
"g3 c #453e30",
"aj c #453e31",
"at c #453e32",
"g7 c #453f34",
"h6 c #462d2b",
"mQ c #463f30",
"mY c #463f31",
"az c #463f32",
"m1 c #464031",
"fJ c #464032",
"jo c #472d2b",
"mX c #473f30",
"ih c #473f31",
"lg c #474031",
"lO c #474032",
"fL c #474033",
"j2 c #474035",
"jR c #474354",
"eB c #484033",
"lc c #484132",
"ar c #484133",
"ax c #484134",
"iY c #484350",
"lL c #484559",
"f3 c #492d2b",
"io c #492e2c",
"eM c #494133",
"fP c #494234",
"ay c #494335",
"ip c #4a2f2d",
"dY c #4a4151",
"mI c #4a4233",
"#O c #4a4234",
"mD c #4a4332",
"mJ c #4a4333",
"as c #4a4335",
"fK c #4a4436",
"#P c #4a4538",
"fw c #4b2e2c",
"hM c #4b302e",
"ka c #4b4240",
"g# c #4b4856",
"hq c #4c2f2e",
"i2 c #4c302e",
"ha c #4c312f",
"kP c #4c3f3d",
"#Y c #4c4436",
"b3 c #4c4536",
"jL c #4c4537",
"mB c #4d4435",
"#5 c #4d4436",
"fc c #4d4537",
"bX c #4d4637",
"gC c #4d483a",
"kO c #4e302f",
"jU c #4e3130",
"i3 c #4e3230",
"jm c #4e3a38",
"mO c #4e4435",
"mz c #4e4534",
"ig c #4e4536",
"ex c #4e4754",
"gy c #4e483b",
"b# c #4e4940",
"hr c #4f3331",
"la c #4f4537",
"lb c #4f4636",
"if c #4f4637",
"eh c #4f4838",
"eG c #4f493b",
"by c #4f493c",
"iu c #4f4b5d",
"gV c #503231",
"cy c #504838",
"cv c #504839",
"cs c #504938",
"#x c #50493c",
"br c #504a3c",
"hs c #513331",
"bW c #514838",
"mF c #514938",
"cg c #514939",
"jg c #51493c",
"mM c #514a38",
"hZ c #514a3c",
"#t c #514a3d",
"cY c #514e47",
"jp c #523432",
"h# c #523433",
"iz c #524838",
"jK c #524938",
"gR c #524939",
"dZ c #524948",
"mK c #524a38",
"cl c #524a39",
"e8 c #524a3a",
"d4 c #524a3c",
"dL c #524b3d",
"eA c #524b4d",
"ez c #524c51",
"fT c #524d5c",
"il c #524e5e",
"jY c #525060",
"h5 c #533533",
"e0 c #534542",
"mN c #534a39",
"g2 c #534a3a",
"eg c #534a3c",
"mA c #534b38",
"e9 c #534b3a",
"lB c #534c3b",
"md c #534c3d",
"gh c #534c3e",
"#R c #534d3a",
"lX c #534d40",
"gl c #534f60",
"e6 c #534f61",
"er c #543231",
"f8 c #544946",
"mG c #544b39",
"cp c #544b3a",
"ch c #544b3b",
"gS c #544b3c",
"#1 c #544c3a",
"ll c #544c3b",
"ff c #544d3b",
"l9 c #544d3e",
"aY c #544d3f",
"l6 c #544e41",
"gF c #545062",
"g4 c #554b3b",
"kr c #554b4a",
"mr c #554c39",
"#S c #554c3a",
"fg c #554c3b",
"lA c #554d3b",
"b. c #554d3f",
"l1 c #554d40",
"lx c #554e3b",
"kk c #554e41",
"ey c #554f57",
"l5 c #555043",
"l7 c #555044",
"gT c #555163",
"j9 c #563635",
"gH c #563836",
"k8 c #564b4a",
"ik c #564d3c",
"l3 c #564e3f",
"mh c #564e41",
"lW c #565042",
"ek c #565053",
"m# c #565144",
"e7 c #565145",
"g8 c #565264",
"go c #573736",
"eL c #574e3c",
"ck c #574e3e",
"#4 c #57503d",
"mg c #575043",
"co c #575142",
"ma c #575143",
"#Q c #575242",
"#N c #584d3c",
"k1 c #584e3b",
"#X c #584e3c",
"#i c #584e3d",
"cz c #584e3e",
"ic c #584f3b",
"eE c #584f3c",
"#M c #584f3d",
"g6 c #584f3e",
"jX c #58504f",
"#V c #58513d",
"kv c #585143",
"je c #585144",
"iC c #58523e",
"#0 c #585242",
"#7 c #585243",
"me c #585244",
"lk c #58533e",
"lY c #585346",
"dj c #585360",
"fF c #585465",
"lJ c #585766",
"fr c #593534",
"gW c #593837",
"k6 c #594a48",
"fb c #594e3d",
"j1 c #594f3e",
"mH c #59503d",
"#s c #59503e",
"lw c #59513f",
"l0 c #595244",
"da c #595245",
"l4 c #595345",
"fe c #595444",
"l8 c #595446",
"j. c #595448",
"fY c #5a3836",
"hN c #5a3837",
"eK c #5a4f3f",
"bV c #5a503d",
"b2 c #5a503e",
"d6 c #5a503f",
"gE c #5a513e",
"cj c #5a513f",
"dM c #5a5140",
"ei c #5a523d",
"kZ c #5a533e",
"hE c #5a5344",
"mb c #5a5447",
"el c #5a545a",
"lZ c #5a5547",
"eO c #5a5657",
"lo c #5a5868",
"#m c #5b513d",
"b6 c #5b513e",
"ie c #5b513f",
"iy c #5b5140",
"cx c #5b523f",
"jQ c #5b5240",
"d2 c #5b5241",
"mE c #5b533e",
"eC c #5b533f",
"cr c #5b5340",
"ja c #5b5345",
"ld c #5b543f",
"#j c #5b5444",
"cf c #5b5445",
"ds c #5b5446",
"j# c #5b5647",
"jf c #5b5649",
"eV c #5c3837",
"#h c #5c513e",
"#r c #5c513f",
"ly c #5c5140",
"bR c #5c523d",
"#w c #5c523f",
"#W c #5c5240",
"hX c #5c5241",
"d3 c #5c5242",
"b5 c #5c533e",
"g5 c #5c5340",
"kT c #5c5341",
"kS c #5c5342",
"#8 c #5c543f",
"lh c #5c5440",
"ix c #5c5441",
"gQ c #5c5445",
"jO c #5c5545",
"iX c #5c5648",
"ky c #5c5749",
"cA c #5c584e",
"in c #5d4d4b",
"fa c #5d5341",
"hY c #5d5342",
"kU c #5d5343",
"cq c #5d543f",
"#2 c #5d5440",
"d1 c #5d5442",
"hW c #5d5443",
"#T c #5d5540",
"iD c #5d5541",
"lD c #5d5542",
"gd c #5d5548",
"f# c #5d5642",
"gb c #5d5646",
"gg c #5d5647",
"m. c #5d5749",
"ge c #5d574a",
"mf c #5d5849",
"do c #5d5864",
"be c #5d5950",
"iI c #5e3a39",
"cw c #5e5540",
"ci c #5e5541",
"ee c #5e5542",
"aX c #5e5647",
"#U c #5e5743",
"a5 c #5e5747",
"a9 c #5e5748",
"aT c #5e5849",
"aU c #5e584a",
"jc c #5e584b",
"dQ c #5e5856",
"hA c #5e594b",
"h2 c #5f5445",
"kX c #5f5542",
"jP c #5f5641",
"f. c #5f5642",
"ej c #5f5644",
"mp c #5f5645",
"#3 c #5f5743",
"a8 c #5f574a",
"a7 c #5f5848",
"a4 c #5f584a",
"aV c #5f594b",
"em c #5f5b65",
"kn c #5f5d6a",
"lC c #605642",
"dN c #605644",
"ef c #605645",
"k0 c #605740",
"iw c #605742",
"lm c #605743",
"fh c #605843",
"a0 c #605949",
"kj c #60594a",
"gf c #605a4c",
"jd c #605a4d",
"dp c #605b53",
"dR c #605b69",
"i4 c #613b3a",
"gI c #613c3b",
"#g c #615542",
"le c #615740",
"k2 c #615743",
"hT c #615745",
"kY c #615746",
"ii c #615840",
"eD c #615841",
"gx c #615846",
"#L c #615a48",
"hn c #615a4d",
"dg c #615b4d",
"di c #615b51",
"e. c #615c4f",
"jk c #615f6d",
"gX c #623b3a",
"ht c #623c3c",
"ij c #625743",
"bU c #625843",
"#q c #625844",
"eF c #625845",
"kH c #625846",
"jN c #625943",
"jJ c #625947",
"ku c #625a4a",
"hC c #625b4d",
"aW c #625c4d",
"kx c #625c4e",
".2 c #625d4f",
"ki c #625d50",
"e5 c #625d6e",
"kh c #625f53",
"h7 c #633c3b",
"gO c #635943",
"mm c #635945",
"bS c #635a43",
"b0 c #635a44",
"dK c #635a4b",
"kz c #635b4b",
"kB c #635c4b",
"iV c #635c4c",
"dq c #635d4e",
"a3 c #635d4f",
".X c #635e50",
"bF c #636057",
"dk c #63606e",
"mt c #645947",
"mv c #645a47",
"#v c #645b44",
"mu c #645b45",
"ms c #645b46",
"kG c #645c4d",
"hz c #645e50",
"fS c #645e52",
"iW c #645f50",
"hO c #653e3d",
"#n c #655c44",
"ml c #655c48",
"hD c #655c4d",
"bE c #655d4a",
"hG c #655e4d",
"fR c #655e4e",
"d# c #655e4f",
"hH c #655f50",
"hB c #656052",
"hm c #656053",
"aF c #656054",
"fs c #663d3d",
"d7 c #665c48",
"dO c #665c49",
"bQ c #665d46",
"hU c #665d49",
"bx c #665d4a",
"bq c #665d4b",
"jx c #665e4b",
"dr c #665e4e",
"aR c #665f4f",
"bY c #66604c",
"aS c #666051",
"df c #666052",
"dw c #666152",
".N c #666153",
"hl c #666255",
"lK c #666571",
"kb c #666671",
"h8 c #673e3e",
"eX c #673f3e",
"l# c #675c48",
"jA c #675d47",
"eJ c #675d4a",
"bZ c #675e48",
"#p c #675e49",
"kV c #675e4a",
"mo c #675e4b",
"d0 c #675f4b",
"gc c #676052",
"dd c #676152",
"dh c #676153",
"d. c #676255",
"b7 c #676257",
"lu c #676671",
"i0 c #685a59",
"id c #685d49",
"b4 c #685e48",
"dP c #685e49",
"hV c #685e4a",
"#o c #685f48",
"jM c #685f49",
"#l c #685f4a",
".L c #685f4b",
"#z c #68604a",
"my c #68604c",
"du c #686150",
"kC c #686152",
"fu c #693f3f",
"bn c #695f4a",
"eI c #69604b",
"bw c #69604c",
"ed c #69614e",
"bs c #69624d",
"bP c #696251",
"a2 c #696253",
"a1 c #696254",
"c9 c #696558",
"fv c #6a4040",
"eW c #6a4140",
"fp c #6a5b5a",
"bT c #6a604a",
"b1 c #6a614b",
".M c #6a614d",
"h1 c #6a614e",
"hy c #6a6254",
"bz c #6a634e",
"gD c #6a6351",
"dc c #6a6352",
"hI c #6a6354",
"ks c #6a6973",
"f2 c #6b4041",
"lf c #6b604a",
"li c #6b604b",
"bt c #6b614b",
"gP c #6b614c",
"gz c #6b624c",
"d8 c #6b624d",
"mw c #6b634d",
"mx c #6b6350",
"d5 c #6b644e",
"jy c #6b644f",
".V c #6b6451",
"de c #6b6455",
"hu c #6c4141",
"bm c #6c624c",
"gk c #6c624e",
"jj c #6c634d",
"mn c #6c6451",
"#k c #6c6551",
"#u c #6c6552",
"dv c #6c6556",
"aP c #6c675c",
"ft c #6d4242",
"bA c #6d634e",
".0 c #6d644e",
".K c #6d644f",
".S c #6d654e",
"h0 c #6d6650",
"kW c #6d6651",
"#y c #6d6653",
"iF c #6d6b78",
"gq c #6e4242",
"gp c #6e4343",
"bl c #6e644d",
"bu c #6e6653",
"eH c #6e6754",
"fZ c #6f4443",
"ji c #6f654f",
"bp c #6f6651",
"bB c #6f6654",
"bD c #6f6751",
"gA c #6f6754",
"kQ c #6f6e77",
"f0 c #704444",
"bk c #706750",
"gj c #706851",
"gB c #706852",
".U c #706853",
"fl c #706d7a",
"f1 c #714645",
"jh c #716851",
".R c #716853",
"dJ c #716857",
"mk c #716a58",
".5 c #726952",
"#f c #726954",
".Q c #726a53",
"ec c #726a54",
"mj c #726d5c",
"eb c #736a53",
"kF c #736a59",
"jz c #736b54",
"bC c #736b56",
"dx c #736f61",
"bv c #746b56",
"bo c #746c57",
"bj c #746e5b",
"gi c #746f5b",
".T c #756d59",
"d9 c #756e5a",
".1 c #756e5c",
".W c #756f5c",
".I c #75746c",
"k9 c #76777d",
"bi c #77746a",
"fo c #777ea7",
"iM c #797c77",
"fC c #797ea6",
"it c #797f8a",
".P c #7a725c",
".Z c #7a725d",
".4 c #7b735e",
"#9 c #7b7563",
"i8 c #7b8285",
"ea c #7c745f",
"dl c #7c7a86",
"kJ c #7d7e83",
"dI c #7f7865",
"hK c #7f7866",
".u c #807366",
"dH c #807a68",
".m c #817467",
"kE c #817a67",
".J c #817b66",
"jH c #818884",
"hJ c #827c69",
"cE c #827c70",
"kD c #837d6a",
"#A c #857f6c",
"cC c #868173",
"#J c #878175",
"aI c #878274",
"bh c #87857b",
"aJ c #888375",
"dn c #888691",
"ia c #888694",
"k4 c #88888d",
".c c #897d6f",
".6 c #898472",
"cD c #898477",
"lt c #898a8e",
"ae c #8a8578",
"af c #8a8579",
"ag c #8a8679",
"dB c #8a897e",
"#I c #8b8678",
"aO c #8b867a",
".O c #8b8773",
".Y c #8c8774",
"jT c #8c94af",
"#H c #8d877a",
".3 c #8d8875",
"aM c #8d887d",
"bd c #8d8a7d",
"eP c #8e8c92",
".k c #8f8677",
".s c #8f8777",
"e# c #8f8b78",
"ah c #8f8b7f",
"bc c #8f8c7f",
"ew c #8f8d97",
"dm c #8f8e97",
"bf c #908e83",
"kK c #909599",
"c. c #918d80",
"cF c #918e85",
"jB c #919196",
".h c #92897a",
"aN c #928c80",
"b9 c #928d7f",
"bg c #929086",
"aH c #938e81",
"#K c #938e82",
".y c #958f82",
"#e c #959188",
"jv c #959886",
"bb c #969389",
".H c #96968e",
"cb c #979284",
"bL c #979386",
"iZ c #97979a",
"aK c #989589",
".G c #98988f",
".t c #998978",
".i c #998e7f",
".q c #998f7f",
".w c #999182",
"#d c #999489",
"cI c #999688",
"bK c #99968c",
"fn c #999bb3",
"lp c #999c9a",
"lr c #999e9b",
".r c #9a8976",
".j c #9a8977",
".l c #9a8a78",
"ad c #9a9688",
"aL c #9a978c",
".e c #9b8f7e",
".o c #9b9183",
"cJ c #9b9689",
".n c #9c907e",
".f c #9c9283",
"aa c #9c9688",
"bJ c #9c998c",
"c# c #9c998f",
"cH c #9c9a8b",
".C c #9c9d95",
"#G c #9d9a8b",
".x c #9e9283",
".a c #9e998c",
"ab c #9e9a8c",
".g c #a09080",
"#c c #a09c92",
".p c #a19181",
".b c #a19282",
"a# c #a19c8d",
"bM c #a19e91",
"c0 c #a1a096",
"ba c #a1a198",
".D c #a1a29a",
"Qt c #a29b8d",
"en c #a29ea6",
"c2 c #a2a197",
".B c #a2a39b",
"j6 c #a2a6a1",
"c3 c #a3a39b",
"g. c #a3a4a0",
"ls c #a3a8a3",
"#b c #a4a296",
"c8 c #a4a297",
".F c #a4a59d",
"jl c #a4a6a5",
".v c #a59d8e",
"e1 c #a5b3df",
"ko c #a6aba6",
"ca c #a7a495",
"bH c #a7a598",
"c7 c #a7a59b",
"ce c #a8a495",
"#F c #a8a595",
"bI c #a8a698",
"im c #a8a9a9",
".E c #a8aaa2",
".# c #a9a093",
"#E c #a9a697",
"c5 c #a9a79d",
"jS c #a9aca9",
"ac c #aaa799",
"#a c #aaa79b",
"c6 c #aaaa9f",
".A c #aaaca5",
"iG c #aaacac",
"jC c #aaaeae",
".d c #ab9e8d",
"cG c #aba99b",
"dX c #acacb4",
"bO c #ada99c",
"cc c #adab9c",
".9 c #adaba1",
"#D c #aeaa9c",
"#C c #aeab9e",
"c1 c #aeafa6",
"lq c #aeb2ac",
"cB c #afaea5",
"dA c #afafa2",
"k5 c #afb3ad",
"bN c #b0ada1",
"dz c #b0afa2",
"## c #b1aea3",
"dD c #b2b1a3",
"cd c #b4b2a5",
"dE c #b4b3a7",
"c4 c #b4b3a9",
"dG c #b4b4a8",
".z c #b4b7b1",
"dy c #b5b5aa",
"dF c #b7b8ad",
"#. c #b8b7ae",
"aG c #b9bab1",
"a. c #bbbcb2",
"b8 c #bcbdb5",
"dC c #bdbeb2",
"cZ c #c0c2bb",
"ep c #c0c5d2",
"#B c #c4c6bd",
"hR c #c5c6cd",
".8 c #c5c7bf",
"bG c #c5c7c0",
"fE c #c9c7ce",
"eT c #c9cbce",
"f9 c #cacbda",
"hc c #cfcfd7",
"eu c #d0d2e1",
"g0 c #d1d0d7",
".7 c #d1d4ce",
"eQ c #d2d1d4",
"dV c #d2d3e2",
"e4 c #d4d3d7",
"hL c #d8d7df",
"dU c #dcdae0",
"fm c #dcdce0",
"gM c #dcdce1",
"h3 c #dfdee2",
"gv c #e1e1e5",
"fU c #e3e3e8",
"gU c #e3e3eb",
"g9 c #e4e4eb",
"ho c #e6e5ec",
"gm c #e7e7ed",
"dS c #e9e8ea",
"fD c #f0f1f5",
"dT c #f6f8ef",
"eo c #f9f9f8",
"ev c #f9f9f9",
"e3 c #fbfbfb",
"dW c #fbfff5",
"e2 c #fcfcfe",
"eS c #fffefd",
"eR c #ffffff",
"Qt.#.a.b.c.d.e.f.g.h.i.j.k.l.m.d.n.o.p.h.q.r.s.t.u.v.n.w.x.y.z.A.B.C.D.E.F.G.H.I",
".J.K.L.M.N.O.P.Q.R.S.T.U.V.W.X.Y.Z.Q.R.0.T.R.V.1.2.3.4.5.R.6.7.8.9#.###a#b#c#d#e",
"#f#g#h#i#j#k#l#m#n#o#p#q#r#s#t#u#l#m#v#o#p#q#w#s#x#y#z#m#v#A#B#C#D#E#F#G#H#I#J#K",
"#L#M#N#O#P#Q#R#S#T#U#V#W#X#Y#Z#0#R#1#2#3#4#W#X#5#6#7#R#1#8#9a.a#aaabacadaeafagah",
"aiajakalamanaoapaqarasatauauavawaoapalaxayazauauaAaBaCaDaEaFaGaHaIaJaKaLaMaNaOaP",
"aQaRaSaTaUaVaWaXaYaZa0a1a2a3a4aVaWa5aYa6a7a1a2a3a8aVaWa9b.b#babbbcbdbebfbgbgbhbi",
"bjbkblbmbnbobp.Lbqbrbs.Qbt.0bubvbpbwbxbybz.QbtbAbBbCbDbwbEbFbGbHbIbJbKbHbLbMbNbO",
"bPbQbRbSbnbTbUbVbWbXbYbZbRb0b1bTbUb2bWb3bYb4b5bSb1bTbUb6bWb7b8b9adc.c#cacbcccdce",
"cfcgchcicjcgckclcmcncocgcpcqcrcsckclctcucocvcpcwcxcyczclctcAcBcCcDcEcFcGcHcIcJ#E",
"cKcLaoaucMcNcOcPaucQaBcRcScScTaocLcUaucQcVcRcScScTcWcLcXcucYcZc0c1c2c3c4c5c6c7c8",
"c9d.d#dadbdcdddedfdgdhdidjdkdldmdndodpdgdhdqdrdsdtdudddvdwdxdydzdzdAdBdCdDdEdFdG",
"dHdIdJdKdLbsdMdNdOdPdQdRdSdTdUdVdWdXdYdZd0d1d2d3d4d5d6dNd7d8d9#f#u.We.e#eaebec.S",
"edeeefegeheiejekelemeneoepeqereseteuevewexeyezeAeBeCeDeEbUbt#peF#w#seGeHeI#m#v#o",
"eJeKeLeMeNeOePeQeReSeTeUeVeWeXereYeZe0e1e2e3e4e5e6e7e8e9f.f##Vfafbfcfdfefffg#2fh",
"fiazfjfkflfmfnfofpfqfrfsftfufvfwfxfxfyfzfAfBfCfDfEfFfGfHfIfJfKfLcSfMfNawfOaEalfP",
"fQfRfSfTfUfVfWfXfYeXftfZf0f1f2f3f4f4f5fxfxf6f7f8f9g.g#cfdLgagbgcgcdggdgegfggghcP",
"gigjgkglgmfWgngogpf1gqf1f1f1ftgrf4f4gsfxfxfxf5gtgugvgwgxbxgyd5ebgzbAgAbCgBbwbxgC",
"gDbQgEgFgmgGeqgHgIfvf0f1f1f1gpgJf4f4gKgsf5f5f5f5gLgMgNb6bWb3bY#ob5gOgPbTbUb6bW#Y",
"gQgRgSgTgUfWgVgHgWgXgpfZf1f1gpgYf4f4f4f4f5f5f5fxgZg0g1g2g3cucocgg4cwg5cgg6e9g3cu",
"g7auaDg8g9h.h#gHhagIfsftf1f1gphbf4f4gKf4f5f5f5f5gZhchdcPhehfaBhghhaohiaphjcPhehk",
"hlhmhng8hohphqh#hrhshteXfvhufteYf4f4f4hvhwf5f5f5gthchxhyhzhAhBhChDhEhFhGhHhIhzhA",
"hJhKdJgThLgGesh#gVhMhNgIhOfvftgJf4f4f4gshPf5f5f5hQhRhShThUhVd0hWhXhYhZh0dMhThUhV",
"h1eeh2gFh3h.h4h5gVhah6h5h7h8ftgJgKf4h9fxi.hPf5f5i#iaibicbUbtidieifigih#8iiicijbt",
"eJd6ikilimingGiogVgVhMiphNh7h7gJhvf5fxiqiririsfWitiuivcpiwixffiyiziAiBiCe9cpf.iD",
"iEfL#6fIiFiGh.iHhrgVhripipiIh7iJhvgsgriqiriqiKiLiMiNfjiOiPfLazfMiQiRiSiTcTiOcMfL",
"iUiViWiXiYiZi0fXi1i2gVipi3i3i4i5f4iriririri6i7i8i9j.j#ja#xjb#0jcjdhAjejfj#cfjgjb",
".WjhjijjdPjkjljmjnjogVgVgVjpgWjqirjririrjsjtjujvjwbCgB.Mjxgyjyjzbm.0gAbC.R.MbqgC",
"gDjAb5bSbnbTjBjCjDjEipgVjpgWgWjrirjrirhPjFjGjHjIjJbTbUb6jKjLbYjMb5bSgPbTjNb6jKb3",
"jOe8fgjPjQe8jRjSjTjtjEjUgWgWgWjririrjVjFjWjXjYjZcxcl#scpg3j0#0e8fgcwixclj1cpg3he",
"j2cSj3aoj4apcuj5j6j7isj8j9gWgWjrirk.k#jtkakbiNaoazaDiQkccNkdanaukekfazaDiQkccNkg",
"khkikjkkklfRa3kmknkojDjEkpj9gWirhPk#kqkrksktkukvkwiVa3gckxky.XgfkzkvkAkBdqkCkxky",
"kDkEkFkGdLjyd2kHkIkJkKkLkMkNkOjtk#jFkPkQkRkSkTkUdLh0jQkHkVbnd0hWkTkUhZkWjQkHkVbn",
"h1kXkYgSehkZk0k1k2k3k4k5k6i6k7i7kqk8k9l.l#ielalblcldleicbUlfidieiflblglhleick2li",
"kVd6eLeMljlklllllmcrlnlolplqlrlsltlulvlwlxlyiziAlzlke9lliwiDlAlyiziAiBlklBlllClD",
"lEeB#ZcMa6iTlFaqj4fPg3lGlHlIlJlKlLlMlNfPlOhhaplPlQlRj4eNlSfPfLlTaplPlUlRj4eNlSfP",
"lVggaVlWlXlYlZl0l1l2l3l4iXl5l6l7l8kvkkfNl9dam.m#malYmbl0kkmcmdmemfm#mglYmbl0mhmi",
"mjmk#lmlmmmnmolDmpmqmrh0gzmsmtmnd0lDmpmqmrh0gzmumv.Vd0d1mpfjmrh0mwmumvmxmyd1mpfj",
"#jd2mzmA#MgEjKmB#OmCmDmEmFmGmHgEjKmBmImCmJmEmFmGmHgEmKmBmImLmJmEmMmAmH#smNmOmImL",
"mPcNapmQmRmSakapmTmUmVmWmSmXmYmSakapcPcQmZmWmSmQmYmSakkecPcQm0eNmSmQm1mSakkecPm2",
"m3m4m5m5m6m7m8m9n.n#nanbncndnem7m8m9n.nfngnbncndnenhm8m9n.ningnbncm8nenhndm9n.nj"};
