/* XPM */
static char *dummy[]={
"40 40 976 2",
"mb c #3d372c",
"kv c #463f32",
"hr c #453f32",
"ds c #443e31",
"nn c #28231a",
"i1 c #423b30",
"fY c #413b30",
"ku c #6a6557",
"cV c #2c251b",
"m7 c #322c20",
"fs c #2b2319",
"hq c #6a6456",
"ay c #332d21",
"g5 c #2c251b",
"iC c #2b2419",
"a1 c #3d372c",
"dr c #696455",
"k. c #2c251b",
"lQ c #2b2419",
"kt c #635d4f",
"hp c #645f50",
"dq c #666051",
"cU c #3f382c",
"ma c #585042",
"i0 c #615a4c",
"fX c #625c4d",
"g4 c #3f382c",
"cT c #3d372c",
"g3 c #3e382c",
"j9 c #3f382c",
"fr c #362e23",
"iB c #362f24",
"j8 c #3f392d",
"lP c #373024",
"ie c #1f1d37",
"lG c #1f1e31",
"jh c #1f1e3a",
"lF c #201c20",
"nf c #211e17",
"jN c #211f33",
"nh c #221e17",
"iz c #22203b",
"ni c #23201a",
"jf c #24130f",
"ng c #24201a",
"m8 c #24211b",
"lL c #242137",
"hZ c #24223e",
"ix c #251211",
"nl c #26221b",
"li c #26232f",
"nm c #27231b",
"lq c #272540",
"lH c #272640",
"hG c #272641",
"jv c #281512",
"k5 c #281613",
"nd c #28241c",
"ne c #28241d",
"ho c #282641",
"m9 c #29241d",
"kp c #292843",
"js c #2a1714",
"jx c #2a2842",
"km c #2b1715",
"mY c #2b261c",
"m3 c #2b261d",
"n# c #2b261e",
"n. c #2b271e",
"kO c #2b2944",
"hE c #2c1d1a",
"lN c #2c251b",
"cK c #2c271e",
"nk c #2c271f",
"jK c #2d1a17",
"gg c #2d1d1a",
"gw c #2d1e1b",
"hX c #2d1f1c",
"ik c #2d271c",
"cO c #2d271e",
"nc c #2d2820",
"k1 c #2d2a35",
"k8 c #2d2b45",
"ju c #2e1b18",
"gJ c #2e1e1b",
"ly c #2e271d",
"jV c #2e281f",
"nb c #2e2920",
"nj c #2e2a21",
"j3 c #2f1c19",
"cs c #2f281d",
"gO c #2f291d",
"je c #301b19",
"fR c #30221f",
"gh c #302320",
"e0 c #30291d",
"ih c #302a1d",
"na c #302c22",
"iW c #311d1a",
"hn c #311e1b",
"kI c #311f1c",
"gv c #311f1d",
"lw c #312a1d",
"g2 c #312f48",
"iV c #321d1b",
"fO c #32201d",
"hm c #32201e",
"hV c #32211d",
"jA c #322c20",
"ki c #322f2e",
"jX c #32314a",
"fH c #331c1b",
"fP c #33201d",
"gf c #33211e",
"fQ c #33211f",
"bY c #332c20",
"ao c #332c22",
"mT c #332d22",
"gr c #341d1c",
"fG c #341f1d",
"jd c #34201d",
"fh c #34211e",
"fj c #34221f",
"av c #342c22",
"hg c #351e1d",
"ib c #35211e",
"eO c #35211f",
"fi c #35221f",
"iJ c #352f25",
"my c #353024",
"cP c #353027",
"gX c #361f1e",
"hD c #36221f",
"eP c #362421",
"mM c #363025",
"cL c #363027",
"mK c #363125",
"cB c #363127",
"iY c #36344a",
"hQ c #37201e",
"g0 c #372220",
"hW c #372320",
"gu c #372421",
"aa c #372f22",
"lu c #373023",
"eD c #373024",
"bw c #373025",
"lX c #373026",
"gl c #373125",
"jm c #373126",
"l0 c #373127",
"gU c #373128",
"at c #373129",
"gP c #373228",
"jJ c #382220",
"j2 c #382320",
"iv c #382321",
"iU c #382421",
"eu c #383124",
"h2 c #383125",
"cI c #383227",
"l7 c #383228",
"ap c #383229",
"jW c #383329",
"gL c #38354c",
"iw c #39221f",
"fk c #392926",
"lc c #393224",
"le c #393225",
"fA c #393328",
"jQ c #393329",
"e2 c #39332a",
"jt c #3a2421",
"gI c #3a2422",
"ej c #3a2a27",
"dZ c #3a3326",
"fq c #3a3327",
"cC c #3a3328",
"kR c #3a3426",
"iA c #3a3427",
"an c #3a3428",
"aR c #3a3429",
"m4 c #3a352a",
"ga c #3b2321",
"kJ c #3b2522",
"lO c #3b3427",
"gQ c #3b3428",
"cH c #3b3429",
"cJ c #3b3529",
"e5 c #3b352a",
"mZ c #3b362b",
"j0 c #3c2422",
"j. c #3c2522",
"i# c #3c2623",
"cE c #3c3529",
"gT c #3c352a",
"cg c #3c362a",
"lM c #3c362b",
"mU c #3c372b",
"gy c #3c394e",
"it c #3d2523",
"kK c #3d2623",
"ge c #3d2724",
"cM c #3d3529",
"cD c #3d3629",
"#7 c #3d362a",
"ij c #3d362b",
"jU c #3d372b",
"gj c #3d3a4f",
"kl c #3e2724",
"ia c #3e2825",
"gS c #3e362a",
"gR c #3e372a",
"#3 c #3e372b",
"#W c #3e372c",
"iq c #3e382b",
"e6 c #3e382c",
"jc c #3f2725",
"fF c #3f2c29",
"aq c #3f372c",
"jR c #3f382b",
"au c #3f382c",
"cG c #3f382d",
"ar c #3f392c",
"ax c #3f392d",
"kc c #3f392e",
"kh c #3f392f",
"aw c #3f3a2f",
"kF c #3f3a37",
"jb c #402826",
"fa c #402927",
"fl c #403230",
"#H c #40382a",
"la c #40382b",
"er c #40382c",
"e3 c #40392d",
"jT c #40392e",
"in c #403a2d",
"h. c #403a2f",
"ei c #412726",
"m6 c #41392d",
"mV c #413a2d",
"m2 c #413a2e",
"m0 c #413b2d",
"lB c #413b2e",
"io c #413b2f",
"mj c #413b30",
"eK c #422a28",
"jZ c #42322f",
"d9 c #423a2c",
"h1 c #423a2d",
"mX c #423a2e",
"eC c #423b2d",
"cQ c #423c2f",
"lC c #423c30",
"d. c #423c31",
"hK c #433b2d",
"kV c #433b2e",
"m5 c #433b2f",
"cN c #433c2f",
"cF c #433c30",
"im c #433c31",
"il c #433e32",
"eg c #442928",
"lt c #443c2e",
"lA c #443d31",
"lE c #443d32",
"cR c #443e31",
"lz c #444033",
"aH c #444037",
"iQ c #452c2a",
"eZ c #453e2e",
"mW c #453e2f",
"cS c #453e31",
"j6 c #453f31",
"e4 c #453f32",
"lD c #454034",
"hS c #462d2b",
"ig c #463e2f",
"lv c #463f2f",
"cr c #463f31",
"jS c #463f32",
"ii c #464032",
"j7 c #464033",
"j# c #472d2b",
"## c #473f30",
"gN c #473f31",
"cf c #474031",
"cm c #474032",
"ip c #474033",
"lx c #474133",
"jF c #474354",
"am c #484034",
"#C c #484132",
"bT c #484133",
"as c #484134",
"al c #484234",
"bn c #484235",
"iN c #484350",
"lK c #484559",
"fN c #492d2b",
"h9 c #492e2c",
"bO c #494133",
"dU c #494136",
"m1 c #494233",
"#w c #494234",
"e1 c #494335",
"bh c #494336",
"i. c #4a2f2d",
"mG c #4a4133",
"dQ c #4a4150",
"eY c #4a4233",
"jp c #4a4234",
"kP c #4a4236",
"#o c #4a4335",
"f7 c #4a4337",
"fg c #4b2e2c",
"hA c #4b302e",
"j4 c #4b4240",
"if c #4b4334",
"dD c #4b4337",
"mz c #4b4434",
"d2 c #4b4436",
"mL c #4b4534",
"mN c #4b4535",
"fV c #4b4856",
"hh c #4c2f2e",
"iR c #4c302e",
"gZ c #4c312f",
"kM c #4c3f3d",
"d8 c #4c4334",
"kC c #4c4438",
"lY c #4c4537",
"hu c #4c4538",
"hJ c #4d4435",
"kx c #4d4539",
"kL c #4e302f",
"jI c #4e3130",
"iS c #4e3230",
"i9 c #4e3a38",
"kU c #4e4435",
"mF c #4e4535",
"mS c #4e4536",
"#V c #4e4637",
"lR c #4e4638",
"en c #4e4754",
"ks c #4e483a",
"hi c #4f3331",
"mR c #4f4636",
"#2 c #4f4637",
"#6 c #4f4738",
"id c #4f4b5d",
"gF c #503231",
"c. c #504839",
"hj c #513331",
"kT c #514738",
"hO c #51473a",
"bN c #514837",
"bS c #514838",
"cc c #514939",
"jC c #51493a",
"eq c #514a4d",
"cn c #514b3d",
"eX c #514b44",
"ja c #523432",
"gY c #523433",
"jz c #524838",
"d7 c #524839",
"jo c #524938",
"a. c #524939",
"mC c #524a38",
"gA c #524a39",
"dR c #524a49",
"do c #524c3d",
"ch c #524c3e",
"b9 c #524d3e",
"fD c #524e5c",
"h6 c #524e5e",
"jM c #525060",
"hR c #533533",
"eQ c #534542",
"l# c #534939",
"gM c #534a3a",
"mB c #534b39",
"ce c #534b3a",
"iI c #534b3e",
"mI c #534c39",
"eA c #534c3a",
"#5 c #534c3b",
"iK c #534c3e",
"#Y c #534d3b",
"gB c #534e3f",
"l4 c #534f43",
"g. c #534f60",
"eW c #534f61",
"eh c #543231",
"h5 c #54493b",
"fS c #544946",
"eB c #544a3a",
"cl c #544b3a",
"c# c #544b3b",
"gC c #544b3c",
"mE c #544c3a",
"cp c #544c3b",
"ey c #544d3b",
"iD c #544d3e",
"fz c #544d3f",
"l3 c #544d40",
"ep c #544d52",
"gz c #544e40",
"gq c #545062",
"lg c #554b3a",
"ls c #554b3b",
"kn c #554b4a",
"mc c #554c3a",
"#Z c #554c3b",
"ck c #554c3c",
"mk c #554d3a",
"jO c #554d3b",
"fB c #554e3f",
"jB c #554f40",
"gD c #555163",
"j1 c #563635",
"gs c #563836",
"k6 c #564b4a",
"cd c #564d3c",
"aQ c #564f41",
"eo c #565057",
"h3 c #56513e",
"lf c #56523e",
"l2 c #565245",
"gV c #565264",
"gb c #573736",
"#9 c #574d3e",
"cq c #574e3d",
"#S c #57503d",
"lU c #575042",
"l9 c #575142",
"ea c #575153",
"lV c #575245",
"lT c #575246",
"l8 c #575346",
"#U c #584e3d",
"kX c #584f3b",
"k0 c #584f3c",
"jP c #584f3d",
"#n c #584f3e",
"mO c #58503b",
"hM c #58503c",
"jL c #58504f",
"mH c #58513c",
"ev c #58513d",
"aV c #585142",
"iF c #585144",
"l5 c #585345",
"de c #585460",
"fp c #585465",
"lI c #585766",
"fb c #593534",
"gG c #593837",
"k4 c #594a48",
"ew c #594f3d",
"#v c #594f3e",
"et c #59503c",
"mD c #59503d",
"mP c #59503e",
"mA c #59513c",
"dY c #59513d",
"hI c #59513e",
"aS c #595243",
"l6 c #595244",
"iZ c #595344",
".6 c #595346",
"eb c #595359",
"fI c #5a3836",
"hB c #5a3837",
"mJ c #5a503d",
"h0 c #5a503e",
"ld c #5a503f",
"a# c #5a513e",
"#0 c #5a523e",
"es c #5a5240",
"mQ c #5a5241",
"kb c #5a5244",
"bv c #5a5341",
"aI c #5a5343",
"lW c #5a5344",
"lZ c #5a5345",
"#X c #5a5446",
".3 c #5a5447",
"#8 c #5a5545",
"#4 c #5a5547",
"eE c #5a5557",
"lj c #5a5868",
"ci c #5b513e",
"#F c #5b523f",
"dX c #5b5241",
"ez c #5b533f",
"jl c #5b5342",
"kr c #5b5345",
"gk c #5b5442",
"g9 c #5b5446",
"m# c #5b5447",
"ex c #5b5547",
".U c #5b5548",
"l1 c #5b5648",
"eL c #5c3837",
"#T c #5c523f",
"dT c #5c5240",
"dB c #5c5241",
"#G c #5c533e",
"ca c #5c533f",
"dF c #5c5341",
"hH c #5c5342",
"gp c #5c5441",
"iH c #5c5546",
"iG c #5c564a",
"kg c #5c5749",
"h8 c #5d4d4b",
"d1 c #5d523f",
"#r c #5d533f",
"#z c #5d5340",
"kw c #5d5341",
"dC c #5d5342",
"jD c #5d5440",
"kE c #5d5442",
"kB c #5d5443",
"mp c #5d5542",
"fw c #5d5547",
"c9 c #5d5647",
"lS c #5d5749",
"dw c #5d574a",
"aC c #5d574e",
"dj c #5d5865",
"iu c #5e3a39",
"#m c #5e523f",
"h4 c #5e5440",
"l. c #5e5441",
"dG c #5e5443",
"bI c #5e5540",
"cb c #5e5541",
"dW c #5e5542",
"ht c #5e5544",
"co c #5e5642",
"lr c #5e5643",
"hy c #5e5645",
"dn c #5e5647",
"e. c #5e5742",
"kd c #5e5747",
"fy c #5e5748",
"dI c #5e5856",
"ak c #5e594d",
"bP c #5f5540",
"lb c #5f5640",
"bV c #5f5641",
"jE c #5f5642",
"cj c #5f5643",
"hw c #5f5644",
"dA c #5f5645",
"kW c #5f5742",
"mx c #5f5746",
"aM c #5f5749",
"kZ c #5f5843",
"fW c #5f5848",
"aX c #5f5849",
"dp c #5f594b",
"iE c #5f594c",
"fC c #5f594f",
"aN c #5f5a4c",
"iM c #5f5a4d",
"ec c #5f5b65",
"kj c #5f5d6a",
"kY c #605541",
"hN c #605641",
"kz c #605645",
"lh c #605743",
"e# c #605744",
"mi c #605745",
"dV c #605844",
"aP c #60594a",
"iL c #60594c",
"dd c #605950",
"h# c #605a4a",
"fx c #605a4b",
"m. c #605a4d",
"dJ c #605c6a",
"iT c #613b3a",
"gt c #613c3b",
"bW c #615741",
"hL c #615840",
"bJ c #615841",
"#1 c #615944",
"kQ c #615945",
"aU c #615a4a",
"g7 c #615a4c",
"aO c #615b4c",
"dc c #615b4d",
"dk c #615c54",
"i7 c #615f6d",
"gH c #623b3a",
"hk c #623c3c",
"go c #625842",
"#A c #625942",
"mw c #625946",
"jy c #625a48",
"aZ c #625b4b",
"dl c #625b4d",
"c7 c #625c4d",
"fv c #625c4e",
"kf c #625c4f",
"eV c #625d6e",
"hT c #633c3b",
"#s c #635942",
"d5 c #635943",
"mf c #635a44",
"bu c #635b47",
"kq c #635b4c",
"a0 c #635c4c",
"k# c #635e51",
".G c #64594c",
"mm c #645a44",
"bM c #645a45",
"mv c #645b44",
"bR c #645b45",
"bU c #645b46",
"#l c #645b47",
"jk c #645c47",
"ka c #645c4c",
"he c #645d4e",
"aY c #645d4f",
"aL c #645e50",
"df c #64606e",
"hC c #653e3d",
"mg c #655b48",
"bH c #655c46",
"#u c #655c47",
"#B c #655c48",
"bg c #655d49",
"g8 c #655d4d",
"aW c #655e50",
"#R c #655e52",
"ha c #655f50",
"hc c #655f51",
"g6 c #656052",
"hd c #656053",
"fc c #663d3d",
"mr c #665b48",
"#k c #665c47",
"#E c #665c48",
"gn c #665d47",
"d0 c #665d48",
"kA c #665d49",
"f6 c #665d4a",
"dS c #665e4a",
".9 c #665f4c",
"#j c #665f53",
"ft c #666051",
"lJ c #666571",
"j5 c #666671",
"hU c #673e3e",
"eN c #673f3e",
"k9 c #675c47",
"jn c #675e47",
"dz c #675e4a",
"hs c #675e4b",
"#. c #675f4b",
"c8 c #675f4f",
"dm c #67604f",
"fu c #676052",
"gm c #67614d",
"bG c #67614e",
"d# c #676151",
"db c #676153",
"c6 c #676254",
"lp c #676671",
"iP c #685a59",
"d6 c #685d48",
"kS c #685d49",
"bQ c #685e48",
"dH c #685e4a",
"#t c #685f48",
"#y c #685f49",
"#q c #685f4a",
"mu c #68604a",
"ms c #68604d",
"mq c #68614b",
"ke c #686153",
"aJ c #686253",
"fe c #693f3f",
"bL c #695f49",
"hx c #695f4a",
"d4 c #69604a",
"mn c #69604d",
"mh c #69614e",
"ml c #69624c",
"#D c #69624f",
"aT c #696253",
"aK c #696254",
"ff c #6a4040",
"eM c #6a4140",
"f# c #6a5b5a",
"bq c #6a614a",
"bf c #6a614c",
"f5 c #6a614d",
"f9 c #6a614e",
"md c #6a624c",
".5 c #6a624e",
".1 c #6a624f",
"mo c #6a634f",
"hb c #6a6354",
"ko c #6a6973",
"fM c #6b4041",
"bc c #6b614b",
"bK c #6b614c",
"f1 c #6b624b",
"bX c #6b624c",
"i4 c #6b624d",
".S c #6b624f",
"dy c #6b634c",
"mt c #6b634f",
"hl c #6c4141",
".Z c #6c634c",
"me c #6c644f",
"du c #6c6451",
"bs c #6c6551",
"da c #6c6556",
".g c #6c6960",
"fd c #6d4242",
"bb c #6d644e",
"bt c #6d654f",
"jj c #6d6550",
"ji c #6d6552",
"fZ c #6d6752",
"ir c #6d6b78",
"gd c #6e4242",
"gc c #6e4343",
"bp c #6e644e",
"i2 c #6e654f",
"ba c #6e6752",
"bi c #6e6852",
"i5 c #6e6853",
"fJ c #6f4443",
"bl c #6f6652",
"bo c #6f6853",
"e7 c #6f6c79",
"kN c #6f6e77",
"fK c #704444",
"be c #706752",
"i6 c #706755",
"bj c #706851",
"f3 c #706853",
"f2 c #706856",
"dE c #706952",
"hv c #706953",
"d3 c #706b58",
"fL c #714645",
".X c #716852",
"i3 c #716853",
"bd c #716856",
"bk c #716857",
"f8 c #716952",
"f0 c #716953",
"br c #716957",
"ky c #716a53",
"kD c #716a54",
".8 c #716a55",
"#p c #716b58",
"#x c #716b59",
"dx c #726a53",
"f4 c #726a54",
".Y c #726a55",
".2 c #726c59",
"b8 c #726e63",
"bm c #736b55",
".R c #736b56",
".T c #736c59",
".0 c #746c57",
".Q c #746c58",
"dv c #746d5a",
"dt c #756d59",
"k7 c #76777d",
"cA c #777469",
"f. c #777ea7",
"bF c #787468",
"#Q c #797367",
"iy c #797c77",
"fm c #797ea6",
"ic c #797f8a",
"iX c #7b8285",
"dg c #7c7a86",
".W c #7d7560",
".P c #7d786d",
"b# c #7d7a6e",
"kG c #7d7e83",
".l c #7f7163",
"az c #807c72",
"aG c #817f74",
"jw c #818884",
".B c #827163",
".u c #827263",
"ad c #827d70",
"aB c #847e73",
"#i c #847f73",
"ae c #868173",
"aD c #87857b",
"aA c #888377",
"di c #888691",
"hY c #888694",
"k2 c #88888d",
"af c #898376",
"ag c #898477",
"ah c #898478",
"lo c #898a8e",
"ac c #8a8376",
"b2 c #8a867a",
"aj c #8a867b",
"ab c #8b867a",
"#P c #8c877b",
"#O c #8c887a",
"aF c #8c8a80",
"jH c #8c94af",
"b7 c #8d887c",
".7 c #8d8978",
"#h c #8d897c",
"c0 c #8d8c81",
"b0 c #8e8a7e",
"eF c #8e8c92",
"dh c #8e8d96",
"em c #8f8d97",
"kH c #909599",
".i c #918574",
".E c #91897a",
".j c #91897b",
"aE c #918e84",
"jq c #919196",
".q c #928777",
"bA c #928e80",
".A c #938675",
".t c #938a7b",
"#g c #938e80",
"ai c #938e82",
".V c #93907d",
"b1 c #939083",
"cy c #939084",
".k c #948675",
".z c #948b7b",
"bZ c #948e81",
".4 c #94917e",
".F c #958675",
"a5 c #958f83",
"by c #959082",
"a6 c #959287",
"jg c #959886",
".w c #968d7e",
".o c #968d7f",
".h c #968f81",
"c5 c #969384",
"bz c #979486",
"bB c #979488",
"b3 c #97948a",
"iO c #97979a",
"b6 c #989384",
".s c #998774",
".r c #999081",
".y c #999082",
"cx c #999488",
"bD c #999586",
"#L c #999587",
"e9 c #999bb3",
"lk c #999c9a",
"lm c #999e9b",
".D c #9a8a7a",
".b c #9a9b93",
"#K c #9b9587",
"#N c #9b9688",
"a4 c #9b9689",
"b5 c #9b9888",
"b. c #9b988b",
".d c #9b9b92",
"a3 c #9c988a",
"Qt c #9c9d96",
".N c #9d9a8f",
".f c #9d9e95",
"bx c #9e9b8c",
"cz c #9e9c91",
".e c #9fa097",
".C c #a0998c",
"#J c #a09b8c",
"#f c #a09c8d",
".O c #a09e93",
"cv c #a09f95",
".n c #a29381",
"a2 c #a29e90",
"ed c #a29ea6",
".# c #a2a39b",
"jY c #a2a6a1",
".v c #a39481",
"ct c #a3a298",
"fU c #a3a4a0",
"ln c #a3a8a3",
"a9 c #a4a194",
".c c #a4a59d",
"i8 c #a4a6a5",
".p c #a59586",
".x c #a59686",
".a c #a5a69f",
"eR c #a5b3df",
"cu c #a6a59b",
"kk c #a6aba6",
".m c #a79e8e",
"#e c #a7a494",
"bE c #a7a495",
"#c c #a7a497",
"a8 c #a8a698",
"h7 c #a8a9a9",
"#b c #a9a597",
"jG c #a9aca9",
"#d c #aaa797",
"cw c #aaa89d",
".M c #aaa89f",
"is c #aaacac",
"jr c #aaaeae",
"#M c #aba99a",
"cZ c #abaa9c",
"dP c #acacb4",
".L c #adaba0",
"cX c #aeada0",
"ll c #aeb2ac",
"k3 c #afb3ad",
"#I c #b0aea1",
"#a c #b2b0a2",
"cY c #b2b2a5",
"b4 c #b3b0a2",
".K c #b3b1a7",
"bC c #b3b2a3",
"c3 c #b6b5a9",
"c4 c #b6b6aa",
".J c #b7b7ae",
"cW c #b7b8ad",
".I c #b9b8af",
"c2 c #b9baad",
"a7 c #babaaf",
"c1 c #bdbfb2",
".H c #c0c1ba",
"ef c #c0c5d2",
"hF c #c5c6cd",
"fo c #c9c7ce",
"eJ c #c9cbce",
"fT c #cacbda",
"g1 c #cfcfd7",
"ek c #d0d2e1",
"gK c #d1d0d7",
"eG c #d2d1d4",
"dN c #d2d3e2",
"eU c #d4d3d7",
"hz c #d8d7df",
"dM c #dcdae0",
"e8 c #dcdce0",
"gx c #dcdce1",
"hP c #dfdee2",
"gi c #e1e1e5",
"fE c #e3e3e8",
"gE c #e3e3eb",
"gW c #e4e4eb",
"hf c #e6e5ec",
"g# c #e7e7ed",
"dK c #e9e8ea",
"fn c #f0f1f5",
"dL c #f6f8ef",
"ee c #f9f9f8",
"el c #f9f9f9",
"eT c #fbfbfb",
"dO c #fbfff5",
"eS c #fcfcfe",
"eI c #fffefd",
"eH c #ffffff",
"Qt.#.#.a.b.c.d.e.f.g.h.i.j.k.l.m.n.o.p.q.r.s.t.k.u.m.v.w.x.q.y.s.z.A.B.C.D.E.F.G",
".H.I.J.K.L.L.M.N.O.P.Q.R.S.T.U.V.W.X.Y.Z.Q.0.1.2.3.4.W.X.Y.Z.Q.Q.5.2.6.7.8.9#.##",
"#a#b#c#d#e#f#g#h#i#j#k#l#m#n#o#p#q#r#s#t#k#u#m#v#w#x#y#z#A#t#u#B#m#v#C#D#E#F#G#H",
"#I#J#K#L#M#N#O#P#Q#R#S#T#U#V#W#X#Y#Z#0#1#S#T#U#2#3#4#5#Z#0#1#S#T#U#6#7#8#9a.a#aa",
"abacadaeafagahaiajakalam#3anaoapaqar#Wasalam#3anaoatauauaqasasam#3anavawaxau#7ay",
"azajaAaBaCaDaEaFaGaHaIaJaKaLaMaNaOaPaQaRaSaJaTaLaMaNaOaUaQaRaVaJaTaWaXaYaZa0aOa1",
"a2a3a4a5a6a7a8a9b.b#ba.Xbbbcbdbe.Ybfbgbhbibjbbbcbkblbmbfbgbnbobjbpbqbrbsbtbubvbw",
"bxbybzbAbBbCbDbEa3bFbGbHbIbJbKbLbM#rbNbObGbHbPbJbKbQbR#rbSbTbGbUbVbWbXbQbR#rbSbY",
"bZb0b1b2b3b4b5b6b7b8b9c.c#cacbcccdcecfcgchc.c#cicjccckclcmcgcnc.c##Tcocpcqa.crcs",
"ctcuctcvctcwcxcyczcAcBcCcDcEcFcGcHcIcJcKcLcCcDcMcNcGcHcIcJcOcPcCcDcMcQcRcScTcUcV",
"cWcXcYcZc0c1c2c3c4c5c6c7c8c9d.aZd#dadbdcc6dddedfdgdhdidjdkdcc6dldmdnd.dodpdqdrds",
"dt.0dudvdw.V.Wdx.RdydzdAdBdCdDdEdFdG#ldHdIdJdKdLdMdNdOdPdQdRdSdAdTdCdUdVdWdXdYdZ",
"d0#ld1#vd2d3d4d1d5#td6#zd7d8d9e.e#eaebecedeeefegeheiejekelemeneoepeqeresbP#zeteu",
"ev#zew#VcGexey#Zez#1eA#veBeCeDeEeFeGeHeIeJeKeLeMeNeheOePeQeReSeTeUeVeWeXcceYeZe0",
"e1as#3cJaoe2aue3au#we4cDe5e6e7e8e9f.f#fafbfcfdfefffgfhfhfifjfkflfmfnfofpcHfqfrfs",
"aSftfufvfwdwfxfyfzfAfBfvfCfDfEfFfGfHfIeNfdfJfKfLfMfNfOfOfPfhfhfQfRfSfTfUfVfWfXfY",
"fZf0bbf1f2f3f4f5f6f7bif8f9g.g#fGgagbgcfLgdfLfLfLfdgefOfOgffhfhfhfPggghgigjgkbvgl",
"gmgnbIgobKbLbMd1bS#wbGgngpgqg#greggsgtfffKfLfLfLgcgufOfOgvgffPfPfPfPgwgxgy#rbSbY",
"gzcc#Z#rdWgAcqclcrcggBccgCgDgEfGgFgsgGgHgcfJfLfLgcgIfOfOfOfOfPfPfPfhgJgKgLgMgNgO",
"gPgQgRgScRaxgTcIcgcOgUcH#3gVgWgXgYgsgZgtfcfdfLfLgcg0fOfOgvfOfPfPfPfPgJg1g2g3g4g5",
"g6g7g8g9h.h#hahbhcdphdg7hegVhfhghhgYhihjhkeNffhlfdeOfOfOfOhmhnfPfPfPggg1hohphqhr",
"hshtdFdChuhvdFhw#BhxdzhydXgDhzgreigYgFhAhBgthCfffdgufOfOfOgfhDfPfPfPhEhFhGhHhIdZ",
"d6#zbShJhKe.hLhMhNbcd6#zhOgqhPgXhQhRgFgZhShRhThUfdgugvfOhVfhhWhDfPfPhXhYhZ#zeteu",
"eyh0eBh1h2h3eAc#h4e#ey#vh5h6h7h8grh9gFgFhAi.hBhThTguhmfPfhi#iaiaibfGicidieifigih",
"iigRij#3ikiliminioipiigR#7iqirisgXithigFhii.i.iuhTivhmgfgei#iai#iwixiyizgQiAiBiC",
"iDiEiEiEiFiGexiHiIiJiKiLiEiMiNiOiPfHiQiRgFi.iSiSiTiUfOiaiaiaiaiViWiXiY.3iZfWi0i1",
"badxi2bXbdi3.Yi4f6f7i5f0i2f1i6i7i8i9j.j#gFgFgFjagGjbiajciaiajdjejfjgjhjijjjkjljm",
"gmjnbIgobKbLbMd1jojpgmgnbPbJi4bLjqjrjsjti.gFjagGgGjciajciahDjujvjwjxjybQbR#rjzjA",
"jBjC#ZjDjEcecq#Zcf#7gzjC#Z#rjEcejFjGjHjejtjIgGgGgGjciaiajJjujKjLjMjNjEjOjPclcmgO",
"jQcEjRjRjSjT#7fAjUjVjWcEjRjRjSjTcHjXjYjZibj0j1gGgGjciaj2j3jej4j5iz#7j6j7cmj8j9k.",
"k#dpkakbkckdhekekfkgk#dpkakbkhc9hekikjkkjsjtklj1gGiahDj3kmknkokpkqkrh.ks.Uktkukv",
"hshtkwdCkxkyhHkzkAhxdzhtkwkBkCkDkEkzkFkGkHkIkJkKkLjej3jukMkNkOhtkwdGkPkQcjhHhIkR",
"kS#zkTkUkVkWhLkXkYbcd6kwd7hJh1kZhLk0h4k1k2k3k4iVk5iWkmk6k7k8k9l.l#hJlaeslb#zetlc",
"jOldeBh1lelfcpcpcbdVjOh0lgeCeuh3cpcph4lhliljlklllmlnlolplqlrjO#vlsltludojCiflvlw",
"lxjR#WaulylzlAlBlCallxjR#WariklDlElBlCalcrlFlGlHlIlJlKlLlMasbTla#3axlNlOgSgQlPlQ",
"lRiZlSlTlUlV#XlWlUlXlYiZlSlTlUlV#XlZlUl0d2lWl1l2l3l4l5l6lUl7#olZkgl8l9m.m#iHmamb",
"mcmdmemfmgmh.5kEmimjmkmlmemmmgmnmompmimjmkmqbtmmmrmsmtmpmimjmkmubtmvmrf9mtmwmxmy",
"mzmAmBmCmDewmEmFmGglmzmHmImCmJjPmcmFeYmKmLmHmImCmJjP#ZmFeYmMmNmOmEjomJmPmQmRmSmT",
"mUmVmVmW#CarmXaufAmYmZmVm0mWm1arm2aufAm3mZmVlBmWm1armVarfAm3m4inlBmWm1inm5m6#Wm7",
"m8m9n.n#nanbncndnenfngm9n.n#nanbncnenenhngm9n.n#nanbncnenenhnim9n#n#nanjnknlnmnn"};
