/* XPM */
static char *dummy[]={
"40 40 554 2",
".2 c #00a15e",
"dz c #32a579",
"Qt c #32a67a",
"cW c #33a579",
"cq c #36a579",
"ca c #36a679",
"bV c #3aa579",
".# c #3fa578",
".I c #40a578",
".3 c #41a578",
"bd c #43a577",
"f. c #45a578",
"f# c #4ca474",
"fa c #4da576",
"gr c #559f55",
"cY c #55a370",
"cX c #57a476",
"cZ c #5aa675",
"#j c #5da472",
"#i c #5ea476",
"fH c #659f62",
"gk c #669e5b",
"d. c #67a996",
"bp c #67aa97",
"#k c #68a472",
"bc c #68a996",
"gq c #6e9f64",
"gu c #6ea163",
"er c #71a270",
"gy c #72a36a",
"es c #739c58",
"gG c #74a46c",
"fZ c #789f5a",
"gb c #799f5d",
"bX c #7a994f",
"et c #7ca160",
"fk c #829d53",
"fu c #839c59",
"eX c #869b5a",
"bW c #869f67",
"bY c #88a25b",
"ch c #897a15",
"#F c #8a7b18",
"eG c #8a9b4a",
"eR c #8b994d",
"ck c #8c7a1e",
"eO c #8c7c16",
"df c #8c7e15",
"fb c #8d9d55",
"g# c #8f7d20",
"ga c #907e20",
"f8 c #907e21",
"#E c #90801a",
"ce c #918317",
"dS c #919540",
".L c #928416",
"fI c #929540",
"c3 c #936627",
"fr c #938615",
"f5 c #948125",
"eM c #94851b",
"cg c #948618",
"e. c #948716",
"g. c #958420",
"f7 c #958421",
"gz c #958716",
"cj c #958718",
".c c #958836",
"fs c #966124",
"d5 c #969842",
"ds c #978719",
"gH c #97891b",
".b c #978a38",
"fJ c #979941",
"cL c #98871b",
"dZ c #988725",
"el c #988818",
"ci c #988a1d",
"dB c #989334",
"ed c #98984e",
"ez c #994522",
"fh c #997031",
"cy c #998a1b",
"cf c #998a1f",
".K c #998c17",
"eN c #998c1a",
"dc c #998d16",
"b3 c #9a4021",
"b6 c #9a4120",
"fg c #9a742d",
"eU c #9a8d17",
"de c #9a8d19",
"d0 c #9b8530",
"af c #9b8825",
"a. c #9b892a",
"aE c #9b8b21",
"f6 c #9b8b25",
"dJ c #9b8c1a",
"e5 c #9b8e18",
"gj c #9b8e19",
"f0 c #9b8f18",
"eA c #9c492b",
"bL c #9c8827",
"## c #9c8928",
"aT c #9c8929",
".R c #9c8b24",
"dX c #9c8f17",
"eL c #9c9016",
"by c #9d8c25",
"f9 c #9d8c27",
"aL c #9d8e22",
"fA c #9d8f18",
"gh c #9d8f1a",
"gl c #9d901a",
"gt c #9d901c",
"#G c #9d901e",
"bI c #9d9117",
"fL c #9d9119",
"c0 c #9d9239",
"dY c #9e8932",
"#s c #9e8b25",
".J c #9e8b2c",
"#R c #9e8c26",
".d c #9e8c28",
"a2 c #9e8e26",
"c1 c #9e8f1e",
"cH c #9e8f20",
"ex c #9e9019",
"gd c #9e9117",
"ge c #9e911b",
"gg c #9e9217",
"fo c #9e9316",
"a0 c #9e932b",
"dM c #9f200e",
"b4 c #9f4125",
"c4 c #9f6b37",
"a7 c #9f8b27",
"#0 c #9f8d28",
".i c #9f8e24",
"al c #9f8e25",
"eg c #9f921a",
"fp c #9f921b",
"fv c #9f9316",
"cx c #9f9317",
"gi c #9f9318",
"fq c #9f931a",
"go c #9f9417",
"#H c #9f9514",
"eu c #9f9847",
"fR c #a02915",
"b7 c #a0422a",
"eP c #a05a28",
"fB c #a06c31",
".4 c #a08b31",
"eY c #a09121",
"cF c #a0921b",
"#S c #a09417",
"d9 c #a09419",
"fc c #a0941a",
"gv c #a0941b",
".O c #a09517",
"ee c #a09518",
"aO c #a09614",
"e1 c #a09618",
"dA c #a09c5e",
"eV c #a1602c",
"ff c #a18239",
"#D c #a18a3a",
"be c #a19028",
"dn c #a1933f",
"fO c #a19419",
"#T c #a1941c",
"ev c #a19519",
"dd c #a1951c",
"#J c #a19615",
"bv c #a19618",
"bf c #a19715",
"eT c #a19716",
"fU c #a22c16",
"ap c #a28e29",
"dD c #a29033",
"gm c #a29419",
"gn c #a2941d",
"fe c #a29619",
"aA c #a29717",
"#r c #a29718",
"bs c #a29719",
"bi c #a29815",
"a6 c #a29818",
"dC c #a29a3f",
"fY c #a32a15",
"fX c #a32f17",
"b1 c #a3902a",
"bZ c #a3902f",
"cr c #a39231",
"aw c #a39622",
"db c #a39717",
"d6 c #a39719",
"cv c #a3971a",
"d# c #a3973b",
"dr c #a39816",
"#p c #a39817",
"f4 c #a39818",
"fx c #a3981a",
"dT c #a39915",
".f c #a39916",
"cJ c #a39917",
"dH c #a39918",
"b2 c #a44e30",
"e# c #a45426",
"e6 c #a45f2c",
"c2 c #a47a3d",
"#l c #a49031",
"bF c #a49131",
"e0 c #a4932a",
"cG c #a49422",
"eZ c #a49423",
"bq c #a49429",
"cb c #a49530",
"ef c #a4971b",
"dp c #a49817",
"aS c #a49818",
"#m c #a49819",
"aN c #a4981b",
"aQ c #a49916",
"eH c #a49917",
"a5 c #a49918",
"ax c #a49919",
"dV c #a49a15",
"gB c #a49a16",
"e3 c #a49a17",
"eh c #a49a18",
"gs c #a4a265",
"fV c #a52b16",
"b5 c #a54224",
"fi c #a55b38",
"fP c #a57235",
"#Z c #a59918",
"b0 c #a59919",
"bH c #a5991c",
"aR c #a59a17",
"br c #a59a18",
".Q c #a59a19",
"dE c #a59a1a",
"az c #a59b18",
"fQ c #a62a14",
"fK c #a69943",
"#. c #a69a18",
"bx c #a69a19",
"ac c #a69b18",
".N c #a69b19",
"ct c #a69b1a",
"do c #a69b1b",
"fz c #a69c17",
"fd c #a69c18",
"#L c #a69c19",
"f2 c #a69c1a",
"fm c #a69c1b",
"fw c #a79a1a",
"gC c #a79b18",
"bu c #a79b19",
"bG c #a79b1a",
"cs c #a79b1b",
"gF c #a79b1c",
"gc c #a79b1d",
"f1 c #a79c17",
"bh c #a79c18",
".h c #a79c19",
"aD c #a79c1a",
"gf c #a79c1b",
".7 c #a79d18",
"gJ c #a79d19",
"gM c #a79d1a",
"f3 c #a79d1b",
"fS c #a82b16",
"dK c #a8522d",
"gE c #a89c18",
"#V c #a89c19",
".5 c #a89c1a",
"#X c #a89c1b",
"gD c #a89c1c",
".e c #a89d19",
"am c #a89d1a",
"eS c #a89d1b",
"cd c #a89e19",
"ab c #a89e1a",
"aM c #a99c19",
"cw c #a99c1b",
"gA c #a99c1c",
"d8 c #a99c1d",
"aP c #a99d19",
"dq c #a99d1a",
"#o c #a99d1b",
"#q c #a99d1c",
".9 c #a99e19",
"fN c #a99e1a",
"eJ c #a99e1c",
".M c #a99e1d",
"eK c #a99f1c",
"dL c #aa260f",
"fW c #aa3117",
"fT c #aa3318",
"eB c #aa3923",
"cE c #aa9546",
".a c #aa9759",
"fy c #aa9d1b",
".8 c #aa9e19",
"bJ c #aa9e1a",
"cu c #aa9e1b",
"a4 c #aa9e1c",
"ao c #aa9e1d",
"#U c #aa9f1a",
"ae c #aa9f1b",
"cK c #aa9f1c",
"dg c #ab4920",
"aZ c #ab974a",
"e2 c #ab9e1a",
"aa c #ab9e1c",
"an c #ab9e1d",
"gp c #ab9f19",
"ej c #ab9f1a",
"ad c #ab9f1c",
"ek c #ab9f1d",
".g c #ab9f1e",
"#W c #aba01b",
"dW c #aba01d",
"bj c #aba01e",
"d7 c #aba11d",
"dU c #aba11e",
"gw c #aba21d",
"em c #ac582c",
"ei c #ac9f1a",
"bK c #ac9f1c",
"a# c #ac9f1d",
"#Y c #aca01b",
".6 c #aca01c",
"#n c #aca01d",
"dG c #aca01e",
"bg c #aca01f",
"fn c #aca11d",
"#K c #aca11f",
"bt c #aca21d",
"eI c #aca21e",
"ey c #ad7640",
"a1 c #ad9c3c",
"cI c #ada01c",
"ew c #ada01d",
"e4 c #ada01e",
"dI c #ada11e",
"bw c #ada21d",
"#I c #ada21f",
"fl c #ada31e",
"cc c #ada320",
"gI c #aea01e",
"dF c #aea11c",
"fM c #aea11e",
"gK c #aea11f",
".P c #aea31e",
"da c #aea41f",
"c5 c #af3e26",
"cz c #af4323",
"d1 c #af5631",
"a3 c #afa31e",
"aC c #afa520",
"gL c #b0a21f",
"gN c #b0a31e",
"aB c #b0a620",
"dt c #b1512b",
"ay c #b1a620",
"gx c #b1a721",
"cM c #b24422",
"cl c #b54422",
"#1 c #b63518",
"e8 c #b82607",
"bz c #b83418",
".S c #b93519",
"aF c #ba3418",
"bM c #bb3015",
"b8 c #bc3116",
"aU c #bc3b19",
"#M c #bd3418",
".j c #bd3518",
"cO c #be2e09",
"bk c #be3518",
"aq c #be371a",
"dN c #bf2f10",
"#a c #c0421b",
"#t c #c33a1b",
"e7 c #c52707",
"a8 c #c8411d",
"ag c #c9451d",
"cN c #cb2f0a",
"e9 c #cb340b",
"ft c #d84410",
"eo c #d94b0f",
"fC c #da370a",
"fj c #db410f",
"eW c #db440e",
"eQ c #dc4c12",
"en c #dd3e0d",
"cP c #de4f15",
"bR c #df5110",
"d2 c #e04f10",
"bO c #e05210",
"bN c #e15213",
"ea c #e15a15",
"ep c #e25212",
"dh c #e26218",
"cA c #e46818",
"du c #e55111",
"bP c #e55914",
"cm c #e66617",
"eC c #e75918",
"c6 c #e75c12",
"bQ c #e76619",
"fE c #e85f14",
"fF c #e86115",
"fG c #e96316",
"fD c #e96a18",
"dv c #ea6a16",
"bl c #eb6b12",
".k c #eb6c12",
".l c #ff461e",
".T c #ff461f",
".U c #ff481e",
".m c #ff491e",
"#b c #ff4b1d",
".n c #ff4c1d",
"#N c #ff4d1d",
"#u c #ff4e1d",
".o c #ff4f1d",
"#2 c #ff501c",
".p c #ff511c",
"ah c #ff521c",
"#3 c #ff531c",
".q c #ff541c",
".r c #ff561b",
".V c #ff571b",
"ar c #ff581b",
".s c #ff591a",
"#c c #ff5a1a",
".t c #ff5b1a",
".W c #ff5c1a",
".u c #ff5d1a",
".X c #ff5f19",
".v c #ff6019",
".Y c #ff6119",
".w c #ff6219",
".Z c #ff6318",
".x c #ff6418",
"#v c #ff6518",
".y c #ff6618",
"#w c #ff6717",
".z c #ff6817",
".A c #ff6917",
"#x c #ff6a17",
".B c #ff6b17",
"#y c #ff6c16",
".C c #ff6d16",
"#z c #ff6e16",
".D c #ff6f16",
".E c #ff7016",
".F c #ff7115",
".G c #ff7215",
".H c #ff7315",
".0 c #ff7415",
"#d c #ff7515",
".1 c #ff7614",
"#4 c #ff7714",
"#e c #ff7814",
"#f c #ff7914",
"#g c #ff7a13",
"#h c #ff7b13",
"aG c #ff7c13",
"#A c #ff7d13",
"#B c #ff7e13",
"#C c #ff7f12",
"#O c #ff8012",
"#5 c #ff8112",
"#P c #ff8212",
"#Q c #ff8312",
"#6 c #ff8411",
"#7 c #ff8511",
"#8 c #ff8611",
"#9 c #ff8711",
"as c #ff8810",
"ai c #ff8910",
"aj c #ff8a10",
"ak c #ff8b10",
"at c #ff8c10",
"a9 c #ff8d0f",
"au c #ff8e0f",
"av c #ff8f0f",
"aH c #ff900f",
"aI c #ff910f",
"aJ c #ff920e",
"aK c #ff930e",
"aV c #ff940e",
"aW c #ff950e",
"aX c #ff960e",
"aY c #ff970d",
"b. c #ff980d",
"b# c #ff990d",
"ba c #ff9a0d",
"bb c #ff9b0c",
"bA c #ff9c0c",
"bm c #ff9d0c",
"bn c #ff9e0c",
"bo c #ff9f0c",
"bB c #ffa00b",
"bC c #ffa10b",
"bD c #ffa20b",
"bE c #ffa30b",
"cn c #ffa40b",
"bS c #ffa50a",
"bT c #ffa60a",
"bU c #ffa70a",
"b9 c #ffa909",
"cQ c #ffaa09",
"c. c #ffab09",
"c# c #ffac09",
"cR c #ffad09",
"co c #ffae08",
"cp c #ffaf08",
"cB c #ffb008",
"cC c #ffb208",
"cD c #ffb307",
"cS c #ffb407",
"cT c #ffb507",
"cV c #ffb706",
"cU c #ffb707",
"di c #ffb806",
"c7 c #ffb906",
"c8 c #ffba06",
"dj c #ffbb06",
"c9 c #ffbc05",
"dk c #ffbd05",
"dl c #ffbe05",
"dm c #ffbf05",
"dw c #ffc004",
"eD c #ffc005",
"dO c #ffc104",
"dx c #ffc204",
"dy c #ffc304",
"dP c #ffc404",
"dQ c #ffc603",
"dR c #ffc703",
"d3 c #ffca02",
"d4 c #ffcb02",
"eb c #ffcc02",
"ec c #ffcf01",
"eE c #ffd001",
"eq c #ffd201",
"eF c #ffd400",
"QtQt.#.a.b.c.d.e.f.g.h.i.j.k.l.m.n.o.p.q.r.s.t.u.v.w.x.y.z.A.B.C.C.D.E.F.G.G.G.H",
"QtQt.I.J.K.L.M.N.O.P.Q.R.S.T.U.n.o.p.q.V.s.W.X.Y.Z.y.z.A.B.C.D.E.G.H.0.0.1.1.1.1",
"Qt.2.3.4.5.6.7.8.6.9#.###a.U#b.o.p.q.V#c.u.X.w.x.y.A.B.C.D.F.G.0#d.1#e#f#f#g#h#h",
"#i#j#k#l#m#n#o#p.6#q#r#s#t#b#u.p.q.V#c.u.X.w#v#w#x#y#z.E.G.0.1#e#f#h#h#A#A#B#C#C",
"#D#E#F#G.e#H#I.e#J#K#L.i#M#N.p.q.V#c.u.X.w#v.z.B.C.D.G.0.1#e#g#h#A#B#O#O#P#P#P#Q",
"#R#S#T#U#V#q#W#V#X#Y#Z#0#1#2#3.r.s.u.X.w.y.A.B.C.E.H#d#4#f#h#A#C#5#P#6#6#7#8#9#9",
"a.#Va##L.eaaabacadae#pafagah.r.s.W.X.w#v.A.B#z.F.0.1#f#h#A#C#5#Q#6#8#9aiaiajakak",
"alam.han.N.han.N.eao.Qapaq.qar.t.X.w#v.z.B#z.F.0.1#f#h#B#O#P#6#9asajakatauauavav",
"aw#paxayazaAaB.haAaCaDaEaF.V.t.u.Y.x#w.B.C.F.0.1#faG#C#P#6#8asajatauavaHaIaJaJaK",
"aLaMaNaOaP#XaQ#V#XaRaSaTaU.s.u.v.Z.y#x.C.E.0.1#faG#C#P#6#9aiakauaHaIaJaVaWaXaYaY",
"aZa0a1a2ama3a4a5a3ada6a7a8.t.X.w.y.A#y.D.H.1#faG#C#P#7#9aja9avaIaKaWaYb.b#babbbb",
"bcbcbdbeacbfbgbhbibj.N.ibkbl.v.x.z.B#z.G#d#f#h#C#P#7asakauaHaJaVaYb#babbbmbnbobo",
"bpbp.3bqbrbsbtbubvbwbxbybz.X.w.y.A.C.E.0#4#h#B#P#6#9akauaHaKaWb.babAbnbBbCbDbDbE",
"QtQt.IbFbGbHbIbJbK#U#.bLbMbNbObPbQbR.G.1#f#A#O#6#9ajauaHaKaXb#bbbnbBbDbEbSbTbUbU",
"QtQtbVbWbXbYbZb0.6#q#rb1b2b3b4b5b6b7b8#e#h#C#P#8aia9aHaKaXb#bbbnbCbEbSbUb9b9c.c#",
"QtQtQtQtQtcacb.N#Jcccdcecfcgchcicjckclcm#A#5#6asakavaJaWb#bbbobDcnbUb9c.c#cococp",
"QtQt.2QtQtcqcr.hcsabbuctcu#ScvcwcxcyczcA#C#Q#9ajauaIaVb.bbbnbDbSbUb9c#cocBcCcDcD",
"QtQtQtQtQtcqcEcFcGcHa5cIcucJcIcKa5cLcMcNcOcPasataHaKaYbabnbCcnbUcQcRcBcCcScTcUcV",
"Qt.2QtQtQtcWcXcYcZc0aDbh.gbr.7a#.Nc1c2c3c4c5c6auaIaWb#bAbBbEbUb9cRcBcDcTcVc7c8c9",
"QtQtQtQtQt.2QtQtd.d#b0aAda.5dbdaaDdcdddedfdgdhavaJaYbabnbDbSb9c#cBcDcTdidjdkdldm",
"QtQtQtQtQtQtQt.2d.dnaSdoaAdpcu#V#pdqdqdrdsdtduaHdvb.bbbBbEbUc.cocCcTdic9dldwdxdy",
"QtQtQtQtQtQtQtQtdzdAdBdCdDdEdFdGdH#YdIa5dJdKdLdMdNb#bmbCbSb9c#cBcScVdjdldOdPdQdR",
"QtQtbpbpQtQtQtQtQtdzdzdzdSbvdTdUbrdVdW.QdXdYdZd0d1d2bnbDbTb9cocCcTc7dkdwdPdRd3d4",
"QtQtbpbpQtQtQtQtQtQtQtQtd5d6axd7bxb0bwctbvd8d9e.e#eabobDbUc.cocDcUc8dldxdQd3ebec",
"QtQtQtQtQt.2QtbpQtQt.2Qtedeeefegehei#nazejek.7elemeneoepbUc#cpcDcVc9dmdydRd4eceq",
"QtQtQtQtQtQtQtQtQtQtQtQtereseteuevdqewaA.hew#rexeyezeAeBeCc#cBcDcVc9eDdPdRebeEeF",
"Qt.2QtQtQtbpQtQtQt.2QtQtQtQtQteGcveHeIeJaRd7eKeLeMeNeOePeQc#cpcDcVc9dmdydRd4eceq",
"bpbpQtQtQtQtQtQtQtQtQtQtQt.2QteRcxameS#pdqa4eH#V#qeTeUeVeWc.cocDcUc8dldxdQd3ebec",
"bpbpQtQtQtQtQtQtQtQtQtQtQtQtQteXeYeZe0e1e2dIe3bJe4aze5e6e7e8e9cCcTc7dkdwdPdRd3d4",
"QtQtQtQtQtQtQtbpQtQtQtQtQtQtQtf.f#fafbfcfdeJamfd.5eSfefffgfhfifjcScVdjdldOdPdQdR",
"QtQtQtQtQtQtQtQtQtQtbpbpQtQtQtQtQtQtfkd9#pflfm#pfneSfofpfqfrfsftcCcTdic9dldwdxdy",
"QtQtQtQtQtQtQt.2QtQtbpbpQtQtQtQtQtQtfufvfwfxcJaPfyfzaPfyfzfAfBfCfDfEcTdifFdkdlfG",
"QtQt.2QtQtQtQtQtQtQtQtQtQt.2QtbpQtQtfHfIfJfKfLbJfM#pfNfMdHfOfPfQfRfSfTfUfVfWfXfY",
"QtQtQtQtQtQtQtQtQtQtQtQtQtQtQtQtQtQtQtQtQtfZf0f1ctf2bhehf3f4f5f6f7f8f9g.g#f9f7ga",
"Qt.2QtQtQtQtQtQtQt.2QtQtQtbpQtQtQt.2QtQtQtgbeva5dWaba5dGae#pgcctgdgegfggghgfgigj",
"QtQtQtQtQt.2QtQtbpbpQtQtQtQtQtQtQtQtQtQtQtgkglgmgngoejanfdejanfdgpa#fdejaafdeja4",
"QtQtQtQtQtQtQt.2bpbpQtQtQtQtQtQtQtQtQtQtQtcXgqgrgsgt#VcudE.hbJcs.NfN#oa5cua4f4ae",
"QtQtQtQtQtQtQtQtQtQtQtQtQtQtQtbpQtQtQtQtQtQtQtQtgugvaceJgwacaDdaac.QaBfd#pgx.haA",
"QtQtbpbpQtQtQtQtQtQtQtQtQtQtQtQtQtQtbpbpQtQtQtQtgygzbhgAgBgCgDgBgEgDgBaPgFgBaPcs",
"QtQtbpbpQtQtQtQtQtQtQtQtQtQtQt.2QtQtbpbpQtQtQtQtgGgHaee4fdfNgIgJ#VgKgJbugLgMbrgN"};
