/* XPM */
static char *dummy[]={
"40 40 314 2",
".j c #00a15e",
"cS c #051263",
"cf c #061365",
"co c #0a196c",
"aH c #0a1d70",
"cR c #0b1c6f",
"aY c #0b1e71",
"bP c #0b1e72",
"bu c #0b1e73",
"aG c #0c1e72",
"bj c #0c1f75",
"bc c #0d2073",
"bD c #0d2075",
"bV c #0d2076",
"bE c #0d2077",
"cv c #0e1e74",
"aR c #0e247d",
"cI c #0f1c68",
"cg c #0f227c",
"cp c #0f227d",
"c# c #10237f",
"cw c #10247f",
"cK c #102481",
"cJ c #11237d",
"bW c #112580",
"cC c #112583",
"bv c #122986",
"ad c #132b8c",
"aZ c #132c8b",
"aw c #142981",
"am c #142a86",
"ae c #1438ac",
"b2 c #152c8e",
"ca c #152e8f",
"bH c #162e8d",
"bQ c #163094",
"ch c #163095",
"ax c #163bb5",
"bR c #173094",
"b4 c #173195",
"bx c #173196",
"b3 c #173298",
"bk c #173397",
"cL c #17349b",
"cq c #17359b",
"aI c #173db5",
"an c #173eba",
"bG c #183297",
"be c #183299",
"b5 c #18349a",
"a8 c #18369f",
"bn c #1836a1",
"bI c #1838a5",
"bm c #19359b",
"bX c #19359c",
"bw c #19369d",
"ci c #19369e",
"cb c #1937a2",
"cj c #1937a3",
"bd c #1938a2",
"cx c #193bab",
"bY c #1940bc",
"b6 c #1942c3",
"bf c #1943c2",
"b. c #1943c3",
"bJ c #1944c5",
"bS c #1944c7",
"aF c #1a2979",
"bl c #1a38a1",
"bF c #1a38a4",
"cc c #1a3db0",
"ck c #1a3db1",
"by c #1a3eb2",
"a1 c #1a43c2",
"bo c #1a45c1",
"bz c #1a46c8",
"ay c #1a47c9",
"bg c #1a47ca",
"aJ c #1a47cc",
"ap c #1a47cd",
"bp c #1a48cb",
"bK c #1a48cc",
"a0 c #1b3ba9",
"aS c #1b3cab",
"a9 c #1b3eaf",
"aA c #1b49d0",
"ao c #1b49d2",
"a2 c #1b4ad1",
"aB c #1b4bcf",
"bq c #1b4bd2",
"aN c #1b4bd4",
"br c #1b4bd6",
"bh c #1b4dd6",
"az c #1c4dd7",
"aV c #1c4dd9",
"a4 c #1c4ed8",
"aT c #1c4eda",
"aK c #1c4edb",
"aL c #1d50db",
"a3 c #1d50dc",
"aU c #1d50dd",
"aM c #1d50de",
"c1 c #202032",
"cu c #232e75",
"c2 c #272641",
"cN c #282735",
"c. c #283988",
"c0 c #2f2e35",
"cz c #313133",
"cs c #32314a",
"Qt c #32a67a",
"#v c #333028",
"cU c #333241",
"cE c #353229",
"#0 c #36332b",
"#B c #38352d",
"#y c #39362d",
".M c #393730",
"cF c #39373c",
".U c #3a372f",
"cQ c #3c4987",
"bO c #3d4c8f",
"#A c #3e3c32",
"#C c #3f3c33",
".h c #424036",
".Z c #424037",
".G c #444238",
"#i c #444239",
"#u c #44423a",
".i c #45433b",
"cl c #464355",
".2 c #47433c",
"#R c #47443c",
"#T c #47443e",
".z c #47453d",
"#z c #49483b",
"#b c #49483f",
"bZ c #4a4552",
"#k c #4a4740",
".I c #4a4741",
"## c #4a4840",
"bL c #4b4941",
".N c #4b4a42",
".L c #4c493f",
"#. c #4c4a41",
"#p c #4c4b44",
".F c #4d4a43",
".4 c #4e4d43",
"b1 c #4e5b90",
".s c #4f4d44",
"#I c #4f4d46",
".O c #4f4e46",
".v c #504d46",
".J c #504e47",
"#W c #504e4b",
"av c #505b94",
".D c #514e46",
"aW c #514f48",
"bM c #524e5e",
"#U c #524f48",
"#F c #525047",
"#D c #525048",
"aD c #534f5e",
"aP c #534f60",
".c c #53514a",
"aX c #545062",
".E c #545149",
".a c #54524b",
"cM c #54534c",
"a6 c #555163",
".t c #55534a",
".X c #55544d",
"ba c #565264",
"a. c #56535d",
".A c #56544c",
".5 c #56554b",
"#9 c #57535b",
".Y c #57554e",
"#t c #575649",
"#n c #57564b",
".P c #58554f",
"#3 c #58555a",
".H c #58574f",
"c3 c #585766",
".# c #595650",
"#X c #5a5664",
"#s c #5a5850",
"#O c #5a5852",
"cV c #5a5868",
".y c #5b5851",
"a# c #5b5965",
"#c c #5b5a51",
".R c #5c5a54",
"ag c #5c5a60",
".3 c #5c5c53",
"cA c #5f5d6a",
".C c #5f5e56",
".b c #5f5e57",
"aC c #5f5e5b",
"#Y c #605d6b",
"b8 c #605e6d",
"#4 c #615e6d",
".g c #615f58",
".k c #615f59",
"cD c #615f5a",
"#o c #61605b",
".r c #626059",
"#l c #65635b",
"af c #65635c",
".l c #65635f",
"#r c #65645a",
"#a c #66645c",
".B c #66655d",
".d c #66655f",
"#S c #67665e",
".u c #67aa97",
"#P c #68665e",
".e c #68665f",
"#2 c #686660",
".o c #696761",
"aO c #696762",
"#V c #696860",
".S c #696863",
"b7 c #6a6863",
".w c #6a6962",
"#L c #6a6964",
"cZ c #6a6a66",
"#x c #6b6964",
"aq c #6b6966",
"#h c #6b6a66",
".p c #6c6a63",
"#j c #6c6b67",
"bT c #6d6b78",
"#g c #6d6d69",
"b# c #6e6d64",
".K c #6e6d65",
"#m c #6f6d63",
"cr c #6f6d66",
"#q c #6f6e66",
"#Q c #706f65",
"cy c #706f67",
"ar c #716e7b",
"#M c #716f68",
".6 c #717069",
"#1 c #71706a",
".x c #74736c",
"#w c #75746c",
".Q c #77746f",
"au c #777ea7",
".f c #787670",
"#E c #787672",
"a5 c #797671",
"cT c #797973",
".7 c #7a7a74",
"#K c #7b7973",
"#J c #7b7a72",
"#f c #7b7a75",
".V c #7b7a76",
".9 c #7c7b76",
"#Z c #7c7b87",
"#8 c #7c7c7b",
".q c #7d7c75",
"bA c #7d7c77",
"cG c #7d7e83",
"#N c #7e7d76",
".0 c #7e7d77",
"bB c #81807c",
".W c #82827e",
".1 c #86857f",
"cO c #88888d",
"#d c #898883",
"#e c #8c8b86",
"cn c #8c94af",
".n c #8d8c88",
"ah c #8e8c93",
"#H c #8e8d89",
".m c #8f8f8b",
"#G c #90908c",
"cH c #909599",
"cd c #919196",
"bs c #949491",
".8 c #959593",
".T c #969693",
"b0 c #97979a",
"at c #999bb3",
"cW c #999c9a",
"cY c #999e9b",
"aa c #a09da5",
"ct c #a2a6a1",
"b9 c #a4a6a5",
"cB c #a6aba6",
"bN c #a8a9a9",
"cm c #a9aca9",
"bU c #aaacac",
"ce c #aaaeae",
"cX c #aeb2ac",
"cP c #afb3ad",
"ac c #c0c5d2",
"al c #c9cbce",
"ai c #d2d1d4",
"bt c #d8d7df",
"#7 c #dcdae0",
"as c #dcdce0",
"bC c #dfdee2",
"aE c #e3e3e8",
"a7 c #e3e3eb",
"bb c #e4e4eb",
"bi c #e6e5ec",
"aQ c #e7e7ed",
"#5 c #e9e8ea",
"#6 c #f6f8ef",
"ab c #f9f9f8",
"ak c #fffefd",
"aj c #ffffff",
"QtQtQtQtQtQtQtQtQtQtQtQtQtQtQtQtQtQtQtQtQtQtQtQtQtQtQtQtQtQt.#.a.b.c.d.e.f.g.h.i",
"QtQtQtQt.jQtQtQtQtQtQtQt.jQtQtQtQtQtQtQt.jQtQtQtQtQtQtQt.jQt.k.l.m.n.o.p.q.r.s.t",
"Qt.jQtQtQtQtQtQtQt.jQtQtQt.uQtQtQt.jQtQtQtQtQtQtQt.jQtQtQt.u.v.w.x.y.z.A.B.C.D.E",
"QtQtQtQtQt.jQtQt.u.uQtQtQtQtQtQtQtQtQtQtQt.jQtQt.u.uQtQtQtQt.F.G.H.I.#.w.J.K.L.E",
"QtQtQtQtQtQtQt.j.u.uQtQtQtQtQtQtQtQtQtQtQtQtQt.j.u.uQtQtQtQt.M.N.O.P.Q.R.S.T.l.U",
"QtQtQtQtQtQtQtQtQtQtQtQtQtQtQt.uQtQtQtQtQtQtQtQtQtQtQtQtQtQt.V.W.#.X.Y.Z.0.1.a.2",
"QtQt.u.uQtQtQtQtQtQtQtQtQtQtQtQtQtQt.u.uQtQtQtQtQtQtQtQtQtQt.3.4.5.6.7.8.9#.###a",
"QtQt.u.uQtQtQtQtQtQtQtQtQtQtQt.jQtQt.u.uQtQtQtQtQtQtQtQtQtQt#b#c#d#e#f#g#h#i#j#k",
"QtQtQtQtQt.jQt.uQtQt.jQtQtQtQtQtQtQtQtQtQt.jQt.uQtQt.jQtQtQt.G#l.6#m#n#o#p#o#q#r",
"QtQtQtQtQtQtQtQtQtQtQtQtQtQtQtQtQtQtQtQtQtQtQtQtQtQtQtQtQtQt.Z.K#s#t.h#u#v.p#w#x",
"Qt.jQtQtQt.uQtQtQt.jQtQtQtQtQtQtQt.jQtQt.#.a.b.c.d.e.f.g.h.i#y#u#i#z#A#B#C#D.R#E",
".u.uQtQtQtQtQtQtQtQtQtQtQt.jQtQt.u.uQtQt.k.l.m.n.o.p.q.r.s.t.Z#F#G#H#I.J#J#K.P#L",
".u.uQtQtQtQtQtQtQtQtQtQtQtQtQt.j.u.uQtQt.v.w.x.y.z.A.B.C.D.E.a#M#N#O#C#F#P#Q.2#.",
"QtQtQtQtQtQtQt.uQtQtQtQtQtQtQtQtQtQtQtQt.F.G.H.I.#.w.J.K.L.E#R.H#S#T#U#V#W#X#Y#Z",
"QtQtQtQtQtQtQtQtQtQt.u.uQtQtQtQtQtQtQtQt.M.N.O.P.Q.R.S.T.l.U#0#1#V#O#2#3#4#5#6#7",
"QtQtQtQtQtQtQt.jQtQt.u.uQtQtQtQtQtQtQtQt.V.W.#.X.Y.Z.0.1.a.2.V#8#9a.a#aaabacadae",
"QtQt.jQtQtQtQtQtQtQtQtQtQt.jQt.uQtQt.jQt.3.4.5.6.7.8.9#.##afagahaiajakalamanaoap",
"QtQtQtQtQtQtQtQtQtQtQtQtQtQtQtQtQtQtQtQt#b#c#d#e#f#g#h#iaqarasatauavawaxayazaAaB",
"Qt.jQtQtQtQtQtQtQt.jQtQtQt.uQtQtQt.jQtQt.G#l.6#m#n#o#paCaDaEaFaGaHaIaJazaKaLaMaN",
"QtQtQtQtQt.jQtQt.u.uQtQtQtQtQtQtQtQtQtQt.Z.K#s#t.h#u#vaOaPaQaGaRaSaTaUaVaMaMaMaz",
"QtQtQtQtQtQtQt.j.u.u.#.a.b.c.d.e.f.g.h.i#y#u#i#z#A#B#CaWaXaQaYaZa0a1a2a3aMaMaMa4",
"QtQtQtQtQtQtQtQtQtQt.k.l.m.n.o.p.q.r.s.t.Z#F#G#H#I.J#Ja5a6a7aGa8a0a9b.a4aKaUaMa4",
"QtQt.u.uQtQtQtQtQtQt.v.w.x.y.z.A.B.C.D.E.a#M#N#O#C#F#Pb#babbbcbda0bebfbgbhaMaMa4",
"QtQt.u.uQtQtQtQtQtQt.F.G.H.I.#.w.J.K.L.E#R.H#S#T#U#V.J#qbabibjbkblbmbnbobpbqbraz",
"QtQtQtQtQt.jQt.uQtQt.M.N.O.P.Q.R.S.T.l.U#0#1#V#O#2#O.Sbsa6btbubvblbwbxbybfbzbqaz",
"QtQtQtQtQtQtQtQtQtQt.V.W.#.X.Y.Z.0.1.a.2.V.W.#.X.Y.ZbAbBaXbCbDbEbFbwbGbHbIbJbKaz",
"Qt.jQtQtQt.uQtQtQt.j.3.4.5.6.7.8.9#.###a.3.4.5.6.7.8#fbLbMbNbObPbQbwbwbxbRbybSbS",
".u.uQtQtQtQtQtQtQtQt#b#c#d#e#f#g#h#i#j#k#b#c#d#e#f#g#h#i#hbTbUbVbWbXbwbmbRbRbYbS",
".u.uQtQtQtQtQtQtQtQt.G#l.6#m#n#o#p#o#q#r.G#l.6#m#n#o#p#o#qbZb0b1aHb2b3bwb4b5b5b6",
"QtQtQtQtQtQtQt.uQtQt.Z.K#s#t.h#u#v.p#w#x.Z.K#s#t.h#u#v.p#wb7b8b9c.c#cabwbwbwcbcc",
".#.a.b.c.d.e.f.g.h.i#y#u#i#z#A#B#C#D.R#E#y#u#i#z#A#B#C#D.R#E#ycdcecfcgchcicjckck",
".k.l.m.n.o.p.q.r.s.t.Z#F#G#H#I.J#J#K.#.S.Z#F#G#H#I.J#J#K.#.S.Zclcmcncocpcqckckck",
".v.w.x.y.z.A.B.C.D.E.a#M#N#O#C#F#P#Q.2#..a#M#N#O#C#F#P#Q.2#..acrcsctcucvcwcxckcc",
".F.G.H.I.#.w.J.K.L.E#R.H#S#T#U#V.Jcy#y#i#R.H#S#T#U#V.Jcy#y#i#R.HczcAcBcfcgcCcxcc",
".M.N.O.P.Q.R.S.T.l.U#0#1#V#O#2#O.S.TcDcE#0#1#V#O#2#O.S.TcDcE#0#1#VcFcGcHcIcJcKcL",
".V.W.#.X.Y.Z.0.1.a.2.V.W.#.X.Y.Z.0.1.a.2.V.W.#.X.Y.Z.0.1.a.2.V.W.#cMcNcOcPcQcRcS",
".3.4.5.6.7.8.9#.###a.3.4.5.6.7.8.9#.###a.3.4.5.6.7.8.9#.###a.3.4.5.6cTcUcVcWcXcY",
"#b#c#d#e#f#g#h#i#j#k#b#c#d#e#f#g#h#i#j#k#b#c#d#e#f#g#h#i#j#k#b#c#d#e#fcZc0c1c2c3",
".G#l.6#m#n#o#p#o#q#r.G#l.6#m#n#o#p#o#q#r.G#l.6#m#n#o#p#o#q#r.G#l.6#m#n#o#p#o#q#r",
".Z.K#s#t.h#u#v.p#w#x.Z.K#s#t.h#u#v.p#w#x.Z.K#s#t.h#u#v.p#w#x.Z.K#s#t.h#u#v.p#w#x"};
