/* XPM */
static char *dummy[]={
"40 40 1020 2",
"mS c #3d372c",
"l. c #463f32",
"hy c #453f32",
"ds c #443e31",
"n5 c #28231a",
"jr c #423b30",
"fX c #413b30",
"k9 c #6a6557",
"cV c #2c251b",
"nN c #322c20",
"fs c #2b2319",
"hx c #6a6456",
"ay c #332d21",
"h. c #2c251b",
"i3 c #2b2419",
"a1 c #3d372c",
"dr c #696455",
"kL c #2c251b",
"mv c #2b2419",
"k8 c #635d4f",
"hw c #645f50",
"dq c #666051",
"cU c #3f382c",
"mR c #585042",
"jq c #615a4c",
"fW c #625c4d",
"g9 c #3f382c",
"cT c #3d372c",
"g8 c #3e382c",
"kK c #3f382c",
"fr c #362e23",
"i2 c #362f24",
"kJ c #3f392d",
"mu c #373024",
"nX c #211e17",
"nZ c #221e17",
"n0 c #23201a",
"nY c #24201a",
"nO c #24211b",
"n3 c #26221b",
"n4 c #27231b",
"nV c #28241c",
"nW c #28241d",
"nP c #29241d",
"nE c #2b261c",
"nJ c #2b261d",
"nR c #2b261e",
"mk c #2b2718",
"nQ c #2b271e",
"ms c #2c251b",
"cK c #2c271e",
"n2 c #2c271f",
"iH c #2d271c",
"cO c #2d271e",
"nU c #2d2820",
"md c #2e271d",
"ku c #2e281f",
"nT c #2e2920",
"n1 c #2e2a21",
"cs c #2f281d",
"gR c #2f291d",
"e0 c #30291d",
"iE c #302a1d",
"nS c #302c22",
"mb c #312a1d",
"j8 c #322c20",
"bY c #332c20",
"ao c #332c22",
"nz c #332d22",
"av c #342c22",
"j. c #352f25",
"ne c #353024",
"cP c #353027",
"ns c #363025",
"cL c #363027",
"nq c #363125",
"cB c #363127",
"aa c #372f22",
"m# c #373023",
"eD c #373024",
"bw c #373025",
"mC c #373026",
"gj c #373125",
"jQ c #373126",
"mF c #373127",
"gX c #373128",
"at c #373129",
"gS c #373228",
"eu c #383124",
"ig c #383125",
"cI c #383227",
"mM c #383228",
"ap c #383229",
"kv c #383329",
"lT c #393224",
"lV c #393225",
"fA c #393328",
"kp c #393329",
"e2 c #39332a",
"kW c #393428",
"dZ c #3a3326",
"fq c #3a3327",
"cC c #3a3328",
"ml c #3a341c",
"lu c #3a3426",
"i1 c #3a3427",
"an c #3a3428",
"aR c #3a3429",
"nK c #3a352a",
"lZ c #3a361f",
"mt c #3b3427",
"gT c #3b3428",
"cH c #3b3429",
"cJ c #3b3529",
"nF c #3b362b",
"fp c #3c3528",
"cE c #3c3529",
"gW c #3c352a",
"cg c #3c362a",
"mr c #3c362b",
"nA c #3c372b",
"cM c #3d3529",
"cD c #3d3629",
"#7 c #3d362a",
"iG c #3d362b",
"kt c #3d372b",
"gV c #3e362a",
"gU c #3e372a",
"#3 c #3e372b",
"#W c #3e372c",
"iN c #3e382b",
"km c #3e391b",
"e5 c #3e392b",
"aq c #3f372c",
"kq c #3f382b",
"au c #3f382c",
"cG c #3f382d",
"ar c #3f392c",
"ax c #3f392d",
"kP c #3f392e",
"kV c #3f392f",
"aw c #3f3a2f",
"#H c #40382a",
"lR c #40382b",
"e3 c #40392d",
"ks c #40392e",
"iB c #403a1c",
"iK c #403a2d",
"hd c #403a2f",
"er c #41392b",
"nM c #41392d",
"nB c #413a2d",
"nI c #413a2e",
"nG c #413b2d",
"mg c #413b2e",
"iL c #413b2f",
"m0 c #413b30",
"lE c #413c24",
"mq c #413d1f",
"d9 c #423a2c",
"if c #423a2d",
"nD c #423a2e",
"eC c #423b2d",
"cQ c #423c2f",
"mh c #423c30",
"d. c #423c31",
"hX c #433b2d",
"ly c #433b2e",
"nL c #433b2f",
"cN c #433c2f",
"cF c #433c30",
"iJ c #433c31",
"iI c #433e32",
"m. c #443c2e",
"mf c #443d31",
"mj c #443d32",
"jL c #443e1d",
"cR c #443e31",
"me c #444033",
"aH c #444037",
"eZ c #453e2e",
"nC c #453e2f",
"cS c #453e31",
"kH c #453f31",
"e4 c #453f32",
"mi c #454034",
"i0 c #45411f",
"iD c #463e2f",
"ma c #463f2f",
"cr c #463f31",
"kr c #463f32",
"iF c #464032",
"kI c #464033",
"## c #473f30",
"gQ c #473f31",
"cf c #474031",
"cm c #474032",
"iM c #474033",
"mc c #474133",
"am c #484034",
"#C c #484132",
"bT c #484133",
"as c #484134",
"al c #484234",
"bn c #484235",
"id c #484421",
"bO c #494133",
"dU c #494136",
"nH c #494233",
"#w c #494234",
"mm c #494325",
"li c #49432f",
"e1 c #494335",
"bh c #494336",
"nm c #4a4133",
"eY c #4a4233",
"jT c #4a4234",
"ls c #4a4236",
"#o c #4a4335",
"f6 c #4a4337",
"hT c #4a4425",
"l7 c #4a4624",
"iC c #4b4334",
"dD c #4b4337",
"nf c #4b4434",
"d2 c #4b4436",
"nr c #4b4534",
"nt c #4b4535",
"hv c #4b4725",
"j6 c #4b4727",
"d8 c #4c4334",
"lf c #4c4438",
"mD c #4c4537",
"hB c #4c4538",
"k4 c #4c4627",
"hW c #4d4435",
"la c #4d4539",
"lx c #4e4435",
"nl c #4e4535",
"ny c #4e4536",
"#V c #4e4637",
"mw c #4e4638",
"k7 c #4e483a",
"lr c #4e4a28",
"lN c #4e4a2a",
"nx c #4f4636",
"#2 c #4f4637",
"#6 c #4f4738",
"c. c #504839",
"lw c #514738",
"bN c #514837",
"bS c #514838",
"cc c #514939",
"k. c #51493a",
"cn c #514b3d",
"g7 c #514e2e",
"jo c #514e32",
"j7 c #524838",
"d7 c #524839",
"jS c #524938",
"a. c #524939",
"ni c #524a38",
"gC c #524a39",
"do c #524c3d",
"ch c #524c3e",
"b9 c #524d3e",
"kw c #524e2f",
"lQ c #534939",
"gP c #534a3a",
"nh c #534b39",
"ce c #534b3a",
"i9 c #534b3e",
"no c #534c39",
"eA c #534c3a",
"#5 c #534c3b",
"j# c #534c3e",
"#Y c #534d3b",
"gD c #534e3f",
"mJ c #534f43",
"dQ c #53593e",
"eB c #544a3a",
"cl c #544b3a",
"c# c #544b3b",
"nk c #544c3a",
"cp c #544c3b",
"ey c #544d3b",
"i4 c #544d3e",
"fz c #544d3f",
"mI c #544d40",
"gB c #544e40",
"gO c #545234",
"jc c #545641",
"ik c #554a3a",
"lX c #554b3a",
"l9 c #554b3b",
"mT c #554c3a",
"#Z c #554c3b",
"ck c #554c3c",
"m1 c #554d3a",
"kn c #554d3b",
"fB c #554e3f",
"j9 c #554f40",
"gA c #555438",
"cd c #564d3c",
"aQ c #564f41",
"ih c #56513e",
"eX c #56513f",
"lW c #56523e",
"mH c #565245",
"gh c #565539",
"#9 c #574d3e",
"cq c #574e3d",
"#S c #57503d",
"mz c #575042",
"mO c #575142",
"mA c #575245",
"my c #575246",
"mN c #575346",
"#U c #584e3d",
"lA c #584f3b",
"lD c #584f3c",
"ko c #584f3d",
"#n c #584f3e",
"nu c #58503b",
"hZ c #58503c",
"nn c #58513c",
"ev c #58513d",
"aV c #585142",
"i6 c #585144",
"mK c #585345",
"ew c #594f3d",
"#v c #594f3e",
"et c #59503c",
"nj c #59503d",
"nv c #59503e",
"ng c #59513c",
"dY c #59513d",
"hV c #59513e",
"aS c #595243",
"mL c #595244",
"jp c #595344",
".6 c #595346",
"dR c #59573e",
"np c #5a503d",
"ie c #5a503e",
"lU c #5a503f",
"a# c #5a513e",
"#0 c #5a523e",
"es c #5a5240",
"nw c #5a5241",
"kO c #5a5244",
"bv c #5a5341",
"aI c #5a5343",
"mB c #5a5344",
"mE c #5a5345",
"#X c #5a5446",
".3 c #5a5447",
"#8 c #5a5545",
"#4 c #5a5547",
"ci c #5b513e",
"#F c #5b523f",
"dX c #5b5241",
"ez c #5b533f",
"hG c #5b5341",
"jP c #5b5342",
"k6 c #5b5345",
"hc c #5b5446",
"mQ c #5b5447",
"ex c #5b5547",
".U c #5b5548",
"mG c #5b5648",
"eq c #5b5743",
"kb c #5b5b40",
"#T c #5c523f",
"dT c #5c5240",
"dB c #5c5241",
"#G c #5c533e",
"ca c #5c533f",
"dF c #5c5341",
"hU c #5c5342",
"gi c #5c5441",
"i8 c #5c5546",
"i7 c #5c564a",
"kU c #5c5749",
"en c #5c5d42",
"d1 c #5d523f",
"#r c #5d533f",
"#z c #5d5340",
"l# c #5d5341",
"dC c #5d5342",
"k# c #5d5440",
"lh c #5d5442",
"le c #5d5443",
"gn c #5d5540",
"m6 c #5d5542",
"fw c #5d5547",
"c9 c #5d5647",
"mx c #5d5749",
"dw c #5d574a",
"aC c #5d574e",
"#m c #5e523f",
"ii c #5e5440",
"lP c #5e5441",
"dG c #5e5443",
"bI c #5e5540",
"cb c #5e5541",
"dW c #5e5542",
"hA c #5e5544",
"co c #5e5642",
"l8 c #5e5643",
"hF c #5e5645",
"dn c #5e5647",
"e. c #5e5742",
"kQ c #5e5747",
"fy c #5e5748",
"ak c #5e594d",
"fU c #5e5d44",
"bP c #5f5540",
"lS c #5f5640",
"bV c #5f5641",
"ka c #5f5642",
"cj c #5f5643",
"hD c #5f5644",
"dA c #5f5645",
"lz c #5f5742",
"nd c #5f5746",
"aM c #5f5749",
"lC c #5f5843",
"fV c #5f5848",
"aX c #5f5849",
"dp c #5f594b",
"i5 c #5f594c",
"aN c #5f5a4c",
"jb c #5f5a4d",
"mp c #5f5e44",
"lB c #605541",
"h0 c #605641",
"lc c #605645",
"lY c #605743",
"ij c #605744",
"mZ c #605745",
"dV c #605844",
"aP c #60594a",
"ja c #60594c",
"he c #605a4a",
"fx c #605a4b",
"mP c #605a4d",
"ep c #605c46",
"bW c #615741",
"hY c #615840",
"bJ c #615841",
"#1 c #615944",
"lt c #615945",
"aU c #615a4a",
"ha c #615a4c",
"aO c #615b4c",
"dc c #615b4d",
"fC c #61624b",
"il c #61634b",
"gm c #625842",
"#A c #625942",
"nc c #625946",
"e# c #625a42",
"aZ c #625b4b",
"dl c #625b4d",
"c7 c #625c4d",
"fv c #625c4e",
"kT c #625c4f",
"#s c #635942",
"d5 c #635943",
"mW c #635a44",
"bu c #635b47",
"k5 c #635b4c",
"a0 c #635c4c",
"dd c #635d4d",
"kM c #635e51",
"ea c #635f48",
"eE c #63624c",
"iA c #63634a",
"f9 c #63654d",
".G c #64594c",
"m3 c #645a44",
"bM c #645a45",
"na c #645b44",
"bR c #645b45",
"bU c #645b46",
"#l c #645b47",
"jO c #645c47",
"kN c #645c4c",
"hj c #645d4d",
"kR c #645d4e",
"aY c #645d4f",
"aL c #645e50",
"eo c #646149",
"mX c #655b48",
"bH c #655c46",
"#u c #655c47",
"#B c #655c48",
"bg c #655d49",
"hb c #655d4d",
"aW c #655e50",
"#R c #655e52",
"hf c #655f50",
"hh c #655f51",
"dk c #656050",
"h# c #656052",
"hi c #656053",
"kl c #65644f",
"m8 c #665b48",
"#k c #665c47",
"#E c #665c48",
"gl c #665d47",
"d0 c #665d48",
"ld c #665d49",
"f5 c #665d4a",
"dS c #665e4a",
".9 c #665f4c",
"#j c #665f53",
"ft c #666051",
"lO c #675c47",
"jR c #675e47",
"dz c #675e4a",
"hz c #675e4b",
"#. c #675f4b",
"c8 c #675f4f",
"dm c #67604f",
"fu c #676052",
"gk c #67614d",
"bG c #67614e",
"d# c #676151",
"db c #676153",
"c6 c #676254",
"dI c #67634d",
"eb c #67644c",
"eW c #67674d",
"d6 c #685d48",
"lv c #685d49",
"bQ c #685e48",
"dH c #685e4a",
"#t c #685f48",
"#y c #685f49",
"#q c #685f4a",
"n# c #68604a",
"m9 c #68604d",
"m7 c #68614b",
"kS c #686153",
"aJ c #686253",
"go c #68684f",
"fo c #686a52",
"bL c #695f49",
"hE c #695f4a",
"d4 c #69604a",
"m4 c #69604d",
"mY c #69614e",
"m2 c #69624c",
"#D c #69624f",
"aT c #696253",
"aK c #696254",
"de c #696850",
"gE c #696950",
"bq c #6a614a",
"bf c #6a614c",
"f4 c #6a614d",
"nb c #6a614e",
"mU c #6a624c",
".5 c #6a624e",
".1 c #6a624f",
"m5 c #6a634f",
"hg c #6a6354",
"gY c #6a6a51",
"bc c #6b614b",
"bK c #6b614c",
"f0 c #6b624b",
"bX c #6b624c",
"ju c #6b624d",
".S c #6b624f",
"dy c #6b634c",
"f8 c #6b634d",
"n. c #6b634f",
"mn c #6b6856",
".Z c #6c634c",
"mV c #6c644f",
"du c #6c6451",
"bs c #6c6551",
"da c #6c6556",
".g c #6c6960",
"dj c #6c6c55",
"bb c #6d644e",
"bt c #6d654f",
"jN c #6d6550",
"jM c #6d6552",
"fY c #6d6752",
"l0 c #6d6c57",
"bp c #6e644e",
"js c #6e654f",
"ba c #6e6752",
"bi c #6e6852",
"jv c #6e6853",
"kX c #6e6e5c",
"bl c #6f6652",
"bo c #6f6853",
"be c #706752",
"jw c #706755",
"bj c #706851",
"f2 c #706853",
"f1 c #706856",
"dE c #706952",
"hC c #706953",
"d3 c #706b58",
"ec c #706e57",
".X c #716852",
"jt c #716853",
"bd c #716856",
"bk c #716857",
"f7 c #716952",
"fZ c #716953",
"br c #716957",
"lb c #716a53",
"lg c #716a54",
".8 c #716a55",
"#p c #716b58",
"#x c #716b59",
"ib c #724e0a",
"dx c #726a53",
"f3 c #726a54",
".Y c #726a55",
".2 c #726c59",
"b8 c #726e63",
"dJ c #727159",
"jx c #72715d",
"bm c #736b55",
".R c #736b56",
".T c #736c59",
"eV c #73745c",
"iY c #744d00",
".0 c #746c57",
".Q c #746c58",
"dv c #746d5a",
"fQ c #755911",
"dt c #756d59",
"kG c #757265",
"mo c #757365",
"l6 c #757366",
"hR c #76570b",
"gf c #765c13",
"df c #76755f",
"k3 c #767569",
"cA c #777469",
"kF c #786638",
"bF c #787468",
"#Q c #797367",
"iZ c #79767d",
"ge c #7a5b0b",
"lq c #7a7a6d",
"gy c #7b5a0b",
"jJ c #7c5a00",
"iO c #7c7c6a",
"gM c #7d5c0b",
"kk c #7d6c47",
".W c #7d7560",
".P c #7d786d",
"b# c #7d7a6e",
".l c #7f7163",
"lM c #7f7b75",
"e6 c #7f7e6b",
"lJ c #805900",
"az c #807c72",
"jK c #808199",
"j4 c #815a00",
"aG c #817f74",
"fk c #826823",
".B c #827163",
".u c #827263",
"ad c #827d70",
"jW c #835a00",
"fP c #83600e",
"k2 c #83693e",
"ll c #845b09",
"is c #845d0b",
"gw c #845f0b",
"aB c #847e73",
"#i c #847f73",
"k1 c #855a00",
"fN c #85600b",
"lj c #85817c",
"ht c #865e0a",
"ae c #868173",
"gc c #875f0a",
"lL c #876b3c",
"jn c #877a79",
"aD c #87857b",
"aA c #888377",
"kj c #895c00",
"hP c #89610a",
"fj c #896213",
"i. c #89630a",
"j5 c #897f86",
"af c #898376",
"ag c #898477",
"ah c #898478",
"kE c #8a5a02",
"ki c #8a5d01",
"ej c #8a6314",
"lp c #8a6b2e",
"ac c #8a8376",
"b2 c #8a867a",
"aj c #8a867b",
"ke c #8b5d03",
"kD c #8b5e02",
"j3 c #8b5f02",
"eP c #8b620e",
"it c #8b630a",
"fi c #8b630b",
"ab c #8b867a",
"k0 c #8c6003",
"fO c #8c640a",
"ff c #8c640b",
"#P c #8c877b",
"#O c #8c887a",
"dg c #8c8a79",
"aF c #8c8a80",
"jI c #8d5f02",
"b7 c #8d887c",
".7 c #8d8978",
"#h c #8d897c",
"c0 c #8d8c81",
"lI c #8e5e03",
"hu c #8e6205",
"b0 c #8e8a7e",
"fG c #8f5b02",
"jm c #8f5e01",
"lK c #8f5f03",
"gK c #8f6206",
"eO c #8f6209",
"gd c #8f6408",
"ky c #8f6a1d",
"iz c #8f8377",
"l5 c #8f8c88",
"lF c #8f8e88",
"gp c #905c03",
"jl c #906104",
"iu c #906307",
"gv c #90630b",
"gx c #906407",
"fg c #906509",
"fF c #915e03",
"iy c #916306",
"fh c #916408",
"gL c #916508",
"fR c #917a3c",
".i c #918574",
".E c #91897a",
".j c #91897b",
"aE c #918e84",
"hI c #925e02",
"io c #925e03",
"g0 c #925e05",
"jH c #926104",
"g5 c #92640a",
"hO c #92640b",
".q c #928777",
"bA c #928e80",
"kz c #936205",
"jk c #93650a",
"iU c #93650b",
".A c #938675",
".t c #938a7b",
"#g c #938e80",
"ai c #938e82",
".V c #93907d",
"b1 c #939083",
"cy c #939084",
"h2 c #946004",
"hQ c #946306",
".k c #948675",
".z c #948b7b",
"bZ c #948e81",
".4 c #94917e",
"hl c #956003",
"ix c #956405",
".F c #958675",
"a5 c #958f83",
"by c #959082",
"a6 c #959287",
"iQ c #966104",
".w c #968d7e",
".o c #968d7f",
".h c #968f81",
"c5 c #969384",
"eF c #96968b",
"h3 c #976204",
"ia c #976406",
"i# c #976607",
"fE c #976a13",
"eQ c #977330",
"bz c #979486",
"bB c #979488",
"b3 c #97948a",
"b6 c #989384",
"di c #989585",
"jU c #989791",
"ic c #989885",
"kC c #996606",
"kh c #996607",
"gJ c #99670a",
".s c #998774",
".r c #999081",
".y c #999082",
"cx c #999488",
"bD c #999586",
"#L c #999587",
".D c #9a8a7a",
".b c #9a9b93",
"#K c #9b9587",
"#N c #9b9688",
"a4 c #9b9689",
"b5 c #9b9888",
"b. c #9b988b",
"jd c #9b9a97",
".d c #9b9b92",
"lk c #9c938f",
"a3 c #9c988a",
"dh c #9c998b",
"Qt c #9c9d96",
"l1 c #9d999d",
".N c #9d9a8f",
"em c #9d9d8b",
".f c #9d9e95",
"jX c #9e6706",
"iv c #9e6a0a",
"lH c #9e7835",
"l3 c #9e979c",
"bx c #9e9b8c",
"cz c #9e9c91",
"g# c #9f6404",
"iX c #9f6804",
"kf c #9f6806",
"lm c #9f6b09",
"fT c #9f9fa4",
".e c #9fa097",
"iW c #a06c0a",
".C c #a0998c",
"#J c #a09b8c",
"#f c #a09c8d",
".O c #a09e93",
"cv c #a09f95",
"kA c #a16a07",
"iV c #a16d0b",
"f# c #a2690b",
"jA c #a26b07",
"iR c #a26b08",
"gb c #a26b09",
"jG c #a26b0a",
".n c #a29381",
"a2 c #a29e90",
".# c #a2a39b",
"iw c #a36c0a",
".v c #a39481",
"ct c #a3a298",
"ln c #a46b07",
"jF c #a46d0a",
"je c #a48148",
"a9 c #a4a194",
".c c #a4a59d",
"j2 c #a56e0a",
".p c #a59586",
".x c #a59686",
"kx c #a5a0a7",
".a c #a5a69f",
"kZ c #a66d08",
"jE c #a66f0b",
"jz c #a67721",
"jy c #a6a3a5",
"cu c #a6a59b",
".m c #a79e8e",
"#e c #a7a494",
"bE c #a7a495",
"#c c #a7a497",
"in c #a87f36",
"a8 c #a8a698",
"hJ c #a96b08",
"eK c #a96e0b",
"f. c #a9884a",
"l4 c #a9a3aa",
"#b c #a9a597",
"ed c #a9ab9d",
"#d c #aaa797",
"cw c #aaa89d",
".M c #aaa89f",
"im c #aaa8a8",
"ei c #ab6d08",
"#M c #aba99a",
"cZ c #abaa9c",
"kY c #aca6ad",
"kc c #aca9ad",
"iP c #acaaaa",
".L c #adaba0",
"l2 c #aeaab2",
"cX c #aeada0",
"gq c #af6d08",
"jV c #afaaab",
"lG c #afabb3",
"#I c #b0aea1",
"eg c #b17109",
"h6 c #b1720c",
"jf c #b2730a",
"#a c #b2b0a2",
"cY c #b2b2a5",
"b4 c #b3b0a2",
".K c #b3b1a7",
"bC c #b3b2a3",
"jB c #b4720a",
"fl c #b4a175",
"e9 c #b6a174",
"c3 c #b6b5a9",
"c4 c #b6b6aa",
".J c #b7b7ae",
"cW c #b7b8ad",
"dP c #b8b6ac",
".I c #b9b8af",
"c2 c #b9baad",
"ip c #ba760b",
"iq c #ba780d",
"kd c #baa689",
"a7 c #babaaf",
"fM c #bb7307",
"jY c #bb770b",
"jh c #bb770c",
"e8 c #bbb197",
"hm c #bc740a",
"hL c #bc780c",
"h5 c #bd790d",
"c1 c #bdbfb2",
"jg c #bf780b",
"ji c #c0780c",
"g2 c #c07b0d",
".H c #c0c1ba",
"ho c #c1790d",
"kg c #c2770b",
"lo c #c2780a",
"iS c #c37b0d",
"fe c #c47907",
"hK c #c47a0c",
"jZ c #c57a0c",
"gG c #c87c0c",
"hp c #c97c0b",
"jC c #ca7d0c",
"hn c #ca7e0e",
"g1 c #cb7c0c",
"j0 c #cc7f0c",
"h4 c #cd800d",
"h7 c #cf7e0b",
"eJ c #d0ccc9",
"hS c #d0cdc5",
"fn c #d0d0c7",
"gr c #d4830e",
"eG c #d4d5d1",
"kB c #d6820b",
"ga c #d6830e",
"eh c #d87f05",
"ef c #d8ccbf",
"eU c #d8d9d3",
"gN c #d9d9cf",
"gH c #da830c",
"g6 c #dbd9cf",
"jD c #dc860c",
"hM c #de850b",
"j1 c #de880c",
"fS c #dfd9c9",
"hH c #e1e1d6",
"dM c #e1e2d9",
"e7 c #e2e1dc",
"fH c #e38607",
"gz c #e3e2dc",
"h1 c #e3e4de",
"fa c #e48707",
"ek c #e6dfce",
"dN c #e7e1d1",
"gg c #e7e6e1",
"eL c #ea8a07",
"fD c #eae9e3",
"dK c #ebebe8",
"iT c #ec8c09",
"dL c #edecf9",
"gZ c #eeece4",
"hk c #eeeee4",
"gF c #efede3",
"eR c #f0cea0",
"g. c #f0eee7",
"hq c #f18b09",
"gs c #f28e09",
"gI c #f48e07",
"g3 c #f48f09",
"jj c #f49008",
"dO c #f4f2ff",
"fm c #f6f3ef",
"h8 c #f78f08",
"ee c #f8f8fa",
"ir c #f99107",
"el c #f9f9f9",
"hN c #fa9109",
"fb c #fb9008",
"eT c #fbfbfb",
"eI c #fcfeff",
"hr c #fd9007",
"g4 c #fd9108",
"fJ c #ff8b09",
"fK c #ff8c0a",
"fI c #ff8d08",
"gu c #ff8d09",
"fc c #ff8e08",
"hs c #ff8f07",
"fd c #ff8f08",
"fL c #ff9008",
"gt c #ff9108",
"h9 c #ff9207",
"eM c #ff9209",
"eN c #ff9308",
"eS c #fffefc",
"eH c #ffffff",
"Qt.#.#.a.b.c.d.e.f.g.h.i.j.k.l.m.n.o.p.q.r.s.t.k.u.m.v.w.x.q.y.s.z.A.B.C.D.E.F.G",
".H.I.J.K.L.L.M.N.O.P.Q.R.S.T.U.V.W.X.Y.Z.Q.0.1.2.3.4.W.X.Y.Z.Q.Q.5.2.6.7.8.9#.##",
"#a#b#c#d#e#f#g#h#i#j#k#l#m#n#o#p#q#r#s#t#k#u#m#v#w#x#y#z#A#t#u#B#m#v#C#D#E#F#G#H",
"#I#J#K#L#M#N#O#P#Q#R#S#T#U#V#W#X#Y#Z#0#1#S#T#U#2#3#4#5#Z#0#1#S#T#U#6#7#8#9a.a#aa",
"abacadaeafagahaiajakalam#3anaoapaqar#Wasalam#3anaoatauauaqasasam#3anavawaxau#7ay",
"azajaAaBaCaDaEaFaGaHaIaJaKaLaMaNaOaPaQaRaSaJaTaLaMaNaOaUaQaRaVaJaTaWaXaYaZa0aOa1",
"a2a3a4a5a6a7a8a9b.b#ba.Xbbbcbdbe.Ybfbgbhbibjbbbcbkblbmbfbgbnbobjbpbqbrbsbtbubvbw",
"bxbybzbAbBbCbDbEa3bFbGbHbIbJbKbLbM#rbNbObGbHbPbJbKbQbR#rbSbTbGbUbVbWbXbQbR#rbSbY",
"bZb0b1b2b3b4b5b6b7b8b9c.c#cacbcccdcecfcgchc.c#cicjccckclcmcgcnc.c##Tcocpcqa.crcs",
"ctcuctcvctcwcxcyczcAcBcCcDcEcFcGcHcIcJcKcLcCcDcMcNcGcHcIcJcOcPcCcDcMcQcRcScTcUcV",
"cWcXcYcZc0c1c2c3c4c5c6c7c8c9d.aZd#dadbdcc6dddedfdgdhdidjdkdcc6dldmdnd.dodpdqdrds",
"dt.0dudvdw.V.Wdx.RdydzdAdBdCdDdEdFdG#ldHdIdJdKdLdMdNdOdPdQdRdSdAdTdCdUdVdWdXdYdZ",
"d0#ld1#vd2d3d4d1d5#td6#zd7d8d9e.e#eaebecedeeefegeheiejekelemeneoepeqeresbP#zeteu",
"ev#zew#VcGexey#Zez#1eA#veBeCeDeEeFeGeHeIeJeKeLeMeNeheOePeQeReSeTeUeVeWeXcceYeZe0",
"e1as#3cJaoe2aue3au#we4cDcJe5e6e7e8e9f.f#fafbfceMfdfefffgfhfifjfkflfmfnfofpfqfrfs",
"aSftfufvfwdwfxfyfzfAfBfvdcfCfDfEfFfGfHeNfcfIfJfKfLfMfNfNfOfgfgfPfQfRfSfTfUfVfWfX",
"fYfZbbf0f1f2f3f4f5f6bif7f8f9g.fFg#gafIfJfcfKfKfKfcgbfNfNgcfgfgfggdgegfggghgibvgj",
"gkglbIgmbKbLbMd1bS#wbGglgngog.gpgqgrgsgtfJfKfKfKgugvfNfNgwgcgxgxgxgxgygzgA#rbSbY",
"gBcc#Z#rdWgCcqclcrcggDcc#ZgEgFfFgGgrgHgIgufIfJfKgugJfNfNfNfNgKgxgxgLgMgNgOgPgQgR",
"gSgTgUgVcRaxgWcIcgcOgXcHgUgYgZg0g1grg2g3g4fIfKfKgug5fNfNgwfNgKgxgxgxgMg6g7g8g9h.",
"h#hahbhchdhehfhghhdphihahjgYhkhlhmhnhohphqhrhsfdfceOfNfNfNhthugxgxgxgeg6hvhwhxhy",
"hzhAdFdChBhCdFhD#BhEdzhFhGgEhHhIhJhnhKhLhMg3hNhsfchOfNfNfNhPhQgxgxgxhRhShThUhVdZ",
"d6#zbShWhXe.hYhZh0bcd6#za.goh1h2h3h4hKh5h6h7h8h9fchOgwfNi.gLi#iagxgxibicid#zeteu",
"eyieeBifigiheAc#iiijey#vikiliminioiphKhKhLiqhMirirhOisitiuiviwiwixiyiziAiBiCiDiE",
"iFgUiG#3iHiIiJiKiLiMiFgU#7iNiOiPiQiRiShKhoiqiqiTiriUisgciViWiwiWiXiYiZi0gTi1i2i3",
"i4i5i5i5i6i7exi8i9j.j#jai5jbjcjdjefGjfjghKjhjijijjjkfNiwiwiwiwjljmjnjo#XjpfVjqjr",
"badxjsbXbdjt.Yjuf5f6jvfZjsf0jwjxjyjzjAjBhKhKhKjCjDjEiwjFiwjGjHjIjJjKjLjMjNjOjPjQ",
"gkjRbIgmbKbLbMd1jSjTgkglbPbJjubLjUjVjWjXjYjZj0j1j1j2iwjFjGiaj3j4j5j6#lbQbR#rj7j8",
"j9k.#Zk#kacecq#Zcf#7gBk.#Z#rkacekbkckdkekfkgj1j1j1jFiwiwkhkikjkkklkmkaknkoclcmgR",
"kpcEkqkqkrks#7fAktkukvcEkqkqkrkscHkwkxkykzkAkBj1jDjFiwkCkDkEkFkGi0#7kHkIcmkJkKkL",
"kMdpkNkOkPkQkRkSkTkUkMdpkNkOkVc9kRkWkXkYjWjXkZkBjDiwiak0k1k2k3k4k5k6hdk7.Uk8k9l.",
"hzhAl#dClalbhUlcldhEdzhAl#lelflglhlcliljlklllmlnlojIkDkilplqlrhAl#dGlsltcjhUhVlu",
"lv#zlwlxlylzhYlAlBbcd6l#d7hWiflChYlDiilElFlGlHlIlJlKk1lLlMlNlOlPlQhWlReslS#zetlT",
"knlUeBiflVlWcpcpcbdVknielXeCeuihcpcpiilYlZl0l1l2l3l4l5l6l7l8kn#vl9m.m#dok.iCmamb",
"mckq#Waumdmemfmgmhalmckq#WariHmimjmgmhalcrmkmlmmmnmompmqmrasbTlR#3axmsmtgVgTmumv",
"mwjpmxmymzmA#XmBmzmCmDjpmxmymzmA#XmEmzmFd2mBmGmHmImJmKmLmzmM#omEkUmNmOmPmQi8mRmS",
"mTmUmVmWmXmY.5lhmZm0m1m2mVm3mXm4m5m6mZm0m1m7btm3m8m9n.m6mZm0m1n#btnam8nbn.ncndne",
"nfngnhninjewnknlnmgjnfnnnoninpkomTnleYnqnrnnnoninpko#ZnleYnsntnunkjSnpnvnwnxnynz",
"nAnBnBnC#CarnDaufAnEnFnBnGnCnHarnIaufAnJnFnBmgnCnHarnBarfAnJnKiKmgnCnHiKnLnM#WnN",
"nOnPnQnRnSnTnUnVnWnXnYnPnQnRnSnTnUnWnWnZnYnPnQnRnSnTnUnWnWnZn0nPnRnRnSn1n2n3n4n5"};
