/* XPM */
static char *dummy[]={
"40 40 1013 2",
".y c #00a15e",
"gu c #231f17",
"gA c #241f17",
"kN c #252017",
"nS c #252018",
"nU c #262118",
"ed c #2b241c",
"iS c #2b251c",
"iO c #2c261c",
"mt c #2c271d",
"el c #2d261e",
"ep c #2e271e",
"mI c #312614",
"mF c #312a20",
"nY c #322713",
"gB c #322d24",
".w c #32a67a",
"gC c #332c22",
"gt c #332d22",
"iN c #332d23",
"eq c #332d25",
"em c #332e25",
"ek c #342d21",
"kM c #342d23",
"ms c #342e23",
"kI c #342e25",
"ee c #342e26",
"nT c #342f26",
"my c #352e24",
"gz c #352f23",
"gs c #352f24",
"nP c #352f26",
"nX c #353025",
"mE c #362f23",
"gv c #362f24",
"gy c #362f25",
"gw c #363024",
"kL c #363025",
"gq c #372f24",
"ej c #373024",
"eo c #373025",
"nR c #373026",
"gp c #373125",
"g. c #373126",
"kJ c #383126",
"gc c #383226",
"kp c #383227",
"mD c #393226",
"eg c #393227",
"ix c #393326",
"iq c #393327",
"gr c #393328",
"iP c #393329",
"iT c #393428",
"ec c #3a3327",
"es c #3a3328",
"l9 c #3a3427",
"en c #3a3428",
"mw c #3a3429",
"mu c #3a342a",
"nv c #3b301a",
"ef c #3b3429",
"gx c #3b3529",
"iR c #3b352a",
"go c #3b352b",
"er c #3c3429",
"mH c #3c3529",
"mA c #3c352a",
"kK c #3c362a",
"iQ c #3c362b",
"mG c #3c362c",
"eb c #3d362a",
"mv c #3d362b",
"nQ c #3d372b",
"mz c #3d372c",
"nH c #3e311a",
"m7 c #3e321f",
"nW c #3e382b",
"eN c #3e382c",
"dZ c #3e382d",
"dU c #3e382e",
"mk c #3f321c",
"ip c #3f372a",
"iw c #3f382b",
"iM c #3f382c",
"mg c #3f392d",
"mr c #40392c",
"mx c #40392d",
"nG c #413a2d",
"ea c #413a2e",
"nV c #413b2e",
"eh c #423b2f",
"mq c #423d33",
"f9 c #433c2f",
"mC c #433c30",
"ks c #433d2f",
"no c #443720",
"nD c #443d2f",
"dK c #444034",
"gD c #444138",
"ei c #453e31",
"e# c #454939",
"lZ c #463922",
"h4 c #463e2f",
"lT c #463e30",
"hW c #463f30",
"mB c #463f32",
"i0 c #464035",
"kH c #464036",
"nO c #464136",
"lQ c #473f30",
"k9 c #484135",
"lh c #484236",
"dJ c #494033",
"hV c #494132",
"g2 c #494337",
"lP c #4a4132",
"fQ c #4a4334",
"fK c #4a4335",
"g9 c #4a4337",
"iL c #4a453a",
"dT c #4b4335",
"ga c #4c4435",
"f3 c #4c4436",
"kl c #4c4536",
"kO c #4c4a43",
"lI c #4d3f27",
"nF c #4d4436",
"fJ c #4d4535",
"f8 c #4d4536",
"ko c #4d4636",
"j2 c #4e4535",
"io c #4e4536",
"kr c #4e4636",
"nC c #4e4637",
"is c #4e4737",
"m. c #4e4738",
"ds c #4e483a",
"ni c #4e493b",
"eY c #4e493f",
"hU c #4f4536",
"l8 c #4f4636",
"lS c #4f4637",
"it c #4f4737",
"dM c #4f4837",
"do c #4f483b",
"fn c #4f493b",
"mR c #4f4a3f",
"eD c #4f4a40",
"h3 c #504637",
"m# c #504738",
"hD c #50483a",
"iv c #504938",
"im c #504939",
"fg c #504a3c",
"g# c #504a3d",
"f4 c #514838",
"f7 c #514839",
"dN c #514938",
"gb c #51493a",
"hx c #51493b",
"l6 c #514a39",
"lz c #514a3b",
"kk c #514b3d",
"dL c #514c3d",
"j. c #514d41",
"jk c #514d43",
"nA c #524939",
"kn c #52493a",
"nE c #524a39",
"kq c #524a3a",
"dV c #524c3e",
"d0 c #524d3e",
"dS c #534939",
"dH c #534a3a",
"mi c #534a3b",
"dI c #544a3a",
"in c #544b3b",
"nn c #544c3b",
"dQ c #544d3b",
"mf c #544e3b",
"l5 c #544f43",
"l7 c #554b3b",
"dd c #554c3b",
"mc c #554c3c",
"mh c #554f41",
"ir c #55503d",
"md c #55503e",
"dR c #564c3c",
"dY c #564d3c",
"f6 c #564e3d",
"k5 c #565246",
"mj c #574e3b",
"hz c #574e3c",
"dn c #574e3d",
"km c #574f3d",
"iu c #574f3e",
"f2 c #575042",
"lV c #584e3d",
"hv c #584e3e",
"lY c #584f3b",
"ly c #584f3e",
"mb c #58503e",
"iE c #585347",
"dW c #59513e",
"il c #595145",
"hX c #59523d",
"me c #595240",
"de c #595243",
"dh c #5a503d",
"fP c #5a503e",
"hw c #5a503f",
"hZ c #5a513d",
"f5 c #5a513e",
"dO c #5a523e",
"kj c #5a5548",
"nz c #5a5549",
"fT c #5b513e",
"fE c #5b523d",
"nu c #5b523e",
"nB c #5b523f",
"iy c #5b5240",
"dP c #5b5340",
"dX c #5b5441",
"hi c #5b574b",
"kt c #5b574d",
"ju c #5c5137",
"dc c #5c513e",
"dm c #5c523f",
"hu c #5c5241",
"ma c #5c5340",
"hC c #5c5342",
"mZ c #5c5445",
"dG c #5c5544",
"m2 c #5c5546",
"jp c #5c584f",
"dr c #5d523f",
"lO c #5d5240",
"jh c #5d5647",
"iU c #5d584d",
"hT c #5e5340",
"jj c #5e5647",
"cZ c #5e584a",
"gd c #5e5b51",
"eM c #5f5848",
"cT c #5f594c",
"et c #5f5a4f",
"eX c #605848",
"hR c #60584b",
"e8 c #605c52",
"db c #615642",
"hA c #615744",
"fI c #615843",
"cH c #615844",
"nm c #615945",
"hY c #625841",
"fO c #625843",
"dl c #625844",
"fS c #625942",
"lH c #625a46",
"cJ c #625d4f",
"h5 c #635843",
"j3 c #635942",
"fF c #635943",
"h0 c #635944",
"du c #635a43",
"fm c #635a47",
"ff c #635a48",
"dq c #635b43",
"jJ c #635b48",
"lW c #635c48",
"cI c #645a47",
"di c #645b43",
"fD c #645b45",
"cX c #645b48",
"cR c #645b49",
"hy c #645d47",
"m6 c #645e4f",
"fs c #646055",
"jK c #646157",
"cE c #64645a",
"ls c #655740",
"fR c #655b46",
"lX c #655b47",
"fM c #655c46",
"nt c #655c47",
"fe c #655c48",
"dg c #655d47",
"lE c #655d4a",
"hE c #655e48",
"k8 c #655e4e",
"hS c #665b46",
"h2 c #665b47",
"fH c #665c47",
"fl c #665c48",
"cG c #665d47",
"dk c #665d48",
"jG c #665d49",
"lB c #665e49",
"ht c #665e4b",
"lg c #665e4e",
"hB c #665f4b",
"m0 c #665f4e",
"j1 c #666153",
"j4 c #666156",
"fb c #675d47",
"nd c #675d49",
"jE c #675e47",
"lA c #675f4b",
"mY c #675f4f",
"fL c #67604d",
"mS c #67604e",
"g1 c #676050",
"fh c #67614b",
"gN c #676358",
".x c #67aa97",
"dj c #685e48",
"cO c #685f48",
"m1 c #68604f",
"jD c #68614b",
"fo c #68614c",
"df c #68614e",
"fC c #68614f",
"mV c #686152",
"ne c #68624c",
"lN c #686254",
".v c #694128",
"fG c #695f49",
"fN c #695f4a",
"nl c #69604a",
"jg c #696150",
"nj c #69624d",
"dp c #69624e",
"dt c #69624f",
"j# c #696250",
"mX c #696352",
"ib c #696457",
"fU c #69655a",
"f# c #6a6049",
"fa c #6a604a",
"eU c #6a6351",
"jd c #6a6354",
"mW c #6a6455",
"h1 c #6b604a",
"lR c #6b604b",
"lU c #6b614b",
"cN c #6b624c",
"jF c #6b624d",
"eL c #6b6351",
"eT c #6b6352",
"eO c #6b6452",
"m5 c #6b6453",
"jf c #6b6554",
"e. c #6b675c",
"cM c #6c624b",
"nb c #6c624d",
"fd c #6c634d",
"cQ c #6c634e",
"lG c #6c634f",
"f. c #6c644c",
"fr c #6c644e",
"le c #6c6454",
"eH c #6c6554",
"je c #6c6657",
"jI c #6d644f",
"fj c #6d6452",
"nh c #6d654f",
"eS c #6d6556",
"gZ c #6d6655",
"eI c #6d6656",
"eW c #6d6756",
"i5 c #6d695f",
"mM c #6d6960",
"lD c #6e6550",
"fp c #6e6552",
"ng c #6e6553",
"nk c #6e6652",
"cY c #6e6754",
"cS c #6e6755",
"eK c #6e6756",
"mU c #6e6758",
"eJ c #6e6858",
"gX c #6e6a61",
"aS c #6f452a",
"fi c #6f664f",
"jH c #6f674f",
"na c #6f6750",
"k7 c #6f6755",
"lc c #6f6859",
"hs c #6f685b",
"e9 c #6f6956",
"lx c #6f6a5c",
"nf c #706750",
"da c #706752",
"lf c #706755",
"jc c #706959",
"ji c #706a5a",
"mp c #706a5e",
".S c #71462a",
"kB c #716653",
"cW c #716854",
"cP c #716855",
"g0 c #716856",
"g8 c #716956",
"g7 c #716a5a",
"eC c #716a5e",
"mT c #716b5b",
"iZ c #716b5f",
"gI c #716d63",
"e3 c #716d64",
"b6 c #72593b",
"lC c #726956",
"fq c #726a54",
"fk c #726a55",
"l# c #726b5b",
"eR c #726c5b",
"k6 c #726c5c",
"ld c #726c5d",
"hI c #726e61",
"fc c #736a55",
"nc c #736b55",
"m4 c #736c5c",
"m3 c #736c5d",
"gn c #736e60",
"eF c #746d5a",
"eG c #746d5b",
"g4 c #746d5c",
"jb c #746d5d",
"ja c #746d5e",
"lb c #746e5d",
"gY c #746e5e",
"kF c #747065",
"cL c #756d57",
"li c #756f5c",
"jC c #757163",
"cV c #766d58",
"c1 c #766e58",
"l. c #766f5d",
"g6 c #76705f",
"nJ c #767267",
"kX c #776d59",
"eQ c #77705f",
"eV c #777060",
"eP c #777160",
"#F c #784a2c",
"h. c #78715e",
"g3 c #78715f",
"la c #787160",
"iz c #787465",
"eE c #787564",
"kb c #796e57",
"ha c #797365",
"kG c #797366",
"ik c #797367",
"g5 c #7a7361",
"h# c #7a7362",
"nN c #7a7467",
"#3 c #7b240f",
"gM c #7b7567",
"d1 c #7b7667",
"dF c #7b776c",
"f1 c #7c786a",
"cF c #7d7762",
"lj c #7d7767",
"aq c #7e4b2d",
"lF c #7e7865",
"#1 c #7f4e2f",
"hQ c #7f7a6d",
"bH c #80422b",
"cq c #807c70",
"ci c #807d71",
"bf c #815232",
"l4 c #817c6e",
"bE c #825839",
"dv c #827b69",
"eB c #827b6e",
"iY c #827c6f",
"kw c #827c70",
"d9 c #827d6f",
"jt c #828075",
"cK c #837d69",
"c2 c #837d6b",
"hF c #837d6c",
"iD c #837d70",
"cU c #837e6a",
"k1 c #838178",
".e c #842b12",
"gL c #847e71",
"c0 c #847f6b",
"mQ c #848076",
"ln c #848278",
"aa c #852812",
".m c #852c13",
"h6 c #857e6c",
"gK c #857e71",
"nM c #857f71",
"eA c #857f73",
"he c #85837a",
".t c #862d13",
"nL c #867f72",
"iX c #867f73",
"lM c #868073",
"iJ c #868175",
"d# c #86847a",
".u c #872610",
"jS c #877a5e",
"dE c #878275",
"i9 c #878379",
"iK c #878478",
"e7 c #87847a",
"cz c #87887d",
".g c #882611",
"iH c #888375",
"mP c #88857b",
"mo c #898376",
"iW c #898476",
"ez c #898477",
"mO c #89857b",
".n c #8a2610",
"#g c #8a4b32",
"ij c #8a8579",
"i7 c #8a867c",
"i8 c #8a877d",
".f c #8b2710",
"mn c #8b8477",
"ey c #8b8578",
"hP c #8b8679",
"kv c #8b867a",
"e5 c #8b877d",
"e6 c #8b887e",
"#f c #8c2e15",
"hO c #8c8779",
"ki c #8c877a",
"gJ c #8c877b",
"c# c #8c887a",
"gm c #8d887a",
"nK c #8d887b",
"kA c #8d887c",
"iC c #8d897b",
"cA c #8d8e83",
"d7 c #8e897b",
"ii c #8e897c",
"c7 c #8e8a7c",
"k2 c #8e8b82",
"e4 c #8e8c82",
"#K c #8f2e17",
"a3 c #8f361d",
"j7 c #8f8a7d",
"d. c #8f8b7e",
"iI c #8f8b7f",
"k4 c #8f8c81",
"#W c #902e18",
"ao c #903114",
"bR c #904b30",
"iG c #908a7e",
"ew c #908b7f",
"jW c #908c7f",
"mN c #908d83",
"i6 c #908d84",
"js c #908e84",
"cB c #908f85",
"aI c #91351c",
"bZ c #914b30",
"lw c #918d80",
"cx c #919288",
"aR c #92321a",
"az c #92361c",
"l3 c #928d7f",
"d8 c #928d80",
"hf c #928e84",
"cD c #929286",
"gi c #938f83",
"kx c #938f86",
"hh c #939085",
"jo c #939184",
"hd c #939289",
"cw c #93958a",
"b4 c #944e31",
"l2 c #948e81",
"dC c #948f81",
"c8 c #948f82",
"gl c #949081",
"ih c #949082",
"jn c #949184",
"#J c #953118",
".c c #953219",
".s c #95331a",
"i# c #958f82",
"dD c #959082",
"c9 c #959083",
"kz c #959182",
"ia c #959183",
"ex c #959184",
"kg c #959186",
"ny c #959284",
"gh c #959285",
"kf c #959385",
"kZ c #95938a",
"ag c #963616",
".C c #96381e",
"aT c #963e22",
"bO c #964f32",
"ie c #969082",
"mm c #969185",
"j6 c #969283",
"cu c #969484",
"hc c #96948b",
"#9 c #973717",
"ev c #979286",
"k. c #979485",
"hr c #979488",
"k0 c #97978f",
"cy c #979d92",
"#h c #983418",
"bX c #985133",
"fY c #989485",
"jV c #989486",
"jZ c #989586",
".# c #99391d",
"co c #999381",
"cf c #999382",
"kh c #999486",
"fX c #999487",
"gk c #999586",
"jN c #999589",
"hq c #99958a",
"cg c #999685",
"lr c #999686",
"nx c #999688",
"ke c #999689",
"jr c #99978c",
"jq c #99978e",
"av c #9a3a20",
"cp c #9a9685",
"i. c #9a9687",
"ka c #9a9688",
"j8 c #9a978d",
"k3 c #9a988e",
"ch c #9b9685",
"cm c #9b9786",
"cd c #9b9787",
"dB c #9b9788",
"jR c #9b978a",
"gg c #9b988a",
"hg c #9b998f",
"cC c #9b9b92",
"aF c #9c3a20",
"hN c #9c9889",
"fy c #9c988d",
"jm c #9c9a90",
".9 c #9d391c",
"if c #9d998b",
"i4 c #9d9c93",
".1 c #9e3a1c",
"bq c #9e3f23",
"id c #9e998a",
"ce c #9e9a8b",
"hH c #9e9a8c",
"jB c #9e9a8d",
"cn c #9e9b8b",
"d5 c #9e9b8d",
"gF c #9e9c91",
"jO c #9e9c92",
"mL c #9e9d94",
"#G c #9f391d",
"as c #9f3a1d",
".j c #9f3d1f",
"c5 c #9f9a8c",
"nq c #9f9b8c",
"d4 c #9f9b8d",
"jY c #9f9c8c",
"jU c #9f9c8d",
"fB c #9f9c8f",
"jX c #9f9c91",
"lq c #9f9d8e",
"kD c #9f9d92",
"cv c #9fa399",
"aN c #a03d22",
"bW c #a05736",
"iA c #a09b8d",
"gj c #a09c8e",
"ll c #a09d8d",
"fW c #a09d8f",
"kd c #a09d91",
"nw c #a09e91",
"gG c #a09e93",
"#C c #a13a1c",
"bJ c #a15536",
"cb c #a19d8c",
"c. c #a19d8e",
"cj c #a19e8c",
"cl c #a19e8e",
"d3 c #a19e8f",
"l1 c #a19e90",
"gf c #a19e92",
"ct c #a19f8f",
"fv c #a19f93",
"gH c #a1a095",
"e2 c #a1a097",
"#v c #a23a1d",
".U c #a23a1e",
"bM c #a25837",
"cs c #a29e8c",
"fw c #a29e93",
"ck c #a29f8f",
"jx c #a29f93",
"n. c #a2a094",
"kE c #a2a196",
"hb c #a2a299",
".A c #a3371a",
"#6 c #a3391d",
"at c #a33c21",
"lv c #a39f90",
"cc c #a3a090",
"fz c #a3a093",
"jy c #a3a095",
"lm c #a3a191",
"nI c #a3a298",
"kY c #a3a299",
"kT c #a3a39c",
"#m c #a43b1d",
"bi c #a44326",
"bT c #a45536",
"d6 c #a4a192",
"jQ c #a4a193",
"fZ c #a4a194",
"j0 c #a4a196",
"kV c #a4a197",
"ns c #a4a296",
"hp c #a4a297",
"ad c #a53a1d",
"iB c #a5a193",
"f0 c #a5a397",
"## c #a63a1e",
"b1 c #a65737",
"ig c #a6a295",
"lL c #a6a393",
"nr c #a6a396",
"lk c #a6a597",
"kW c #a6a59a",
".W c #a7391c",
"al c #a73b1e",
".4 c #a73b1f",
"bY c #a75a38",
"dx c #a7a395",
"c4 c #a7a396",
"dA c #a7a494",
"k# c #a7a495",
"fA c #a7a498",
"jA c #a7a499",
"lp c #a7a597",
"fx c #a7a59a",
"i3 c #a7a79f",
"#E c #a8391b",
"#b c #a8391c",
".F c #a8421f",
".M c #a8431f",
"b3 c #a85736",
"h8 c #a8a496",
"dz c #a8a595",
"lK c #a8a596",
"jM c #a8a699",
".I c #a93e1e",
"#P c #a93e1f",
"bP c #a95b39",
"dy c #a9a496",
"h9 c #a9a596",
"hM c #a9a697",
"lu c #a9a798",
"n# c #a9a79d",
"e1 c #a9a9a1",
"#y c #aa3a1c",
"#U c #aa3f1f",
"am c #aa401d",
"aM c #aa4429",
"c6 c #aaa798",
"hK c #aaa799",
"b9 c #aaa899",
"jz c #aaa89d",
"#p c #ab3b1c",
".V c #ab3f23",
"ap c #ab421d",
"aE c #ab4429",
"bo c #ab4829",
"bF c #ab603e",
"fu c #aba99d",
"jw c #aba99e",
"ho c #abaa9e",
"jl c #abaca5",
"#a c #ac4023",
"aD c #ac4224",
"bv c #ac4929",
"bL c #ac5f3c",
"hL c #aca799",
"hn c #aca89b",
"hl c #aca99f",
"m9 c #acaa9f",
"b7 c #acab9b",
".o c #ad3a1c",
"ak c #ad3f1e",
"#2 c #ad4020",
"ae c #ad411e",
"#Q c #ad4123",
"#l c #ad4223",
"aL c #ad4224",
"#u c #ad4323",
"ky c #adaa9c",
"kU c #adaba1",
"#B c #ae4324",
"lo c #aead9f",
"ku c #aeada4",
"gW c #aeafa7",
"gU c #aeafa8",
"i1 c #aeb0a9",
"#i c #af3719",
".h c #af3b1c",
"aj c #af3c1c",
"#4 c #af401e",
"ab c #af401f",
"ax c #af4121",
"#7 c #af421f",
"#d c #af4220",
"bV c #af613d",
"j9 c #afad9e",
"iF c #afaea5",
"kQ c #afafa7",
"eZ c #afb1ab",
"aC c #b04222",
"bu c #b04828",
".z c #b04925",
"au c #b0492b",
"bB c #b04e2d",
"b2 c #b06441",
"b8 c #b0aea0",
"kS c #b0b0a8",
"gV c #b0b1a9",
"mJ c #b0b1ab",
"#q c #b14624",
"ay c #b14628",
"bm c #b14928",
"a0 c #b15231",
"kC c #b1b1a8",
"i2 c #b1b1ab",
"mK c #b1b2ab",
"#I c #b24324",
"aG c #b24524",
"#z c #b24624",
"aH c #b24728",
"bC c #b24d2c",
"bd c #b25432",
"ca c #b2b1a1",
"cr c #b2b1a2",
"jP c #b2b1a4",
"gE c #b2b2aa",
"bl c #b34c2b",
"aV c #b3502f",
"bU c #b35c39",
"bG c #b36340",
"e0 c #b3b4ae",
"#A c #b44322",
"#R c #b44324",
"#c c #b44424",
"aw c #b44524",
".J c #b44a25",
"bt c #b44d2b",
"hm c #b4b2a7",
"gR c #b4b4af",
"#s c #b5381a",
".G c #b5401e",
"#r c #b54321",
".5 c #b54424",
"#8 c #b54523",
".X c #b54524",
".O c #b54a25",
"bK c #b55d3a",
"bI c #b55f3c",
"aO c #b64624",
"#k c #b64a28",
"ah c #b64c24",
"a. c #b64c25",
"gT c #b6b8b1",
"#e c #b7401d",
"a# c #b7421f",
".Y c #b74622",
"af c #b74623",
".T c #b74d25",
"ml c #b7b7af",
"gQ c #b7b8b1",
"gS c #b7b8b2",
".R c #b8411f",
"ai c #b84220",
".6 c #b84723",
".P c #b84b27",
".B c #b84b28",
"kR c #b8bab3",
".7 c #b9411e",
".Z c #b9421e",
"aP c #b94323",
"Qt c #b94924",
".d c #b94b24",
"aQ c #b94c2b",
"bA c #b95432",
"bk c #b95534",
".N c #ba4320",
".H c #ba4420",
"#Z c #ba4723",
"an c #ba4724",
".l c #ba4b24",
"#o c #ba4b26",
"bw c #ba4f2d",
"a2 c #ba5330",
"eu c #babab2",
"iV c #babab3",
"ic c #babbb1",
"j5 c #babbb3",
".p c #bb3f1d",
".i c #bb401d",
"#N c #bb4723",
"#x c #bb4c27",
"bh c #bb502d",
"a8 c #bb5330",
"b0 c #bb633e",
"l0 c #bbbbb2",
"#0 c #bc4622",
"#O c #bc4722",
"#D c #bc4d27",
"b. c #bc5834",
"bS c #bc643e",
"lJ c #bcbcb2",
"#t c #bd4321",
"#j c #bd4422",
".0 c #bd4a23",
"bg c #bd4f2d",
"by c #bd5733",
"a5 c #bd5835",
".8 c #be4a23",
"be c #be502f",
"bp c #be512e",
"br c #be5733",
"bN c #be643e",
"dw c #bebfb6",
"hk c #bebfb7",
"d2 c #bec0b7",
"aB c #bf512c",
"bx c #bf522e",
"aU c #bf5833",
"b5 c #bf6a42",
"h7 c #bfbfb6",
"#X c #c0441f",
"aK c #c0512c",
"hJ c #c0c1b8",
"lt c #c0c1b9",
"gP c #c0c4be",
"#S c #c14420",
"#V c #c14722",
"ar c #c15731",
"kc c #c1c4bb",
"#L c #c24520",
"#M c #c24721",
"#H c #c24722",
"bQ c #c26740",
"#T c #c34721",
".3 c #c35025",
"aJ c #c3562f",
"aA c #c3572f",
"hG c #c3c5be",
"#Y c #c44821",
".b c #c44c25",
"#. c #c45126",
"a7 c #c4542f",
"bb c #c45b35",
"aY c #c45c36",
"c3 c #c4c5be",
"jL c #c4c6bf",
"jT c #c4c7bf",
".K c #c54c26",
".r c #c54d25",
"ba c #c5542e",
"aX c #c55933",
"bn c #c55d38",
"np c #c5c7bf",
"ge c #c5c8bf",
"ac c #c64922",
"#5 c #c64a23",
".k c #c64e27",
".q c #c64e28",
"bD c #c65933",
"a1 c #c65a36",
".D c #c74d26",
".a c #c74e27",
"bs c #c7623c",
"kP c #c7cac5",
"a9 c #c85e36",
"a4 c #c85e37",
"bz c #c8633d",
"fV c #c9ccc5",
"bc c #ca663a",
"hj c #caccc6",
"jv c #cacec6",
"m8 c #cacec7",
"bj c #cc653e",
"ft c #ccd1c9",
"aZ c #cd683b",
".2 c #cf5225",
"gO c #cfd4d0",
"a6 c #d05f37",
"#w c #d15c2c",
"#n c #d15c2d",
"b# c #d16038",
".Q c #d2562a",
".E c #d2572a",
"aW c #d2623a",
".L c #d3572a",
"Qt.#.a.b.c.d.e.f.g.h.i.j.k.b.c.l.m.n.g.o.p.j.q.r.s.l.t.n.u.v.w.x.w.w.y.w.w.w.w.w",
".z.A.B.C.D.E.F.G.H.I.J.A.B.C.K.L.M.G.N.I.O.A.P.C.b.Q.M.G.R.S.w.w.w.w.w.w.w.w.w.w",
".T.U.V.W.X.Y.Z.0.1.2.3.4.V.W.5.6.7.8.9.2#.###a#b#c#d#e.8#f#g.w.w.w.y.w.w.w.w.w.w",
"#h#i#j#k#l#m#n#o#p#q#r#s#t#k#u#v#w#x#y#z#A#s#t#k#B#C#w#D#E#F.w.w.w.w.w.w.w.y.w.w",
"#G#H#I#J#K#L#M#N#O#P#Q#H#R#J#K#S#T#N#O#U#a#V.5#J#W#X#Y#Z#0#1.w.w.w.w.w.w.w.w.w.y",
"#2#3#4#5#6#7#8#9a.a#.haaabacadaeafagahaiajaaakacalamanaoapaq.w.x.w.w.w.w.w.w.w.w",
"arasatauavawaxayazaAaBaCaDaEaFaGaxaHaIaJaKaCaLaMaNaOaPaQaRaS.w.w.w.w.x.x.w.w.w.w",
"aTaUaVaWaXaYaZa0a1a2a3a4a5a6a7aYaZa0a1a8a3a9b.b#babbbcbdbebf.w.y.w.w.x.x.w.w.w.w",
"bgbhbiaYbjbkblbmbnbobhbpbqbrbsbkbtbubnbvbwbxbqbybzbAbBbCbDbE.w.w.w.w.w.w.w.y.w.x",
"bFbGbHbIbJbKbLbMbNbObPbQbRbSbTbUbVbWbNbXbYbQbZb0b1b2b3b4b5b6.w.w.w.w.w.w.w.w.w.w",
"b7b8b9c.c#cacbccc.cdcecfcgchcicacjckclcmcncocpcpcqcrcsckctcucvcwcxcyczcAcBcCcDcE",
"cFcGcHcIcJcKcLcMcNcOcPcQcRcScTcUcVcMcNcOcWcQcXcYcZc0c1cMcNc2c3c4c5c6ccc7c8c9d.d#",
"dadbdcdddedfdgdhdidjdkdldmdndodpdgdhdqcOdkdldrdndsdtdgdhdudvdwdxdydzdAdBdCdDdEdF",
"dGdHdIdJdKdLdMdNdOdPdQdRdSdTdUdVdMdNdWdXdQdYdSdTdZd0dMdNdWd1d2d3d4d5d6dCd7d8d9e.",
"e#eaebecedeeefegefeheieaejekelemefegeneheieheoekepeqeregeseteuevewexeyezeAeBeCeD",
"eEeFeGeHeIeJeKeLeMeNeOePeQeReSeJeKeTeMeNeUeVeQeReSeJeWeTeXeYeZe0e1e2e3e4e5e6e7e8",
"e9f.f#fafbfcfdfefffgfhfifbcNfjfkcQflfmfnfofifbcNfpfqfrflfmfsftfufvfwfxfyfzfAfBcq",
"fCfDfEfFfGfHfIdhfJfKfLfMfEfFfNfHfOfPfJfQfLfRfEfSfNfHfOfTfJfUfVfWfXd.fyckfYfZf0f1",
"f2f3f4f5f6f3f7f8f9g.g#gaf4f5f6gagbf8f9gcfggaf4dWdngagbf8f9gdgegfggghgigjgkglgmgn",
"goeogpgqefgrgsgtgsgueqgvgweogxesgygtgzgAgBgvgweogxesgygCgzgDgEgFgGgHgIgJgKgLgMgN",
"gOgPgQgRgSgTgUgVgWgXgYgZg0g1g2g3g4g5g6g7gYgZg8g1g9h.g4h#g6hahbhchdcChee4hfhghhhi",
"hjhkhlhmhnhohphqhrhshthuhvhwhxhyhzhwhAfbhBhChvhwhDhEhzhwhAhFhGdxhHc6ccc7dCc9d.hI",
"hJhKhLhMhMhNhOhPhQhRhShThUhVhWhXhYhZh0h1h2hTh3hVh4dOhYhZh5h6h7h8h9dzdAi.i#iadEib",
"icidieifigihiiijikiliminioipiqirisitdPiuivinioiwixirisitiyizd2d3iAd5iBi#iCd8iDiE",
"iFiGdEiHiIhPiJewiKiLiMgtiNgziOiPiQgriRiMiMgtiNgziSiPiQiTiRiUiVevewexeyiWiXiYiZi0",
"i1i2i3i4i5i6i7i8i9j.j#jajbjcjdjejfjgjhiQfCjbjbjijdjejfj#jjjkjljmjnjojpjqjrjsjtju",
"jvjwjxjyjzhqfzjAjBjCjDfijEjFfpfcfrjGcXfnfojHjEcNfpfkjIjGjJjKjLfZjMjNjOjPjQfzjRjS",
"jTjUjVjWjXjYjZigj0j1fLfMfEfFfNfbfOfPj2fKfLfMfEj3fNfbfOfTj2j4j5d7j6j7j8j9k.k#kakb",
"kckdkekfkghHkhdCkikjkkklf7f5kmklknkof9kpkkf3f7f5kmklkqkrksktkudEkvkwkxkyfYkzkAkB",
"kCkDgGkEkFkigKgLkGkHkIgwgpkJkKeskLkMgwkNemgwgpgpkKeneokMgwkOkPkQkRkSkTkUkVgGkWkX",
"kYkZhdk0k1k2hfk3k4k5k6eHk7k8k9l.l#lalblcldlelflglhlil#lagYljlklllmctlnlolplqlrls",
"ltiBd4lulvc7dDdDlwlxhBhClyhwlzhEhzhwdlfblAhClyhwhDlBhzhwcHfNlClDlEe9cTlFlGjJlHlI",
"lJh8h9lKlLgkdDdDlMlNh2lOhUlPlQhXhYhZh0lRfHlOlSlPlTdOhYhZh0lUdkdldrlVkllWlXdhlYlZ",
"l0d3hHl1jQl2iil3l4l5l6l7l8ipl9irm.m#mambimmcl8iwixmdm.m#dPmemflVdIgamgmhmiitmjmk",
"mlmmewihmnmolMiYmpmqmrmsgsgwmtmumvmwiQmxmrmsmygwiOmumzmwmAeamBmCmDmEmFmGkKmHeomI",
"mJmKi3mLmMmNmOmPmQmRmSmTl#mUmVmWmXmYmZiRm0mTl#mUmVmWmXm1m2kKm0m3m4eJmVeJj#m5m6m7",
"m8m9n.j0n#hqfzfAjBjCfonadjnbfpncjIndcRfnnenfdjcNngfcnhndcXninjnfdjcNngnknlnmnnno",
"npjUjVjWkdnqjZnrnsj1fLntfEfFfNfbfOfPiofKfLntfEfFfNfbfOfTiofKfLntnufSfafbfOf5fJnv",
"kcnwnxnykgnqkhihgmnzdVf8nAnBkmf8minCf9kpdVf8nAnulyf8minCnDiqkkf8nAf5mbnEinnFnGnH",
"kCkDgGnInJnKnLnMnNnOnPeogcmDnQefnRmsgpnSnTeogcgcnQefg.msgpnUeeeogckJkKnVnWnXgtnY"};
