/* XPM */
static char *dummy[]={
"40 40 757 2",
"iN c #3d372c",
"hX c #463f32",
"f9 c #453f32",
"dk c #443e31",
"jY c #28231a",
"hb c #423b30",
"e9 c #413b30",
"hW c #6a6557",
"cU c #2c251b",
"jG c #322c20",
"eL c #2b2319",
"f8 c #6a6456",
"ay c #332d21",
"fN c #2c251b",
"gU c #2b2419",
"a1 c #3d372c",
"dj c #696455",
"hF c #2c251b",
"ix c #2b2419",
"hV c #635d4f",
"f7 c #645f50",
"di c #666051",
"cT c #3f382c",
"iM c #585042",
"ha c #615a4c",
"e8 c #625c4d",
"fM c #3f382c",
"cS c #3d372c",
"fL c #3e382c",
"hE c #3f382c",
"eK c #362e23",
"gT c #362f24",
"hD c #3f392d",
"iw c #373024",
"jQ c #211e17",
"jS c #221e17",
"jT c #23201a",
"jR c #24201a",
"jH c #24211b",
"jW c #26221b",
"jX c #27231b",
"jO c #28241c",
"jP c #28241d",
"jI c #29241d",
"eG c #2b241a",
"gQ c #2b251a",
"jx c #2b261c",
"jC c #2b261d",
"jK c #2b261e",
"jJ c #2b271e",
"eE c #2c251b",
"ey c #2c261b",
"cJ c #2c271e",
"jV c #2c271f",
"gL c #2d261c",
"gE c #2d271c",
"cN c #2d271e",
"jN c #2d2820",
"in c #2e271d",
"fK c #2e281f",
"hz c #2e291f",
"jM c #2e2920",
"jU c #2e2a21",
"cr c #2f281d",
"fD c #2f291d",
"es c #30291d",
"gB c #302a1d",
"jL c #302c22",
"il c #312a1d",
"hn c #322c20",
"bY c #332c20",
"ao c #332c22",
"js c #332d22",
"av c #342c22",
"g1 c #352f25",
"j. c #353024",
"cO c #353027",
"eo c #362f23",
"g5 c #363025",
"cK c #363027",
"jk c #363125",
"cA c #363127",
"aa c #372f22",
"el c #373023",
"ed c #373024",
"bw c #373025",
"iC c #373026",
"fp c #373125",
"e0 c #373126",
"iF c #373127",
"fI c #373128",
"at c #373129",
"fE c #373228",
"d6 c #383124",
"gv c #383125",
"eH c #383225",
"cH c #383227",
"hA c #383228",
"ap c #383229",
"hy c #383329",
"ie c #393224",
"ig c #393225",
"gR c #393326",
"eT c #393328",
"hv c #393329",
"eu c #39332a",
"dI c #3a3326",
"eJ c #3a3327",
"cB c #3a3328",
"h7 c #3a3426",
"gS c #3a3427",
"an c #3a3428",
"aR c #3a3429",
"jD c #3a352a",
"iv c #3b3427",
"eI c #3b3428",
"cG c #3b3429",
"cI c #3b3529",
"jy c #3b362b",
"cD c #3c3529",
"fH c #3c352a",
"cg c #3c362a",
"jt c #3c372b",
"cL c #3d3529",
"cC c #3d3629",
"#7 c #3d362a",
"gD c #3d362b",
"ex c #3d372a",
"eD c #3d372b",
"fG c #3e362a",
"fF c #3e372a",
"#3 c #3e372b",
"#W c #3e372c",
"gK c #3e382b",
"gP c #3e382c",
"gO c #3f372a",
"aq c #3f372c",
"hw c #3f382b",
"au c #3f382c",
"cF c #3f382d",
"ar c #3f392c",
"ax c #3f392d",
"hJ c #3f392e",
"hP c #3f392f",
"aw c #3f3a2f",
"d4 c #40372a",
"gs c #40372b",
"#H c #40382a",
"id c #40382b",
"ev c #40392d",
"hx c #40392e",
"gH c #403a2d",
"eB c #403a2e",
"fR c #403a2f",
"fZ c #403a30",
"dZ c #41392c",
"jF c #41392d",
"ju c #413a2d",
"jB c #413a2e",
"jz c #413b2d",
"iq c #413b2e",
"gI c #413b2f",
"f3 c #413b30",
"dS c #423a2c",
"gq c #423a2d",
"jw c #423a2e",
"ec c #423b2d",
"cP c #423c2f",
"ir c #423c30",
"c9 c #423c31",
"ez c #423e31",
"eF c #423e32",
"gn c #433b2d",
"ek c #433b2e",
"jE c #433b2f",
"eA c #433b30",
"cM c #433c2f",
"cE c #433c30",
"gG c #433c31",
"gF c #433e32",
"gM c #433f32",
"en c #443c2e",
"fJ c #443d30",
"ip c #443d31",
"it c #443d32",
"cQ c #443e31",
"gN c #443f33",
"io c #444033",
"aH c #444037",
"er c #453e2e",
"jv c #453e2f",
"cR c #453e31",
"hB c #453f31",
"ew c #453f32",
"is c #454034",
"iu c #454134",
"gA c #463e2f",
"ik c #463f2f",
"cq c #463f31",
"eC c #463f32",
"gC c #464032",
"hC c #464033",
"## c #473f30",
"fC c #473f31",
"cf c #474031",
"cl c #474032",
"gJ c #474033",
"im c #474133",
"am c #484034",
"#C c #484132",
"bT c #484133",
"as c #484134",
"al c #484234",
"bn c #484235",
"bO c #494133",
"dE c #494136",
"jA c #494233",
"#w c #494234",
"gi c #494236",
"et c #494335",
"bh c #494336",
"jg c #4a4133",
"eq c #4a4233",
"hl c #4a4234",
"dC c #4a4236",
"#o c #4a4335",
"fg c #4a4337",
"gz c #4b4334",
"dv c #4b4337",
"j# c #4b4434",
"dL c #4b4436",
"ge c #4b4437",
"jl c #4b4534",
"jm c #4b4535",
"dR c #4c4334",
"h4 c #4c4438",
"iD c #4c4537",
"ga c #4c4538",
"gm c #4d4435",
"hZ c #4d4539",
"i. c #4e4435",
"jf c #4e4535",
"jr c #4e4536",
"#V c #4e4637",
"iy c #4e4638",
"hU c #4e483a",
"jq c #4f4636",
"#2 c #4f4637",
"#6 c #4f4738",
"c. c #504839",
"f5 c #504a3b",
"h9 c #514738",
"bN c #514837",
"bS c #514838",
"cc c #514939",
"hp c #51493a",
"g8 c #514a3c",
"cm c #514b3d",
"ft c #524838",
"dQ c #524839",
"fu c #524938",
"a. c #524939",
"jc c #524a38",
"fw c #524a39",
"ef c #524b3a",
"ep c #524b3c",
"g6 c #524b3d",
"dg c #524c3d",
"ch c #524c3e",
"b9 c #524d3e",
"d3 c #534939",
"fB c #534a3a",
"jb c #534b39",
"ce c #534b3a",
"g0 c #534b3e",
"ji c #534c39",
"ea c #534c3a",
"#5 c #534c3b",
"g2 c #534c3e",
"#Y c #534d3b",
"e4 c #534d3e",
"fz c #534d3f",
"fx c #534e3f",
"eb c #544a3a",
"ck c #544b3a",
"c# c #544b3b",
"je c #544c3a",
"co c #544c3b",
"e. c #544d3b",
"gV c #544d3e",
"eS c #544d3f",
"hq c #544e3f",
"fv c #544e40",
"gy c #554a3a",
"ej c #554b3a",
"em c #554b3b",
"iO c #554c3a",
"#Z c #554c3b",
"cj c #554c3c",
"iV c #554d3a",
"hu c #554d3b",
"e3 c #554d3f",
"eU c #554e3f",
"ho c #554f40",
"cd c #564d3c",
"fy c #564d3d",
"aQ c #564f41",
"ee c #56513e",
"ih c #56523e",
"iH c #565245",
"hs c #574d3d",
"#9 c #574d3e",
"cp c #574e3d",
"#S c #57503d",
"iA c #575042",
"iJ c #575142",
"iB c #575245",
"iz c #575246",
"iG c #575346",
"#U c #584e3d",
"ia c #584f3b",
"ib c #584f3c",
"ei c #584f3d",
"#n c #584f3e",
"jn c #58503b",
"gp c #58503c",
"jh c #58513c",
"d7 c #58513d",
"aV c #585142",
"gX c #585144",
"d8 c #594f3d",
"#v c #594f3e",
"dV c #59503c",
"jd c #59503d",
"jo c #59503e",
"ja c #59513c",
"dH c #59513d",
"gl c #59513e",
"aS c #595243",
"h# c #595344",
".6 c #595346",
"iI c #595446",
"ij c #5a4f3e",
"jj c #5a503d",
"gu c #5a503e",
"if c #5a503f",
"a# c #5a513e",
"#0 c #5a523e",
"d5 c #5a5240",
"jp c #5a5241",
"hI c #5a5244",
"bv c #5a5341",
"aI c #5a5343",
"hR c #5a5344",
"iE c #5a5345",
"eX c #5a5346",
"#X c #5a5446",
".3 c #5a5447",
"#8 c #5a5545",
"#4 c #5a5547",
"#F c #5b523f",
"dG c #5b5241",
"e# c #5b533f",
"hj c #5b5342",
"hT c #5b5345",
"e2 c #5b5446",
"iL c #5b5447",
"e6 c #5b5546",
"d9 c #5b5547",
".U c #5b5548",
"#T c #5c523f",
"dB c #5c5240",
"dt c #5c5241",
"#G c #5c533e",
"ca c #5c533f",
"dx c #5c5341",
"gk c #5c5342",
"fY c #5c5446",
"gZ c #5c5546",
"g7 c #5c5547",
"h. c #5c5648",
"gY c #5c564a",
"eZ c #5c5748",
"hO c #5c5749",
"dK c #5d523f",
"#r c #5d533f",
"#z c #5d5340",
"hY c #5d5341",
"du c #5d5342",
"eg c #5d5440",
"gh c #5d5442",
"h3 c #5d5443",
"i0 c #5d5542",
"eP c #5d5547",
"c8 c #5d5647",
"f6 c #5d5749",
"do c #5d574a",
"aC c #5d574e",
"#m c #5e523f",
"dY c #5e5341",
"gw c #5e5440",
"d2 c #5e5441",
"dy c #5e5443",
"bI c #5e5540",
"cb c #5e5541",
"ci c #5e5542",
"g# c #5e5544",
"cn c #5e5642",
"gd c #5e5645",
"dd c #5e5647",
"dT c #5e5742",
"hK c #5e5747",
"eR c #5e5748",
"e5 c #5e584a",
"g9 c #5e584b",
"eY c #5e594c",
"ak c #5e594d",
"bP c #5f5540",
"d1 c #5f5541",
"gf c #5f5544",
"gt c #5f5640",
"bV c #5f5641",
"fA c #5f5642",
"hr c #5f5643",
"gb c #5f5644",
"ds c #5f5645",
"i# c #5f5742",
"eh c #5f5743",
"i9 c #5f5746",
"aM c #5f5749",
"d0 c #5f5843",
"f4 c #5f5848",
"aX c #5f5849",
"dh c #5f594b",
"gW c #5f594c",
"aN c #5f5a4c",
"g4 c #5f5a4d",
"gr c #605541",
"dW c #605641",
"h1 c #605645",
"ht c #605743",
"gx c #605744",
"iU c #605745",
"dF c #605844",
"ic c #605944",
"e7 c #605949",
"aP c #60594a",
"g3 c #60594c",
"fS c #605a4a",
"eQ c #605a4b",
"f1 c #605a4c",
"iK c #605a4d",
"bW c #615741",
"go c #615840",
"bJ c #615841",
"ii c #615844",
"#1 c #615944",
"gj c #615945",
"aU c #615a4a",
"fP c #615a4c",
"aO c #615b4c",
"db c #615b4d",
"eV c #615b4e",
"eW c #615c4e",
"e1 c #615c4f",
"dU c #625841",
"fs c #625842",
"#A c #625942",
"i8 c #625946",
"aZ c #625b4b",
"dc c #625b4d",
"c6 c #625c4d",
"eO c #625c4e",
"hN c #625c4f",
"#s c #635942",
"dO c #635943",
"iR c #635a44",
"bu c #635b47",
"a0 c #635c4c",
"hG c #635e51",
".G c #64594c",
"iX c #645a44",
"bM c #645a45",
"i6 c #645b44",
"bR c #645b45",
"bU c #645b46",
"#l c #645b47",
"hi c #645c47",
"hH c #645c4c",
"hQ c #645c4d",
"hL c #645d4e",
"aY c #645d4f",
"hS c #645e4f",
"aL c #645e50",
"hm c #655b46",
"iS c #655b48",
"bH c #655c46",
"#u c #655c47",
"#B c #655c48",
"bg c #655d49",
"fQ c #655d4d",
"fX c #655e4e",
"aW c #655e50",
"#R c #655e52",
"fT c #655f50",
"fV c #655f51",
"fO c #656052",
"fW c #656053",
"i2 c #665b48",
"#k c #665c47",
"#E c #665c48",
"fr c #665d47",
"dJ c #665d48",
"h2 c #665d49",
"ff c #665d4a",
"dA c #665e4a",
"f2 c #665e4e",
".9 c #665f4c",
"f0 c #665f50",
"#j c #665f53",
"eM c #666051",
"hk c #675e47",
"dr c #675e4a",
"g. c #675e4b",
"#. c #675f4b",
"c7 c #675f4f",
"df c #67604f",
"eN c #676052",
"fq c #67614d",
"bG c #67614e",
"d. c #676151",
"da c #676153",
"c5 c #676254",
"dP c #685d48",
"h8 c #685d49",
"bQ c #685e48",
"dz c #685e4a",
"#t c #685f48",
"#y c #685f49",
"#q c #685f4a",
"i5 c #68604a",
"i3 c #68604d",
"i1 c #68614b",
"de c #686152",
"hM c #686153",
"aJ c #686253",
"bL c #695f49",
"gc c #695f4a",
"h5 c #695f4b",
"dN c #69604a",
"iY c #69604d",
"iT c #69614e",
"iW c #69624c",
"#D c #69624f",
"aT c #696253",
"aK c #696254",
"bq c #6a614a",
"bf c #6a614c",
"fe c #6a614d",
"i7 c #6a614e",
"iP c #6a624c",
".5 c #6a624e",
".1 c #6a624f",
"iZ c #6a634f",
"fU c #6a6354",
"bc c #6b614b",
"bK c #6b614c",
"fa c #6b624b",
"bX c #6b624c",
"hd c #6b624d",
".S c #6b624f",
"dq c #6b634c",
"i4 c #6b634f",
"dX c #6c614b",
".Z c #6c634c",
"iQ c #6c644f",
"dm c #6c6451",
"bs c #6c6551",
"d# c #6c6556",
".g c #6c6960",
"bb c #6d644e",
"bt c #6d654f",
"fo c #6d6550",
"fn c #6d6551",
"hh c #6d6552",
"f. c #6d6752",
"bp c #6e644e",
"fj c #6e654f",
"ba c #6e6752",
"bi c #6e6852",
"he c #6e6853",
"hg c #6f6650",
"bl c #6f6652",
"fk c #6f6752",
"bo c #6f6853",
"fl c #6f6953",
"be c #706752",
"fi c #706753",
"bj c #706851",
"fm c #706852",
"fc c #706853",
"fb c #706856",
"dw c #706952",
"dD c #706953",
"hf c #706954",
"dM c #706b58",
".X c #716852",
"hc c #716853",
"bd c #716856",
"bk c #716857",
"fh c #716952",
"f# c #716953",
"br c #716957",
"h0 c #716a53",
"gg c #716a54",
".8 c #716a55",
"#p c #716b58",
"#x c #716b59",
"dp c #726a53",
"fd c #726a54",
".Y c #726a55",
"h6 c #726b55",
".2 c #726c59",
"b8 c #726e63",
"bm c #736b55",
".R c #736b56",
".T c #736c59",
".0 c #746c57",
".Q c #746c58",
"dn c #746d5a",
"dl c #756d59",
"cz c #777469",
"bF c #787468",
"#Q c #797367",
".W c #7d7560",
".P c #7d786d",
"b# c #7d7a6e",
".l c #7f7163",
"az c #807c72",
"aG c #817f74",
".B c #827163",
".u c #827263",
"ad c #827d70",
"aB c #847e73",
"#i c #847f73",
"ae c #868173",
"aD c #87857b",
"aA c #888377",
"af c #898376",
"ag c #898477",
"ah c #898478",
"ac c #8a8376",
"b2 c #8a867a",
"aj c #8a867b",
"ab c #8b867a",
"#P c #8c877b",
"#O c #8c887a",
"aF c #8c8a80",
"b7 c #8d887c",
".7 c #8d8978",
"#h c #8d897c",
"cZ c #8d8c81",
"b0 c #8e8a7e",
".i c #918574",
".E c #91897a",
".j c #91897b",
"aE c #918e84",
".q c #928777",
"bA c #928e80",
".A c #938675",
".t c #938a7b",
"#g c #938e80",
"ai c #938e82",
".V c #93907d",
"b1 c #939083",
"cx c #939084",
".k c #948675",
".z c #948b7b",
"bZ c #948e81",
".4 c #94917e",
".F c #958675",
"a5 c #958f83",
"by c #959082",
"a6 c #959287",
".w c #968d7e",
".o c #968d7f",
".h c #968f81",
"c4 c #969384",
"bz c #979486",
"bB c #979488",
"b3 c #97948a",
"b6 c #989384",
".s c #998774",
".r c #999081",
".y c #999082",
"cw c #999488",
"bD c #999586",
"#L c #999587",
".D c #9a8a7a",
".b c #9a9b93",
"#K c #9b9587",
"#N c #9b9688",
"a4 c #9b9689",
"b5 c #9b9888",
"b. c #9b988b",
".d c #9b9b92",
"a3 c #9c988a",
"Qt c #9c9d96",
".N c #9d9a8f",
".f c #9d9e95",
"bx c #9e9b8c",
"cy c #9e9c91",
".e c #9fa097",
".C c #a0998c",
"#J c #a09b8c",
"#f c #a09c8d",
".O c #a09e93",
"cu c #a09f95",
".n c #a29381",
"a2 c #a29e90",
".# c #a2a39b",
".v c #a39481",
"cs c #a3a298",
"a9 c #a4a194",
".c c #a4a59d",
".p c #a59586",
".x c #a59686",
".a c #a5a69f",
"ct c #a6a59b",
".m c #a79e8e",
"#e c #a7a494",
"bE c #a7a495",
"#c c #a7a497",
"a8 c #a8a698",
"#b c #a9a597",
"#d c #aaa797",
"cv c #aaa89d",
".M c #aaa89f",
"#M c #aba99a",
"cY c #abaa9c",
".L c #adaba0",
"cW c #aeada0",
"#I c #b0aea1",
"#a c #b2b0a2",
"cX c #b2b2a5",
"b4 c #b3b0a2",
".K c #b3b1a7",
"bC c #b3b2a3",
"c2 c #b6b5a9",
"c3 c #b6b6aa",
".J c #b7b7ae",
"cV c #b7b8ad",
".I c #b9b8af",
"c1 c #b9baad",
"a7 c #babaaf",
"c0 c #bdbfb2",
".H c #c0c1ba",
"Qt.#.#.a.b.c.d.e.f.g.h.i.j.k.l.m.n.o.p.q.r.s.t.k.u.m.v.w.x.q.y.s.z.A.B.C.D.E.F.G",
".H.I.J.K.L.L.M.N.O.P.Q.R.S.T.U.V.W.X.Y.Z.Q.0.1.2.3.4.W.X.Y.Z.Q.Q.5.2.6.7.8.9#.##",
"#a#b#c#d#e#f#g#h#i#j#k#l#m#n#o#p#q#r#s#t#k#u#m#v#w#x#y#z#A#t#u#B#m#v#C#D#E#F#G#H",
"#I#J#K#L#M#N#O#P#Q#R#S#T#U#V#W#X#Y#Z#0#1#S#T#U#2#3#4#5#Z#0#1#S#T#U#6#7#8#9a.a#aa",
"abacadaeafagahaiajakalam#3anaoapaqar#Wasalam#3anaoatauauaqasasam#3anavawaxau#7ay",
"azajaAaBaCaDaEaFaGaHaIaJaKaLaMaNaOaPaQaRaSaJaTaLaMaNaOaUaQaRaVaJaTaWaXaYaZa0aOa1",
"a2a3a4a5a6a7a8a9b.b#ba.Xbbbcbdbe.Ybfbgbhbibjbbbcbkblbmbfbgbnbobjbpbqbrbsbtbubvbw",
"bxbybzbAbBbCbDbEa3bFbGbHbIbJbKbLbM#rbNbObGbHbPbJbKbQbR#rbSbTbGbUbVbWbXbQbR#rbSbY",
"bZb0b1b2b3b4b5b6b7b8b9c.c#cacbcccdcecfcgchc.c##Tcicccjckclcgcmc.c##Tcncocpa.cqcr",
"csctcscucscvcwcxcyczcAcBcCcDcEcFcGcHcIcJcKcBcCcLcMcFcGcHcIcNcOcBcCcLcPcQcRcScTcU",
"cVcWcXcYcZc0c1c2c3c4c5c6c7c8c9aZd.d#dadbc5dcc7ddc9aUded#dadbc5dcdfddc9dgdhdidjdk",
"dl.0dmdndo.V.Wdp.Rdqdrdsdtdudvdwdxdy#ldzdAdsdBdudCdDdxdy#l#qdAdsdBdudEdFcidGdHdI",
"dJ#ldK#vdLdMdNdKdO#tdP#zdQdRdSdTdUdVdWdXdPdYdQdRdZd0dUdVd1dXdPd2d3dRd4d5bP#zdVd6",
"d7#zd8#VcFd9e.#Ze##1ea#vebecedeeefceegeheaeiejekeleeefce#zdFea#Uemeneoepcceqeres",
"etas#3cIaoeuauevau#wewcCcIexeyezeAaxeBeCewcCcIeDeEeFeAaxeBeweC#7cGeDeGeHeIeJeKeL",
"aSeMeNeOePdoeQeReSeTeUeOeVeWeXeYeZeReSe0eSeOeVe1e2eYeZeRe3e0e4eOeVe1e2e5e6e7e8e9",
"f.f#bbfafbfcfdfefffgbifhbbfabdfibmfeffbhbo.Xfjfabrfkbmbfffbnflfmfjbcbrfnfobubvfp",
"fqfrbIfsbKbLbMdKbS#wbGfrbIbJbKbLbR#rftbObGbHbVbJbXbLbR#rfubTbGbHbVbWbXbQbR#rbSbY",
"fvcc#Z#rcifwcpckcqcgfxcc#Z#rcnfwfycocfcgfzcc#ZcafAfwcdcocl#7chcc#ZcafAe.#UfBfCfD",
"fEeIfFfGcQaxfHcHcgcNfIcGfFfGcQevfHcHcgcNfIcGfFfGfJevfHcHcgfKcAcGexfFfJewcqfLfMfN",
"fOfPfQe2fRfSfTfUfVdhfWfPfXfYfZe7f0fUfVdhfWf1f2fYf3f4f0fUfVdhfWf1f2fYf3f5f6f7f8f9",
"g.g#dxdugadDdxgb#Bgcdrgddxdugef#dxgf#Bgcdrdsdxdufgggghgf#BgcdrdsdxghgigjcngkgldI",
"dP#zbSgmgndTgogpdWbcdP#zdQgmgqd0godVgrbcdPdYdQgmdZd0godVd1bcdPd2d3gmgsd5gt#zdVd6",
"e.guebgqgveeeac#gwgxe.#vgyecd6eeeac#egdFe.#vejekeleeeac#egdFe.d8emeneodgccgzgAgB",
"gCfFgD#3gEgFgGgHgIgJgCfF#7gKgLgMgGgHgIgJgJfF#7gKeygNgGgHgIgJgJgOcggPgQgRcDgSgTgU",
"gVgWgWgWgXgYd9gZg0g1g2g3gWg4gXgYd9gZg0g5g6g3eYg4gXgY#4g7g0g5g8f1g9g4gXh.h#f4hahb",
"badpfjbXbdhc.Yhdfffghef#fjfabdfibmhdffbhflfhfjfabrbe.Rhdffbnhffhhgfabrhhfohihje0",
"fqhkbIfsbKbLbMdKfuhlfqfrbPbJhdbLbRdKfu#wbGfrbVbJhdbLhm#rfubObGbHbVbWhdbQbR#rfthn",
"hohp#ZegfAcecp#Zcf#7fvhp#Z#rfAcecp#Zcf#7hqhp#Z#rhrcehs#Zcl#7fzhp#ZcahthueickclfD",
"hvcDhwhweChx#7eTeDfKhycDhwhweChxfHeTeDfKapcDhwhweweBfHeTeDhzhAcDgKhwhBhCclhDhEhF",
"hGdhhHhIhJhKhLhMhNhOhGdhhHhIhPc8hLhMhNhOhGdhhQhRhPgZhSdehNf6hGdhhQhTfRhU.UhVhWhX",
"g.g#hYduhZh0gkh1h2gcdrg#hYh3h4ggghh1h2h5drgdhYdydvh6ghh1h2h5drdshYdydCgjhrgkglh7",
"h8#zh9i.eki#goiagrbcdPhYdQgmgqd0goibd1bcdPdYdQgmdZicgoibbPbcdPd2d3gmidd5gt#zdVie",
"huifebgqigihcococbdFhuguejecd6eecocogwiihuijemekedeeco#Zeggjhu#vemeneldghpgzikil",
"imhw#Wauinioipiqiralimhw#WargEisitiqiralbTid#WargLiuitiqcEasbTid#3axeEivfGeIiwix",
"iyh#f6iziAiB#XhRiAiCiDh#f6iziAiB#XiEiAiFdLhRhOiGiAiHiIiEiAhA#oiEhOiGiJiKiLgZiMiN",
"iOiPiQiRiSiT.5ghiUf3iViWiQiXiSiYiZi0iUf3iVi1btiXi2i3i4i0iUf3iVi5bti6i2i7i4i8i9j.",
"j#jajbjcjdd8jejfjgfpj#jhjijcjjeiiOjfeqjkjljhjijcjjei#Zjfeqg5jmjnjefujjjojpjqjrjs",
"jtjujujv#CarjwaueTjxjyjujzjvjAarjBaueTjCjyjuiqjvjAarjuareTjCjDgHiqjvjAgHjEjF#WjG",
"jHjIjJjKjLjMjNjOjPjQjRjIjJjKjLjMjNjPjPjSjRjIjJjKjLjMjNjPjPjSjTjIjKjKjLjUjVjWjXjY"};
