/* XPM */
static char *dummy[]={
"40 40 666 2",
"i# c #32a67a",
"hQ c #342810",
"hS c #352911",
"hR c #3a2d14",
"hP c #3b2e14",
"fp c #481c34",
"eF c #491e31",
"h9 c #49340e",
"fB c #4a242e",
"e2 c #4b1f36",
"et c #4d2138",
"hO c #4d3913",
"gl c #4e2833",
"gg c #4f2438",
"ee c #4f2439",
"el c #4f243b",
"fu c #4f263b",
"f0 c #51263d",
"g. c #52273c",
"gc c #532a3d",
"dY c #542d41",
"fg c #543243",
"ix c #543d13",
"hG c #543e14",
"hN c #543f15",
"hy c #553e13",
"hK c #553e14",
"hD c #553f14",
"hw c #553f15",
"hA c #563f14",
"hH c #564015",
"dG c #573343",
"hC c #574015",
"hM c #574116",
"dy c #583745",
"hv c #584015",
"hB c #584116",
"hu c #584217",
"dp c #593846",
"hL c #594116",
"hJ c #594317",
"hz c #594318",
"hE c #5a4216",
"hI c #5b4318",
"hx c #5b4418",
"hY c #5c4415",
"hF c #5c4418",
"h8 c #5d4313",
"hV c #5d4413",
"h2 c #5d4414",
"h6 c #5d4514",
"hW c #5e4312",
"h0 c #5e4413",
"h5 c #5f4412",
"hZ c #5f4413",
"h3 c #5f4513",
"hT c #5f4615",
"h1 c #604512",
"hX c #604513",
"h7 c #604514",
"h4 c #614513",
"gk c #624350",
"hU c #624513",
"bY c #644540",
"eE c #654953",
"i. c #67aa97",
"fA c #684f5b",
"dh c #6b4d4c",
"il c #6b501a",
"b7 c #6c4d47",
"is c #6c5019",
"ic c #6c501a",
"iw c #6c511a",
"ir c #6c521b",
"cp c #6d4f58",
"ih c #6d511a",
"ii c #6d521b",
"if c #6d521c",
"cS c #6d525c",
"iq c #6e5119",
"it c #6e521b",
"io c #6e531b",
"ig c #6f511a",
"id c #6f5219",
"in c #6f531b",
"ia c #6f531c",
"iu c #705219",
"im c #70521a",
"ij c #70531a",
"ie c #71531a",
"iv c #71541b",
"ik c #72541b",
"ib c #73541a",
"ip c #73541b",
"e1 c #757d7d",
"fJ c #76656f",
"gf c #77656e",
"gj c #77656f",
"fZ c #78686f",
"bN c #795c58",
"f9 c #7b6d73",
"co c #7c5f64",
"er c #7d085e",
"fo c #7d998d",
"b8 c #7e5f4e",
"fI c #7f3767",
"bZ c #7f5e38",
"ft c #7f818a",
"dd c #800f5c",
"dn c #80115b",
"gb c #80757d",
"e0 c #81005c",
"ej c #81095b",
"fz c #834672",
"b9 c #84674e",
"ff c #847888",
"dw c #870860",
"dm c #87095f",
"c. c #886b4c",
"dE c #890861",
".P c #896c2a",
"fn c #8a005b",
"fY c #8a3d78",
".s c #8a6d2b",
"cO c #8c2269",
".H c #8d702d",
".L c #8d712e",
"ga c #8e3a7a",
".C c #8e702c",
".J c #8e702d",
".O c #8e702e",
".u c #8e712d",
".N c #8e712e",
".k c #8e722e",
"fs c #8f0061",
"dc c #8f0b68",
".y c #8f702c",
".Q c #8f712e",
".z c #8f722f",
".p c #8f732f",
"du c #900868",
".o c #90702c",
".E c #90722d",
".w c #90722e",
".G c #90732e",
".n c #90732f",
".x c #907330",
".D c #907430",
"ge c #90888f",
"ew c #91086b",
".q c #91722e",
".I c #91732e",
".m c #91732f",
".B c #91742f",
"eD c #917690",
"da c #920869",
".M c #92732f",
".A c #92742f",
"fX c #930068",
"ec c #93076c",
"f8 c #932b78",
".l c #93742f",
".F c #937531",
".r c #937631",
"dk c #94076c",
".t c #947630",
".v c #957731",
"eo c #96076b",
"eh c #96076d",
"cN c #961071",
".K c #967731",
"fy c #97006b",
"b3 c #971172",
"gV c #977833",
"fx c #98006d",
"ex c #98066e",
"ci c #980b71",
"fG c #99006e",
"fH c #990071",
"cJ c #99076f",
"cM c #990870",
"#F c #997a34",
"fv c #997c37",
"fr c #9a006e",
"db c #9a076f",
"de c #9a3a7a",
"gU c #9a7b35",
"#G c #9a7c35",
"#D c #9a7c36",
"fW c #9b006f",
"fm c #9b0070",
"gR c #9b7a34",
"#z c #9b7c35",
"gO c #9b7c36",
"#n c #9b7d35",
"#l c #9b7d36",
"es c #9b858f",
"gK c #9c7b34",
"gS c #9c7c35",
"gI c #9c7c36",
"#v c #9c7d35",
"#p c #9c7d36",
"#f c #9c7d37",
"#s c #9c7e37",
"ed c #9d0172",
"dC c #9d0373",
"dl c #9d0572",
"ch c #9d0674",
"#q c #9d7c34",
"#h c #9d7d35",
"#j c #9d7d36",
"eb c #9d7d37",
"cT c #9d7e37",
"#d c #9d7f37",
"c8 c #9d7f38",
"bO c #9d7f43",
"fe c #9e0073",
"g# c #9e0074",
"ey c #9e0474",
"cK c #9e0673",
"dt c #9e0777",
"#B c #9e7d35",
"d. c #9e7e35",
"#C c #9e7e36",
"#x c #9e7e37",
"#k c #9e7f37",
"#w c #9e7f38",
"ea c #9e7f39",
"fb c #9e7f3a",
"dg c #9ea4a2",
"fd c #9f0075",
"eC c #9f0276",
"dv c #9f0374",
"cL c #9f0575",
"#r c #9f7f37",
"gN c #9f7f38",
"c4 c #9f8037",
"#i c #9f8038",
"f2 c #9f8137",
"f6 c #9f8138",
"#t c #9f8139",
"dD c #a00475",
"eg c #a00878",
"#e c #a07f37",
"#y c #a08037",
"d7 c #a08038",
"#u c #a08138",
"#g c #a08139",
"d0 c #a0813a",
"cY c #a08239",
"c# c #a0823c",
"fl c #a10177",
"dW c #a10778",
"cV c #a18035",
"c1 c #a18037",
"gT c #a18039",
"f5 c #a18136",
"c0 c #a18137",
"d5 c #a18138",
"gL c #a18139",
"d3 c #a1813a",
"#o c #a18239",
"d9 c #a1823a",
"br c #a1823c",
"fc c #a20679",
"eW c #a20879",
"cj c #a22d84",
"#m c #a28138",
"gM c #a28139",
"c7 c #a28238",
"#A c #a28239",
"gH c #a2823a",
"fa c #a2823b",
"e3 c #a2823c",
"c3 c #a28339",
"#E c #a2833a",
"f1 c #a2843a",
"bJ c #a2843c",
"bM c #a28b8d",
"gd c #a2a7aa",
"eB c #a30279",
"ei c #a30379",
"c6 c #a38237",
"d2 c #a3823a",
"cq c #a3824a",
"f7 c #a38338",
"cX c #a38339",
"e. c #a3833a",
"gJ c #a3833b",
"d8 c #a3843b",
"cW c #a3853a",
"c2 c #a3853b",
"fC c #a3863a",
"c5 c #a3863b",
"fh c #a3863c",
"aa c #a3863d",
"b6 c #a38f92",
"bK c #a48439",
"gQ c #a4843b",
"f. c #a4843d",
"bG c #a4853a",
"d6 c #a4853b",
"d4 c #a4853c",
"bx c #a4863a",
"cZ c #a4863b",
"bs c #a4863c",
"gh c #a4873b",
"f4 c #a4873c",
"bU c #a4873d",
"ep c #a5047b",
"gP c #a5843b",
"bq c #a5843d",
"en c #a58539",
"dr c #a5853a",
"dZ c #a5853c",
"e7 c #a5853d",
"e4 c #a5853e",
"ay c #a58639",
"al c #a5863a",
"bv c #a5863b",
"d1 c #a5863c",
"#6 c #a5873b",
"bP c #a5873c",
"#8 c #a5873d",
"aE c #a5883d",
"ev c #a5883e",
"eq c #a6027d",
"bD c #a6853a",
"e# c #a6853c",
"f# c #a6853d",
"e9 c #a6853e",
"bz c #a68638",
"ad c #a6863a",
"b0 c #a6863b",
"#S c #a6873b",
"cU c #a6873c",
"ef c #a6873d",
"e5 c #a6873e",
"#Q c #a6883c",
"#J c #a6883d",
"#Y c #a6893e",
"bL c #a69293",
"#2 c #a7863a",
"e6 c #a7863e",
"bo c #a7863f",
"bt c #a78739",
"aC c #a7873a",
"ai c #a7873b",
"e8 c #a7873e",
"bf c #a7873f",
"aG c #a7883a",
"f3 c #a7883c",
"dq c #a7883d",
"bd c #a7883f",
"a7 c #a78840",
"c9 c #a7893c",
"an c #a7893d",
"di c #a7893e",
"fF c #a8027e",
"fw c #a8037e",
"dB c #a80680",
"cd c #a8863a",
"#V c #a88739",
"#N c #a8873a",
"bI c #a8873b",
"b# c #a8873f",
"a9 c #a88740",
"ac c #a8883a",
"aD c #a8883b",
"bE c #a8883c",
"bk c #a8883f",
"bg c #a88840",
"eu c #a8893c",
"as c #a8893d",
"ah c #a8893e",
"af c #a88a3d",
"#P c #a88a3e",
"bh c #a9873f",
"#L c #a9883a",
"#0 c #a9883b",
"bA c #a9883c",
"bm c #a9883f",
"bi c #a98840",
"cf c #a9893b",
"a# c #a9893c",
"bc c #a98940",
"bn c #a98941",
"#4 c #a98a3d",
"aB c #a98a3e",
"bl c #a98a41",
"#H c #a98b3e",
"bB c #a98b3f",
"a4 c #a98b40",
"bu c #a98c3e",
"bH c #a98c3f",
"a. c #aa893b",
"aw c #aa893c",
"a8 c #aa8940",
"bb c #aa8941",
"bF c #aa8a3c",
"#X c #aa8a3d",
"aO c #aa8a3e",
"ba c #aa8a41",
"ap c #aa8b3e",
"#W c #aa8c3e",
"#3 c #aa8c3f",
"dA c #aa8c40",
"eR c #aa8c41",
"av c #aa8d3f",
"#Z c #aa8d40",
"gm c #aa8d45",
"aq c #ab8a3c",
"aW c #ab8a3d",
"be c #ab8a41",
"#5 c #ab8b3d",
"b. c #ab8b42",
"bC c #ab8c3e",
"#O c #ab8c3f",
"aQ c #ab8c40",
"#M c #ab8d3f",
"#9 c #ab8d40",
"aI c #ab8d41",
"aS c #ac8a3d",
"#I c #ac8b3d",
"ag c #ac8b3e",
"eU c #ac8b3f",
"bj c #ac8b41",
"bS c #ac8c3d",
"em c #ac8c3e",
"bp c #ac8c42",
"by c #ac8d3f",
"aj c #ac8d40",
"aU c #ac8d41",
"#1 c #ac8e3f",
"#K c #ac8e40",
"cc c #ac8e41",
"dz c #ac8f41",
"eI c #ad8b3e",
"at c #ad8c3e",
"eM c #ad8c3f",
"bw c #ad8d3e",
"a3 c #ad8d3f",
"aT c #ad8d40",
"eO c #ad8d41",
"fV c #ad8d44",
"cb c #ad8e3f",
"ar c #ad8e40",
"eN c #ad8e41",
"aM c #ad8e42",
"ax c #ad8f40",
"ao c #ad8f41",
"aY c #ad8f42",
"bR c #ad9041",
"eZ c #ae0083",
"ez c #ae0684",
"ca c #ae8d3e",
"cH c #ae8d44",
"fD c #ae8e3e",
"ce c #ae8e3f",
"#T c #ae8e40",
"b1 c #ae8f40",
"fE c #ae8f41",
"a2 c #ae8f42",
"fK c #ae8f45",
"aF c #ae9040",
"#U c #ae9041",
"aK c #ae9042",
"a1 c #ae9043",
"eY c #af0685",
"eQ c #af8d40",
"#R c #af8e3e",
"bQ c #af8e3f",
"#7 c #af8e40",
"eK c #af8e41",
"aA c #af8f3f",
"aZ c #af8f40",
"am c #af8f41",
"aL c #af8f42",
"fU c #af8f45",
"ab c #af9041",
"eJ c #af9042",
"dU c #af9045",
"fS c #af9046",
"aX c #af9142",
"aV c #af9143",
"eP c #af9144",
"eX c #b00786",
"cG c #b08e44",
"ak c #b08f3f",
"bT c #b08f40",
"au c #b09040",
"ae c #b09041",
"cE c #b09046",
"gi c #b09141",
"aJ c #b09143",
"aR c #b09244",
"fk c #b10688",
"h. c #b18e42",
"dN c #b19043",
"dR c #b19044",
"cx c #b19045",
"cr c #b19046",
"aH c #b19141",
"aP c #b19142",
"eT c #b19143",
"fM c #b19146",
"fO c #b19147",
"az c #b19241",
"eL c #b19243",
"dQ c #b19245",
"dI c #b19246",
"eH c #b19345",
"dj c #b20588",
"g0 c #b28f43",
"dK c #b29043",
".j c #b29044",
"cv c #b29045",
"fR c #b29046",
"aN c #b29141",
"a0 c #b29142",
"dO c #b29144",
"g6 c #b29145",
"cB c #b29146",
"ct c #b29147",
"ds c #b29241",
"eG c #b29243",
"#b c #b29246",
"fN c #b29247",
"a5 c #b29344",
"fj c #b3058a",
"eA c #b30689",
"hs c #b38f44",
"ho c #b39043",
"dT c #b39144",
"hf c #b39145",
"cD c #b39146",
"dM c #b39245",
"cw c #b39246",
"fP c #b39247",
"cz c #b39248",
"a6 c #b39343",
".Y c #b39347",
"cC c #b39348",
"eS c #b39445",
"dL c #b39446",
"dP c #b39447",
"hd c #b49044",
"hq c #b49144",
".i c #b49246",
"fQ c #b49247",
".2 c #b49346",
".T c #b49347",
"cs c #b49348",
"eV c #b49444",
".0 c #b49447",
"cy c #b49448",
"cu c #b49449",
"dS c #b49547",
"fq c #b5058c",
"hm c #b59245",
"hk c #b59246",
".4 c #b59346",
"fL c #b59347",
"cA c #b59348",
".5 c #b59447",
"fT c #b59448",
"dH c #b59547",
".8 c #b59548",
"gE c #b5954a",
"dJ c #b59649",
"fi c #b6068d",
"g8 c #b69346",
".V c #b69446",
".f c #b69447",
".h c #b69448",
"#a c #b69547",
"cF c #b69549",
".R c #b69648",
"gY c #b79346",
".b c #b79448",
"## c #b79547",
"Qt c #b79548",
"gx c #b79647",
".S c #b79648",
".X c #b79649",
".7 c #b79749",
"#. c #b7974a",
".W c #b7984a",
"g4 c #b89447",
"gu c #b89547",
".g c #b89548",
".e c #b89549",
"gn c #b89647",
".c c #b89648",
".a c #b89649",
"dV c #b89748",
".9 c #b89749",
"gs c #b8974a",
".6 c #b8984a",
"hb c #b99547",
".# c #b99649",
"gC c #b99748",
"gD c #b99749",
"gv c #b99849",
".1 c #b9984a",
".U c #b9994a",
".3 c #b9994b",
"gz c #b99a4c",
"bX c #b9acb4",
".d c #ba9749",
"gp c #ba994b",
"go c #ba9a4b",
"gB c #ba9a4c",
"b2 c #bb0493",
"cP c #bb74a5",
"hn c #bb974a",
"gW c #bb984a",
".Z c #bb9949",
"gA c #bb994a",
"#c c #bb9a4b",
"gy c #bb9b4b",
"gw c #bb9b4c",
"hh c #bc984a",
"gG c #bc9b4b",
"gr c #bc9b4c",
"gt c #bc9c4d",
"hi c #bd9849",
"ha c #bd994b",
"gq c #bd9b4b",
"h# c #be9a4b",
"gF c #be9d4d",
"g3 c #bf9a4c",
"gX c #bf9b4c",
"hg c #c09b4d",
"g5 c #c29d4c",
"he c #c39e4e",
"g1 c #c39f4e",
"g2 c #c49e4d",
"hl c #c8a251",
"hc c #c8a352",
"g7 c #c9a351",
"hj c #c9a352",
"hr c #caa351",
"gZ c #cba553",
"g9 c #cca654",
"d# c #cd01a4",
"hp c #cfa856",
"ht c #d0a955",
"ek c #d1c4ce",
"cR c #d1c6c9",
"cI c #d601aa",
"dF c #dacfd3",
"dX c #dccfd7",
"cn c #dcd5d5",
"df c #e2c9d9",
"dx c #e4dce1",
"do c #e7e1e5",
"b4 c #e9cee1",
"bV c #ead1e1",
"cg c #ed00c1",
"bW c #f1fffb",
"cQ c #f7eff6",
"ck c #f89de8",
"b5 c #f9f9f9",
"cm c #fbfbfb",
"cl c #fffcfe",
"Qt.#.a.a.b.b.c.#.#.b.bQt.d.a.e.fQt.#.c.#.bQt.e.#.#Qt.b.g.d.a.e.hQt.#.c.#.b.i.j.j",
".k.l.m.n.o.p.q.r.n.s.t.u.v.w.x.y.z.A.B.p.C.D.E.F.G.H.I.J.K.m.L.E.p.M.N.r.C.O.P.Q",
".R.S.T.U.V.W.f.X.R.Y.Z.0.1.2.3.4.XQt.5.6.4.6.5.7.R.8.9.0.1.2#.##.7#a#b#c.4.1.2.R",
"#d#e#f#g#h#i#j#i#k#l#m#n#o#p#o#q#k#r#s#t#h#u#v#i#w#x#y#z#A#p#i#B#i#C#D#E#h#u#F#G",
"#H#I#J#K#L#M#N#O#P#Q#R#S#T#J#U#V#W#X#Y#Z#0#1#2#3#P#4#5#6#7#8#9a.#3a#aaabac#1adae",
"afagah#Kac#1aiaj#P#6akalamanao#Napaq#P#Zacaradaj#Hasatalau#Java.#Waw#8#U#Naxayaz",
"#H#Xah#Kac#9aiaj#P#6aA#S#Tanao#N#Wa#aB#9aCarad#9#Hafat#6#Tan#Za.#OaDaEaFaGaralaH",
"aj#7aIaJ#IaKagaLaM#PaNaOaPaQaRaSaoaTaUaVaWaXagaKaYajaZapa0aQa1ata2a3a4a5#5aX#Xa6",
"a7a8a9b.b#bab#bbbcbdbebfbebgb.bhbcbcbgbab#bab#bbbcbia8bfbjbkblbmbnbmbobpb#bebqbr",
"an#Xbs#9btbuadaBanbvbwbxbybs#Kbz#4bA#8bB#2bCbDaBanbEbFbGa3bsbHac#HbIbJax#2bCbKa3",
"bLbMbNbO#L#MbIaj#PbPbQalaZ#JbR#V#Haq#P#9ac#1#2aj#HafbSalbT#Java.#Wa#bU#U#NarayaH",
"bVbWbXbYbZ#Kaiaj#H#6akb0aZanao#N#WawaB#9aCb1adaj#HafatbvaZan#Za.#Ma##8abaCb1alaH",
"b2b3b4b5b6b7b8b9c.c#cab0cbancccd#Ha##P#ZaC#MaC#MaBan#5#6ceanbHa.#WcfaEb1aCbyadae",
"cgchcicjckclcmcncocpcqcrcsctcucv.Ycwctcucxcycvczczct.TcrcAcBcCcD.YcBcEcFcvcycGcH",
"cIcJcKcLcMcNcOcPcQcRcScTcU#t#QcVcWcXcYcZc0bvc1c2#Ec3bKc4bI#tc5c6bGc7c8c9c0#6d.bG",
"d#dadadbcKcKdcdddedfdgdha3#Jao#V#H#Xdi#9aD#1#2#OaB#4#IbvaZ#J#Ma.#Wa#aaabac#1alae",
"djdadadkcKcKcKdldmdndodpbJdqao#N#W#XaB#9aGaxadajaBasbwalae#J#Za.#Oa#aEabaGb1drds",
"dtdadadudkdvdvdvdvdwdxdycbandz#Napa#aB#9aCbyaC#9#Pas#I#6ceandAa.#3aDaEb1aC#1adae",
"dBdadadadadCdvdvdDdEdFdGdHdIdJdKdLdM#b.8dNdHdOdP.0dQ.4dR#adIdSdT.0dMdUdVdNdHdN.2",
"dWdadadudadCdvdvdvdEdXdYdZd0d1c1#Ed2d3d4d5d6d7d8#Ed9e.#ie##gd8#md8#AeacUd5d6eb#w",
"chdadadaeceddvdvdvdmdXee#T#J#U#V#W#Xdi#9#0#1#2#3#P#4#I#6#7ef#9a.#3a#aaabac#1adae",
"egdadadaeheidvdvdvejekelam#Jao#Napaq#P#Zaccb#2ajaBasemalau#Java.#3awaE#UaCarenaz",
"egdudaeodDepeqdvdveresetaranao#N#Wa#aB#9aCarad#9#Hafem#6#Tanava.#MeuevabaGaralaH",
"egewexeyezeAeAeBeCeDeEeFeGcceHeIeJeKaYaRemeLeMaJa1eNae#Oa6eOePeQeJ#TeReSemeTeUeV",
"eWewdkeXeYeAeYeZe0e1e2e3bme4bge#e5e6e4bke7bke7bfe8e9e8f.bie4bff#bfe6f.bce7bkfafb",
"fcdaeAeAeAeAfdfefffgaW#S#T#J#U#V#W#Xdi#9#0cbai#3#P#4#I#6#7ef#9a.#Oa#fhabaDcbadae",
"fieAfjeAfkflfmfnfofp#RalaZ#JbR#V#H#Xdi#9aD#1#2#9aBafbSalbT#Java.#Wa#bU#UaccbayaH",
"fqeAfjfkeqfrfsftfufvak#6aZdqaoac#WbFaB#KaCb1adajaBafatbvaZdqavaw#Ma##8abaGb1alaH",
"fjeAeAfwfxfyfzfAfBfCfD#Scbandz#V#Ha#aB#9aCbyaCaQaBan#5#6ceanbHa.#WcfaEfEaCbyadau",
"fjeAfFfGfHfIfJe2fKcEfLcx.TfMcycvfNcBfOcscxcscxfNfPcBfQcxcsfRcCcDfPcBfSfTcxcsfUfV",
"eAeqfWfXfYfZf0cWf1f2aCf2f3#tancVcWbK#of4f5#Sc0cZf1c3enc4bEf6cZc6d6f7c8afc0#6d.al",
"fmfGfxf8f9g.bDaQ#PcU#Ral#T#J#U#V#HbFdi#9aD#1aC#OaB#4#5alaZef#9a.#Wa#aa#UaD#1adae",
"g#fXgagbgc#MaiaT#P#6akalamdqao#Nap#XaB#9aCaxadajaBasbwalaudq#3a.#Oaw#8#UaCb1drds",
"gdgegfggf7#Mai#O#PghbQ#Scbandz#Vapa#aB#9aC#1aC#9#Paf#I#6cean#3a.#3aDaEb1aC#Kalgi",
"gjgkglgmgngodVgp.3dJgq.Sgrgsgtgu.Ugv.6gwgxgy.cgzgp.WgA.SgrgsgBgCgogDgEgFgxgw##gG",
"#igHgIgJgKgL#xgMgNgO#m#pgPgIgQgRd7gL#jgHgSgLcTgMgN#x#e#fgPgSd9#h#ggTgUdZ#z#AgV#z",
"gWgXgYgZg0g1.ig2g3g4g5g6g7g8g9h.h#hahbhchdhehfg2hghhhig6hjhkhlhmgXhnhohphqhrhsht",
"huhvhwhxhyhzhAhBhBhChuhDhEhwhFhGhuhChHhIhyhJhKhLhMhLhMhDhEhNhxhDhuhChOhPhQhRhShR",
"hThUhVhWhXhYhXhZh0h1h2h3h4h2h5hZh6h4h0hWh1h2hXh7h8h1h2h3hUh2h5hXh2h4h9i.i#i#i#i#",
"iaibicidieifieigihieiiijikiliminioipiciqieirieijisieitijikiliuiviwipixi.i#i#i#i#"};
