/* XPM */
static char *dummy[]={
"40 40 310 2",
".j c #00a15e",
"Qt c #32a67a",
"#v c #333028",
"cX c #34291f",
"cA c #353229",
"cW c #36322c",
"#0 c #36332b",
"cJ c #372f26",
"cv c #37332e",
"#B c #38352d",
"#y c #39362d",
".M c #393730",
".U c #3a372f",
"#A c #3e3c32",
"#C c #3f3c33",
"cB c #403b34",
"cY c #413426",
"cQ c #423a31",
".h c #424036",
".Z c #424037",
".G c #444238",
"#i c #444239",
"#u c #44423a",
".i c #45433b",
".2 c #47433c",
"#R c #47443c",
"#T c #47443e",
".z c #47453d",
"#z c #49483b",
"#b c #49483f",
"co c #4a3e31",
"#k c #4a4740",
".I c #4a4741",
"## c #4a4840",
".N c #4b4a42",
".L c #4c493f",
"#. c #4c4a41",
"#p c #4c4b44",
".F c #4d4a43",
".4 c #4e4d43",
".s c #4f4d44",
"#I c #4f4d46",
".O c #4f4e46",
".v c #504d46",
".J c #504e47",
".D c #514e46",
"#U c #524f48",
"#F c #525047",
"#D c #525048",
"bV c #535044",
"#W c #535048",
".c c #53514a",
".E c #545149",
".a c #54524b",
"cI c #54534c",
"ch c #554f43",
".t c #55534a",
".X c #55544d",
".A c #56544c",
".5 c #56554b",
".Y c #57554e",
"#t c #575649",
"#n c #57564b",
".P c #58554f",
".H c #58574f",
".# c #595650",
"#s c #5a5850",
"#O c #5a5852",
".y c #5b5851",
"#c c #5b5a51",
".R c #5c5a54",
".3 c #5c5c53",
"#3 c #5e5a52",
"bI c #5f5a4e",
"aC c #5f5a4f",
"#9 c #5f5a51",
"a. c #5f5b51",
".C c #5f5e56",
".b c #5f5e57",
"aO c #605b4f",
"aB c #605f59",
".g c #615f58",
".k c #615f59",
"cz c #615f5a",
"#o c #61605b",
"aV c #625c50",
".r c #626059",
"cO c #632405",
"a4 c #635d51",
"ag c #636056",
"b. c #645e52",
"cb c #652506",
"#X c #656055",
"#l c #65635b",
".l c #65635f",
"#r c #65645a",
"cZ c #665f57",
"af c #66635b",
"#a c #66645c",
".B c #66655d",
".d c #66655f",
"a# c #676257",
"#S c #67665e",
".u c #67aa97",
"cE c #682c0f",
"cR c #686158",
"#P c #68665e",
".e c #68665f",
"#2 c #686660",
".o c #696761",
"#V c #696860",
".S c #696863",
"cw c #6a655d",
"aN c #6a6861",
"b3 c #6a6863",
".w c #6a6962",
"#L c #6a6964",
"cV c #6a6a66",
"#x c #6b6964",
"#h c #6b6a66",
"ck c #6c290a",
"#Y c #6c675c",
".p c #6c6a63",
"#j c #6c6b67",
"b4 c #6d675e",
"#g c #6d6d69",
"#4 c #6e685d",
".K c #6e6d65",
"cN c #6f290b",
"#m c #6f6d63",
"cn c #6f6d66",
"a9 c #6f6e64",
"#q c #6f6e66",
"aG c #70270a",
"#Q c #706f65",
"cu c #706f67",
"aW c #71280b",
"#M c #716f68",
".6 c #717069",
"#1 c #71706a",
"bL c #72280b",
"aF c #722a0c",
"bs c #73290b",
"ba c #732a0d",
"cr c #742e0e",
".x c #74736c",
"bh c #752a0c",
"bA c #752b0d",
"cq c #753e23",
"#w c #75746c",
"bR c #762b0d",
"bB c #772b0d",
".Q c #77746f",
"bP c #78736b",
".f c #787670",
"#E c #787672",
"aE c #79371a",
"a3 c #797771",
"cP c #797973",
".7 c #7a7a74",
"aq c #7b776d",
"#K c #7b7973",
"#J c #7b7a72",
"#f c #7b7a75",
".V c #7b7a76",
"cc c #7c2f0f",
".9 c #7c7b76",
"aQ c #7d2c0e",
"cl c #7d2f0f",
"cF c #7d3111",
".q c #7d7c75",
"#N c #7e7d76",
".0 c #7e7d77",
"#8 c #7e7d78",
"cs c #7f3010",
"b7 c #7f3110",
"bS c #803111",
"cG c #813110",
"av c #813214",
"by c #82817a",
".W c #82827e",
"cy c #833211",
"cC c #837f7d",
"bt c #863112",
"am c #863314",
".1 c #86857f",
"cM c #87523c",
"b6 c #884428",
"#Z c #88827a",
"#d c #898883",
"aX c #8b3213",
"ad c #8c3313",
"#e c #8c8b86",
"bE c #8d3616",
"cK c #8d8a88",
".n c #8d8c88",
"bY c #8e3615",
"#H c #8e8d89",
"b8 c #8f3515",
"bK c #8f543d",
".m c #8f8f8b",
"bX c #90604e",
"#G c #90908c",
"ah c #93918b",
"bM c #943716",
"bN c #943817",
"au c #946550",
"bq c #949491",
"cd c #953716",
"b0 c #953817",
".8 c #959593",
"bv c #963817",
"c# c #969391",
".T c #969693",
"bi c #973717",
"bD c #973918",
"bZ c #983817",
"bc c #993a18",
"cD c #999091",
"b1 c #9a3918",
"bW c #9a9897",
"cm c #9b3717",
"cH c #9b3817",
"bk c #9b3a19",
"cS c #9b999c",
"bT c #9c3a19",
"bu c #9d3a19",
"cU c #9d999e",
"ce c #9e3a19",
"a6 c #9f3918",
"bl c #a13a18",
"bj c #a13b1a",
"bb c #a23a19",
"b9 c #a23b19",
"cp c #a2a1a6",
"cf c #a33b19",
"bC c #a43c1a",
"bF c #a53a18",
"aa c #a5a39c",
"b5 c #a6a4a6",
"at c #a78677",
"cx c #a8a6ab",
"aY c #a93d1b",
"bJ c #a9a8a9",
"ci c #aaa9ac",
"ct c #ab3b19",
"aR c #ab3d1b",
"ae c #ac3714",
"bQ c #acaaab",
"cT c #adacb2",
"ca c #aeaaac",
"cL c #aeadb3",
"a7 c #af3d1b",
"cj c #af948c",
"c. c #b03d1a",
"cg c #b13d1a",
"bw c #b23d1a",
"as c #b3a399",
"aw c #b53b16",
"aH c #b53b17",
"an c #ba3c17",
"bU c #bc3e19",
"bm c #c13d1a",
"bd c #c23e19",
"aZ c #c23f1a",
"a8 c #c33e19",
"b2 c #c33f19",
"bG c #c53e19",
"bO c #c73f19",
"bx c #c83f1a",
"ax c #c93f1a",
"be c #ca3f1a",
"bn c #cb3f1a",
"bH c #cc3f1a",
"aI c #cc401a",
"ap c #cd411a",
"al c #cec9c9",
"aA c #cf3f1b",
"az c #d0411b",
"a0 c #d1411b",
"bo c #d2401b",
"ao c #d2421b",
"ac c #d2c3c0",
"aM c #d4411b",
"ai c #d4d3d1",
"bf c #d6401b",
"bp c #d6421b",
"ay c #d7421c",
"a2 c #d8421c",
"aU c #d9431c",
"aS c #da431c",
"aJ c #db431c",
"aK c #db431d",
"a1 c #dc431d",
"aT c #dd441d",
"aL c #de441d",
"br c #dfdcd7",
"ar c #e0dedc",
"#7 c #e0dfda",
"bz c #e2e1de",
"aD c #e8e5e3",
"#5 c #eaeae8",
"a5 c #ebe7e3",
"b# c #ebe7e4",
"bg c #ece9e5",
"aP c #edeae7",
"#6 c #eff2f8",
"ab c #f8f9f9",
"ak c #fdffff",
"aj c #ffffff",
"QtQtQtQtQtQtQtQtQtQtQtQtQtQtQtQtQtQtQtQtQtQtQtQtQtQtQtQtQtQt.#.a.b.c.d.e.f.g.h.i",
"QtQtQtQt.jQtQtQtQtQtQtQt.jQtQtQtQtQtQtQt.jQtQtQtQtQtQtQt.jQt.k.l.m.n.o.p.q.r.s.t",
"Qt.jQtQtQtQtQtQtQt.jQtQtQt.uQtQtQt.jQtQtQtQtQtQtQt.jQtQtQt.u.v.w.x.y.z.A.B.C.D.E",
"QtQtQtQtQt.jQtQt.u.uQtQtQtQtQtQtQtQtQtQtQt.jQtQt.u.uQtQtQtQt.F.G.H.I.#.w.J.K.L.E",
"QtQtQtQtQtQtQt.j.u.uQtQtQtQtQtQtQtQtQtQtQtQtQt.j.u.uQtQtQtQt.M.N.O.P.Q.R.S.T.l.U",
"QtQtQtQtQtQtQtQtQtQtQtQtQtQtQt.uQtQtQtQtQtQtQtQtQtQtQtQtQtQt.V.W.#.X.Y.Z.0.1.a.2",
"QtQt.u.uQtQtQtQtQtQtQtQtQtQtQtQtQtQt.u.uQtQtQtQtQtQtQtQtQtQt.3.4.5.6.7.8.9#.###a",
"QtQt.u.uQtQtQtQtQtQtQtQtQtQtQt.jQtQt.u.uQtQtQtQtQtQtQtQtQtQt#b#c#d#e#f#g#h#i#j#k",
"QtQtQtQtQt.jQt.uQtQt.jQtQtQtQtQtQtQtQtQtQt.jQt.uQtQt.jQtQtQt.G#l.6#m#n#o#p#o#q#r",
"QtQtQtQtQtQtQtQtQtQtQtQtQtQtQtQtQtQtQtQtQtQtQtQtQtQtQtQtQtQt.Z.K#s#t.h#u#v.p#w#x",
"Qt.jQtQtQt.uQtQtQt.jQtQtQtQtQtQtQt.jQtQt.#.a.b.c.d.e.f.g.h.i#y#u#i#z#A#B#C#D.R#E",
".u.uQtQtQtQtQtQtQtQtQtQtQt.jQtQt.u.uQtQt.k.l.m.n.o.p.q.r.s.t.Z#F#G#H#I.J#J#K.P#L",
".u.uQtQtQtQtQtQtQtQtQtQtQtQtQt.j.u.uQtQt.v.w.x.y.z.A.B.C.D.E.a#M#N#O#C#F#P#Q.2#.",
"QtQtQtQtQtQtQt.uQtQtQtQtQtQtQtQtQtQtQtQt.F.G.H.I.#.w.J.K.L.E#R.H#S#T#U#V#W#X#Y#Z",
"QtQtQtQtQtQtQtQtQtQt.u.uQtQtQtQtQtQtQtQt.M.N.O.P.Q.R.S.T.l.U#0#1#V#O#2#3#4#5#6#7",
"QtQtQtQtQtQtQt.jQtQt.u.uQtQtQtQtQtQtQtQt.V.W.#.X.Y.Z.0.1.a.2.V#8#9a.a#aaabacadae",
"QtQt.jQtQtQtQtQtQtQtQtQtQt.jQt.uQtQt.jQt.3.4.5.6.7.8.9#.##afagahaiajakalamanaoap",
"QtQtQtQtQtQtQtQtQtQtQtQtQtQtQtQtQtQtQtQt#b#c#d#e#f#g#h#i#haqarasatauavawaxayazaA",
"Qt.jQtQtQtQtQtQtQt.jQtQtQt.uQtQtQt.jQtQt.G#l.6#m#n#o#paBaCaDaEaFaGaHaIayaJaKaLaM",
"QtQtQtQtQt.jQtQt.u.uQtQtQtQtQtQtQtQtQtQt.Z.K#s#t.h#u#vaNaOaPaFaQaRaSaTaUaLaLaLay",
"QtQtQtQtQtQtQt.j.u.u.#.a.b.c.d.e.f.g.h.i#y#u#i#z#A#B#C#FaVaPaWaXaYaZa0a1aLaLaLa2",
"QtQtQtQtQtQtQtQtQtQt.k.l.m.n.o.p.q.r.s.t.Z#F#G#H#I.J#Ja3a4a5aFa6aYa7a8a2aJaTaLa2",
"QtQt.u.uQtQtQtQtQtQt.v.w.x.y.z.A.B.C.D.E.a#M#N#O#C#F#Pa9b.b#babbaYbcbdbebfaLaLa2",
"QtQt.u.uQtQtQtQtQtQt.F.G.H.I.#.w.J.K.L.E#R.H#S#T#U#V.J#qb.bgbhbibjbkblbmbnbobpay",
"QtQtQtQtQt.jQt.uQtQt.M.N.O.P.Q.R.S.T.l.U#0#1#V#O#2#O.Sbqa4brbsbtbjbubvbwbdbxboay",
"QtQtQtQtQtQtQtQtQtQt.V.W.#.X.Y.Z.0.1.a.2.V.W.#.X.Y.Z.0byaVbzbAbBbCbubDbEbFbGbHay",
"Qt.jQtQtQt.uQtQtQt.j.3.4.5.6.7.8.9#.###a.3.4.5.6.7.8#f#.bIbJbKbLbMbububvbNbwbObO",
".u.uQtQtQtQtQtQtQtQt#b#c#d#e#f#g#h#i#j#k#b#c#d#e#f#g#h#i#hbPbQbRbSbTbubkbNbNbUbO",
".u.uQtQtQtQtQtQtQtQt.G#l.6#m#n#o#p#o#q#r.G#l.6#m#n#o#p#o#qbVbWbXaGbYbZbub0b1b1b2",
"QtQtQtQtQtQtQt.uQtQt.Z.K#s#t.h#u#v.p#w#x.Z.K#s#t.h#u#v.p#wb3b4b5b6b7b8bububub9c.",
".#.a.b.c.d.e.f.g.h.i#y#u#i#z#A#B#C#D.R#E#y#u#i#z#A#B#C#D.R#E#yc#cacbcccdcecfcgcg",
".k.l.m.n.o.p.q.r.s.t.Z#F#G#H#I.J#J#K.#.S.Z#F#G#H#I.J#J#K.#.S.Zchcicjckclcmcgcgcg",
".v.w.x.y.z.A.B.C.D.E.a#M#N#O#C#F#P#Q.2#..a#M#N#O#C#F#P#Q.2#..acncocpcqcrcsctcgc.",
".F.G.H.I.#.w.J.K.L.E#R.H#S#T#U#V.Jcu#y#i#R.H#S#T#U#V.Jcu#y#i#R.Hcvcwcxcbcccyctc.",
".M.N.O.P.Q.R.S.T.l.U#0#1#V#O#2#O.S.TczcA#0#1#V#O#2#O.S.TczcA#0#1#VcBcCcDcEcFcGcH",
".V.W.#.X.Y.Z.0.1.a.2.V.W.#.X.Y.Z.0.1.a.2.V.W.#.X.Y.Z.0.1.a.2.V.W.#cIcJcKcLcMcNcO",
".3.4.5.6.7.8.9#.###a.3.4.5.6.7.8.9#.###a.3.4.5.6.7.8.9#.###a.3.4.5.6cPcQcRcScTcU",
"#b#c#d#e#f#g#h#i#j#k#b#c#d#e#f#g#h#i#j#k#b#c#d#e#f#g#h#i#j#k#b#c#d#e#fcVcWcXcYcZ",
".G#l.6#m#n#o#p#o#q#r.G#l.6#m#n#o#p#o#q#r.G#l.6#m#n#o#p#o#q#r.G#l.6#m#n#o#p#o#q#r",
".Z.K#s#t.h#u#v.p#w#x.Z.K#s#t.h#u#v.p#w#x.Z.K#s#t.h#u#v.p#w#x.Z.K#s#t.h#u#v.p#w#x"};
