/* XPM */
static char *dummy[]={
"40 40 303 2",
".j c #00a15e",
"Qt c #32a67a",
"#v c #333028",
"ct c #353229",
"#0 c #36332b",
"#B c #38352d",
"co c #38372d",
"#y c #39362d",
".M c #393730",
".U c #3a372f",
"cP c #3a382c",
"cQ c #3b351e",
"cC c #3d3a25",
"#A c #3e3c32",
"#C c #3f3c33",
".h c #424036",
".Z c #424037",
"cu c #434033",
".G c #444238",
"#i c #444239",
"#u c #44423a",
".i c #45433b",
".2 c #47433c",
"#R c #47443c",
"#T c #47443e",
"cJ c #474531",
".z c #47453d",
"#z c #49483b",
"#b c #49483f",
"cR c #4a4425",
"#k c #4a4740",
".I c #4a4741",
"## c #4a4840",
".N c #4b4a42",
".L c #4c493f",
"bA c #4c4a40",
"#. c #4c4a41",
"#p c #4c4b44",
".F c #4d4a43",
".4 c #4e4d43",
".s c #4f4d44",
"#I c #4f4d46",
".O c #4f4e46",
".v c #504d46",
".J c #504e47",
".D c #514e46",
"ch c #524e2f",
"#U c #524f48",
"#F c #525047",
"#D c #525048",
".c c #53514a",
".E c #545149",
"#W c #545248",
".a c #54524b",
"cB c #54534c",
".t c #55534a",
".X c #55544d",
"bO c #555843",
".A c #56544c",
".5 c #56554b",
".Y c #57554e",
"#t c #575649",
"#n c #57564b",
".P c #58554f",
".H c #58574f",
".# c #595650",
"#s c #5a5850",
"#O c #5a5852",
".y c #5b5851",
"#c c #5b5a51",
"ca c #5b5b41",
".R c #5c5a54",
".3 c #5c5c53",
".C c #5f5e56",
".b c #5f5e57",
".g c #615f58",
".k c #615f59",
"cs c #615f5a",
"#3 c #616051",
"aA c #616059",
"#o c #61605b",
".r c #626059",
"bB c #62634c",
"aB c #62634d",
"#9 c #636150",
"aM c #63654d",
"a. c #646350",
"#l c #65635b",
".l c #65635f",
"#r c #65645a",
"ag c #656655",
"af c #66645b",
"#a c #66645c",
".B c #66655d",
".d c #66655f",
"#S c #67665e",
".u c #67aa97",
"#P c #68665e",
".e c #68665f",
"#2 c #686660",
"aQ c #68684f",
".o c #696761",
"#V c #696860",
".S c #696863",
"aY c #696950",
"bW c #6a6863",
"aL c #6a6960",
".w c #6a6962",
"#L c #6a6964",
"a4 c #6a6a51",
"#X c #6a6a54",
"cO c #6a6a66",
"cS c #6b6856",
"#x c #6b6964",
"#h c #6b6a66",
".p c #6c6a63",
"#j c #6c6b67",
"a# c #6c6c57",
"cK c #6d6c57",
"#g c #6d6d69",
".K c #6e6d65",
"cp c #6e6e5c",
"#m c #6f6d63",
"cg c #6f6d66",
"a3 c #6f6e64",
"#q c #6f6e66",
"#Q c #706f65",
"cn c #706f67",
"#M c #716f68",
".6 c #717069",
"#1 c #71706a",
"#Y c #72715c",
"bX c #72715d",
"#4 c #73735c",
".x c #74736c",
"#w c #75746c",
".Q c #77746f",
".f c #787670",
"#E c #787672",
"aX c #797771",
"cI c #797973",
".7 c #7a7a74",
"#K c #7b7973",
"#J c #7b7a72",
"#f c #7b7a75",
".V c #7b7a76",
".9 c #7c7b76",
"bI c #7c7c6a",
".q c #7d7c75",
"#N c #7e7d76",
".0 c #7e7d77",
"#8 c #7f7f78",
"cH c #805900",
"aq c #80806c",
"bq c #82827a",
".W c #82827e",
"b6 c #835a00",
"cx c #845b09",
"cv c #85817c",
".1 c #86857f",
"#d c #898883",
"cd c #8b5d03",
"#Z c #8c8a7a",
"#e c #8c8b86",
".n c #8d8c88",
"cG c #8e5e03",
"#H c #8e8d89",
"aF c #8f5b02",
"cj c #8f6a1d",
"cD c #8f8e88",
".m c #8f8f8b",
"aR c #905c03",
"#G c #90908c",
"aE c #915e03",
"bk c #925e02",
"bE c #925e03",
"a6 c #925e05",
"ck c #936205",
"bs c #946004",
"bi c #949491",
"ba c #956003",
".8 c #959593",
"bK c #966104",
"ah c #96968b",
".T c #969693",
"bt c #976204",
"aD c #976a13",
"b4 c #989791",
"bP c #9b9a97",
"cw c #9c938f",
"cL c #9d999d",
"b7 c #9e6706",
"cF c #9e7835",
"cN c #9e979c",
"aO c #9f6404",
"ce c #9f6806",
"cy c #9f6b09",
"cl c #a16a07",
"av c #a2690b",
"b0 c #a26b07",
"bL c #a26b08",
"cz c #a46b07",
"bQ c #a48148",
"ci c #a5a0a7",
"cr c #a66d08",
"bZ c #a67721",
"bY c #a6a3a5",
"aa c #a7a99c",
"bD c #a87f36",
"bl c #a96b08",
"am c #a96e0b",
"au c #a9884a",
"bC c #aaa8a8",
"cq c #aca6ad",
"cb c #aca9ad",
"bJ c #acaaaa",
"cM c #aeaab2",
"aS c #af6d08",
"b5 c #afaaab",
"cE c #afabb3",
"ad c #b17109",
"bw c #b1720c",
"bR c #b2730a",
"b1 c #b4720a",
"at c #b6a174",
"bF c #ba760b",
"bG c #ba780d",
"cc c #baa689",
"b8 c #bb770b",
"bT c #bb770c",
"as c #bbb197",
"bb c #bc740a",
"bn c #bc780c",
"bv c #bd790d",
"bS c #bf780b",
"bU c #c0780c",
"a8 c #c07b0d",
"bd c #c1790d",
"cf c #c2770b",
"cA c #c2780a",
"bM c #c37b0d",
"bm c #c47a0c",
"b9 c #c57a0c",
"a0 c #c87c0c",
"be c #c97c0b",
"b2 c #ca7d0c",
"bc c #ca7e0e",
"a7 c #cb7c0c",
"c. c #cc7f0c",
"bu c #cd800d",
"bx c #cf7e0b",
"al c #d0ccc9",
"aT c #d4830e",
"ai c #d4d5d1",
"cm c #d6820b",
"aP c #d6830e",
"ae c #d87f05",
"ac c #d8ccbf",
"a1 c #da830c",
"b3 c #dc860c",
"bo c #de850b",
"c# c #de880c",
"bj c #e1e1d6",
"#7 c #e1e2d9",
"ar c #e2e1dc",
"aG c #e38607",
"br c #e3e4de",
"aw c #e48707",
"an c #ea8a07",
"aC c #eae9e3",
"#5 c #ebebe8",
"bN c #ec8c09",
"#6 c #edecf9",
"a5 c #eeece4",
"b# c #eeeee4",
"aZ c #efede3",
"aN c #f0eee7",
"bf c #f18b09",
"aU c #f28e09",
"a2 c #f48e07",
"a9 c #f48f09",
"bV c #f49008",
"by c #f78f08",
"ab c #f8f8fa",
"bH c #f99107",
"bp c #fa9109",
"ax c #fb9008",
"ak c #fcfeff",
"bg c #fd9007",
"b. c #fd9108",
"aI c #ff8b09",
"aJ c #ff8c0a",
"aH c #ff8d08",
"aW c #ff8d09",
"ay c #ff8e08",
"bh c #ff8f07",
"az c #ff8f08",
"aK c #ff9008",
"aV c #ff9108",
"bz c #ff9207",
"ao c #ff9209",
"ap c #ff9308",
"aj c #ffffff",
"QtQtQtQtQtQtQtQtQtQtQtQtQtQtQtQtQtQtQtQtQtQtQtQtQtQtQtQtQtQt.#.a.b.c.d.e.f.g.h.i",
"QtQtQtQt.jQtQtQtQtQtQtQt.jQtQtQtQtQtQtQt.jQtQtQtQtQtQtQt.jQt.k.l.m.n.o.p.q.r.s.t",
"Qt.jQtQtQtQtQtQtQt.jQtQtQt.uQtQtQt.jQtQtQtQtQtQtQt.jQtQtQt.u.v.w.x.y.z.A.B.C.D.E",
"QtQtQtQtQt.jQtQt.u.uQtQtQtQtQtQtQtQtQtQtQt.jQtQt.u.uQtQtQtQt.F.G.H.I.#.w.J.K.L.E",
"QtQtQtQtQtQtQt.j.u.uQtQtQtQtQtQtQtQtQtQtQtQtQt.j.u.uQtQtQtQt.M.N.O.P.Q.R.S.T.l.U",
"QtQtQtQtQtQtQtQtQtQtQtQtQtQtQt.uQtQtQtQtQtQtQtQtQtQtQtQtQtQt.V.W.#.X.Y.Z.0.1.a.2",
"QtQt.u.uQtQtQtQtQtQtQtQtQtQtQtQtQtQt.u.uQtQtQtQtQtQtQtQtQtQt.3.4.5.6.7.8.9#.###a",
"QtQt.u.uQtQtQtQtQtQtQtQtQtQtQt.jQtQt.u.uQtQtQtQtQtQtQtQtQtQt#b#c#d#e#f#g#h#i#j#k",
"QtQtQtQtQt.jQt.uQtQt.jQtQtQtQtQtQtQtQtQtQt.jQt.uQtQt.jQtQtQt.G#l.6#m#n#o#p#o#q#r",
"QtQtQtQtQtQtQtQtQtQtQtQtQtQtQtQtQtQtQtQtQtQtQtQtQtQtQtQtQtQt.Z.K#s#t.h#u#v.p#w#x",
"Qt.jQtQtQt.uQtQtQt.jQtQtQtQtQtQtQt.jQtQt.#.a.b.c.d.e.f.g.h.i#y#u#i#z#A#B#C#D.R#E",
".u.uQtQtQtQtQtQtQtQtQtQtQt.jQtQt.u.uQtQt.k.l.m.n.o.p.q.r.s.t.Z#F#G#H#I.J#J#K.P#L",
".u.uQtQtQtQtQtQtQtQtQtQtQtQtQt.j.u.uQtQt.v.w.x.y.z.A.B.C.D.E.a#M#N#O#C#F#P#Q.2#.",
"QtQtQtQtQtQtQt.uQtQtQtQtQtQtQtQtQtQtQtQt.F.G.H.I.#.w.J.K.L.E#R.H#S#T#U#V#W#X#Y#Z",
"QtQtQtQtQtQtQtQtQtQt.u.uQtQtQtQtQtQtQtQt.M.N.O.P.Q.R.S.T.l.U#0#1#V#O#2#3#4#5#6#7",
"QtQtQtQtQtQtQt.jQtQt.u.uQtQtQtQtQtQtQtQt.V.W.#.X.Y.Z.0.1.a.2.V#8#9a.a#aaabacadae",
"QtQt.jQtQtQtQtQtQtQtQtQtQt.jQt.uQtQt.jQt.3.4.5.6.7.8.9#.##afagahaiajakalamanaoap",
"QtQtQtQtQtQtQtQtQtQtQtQtQtQtQtQtQtQtQtQt#b#c#d#e#f#g#h#i#haqarasatauavawaxayaoaz",
"Qt.jQtQtQtQtQtQtQt.jQtQtQt.uQtQtQt.jQtQt.G#l.6#m#n#o#paAaBaCaDaEaFaGapayaHaIaJaK",
"QtQtQtQtQt.jQtQt.u.uQtQtQtQtQtQtQtQtQtQt.Z.K#s#t.h#u#vaLaMaNaEaOaPaHaIayaJaJaJay",
"QtQtQtQtQtQtQt.j.u.u.#.a.b.c.d.e.f.g.h.i#y#u#i#z#A#B#C#FaQaNaRaSaTaUaVaIaJaJaJaW",
"QtQtQtQtQtQtQtQtQtQt.k.l.m.n.o.p.q.r.s.t.Z#F#G#H#I.J#JaXaYaZaEa0aTa1a2aWaHaIaJaW",
"QtQt.u.uQtQtQtQtQtQt.v.w.x.y.z.A.B.C.D.E.a#M#N#O#C#F#Pa3a4a5a6a7aTa8a9b.aHaJaJaW",
"QtQt.u.uQtQtQtQtQtQt.F.G.H.I.#.w.J.K.L.E#R.H#S#T#U#V.J#qa4b#babbbcbdbebfbgbhazay",
"QtQtQtQtQt.jQt.uQtQt.M.N.O.P.Q.R.S.T.l.U#0#1#V#O#2#O.SbiaYbjbkblbcbmbnboa9bpbhay",
"QtQtQtQtQtQtQtQtQtQt.V.W.#.X.Y.Z.0.1.a.2.V.W.#.X.Y.Z.0bqaQbrbsbtbubmbvbwbxbybzay",
"Qt.jQtQtQt.uQtQtQt.j.3.4.5.6.7.8.9#.###a.3.4.5.6.7.8#fbAbBbCbDbEbFbmbmbnbGbobHbH",
".u.uQtQtQtQtQtQtQtQt#b#c#d#e#f#g#h#i#j#k#b#c#d#e#f#g#h#i#hbIbJbKbLbMbmbdbGbGbNbH",
".u.uQtQtQtQtQtQtQtQt.G#l.6#m#n#o#p#o#q#r.G#l.6#m#n#o#p#o#qbObPbQaFbRbSbmbTbUbUbV",
"QtQtQtQtQtQtQt.uQtQt.Z.K#s#t.h#u#v.p#w#x.Z.K#s#t.h#u#v.p#wbWbXbYbZb0b1bmbmbmb2b3",
".#.a.b.c.d.e.f.g.h.i#y#u#i#z#A#B#C#D.R#E#y#u#i#z#A#B#C#D.R#E#yb4b5b6b7b8b9c.c#c#",
".k.l.m.n.o.p.q.r.s.t.Z#F#G#H#I.J#J#K.#.S.Z#F#G#H#I.J#J#K.#.S.Zcacbcccdcecfc#c#c#",
".v.w.x.y.z.A.B.C.D.E.a#M#N#O#C#F#P#Q.2#..a#M#N#O#C#F#P#Q.2#..acgchcicjckclcmc#b3",
".F.G.H.I.#.w.J.K.L.E#R.H#S#T#U#V.Jcn#y#i#R.H#S#T#U#V.Jcn#y#i#R.Hcocpcqb6b7crcmb3",
".M.N.O.P.Q.R.S.T.l.U#0#1#V#O#2#O.S.Tcsct#0#1#V#O#2#O.S.Tcsct#0#1#VcucvcwcxcyczcA",
".V.W.#.X.Y.Z.0.1.a.2.V.W.#.X.Y.Z.0.1.a.2.V.W.#.X.Y.Z.0.1.a.2.V.W.#cBcCcDcEcFcGcH",
".3.4.5.6.7.8.9#.###a.3.4.5.6.7.8.9#.###a.3.4.5.6.7.8.9#.###a.3.4.5.6cIcJcKcLcMcN",
"#b#c#d#e#f#g#h#i#j#k#b#c#d#e#f#g#h#i#j#k#b#c#d#e#f#g#h#i#j#k#b#c#d#e#fcOcPcQcRcS",
".G#l.6#m#n#o#p#o#q#r.G#l.6#m#n#o#p#o#q#r.G#l.6#m#n#o#p#o#q#r.G#l.6#m#n#o#p#o#q#r",
".Z.K#s#t.h#u#v.p#w#x.Z.K#s#t.h#u#v.p#w#x.Z.K#s#t.h#u#v.p#w#x.Z.K#s#t.h#u#v.p#w#x"};
