/* XPM */
static char *dummy[]={
"40 40 846 2",
"jX c #605a49",
"hA c #686354",
"fz c #6a6556",
"aQ c #6c6759",
"ai c #4c4638",
"fc c #575040",
"ho c #585141",
"jG c #595242",
"lb c #1e1b15",
"lh c #1f1b15",
"lk c #1f1c15",
"jI c #1f1c20",
"hf c #1f1e37",
"hX c #1f1e3a",
"ll c #201c15",
"jJ c #201f31",
"ig c #222033",
"ht c #22203b",
"jO c #242137",
"g3 c #24223e",
"li c #26221c",
"jp c #262330",
"k6 c #27231c",
"lc c #27231d",
"jx c #272540",
"jK c #272640",
"gQ c #272641",
"l# c #28231c",
"kW c #28241b",
"gA c #282641",
"cQ c #29241b",
"ld c #29241d",
"k4 c #29251b",
"la c #29251d",
"iD c #292843",
"k7 c #2a251d",
"h5 c #2a2842",
"gq c #2b251c",
"gv c #2b251d",
"iq c #2b261d",
"le c #2b271e",
"iW c #2b2944",
"it c #2c261d",
"l. c #2c271f",
"lf c #2c281f",
"k8 c #2d2920",
"k5 c #2d2921",
"i8 c #2d2934",
"ja c #2d2b45",
"lj c #2e2a21",
"am c #2f2920",
"k9 c #2f2a21",
"lg c #2f2b21",
"av c #302921",
"hy c #302a1f",
"jW c #302b20",
"j4 c #312a20",
"aA c #312a21",
"jS c #312b20",
"fw c #312b21",
"iz c #312e2d",
"go c #312f48",
"ke c #322c22",
"im c #32314a",
"kk c #332c22",
"hL c #342e24",
"iy c #352e23",
"fI c #363025",
"hH c #36344a",
"db c #373126",
"kV c #373227",
"cX c #383126",
"cU c #383226",
"cP c #383227",
"aZ c #383228",
"kN c #383327",
"a6 c #383328",
"ge c #38354c",
"ip c #393328",
"cV c #39332a",
"kE c #393427",
"aB c #39342a",
"cR c #3a3327",
"cO c #3a3429",
"aw c #3a342b",
"cn c #3a3529",
"an c #3a352b",
"gr c #3b3428",
"cL c #3b3429",
"hl c #3b3528",
"cu c #3b3529",
"au c #3c3529",
"gu c #3c352a",
"jB c #3c3628",
"ih c #3c3629",
"gp c #3c362a",
"jP c #3c372c",
"f7 c #3c394e",
"fv c #3d3629",
"cS c #3d362a",
"hw c #3d362b",
"hx c #3d372a",
"cN c #3d372b",
"iG c #3d372c",
"iK c #3d372d",
"fW c #3d3a4f",
"gs c #3e372a",
"ao c #3e372b",
"cW c #3e372c",
"jR c #3e382b",
"jV c #3f372a",
"aC c #3f372b",
"fx c #3f372c",
"ir c #3f382b",
"ap c #3f382c",
"aD c #3f382d",
"gI c #3f382e",
"fq c #3f392d",
"k2 c #3f392e",
"k1 c #3f3a2e",
"hk c #40382b",
"is c #40382c",
"ik c #40392c",
"aE c #40392d",
"dt c #40392f",
"kU c #403a2c",
"hu c #403a2d",
"kX c #403a2e",
"fe c #403a30",
"iS c #403a37",
"al c #413a2d",
"aq c #413a2e",
"fr c #413a2f",
"eL c #413b2e",
"fd c #413b2f",
"#6 c #413b30",
"jl c #413c2e",
"ks c #413c2f",
"ak c #423a2e",
"kY c #423b2e",
"cM c #423b2f",
"fp c #423b31",
"hv c #423c2f",
"e9 c #423c30",
"#Z c #423c31",
"hz c #423d31",
"kT c #433c2f",
"cT c #433c30",
"jH c #433c31",
"jU c #433d30",
"jT c #433e32",
"cm c #443d2f",
"ct c #443d30",
"il c #443d31",
"gt c #443e31",
"cK c #443e33",
"kR c #443f32",
"gg c #453e30",
"aj c #453e31",
"at c #453e32",
"gk c #453f34",
"kS c #463f30",
"k0 c #463f31",
"az c #463f32",
"k3 c #464031",
"fs c #464032",
"kZ c #473f30",
"g9 c #473f31",
"ji c #474031",
"jQ c #474032",
"fu c #474033",
"ij c #474035",
"ic c #474354",
"ez c #484033",
"je c #484132",
"ar c #484133",
"ax c #484134",
"hE c #484350",
"jN c #484559",
"eK c #494133",
"fy c #494234",
"ay c #494335",
"dY c #4a4151",
"kK c #4a4233",
"#O c #4a4234",
"kF c #4a4332",
"kL c #4a4333",
"as c #4a4335",
"ft c #4a4436",
"#P c #4a4538",
"fH c #4b4856",
"#Y c #4c4436",
"b3 c #4c4536",
"h8 c #4c4537",
"kD c #4d4435",
"#5 c #4d4436",
"e8 c #4d4537",
"bX c #4d4637",
"f2 c #4d483a",
"kQ c #4e4435",
"kB c #4e4534",
"g8 c #4e4536",
"ev c #4e4754",
"fY c #4e483b",
"b# c #4e4940",
"jc c #4f4537",
"jd c #4f4636",
"g7 c #4f4637",
"eh c #4f4838",
"eE c #4f493b",
"by c #4f493c",
"he c #4f4b5d",
"cy c #504838",
"cv c #504839",
"cs c #504938",
"#x c #50493c",
"br c #504a3c",
"bW c #514838",
"kH c #514938",
"cg c #514939",
"hQ c #51493c",
"kO c #514a38",
"gX c #514a3c",
"#t c #514a3d",
"cY c #514e47",
"hj c #524838",
"h7 c #524938",
"g# c #524939",
"dZ c #524948",
"kM c #524a38",
"cl c #524a39",
"e2 c #524a3a",
"d4 c #524a3c",
"dL c #524b3d",
"ey c #524b4d",
"ex c #524c51",
"fC c #524d5c",
"hb c #524e5e",
"if c #525060",
"kP c #534a39",
"gf c #534a3a",
"eg c #534a3c",
"kC c #534b38",
"e3 c #534b3a",
"jD c #534c3b",
"kf c #534c3d",
"fP c #534c3e",
"#R c #534d3a",
"jZ c #534d40",
"fT c #534f60",
"e0 c #534f61",
"kI c #544b39",
"cp c #544b3a",
"ch c #544b3b",
"ga c #544b3c",
"#1 c #544c3a",
"jn c #544c3b",
"f# c #544d3b",
"k# c #544d3e",
"aY c #544d3f",
"j8 c #544e41",
"f5 c #545062",
"gh c #554b3b",
"kt c #554c39",
"#S c #554c3a",
"fa c #554c3b",
"jC c #554d3b",
"b. c #554d3f",
"j3 c #554d40",
"jz c #554e3b",
"ix c #554e41",
"ew c #554f57",
"j7 c #555043",
"j9 c #555044",
"gb c #555163",
"ha c #564d3c",
"j5 c #564e3f",
"kj c #564e41",
"jY c #565042",
"ek c #565053",
"kb c #565144",
"e1 c #565145",
"gl c #565264",
"eJ c #574e3c",
"ck c #574e3e",
"#4 c #57503d",
"ki c #575043",
"co c #575142",
"kc c #575143",
"#Q c #575242",
"#N c #584d3c",
"i6 c #584e3b",
"#X c #584e3c",
"#i c #584e3d",
"cz c #584e3e",
"g4 c #584f3b",
"eC c #584f3c",
"#M c #584f3d",
"gj c #584f3e",
"#V c #58513d",
"iF c #585143",
"hO c #585144",
"hm c #58523e",
"#0 c #585242",
"#7 c #585243",
"kg c #585244",
"jm c #58533e",
"j0 c #585346",
"dj c #585360",
"fo c #585465",
"jL c #585766",
"e7 c #594e3d",
"ii c #594f3e",
"kJ c #59503d",
"#s c #59503e",
"jy c #59513f",
"j2 c #595244",
"da c #595245",
"j6 c #595345",
"f. c #595444",
"k. c #595446",
"hI c #595448",
"eI c #5a4f3f",
"bV c #5a503d",
"b2 c #5a503e",
"d6 c #5a503f",
"f4 c #5a513e",
"cj c #5a513f",
"dM c #5a5140",
"ei c #5a523d",
"i4 c #5a533e",
"gH c #5a5344",
"kd c #5a5447",
"el c #5a545a",
"j1 c #5a5547",
"eM c #5a5657",
"jq c #5a5868",
"#m c #5b513d",
"b6 c #5b513e",
"g6 c #5b513f",
"hi c #5b5140",
"cx c #5b523f",
"ib c #5b5240",
"d2 c #5b5241",
"kG c #5b533e",
"eA c #5b533f",
"cr c #5b5340",
"hK c #5b5345",
"jf c #5b543f",
"#j c #5b5444",
"cf c #5b5445",
"ds c #5b5446",
"hJ c #5b5647",
"hP c #5b5649",
"#h c #5c513e",
"#r c #5c513f",
"jA c #5c5140",
"bR c #5c523d",
"#w c #5c523f",
"#W c #5c5240",
"gV c #5c5241",
"d3 c #5c5242",
"b5 c #5c533e",
"gi c #5c5340",
"iY c #5c5341",
"iX c #5c5342",
"#8 c #5c543f",
"jj c #5c5440",
"hh c #5c5441",
"g. c #5c5445",
"i# c #5c5545",
"hD c #5c5648",
"iI c #5c5749",
"cA c #5c584e",
"e6 c #5d5341",
"gW c #5d5342",
"iZ c #5d5343",
"cq c #5d543f",
"#2 c #5d5440",
"d1 c #5d5442",
"gU c #5d5443",
"#T c #5d5540",
"hn c #5d5541",
"jF c #5d5542",
"fL c #5d5548",
"e5 c #5d5642",
"fJ c #5d5646",
"fO c #5d5647",
"ka c #5d5749",
"fM c #5d574a",
"kh c #5d5849",
"do c #5d5864",
"be c #5d5950",
"cw c #5e5540",
"ci c #5e5541",
"ee c #5e5542",
"aX c #5e5647",
"#U c #5e5743",
"a5 c #5e5747",
"a9 c #5e5748",
"aT c #5e5849",
"aU c #5e584a",
"hM c #5e584b",
"dQ c #5e5856",
"gD c #5e594b",
"g0 c #5f5445",
"i2 c #5f5542",
"ia c #5f5641",
"e4 c #5f5642",
"ej c #5f5644",
"kr c #5f5645",
"#3 c #5f5743",
"a8 c #5f574a",
"a7 c #5f5848",
"a4 c #5f584a",
"aV c #5f594b",
"em c #5f5b65",
"iA c #5f5d6a",
"jE c #605642",
"dN c #605644",
"ef c #605645",
"i5 c #605740",
"hg c #605742",
"jo c #605743",
"fb c #605843",
"a0 c #605949",
"iw c #60594a",
"fN c #605a4c",
"hN c #605a4d",
"dp c #605b53",
"dR c #605b69",
"#g c #615542",
"jg c #615740",
"i7 c #615743",
"gR c #615745",
"i3 c #615746",
"h. c #615840",
"eB c #615841",
"fX c #615846",
"#L c #615a48",
"gy c #615a4d",
"dg c #615b4d",
"di c #615b51",
"e. c #615c4f",
"hU c #615f6d",
"h# c #625743",
"bU c #625843",
"#q c #625844",
"eD c #625845",
"iR c #625846",
"i. c #625943",
"h6 c #625947",
"iE c #625a4a",
"gF c #625b4d",
"aW c #625c4d",
"iH c #625c4e",
".2 c #625d4f",
"iv c #625d50",
"eZ c #625d6e",
"iu c #625f53",
"f8 c #635943",
"ko c #635945",
"bS c #635a43",
"b0 c #635a44",
"dK c #635a4b",
"iJ c #635b4b",
"iL c #635c4b",
"hB c #635c4c",
"dq c #635d4e",
"a3 c #635d4f",
".X c #635e50",
"bF c #636057",
"dk c #63606e",
"kv c #645947",
"kx c #645a47",
"#v c #645b44",
"kw c #645b45",
"ku c #645b46",
"iQ c #645c4d",
"gC c #645e50",
"fB c #645e52",
"hC c #645f50",
"#n c #655c44",
"kn c #655c48",
"gG c #655c4d",
"bE c #655d4a",
"gJ c #655e4d",
"fA c #655e4e",
"d# c #655e4f",
"gK c #655f50",
"gE c #656052",
"gx c #656053",
"aF c #656054",
"d7 c #665c48",
"dO c #665c49",
"bQ c #665d46",
"gS c #665d49",
"bx c #665d4a",
"bq c #665d4b",
"hY c #665e4b",
"dr c #665e4e",
"aR c #665f4f",
"bY c #66604c",
"aS c #666051",
"df c #666052",
"dw c #666152",
".N c #666153",
"gw c #666255",
"jM c #666571",
"io c #666671",
"jb c #675c48",
"h1 c #675d47",
"eH c #675d4a",
"bZ c #675e48",
"#p c #675e49",
"i0 c #675e4a",
"kq c #675e4b",
"d0 c #675f4b",
"fK c #676052",
"dd c #676152",
"dh c #676153",
"d. c #676255",
"b7 c #676257",
"jw c #676671",
"g5 c #685d49",
"b4 c #685e48",
"dP c #685e49",
"gT c #685e4a",
"#o c #685f48",
"h9 c #685f49",
"#l c #685f4a",
".L c #685f4b",
"#z c #68604a",
"kA c #68604c",
"du c #686150",
"iM c #686152",
"bn c #695f4a",
"eG c #69604b",
"bw c #69604c",
"ed c #69614e",
"bs c #69624d",
"bP c #696251",
"a2 c #696253",
"a1 c #696254",
"c9 c #696558",
"bT c #6a604a",
"b1 c #6a614b",
".M c #6a614d",
"gZ c #6a614e",
"gB c #6a6254",
"bz c #6a634e",
"f3 c #6a6351",
"dc c #6a6352",
"gL c #6a6354",
"iC c #6a6973",
"jh c #6b604a",
"jk c #6b604b",
"bt c #6b614b",
"f9 c #6b614c",
"fZ c #6b624c",
"d8 c #6b624d",
"ky c #6b634d",
"kz c #6b6350",
"d5 c #6b644e",
"hZ c #6b644f",
".V c #6b6451",
"de c #6b6455",
"bm c #6c624c",
"fS c #6c624e",
"hT c #6c634d",
"kp c #6c6451",
"#k c #6c6551",
"#u c #6c6552",
"dv c #6c6556",
"aP c #6c675c",
"bA c #6d634e",
".0 c #6d644e",
".K c #6d644f",
".S c #6d654e",
"gY c #6d6650",
"i1 c #6d6651",
"#y c #6d6653",
"hp c #6d6b78",
"bl c #6e644d",
"bu c #6e6653",
"eF c #6e6754",
"hS c #6f654f",
"bp c #6f6651",
"bB c #6f6654",
"bD c #6f6751",
"f0 c #6f6754",
"iV c #6f6e77",
"bk c #706750",
"fR c #706851",
"f1 c #706852",
".U c #706853",
"ff c #706d7a",
"hR c #716851",
".R c #716853",
"dJ c #716857",
"km c #716a58",
".5 c #726952",
"#f c #726954",
".Q c #726a53",
"ec c #726a54",
"kl c #726d5c",
"eb c #736a53",
"iP c #736a59",
"h0 c #736b54",
"bC c #736b56",
"dx c #736f61",
"bv c #746b56",
"bo c #746c57",
"bj c #746e5b",
"fQ c #746f5b",
".T c #756d59",
"d9 c #756e5a",
".1 c #756e5c",
".W c #756f5c",
".I c #75746c",
"j# c #76777d",
"bi c #77746a",
"fi c #777ea7",
"hs c #797c77",
"fl c #797ea6",
"hd c #797f8a",
".P c #7a725c",
".Z c #7a725d",
".4 c #7b735e",
"#9 c #7b7563",
"hG c #7b8285",
"ea c #7c745f",
"dl c #7c7a86",
"iT c #7d7e83",
"dI c #7f7865",
"gN c #7f7866",
".u c #807366",
"dH c #807a68",
".m c #817467",
"iO c #817a67",
".J c #817b66",
"h4 c #818884",
"gM c #827c69",
"cE c #827c70",
"iN c #837d6a",
"#A c #857f6c",
"cC c #868173",
"#J c #878175",
"aI c #878274",
"bh c #87857b",
"aJ c #888375",
"dn c #888691",
"g2 c #888694",
"i9 c #88888d",
".c c #897d6f",
".6 c #898472",
"cD c #898477",
"jv c #898a8e",
"ae c #8a8578",
"af c #8a8579",
"ag c #8a8679",
"dB c #8a897e",
"#I c #8b8678",
"aO c #8b867a",
".O c #8b8773",
".Y c #8c8774",
"ie c #8c94af",
"#H c #8d877a",
".3 c #8d8875",
"aM c #8d887d",
"bd c #8d8a7d",
"eN c #8e8c92",
".k c #8f8677",
".s c #8f8777",
"e# c #8f8b78",
"ah c #8f8b7f",
"bc c #8f8c7f",
"eu c #8f8d97",
"dm c #8f8e97",
"bf c #908e83",
"iU c #909599",
"c. c #918d80",
"cF c #918e85",
"h2 c #919196",
".h c #92897a",
"aN c #928c80",
"b9 c #928d7f",
"bg c #929086",
"aH c #938e81",
"#K c #938e82",
".y c #958f82",
"#e c #959188",
"hW c #959886",
"bb c #969389",
".H c #96968e",
"cb c #979284",
"bL c #979386",
"hF c #97979a",
"aK c #989589",
".G c #98988f",
".t c #998978",
".i c #998e7f",
".q c #998f7f",
".w c #999182",
"#d c #999489",
"cI c #999688",
"bK c #99968c",
"fh c #999bb3",
"jr c #999c9a",
"jt c #999e9b",
".r c #9a8976",
".j c #9a8977",
".l c #9a8a78",
"ad c #9a9688",
"aL c #9a978c",
".e c #9b8f7e",
".o c #9b9183",
"cJ c #9b9689",
".n c #9c907e",
".f c #9c9283",
"aa c #9c9688",
"bJ c #9c998c",
"c# c #9c998f",
"cH c #9c9a8b",
".C c #9c9d95",
"#G c #9d9a8b",
".x c #9e9283",
".a c #9e998c",
"ab c #9e9a8c",
".g c #a09080",
"#c c #a09c92",
".p c #a19181",
".b c #a19282",
"a# c #a19c8d",
"bM c #a19e91",
"c0 c #a1a096",
"ba c #a1a198",
".D c #a1a29a",
"Qt c #a29b8d",
"en c #a29ea6",
"c2 c #a2a197",
".B c #a2a39b",
"in c #a2a6a1",
"c3 c #a3a39b",
"fG c #a3a4a0",
"ju c #a3a8a3",
"#b c #a4a296",
"c8 c #a4a297",
".F c #a4a59d",
"hV c #a4a6a5",
".v c #a59d8e",
"eV c #a5b3df",
"iB c #a6aba6",
"ca c #a7a495",
"bH c #a7a598",
"c7 c #a7a59b",
"ce c #a8a495",
"#F c #a8a595",
"bI c #a8a698",
"hc c #a8a9a9",
".E c #a8aaa2",
".# c #a9a093",
"#E c #a9a697",
"c5 c #a9a79d",
"id c #a9aca9",
"ac c #aaa799",
"#a c #aaa79b",
"c6 c #aaaa9f",
".A c #aaaca5",
"hq c #aaacac",
"h3 c #aaaeae",
".d c #ab9e8d",
"cG c #aba99b",
"dX c #acacb4",
"bO c #ada99c",
"cc c #adab9c",
".9 c #adaba1",
"#D c #aeaa9c",
"#C c #aeab9e",
"c1 c #aeafa6",
"js c #aeb2ac",
"cB c #afaea5",
"dA c #afafa2",
"j. c #afb3ad",
"bN c #b0ada1",
"dz c #b0afa2",
"## c #b1aea3",
"dD c #b2b1a3",
"cd c #b4b2a5",
"dE c #b4b3a7",
"c4 c #b4b3a9",
"dG c #b4b4a8",
".z c #b4b7b1",
"dy c #b5b5aa",
"dF c #b7b8ad",
"#. c #b8b7ae",
"aG c #b9bab1",
"a. c #bbbcb2",
"b8 c #bcbdb5",
"dC c #bdbeb2",
"cZ c #c0c2bb",
"ep c #c0c5d2",
"#B c #c4c6bd",
"gP c #c5c6cd",
".8 c #c5c7bf",
"bG c #c5c7c0",
"fn c #c9c7ce",
"eR c #c9cbce",
"fF c #cacbda",
"gn c #cfcfd7",
"es c #d0d2e1",
"gd c #d1d0d7",
".7 c #d1d4ce",
"eO c #d2d1d4",
"dV c #d2d3e2",
"eY c #d4d3d7",
"gO c #d8d7df",
"dU c #dcdae0",
"fg c #dcdce0",
"f6 c #dcdce1",
"g1 c #dfdee2",
"fV c #e1e1e5",
"fD c #e3e3e8",
"gc c #e3e3eb",
"gm c #e4e4eb",
"hr c #e5e5e5",
"gz c #e6e5ec",
"fE c #e6e6e6",
"eU c #e7e7e7",
"fU c #e7e7ed",
"eq c #e8e8e8",
"dS c #e9e8ea",
"er c #e9e9e9",
"eS c #eaeaea",
"eT c #ebebeb",
"fk c #ececec",
"fj c #ededed",
"fm c #f0f1f5",
"dT c #f6f8ef",
"eo c #f9f9f8",
"et c #f9f9f9",
"eX c #fbfbfb",
"dW c #fbfff5",
"eW c #fcfcfe",
"eQ c #fffefd",
"eP c #ffffff",
"Qt.#.a.b.c.d.e.f.g.h.i.j.k.l.m.d.n.o.p.h.q.r.s.t.u.v.n.w.x.y.z.A.B.C.D.E.F.G.H.I",
".J.K.L.M.N.O.P.Q.R.S.T.U.V.W.X.Y.Z.Q.R.0.T.R.V.1.2.3.4.5.R.6.7.8.9#.###a#b#c#d#e",
"#f#g#h#i#j#k#l#m#n#o#p#q#r#s#t#u#l#m#v#o#p#q#w#s#x#y#z#m#v#A#B#C#D#E#F#G#H#I#J#K",
"#L#M#N#O#P#Q#R#S#T#U#V#W#X#Y#Z#0#R#1#2#3#4#W#X#5#6#7#R#1#8#9a.a#aaabacadaeafagah",
"aiajakalamanaoapaqarasatauauavawaoapalaxayazauauaAaBaCaDaEaFaGaHaIaJaKaLaMaNaOaP",
"aQaRaSaTaUaVaWaXaYaZa0a1a2a3a4aVaWa5aYa6a7a1a2a3a8aVaWa9b.b#babbbcbdbebfbgbgbhbi",
"bjbkblbmbnbobp.Lbqbrbs.Qbt.0bubvbpbwbxbybz.QbtbAbBbCbDbwbEbFbGbHbIbJbKbHbLbMbNbO",
"bPbQbRbSbnbTbUbVbWbXbYbZbRb0b1bTbUb2bWb3bYb4b5bSb1bTbUb6bWb7b8b9adc.c#cacbcccdce",
"cfcgchcicjcgckclcmcncocgcpcqcrcsckclctcucocvcpcwcxcyczclctcAcBcCcDcEcFcGcHcIcJ#E",
"cKcLaoaucMcNcOcPaucQaBcRcScScTaocLcUaucQcVcRcScScTcWcLcXcucYcZc0c1c2c3c4c5c6c7c8",
"c9d.d#dadbdcdddedfdgdhdidjdkdldmdndodpdgdhdqdrdsdtdudddvdwdxdydzdzdAdBdCdDdEdFdG",
"dHdIdJdKdLbsdMdNdOdPdQdRdSdTdUdVdWdXdYdZd0d1d2d3d4d5d6dNd7d8d9#f#u.We.e#eaebec.S",
"edeeefegeheiejekelemeneoepeqereqeqeseteuevewexeyezeAeBeCbUbt#peD#w#seEeFeG#m#v#o",
"eHeIeJeKeLeMeNeOePeQeReqeSeTeTereUeUeTeVeWeXeYeZe0e1e2e3e4e5#Ve6e7e8e9f.f#fa#2fb",
"fcazfdfefffgfhfifjeqeSeTfkeTeTereUeUeUeUeUerflfmfnfofpfqfrfsftfucSfvfwawfxaEalfy",
"fzfAfBfCfDeqeUfEeSeTfkfkfkfkeTeqeUeUeUeUeUeUeUeTfFfGfHcfdLfIfJfKfKdgfLfMfNfOfPcP",
"fQfRfSfTfUeUeUeSfkfkfkfkfkfkfkeUeUeUeUeUeUeUeUfEeUfVfWfXbxfYd5ebfZbAf0bCf1bwbxf2",
"f3bQf4f5fUeUeqeSeTeTfkfkfkfkfkeUeUeUeUeUeUeUeUeUfEf6f7b6bWb3bY#ob5f8f9bTbUb6bW#Y",
"g.g#gagbgceUereSeSeTfkfkfkfkfkeUeUeUeUeUeUeUeUeUfEgdgegfggcucocgghcwgicggje3ggcu",
"gkauaDglgmeUereSereSeTeTfkfkfkeUeUeUeUeUeUeUeUeUfEgngocPgpgqaBgrgsaogtapgucPgpgv",
"gwgxgyglgzeUerererereTeTeTeTfkeUeUeUeUeUfEeUeUeUfEgngAgBgCgDgEgFgGgHgIgJgKgLgCgD",
"gMgNdJgbgOeUeqererereSeSeTeTfkeUeUeUeUeUeUeUeUeUfEgPgQgRgSgTd0gUgVgWgXgYdMgRgSgT",
"gZeeg0f5g1eUeUererereqereTeTfkeUeUeUfEeUeUeUeUeUfEg2g3g4bUbtg5g6g7g8g9#8h.g4h#bt",
"eHd6hahbhcfkeUererererereSeTeTeUeUeUeUeUeqeqeUeUhdhehfcphghhf#hihjhkhlhme3cpe4hn",
"hofu#6frhphqeUeUererererereSeTeUeUeUeUeUeqeUeUhrhshtfdhuhvfuazfvhwhxhyhzcThucMfu",
"hAhBhChDhEhFfjfEeqererererereSeUeUeqeqeqeqfEfEhGhHhIhJhK#xhL#0hMhNgDhOhPhJcfhQhL",
".WhRhShTdPhUhVeSeUeqerererereSeqeqeqeqeqeUfEhrhWhXbCf1.MhYfYhZh0bm.0f0bC.R.Mbqf2",
"f3h1b5bSbnbTh2h3fEeUererereSeSeqeqeqeqeUfEhrh4h5h6bTbUb6h7h8bYh9b5bSf9bTi.b6h7b3",
"i#e2faiaibe2icidiefEeUereSeSeSeqeqeqeUfEfEfkifigcxcl#scpggih#0e2facwhhcliicpgggp",
"ijcSikaoilapcuimineqeUeUeSeSeSeqeqeUfEfEeSiohtaoazaDhwipcNiqanauirisazaDhwipcNit",
"iuiviwixiyfAa3iziAiBfEeUeUeSeSeqeUfEfEeTiCiDiEiFiGhBa3fKiHiI.XfNiJiFiKiLdqiMiHiI",
"iNiOiPiQdLhZd2iRiSiTiUfEeUeUerfEfEfEeSiViWiXiYiZdLgYibiRi0bnd0gUiYiZgXi1ibiRi0bn",
"gZi2i3gaehi4i5i6i7i8i9j.eTfEhrfEfEeTj#jajbg6jcjdjejfjgg4bUjhg5g6g7jdjijjjgg4i7jk",
"i0d6eJeKjljmjnjnjocrjpjqjrjsjtjujvjwjxjyjzjAhjhkjBjme3jnhghnjCjAhjhkhljmjDjnjEjF",
"jGez#ZcMa6hzjHaqilfyggjIjJjKjLjMjNjOjPfyjQgsapjRjSjTileLjUfyfujVapjRjWjTileLjUfy",
"jXfOaVjYjZj0j1j2j3j4j5j6hDj7j8j9k.iFixfwk#dakakbkcj0kdj2ixkekfkgkhkbkij0kdj2kjkk",
"klkm#lknkokpkqjFkrksktgYfZkukvkpd0jFkrksktgYfZkwkx.Vd0d1krfdktgYkykwkxkzkAd1krfd",
"#jd2kBkC#Mf4h7kD#OkEkFkGkHkIkJf4h7kDkKkEkLkGkHkIkJf4kMkDkKkNkLkGkOkCkJ#skPkQkKkN",
"kRcNapkSkTkUakapkVkWkXkYkUkZk0kUakapcPcQk1kYkUkSk0kUakircPcQk2eLkUkSk3kUakircPk4",
"k5k6k7k7k8k9l.l#lalblcldlelflgk9l.l#lalhlildlelflgljl.l#lalklildlel.lgljlfl#lall"};
