/* XPM */
static char *dummy[]={
"40 40 850 2",
"kd c #3d372c",
"iF c #463f32",
"gu c #453f32",
"ds c #443e31",
"lp c #28231a",
"hz c #423b30",
"fu c #413b30",
"iE c #6a6557",
"cV c #2c251b",
"k9 c #322c20",
"fb c #2b2319",
"gt c #6a6456",
"ay c #332d21",
"ge c #2c251b",
"hi c #2b2419",
"a1 c #3d372c",
"dr c #696455",
"il c #2c251b",
"jS c #2b2419",
"iD c #635d4f",
"gs c #645f50",
"dq c #666051",
"cU c #3f382c",
"kc c #585042",
"hy c #615a4c",
"ft c #625c4d",
"gd c #3f382c",
"cT c #3d372c",
"gc c #3e382c",
"ik c #3f382c",
"fa c #362e23",
"hh c #362f24",
"ij c #3f392d",
"jR c #373024",
"g0 c #1f1d37",
"jI c #1f1e31",
"hI c #1f1e3a",
"jH c #201c20",
"lh c #211e17",
"h6 c #211f33",
"lj c #221e17",
"hf c #22203b",
"lk c #23201a",
"li c #24201a",
"l. c #24211b",
"jN c #242137",
"gP c #24223e",
"ln c #26221b",
"jk c #26232f",
"lo c #27231b",
"js c #272540",
"jJ c #272640",
"gE c #272641",
"lf c #28241c",
"lg c #28241d",
"gr c #282641",
"l# c #29241d",
"iz c #292843",
"hU c #2a2842",
"k0 c #2b261c",
"k5 c #2b261d",
"lb c #2b261e",
"la c #2b271e",
"iT c #2b2944",
"jP c #2c251b",
"cK c #2c271e",
"lm c #2c271f",
"g6 c #2d271c",
"cO c #2d271e",
"le c #2d2820",
"i6 c #2d2a35",
"j. c #2d2b45",
"jA c #2e271d",
"ic c #2e281f",
"ld c #2e2920",
"ll c #2e2a21",
"cs c #2f281d",
"f3 c #2f291d",
"eU c #30291d",
"g3 c #302a1d",
"lc c #302c22",
"jy c #312a1d",
"gb c #312f48",
"hX c #322c20",
"iv c #322f2e",
"ie c #32314a",
"bY c #332c20",
"ao c #332c22",
"kV c #332d22",
"av c #342c22",
"hp c #352f25",
"kA c #353024",
"cP c #353027",
"kO c #363025",
"cL c #363027",
"kM c #363125",
"cB c #363127",
"hw c #36344a",
"aa c #372f22",
"jw c #373023",
"eB c #373024",
"bw c #373025",
"jZ c #373026",
"fL c #373125",
"hN c #373126",
"j2 c #373127",
"f9 c #373128",
"at c #373129",
"f4 c #373228",
"es c #383124",
"gS c #383125",
"cI c #383227",
"j9 c #383228",
"ap c #383229",
"id c #383329",
"f0 c #38354c",
"je c #393224",
"jg c #393225",
"fj c #393328",
"h9 c #393329",
"eW c #39332a",
"dZ c #3a3326",
"f# c #3a3327",
"cC c #3a3328",
"iW c #3a3426",
"hg c #3a3427",
"an c #3a3428",
"aR c #3a3429",
"k6 c #3a352a",
"jQ c #3b3427",
"f5 c #3b3428",
"cH c #3b3429",
"cJ c #3b3529",
"eZ c #3b352a",
"k1 c #3b362b",
"cE c #3c3529",
"f8 c #3c352a",
"cg c #3c362a",
"jO c #3c362b",
"kW c #3c372b",
"fS c #3c394e",
"cM c #3d3529",
"cD c #3d3629",
"#7 c #3d362a",
"g5 c #3d362b",
"ib c #3d372b",
"fJ c #3d3a4f",
"f7 c #3e362a",
"f6 c #3e372a",
"#3 c #3e372b",
"#W c #3e372c",
"ha c #3e382b",
"e0 c #3e382c",
"aq c #3f372c",
"i. c #3f382b",
"au c #3f382c",
"cG c #3f382d",
"ar c #3f392c",
"ax c #3f392d",
"ip c #3f392e",
"iu c #3f392f",
"aw c #3f3a2f",
"iP c #3f3a37",
"#H c #40382a",
"jc c #40382b",
"ep c #40382c",
"eX c #40392d",
"ia c #40392e",
"g9 c #403a2d",
"gj c #403a2f",
"k8 c #41392d",
"kX c #413a2d",
"k4 c #413a2e",
"k2 c #413b2d",
"jD c #413b2e",
"h. c #413b2f",
"kl c #413b30",
"d9 c #423a2c",
"gR c #423a2d",
"kZ c #423a2e",
"eA c #423b2d",
"cQ c #423c2f",
"jE c #423c30",
"d. c #423c31",
"gI c #433b2d",
"i0 c #433b2e",
"k7 c #433b2f",
"cN c #433c2f",
"cF c #433c30",
"g8 c #433c31",
"g7 c #433e32",
"jv c #443c2e",
"jC c #443d31",
"jG c #443d32",
"cR c #443e31",
"jB c #444033",
"aH c #444037",
"eT c #453e2e",
"kY c #453e2f",
"cS c #453e31",
"ih c #453f31",
"eY c #453f32",
"jF c #454034",
"g2 c #463e2f",
"jx c #463f2f",
"cr c #463f31",
"i# c #463f32",
"g4 c #464032",
"ii c #464033",
"## c #473f30",
"f2 c #473f31",
"cf c #474031",
"cm c #474032",
"h# c #474033",
"jz c #474133",
"h2 c #474354",
"am c #484034",
"#C c #484132",
"bT c #484133",
"as c #484134",
"al c #484234",
"bn c #484235",
"ht c #484350",
"jM c #484559",
"bO c #494133",
"dU c #494136",
"k3 c #494233",
"#w c #494234",
"eV c #494335",
"bh c #494336",
"kI c #4a4133",
"dQ c #4a4150",
"eS c #4a4233",
"hQ c #4a4234",
"iU c #4a4236",
"#o c #4a4335",
"fD c #4a4337",
"g1 c #4b4334",
"dD c #4b4337",
"kB c #4b4434",
"d2 c #4b4436",
"kN c #4b4534",
"kP c #4b4535",
"fr c #4b4856",
"d8 c #4c4334",
"iM c #4c4438",
"j0 c #4c4537",
"gx c #4c4538",
"gH c #4d4435",
"iH c #4d4539",
"iZ c #4e4435",
"kH c #4e4535",
"kU c #4e4536",
"#V c #4e4637",
"jT c #4e4638",
"el c #4e4754",
"iC c #4e483a",
"kT c #4f4636",
"#2 c #4f4637",
"#6 c #4f4738",
"gZ c #4f4b5d",
"c. c #504839",
"iY c #514738",
"gM c #51473a",
"bN c #514837",
"bS c #514838",
"cc c #514939",
"hZ c #51493a",
"eo c #514a4d",
"cn c #514b3d",
"eR c #514b44",
"hW c #524838",
"d7 c #524839",
"hP c #524938",
"a. c #524939",
"kE c #524a38",
"fU c #524a39",
"dR c #524a49",
"do c #524c3d",
"ch c #524c3e",
"b9 c #524d3e",
"fm c #524e5c",
"gW c #524e5e",
"h5 c #525060",
"jb c #534939",
"f1 c #534a3a",
"kD c #534b39",
"ce c #534b3a",
"ho c #534b3e",
"kK c #534c39",
"ey c #534c3a",
"#5 c #534c3b",
"hq c #534c3e",
"#Y c #534d3b",
"fV c #534e3f",
"j6 c #534f43",
"fG c #534f60",
"eQ c #534f61",
"gV c #54493b",
"ez c #544a3a",
"cl c #544b3a",
"c# c #544b3b",
"fW c #544b3c",
"kG c #544c3a",
"cp c #544c3b",
"ew c #544d3b",
"hj c #544d3e",
"fi c #544d3f",
"j5 c #544d40",
"en c #544d52",
"fT c #544e40",
"fQ c #545062",
"ji c #554b3a",
"ju c #554b3b",
"ke c #554c3a",
"#Z c #554c3b",
"ck c #554c3c",
"km c #554d3a",
"h7 c #554d3b",
"fk c #554e3f",
"hY c #554f40",
"fX c #555163",
"cd c #564d3c",
"aQ c #564f41",
"em c #565057",
"gT c #56513e",
"jh c #56523e",
"j4 c #565245",
"g. c #565264",
"#9 c #574d3e",
"cq c #574e3d",
"#S c #57503d",
"jW c #575042",
"k# c #575142",
"ea c #575153",
"jX c #575245",
"jV c #575246",
"k. c #575346",
"#U c #584e3d",
"i2 c #584f3b",
"i5 c #584f3c",
"h8 c #584f3d",
"#n c #584f3e",
"kQ c #58503b",
"gK c #58503c",
"kJ c #58513c",
"et c #58513d",
"aV c #585142",
"hl c #585144",
"j7 c #585345",
"de c #585460",
"f. c #585465",
"jK c #585766",
"eu c #594f3d",
"#v c #594f3e",
"er c #59503c",
"kF c #59503d",
"kR c #59503e",
"kC c #59513c",
"dY c #59513d",
"gG c #59513e",
"aS c #595243",
"j8 c #595244",
"hx c #595344",
".6 c #595346",
"eb c #595359",
"kL c #5a503d",
"gQ c #5a503e",
"jf c #5a503f",
"a# c #5a513e",
"#0 c #5a523e",
"eq c #5a5240",
"kS c #5a5241",
"io c #5a5244",
"bv c #5a5341",
"aI c #5a5343",
"jY c #5a5344",
"j1 c #5a5345",
"#X c #5a5446",
".3 c #5a5447",
"#8 c #5a5545",
"#4 c #5a5547",
"eC c #5a5557",
"jl c #5a5868",
"ci c #5b513e",
"#F c #5b523f",
"dX c #5b5241",
"ex c #5b533f",
"hM c #5b5342",
"iB c #5b5345",
"fK c #5b5442",
"gi c #5b5446",
"kb c #5b5447",
"ev c #5b5547",
".U c #5b5548",
"j3 c #5b5648",
"#T c #5c523f",
"dT c #5c5240",
"dB c #5c5241",
"#G c #5c533e",
"ca c #5c533f",
"dF c #5c5341",
"gF c #5c5342",
"fP c #5c5441",
"hn c #5c5546",
"hm c #5c564a",
"it c #5c5749",
"d1 c #5d523f",
"#r c #5d533f",
"#z c #5d5340",
"iG c #5d5341",
"dC c #5d5342",
"h0 c #5d5440",
"iO c #5d5442",
"iL c #5d5443",
"kr c #5d5542",
"ff c #5d5547",
"c9 c #5d5647",
"jU c #5d5749",
"dw c #5d574a",
"aC c #5d574e",
"dj c #5d5865",
"#m c #5e523f",
"gU c #5e5440",
"ja c #5e5441",
"dG c #5e5443",
"bI c #5e5540",
"cb c #5e5541",
"dW c #5e5542",
"gw c #5e5544",
"co c #5e5642",
"jt c #5e5643",
"gB c #5e5645",
"dn c #5e5647",
"e. c #5e5742",
"iq c #5e5747",
"fh c #5e5748",
"dI c #5e5856",
"ak c #5e594d",
"bP c #5f5540",
"jd c #5f5640",
"bV c #5f5641",
"h1 c #5f5642",
"cj c #5f5643",
"gz c #5f5644",
"dA c #5f5645",
"i1 c #5f5742",
"kz c #5f5746",
"aM c #5f5749",
"i4 c #5f5843",
"fs c #5f5848",
"aX c #5f5849",
"dp c #5f594b",
"hk c #5f594c",
"fl c #5f594f",
"aN c #5f5a4c",
"hs c #5f5a4d",
"ec c #5f5b65",
"iw c #5f5d6a",
"i3 c #605541",
"gL c #605641",
"iJ c #605645",
"jj c #605743",
"e# c #605744",
"kk c #605745",
"dV c #605844",
"aP c #60594a",
"hr c #60594c",
"dd c #605950",
"gk c #605a4a",
"fg c #605a4b",
"ka c #605a4d",
"dJ c #605c6a",
"bW c #615741",
"gJ c #615840",
"bJ c #615841",
"#1 c #615944",
"iV c #615945",
"aU c #615a4a",
"gg c #615a4c",
"aO c #615b4c",
"dc c #615b4d",
"dk c #615c54",
"hF c #615f6d",
"fO c #625842",
"#A c #625942",
"ky c #625946",
"hV c #625a48",
"aZ c #625b4b",
"dl c #625b4d",
"c7 c #625c4d",
"fe c #625c4e",
"is c #625c4f",
"eP c #625d6e",
"#s c #635942",
"d5 c #635943",
"kh c #635a44",
"bu c #635b47",
"iA c #635b4c",
"a0 c #635c4c",
"im c #635e51",
".G c #64594c",
"ko c #645a44",
"bM c #645a45",
"kx c #645b44",
"bR c #645b45",
"bU c #645b46",
"#l c #645b47",
"hL c #645c47",
"in c #645c4c",
"gp c #645d4e",
"aY c #645d4f",
"aL c #645e50",
"df c #64606e",
"ki c #655b48",
"bH c #655c46",
"#u c #655c47",
"#B c #655c48",
"bg c #655d49",
"gh c #655d4d",
"aW c #655e50",
"#R c #655e52",
"gl c #655f50",
"gn c #655f51",
"gf c #656052",
"go c #656053",
"kt c #665b48",
"#k c #665c47",
"#E c #665c48",
"fN c #665d47",
"d0 c #665d48",
"iK c #665d49",
"fC c #665d4a",
"dS c #665e4a",
".9 c #665f4c",
"#j c #665f53",
"fc c #666051",
"jL c #666571",
"ig c #666671",
"j# c #675c47",
"hO c #675e47",
"dz c #675e4a",
"gv c #675e4b",
"#. c #675f4b",
"c8 c #675f4f",
"dm c #67604f",
"fd c #676052",
"fM c #67614d",
"bG c #67614e",
"d# c #676151",
"db c #676153",
"c6 c #676254",
"jr c #676671",
"d6 c #685d48",
"iX c #685d49",
"bQ c #685e48",
"dH c #685e4a",
"#t c #685f48",
"#y c #685f49",
"#q c #685f4a",
"kw c #68604a",
"ku c #68604d",
"ks c #68614b",
"ir c #686153",
"aJ c #686253",
"bL c #695f49",
"gA c #695f4a",
"d4 c #69604a",
"kp c #69604d",
"kj c #69614e",
"kn c #69624c",
"#D c #69624f",
"aT c #696253",
"aK c #696254",
"bq c #6a614a",
"bf c #6a614c",
"fB c #6a614d",
"fF c #6a614e",
"kf c #6a624c",
".5 c #6a624e",
".1 c #6a624f",
"kq c #6a634f",
"gm c #6a6354",
"iy c #6a6973",
"bc c #6b614b",
"bK c #6b614c",
"fx c #6b624b",
"bX c #6b624c",
"hC c #6b624d",
".S c #6b624f",
"dy c #6b634c",
"kv c #6b634f",
".Z c #6c634c",
"kg c #6c644f",
"du c #6c6451",
"bs c #6c6551",
"da c #6c6556",
".g c #6c6960",
"bb c #6d644e",
"bt c #6d654f",
"hK c #6d6550",
"hJ c #6d6552",
"fv c #6d6752",
"hb c #6d6b78",
"bp c #6e644e",
"hA c #6e654f",
"ba c #6e6752",
"bi c #6e6852",
"hD c #6e6853",
"bl c #6f6652",
"bo c #6f6853",
"e1 c #6f6c79",
"iS c #6f6e77",
"be c #706752",
"hE c #706755",
"bj c #706851",
"fz c #706853",
"fy c #706856",
"dE c #706952",
"gy c #706953",
"d3 c #706b58",
".X c #716852",
"hB c #716853",
"bd c #716856",
"bk c #716857",
"fE c #716952",
"fw c #716953",
"br c #716957",
"iI c #716a53",
"iN c #716a54",
".8 c #716a55",
"#p c #716b58",
"#x c #716b59",
"dx c #726a53",
"fA c #726a54",
".Y c #726a55",
".2 c #726c59",
"b8 c #726e63",
"bm c #736b55",
".R c #736b56",
".T c #736c59",
".0 c #746c57",
".Q c #746c58",
"dv c #746d5a",
"dt c #756d59",
"i9 c #76777d",
"cA c #777469",
"e4 c #777ea7",
"bF c #787468",
"#Q c #797367",
"he c #797c77",
"e7 c #797ea6",
"gY c #797f8a",
"hv c #7b8285",
"dg c #7c7a86",
".W c #7d7560",
".P c #7d786d",
"b# c #7d7a6e",
"iQ c #7d7e83",
".l c #7f7163",
"az c #807c72",
"aG c #817f74",
"hT c #818884",
".B c #827163",
".u c #827263",
"ad c #827d70",
"aB c #847e73",
"#i c #847f73",
"ae c #868173",
"aD c #87857b",
"aA c #888377",
"di c #888691",
"gO c #888694",
"i7 c #88888d",
"af c #898376",
"ag c #898477",
"ah c #898478",
"jq c #898a8e",
"ac c #8a8376",
"b2 c #8a867a",
"aj c #8a867b",
"ab c #8b867a",
"#P c #8c877b",
"#O c #8c887a",
"aF c #8c8a80",
"h4 c #8c94af",
"b7 c #8d887c",
".7 c #8d8978",
"#h c #8d897c",
"c0 c #8d8c81",
"b0 c #8e8a7e",
"eD c #8e8c92",
"dh c #8e8d96",
"ek c #8f8d97",
"iR c #909599",
".i c #918574",
".E c #91897a",
".j c #91897b",
"aE c #918e84",
"hR c #919196",
".q c #928777",
"bA c #928e80",
".A c #938675",
".t c #938a7b",
"#g c #938e80",
"ai c #938e82",
".V c #93907d",
"b1 c #939083",
"cy c #939084",
".k c #948675",
".z c #948b7b",
"bZ c #948e81",
".4 c #94917e",
".F c #958675",
"a5 c #958f83",
"by c #959082",
"a6 c #959287",
"hH c #959886",
".w c #968d7e",
".o c #968d7f",
".h c #968f81",
"c5 c #969384",
"bz c #979486",
"bB c #979488",
"b3 c #97948a",
"hu c #97979a",
"b6 c #989384",
".s c #998774",
".r c #999081",
".y c #999082",
"cx c #999488",
"bD c #999586",
"#L c #999587",
"e3 c #999bb3",
"jm c #999c9a",
"jo c #999e9b",
".D c #9a8a7a",
".b c #9a9b93",
"#K c #9b9587",
"#N c #9b9688",
"a4 c #9b9689",
"b5 c #9b9888",
"b. c #9b988b",
".d c #9b9b92",
"a3 c #9c988a",
"Qt c #9c9d96",
".N c #9d9a8f",
".f c #9d9e95",
"bx c #9e9b8c",
"cz c #9e9c91",
".e c #9fa097",
".C c #a0998c",
"#J c #a09b8c",
"#f c #a09c8d",
".O c #a09e93",
"cv c #a09f95",
".n c #a29381",
"a2 c #a29e90",
"ed c #a29ea6",
".# c #a2a39b",
"if c #a2a6a1",
".v c #a39481",
"ct c #a3a298",
"fq c #a3a4a0",
"jp c #a3a8a3",
"a9 c #a4a194",
".c c #a4a59d",
"hG c #a4a6a5",
".p c #a59586",
".x c #a59686",
".a c #a5a69f",
"eL c #a5b3df",
"cu c #a6a59b",
"ix c #a6aba6",
".m c #a79e8e",
"#e c #a7a494",
"bE c #a7a495",
"#c c #a7a497",
"a8 c #a8a698",
"gX c #a8a9a9",
"#b c #a9a597",
"h3 c #a9aca9",
"#d c #aaa797",
"cw c #aaa89d",
".M c #aaa89f",
"hc c #aaacac",
"hS c #aaaeae",
"#M c #aba99a",
"cZ c #abaa9c",
"dP c #acacb4",
".L c #adaba0",
"cX c #aeada0",
"jn c #aeb2ac",
"i8 c #afb3ad",
"#I c #b0aea1",
"#a c #b2b0a2",
"cY c #b2b2a5",
"b4 c #b3b0a2",
".K c #b3b1a7",
"bC c #b3b2a3",
"c3 c #b6b5a9",
"c4 c #b6b6aa",
".J c #b7b7ae",
"cW c #b7b8ad",
".I c #b9b8af",
"c2 c #b9baad",
"a7 c #babaaf",
"c1 c #bdbfb2",
".H c #c0c1ba",
"ef c #c0c5d2",
"gD c #c5c6cd",
"e9 c #c9c7ce",
"eH c #c9cbce",
"fp c #cacbda",
"ga c #cfcfd7",
"ei c #d0d2e1",
"fZ c #d1d0d7",
"eE c #d2d1d4",
"dN c #d2d3e2",
"eO c #d4d3d7",
"gC c #d8d7df",
"dM c #dcdae0",
"e2 c #dcdce0",
"fR c #dcdce1",
"gN c #dfdee2",
"fI c #e1e1e5",
"fn c #e3e3e8",
"fY c #e3e3eb",
"g# c #e4e4eb",
"hd c #e5e5e5",
"gq c #e6e5ec",
"fo c #e6e6e6",
"eK c #e7e7e7",
"fH c #e7e7ed",
"eg c #e8e8e8",
"dK c #e9e8ea",
"eh c #e9e9e9",
"eI c #eaeaea",
"eJ c #ebebeb",
"e6 c #ececec",
"e5 c #ededed",
"e8 c #f0f1f5",
"dL c #f6f8ef",
"ee c #f9f9f8",
"ej c #f9f9f9",
"eN c #fbfbfb",
"dO c #fbfff5",
"eM c #fcfcfe",
"eG c #fffefd",
"eF c #ffffff",
"Qt.#.#.a.b.c.d.e.f.g.h.i.j.k.l.m.n.o.p.q.r.s.t.k.u.m.v.w.x.q.y.s.z.A.B.C.D.E.F.G",
".H.I.J.K.L.L.M.N.O.P.Q.R.S.T.U.V.W.X.Y.Z.Q.0.1.2.3.4.W.X.Y.Z.Q.Q.5.2.6.7.8.9#.##",
"#a#b#c#d#e#f#g#h#i#j#k#l#m#n#o#p#q#r#s#t#k#u#m#v#w#x#y#z#A#t#u#B#m#v#C#D#E#F#G#H",
"#I#J#K#L#M#N#O#P#Q#R#S#T#U#V#W#X#Y#Z#0#1#S#T#U#2#3#4#5#Z#0#1#S#T#U#6#7#8#9a.a#aa",
"abacadaeafagahaiajakalam#3anaoapaqar#Wasalam#3anaoatauauaqasasam#3anavawaxau#7ay",
"azajaAaBaCaDaEaFaGaHaIaJaKaLaMaNaOaPaQaRaSaJaTaLaMaNaOaUaQaRaVaJaTaWaXaYaZa0aOa1",
"a2a3a4a5a6a7a8a9b.b#ba.Xbbbcbdbe.Ybfbgbhbibjbbbcbkblbmbfbgbnbobjbpbqbrbsbtbubvbw",
"bxbybzbAbBbCbDbEa3bFbGbHbIbJbKbLbM#rbNbObGbHbPbJbKbQbR#rbSbTbGbUbVbWbXbQbR#rbSbY",
"bZb0b1b2b3b4b5b6b7b8b9c.c#cacbcccdcecfcgchc.c#cicjccckclcmcgcnc.c##Tcocpcqa.crcs",
"ctcuctcvctcwcxcyczcAcBcCcDcEcFcGcHcIcJcKcLcCcDcMcNcGcHcIcJcOcPcCcDcMcQcRcScTcUcV",
"cWcXcYcZc0c1c2c3c4c5c6c7c8c9d.aZd#dadbdcc6dddedfdgdhdidjdkdcc6dldmdnd.dodpdqdrds",
"dt.0dudvdw.V.Wdx.RdydzdAdBdCdDdEdFdG#ldHdIdJdKdLdMdNdOdPdQdRdSdAdTdCdUdVdWdXdYdZ",
"d0#ld1#vd2d3d4d1d5#td6#zd7d8d9e.e#eaebecedeeefegehegegeiejekelemeneoepeqbP#zeres",
"et#zeu#VcGevew#Zex#1ey#vezeAeBeCeDeEeFeGeHegeIeJeJeheKeKeJeLeMeNeOePeQeRcceSeTeU",
"eVas#3cJaoeWaueXau#weYcDeZe0e1e2e3e4e5egeIeJe6eJeJeheKeKeKeKeKehe7e8e9f.cHf#fafb",
"aSfcfdfeffdwfgfhfifjfkfeflfmfnegeKfoeIeJe6e6e6e6eJegeKeKeKeKeKeKeKeJfpfqfrfsftfu",
"fvfwbbfxfyfzfAfBfCfDbifEfFfGfHeKeKeIe6e6e6e6e6e6e6eKeKeKeKeKeKeKeKfoeKfIfJfKbvfL",
"fMfNbIfObKbLbMd1bS#wbGfNfPfQfHeKegeIeJeJe6e6e6e6e6eKeKeKeKeKeKeKeKeKfofRfS#rbSbY",
"fTcc#Z#rdWfUcqclcrcgfVccfWfXfYeKeheIeIeJe6e6e6e6e6eKeKeKeKeKeKeKeKeKfofZf0f1f2f3",
"f4f5f6f7cRaxf8cIcgcOf9cH#3g.g#eKeheIeheIeJeJe6e6e6eKeKeKeKeKeKeKeKeKfogagbgcgdge",
"gfggghgigjgkglgmgndpgogggpg.gqeKeheheheheJeJeJeJe6eKeKeKeKeKfoeKeKeKfogagrgsgtgu",
"gvgwdFdCgxgydFgz#BgAdzgBdXfXgCeKegeheheheIeIeJeJe6eKeKeKeKeKeKeKeKeKfogDgEgFgGdZ",
"d6#zbSgHgIe.gJgKgLbcd6#zgMfQgNeKeKehehehegeheJeJe6eKeKeKfoeKeKeKeKeKfogOgP#zeres",
"ewgQezgRgSgTeyc#gUe#ew#vgVgWgXe6eKeheheheheheIeJeJeKeKeKeKeKegegeKeKgYgZg0g1g2g3",
"g4f6g5#3g6g7g8g9h.h#g4f6#7hahbhceKeKeheheheheheIeJeKeKeKeKeKegeKeKhdhehff5hghhhi",
"hjhkhkhkhlhmevhnhohphqhrhkhshthue5foegeheheheheheIeKeKegegegegfofohvhw.3hxfshyhz",
"badxhAbXbdhB.YhCfCfDhDfwhAfxhEhFhGeIeKegeheheheheIegegegegegeKfohdhHhIhJhKhLhMhN",
"fMhObIfObKbLbMd1hPhQfMfNbPbJhCbLhRhSfoeKeheheheIeIegegegegeKfohdhThUhVbQbR#rhWhX",
"hYhZ#Zh0h1cecq#Zcf#7fThZ#Z#rh1ceh2h3h4foeKeheIeIeIegegegeKfofoe6h5h6h1h7h8clcmf3",
"h9cEi.i.i#ia#7fjibicidcEi.i.i#iacHieifegeKeKeIeIeIegegeKfofoeIighf#7ihiicmijikil",
"imdpinioipiqgpirisitimdpinioiuc9gpiviwixfoeKeKeIeIegeKfofoeJiyiziAiBgjiC.UiDiEiF",
"gvgwiGdCiHiIgFiJiKgAdzgwiGiLiMiNiOiJiPiQiRfoeKeKehfofofoeIiSiTgwiGdGiUiVcjgFgGiW",
"iX#ziYiZi0i1gJi2i3bcd6iGd7gHgRi4gJi5gUi6i7i8eJfohdfofoeJi9j.j#jajbgHjceqjd#zerje",
"h7jfezgRjgjhcpcpcbdVh7gQjieAesgTcpcpgUjjjkjljmjnjojpjqjrjsjth7#vjujvjwdohZg1jxjy",
"jzi.#WaujAjBjCjDjEaljzi.#Warg6jFjGjDjEalcrjHjIjJjKjLjMjNjOasbTjc#3axjPjQf7f5jRjS",
"jThxjUjVjWjX#XjYjWjZj0hxjUjVjWjX#Xj1jWj2d2jYj3j4j5j6j7j8jWj9#oj1itk.k#kakbhnkckd",
"kekfkgkhkikj.5iOkkklkmknkgkokikpkqkrkkklkmksbtkoktkukvkrkkklkmkwbtkxktfFkvkykzkA",
"kBkCkDkEkFeukGkHkIfLkBkJkKkEkLh8kekHeSkMkNkJkKkEkLh8#ZkHeSkOkPkQkGhPkLkRkSkTkUkV",
"kWkXkXkY#CarkZaufjk0k1kXk2kYk3ark4aufjk5k1kXjDkYk3arkXarfjk5k6g9jDkYk3g9k7k8#Wk9",
"l.l#lalblcldlelflglhlil#lalblcldlelglgljlil#lalblcldlelglgljlkl#lblblclllmlnlolp"};
