/* XPM */
static char *dummy[]={
"40 40 303 2",
".j c #00a15e",
"cI c #198500",
"b7 c #1a8800",
"cQ c #213c1e",
"ce c #219002",
"cy c #238908",
"cH c #249201",
"cl c #259804",
"aG c #269400",
"aF c #269602",
"bl c #269700",
"cD c #273d25",
"cR c #274c25",
"aS c #279501",
"bF c #279701",
"bb c #279a01",
"bu c #289902",
"bL c #289b02",
"bv c #289c02",
"a7 c #299703",
"b8 c #2ba305",
"cf c #2ba405",
"cz c #2ca407",
"cm c #2da605",
"b1 c #2da706",
"cA c #2da905",
"cP c #2e3a2c",
"aO c #2ea403",
"bM c #2ea706",
"cs c #2eac06",
"ci c #2f542f",
"aE c #309b12",
"cp c #31382d",
"cK c #314831",
"Qt c #32a67a",
"#v c #333028",
"aw c #33a809",
"bm c #33af07",
"am c #34ae09",
"cu c #353229",
"ck c #35931d",
"#0 c #36332b",
"ad c #36b707",
"bS c #36b809",
"aT c #37b406",
"#B c #38352d",
"cv c #384233",
"#y c #39362d",
".M c #393730",
"by c #39b70a",
"b2 c #39b908",
".U c #3a372f",
"bG c #3bc009",
"bH c #3bc00b",
"b9 c #3bc109",
"bU c #3cc10a",
"bo c #3cc20a",
"bc c #3dc209",
"bx c #3dc30b",
"bT c #3dc50a",
"a9 c #3dc60b",
"#A c #3e3c32",
"#C c #3f3c33",
"bV c #3fc60a",
"cB c #3fc808",
"be c #40c70b",
"b0 c #41ab1f",
"cg c #41c809",
"bN c #41c90b",
"bn c #41ca0a",
"c. c #41cb0a",
"bf c #41d009",
".h c #424036",
".Z c #424037",
"cb c #425c44",
"b3 c #42d10a",
"c# c #42d20a",
"bP c #435948",
"a1 c #43ce0a",
"bw c #43d30b",
".G c #444238",
"#i c #444239",
"#u c #44423a",
"a8 c #44d10a",
".i c #45433b",
"bd c #45d00c",
"bz c #45d609",
"ae c #46df03",
".2 c #47433c",
"#R c #47443c",
"#T c #47443e",
".z c #47453d",
"cn c #48dd09",
"#z c #49483b",
"#b c #49483f",
"aU c #49da0c",
"aP c #49dc0c",
"ax c #49eb05",
"#k c #4a4740",
".I c #4a4741",
"## c #4a4840",
"bB c #4b4a41",
".N c #4b4a42",
"a2 c #4be10a",
"b4 c #4be309",
"ca c #4be50a",
"aH c #4bea05",
".L c #4c493f",
"#. c #4c4a41",
"#p c #4c4b44",
"bC c #4c6450",
"bp c #4ce509",
".F c #4d4a43",
"aM c #4d6651",
"an c #4df105",
".4 c #4e4d43",
"aC c #4e6451",
"aR c #4e6852",
"cG c #4ea134",
".s c #4f4d44",
"#I c #4f4d46",
".O c #4f4e46",
"aZ c #4f6953",
"bO c #4ff307",
".v c #504d46",
".J c #504e47",
"#W c #505249",
"a5 c #506a54",
".D c #514e46",
"aQ c #515048",
"bW c #51fc06",
"#U c #524f48",
"#F c #525047",
"#D c #525048",
"a. c #526352",
"bE c #52ab35",
"aV c #52fa06",
"a3 c #52fb05",
".c c #53514a",
"#9 c #536152",
"b. c #53fb06",
".E c #545149",
".a c #54524b",
"cC c #54534c",
"bg c #54f806",
"bI c #54ff04",
".t c #55534a",
".X c #55544d",
"#3 c #556052",
"#X c #556a57",
"bA c #55ff06",
".A c #56544c",
".5 c #56554b",
"cS c #566b56",
".Y c #57554e",
"#t c #575649",
"#n c #57564b",
"cL c #576e58",
"ay c #57ff05",
"bq c #57ff06",
".P c #58554f",
".H c #58574f",
"a# c #586c59",
"b# c #58ff05",
"ap c #58ff06",
".# c #595650",
"ag c #596657",
"#s c #5a5850",
"#O c #5a5852",
"aW c #5aff05",
"ao c #5aff06",
".y c #5b5851",
"#c c #5b5a51",
"bh c #5bff04",
"aK c #5bff05",
".R c #5c5a54",
".3 c #5c5c53",
"cq c #5c6f5e",
"#Y c #5c725e",
"#4 c #5c735f",
"bi c #5cff05",
"aA c #5cff06",
"bY c #5d735f",
"az c #5dff05",
"aI c #5eff05",
".C c #5f5e56",
".b c #5f5e57",
"aB c #5f605a",
"aX c #5fff06",
"bR c #60a747",
"av c #60ac49",
".g c #615f58",
".k c #615f59",
"ct c #615f5a",
"#o c #61605b",
"aJ c #61ff06",
".r c #626059",
"#l c #65635b",
".l c #65635f",
"#r c #65645a",
"af c #65645b",
"#a c #66645c",
".B c #66655d",
".d c #66655f",
"#S c #67665e",
".u c #67aa97",
"#P c #68665e",
".e c #68665f",
"#2 c #686660",
".o c #696761",
"#V c #696860",
".S c #696863",
"aL c #696961",
"bX c #6a6863",
".w c #6a6962",
"#L c #6a6964",
"aq c #6a6a66",
"bJ c #6a7d6c",
"#x c #6b6964",
"#h c #6b6a66",
".p c #6c6a63",
"#j c #6c6b67",
"#g c #6d6d69",
"ar c #6d806f",
".K c #6e6d65",
"a4 c #6e6e64",
"#m c #6f6d63",
"ch c #6f6d66",
"#q c #6f6e66",
"#Q c #706f65",
"co c #706f67",
"#M c #716f68",
".6 c #717069",
"#1 c #71706a",
".x c #74736c",
"#w c #75746c",
".Q c #77746f",
".f c #787670",
"#E c #787672",
"aY c #787771",
"cJ c #797973",
".7 c #7a7a74",
"#K c #7b7973",
"#J c #7b7a72",
"#f c #7b7a75",
".V c #7b7a76",
"#Z c #7b8d7a",
".9 c #7c7b76",
"#8 c #7c7f79",
".q c #7d7c75",
"br c #7d7d77",
"#N c #7e7d76",
".0 c #7e7d77",
"cw c #7f857c",
"bs c #81827b",
".W c #82827e",
"au c #82b973",
".1 c #86857f",
"cE c #888f88",
"#d c #898883",
"#e c #8c8b86",
"ah c #8c968c",
".n c #8d8c88",
"#H c #8e8d89",
".m c #8f8f8b",
"#G c #90908c",
"b5 c #919891",
"bj c #949491",
".8 c #959593",
".T c #969693",
"bQ c #979b97",
"cx c #979c8f",
"cd c #97bb89",
"cM c #9d9a99",
"aa c #9da99f",
"at c #9dbd97",
"cO c #9f9997",
"bZ c #a6a5a3",
"cj c #a79fa2",
"bD c #aaaaa8",
"bK c #acaca9",
"cr c #ada6a6",
"cc c #ada9a9",
"b6 c #afafa9",
"cN c #b3aaae",
"cF c #b4abaf",
"ac c #c8d9bf",
"al c #ccd0c9",
"ai c #d2d5d3",
"bk c #d6e2d7",
"#7 c #d9e2db",
"as c #dce2dc",
"bt c #dee4e0",
"aD c #e3eae3",
"ba c #e4eee5",
"a0 c #e4efe3",
"a6 c #e5eee4",
"#5 c #e8ebe9",
"aN c #e8f0e7",
"#6 c #f9ecf7",
"ab c #faf8fa",
"ak c #fefcff",
"aj c #ffffff",
"QtQtQtQtQtQtQtQtQtQtQtQtQtQtQtQtQtQtQtQtQtQtQtQtQtQtQtQtQtQt.#.a.b.c.d.e.f.g.h.i",
"QtQtQtQt.jQtQtQtQtQtQtQt.jQtQtQtQtQtQtQt.jQtQtQtQtQtQtQt.jQt.k.l.m.n.o.p.q.r.s.t",
"Qt.jQtQtQtQtQtQtQt.jQtQtQt.uQtQtQt.jQtQtQtQtQtQtQt.jQtQtQt.u.v.w.x.y.z.A.B.C.D.E",
"QtQtQtQtQt.jQtQt.u.uQtQtQtQtQtQtQtQtQtQtQt.jQtQt.u.uQtQtQtQt.F.G.H.I.#.w.J.K.L.E",
"QtQtQtQtQtQtQt.j.u.uQtQtQtQtQtQtQtQtQtQtQtQtQt.j.u.uQtQtQtQt.M.N.O.P.Q.R.S.T.l.U",
"QtQtQtQtQtQtQtQtQtQtQtQtQtQtQt.uQtQtQtQtQtQtQtQtQtQtQtQtQtQt.V.W.#.X.Y.Z.0.1.a.2",
"QtQt.u.uQtQtQtQtQtQtQtQtQtQtQtQtQtQt.u.uQtQtQtQtQtQtQtQtQtQt.3.4.5.6.7.8.9#.###a",
"QtQt.u.uQtQtQtQtQtQtQtQtQtQtQt.jQtQt.u.uQtQtQtQtQtQtQtQtQtQt#b#c#d#e#f#g#h#i#j#k",
"QtQtQtQtQt.jQt.uQtQt.jQtQtQtQtQtQtQtQtQtQt.jQt.uQtQt.jQtQtQt.G#l.6#m#n#o#p#o#q#r",
"QtQtQtQtQtQtQtQtQtQtQtQtQtQtQtQtQtQtQtQtQtQtQtQtQtQtQtQtQtQt.Z.K#s#t.h#u#v.p#w#x",
"Qt.jQtQtQt.uQtQtQt.jQtQtQtQtQtQtQt.jQtQt.#.a.b.c.d.e.f.g.h.i#y#u#i#z#A#B#C#D.R#E",
".u.uQtQtQtQtQtQtQtQtQtQtQt.jQtQt.u.uQtQt.k.l.m.n.o.p.q.r.s.t.Z#F#G#H#I.J#J#K.P#L",
".u.uQtQtQtQtQtQtQtQtQtQtQtQtQt.j.u.uQtQt.v.w.x.y.z.A.B.C.D.E.a#M#N#O#C#F#P#Q.2#.",
"QtQtQtQtQtQtQt.uQtQtQtQtQtQtQtQtQtQtQtQt.F.G.H.I.#.w.J.K.L.E#R.H#S#T#U#V#W#X#Y#Z",
"QtQtQtQtQtQtQtQtQtQt.u.uQtQtQtQtQtQtQtQt.M.N.O.P.Q.R.S.T.l.U#0#1#V#O#2#3#4#5#6#7",
"QtQtQtQtQtQtQt.jQtQt.u.uQtQtQtQtQtQtQtQt.V.W.#.X.Y.Z.0.1.a.2.V#8#9a.a#aaabacadae",
"QtQt.jQtQtQtQtQtQtQtQtQtQt.jQt.uQtQt.jQt.3.4.5.6.7.8.9#.##afagahaiajakalamanaoap",
"QtQtQtQtQtQtQtQtQtQtQtQtQtQtQtQtQtQtQtQt#b#c#d#e#f#g#h#iaqarasatauavawaxayazaoaA",
"Qt.jQtQtQtQtQtQtQt.jQtQtQt.uQtQtQt.jQtQt.G#l.6#m#n#o#paBaCaDaEaFaGaHapazaIaJaJaK",
"QtQtQtQtQt.jQtQt.u.uQtQtQtQtQtQtQtQtQtQt.Z.K#s#t.h#u#vaLaMaNaFaOaPaIaJazaJaJaJaz",
"QtQtQtQtQtQtQt.j.u.u.#.a.b.c.d.e.f.g.h.i#y#u#i#z#A#B#CaQaRaNaSaTaUaVaWaJaJaJaJaX",
"QtQtQtQtQtQtQtQtQtQt.k.l.m.n.o.p.q.r.s.t.Z#F#G#H#I.J#JaYaZa0aFa1aUa2a3aXaIaJaJaX",
"QtQt.u.uQtQtQtQtQtQt.v.w.x.y.z.A.B.C.D.E.a#M#N#O#C#F#Pa4a5a6a7a8aUa9b.b#aIaJaJaX",
"QtQt.u.uQtQtQtQtQtQt.F.G.H.I.#.w.J.K.L.E#R.H#S#T#U#V.J#qa5babbbcbdbebfbgb#bhbiaz",
"QtQtQtQtQt.jQt.uQtQt.M.N.O.P.Q.R.S.T.l.U#0#1#V#O#2#O.SbjaZbkblbmbdbnbobpb.bqbhaz",
"QtQtQtQtQtQtQtQtQtQt.V.W.#.X.Y.Z.0.1.a.2.V.W.#.X.Y.ZbrbsaRbtbubvbwbnbxbybzbAb#az",
"Qt.jQtQtQt.uQtQtQt.j.3.4.5.6.7.8.9#.###a.3.4.5.6.7.8#fbBbCbDbEbFbGbnbnbobHbpbIbI",
".u.uQtQtQtQtQtQtQtQt#b#c#d#e#f#g#h#i#j#k#b#c#d#e#f#g#h#i#hbJbKbLbMbNbnbebHbHbObI",
".u.uQtQtQtQtQtQtQtQt.G#l.6#m#n#o#p#o#q#r.G#l.6#m#n#o#p#o#qbPbQbRaGbSbTbnbUbVbVbW",
"QtQtQtQtQtQtQt.uQtQt.Z.K#s#t.h#u#v.p#w#x.Z.K#s#t.h#u#v.p#wbXbYbZb0b1b2bnbnbnb3b4",
".#.a.b.c.d.e.f.g.h.i#y#u#i#z#A#B#C#D.R#E#y#u#i#z#A#B#C#D.R#E#yb5b6b7b8b9c.c#caca",
".k.l.m.n.o.p.q.r.s.t.Z#F#G#H#I.J#J#K.#.S.Z#F#G#H#I.J#J#K.#.S.Zcbcccdcecfcgcacaca",
".v.w.x.y.z.A.B.C.D.E.a#M#N#O#C#F#P#Q.2#..a#M#N#O#C#F#P#Q.2#..achcicjckclcmcncab4",
".F.G.H.I.#.w.J.K.L.E#R.H#S#T#U#V.Jco#y#i#R.H#S#T#U#V.Jco#y#i#R.Hcpcqcrb7b8cscnb4",
".M.N.O.P.Q.R.S.T.l.U#0#1#V#O#2#O.S.Tctcu#0#1#V#O#2#O.S.Tctcu#0#1#VcvcwcxcyczcAcB",
".V.W.#.X.Y.Z.0.1.a.2.V.W.#.X.Y.Z.0.1.a.2.V.W.#.X.Y.Z.0.1.a.2.V.W.#cCcDcEcFcGcHcI",
".3.4.5.6.7.8.9#.###a.3.4.5.6.7.8.9#.###a.3.4.5.6.7.8.9#.###a.3.4.5.6cJcKcLcMcNcO",
"#b#c#d#e#f#g#h#i#j#k#b#c#d#e#f#g#h#i#j#k#b#c#d#e#f#g#h#i#j#k#b#c#d#e#faqcPcQcRcS",
".G#l.6#m#n#o#p#o#q#r.G#l.6#m#n#o#p#o#q#r.G#l.6#m#n#o#p#o#q#r.G#l.6#m#n#o#p#o#q#r",
".Z.K#s#t.h#u#v.p#w#x.Z.K#s#t.h#u#v.p#w#x.Z.K#s#t.h#u#v.p#w#x.Z.K#s#t.h#u#v.p#w#x"};
