/* XPM */
static char *dummy[]={
"40 40 291 2",
".k c #00a15e",
"bX c #148100",
"b2 c #188600",
"bJ c #197800",
"ch c #1b8900",
"c. c #1c3c1a",
"bk c #1d7a0a",
"b7 c #1d8d00",
"aU c #1e7e0a",
"b6 c #1e8e00",
"bE c #1f421c",
"bZ c #1f441d",
"bL c #1f481f",
"a2 c #1f7f0a",
"a8 c #1f810a",
"cb c #1f8f01",
"b1 c #1f9000",
"cg c #209101",
"bW c #209201",
"bu c #214a21",
"cc c #218f01",
"bO c #219400",
"bs c #227609",
"aL c #227910",
"aV c #227912",
"a0 c #22880a",
"aI c #22890a",
"bp c #228d09",
"bd c #229303",
"bc c #238a09",
"bw c #238f08",
"aJ c #239109",
"a6 c #239305",
"ct c #239401",
"aT c #239407",
"bN c #239503",
"cF c #244523",
"aK c #24870d",
"bv c #24880a",
"aS c #248c09",
"bi c #248d09",
"aw c #249009",
"bx c #249406",
"a1 c #249505",
"ax c #249508",
"bB c #249605",
"bV c #249703",
"cB c #254b25",
"be c #254c25",
"az c #25900a",
"al c #259308",
"ay c #259507",
"a7 c #259606",
"bA c #259a04",
"bj c #269905",
"bm c #274c25",
"b4 c #274c28",
"bq c #279c06",
"ca c #279e05",
"cq c #284f28",
"aZ c #28950a",
"b# c #289709",
"bM c #289809",
"br c #289c05",
".h c #29231d",
"ck c #294e27",
"am c #298f0d",
"bh c #29960a",
"bF c #29980a",
"b5 c #299e06",
".C c #2a251f",
".t c #2a2620",
"cw c #2a4f2b",
"bI c #2aa403",
"aA c #2b8d12",
"a5 c #2b9e09",
"ab c #2c8e13",
"by c #2ca408",
"bH c #2da508",
"bb c #2e522e",
"bG c #2ea609",
"aR c #2ea708",
".S c #2f2c26",
"bU c #2fa709",
"bz c #2fa809",
"#4 c #302b25",
"#C c #302b26",
".K c #302c26",
"bT c #30a908",
"b0 c #30ab08",
".2 c #312d27",
"## c #312d28",
"bS c #31ac09",
"aj c #323029",
"bQ c #325233",
".i c #32a67a",
"#z c #333028",
"aB c #338523",
"aa c #33b007",
"b. c #345536",
"#J c #36332c",
".J c #37342a",
"a4 c #37563a",
"#. c #38342c",
".B c #38352b",
".L c #38352d",
"aX c #38573b",
"#h c #39352e",
"#s c #3a372f",
"aH c #3ac105",
"#F c #3b3930",
".s c #3c3a2f",
"av c #3cca05",
"#I c #3d3a32",
"c# c #3d3b33",
"#H c #3e3c31",
".E c #3e3c33",
"#y c #3e3c34",
"#8 c #3e5847",
".D c #3f3b33",
"#3 c #3f3c32",
"cf c #403e34",
"cx c #403f36",
"#j c #413d38",
"cm c #413e34",
"#A c #413e35",
".x c #413e36",
".Y c #414037",
"af c #415844",
"#x c #424036",
"cd c #427b38",
"co c #428d2d",
"#Q c #434138",
"cE c #436046",
".u c #444138",
".w c #444239",
"aP c #455d46",
"#G c #464539",
"ak c #46df03",
"bg c #47433d",
"#0 c #47483f",
"#9 c #475447",
".g c #48453b",
"an c #489b2f",
"aG c #49463c",
"bD c #49634d",
"aM c #49943b",
"#b c #4a463c",
".b c #4a483a",
"#R c #4a483e",
"aY c #4b4a40",
".1 c #4c4941",
"#p c #4c4b44",
".4 c #4d4a40",
"bo c #4d4a43",
"cn c #4d4c43",
".a c #4e4c3e",
".F c #4e4c42",
"#N c #4e4d45",
"ai c #4e5a4b",
"at c #4e6851",
"b9 c #4f6650",
"cu c #4f893b",
"#t c #504e45",
".H c #504e46",
"#E c #504e47",
"ci c #50853e",
"#w c #514f43",
"#1 c #514f48",
"#v c #515046",
"#V c #525047",
"aF c #526b56",
"b8 c #527f47",
".n c #545247",
".y c #55534a",
".G c #55534c",
".W c #55544d",
"#Z c #556b58",
"#q c #56534e",
".# c #565449",
"aQ c #56544a",
".X c #56554e",
"#l c #57554b",
".r c #58564d",
"#B c #59574e",
".v c #59584e",
".V c #595851",
"#o c #595853",
".o c #5a5850",
"#U c #5b5952",
"bf c #5b5a51",
"#i c #5b5a55",
".c c #5c5a4f",
"#n c #5c5b51",
"as c #5c7560",
"#r c #5d5b53",
".A c #5d5c52",
"ag c #5d6f5c",
".m c #5e5c53",
".f c #625f57",
".e c #626057",
".R c #62605c",
"a. c #62615a",
"bR c #636257",
"bn c #63625a",
".P c #64625c",
".z c #64635b",
".l c #65635a",
"#c c #65645a",
"ah c #657464",
"cD c #657665",
"#k c #666459",
"ce c #667565",
"cA c #667666",
"#a c #67665b",
".j c #67aa97",
"#K c #68665e",
".M c #686660",
"cr c #686762",
"cj c #687769",
"a# c #696863",
".p c #6a6862",
"#S c #6c6a64",
"#W c #6c6b60",
".5 c #6c6b63",
"cs c #6c6b65",
"au c #6c7365",
"#u c #6d6b62",
"#g c #6d6c68",
"cC c #6d6d67",
"cp c #6d7a6e",
".I c #6e6d65",
"cl c #6f6e66",
"#2 c #706f67",
".7 c #71706a",
".d c #737169",
".O c #74736d",
"#f c #757571",
"#P c #77756f",
".3 c #77776c",
"cv c #788075",
"Qt c #79776f",
"#T c #797870",
".6 c #797872",
".U c #7a7a77",
"#m c #7b7971",
"#O c #7b7a72",
".9 c #7b7b76",
"bK c #7d7679",
".Z c #7e7d77",
"aC c #80b675",
".T c #81807d",
"bC c #818f77",
".q c #828179",
"#D c #84827d",
"bP c #848778",
"#Y c #849683",
".N c #85837f",
"bt c #859987",
".0 c #878680",
"cG c #888883",
"b3 c #89837f",
"cz c #8a8f88",
"#X c #8b9a88",
"ae c #8c9c8e",
".8 c #8d8d8b",
"#M c #8e8d89",
"#e c #8f8e8b",
"#L c #91908d",
".Q c #969693",
"#d c #979691",
"bY c #997f97",
"aO c #a49ea3",
"cy c #aaa3a3",
"#7 c #adb8ac",
"ao c #b9f39f",
"aE c #c6d1c8",
"bl c #c7d0c5",
"aN c #cce0c9",
"a9 c #cfd9d0",
"ba c #d0dbcf",
"ar c #d3d9d5",
"ac c #d3e7ce",
"#5 c #d4e8d1",
"a3 c #dce3dc",
"aW c #e1e7e1",
"aD c #f1f6ef",
"ad c #f9f9f9",
"aq c #fbfbfb",
"ap c #fcfffc",
"#6 c #fff2fc",
"Qt.#.a.b.c.d.e.f.g.h.i.i.i.i.i.i.i.i.i.i.i.i.i.i.i.i.i.i.i.i.i.j.i.i.k.i.i.i.i.i",
".l.m.e.n.o.p.q.r.s.t.i.i.k.i.i.i.i.i.i.i.k.i.i.i.i.i.i.i.k.i.i.i.i.i.i.i.i.i.i.i",
".u.v.m.w.x.y.z.A.B.C.i.i.i.j.i.i.i.k.i.i.i.i.i.i.i.k.i.i.i.j.i.i.i.k.i.i.i.i.i.i",
".D.E.F.x.G.p.H.I.J.K.i.i.i.i.i.i.i.i.i.i.i.k.i.i.j.j.i.i.i.i.i.i.i.i.i.i.i.k.i.i",
".L.M.M.N.O.P.p.Q.R.S.i.i.i.i.i.i.i.i.i.i.i.i.i.k.j.j.i.i.i.i.i.i.i.i.i.i.i.i.i.k",
".T.U.V.W.X.Y.Z.0.1.2.i.i.i.i.i.j.i.i.i.i.i.i.i.i.i.i.i.i.i.i.i.j.i.i.i.i.i.i.i.i",
".3.4.5.6.7.8.9.1#.##.i.i.i.i.i.i.i.i.j.j.i.i.i.i.i.i.i.i.i.i.i.i.i.i.j.j.i.i.i.i",
"#a#b#c#d#e#f#g#h#i#j.i.i.i.i.i.k.i.i.j.j.i.i.i.i.i.i.i.i.i.i.i.k.i.i.j.j.i.i.i.i",
"#k.F#l#m#n#o#p#q#r#s.k.i.i.i.i.i.i.i.i.i.i.k.i.j.i.i.k.i.i.i.i.i.i.i.i.i.i.k.i.j",
"#t#u#v#w#x#y#z#A#B#C.i.i.i.i.i.i.i.i.i.i.i.i.i.i.i.i.i.i.i.i.i.i.i.i.i.i.i.i.i.i",
"#D#E#F#G#H#..E#I.w#JQt.#.a.b.c.d.e.f.g.h.i.j.i.i.i.k.i.i.i.i.i.i.i.k.i.i.i.j.i.i",
"#K.R#L#M#N.H#O#P#Q#y.l.m.e.n.o.p.q.r.s.t.i.i.i.i.i.i.i.i.i.k.i.i.j.j.i.i.i.i.i.i",
"#R#S#T#U#F#V#K#W#x#s.u.v.m.w.x.y.z.A.B.C.i.i.i.i.i.i.i.i.i.i.i.k.j.j.i.i.i.i.i.i",
"#X#Y#Z#0#1.p#E#2#3#4.D.E.F.x.G.p.H.I.J.K.i.i.i.j.i.i.i.i.i.i.i.i.i.i.i.i.i.i.i.j",
"#5#6#7#8#9a.a#.Q.R.K.L.M.M.N.O.P.p.Q.R.S.i.i.i.i.i.i.j.j.i.i.i.i.i.i.i.i.i.i.i.i",
"aaabacadaeafagahaiaj.T.U.V.W.X.Y.Z.0.1.2.i.i.i.k.i.i.j.j.i.i.i.i.i.i.i.i.i.i.i.k",
"akalamanaoapaqarasatau.4.5.6.7.8.9.1#.##.i.i.i.i.i.i.i.i.i.k.i.j.i.i.k.i.i.i.i.i",
"avawaxayazaAaBaCaDaEaFaG#c#d#e#f#g#h#i#j.i.i.i.i.i.i.i.i.i.i.i.i.i.i.i.i.i.i.i.i",
"aHaIaIaJaxaxaKaLaMaNaOaPaQ#m#n#o#p#q#r#s.i.i.i.i.i.k.i.i.i.j.i.i.i.k.i.i.i.i.i.i",
"aRaIaIaSaxaxaxaTaUaVaWaXaY#w#x#y#z#A#B#C.i.k.i.i.j.j.i.i.i.i.i.i.i.i.i.i.i.k.i.i",
"aZaIaIa0aSa1a1a1a1a2a3a4#F#G#H#..E#I.w#JQt.#.a.b.c.d.e.f.g.h.i.i.i.i.i.i.i.i.i.k",
"a5aIaIaIaIa6a1a1a7a8a9b.#L#M#N.H#O#P#Q#y.l.m.e.n.o.p.q.r.s.t.i.j.i.i.i.i.i.i.i.i",
"b#aIaIa0aIa6a1a1a1a8babb#T#U#F#V#K#W#x#s.u.v.m.w.x.y.z.A.B.C.i.i.i.i.j.j.i.i.i.i",
"alaIaIaIbcbda1a1a1aUbabebfbg#1.p#E#2#3#4.D.E.F.x.G.p.H.I.J.K.i.k.i.i.j.j.i.i.i.i",
"bhaIaIaIbibja1a1a1bkblbmbnbo#Ua.a#.Q.R.K.L.M.M.N.O.P.p.Q.R.S.i.i.i.i.i.i.i.k.i.j",
"bha0aIbpa7bqbra1a1bsbtbu.V.W.X.Y.Z.0.1.2.T.U.V.W.X.Y.Z.0.1.2.i.i.i.i.i.i.i.i.i.i",
"bhbvbwbxbybzbzbAbBbCbDbE.5.6.7.8.9.1#.##.3.4.5.6.7.8.9.1#.##.i.i.i.k.i.i.i.j.i.i",
"bFbvaSbGbHbzbHbIbJbKbL.g#c#d#e#f#g#h#i#j#a#b#c#d#e#f#g#h#i#j.i.i.j.j.i.i.i.i.i.i",
"bMaIbzbzbzbzbNbObPbQbR.F#l#m#n#o#p#q#r#s#k.F#l#m#n#o#p#q#r#s.i.k.j.j.i.i.i.i.i.i",
"bSbzbTbzbUbVbWbXbYbZ#t#u#v#w#x#y#z#A#B#C#t#u#v#w#x#y#z#A#B#C.i.i.i.i.i.i.i.i.i.j",
"b0bzbTbUbrb1b2b3b4aj#D#E#F#G#H#..E#I.w#J#D#E#F#G#H#..E#I.w#JQt.#.a.b.c.d.e.f.g.h",
"bTbzbzb5b6b7b8b9c.c##K.R#L#M#N.H#O#P#Q#y#K.R#L#M#N.H#O#P#Q#y.l.m.e.n.o.p.q.r.s.t",
"bTbzcacbcccdcebLcf#s#R#S#T#U#F#V#K#W#x#s#R#S#T#U#F#V#K#W#x#s.u.v.m.w.x.y.z.A.B.C",
"bzbrcgchcicjckcl#3#4cmcnbfbg#1.p#E#2#3#4cmcnbfbg#1.p#E#2#3#4.D.E.F.x.G.p.H.I.J.K",
"bWcbb6cocpcqcr.Q.R.K#hcsbnbo#Ua.a#.Q.R.K#hcsbnbo#Ua.a#.Q.R.K.L.M.M.N.O.P.p.Q.R.S",
"ctchcucvcwcx.Z.0.1.2.T.U.V.W.X.Y.Z.0.1.2.T.U.V.W.X.Y.Z.0.1.2.T.U.V.W.X.Y.Z.0.1.2",
"cyczcAcBcC.8.9.1#.##.3.4.5.6.7.8.9.1#.##.3.4.5.6.7.8.9.1#.##.3.4.5.6.7.8.9.1#.##",
"cDcEcFcG#e#f#g#h#i#j#a#b#c#d#e#f#g#h#i#j#a#b#c#d#e#f#g#h#i#j#a#b#c#d#e#f#g#h#i#j",
"#k.F#l#m#n#o#p#q#r#s#k.F#l#m#n#o#p#q#r#s#k.F#l#m#n#o#p#q#r#s#k.F#l#m#n#o#p#q#r#s",
"#t#u#v#w#x#y#z#A#B#C#t#u#v#w#x#y#z#A#B#C#t#u#v#w#x#y#z#A#B#C#t#u#v#w#x#y#z#A#B#C"};
