/* XPM */
static char * 10_xpm[] = {
"40 40 203 2",
"  	c None",
". 	c #565264",
"+ 	c #656273",
"@ 	c #838290",
"# 	c #9494A0",
"$ 	c #8C8B99",
"% 	c #5B5668",
"& 	c #4B4859",
"* 	c #615D6F",
"= 	c #E9E8EA",
"- 	c #F6F8EF",
"; 	c #DCDAE0",
"> 	c #D2D3E2",
", 	c #FBFFF5",
"' 	c #ACACB4",
") 	c #473E52",
"! 	c #3B3348",
"~ 	c #575365",
"{ 	c #5D5A6B",
"] 	c #A6A3AC",
"^ 	c #F9F9F8",
"/ 	c #C0C5D2",
"( 	c #454545",
"_ 	c #505050",
": 	c #434343",
"< 	c #414141",
"[ 	c #D0D2E1",
"} 	c #F9F9F9",
"| 	c #92909C",
"1 	c #494357",
"2 	c #534F62",
"3 	c #555163",
"4 	c #4F4A5E",
"5 	c #5B5869",
"6 	c #5D5969",
"7 	c #918F97",
"8 	c #D6D5D8",
"9 	c #FFFFFF",
"0 	c #FFFEFD",
"a 	c #C9CBCE",
"b 	c #444444",
"c 	c #555555",
"d 	c #5E5E5E",
"e 	c #5C5C5C",
"f 	c #3C3C3C",
"g 	c #3D3D3D",
"h 	c #595959",
"i 	c #A5B3DF",
"j 	c #FCFCFE",
"k 	c #FBFBFB",
"l 	c #D8D7DB",
"m 	c #645F71",
"n 	c #545063",
"o 	c #504C5F",
"p 	c #73707E",
"q 	c #DCDCE0",
"r 	c #999BB3",
"s 	c #777EA7",
"t 	c #707070",
"u 	c #525252",
"v 	c #616161",
"w 	c #5F5F5F",
"x 	c #494949",
"y 	c #3A3A3A",
"z 	c #3B3B3B",
"A 	c #797EA6",
"B 	c #F0F1F5",
"C 	c #C9C7CE",
"D 	c #585465",
"E 	c #4E4A5D",
"F 	c #514D5E",
"G 	c #E3E3E8",
"H 	c #393939",
"I 	c #545454",
"J 	c #626262",
"K 	c #636363",
"L 	c #606060",
"M 	c #CACBDA",
"N 	c #A3A4A0",
"O 	c #494659",
"P 	c #534F60",
"Q 	c #E7E7ED",
"R 	c #3F3F3F",
"S 	c #535353",
"T 	c #363636",
"U 	c #E1E1E5",
"V 	c #3D3A4F",
"W 	c #545062",
"X 	c #464646",
"Y 	c #373737",
"Z 	c #DCDCE1",
"` 	c #3C394E",
" .	c #E3E3EB",
"..	c #4E4E4E",
"+.	c #D1D0D7",
"@.	c #38354C",
"#.	c #E4E4EB",
"$.	c #4B4B4B",
"%.	c #CFCFD7",
"&.	c #312F48",
"*.	c #E6E5EC",
"=.	c #4C4C4C",
"-.	c #4F4F4F",
";.	c #5A5A5A",
">.	c #5D5D5D",
",.	c #383838",
"'.	c #282641",
").	c #D8D7DF",
"!.	c #4A4A4A",
"~.	c #5B5B5B",
"{.	c #C5C6CD",
"].	c #272641",
"^.	c #DFDEE2",
"/.	c #515151",
"(.	c #484848",
"_.	c #888694",
":.	c #24223E",
"<.	c #A8A9A9",
"[.	c #404040",
"}.	c #797F8A",
"|.	c #4F4B5D",
"1.	c #1D1C37",
"2.	c #474453",
"3.	c #6E6C79",
"4.	c #AAACAC",
"5.	c #575757",
"6.	c #303030",
"7.	c #797C77",
"8.	c #22203C",
"9.	c #0A0A14",
"0.	c #474252",
"a.	c #97979A",
"b.	c #6F6F6F",
"c.	c #474747",
"d.	c #4D4D4D",
"e.	c #3E3E3E",
"f.	c #7B8285",
"g.	c #36344A",
"h.	c #17162D",
"i.	c #272634",
"j.	c #615F6E",
"k.	c #A4A6A5",
"l.	c #424242",
"m.	c #2C2C2C",
"n.	c #959886",
"o.	c #1F1E3A",
"p.	c #919196",
"q.	c #AAAEAE",
"r.	c #313131",
"s.	c #353535",
"t.	c #818884",
"u.	c #2A2842",
"v.	c #0C0B16",
"w.	c #464356",
"x.	c #A9ACA9",
"y.	c #8C94AF",
"z.	c #343434",
"A.	c #646464",
"B.	c #525060",
"C.	c #1A1932",
"D.	c #000000",
"E.	c #181626",
"F.	c #32314A",
"G.	c #A2A6A1",
"H.	c #666671",
"I.	c #090912",
"J.	c #5F5D6A",
"K.	c #A6ABA6",
"L.	c #333333",
"M.	c #6A6973",
"N.	c #292843",
"O.	c #030203",
"P.	c #121122",
"Q.	c #7D7E83",
"R.	c #909599",
"S.	c #6F6E77",
"T.	c #2B2944",
"U.	c #06060C",
"V.	c #1C1B2F",
"W.	c #88888D",
"X.	c #AFB3AD",
"Y.	c #76777D",
"Z.	c #2D2B45",
"`.	c #06060B",
" +	c #1A192D",
".+	c #5A5868",
"++	c #999C9A",
"@+	c #AEB2AC",
"#+	c #999E9B",
"$+	c #A3A8A3",
"%+	c #898A8E",
"&+	c #676671",
"*+	c #272540",
"=+	c #030305",
"-+	c #020204",
";+	c #0F0E1B",
">+	c #1B1B32",
",+	c #585766",
"'+	c #666571",
")+	c #484559",
"!+	c #211F38",
"~+	c #020102",
"{+	c #010102",
"                                                                                ",
"                                                                                ",
"                                                                                ",
"                                                                                ",
"                                                                                ",
"                                                                                ",
"                                                                                ",
"                                                                                ",
"                                . . + @ # $ % &                                 ",
"                              . * = - ; > , ' ) !                               ",
"                      . . ~ { ] ^ / ( _ : < [ } | 1 2 3 . 4                     ",
"                  5 6 7 8 9 0 a b c d e _ f g h i j k l m n o                   ",
"                3 p q r s t : u e v d w x y y z z < x A B C D E                 ",
"                F G b y H I e v J K K L x H H H y y z y e M N O                 ",
"                P Q y R S J K v K K K v < H H y y y y H T y U V                 ",
"                W Q H X u h w K K K K v g H H H y H H H H Y Z `                 ",
"                3  .y ..u c h v J K K v R H H H H H H H y Y +.@.                ",
"                . #.z _ u $.h e v K K v f H H H H H H H H Y %.&.                ",
"                . *.z =._ ..-.;.>.L L v f H H H y ,.H H H T %.'.                ",
"                3 ).y : _ -.!.c h ~.L v g H H H y f H H H T {.].                ",
"                W ^.f f /.-.$.(._ h >.v g H H H y g z H H ,._.:.                ",
"                P <.J H x -.-.!.x c ;.;.g H H y [.< < z y }.|.1.                ",
"                2.3.4.f < ..-...x x 5.;.g H y < [.< [.f 6.7.8.9.                ",
"                  0.a.b.H c.$.-.!.d.d.h e.H < < < < H ,.f.g.h.                  ",
"                  i.j.k./.R (.-.-.-._ I : < l.< < y Y m.n.o.                    ",
"                      p.q.r.e.x -._ I I l.< l.< z s.6.t.u.v.                    ",
"                      w.x.y.T e.d.I I I l.< < f s.z.A.B.C.D.                    ",
"                      E.F.G.x z [.u I I l.< g T Y 5.H.8.D.                      ",
"                        I.J.K.r.e.< u I < z T L.L M.N.O.                        ",
"                          P.Q.R.H R [.d.Y T s.c S.T.U.                          ",
"                          D.V.W.X.L H r.Y L.v Y.Z.`.                            ",
"                            D. +.+++@+#+$+%+&+*+=+                              ",
"                              -+;+>+].,+'+)+!+~+                                ",
"                                  D.{+-+-+~+D.                                  ",
"                                                                                ",
"                                                                                ",
"                                                                                ",
"                                                                                ",
"                                                                                ",
"                                                                                "};
