/* XPM */
static char *dummy[]={
"40 40 18 1",
". c None",
"l c #000000",
"n c #000033",
"o c #330033",
"f c #333333",
"b c #333366",
"g c #663366",
"# c #666666",
"i c #666699",
"m c #669999",
"a c #999999",
"e c #9999cc",
"p c #99cc99",
"h c #99cccc",
"d c #cccccc",
"j c #ccccff",
"k c #ffccff",
"c c #ffffff",
"........................................",
"........................................",
"........................................",
"........................................",
"........................................",
"........................................",
"........................................",
"........................................",
"................###aaa#b................",
"...............##ccddcebf...............",
"...........####acdccccdcab###g..........",
".........##adccdcccccccchccd##g.........",
".......###deiccccccccccccccicd#g........",
".......##jcccccccccccccccccccdab........",
".......b#cccccccccccccccccccccdb........",
".......b#cccccccccccccccccccccdb........",
".......b#jccccccccccccccccccccdf........",
".......b#jccccccccccccccccccccdf........",
".......b#kccccccccccccccccccccdf........",
".......b#dccccccccccccccccccccdf........",
".......b#dccccccccccccccccccccaf........",
".......b#acccccccccccccccccccigf........",
"........b#acccccccccccccccccd#fl........",
".........bacccccccccccccccccmfn.........",
".........f#acccccccccccccccdaf..........",
"...........aacccccccccccccdafl..........",
"...........baaccccccccccccc#ol..........",
"...........nfacccccccccccc#fl...........",
"............l#acccccccccc#fl............",
".............niacccccccc#fl.............",
".............lfapccdccc#fl..............",
"..............lo#aaaaa#fl...............",
"...............lnff##bfl................",
".................llllll.................",
"........................................",
"........................................",
"........................................",
"........................................",
"........................................",
"........................................"};
