/* XPM */
static char *dummy[]={
"40 40 1028 2",
"m1 c #3d372c",
"lh c #463f32",
"hI c #453f32",
"ds c #443e31",
"ob c #28231a",
"jA c #423b30",
"f0 c #413b30",
"lg c #6a6557",
"cV c #2c251b",
"nV c #322c20",
"ft c #2b2319",
"hH c #6a6456",
"ay c #332d21",
"hh c #2c251b",
"ja c #2b2419",
"a1 c #3d372c",
"dr c #696455",
"kV c #2c251b",
"mE c #2b2419",
"lf c #635d4f",
"hG c #645f50",
"dq c #666051",
"cU c #3f382c",
"m0 c #585042",
"jz c #615a4c",
"fZ c #625c4d",
"hg c #3f382c",
"cT c #3d372c",
"hf c #3e382c",
"kU c #3f382c",
"fs c #362e23",
"j# c #362f24",
"kT c #3f392d",
"mD c #373024",
"jS c #020d5e",
"i7 c #03135a",
"kb c #041163",
"lS c #051263",
"j5 c #061365",
"l. c #071567",
"kt c #08166a",
"ks c #09176b",
"ka c #09176c",
"kN c #0a186c",
"k9 c #0a186d",
"ko c #0a196c",
"jR c #0a196e",
"kO c #0a1a6c",
"lT c #0a1a6f",
"jv c #0a1a70",
"fI c #0a1d70",
"lR c #0b1c6f",
"gv c #0b1e71",
"ix c #0b1e72",
"hR c #0b1e73",
"hE c #0c1a6f",
"ju c #0c1b71",
"fH c #0c1e72",
"hu c #0c1f75",
"jQ c #0d1d73",
"g8 c #0d2073",
"ia c #0d2075",
"iZ c #0d2076",
"ib c #0d2077",
"i6 c #0d207c",
"gS c #0e1c70",
"gE c #0e1c71",
"iH c #0e1d72",
"kJ c #0e1e74",
"iG c #0e1e75",
"ik c #0e1f76",
"gc c #0e247d",
"lu c #0f1c68",
"gj c #0f1c70",
"iD c #0f1d71",
"gT c #0f1d72",
"hZ c #0f1f75",
"kr c #0f2078",
"kM c #0f2079",
"j6 c #0f227c",
"kp c #0f227d",
"h0 c #10185d",
"gk c #101860",
"gF c #101961",
"gU c #101962",
"ii c #101b6b",
"il c #101c5b",
"iC c #101c6d",
"fR c #101c6e",
"fi c #101d71",
"fj c #101e72",
"ij c #102077",
"jJ c #10237f",
"kK c #10247f",
"lw c #102481",
"gD c #111c68",
"fQ c #111c69",
"iB c #111d68",
"hD c #111d6a",
"gi c #111d6b",
"hY c #111d6c",
"fh c #111d6e",
"eO c #111f71",
"hc c #112073",
"lv c #11237d",
"i0 c #112580",
"k8 c #112583",
"fk c #121e6e",
"gC c #122172",
"hX c #122173",
"i3 c #122174",
"jt c #122175",
"gR c #122379",
"iE c #12247d",
"i5 c #12247e",
"gh c #122580",
"hS c #122986",
"ei c #122987",
"i4 c #13257f",
"jP c #132680",
"iF c #132681",
"jO c #132782",
"k# c #132783",
"eg c #132b8c",
"gw c #132c8b",
"fP c #132f95",
"fg c #13309b",
"fS c #141e68",
"eP c #14216e",
"jN c #142884",
"fa c #142981",
"eK c #142a86",
"eh c #1438ac",
"jo c #152c8e",
"jK c #152e8f",
"fT c #161d5e",
"ie c #162e8d",
"iy c #163094",
"j7 c #163095",
"fb c #163bb5",
"gl c #171d5e",
"iz c #173094",
"jq c #173195",
"hU c #173196",
"jp c #173298",
"hv c #173397",
"lx c #17349b",
"kq c #17359b",
"fJ c #173db5",
"eL c #173eba",
"id c #183297",
"h. c #183299",
"jr c #18349a",
"gO c #18369f",
"hy c #1836a1",
"if c #1838a5",
"fl c #19256e",
"hx c #19359b",
"i1 c #19359c",
"hT c #19369d",
"j8 c #19369e",
"jL c #1937a2",
"j9 c #1937a3",
"g9 c #1938a2",
"kL c #193bab",
"i2 c #1940bc",
"js c #1942c3",
"h# c #1943c2",
"gQ c #1943c3",
"ig c #1944c5",
"iA c #1944c7",
"ej c #1a266f",
"fG c #1a2979",
"hw c #1a38a1",
"ic c #1a38a4",
"jM c #1a3db0",
"k. c #1a3db1",
"hV c #1a3eb2",
"gy c #1a43c2",
"hz c #1a45c1",
"hW c #1a46c8",
"fc c #1a47c9",
"ha c #1a47ca",
"fK c #1a47cc",
"eN c #1a47cd",
"hA c #1a48cb",
"ih c #1a48cc",
"gx c #1b3ba9",
"gd c #1b3cab",
"gP c #1b3eaf",
"fe c #1b49d0",
"eM c #1b49d2",
"gz c #1b4ad1",
"ff c #1b4bcf",
"hB c #1b4bd2",
"fO c #1b4bd4",
"hC c #1b4bd6",
"hb c #1b4dd6",
"fd c #1c4dd7",
"gg c #1c4dd9",
"gB c #1c4ed8",
"ge c #1c4eda",
"fL c #1c4edb",
"fM c #1d50db",
"gA c #1d50dc",
"gf c #1d50dd",
"fN c #1d50de",
"iK c #1f1d37",
"mu c #1f1e31",
"jU c #1f1e3a",
"mt c #201c20",
"n5 c #211e17",
"kw c #211f33",
"n7 c #221e17",
"i9 c #22203b",
"n8 c #23201a",
"kI c #232e75",
"n6 c #24201a",
"nW c #24211b",
"mz c #242137",
"in c #24223e",
"o# c #26221b",
"l8 c #26232f",
"oa c #27231b",
"me c #272540",
"mv c #272640",
"h2 c #272641",
"n3 c #28241c",
"n4 c #28241d",
"hF c #282641",
"fm c #282e6c",
"jI c #283988",
"nX c #29241d",
"lb c #292843",
"kd c #2a2842",
"nM c #2b261c",
"nR c #2b261d",
"nZ c #2b261e",
"nY c #2b271e",
"lA c #2b2944",
"mB c #2c251b",
"cK c #2c271e",
"o. c #2c271f",
"iQ c #2d271c",
"cO c #2d271e",
"n2 c #2d2820",
"lN c #2d2a35",
"lW c #2d2b45",
"mm c #2e271d",
"kE c #2e281f",
"n1 c #2e2920",
"n9 c #2e2a21",
"cs c #2f281d",
"gZ c #2f291d",
"e0 c #30291d",
"iN c #302a1d",
"n0 c #302c22",
"mk c #312a1d",
"he c #312f48",
"kg c #322c20",
"k5 c #322f2e",
"kG c #32314a",
"bY c #332c20",
"ao c #332c22",
"nH c #332d22",
"ly c #333d75",
"av c #342c22",
"jh c #352f25",
"nm c #353024",
"cP c #353027",
"nA c #363025",
"cL c #363027",
"ny c #363125",
"cB c #363127",
"jx c #36344a",
"eQ c #364280",
"aa c #372f22",
"mi c #373023",
"eD c #373024",
"bw c #373025",
"mL c #373026",
"gp c #373125",
"jZ c #373126",
"mO c #373127",
"g5 c #373128",
"at c #373129",
"g0 c #373228",
"eu c #383124",
"iq c #383125",
"cI c #383227",
"mV c #383228",
"ap c #383229",
"kF c #383329",
"gW c #38354c",
"l2 c #393224",
"l4 c #393225",
"fB c #393328",
"kz c #393329",
"e2 c #39332a",
"dZ c #3a3326",
"fr c #3a3327",
"cC c #3a3328",
"lD c #3a3426",
"j. c #3a3427",
"an c #3a3428",
"aR c #3a3429",
"nS c #3a352a",
"mC c #3b3427",
"g1 c #3b3428",
"cH c #3b3429",
"cJ c #3b3529",
"e5 c #3b352a",
"nN c #3b362b",
"kP c #3b3f69",
"cE c #3c3529",
"g4 c #3c352a",
"cg c #3c362a",
"mA c #3c362b",
"nI c #3c372b",
"gH c #3c394e",
"lQ c #3c4987",
"cM c #3d3529",
"cD c #3d3629",
"#7 c #3d362a",
"iP c #3d362b",
"kD c #3d372b",
"gn c #3d3a4f",
"iw c #3d4c8f",
"g3 c #3e362a",
"g2 c #3e372a",
"#3 c #3e372b",
"#W c #3e372c",
"iW c #3e382b",
"e6 c #3e382c",
"aq c #3f372c",
"kA c #3f382b",
"au c #3f382c",
"cG c #3f382d",
"ar c #3f392c",
"ax c #3f392d",
"kZ c #3f392e",
"k4 c #3f392f",
"aw c #3f3a2f",
"lr c #3f3a37",
"fU c #3f447c",
"#H c #40382a",
"l0 c #40382b",
"er c #40382c",
"e3 c #40392d",
"kC c #40392e",
"iT c #403a2d",
"hm c #403a2f",
"nU c #41392d",
"nJ c #413a2d",
"nQ c #413a2e",
"nO c #413b2d",
"mp c #413b2e",
"iU c #413b2f",
"m9 c #413b30",
"lU c #414b77",
"d9 c #423a2c",
"ip c #423a2d",
"nL c #423a2e",
"eC c #423b2d",
"cQ c #423c2f",
"mq c #423c30",
"d. c #423c31",
"l# c #424b73",
"h6 c #433b2d",
"lH c #433b2e",
"nT c #433b2f",
"cN c #433c2f",
"cF c #433c30",
"iS c #433c31",
"iR c #433e32",
"mh c #443c2e",
"mo c #443d31",
"ms c #443d32",
"cR c #443e31",
"mn c #444033",
"aH c #444037",
"eZ c #453e2e",
"nK c #453e2f",
"cS c #453e31",
"kR c #453f31",
"e4 c #453f32",
"mr c #454034",
"iM c #463e2f",
"mj c #463f2f",
"cr c #463f31",
"kB c #463f32",
"iO c #464032",
"kS c #464033",
"## c #473f30",
"gY c #473f31",
"cf c #474031",
"cm c #474032",
"iV c #474033",
"ml c #474133",
"kl c #474354",
"am c #484034",
"#C c #484132",
"bT c #484133",
"as c #484134",
"al c #484234",
"bn c #484235",
"jl c #484350",
"my c #484559",
"bO c #494133",
"dU c #494136",
"nP c #494233",
"#w c #494234",
"e1 c #494335",
"bh c #494336",
"nu c #4a4133",
"dQ c #4a4150",
"eY c #4a4233",
"j2 c #4a4234",
"lB c #4a4236",
"#o c #4a4335",
"f9 c #4a4337",
"ku c #4a4f71",
"iL c #4b4334",
"dD c #4b4337",
"nn c #4b4434",
"d2 c #4b4436",
"nz c #4b4534",
"nB c #4b4535",
"fX c #4b4856",
"d8 c #4c4334",
"lo c #4c4438",
"mM c #4c4537",
"hL c #4c4538",
"h5 c #4d4435",
"lj c #4d4539",
"lG c #4e4435",
"nt c #4e4535",
"nG c #4e4536",
"#V c #4e4637",
"mF c #4e4638",
"en c #4e4754",
"le c #4e483a",
"jn c #4e5b90",
"nF c #4f4636",
"#2 c #4f4637",
"#6 c #4f4738",
"iJ c #4f4b5d",
"c. c #504839",
"f# c #505b94",
"lF c #514738",
"i. c #51473a",
"bN c #514837",
"bS c #514838",
"cc c #514939",
"ki c #51493a",
"eq c #514a4d",
"cn c #514b3d",
"eX c #514b44",
"kf c #524838",
"d7 c #524839",
"j1 c #524938",
"a. c #524939",
"nq c #524a38",
"gJ c #524a39",
"dR c #524a49",
"do c #524c3d",
"ch c #524c3e",
"b9 c #524d3e",
"fE c #524e5c",
"iu c #524e5e",
"kv c #525060",
"lZ c #534939",
"gX c #534a3a",
"np c #534b39",
"ce c #534b3a",
"jg c #534b3e",
"nw c #534c39",
"eA c #534c3a",
"#5 c #534c3b",
"ji c #534c3e",
"#Y c #534d3b",
"gK c #534e3f",
"mS c #534f43",
"ga c #534f60",
"eW c #534f61",
"it c #54493b",
"eB c #544a3a",
"cl c #544b3a",
"c# c #544b3b",
"gL c #544b3c",
"ns c #544c3a",
"cp c #544c3b",
"ey c #544d3b",
"jb c #544d3e",
"fA c #544d3f",
"mR c #544d40",
"ep c #544d52",
"gI c #544e40",
"gu c #545062",
"l6 c #554b3a",
"mg c #554b3b",
"m2 c #554c3a",
"#Z c #554c3b",
"ck c #554c3c",
"n. c #554d3a",
"kx c #554d3b",
"fC c #554e3f",
"kh c #554f40",
"gM c #555163",
"cd c #564d3c",
"aQ c #564f41",
"eo c #565057",
"ir c #56513e",
"l5 c #56523e",
"mQ c #565245",
"g6 c #565264",
"#9 c #574d3e",
"cq c #574e3d",
"#S c #57503d",
"mI c #575042",
"mX c #575142",
"ea c #575153",
"mJ c #575245",
"mH c #575246",
"mW c #575346",
"#U c #584e3d",
"lJ c #584f3b",
"lM c #584f3c",
"ky c #584f3d",
"#n c #584f3e",
"nC c #58503b",
"h8 c #58503c",
"nv c #58513c",
"ev c #58513d",
"aV c #585142",
"jd c #585144",
"mT c #585345",
"de c #585460",
"fq c #585465",
"mw c #585766",
"ew c #594f3d",
"#v c #594f3e",
"et c #59503c",
"nr c #59503d",
"nD c #59503e",
"no c #59513c",
"dY c #59513d",
"h4 c #59513e",
"aS c #595243",
"mU c #595244",
"jy c #595344",
".6 c #595346",
"eb c #595359",
"nx c #5a503d",
"io c #5a503e",
"l3 c #5a503f",
"a# c #5a513e",
"#0 c #5a523e",
"es c #5a5240",
"nE c #5a5241",
"kY c #5a5244",
"bv c #5a5341",
"aI c #5a5343",
"mK c #5a5344",
"mN c #5a5345",
"#X c #5a5446",
".3 c #5a5447",
"#8 c #5a5545",
"#4 c #5a5547",
"eE c #5a5557",
"l9 c #5a5868",
"ci c #5b513e",
"#F c #5b523f",
"dX c #5b5241",
"ez c #5b533f",
"jY c #5b5342",
"ld c #5b5345",
"go c #5b5442",
"hl c #5b5446",
"mZ c #5b5447",
"ex c #5b5547",
".U c #5b5548",
"mP c #5b5648",
"#T c #5c523f",
"dT c #5c5240",
"dB c #5c5241",
"#G c #5c533e",
"ca c #5c533f",
"dF c #5c5341",
"h3 c #5c5342",
"gt c #5c5441",
"jf c #5c5546",
"je c #5c564a",
"k3 c #5c5749",
"d1 c #5d523f",
"#r c #5d533f",
"#z c #5d5340",
"li c #5d5341",
"dC c #5d5342",
"kj c #5d5440",
"lq c #5d5442",
"ln c #5d5443",
"nd c #5d5542",
"fx c #5d5547",
"c9 c #5d5647",
"mG c #5d5749",
"dw c #5d574a",
"aC c #5d574e",
"dj c #5d5865",
"#m c #5e523f",
"is c #5e5440",
"lY c #5e5441",
"dG c #5e5443",
"bI c #5e5540",
"cb c #5e5541",
"dW c #5e5542",
"hK c #5e5544",
"co c #5e5642",
"mf c #5e5643",
"hP c #5e5645",
"dn c #5e5647",
"e. c #5e5742",
"k0 c #5e5747",
"fz c #5e5748",
"dI c #5e5856",
"ak c #5e594d",
"bP c #5f5540",
"l1 c #5f5640",
"bV c #5f5641",
"kk c #5f5642",
"cj c #5f5643",
"hN c #5f5644",
"dA c #5f5645",
"lI c #5f5742",
"nl c #5f5746",
"aM c #5f5749",
"lL c #5f5843",
"fY c #5f5848",
"aX c #5f5849",
"dp c #5f594b",
"jc c #5f594c",
"fD c #5f594f",
"aN c #5f5a4c",
"jk c #5f5a4d",
"ec c #5f5b65",
"k6 c #5f5d6a",
"lK c #605541",
"h9 c #605641",
"ll c #605645",
"l7 c #605743",
"e# c #605744",
"m8 c #605745",
"dV c #605844",
"aP c #60594a",
"jj c #60594c",
"dd c #605950",
"hn c #605a4a",
"fy c #605a4b",
"mY c #605a4d",
"dJ c #605c6a",
"bW c #615741",
"h7 c #615840",
"bJ c #615841",
"#1 c #615944",
"lC c #615945",
"aU c #615a4a",
"hj c #615a4c",
"aO c #615b4c",
"dc c #615b4d",
"dk c #615c54",
"jG c #615f6d",
"gs c #625842",
"#A c #625942",
"nk c #625946",
"ke c #625a48",
"aZ c #625b4b",
"dl c #625b4d",
"c7 c #625c4d",
"fw c #625c4e",
"k2 c #625c4f",
"eV c #625d6e",
"#s c #635942",
"d5 c #635943",
"m5 c #635a44",
"bu c #635b47",
"lc c #635b4c",
"a0 c #635c4c",
"kW c #635e51",
".G c #64594c",
"na c #645a44",
"bM c #645a45",
"nj c #645b44",
"bR c #645b45",
"bU c #645b46",
"#l c #645b47",
"jX c #645c47",
"kX c #645c4c",
"hs c #645d4e",
"aY c #645d4f",
"aL c #645e50",
"df c #64606e",
"m6 c #655b48",
"bH c #655c46",
"#u c #655c47",
"#B c #655c48",
"bg c #655d49",
"hk c #655d4d",
"aW c #655e50",
"#R c #655e52",
"ho c #655f50",
"hq c #655f51",
"hi c #656052",
"hr c #656053",
"nf c #665b48",
"#k c #665c47",
"#E c #665c48",
"gr c #665d47",
"d0 c #665d48",
"lm c #665d49",
"f8 c #665d4a",
"dS c #665e4a",
".9 c #665f4c",
"#j c #665f53",
"fu c #666051",
"mx c #666571",
"kQ c #666671",
"lX c #675c47",
"j0 c #675e47",
"dz c #675e4a",
"hJ c #675e4b",
"#. c #675f4b",
"c8 c #675f4f",
"dm c #67604f",
"fv c #676052",
"gq c #67614d",
"bG c #67614e",
"d# c #676151",
"db c #676153",
"c6 c #676254",
"md c #676671",
"d6 c #685d48",
"lE c #685d49",
"bQ c #685e48",
"dH c #685e4a",
"#t c #685f48",
"#y c #685f49",
"#q c #685f4a",
"ni c #68604a",
"ng c #68604d",
"ne c #68614b",
"k1 c #686153",
"aJ c #686253",
"bL c #695f49",
"hO c #695f4a",
"d4 c #69604a",
"nb c #69604d",
"m7 c #69614e",
"n# c #69624c",
"#D c #69624f",
"aT c #696253",
"aK c #696254",
"bq c #6a614a",
"bf c #6a614c",
"f7 c #6a614d",
"g# c #6a614e",
"m3 c #6a624c",
".5 c #6a624e",
".1 c #6a624f",
"nc c #6a634f",
"hp c #6a6354",
"la c #6a6973",
"bc c #6b614b",
"bK c #6b614c",
"f3 c #6b624b",
"bX c #6b624c",
"jD c #6b624d",
".S c #6b624f",
"dy c #6b634c",
"nh c #6b634f",
".Z c #6c634c",
"m4 c #6c644f",
"du c #6c6451",
"bs c #6c6551",
"da c #6c6556",
".g c #6c6960",
"bb c #6d644e",
"bt c #6d654f",
"jW c #6d6550",
"jV c #6d6552",
"f1 c #6d6752",
"iX c #6d6b78",
"bp c #6e644e",
"jB c #6e654f",
"ba c #6e6752",
"bi c #6e6852",
"jE c #6e6853",
"bl c #6f6652",
"bo c #6f6853",
"e7 c #6f6c79",
"lz c #6f6e77",
"be c #706752",
"jF c #706755",
"bj c #706851",
"f5 c #706853",
"f4 c #706856",
"dE c #706952",
"hM c #706953",
"d3 c #706b58",
".X c #716852",
"jC c #716853",
"bd c #716856",
"bk c #716857",
"g. c #716952",
"f2 c #716953",
"br c #716957",
"lk c #716a53",
"lp c #716a54",
".8 c #716a55",
"#p c #716b58",
"#x c #716b59",
"dx c #726a53",
"f6 c #726a54",
".Y c #726a55",
".2 c #726c59",
"b8 c #726e63",
"bm c #736b55",
".R c #736b56",
".T c #736c59",
".0 c #746c57",
".Q c #746c58",
"dv c #746d5a",
"dt c #756d59",
"lV c #76777d",
"cA c #777469",
"f. c #777ea7",
"bF c #787468",
"#Q c #797367",
"i8 c #797c77",
"fn c #797ea6",
"iI c #797f8a",
"jw c #7b8285",
"dg c #7c7a86",
".W c #7d7560",
".P c #7d786d",
"b# c #7d7a6e",
"ls c #7d7e83",
".l c #7f7163",
"az c #807c72",
"aG c #817f74",
"kc c #818884",
".B c #827163",
".u c #827263",
"ad c #827d70",
"aB c #847e73",
"#i c #847f73",
"ae c #868173",
"aD c #87857b",
"aA c #888377",
"di c #888691",
"im c #888694",
"lO c #88888d",
"af c #898376",
"ag c #898477",
"ah c #898478",
"mc c #898a8e",
"ac c #8a8376",
"b2 c #8a867a",
"aj c #8a867b",
"ab c #8b867a",
"#P c #8c877b",
"#O c #8c887a",
"aF c #8c8a80",
"kn c #8c94af",
"b7 c #8d887c",
".7 c #8d8978",
"#h c #8d897c",
"c0 c #8d8c81",
"b0 c #8e8a7e",
"eF c #8e8c92",
"dh c #8e8d96",
"em c #8f8d97",
"lt c #909599",
".i c #918574",
".E c #91897a",
".j c #91897b",
"aE c #918e84",
"j3 c #919196",
".q c #928777",
"bA c #928e80",
".A c #938675",
".t c #938a7b",
"#g c #938e80",
"ai c #938e82",
".V c #93907d",
"b1 c #939083",
"cy c #939084",
".k c #948675",
".z c #948b7b",
"bZ c #948e81",
".4 c #94917e",
".F c #958675",
"a5 c #958f83",
"by c #959082",
"a6 c #959287",
"jT c #959886",
".w c #968d7e",
".o c #968d7f",
".h c #968f81",
"c5 c #969384",
"bz c #979486",
"bB c #979488",
"b3 c #97948a",
"jm c #97979a",
"b6 c #989384",
".s c #998774",
".r c #999081",
".y c #999082",
"cx c #999488",
"bD c #999586",
"#L c #999587",
"e9 c #999bb3",
"m. c #999c9a",
"ma c #999e9b",
".D c #9a8a7a",
".b c #9a9b93",
"#K c #9b9587",
"#N c #9b9688",
"a4 c #9b9689",
"b5 c #9b9888",
"b. c #9b988b",
".d c #9b9b92",
"a3 c #9c988a",
"Qt c #9c9d96",
".N c #9d9a8f",
".f c #9d9e95",
"bx c #9e9b8c",
"cz c #9e9c91",
".e c #9fa097",
".C c #a0998c",
"#J c #a09b8c",
"#f c #a09c8d",
".O c #a09e93",
"cv c #a09f95",
".n c #a29381",
"a2 c #a29e90",
"ed c #a29ea6",
".# c #a2a39b",
"kH c #a2a6a1",
".v c #a39481",
"ct c #a3a298",
"fW c #a3a4a0",
"mb c #a3a8a3",
"a9 c #a4a194",
".c c #a4a59d",
"jH c #a4a6a5",
".p c #a59586",
".x c #a59686",
".a c #a5a69f",
"eR c #a5b3df",
"cu c #a6a59b",
"k7 c #a6aba6",
".m c #a79e8e",
"#e c #a7a494",
"bE c #a7a495",
"#c c #a7a497",
"a8 c #a8a698",
"iv c #a8a9a9",
"#b c #a9a597",
"km c #a9aca9",
"#d c #aaa797",
"cw c #aaa89d",
".M c #aaa89f",
"iY c #aaacac",
"j4 c #aaaeae",
"#M c #aba99a",
"cZ c #abaa9c",
"dP c #acacb4",
".L c #adaba0",
"cX c #aeada0",
"m# c #aeb2ac",
"lP c #afb3ad",
"#I c #b0aea1",
"#a c #b2b0a2",
"cY c #b2b2a5",
"b4 c #b3b0a2",
".K c #b3b1a7",
"bC c #b3b2a3",
"c3 c #b6b5a9",
"c4 c #b6b6aa",
".J c #b7b7ae",
"cW c #b7b8ad",
".I c #b9b8af",
"c2 c #b9baad",
"a7 c #babaaf",
"c1 c #bdbfb2",
".H c #c0c1ba",
"ef c #c0c5d2",
"h1 c #c5c6cd",
"fp c #c9c7ce",
"eJ c #c9cbce",
"fV c #cacbda",
"hd c #cfcfd7",
"ek c #d0d2e1",
"gV c #d1d0d7",
"eG c #d2d1d4",
"dN c #d2d3e2",
"eU c #d4d3d7",
"hQ c #d8d7df",
"dM c #dcdae0",
"e8 c #dcdce0",
"gG c #dcdce1",
"i# c #dfdee2",
"gm c #e1e1e5",
"fF c #e3e3e8",
"gN c #e3e3eb",
"g7 c #e4e4eb",
"ht c #e6e5ec",
"gb c #e7e7ed",
"dK c #e9e8ea",
"fo c #f0f1f5",
"dL c #f6f8ef",
"ee c #f9f9f8",
"el c #f9f9f9",
"eT c #fbfbfb",
"dO c #fbfff5",
"eS c #fcfcfe",
"eI c #fffefd",
"eH c #ffffff",
"Qt.#.#.a.b.c.d.e.f.g.h.i.j.k.l.m.n.o.p.q.r.s.t.k.u.m.v.w.x.q.y.s.z.A.B.C.D.E.F.G",
".H.I.J.K.L.L.M.N.O.P.Q.R.S.T.U.V.W.X.Y.Z.Q.0.1.2.3.4.W.X.Y.Z.Q.Q.5.2.6.7.8.9#.##",
"#a#b#c#d#e#f#g#h#i#j#k#l#m#n#o#p#q#r#s#t#k#u#m#v#w#x#y#z#A#t#u#B#m#v#C#D#E#F#G#H",
"#I#J#K#L#M#N#O#P#Q#R#S#T#U#V#W#X#Y#Z#0#1#S#T#U#2#3#4#5#Z#0#1#S#T#U#6#7#8#9a.a#aa",
"abacadaeafagahaiajakalam#3anaoapaqar#Wasalam#3anaoatauauaqasasam#3anavawaxau#7ay",
"azajaAaBaCaDaEaFaGaHaIaJaKaLaMaNaOaPaQaRaSaJaTaLaMaNaOaUaQaRaVaJaTaWaXaYaZa0aOa1",
"a2a3a4a5a6a7a8a9b.b#ba.Xbbbcbdbe.Ybfbgbhbibjbbbcbkblbmbfbgbnbobjbpbqbrbsbtbubvbw",
"bxbybzbAbBbCbDbEa3bFbGbHbIbJbKbLbM#rbNbObGbHbPbJbKbQbR#rbSbTbGbUbVbWbXbQbR#rbSbY",
"bZb0b1b2b3b4b5b6b7b8b9c.c#cacbcccdcecfcgchc.c#cicjccckclcmcgcnc.c##Tcocpcqa.crcs",
"ctcuctcvctcwcxcyczcAcBcCcDcEcFcGcHcIcJcKcLcCcDcMcNcGcHcIcJcOcPcCcDcMcQcRcScTcUcV",
"cWcXcYcZc0c1c2c3c4c5c6c7c8c9d.aZd#dadbdcc6dddedfdgdhdidjdkdcc6dldmdnd.dodpdqdrds",
"dt.0dudvdw.V.Wdx.RdydzdAdBdCdDdEdFdG#ldHdIdJdKdLdMdNdOdPdQdRdSdAdTdCdUdVdWdXdYdZ",
"d0#ld1#vd2d3d4d1d5#td6#zd7d8d9e.e#eaebecedeeefegeheiejekelemeneoepeqeresbP#zeteu",
"ev#zew#VcGexey#Zez#1eA#veBeCeDeEeFeGeHeIeJeKeLeMeNeheOePeQeReSeTeUeVeWeXcceYeZe0",
"e1as#3cJaoe2aue3au#we4cDe5e6e7e8e9f.f#fafbfcfdfefffgfhfifjfkflfmfnfofpfqcHfrfsft",
"aSfufvfwfxdwfyfzfAfBfCfwfDfEfFfGfHfIfJfKfdfLfMfNfOfPfQfQfRfififSfTfUfVfWfXfYfZf0",
"f1f2bbf3f4f5f6f7f8f9big.g#gagbfHgcgdgegfggfNfNfNfdghfQfQgifififigjgkglgmgngobvgp",
"gqgrbIgsbKbLbMd1bS#wbGgrgtgugbgvgwgxgygzgAfNfNfNgBgCfQfQgDgigEgEgEgEgFgGgH#rbSbY",
"gIcc#Z#rdWgJcqclcrcggKccgLgMgNfHgOgxgPgQgBfLgffNgBgRfQfQfQfQgSgEgEgTgUgVgWgXgYgZ",
"g0g1g2g3cRaxg4cIcgcOg5cH#3g6g7g8g9gxh.h#hahbfNfNgBhcfQfQgDfQgSgEgEgEgUhdhehfhghh",
"hihjhkhlhmhnhohphqdphrhjhsg6hthuhvhwhxhyhzhAhBhCfdeOfQfQfQhDhEgEgEgEgkhdhFhGhHhI",
"hJhKdFdChLhMdFhN#BhOdzhPdXgMhQhRhShwhThUhVh#hWhBfdhXfQfQfQhYhZgEgEgEh0h1h2h3h4dZ",
"d6#zbSh5h6e.h7h8h9bcd6#zi.gui#iaibichTidieifigihfdhXgDfQiigTijikgEgEilimin#zeteu",
"eyioeBipiqireAc#ise#ey#vitiuiviwixiyhThThUizhViAiAhXiBiCiDiEiFiFiGiHiIiJiKiLiMiN",
"iOg2iP#3iQiRiSiTiUiViOg2#7iWiXiYiZi0i1hThxizizi2iAi3iBgii4i5iFi5i6i7i8i9g1j.j#ja",
"jbjcjcjcjdjeexjfjgjhjijjjcjkjljmjnfIjojphTjqjrjrjsjtfQiFiFiFiFjujvjwjx.3jyfYjzjA",
"badxjBbXbdjC.YjDf8f9jEf2jBf3jFjGjHjIjJjKhThThTjLjMjNiFjOiFjPjQjRjSjTjUjVjWjXjYjZ",
"gqj0bIgsbKbLbMd1j1j2gqgrbPbJjDbLj3j4j5j6j7j8j9k.k.k#iFjOjPikkakbkckdkebQbR#rkfkg",
"khki#Zkjkkcecq#Zcf#7gIki#Z#rkkceklkmknkokpkqk.k.k.jOiFiFkrksktkukvkwkkkxkyclcmgZ",
"kzcEkAkAkBkC#7fBkDkEkFcEkAkAkBkCcHkGkHkIkJkKkLk.jMjOiFkMkNkOkPkQi9#7kRkScmkTkUkV",
"kWdpkXkYkZk0hsk1k2k3kWdpkXkYk4c9hsk5k6k7j5j6k8kLjMiFikk9l.l#lalblcldhmle.Ulflglh",
"hJhKlidCljlkh3lllmhOdzhKlilnlolplqlllrlsltlulvlwlxjRkNkslylzlAhKlidGlBlCcjh3h4lD",
"lE#zlFlGlHlIh7lJlKbcd6lid7h5iplLh7lMislNlOlPlQlRlSlTl.lUlVlWlXlYlZh5l0esl1#zetl2",
"kxl3eBipl4l5cpcpcbdVkxiol6eCeuircpcpisl7l8l9m.m#mambmcmdmemfkx#vmgmhmidokiiLmjmk",
"mlkA#WaummmnmompmqalmlkA#WariQmrmsmpmqalcrmtmumvmwmxmymzmAasbTl0#3axmBmCg3g1mDmE",
"mFjymGmHmImJ#XmKmImLmMjymGmHmImJ#XmNmImOd2mKmPmQmRmSmTmUmImV#omNk3mWmXmYmZjfm0m1",
"m2m3m4m5m6m7.5lqm8m9n.n#m4nam6nbncndm8m9n.nebtnanfngnhndm8m9n.nibtnjnfg#nhnknlnm",
"nnnonpnqnrewnsntnugpnnnvnwnqnxkym2nteYnynznvnwnqnxky#ZnteYnAnBnCnsj1nxnDnEnFnGnH",
"nInJnJnK#CarnLaufBnMnNnJnOnKnParnQaufBnRnNnJmpnKnParnJarfBnRnSiTmpnKnPiTnTnU#WnV",
"nWnXnYnZn0n1n2n3n4n5n6nXnYnZn0n1n2n4n4n7n6nXnYnZn0n1n2n4n4n7n8nXnZnZn0n9o.o#oaob"};
