/* XPM */
static char *dummy[]={
"40 40 117 2",
"Qt c #000000",
"#t c #333028",
"#Y c #353229",
"#U c #36332b",
"#z c #38352d",
"#w c #39362d",
".K c #393730",
".S c #3a372f",
"#y c #3e3c32",
"#A c #3f3c33",
".h c #424036",
".X c #424037",
".E c #444238",
"#g c #444239",
"#s c #44423a",
".i c #45433b",
".0 c #47433c",
"#O c #47443c",
"#Q c #47443e",
".x c #47453d",
"#x c #49483b",
"## c #49483f",
"#i c #4a4740",
".G c #4a4741",
".9 c #4a4840",
".L c #4b4a42",
".J c #4c493f",
".8 c #4c4a41",
"#n c #4c4b44",
".D c #4d4a43",
".2 c #4e4d43",
".r c #4f4d44",
"#G c #4f4d46",
".M c #4f4e46",
".t c #504d46",
".H c #504e47",
".B c #514e46",
"#R c #524f48",
"#D c #525047",
"#B c #525048",
".c c #53514a",
".C c #545149",
".a c #54524b",
".s c #55534a",
".V c #55544d",
".y c #56544c",
".3 c #56554b",
".W c #57554e",
"#r c #575649",
"#l c #57564b",
".N c #58554f",
".F c #58574f",
".# c #595650",
"#q c #5a5850",
"#L c #5a5852",
".w c #5b5851",
"#a c #5b5a51",
".P c #5c5a54",
".1 c #5c5c53",
".A c #5f5e56",
".b c #5f5e57",
".g c #615f58",
".j c #615f59",
"#X c #615f5a",
"#m c #61605b",
".q c #626059",
"#j c #65635b",
".k c #65635f",
"#p c #65645a",
"#. c #66645c",
".z c #66655d",
".d c #66655f",
"#P c #67665e",
"#M c #68665e",
".e c #68665f",
"#W c #686660",
".n c #696761",
"#S c #696860",
".Q c #696863",
".u c #6a6962",
"#v c #6b6964",
"#f c #6b6a66",
".o c #6c6a63",
"#h c #6c6b67",
"#e c #6d6d69",
".I c #6e6d65",
"#k c #6f6d63",
"#o c #6f6e66",
"#N c #706f65",
"#T c #706f67",
"#J c #716f68",
".4 c #717069",
"#V c #71706a",
".v c #74736c",
"#u c #75746c",
".O c #77746f",
".f c #787670",
"#C c #787672",
".5 c #7a7a74",
"#I c #7b7973",
"#H c #7b7a72",
"#d c #7b7a75",
".T c #7b7a76",
".7 c #7c7b76",
".p c #7d7c75",
"#K c #7e7d76",
".Y c #7e7d77",
".U c #82827e",
".Z c #86857f",
"#b c #898883",
"#c c #8c8b86",
".m c #8d8c88",
"#F c #8e8d89",
".l c #8f8f8b",
"#E c #90908c",
".6 c #959593",
".R c #969693",
"QtQtQtQtQtQtQtQtQtQtQtQtQtQtQtQtQtQtQtQtQtQtQtQtQtQtQtQtQtQt.#.a.b.c.d.e.f.g.h.i",
"QtQtQtQtQtQtQtQtQtQtQtQtQtQtQtQtQtQtQtQtQtQtQtQtQtQtQtQtQtQt.j.k.l.m.n.o.p.q.r.s",
"QtQtQtQtQtQtQtQtQtQtQtQtQtQtQtQtQtQtQtQtQtQtQtQtQtQtQtQtQtQt.t.u.v.w.x.y.z.A.B.C",
"QtQtQtQtQtQtQtQtQtQtQtQtQtQtQtQtQtQtQtQtQtQtQtQtQtQtQtQtQtQt.D.E.F.G.#.u.H.I.J.C",
"QtQtQtQtQtQtQtQtQtQtQtQtQtQtQtQtQtQtQtQtQtQtQtQtQtQtQtQtQtQt.K.L.M.N.O.P.Q.R.k.S",
"QtQtQtQtQtQtQtQtQtQtQtQtQtQtQtQtQtQtQtQtQtQtQtQtQtQtQtQtQtQt.T.U.#.V.W.X.Y.Z.a.0",
"QtQtQtQtQtQtQtQtQtQtQtQtQtQtQtQtQtQtQtQtQtQtQtQtQtQtQtQtQtQt.1.2.3.4.5.6.7.8.9#.",
"QtQtQtQtQtQtQtQtQtQtQtQtQtQtQtQtQtQtQtQtQtQtQtQtQtQtQtQtQtQt###a#b#c#d#e#f#g#h#i",
"QtQtQtQtQtQtQtQtQtQtQtQtQtQtQtQtQtQtQtQtQtQtQtQtQtQtQtQtQtQt.E#j.4#k#l#m#n#m#o#p",
"QtQtQtQtQtQtQtQtQtQtQtQtQtQtQtQtQtQtQtQtQtQtQtQtQtQtQtQtQtQt.X.I#q#r.h#s#t.o#u#v",
"QtQtQtQtQtQtQtQtQtQtQtQtQtQtQtQtQtQtQtQt.#.a.b.c.d.e.f.g.h.i#w#s#g#x#y#z#A#B.P#C",
"QtQtQtQtQtQtQtQtQtQtQtQtQtQtQtQtQtQtQtQt.j.k.l.m.n.o.p.q.r.s.X#D#E#F#G.H#H#I.#.Q",
"QtQtQtQtQtQtQtQtQtQtQtQtQtQtQtQtQtQtQtQt.t.u.v.w.x.y.z.A.B.C.a#J#K#L#A#D#M#N.0.8",
"QtQtQtQtQtQtQtQtQtQtQtQtQtQtQtQtQtQtQtQt.D.E.F.G.#.u.H.I.J.C#O.F#P#Q#R#S.H#T#w#g",
"QtQtQtQtQtQtQtQtQtQtQtQtQtQtQtQtQtQtQtQt.K.L.M.N.O.P.Q.R.k.S#U#V#S#L#W#L.Q.R#X#Y",
"QtQtQtQtQtQtQtQtQtQtQtQtQtQtQtQtQtQtQtQt.T.U.#.V.W.X.Y.Z.a.0.T.U.#.V.W.X.Y.Z.a.0",
"QtQtQtQtQtQtQtQtQtQtQtQtQtQtQtQtQtQtQtQt.1.2.3.4.5.6.7.8.9#..1.2.3.4.5.6.7.8.9#.",
"QtQtQtQtQtQtQtQtQtQtQtQtQtQtQtQtQtQtQtQt###a#b#c#d#e#f#g#h#i###a#b#c#d#e#f#g#h#i",
"QtQtQtQtQtQtQtQtQtQtQtQtQtQtQtQtQtQtQtQt.E#j.4#k#l#m#n#m#o#p.E#j.4#k#l#m#n#m#o#p",
"QtQtQtQtQtQtQtQtQtQtQtQtQtQtQtQtQtQtQtQt.X.I#q#r.h#s#t.o#u#v.X.I#q#r.h#s#t.o#u#v",
"QtQtQtQtQtQtQtQtQtQt.#.a.b.c.d.e.f.g.h.i#w#s#g#x#y#z#A#B.P#C#w#s#g#x#y#z#A#B.P#C",
"QtQtQtQtQtQtQtQtQtQt.j.k.l.m.n.o.p.q.r.s.X#D#E#F#G.H#H#I.#.Q.X#D#E#F#G.H#H#I.#.Q",
"QtQtQtQtQtQtQtQtQtQt.t.u.v.w.x.y.z.A.B.C.a#J#K#L#A#D#M#N.0.8.a#J#K#L#A#D#M#N.0.8",
"QtQtQtQtQtQtQtQtQtQt.D.E.F.G.#.u.H.I.J.C#O.F#P#Q#R#S.H#T#w#g#O.F#P#Q#R#S.H#T#w#g",
"QtQtQtQtQtQtQtQtQtQt.K.L.M.N.O.P.Q.R.k.S#U#V#S#L#W#L.Q.R#X#Y#U#V#S#L#W#L.Q.R#X#Y",
"QtQtQtQtQtQtQtQtQtQt.T.U.#.V.W.X.Y.Z.a.0.T.U.#.V.W.X.Y.Z.a.0.T.U.#.V.W.X.Y.Z.a.0",
"QtQtQtQtQtQtQtQtQtQt.1.2.3.4.5.6.7.8.9#..1.2.3.4.5.6.7.8.9#..1.2.3.4.5.6.7.8.9#.",
"QtQtQtQtQtQtQtQtQtQt###a#b#c#d#e#f#g#h#i###a#b#c#d#e#f#g#h#i###a#b#c#d#e#f#g#h#i",
"QtQtQtQtQtQtQtQtQtQt.E#j.4#k#l#m#n#m#o#p.E#j.4#k#l#m#n#m#o#p.E#j.4#k#l#m#n#m#o#p",
"QtQtQtQtQtQtQtQtQtQt.X.I#q#r.h#s#t.o#u#v.X.I#q#r.h#s#t.o#u#v.X.I#q#r.h#s#t.o#u#v",
".#.a.b.c.d.e.f.g.h.i#w#s#g#x#y#z#A#B.P#C#w#s#g#x#y#z#A#B.P#C#w#s#g#x#y#z#A#B.P#C",
".j.k.l.m.n.o.p.q.r.s.X#D#E#F#G.H#H#I.#.Q.X#D#E#F#G.H#H#I.#.Q.X#D#E#F#G.H#H#I.#.Q",
".t.u.v.w.x.y.z.A.B.C.a#J#K#L#A#D#M#N.0.8.a#J#K#L#A#D#M#N.0.8.a#J#K#L#A#D#M#N.0.8",
".D.E.F.G.#.u.H.I.J.C#O.F#P#Q#R#S.H#T#w#g#O.F#P#Q#R#S.H#T#w#g#O.F#P#Q#R#S.H#T#w#g",
".K.L.M.N.O.P.Q.R.k.S#U#V#S#L#W#L.Q.R#X#Y#U#V#S#L#W#L.Q.R#X#Y#U#V#S#L#W#L.Q.R#X#Y",
".T.U.#.V.W.X.Y.Z.a.0.T.U.#.V.W.X.Y.Z.a.0.T.U.#.V.W.X.Y.Z.a.0.T.U.#.V.W.X.Y.Z.a.0",
".1.2.3.4.5.6.7.8.9#..1.2.3.4.5.6.7.8.9#..1.2.3.4.5.6.7.8.9#..1.2.3.4.5.6.7.8.9#.",
"###a#b#c#d#e#f#g#h#i###a#b#c#d#e#f#g#h#i###a#b#c#d#e#f#g#h#i###a#b#c#d#e#f#g#h#i",
".E#j.4#k#l#m#n#m#o#p.E#j.4#k#l#m#n#m#o#p.E#j.4#k#l#m#n#m#o#p.E#j.4#k#l#m#n#m#o#p",
".X.I#q#r.h#s#t.o#u#v.X.I#q#r.h#s#t.o#u#v.X.I#q#r.h#s#t.o#u#v.X.I#q#r.h#s#t.o#u#v"};
