/* XPM */
static char *dummy[]={
"40 40 126 2",
".i c #000000",
".h c #29231d",
".A c #2a251f",
".r c #2a2620",
".Q c #2f2c26",
"#2 c #302b25",
"#A c #302b26",
".I c #302c26",
".0 c #312d27",
".9 c #312d28",
"#x c #333028",
"#H c #36332c",
".H c #37342a",
".8 c #38342c",
".z c #38352b",
".J c #38352d",
"#f c #39352e",
"#q c #3a372f",
"#D c #3b3930",
".q c #3c3a2f",
"#G c #3d3a32",
"#F c #3e3c31",
".C c #3e3c33",
"#w c #3e3c34",
".B c #3f3b33",
"#1 c #3f3c32",
"#h c #413d38",
"#V c #413e34",
"#y c #413e35",
".v c #413e36",
".W c #414037",
"#v c #424036",
"#O c #434138",
".s c #444138",
".u c #444239",
"#E c #464539",
"#Y c #47433d",
".g c #48453b",
"## c #4a463c",
".b c #4a483a",
"#P c #4a483e",
".Z c #4c4941",
"#n c #4c4b44",
".2 c #4d4a40",
"#5 c #4d4a43",
"#W c #4d4c43",
".a c #4e4c3e",
".D c #4e4c42",
"#L c #4e4d45",
"#r c #504e45",
".F c #504e46",
"#C c #504e47",
"#u c #514f43",
"#Z c #514f48",
"#t c #515046",
"#T c #525047",
".l c #545247",
".w c #55534a",
".E c #55534c",
".U c #55544d",
"#o c #56534e",
".# c #565449",
".V c #56554e",
"#j c #57554b",
".p c #58564d",
"#z c #59574e",
".t c #59584e",
".T c #595851",
"#m c #595853",
".m c #5a5850",
"#S c #5b5952",
"#X c #5b5a51",
"#g c #5b5a55",
".c c #5c5a4f",
"#l c #5c5b51",
"#p c #5d5b53",
".y c #5d5c52",
".k c #5e5c53",
".f c #625f57",
".e c #626057",
".P c #62605c",
"#6 c #62615a",
"#4 c #63625a",
".N c #64625c",
".x c #64635b",
".j c #65635a",
"#a c #65645a",
"#i c #666459",
"#. c #67665b",
"#I c #68665e",
".K c #686660",
"#7 c #696863",
".n c #6a6862",
"#Q c #6c6a64",
"#U c #6c6b60",
".3 c #6c6b63",
"#3 c #6c6b65",
"#s c #6d6b62",
"#e c #6d6c68",
".G c #6e6d65",
"#0 c #706f67",
".5 c #71706a",
".d c #737169",
".M c #74736d",
"#d c #757571",
"#N c #77756f",
".1 c #77776c",
"Qt c #79776f",
"#R c #797870",
".4 c #797872",
".S c #7a7a77",
"#k c #7b7971",
"#M c #7b7a72",
".7 c #7b7b76",
".X c #7e7d77",
".R c #81807d",
".o c #828179",
"#B c #84827d",
".L c #85837f",
".Y c #878680",
".6 c #8d8d8b",
"#K c #8e8d89",
"#c c #8f8e8b",
"#J c #91908d",
".O c #969693",
"#b c #979691",
"Qt.#.a.b.c.d.e.f.g.h.i.i.i.i.i.i.i.i.i.i.i.i.i.i.i.i.i.i.i.i.i.i.i.i.i.i.i.i.i.i",
".j.k.e.l.m.n.o.p.q.r.i.i.i.i.i.i.i.i.i.i.i.i.i.i.i.i.i.i.i.i.i.i.i.i.i.i.i.i.i.i",
".s.t.k.u.v.w.x.y.z.A.i.i.i.i.i.i.i.i.i.i.i.i.i.i.i.i.i.i.i.i.i.i.i.i.i.i.i.i.i.i",
".B.C.D.v.E.n.F.G.H.I.i.i.i.i.i.i.i.i.i.i.i.i.i.i.i.i.i.i.i.i.i.i.i.i.i.i.i.i.i.i",
".J.K.K.L.M.N.n.O.P.Q.i.i.i.i.i.i.i.i.i.i.i.i.i.i.i.i.i.i.i.i.i.i.i.i.i.i.i.i.i.i",
".R.S.T.U.V.W.X.Y.Z.0.i.i.i.i.i.i.i.i.i.i.i.i.i.i.i.i.i.i.i.i.i.i.i.i.i.i.i.i.i.i",
".1.2.3.4.5.6.7.Z.8.9.i.i.i.i.i.i.i.i.i.i.i.i.i.i.i.i.i.i.i.i.i.i.i.i.i.i.i.i.i.i",
"#.###a#b#c#d#e#f#g#h.i.i.i.i.i.i.i.i.i.i.i.i.i.i.i.i.i.i.i.i.i.i.i.i.i.i.i.i.i.i",
"#i.D#j#k#l#m#n#o#p#q.i.i.i.i.i.i.i.i.i.i.i.i.i.i.i.i.i.i.i.i.i.i.i.i.i.i.i.i.i.i",
"#r#s#t#u#v#w#x#y#z#A.i.i.i.i.i.i.i.i.i.i.i.i.i.i.i.i.i.i.i.i.i.i.i.i.i.i.i.i.i.i",
"#B#C#D#E#F.8.C#G.u#HQt.#.a.b.c.d.e.f.g.h.i.i.i.i.i.i.i.i.i.i.i.i.i.i.i.i.i.i.i.i",
"#I.P#J#K#L.F#M#N#O#w.j.k.e.l.m.n.o.p.q.r.i.i.i.i.i.i.i.i.i.i.i.i.i.i.i.i.i.i.i.i",
"#P#Q#R#S#D#T#I#U#v#q.s.t.k.u.v.w.x.y.z.A.i.i.i.i.i.i.i.i.i.i.i.i.i.i.i.i.i.i.i.i",
"#V#W#X#Y#Z.n#C#0#1#2.B.C.D.v.E.n.F.G.H.I.i.i.i.i.i.i.i.i.i.i.i.i.i.i.i.i.i.i.i.i",
"#f#3#4#5#S#6#7.O.P.I.J.K.K.L.M.N.n.O.P.Q.i.i.i.i.i.i.i.i.i.i.i.i.i.i.i.i.i.i.i.i",
".R.S.T.U.V.W.X.Y.Z.0.R.S.T.U.V.W.X.Y.Z.0.i.i.i.i.i.i.i.i.i.i.i.i.i.i.i.i.i.i.i.i",
".1.2.3.4.5.6.7.Z.8.9.1.2.3.4.5.6.7.Z.8.9.i.i.i.i.i.i.i.i.i.i.i.i.i.i.i.i.i.i.i.i",
"#.###a#b#c#d#e#f#g#h#.###a#b#c#d#e#f#g#h.i.i.i.i.i.i.i.i.i.i.i.i.i.i.i.i.i.i.i.i",
"#i.D#j#k#l#m#n#o#p#q#i.D#j#k#l#m#n#o#p#q.i.i.i.i.i.i.i.i.i.i.i.i.i.i.i.i.i.i.i.i",
"#r#s#t#u#v#w#x#y#z#A#r#s#t#u#v#w#x#y#z#A.i.i.i.i.i.i.i.i.i.i.i.i.i.i.i.i.i.i.i.i",
"#B#C#D#E#F.8.C#G.u#H#B#C#D#E#F.8.C#G.u#HQt.#.a.b.c.d.e.f.g.h.i.i.i.i.i.i.i.i.i.i",
"#I.P#J#K#L.F#M#N#O#w#I.P#J#K#L.F#M#N#O#w.j.k.e.l.m.n.o.p.q.r.i.i.i.i.i.i.i.i.i.i",
"#P#Q#R#S#D#T#I#U#v#q#P#Q#R#S#D#T#I#U#v#q.s.t.k.u.v.w.x.y.z.A.i.i.i.i.i.i.i.i.i.i",
"#V#W#X#Y#Z.n#C#0#1#2#V#W#X#Y#Z.n#C#0#1#2.B.C.D.v.E.n.F.G.H.I.i.i.i.i.i.i.i.i.i.i",
"#f#3#4#5#S#6#7.O.P.I#f#3#4#5#S#6#7.O.P.I.J.K.K.L.M.N.n.O.P.Q.i.i.i.i.i.i.i.i.i.i",
".R.S.T.U.V.W.X.Y.Z.0.R.S.T.U.V.W.X.Y.Z.0.R.S.T.U.V.W.X.Y.Z.0.i.i.i.i.i.i.i.i.i.i",
".1.2.3.4.5.6.7.Z.8.9.1.2.3.4.5.6.7.Z.8.9.1.2.3.4.5.6.7.Z.8.9.i.i.i.i.i.i.i.i.i.i",
"#.###a#b#c#d#e#f#g#h#.###a#b#c#d#e#f#g#h#.###a#b#c#d#e#f#g#h.i.i.i.i.i.i.i.i.i.i",
"#i.D#j#k#l#m#n#o#p#q#i.D#j#k#l#m#n#o#p#q#i.D#j#k#l#m#n#o#p#q.i.i.i.i.i.i.i.i.i.i",
"#r#s#t#u#v#w#x#y#z#A#r#s#t#u#v#w#x#y#z#A#r#s#t#u#v#w#x#y#z#A.i.i.i.i.i.i.i.i.i.i",
"#B#C#D#E#F.8.C#G.u#H#B#C#D#E#F.8.C#G.u#H#B#C#D#E#F.8.C#G.u#HQt.#.a.b.c.d.e.f.g.h",
"#I.P#J#K#L.F#M#N#O#w#I.P#J#K#L.F#M#N#O#w#I.P#J#K#L.F#M#N#O#w.j.k.e.l.m.n.o.p.q.r",
"#P#Q#R#S#D#T#I#U#v#q#P#Q#R#S#D#T#I#U#v#q#P#Q#R#S#D#T#I#U#v#q.s.t.k.u.v.w.x.y.z.A",
"#V#W#X#Y#Z.n#C#0#1#2#V#W#X#Y#Z.n#C#0#1#2#V#W#X#Y#Z.n#C#0#1#2.B.C.D.v.E.n.F.G.H.I",
"#f#3#4#5#S#6#7.O.P.I#f#3#4#5#S#6#7.O.P.I#f#3#4#5#S#6#7.O.P.I.J.K.K.L.M.N.n.O.P.Q",
".R.S.T.U.V.W.X.Y.Z.0.R.S.T.U.V.W.X.Y.Z.0.R.S.T.U.V.W.X.Y.Z.0.R.S.T.U.V.W.X.Y.Z.0",
".1.2.3.4.5.6.7.Z.8.9.1.2.3.4.5.6.7.Z.8.9.1.2.3.4.5.6.7.Z.8.9.1.2.3.4.5.6.7.Z.8.9",
"#.###a#b#c#d#e#f#g#h#.###a#b#c#d#e#f#g#h#.###a#b#c#d#e#f#g#h#.###a#b#c#d#e#f#g#h",
"#i.D#j#k#l#m#n#o#p#q#i.D#j#k#l#m#n#o#p#q#i.D#j#k#l#m#n#o#p#q#i.D#j#k#l#m#n#o#p#q",
"#r#s#t#u#v#w#x#y#z#A#r#s#t#u#v#w#x#y#z#A#r#s#t#u#v#w#x#y#z#A#r#s#t#u#v#w#x#y#z#A"};
