/* XPM */
static char *dummy[]={
"40 40 651 2",
".2 c #00a15e",
"d5 c #32a579",
"Qt c #32a67a",
"c5 c #33a579",
"cu c #36a579",
"cc c #36a679",
"bW c #3aa579",
".# c #3fa578",
".I c #40a578",
".3 c #41a578",
"bd c #43a577",
"ge c #45a578",
"ig c #49421a",
"ih c #4a4424",
"h6 c #4b4718",
"gf c #4ca474",
"gg c #4da576",
"hT c #504b1b",
"if c #524c13",
"hq c #524e2f",
"hG c #559f55",
"c7 c #55a370",
"hB c #564f0f",
"c6 c #57a476",
"gA c #5a5b3c",
"c8 c #5aa675",
"#j c #5da472",
"#i c #5ea476",
"hi c #5f5e3f",
"ej c #63654d",
"gW c #659f62",
"f9 c #66624a",
"hw c #669e5b",
"dp c #67a996",
"bp c #67aa97",
"ez c #68684f",
"#k c #68a472",
"bc c #68a996",
"eO c #696950",
"e6 c #6a6a51",
"ii c #6b6856",
"h7 c #6d6c57",
"hJ c #6e6615",
"hC c #6e6e5c",
"hF c #6e9f64",
"hQ c #6ea163",
"dV c #6f6845",
"fb c #71a270",
"hZ c #72a36a",
"gP c #73715d",
"fc c #739c58",
"i# c #74a46c",
"hb c #789f5a",
"ho c #799f5d",
"bY c #7a994f",
"fd c #7ca160",
"gn c #7d7c6a",
"hY c #805900",
"cr c #817445",
"gt c #829d53",
"g7 c #835a00",
"gI c #839c59",
"hM c #845b09",
"cG c #857b52",
"hK c #85817c",
"fZ c #869b5a",
"bX c #869f67",
"cs c #877e58",
"dB c #88846a",
"bZ c #88a25b",
"cj c #897a15",
"cZ c #897b4b",
"#F c #8a7b18",
"fv c #8a9b4a",
"hl c #8b5d03",
"fD c #8b7c16",
"fM c #8b994d",
"cm c #8c7a1e",
"dw c #8c7e15",
"gh c #8d9d55",
"hX c #8e5e03",
"dZ c #8f5b02",
"hs c #8f6a1d",
"hU c #8f8e88",
"eA c #905c03",
"#E c #90801a",
"dY c #915e03",
"cg c #918317",
"en c #919540",
"fG c #925e02",
"ga c #925e03",
"e8 c #925e05",
".L c #928416",
"gX c #929540",
"ht c #936205",
"da c #936627",
"fR c #946004",
"hh c #948125",
"fB c #94851b",
"ci c #948618",
"eL c #948716",
"fn c #956003",
"h0 c #958716",
"cl c #958718",
".c c #958836",
"gp c #966104",
"eG c #969842",
"fS c #976204",
"dX c #976a13",
"dQ c #978719",
"ia c #97891b",
".b c #978a38",
"gY c #979941",
"cR c #98871b",
"eu c #988725",
"e1 c #988818",
"ck c #988a1d",
"d7 c #989334",
"g5 c #989791",
"eT c #98984e",
"fj c #994522",
"gm c #99732d",
"cY c #997f3b",
"cC c #998a1b",
"ch c #998a1f",
".K c #998c17",
"fC c #998c1a",
"dt c #998d16",
"b4 c #9a4021",
"b7 c #9a4120",
"f7 c #9a8d18",
"dv c #9a8d19",
"ev c #9b8530",
"af c #9b8825",
"a. c #9b892a",
"aE c #9b8b21",
"ed c #9b8c1a",
"hc c #9b8f18",
"gB c #9b9a97",
"fk c #9c492b",
"fP c #9c5f2d",
"bL c #9c8827",
"## c #9c8928",
"aT c #9c8929",
".R c #9c8b24",
"gO c #9c8e18",
"es c #9c8f17",
"fA c #9c9016",
"hL c #9c938f",
"by c #9d8c25",
"aL c #9d8e22",
"hx c #9d901a",
"hI c #9d901c",
"#G c #9d901e",
"bI c #9d9117",
"g0 c #9d9119",
"c9 c #9d9239",
"h8 c #9d999d",
"fE c #9e5a28",
"g8 c #9e6706",
"hW c #9e7835",
"et c #9e8932",
"#s c #9e8b25",
".J c #9e8b2c",
"#R c #9e8c26",
".d c #9e8c28",
"a2 c #9e8e26",
"d. c #9e8f1e",
"cN c #9e8f20",
"fh c #9e9019",
"gx c #9e9316",
"a0 c #9e932b",
"i. c #9e979c",
"dg c #9e9a89",
"eg c #9f200e",
"b5 c #9f4125",
"el c #9f6404",
"hm c #9f6806",
"hN c #9f6b09",
"db c #9f6b37",
"a7 c #9f8b27",
"#0 c #9f8d28",
".i c #9f8e24",
"al c #9f8e25",
"eW c #9f921a",
"gy c #9f921b",
"gJ c #9f9316",
"cB c #9f9317",
"gz c #9f931a",
"hA c #9f9417",
"#H c #9f9514",
"ct c #9f9575",
"fe c #9f9847",
"b8 c #a0422a",
"f8 c #a05e2c",
".4 c #a08b31",
"f0 c #a09121",
"cL c #a0921b",
"#S c #a09417",
"eK c #a09419",
"gi c #a0941a",
"hR c #a0941b",
".O c #a09517",
"eU c #a09518",
"aO c #a09614",
"f3 c #a09618",
"d6 c #a09c5e",
"hu c #a16a07",
"gl c #a18239",
"#D c #a18a3a",
"be c #a19028",
"dL c #a1933f",
"g3 c #a19419",
"#T c #a1941c",
"ff c #a19519",
"du c #a1951c",
"#J c #a19615",
"bv c #a19618",
"bf c #a19715",
"fO c #a19716",
"dG c #a2690b",
"gS c #a26b07",
"gq c #a26b08",
"ap c #a28e29",
"d9 c #a29033",
"hy c #a29419",
"hz c #a2941d",
"gk c #a29619",
"aA c #a29717",
"#r c #a29718",
"bs c #a29719",
"bi c #a29815",
"a6 c #a29818",
"d8 c #a29a3f",
"b2 c #a3902a",
"b0 c #a3902f",
"cv c #a39231",
"aw c #a39622",
"ds c #a39717",
"ie c #a39718",
"eH c #a39719",
"cz c #a3971a",
"dq c #a3973b",
"dP c #a39816",
"#p c #a39817",
"hg c #a39818",
"gL c #a3981a",
"eo c #a39915",
".f c #a39916",
"cP c #a39917",
"eb c #a39918",
"b3 c #a44e30",
"eM c #a45426",
"hO c #a46b07",
"d# c #a47a3d",
"gC c #a48148",
"#l c #a49031",
"bF c #a49131",
"f2 c #a4932a",
"cM c #a49422",
"f1 c #a49423",
"bq c #a49429",
"cd c #a49530",
"eV c #a4971b",
"dN c #a49817",
"aS c #a49818",
"#m c #a49819",
"aN c #a4981b",
"aQ c #a49916",
"fw c #a49917",
"a5 c #a49918",
"ax c #a49919",
"eq c #a49a15",
"h2 c #a49a16",
"f5 c #a49a17",
"eX c #a49a18",
"hH c #a4a265",
"b6 c #a54224",
"g4 c #a57235",
"#Z c #a59918",
"b1 c #a59919",
"bH c #a5991c",
"aR c #a59a17",
"br c #a59a18",
".Q c #a59a19",
"e. c #a59a1a",
"az c #a59b18",
"hr c #a5a0a7",
"hE c #a66d08",
"gR c #a67721",
"cX c #a68333",
"gZ c #a69943",
"#. c #a69a18",
"bx c #a69a19",
"ac c #a69b18",
".N c #a69b19",
"cx c #a69b1a",
"dM c #a69b1b",
"gN c #a69c17",
"gj c #a69c18",
"#L c #a69c19",
"he c #a69c1a",
"gv c #a69c1b",
"gQ c #a6a3a5",
"df c #a78537",
"gK c #a79a1a",
"h3 c #a79b18",
"bu c #a79b19",
"bG c #a79b1a",
"cw c #a79b1b",
"hp c #a79b1d",
"hd c #a79c17",
"bh c #a79c18",
".h c #a79c19",
"aD c #a79c1a",
".7 c #a79d18",
"ic c #a79d19",
"hf c #a79d1b",
"fl c #a83923",
"ee c #a8522d",
"g# c #a87f36",
"h5 c #a89c18",
"#V c #a89c19",
".5 c #a89c1a",
"#X c #a89c1b",
"h4 c #a89c1c",
".e c #a89d19",
"am c #a89d1a",
"fN c #a89d1b",
"cf c #a89e19",
"ab c #a89e1a",
"fH c #a96b08",
"dl c #a96e0b",
"dF c #a9884a",
"aM c #a99c19",
"cA c #a99c1b",
"h1 c #a99c1c",
"eJ c #a99c1d",
"aP c #a99d19",
"dO c #a99d1a",
"#o c #a99d1b",
"#q c #a99d1c",
".9 c #a99e19",
"g2 c #a99e1a",
"fy c #a99e1c",
".M c #a99e1d",
"fz c #a99f1c",
"ef c #aa260f",
"cK c #aa9546",
".a c #aa9759",
"gM c #aa9d1b",
".8 c #aa9e19",
"bJ c #aa9e1a",
"cy c #aa9e1b",
"a4 c #aa9e1c",
"ao c #aa9e1d",
"#U c #aa9f1a",
"ae c #aa9f1b",
"cQ c #aa9f1c",
"g. c #aaa8a8",
"dx c #ab4920",
"aZ c #ab974a",
"f4 c #ab9e1a",
"aa c #ab9e1c",
"an c #ab9e1d",
"eZ c #ab9f1a",
"ad c #ab9f1c",
"e0 c #ab9f1d",
".g c #ab9f1e",
"#W c #aba01b",
"er c #aba01d",
"bj c #aba01e",
"eI c #aba11d",
"ep c #aba11e",
"hS c #aba21d",
"e2 c #ac582c",
"eY c #ac9f1a",
"bK c #ac9f1c",
"a# c #ac9f1d",
"#Y c #aca01b",
".6 c #aca01c",
"#n c #aca01d",
"ea c #aca01e",
"bg c #aca01f",
"gw c #aca11d",
"#K c #aca11f",
"bt c #aca21d",
"fx c #aca21e",
"hD c #aca6ad",
"hj c #aca9ad",
"go c #acaaaa",
"fi c #ad7640",
"a1 c #ad9c3c",
"cO c #ada01c",
"fg c #ada01d",
"f6 c #ada01e",
"ec c #ada11e",
"bw c #ada21d",
"#I c #ada21f",
"gu c #ada31e",
"ce c #ada320",
"ib c #aea01e",
"e# c #aea11c",
"g1 c #aea11e",
"id c #aea11f",
".P c #aea31e",
"dr c #aea41f",
"h9 c #aeaab2",
"dc c #af3e26",
"cD c #af4323",
"ew c #af5631",
"eB c #af6d08",
"a3 c #afa31e",
"aC c #afa520",
"g6 c #afaaab",
"hV c #afabb3",
"aB c #b0a620",
"dR c #b1512b",
"c3 c #b17109",
"fV c #b1720c",
"ay c #b1a620",
"cS c #b24422",
"gD c #b2730a",
"c0 c #b2b099",
"gT c #b4720a",
"cn c #b54422",
"#1 c #b63518",
"dE c #b6a174",
"bz c #b83418",
"cF c #b88d2a",
".S c #b93519",
"aF c #ba3418",
"gb c #ba760b",
"gc c #ba780d",
"hk c #baa689",
"bM c #bb3015",
"g9 c #bb770b",
"gF c #bb770c",
"dD c #bbb197",
"b9 c #bc3116",
"aU c #bc3b19",
"fo c #bc740a",
"fJ c #bc780c",
"#M c #bd3418",
".j c #bd3518",
"fU c #bd790d",
"cU c #be2e09",
"bk c #be3518",
"aq c #be371a",
"eh c #bf2f10",
"gE c #bf780b",
"#a c #c0421b",
"gG c #c0780c",
"f. c #c07b0d",
"fq c #c1790d",
"hn c #c2770b",
"hP c #c2780a",
"#t c #c33a1b",
"gr c #c37b0d",
"fI c #c47a0c",
"h. c #c57a0c",
"a8 c #c8411d",
"eQ c #c87c0c",
"ag c #c9451d",
"fr c #c97c0b",
"gU c #ca7d0c",
"fp c #ca7e0e",
"cT c #cb2f0a",
"e9 c #cb7c0c",
"h# c #cc7f0c",
"fT c #cd800d",
"fW c #cf7e0b",
"dk c #d0ccc9",
"eC c #d4830e",
"hv c #d6820b",
"em c #d6830e",
"c4 c #d87f05",
"c2 c #d8ccbf",
"dh c #d8d7d0",
"e4 c #d94b0f",
"eR c #da830c",
"gV c #dc860c",
"e3 c #dd3e0d",
"cV c #de4f15",
"e5 c #de5213",
"fK c #de850b",
"ha c #de880c",
"bR c #df5110",
"ex c #e04f10",
"bO c #e05210",
"bN c #e15213",
"eN c #e15a15",
"fF c #e1e1d6",
"cJ c #e1e2d9",
"dy c #e26218",
"dC c #e2e1dc",
"d0 c #e38607",
"fQ c #e3e4de",
"cE c #e46818",
"dH c #e48707",
"dS c #e55111",
"bP c #e55914",
"co c #e66617",
"cq c #e6a114",
"dd c #e75c12",
"bQ c #e76619",
"dT c #ea6a16",
"dm c #ea8a07",
"dW c #eae9e3",
"bl c #eb6b12",
".k c #eb6c12",
"cH c #ebebe8",
"gs c #ec8c09",
"cI c #edecf9",
"cW c #eea012",
"e7 c #eeece4",
"fm c #eeeee4",
"eP c #efede3",
"ek c #f0eee7",
"fs c #f18b09",
"eD c #f28e09",
"dU c #f29b10",
"ei c #f39c0f",
"eS c #f48e07",
"f# c #f48f09",
"gH c #f49008",
"ey c #f59d0e",
"fX c #f78f08",
"dA c #f89f0d",
"c1 c #f8f8fa",
"gd c #f99107",
"fL c #fa9109",
"dI c #fb9008",
"dz c #fc9c0d",
"dj c #fcfeff",
"ft c #fd9007",
"fa c #fd9108",
"de c #fea20b",
"bU c #fea609",
"bV c #fea70b",
".l c #ff461e",
".T c #ff461f",
".U c #ff481e",
".m c #ff491e",
"#b c #ff4b1d",
".n c #ff4c1d",
"#N c #ff4d1d",
"#u c #ff4e1d",
".o c #ff4f1d",
"#2 c #ff501c",
".p c #ff511c",
"ah c #ff521c",
"#3 c #ff531c",
".q c #ff541c",
".r c #ff561b",
".V c #ff571b",
"ar c #ff581b",
".s c #ff591a",
"#c c #ff5a1a",
".t c #ff5b1a",
".W c #ff5c1a",
".u c #ff5d1a",
".X c #ff5f19",
".v c #ff6019",
".Y c #ff6119",
".w c #ff6219",
".Z c #ff6318",
".x c #ff6418",
"#v c #ff6518",
".y c #ff6618",
"#w c #ff6717",
".z c #ff6817",
".A c #ff6917",
"#x c #ff6a17",
".B c #ff6b17",
"#y c #ff6c16",
".C c #ff6d16",
"#z c #ff6e16",
".D c #ff6f16",
".E c #ff7016",
".F c #ff7115",
".G c #ff7215",
".H c #ff7315",
".0 c #ff7415",
"#d c #ff7515",
".1 c #ff7614",
"#4 c #ff7714",
"#e c #ff7814",
"#f c #ff7914",
"#g c #ff7a13",
"#h c #ff7b13",
"aG c #ff7c13",
"#A c #ff7d13",
"#B c #ff7e13",
"#C c #ff7f12",
"#O c #ff8012",
"#5 c #ff8112",
"#P c #ff8212",
"#Q c #ff8312",
"#6 c #ff8411",
"#7 c #ff8511",
"#8 c #ff8611",
"#9 c #ff8711",
"as c #ff8810",
"ai c #ff8910",
"aj c #ff8a10",
"d2 c #ff8b09",
"ak c #ff8b10",
"d3 c #ff8c0a",
"at c #ff8c10",
"d1 c #ff8d08",
"eF c #ff8d09",
"a9 c #ff8d0f",
"dJ c #ff8e08",
"au c #ff8e0f",
"fu c #ff8f07",
"dK c #ff8f08",
"av c #ff8f0f",
"d4 c #ff9008",
"aH c #ff900f",
"eE c #ff9108",
"aI c #ff910f",
"fY c #ff9207",
"dn c #ff9209",
"aJ c #ff920e",
"do c #ff9308",
"aK c #ff930e",
"aV c #ff940e",
"aW c #ff950e",
"aX c #ff960e",
"aY c #ff970d",
"b. c #ff980d",
"b# c #ff990d",
"ba c #ff9a0d",
"bb c #ff9b0c",
"bA c #ff9c0c",
"bm c #ff9d0c",
"bn c #ff9e0c",
"bo c #ff9f0c",
"bB c #ffa00b",
"bC c #ffa10b",
"bD c #ffa20b",
"bE c #ffa30b",
"cp c #ffa40b",
"bS c #ffa50a",
"bT c #ffa60a",
"c. c #ffa70a",
"c# c #ffa909",
"ca c #ffab09",
"cb c #ffac09",
"di c #ffffff",
"QtQt.#.a.b.c.d.e.f.g.h.i.j.k.l.m.n.o.p.q.r.s.t.u.v.w.x.y.z.A.B.C.C.D.E.F.G.G.G.H",
"QtQt.I.J.K.L.M.N.O.P.Q.R.S.T.U.n.o.p.q.V.s.W.X.Y.Z.y.z.A.B.C.D.E.G.H.0.0.1.1.1.1",
"Qt.2.3.4.5.6.7.8.6.9#.###a.U#b.o.p.q.V#c.u.X.w.x.y.A.B.C.D.F.G.0#d.1#e#f#f#g#h#h",
"#i#j#k#l#m#n#o#p.6#q#r#s#t#b#u.p.q.V#c.u.X.w#v#w#x#y#z.E.G.0.1#e#f#h#h#A#A#B#C#C",
"#D#E#F#G.e#H#I.e#J#K#L.i#M#N.p.q.V#c.u.X.w#v.z.B.C.D.G.0.1#e#g#h#A#B#O#O#P#P#P#Q",
"#R#S#T#U#V#q#W#V#X#Y#Z#0#1#2#3.r.s.u.X.w.y.A.B.C.E.H#d#4#f#h#A#C#5#P#6#6#7#8#9#9",
"a.#Va##L.eaaabacadae#pafagah.r.s.W.X.w#v.A.B#z.F.0.1#f#h#A#C#5#Q#6#8#9aiaiajakak",
"alam.han.N.han.N.eao.Qapaq.qar.t.X.w#v.z.B#z.F.0.1#f#h#B#O#P#6#9asajakatauauavav",
"aw#paxayazaAaB.haAaCaDaEaF.V.t.u.Y.x#w.B.C.F.0.1#faG#C#P#6#8asajatauavaHaIaJaJaK",
"aLaMaNaOaP#XaQ#V#XaRaSaTaU.s.u.v.Z.y#x.C.E.0.1#faG#C#P#6#9aiakauaHaIaJaVaWaXaYaY",
"aZa0a1a2ama3a4a5a3ada6a7a8.t.X.w.y.A#y.D.H.1#faG#C#P#7#9aja9avaIaKaWaYb.b#babbbb",
"bcbcbdbeacbfbgbhbibj.N.ibkbl.v.x.z.B#z.G#d#f#h#C#P#7asakauaHaJaVaYb#babbbmbnbobo",
"bpbp.3bqbrbsbtbubvbwbxbybz.X.w.y.A.C.E.0#4#h#B#P#6#9akauaHaKaWb.babAbnbBbCbDbDbE",
"QtQt.IbFbGbHbIbJbK#U#.bLbMbNbObPbQbR.G.1#f#A#O#6#9ajauaHaKaXb#bbbnbBbDbEbSbTbUbV",
"QtQtbWbXbYbZb0b1.6#q#rb2b3b4b5b6b7b8b9#e#h#C#P#8aia9aHaKaXb#bbbnbCbEbSc.c#c#cacb",
"QtQtQtQtQtcccd.N#Jcecfcgchcicjckclcmcnco#A#5#6asakavaJaWb#bbbobDcpc.c#cacqcrcsct",
"QtQt.2QtQtcucv.hcwabbucxcy#SczcAcBcCcDcE#C#Q#9ajauaIaVb.bbbnbDbSc.c#cbcFcGcHcIcJ",
"QtQtQtQtQtcucKcLcMcNa5cOcycPcOcQa5cRcScTcUcVasataHaKaYbabnbCcpcWcXcYcZc0c1c2c3c4",
"Qt.2QtQtQtc5c6c7c8c9aDbh.gbr.7a#.Nd.d#dadbdcddauaIaWb#bAbBdedfdgdhdidjdkdldmdndo",
"QtQtQtQtQt.2QtQtdpdqb1aAdr.5dsdraDdtdudvdwdxdyavaJaYbadzdAdBdCdDdEdFdGdHdIdJdndK",
"QtQtQtQtQtQtQt.2dpdLaSdMaAdNcy#V#pdOdOdPdQdRdSaHdTb.bbdUdVdWdXdYdZd0dodJd1d2d3d4",
"QtQtQtQtQtQtQtQtd5d6d7d8d9e.e#eaeb#Yeca5edeeefegehb#bmeiejekdYelemd1d2dJd3d3d3dJ",
"QtQtbpbpQtQtQtQtQtd5d5d5enbveoepbreqer.QeseteuevewexbneyezekeAeBeCeDeEd2d3d3d3eF",
"QtQtbpbpQtQtQtQtQtQtQtQteGeHaxeIbxb1bwcxbveJeKeLeMeNbodAeOePdYeQeCeReSeFd1d2d3eF",
"QtQtQtQtQt.2QtbpQtQt.2QteTeUeVeWeXeY#nazeZe0.7e1e2e3e4e5e6e7e8e9eCf.f#fad1d3d3eF",
"QtQtQtQtQtQtQtQtQtQtQtQtfbfcfdfeffdOfgaA.hfg#rfhfifjfkfle6fmfnfofpfqfrfsftfudKdJ",
"Qt.2QtQtQtbpQtQtQt.2QtQtQtQtQtfvczfwfxfyaReIfzfAfBfCfDfEeOfFfGfHfpfIfJfKf#fLfudJ",
"bpbpQtQtQtQtQtQtQtQtQtQtQt.2QtfMcBamfN#pdOa4fw#V#qfO.KfPezfQfRfSfTfIfUfVfWfXfYdJ",
"bpbpQtQtQtQtQtQtQtQtQtQtQtQtQtfZf0f1f2f3f4ecf5bJf6azf7f8f9g.g#gagbfIfIfJgcfKgdgd",
"QtQtQtQtQtQtQtbpQtQtQtQtQtQtQtgegfggghgigjfyamgj.5fNgkglgmgngogpgqgrfIfqgcgcgsgd",
"QtQtQtQtQtQtQtQtQtQtbpbpQtQtQtQtQtQtgteK#pgugv#pgwfNgxgygzgAgBgCdZgDgEfIgFgGgGgH",
"QtQtQtQtQtQtQt.2QtQtbpbpQtQtQtQtQtQtgIgJgKgLcPaPgMgNaPgMgNgOgPgQgRgSgTfIfIfIgUgV",
"QtQt.2QtQtQtQtQtQtQtQtQtQt.2QtbpQtQtgWgXgYgZg0bJg1#pg2g1ebg3g4g5g6g7g8g9h.h#haha",
"QtQtQtQtQtQtQtQtQtQtQtQtQtQtQtQtQtQtQtQtQthbhchdcxhebheXhfhghhhihjhkhlhmhnhahaha",
"Qt.2QtQtQtQtQtQtQt.2QtQtQtbpQtQtQt.2QtQtQthoffa5eraba5eaae#phpaxhqhrhshthuhvhagV",
"QtQtQtQtQt.2QtQtbpbpQtQtQtQtQtQtQtQtQtQtQthwhxhyhzhAeZangjeZangjhBhChDg7g8hEhvgV",
"QtQtQtQtQtQtQt.2bpbpQtQtQtQtQtQtQtQtQtQtQtc6hFhGhHhI#Vcye..hbJcw.NhJhKhLhMhNhOhP",
"QtQtQtQtQtQtQtQtQtQtQtQtQtQtQtbpQtQtQtQtQtQtQtQthQhRacfyhSacaDdraca5hThUhVhWhXhY",
"QtQtbpbpQtQtQtQtQtQtQtQtQtQtQtQtQtQtbpbpQtQtQtQthZh0bhh1h2h3h4h2h5h4eoh6h7h8h9i.",
"QtQtbpbpQtQtQtQtQtQtQtQtQtQtQt.2QtQtbpbpQtQtQtQti#iaaef6gjg2ibic#Vidicieifigihii"};
