/* XPM */
static char *dummy[]={
"40 40 666 2",
"i# c #32a67a",
"hQ c #342810",
"hS c #352911",
"hR c #3a2d14",
"hP c #3b2e14",
"eE c #443d1c",
"fo c #443e1d",
"fA c #463f1b",
"e1 c #46421f",
"es c #484421",
"h9 c #49340e",
"ek c #4a4425",
"gf c #4b4724",
"ed c #4b4725",
"ft c #4b4727",
"gk c #4c4622",
"fZ c #4c4627",
"hO c #4d3913",
"f9 c #4e4a28",
"gb c #4f4a2a",
"dX c #514e2e",
"fe c #514e32",
"ix c #543d13",
"hG c #543e14",
"hN c #543f15",
"dF c #545234",
"hy c #553e13",
"hK c #553e14",
"hD c #553f14",
"hw c #553f15",
"dx c #555438",
"hA c #563f14",
"hH c #564015",
"do c #565539",
"hC c #574015",
"hM c #574116",
"hv c #584015",
"hB c #584116",
"hu c #584217",
"hL c #594116",
"hJ c #594317",
"hz c #594318",
"hE c #5a4216",
"hI c #5b4318",
"hx c #5b4418",
"bY c #5b5e3d",
"hY c #5c4415",
"hF c #5c4418",
"h8 c #5d4313",
"hV c #5d4413",
"h2 c #5d4414",
"h6 c #5d4514",
"hW c #5e4312",
"h0 c #5e4413",
"h5 c #5f4412",
"hZ c #5f4413",
"h3 c #5f4513",
"hT c #5f4615",
"gj c #5f5e44",
"h1 c #604512",
"hX c #604513",
"h7 c #604514",
"h4 c #614513",
"hU c #624513",
"eD c #63634a",
"fz c #65644f",
"b7 c #676540",
"i. c #67aa97",
"cS c #686a52",
"dg c #696442",
"cp c #6a694e",
"il c #6b501a",
"is c #6c5019",
"ic c #6c501a",
"iw c #6c511a",
"ir c #6c521b",
"ih c #6d511a",
"ii c #6d521b",
"if c #6d521c",
"iq c #6e5119",
"it c #6e521b",
"io c #6e531b",
"ig c #6f511a",
"id c #6f5219",
"in c #6f531b",
"ia c #6f531c",
"iu c #705219",
"im c #70521a",
"ij c #70531a",
"ie c #71531a",
"iv c #71541b",
"eq c #724e0a",
"ik c #72541b",
"ib c #73541a",
"ip c #73541b",
"eZ c #744d00",
"dc c #755911",
"bN c #757251",
"fI c #757265",
"gi c #757365",
"ge c #757366",
"ei c #76570b",
"dm c #765c13",
"fY c #767569",
"co c #77785d",
"fH c #786638",
"e0 c #79767d",
"dl c #7a5b0b",
"bZ c #7a6c36",
"f8 c #7a7a6d",
"dv c #7b5a0b",
"fm c #7c5a00",
"b8 c #7c7147",
"dD c #7d5c0b",
"fy c #7d6c47",
"ga c #7f7b75",
"fn c #808199",
"fr c #815a00",
"cO c #826823",
"db c #83600e",
"fX c #83693e",
"b9 c #837649",
"ev c #845d0b",
"dt c #845f0b",
"fW c #855a00",
"d# c #85600b",
"eb c #865e0a",
"dj c #875f0a",
"g# c #876b3c",
"c. c #877948",
"fd c #877a79",
"fx c #895c00",
"eg c #89610a",
"cN c #896213",
"en c #89630a",
".P c #896c2a",
"fs c #897f86",
"fG c #8a5a02",
"fw c #8a5d01",
"b3 c #8a6314",
"f7 c #8a6b2e",
".s c #8a6d2b",
"fF c #8b5e02",
"fq c #8b5f02",
"ci c #8b620e",
"ew c #8b630a",
"cM c #8b630b",
"fV c #8c6003",
"da c #8c640a",
"cJ c #8c640b",
"fl c #8d5f02",
".H c #8d702d",
".L c #8d712e",
"ec c #8e6205",
".C c #8e702c",
".J c #8e702d",
".O c #8e702e",
".u c #8e712d",
".N c #8e712e",
".k c #8e722e",
"fc c #8f5e01",
"g. c #8f5f03",
"dB c #8f6206",
"ch c #8f6209",
"dk c #8f6408",
".y c #8f702c",
".Q c #8f712e",
".z c #8f722f",
".p c #8f732f",
"eC c #8f8377",
"gd c #8f8c88",
"fb c #906104",
"ex c #906307",
"ds c #90630b",
"du c #906407",
"cK c #906509",
".o c #90702c",
".E c #90722d",
".w c #90722e",
".G c #90732e",
".n c #90732f",
".x c #907330",
".D c #907430",
"eB c #916306",
"cL c #916408",
"dC c #916508",
".q c #91722e",
".I c #91732e",
".m c #91732f",
".B c #91742f",
"dd c #917a3c",
"fk c #926104",
"dV c #92640a",
"ef c #92640b",
".M c #92732f",
".A c #92742f",
"fa c #93650a",
"eV c #93650b",
".l c #93742f",
".F c #937531",
".r c #937631",
"eh c #946306",
".t c #947630",
"eA c #956405",
".v c #957731",
".K c #967731",
"ep c #976406",
"eo c #976607",
"cj c #977330",
"gV c #977833",
"er c #989885",
"fE c #996606",
"fv c #996607",
"dA c #99670a",
"#F c #997a34",
"fu c #997d36",
"gU c #9a7b35",
"#G c #9a7c35",
"#D c #9a7c36",
"gQ c #9b7a34",
"#z c #9b7c35",
"gN c #9b7c36",
"#n c #9b7d35",
"#l c #9b7d36",
"gJ c #9c7b34",
"gR c #9c7c35",
"gH c #9c7c36",
"#v c #9c7d35",
"#p c #9c7d36",
"#f c #9c7d37",
"#s c #9c7e37",
"bO c #9c8441",
"#q c #9d7c34",
"#h c #9d7d35",
"#j c #9d7d36",
"ea c #9d7d37",
"gS c #9d7e37",
"#d c #9d7f37",
"c7 c #9d7f38",
"ey c #9e6a0a",
"#B c #9e7d35",
"c9 c #9e7e35",
"#C c #9e7e36",
"#x c #9e7e37",
"#k c #9e7f37",
"#w c #9e7f38",
"e# c #9e7f39",
"f# c #9e7f3a",
"eY c #9f6804",
"#r c #9f7f37",
"gM c #9f7f38",
"c3 c #9f8037",
"#i c #9f8038",
"f1 c #9f8137",
"f5 c #9f8138",
"#t c #9f8139",
"bM c #9f9a83",
"df c #9f9fa4",
"eX c #a06c0a",
"#e c #a07f37",
"#y c #a08037",
"d6 c #a08038",
"#u c #a08138",
"#g c #a08139",
"dZ c #a0813a",
"cX c #a08239",
"c# c #a0843b",
"eW c #a16d0b",
"cU c #a18035",
"c0 c #a18037",
"gT c #a18039",
"f4 c #a18136",
"cZ c #a18137",
"d4 c #a18138",
"gK c #a18139",
"d2 c #a1813a",
"#o c #a18239",
"d8 c #a1823a",
"br c #a1823c",
"b6 c #a19f8a",
"di c #a26b09",
"fj c #a26b0a",
"#m c #a28138",
"gL c #a28139",
"c6 c #a28238",
"#A c #a28239",
"gG c #a2823a",
"e2 c #a2823b",
"c2 c #a28339",
"#E c #a2833a",
"f0 c #a2843a",
"bJ c #a2843c",
"ez c #a36c0a",
"c5 c #a38237",
"d1 c #a3823a",
"f6 c #a38338",
"cW c #a38339",
"d9 c #a3833a",
"gI c #a3833b",
"d7 c #a3843b",
"cV c #a3853a",
"c1 c #a3853b",
"fB c #a3863a",
"c4 c #a3863b",
"fg c #a3863c",
"aa c #a3863d",
"cq c #a38947",
"fi c #a46d0a",
"bK c #a48439",
"gP c #a4843b",
"e9 c #a4843d",
"bG c #a4853a",
"d5 c #a4853b",
"d3 c #a4853c",
"bx c #a4863a",
"cY c #a4863b",
"bs c #a4863c",
"gg c #a4873b",
"f3 c #a4873c",
"bU c #a4873d",
"bL c #a49e89",
"fp c #a56e0a",
"gO c #a5843b",
"bq c #a5843d",
"em c #a58539",
"dq c #a5853a",
"dY c #a5853c",
"e6 c #a5853d",
"e3 c #a5853e",
"ay c #a58639",
"al c #a5863a",
"bv c #a5863b",
"d0 c #a5863c",
"#6 c #a5873b",
"bP c #a5873c",
"#8 c #a5873d",
"aE c #a5883d",
"eu c #a5883e",
"fh c #a66f0b",
"bD c #a6853a",
"e. c #a6853c",
"f. c #a6853d",
"e8 c #a6853e",
"bz c #a68638",
"ad c #a6863a",
"b0 c #a6863b",
"#S c #a6873b",
"cT c #a6873c",
"ee c #a6873d",
"e4 c #a6873e",
"#Q c #a6883c",
"#J c #a6883d",
"#Y c #a6893e",
"#2 c #a7863a",
"e5 c #a7863e",
"bo c #a7863f",
"bt c #a78739",
"aC c #a7873a",
"ai c #a7873b",
"e7 c #a7873e",
"bf c #a7873f",
"aG c #a7883a",
"f2 c #a7883c",
"dp c #a7883d",
"bd c #a7883f",
"c8 c #a7893c",
"an c #a7893d",
"dh c #a7893e",
"a7 c #a78940",
"cd c #a8863a",
"#V c #a88739",
"#N c #a8873a",
"bI c #a8873b",
"b# c #a8873f",
"a9 c #a88740",
"ac c #a8883a",
"aD c #a8883b",
"bE c #a8883c",
"bk c #a8883f",
"bg c #a88840",
"et c #a8893c",
"as c #a8893d",
"ah c #a8893e",
"af c #a88a3d",
"#P c #a88a3e",
"bh c #a9873f",
"#L c #a9883a",
"#0 c #a9883b",
"bA c #a9883c",
"bm c #a9883f",
"bi c #a98840",
"cf c #a9893b",
"a# c #a9893c",
"bc c #a98940",
"bn c #a98941",
"#4 c #a98a3d",
"aB c #a98a3e",
"bl c #a98a41",
"#H c #a98b3e",
"bB c #a98b3f",
"a4 c #a98b40",
"bu c #a98c3e",
"bH c #a98c3f",
"gc c #a9a3aa",
"a. c #aa893b",
"aw c #aa893c",
"a8 c #aa8940",
"bb c #aa8941",
"bF c #aa8a3c",
"#X c #aa8a3d",
"aO c #aa8a3e",
"ba c #aa8a41",
"ap c #aa8b3e",
"#W c #aa8c3e",
"#3 c #aa8c3f",
"dz c #aa8c40",
"eQ c #aa8c41",
"av c #aa8d3f",
"#Z c #aa8d40",
"gl c #aa8d45",
"b2 c #ab6d08",
"aq c #ab8a3c",
"aW c #ab8a3d",
"be c #ab8a41",
"ff c #ab8b3c",
"#5 c #ab8b3d",
"b. c #ab8b42",
"bC c #ab8c3e",
"#O c #ab8c3f",
"aQ c #ab8c40",
"#M c #ab8d3f",
"#9 c #ab8d40",
"aI c #ab8d41",
"aS c #ac8a3d",
"#I c #ac8b3d",
"ag c #ac8b3e",
"eT c #ac8b3f",
"bj c #ac8b41",
"bS c #ac8c3d",
"el c #ac8c3e",
"bp c #ac8c42",
"by c #ac8d3f",
"aj c #ac8d40",
"aU c #ac8d41",
"#1 c #ac8e3f",
"#K c #ac8e40",
"cc c #ac8e41",
"dy c #ac8f41",
"eH c #ad8b3e",
"at c #ad8c3e",
"eL c #ad8c3f",
"bw c #ad8d3e",
"a3 c #ad8d3f",
"aT c #ad8d40",
"eN c #ad8d41",
"fU c #ad8d44",
"cb c #ad8e3f",
"ar c #ad8e40",
"eM c #ad8e41",
"aM c #ad8e42",
"ax c #ad8f40",
"ao c #ad8f41",
"aY c #ad8f42",
"bR c #ad9041",
"ca c #ae8d3e",
"cH c #ae8d44",
"fC c #ae8e3e",
"ce c #ae8e3f",
"#T c #ae8e40",
"b1 c #ae8f40",
"fD c #ae8f41",
"a2 c #ae8f42",
"fJ c #ae8f45",
"aF c #ae9040",
"#U c #ae9041",
"aK c #ae9042",
"a1 c #ae9043",
"eP c #af8d40",
"#R c #af8e3e",
"bQ c #af8e3f",
"#7 c #af8e40",
"eJ c #af8e41",
"aA c #af8f3f",
"aZ c #af8f40",
"am c #af8f41",
"aL c #af8f42",
"fT c #af8f45",
"ab c #af9041",
"eI c #af9042",
"dT c #af9045",
"fR c #af9046",
"aX c #af9142",
"aV c #af9143",
"eO c #af9144",
"cG c #b08e44",
"ak c #b08f3f",
"bT c #b08f40",
"au c #b09040",
"ae c #b09041",
"cE c #b09046",
"gh c #b09141",
"aJ c #b09143",
"aR c #b09244",
"h. c #b18e42",
"dM c #b19043",
"dQ c #b19044",
"cx c #b19045",
"cr c #b19046",
"aH c #b19141",
"aP c #b19142",
"eS c #b19143",
"fL c #b19146",
"fN c #b19147",
"az c #b19241",
"eK c #b19243",
"dP c #b19245",
"dH c #b19246",
"eG c #b19345",
"g0 c #b28f43",
"dJ c #b29043",
".j c #b29044",
"cv c #b29045",
"fQ c #b29046",
"aN c #b29141",
"a0 c #b29142",
"dN c #b29144",
"g6 c #b29145",
"cB c #b29146",
"ct c #b29147",
"dr c #b29241",
"eF c #b29243",
"#b c #b29246",
"fM c #b29247",
"a5 c #b29344",
"hs c #b38f44",
"ho c #b39043",
"dS c #b39144",
"hf c #b39145",
"cD c #b39146",
"dL c #b39245",
"cw c #b39246",
"fO c #b39247",
"cz c #b39248",
"a6 c #b39343",
".Y c #b39347",
"cC c #b39348",
"eR c #b39445",
"dK c #b39446",
"dO c #b39447",
"hd c #b49044",
"hq c #b49144",
".i c #b49246",
"fP c #b49247",
".2 c #b49346",
".T c #b49347",
"cs c #b49348",
"eU c #b49444",
".0 c #b49447",
"cy c #b49448",
"cu c #b49449",
"dR c #b49547",
"cP c #b4a175",
"hm c #b59245",
"hk c #b59246",
".4 c #b59346",
"fK c #b59347",
"cA c #b59348",
".5 c #b59447",
"fS c #b59448",
"dG c #b59547",
".8 c #b59548",
"gD c #b5954a",
"dI c #b59649",
"g8 c #b69346",
".V c #b69446",
".f c #b69447",
".h c #b69448",
"#a c #b69547",
"cF c #b69549",
".R c #b69648",
"gY c #b79346",
".b c #b79448",
"## c #b79547",
"Qt c #b79548",
"gw c #b79647",
".S c #b79648",
".X c #b79649",
".7 c #b79749",
"#. c #b7974a",
".W c #b7984a",
"g4 c #b89447",
"gt c #b89547",
".g c #b89548",
".e c #b89549",
"gm c #b89647",
".c c #b89648",
".a c #b89649",
"dU c #b89748",
".9 c #b89749",
"gr c #b8974a",
".6 c #b8984a",
"bX c #b8b6ac",
"hb c #b99547",
".# c #b99649",
"gB c #b99748",
"gC c #b99749",
"gu c #b99849",
".1 c #b9984a",
".U c #b9994a",
".3 c #b9994b",
"gy c #b99a4c",
".d c #ba9749",
"go c #ba994b",
"gn c #ba9a4b",
"gA c #ba9a4c",
"d. c #bb7307",
"hn c #bb974a",
"gW c #bb984a",
".Z c #bb9949",
"gz c #bb994a",
"#c c #bb9a4b",
"gx c #bb9b4b",
"gv c #bb9b4c",
"hh c #bc984a",
"gF c #bc9b4b",
"gq c #bc9b4c",
"gs c #bc9c4d",
"hi c #bd9849",
"ha c #bd994b",
"gp c #bd9b4b",
"h# c #be9a4b",
"gE c #be9d4d",
"g3 c #bf9a4c",
"gX c #bf9b4c",
"hg c #c09b4d",
"g5 c #c29d4c",
"he c #c39e4e",
"g1 c #c39f4e",
"cI c #c47907",
"g2 c #c49e4d",
"hl c #c8a251",
"hc c #c8a352",
"g7 c #c9a351",
"hj c #c9a352",
"hr c #caa351",
"gZ c #cba553",
"g9 c #cca654",
"hp c #cfa856",
"ht c #d0a955",
"ej c #d0cdc5",
"cR c #d0d0c7",
"cg c #d87f05",
"dE c #d9d9cf",
"dW c #dbd9cf",
"cn c #dbdbd3",
"de c #dfd9c9",
"dw c #e3e2dc",
"b4 c #e6dfce",
"bV c #e7e1d1",
"dn c #e7e6e1",
"ck c #f0cea0",
"bW c #f4f2ff",
"cQ c #f6f3ef",
"b5 c #f9f9f9",
"cm c #fbfbfb",
"cl c #fffefc",
"Qt.#.a.a.b.b.c.#.#.b.bQt.d.a.e.fQt.#.c.#.bQt.e.#.#Qt.b.g.d.a.e.hQt.#.c.#.b.i.j.j",
".k.l.m.n.o.p.q.r.n.s.t.u.v.w.x.y.z.A.B.p.C.D.E.F.G.H.I.J.K.m.L.E.p.M.N.r.C.O.P.Q",
".R.S.T.U.V.W.f.X.R.Y.Z.0.1.2.3.4.XQt.5.6.4.6.5.7.R.8.9.0.1.2#.##.7#a#b#c.4.1.2.R",
"#d#e#f#g#h#i#j#i#k#l#m#n#o#p#o#q#k#r#s#t#h#u#v#i#w#x#y#z#A#p#i#B#i#C#D#E#h#u#F#G",
"#H#I#J#K#L#M#N#O#P#Q#R#S#T#J#U#V#W#X#Y#Z#0#1#2#3#P#4#5#6#7#8#9a.#3a#aaabac#1adae",
"afagah#Kac#1aiaj#P#6akalamanao#Napaq#P#Zacaradaj#Hasatalau#Java.#Waw#8#U#Naxayaz",
"#H#Xah#Kac#9aiaj#P#6aA#S#Tanao#N#Wa#aB#9aCarad#9#Hafat#6#Tan#Za.#OaDaEaFaGaralaH",
"aj#7aIaJ#IaKagaLaM#PaNaOaPaQaRaSaoaTaUaVaWaXagaKaYajaZapa0aQa1ata2a3a4a5#5aX#Xa6",
"a7a8a9b.b#bab#bbbcbdbebfbebgb.bhbcbcbgbab#bab#bbbcbia8bfbjbkblbmbnbmbobpb#bebqbr",
"an#Xbs#9btbuadaBanbvbwbxbybs#Kbz#4bA#8bB#2bCbDaBanbEbFbGa3bsbHac#HbIbJax#2bCbKa3",
"bLbMbNbO#L#MbIaj#PbPbQalaZ#JbR#V#Haq#P#9ac#1#2aj#HafbSalbT#Java.#Wa#bU#U#NarayaH",
"bVbWbXbYbZ#Kaiaj#H#6akb0aZanao#N#WawaB#9aCb1adaj#HafatbvaZan#Za.#Ma##8abaCb1alaH",
"b2b3b4b5b6b7b8b9c.c#cab0cbancccd#Ha##P#ZaC#MaC#MaBan#5#6ceanbHa.#WcfaEb1aCbyadae",
"cgchcicjckclcmcncocpcqcrcsctcucv.Ycwctcucxcycvczczct.TcrcAcBcCcD.YcBcEcFcvcycGcH",
"cIcJcKcLcMcNcOcPcQcRcS#dcT#t#QcUcVcWcXcYcZbvc0c1#Ec2bKc3bI#tc4c5bGc6c7c8cZ#6c9bG",
"d.d#d#dacKcKdbdcdddedfdga3#Jao#V#H#Xdh#9aD#1#2#OaB#4#IbvaZ#J#Ma.#Wa#aaabac#1alae",
"did#d#djcKcKcKdkdldmdndobJdpao#N#W#XaB#9aGaxadajaBasbwalae#J#Za.#Oa#aEabaGb1dqdr",
"dsd#d#dtdjdududududvdwdxcbandy#Napa#aB#9aCbyaC#9#Pas#I#6ceandza.#3aDaEb1aC#1adae",
"dAd#d#d#d#dBdududCdDdEdFdGdHdIdJdKdL#b.8dMdGdNdO.0dP.4dQ#adHdRdS.0dLdTdUdMdGdM.2",
"dVd#d#dtd#dBdudududDdWdXdYdZd0c0#Ed1d2d3d4d5d6d7#Ed8d9#ie.#gd7#md7#Ae#cTd4d5ea#w",
"chd#d#d#ebecdudududldWed#T#J#U#V#W#Xdh#9#0#1#2#3#P#4#I#6#7ee#9a.#3a#aaabac#1adae",
"efd#d#d#egehdududueiejekam#Jao#Napaq#P#Zaccb#2ajaBaselalau#Java.#3awaE#UaCaremaz",
"efdtd#endCeoepdudueqeresaranao#N#Wa#aB#9aCarad#9#Hafel#6#Tanava.#MeteuabaGaralaH",
"efevewexeyezezeAeBeCeDeEeFcceGeHeIeJaYaReleKeLaJa1eMae#Oa6eNeOePeI#TeQeReleSeTeU",
"eVevdjeWeXezeXeYeZe0e1e2bme3bge.e4e5e3bke6bke6bfe7e8e7e9bie3bff.bfe5e9bce6bke2f#",
"fad#ezezezezfbfcfdfeff#S#T#J#U#V#W#Xdh#9#0cbai#3#P#4#I#6#7ee#9a.#Oa#fgabaDcbadae",
"fhezfiezfjfkflfmfnfo#RalaZ#JbR#V#H#Xdh#9aD#1#2#9aBafbSalbT#Java.#Wa#bU#UaccbayaH",
"fpezfifjepfqfrfsftfuak#6aZdpaoac#WbFaB#KaCb1adajaBafatbvaZdpavaw#Ma##8abaGb1alaH",
"fiezezfvfwfxfyfzfAfBfC#Scbandy#V#Ha#aB#9aCbyaCaQaBan#5#6ceanbHa.#WcfaEfDaCbyadau",
"fiezfEfFfGfHfIe1fJcEfKcx.TfLcycvfMcBfNcscxcscxfMfOcBfPcxcsfQcCcDfOcBfRfScxcsfTfU",
"ezepfVfWfXfYfZcVf0f1aCf1f2#tancUcVbK#of3f4#ScZcYf0c2emc3bEf5cYc5d5f6c7afcZ#6c9al",
"flfFfwf7f8f9adaQ#PcT#Ral#T#J#U#V#HbFdh#9aD#1aC#OaB#4#5alaZee#9a.#Wa#aa#UaD#1adae",
"g.fWg#gagb#MaiaT#P#6akalamdpao#Nap#XaB#9aCaxadajaBasbwalaudp#3a.#Oaw#8#UaCb1dqdr",
"gcgdgegff6#Mai#O#PggbQ#Scbandy#Vapa#aB#9aC#1aC#9#Paf#I#6cean#3a.#3aDaEb1aC#Kalgh",
"gigjgkglgmgndUgo.3dIgp.Sgqgrgsgt.Ugu.6gvgwgx.cgygo.Wgz.SgqgrgAgBgngCgDgEgwgv##gF",
"#igGgHgIgJgK#xgLgMgN#m#pgOgHgPgQd6gK#jgGgRgKgSgLgM#x#e#fgOgRd8#h#ggTgUdY#z#AgV#z",
"gWgXgYgZg0g1.ig2g3g4g5g6g7g8g9h.h#hahbhchdhehfg2hghhhig6hjhkhlhmgXhnhohphqhrhsht",
"huhvhwhxhyhzhAhBhBhChuhDhEhwhFhGhuhChHhIhyhJhKhLhMhLhMhDhEhNhxhDhuhChOhPhQhRhShR",
"hThUhVhWhXhYhXhZh0h1h2h3h4h2h5hZh6h4h0hWh1h2hXh7h8h1h2h3hUh2h5hXh2h4h9i.i#i#i#i#",
"iaibicidieifieigihieiiijikiliminioipiciqieirieijisieitijikiliuiviwipixi.i#i#i#i#"};
