/* XPM */
static char *dummy[]={
"40 40 1014 2",
"mM c #3d372c",
"k5 c #463f32",
"hz c #453f32",
"dq c #443e31",
"nZ c #28231a",
"jo c #423b30",
"fU c #413b30",
"k4 c #6a6557",
"cV c #2c251b",
"nH c #322c20",
"fp c #2b2319",
"hy c #6a6456",
"ay c #332d21",
"h. c #2c251b",
"i0 c #2b2419",
"a1 c #3d372c",
"dp c #696455",
"kH c #2c251b",
"mq c #2b2419",
"k3 c #635d4f",
"hx c #645f50",
"do c #666051",
"cU c #3f382c",
"mL c #585042",
"jn c #615a4c",
"fT c #625c4d",
"g9 c #3f382c",
"cT c #3d372c",
"g8 c #3e382c",
"kG c #3f382c",
"fo c #362e23",
"iZ c #362f24",
"kF c #3f392d",
"mp c #373024",
"nR c #211e17",
"nT c #221e17",
"nU c #23201a",
"nS c #24201a",
"nI c #24211b",
"nX c #26221b",
"mf c #272118",
"nY c #27231b",
"nP c #28241c",
"nQ c #28241d",
"nJ c #29241d",
"ny c #2b261c",
"nD c #2b261d",
"nL c #2b261e",
"nK c #2b271e",
"mn c #2c251b",
"cK c #2c271e",
"nW c #2c271f",
"iF c #2d271c",
"cO c #2d271e",
"nO c #2d2820",
"m. c #2e271d",
"kp c #2e281f",
"nN c #2e2920",
"nV c #2e2a21",
"cs c #2f281d",
"gR c #2f291d",
"eW c #30291d",
"iC c #302a1d",
"nM c #302c22",
"l8 c #312a1d",
"j4 c #322c20",
"mg c #33281d",
"bY c #332c20",
"ao c #332c22",
"nt c #332d22",
"av c #342c22",
"lU c #352b1f",
"i7 c #352f25",
"n. c #353024",
"cP c #353027",
"kh c #362b1d",
"nm c #363025",
"cL c #363027",
"nk c #363125",
"cB c #363127",
"aa c #372f22",
"l6 c #373023",
"ez c #373024",
"bw c #373025",
"mx c #373026",
"gj c #373125",
"jM c #373126",
"mA c #373127",
"gW c #373128",
"at c #373129",
"gS c #373228",
"iz c #382b1d",
"ml c #382e20",
"eq c #383124",
"ig c #383125",
"cI c #383227",
"mH c #383228",
"ap c #383229",
"kq c #383329",
"lO c #393224",
"lQ c #393225",
"fx c #393328",
"kk c #393329",
"eY c #39332a",
"jH c #3a2c1e",
"dX c #3a3326",
"fn c #3a3327",
"cC c #3a3328",
"lp c #3a3426",
"iY c #3a3427",
"an c #3a3428",
"aR c #3a3429",
"nE c #3a352a",
"iX c #3b2f20",
"lz c #3b3125",
"mo c #3b3427",
"fm c #3b3428",
"cH c #3b3429",
"cJ c #3b3529",
"nz c #3b362b",
"kC c #3c2f20",
"cE c #3c3529",
"gV c #3c352a",
"cg c #3c362a",
"mm c #3c362b",
"nu c #3c372b",
"cM c #3d3529",
"cD c #3d3629",
"#7 c #3d362a",
"iE c #3d362b",
"ko c #3d372b",
"id c #3e3122",
"gU c #3e362a",
"gT c #3e372a",
"#3 c #3e372b",
"#W c #3e372c",
"e1 c #3e382b",
"aq c #3f372c",
"kl c #3f382b",
"au c #3f382c",
"cG c #3f382d",
"ar c #3f392c",
"ax c #3f392d",
"kL c #3f392e",
"kR c #3f392f",
"aw c #3f3a2f",
"l2 c #403425",
"mh c #403426",
"#H c #40382a",
"lM c #40382b",
"eZ c #40392d",
"kn c #40392e",
"iI c #403a2d",
"hd c #403a2f",
"hT c #413426",
"hw c #413526",
"en c #41382b",
"nG c #41392d",
"nv c #413a2d",
"nC c #413a2e",
"nA c #413b2d",
"mb c #413b2e",
"iJ c #413b2f",
"mU c #413b30",
"j2 c #423628",
"d7 c #423a2c",
"if c #423a2d",
"nx c #423a2e",
"ey c #423b2d",
"cQ c #423c2f",
"mc c #423c30",
"d. c #423c31",
"kZ c #433628",
"hX c #433b2d",
"lt c #433b2e",
"nF c #433b2f",
"cN c #433c2f",
"cF c #433c30",
"iH c #433c31",
"iG c #433e32",
"lm c #443829",
"l5 c #443c2e",
"ma c #443d31",
"me c #443d32",
"cR c #443e31",
"m# c #444033",
"aH c #444037",
"lI c #45392b",
"eV c #453e2e",
"nw c #453e2f",
"cS c #453e31",
"kD c #453f31",
"e0 c #453f32",
"md c #454034",
"iB c #463e2f",
"l7 c #463f2f",
"cr c #463f31",
"km c #463f32",
"iD c #464032",
"kE c #464033",
"ld c #473e2f",
"## c #473f30",
"gQ c #473f31",
"cf c #474031",
"cm c #474032",
"iK c #474033",
"l9 c #474133",
"g7 c #483d2f",
"am c #484034",
"#C c #484132",
"bT c #484133",
"as c #484134",
"al c #484234",
"bn c #484235",
"bO c #494133",
"dS c #494136",
"nB c #494233",
"#w c #494234",
"eX c #494335",
"bh c #494336",
"kr c #4a3e31",
"jl c #4a4034",
"ng c #4a4133",
"eU c #4a4233",
"jP c #4a4234",
"ln c #4a4236",
"#o c #4a4335",
"f3 c #4a4337",
"iA c #4b4334",
"dB c #4b4337",
"n# c #4b4434",
"d0 c #4b4436",
"nl c #4b4534",
"nn c #4b4535",
"d6 c #4c4334",
"gO c #4c4335",
"la c #4c4438",
"my c #4c4537",
"hC c #4c4538",
"hW c #4d4435",
"k7 c #4d4539",
"ls c #4e4435",
"nf c #4e4535",
"ns c #4e4536",
"#V c #4e4637",
"mr c #4e4638",
"gA c #4e4639",
"k2 c #4e483a",
"nr c #4f4636",
"#2 c #4f4637",
"#6 c #4f4738",
"gh c #4f473a",
"c. c #504839",
"lr c #514738",
"bN c #514837",
"bS c #514838",
"cc c #514939",
"j6 c #51493a",
"cn c #514b3d",
"j3 c #524838",
"d5 c #524839",
"jO c #524938",
"a. c #524939",
"nc c #524a38",
"gC c #524a39",
"dm c #524c3d",
"ch c #524c3e",
"b9 c #524d3e",
"j# c #524e42",
"lL c #534939",
"gP c #534a3a",
"nb c #534b39",
"ce c #534b3a",
"i6 c #534b3e",
"ni c #534c39",
"ew c #534c3a",
"#5 c #534c3b",
"i8 c #534c3e",
"#Y c #534d3b",
"gD c #534e3f",
"mE c #534f43",
"dO c #53513e",
"ex c #544a3a",
"cl c #544b3a",
"c# c #544b3b",
"ne c #544c3a",
"cp c #544c3b",
"eu c #544d3b",
"i1 c #544d3e",
"fw c #544d3f",
"mD c #544d40",
"gB c #544e40",
"lS c #554b3a",
"l4 c #554b3b",
"mN c #554c3a",
"#Z c #554c3b",
"ck c #554c3c",
"mV c #554d3a",
"ki c #554d3b",
"eT c #554e3f",
"j5 c #554f40",
"cd c #564d3c",
"j8 c #564e42",
"aQ c #564f41",
"ih c #56513e",
"lR c #56523e",
"mC c #565245",
"#9 c #574d3e",
"cq c #574e3d",
"#S c #57503d",
"mu c #575042",
"mJ c #575142",
"mv c #575245",
"mt c #575246",
"mI c #575346",
"#U c #584e3d",
"lv c #584f3b",
"ly c #584f3c",
"kj c #584f3d",
"#n c #584f3e",
"no c #58503b",
"hZ c #58503c",
"nh c #58513c",
"er c #58513d",
"aV c #585142",
"em c #585143",
"i3 c #585144",
"dP c #58523f",
"mF c #585345",
"es c #594f3d",
"#v c #594f3e",
"ep c #59503c",
"nd c #59503d",
"np c #59503e",
"na c #59513c",
"dW c #59513d",
"hV c #59513e",
"mk c #595145",
"aS c #595243",
"mG c #595244",
"fR c #595246",
"ek c #595343",
"jm c #595344",
".6 c #595346",
"iV c #5a1c03",
"nj c #5a503d",
"ie c #5a503e",
"lP c #5a503f",
"a# c #5a513e",
"#0 c #5a523e",
"eo c #5a5240",
"nq c #5a5241",
"kK c #5a5244",
"bv c #5a5341",
"aI c #5a5343",
"mw c #5a5344",
"mz c #5a5345",
"#X c #5a5446",
".3 c #5a5447",
"#8 c #5a5545",
"#4 c #5a5547",
"ib c #5b2710",
"ci c #5b513e",
"#F c #5b523f",
"dV c #5b5241",
"ev c #5b533f",
"jL c #5b5342",
"k1 c #5b5345",
"hc c #5b5446",
"mK c #5b5447",
"et c #5b5547",
".U c #5b5548",
"mB c #5b5648",
"#T c #5c523f",
"dR c #5c5240",
"dz c #5c5241",
"#G c #5c533e",
"ca c #5c533f",
"dD c #5c5341",
"hU c #5c5342",
"gi c #5c5441",
"i5 c #5c5546",
"el c #5c5547",
"i4 c #5c564a",
"kQ c #5c5749",
"hR c #5d2c10",
"dZ c #5d523f",
"#r c #5d533f",
"#z c #5d5340",
"k6 c #5d5341",
"dA c #5d5342",
"gm c #5d5440",
"lc c #5d5442",
"l# c #5d5443",
"m0 c #5d5542",
"ft c #5d5547",
"c9 c #5d5647",
"ms c #5d5749",
"du c #5d574a",
"iy c #5d574b",
"aC c #5d574e",
"jF c #5e2202",
"fN c #5e3116",
"gf c #5e3217",
"#m c #5e523f",
"ii c #5e5440",
"lK c #5e5441",
"dE c #5e5443",
"bI c #5e5540",
"cb c #5e5541",
"dU c #5e5542",
"hB c #5e5544",
"co c #5e5642",
"l3 c #5e5643",
"hG c #5e5645",
"dl c #5e5647",
"d8 c #5e5742",
"kM c #5e5747",
"fv c #5e5748",
"ak c #5e594d",
"bP c #5f5540",
"lN c #5f5640",
"bV c #5f5641",
"j7 c #5f5642",
"cj c #5f5643",
"hE c #5f5644",
"dy c #5f5645",
"lu c #5f5742",
"m9 c #5f5746",
"aM c #5f5749",
"lx c #5f5843",
"fS c #5f5848",
"aX c #5f5849",
"dn c #5f594b",
"i2 c #5f594c",
"aN c #5f5a4c",
"j. c #5f5a4d",
"ge c #602d10",
"lw c #605541",
"h0 c #605641",
"k9 c #605645",
"lT c #605743",
"ij c #605744",
"mT c #605745",
"dT c #605844",
"aP c #60594a",
"i9 c #60594c",
"kg c #605950",
"he c #605a4a",
"fu c #605a4b",
"fy c #605a4d",
"f6 c #605b4f",
"gy c #612d10",
"bW c #615741",
"hY c #615840",
"bJ c #615841",
"#1 c #615944",
"lo c #615945",
"aU c #615a4a",
"ha c #615a4c",
"aO c #615b4c",
"dc c #615b4d",
"eS c #615b4e",
"eA c #615c4e",
"gM c #622d10",
"d9 c #625842",
"#A c #625942",
"m8 c #625946",
"aZ c #625b4b",
"dd c #625b4d",
"c7 c #625c4d",
"fs c #625c4e",
"kP c #625c4f",
"gn c #625c50",
"j0 c #632304",
"lE c #632405",
"#s c #635942",
"d3 c #635943",
"mQ c #635a44",
"bu c #635b47",
"k0 c #635b4c",
"a0 c #635c4c",
"e. c #635c4d",
"gE c #635d51",
"kI c #635e51",
".G c #64594c",
"mX c #645a44",
"bM c #645a45",
"m6 c #645b44",
"bR c #645b45",
"bU c #645b46",
"#l c #645b47",
"jK c #645c47",
"kJ c #645c4c",
"hj c #645d4d",
"kN c #645d4e",
"aY c #645d4f",
"aL c #645e50",
"de c #645e51",
"gX c #645e52",
"jS c #652506",
"mR c #655b48",
"bH c #655c46",
"#u c #655c47",
"#B c #655c48",
"bg c #655d49",
"hb c #655d4d",
"dG c #655e4d",
"aW c #655e50",
"#R c #655e52",
"hf c #655f50",
"hh c #655f51",
"h# c #656052",
"hi c #656053",
"fl c #656054",
"m2 c #665b48",
"#k c #665c47",
"#E c #665c48",
"gl c #665d47",
"dY c #665d48",
"l. c #665d49",
"f2 c #665d4a",
"dQ c #665e4a",
".9 c #665f4c",
"#j c #665f53",
"mi c #665f57",
"fq c #666051",
"kW c #672607",
"lJ c #675c47",
"jN c #675e47",
"dx c #675e4a",
"hA c #675e4b",
"#. c #675f4b",
"c8 c #675f4f",
"dk c #67604f",
"fr c #676052",
"gk c #67614d",
"bG c #67614e",
"d# c #676151",
"db c #676153",
"c6 c #676254",
"lg c #682c0f",
"iq c #682e11",
"gw c #682f11",
"fM c #683114",
"d4 c #685d48",
"lq c #685d49",
"bQ c #685e48",
"dF c #685e4a",
"#t c #685f48",
"#y c #685f49",
"#q c #685f4a",
"m5 c #68604a",
"m3 c #68604d",
"m1 c #68614b",
"kO c #686153",
"lV c #686158",
"aJ c #686253",
"dj c #686356",
"fK c #692f11",
"kA c #694c3b",
"bL c #695f49",
"hF c #695f4a",
"d2 c #69604a",
"mY c #69604d",
"mS c #69614e",
"mW c #69624c",
"#D c #69624f",
"aT c #696253",
"aK c #696254",
"ke c #6a2808",
"hu c #6a2f11",
"bq c #6a614a",
"bf c #6a614c",
"f1 c #6a614d",
"m7 c #6a614e",
"mO c #6a624c",
".5 c #6a624e",
".1 c #6a624f",
"mZ c #6a634f",
"hg c #6a6354",
"kS c #6a655d",
"kd c #6b2909",
"i. c #6b2f10",
"gc c #6b2f11",
"bc c #6b614b",
"bK c #6b614c",
"fX c #6b624b",
"bX c #6b624c",
"f5 c #6b624d",
".S c #6b624f",
"dw c #6b634c",
"m4 c #6b634f",
"e# c #6b6457",
"kz c #6c280a",
"jZ c #6c2909",
"k# c #6c290a",
"ky c #6c2a0a",
"hP c #6c2f11",
"fh c #6c4228",
".Z c #6c634c",
"mP c #6c644f",
"ds c #6c6451",
"bs c #6c6551",
"da c #6c6556",
".g c #6c6960",
"kV c #6d2a0a",
"ir c #6d2f10",
"bb c #6d644e",
"bt c #6d654f",
"jJ c #6d6550",
"jI c #6d6552",
"dH c #6d665a",
"fV c #6d6752",
"jE c #6e2a0a",
"fL c #6e3010",
"fc c #6e3011",
"ff c #6e3112",
"eL c #6e3114",
"fg c #6e3519",
"bp c #6e644e",
"jp c #6e654f",
"ba c #6e6752",
"jt c #6e675e",
"bi c #6e6852",
"jr c #6e6853",
"lF c #6f290a",
"lD c #6f290b",
"hv c #6f2c0c",
"eg c #6f361a",
"bl c #6f6652",
"bo c #6f6853",
"eR c #6f6a5d",
"fC c #70270a",
"jj c #702a0a",
"gK c #702e0e",
"gd c #702f0f",
"be c #706752",
"js c #706755",
"bj c #706851",
"fZ c #706853",
"fY c #706856",
"dC c #706952",
"hD c #706953",
"df c #706a5f",
"d1 c #706b58",
"go c #71280b",
"ji c #712c0c",
"gx c #712e0e",
"is c #712f0f",
"fd c #713010",
"eK c #713011",
"kf c #71574a",
".X c #716852",
"jq c #716853",
"bd c #716856",
"bk c #716857",
"f4 c #716952",
"fW c #716953",
"br c #716957",
"k8 c #716a53",
"lb c #716a54",
".8 c #716a55",
"#p c #716b58",
"#x c #716b59",
"kB c #716b66",
"mj c #716c65",
"l1 c #716c66",
"im c #72280b",
"fB c #722a0c",
"iw c #722e0e",
"gL c #722f0f",
"fe c #723010",
"gv c #723012",
"dv c #726a53",
"f0 c #726a54",
".Y c #726a55",
".2 c #726c59",
"b8 c #726e63",
"hI c #73290b",
"gZ c #732a0d",
"jD c #732d0d",
"g5 c #733011",
"hO c #733012",
"kX c #735042",
"bm c #736b55",
".R c #736b56",
".T c #736c59",
"kY c #736f69",
"ku c #742e0e",
"iR c #743112",
".0 c #746c57",
".Q c #746c58",
"dt c #746d5a",
"hl c #752a0c",
"h2 c #752b0d",
"iv c #752e0e",
"hQ c #752f0f",
"jh c #753112",
"kt c #753e23",
"lk c #754833",
"dr c #756d59",
"iN c #762b0d",
"ia c #762e0e",
"h3 c #772b0d",
"i# c #773010",
"lG c #775041",
"ll c #77736e",
"cA c #777469",
"iW c #77777c",
"kc c #782f0f",
"iL c #78736b",
"bF c #787468",
"kx c #792f0f",
"gJ c #793112",
"fA c #79371a",
"#Q c #797367",
"e2 c #7a766c",
"iU c #7c2e0d",
"jT c #7c2f0f",
"fO c #7c563f",
"f8 c #7d2c0e",
"ka c #7d2f0f",
"lh c #7d3111",
"it c #7d3212",
".W c #7d7560",
".P c #7d786d",
"lH c #7d7876",
"b# c #7d7a6e",
"iT c #7e3212",
"kv c #7f3010",
"jw c #7f3110",
"iS c #7f3313",
".l c #7f7163",
"iO c #803111",
"gb c #803212",
"jC c #803313",
"eM c #804d36",
"az c #807c72",
"li c #813110",
"e7 c #813214",
"iu c #813313",
"aG c #817f74",
"jB c #823313",
".B c #827163",
".u c #827263",
"ad c #827d70",
"kU c #833211",
"jY c #833313",
"le c #837f7d",
"jA c #843414",
"aB c #847e73",
"#i c #847f73",
"jk c #857b7d",
"hJ c #863112",
"eG c #863314",
"ae c #868173",
"jG c #868d98",
"ef c #873212",
"lC c #87523c",
"j1 c #878188",
"aD c #87857b",
"jv c #884428",
"dg c #888279",
"aA c #888377",
"af c #898376",
"ag c #898477",
"ah c #898478",
"ix c #8a7b79",
"ac c #8a8376",
"b2 c #8a867a",
"aj c #8a867b",
"gp c #8b3213",
"ab c #8b867a",
"ed c #8c3313",
"#P c #8c877b",
"#O c #8c887a",
"aF c #8c8a80",
"h6 c #8d3616",
"b7 c #8d887c",
".7 c #8d8978",
"#h c #8d897c",
"lA c #8d8a88",
"c0 c #8d8c81",
"jc c #8e3615",
"b0 c #8e8a7e",
"l0 c #8e8a89",
"jx c #8f3515",
"il c #8f543d",
"jb c #90604e",
".i c #918574",
".E c #91897a",
".j c #91897b",
"aE c #918e84",
".q c #928777",
"bA c #928e80",
".A c #938675",
".t c #938a7b",
"#g c #938e80",
"ai c #938e82",
".V c #93907d",
"b1 c #939083",
"cy c #939084",
"in c #943716",
"io c #943817",
"e6 c #946550",
".k c #948675",
".z c #948b7b",
"di c #948d85",
"bZ c #948e81",
"ic c #948f86",
".4 c #94917e",
"eB c #94918b",
"fJ c #953413",
"jU c #953716",
"je c #953817",
".F c #958675",
"a5 c #958f83",
"by c #959082",
"a6 c #959287",
"hL c #963817",
".w c #968d7e",
".o c #968d7f",
".h c #968f81",
"c5 c #969384",
"jQ c #969391",
"hm c #973717",
"h5 c #973918",
"bz c #979486",
"bB c #979488",
"b3 c #97948a",
"jd c #983817",
"b6 c #989384",
"g1 c #993a18",
".s c #998774",
".r c #999081",
".y c #999082",
"lf c #999091",
"dh c #99938c",
"cx c #999488",
"ej c #99948b",
"bD c #999586",
"#L c #999587",
"jf c #9a3918",
".D c #9a8a7a",
"ja c #9a9897",
".b c #9a9b93",
"fb c #9b3513",
"kb c #9b3717",
"lj c #9b3817",
"ho c #9b3a19",
"#K c #9b9587",
"#N c #9b9688",
"a4 c #9b9689",
"b5 c #9b9888",
"b. c #9b988b",
"lW c #9b999c",
".d c #9b9b92",
"iP c #9c3a19",
"a3 c #9c988a",
"Qt c #9c9d96",
"hK c #9d3a19",
"lY c #9d999e",
".N c #9d9a8f",
".f c #9d9e95",
"jV c #9e3a19",
"bx c #9e9b8c",
"cz c #9e9c91",
"gG c #9f3918",
".e c #9fa097",
".C c #a0998c",
"#J c #a09b8c",
"#f c #a09c8d",
".O c #a09e93",
"cv c #a09f95",
"fQ c #a0a1a4",
"hp c #a13a18",
"hn c #a13b1a",
"g0 c #a23a19",
"jy c #a23b19",
".n c #a29381",
"a2 c #a29e90",
"ks c #a2a1a6",
".# c #a2a39b",
"jW c #a33b19",
".v c #a39481",
"ct c #a3a298",
"h4 c #a43c1a",
"a9 c #a4a194",
".c c #a4a59d",
"h7 c #a53a18",
".p c #a59586",
".x c #a59686",
"lZ c #a5a3a8",
".a c #a5a69f",
"fi c #a68979",
"ju c #a6a4a6",
"cu c #a6a59b",
"e5 c #a78677",
".m c #a79e8e",
"#e c #a7a494",
"bE c #a7a495",
"#c c #a7a497",
"ea c #a8a59d",
"a8 c #a8a698",
"kT c #a8a6ab",
"gq c #a93d1b",
"#b c #a9a597",
"ik c #a9a8a9",
"#d c #aaa797",
"cw c #aaa89d",
".M c #aaa89f",
"j9 c #aaa9ac",
"kw c #ab3b19",
"f9 c #ab3d1b",
"#M c #aba99a",
"cZ c #abaa9c",
"ee c #ac3714",
"iM c #acaaab",
".L c #adaba0",
"lX c #adacb2",
"jR c #aeaaac",
"cX c #aeada0",
"lB c #aeadb3",
"gH c #af3d1b",
"k. c #af948c",
"jz c #b03d1a",
"#I c #b0aea1",
"jX c #b13d1a",
"hM c #b23d1a",
"#a c #b2b0a2",
"cY c #b2b2a5",
"e4 c #b3a399",
"b4 c #b3b0a2",
".K c #b3b1a7",
"bC c #b3b2a3",
"dN c #b4b0ac",
"e8 c #b53b16",
"fD c #b53b17",
"c3 c #b6b5a9",
"c4 c #b6b6aa",
".J c #b7b7ae",
"cW c #b7b8ad",
".I c #b9b8af",
"c2 c #b9baad",
"eH c #ba3c17",
"a7 c #babaaf",
"iQ c #bc3e19",
"c1 c #bdbfb2",
".H c #c0c1ba",
"hq c #c13d1a",
"g2 c #c23e19",
"gr c #c23f1a",
"gI c #c33e19",
"jg c #c33f19",
"h8 c #c53e19",
"ip c #c73f19",
"hN c #c83f1a",
"e9 c #c93f1a",
"g3 c #ca3f1a",
"hr c #cb3f1a",
"h9 c #cc3f1a",
"fE c #cc401a",
"eJ c #cd411a",
"hS c #cdc8c5",
"eF c #cec9c9",
"fk c #ceccc7",
"fa c #cf3f1b",
"f# c #d0411b",
"gs c #d1411b",
"hs c #d2401b",
"eI c #d2421b",
"ec c #d2c3c0",
"fI c #d4411b",
"eC c #d4d3d1",
"g4 c #d6401b",
"ht c #d6421b",
"f. c #d7421c",
"g6 c #d7d3cf",
"gN c #d7d4d0",
"eQ c #d7d6d3",
"gu c #d8421c",
"ga c #d9431c",
"g. c #da431c",
"fP c #dad0ca",
"fF c #db431c",
"fG c #db431d",
"gt c #dc431d",
"g# c #dd441d",
"fH c #de441d",
"eN c #dfb2a5",
"hH c #dfdcd7",
"e3 c #e0dedc",
"dK c #e0dfda",
"eh c #e1d6d0",
"gz c #e1dedc",
"dL c #e2d8d2",
"h1 c #e2e1de",
"gg c #e5e3e1",
"fz c #e8e5e3",
"dI c #eaeae8",
"gF c #ebe7e3",
"gY c #ebe7e4",
"hk c #ece9e5",
"f7 c #edeae7",
"dJ c #eff2f8",
"fj c #f5f1f0",
"dM c #f5f6ff",
"eb c #f8f9f9",
"ei c #f9f9f9",
"eP c #fbfbfb",
"eE c #fdffff",
"eO c #fefdfc",
"eD c #ffffff",
"Qt.#.#.a.b.c.d.e.f.g.h.i.j.k.l.m.n.o.p.q.r.s.t.k.u.m.v.w.x.q.y.s.z.A.B.C.D.E.F.G",
".H.I.J.K.L.L.M.N.O.P.Q.R.S.T.U.V.W.X.Y.Z.Q.0.1.2.3.4.W.X.Y.Z.Q.Q.5.2.6.7.8.9#.##",
"#a#b#c#d#e#f#g#h#i#j#k#l#m#n#o#p#q#r#s#t#k#u#m#v#w#x#y#z#A#t#u#B#m#v#C#D#E#F#G#H",
"#I#J#K#L#M#N#O#P#Q#R#S#T#U#V#W#X#Y#Z#0#1#S#T#U#2#3#4#5#Z#0#1#S#T#U#6#7#8#9a.a#aa",
"abacadaeafagahaiajakalam#3anaoapaqar#Wasalam#3anaoatauauaqasasam#3anavawaxau#7ay",
"azajaAaBaCaDaEaFaGaHaIaJaKaLaMaNaOaPaQaRaSaJaTaLaMaNaOaUaQaRaVaJaTaWaXaYaZa0aOa1",
"a2a3a4a5a6a7a8a9b.b#ba.Xbbbcbdbe.Ybfbgbhbibjbbbcbkblbmbfbgbnbobjbpbqbrbsbtbubvbw",
"bxbybzbAbBbCbDbEa3bFbGbHbIbJbKbLbM#rbNbObGbHbPbJbKbQbR#rbSbTbGbUbVbWbXbQbR#rbSbY",
"bZb0b1b2b3b4b5b6b7b8b9c.c#cacbcccdcecfcgchc.c#cicjccckclcmcgcnc.c##Tcocpcqa.crcs",
"ctcuctcvctcwcxcyczcAcBcCcDcEcFcGcHcIcJcKcLcCcDcMcNcGcHcIcJcOcPcCcDcMcQcRcScTcUcV",
"cWcXcYcZc0c1c2c3c4c5c6c7c8c9d.aZd#dadbdcc6dddedfdgdhdidjaLdcc6dddkdld.dmdndodpdq",
"dr.0dsdtdu.V.Wdv.RdwdxdydzdAdBdCdDdE#ldFdGdHdIdJdKdLdMdNdOdPdQdydRdAdSdTdUdVdWdX",
"dY#ldZ#vd0d1d2dZd3#td4#zd5d6d7d8d9aXe.e#eaebecedeeefegeheiejekaPelemeneobP#zepeq",
"er#zes#VcGeteu#Zev#1ew#vexeyezeAeBeCeDeEeFeGeHeIeJeeeKeLeMeNeOePeQeReSeTcceUeVeW",
"eXas#3cJaoeYaueZau#we0cDcJe1e2e3e4e5e6e7e8e9f.f#fafbfcfdfefffgfhfifjfkflfmfnfofp",
"aSfqfrfsftdufufvfwfxeTfsfyakfzfAfBfCfDfEf.fFfGfHfIfJfKfKfLfdfdfMfNfOfPfQfRfSfTfU",
"fVfWbbfXfYfZf0f1f2f3bif4f5f6f7fBf8f9g.g#gafHfHfHf.gbfKfKgcfdfdfdgdgegfggghgibvgj",
"gkglbId9bKbLbMdZbS#wbGglgmgnf7gogpgqgrgsgtfHfHfHgugvfKfKgwgcgxgxgxgxgygzgA#rbSbY",
"gBcc#Z#rdUgCcqclcrcggDcc#ZgEgFfBgGgqgHgIgufFg#fHgugJfKfKfKfKgKgxgxgLgMgNgOgPgQgR",
"gSfmgTgUcRaxgVcIcgcOgWcHgTgXgYgZg0gqg1g2g3g4fHfHgug5fKfKgwfKgKgxgxgxgMg6g7g8g9h.",
"h#hahbhchdhehfhghhdnhihahjgXhkhlhmhnhohphqhrhshtf.eKfKfKfKhuhvgxgxgxgeg6hwhxhyhz",
"hAhBdDdAhChDdDhE#BhFdxhGdVgEhHhIhJhnhKhLhMg2hNhsf.hOfKfKfKhPhQgxgxgxhRhShThUhVdX",
"d4#zbShWhXd8hYhZh0bcd4#zd5gnh1h2h3h4hKh5h6h7h8h9f.hOgwfKi.gLi#iagxgxibicid#zepeq",
"euieexifigihewc#iiijeu#vexakikiliminhKhKhLiohMipiphOiqirisitiuiuiviwixiyiziAiBiC",
"iDgTiE#3iFiGiHiIiJiKiDgT#7e1iLiMiNiOiPhKhoioioiQipiRiqgciSiTiuiTiUiViWiXfmiYiZi0",
"i1i2i2i2i3i4eti5i6i7i8i9i2j.j#jajbfCjcjdhKjejfjfjgjhfKiuiuiuiujijjjkjl#XjmfSjnjo",
"badvjpbXbdjq.Yf5f2f3jrfWjpfXjsjtjujvjwjxhKhKhKjyjzjAiujBiujCjDjEjFjGjHjIjJjKjLjM",
"gkjNbId9bKbLbMdZjOjPgkglbPbJf5bLjQjRjSjTjUjVjWjXjXjYiujBjCiajZj0j1j2bubQbR#rj3j4",
"j5j6#Zgmj7cecq#Zcf#7gBj6#Z#rj7cej8j9k.k#kakbjXjXjXjBiuiukckdkekfkgkhj7kikjclcmgR",
"kkcEklklkmkn#7fxkokpkqcEklklkmkncHkrksktkukvkwjXjzjBiukxkykzkAkBkC#7kDkEcmkFkGkH",
"kIdnkJkKkLkMkNkOkPkQkIdnkJkKkRc9kNatkSkTjSjTkUkwjziuiakVkWkXkYkZk0k1hdk2.Uk3k4k5",
"hAhBk6dAk7k8hUk9l.hFdxhBk6l#lalblck9ldlelflglhliljjEkykdlklllmhBk6dElnlocjhUhVlp",
"lq#zlrlsltluhYlvlwbcd4k6d5hWiflxhYlyiilzlAlBlClDlElFkWlGlHlIlJlKlLhWlMeolN#zeplO",
"kilPexiflQlRcpcpcbdTkiielSeyeqihcpcpiilTlUlVlWlXlYlZl0l1l2l3ki#vl4l5l6dmj6iAl7l8",
"l9kl#Waum.m#mambmcall9kl#WariFmdmembmcalcrmfmgmhmimjmkmlmmasbTlM#3axmnmogUfmmpmq",
"mrjmmsmtmumv#Xmwmumxmyjmmsmtmumv#XmzmumAd0mwmBmCmDmEmFmGmumH#omzkQmImJfymKi5mLmM",
"mNmOmPmQmRmS.5lcmTmUmVmWmPmXmRmYmZm0mTmUmVm1btmXm2m3m4m0mTmUmVm5btm6m2m7m4m8m9n.",
"n#nanbncndesnenfnggjn#nhnincnjkjmNnfeUnknlnhnincnjkj#ZnfeUnmnnnonejOnjnpnqnrnsnt",
"nunvnvnw#CarnxaufxnynznvnAnwnBarnCaufxnDnznvmbnwnBarnvarfxnDnEiImbnwnBiInFnG#WnH",
"nInJnKnLnMnNnOnPnQnRnSnJnKnLnMnNnOnQnQnTnSnJnKnLnMnNnOnQnQnTnUnJnLnLnMnVnWnXnYnZ"};
