/* XPM */
static char *dummy[]={
"40 40 1014 2",
"my c #605a49",
"jg c #686354",
"fP c #6a6556",
"aQ c #6c6759",
"ai c #4c4638",
"fi c #575040",
"iY c #585141",
"mg c #595242",
"jV c #148100",
"ka c #188600",
"i9 c #197800",
"lJ c #198500",
"j4 c #1a8800",
"k2 c #1b8900",
"h1 c #1d7a0a",
"kt c #1d8d00",
"nP c #1e1b15",
"mj c #1e2817",
"gq c #1e7e0a",
"ks c #1e8e00",
"nV c #1f1b15",
"nY c #1f1c15",
"kw c #1f3e1b",
"iP c #1f421c",
"jX c #1f451d",
"j# c #1f471f",
"gL c #1f7f0a",
"g1 c #1f810a",
"kJ c #1f8f01",
"k# c #1f9000",
"nZ c #201c15",
"mk c #203b1c",
"k1 c #209101",
"jU c #209201",
"mp c #21411f",
"ip c #214a21",
"kK c #218f01",
"ko c #219002",
"ju c #219400",
"in c #227609",
"f5 c #227910",
"gr c #227912",
"gJ c #22880a",
"f2 c #22890a",
"ik c #228d09",
"hC c #229303",
"ll c #238908",
"hB c #238a09",
"iH c #238f08",
"f3 c #239109",
"gZ c #239305",
"lK c #239401",
"gp c #239407",
"jt c #239503",
"l1 c #243a1f",
"l9 c #244b24",
"f4 c #24870d",
"iG c #24880a",
"go c #248c09",
"hZ c #248d09",
"fw c #249009",
"lI c #249201",
"iI c #249406",
"gK c #249505",
"fx c #249508",
"iM c #249605",
"jT c #249703",
"hD c #254c25",
"fz c #25900a",
"eY c #259308",
"fy c #259507",
"g0 c #259606",
"kF c #259804",
"iL c #259a04",
"nW c #26221c",
"fW c #269400",
"fV c #269602",
"hS c #269700",
"h0 c #269905",
"nI c #27231c",
"nQ c #27231d",
"ml c #274b25",
"h3 c #274c25",
"kc c #274c28",
"gC c #279501",
"iC c #279701",
"ht c #279a01",
"il c #279c06",
"kI c #279e05",
"nN c #28231c",
"ny c #28241b",
"lr c #284f28",
"gI c #28950a",
"hf c #289709",
"js c #289809",
"id c #289902",
"i1 c #289b02",
"ie c #289c02",
"im c #289c05",
"cQ c #29241b",
"nR c #29241d",
"nG c #29251b",
"nO c #29251d",
"k5 c #294e27",
"eZ c #298f0d",
"hY c #29960a",
"ha c #299703",
"i5 c #29980a",
"kr c #299e06",
"nJ c #2a251d",
"i8 c #2aa403",
"hj c #2b251c",
"ho c #2b251d",
"kO c #2b261d",
"nS c #2b271e",
"lE c #2b3f24",
"lN c #2b4f2b",
"fA c #2b8d12",
"gY c #2b9e09",
"j5 c #2ba305",
"kp c #2ba405",
"kR c #2c261d",
"nM c #2c271f",
"nT c #2c281f",
"et c #2c8e13",
"lm c #2ca407",
"iJ c #2ca408",
"nK c #2d2920",
"nH c #2d2921",
"i7 c #2da508",
"kG c #2da605",
"jM c #2da706",
"ln c #2da905",
"nX c #2e2a21",
"hh c #2e522e",
"gl c #2ea403",
"i6 c #2ea609",
"i2 c #2ea706",
"gn c #2ea708",
"k0 c #2eac06",
"am c #2f2920",
"nL c #2f2a21",
"nU c #2f2b21",
"kC c #2f542f",
"jS c #2fa709",
"iK c #2fa809",
"av c #302921",
"je c #302a1f",
"mx c #302b20",
"fU c #309b12",
"jR c #30a908",
"k. c #30ab08",
"mF c #312a20",
"aA c #312a21",
"mt c #312b20",
"fM c #312b21",
"kX c #313527",
"jQ c #31ac09",
"mR c #322c22",
"jw c #325233",
"mX c #332c22",
"fB c #338523",
"fq c #33a809",
"hT c #33af07",
"es c #33b007",
"jA c #342e24",
"g3 c #345536",
"eU c #34ae09",
"kW c #352e23",
"kE c #35931d",
"g. c #363025",
"eq c #36b707",
"jn c #36b809",
"db c #373126",
"nx c #373227",
"gN c #37563a",
"gD c #37b406",
"cX c #383126",
"cU c #383226",
"cP c #383227",
"aZ c #383228",
"np c #383327",
"a6 c #383328",
"gt c #38573b",
"kN c #393328",
"cV c #39332a",
"ng c #393427",
"aB c #39342a",
"ih c #39b70a",
"jN c #39b908",
"cR c #3a3327",
"cO c #3a3429",
"aw c #3a342b",
"cn c #3a3529",
"an c #3a352b",
"f1 c #3ac105",
"hk c #3b3428",
"cL c #3b3429",
"iV c #3b3528",
"cu c #3b3529",
"iD c #3bc009",
"iE c #3bc00b",
"j6 c #3bc109",
"au c #3c3529",
"hn c #3c352a",
"mb c #3c3628",
"kx c #3c3629",
"hi c #3c362a",
"mq c #3c372c",
"jp c #3cc10a",
"hV c #3cc20a",
"fv c #3cca05",
"fL c #3d3629",
"cS c #3d362a",
"jc c #3d362b",
"jd c #3d372a",
"cN c #3d372b",
"k8 c #3d372c",
"la c #3d372d",
"hu c #3dc209",
"ig c #3dc30b",
"jo c #3dc50a",
"hc c #3dc60b",
"hl c #3e372a",
"ao c #3e372b",
"cW c #3e372c",
"ms c #3e382b",
"mw c #3f372a",
"aC c #3f372b",
"fN c #3f372c",
"kP c #3f382b",
"ap c #3f382c",
"aD c #3f382d",
"hL c #3f382e",
"fG c #3f392d",
"nE c #3f392e",
"nD c #3f3a2e",
"jq c #3fc60a",
"lo c #3fc808",
"iU c #40382b",
"kQ c #40382c",
"kA c #40392c",
"aE c #40392d",
"dt c #40392f",
"nw c #403a2c",
"ja c #403a2d",
"nz c #403a2e",
"fk c #403c2f",
"li c #40452f",
"hw c #40c70b",
"al c #413a2d",
"aq c #413a2e",
"fH c #413a2f",
"eN c #413b2e",
"fj c #413b2f",
"#6 c #413b30",
"lY c #413c2e",
"m5 c #413c2f",
"dY c #415a48",
"jL c #41ab1f",
"kq c #41c809",
"i3 c #41c90b",
"hU c #41ca0a",
"j7 c #41cb0a",
"hx c #41d009",
"ak c #423a2e",
"nA c #423b2e",
"cM c #423b2f",
"jb c #423c2f",
"fd c #423c30",
"#Z c #423c31",
"jf c #423d31",
"jk c #425746",
"kl c #425c43",
"kL c #427b38",
"lp c #428d2d",
"jO c #42d10a",
"j8 c #42d20a",
"nv c #433c2f",
"cT c #433c30",
"mi c #433c31",
"mv c #433d30",
"mu c #433e32",
"mo c #436046",
"gV c #43ce0a",
"if c #43d30b",
"cm c #443d2f",
"ct c #443d30",
"kB c #443d31",
"hm c #443e31",
"cK c #443e33",
"nt c #443f32",
"hb c #44d10a",
"g5 c #453e30",
"aj c #453e31",
"at c #453e32",
"g9 c #453f34",
"hv c #45d00c",
"ii c #45d609",
"nu c #463f30",
"nC c #463f31",
"az c #463f32",
"nF c #464031",
"fI c #464032",
"er c #46df03",
"nB c #473f30",
"iv c #473f31",
"lV c #474031",
"mr c #474032",
"fK c #474033",
"kz c #474035",
"ex c #475d47",
"f9 c #475e47",
"mh c #484033",
"lR c #484132",
"ar c #484133",
"ax c #484134",
"eB c #484232",
"e0 c #489b2f",
"kH c #48dd09",
"eM c #494133",
"fO c #494234",
"ay c #494335",
"iO c #49634d",
"f6 c #49943b",
"gE c #49da0c",
"gm c #49dc0c",
"fr c #49eb05",
"nm c #4a4233",
"#O c #4a4234",
"nh c #4a4332",
"nn c #4a4333",
"as c #4a4335",
"fJ c #4a4436",
"#P c #4a4538",
"gW c #4be10a",
"jP c #4be309",
"j9 c #4be50a",
"fX c #4bea05",
"#Y c #4c4436",
"b3 c #4c4536",
"kf c #4c4537",
"fS c #4c624e",
"iz c #4c644f",
"hW c #4ce509",
"nf c #4d4435",
"#5 c #4d4436",
"fc c #4d4537",
"bX c #4d4637",
"gz c #4d483a",
"dZ c #4d5742",
"gj c #4d6651",
"eV c #4df105",
"ns c #4e4435",
"nc c #4e4534",
"iu c #4e4536",
"gv c #4e483b",
"b# c #4e4940",
"e6 c #4e6851",
"gB c #4e6852",
"lH c #4ea134",
"lP c #4f4537",
"lQ c #4f4636",
"it c #4f4637",
"eh c #4f4838",
"eG c #4f493b",
"by c #4f493c",
"eA c #4f5845",
"ez c #4f5a47",
"kv c #4f6650",
"gT c #4f6953",
"lL c #4f893b",
"i4 c #4ff307",
"cy c #504838",
"cv c #504839",
"cs c #504938",
"#x c #50493c",
"br c #504a3c",
"h. c #506a54",
"k3 c #50853e",
"bW c #514838",
"nj c #514938",
"cg c #514939",
"jF c #51493c",
"nq c #514a38",
"i. c #514a3c",
"#t c #514a3d",
"cY c #514e47",
"jr c #51fc06",
"iT c #524838",
"ke c #524938",
"gR c #524939",
"no c #524a38",
"cl c #524a39",
"e8 c #524a3a",
"d4 c #524a3c",
"dL c #524b3d",
"ey c #52614b",
"fF c #526b56",
"ku c #527f47",
"iB c #52ab35",
"gF c #52fa06",
"gX c #52fb05",
"nr c #534a39",
"g4 c #534a3a",
"eg c #534a3c",
"nd c #534b38",
"e9 c #534b3a",
"md c #534c3b",
"mS c #534c3d",
"gf c #534c3e",
"#R c #534d3a",
"mA c #534d40",
"ek c #535f4a",
"dj c #536852",
"hd c #53fb06",
"nk c #544b39",
"cp c #544b3a",
"ch c #544b3b",
"lz c #544b3c",
"#1 c #544c3a",
"gS c #544c3b",
"ff c #544d3b",
"mM c #544d3e",
"aY c #544d3f",
"mJ c #544e41",
"e7 c #545741",
"hy c #54f806",
"iF c #54ff04",
"g6 c #554b3b",
"m6 c #554c39",
"#S c #554c3a",
"fg c #554c3b",
"mc c #554d3b",
"b. c #554d3f",
"mE c #554d40",
"m# c #554e3b",
"kV c #554e41",
"mI c #555043",
"mK c #555044",
"ij c #55ff06",
"iy c #564e3c",
"mG c #564e3f",
"mW c #564e41",
"mz c #565042",
"mO c #565144",
"el c #56654f",
"mm c #566b56",
"eL c #574e3c",
"ck c #574e3e",
"#4 c #57503d",
"mV c #575043",
"co c #575142",
"mP c #575143",
"#Q c #575242",
"eO c #57634f",
"l2 c #576e58",
"fs c #57ff05",
"hX c #57ff06",
"#N c #584d3c",
"lC c #584e3b",
"#X c #584e3c",
"#i c #584e3d",
"cz c #584e3e",
"iq c #584f3b",
"eE c #584f3c",
"#M c #584f3d",
"g8 c #584f3e",
"#V c #58513d",
"k7 c #585143",
"jD c #585144",
"iW c #58523e",
"#0 c #585242",
"#7 c #585243",
"mT c #585244",
"lZ c #58533e",
"mB c #585346",
"do c #586d59",
"he c #58ff05",
"eX c #58ff06",
"fb c #594e3d",
"ky c #594f3e",
"nl c #59503d",
"#s c #59503e",
"m. c #59513f",
"mD c #595244",
"da c #595245",
"mH c #595345",
"fe c #595444",
"mL c #595446",
"jx c #595547",
"eK c #5a4f3f",
"bV c #5a503d",
"b2 c #5a503e",
"d6 c #5a503f",
"ne c #5a513e",
"cj c #5a513f",
"dM c #5a5140",
"ei c #5a523d",
"lA c #5a533e",
"hK c #5a5344",
"mQ c #5a5447",
"mC c #5a5547",
"gG c #5aff05",
"eW c #5aff06",
"#m c #5b513d",
"b6 c #5b513e",
"is c #5b513f",
"iS c #5b5140",
"cx c #5b523f",
"kk c #5b5240",
"d2 c #5b5241",
"ni c #5b533e",
"eC c #5b533f",
"cr c #5b5340",
"jz c #5b5345",
"lS c #5b543f",
"#j c #5b5444",
"cf c #5b5445",
"ds c #5b5446",
"jy c #5b5647",
"jE c #5b5649",
"dQ c #5b634f",
"dR c #5b715b",
"hz c #5bff04",
"f0 c #5bff05",
"#h c #5c513e",
"#r c #5c513f",
"ma c #5c5140",
"bR c #5c523d",
"#w c #5c523f",
"#W c #5c5240",
"h8 c #5c5241",
"d3 c #5c5242",
"b5 c #5c533e",
"g7 c #5c5340",
"lt c #5c5341",
"ls c #5c5342",
"#8 c #5c543f",
"lW c #5c5440",
"iR c #5c5441",
"gQ c #5c5445",
"ki c #5c5545",
"jj c #5c5648",
"l. c #5c5749",
"cA c #5c584e",
"em c #5c6f59",
"kY c #5c6f5e",
"e5 c #5c7560",
"hA c #5cff05",
"fu c #5cff06",
"fa c #5d5341",
"h9 c #5d5342",
"lu c #5d5343",
"cq c #5d543f",
"#2 c #5d5440",
"d1 c #5d5442",
"h7 c #5d5443",
"#T c #5d5540",
"iX c #5d5541",
"mf c #5d5542",
"gb c #5d5548",
"f# c #5d5642",
"g# c #5d5646",
"ge c #5d5647",
"mN c #5d5749",
"gc c #5d574a",
"mU c #5d5849",
"be c #5d5950",
"ft c #5dff05",
"cw c #5e5540",
"ci c #5e5541",
"ee c #5e5542",
"ib c #5e5645",
"aX c #5e5647",
"#U c #5e5743",
"a5 c #5e5747",
"a9 c #5e5748",
"aT c #5e5849",
"aU c #5e584a",
"jB c #5e584b",
"hG c #5e594b",
"jJ c #5e735f",
"fY c #5eff05",
"lx c #5f5542",
"kj c #5f5641",
"f. c #5f5642",
"m4 c #5f5645",
"#3 c #5f5743",
"a8 c #5f574a",
"a7 c #5f5848",
"a4 c #5f584a",
"ej c #5f5942",
"aV c #5f594b",
"dp c #5f6050",
"gH c #5fff06",
"me c #605642",
"dN c #605644",
"ef c #605645",
"lB c #605740",
"iQ c #605742",
"l0 c #605743",
"fh c #605843",
"a0 c #605949",
"kU c #60594a",
"gd c #605a4c",
"jC c #605a4d",
"di c #605f4e",
"dk c #607560",
"jm c #60a747",
"fp c #60ac49",
"#g c #615542",
"lT c #615740",
"lD c #615743",
"h4 c #615745",
"ly c #615746",
"iw c #615840",
"eD c #615841",
"gu c #615946",
"#L c #615a48",
"hr c #615a4c",
"dg c #615b4d",
"e. c #615c4f",
"fZ c #61ff06",
"ix c #625743",
"bU c #625843",
"#q c #625844",
"eF c #625845",
"lh c #625846",
"kh c #625943",
"kd c #625a46",
"k6 c #625a4a",
"hI c #625b4d",
"aW c #625c4d",
"k9 c #625c4e",
".2 c #625d4f",
"kT c #625d50",
"kS c #625f53",
"gO c #635943",
"m1 c #635945",
"bS c #635a43",
"b0 c #635a44",
"dK c #635a4b",
"l# c #635b4b",
"lb c #635c4b",
"jh c #635c4c",
"dq c #635d4e",
"a3 c #635d4f",
".X c #635e50",
"fR c #636050",
"bF c #636057",
"m8 c #645947",
"n. c #645a47",
"#v c #645b44",
"m9 c #645b45",
"m7 c #645b46",
"lg c #645c4d",
"hF c #645e50",
"ji c #645f50",
"#n c #655c44",
"m0 c #655c48",
"hJ c #655c4d",
"bE c #655d4a",
"hM c #655e4d",
"fQ c #655e4e",
"d# c #655e4f",
"hN c #655f50",
"hH c #656052",
"hq c #656053",
"aF c #656054",
"mn c #657665",
"d7 c #665c48",
"dO c #665c49",
"bQ c #665d46",
"h5 c #665d49",
"bx c #665d4a",
"bq c #665d4b",
"jY c #665e4b",
"dr c #665e4e",
"aR c #665f4f",
"bY c #66604c",
"aS c #666051",
"df c #666052",
"dw c #666152",
".N c #666153",
"hp c #666255",
"kM c #667565",
"l8 c #667666",
"lO c #675c48",
"j1 c #675d47",
"eJ c #675d4a",
"bZ c #675e48",
"#p c #675e49",
"lv c #675e4a",
"m3 c #675e4b",
"d0 c #675f4b",
"ga c #676052",
"dd c #676152",
"dh c #676153",
"d. c #676255",
"b7 c #676257",
"ir c #685d49",
"b4 c #685e48",
"dP c #685e49",
"h6 c #685e4a",
"#o c #685f48",
"kg c #685f49",
"#l c #685f4a",
".L c #685f4b",
"#z c #68604a",
"nb c #68604c",
"du c #686150",
"lc c #686152",
"k4 c #687769",
"bn c #695f4a",
"eI c #69604b",
"bw c #69604c",
"ed c #69614e",
"bs c #69624d",
"bP c #696251",
"a2 c #696253",
"a1 c #696254",
"c9 c #696558",
"bT c #6a604a",
"b1 c #6a614b",
".M c #6a614d",
"ia c #6a614e",
"hE c #6a6254",
"bz c #6a634e",
"gA c #6a6351",
"dc c #6a6352",
"hO c #6a6354",
"iZ c #6a7d6c",
"lU c #6b604a",
"lX c #6b604b",
"bt c #6b614b",
"gP c #6b614c",
"gw c #6b624c",
"d8 c #6b624d",
"n# c #6b634d",
"na c #6b6350",
"d5 c #6b644e",
"jZ c #6b644f",
".V c #6b6451",
"de c #6b6455",
"bm c #6c624c",
"jI c #6c634d",
"gi c #6c644d",
"m2 c #6c6451",
"#k c #6c6551",
"#u c #6c6552",
"dv c #6c6556",
"aP c #6c675c",
"fl c #6c7f6e",
"bA c #6d634e",
".0 c #6d644e",
".K c #6d644f",
".S c #6d654e",
"i# c #6d6650",
"lw c #6d6651",
"#y c #6d6653",
"lq c #6d7a6e",
"bl c #6e644d",
"bu c #6e6653",
"eH c #6e6754",
"jH c #6f654f",
"bp c #6f6651",
"bB c #6f6654",
"bD c #6f6751",
"gx c #6f6754",
"bk c #706750",
"gh c #706851",
"gy c #706852",
".U c #706853",
"jG c #716851",
".R c #716853",
"dJ c #716857",
"mZ c #716a58",
".5 c #726952",
"#f c #726954",
".Q c #726a53",
"ec c #726a54",
"mY c #726d5c",
"eb c #736a53",
"lf c #736a59",
"j0 c #736b54",
"bC c #736b56",
"dx c #736f61",
"bv c #746b56",
"bo c #746c57",
"bj c #746e5b",
"gg c #746f5b",
".T c #756d59",
"d9 c #756e5a",
".1 c #756e5c",
".W c #756f5c",
".I c #75746c",
"bi c #77746a",
"lM c #788075",
".P c #7a725c",
".Z c #7a725d",
".4 c #7b735e",
"#9 c #7b7563",
"dl c #7b8c79",
"ea c #7c745f",
"j. c #7d7679",
"dI c #7f7865",
"hQ c #7f7966",
"lj c #7f857c",
".u c #807366",
"dH c #807a68",
"fC c #80b675",
".m c #817467",
"le c #817a67",
".J c #817b66",
"iN c #818f77",
"hP c #827c69",
"cE c #827c70",
"fo c #82b973",
"ld c #837d6a",
"jv c #848778",
"#A c #857f6c",
"io c #859987",
"cC c #868173",
"#J c #878175",
"aI c #878274",
"bh c #87857b",
"dn c #879885",
"aJ c #888375",
"lF c #888f88",
".c c #897d6f",
"kb c #89837f",
".6 c #898472",
"cD c #898477",
"ae c #8a8578",
"af c #8a8579",
"ag c #8a8679",
"dB c #8a897e",
"l7 c #8a8f88",
"#I c #8b8678",
"aO c #8b867a",
".O c #8b8773",
".Y c #8c8774",
"eP c #8c968c",
"#H c #8d877a",
".3 c #8d8875",
"aM c #8d887d",
"bd c #8d8a7d",
"ew c #8d9d8d",
".k c #8f8677",
".s c #8f8777",
"e# c #8f8b78",
"ah c #8f8b7f",
"bc c #8f8c7f",
"dm c #8f9d8c",
"bf c #908e83",
"c. c #918d80",
"cF c #918e85",
"j2 c #919891",
".h c #92897a",
"aN c #928c80",
"b9 c #928d7f",
"bg c #929086",
"aH c #938e81",
"#K c #938e82",
".y c #958f82",
"#e c #959188",
"bb c #969389",
".H c #96968e",
"cb c #979284",
"bL c #979386",
"jl c #979b97",
"lk c #979c8f",
"kn c #97bb89",
"aK c #989589",
".G c #98988f",
"jW c #997f97",
".t c #998978",
".i c #998e7f",
".q c #998f7f",
".w c #999182",
"#d c #999489",
"cI c #999688",
"bK c #99968c",
".r c #9a8976",
".j c #9a8977",
".l c #9a8a78",
"ad c #9a9688",
"aL c #9a978c",
".e c #9b8f7e",
".o c #9b9183",
"cJ c #9b9689",
".n c #9c907e",
".f c #9c9283",
"aa c #9c9688",
"bJ c #9c998c",
"c# c #9c998f",
"cH c #9c9a8b",
".C c #9c9d95",
"#G c #9d9a8b",
"l3 c #9d9a99",
"fn c #9dbd97",
".x c #9e9283",
".a c #9e998c",
"ab c #9e9a8c",
"l5 c #9f9997",
"en c #9faba0",
".g c #a09080",
"#c c #a09c92",
".p c #a19181",
".b c #a19282",
"a# c #a19c8d",
"bM c #a19e91",
"c0 c #a1a096",
"ba c #a1a198",
".D c #a1a29a",
"Qt c #a29b8d",
"c2 c #a2a197",
".B c #a2a39b",
"c3 c #a3a39b",
"f8 c #a49ea3",
"#b c #a4a296",
"c8 c #a4a297",
".F c #a4a59d",
".v c #a59d8e",
"jK c #a6a5a3",
"kD c #a79fa2",
"ca c #a7a495",
"bH c #a7a598",
"c7 c #a7a59b",
"ce c #a8a495",
"#F c #a8a595",
"bI c #a8a698",
".E c #a8aaa2",
".# c #a9a093",
"#E c #a9a697",
"c5 c #a9a79d",
"l6 c #aaa3a3",
"ac c #aaa799",
"#a c #aaa79b",
"c6 c #aaaa9f",
"iA c #aaaaa8",
".A c #aaaca5",
".d c #ab9e8d",
"cG c #aba99b",
"i0 c #acaca9",
"kZ c #ada6a6",
"bO c #ada99c",
"km c #ada9a9",
"cc c #adab9c",
".9 c #adaba1",
"dX c #adb8ac",
"#D c #aeaa9c",
"#C c #aeab9e",
"c1 c #aeafa6",
"cB c #afaea5",
"dA c #afafa2",
"j3 c #afafa9",
"bN c #b0ada1",
"dz c #b0afa2",
"## c #b1aea3",
"dD c #b2b1a3",
"l4 c #b3aaae",
"lG c #b4abaf",
"cd c #b4b2a5",
"dE c #b4b3a7",
"c4 c #b4b3a9",
"dG c #b4b4a8",
".z c #b4b7b1",
"dy c #b5b5aa",
"dF c #b7b8ad",
"#. c #b8b7ae",
"aG c #b9bab1",
"e1 c #b9f39f",
"a. c #bbbcb2",
"b8 c #bcbdb5",
"dC c #bdbeb2",
"cZ c #c0c2bb",
"#B c #c4c6bd",
".8 c #c5c7bf",
"bG c #c5c7c0",
"fE c #c6d1c8",
"h2 c #c7d0c5",
"ep c #c8d9bf",
"eT c #ccd0c9",
"f7 c #cce0c9",
"g2 c #cfd9d0",
"hg c #d0dbcf",
".7 c #d1d4ce",
"eQ c #d1d5d3",
"e4 c #d3d9d5",
"eu c #d3e7ce",
"dV c #d4e8d1",
"hR c #d6e2d7",
"dU c #d9e2db",
"fm c #dce2dc",
"gM c #dce3dc",
"ic c #dee4e0",
"gs c #e1e7e1",
"fT c #e3eae3",
"hs c #e4eee5",
"gU c #e4efe3",
"h# c #e5eee4",
"dS c #e8ebe9",
"gk c #e8f0e7",
"fD c #f1f6ef",
"dT c #f9ecf7",
"ev c #f9f9f9",
"eo c #faf8fa",
"e3 c #fbfbfb",
"e2 c #fcfffc",
"eS c #fefcff",
"dW c #fff2fc",
"eR c #ffffff",
"Qt.#.a.b.c.d.e.f.g.h.i.j.k.l.m.d.n.o.p.h.q.r.s.t.u.v.n.w.x.y.z.A.B.C.D.E.F.G.H.I",
".J.K.L.M.N.O.P.Q.R.S.T.U.V.W.X.Y.Z.Q.R.0.T.R.V.1.2.3.4.5.R.6.7.8.9#.###a#b#c#d#e",
"#f#g#h#i#j#k#l#m#n#o#p#q#r#s#t#u#l#m#v#o#p#q#w#s#x#y#z#m#v#A#B#C#D#E#F#G#H#I#J#K",
"#L#M#N#O#P#Q#R#S#T#U#V#W#X#Y#Z#0#R#1#2#3#4#W#X#5#6#7#R#1#8#9a.a#aaabacadaeafagah",
"aiajakalamanaoapaqarasatauauavawaoapalaxayazauauaAaBaCaDaEaFaGaHaIaJaKaLaMaNaOaP",
"aQaRaSaTaUaVaWaXaYaZa0a1a2a3a4aVaWa5aYa6a7a1a2a3a8aVaWa9b.b#babbbcbdbebfbgbgbhbi",
"bjbkblbmbnbobp.Lbqbrbs.Qbt.0bubvbpbwbxbybz.QbtbAbBbCbDbwbEbFbGbHbIbJbKbHbLbMbNbO",
"bPbQbRbSbnbTbUbVbWbXbYbZbRb0b1bTbUb2bWb3bYb4b5bSb1bTbUb6bWb7b8b9adc.c#cacbcccdce",
"cfcgchcicjcgckclcmcncocgcpcqcrcsckclctcucocvcpcwcxcyczclctcAcBcCcDcEcFcGcHcIcJ#E",
"cKcLaoaucMcNcOcPaucQaBcRcScScTaocLcUaucQcVcRcScScTcWcLcXcucYcZc0c1c2c3c4c5c6c7c8",
"c9d.d#dadbdcdddedfdgdhdidjdkdldmdndodpdgdhdqdrdsdtdudddvdwdxdydzdzdAdBdCdDdEdFdG",
"dHdIdJdKdLbsdMdNdOdPdQdRdSdTdUdVdWdXdYdZd0d1d2d3d4d5d6dNd7d8d9#f#u.We.e#eaebec.S",
"edeeefegeheiejekelemeneoepeqereseteuevewexeyezeAeBeCeDeEbUbt#peF#w#seGeHeI#m#v#o",
"eJeKeLeMeNeOePeQeReSeTeUeVeWeXereYeZe0e1e2e3e4e5e6e7e8e9f.f##Vfafbfcfdfefffg#2fh",
"fiazfjfkflfmfnfofpfqfrfsfteWfufvfwfxfyfzfAfBfCfDfEfFfdfGfHfIfJfKcSfLfMawfNaEalfO",
"fPfQfRfSfTfUfVfWfXeXftfYfZfZf0f1f2f2f3fxfxf4f5f6f7f8f9cfdLg.g#gagadggbgcgdgegfcP",
"ggghgigjgkfVglgmfYfZftfZfZfZftgnf2f2gofxfxfxgpgqgrgsgtgubxgvd5ebgwbAgxbCgybwbxgz",
"gAbQeigBgkgCgDgEgFgGfZfZfZfZgHgIf2f2gJgogKgKgKgKgLgMgNb6bWb3bY#ob5gOgPbTbUb6bW#Y",
"gQgRgSgTgUfVgVgEgWgXgHfYfZfZgHgYf2f2f2f2gZgKgKg0g1g2g3g4g5cucocgg6cwg7cgg8e9g5cu",
"g9auaph.h#hahbgEhchdhefYfZfZgHhff2f2gJf2gZgKgKgKg1hghhcPhihjaBhkhlaohmaphncPhiho",
"hphqhrh.hshthuhvhwhxhyhehzhAfteYf2f2f2hBhCgKgKgKgqhghDhEhFhGhHhIhJhKhLhMhNhOhFhG",
"hPhQdJgThRhShThvhUhVhWhdhXhzfthYf2f2f2hZh0gKgKgKh1h2h3h4h5h6d0h7h8h9i.i#dMh4h5h6",
"iaeeibgBicidieifhUigihiiijhefthYgJf2ikg0ilimgKgKinioipiqbUbtirisitiuiv#8iwiqixbt",
"eJd6iyiziAiBiCiDhUhUhViEhWiFiFhYiGiHiIiJiKiKiLiMiNiOiPcpiQiRffiSiTiUiViWe9cpf.iX",
"iYfK#6fHiZi0i1i2i3hUhwiEiEi4iFi5iGgoi6i7iKi7i8i9j.j#fjjajbfKazfLjcjdjejfcTjacMfK",
"jgjhjijjjkjljmfWjnjohUjpjqjqjrjsf2iKiKiKiKjtjujvjwjxjyjz#xjA#0jBjChGjDjEjycfjFjA",
".WjGjHjIdPjJjKjLjMjNhUhUhUjOjPjQiKjRiKjSjTjUjVjWjXbCgy.MjYgvjZj0bm.0gxbC.R.Mbqgz",
"gAj1b5bSbnbTj2j3j4j5j6j7j8j9j9k.iKjRjSimk#kakbkckdbTbUb6kekfbYkgb5bSgPbTkhb6keb3",
"kie8fgkjkke8klkmknkokpkqj9j9j9jRiKiKkrksktkukvkwcxcl#scpg5kx#0e8fgcwiRclkycpg5hi",
"kzcSkAaokBapcukCkDkEkFkGkHj9jPjRiKkIkJkKkLkMj#aoazaDjckNcNkOanaukPkQazaDjckNcNkR",
"kSkTkUkVkWfQa3kXkYkZj4j5k0kHjPiKimk1k2k3k4k5k6k7k8jha3gak9l..Xgdl#k7lalbdqlck9l.",
"ldlelflgdLjZd2lhliljlklllmlnlojUkJkslplqlrlsltludLi#kklhlvbnd0h7ltlui.lwkklhlvbn",
"ialxlylzehlAlBlClDlElFlGlHlIlJlKk2lLlMlNlOislPlQlRlSlTiqbUlUirisitlQlVlWlTiqlDlX",
"lvd6eLeMlYlZgSgSl0crl1l2l3l4l5l6l7l8l9m.m#maiTiUmblZe9gSiQiXmcmaiTiUiVlZmdgSmemf",
"mgmh#ZcMa6jfmiaqkBfOg5mjmkmlmmmnmompmqfOmrhlapmsmtmukBeNmvfOfKmwapmsmxmukBeNmvfO",
"mygeaVmzmAmBmCmDmEmFmGmHjjmImJmKmLk7kVfMmMdamNmOmPmBmQmDkVmRmSmTmUmOmVmBmQmDmWmX",
"mYmZ#lm0m1m2m3mfm4m5m6i#gwm7m8m2d0mfm4m5m6i#gwm9n..Vd0d1m4fjm6i#n#m9n.nanbd1m4fj",
"#jd2ncnd#Mnekenf#Ongnhninjnknlnekenfnmngnnninjnknlnenonfnmnpnnninqndnl#snrnsnmnp",
"ntcNapnunvnwakapnxnynznAnwnBnCnwakapcPcQnDnAnwnunCnwakkPcPcQnEeNnwnunFnwakkPcPnG",
"nHnInJnJnKnLnMnNnOnPnQnRnSnTnUnLnMnNnOnVnWnRnSnTnUnXnMnNnOnYnWnRnSnMnUnXnTnNnOnZ"};
