/* XPM */
static char *dummy[]={
"40 40 343 2",
".y c None",
"#T c #000000",
"#S c #010100",
"#1 c #020100",
"#W c #020200",
"aK c #020201",
"c6 c #020202",
"aS c #030200",
"dm c #030201",
"aT c #040301",
"c. c #040302",
"#3 c #050303",
"b3 c #070503",
"af c #080504",
"bV c #090704",
"di c #0a0a0a",
"ax c #0b0707",
"de c #0b0a0a",
"ap c #0c0807",
"#5 c #0d0804",
"cF c #0d0a06",
"ac c #0f0909",
"#6 c #120b08",
"cB c #120d09",
"aA c #130b0b",
"as c #140d0c",
"a0 c #150c05",
"c3 c #160d0d",
"#O c #161106",
"cn c #17100d",
"#J c #171105",
"#I c #171106",
"#K c #171206",
"#L c #181106",
"#H c #181206",
"bU c #191009",
"dg c #191212",
"b2 c #1d150b",
"cV c #1d1915",
"c0 c #1d1a19",
"cI c #1e1312",
"a9 c #1f1106",
"cK c #1f1610",
"cw c #211811",
"c5 c #221e1c",
"cQ c #231d19",
"do c #252425",
"b. c #281408",
"cS c #281a18",
"dn c #292626",
"cm c #2a1b1a",
"dh c #2c2222",
"aQ c #2d1c11",
"aF c #2d1d1a",
"cs c #2e1e1b",
"c1 c #2f1f1c",
"a4 c #2f2018",
"a2 c #311a09",
"cy c #31221a",
"bN c #32200a",
"a7 c #35251b",
"#7 c #35251e",
"dq c #35280d",
"#4 c #37261e",
"c7 c #37290d",
"ca c #382421",
"cz c #38261f",
"c2 c #392620",
"dj c #392a0e",
"cW c #3a2b0e",
"df c #3a2d2c",
"cT c #3b2621",
"b9 c #3c2625",
"ch c #3c2723",
"cU c #3e2922",
"bK c #402927",
"cL c #403112",
"aL c #41291a",
"cP c #412f0c",
"bg c #413212",
"#X c #413213",
"ad c #423313",
"cC c #433312",
"aG c #433414",
"bm c #442e23",
"cZ c #44300d",
"#U c #453513",
"#Z c #453514",
"bd c #462f26",
"c# c #463514",
"#8 c #463614",
"bE c #47230a",
"bj c #472f23",
"al c #473124",
"ay c #473614",
"da c #48340e",
"dd c #483511",
"bC c #492c25",
"cf c #492e2c",
"aa c #493014",
"ba c #4a3322",
"du c #4a3610",
"dl c #4a3611",
"bR c #4b3329",
"b0 c #4c302e",
"br c #4c3122",
"c4 c #4c322b",
"cv c #4c3810",
"#P c #4c3a16",
"bS c #4d312d",
"a# c #4d3521",
"aY c #4d3828",
"aU c #4e280f",
"#2 c #4e3a11",
"ae c #4e3a12",
"#Y c #4e3b12",
"cH c #4f372c",
"ar c #4f3b12",
"#M c #4f3c16",
"dp c #4f4b4c",
"#R c #503c13",
"#9 c #513c12",
"#0 c #513c13",
"ak c #513d12",
"aJ c #513d13",
"b7 c #523530",
"cr c #52362d",
"aw c #52372c",
"az c #523d13",
"#V c #533e14",
"bu c #543019",
"aV c #543c2b",
"cM c #543e13",
"aR c #543f14",
"cq c #553a2c",
"bz c #563324",
"cp c #563b2c",
"cl c #573931",
"a. c #573c2f",
"#h c #574014",
".x c #574113",
".J c #574114",
"#G c #574115",
".T c #584114",
"bZ c #593c30",
"aH c #594114",
".8 c #594214",
"ct c #594215",
"#N c #594315",
"bW c #5a3823",
"cA c #5a3b32",
"#Q c #5a4215",
".1 c #5a4315",
"bF c #5b2905",
"aZ c #5b341a",
"at c #5b3e31",
"cg c #5b4315",
"#m c #5b4316",
"a1 c #5b4416",
"bQ c #5c412f",
"cd c #5d3e34",
"bH c #5e3e30",
"cR c #5e4232",
"bo c #5f2608",
"d. c #5f4514",
"bf c #60290c",
"b1 c #603c2b",
"cJ c #614134",
"c8 c #614613",
"cY c #614615",
"bM c #62330f",
"cX c #624513",
"cN c #624715",
"dt c #624817",
"aj c #634435",
"c9 c #634815",
"ao c #644536",
"d# c #644914",
"ds c #644a18",
"b8 c #654336",
"b4 c #654437",
"cO c #654915",
"bI c #654936",
"db c #654a18",
"ck c #664536",
"dc c #664b18",
"dk c #674b18",
"cG c #674b37",
"dr c #674c18",
"aB c #694838",
"ce c #6a4738",
"co c #6a4837",
"#B c #6c511b",
"ag c #6d4d39",
"ab c #6d4d3a",
"#A c #6d521b",
"#v c #6d521c",
"#t c #6d531d",
"by c #6e451a",
"#u c #6e511b",
"#w c #6e531c",
"#D c #6e531d",
"#y c #6e541d",
"bY c #6f4c38",
"#r c #6f521b",
"#q c #6f541c",
"bp c #702e05",
"#C c #70521b",
"#s c #70531b",
"cE c #70541b",
"#z c #70541c",
".B c #70551c",
".t c #70551d",
"## c #70561d",
"bT c #71441d",
"bP c #714e3a",
"#x c #71541c",
".F c #71551c",
".a c #71551d",
".p c #71561c",
".k c #71561d",
".P c #71561e",
"ci c #724f3b",
"cD c #72531a",
"#E c #72541c",
"#j c #72551c",
"#f c #72551d",
"#. c #72561c",
".s c #72561d",
".7 c #72561e",
".5 c #72571e",
"#l c #72581e",
".w c #73561d",
".6 c #73571d",
".g c #73571e",
".d c #73581e",
".W c #73581f",
"cu c #74561b",
".3 c #74561c",
".f c #74571c",
".q c #74571d",
".N c #74571e",
".n c #74581d",
".E c #74581e",
"#i c #74581f",
".9 c #74591e",
".M c #74591f",
".H c #75561c",
".u c #75571c",
".b c #75571d",
"#n c #75571e",
".r c #75581d",
"Qt c #75581e",
".2 c #75581f",
".O c #75591e",
".R c #75591f",
"bO c #764823",
"#F c #76561c",
".l c #76571c",
".Q c #76571d",
".4 c #76581c",
".D c #76581d",
"#e c #76581e",
".i c #76591d",
".m c #76591e",
".z c #76591f",
"aI c #765a1f",
"a3 c #773311",
"cx c #77543f",
".G c #77571d",
".V c #77581c",
".h c #77581d",
".Z c #77581e",
".c c #77591d",
"#d c #77591e",
"#o c #775a1d",
"#a c #775a1e",
".U c #775a1f",
"#c c #775a20",
"#k c #775b20",
"bB c #78513a",
".Y c #78581d",
"#g c #78581e",
".j c #78591d",
".I c #78591e",
".e c #785a1d",
".v c #785a1e",
"#p c #785a1f",
"#b c #785b1f",
".K c #785b20",
".0 c #79581e",
".X c #79591d",
".S c #79591e",
".# c #795a1d",
".o c #795a1e",
".C c #795b1e",
"cj c #7a553e",
"b6 c #7a553f",
"aq c #7a591e",
".L c #7a5a1e",
"bb c #7a5a43",
".A c #7a5b1e",
"a6 c #7a5d44",
"be c #7b3810",
"bX c #7d5740",
"aE c #7d5841",
"bA c #7d5a44",
"bJ c #7d5f44",
"a8 c #7e340f",
"aP c #805c42",
"aW c #806347",
"bL c #814e1e",
"bh c #823209",
"aM c #835f44",
"av c #86562d",
"aC c #875f43",
"cb c #8a6448",
"cc c #8b6347",
"aD c #8e5f39",
"au c #8f5f37",
"bs c #91521d",
"bG c #915e13",
"b5 c #926b4c",
"a5 c #957454",
"bw c #963d0b",
"aO c #977352",
"am c #986637",
"bv c #9c5318",
"ai c #9d6a33",
"bt c #9e6622",
"bl c #9e662b",
"aN c #9e7b58",
"bc c #a27b57",
"b# c #a7500d",
"aX c #aa8a63",
"ah c #ac7738",
"bD c #ae5b13",
"bx c #b16004",
"bk c #b2762e",
"an c #b37831",
"bq c #b67919",
"bi c #bb831f",
"bn c #bd570f",
"Qt.#.a.b.c.d.e.f.g.hQt.i.j.k.l.m.n.o.p.q.j.g.e.r.s.hQt.i.e.t.u.v.w.#.x.y.y.y.y.y",
".z.A.B.b.j.g.C.f.g.D.E.v.j.a.l.mQt.A.F.q.c.g.C.r.s.GQt.c.o.t.H.I.q.A.J.y.y.y.y.y",
".K.L.s.l.h.M.o.b.N.D.O.v.j.P.Q.m.m.L.w.b.h.R.o.D.s.h.R.v.S.P.l.I.O.o.T.y.y.y.y.y",
".U.S.N.u.V.W.j.D.N.V.E.m.j.g.l.r.E.X.E.u.h.d.Y.Z.w.hQt.D.X.g.l.c.g.0.1.y.y.y.y.y",
".2.I.a.3.4.5.h.u.w.G.6.b.Y.t.l.r.6.j.s.3.h.7.h.D.F.4.g.b.j.t.l.m.s.j.8.y.y.y.y.y",
"Qt.v.a.u.c.d.c.f.g.h.9.i.j.k.l.m.n.o#..3.c.d.c.r.s.h.O.D.j##.u.v.s.e.J.y.y.y.y.y",
".m.A.B.b.c.g.C.f.N.DQt#a.e.k.Q.m.r.A#..f.j.g.C.r.s.GQt.c.o.t.u.v.w.C.J.y.y.y.y.y",
"#b.L.a.b.h.M.o.u.g.DQt.v.X.k.Q.D.m.L.s.q.h.2.o.D.s.G.2.v.o.k.H.IQt.L.T.y.y.y.y.y",
"#c.S.g.l.h.M.j.b.E.D.O#d.I.g.l.D.O.X.q.b.h.M.j.Z.6.h.R.c.S.g.l.c.E.S.1.y.y.y.y.y",
".R.I.s.H.V.5.h.b.6.G.6.r.I.s.l.b.g.j.6.3.h.5.h#e#f.4.g.b.X.s.l.i.s#g.1.y.y.y.y.y",
"Qt.I.p.u.c.W.c.f.w.h.E.r.j.t.l.m.E.j.a.3.c.g.h.b.F.D.E.r.j.t.u#a.s.j.T.y.y.y.y.y",
".O.C.a.b.j.g.o.f.g.hQt.c.e.k.Q.m.n.A.s.b.j.g.e.r.s.hQt.i.v##.u.v.w.C#h.y.y.y.y.y",
".U.L.F.Q.h#i.A.f.6.QQt.v.j.t.Q.D.m.A#j.q.h.N.A.Q.s.hQt.v.#.k.H.I.E.L.T.y.y.y.y.y",
"#k.S.7.l.h.M.S.b.N.4.O.v.I.5.l.D.m.S.6.b.h.R.S#e.6.h.R.I.X.5.l#dQt.S.8.y.y.y.y.y",
".z.I.N.u.V#l.h.Q.N.h.g.D.I.g.l.r.E.Y.E.H.h.g.h#d.w.4.E.D.X.g.l.i.g#g#m.y.y.y.y.y",
".2.I.B.3.4.5.D.3.s.h.g.b.j.B.l.r.g.j.p.3.h.g.h.b.F.Q.E.b.j.B.u#d.s.j.T.y.y.y.y.y",
".O.o.p.b.c.d.e.f.g.hQt.i.j.k.l.m.n.o.k.f.j.g.e.r.s.hQt.i.j.k.u#b.w.o.J.y.y.y.y.y",
".z.A.B.Q.h.g.A.f.g.Q.E.v.e.t.Q.i.r.A#j.3.h.g.C.b.s.hQt.c.o##.H.v.6.A.J.y.y.y.y.y",
".K.L.s.u.h.R.o.b.N.DQt.v.S.s.Q#e.m.L.w.b.h.M.o.D.w.h.R.I.S.s.l#dQt.o.T.y.y.y.y.y",
"#c.X.N.l.V#i.j.Q#n.D.E#d#g.g.l.D.O.X.E.b.h.E.Y.Z.w.hQt.D.X.g.l.c.N#g.1.y.y.y.y.y",
".2.j.k.H.4.7.h.b.w.G.6.b.I.t.l.b.g.j.s.3.h.7.h.D#j.4.g.b.j.a.u.i.k.j.8.y.y.y.y.y",
"Qt.e.F.u.c.d.c.f.6.h.9.D.j.k.l.m.q.e.k.3.c.g.c.r.s.h.O.r.j##.u.v.s.e.J.y.y.y.y.y",
".m.A.F.b.j.g.C.f.g.D.E#o.j##.Q.m.n.A#..f.j.g.C.r.s.h.E.c.o.k.u.v.w.A.J.y.y.y.y.y",
"#p.L#q#r#s#t#j#u#v#r#w.F#x#y.Q.D.m.L#z#A#s#t#j#r#B#C#D#x#E#y#F.IQt.o.T.y.y.y.y.y",
".U.S#G#H#I#I#I#I#I#J#I#K#L#M.l.D.O.X#N#H#J#O#I#I#O#J#I#I#I#P.l#dQt.S#Q.y.y.y.y.y",
".R#g#R#S#T#T#T#T#T#T#T#T#T#U#F.b.g.j#V#W#T#T#T#T#T#T#T#T#T#X.u.i.s.Y.1.y.y.y.y.y",
"Qt.I#Y#S#T#T#T#T#T#T#T#T#T#Z.l.m.q.j#0#1#T#T#T#T#T#T#T#T#T#X.u#a.s.j.T.y.y.y.y.y",
"Qt.C#2#S#T#3#4#5#6#7#T#T#T#8.Q.m.n.C#9#1#T#Ta.a#aaabac#T#Tad.u.v.s.C.J.y.y.y.y.y",
".U.Lae#S#Tafagahaiaj#T#T#T#8.Q.m#e.Aak#1#T#Talamanaoap#T#Tad#F.I.q.A.J.y.y.y.y.y",
"#baqar#S#Tasatauavawax#T#Tay.l.m.m.Saz#1#TaAaBaCaDaEaF#T#TaG.l.IQt.SaH.y.y.y.y.y",
"aI.IaJ#SaKaLaMaNaOaPaQ#S#T#Z.l.r.E.XaRaSaTaUaVaWaXaYaZa0#T#X.l.c.5#ga1.y.y.y.y.y",
".2.Iar#Sa2a3a4a5a6a7a8a9#T#U.l.r.6.jaz#1b.b#babbbcbdbebf#Tbg.u#d.s.j.T.y.y.y.y.y",
"Qt.o#2#Sbhbibjbkblbmbnbo#T#8.l.m.n.##9#1bpbqbrbsbtbubvbw#Tad.u.v.w.e.J.y.y.y.y.y",
".z.A#2#SbxbybzbAbBbCbDbE#T#8.Q.D.r.A#9#1bFbGbHbIbJbKbLbM#Tad.H.v.6.A.J.y.y.y.y.y",
".K.Lae#SbNbObPbQbRbSbTbU#Tay.Q.i.m.Laz#1bVbWbXbYbZb0b1b2#TaG.l.IQt.o.T.y.y.y.y.y",
"aI.X#0#Sb3b4b5b6b7b8b9c.#Tc#.l.DQt.XaRaS#Tcacbcccdcecf#3#Tad.l.c.d.0cg.y.y.y.y.y",
"#i#gar#S#Tchcicjckclcm#T#T#U.l.r.6.jaz#W#Tcncocpcqcrcs#T#Tbg.u.D.s.jct.y.y.y.y.y",
".Fcucv#S#TcwcxcyczcAcB#T#TcCcD#jcE.3#2#1#TcFcGcHcIcJcK#T#TcLcD.f#rcucM.y.y.y.y.y",
"cNcOcP#S#TcQcRcScTcUcV#T#TcWcXcNcYcOcZ#1#Tc0c1c2c3c4c5c6#Tc7c8c9d.d#da.y.y.y.y.y",
"dbdcdd#1#Tdedfaxdgdhdi#T#Tdjdkdcdbdcdldm#T#Tdndo#Tdp#T#T#Tdqdrdrdsdtdu.y.y.y.y.y"};
