/* XPM */
static char *dummy[]={
"40 40 294 2",
".j c #00a15e",
"Qt c #32a67a",
"#v c #333028",
"ck c #353229",
"#0 c #36332b",
"#B c #38352d",
"cf c #38392d",
"#y c #39362d",
".M c #393730",
"cG c #393b2c",
".U c #3a372f",
"cH c #3a3f1e",
"ct c #3b3f25",
"#A c #3e3c32",
"#C c #3f3c33",
"cl c #414333",
".h c #424036",
".Z c #424037",
".G c #444238",
"#i c #444239",
"#u c #44423a",
".i c #45433b",
"cA c #464a31",
".2 c #47433c",
"#R c #47443c",
"#T c #47443e",
".z c #47453d",
"cI c #475024",
"#z c #49483b",
"#b c #49483f",
"#k c #4a4740",
".I c #4a4741",
"## c #4a4840",
".N c #4b4a42",
".L c #4c493f",
"bs c #4c4a40",
"#. c #4c4a41",
"#p c #4c4b44",
".F c #4d4a43",
".4 c #4e4d43",
".s c #4f4d44",
"#I c #4f4d46",
".O c #4f4e46",
".v c #504d46",
".J c #504e47",
"bG c #505b42",
".D c #514e46",
"c. c #51582f",
"#U c #524f48",
"#F c #525047",
"#D c #525048",
".c c #53514a",
"#W c #535348",
".E c #545149",
".a c #54524b",
"cs c #54534c",
".t c #55534a",
".X c #55544d",
"b3 c #555e41",
".A c #56544c",
".5 c #56554b",
".Y c #57554e",
"#t c #575649",
"#n c #57564b",
".P c #58554f",
".H c #58574f",
".# c #595650",
"#s c #5a5850",
"#O c #5a5852",
".y c #5b5851",
"#c c #5b5a51",
".R c #5c5a54",
".3 c #5c5c53",
"bt c #5d664c",
"aC c #5d664d",
"#3 c #5e6151",
"#9 c #5e6350",
"aM c #5e684d",
".C c #5f5e56",
".b c #5f5e57",
"a. c #5f654f",
"aB c #606059",
".g c #615f58",
".k c #615f59",
"cj c #615f5a",
"#o c #61605b",
"aQ c #616b4e",
".r c #626059",
"ag c #626855",
"aX c #626c4f",
"a2 c #636d50",
"#l c #65635b",
".l c #65635f",
"#r c #65645a",
"#X c #656d53",
"af c #66645b",
"#a c #66645c",
".B c #66655d",
".d c #66655f",
"#S c #67665e",
".u c #67aa97",
"#P c #68665e",
".e c #68665f",
"#2 c #686660",
"cJ c #686e55",
"a# c #686f57",
".o c #696761",
"#V c #696860",
".S c #696863",
"bN c #6a6863",
"aL c #6a6960",
".w c #6a6962",
"#L c #6a6964",
"cF c #6a6a66",
"cB c #6a7157",
"cg c #6a715b",
"#x c #6b6964",
"#h c #6b6a66",
"aq c #6b6b65",
".p c #6c6a63",
"#j c #6c6b67",
"#g c #6d6d69",
"#Y c #6d755b",
"#4 c #6d765b",
".K c #6e6d65",
"bO c #6e755d",
"#m c #6f6d63",
"b9 c #6f6d66",
"a1 c #6f6e63",
"#q c #6f6e66",
"#Q c #706f65",
"ce c #706f67",
"#M c #716f68",
".6 c #717069",
"#1 c #71706a",
".x c #74736c",
"#w c #75746c",
".Q c #77746f",
".f c #787670",
"#E c #787672",
"bA c #787f69",
"aW c #797771",
"cz c #797973",
".7 c #7a7a74",
"#K c #7b7973",
"#J c #7b7a72",
"#f c #7b7a75",
".V c #7b7a76",
"ar c #7b836c",
".9 c #7c7b76",
".q c #7d7c75",
"#N c #7e7d76",
".0 c #7e7d77",
"#8 c #7e7f78",
"bk c #82827a",
".W c #82827e",
".1 c #86857f",
"cm c #86867c",
"#d c #898883",
"#e c #8c8b86",
"#Z c #8c907a",
"cy c #8c9300",
".n c #8d8c88",
"#H c #8e8d89",
".m c #8f8f8b",
"cu c #8f9088",
"bX c #8f9500",
"#G c #90908c",
"ah c #91978a",
"bd c #949491",
".8 c #959593",
"co c #959605",
".T c #969693",
"bV c #989991",
"bH c #9b9c97",
"cn c #9d978f",
"b6 c #9d9e00",
"cC c #9e999c",
"ca c #9ea01a",
"cE c #9f979b",
"cx c #a1a000",
"aG c #a3a000",
"aa c #a3aa9c",
"aR c #a4a100",
"aF c #a4a200",
"bw c #a5a100",
"a4 c #a6a100",
"bP c #a6a3a4",
"bf c #a6a400",
"c# c #a79fa7",
"cb c #a7a600",
"bm c #a8a400",
"a9 c #a8a500",
"bC c #a9a500",
"aE c #a9a70e",
"bu c #aaa8a8",
"bn c #aba800",
"cw c #aca932",
"ch c #ada5ac",
"bB c #adaaa9",
"b4 c #aea9ad",
"bW c #b0aaa9",
"bI c #b0ab44",
"cD c #b2a9b3",
"bY c #b2ae01",
"cv c #b3aab4",
"aO c #b3ac00",
"b7 c #b4b001",
"cp c #b4b104",
"cc c #b6b101",
"av c #b6b547",
"aw c #b7b005",
"bD c #b7b202",
"bv c #b7b231",
"bR c #b7b302",
"bQ c #b8b31c",
"cq c #b9b401",
"ci c #bcb702",
"at c #bdc096",
"am c #beb605",
"bg c #bfb602",
"b5 c #c0bc87",
"au c #c0c071",
"aS c #c5b901",
"bq c #c7bd05",
"ad c #c8bf02",
"bJ c #c9c204",
"bS c #cabf03",
"bx c #d1c604",
"al c #d1cfc9",
"bL c #d2c705",
"by c #d2c806",
"bZ c #d3c804",
"ai c #d3d6d1",
"b. c #d4c503",
"bi c #d4c905",
"bp c #d5ca06",
"bK c #d6c904",
"bM c #d8ca04",
"a6 c #d8cc06",
"ba c #d9cb05",
"b8 c #dac903",
"cr c #daca02",
"bE c #dbcd05",
"ac c #dbd7be",
"bh c #dccc04",
"b0 c #ddce05",
"be c #dfe3d6",
"#7 c #dfe3d9",
"aZ c #e0d004",
"as c #e1e2dc",
"bb c #e2d203",
"b# c #e2d206",
"bl c #e2e5de",
"bT c #e3d304",
"a5 c #e4d305",
"b1 c #e5d604",
"bo c #e6d705",
"br c #e9d703",
"#5 c #e9ebe8",
"aD c #eaebe3",
"a8 c #ebefe4",
"aT c #eedd06",
"aY c #eef0e3",
"a3 c #eef0e4",
"#6 c #efeaf9",
"cd c #f0dc02",
"aP c #f0dd05",
"aN c #f0f1e7",
"ae c #f4e200",
"a0 c #f5e004",
"bU c #f7e303",
"ab c #f8f8fa",
"b2 c #f9e503",
"bj c #fae402",
"ak c #fcfdff",
"aJ c #ffd500",
"aV c #ffd700",
"aI c #ffd800",
"az c #ffd900",
"aA c #ffda00",
"aK c #ffdb00",
"ao c #ffdc00",
"ap c #ffde00",
"ay c #ffdf00",
"bc c #ffe100",
"a7 c #ffe200",
"bz c #ffe300",
"aU c #ffe400",
"bF c #ffe600",
"an c #ffe800",
"aH c #ffe900",
"ax c #ffeb00",
"aj c #ffffff",
"QtQtQtQtQtQtQtQtQtQtQtQtQtQtQtQtQtQtQtQtQtQtQtQtQtQtQtQtQtQt.#.a.b.c.d.e.f.g.h.i",
"QtQtQtQt.jQtQtQtQtQtQtQt.jQtQtQtQtQtQtQt.jQtQtQtQtQtQtQt.jQt.k.l.m.n.o.p.q.r.s.t",
"Qt.jQtQtQtQtQtQtQt.jQtQtQt.uQtQtQt.jQtQtQtQtQtQtQt.jQtQtQt.u.v.w.x.y.z.A.B.C.D.E",
"QtQtQtQtQt.jQtQt.u.uQtQtQtQtQtQtQtQtQtQtQt.jQtQt.u.uQtQtQtQt.F.G.H.I.#.w.J.K.L.E",
"QtQtQtQtQtQtQt.j.u.uQtQtQtQtQtQtQtQtQtQtQtQtQt.j.u.uQtQtQtQt.M.N.O.P.Q.R.S.T.l.U",
"QtQtQtQtQtQtQtQtQtQtQtQtQtQtQt.uQtQtQtQtQtQtQtQtQtQtQtQtQtQt.V.W.#.X.Y.Z.0.1.a.2",
"QtQt.u.uQtQtQtQtQtQtQtQtQtQtQtQtQtQt.u.uQtQtQtQtQtQtQtQtQtQt.3.4.5.6.7.8.9#.###a",
"QtQt.u.uQtQtQtQtQtQtQtQtQtQtQt.jQtQt.u.uQtQtQtQtQtQtQtQtQtQt#b#c#d#e#f#g#h#i#j#k",
"QtQtQtQtQt.jQt.uQtQt.jQtQtQtQtQtQtQtQtQtQt.jQt.uQtQt.jQtQtQt.G#l.6#m#n#o#p#o#q#r",
"QtQtQtQtQtQtQtQtQtQtQtQtQtQtQtQtQtQtQtQtQtQtQtQtQtQtQtQtQtQt.Z.K#s#t.h#u#v.p#w#x",
"Qt.jQtQtQt.uQtQtQt.jQtQtQtQtQtQtQt.jQtQt.#.a.b.c.d.e.f.g.h.i#y#u#i#z#A#B#C#D.R#E",
".u.uQtQtQtQtQtQtQtQtQtQtQt.jQtQt.u.uQtQt.k.l.m.n.o.p.q.r.s.t.Z#F#G#H#I.J#J#K.P#L",
".u.uQtQtQtQtQtQtQtQtQtQtQtQtQt.j.u.uQtQt.v.w.x.y.z.A.B.C.D.E.a#M#N#O#C#F#P#Q.2#.",
"QtQtQtQtQtQtQt.uQtQtQtQtQtQtQtQtQtQtQtQt.F.G.H.I.#.w.J.K.L.E#R.H#S#T#U#V#W#X#Y#Z",
"QtQtQtQtQtQtQtQtQtQt.u.uQtQtQtQtQtQtQtQt.M.N.O.P.Q.R.S.T.l.U#0#1#V#O#2#3#4#5#6#7",
"QtQtQtQtQtQtQt.jQtQt.u.uQtQtQtQtQtQtQtQt.V.W.#.X.Y.Z.0.1.a.2.V#8#9a.a#aaabacadae",
"QtQt.jQtQtQtQtQtQtQtQtQtQt.jQt.uQtQt.jQt.3.4.5.6.7.8.9#.##afagahaiajakalamanaoap",
"QtQtQtQtQtQtQtQtQtQtQtQtQtQtQtQtQtQtQtQt#b#c#d#e#f#g#h#iaqarasatauavawaxayazaoaA",
"Qt.jQtQtQtQtQtQtQt.jQtQtQt.uQtQtQt.jQtQt.G#l.6#m#n#o#paBaCaDaEaFaGaHapazaIaJaJaK",
"QtQtQtQtQt.jQtQt.u.uQtQtQtQtQtQtQtQtQtQt.Z.K#s#t.h#u#vaLaMaNaFaOaPaIaJazaJaJaJaz",
"QtQtQtQtQtQtQt.j.u.u.#.a.b.c.d.e.f.g.h.i#y#u#i#z#A#B#C#FaQaNaRaSaTaUaoaJaJaJaJaV",
"QtQtQtQtQtQtQtQtQtQt.k.l.m.n.o.p.q.r.s.t.Z#F#G#H#I.J#JaWaXaYaFaZaTa0aUaVaIaJaJaV",
"QtQt.u.uQtQtQtQtQtQt.v.w.x.y.z.A.B.C.D.E.a#M#N#O#C#F#Pa1a2a3a4a5aTa6a7ayaIaJaJaV",
"QtQt.u.uQtQtQtQtQtQt.F.G.H.I.#.w.J.K.L.E#R.H#S#T#U#V.J#qa2a8a9b.b#babbbcapaKaKaz",
"QtQtQtQtQt.jQt.uQtQt.M.N.O.P.Q.R.S.T.l.U#0#1#V#O#2#O.SbdaXbebfbgb#bhbibja7ayaKaz",
"QtQtQtQtQtQtQtQtQtQt.V.W.#.X.Y.Z.0.1.a.2.V.W.#.X.Y.Z.0bkaQblbmbnbobhbpbqbrbcapaz",
"Qt.jQtQtQt.uQtQtQt.j.3.4.5.6.7.8.9#.###a.3.4.5.6.7.8#fbsbtbubvbwbxbhbhbibybjbzbz",
".u.uQtQtQtQtQtQtQtQt#b#c#d#e#f#g#h#i#j#k#b#c#d#e#f#g#h#i#hbAbBbCbDbEbhbabybybFbz",
".u.uQtQtQtQtQtQtQtQt.G#l.6#m#n#o#p#o#q#r.G#l.6#m#n#o#p#o#qbGbHbIaGbJbKbhbLbMbMaU",
"QtQtQtQtQtQtQt.uQtQt.Z.K#s#t.h#u#v.p#w#x.Z.K#s#t.h#u#v.p#wbNbObPbQbRbSbhbhbhbTbU",
".#.a.b.c.d.e.f.g.h.i#y#u#i#z#A#B#C#D.R#E#y#u#i#z#A#B#C#D.R#E#ybVbWbXbYbZb0b1b2b2",
".k.l.m.n.o.p.q.r.s.t.Z#F#G#H#I.J#J#K.#.S.Z#F#G#H#I.J#J#K.#.S.Zb3b4b5b6b7b8b2b2b2",
".v.w.x.y.z.A.B.C.D.E.a#M#N#O#C#F#P#Q.2#..a#M#N#O#C#F#P#Q.2#..ab9c.c#cacbcccdb2bU",
".F.G.H.I.#.w.J.K.L.E#R.H#S#T#U#V.Jce#y#i#R.H#S#T#U#V.Jce#y#i#R.HcfcgchbXbYcicdbU",
".M.N.O.P.Q.R.S.T.l.U#0#1#V#O#2#O.S.Tcjck#0#1#V#O#2#O.S.Tcjck#0#1#Vclcmcncocpcqcr",
".V.W.#.X.Y.Z.0.1.a.2.V.W.#.X.Y.Z.0.1.a.2.V.W.#.X.Y.Z.0.1.a.2.V.W.#csctcucvcwcxcy",
".3.4.5.6.7.8.9#.###a.3.4.5.6.7.8.9#.###a.3.4.5.6.7.8.9#.###a.3.4.5.6czcAcBcCcDcE",
"#b#c#d#e#f#g#h#i#j#k#b#c#d#e#f#g#h#i#j#k#b#c#d#e#f#g#h#i#j#k#b#c#d#e#fcFcGcHcIcJ",
".G#l.6#m#n#o#p#o#q#r.G#l.6#m#n#o#p#o#q#r.G#l.6#m#n#o#p#o#q#r.G#l.6#m#n#o#p#o#q#r",
".Z.K#s#t.h#u#v.p#w#x.Z.K#s#t.h#u#v.p#w#x.Z.K#s#t.h#u#v.p#w#x.Z.K#s#t.h#u#v.p#w#x"};
