/* XPM */
static char *dummy[]={
"40 40 667 2",
"fn c #020d5e",
"e1 c #03135a",
"fs c #041163",
"fX c #071567",
"fy c #08166a",
"fx c #09176b",
"fr c #09176c",
"fG c #0a186c",
"fW c #0a186d",
"fm c #0a196e",
"fH c #0a1a6c",
"g# c #0a1a6f",
"fe c #0a1a70",
"ee c #0c1a6f",
"fd c #0c1b71",
"fl c #0d1d73",
"e0 c #0d207c",
"dD c #0e1c70",
"dw c #0e1c71",
"eD c #0e1d72",
"eC c #0e1e75",
"er c #0e1f76",
"dl c #0f1c70",
"ez c #0f1d71",
"dE c #0f1d72",
"ej c #0f1f75",
"fw c #0f2078",
"fF c #0f2079",
"ek c #10185d",
"dm c #101860",
"dx c #101961",
"dF c #101962",
"ep c #101b6b",
"es c #101c5b",
"ey c #101c6d",
"db c #101c6e",
"cK c #101d71",
"cL c #101e72",
"eq c #102077",
"dv c #111c68",
"da c #111c69",
"ex c #111d68",
"ed c #111d6a",
"dk c #111d6b",
"ei c #111d6c",
"cJ c #111d6e",
"ch c #111f71",
"dX c #112073",
"cM c #121e6e",
"du c #122172",
"eh c #122173",
"eX c #122174",
"fc c #122175",
"dC c #122379",
"eA c #12247d",
"eZ c #12247e",
"dj c #122580",
"b2 c #122987",
"eY c #13257f",
"fk c #132680",
"eB c #132681",
"fj c #132782",
"fq c #132783",
"d# c #132f95",
"cI c #13309b",
"dc c #141e68",
"ci c #14216e",
"fi c #142884",
"cg c #1438ac",
"dd c #161d5e",
"dn c #171d5e",
"cN c #19256e",
"b3 c #1a266f",
"fp c #201e3a",
"e3 c #22203c",
"eG c #232037",
"eu c #24223e",
"em c #272641",
"ef c #282641",
"cO c #282e6c",
"gg c #292640",
"f0 c #292843",
"fB c #2a2633",
"fu c #2a2842",
"g. c #2b2944",
"gc c #2e2c44",
"gl c #2f2a39",
"dZ c #312f48",
"ia c #32a67a",
"f8 c #333d75",
"hR c #342810",
"hT c #352911",
"fg c #36344a",
"cj c #364280",
"dH c #38354c",
"hS c #3a2d14",
"hQ c #3b2e14",
"fI c #3b3f69",
"dz c #3c394e",
"dp c #3d3a4f",
"de c #3f447c",
"ga c #414b77",
"fY c #424b73",
"gk c #484559",
"i. c #49340e",
"fz c #4a4f71",
"hP c #4d3913",
"eF c #4f4b5d",
"bY c #524650",
"fA c #525060",
"iy c #543d13",
"hH c #543e14",
"hO c #543f15",
"hz c #553e13",
"hL c #553e14",
"hE c #553f14",
"hx c #553f15",
"hB c #563f14",
"hI c #564015",
"dh c #564f54",
"cp c #565162",
"hD c #574015",
"hN c #574116",
"hw c #584015",
"hC c #584116",
"hv c #584217",
"cS c #585465",
"hM c #594116",
"hK c #594317",
"hA c #594318",
"b7 c #594f52",
"hF c #5a4216",
"hJ c #5b4318",
"hy c #5b4418",
"hZ c #5c4415",
"hG c #5c4418",
"h9 c #5d4313",
"hW c #5d4413",
"h3 c #5d4414",
"h7 c #5d4514",
"hX c #5e4312",
"h1 c #5e4413",
"h6 c #5f4412",
"h0 c #5f4413",
"h4 c #5f4513",
"hU c #5f4615",
"h2 c #604512",
"hY c #604513",
"h8 c #604514",
"h5 c #614513",
"hV c #624513",
"gj c #666571",
"fJ c #666671",
"bN c #675e61",
"co c #67616f",
"gf c #676671",
"i# c #67aa97",
"fZ c #6a6973",
"im c #6b501a",
"it c #6c5019",
"id c #6c501a",
"ix c #6c511a",
"is c #6c521b",
"ii c #6d511a",
"ij c #6d521b",
"ig c #6d521c",
"b8 c #6d6055",
"ir c #6e5119",
"iu c #6e521b",
"ip c #6e531b",
"ih c #6f511a",
"ie c #6f5219",
"io c #6f531b",
"ib c #6f531c",
"f9 c #6f6e77",
"iv c #705219",
"in c #70521a",
"ik c #70531a",
"if c #71531a",
"iw c #71541b",
"il c #72541b",
"ic c #73541a",
"iq c #73541b",
"bZ c #745f40",
"gb c #76777d",
"b9 c #776854",
"e2 c #797c77",
"cP c #797ea6",
"eE c #797f8a",
"ff c #7b8285",
"c. c #7c6c52",
"ft c #818884",
"et c #888694",
".P c #896c2a",
"ge c #898a8e",
".s c #8a6d2b",
".H c #8d702d",
".L c #8d712e",
".C c #8e702c",
".J c #8e702d",
".O c #8e702e",
".u c #8e712d",
".N c #8e712e",
".k c #8e722e",
".y c #8f702c",
".Q c #8f712e",
".z c #8f722f",
".p c #8f732f",
"bM c #8f8b8f",
".o c #90702c",
".E c #90722d",
".w c #90722e",
".G c #90732e",
".n c #90732f",
".x c #907330",
".D c #907430",
".q c #91722e",
".I c #91732e",
".m c #91732f",
".B c #91742f",
".M c #92732f",
".A c #92742f",
".l c #93742f",
".F c #937531",
".r c #937631",
"b6 c #938f96",
".t c #947630",
".v c #957731",
"fo c #959886",
".K c #967731",
"bL c #969295",
"gW c #977833",
"fv c #977c37",
"bO c #988045",
"#F c #997a34",
"gV c #9a7b35",
"#G c #9a7c35",
"#D c #9a7c36",
"gR c #9b7a34",
"#z c #9b7c35",
"gO c #9b7c36",
"#n c #9b7d35",
"#l c #9b7d36",
"gK c #9c7b34",
"gS c #9c7c35",
"gI c #9c7c36",
"#v c #9c7d35",
"#p c #9c7d36",
"#f c #9c7d37",
"#s c #9c7e37",
"cT c #9c7e38",
"#q c #9d7c34",
"#h c #9d7d35",
"#j c #9d7d36",
"ec c #9d7d37",
"gT c #9d7e37",
"#d c #9d7f37",
"c8 c #9d7f38",
"#B c #9e7d35",
"d. c #9e7e35",
"#C c #9e7e36",
"#x c #9e7e37",
"#k c #9e7f37",
"#w c #9e7f38",
"eb c #9e7f39",
"fb c #9e7f3a",
"cq c #9e834c",
"#r c #9f7f37",
"gN c #9f7f38",
"c4 c #9f8037",
"#i c #9f8038",
"f2 c #9f8137",
"f6 c #9f8138",
"#t c #9f8139",
"c# c #9f823c",
"#e c #a07f37",
"#y c #a08037",
"d8 c #a08038",
"#u c #a08138",
"#g c #a08139",
"d1 c #a0813a",
"cY c #a08239",
"cV c #a18035",
"c1 c #a18037",
"gU c #a18039",
"f5 c #a18136",
"c0 c #a18137",
"d6 c #a18138",
"gL c #a18139",
"d4 c #a1813a",
"#o c #a18239",
"e. c #a1823a",
"br c #a1823c",
"dq c #a1843c",
"#m c #a28138",
"gM c #a28139",
"c7 c #a28238",
"#A c #a28239",
"gH c #a2823a",
"fa c #a2823b",
"c3 c #a28339",
"#E c #a2833a",
"f1 c #a2843a",
"bJ c #a2843c",
"c6 c #a38237",
"d3 c #a3823a",
"f7 c #a38338",
"cX c #a38339",
"e# c #a3833a",
"gJ c #a3833b",
"d9 c #a3843b",
"cW c #a3853a",
"c2 c #a3853b",
"fC c #a3863a",
"c5 c #a3863b",
"fh c #a3863c",
"aa c #a3863d",
"dg c #a3a4a0",
"gd c #a3a8a3",
"bK c #a48439",
"gQ c #a4843b",
"f. c #a4843d",
"bG c #a4853a",
"d7 c #a4853b",
"d5 c #a4853c",
"bx c #a4863a",
"cZ c #a4863b",
"bs c #a4863c",
"gh c #a4873b",
"f4 c #a4873c",
"bU c #a4873d",
"gP c #a5843b",
"bq c #a5843d",
"eo c #a58539",
"ds c #a5853a",
"d0 c #a5853c",
"e7 c #a5853d",
"e4 c #a5853e",
"ay c #a58639",
"al c #a5863a",
"bv c #a5863b",
"d2 c #a5863c",
"#6 c #a5873b",
"bP c #a5873c",
"#8 c #a5873d",
"aE c #a5883d",
"ew c #a5883e",
"ck c #a5b3df",
"bD c #a6853a",
"ea c #a6853c",
"f# c #a6853d",
"e9 c #a6853e",
"bz c #a68638",
"ad c #a6863a",
"b0 c #a6863b",
"#S c #a6873b",
"cU c #a6873c",
"eg c #a6873d",
"e5 c #a6873e",
"#Q c #a6883c",
"#J c #a6883d",
"#Y c #a6893e",
"#2 c #a7863a",
"e6 c #a7863e",
"bo c #a7863f",
"bt c #a78739",
"aC c #a7873a",
"ai c #a7873b",
"e8 c #a7873e",
"bf c #a7873f",
"aG c #a7883a",
"f3 c #a7883c",
"dr c #a7883d",
"bd c #a7883f",
"a7 c #a78840",
"c9 c #a7893c",
"an c #a7893d",
"di c #a7893e",
"cd c #a8863a",
"#V c #a88739",
"#N c #a8873a",
"bI c #a8873b",
"b# c #a8873f",
"a9 c #a88740",
"ac c #a8883a",
"aD c #a8883b",
"bE c #a8883c",
"bk c #a8883f",
"bg c #a88840",
"ev c #a8893c",
"as c #a8893d",
"ah c #a8893e",
"af c #a88a3d",
"#P c #a88a3e",
"bh c #a9873f",
"#L c #a9883a",
"#0 c #a9883b",
"bA c #a9883c",
"bm c #a9883f",
"bi c #a98840",
"cf c #a9893b",
"a# c #a9893c",
"bc c #a98940",
"bn c #a98941",
"#4 c #a98a3d",
"aB c #a98a3e",
"bl c #a98a41",
"#H c #a98b3e",
"bB c #a98b3f",
"a4 c #a98b40",
"bu c #a98c3e",
"bH c #a98c3f",
"a. c #aa893b",
"aw c #aa893c",
"a8 c #aa8940",
"bb c #aa8941",
"bF c #aa8a3c",
"#X c #aa8a3d",
"aO c #aa8a3e",
"ba c #aa8a41",
"ap c #aa8b3e",
"#W c #aa8c3e",
"#3 c #aa8c3f",
"dB c #aa8c40",
"eS c #aa8c41",
"av c #aa8d3f",
"#Z c #aa8d40",
"gm c #aa8d45",
"aq c #ab8a3c",
"aW c #ab8a3d",
"be c #ab8a41",
"#5 c #ab8b3d",
"b. c #ab8b42",
"bC c #ab8c3e",
"#O c #ab8c3f",
"aQ c #ab8c40",
"#M c #ab8d3f",
"#9 c #ab8d40",
"aI c #ab8d41",
"aS c #ac8a3d",
"#I c #ac8b3d",
"ag c #ac8b3e",
"eV c #ac8b3f",
"bj c #ac8b41",
"bS c #ac8c3d",
"en c #ac8c3e",
"bp c #ac8c42",
"by c #ac8d3f",
"aj c #ac8d40",
"aU c #ac8d41",
"#1 c #ac8e3f",
"#K c #ac8e40",
"cc c #ac8e41",
"dA c #ac8f41",
"bX c #acacb4",
"eJ c #ad8b3e",
"at c #ad8c3e",
"eN c #ad8c3f",
"bw c #ad8d3e",
"a3 c #ad8d3f",
"aT c #ad8d40",
"eP c #ad8d41",
"fV c #ad8d44",
"cb c #ad8e3f",
"ar c #ad8e40",
"eO c #ad8e41",
"aM c #ad8e42",
"ax c #ad8f40",
"ao c #ad8f41",
"aY c #ad8f42",
"bR c #ad9041",
"ca c #ae8d3e",
"cH c #ae8d44",
"fD c #ae8e3e",
"ce c #ae8e3f",
"#T c #ae8e40",
"b1 c #ae8f40",
"fE c #ae8f41",
"a2 c #ae8f42",
"fK c #ae8f45",
"aF c #ae9040",
"#U c #ae9041",
"aK c #ae9042",
"a1 c #ae9043",
"eR c #af8d40",
"#R c #af8e3e",
"bQ c #af8e3f",
"#7 c #af8e40",
"eL c #af8e41",
"aA c #af8f3f",
"aZ c #af8f40",
"am c #af8f41",
"aL c #af8f42",
"fU c #af8f45",
"ab c #af9041",
"eK c #af9042",
"dV c #af9045",
"fS c #af9046",
"aX c #af9142",
"aV c #af9143",
"eQ c #af9144",
"cG c #b08e44",
"ak c #b08f3f",
"bT c #b08f40",
"au c #b09040",
"ae c #b09041",
"cE c #b09046",
"gi c #b09141",
"aJ c #b09143",
"aR c #b09244",
"h# c #b18e42",
"dO c #b19043",
"dS c #b19044",
"cx c #b19045",
"cr c #b19046",
"aH c #b19141",
"aP c #b19142",
"eU c #b19143",
"fM c #b19146",
"fO c #b19147",
"az c #b19241",
"eM c #b19243",
"dR c #b19245",
"dJ c #b19246",
"eI c #b19345",
"g1 c #b28f43",
"dL c #b29043",
".j c #b29044",
"cv c #b29045",
"fR c #b29046",
"aN c #b29141",
"a0 c #b29142",
"dP c #b29144",
"g7 c #b29145",
"cB c #b29146",
"ct c #b29147",
"dt c #b29241",
"eH c #b29243",
"#b c #b29246",
"fN c #b29247",
"a5 c #b29344",
"ht c #b38f44",
"hp c #b39043",
"dU c #b39144",
"hg c #b39145",
"cD c #b39146",
"dN c #b39245",
"cw c #b39246",
"fP c #b39247",
"cz c #b39248",
"a6 c #b39343",
".Y c #b39347",
"cC c #b39348",
"eT c #b39445",
"dM c #b39446",
"dQ c #b39447",
"he c #b49044",
"hr c #b49144",
".i c #b49246",
"fQ c #b49247",
".2 c #b49346",
".T c #b49347",
"cs c #b49348",
"eW c #b49444",
".0 c #b49447",
"cy c #b49448",
"cu c #b49449",
"dT c #b49547",
"hn c #b59245",
"hl c #b59246",
".4 c #b59346",
"fL c #b59347",
"cA c #b59348",
".5 c #b59447",
"fT c #b59448",
"dI c #b59547",
".8 c #b59548",
"gE c #b5954a",
"dK c #b59649",
"g9 c #b69346",
".V c #b69446",
".f c #b69447",
".h c #b69448",
"#a c #b69547",
"cF c #b69549",
".R c #b69648",
"gZ c #b79346",
".b c #b79448",
"## c #b79547",
"Qt c #b79548",
"gx c #b79647",
".S c #b79648",
".X c #b79649",
".7 c #b79749",
"#. c #b7974a",
".W c #b7984a",
"g5 c #b89447",
"gu c #b89547",
".g c #b89548",
".e c #b89549",
"gn c #b89647",
".c c #b89648",
".a c #b89649",
"dW c #b89748",
".9 c #b89749",
"gs c #b8974a",
".6 c #b8984a",
"hc c #b99547",
".# c #b99649",
"gC c #b99748",
"gD c #b99749",
"gv c #b99849",
".1 c #b9984a",
".U c #b9994a",
".3 c #b9994b",
"gz c #b99a4c",
".d c #ba9749",
"gp c #ba994b",
"go c #ba9a4b",
"gB c #ba9a4c",
"ho c #bb974a",
"gX c #bb984a",
".Z c #bb9949",
"gA c #bb994a",
"#c c #bb9a4b",
"gy c #bb9b4b",
"gw c #bb9b4c",
"hi c #bc984a",
"gG c #bc9b4b",
"gr c #bc9b4c",
"gt c #bc9c4d",
"hj c #bd9849",
"hb c #bd994b",
"gq c #bd9b4b",
"ha c #be9a4b",
"gF c #be9d4d",
"g4 c #bf9a4c",
"gY c #bf9b4c",
"hh c #c09b4d",
"g6 c #c29d4c",
"hf c #c39e4e",
"g2 c #c39f4e",
"g3 c #c49e4d",
"el c #c5c6cd",
"hm c #c8a251",
"hd c #c8a352",
"g8 c #c9a351",
"hk c #c9a352",
"cR c #c9c7ce",
"hs c #caa351",
"df c #cacbda",
"g0 c #cba553",
"h. c #cca654",
"hq c #cfa856",
"dY c #cfcfd7",
"hu c #d0a955",
"b4 c #d0d2e1",
"dG c #d1d0d7",
"bV c #d2d3e2",
"cn c #d7d5d7",
"dy c #dcdce1",
"do c #e1e1e5",
"cQ c #f0f1f5",
"b5 c #f9f9f9",
"cm c #fbfbfb",
"bW c #fbfff5",
"cl c #fcfcfe",
"Qt.#.a.a.b.b.c.#.#.b.bQt.d.a.e.fQt.#.c.#.bQt.e.#.#Qt.b.g.d.a.e.hQt.#.c.#.b.i.j.j",
".k.l.m.n.o.p.q.r.n.s.t.u.v.w.x.y.z.A.B.p.C.D.E.F.G.H.I.J.K.m.L.E.p.M.N.r.C.O.P.Q",
".R.S.T.U.V.W.f.X.R.Y.Z.0.1.2.3.4.XQt.5.6.4.6.5.7.R.8.9.0.1.2#.##.7#a#b#c.4.1.2.R",
"#d#e#f#g#h#i#j#i#k#l#m#n#o#p#o#q#k#r#s#t#h#u#v#i#w#x#y#z#A#p#i#B#i#C#D#E#h#u#F#G",
"#H#I#J#K#L#M#N#O#P#Q#R#S#T#J#U#V#W#X#Y#Z#0#1#2#3#P#4#5#6#7#8#9a.#3a#aaabac#1adae",
"afagah#Kac#1aiaj#P#6akalamanao#Napaq#P#Zacaradaj#Hasatalau#Java.#Waw#8#U#Naxayaz",
"#H#Xah#Kac#9aiaj#P#6aA#S#Tanao#N#Wa#aB#9aCarad#9#Hafat#6#Tan#Za.#OaDaEaFaGaralaH",
"aj#7aIaJ#IaKagaLaM#PaNaOaPaQaRaSaoaTaUaVaWaXagaKaYajaZapa0aQa1ata2a3a4a5#5aX#Xa6",
"a7a8a9b.b#bab#bbbcbdbebfbebgb.bhbcbcbgbab#bab#bbbcbia8bfbjbkblbmbnbmbobpb#bebqbr",
"an#Xbs#9btbuadaBanbvbwbxbybs#Kbz#4bA#8bB#2bCbDaBanbEbFbGa3bsbHac#HbIbJax#2bCbKa3",
"bLbMbNbO#L#MbIaj#PbPbQalaZ#JbR#V#Haq#P#9ac#1#2aj#HafbSalbT#Java.#Wa#bU#U#NarayaH",
"bVbWbXbYbZ#Kaiaj#H#6akb0aZanao#N#WawaB#9aCb1adaj#HafatbvaZan#Za.#Ma##8abaCb1alaH",
"b2b3b4b5b6b7b8b9c.c#cab0cbancccd#Ha##P#ZaC#MaC#MaBan#5#6ceanbHa.#WcfaEb1aCbyadae",
"cgchcicjckclcmcncocpcqcrcsctcucv.Ycwctcucxcycvczczct.TcrcAcBcCcD.YcBcEcFcvcycGcH",
"cIcJcKcLcMcNcOcPcQcRcScTcU#t#QcVcWcXcYcZc0bvc1c2#Ec3bKc4bI#tc5c6bGc7c8c9c0#6d.bG",
"d#dadadbcKcKdcdddedfdgdha3#Jao#V#H#Xdi#9aD#1#2#OaB#4#IbvaZ#J#Ma.#Wa#aaabac#1alae",
"djdadadkcKcKcKdldmdndodpdqdrao#N#W#XaB#9aGaxadajaBasbwalae#J#Za.#Oa#aEabaGb1dsdt",
"dudadadvdkdwdwdwdwdxdydzcbandA#Napa#aB#9aCbyaC#9#Pas#I#6ceandBa.#3aDaEb1aC#1adae",
"dCdadadadadDdwdwdEdFdGdHdIdJdKdLdMdN#b.8dOdIdPdQ.0dR.4dS#adJdTdU.0dNdVdWdOdIdO.2",
"dXdadadvdadDdwdwdwdFdYdZd0d1d2c1#Ed3d4d5d6d7d8d9#Ee.e##iea#gd9#md9#AebcUd6d7ec#w",
"chdadadaedeedwdwdwdmdYef#T#J#U#V#W#Xdi#9#0#1#2#3#P#4#I#6#7eg#9a.#3a#aaabac#1adae",
"ehdadadaeiejdwdwdwekelemam#Jao#Napaq#P#Zaccb#2ajaBasenalau#Java.#3awaE#UaCareoaz",
"ehdvdaepdEeqerdwdweseteuaranao#N#Wa#aB#9aCarad#9#Hafen#6#Tanava.#MevewabaGaralaH",
"ehexeyezeAeBeBeCeDeEeFeGeHcceIeJeKeLaYaReneMeNaJa1eOae#Oa6ePeQeReK#TeSeTeneUeVeW",
"eXexdkeYeZeBeZe0e1e2e3brbme4bgeae5e6e4bke7bke7bfe8e9e8f.bie4bff#bfe6f.bce7bkfafb",
"fcdaeBeBeBeBfdfefffg#X#S#T#J#U#V#W#Xdi#9#0cbai#3#P#4#I#6#7eg#9a.#Oa#fhabaDcbadae",
"fieBfjeBfkflfmfnfofp#RalaZ#JbR#V#H#Xdi#9aD#1#2#9aBafbSalbT#Java.#Wa#bU#UaccbayaH",
"fqeBfjfkerfrfsftfufvak#6aZdraoac#WbFaB#KaCb1adajaBafatbvaZdravaw#Ma##8abaGb1alaH",
"fjeBeBfwfxfyfzfAfBfCfD#ScbandA#V#Ha#aB#9aCbyaCaQaBan#5#6ceanbHa.#WcfaEfEaCbyadau",
"fjeBfFfGfHfIfJe3fKcEfLcx.TfMcycvfNcBfOcscxcscxfNfPcBfQcxcsfRcCcDfPcBfSfTcxcsfUfV",
"eBerfWfXfYfZf0cWf1f2aCf2f3#tancVcWbK#of4f5#Sc0cZf1c3eoc4bEf6cZc6d7f7c8afc0#6d.al",
"fmfGfxf8f9g.bDaQ#PcU#Ral#T#J#U#V#HbFdi#9aD#1aC#OaB#4#5alaZeg#9a.#Wa#aa#UaD#1adae",
"g#fXgagbgc#MaiaT#P#6akalamdrao#Nap#XaB#9aCaxadajaBasbwalaudr#3a.#Oaw#8#UaCb1dsdt",
"gdgegfggf7#Mai#O#PghbQ#ScbandA#Vapa#aB#9aC#1aC#9#Paf#I#6cean#3a.#3aDaEb1aC#Kalgi",
"gjgkglgmgngodWgp.3dKgq.Sgrgsgtgu.Ugv.6gwgxgy.cgzgp.WgA.SgrgsgBgCgogDgEgFgxgw##gG",
"#igHgIgJgKgL#xgMgNgO#m#pgPgIgQgRd8gL#jgHgSgLgTgMgN#x#e#fgPgSe.#h#ggUgVd0#z#AgW#z",
"gXgYgZg0g1g2.ig3g4g5g6g7g8g9h.h#hahbhchdhehfhgg3hhhihjg7hkhlhmhngYhohphqhrhshthu",
"hvhwhxhyhzhAhBhChChDhvhEhFhxhGhHhvhDhIhJhzhKhLhMhNhMhNhEhFhOhyhEhvhDhPhQhRhShThS",
"hUhVhWhXhYhZhYh0h1h2h3h4h5h3h6h0h7h5h1hXh2h3hYh8h9h2h3h4hVh3h6hYh3h5i.i#iaiaiaia",
"ibicidieifigifihiiifijikiliminioipiqidirifisifikitifiuikilimiviwixiqiyi#iaiaiaia"};
