/* XPM */
static char *dummy[]={
"40 40 866 2",
"kf c #605a49",
"hQ c #686354",
"fG c #6a6556",
"aQ c #6c6759",
"ai c #4c4638",
"fh c #575040",
"hE c #585141",
"j0 c #595242",
"ia c #080808",
"hH c #090909",
"ij c #0a0a0a",
"iV c #0b0b0b",
"f5 c #0c0c0c",
"gf c #0d0d0d",
"fL c #0e0e0e",
"eX c #0f0f0f",
"eY c #101010",
"f4 c #111111",
"et c #121212",
"es c #131313",
"eq c #141414",
"hf c #151515",
"fr c #161616",
"gA c #171717",
"gp c #181818",
"er c #191919",
"fp c #1a1a1a",
"fM c #1b1b1b",
"eU c #1c1c1c",
"gB c #1d1d1d",
"lv c #1e1b15",
"eZ c #1e1e1e",
"lB c #1f1b15",
"lE c #1f1c15",
"j2 c #1f1c20",
"hv c #1f1e37",
"ic c #1f1e3a",
"eW c #1f1f1f",
"lF c #201c15",
"j3 c #201f31",
"eV c #202020",
"fN c #212121",
"iz c #222033",
"hJ c #22203b",
"fq c #222222",
"ix c #232323",
"j8 c #242137",
"hh c #24223e",
"lC c #26221c",
"jJ c #262330",
"lo c #27231c",
"lw c #27231d",
"jR c #272540",
"j4 c #272640",
"g5 c #272641",
"lt c #28231c",
"le c #28241b",
"gP c #282641",
"fo c #282828",
"cQ c #29241b",
"lx c #29241d",
"lm c #29251b",
"lu c #29251d",
"iX c #292843",
"lp c #2a251d",
"il c #2a2842",
"gF c #2b251c",
"gK c #2b251d",
"iJ c #2b261d",
"ly c #2b271e",
"je c #2b2944",
"iM c #2c261d",
"ls c #2c271f",
"lz c #2c281f",
"lq c #2d2920",
"ln c #2d2921",
"jq c #2d2934",
"ju c #2d2b45",
"lD c #2e2a21",
"am c #2f2920",
"lr c #2f2a21",
"lA c #2f2b21",
"av c #302921",
"hO c #302a1f",
"ke c #302b20",
"km c #312a20",
"aA c #312a21",
"ka c #312b20",
"fD c #312b21",
"iS c #312e2d",
"gD c #312f48",
"ky c #322c22",
"iF c #32314a",
"kE c #332c22",
"h1 c #342e24",
"iR c #352e23",
"fR c #363025",
"hX c #36344a",
"db c #373126",
"ld c #373227",
"cX c #383126",
"cU c #383226",
"cP c #383227",
"aZ c #383228",
"k7 c #383327",
"a6 c #383328",
"gr c #38354c",
"iI c #393328",
"cV c #39332a",
"kY c #393427",
"aB c #39342a",
"cR c #3a3327",
"cO c #3a3429",
"aw c #3a342b",
"cn c #3a3529",
"an c #3a352b",
"gG c #3b3428",
"cL c #3b3429",
"hB c #3b3528",
"cu c #3b3529",
"au c #3c3529",
"gJ c #3c352a",
"jV c #3c3628",
"iA c #3c3629",
"gE c #3c362a",
"j9 c #3c372c",
"gh c #3c394e",
"fC c #3d3629",
"cS c #3d362a",
"hM c #3d362b",
"hN c #3d372a",
"cN c #3d372b",
"i0 c #3d372c",
"i4 c #3d372d",
"f7 c #3d3a4f",
"gH c #3e372a",
"ao c #3e372b",
"cW c #3e372c",
"k# c #3e382b",
"kd c #3f372a",
"aC c #3f372b",
"fE c #3f372c",
"iK c #3f382b",
"ap c #3f382c",
"aD c #3f382d",
"gX c #3f382e",
"fx c #3f392d",
"lk c #3f392e",
"lj c #3f3a2e",
"hA c #40382b",
"iL c #40382c",
"iD c #40392c",
"aE c #40392d",
"dt c #40392f",
"lc c #403a2c",
"hK c #403a2d",
"lf c #403a2e",
"fj c #403a30",
"ja c #403a37",
"al c #413a2d",
"aq c #413a2e",
"fy c #413a2f",
"eN c #413b2e",
"fi c #413b2f",
"#6 c #413b30",
"jF c #413c2e",
"kM c #413c2f",
"ak c #423a2e",
"lg c #423b2e",
"cM c #423b2f",
"fw c #423b31",
"hL c #423c2f",
"fc c #423c30",
"#Z c #423c31",
"hP c #423d31",
"lb c #433c2f",
"cT c #433c30",
"j1 c #433c31",
"kc c #433d30",
"kb c #433e32",
"cm c #443d2f",
"ct c #443d30",
"iE c #443d31",
"gI c #443e31",
"cK c #443e33",
"l# c #443f32",
"gt c #453e30",
"aj c #453e31",
"at c #453e32",
"gx c #453f34",
"la c #463f30",
"li c #463f31",
"az c #463f32",
"ll c #464031",
"fz c #464032",
"lh c #473f30",
"hn c #473f31",
"jC c #474031",
"k. c #474032",
"fB c #474033",
"iC c #474035",
"iu c #474354",
"eB c #484033",
"jy c #484132",
"ar c #484133",
"ax c #484134",
"hU c #484350",
"j7 c #484559",
"eM c #494133",
"fF c #494234",
"ay c #494335",
"dY c #4a4151",
"k4 c #4a4233",
"#O c #4a4234",
"kZ c #4a4332",
"k5 c #4a4333",
"as c #4a4335",
"fA c #4a4436",
"#P c #4a4538",
"fQ c #4b4856",
"#Y c #4c4436",
"b3 c #4c4536",
"io c #4c4537",
"kX c #4d4435",
"#5 c #4d4436",
"fb c #4d4537",
"bX c #4d4637",
"gb c #4d483a",
"l. c #4e4435",
"kV c #4e4534",
"hm c #4e4536",
"ex c #4e4754",
"f9 c #4e483b",
"b# c #4e4940",
"jw c #4f4537",
"jx c #4f4636",
"hl c #4f4637",
"eh c #4f4838",
"eG c #4f493b",
"by c #4f493c",
"hu c #4f4b5d",
"cy c #504838",
"cv c #504839",
"cs c #504938",
"#x c #50493c",
"br c #504a3c",
"bW c #514838",
"k1 c #514938",
"cg c #514939",
"h6 c #51493c",
"k8 c #514a38",
"ha c #514a3c",
"#t c #514a3d",
"cY c #514e47",
"hz c #524838",
"in c #524938",
"gl c #524939",
"dZ c #524948",
"k6 c #524a38",
"cl c #524a39",
"e7 c #524a3a",
"d4 c #524a3c",
"dL c #524b3d",
"eA c #524b4d",
"ez c #524c51",
"fJ c #524d5c",
"hr c #524e5e",
"iy c #525060",
"k9 c #534a39",
"gs c #534a3a",
"eg c #534a3c",
"kW c #534b38",
"e8 c #534b3a",
"jX c #534c3b",
"kz c #534c3d",
"fY c #534c3e",
"#R c #534d3a",
"kh c #534d40",
"f2 c #534f60",
"e5 c #534f61",
"k2 c #544b39",
"cp c #544b3a",
"ch c #544b3b",
"gm c #544b3c",
"#1 c #544c3a",
"jH c #544c3b",
"fe c #544d3b",
"kt c #544d3e",
"aY c #544d3f",
"kq c #544e41",
"ge c #545062",
"gu c #554b3b",
"kN c #554c39",
"#S c #554c3a",
"ff c #554c3b",
"jW c #554d3b",
"b. c #554d3f",
"kl c #554d40",
"jT c #554e3b",
"iQ c #554e41",
"ey c #554f57",
"kp c #555043",
"kr c #555044",
"gn c #555163",
"hq c #564d3c",
"kn c #564e3f",
"kD c #564e41",
"kg c #565042",
"ek c #565053",
"kv c #565144",
"e6 c #565145",
"gy c #565264",
"eL c #574e3c",
"ck c #574e3e",
"#4 c #57503d",
"kC c #575043",
"co c #575142",
"kw c #575143",
"#Q c #575242",
"#N c #584d3c",
"jo c #584e3b",
"#X c #584e3c",
"#i c #584e3d",
"cz c #584e3e",
"hi c #584f3b",
"eE c #584f3c",
"#M c #584f3d",
"gw c #584f3e",
"#V c #58513d",
"iZ c #585143",
"h4 c #585144",
"hC c #58523e",
"#0 c #585242",
"#7 c #585243",
"kA c #585244",
"jG c #58533e",
"ki c #585346",
"dj c #585360",
"fv c #585465",
"j5 c #585766",
"fa c #594e3d",
"iB c #594f3e",
"k3 c #59503d",
"#s c #59503e",
"jS c #59513f",
"kk c #595244",
"da c #595245",
"ko c #595345",
"fd c #595444",
"ks c #595446",
"hY c #595448",
"eK c #5a4f3f",
"bV c #5a503d",
"b2 c #5a503e",
"d6 c #5a503f",
"gd c #5a513e",
"cj c #5a513f",
"dM c #5a5140",
"ei c #5a523d",
"jm c #5a533e",
"gW c #5a5344",
"kx c #5a5447",
"el c #5a545a",
"kj c #5a5547",
"eO c #5a5657",
"jK c #5a5868",
"#m c #5b513d",
"b6 c #5b513e",
"hk c #5b513f",
"hy c #5b5140",
"cx c #5b523f",
"it c #5b5240",
"d2 c #5b5241",
"k0 c #5b533e",
"eC c #5b533f",
"cr c #5b5340",
"h0 c #5b5345",
"jz c #5b543f",
"#j c #5b5444",
"cf c #5b5445",
"ds c #5b5446",
"hZ c #5b5647",
"h5 c #5b5649",
"#h c #5c513e",
"#r c #5c513f",
"jU c #5c5140",
"bR c #5c523d",
"#w c #5c523f",
"#W c #5c5240",
"h. c #5c5241",
"d3 c #5c5242",
"b5 c #5c533e",
"gv c #5c5340",
"jg c #5c5341",
"jf c #5c5342",
"#8 c #5c543f",
"jD c #5c5440",
"hx c #5c5441",
"gk c #5c5445",
"ir c #5c5545",
"hT c #5c5648",
"i2 c #5c5749",
"cA c #5c584e",
"f# c #5d5341",
"h# c #5d5342",
"jh c #5d5343",
"cq c #5d543f",
"#2 c #5d5440",
"d1 c #5d5442",
"g9 c #5d5443",
"#T c #5d5540",
"hD c #5d5541",
"jZ c #5d5542",
"fU c #5d5548",
"f. c #5d5642",
"fS c #5d5646",
"fX c #5d5647",
"ku c #5d5749",
"fV c #5d574a",
"kB c #5d5849",
"do c #5d5864",
"be c #5d5950",
"cw c #5e5540",
"ci c #5e5541",
"ee c #5e5542",
"aX c #5e5647",
"#U c #5e5743",
"a5 c #5e5747",
"a9 c #5e5748",
"aT c #5e5849",
"aU c #5e584a",
"h2 c #5e584b",
"dQ c #5e5856",
"gS c #5e594b",
"hd c #5f5445",
"jk c #5f5542",
"is c #5f5641",
"e9 c #5f5642",
"ej c #5f5644",
"kL c #5f5645",
"#3 c #5f5743",
"a8 c #5f574a",
"a7 c #5f5848",
"a4 c #5f584a",
"aV c #5f594b",
"em c #5f5b65",
"iT c #5f5d6a",
"jY c #605642",
"dN c #605644",
"ef c #605645",
"jn c #605740",
"hw c #605742",
"jI c #605743",
"fg c #605843",
"a0 c #605949",
"iP c #60594a",
"fW c #605a4c",
"h3 c #605a4d",
"dp c #605b53",
"dR c #605b69",
"#g c #615542",
"jA c #615740",
"jp c #615743",
"g6 c #615745",
"jl c #615746",
"ho c #615840",
"eD c #615841",
"f8 c #615846",
"#L c #615a48",
"gN c #615a4d",
"dg c #615b4d",
"di c #615b51",
"e. c #615c4f",
"i. c #615f6d",
"hp c #625743",
"bU c #625843",
"#q c #625844",
"eF c #625845",
"j# c #625846",
"iq c #625943",
"im c #625947",
"iY c #625a4a",
"gU c #625b4d",
"aW c #625c4d",
"i1 c #625c4e",
".2 c #625d4f",
"iO c #625d50",
"e4 c #625d6e",
"iN c #625f53",
"gi c #635943",
"kI c #635945",
"bS c #635a43",
"b0 c #635a44",
"dK c #635a4b",
"i3 c #635b4b",
"i5 c #635c4b",
"hR c #635c4c",
"dq c #635d4e",
"a3 c #635d4f",
".X c #635e50",
"bF c #636057",
"dk c #63606e",
"kP c #645947",
"kR c #645a47",
"#v c #645b44",
"kQ c #645b45",
"kO c #645b46",
"j. c #645c4d",
"gR c #645e50",
"fI c #645e52",
"hS c #645f50",
"#n c #655c44",
"kH c #655c48",
"gV c #655c4d",
"bE c #655d4a",
"gY c #655e4d",
"fH c #655e4e",
"d# c #655e4f",
"gZ c #655f50",
"gT c #656052",
"gM c #656053",
"aF c #656054",
"d7 c #665c48",
"dO c #665c49",
"bQ c #665d46",
"g7 c #665d49",
"bx c #665d4a",
"bq c #665d4b",
"id c #665e4b",
"dr c #665e4e",
"aR c #665f4f",
"bY c #66604c",
"aS c #666051",
"df c #666052",
"dw c #666152",
".N c #666153",
"gL c #666255",
"j6 c #666571",
"iH c #666671",
"jv c #675c48",
"ig c #675d47",
"eJ c #675d4a",
"bZ c #675e48",
"#p c #675e49",
"ji c #675e4a",
"kK c #675e4b",
"d0 c #675f4b",
"fT c #676052",
"dd c #676152",
"dh c #676153",
"d. c #676255",
"b7 c #676257",
"jQ c #676671",
"hj c #685d49",
"b4 c #685e48",
"dP c #685e49",
"g8 c #685e4a",
"#o c #685f48",
"ip c #685f49",
"#l c #685f4a",
".L c #685f4b",
"#z c #68604a",
"kU c #68604c",
"du c #686150",
"i6 c #686152",
"bn c #695f4a",
"eI c #69604b",
"bw c #69604c",
"ed c #69614e",
"bs c #69624d",
"bP c #696251",
"a2 c #696253",
"a1 c #696254",
"c9 c #696558",
"bT c #6a604a",
"b1 c #6a614b",
".M c #6a614d",
"hc c #6a614e",
"gQ c #6a6254",
"bz c #6a634e",
"gc c #6a6351",
"dc c #6a6352",
"g0 c #6a6354",
"iW c #6a6973",
"jB c #6b604a",
"jE c #6b604b",
"bt c #6b614b",
"gj c #6b614c",
"g. c #6b624c",
"d8 c #6b624d",
"kS c #6b634d",
"kT c #6b6350",
"d5 c #6b644e",
"ie c #6b644f",
".V c #6b6451",
"de c #6b6455",
"bm c #6c624c",
"f1 c #6c624e",
"h9 c #6c634d",
"kJ c #6c6451",
"#k c #6c6551",
"#u c #6c6552",
"dv c #6c6556",
"aP c #6c675c",
"bA c #6d634e",
".0 c #6d644e",
".K c #6d644f",
".S c #6d654e",
"hb c #6d6650",
"jj c #6d6651",
"#y c #6d6653",
"hF c #6d6b78",
"bl c #6e644d",
"bu c #6e6653",
"eH c #6e6754",
"h8 c #6f654f",
"bp c #6f6651",
"bB c #6f6654",
"bD c #6f6751",
"g# c #6f6754",
"jd c #6f6e77",
"bk c #706750",
"f0 c #706851",
"ga c #706852",
".U c #706853",
"fk c #706d7a",
"h7 c #716851",
".R c #716853",
"dJ c #716857",
"kG c #716a58",
".5 c #726952",
"#f c #726954",
".Q c #726a53",
"ec c #726a54",
"kF c #726d5c",
"eb c #736a53",
"i9 c #736a59",
"if c #736b54",
"bC c #736b56",
"dx c #736f61",
"bv c #746b56",
"bo c #746c57",
"bj c #746e5b",
"fZ c #746f5b",
".T c #756d59",
"d9 c #756e5a",
".1 c #756e5c",
".W c #756f5c",
".I c #75746c",
"jt c #76777d",
"bi c #77746a",
"fn c #777ea7",
"hI c #797c77",
"fs c #797ea6",
"ht c #797f8a",
".P c #7a725c",
".Z c #7a725d",
".4 c #7b735e",
"#9 c #7b7563",
"hW c #7b8285",
"ea c #7c745f",
"dl c #7c7a86",
"jb c #7d7e83",
"dI c #7f7865",
"g2 c #7f7866",
".u c #807366",
"dH c #807a68",
".m c #817467",
"i8 c #817a67",
".J c #817b66",
"ik c #818884",
"g1 c #827c69",
"cE c #827c70",
"i7 c #837d6a",
"#A c #857f6c",
"cC c #868173",
"#J c #878175",
"aI c #878274",
"bh c #87857b",
"aJ c #888375",
"dn c #888691",
"hg c #888694",
"jr c #88888d",
".c c #897d6f",
".6 c #898472",
"cD c #898477",
"jP c #898a8e",
"ae c #8a8578",
"af c #8a8579",
"ag c #8a8679",
"dB c #8a897e",
"#I c #8b8678",
"aO c #8b867a",
".O c #8b8773",
".Y c #8c8774",
"iw c #8c94af",
"#H c #8d877a",
".3 c #8d8875",
"aM c #8d887d",
"bd c #8d8a7d",
"eP c #8e8c92",
".k c #8f8677",
".s c #8f8777",
"e# c #8f8b78",
"ah c #8f8b7f",
"bc c #8f8c7f",
"ew c #8f8d97",
"dm c #8f8e97",
"bf c #908e83",
"jc c #909599",
"c. c #918d80",
"cF c #918e85",
"ih c #919196",
".h c #92897a",
"aN c #928c80",
"b9 c #928d7f",
"bg c #929086",
"aH c #938e81",
"#K c #938e82",
".y c #958f82",
"#e c #959188",
"ib c #959886",
"bb c #969389",
".H c #96968e",
"cb c #979284",
"bL c #979386",
"hV c #97979a",
"aK c #989589",
".G c #98988f",
".t c #998978",
".i c #998e7f",
".q c #998f7f",
".w c #999182",
"#d c #999489",
"cI c #999688",
"bK c #99968c",
"fm c #999bb3",
"jL c #999c9a",
"jN c #999e9b",
".r c #9a8976",
".j c #9a8977",
".l c #9a8a78",
"ad c #9a9688",
"aL c #9a978c",
".e c #9b8f7e",
".o c #9b9183",
"cJ c #9b9689",
".n c #9c907e",
".f c #9c9283",
"aa c #9c9688",
"bJ c #9c998c",
"c# c #9c998f",
"cH c #9c9a8b",
".C c #9c9d95",
"#G c #9d9a8b",
".x c #9e9283",
".a c #9e998c",
"ab c #9e9a8c",
".g c #a09080",
"#c c #a09c92",
".p c #a19181",
".b c #a19282",
"a# c #a19c8d",
"bM c #a19e91",
"c0 c #a1a096",
"ba c #a1a198",
".D c #a1a29a",
"Qt c #a29b8d",
"en c #a29ea6",
"c2 c #a2a197",
".B c #a2a39b",
"iG c #a2a6a1",
"c3 c #a3a39b",
"fP c #a3a4a0",
"jO c #a3a8a3",
"#b c #a4a296",
"c8 c #a4a297",
".F c #a4a59d",
"i# c #a4a6a5",
".v c #a59d8e",
"e0 c #a5b3df",
"iU c #a6aba6",
"ca c #a7a495",
"bH c #a7a598",
"c7 c #a7a59b",
"ce c #a8a495",
"#F c #a8a595",
"bI c #a8a698",
"hs c #a8a9a9",
".E c #a8aaa2",
".# c #a9a093",
"#E c #a9a697",
"c5 c #a9a79d",
"iv c #a9aca9",
"ac c #aaa799",
"#a c #aaa79b",
"c6 c #aaaa9f",
".A c #aaaca5",
"hG c #aaacac",
"ii c #aaaeae",
".d c #ab9e8d",
"cG c #aba99b",
"dX c #acacb4",
"bO c #ada99c",
"cc c #adab9c",
".9 c #adaba1",
"#D c #aeaa9c",
"#C c #aeab9e",
"c1 c #aeafa6",
"jM c #aeb2ac",
"cB c #afaea5",
"dA c #afafa2",
"js c #afb3ad",
"bN c #b0ada1",
"dz c #b0afa2",
"## c #b1aea3",
"dD c #b2b1a3",
"cd c #b4b2a5",
"dE c #b4b3a7",
"c4 c #b4b3a9",
"dG c #b4b4a8",
".z c #b4b7b1",
"dy c #b5b5aa",
"dF c #b7b8ad",
"#. c #b8b7ae",
"aG c #b9bab1",
"a. c #bbbcb2",
"b8 c #bcbdb5",
"dC c #bdbeb2",
"cZ c #c0c2bb",
"ep c #c0c5d2",
"#B c #c4c6bd",
"g4 c #c5c6cd",
".8 c #c5c7bf",
"bG c #c5c7c0",
"fu c #c9c7ce",
"eT c #c9cbce",
"fO c #cacbda",
"gC c #cfcfd7",
"eu c #d0d2e1",
"gq c #d1d0d7",
".7 c #d1d4ce",
"eQ c #d2d1d4",
"dV c #d2d3e2",
"e3 c #d4d3d7",
"g3 c #d8d7df",
"dU c #dcdae0",
"fl c #dcdce0",
"gg c #dcdce1",
"he c #dfdee2",
"f6 c #e1e1e5",
"fK c #e3e3e8",
"go c #e3e3eb",
"gz c #e4e4eb",
"gO c #e6e5ec",
"f3 c #e7e7ed",
"dS c #e9e8ea",
"ft c #f0f1f5",
"dT c #f6f8ef",
"eo c #f9f9f8",
"ev c #f9f9f9",
"e2 c #fbfbfb",
"dW c #fbfff5",
"e1 c #fcfcfe",
"eS c #fffefd",
"eR c #ffffff",
"Qt.#.a.b.c.d.e.f.g.h.i.j.k.l.m.d.n.o.p.h.q.r.s.t.u.v.n.w.x.y.z.A.B.C.D.E.F.G.H.I",
".J.K.L.M.N.O.P.Q.R.S.T.U.V.W.X.Y.Z.Q.R.0.T.R.V.1.2.3.4.5.R.6.7.8.9#.###a#b#c#d#e",
"#f#g#h#i#j#k#l#m#n#o#p#q#r#s#t#u#l#m#v#o#p#q#w#s#x#y#z#m#v#A#B#C#D#E#F#G#H#I#J#K",
"#L#M#N#O#P#Q#R#S#T#U#V#W#X#Y#Z#0#R#1#2#3#4#W#X#5#6#7#R#1#8#9a.a#aaabacadaeafagah",
"aiajakalamanaoapaqarasatauauavawaoapalaxayazauauaAaBaCaDaEaFaGaHaIaJaKaLaMaNaOaP",
"aQaRaSaTaUaVaWaXaYaZa0a1a2a3a4aVaWa5aYa6a7a1a2a3a8aVaWa9b.b#babbbcbdbebfbgbgbhbi",
"bjbkblbmbnbobp.Lbqbrbs.Qbt.0bubvbpbwbxbybz.QbtbAbBbCbDbwbEbFbGbHbIbJbKbHbLbMbNbO",
"bPbQbRbSbnbTbUbVbWbXbYbZbRb0b1bTbUb2bWb3bYb4b5bSb1bTbUb6bWb7b8b9adc.c#cacbcccdce",
"cfcgchcicjcgckclcmcncocgcpcqcrcsckclctcucocvcpcwcxcyczclctcAcBcCcDcEcFcGcHcIcJ#E",
"cKcLaoaucMcNcOcPaucQaBcRcScScTaocLcUaucQcVcRcScScTcWcLcXcucYcZc0c1c2c3c4c5c6c7c8",
"c9d.d#dadbdcdddedfdgdhdidjdkdldmdndodpdgdhdqdrdsdtdudddvdwdxdydzdzdAdBdCdDdEdFdG",
"dHdIdJdKdLbsdMdNdOdPdQdRdSdTdUdVdWdXdYdZd0d1d2d3d4d5d6dNd7d8d9#f#u.We.e#eaebec.S",
"edeeefegeheiejekelemeneoepeqereseteuevewexeyezeAeBeCeDeEbUbt#peF#w#seGeHeI#m#v#o",
"eJeKeLeMeNeOePeQeReSeTeseUeVeWereXeYeZe0e1e2e3e4e5e6e7e8e9f.#Vf#fafbfcfdfeff#2fg",
"fhazfifjfkflfmfnfoesfpeWfqeVeVfreXeXeXeXetfrfsftfufvfwfxfyfzfAfBcSfCfDawfEaEalfF",
"fGfHfIfJfKeseXfLfMeWfqfqfqfqfNfrfLfLfLeXeXeXeXeWfOfPfQcfdLfRfSfTfTdgfUfVfWfXfYcP",
"fZf0f1f2f3eXf4fMfqfqfqfqfqfqfqetfLfLeXeXeXeXfLf5eXf6f7f8bxf9d5ebg.bAg#bCgabwbxgb",
"gcbQgdgef3fLeqfpeZeVfqfqfqfqfqeYfLfLfLeXfLfLfLfLgfggghb6bWb3bY#ob5gigjbTbUb6bW#Y",
"gkglgmgngoeXgpfpeUeZfqfqfqfqfqf4fLfLfLfLfLfLfLeXgfgqgrgsgtcucocggucwgvcggwe8gtcu",
"gxauaDgygzeXerfpgAgBeWfNfqfqfqeXfLfLfLfLfLfLfLfLgfgCgDcPgEgFaBgGgHaogIapgJcPgEgK",
"gLgMgNgygOeXgAergpereZeWfNfNfqeXfLfLfLeXgffLfLfLf5gCgPgQgRgSgTgUgVgWgXgYgZg0gRgS",
"g1g2dJgng3eXesererfreUgBeWfNfqeYfLfLfLeXeXfLfLfLf5g4g5g6g7g8d0g9h.h#hahbdMg6g7g8",
"hceehdgeheeXeXerergAhfereZeWfqeYfLfLfLeXeYeXfLfLgfhghhhibUbthjhkhlhmhn#8hohihpbt",
"eJd6hqhrhsfqfLfrererfrfreUeZeZeYfLfLeXf4eteteXeXhthuhvcphwhxfehyhzhAhBhCe8cpe9hD",
"hEfB#6fyhFhGeXetgpergpfrfreUeZeYfLeXetf4etf4eXhHhIhJfihKhLfBazfChMhNhOhPcThKcMfB",
"hQhRhShThUhVfofLhfgAerfrgpgpgBeYfLetetetetfLgfhWhXhYhZh0#xh1#0h2h3gSh4h5hZcfh6h1",
".Wh7h8h9dPi.i#fpf4hfererererfMeseteteteteXgfiaibicbCga.Midf9ieifbm.0g#bC.R.Mbqgb",
"gcigb5bSbnbTihiiijeYfrererfMfMeteteteteXf5hHikilimbTbUb6iniobYipb5bSgjbTiqb6inb3",
"ire7ffisite7iuiviwf5eYgpfMfMfMeteteteXf5f5ixiyizcxcl#scpgtiA#0e7ffcwhxcliBcpgtgE",
"iCcSiDaoiEapcuiFiGfreXf4fpfMfMeteteYf5gfeUiHhJaoazaDhMiIcNiJanauiKiLazaDhMiIcNiM",
"iNiOiPiQiRfHa3iSiTiUijeYetfpfMeteXf5iVfNiWiXiYiZi0hRa3fTi1i2.XfWi3iZi4i5dqi6i1i2",
"i7i8i9j.dLied2j#jajbjcfLf4f4gpgff5f5eUjdjejfjgjhdLhbitj#jibnd0g9jgjhhajjitj#jibn",
"hcjkjlgmehjmjnjojpjqjrjsfNfLijgfiVfNjtjujvhkjwjxjyjzjAhibUjBhjhkhljxjCjDjAhijpjE",
"jid6eLeMjFjGjHjHjIcrjJjKjLjMjNjOjPjQjRjSjTjUhzhAjVjGe8jHhwhDjWjUhzhAhBjGjXjHjYjZ",
"j0eB#ZcMa6hPj1aqiEfFgtj2j3j4j5j6j7j8j9fFk.gHapk#kakbiEeNkcfFfBkdapk#kekbiEeNkcfF",
"kffXaVkgkhkikjkkklkmknkohTkpkqkrksiZiQfDktdakukvkwkikxkkiQkykzkAkBkvkCkikxkkkDkE",
"kFkG#lkHkIkJkKjZkLkMkNhbg.kOkPkJd0jZkLkMkNhbg.kQkR.Vd0d1kLfikNhbkSkQkRkTkUd1kLfi",
"#jd2kVkW#MgdinkX#OkYkZk0k1k2k3gdinkXk4kYk5k0k1k2k3gdk6kXk4k7k5k0k8kWk3#sk9l.k4k7",
"l#cNaplalblcakapldlelflglclhlilcakapcPcQljlglclalilcakiKcPcQlkeNlclalllcakiKcPlm",
"lnlolplplqlrlsltlulvlwlxlylzlAlrlsltlulBlClxlylzlAlDlsltlulElClxlylslAlDlzltlulF"};
