/* XPM */
static char *dummy[]={
"40 40 1024 2",
"mJ c #605a49",
"js c #686354",
"fR c #6a6556",
"aQ c #6c6759",
"ai c #4c4638",
"fi c #575040",
"j. c #585141",
"ms c #595242",
"j7 c #020d5e",
"jj c #03135a",
"km c #041163",
"lU c #051263",
"ke c #061365",
"lc c #071567",
"kF c #08166a",
"kE c #09176b",
"kl c #09176c",
"kV c #0a186c",
"lb c #0a186d",
"kA c #0a196c",
"j6 c #0a196e",
"kW c #0a1a6c",
"lV c #0a1a6f",
"jG c #0a1a70",
"fY c #0a1d70",
"lT c #0b1c6f",
"gK c #0b1e71",
"iO c #0b1e72",
"h3 c #0b1e73",
"hN c #0c1a6f",
"jF c #0c1b71",
"fX c #0c1e72",
"hD c #0c1f75",
"j5 c #0d1d73",
"hj c #0d2073",
"io c #0d2075",
"jb c #0d2076",
"ip c #0d2077",
"ji c #0d207c",
"g8 c #0e1c70",
"gT c #0e1c71",
"iY c #0e1d72",
"kR c #0e1e74",
"iX c #0e1e75",
"iy c #0e1f76",
"gp c #0e247d",
"lx c #0f1c68",
"gw c #0f1c70",
"iU c #0f1d71",
"g9 c #0f1d72",
"i# c #0f1f75",
"kD c #0f2078",
"kU c #0f2079",
"kf c #0f227c",
"kB c #0f227d",
"ia c #10185d",
"gx c #101860",
"gU c #101961",
"h. c #101962",
"iw c #101b6b",
"iz c #101c5b",
"iT c #101c6d",
"f7 c #101c6e",
"fy c #101d71",
"fz c #101e72",
"ix c #102077",
"jY c #10237f",
"kS c #10247f",
"lz c #102481",
"gS c #111c68",
"f6 c #111c69",
"iS c #111d68",
"hM c #111d6a",
"gv c #111d6b",
"i. c #111d6c",
"fx c #111d6e",
"eY c #111f71",
"hp c #112073",
"ly c #11237d",
"jc c #112580",
"la c #112583",
"fA c #121e6e",
"gR c #122172",
"h9 c #122173",
"jf c #122174",
"jE c #122175",
"g7 c #122379",
"iV c #12247d",
"jh c #12247e",
"gu c #122580",
"h4 c #122986",
"es c #122987",
"jg c #13257f",
"j4 c #132680",
"iW c #132681",
"j3 c #132782",
"kk c #132783",
"eq c #132b8c",
"gL c #132c8b",
"f5 c #132f95",
"fw c #13309b",
"f8 c #141e68",
"eZ c #14216e",
"j2 c #142884",
"fq c #142981",
"eU c #142a86",
"er c #1438ac",
"jz c #152c8e",
"jZ c #152e8f",
"f9 c #161d5e",
"is c #162e8d",
"iP c #163094",
"kg c #163095",
"fr c #163bb5",
"gy c #171d5e",
"iQ c #173094",
"jB c #173195",
"h6 c #173196",
"jA c #173298",
"hE c #173397",
"lA c #17349b",
"kC c #17359b",
"fZ c #173db5",
"eV c #173eba",
"ir c #183297",
"hl c #183299",
"jC c #18349a",
"g4 c #18369f",
"hH c #1836a1",
"it c #1838a5",
"fB c #19256e",
"hG c #19359b",
"jd c #19359c",
"h5 c #19369d",
"kh c #19369e",
"j0 c #1937a2",
"ki c #1937a3",
"hk c #1938a2",
"kT c #193bab",
"je c #1940bc",
"jD c #1942c3",
"hm c #1943c2",
"g6 c #1943c3",
"iu c #1944c5",
"iR c #1944c7",
"et c #1a266f",
"fW c #1a2979",
"hF c #1a38a1",
"iq c #1a38a4",
"j1 c #1a3db0",
"kj c #1a3db1",
"h7 c #1a3eb2",
"gN c #1a43c2",
"hI c #1a45c1",
"h8 c #1a46c8",
"fs c #1a47c9",
"hn c #1a47ca",
"f0 c #1a47cc",
"eX c #1a47cd",
"hJ c #1a48cb",
"iv c #1a48cc",
"gM c #1b3ba9",
"gq c #1b3cab",
"g5 c #1b3eaf",
"fu c #1b49d0",
"eW c #1b49d2",
"gO c #1b4ad1",
"fv c #1b4bcf",
"hK c #1b4bd2",
"f4 c #1b4bd4",
"hL c #1b4bd6",
"ho c #1b4dd6",
"ft c #1c4dd7",
"gt c #1c4dd9",
"gQ c #1c4ed8",
"gr c #1c4eda",
"f1 c #1c4edb",
"f2 c #1d50db",
"gP c #1d50dc",
"gs c #1d50dd",
"f3 c #1d50de",
"nZ c #1e1b15",
"n5 c #1f1b15",
"n8 c #1f1c15",
"mu c #1f1c20",
"i1 c #1f1e37",
"j9 c #1f1e3a",
"n9 c #201c15",
"mv c #201f31",
"kI c #222033",
"jl c #22203b",
"kQ c #232e75",
"mA c #242137",
"iB c #24223e",
"n6 c #26221c",
"mb c #262330",
"nS c #27231c",
"n0 c #27231d",
"mj c #272540",
"mw c #272640",
"ic c #272641",
"nX c #28231c",
"nI c #28241b",
"hO c #282641",
"fC c #282e6c",
"jX c #283988",
"cQ c #29241b",
"n1 c #29241d",
"nQ c #29251b",
"nY c #29251d",
"lf c #292843",
"nT c #2a251d",
"ko c #2a2842",
"ht c #2b251c",
"hy c #2b251d",
"k0 c #2b261d",
"n2 c #2b271e",
"lD c #2b2944",
"k3 c #2c261d",
"nW c #2c271f",
"n3 c #2c281f",
"nU c #2d2920",
"nR c #2d2921",
"lP c #2d2934",
"lY c #2d2b45",
"n7 c #2e2a21",
"am c #2f2920",
"nV c #2f2a21",
"n4 c #2f2b21",
"av c #302921",
"jq c #302a1f",
"mI c #302b20",
"mQ c #312a20",
"aA c #312a21",
"mE c #312b20",
"fO c #312b21",
"k9 c #312e2d",
"hr c #312f48",
"m2 c #322c22",
"kO c #32314a",
"m8 c #332c22",
"lB c #333d75",
"jM c #342e24",
"k8 c #352e23",
"gc c #363025",
"jI c #36344a",
"e0 c #364280",
"db c #373126",
"nH c #373227",
"cX c #383126",
"cU c #383226",
"cP c #383227",
"aZ c #383228",
"nz c #383327",
"a6 c #383328",
"ha c #38354c",
"kZ c #393328",
"cV c #39332a",
"nq c #393427",
"aB c #39342a",
"cR c #3a3327",
"cO c #3a3429",
"aw c #3a342b",
"cn c #3a3529",
"an c #3a352b",
"hu c #3b3428",
"cL c #3b3429",
"i7 c #3b3528",
"cu c #3b3529",
"kX c #3b3f69",
"au c #3c3529",
"hx c #3c352a",
"mn c #3c3628",
"kJ c #3c3629",
"hs c #3c362a",
"mB c #3c372c",
"gW c #3c394e",
"lS c #3c4987",
"fN c #3d3629",
"cS c #3d362a",
"jo c #3d362b",
"jp c #3d372a",
"cN c #3d372b",
"li c #3d372c",
"lm c #3d372d",
"gA c #3d3a4f",
"iN c #3d4c8f",
"hv c #3e372a",
"ao c #3e372b",
"cW c #3e372c",
"mD c #3e382b",
"mH c #3f372a",
"aC c #3f372b",
"fP c #3f372c",
"k1 c #3f382b",
"ap c #3f382c",
"aD c #3f382d",
"hW c #3f382e",
"fI c #3f392d",
"nO c #3f392e",
"nN c #3f3a2e",
"g. c #3f447c",
"i6 c #40382b",
"k2 c #40382c",
"kM c #40392c",
"aE c #40392d",
"dt c #40392f",
"nG c #403a2c",
"jm c #403a2d",
"nJ c #403a2e",
"fk c #403a30",
"lu c #403a37",
"al c #413a2d",
"aq c #413a2e",
"fJ c #413a2f",
"eN c #413b2e",
"fj c #413b2f",
"#6 c #413b30",
"l9 c #413c2e",
"ne c #413c2f",
"lW c #414b77",
"ak c #423a2e",
"nK c #423b2e",
"cM c #423b2f",
"fH c #423b31",
"jn c #423c2f",
"fd c #423c30",
"#Z c #423c31",
"jr c #423d31",
"ld c #424b73",
"nF c #433c2f",
"cT c #433c30",
"mt c #433c31",
"mG c #433d30",
"mF c #433e32",
"cm c #443d2f",
"ct c #443d30",
"kN c #443d31",
"hw c #443e31",
"cK c #443e33",
"nD c #443f32",
"hc c #453e30",
"aj c #453e31",
"at c #453e32",
"hg c #453f34",
"nE c #463f30",
"nM c #463f31",
"az c #463f32",
"nP c #464031",
"fK c #464032",
"nL c #473f30",
"iH c #473f31",
"l6 c #474031",
"mC c #474032",
"fM c #474033",
"kL c #474035",
"kx c #474354",
"eB c #484033",
"l2 c #484132",
"ar c #484133",
"ax c #484134",
"jw c #484350",
"mz c #484559",
"eM c #494133",
"fQ c #494234",
"ay c #494335",
"dY c #4a4151",
"nw c #4a4233",
"#O c #4a4234",
"nr c #4a4332",
"nx c #4a4333",
"as c #4a4335",
"fL c #4a4436",
"#P c #4a4538",
"kG c #4a4f71",
"gb c #4b4856",
"#Y c #4c4436",
"b3 c #4c4536",
"kr c #4c4537",
"np c #4d4435",
"#5 c #4d4436",
"fc c #4d4537",
"bX c #4d4637",
"gG c #4d483a",
"nC c #4e4435",
"nn c #4e4534",
"iG c #4e4536",
"ex c #4e4754",
"gC c #4e483b",
"b# c #4e4940",
"jy c #4e5b90",
"l0 c #4f4537",
"l1 c #4f4636",
"iF c #4f4637",
"eh c #4f4838",
"eG c #4f493b",
"by c #4f493c",
"i0 c #4f4b5d",
"cy c #504838",
"cv c #504839",
"cs c #504938",
"#x c #50493c",
"br c #504a3c",
"fp c #505b94",
"bW c #514838",
"nt c #514938",
"cg c #514939",
"jR c #51493c",
"nA c #514a38",
"ij c #514a3c",
"#t c #514a3d",
"cY c #514e47",
"i5 c #524838",
"kq c #524938",
"g0 c #524939",
"dZ c #524948",
"ny c #524a38",
"cl c #524a39",
"e8 c #524a3a",
"d4 c #524a3c",
"dL c #524b3d",
"eA c #524b4d",
"ez c #524c51",
"fU c #524d5c",
"iL c #524e5e",
"kH c #525060",
"nB c #534a39",
"hb c #534a3a",
"eg c #534a3c",
"no c #534b38",
"e9 c #534b3a",
"mp c #534c3b",
"m3 c #534c3d",
"gj c #534c3e",
"#R c #534d3a",
"mL c #534d40",
"gn c #534f60",
"e6 c #534f61",
"nu c #544b39",
"cp c #544b3a",
"ch c #544b3b",
"g1 c #544b3c",
"#1 c #544c3a",
"m# c #544c3b",
"ff c #544d3b",
"mX c #544d3e",
"aY c #544d3f",
"mU c #544e41",
"gJ c #545062",
"hd c #554b3b",
"nf c #554c39",
"#S c #554c3a",
"fg c #554c3b",
"mo c #554d3b",
"b. c #554d3f",
"mP c #554d40",
"ml c #554e3b",
"k7 c #554e41",
"ey c #554f57",
"mT c #555043",
"mV c #555044",
"g2 c #555163",
"iK c #564d3c",
"mR c #564e3f",
"m7 c #564e41",
"mK c #565042",
"ek c #565053",
"mZ c #565144",
"e7 c #565145",
"hh c #565264",
"eL c #574e3c",
"ck c #574e3e",
"#4 c #57503d",
"m6 c #575043",
"co c #575142",
"m0 c #575143",
"#Q c #575242",
"#N c #584d3c",
"lN c #584e3b",
"#X c #584e3c",
"#i c #584e3d",
"cz c #584e3e",
"iC c #584f3b",
"eE c #584f3c",
"#M c #584f3d",
"hf c #584f3e",
"#V c #58513d",
"lh c #585143",
"jP c #585144",
"i8 c #58523e",
"#0 c #585242",
"#7 c #585243",
"m4 c #585244",
"m. c #58533e",
"mM c #585346",
"dj c #585360",
"fG c #585465",
"mx c #585766",
"fb c #594e3d",
"kK c #594f3e",
"nv c #59503d",
"#s c #59503e",
"mk c #59513f",
"mO c #595244",
"da c #595245",
"mS c #595345",
"fe c #595444",
"mW c #595446",
"jJ c #595448",
"eK c #5a4f3f",
"bV c #5a503d",
"b2 c #5a503e",
"d6 c #5a503f",
"gI c #5a513e",
"cj c #5a513f",
"dM c #5a5140",
"ei c #5a523d",
"lL c #5a533e",
"hV c #5a5344",
"m1 c #5a5447",
"el c #5a545a",
"mN c #5a5547",
"eO c #5a5657",
"mc c #5a5868",
"#m c #5b513d",
"b6 c #5b513e",
"iE c #5b513f",
"i4 c #5b5140",
"cx c #5b523f",
"kw c #5b5240",
"d2 c #5b5241",
"ns c #5b533e",
"eC c #5b533f",
"cr c #5b5340",
"jL c #5b5345",
"l3 c #5b543f",
"#j c #5b5444",
"cf c #5b5445",
"ds c #5b5446",
"jK c #5b5647",
"jQ c #5b5649",
"#h c #5c513e",
"#r c #5c513f",
"mm c #5c5140",
"bR c #5c523d",
"#w c #5c523f",
"#W c #5c5240",
"ih c #5c5241",
"d3 c #5c5242",
"b5 c #5c533e",
"he c #5c5340",
"lF c #5c5341",
"lE c #5c5342",
"#8 c #5c543f",
"l7 c #5c5440",
"i3 c #5c5441",
"gZ c #5c5445",
"ku c #5c5545",
"jv c #5c5648",
"lk c #5c5749",
"cA c #5c584e",
"fa c #5d5341",
"ii c #5d5342",
"lG c #5d5343",
"cq c #5d543f",
"#2 c #5d5440",
"d1 c #5d5442",
"ig c #5d5443",
"#T c #5d5540",
"i9 c #5d5541",
"mr c #5d5542",
"gf c #5d5548",
"f# c #5d5642",
"gd c #5d5646",
"gi c #5d5647",
"mY c #5d5749",
"gg c #5d574a",
"m5 c #5d5849",
"do c #5d5864",
"be c #5d5950",
"cw c #5e5540",
"ci c #5e5541",
"ee c #5e5542",
"aX c #5e5647",
"#U c #5e5743",
"a5 c #5e5747",
"a9 c #5e5748",
"aT c #5e5849",
"aU c #5e584a",
"jN c #5e584b",
"dQ c #5e5856",
"hR c #5e594b",
"im c #5f5445",
"lJ c #5f5542",
"kv c #5f5641",
"f. c #5f5642",
"ej c #5f5644",
"nd c #5f5645",
"#3 c #5f5743",
"a8 c #5f574a",
"a7 c #5f5848",
"a4 c #5f584a",
"aV c #5f594b",
"em c #5f5b65",
"l. c #5f5d6a",
"mq c #605642",
"dN c #605644",
"ef c #605645",
"lM c #605740",
"i2 c #605742",
"ma c #605743",
"fh c #605843",
"a0 c #605949",
"k6 c #60594a",
"gh c #605a4c",
"jO c #605a4d",
"dp c #605b53",
"dR c #605b69",
"#g c #615542",
"l4 c #615740",
"lO c #615743",
"id c #615745",
"lK c #615746",
"iI c #615840",
"eD c #615841",
"gB c #615846",
"#L c #615a48",
"hB c #615a4d",
"dg c #615b4d",
"di c #615b51",
"e. c #615c4f",
"jV c #615f6d",
"iJ c #625743",
"bU c #625843",
"#q c #625844",
"eF c #625845",
"lt c #625846",
"kt c #625943",
"kp c #625947",
"lg c #625a4a",
"hT c #625b4d",
"aW c #625c4d",
"lj c #625c4e",
".2 c #625d4f",
"k5 c #625d50",
"e5 c #625d6e",
"k4 c #625f53",
"gX c #635943",
"na c #635945",
"bS c #635a43",
"b0 c #635a44",
"dK c #635a4b",
"ll c #635b4b",
"ln c #635c4b",
"jt c #635c4c",
"dq c #635d4e",
"a3 c #635d4f",
".X c #635e50",
"bF c #636057",
"dk c #63606e",
"nh c #645947",
"nj c #645a47",
"#v c #645b44",
"ni c #645b45",
"ng c #645b46",
"ls c #645c4d",
"hQ c #645e50",
"fT c #645e52",
"ju c #645f50",
"#n c #655c44",
"n# c #655c48",
"hU c #655c4d",
"bE c #655d4a",
"hX c #655e4d",
"fS c #655e4e",
"d# c #655e4f",
"hY c #655f50",
"hS c #656052",
"hA c #656053",
"aF c #656054",
"d7 c #665c48",
"dO c #665c49",
"bQ c #665d46",
"ie c #665d49",
"bx c #665d4a",
"bq c #665d4b",
"k. c #665e4b",
"dr c #665e4e",
"aR c #665f4f",
"bY c #66604c",
"aS c #666051",
"df c #666052",
"dw c #666152",
".N c #666153",
"hz c #666255",
"my c #666571",
"kY c #666671",
"lZ c #675c48",
"kb c #675d47",
"eJ c #675d4a",
"bZ c #675e48",
"#p c #675e49",
"lH c #675e4a",
"nc c #675e4b",
"d0 c #675f4b",
"ge c #676052",
"dd c #676152",
"dh c #676153",
"d. c #676255",
"b7 c #676257",
"mi c #676671",
"iD c #685d49",
"b4 c #685e48",
"dP c #685e49",
"if c #685e4a",
"#o c #685f48",
"ks c #685f49",
"#l c #685f4a",
".L c #685f4b",
"#z c #68604a",
"nm c #68604c",
"du c #686150",
"lo c #686152",
"bn c #695f4a",
"eI c #69604b",
"bw c #69604c",
"ed c #69614e",
"bs c #69624d",
"bP c #696251",
"a2 c #696253",
"a1 c #696254",
"c9 c #696558",
"bT c #6a604a",
"b1 c #6a614b",
".M c #6a614d",
"il c #6a614e",
"hP c #6a6254",
"bz c #6a634e",
"gH c #6a6351",
"dc c #6a6352",
"hZ c #6a6354",
"le c #6a6973",
"l5 c #6b604a",
"l8 c #6b604b",
"bt c #6b614b",
"gY c #6b614c",
"gD c #6b624c",
"d8 c #6b624d",
"nk c #6b634d",
"nl c #6b6350",
"d5 c #6b644e",
"k# c #6b644f",
".V c #6b6451",
"de c #6b6455",
"bm c #6c624c",
"gm c #6c624e",
"jU c #6c634d",
"nb c #6c6451",
"#k c #6c6551",
"#u c #6c6552",
"dv c #6c6556",
"aP c #6c675c",
"bA c #6d634e",
".0 c #6d644e",
".K c #6d644f",
".S c #6d654e",
"ik c #6d6650",
"lI c #6d6651",
"#y c #6d6653",
"j# c #6d6b78",
"bl c #6e644d",
"bu c #6e6653",
"eH c #6e6754",
"jT c #6f654f",
"bp c #6f6651",
"bB c #6f6654",
"bD c #6f6751",
"gE c #6f6754",
"lC c #6f6e77",
"bk c #706750",
"gl c #706851",
"gF c #706852",
".U c #706853",
"fl c #706d7a",
"jS c #716851",
".R c #716853",
"dJ c #716857",
"n. c #716a58",
".5 c #726952",
"#f c #726954",
".Q c #726a53",
"ec c #726a54",
"m9 c #726d5c",
"eb c #736a53",
"lr c #736a59",
"ka c #736b54",
"bC c #736b56",
"dx c #736f61",
"bv c #746b56",
"bo c #746c57",
"bj c #746e5b",
"gk c #746f5b",
".T c #756d59",
"d9 c #756e5a",
".1 c #756e5c",
".W c #756f5c",
".I c #75746c",
"lX c #76777d",
"bi c #77746a",
"fo c #777ea7",
"jk c #797c77",
"fD c #797ea6",
"iZ c #797f8a",
".P c #7a725c",
".Z c #7a725d",
".4 c #7b735e",
"#9 c #7b7563",
"jH c #7b8285",
"ea c #7c745f",
"dl c #7c7a86",
"lv c #7d7e83",
"dI c #7f7865",
"h1 c #7f7866",
".u c #807366",
"dH c #807a68",
".m c #817467",
"lq c #817a67",
".J c #817b66",
"kn c #818884",
"h0 c #827c69",
"cE c #827c70",
"lp c #837d6a",
"#A c #857f6c",
"cC c #868173",
"#J c #878175",
"aI c #878274",
"bh c #87857b",
"aJ c #888375",
"dn c #888691",
"iA c #888694",
"lQ c #88888d",
".c c #897d6f",
".6 c #898472",
"cD c #898477",
"mh c #898a8e",
"ae c #8a8578",
"af c #8a8579",
"ag c #8a8679",
"dB c #8a897e",
"#I c #8b8678",
"aO c #8b867a",
".O c #8b8773",
".Y c #8c8774",
"kz c #8c94af",
"#H c #8d877a",
".3 c #8d8875",
"aM c #8d887d",
"bd c #8d8a7d",
"eP c #8e8c92",
".k c #8f8677",
".s c #8f8777",
"e# c #8f8b78",
"ah c #8f8b7f",
"bc c #8f8c7f",
"ew c #8f8d97",
"dm c #8f8e97",
"bf c #908e83",
"lw c #909599",
"c. c #918d80",
"cF c #918e85",
"kc c #919196",
".h c #92897a",
"aN c #928c80",
"b9 c #928d7f",
"bg c #929086",
"aH c #938e81",
"#K c #938e82",
".y c #958f82",
"#e c #959188",
"j8 c #959886",
"bb c #969389",
".H c #96968e",
"cb c #979284",
"bL c #979386",
"jx c #97979a",
"aK c #989589",
".G c #98988f",
".t c #998978",
".i c #998e7f",
".q c #998f7f",
".w c #999182",
"#d c #999489",
"cI c #999688",
"bK c #99968c",
"fn c #999bb3",
"md c #999c9a",
"mf c #999e9b",
".r c #9a8976",
".j c #9a8977",
".l c #9a8a78",
"ad c #9a9688",
"aL c #9a978c",
".e c #9b8f7e",
".o c #9b9183",
"cJ c #9b9689",
".n c #9c907e",
".f c #9c9283",
"aa c #9c9688",
"bJ c #9c998c",
"c# c #9c998f",
"cH c #9c9a8b",
".C c #9c9d95",
"#G c #9d9a8b",
".x c #9e9283",
".a c #9e998c",
"ab c #9e9a8c",
".g c #a09080",
"#c c #a09c92",
".p c #a19181",
".b c #a19282",
"a# c #a19c8d",
"bM c #a19e91",
"c0 c #a1a096",
"ba c #a1a198",
".D c #a1a29a",
"Qt c #a29b8d",
"en c #a29ea6",
"c2 c #a2a197",
".B c #a2a39b",
"kP c #a2a6a1",
"c3 c #a3a39b",
"ga c #a3a4a0",
"mg c #a3a8a3",
"#b c #a4a296",
"c8 c #a4a297",
".F c #a4a59d",
"jW c #a4a6a5",
".v c #a59d8e",
"e1 c #a5b3df",
"l# c #a6aba6",
"ca c #a7a495",
"bH c #a7a598",
"c7 c #a7a59b",
"ce c #a8a495",
"#F c #a8a595",
"bI c #a8a698",
"iM c #a8a9a9",
".E c #a8aaa2",
".# c #a9a093",
"#E c #a9a697",
"c5 c #a9a79d",
"ky c #a9aca9",
"ac c #aaa799",
"#a c #aaa79b",
"c6 c #aaaa9f",
".A c #aaaca5",
"ja c #aaacac",
"kd c #aaaeae",
".d c #ab9e8d",
"cG c #aba99b",
"dX c #acacb4",
"bO c #ada99c",
"cc c #adab9c",
".9 c #adaba1",
"#D c #aeaa9c",
"#C c #aeab9e",
"c1 c #aeafa6",
"me c #aeb2ac",
"cB c #afaea5",
"dA c #afafa2",
"lR c #afb3ad",
"bN c #b0ada1",
"dz c #b0afa2",
"## c #b1aea3",
"dD c #b2b1a3",
"cd c #b4b2a5",
"dE c #b4b3a7",
"c4 c #b4b3a9",
"dG c #b4b4a8",
".z c #b4b7b1",
"dy c #b5b5aa",
"dF c #b7b8ad",
"#. c #b8b7ae",
"aG c #b9bab1",
"a. c #bbbcb2",
"b8 c #bcbdb5",
"dC c #bdbeb2",
"cZ c #c0c2bb",
"ep c #c0c5d2",
"#B c #c4c6bd",
"ib c #c5c6cd",
".8 c #c5c7bf",
"bG c #c5c7c0",
"fF c #c9c7ce",
"eT c #c9cbce",
"g# c #cacbda",
"hq c #cfcfd7",
"eu c #d0d2e1",
"h# c #d1d0d7",
".7 c #d1d4ce",
"eQ c #d2d1d4",
"dV c #d2d3e2",
"e4 c #d4d3d7",
"h2 c #d8d7df",
"dU c #dcdae0",
"fm c #dcdce0",
"gV c #dcdce1",
"in c #dfdee2",
"gz c #e1e1e5",
"fV c #e3e3e8",
"g3 c #e3e3eb",
"hi c #e4e4eb",
"hC c #e6e5ec",
"go c #e7e7ed",
"dS c #e9e8ea",
"fE c #f0f1f5",
"dT c #f6f8ef",
"eo c #f9f9f8",
"ev c #f9f9f9",
"e3 c #fbfbfb",
"dW c #fbfff5",
"e2 c #fcfcfe",
"eS c #fffefd",
"eR c #ffffff",
"Qt.#.a.b.c.d.e.f.g.h.i.j.k.l.m.d.n.o.p.h.q.r.s.t.u.v.n.w.x.y.z.A.B.C.D.E.F.G.H.I",
".J.K.L.M.N.O.P.Q.R.S.T.U.V.W.X.Y.Z.Q.R.0.T.R.V.1.2.3.4.5.R.6.7.8.9#.###a#b#c#d#e",
"#f#g#h#i#j#k#l#m#n#o#p#q#r#s#t#u#l#m#v#o#p#q#w#s#x#y#z#m#v#A#B#C#D#E#F#G#H#I#J#K",
"#L#M#N#O#P#Q#R#S#T#U#V#W#X#Y#Z#0#R#1#2#3#4#W#X#5#6#7#R#1#8#9a.a#aaabacadaeafagah",
"aiajakalamanaoapaqarasatauauavawaoapalaxayazauauaAaBaCaDaEaFaGaHaIaJaKaLaMaNaOaP",
"aQaRaSaTaUaVaWaXaYaZa0a1a2a3a4aVaWa5aYa6a7a1a2a3a8aVaWa9b.b#babbbcbdbebfbgbgbhbi",
"bjbkblbmbnbobp.Lbqbrbs.Qbt.0bubvbpbwbxbybz.QbtbAbBbCbDbwbEbFbGbHbIbJbKbHbLbMbNbO",
"bPbQbRbSbnbTbUbVbWbXbYbZbRb0b1bTbUb2bWb3bYb4b5bSb1bTbUb6bWb7b8b9adc.c#cacbcccdce",
"cfcgchcicjcgckclcmcncocgcpcqcrcsckclctcucocvcpcwcxcyczclctcAcBcCcDcEcFcGcHcIcJ#E",
"cKcLaoaucMcNcOcPaucQaBcRcScScTaocLcUaucQcVcRcScScTcWcLcXcucYcZc0c1c2c3c4c5c6c7c8",
"c9d.d#dadbdcdddedfdgdhdidjdkdldmdndodpdgdhdqdrdsdtdudddvdwdxdydzdzdAdBdCdDdEdFdG",
"dHdIdJdKdLbsdMdNdOdPdQdRdSdTdUdVdWdXdYdZd0d1d2d3d4d5d6dNd7d8d9#f#u.We.e#eaebec.S",
"edeeefegeheiejekelemeneoepeqereseteuevewexeyezeAeBeCeDeEbUbt#peF#w#seGeHeI#m#v#o",
"eJeKeLeMeNeOePeQeReSeTeUeVeWeXereYeZe0e1e2e3e4e5e6e7e8e9f.f##Vfafbfcfdfefffg#2fh",
"fiazfjfkflfmfnfofpfqfrfsftfufvfwfxfyfzfAfBfCfDfEfFfGfHfIfJfKfLfMcSfNfOawfPaEalfQ",
"fRfSfTfUfVfWfXfYfZf0ftf1f2f3f4f5f6f6f7fyfyf8f9g.g#gagbcfdLgcgdgegedggfggghgigjcP",
"gkglgmgngofXgpgqgrgsgtf3f3f3ftguf6f6gvfyfyfygwgxgygzgAgBbxgCd5ebgDbAgEbCgFbwbxgG",
"gHbQgIgJgogKgLgMgNgOgPf3f3f3gQgRf6f6gSgvgTgTgTgTgUgVgWb6bWb3bY#ob5gXgYbTbUb6bW#Y",
"gZg0g1g2g3fXg4gMg5g6gQf1gsf3gQg7f6f6f6f6g8gTgTg9h.h#hahbhccucocghdcwhecghfe9hccu",
"hgauaDhhhihjhkgMhlhmhnhof3f3gQhpf6f6gSf6g8gTgTgTh.hqhrcPhshtaBhuhvaohwaphxcPhshy",
"hzhAhBhhhChDhEhFhGhHhIhJhKhLfteYf6f6f6hMhNgTgTgTgxhqhOhPhQhRhShThUhVhWhXhYhZhQhR",
"h0h1dJg2h2h3h4hFh5h6h7hmh8hKfth9f6f6f6i.i#gTgTgTiaibicidieifd0igihiiijikdMidieif",
"ileeimgJinioipiqh5irisitiuivfth9gSf6iwg9ixiygTgTiziAiBiCbUbtiDiEiFiGiH#8iIiCiJbt",
"eJd6iKiLiMiNiOiPh5h5h6iQh7iRiRh9iSiTiUiViWiWiXiYiZi0i1cpi2i3ffi4i5i6i7i8e9cpf.i9",
"j.fM#6fJj#jajbjcjdh5hGiQiQjeiRjfiSgvjgjhiWjhjijjjkjlfjjmjnfMazfNjojpjqjrcTjmcMfM",
"jsjtjujvjwjxjyfYjzjAh5jBjCjCjDjEf6iWiWiWiWjFjGjHjIjJjKjL#xjM#0jNjOhRjPjQjKcfjRjM",
".WjSjTjUdPjVjWjXjYjZh5h5h5j0j1j2iWj3iWj4j5j6j7j8j9bCgF.Mk.gCk#kabm.0gEbC.R.MbqgG",
"gHkbb5bSbnbTkckdkekfkgkhkikjkjkkiWj3j4iyklkmknkokpbTbUb6kqkrbYksb5bSgYbTktb6kqb3",
"kue8fgkvkwe8kxkykzkAkBkCkjkjkjj3iWiWkDkEkFkGkHkIcxcl#scphckJ#0e8fgcwi3clkKcphchs",
"kLcSkMaokNapcukOkPkQkRkSkTkjj1j3iWkUkVkWkXkYjlaoazaDjokZcNk0anauk1k2azaDjokZcNk3",
"k4k5k6k7k8fSa3k9l.l#kekflakTj1iWiylblcldlelflglhlijta3geljlk.Xghlllhlmlndqloljlk",
"lplqlrlsdLk#d2ltlulvlwlxlylzlAj6kVkElBlClDlElFlGdLikkwltlHbnd0iglFlGijlIkwltlHbn",
"illJlKg1ehlLlMlNlOlPlQlRlSlTlUlVlclWlXlYlZiEl0l1l2l3l4iCbUl5iDiEiFl1l6l7l4iClOl8",
"lHd6eLeMl9m.m#m#macrmbmcmdmemfmgmhmimjmkmlmmi5i6mnm.e9m#i2i9mommi5i6i7m.mpm#mqmr",
"mseB#ZcMa6jrmtaqkNfQhcmumvmwmxmymzmAmBfQmChvapmDmEmFkNeNmGfQfMmHapmDmImFkNeNmGfQ",
"mJgiaVmKmLmMmNmOmPmQmRmSjvmTmUmVmWlhk7fOmXdamYmZm0mMm1mOk7m2m3m4m5mZm6mMm1mOm7m8",
"m9n.#ln#nanbncmrndnenfikgDngnhnbd0mrndnenfikgDninj.Vd0d1ndfjnfiknkninjnlnmd1ndfj",
"#jd2nnno#MgIkqnp#OnqnrnsntnunvgIkqnpnwnqnxnsntnunvgInynpnwnznxnsnAnonv#snBnCnwnz",
"nDcNapnEnFnGakapnHnInJnKnGnLnMnGakapcPcQnNnKnGnEnMnGakk1cPcQnOeNnGnEnPnGakk1cPnQ",
"nRnSnTnTnUnVnWnXnYnZn0n1n2n3n4nVnWnXnYn5n6n1n2n3n4n7nWnXnYn8n6n1n2nWn4n7n3nXnYn9"};
