/* XPM */
static char *dummy[]={
"40 40 3 1",
"a c #00a15e",
". c #32a67a",
"# c #67aa97",
"...............................#..a.....",
"....a.......a.......a.......a...........",
".a.......a...#...a.......a...#...a......",
".....a..##...........a..##...........a..",
".......a##.............a##.............a",
"...............#...............#........",
"..##..............##..............##....",
"..##...........a..##...........a..##....",
".....a.#..a..........a.#..a..........a.#",
"........................................",
".a...#...a.......a...#...a.......a...#..",
"##...........a..##...........a..##......",
"##.............a##.............a##......",
".......#...............#...............#",
"..........##..............##............",
".......a..##...........a..##...........a",
"..a..........a.#..a..........a.#..a.....",
"........................................",
".a.......a...#...a.......a...#...a......",
".....a..##...........a..##...........a..",
".......a##.............a##.............a",
"...............#...............#........",
"..##..............##..............##....",
"..##...........a..##...........a..##....",
".....a.#..a..........a.#..a..........a.#",
"........................................",
".a...#...a.......a...#...a.......a...#..",
"##...........a..##...........a..##......",
"##.............a##.............a##......",
".......#...............#...............#",
"..........##..............##............",
".......a..##...........a..##...........a",
"..a..........a.#..a..........a.#..a.....",
"........................................",
".a.......a...#...a.......a...#...a......",
".....a..##...........a..##...........a..",
".......a##.............a##.............a",
"...............#...............#........",
"..##..............##..............##....",
"..##...........a..##...........a..##...."};
