/* XPM */
static char *dummy[]={
"40 40 313 2",
".j c #00a15e",
"c0 c #322032",
"Qt c #32a67a",
"#v c #333028",
"cD c #353229",
"cM c #362735",
"cZ c #362e35",
"cy c #363133",
"#0 c #36332b",
"#B c #38352d",
"#y c #39362d",
".M c #393730",
".U c #3a372f",
"#A c #3e3c32",
"#C c #3f3c33",
"c1 c #402641",
"cE c #40373c",
"cT c #413241",
".h c #424036",
".Z c #424037",
".G c #444238",
"#i c #444239",
"#u c #44423a",
".i c #45433b",
".2 c #47433c",
"#R c #47443c",
"#T c #47443e",
".z c #47453d",
"cr c #49314a",
"#z c #49483b",
"#b c #49483f",
"#k c #4a4740",
".I c #4a4741",
"## c #4a4840",
".N c #4b4a42",
".L c #4c493f",
"bK c #4c4941",
"#. c #4c4a41",
"#p c #4c4b44",
".F c #4d4a43",
"cR c #4e0563",
".4 c #4e4d43",
".s c #4f4d44",
"#I c #4f4d46",
".O c #4f4e46",
"ce c #500665",
".v c #504d46",
".J c #504e47",
".D c #514e46",
"#U c #524f48",
"#F c #525047",
"#D c #525048",
"bY c #53454f",
"#W c #534e4b",
".c c #53514a",
"cH c #540f68",
".E c #545149",
".a c #54524b",
"cL c #54534c",
"cn c #550a6c",
"aH c #550a70",
"ck c #554354",
".t c #55534a",
".X c #55544d",
"cQ c #560b6f",
"aX c #560b71",
"bO c #560b72",
".A c #56544c",
".5 c #56554b",
"bt c #570b73",
".Y c #57554e",
"#t c #575649",
"#n c #57564b",
"aG c #580c72",
"bb c #580d73",
".P c #58554f",
".H c #58574f",
"bi c #590c75",
"bC c #590d75",
".# c #595650",
"bU c #5a0d76",
"#s c #5a5850",
"#O c #5a5852",
"bD c #5b0d77",
".y c #5b5851",
"#c c #5b5a51",
"cu c #5c0e74",
".R c #5c5a54",
".3 c #5c5c53",
"aR c #5e0e7d",
"#3 c #5e5559",
"bL c #5f4e5b",
"aD c #5f4f5b",
"#9 c #5f535a",
"a. c #5f535c",
".C c #5f5e56",
".b c #5f5e57",
"cf c #600f7c",
"aP c #604f5d",
"aC c #605e5b",
"co c #610f7d",
".g c #615f58",
".k c #615f59",
"cC c #615f5a",
"#o c #61605b",
"cv c #62107f",
"cI c #62117d",
"aF c #621a79",
"aW c #625060",
".r c #626059",
"c. c #63107f",
"bV c #631180",
"aw c #631481",
"ct c #632375",
"a5 c #635161",
"ag c #635a5e",
"cJ c #641081",
"b# c #645262",
"cB c #651183",
"bu c #651286",
"#X c #655662",
"#l c #65635b",
".l c #65635f",
"#r c #65645a",
"c2 c #665766",
"af c #66635c",
"#a c #66645c",
".B c #66655d",
".d c #66655f",
"am c #671486",
"a# c #675964",
"#S c #67665e",
".u c #67aa97",
"aY c #68138b",
"cU c #685867",
"#P c #68665e",
".e c #68665f",
"#2 c #686660",
".o c #696761",
"#V c #696860",
".S c #696863",
"ad c #6a138c",
"cz c #6a5d69",
"aO c #6a6762",
"b6 c #6a6863",
".w c #6a6962",
"#L c #6a6964",
"cY c #6a6a66",
"bG c #6b168d",
"#x c #6b6964",
"aq c #6b6966",
"#h c #6b6a66",
"c# c #6c158f",
"#Y c #6c5d69",
".p c #6c6a63",
"#j c #6c6b67",
"b1 c #6d158e",
"b7 c #6d5e6c",
"#g c #6d6d69",
"#4 c #6e5e6b",
".K c #6e6d65",
"b9 c #6f2888",
"#m c #6f6d63",
"b. c #6f6d64",
"cq c #6f6d66",
"#q c #6f6e66",
"bP c #701694",
"cg c #701695",
"bj c #701797",
"#Q c #706f65",
"cx c #706f67",
"bQ c #711794",
"b3 c #711795",
"bw c #711796",
"#M c #716f68",
".6 c #717069",
"#1 c #71706a",
"b2 c #721798",
"cp c #72179b",
"bF c #721897",
"cK c #73179b",
"b4 c #73189a",
"bd c #741899",
"bl c #74199b",
"cP c #743c87",
".x c #74736c",
"bW c #75199c",
"bv c #75199d",
"#w c #75746c",
"a7 c #76189f",
"ch c #76199e",
".Q c #77746f",
"bm c #7818a1",
"bc c #7819a2",
"bk c #781aa1",
"bS c #786b77",
".f c #787670",
"#E c #787672",
"bH c #7918a5",
"ca c #7919a2",
"bN c #793d8f",
"a4 c #797671",
"cS c #797973",
"ci c #7a19a3",
".7 c #7a7a74",
"ae c #7b14ac",
"bE c #7b1aa4",
"ar c #7b6e79",
"#K c #7b7973",
"#J c #7b7a72",
"#f c #7b7a75",
".V c #7b7a76",
".9 c #7c7b76",
"cw c #7d19ab",
"aZ c #7d1ba9",
".q c #7d7c75",
"aS c #7e1bab",
"b0 c #7e4e90",
"bz c #7e7c77",
"#8 c #7e7c7a",
"#N c #7e7d76",
".0 c #7e7d77",
"a8 c #801baf",
"cb c #811ab0",
"cj c #811ab1",
"bx c #811ab2",
"aI c #8217b5",
"cF c #827d83",
"bA c #82807b",
".W c #82827e",
"ax c #8316b5",
"av c #835094",
"an c #8517ba",
".1 c #86857f",
"bX c #8719bc",
"bn c #881ac1",
"#Z c #887b87",
"#d c #898883",
"be c #8a19c2",
"a9 c #8b19c3",
"a0 c #8b1ac2",
"b5 c #8c19c3",
"bI c #8c19c5",
"#e c #8c8b86",
"bR c #8d19c7",
"ay c #8d1ac9",
"cN c #8d888d",
".n c #8d8c88",
"by c #8e1ac8",
"bf c #8e1aca",
"bo c #8e1acb",
"#H c #8e8d89",
"bJ c #8f1acc",
".m c #8f8f8b",
"aJ c #901acc",
"aB c #901bcf",
"#G c #90908c",
"ap c #911acd",
"aA c #931bd0",
"a1 c #931bd1",
"bp c #931bd2",
"ah c #938c92",
"cG c #939099",
"bg c #941bd6",
"br c #949491",
"ao c #951bd2",
"aN c #951bd4",
".8 c #959593",
"bq c #961bd6",
"az c #961cd7",
"a3 c #961cd8",
"cc c #969196",
".T c #969693",
"aV c #981cd9",
"aT c #981cda",
"aL c #981ddb",
"aK c #991cdb",
"a2 c #991ddc",
"cV c #999b9c",
"cX c #999c9e",
"aU c #9a1ddd",
"bZ c #9a979a",
"aM c #9b1dde",
"au c #9c77a7",
"cs c #a1a6a5",
"cm c #a48caf",
"b8 c #a4a5a6",
"aa c #a59da3",
"cA c #a6abab",
"bM c #a8a8a9",
"cl c #a9acac",
"bT c #aaaaac",
"cd c #aaaaae",
"cW c #acb2b0",
"cO c #adb3b1",
"at c #af99b3",
"ac c #ccc0d2",
"al c #ccc9ce",
"ai c #d4d1d3",
"bs c #dfd7df",
"#7 c #e0dadf",
"as c #e0dce0",
"bB c #e2dee1",
"aE c #e8e3e8",
"a6 c #eae3eb",
"ba c #eae4eb",
"#5 c #eae8e9",
"bh c #ece5ec",
"aQ c #ede7ed",
"#6 c #eff8f0",
"ab c #f8f9f8",
"ak c #fefffd",
"aj c #ffffff",
"QtQtQtQtQtQtQtQtQtQtQtQtQtQtQtQtQtQtQtQtQtQtQtQtQtQtQtQtQtQt.#.a.b.c.d.e.f.g.h.i",
"QtQtQtQt.jQtQtQtQtQtQtQt.jQtQtQtQtQtQtQt.jQtQtQtQtQtQtQt.jQt.k.l.m.n.o.p.q.r.s.t",
"Qt.jQtQtQtQtQtQtQt.jQtQtQt.uQtQtQt.jQtQtQtQtQtQtQt.jQtQtQt.u.v.w.x.y.z.A.B.C.D.E",
"QtQtQtQtQt.jQtQt.u.uQtQtQtQtQtQtQtQtQtQtQt.jQtQt.u.uQtQtQtQt.F.G.H.I.#.w.J.K.L.E",
"QtQtQtQtQtQtQt.j.u.uQtQtQtQtQtQtQtQtQtQtQtQtQt.j.u.uQtQtQtQt.M.N.O.P.Q.R.S.T.l.U",
"QtQtQtQtQtQtQtQtQtQtQtQtQtQtQt.uQtQtQtQtQtQtQtQtQtQtQtQtQtQt.V.W.#.X.Y.Z.0.1.a.2",
"QtQt.u.uQtQtQtQtQtQtQtQtQtQtQtQtQtQt.u.uQtQtQtQtQtQtQtQtQtQt.3.4.5.6.7.8.9#.###a",
"QtQt.u.uQtQtQtQtQtQtQtQtQtQtQt.jQtQt.u.uQtQtQtQtQtQtQtQtQtQt#b#c#d#e#f#g#h#i#j#k",
"QtQtQtQtQt.jQt.uQtQt.jQtQtQtQtQtQtQtQtQtQt.jQt.uQtQt.jQtQtQt.G#l.6#m#n#o#p#o#q#r",
"QtQtQtQtQtQtQtQtQtQtQtQtQtQtQtQtQtQtQtQtQtQtQtQtQtQtQtQtQtQt.Z.K#s#t.h#u#v.p#w#x",
"Qt.jQtQtQt.uQtQtQt.jQtQtQtQtQtQtQt.jQtQt.#.a.b.c.d.e.f.g.h.i#y#u#i#z#A#B#C#D.R#E",
".u.uQtQtQtQtQtQtQtQtQtQtQt.jQtQt.u.uQtQt.k.l.m.n.o.p.q.r.s.t.Z#F#G#H#I.J#J#K.P#L",
".u.uQtQtQtQtQtQtQtQtQtQtQtQtQt.j.u.uQtQt.v.w.x.y.z.A.B.C.D.E.a#M#N#O#C#F#P#Q.2#.",
"QtQtQtQtQtQtQt.uQtQtQtQtQtQtQtQtQtQtQtQt.F.G.H.I.#.w.J.K.L.E#R.H#S#T#U#V#W#X#Y#Z",
"QtQtQtQtQtQtQtQtQtQt.u.uQtQtQtQtQtQtQtQt.M.N.O.P.Q.R.S.T.l.U#0#1#V#O#2#3#4#5#6#7",
"QtQtQtQtQtQtQt.jQtQt.u.uQtQtQtQtQtQtQtQt.V.W.#.X.Y.Z.0.1.a.2.V#8#9a.a#aaabacadae",
"QtQt.jQtQtQtQtQtQtQtQtQtQt.jQt.uQtQt.jQt.3.4.5.6.7.8.9#.##afagahaiajakalamanaoap",
"QtQtQtQtQtQtQtQtQtQtQtQtQtQtQtQtQtQtQtQt#b#c#d#e#f#g#h#iaqarasatauavawaxayazaAaB",
"Qt.jQtQtQtQtQtQtQt.jQtQtQt.uQtQtQt.jQtQt.G#l.6#m#n#o#paCaDaEaFaGaHaIaJazaKaLaMaN",
"QtQtQtQtQt.jQtQt.u.uQtQtQtQtQtQtQtQtQtQt.Z.K#s#t.h#u#vaOaPaQaGaRaSaTaUaVaMaMaMaz",
"QtQtQtQtQtQtQt.j.u.u.#.a.b.c.d.e.f.g.h.i#y#u#i#z#A#B#C#UaWaQaXaYaZa0a1a2aMaMaMa3",
"QtQtQtQtQtQtQtQtQtQt.k.l.m.n.o.p.q.r.s.t.Z#F#G#H#I.J#Ja4a5a6aGa7aZa8a9a3aKaUaMa3",
"QtQt.u.uQtQtQtQtQtQt.v.w.x.y.z.A.B.C.D.E.a#M#N#O#C#F#Pb.b#babbbcaZbdbebfbgaMaMa3",
"QtQt.u.uQtQtQtQtQtQt.F.G.H.I.#.w.J.K.L.E#R.H#S#T#U#V.J#qb#bhbibjbkblbmbnbobpbqaz",
"QtQtQtQtQt.jQt.uQtQt.M.N.O.P.Q.R.S.T.l.U#0#1#V#O#2#O.Sbra5bsbtbubkbvbwbxbebybpaz",
"QtQtQtQtQtQtQtQtQtQt.V.W.#.X.Y.Z.0.1.a.2.V.W.#.X.Y.ZbzbAaWbBbCbDbEbvbFbGbHbIbJaz",
"Qt.jQtQtQt.uQtQtQt.j.3.4.5.6.7.8.9#.###a.3.4.5.6.7.8#fbKbLbMbNbObPbvbvbwbQbxbRbR",
".u.uQtQtQtQtQtQtQtQt#b#c#d#e#f#g#h#i#j#k#b#c#d#e#f#g#h#i#hbSbTbUbVbWbvblbQbQbXbR",
".u.uQtQtQtQtQtQtQtQt.G#l.6#m#n#o#p#o#q#r.G#l.6#m#n#o#p#o#qbYbZb0aHb1b2bvb3b4b4b5",
"QtQtQtQtQtQtQt.uQtQt.Z.K#s#t.h#u#v.p#w#x.Z.K#s#t.h#u#v.p#wb6b7b8b9c.c#bvbvbvcacb",
".#.a.b.c.d.e.f.g.h.i#y#u#i#z#A#B#C#D.R#E#y#u#i#z#A#B#C#D.R#E#ycccdcecfcgchcicjcj",
".k.l.m.n.o.p.q.r.s.t.Z#F#G#H#I.J#J#K.#.S.Z#F#G#H#I.J#J#K.#.S.Zckclcmcncocpcjcjcj",
".v.w.x.y.z.A.B.C.D.E.a#M#N#O#C#F#P#Q.2#..a#M#N#O#C#F#P#Q.2#..acqcrcsctcucvcwcjcb",
".F.G.H.I.#.w.J.K.L.E#R.H#S#T#U#V.Jcx#y#i#R.H#S#T#U#V.Jcx#y#i#R.HcyczcAcecfcBcwcb",
".M.N.O.P.Q.R.S.T.l.U#0#1#V#O#2#O.S.TcCcD#0#1#V#O#2#O.S.TcCcD#0#1#VcEcFcGcHcIcJcK",
".V.W.#.X.Y.Z.0.1.a.2.V.W.#.X.Y.Z.0.1.a.2.V.W.#.X.Y.Z.0.1.a.2.V.W.#cLcMcNcOcPcQcR",
".3.4.5.6.7.8.9#.###a.3.4.5.6.7.8.9#.###a.3.4.5.6.7.8.9#.###a.3.4.5.6cScTcUcVcWcX",
"#b#c#d#e#f#g#h#i#j#k#b#c#d#e#f#g#h#i#j#k#b#c#d#e#f#g#h#i#j#k#b#c#d#e#fcYcZc0c1c2",
".G#l.6#m#n#o#p#o#q#r.G#l.6#m#n#o#p#o#q#r.G#l.6#m#n#o#p#o#q#r.G#l.6#m#n#o#p#o#q#r",
".Z.K#s#t.h#u#v.p#w#x.Z.K#s#t.h#u#v.p#w#x.Z.K#s#t.h#u#v.p#w#x.Z.K#s#t.h#u#v.p#w#x"};
