/* XPM */
static char *dummy[]={
"40 40 291 2",
".k c #00a15e",
".h c #29231d",
".C c #2a251f",
".t c #2a2620",
".S c #2f2c26",
"#4 c #302b25",
"#C c #302b26",
".K c #302c26",
".2 c #312d27",
"## c #312d28",
".i c #32a67a",
"ai c #332f28",
"#z c #333028",
"b4 c #333029",
"c. c #34291c",
"#J c #36332c",
"bC c #372b1d",
".J c #37342a",
"#. c #38342c",
".B c #38352b",
".L c #38352d",
"bY c #392b1e",
"#h c #39352e",
"#s c #3a372f",
"#F c #3b3930",
"bJ c #3c2f20",
"cF c #3c3224",
".s c #3c3a2f",
"#I c #3d3a32",
"c# c #3d3b33",
"bs c #3e3122",
"#H c #3e3c31",
".E c #3e3c33",
"#y c #3e3c34",
".D c #3f3b33",
"#3 c #3f3c32",
"cB c #403526",
"cf c #403e34",
"cx c #403f36",
"bk c #413426",
"bc c #413526",
"#j c #413d38",
"cm c #413e34",
"#A c #413e35",
".x c #413e36",
".Y c #414037",
"b3 c #423628",
"#x c #424036",
"ck c #433628",
"#Q c #434138",
"cq c #443829",
".u c #444138",
".w c #444239",
"cw c #45392b",
"#G c #464539",
"be c #47433d",
"b# c #483d2f",
"bK c #48443b",
".g c #48453b",
"bP c #4a4034",
"#b c #4a463c",
"#0 c #4a463f",
".b c #4a483a",
"#R c #4a483e",
"aW c #4b4a40",
"a8 c #4c4335",
".1 c #4c4941",
"#p c #4c4b44",
".4 c #4d4a40",
"bm c #4d4a43",
"cn c #4d4c43",
"a2 c #4e4639",
".a c #4e4c3e",
".F c #4e4c42",
"#N c #4e4d45",
"aV c #4f473a",
"#t c #504e45",
".H c #504e46",
"#E c #504e47",
"#8 c #514f3e",
"#w c #514f43",
"#1 c #514f48",
"#v c #515046",
"#V c #525047",
"ae c #534e40",
".n c #545247",
".y c #55534a",
".G c #55534c",
".W c #55544d",
"#q c #56534e",
".# c #565449",
"aO c #56544a",
".X c #56554e",
"aN c #575145",
"#l c #57554b",
"ah c #58544a",
".r c #58564d",
"cE c #595145",
"#B c #59574e",
".v c #59584e",
".V c #595851",
"#o c #595853",
"bH c #5a1c03",
".o c #5a5850",
"bq c #5b2710",
"#U c #5b5952",
"bd c #5b5a51",
"#i c #5b5a55",
".c c #5c5a4f",
"#n c #5c5b51",
"bi c #5d2c10",
"bB c #5d574b",
"#r c #5d5b53",
".A c #5d5c52",
"bW c #5e2202",
"aJ c #5e3116",
"aT c #5e3217",
".m c #5e5c53",
"aS c #602d10",
"b9 c #605950",
"a0 c #612d10",
"as c #615b4f",
"a6 c #622d10",
".f c #625f57",
".e c #626057",
".R c #62605c",
"#9 c #62615a",
"b1 c #632304",
"bl c #63625a",
"bQ c #646257",
".P c #64625c",
".z c #64635b",
"aE c #656054",
"#Z c #656155",
".l c #65635a",
"#c c #65645a",
"#k c #666459",
"ch c #672607",
"#a c #67665b",
".j c #67aa97",
"bt c #682e11",
"aY c #682f11",
"aI c #683114",
"#K c #68665e",
".M c #686660",
"cr c #686762",
"aG c #692f11",
"cd c #694c3b",
"a. c #696863",
"b7 c #6a2808",
"ba c #6a2f11",
"af c #6a665b",
".p c #6a6862",
"b6 c #6b2909",
"bn c #6b2f10",
"aQ c #6b2f11",
"cc c #6c280a",
"b0 c #6c2909",
"cb c #6c2a0a",
"bg c #6c2f11",
"aA c #6c4228",
"#S c #6c6a64",
"#W c #6c6b60",
".5 c #6c6b63",
"cs c #6c6b65",
"cg c #6d2a0a",
"bu c #6d2f10",
"#u c #6d6b62",
"#g c #6d6c68",
"bV c #6e2a0a",
"aH c #6e3010",
"av c #6e3011",
"ay c #6e3112",
"al c #6e3114",
"az c #6e3519",
"ar c #6e695d",
".I c #6e6d65",
"cC c #6e6d67",
"ct c #6f290a",
"bb c #6f2c0c",
"aa c #6f361a",
"cl c #6f6e66",
"bN c #702a0a",
"a4 c #702e0e",
"aR c #702f0f",
"#2 c #706f67",
"bM c #712c0c",
"aZ c #712e0e",
"bv c #712f0f",
"aw c #713010",
"ak c #713011",
"b8 c #71574a",
"ce c #716b66",
"cD c #716c65",
"cA c #716c66",
"ag c #716d63",
"at c #717064",
".7 c #71706a",
"bz c #722e0e",
"a5 c #722f0f",
"ax c #723010",
"aX c #723012",
"bU c #732d0d",
"a9 c #733011",
"bf c #733012",
"ci c #735042",
"cj c #736f69",
".d c #737169",
"bD c #743112",
".O c #74736d",
"by c #752e0e",
"bh c #752f0f",
"bL c #753112",
"co c #754833",
"#f c #757571",
"bp c #762e0e",
"bo c #773010",
"cu c #775041",
"cp c #77736e",
"#P c #77756f",
".3 c #77776c",
"bI c #77777c",
"b5 c #782f0f",
"ca c #792f0f",
"a3 c #793112",
"Qt c #79776f",
"#T c #797870",
".6 c #797872",
".U c #7a7a77",
"#m c #7b7971",
"#O c #7b7a72",
".9 c #7b7b76",
"bG c #7c2e0d",
"aK c #7c563f",
"bw c #7d3212",
"cv c #7d7876",
"bF c #7e3212",
".Z c #7e7d77",
"bE c #7f3313",
"aP c #803212",
"bT c #803313",
"am c #804d36",
"bx c #813313",
".T c #81807d",
"bS c #823313",
".q c #828179",
"bZ c #833313",
"bR c #843414",
"#D c #84827d",
"bO c #857b7d",
".N c #85837f",
"bX c #868d98",
"a# c #873212",
"b2 c #878188",
".0 c #878680",
"cG c #888883",
"bA c #8a7b79",
".8 c #8d8d8b",
"cz c #8e8a89",
"#M c #8e8d89",
"#e c #8f8e8b",
"#Y c #918b83",
"#L c #91908d",
"br c #948f86",
"aF c #953413",
"#X c #959089",
".Q c #969693",
"ad c #97948c",
"#d c #979691",
"au c #9b3513",
"aM c #a0a1a4",
"cy c #a5a3a8",
"aB c #a68979",
"aj c #ac3714",
"#7 c #b4b0ac",
"bj c #cdc8c5",
"aD c #ceccc7",
"b. c #d7d3cf",
"a7 c #d7d4d0",
"aq c #d7d6d3",
"aL c #dad0ca",
"an c #dfb2a5",
"ab c #e1d6d0",
"a1 c #e1dedc",
"#5 c #e2d8d2",
"aU c #e5e3e1",
"aC c #f5f1f0",
"#6 c #f5f6ff",
"ac c #f9f9f9",
"ap c #fbfbfb",
"ao c #fefdfc",
"Qt.#.a.b.c.d.e.f.g.h.i.i.i.i.i.i.i.i.i.i.i.i.i.i.i.i.i.i.i.i.i.j.i.i.k.i.i.i.i.i",
".l.m.e.n.o.p.q.r.s.t.i.i.k.i.i.i.i.i.i.i.k.i.i.i.i.i.i.i.k.i.i.i.i.i.i.i.i.i.i.i",
".u.v.m.w.x.y.z.A.B.C.i.i.i.j.i.i.i.k.i.i.i.i.i.i.i.k.i.i.i.j.i.i.i.k.i.i.i.i.i.i",
".D.E.F.x.G.p.H.I.J.K.i.i.i.i.i.i.i.i.i.i.i.k.i.i.j.j.i.i.i.i.i.i.i.i.i.i.i.k.i.i",
".L.M.M.N.O.P.p.Q.R.S.i.i.i.i.i.i.i.i.i.i.i.i.i.k.j.j.i.i.i.i.i.i.i.i.i.i.i.i.i.k",
".T.U.V.W.X.Y.Z.0.1.2.i.i.i.i.i.j.i.i.i.i.i.i.i.i.i.i.i.i.i.i.i.j.i.i.i.i.i.i.i.i",
".3.4.5.6.7.8.9.1#.##.i.i.i.i.i.i.i.i.j.j.i.i.i.i.i.i.i.i.i.i.i.i.i.i.j.j.i.i.i.i",
"#a#b#c#d#e#f#g#h#i#j.i.i.i.i.i.k.i.i.j.j.i.i.i.i.i.i.i.i.i.i.i.k.i.i.j.j.i.i.i.i",
"#k.F#l#m#n#o#p#q#r#s.k.i.i.i.i.i.i.i.i.i.i.k.i.j.i.i.k.i.i.i.i.i.i.i.i.i.i.k.i.j",
"#t#u#v#w#x#y#z#A#B#C.i.i.i.i.i.i.i.i.i.i.i.i.i.i.i.i.i.i.i.i.i.i.i.i.i.i.i.i.i.i",
"#D#E#F#G#H#..E#I.w#JQt.#.a.b.c.d.e.f.g.h.i.j.i.i.i.k.i.i.i.i.i.i.i.k.i.i.i.j.i.i",
"#K.R#L#M#N.H#O#P#Q#y.l.m.e.n.o.p.q.r.s.t.i.i.i.i.i.i.i.i.i.k.i.i.j.j.i.i.i.i.i.i",
"#R#S#T#U#F#V#K#W#x#s.u.v.m.w.x.y.z.A.B.C.i.i.i.i.i.i.i.i.i.i.i.k.j.j.i.i.i.i.i.i",
"#X#Y#Z#0#1.p#E#2#3#4.D.E.F.x.G.p.H.I.J.K.i.i.i.j.i.i.i.i.i.i.i.i.i.i.i.i.i.i.i.j",
"#5#6#7#8#w#9a..Q.R.K.L.M.M.N.O.P.p.Q.R.S.i.i.i.i.i.i.j.j.i.i.i.i.i.i.i.i.i.i.i.i",
"a#aaabacadaeafagahai.T.U.V.W.X.Y.Z.0.1.2.i.i.i.k.i.i.j.j.i.i.i.i.i.i.i.i.i.i.i.k",
"ajakalamanaoapaqarasat.4.5.6.7.8.9.1#.##.i.i.i.i.i.i.i.i.i.k.i.j.i.i.k.i.i.i.i.i",
"auavawaxayazaAaBaCaDaE#b#c#d#e#f#g#h#i#j.i.i.i.i.i.i.i.i.i.i.i.i.i.i.i.i.i.i.i.i",
"aFaGaGaHawawaIaJaKaLaMaNaO#m#n#o#p#q#r#s.i.i.i.i.i.k.i.i.i.j.i.i.i.k.i.i.i.i.i.i",
"aPaGaGaQawawawaRaSaTaUaVaW#w#x#y#z#A#B#C.i.k.i.i.j.j.i.i.i.i.i.i.i.i.i.i.i.k.i.i",
"aXaGaGaYaQaZaZaZaZa0a1a2#F#G#H#..E#I.w#JQt.#.a.b.c.d.e.f.g.h.i.i.i.i.i.i.i.i.i.k",
"a3aGaGaGaGa4aZaZa5a6a7a8#L#M#N.H#O#P#Q#y.l.m.e.n.o.p.q.r.s.t.i.j.i.i.i.i.i.i.i.i",
"a9aGaGaYaGa4aZaZaZa6b.b##T#U#F#V#K#W#x#s.u.v.m.w.x.y.z.A.B.C.i.i.i.i.j.j.i.i.i.i",
"akaGaGaGbabbaZaZaZaSb.bcbdbe#1.p#E#2#3#4.D.E.F.x.G.p.H.I.J.K.i.k.i.i.j.j.i.i.i.i",
"bfaGaGaGbgbhaZaZaZbibjbkblbm#U#9a..Q.R.K.L.M.M.N.O.P.p.Q.R.S.i.i.i.i.i.i.i.k.i.j",
"bfaYaGbna5bobpaZaZbqbrbs.V.W.X.Y.Z.0.1.2.T.U.V.W.X.Y.Z.0.1.2.i.i.i.i.i.i.i.i.i.i",
"bfbtbubvbwbxbxbybzbAbBbC.5.6.7.8.9.1#.##.3.4.5.6.7.8.9.1#.##.i.i.i.k.i.i.i.j.i.i",
"bDbtaQbEbFbxbFbGbHbIbJbK#c#d#e#f#g#h#i#j#a#b#c#d#e#f#g#h#i#j.i.i.j.j.i.i.i.i.i.i",
"bLaGbxbxbxbxbMbNbObPbQ.F#l#m#n#o#p#q#r#s#k.F#l#m#n#o#p#q#r#s.i.k.j.j.i.i.i.i.i.i",
"bRbxbSbxbTbUbVbWbXbY#t#u#v#w#x#y#z#A#B#C#t#u#v#w#x#y#z#A#B#C.i.i.i.i.i.i.i.i.i.j",
"bZbxbSbTbpb0b1b2b3b4#D#E#F#G#H#..E#I.w#J#D#E#F#G#H#..E#I.w#JQt.#.a.b.c.d.e.f.g.h",
"bSbxbxb5b6b7b8b9c.c##K.R#L#M#N.H#O#P#Q#y#K.R#L#M#N.H#O#P#Q#y.l.m.e.n.o.p.q.r.s.t",
"bSbxcacbcccdcebJcf#s#R#S#T#U#F#V#K#W#x#s#R#S#T#U#F#V#K#W#x#s.u.v.m.w.x.y.z.A.B.C",
"bxbpcgchcicjckcl#3#4cmcnbdbe#1.p#E#2#3#4cmcnbdbe#1.p#E#2#3#4.D.E.F.x.G.p.H.I.J.K",
"bVcbb6cocpcqcr.Q.R.K#hcsblbm#U#9a..Q.R.K#hcsblbm#U#9a..Q.R.K.L.M.M.N.O.P.p.Q.R.S",
"ctchcucvcwcx.Z.0.1.2.T.U.V.W.X.Y.Z.0.1.2.T.U.V.W.X.Y.Z.0.1.2.T.U.V.W.X.Y.Z.0.1.2",
"cyczcAcBcC.8.9.1#.##.3.4.5.6.7.8.9.1#.##.3.4.5.6.7.8.9.1#.##.3.4.5.6.7.8.9.1#.##",
"cDcEcFcG#e#f#g#h#i#j#a#b#c#d#e#f#g#h#i#j#a#b#c#d#e#f#g#h#i#j#a#b#c#d#e#f#g#h#i#j",
"#k.F#l#m#n#o#p#q#r#s#k.F#l#m#n#o#p#q#r#s#k.F#l#m#n#o#p#q#r#s#k.F#l#m#n#o#p#q#r#s",
"#t#u#v#w#x#y#z#A#B#C#t#u#v#w#x#y#z#A#B#C#t#u#v#w#x#y#z#A#B#C#t#u#v#w#x#y#z#A#B#C"};
