/* XPM */
static char *dummy[]={
"40 40 577 2",
".2 c #00a15e",
"gd c #0a0a0a",
"gp c #0c0c0c",
"dV c #0e0e0e",
"dU c #0f0f0f",
"ge c #101010",
"ee c #111111",
"fL c #121212",
"dl c #131313",
"c3 c #141414",
"fn c #151515",
"fh c #161616",
"eU c #171717",
"eE c #181818",
"c4 c #191919",
"dG c #1a1a1a",
"dW c #1b1b1b",
"dm c #1c1c1c",
"eV c #1d1d1d",
"es c #1e1e1e",
"do c #1f1f1f",
"dn c #202020",
"dX c #212121",
"dH c #222222",
"g9 c #272640",
"dF c #282828",
"g8 c #2e2d2e",
"gs c #32314a",
"dY c #32a579",
"Qt c #32a67a",
"c5 c #33a579",
"cu c #36a579",
"cc c #36a679",
"gW c #373328",
"bW c #3aa579",
"gM c #3b382b",
".# c #3fa578",
".I c #40a578",
".3 c #41a578",
"bd c #43a577",
"fA c #45a578",
"g7 c #47411c",
"gm c #4b4752",
"fB c #4ca474",
"fC c #4da576",
"fT c #4e484b",
"gz c #4f4a15",
"ec c #534f60",
"er c #545062",
"eC c #555163",
"gD c #559f55",
"c7 c #55a370",
"eS c #565264",
"fy c #574d5c",
"c6 c #57a476",
"h. c #585766",
"gX c #5a5868",
"c8 c #5aa675",
"#j c #5da472",
"#i c #5ea476",
"gA c #5f5d6a",
"dS c #605456",
"f2 c #615f6d",
"gG c #645d1d",
"f4 c #659f62",
"gu c #669e5b",
"dp c #67a996",
"bp c #67aa97",
"#k c #68a472",
"bc c #68a996",
"fJ c #6e6c78",
"gC c #6e9f64",
"gJ c #6ea163",
"cr c #716055",
"eW c #71a270",
"gP c #72a36a",
"cG c #736662",
"eX c #739c58",
"g1 c #74a46c",
"cs c #756a67",
"dE c #777ea7",
"cZ c #786859",
"gf c #789f5a",
"dB c #797278",
"gq c #799f5d",
"bY c #7a994f",
"eY c #7ca160",
"gH c #7d7e83",
"fM c #829d53",
"fV c #839c59",
"fo c #869b5a",
"bX c #869f67",
"gN c #88888d",
"bZ c #88a25b",
"cj c #897a15",
"#F c #8a7b18",
"e8 c #8a9b4a",
"cY c #8b6f48",
"fe c #8b7b16",
"fi c #8b994d",
"cm c #8c7a1e",
"dw c #8c7e15",
"go c #8c94af",
"fD c #8d9d55",
"ct c #8f8682",
"#E c #90801a",
"gI c #909599",
"cg c #918317",
"gb c #919196",
"ef c #919540",
".L c #928416",
"f5 c #929540",
"da c #936627",
"gl c #948125",
"fc c #94851b",
"ci c #948618",
"ey c #948716",
"gQ c #958716",
"cl c #958718",
".c c #958836",
"dg c #959090",
"et c #969842",
"dN c #978719",
"g2 c #97891b",
".b c #978a38",
"fU c #97979a",
"f6 c #979941",
"cR c #98871b",
"em c #988725",
"eN c #988818",
"ck c #988a1d",
"d0 c #989334",
"eF c #98984e",
"e4 c #994522",
"fI c #99732d",
"cC c #998a1b",
"ch c #998a1f",
".K c #998c17",
"fd c #998c1a",
"dt c #998d16",
"dD c #999bb3",
"gY c #999c9a",
"g0 c #999e9b",
"b4 c #9a4021",
"b7 c #9a4120",
"fl c #9a5d2e",
"cX c #9a753f",
"fw c #9a8d18",
"dv c #9a8d19",
"en c #9b8530",
"af c #9b8825",
"a. c #9b892a",
"aE c #9b8b21",
"d8 c #9b8c1a",
"gg c #9b8f18",
"e5 c #9c492b",
"bL c #9c8827",
"## c #9c8928",
"aT c #9c8929",
".R c #9c8b24",
"f1 c #9c8e18",
"ek c #9c8f17",
"fb c #9c9016",
"by c #9d8c25",
"aL c #9d8e22",
"gv c #9d901a",
"gF c #9d901c",
"#G c #9d901e",
"bI c #9d9117",
"f8 c #9d9119",
"c9 c #9d9239",
"ff c #9e5928",
"df c #9e7842",
"el c #9e8932",
"#s c #9e8b25",
".J c #9e8b2c",
"#R c #9e8c26",
".d c #9e8c28",
"a2 c #9e8e26",
"d. c #9e8f1e",
"cN c #9e8f20",
"e2 c #9e9019",
"fQ c #9e9316",
"a0 c #9e932b",
"e# c #9f200e",
"b5 c #9f4125",
"fx c #9f5d2d",
"db c #9f6b37",
"a7 c #9f8b27",
"#0 c #9f8d28",
".i c #9f8e24",
"al c #9f8e25",
"eI c #9f921a",
"fR c #9f921b",
"fW c #9f9316",
"cB c #9f9317",
"fS c #9f931a",
"gy c #9f9417",
"#H c #9f9514",
"eZ c #9f9847",
"b8 c #a0422a",
".4 c #a08b31",
"fp c #a09121",
"cL c #a0921b",
"#S c #a09417",
"ex c #a09419",
"fE c #a0941a",
"gK c #a0941b",
".O c #a09517",
"eG c #a09518",
"aO c #a09614",
"fs c #a09618",
"dZ c #a09c5e",
"fH c #a18239",
"#D c #a18a3a",
"be c #a19028",
"dI c #a1933f",
"g# c #a19419",
"#T c #a1941c",
"e0 c #a19519",
"du c #a1951c",
"#J c #a19615",
"bv c #a19618",
"bf c #a19715",
"fk c #a19716",
"ap c #a28e29",
"d2 c #a29033",
"gw c #a29419",
"gx c #a2941d",
"fG c #a29619",
"aA c #a29717",
"#r c #a29718",
"bs c #a29719",
"bi c #a29815",
"a6 c #a29818",
"d1 c #a29a3f",
"gt c #a2a6a1",
"b2 c #a3902a",
"b0 c #a3902f",
"cv c #a39231",
"aw c #a39622",
"ds c #a39717",
"g6 c #a39718",
"eu c #a39719",
"cz c #a3971a",
"dq c #a3973b",
"dM c #a39816",
"#p c #a39817",
"gk c #a39818",
"fY c #a3981a",
"eg c #a39915",
".f c #a39916",
"cP c #a39917",
"d6 c #a39918",
"b3 c #a44e30",
"ez c #a45426",
"d# c #a47a3d",
"#l c #a49031",
"bF c #a49131",
"fr c #a4932a",
"cM c #a49422",
"fq c #a49423",
"bq c #a49429",
"cd c #a49530",
"eH c #a4971b",
"dK c #a49817",
"aS c #a49818",
"#m c #a49819",
"aN c #a4981b",
"aQ c #a49916",
"e9 c #a49917",
"a5 c #a49918",
"ax c #a49919",
"ei c #a49a15",
"gS c #a49a16",
"fu c #a49a17",
"eJ c #a49a18",
"gE c #a4a265",
"f3 c #a4a6a5",
"b6 c #a54224",
"ga c #a57235",
"#Z c #a59918",
"b1 c #a59919",
"bH c #a5991c",
"aR c #a59a17",
"br c #a59a18",
".Q c #a59a19",
"d3 c #a59a1a",
"az c #a59b18",
"f7 c #a69943",
"#. c #a69a18",
"bx c #a69a19",
"ac c #a69b18",
".N c #a69b19",
"cx c #a69b1a",
"dJ c #a69b1b",
"f0 c #a69c17",
"fF c #a69c18",
"#L c #a69c19",
"gi c #a69c1a",
"fO c #a69c1b",
"gB c #a6aba6",
"fX c #a79a1a",
"gT c #a79b18",
"bu c #a79b19",
"bG c #a79b1a",
"cw c #a79b1b",
"gr c #a79b1d",
"gh c #a79c17",
"bh c #a79c18",
".h c #a79c19",
"aD c #a79c1a",
".7 c #a79d18",
"g4 c #a79d19",
"gj c #a79d1b",
"e6 c #a83923",
"d9 c #a8522d",
"gV c #a89c18",
"#V c #a89c19",
".5 c #a89c1a",
"#X c #a89c1b",
"gU c #a89c1c",
".e c #a89d19",
"am c #a89d1a",
"fj c #a89d1b",
"cf c #a89e19",
"ab c #a89e1a",
"fz c #a8a9a9",
"aM c #a99c19",
"cA c #a99c1b",
"gR c #a99c1c",
"ew c #a99c1d",
"aP c #a99d19",
"dL c #a99d1a",
"#o c #a99d1b",
"#q c #a99d1c",
".9 c #a99e19",
"g. c #a99e1a",
"f# c #a99e1c",
".M c #a99e1d",
"fa c #a99f1c",
"gn c #a9aca9",
"e. c #aa260f",
"cK c #aa9546",
".a c #aa9759",
"fZ c #aa9d1b",
".8 c #aa9e19",
"bJ c #aa9e1a",
"cy c #aa9e1b",
"a4 c #aa9e1c",
"ao c #aa9e1d",
"#U c #aa9f1a",
"ae c #aa9f1b",
"cQ c #aa9f1c",
"fK c #aaacac",
"gc c #aaaeae",
"dx c #ab4920",
"aZ c #ab974a",
"ft c #ab9e1a",
"aa c #ab9e1c",
"an c #ab9e1d",
"eL c #ab9f1a",
"ad c #ab9f1c",
"eM c #ab9f1d",
".g c #ab9f1e",
"#W c #aba01b",
"ej c #aba01d",
"bj c #aba01e",
"ev c #aba11d",
"eh c #aba11e",
"gL c #aba21d",
"c0 c #aba3a2",
"eO c #ac582c",
"eK c #ac9f1a",
"bK c #ac9f1c",
"a# c #ac9f1d",
"#Y c #aca01b",
".6 c #aca01c",
"#n c #aca01d",
"d5 c #aca01e",
"bg c #aca01f",
"fP c #aca11d",
"#K c #aca11f",
"bt c #aca21d",
"f. c #aca21e",
"e3 c #ad7640",
"a1 c #ad9c3c",
"cO c #ada01c",
"e1 c #ada01d",
"fv c #ada01e",
"d7 c #ada11e",
"bw c #ada21d",
"#I c #ada21f",
"fN c #ada31e",
"ce c #ada320",
"cF c #ae8233",
"g3 c #aea01e",
"d4 c #aea11c",
"f9 c #aea11e",
"g5 c #aea11f",
".P c #aea31e",
"dr c #aea41f",
"gZ c #aeb2ac",
"dc c #af3e26",
"cD c #af4323",
"eo c #af5631",
"a3 c #afa31e",
"aC c #afa520",
"gO c #afb3ad",
"aB c #b0a620",
"dO c #b1512b",
"ay c #b1a620",
"cS c #b24422",
"cn c #b54422",
"#1 c #b63518",
"bz c #b83418",
".S c #b93519",
"aF c #ba3418",
"bM c #bb3015",
"b9 c #bc3116",
"aU c #bc3b19",
"#M c #bd3418",
".j c #bd3518",
"cU c #be2e09",
"bk c #be3518",
"aq c #be371a",
"ea c #bf2f10",
"#a c #c0421b",
"c2 c #c0c5d2",
"#t c #c33a1b",
"a8 c #c8411d",
"ag c #c9451d",
"dk c #c9cbce",
"cT c #cb2f0a",
"dh c #d6d4d3",
"fg c #d8d7df",
"eQ c #d94b0f",
"cJ c #dcdae0",
"dC c #dcdce0",
"eP c #dd3e0d",
"eR c #dd5113",
"cV c #de4f15",
"bR c #df5110",
"fm c #dfdee2",
"ep c #e04f10",
"bO c #e05210",
"bN c #e15213",
"eA c #e15a15",
"dy c #e26218",
"cq c #e39d17",
"dT c #e3e3e8",
"eD c #e3e3eb",
"cE c #e46818",
"eT c #e4e4eb",
"dP c #e55111",
"bP c #e55914",
"co c #e66617",
"e7 c #e6e5ec",
"dd c #e75c12",
"bQ c #e76619",
"ed c #e7e7ed",
"cH c #e9e8ea",
"dQ c #ea6a16",
"bl c #eb6b12",
".k c #eb6c12",
"cW c #eb9d14",
"dR c #f09911",
"eb c #f29a10",
"eq c #f49c0f",
"cI c #f6f8ef",
"eB c #f79e0d",
"dA c #f79e0e",
"c1 c #f9f9f8",
"dz c #fb9c0d",
"de c #fea20b",
"bU c #fea609",
"bV c #fea70b",
".l c #ff461e",
".T c #ff461f",
".U c #ff481e",
".m c #ff491e",
"#b c #ff4b1d",
".n c #ff4c1d",
"#N c #ff4d1d",
"#u c #ff4e1d",
".o c #ff4f1d",
"#2 c #ff501c",
".p c #ff511c",
"ah c #ff521c",
"#3 c #ff531c",
".q c #ff541c",
".r c #ff561b",
".V c #ff571b",
"ar c #ff581b",
".s c #ff591a",
"#c c #ff5a1a",
".t c #ff5b1a",
".W c #ff5c1a",
".u c #ff5d1a",
".X c #ff5f19",
".v c #ff6019",
".Y c #ff6119",
".w c #ff6219",
".Z c #ff6318",
".x c #ff6418",
"#v c #ff6518",
".y c #ff6618",
"#w c #ff6717",
".z c #ff6817",
".A c #ff6917",
"#x c #ff6a17",
".B c #ff6b17",
"#y c #ff6c16",
".C c #ff6d16",
"#z c #ff6e16",
".D c #ff6f16",
".E c #ff7016",
".F c #ff7115",
".G c #ff7215",
".H c #ff7315",
".0 c #ff7415",
"#d c #ff7515",
".1 c #ff7614",
"#4 c #ff7714",
"#e c #ff7814",
"#f c #ff7914",
"#g c #ff7a13",
"#h c #ff7b13",
"aG c #ff7c13",
"#A c #ff7d13",
"#B c #ff7e13",
"#C c #ff7f12",
"#O c #ff8012",
"#5 c #ff8112",
"#P c #ff8212",
"#Q c #ff8312",
"#6 c #ff8411",
"#7 c #ff8511",
"#8 c #ff8611",
"#9 c #ff8711",
"as c #ff8810",
"ai c #ff8910",
"aj c #ff8a10",
"ak c #ff8b10",
"at c #ff8c10",
"a9 c #ff8d0f",
"au c #ff8e0f",
"av c #ff8f0f",
"aH c #ff900f",
"aI c #ff910f",
"aJ c #ff920e",
"aK c #ff930e",
"aV c #ff940e",
"aW c #ff950e",
"aX c #ff960e",
"aY c #ff970d",
"b. c #ff980d",
"b# c #ff990d",
"ba c #ff9a0d",
"bb c #ff9b0c",
"bA c #ff9c0c",
"bm c #ff9d0c",
"bn c #ff9e0c",
"bo c #ff9f0c",
"bB c #ffa00b",
"bC c #ffa10b",
"bD c #ffa20b",
"bE c #ffa30b",
"cp c #ffa40b",
"bS c #ffa50a",
"bT c #ffa60a",
"c. c #ffa70a",
"c# c #ffa909",
"ca c #ffab09",
"cb c #ffac09",
"dj c #fffefd",
"di c #ffffff",
"QtQt.#.a.b.c.d.e.f.g.h.i.j.k.l.m.n.o.p.q.r.s.t.u.v.w.x.y.z.A.B.C.C.D.E.F.G.G.G.H",
"QtQt.I.J.K.L.M.N.O.P.Q.R.S.T.U.n.o.p.q.V.s.W.X.Y.Z.y.z.A.B.C.D.E.G.H.0.0.1.1.1.1",
"Qt.2.3.4.5.6.7.8.6.9#.###a.U#b.o.p.q.V#c.u.X.w.x.y.A.B.C.D.F.G.0#d.1#e#f#f#g#h#h",
"#i#j#k#l#m#n#o#p.6#q#r#s#t#b#u.p.q.V#c.u.X.w#v#w#x#y#z.E.G.0.1#e#f#h#h#A#A#B#C#C",
"#D#E#F#G.e#H#I.e#J#K#L.i#M#N.p.q.V#c.u.X.w#v.z.B.C.D.G.0.1#e#g#h#A#B#O#O#P#P#P#Q",
"#R#S#T#U#V#q#W#V#X#Y#Z#0#1#2#3.r.s.u.X.w.y.A.B.C.E.H#d#4#f#h#A#C#5#P#6#6#7#8#9#9",
"a.#Va##L.eaaabacadae#pafagah.r.s.W.X.w#v.A.B#z.F.0.1#f#h#A#C#5#Q#6#8#9aiaiajakak",
"alam.han.N.han.N.eao.Qapaq.qar.t.X.w#v.z.B#z.F.0.1#f#h#B#O#P#6#9asajakatauauavav",
"aw#paxayazaAaB.haAaCaDaEaF.V.t.u.Y.x#w.B.C.F.0.1#faG#C#P#6#8asajatauavaHaIaJaJaK",
"aLaMaNaOaP#XaQ#V#XaRaSaTaU.s.u.v.Z.y#x.C.E.0.1#faG#C#P#6#9aiakauaHaIaJaVaWaXaYaY",
"aZa0a1a2ama3a4a5a3ada6a7a8.t.X.w.y.A#y.D.H.1#faG#C#P#7#9aja9avaIaKaWaYb.b#babbbb",
"bcbcbdbeacbfbgbhbibj.N.ibkbl.v.x.z.B#z.G#d#f#h#C#P#7asakauaHaJaVaYb#babbbmbnbobo",
"bpbp.3bqbrbsbtbubvbwbxbybz.X.w.y.A.C.E.0#4#h#B#P#6#9akauaHaKaWb.babAbnbBbCbDbDbE",
"QtQt.IbFbGbHbIbJbK#U#.bLbMbNbObPbQbR.G.1#f#A#O#6#9ajauaHaKaXb#bbbnbBbDbEbSbTbUbV",
"QtQtbWbXbYbZb0b1.6#q#rb2b3b4b5b6b7b8b9#e#h#C#P#8aia9aHaKaXb#bbbnbCbEbSc.c#c#cacb",
"QtQtQtQtQtcccd.N#Jcecfcgchcicjckclcmcnco#A#5#6asakavaJaWb#bbbobDcpc.c#cacqcrcsct",
"QtQt.2QtQtcucv.hcwabbucxcy#SczcAcBcCcDcE#C#Q#9ajauaIaVb.bbbnbDbSc.c#cbcFcGcHcIcJ",
"QtQtQtQtQtcucKcLcMcNa5cOcycPcOcQa5cRcScTcUcVasataHaKaYbabnbCcpcWcXcYcZc0c1c2c3c4",
"Qt.2QtQtQtc5c6c7c8c9aDbh.gbr.7a#.Nd.d#dadbdcddauaIaWb#bAbBdedfdgdhdidjdkdldmdndo",
"QtQtQtQtQt.2QtQtdpdqb1aAdr.5dsdraDdtdudvdwdxdyavaJaYbadzdAdBdCdDdEdFdldGdodHdndn",
"QtQtQtQtQtQtQt.2dpdIaSdJaAdKcy#V#pdLdLdMdNdOdPaHdQb.bbdRdSdTdldUdVdWdodHdHdHdHdX",
"QtQtQtQtQtQtQtQtdYdZd0d1d2d3d4d5d6#Yd7a5d8d9e.e#eab#bmebeceddUeedWdHdHdHdHdHdHdH",
"QtQtbpbpQtQtQtQtQtdYdYdYefbvegehbreiej.QekelemeneoepbneqereddVc3dGesdndHdHdHdHdH",
"QtQtbpbpQtQtQtQtQtQtQtQteteuaxevbxb1bwcxbvewexeyezeAboeBeCeDdUeEdGdmesdHdHdHdHdH",
"QtQtQtQtQt.2QtbpQtQt.2QteFeGeHeIeJeK#nazeLeM.7eNeOePeQeReSeTdUc4dGeUeVdodXdHdHdH",
"QtQtQtQtQtQtQtQtQtQtQtQteWeXeYeZe0dLe1aA.he1#re2e3e4e5e6eSe7dUeUc4eEc4esdodXdXdH",
"Qt.2QtQtQtbpQtQtQt.2QtQtQtQtQte8cze9f.f#aRevfafbfcfdfeffeCfgdUdlc4c4fhdmeVdodXdH",
"bpbpQtQtQtQtQtQtQtQtQtQtQt.2QtficBamfj#pdLa4e9#V#qfk.KflerfmdUdUc4c4eUfnc4esdodH",
"bpbpQtQtQtQtQtQtQtQtQtQtQtQtQtfofpfqfrfsftd7fubJfvazfwfxfyfzdHdVfhc4c4fhfhdmeses",
"QtQtQtQtQtQtQtbpQtQtQtQtQtQtQtfAfBfCfDfEfFf#amfF.5fjfGfHfIfJfKdUfLeEc4eEfhfhdmes",
"QtQtQtQtQtQtQtQtQtQtbpbpQtQtQtQtQtQtfMex#pfNfO#pfPfjfQfRfSfTfUdFdVfneUc4fheEeEeV",
"QtQtQtQtQtQtQt.2QtQtbpbpQtQtQtQtQtQtfVfWfXfYcPaPfZf0aPfZf0f1f2f3dGeefnc4c4c4c4dW",
"QtQt.2QtQtQtQtQtQtQtQtQtQt.2QtbpQtQtf4f5f6f7f8bJf9#pg.f9d6g#gagbgcgdgefhc4c4dWdW",
"QtQtQtQtQtQtQtQtQtQtQtQtQtQtQtQtQtQtQtQtQtgfggghcxgibheJgjgkglgmgngogpgeeEdWdWdW",
"Qt.2QtQtQtQtQtQtQt.2QtQtQtbpQtQtQt.2QtQtQtgqe0a5ejaba5d5ae#pgrfYgsgtfhdUeedGdWdW",
"QtQtQtQtQt.2QtQtbpbpQtQtQtQtQtQtQtQtQtQtQtgugvgwgxgyeLanfFeLanfFgzgAgBgdgefLdGdW",
"QtQtQtQtQtQtQt.2bpbpQtQtQtQtQtQtQtQtQtQtQtc6gCgDgEgF#Vcyd3.hbJcw.NgGgHgIdVeeeeeE",
"QtQtQtQtQtQtQtQtQtQtQtQtQtQtQtbpQtQtQtQtQtQtQtQtgJgKacf#gLacaDdraca5gMgNgOdXdVgd",
"QtQtbpbpQtQtQtQtQtQtQtQtQtQtQtQtQtQtbpbpQtQtQtQtgPgQbhgRgSgTgUgSgVgUeggWgXgYgZg0",
"QtQtbpbpQtQtQtQtQtQtQtQtQtQtQt.2QtQtbpbpQtQtQtQtg1g2aefvfFg.g3g4#Vg5g4g6g7g8g9h."};
