/* XPM */
static char *dummy[]={
"40 40 640 2",
"hn c #32a67a",
"gZ c #332810",
"gX c #362a11",
"g0 c #382c13",
"gY c #392d14",
"gW c #3a2e14",
"hp c #41300f",
"g# c #475024",
"fO c #49481f",
"g. c #4a4b20",
"g1 c #4c3914",
"hM c #4d3a14",
"fG c #4e4b21",
"ff c #51582f",
"fv c #52461d",
"g8 c #543e13",
"g3 c #543e14",
"hi c #553e14",
"hd c #553f14",
"g6 c #553f15",
"f9 c #554c23",
"h. c #563f14",
"hf c #564015",
"hb c #574015",
"h# c #574016",
"hl c #574216",
"hc c #574217",
"eH c #575f40",
"g5 c #584015",
"hj c #584016",
"hk c #584115",
"hg c #584116",
"g4 c #584216",
"hm c #594116",
"ha c #594217",
"g9 c #594318",
"he c #5a4217",
"hh c #5a4418",
"g2 c #5b4317",
"e4 c #5b6240",
"hr c #5c4212",
"hu c #5c4313",
"hB c #5c4414",
"g7 c #5c4418",
"hL c #5d4312",
"hG c #5d4413",
"hE c #5d4414",
"hK c #5d4415",
"hw c #5d4515",
"hy c #5e4413",
"hJ c #5e4515",
"cR c #5e684d",
"hq c #5f4412",
"hz c #5f4513",
"hH c #5f4514",
"hF c #604412",
"hD c #604413",
"hA c #604512",
"hv c #604513",
"hx c #614513",
"hC c #614614",
"hs c #614715",
"eg c #61694c",
"cW c #616b4e",
"hI c #624513",
"ht c #624514",
"cH c #626849",
"de c #626c4f",
"dy c #636d50",
"ho c #67aa97",
"ga c #686e55",
"hR c #6a4f19",
"fP c #6a7157",
"fw c #6a715b",
"h4 c #6b501a",
"hO c #6c5019",
"h1 c #6c511a",
"hY c #6c511b",
"fz c #6c5e28",
"hV c #6d5019",
"h8 c #6d511b",
"hT c #6d531c",
"bq c #6d714c",
"h7 c #6e5119",
"h2 c #6e511a",
"hW c #6e521a",
"h5 c #6e531c",
"h3 c #6f531b",
"eP c #6f765d",
"h9 c #705219",
"hN c #70521a",
"hS c #70531a",
"h0 c #71521a",
"hX c #71531a",
"h6 c #71541a",
"hZ c #71541b",
"hP c #71551c",
"hU c #72531a",
"hQ c #73541b",
"by c #757a57",
"bG c #767854",
"bF c #79764a",
"br c #797e5d",
"ey c #798069",
"bE c #7f7948",
"cv c #7f866c",
"b2 c #857d4f",
"bx c #867a44",
"fA c #86867c",
".C c #8c6f2c",
"fL c #8c9300",
".H c #8d712e",
".K c #8e702c",
".N c #8e702d",
".R c #8e712e",
".t c #8e722e",
".F c #8e722f",
".x c #8f702c",
".G c #8f712c",
".q c #8f712d",
".O c #8f712e",
".o c #8f722e",
".y c #8f732f",
"fH c #8f9088",
"eY c #8f9500",
".s c #90722e",
".Q c #90732e",
".B c #90732f",
".w c #907330",
".L c #91722d",
".J c #91732e",
".v c #91742f",
".A c #917430",
".z c #92732e",
".D c #92742f",
".M c #927530",
".u c #937430",
".E c #937631",
".I c #947630",
".P c #947631",
".p c #947731",
".r c #947732",
".n c #957832",
"fC c #959605",
"b3 c #969a8a",
"bs c #97977a",
"eW c #989991",
"gc c #9a7b35",
"gb c #9a7c36",
"gi c #9b7b34",
"#t c #9b7c35",
"#d c #9b7d35",
"eI c #9b9c97",
"gf c #9c7c35",
"gg c #9c7c36",
"#A c #9c7d34",
"#f c #9c7d35",
"#h c #9c7d36",
"#m c #9c7d37",
"#c c #9c7e37",
"#B c #9d7c35",
"#o c #9d7d35",
"gj c #9d7d36",
"#k c #9d7e37",
"#x c #9d7f37",
"cu c #9d8037",
"fB c #9d978f",
"e7 c #9d9e00",
"#w c #9e7d35",
"gm c #9e7d37",
"#j c #9e7e35",
"#q c #9e7e36",
"gl c #9e7e37",
"#r c #9e7f38",
"#C c #9e8038",
"fQ c #9e999c",
"fh c #9ea01a",
"cn c #9f7f36",
"#y c #9f7f37",
"ds c #9f7f38",
"fq c #9f8036",
"#D c #9f8037",
"#p c #9f8038",
"#v c #9f8138",
"#i c #9f8139",
"fS c #9f979b",
"gn c #a07f37",
"#l c #a08038",
"dk c #a08039",
"#s c #a08137",
"cb c #a08138",
"#n c #a08139",
"di c #a0813a",
"cm c #a08238",
"#z c #a08239",
"bp c #a08842",
"ch c #a18036",
"do c #a18038",
"fn c #a18136",
"cc c #a18137",
"#e c #a18138",
"#g c #a18139",
"dt c #a1813a",
"fl c #a18238",
"cp c #a18239",
"dn c #a1823a",
"cf c #a18339",
"dq c #a1833b",
"dx c #a1833c",
"fK c #a1a000",
"ce c #a28137",
"dv c #a28138",
"dp c #a28139",
"cq c #a28237",
"cj c #a28238",
"#u c #a28239",
"gk c #a2823a",
"cr c #a28339",
"fs c #a28439",
"ck c #a2843a",
"bD c #a28840",
"fp c #a38238",
"gd c #a3823a",
"gh c #a3833b",
"en c #a3833d",
"ca c #a3843a",
"dm c #a3843b",
"du c #a3843c",
"eo c #a3843d",
"cl c #a3853a",
"ci c #a3863a",
"ct c #a3863c",
"cL c #a3a000",
"dw c #a4833b",
"cs c #a48439",
"dr c #a4843a",
"dj c #a4843b",
"ex c #a4843c",
"ew c #a4843d",
"be c #a48539",
"ag c #a4853a",
"fu c #a4853b",
"dl c #a4853c",
"fo c #a4863a",
"cd c #a4863b",
"cX c #a4a100",
"cK c #a4a200",
"ge c #a5843b",
"bn c #a5853a",
"eu c #a5853c",
"ep c #a5853d",
"et c #a5853e",
"#V c #a5863a",
"fm c #a5863b",
"ba c #a5863c",
"aR c #a5863f",
"fr c #a5873b",
"cg c #a5873c",
"ft c #a5883c",
"dT c #a58a3f",
"cG c #a58a40",
"ej c #a5a100",
"bh c #a68539",
"eq c #a6853d",
"bb c #a68639",
"at c #a6863a",
"es c #a6863e",
"aS c #a6863f",
"bj c #a6873a",
"b# c #a6873b",
"bf c #a6873c",
"#6 c #a6883b",
"aq c #a6883c",
"#J c #a6883d",
"dA c #a6a100",
"eQ c #a6a3a4",
"dO c #a6a400",
"am c #a7863a",
"ev c #a7863e",
"#0 c #a7873a",
"#H c #a7873b",
"co c #a7873c",
"a3 c #a7873e",
"er c #a7873f",
"#F c #a7883b",
"af c #a7883c",
"#9 c #a7883d",
"dL c #a7883e",
"cF c #a7893c",
"#X c #a7893d",
"bd c #a7893e",
"fg c #a79fa7",
"fi c #a7a600",
"#P c #a8873a",
"bc c #a8873b",
"aU c #a8873f",
"a7 c #a88740",
"bl c #a8883a",
"#U c #a8883c",
"a9 c #a8883f",
"aW c #a88840",
"au c #a8893c",
"#M c #a8893d",
"aj c #a8893e",
"a5 c #a88940",
"#Y c #a88a3d",
"aa c #a88a3e",
"#S c #a88a3f",
"dV c #a8a400",
"dF c #a8a500",
"#L c #a9883a",
"ac c #a9883b",
"aX c #a9883f",
"b. c #a98840",
"a# c #a9893b",
"a1 c #a98940",
"a8 c #a98941",
"bo c #a98a3c",
"#2 c #a98a3d",
"bv c #a98a3e",
"a0 c #a98a41",
"eG c #a98b3d",
"#T c #a98b3e",
"ae c #a98b3f",
"dM c #a98d40",
"eA c #a9a500",
"cJ c #a9a70e",
"bH c #a9ae9c",
"#R c #aa883b",
"#5 c #aa893b",
"bg c #aa893d",
"aY c #aa8940",
"a6 c #aa8941",
"bi c #aa8a3c",
"aH c #aa8a3d",
"aT c #aa8a41",
"fN c #aa8b3c",
"fM c #aa8b3d",
"ap c #aa8b3e",
"#1 c #aa8b3f",
"aZ c #aa8b42",
"bC c #aa8c3e",
"#Q c #aa8c3f",
"ad c #aa8c40",
"eF c #aa8d3f",
"cV c #aa8d40",
"eh c #aaa8a8",
"aC c #ab8a3d",
"a2 c #ab8a40",
"aV c #ab8a41",
"#Z c #ab8b3d",
"bw c #ab8b3e",
"a4 c #ab8b42",
"#3 c #ab8c3d",
"bk c #ab8c3e",
"#E c #ab8c3f",
"d2 c #ab8c40",
"aM c #ab8c41",
"ab c #ab8d3f",
"a. c #ab8d40",
"eO c #ab8e3f",
"ak c #ab8e40",
"dW c #aba800",
"ai c #ac8b3e",
"#N c #ac8c3e",
"aO c #ac8c3f",
"aA c #ac8c41",
"an c #ac8d3e",
"#4 c #ac8d3f",
"#K c #ac8d40",
"aJ c #ac8d41",
"ee c #ac8d42",
"#O c #ac8e40",
"eE c #ac8e41",
"aF c #ac8e42",
"ef c #ac8f43",
"fJ c #aca932",
"ay c #ad8c3d",
"aK c #ad8c3e",
"#G c #ad8d3e",
"d4 c #ad8d3f",
"bm c #ad8e3e",
"#I c #ad8e40",
"d6 c #ad8e41",
"d9 c #ad8e42",
"al c #ad8f40",
"bu c #ad8f41",
"aQ c #ad9042",
"fx c #ada5ac",
"ez c #adaaa9",
"aE c #ae8d3e",
"d8 c #ae8d3f",
"ar c #ae8e3e",
"#7 c #ae8e3f",
"ao c #ae8e40",
"#W c #ae8e41",
"ed c #ae8e42",
"as c #ae8f40",
"#8 c #ae8f41",
"aD c #ae8f42",
"ea c #ae8f43",
"ax c #ae9043",
"e5 c #aea9ad",
"bt c #af8e3f",
"e# c #af8e40",
"aL c #af8e41",
"gD c #af8e43",
"f# c #af8e45",
"aN c #af8f40",
"az c #af8f41",
"c3 c #af8f44",
"bN c #af8f45",
"f. c #af8f46",
"cQ c #af9041",
"eb c #af9043",
"fe c #af9046",
"aB c #af9143",
"d7 c #af9144",
"ah c #b09041",
"aP c #b09042",
"d# c #b09044",
"fd c #b09045",
"av c #b09143",
"e. c #b09244",
"eX c #b0aaa9",
"eJ c #b0ab44",
"gy c #b18e42",
"aG c #b19041",
"aw c #b19042",
"c8 c #b19043",
"b0 c #b19045",
"bZ c #b19046",
"aI c #b19143",
"bM c #b19146",
"fc c #b19147",
"d1 c #b19243",
"d5 c #b19244",
"dd c #b19347",
"gM c #b28f43",
"bP c #b29045",
"d3 c #b29142",
"c4 c #b29144",
"bT c #b29145",
"bR c #b29146",
"bU c #b29147",
"ec c #b29244",
"c5 c #b29245",
"bY c #b29247",
"dc c #b29346",
"fR c #b2a9b3",
"eZ c #b2ae01",
"gO c #b39045",
"c6 c #b39144",
"b1 c #b39145",
"bX c #b39146",
"da c #b39246",
"fb c #b39247",
"fa c #b39248",
"f8 c #b39346",
".T c #b39347",
"bS c #b39348",
"fI c #b3aab4",
"cT c #b3ac00",
"d. c #b49244",
"gT c #b49246",
"bV c #b49247",
".1 c #b49346",
".6 c #b49347",
"bQ c #b49348",
"c9 c #b49447",
"db c #b49448",
"bW c #b49449",
"c2 c #b49547",
"e8 c #b4b001",
"fD c #b4b104",
"gH c #b59144",
"gp c #b59244",
"gu c #b59245",
"gs c #b59246",
".3 c #b59346",
"bO c #b59347",
".X c #b59446",
".V c #b59447",
".7 c #b59547",
".5 c #b59548",
"c7 c #b59648",
"gV c #b69245",
"gK c #b69346",
".m c #b69447",
".f c #b69448",
".8 c #b69546",
".Z c #b69547",
".0 c #b69648",
"## c #b69649",
"fj c #b6b101",
"cz c #b6b547",
"gw c #b79346",
".k c #b79448",
".4 c #b79547",
".g c #b79548",
"f0 c #b79647",
"#a c #b79649",
".S c #b79749",
".Y c #b7974a",
"cA c #b7b005",
"eB c #b7b202",
"ei c #b7b231",
"eS c #b7b302",
"gB c #b89447",
".b c #b89548",
".e c #b89549",
".i c #b89648",
".j c #b89649",
"fX c #b89748",
".d c #b89749",
"#b c #b8974a",
".W c #b8984a",
".2 c #b8984b",
"eR c #b8b31c",
"gF c #b99548",
".h c #b99649",
"f4 c #b99748",
".l c #b99749",
".U c #b99849",
"f3 c #b9984a",
"#. c #b9994a",
".9 c #b9994b",
"fE c #b9b401",
".c c #ba9749",
".a c #ba974a",
"f5 c #ba994a",
"f7 c #ba994b",
"f1 c #ba9a4b",
"fW c #ba9a4c",
"gR c #bb9748",
"gI c #bb9849",
"fY c #bb994a",
"fV c #bb9b4c",
"fZ c #bb9b4d",
"f2 c #bc9a4b",
"fU c #bc9b4b",
"fT c #bc9c4c",
"f6 c #bc9c4d",
"fy c #bcb702",
"cx c #bdc096",
"gS c #be9a4a",
".# c #be9a4e",
"Qt c #be9b4f",
"b8 c #beb605",
"go c #bf9c4b",
"dP c #bfb602",
"gz c #c09a4a",
"gJ c #c09c4d",
"e6 c #c0bc87",
"cy c #c0c071",
"gC c #c19c4c",
"gQ c #c19c4d",
"gP c #c29d4c",
"gv c #c29d4e",
"gA c #c39e4f",
"gN c #c5a050",
"cY c #c5b901",
"gU c #c6a150",
"gt c #c7a150",
"gG c #c7a251",
"dZ c #c7bd05",
"bK c #c8bf02",
"gq c #c9a454",
"eK c #c9c204",
"gr c #caa351",
"gE c #caa452",
"eT c #cabf03",
"gx c #cba554",
"gL c #cca654",
"ek c #d1c604",
"b7 c #d1cfc9",
"eM c #d2c705",
"el c #d2c806",
"e0 c #d3c804",
"dG c #d4c503",
"dR c #d4c905",
"dY c #d5ca06",
"eL c #d6c904",
"b4 c #d6d8d1",
"eN c #d8ca04",
"dC c #d8cc06",
"dI c #d9cb05",
"e9 c #dac903",
"fF c #daca02",
"eC c #dbcd05",
"bJ c #dbd7be",
"dQ c #dccc04",
"e1 c #ddce05",
"dN c #dfe3d6",
"bB c #dfe3d9",
"dg c #e0d004",
"cw c #e1e2dc",
"dJ c #e2d203",
"dH c #e2d206",
"dU c #e2e5de",
"eU c #e3d304",
"dB c #e4d305",
"e2 c #e5d604",
"dX c #e6d705",
"d0 c #e9d703",
"bz c #e9ebe8",
"cI c #eaebe3",
"dE c #ebefe4",
"cZ c #eedd06",
"df c #eef0e3",
"dz c #eef0e4",
"bA c #efeaf9",
"fk c #f0dc02",
"cU c #f0dd05",
"cS c #f0f1e7",
"bL c #f4e200",
"dh c #f5e004",
"eV c #f7e303",
"bI c #f8f8fa",
"e3 c #f9e503",
"dS c #fae402",
"b6 c #fcfdff",
"cO c #ffd500",
"c1 c #ffd700",
"cN c #ffd800",
"cD c #ffd900",
"cE c #ffda00",
"cP c #ffdb00",
"c. c #ffdc00",
"c# c #ffde00",
"cC c #ffdf00",
"dK c #ffe100",
"dD c #ffe200",
"em c #ffe300",
"c0 c #ffe400",
"eD c #ffe600",
"b9 c #ffe800",
"cM c #ffe900",
"cB c #ffeb00",
"b5 c #ffffff",
"Qt.#.a.b.c.d.e.f.g.h.i.j.k.g.h.h.h.g.k.b.l.j.e.m.k.h.i.j.k.g.j.l.j.g.f.b.l.d.e.f",
".n.o.p.q.r.s.t.q.t.u.v.w.x.y.z.A.B.C.D.q.E.v.F.G.H.I.J.B.K.A.L.M.B.N.B.O.P.Q.R.L",
".S.T.U.V.W.X.Y.Z.0.d.1.2.3.Y.4.5.S.6.U.1.W.7.Y.8.0.i.6.9.3#..V###a.5.d.Z#b.V.Y.4",
"#c#d#e#f#g#h#i#j#k#l#m#n#o#p#q#r#p#h#s#t#u#k#v#w#x#y#m#z#A#n#B#p#C#k#D#h#n#h#p#j",
"#E#F#G#H#I#J#K#L#M#N#J#O#P#Q#R#S#T#U#G#V#W#X#K#L#Y#Z#J#O#P#O#0#1#T#2#3#F#4#J#E#5",
"#E#6#7#0#8#9a.a##X#Naaa.#0abacadaeaf#7agah#Ma.a##Yaiajak#0alam#K#T#Man#0ao#X#Q#5",
"ab#6#7#H#I#Xa.ac#Yapaa#O#0aba#ae#Qaqar#Vas#Ma.a##T#Zaj#O#0alat#Eaeau#N#F#4#X#Q#5",
"av#1awaiav#Kaxay#KazaAaBaCaDaEaFaD#1aGaHaIaJaxaK#KaLaMaB#ZavaiaDaD#EaNaOaPaAaQaE",
"aRaSaTaUaVaWaTaXaWaYaWaZaUa0aXa1aTaUa2a3a4aWaTaXa5a6a7aZaUaTaUa8a8aWaYa9aVa9a5b.",
"apb##3at#Eba#Q#0afaCbaadbb#Tbcbdaab##Zbe#Kbf#Q#P#Xbgba#Ebbabbhaabd#Ubibjbkba#Tbl",
"ab#Fbm#0as#9a.#L#XaKbdak#P#Q#R#Qaeaf#Gbnaz#Mak#L#Yai#M#O#0#O#0ab#Tbo#3#Hbpbqbrbs",
"#4#6bt#Hbu#9a.a##Ybkbv#O#P#4a##1#Qaq#7bnaz#Ma.#5#2bwaj#O#0#8am#K#1auaKbxbybzbAbB",
"abb##Gbc#O#9ad#L#Mbwajak#0bC#5ae#1aqaK#V#I#Yad#L#Y#Z#Ma.#0#O#0bDbEbFbGbHbIbJbKbL",
"bMbNbObPbQbRbSbTbUbVbRbWbP.TbXbYbQbZbOb0bQbYbSb1bYbVbMbWb0bSb2b3b4b5b6b7b8b9c.c#",
"cacbatccb#cbcdcecfbn#ncgchcicjckclcm#Vcncocpcdcqcrcs#nctcucvcwcxcyczcAcBcCcDc.cE",
"#Eaf#G#H#I#9#KblcF#N#Jak#PbC#Raeaeaf#Gbn#8#X#Kac#Ybw#9cGcHcIcJcKcLcMc#cDcNcOcOcP",
"abb##7#0#8#9a.a##Y#Naaa.#Paba#ad#1af#7bncQaja.#5#YaiajcGcRcScKcTcUcNcOcDcOcOcOcD",
"#Eb##G#H#O#9cV#L#M#Zaaa.#0#Ea#ae#1aq#G#V#I#McVac#YaH#McGcWcScXcYcZc0c.cOcOcOcOc1",
"c2c3.Zc4.5c5c2c6c5.XbRc7c8c9d.bY.Vd#.8c8.5dadbc6dc.1bMdddedfcKdgcZdhc0c1cNcOcOc1",
"di#pdjdkdl#ndm#edndjdidldodmdpdqdm#ndrdsbadtdudvdndwdidxdydzdAdBcZdCdDcCcNcOcOc1",
"#Eaf#G#F#I#J#K#L#Y#N#J#K#PbCacae#T#U#G#V#W#X#Kac#2bw#JcVdydEdFdGdHdIdJdKc#cPcPcD",
"#Eb##7#0#8#9a.ac#XaKaaak#Pabac#Qaeaf#7agcQbda.#5#2aidLdMdedNdOdPdHdQdRdSdDcCcPcD",
"#4#6#7#H#I#9a.ac#Y#Zaaak#0#4a#ae#1af#7#V#8aja.a##2aHbddTcWdUdVdWdXdQdYdZd0dKc#cD",
"d1d2d3d4d5d6d7d8d6awd9e.#NaBe#eaebd2d3bwecedd7d8d6aPeeefegeheiejekdQdQdReldSemem",
"eneoaUepaWeqereqesaUeta9euerevaSerepaUewaWesereqeseretaWexeyezeAeBeCdQdIeleleDem",
"abaf#G#H#Iaq#Kac#Y#N#JeE#PeFac#S#1af#Gatao#X#KaceGbw#J#O#0eHeIeJcLeKeLdQeMeNeNc0",
"#E#F#G#0#8#9a.#L#XaKbdak#PbCac#1aeaf#Gbnaz#XeOac#Yaibd#O#0abePeQeReSeTdQdQdQeUeV",
"ab#6#7#0#8#Xa.a##2bkaa#O#P#4ac#Q#Qaf#7bn#8aja.#5#2#Zaj#O#0#8bjeWeXeYeZe0e1e2e3e3",
"abb##Gbc#I#X#Q#L#M#Zaja.#0#Q#5ae#1bf#G#V#IaacV#L#Y#Z#Mak#0#K#0e4e5e6e7e8e9e3e3e3",
"f.f#.6b0bSbRfabPbRfbbMbQbPfbbTfcfabZ.6fdbSbUbSbTbUfbbZdbb0bQb0fefffgfhfifjfke3eV",
"cdflatccbfcmfmcqcfat#zbffnfofpckclflatfq#9cpfrcqfsbn#nftfnbfccfufvfwfxeYeZfyfkeV",
"#E#F#G#H#I#9#Kbl#X#N#J#O#PbC#Rae#Taf#Gbn#8#X#4#L#Ybw#9#O#0#Oam#Q#TfzfAfBfCfDfEfF",
"abb##7#0az#9a.a##M#Nbvak#0abac#Qaeaf#7agah#Ma.#5#Yaiaj#O#0alam#K#T#FfGfHfIfJfKfL",
"abb##G#H#I#XeFac#Yapaaak#0#Eacaeaeaq#G#V#I#McVac#2fMajak#0#Oam#E#TaufNfOfPfQfRfS",
"fTc7fU.ifV.WfWfX.WfY#bfZf0f1.c.2f1##f2.gfVf3fWf4f3f5.Yf6f0fV.if7f1.dfYf8f9g.g#ga",
"gbgcgd#kgegfdtgf#rgdggghgi#n#lds#g#hdogggegjdngf#rgkggghgigkgldo#lgmgn#kdw#h#g#B",
"gogpgqb1grgsgtgu.cgvgwgxgygv.kgzgAgBgCgDgEgFgGgHgIgJgKgLgMgNgOgPgQgRgSgTgtgwgUgV",
"gWgXgYgZg0g1g2g3g4g5g6g7g8g9h.h#hahbhchdhehfg2hdhgg5g6g7g8hhhihjhahkhlh.hmg6g2hi",
"hnhnhohohnhphqhrhshthuhvhqhwhxhyhzhAhBhChDhEhFhGhHhIhGhqhqhJhxhyhzhAhKhvhxhEhqhL",
"hnhnhohohnhMhNhOhPhQhRhShNhThUhVhWhXhYhZh0h1h0h2h3hQh4hNhNh5h6h7hWhXh8hXhUh4h9hW"};
