/* XPM */
static char *dummy[]={
"40 40 231 2",
".j c #00a15e",
"be c #0a0a0a",
"bj c #0c0c0c",
"aC c #0e0e0e",
"aB c #0f0f0f",
"bf c #101010",
"aI c #111111",
"a8 c #121212",
"am c #131313",
"ad c #141414",
"a2 c #151515",
"aY c #161616",
"aT c #171717",
"aP c #181818",
"ae c #191919",
"aw c #1a1a1a",
"aD c #1b1b1b",
"an c #1c1c1c",
"aU c #1d1d1d",
"aL c #1e1e1e",
"ap c #1f1f1f",
"ao c #202020",
"bI c #202032",
"aE c #212121",
"ax c #222222",
"bJ c #272641",
"bx c #282735",
"av c #282828",
"bH c #2f2e35",
"bo c #313133",
"bl c #32314a",
"Qt c #32a67a",
"#v c #333028",
"bB c #333241",
"bs c #353229",
"#0 c #36332b",
"#B c #38352d",
"#y c #39362d",
".M c #393730",
"bt c #39373c",
".U c #3a372f",
"#A c #3e3c32",
"#C c #3f3c33",
".h c #424036",
".Z c #424037",
".G c #444238",
"#i c #444239",
"#u c #44423a",
".i c #45433b",
"bg c #464355",
".2 c #47433c",
"#R c #47443c",
"#T c #47443e",
".z c #47453d",
"#z c #49483b",
"#b c #49483f",
"a9 c #4a4552",
"#k c #4a4740",
".I c #4a4741",
"## c #4a4840",
"a3 c #4b4941",
".N c #4b4a42",
".L c #4c493f",
"#. c #4c4a41",
"#p c #4c4b44",
".F c #4d4a43",
".4 c #4e4d43",
".s c #4f4d44",
"#I c #4f4d46",
".O c #4f4e46",
".v c #504d46",
".J c #504e47",
"#W c #504e4b",
".D c #514e46",
"aJ c #514f48",
"a4 c #524e5e",
"#U c #524f48",
"#F c #525047",
"#D c #525048",
"az c #534f5e",
"aG c #534f60",
".c c #53514a",
"aK c #545062",
".E c #545149",
".a c #54524b",
"bw c #54534c",
"aN c #555163",
".t c #55534a",
".X c #55544d",
"aR c #565264",
"a. c #56535d",
".A c #56544c",
".5 c #56554b",
"#9 c #57535b",
".Y c #57554e",
"#t c #575649",
"#n c #57564b",
".P c #58554f",
"#3 c #58555a",
".H c #58574f",
"bK c #585766",
".# c #595650",
"#X c #5a5664",
"#s c #5a5850",
"#O c #5a5852",
"bC c #5a5868",
".y c #5b5851",
"a# c #5b5965",
"#c c #5b5a51",
".R c #5c5a54",
"ag c #5c5a60",
".3 c #5c5c53",
"bp c #5f5d6a",
".C c #5f5e56",
".b c #5f5e57",
"ay c #5f5e5b",
"#Y c #605d6b",
"ba c #605e6d",
"#4 c #615e6d",
".g c #615f58",
".k c #615f59",
"br c #615f5a",
"#o c #61605b",
".r c #626059",
"#l c #65635b",
"af c #65635c",
".l c #65635f",
"#r c #65645a",
"#a c #66645c",
".B c #66655d",
".d c #66655f",
"#S c #67665e",
".u c #67aa97",
"#P c #68665e",
".e c #68665f",
"#2 c #686660",
".o c #696761",
"aF c #696762",
"#V c #696860",
".S c #696863",
"b# c #6a6863",
".w c #6a6962",
"#L c #6a6964",
"bG c #6a6a66",
"#x c #6b6964",
"aq c #6b6966",
"#h c #6b6a66",
".p c #6c6a63",
"#j c #6c6b67",
"a6 c #6d6b78",
"#g c #6d6d69",
"aQ c #6e6d64",
".K c #6e6d65",
"#m c #6f6d63",
"bk c #6f6d66",
"#q c #6f6e66",
"#Q c #706f65",
"bn c #706f67",
"ar c #716e7b",
"#M c #716f68",
".6 c #717069",
"#1 c #71706a",
".x c #74736c",
"#w c #75746c",
".Q c #77746f",
"au c #777ea7",
".f c #787670",
"#E c #787672",
"aM c #797671",
"bA c #797973",
".7 c #7a7a74",
"#K c #7b7973",
"#J c #7b7a72",
"#f c #7b7a75",
".V c #7b7a76",
".9 c #7c7b76",
"#Z c #7c7b87",
"#8 c #7c7c7b",
".q c #7d7c75",
"aZ c #7d7c77",
"bu c #7d7e83",
"#N c #7e7d76",
".0 c #7e7d77",
"a0 c #81807c",
".W c #82827e",
".1 c #86857f",
"by c #88888d",
"#d c #898883",
"#e c #8c8b86",
"bi c #8c94af",
".n c #8d8c88",
"ah c #8e8c93",
"#H c #8e8d89",
".m c #8f8f8b",
"#G c #90908c",
"bv c #909599",
"bc c #919196",
"aW c #949491",
".8 c #959593",
".T c #969693",
"b. c #97979a",
"at c #999bb3",
"bD c #999c9a",
"bF c #999e9b",
"aa c #a09da5",
"bm c #a2a6a1",
"bb c #a4a6a5",
"bq c #a6aba6",
"a5 c #a8a9a9",
"bh c #a9aca9",
"a7 c #aaacac",
"bd c #aaaeae",
"bE c #aeb2ac",
"bz c #afb3ad",
"ac c #c0c5d2",
"al c #c9cbce",
"ai c #d2d1d4",
"aX c #d8d7df",
"#7 c #dcdae0",
"as c #dcdce0",
"a1 c #dfdee2",
"aA c #e3e3e8",
"aO c #e3e3eb",
"aS c #e4e4eb",
"aV c #e6e5ec",
"aH c #e7e7ed",
"#5 c #e9e8ea",
"#6 c #f6f8ef",
"ab c #f9f9f8",
"ak c #fffefd",
"aj c #ffffff",
"QtQtQtQtQtQtQtQtQtQtQtQtQtQtQtQtQtQtQtQtQtQtQtQtQtQtQtQtQtQt.#.a.b.c.d.e.f.g.h.i",
"QtQtQtQt.jQtQtQtQtQtQtQt.jQtQtQtQtQtQtQt.jQtQtQtQtQtQtQt.jQt.k.l.m.n.o.p.q.r.s.t",
"Qt.jQtQtQtQtQtQtQt.jQtQtQt.uQtQtQt.jQtQtQtQtQtQtQt.jQtQtQt.u.v.w.x.y.z.A.B.C.D.E",
"QtQtQtQtQt.jQtQt.u.uQtQtQtQtQtQtQtQtQtQtQt.jQtQt.u.uQtQtQtQt.F.G.H.I.#.w.J.K.L.E",
"QtQtQtQtQtQtQt.j.u.uQtQtQtQtQtQtQtQtQtQtQtQtQt.j.u.uQtQtQtQt.M.N.O.P.Q.R.S.T.l.U",
"QtQtQtQtQtQtQtQtQtQtQtQtQtQtQt.uQtQtQtQtQtQtQtQtQtQtQtQtQtQt.V.W.#.X.Y.Z.0.1.a.2",
"QtQt.u.uQtQtQtQtQtQtQtQtQtQtQtQtQtQt.u.uQtQtQtQtQtQtQtQtQtQt.3.4.5.6.7.8.9#.###a",
"QtQt.u.uQtQtQtQtQtQtQtQtQtQtQt.jQtQt.u.uQtQtQtQtQtQtQtQtQtQt#b#c#d#e#f#g#h#i#j#k",
"QtQtQtQtQt.jQt.uQtQt.jQtQtQtQtQtQtQtQtQtQt.jQt.uQtQt.jQtQtQt.G#l.6#m#n#o#p#o#q#r",
"QtQtQtQtQtQtQtQtQtQtQtQtQtQtQtQtQtQtQtQtQtQtQtQtQtQtQtQtQtQt.Z.K#s#t.h#u#v.p#w#x",
"Qt.jQtQtQt.uQtQtQt.jQtQtQtQtQtQtQt.jQtQt.#.a.b.c.d.e.f.g.h.i#y#u#i#z#A#B#C#D.R#E",
".u.uQtQtQtQtQtQtQtQtQtQtQt.jQtQt.u.uQtQt.k.l.m.n.o.p.q.r.s.t.Z#F#G#H#I.J#J#K.P#L",
".u.uQtQtQtQtQtQtQtQtQtQtQtQtQt.j.u.uQtQt.v.w.x.y.z.A.B.C.D.E.a#M#N#O#C#F#P#Q.2#.",
"QtQtQtQtQtQtQt.uQtQtQtQtQtQtQtQtQtQtQtQt.F.G.H.I.#.w.J.K.L.E#R.H#S#T#U#V#W#X#Y#Z",
"QtQtQtQtQtQtQtQtQtQt.u.uQtQtQtQtQtQtQtQt.M.N.O.P.Q.R.S.T.l.U#0#1#V#O#2#3#4#5#6#7",
"QtQtQtQtQtQtQt.jQtQt.u.uQtQtQtQtQtQtQtQt.V.W.#.X.Y.Z.0.1.a.2.V#8#9a.a#aaabacadae",
"QtQt.jQtQtQtQtQtQtQtQtQtQt.jQt.uQtQt.jQt.3.4.5.6.7.8.9#.##afagahaiajakalamanaoap",
"QtQtQtQtQtQtQtQtQtQtQtQtQtQtQtQtQtQtQtQt#b#c#d#e#f#g#h#iaqarasatauavamawapaxaoao",
"Qt.jQtQtQtQtQtQtQt.jQtQtQt.uQtQtQt.jQtQt.G#l.6#m#n#o#payazaAamaBaCaDapaxaxaxaxaE",
"QtQtQtQtQt.jQtQt.u.uQtQtQtQtQtQtQtQtQtQt.Z.K#s#t.h#u#vaFaGaHaBaIaDaxaxaxaxaxaxax",
"QtQtQtQtQtQtQt.j.u.u.#.a.b.c.d.e.f.g.h.i#y#u#i#z#A#B#CaJaKaHaCadawaLaoaxaxaxaxax",
"QtQtQtQtQtQtQtQtQtQt.k.l.m.n.o.p.q.r.s.t.Z#F#G#H#I.J#JaMaNaOaBaPawanaLaxaxaxaxax",
"QtQt.u.uQtQtQtQtQtQt.v.w.x.y.z.A.B.C.D.E.a#M#N#O#C#F#PaQaRaSaBaeawaTaUapaEaxaxax",
"QtQt.u.uQtQtQtQtQtQt.F.G.H.I.#.w.J.K.L.E#R.H#S#T#U#V.J#qaRaVaBaTaeaPaeaLapaEaEax",
"QtQtQtQtQt.jQt.uQtQt.M.N.O.P.Q.R.S.T.l.U#0#1#V#O#2#O.SaWaNaXaBamaeaeaYanaUapaEax",
"QtQtQtQtQtQtQtQtQtQt.V.W.#.X.Y.Z.0.1.a.2.V.W.#.X.Y.ZaZa0aKa1aBaBaeaeaTa2aeaLapax",
"Qt.jQtQtQt.uQtQtQt.j.3.4.5.6.7.8.9#.###a.3.4.5.6.7.8#fa3a4a5axaCaYaeaeaYaYanaLaL",
".u.uQtQtQtQtQtQtQtQt#b#c#d#e#f#g#h#i#j#k#b#c#d#e#f#g#h#i#ha6a7aBa8aPaeaPaYaYanaL",
".u.uQtQtQtQtQtQtQtQt.G#l.6#m#n#o#p#o#q#r.G#l.6#m#n#o#p#o#qa9b.avaCa2aTaeaYaPaPaU",
"QtQtQtQtQtQtQt.uQtQt.Z.K#s#t.h#u#v.p#w#x.Z.K#s#t.h#u#v.p#wb#babbawaIa2aeaeaeaeaD",
".#.a.b.c.d.e.f.g.h.i#y#u#i#z#A#B#C#D.R#E#y#u#i#z#A#B#C#D.R#E#ybcbdbebfaYaeaeaDaD",
".k.l.m.n.o.p.q.r.s.t.Z#F#G#H#I.J#J#K.#.S.Z#F#G#H#I.J#J#K.#.S.ZbgbhbibjbfaPaDaDaD",
".v.w.x.y.z.A.B.C.D.E.a#M#N#O#C#F#P#Q.2#..a#M#N#O#C#F#P#Q.2#..abkblbmaYaBaIawaDaD",
".F.G.H.I.#.w.J.K.L.E#R.H#S#T#U#V.Jbn#y#i#R.H#S#T#U#V.Jbn#y#i#R.Hbobpbqbebfa8awaD",
".M.N.O.P.Q.R.S.T.l.U#0#1#V#O#2#O.S.Tbrbs#0#1#V#O#2#O.S.Tbrbs#0#1#VbtbubvaCaIaIaP",
".V.W.#.X.Y.Z.0.1.a.2.V.W.#.X.Y.Z.0.1.a.2.V.W.#.X.Y.Z.0.1.a.2.V.W.#bwbxbybzaEaCbe",
".3.4.5.6.7.8.9#.###a.3.4.5.6.7.8.9#.###a.3.4.5.6.7.8.9#.###a.3.4.5.6bAbBbCbDbEbF",
"#b#c#d#e#f#g#h#i#j#k#b#c#d#e#f#g#h#i#j#k#b#c#d#e#f#g#h#i#j#k#b#c#d#e#fbGbHbIbJbK",
".G#l.6#m#n#o#p#o#q#r.G#l.6#m#n#o#p#o#q#r.G#l.6#m#n#o#p#o#q#r.G#l.6#m#n#o#p#o#q#r",
".Z.K#s#t.h#u#v.p#w#x.Z.K#s#t.h#u#v.p#w#x.Z.K#s#t.h#u#v.p#w#x.Z.K#s#t.h#u#v.p#w#x"};
