/* XPM */
static char *dummy[]={
"40 40 229 2",
".k c #00a15e",
"b# c #080808",
"a4 c #090909",
"bm c #0b0b0b",
"aG c #0c0c0c",
"aK c #0d0d0d",
"aA c #0e0e0e",
"al c #0f0f0f",
"am c #101010",
"aN c #111111",
"ab c #121212",
"aa c #131313",
"av c #161616",
"ak c #191919",
"bj c #1c1c1c",
"bh c #1e1d32",
"an c #1e1e1e",
"a3 c #1f1d37",
"bb c #1f1e39",
"aB c #1f1f1f",
"bn c #212121",
"a6 c #22203c",
"bf c #232323",
"a0 c #24223e",
"bH c #27253b",
"aW c #272641",
"bD c #282640",
"aS c #282641",
".h c #29231d",
"bp c #292843",
".C c #2a251f",
".t c #2a2620",
"bd c #2a2842",
"bu c #2b2944",
"by c #2d2b45",
".S c #2f2c26",
"#4 c #302b25",
"#C c #302b26",
".K c #302c26",
".2 c #312d27",
"## c #312d28",
"aR c #312f48",
"aj c #322e2a",
"be c #322f2a",
".i c #32a67a",
"#z c #333028",
"#J c #36332c",
"a9 c #36344a",
".J c #37342a",
"#. c #38342c",
".B c #38352b",
".L c #38352d",
"aP c #38354c",
"#h c #39352e",
"#s c #3a372f",
"#F c #3b3930",
"aM c #3c394e",
".s c #3c3a2f",
"#I c #3d3a32",
"aI c #3d3a4f",
"bi c #3d3b33",
"#H c #3e3c31",
".E c #3e3c33",
"#y c #3e3c34",
".D c #3f3b33",
"#3 c #3f3c32",
"bl c #403e34",
"bz c #403f36",
"#j c #413d38",
"br c #413e34",
"#A c #413e35",
".x c #413e36",
".Y c #414037",
"#x c #424036",
"#Q c #434138",
".u c #444138",
".w c #444239",
"#G c #464539",
"#8 c #473f50",
"af c #474251",
"aU c #47433d",
"#0 c #474442",
"a7 c #48443b",
".g c #48453b",
"bG c #484559",
"aE c #494655",
"#b c #4a463c",
".b c #4a483a",
"#R c #4a483e",
"#9 c #4b464d",
"aJ c #4b4a41",
".1 c #4c4941",
"#p c #4c4b44",
".4 c #4d4a40",
"aY c #4d4a43",
"bs c #4d4c43",
".a c #4e4c3e",
".F c #4e4c42",
"#N c #4e4d45",
"a2 c #4f4b5d",
"#t c #504e45",
".H c #504e46",
"#E c #504e47",
"ai c #514d53",
"#w c #514f43",
"#1 c #514f48",
"#v c #515046",
"#V c #525047",
"bg c #525060",
"at c #534f61",
".n c #545247",
".y c #55534a",
".G c #55534c",
".W c #55544d",
"#q c #56534e",
".# c #565449",
"aF c #56544a",
".X c #56554e",
"#l c #57554b",
"az c #585465",
".r c #58564d",
"#B c #59574e",
".v c #59584e",
".V c #595851",
"#o c #595853",
".o c #5a5850",
"#Z c #5b5664",
"#U c #5b5952",
"aT c #5b5a51",
"#i c #5b5a55",
".c c #5c5a4f",
"#n c #5c5b51",
"#r c #5d5b53",
".A c #5d5c52",
".m c #5e5c53",
"ag c #605d68",
"as c #625d6e",
".f c #625f57",
".e c #626057",
".R c #62605c",
"a. c #62615a",
"b. c #636157",
"aX c #63625a",
".P c #64625c",
".z c #64635b",
".l c #65635a",
"#c c #65645a",
"#k c #666459",
"bF c #666571",
"bk c #666671",
"#a c #67665b",
"bC c #676671",
".j c #67aa97",
"ah c #68656e",
"#K c #68665e",
".M c #686660",
"bv c #686762",
"a# c #696863",
".p c #6a6862",
"bo c #6a6973",
"#S c #6c6a64",
"#W c #6c6b60",
".5 c #6c6b63",
"bw c #6c6b65",
"#u c #6d6b62",
"#g c #6d6c68",
"bE c #6d6d67",
"au c #6d6d68",
".I c #6e6d65",
"bq c #6f6e66",
"bt c #6f6e77",
"#2 c #706f67",
".7 c #71706a",
".d c #737169",
".O c #74736d",
"#f c #757571",
"bx c #76777d",
"#P c #77756f",
".3 c #77776c",
"Qt c #79776f",
"#T c #797870",
".6 c #797872",
"a5 c #797c77",
"aw c #797ea6",
"a1 c #797f8a",
".U c #7a7a77",
"#m c #7b7971",
"#O c #7b7a72",
".9 c #7b7b76",
"a8 c #7b8285",
".Z c #7e7d77",
".T c #81807d",
"bc c #818884",
".q c #828179",
"#D c #84827d",
".N c #85837f",
"#Y c #858490",
".0 c #878680",
"aZ c #888694",
"bI c #888783",
"bB c #898a8e",
"#X c #8b8a94",
".8 c #8d8d8b",
"ae c #8e8c97",
"#M c #8e8d89",
"#e c #8f8e8b",
"#L c #91908d",
"ba c #959886",
".Q c #969693",
"#d c #979691",
"aD c #a3a4a0",
"bA c #a3a8a3",
"ao c #a5b3df",
"#7 c #acacb4",
"aV c #c5c6cd",
"ay c #c9c7ce",
"aC c #cacbda",
"aQ c #cfcfd7",
"ac c #d0d2e1",
"aO c #d1d0d7",
"#5 c #d2d3e2",
"ar c #d4d3d7",
"aL c #dcdce1",
"aH c #e1e1e5",
"ax c #f0f1f5",
"ad c #f9f9f9",
"aq c #fbfbfb",
"#6 c #fbfff5",
"ap c #fcfcfe",
"Qt.#.a.b.c.d.e.f.g.h.i.i.i.i.i.i.i.i.i.i.i.i.i.i.i.i.i.i.i.i.i.j.i.i.k.i.i.i.i.i",
".l.m.e.n.o.p.q.r.s.t.i.i.k.i.i.i.i.i.i.i.k.i.i.i.i.i.i.i.k.i.i.i.i.i.i.i.i.i.i.i",
".u.v.m.w.x.y.z.A.B.C.i.i.i.j.i.i.i.k.i.i.i.i.i.i.i.k.i.i.i.j.i.i.i.k.i.i.i.i.i.i",
".D.E.F.x.G.p.H.I.J.K.i.i.i.i.i.i.i.i.i.i.i.k.i.i.j.j.i.i.i.i.i.i.i.i.i.i.i.k.i.i",
".L.M.M.N.O.P.p.Q.R.S.i.i.i.i.i.i.i.i.i.i.i.i.i.k.j.j.i.i.i.i.i.i.i.i.i.i.i.i.i.k",
".T.U.V.W.X.Y.Z.0.1.2.i.i.i.i.i.j.i.i.i.i.i.i.i.i.i.i.i.i.i.i.i.j.i.i.i.i.i.i.i.i",
".3.4.5.6.7.8.9.1#.##.i.i.i.i.i.i.i.i.j.j.i.i.i.i.i.i.i.i.i.i.i.i.i.i.j.j.i.i.i.i",
"#a#b#c#d#e#f#g#h#i#j.i.i.i.i.i.k.i.i.j.j.i.i.i.i.i.i.i.i.i.i.i.k.i.i.j.j.i.i.i.i",
"#k.F#l#m#n#o#p#q#r#s.k.i.i.i.i.i.i.i.i.i.i.k.i.j.i.i.k.i.i.i.i.i.i.i.i.i.i.k.i.j",
"#t#u#v#w#x#y#z#A#B#C.i.i.i.i.i.i.i.i.i.i.i.i.i.i.i.i.i.i.i.i.i.i.i.i.i.i.i.i.i.i",
"#D#E#F#G#H#..E#I.w#JQt.#.a.b.c.d.e.f.g.h.i.j.i.i.i.k.i.i.i.i.i.i.i.k.i.i.i.j.i.i",
"#K.R#L#M#N.H#O#P#Q#y.l.m.e.n.o.p.q.r.s.t.i.i.i.i.i.i.i.i.i.k.i.i.j.j.i.i.i.i.i.i",
"#R#S#T#U#F#V#K#W#x#s.u.v.m.w.x.y.z.A.B.C.i.i.i.i.i.i.i.i.i.i.i.k.j.j.i.i.i.i.i.i",
"#X#Y#Z#0#1.p#E#2#3#4.D.E.F.x.G.p.H.I.J.K.i.i.i.j.i.i.i.i.i.i.i.i.i.i.i.i.i.i.i.j",
"#5#6#7#8#9a.a#.Q.R.K.L.M.M.N.O.P.p.Q.R.S.i.i.i.i.i.i.j.j.i.i.i.i.i.i.i.i.i.i.i.i",
"aaabacadaeafagahaiaj.T.U.V.W.X.Y.Z.0.1.2.i.i.i.k.i.i.j.j.i.i.i.i.i.i.i.i.i.i.i.k",
"akalamanaoapaqarasatau.4.5.6.7.8.9.1#.##.i.i.i.i.i.i.i.i.i.k.i.j.i.i.k.i.i.i.i.i",
"avalalalalabavawaxayaz#b#c#d#e#f#g#h#i#j.i.i.i.i.i.i.i.i.i.i.i.i.i.i.i.i.i.i.i.i",
"avaAaAaAalalalalaBaCaDaEaF#m#n#o#p#q#r#s.i.i.i.i.i.k.i.i.i.j.i.i.i.k.i.i.i.i.i.i",
"abaAaAalalalalaAaGalaHaIaJ#w#x#y#z#A#B#C.i.k.i.i.j.j.i.i.i.i.i.i.i.i.i.i.i.k.i.i",
"amaAaAaAalaAaAaAaAaKaLaM#F#G#H#..E#I.w#JQt.#.a.b.c.d.e.f.g.h.i.i.i.i.i.i.i.i.i.k",
"aNaAaAaAaAaAaAaAalaKaOaP#L#M#N.H#O#P#Q#y.l.m.e.n.o.p.q.r.s.t.i.j.i.i.i.i.i.i.i.i",
"alaAaAaAaAaAaAaAaAaKaQaR#T#U#F#V#K#W#x#s.u.v.m.w.x.y.z.A.B.C.i.i.i.i.j.j.i.i.i.i",
"alaAaAaAalaKaAaAaAaGaQaSaTaU#1.p#E#2#3#4.D.E.F.x.G.p.H.I.J.K.i.k.i.i.j.j.i.i.i.i",
"amaAaAaAalalaAaAaAaGaVaWaXaY#Ua.a#.Q.R.K.L.M.M.N.O.P.p.Q.R.S.i.i.i.i.i.i.i.k.i.j",
"amaAaAaAalamalaAaAaKaZa0.V.W.X.Y.Z.0.1.2.T.U.V.W.X.Y.Z.0.1.2.i.i.i.i.i.i.i.i.i.i",
"amaAaAalaNababalala1a2a3.5.6.7.8.9.1#.##.3.4.5.6.7.8.9.1#.##.i.i.i.k.i.i.i.j.i.i",
"amaAalabaNabaNala4a5a6a7#c#d#e#f#g#h#i#j#a#b#c#d#e#f#g#h#i#j.i.i.j.j.i.i.i.i.i.i",
"amaAababababaAaKa8a9b..F#l#m#n#o#p#q#r#s#k.F#l#m#n#o#p#q#r#s.i.k.j.j.i.i.i.i.i.i",
"aaababababalaKb#babb#t#u#v#w#x#y#z#A#B#C#t#u#v#w#x#y#z#A#B#C.i.i.i.i.i.i.i.i.i.j",
"ababababalaGa4bcbdbe#D#E#F#G#H#..E#I.w#J#D#E#F#G#H#..E#I.w#JQt.#.a.b.c.d.e.f.g.h",
"abababalaGaGbfbgbhbi#K.R#L#M#N.H#O#P#Q#y#K.R#L#M#N.H#O#P#Q#y.l.m.e.n.o.p.q.r.s.t",
"ababamaGaKbjbka6bl#s#R#S#T#U#F#V#K#W#x#s#R#S#T#U#F#V#K#W#x#s.u.v.m.w.x.y.z.A.B.C",
"abalaGbmbnbobpbq#3#4brbsaTaU#1.p#E#2#3#4brbsaTaU#1.p#E#2#3#4.D.E.F.x.G.p.H.I.J.K",
"aKaGaGbjbtbubv.Q.R.K#hbwaXaY#Ua.a#.Q.R.K#hbwaXaY#Ua.a#.Q.R.K.L.M.M.N.O.P.p.Q.R.S",
"aKbmbnbxbybz.Z.0.1.2.T.U.V.W.X.Y.Z.0.1.2.T.U.V.W.X.Y.Z.0.1.2.T.U.V.W.X.Y.Z.0.1.2",
"bAbBbCbDbE.8.9.1#.##.3.4.5.6.7.8.9.1#.##.3.4.5.6.7.8.9.1#.##.3.4.5.6.7.8.9.1#.##",
"bFbGbHbI#e#f#g#h#i#j#a#b#c#d#e#f#g#h#i#j#a#b#c#d#e#f#g#h#i#j#a#b#c#d#e#f#g#h#i#j",
"#k.F#l#m#n#o#p#q#r#s#k.F#l#m#n#o#p#q#r#s#k.F#l#m#n#o#p#q#r#s#k.F#l#m#n#o#p#q#r#s",
"#t#u#v#w#x#y#z#A#B#C#t#u#v#w#x#y#z#A#B#C#t#u#v#w#x#y#z#A#B#C#t#u#v#w#x#y#z#A#B#C"};
