/* XPM */
static char *dummy[]={
"40 40 641 2",
".2 c #00a15e",
"d4 c #32a579",
"Qt c #32a67a",
"c5 c #33a579",
"cu c #36a579",
"cc c #36a679",
"bW c #3aa579",
".# c #3fa578",
".I c #40a578",
".3 c #41a578",
"bd c #43a577",
"f7 c #45a578",
"h9 c #475023",
"h8 c #484c1a",
"hW c #4a4c18",
"f8 c #4ca474",
"f9 c #4da576",
"hJ c #4e511b",
"h7 c #514f13",
"hg c #51582f",
"gr c #555e3b",
"hw c #559f55",
"c7 c #55a370",
"hr c #56520f",
"c6 c #57a476",
"h. c #5a623f",
"c8 c #5aa675",
"#j c #5da472",
"ei c #5e684d",
"#i c #5ea476",
"ey c #616b4e",
"f0 c #62654a",
"eM c #626c4f",
"e3 c #636d50",
"gM c #659f62",
"hm c #669e5b",
"dp c #67a996",
"bp c #67aa97",
"i. c #686e55",
"#k c #68a472",
"bc c #68a996",
"dV c #6a6b45",
"hX c #6a7157",
"hs c #6a715b",
"hz c #6c6914",
"hv c #6e9f64",
"hG c #6ea163",
"gF c #6f755d",
"e9 c #71a270",
"hP c #72a36a",
"f. c #739c58",
"h1 c #74a46c",
"g3 c #789f5a",
"ge c #797f69",
"he c #799f5d",
"bY c #7a994f",
"cr c #7c7744",
"f# c #7ca160",
"cG c #7f7e51",
"cs c #828257",
"gk c #829d53",
"dB c #83876a",
"gy c #839c59",
"cZ c #857f4b",
"hA c #86867c",
"fQ c #869b5a",
"bX c #869f67",
"bZ c #88a25b",
"cj c #897a15",
"#F c #8a7b18",
"fp c #8a9b4a",
"fx c #8b7c16",
"fF c #8b994d",
"cm c #8c7a1e",
"dw c #8c7e15",
"hO c #8c9300",
"g. c #8d9d55",
"hK c #8f9088",
"gX c #8f9500",
"#E c #90801a",
"cg c #918317",
"em c #919540",
".L c #928416",
"gN c #929540",
"da c #936627",
"g9 c #948125",
"cY c #94813a",
"fv c #94851b",
"ci c #948618",
"eJ c #948716",
"hQ c #958716",
"cl c #958718",
".c c #958836",
"hC c #959605",
"eE c #969842",
"dQ c #978719",
"h2 c #97891b",
".b c #978a38",
"gO c #979941",
"cR c #98871b",
"et c #988725",
"eY c #988818",
"ck c #988a1d",
"d6 c #989334",
"eQ c #98984e",
"gV c #989991",
"ff c #994522",
"gd c #99732d",
"cC c #998a1b",
"ch c #998a1f",
".K c #998c17",
"fw c #998c1a",
"dt c #998d16",
"dg c #999b88",
"b4 c #9a4021",
"b7 c #9a4120",
"fY c #9a8d18",
"dv c #9a8d19",
"fI c #9b5f2d",
"eu c #9b8530",
"af c #9b8825",
"a. c #9b892a",
"aE c #9b8b21",
"ec c #9b8c1a",
"g4 c #9b8f18",
"gs c #9b9c97",
"fg c #9c492b",
"bL c #9c8827",
"## c #9c8928",
"aT c #9c8929",
".R c #9c8b24",
"gE c #9c8e18",
"er c #9c8f17",
"fu c #9c9016",
"by c #9d8c25",
"aL c #9d8e22",
"hn c #9d901a",
"hy c #9d901c",
"#G c #9d901e",
"bI c #9d9117",
"gQ c #9d9119",
"c9 c #9d9239",
"hB c #9d978f",
"hb c #9d9e00",
"fy c #9e5a28",
"es c #9e8932",
"#s c #9e8b25",
".J c #9e8b2c",
"#R c #9e8c26",
".d c #9e8c28",
"a2 c #9e8e26",
"d. c #9e8f1e",
"cN c #9e8f20",
"fd c #9e9019",
"go c #9e9316",
"a0 c #9e932b",
"hY c #9e999c",
"hi c #9ea01a",
"ef c #9f200e",
"b5 c #9f4125",
"db c #9f6b37",
"a7 c #9f8b27",
"#0 c #9f8d28",
".i c #9f8e24",
"al c #9f8e25",
"eT c #9f921a",
"gp c #9f921b",
"gz c #9f9316",
"cB c #9f9317",
"gq c #9f931a",
"hq c #9f9417",
"#H c #9f9514",
"h0 c #9f979b",
"fa c #9f9847",
"ct c #9f9b75",
"b8 c #a0422a",
"fZ c #a05e2c",
".4 c #a08b31",
"fR c #a09121",
"cL c #a0921b",
"#S c #a09417",
"eI c #a09419",
"g# c #a0941a",
"hH c #a0941b",
".O c #a09517",
"eR c #a09518",
"aO c #a09614",
"fU c #a09618",
"d5 c #a09c5e",
"gc c #a18239",
"#D c #a18a3a",
"be c #a19028",
"dL c #a1933f",
"gT c #a19419",
"#T c #a1941c",
"fb c #a19519",
"du c #a1951c",
"#J c #a19615",
"bv c #a19618",
"bf c #a19715",
"fH c #a19716",
"hN c #a1a000",
"cX c #a28533",
"ap c #a28e29",
"d8 c #a29033",
"ho c #a29419",
"hp c #a2941d",
"gb c #a29619",
"aA c #a29717",
"#r c #a29718",
"bs c #a29719",
"bi c #a29815",
"a6 c #a29818",
"d7 c #a29a3f",
"b2 c #a3902a",
"b0 c #a3902f",
"cv c #a39231",
"aw c #a39622",
"ds c #a39717",
"h6 c #a39718",
"eF c #a39719",
"cz c #a3971a",
"dq c #a3973b",
"dP c #a39816",
"#p c #a39817",
"g8 c #a39818",
"gB c #a3981a",
"en c #a39915",
".f c #a39916",
"cP c #a39917",
"ea c #a39918",
"dZ c #a3a000",
"b3 c #a44e30",
"eK c #a45426",
"d# c #a47a3d",
"df c #a48637",
"#l c #a49031",
"bF c #a49131",
"fT c #a4932a",
"cM c #a49422",
"fS c #a49423",
"bq c #a49429",
"cd c #a49530",
"eS c #a4971b",
"dN c #a49817",
"aS c #a49818",
"#m c #a49819",
"aN c #a4981b",
"aQ c #a49916",
"fq c #a49917",
"a5 c #a49918",
"ax c #a49919",
"ep c #a49a15",
"hS c #a49a16",
"fW c #a49a17",
"eU c #a49a18",
"ez c #a4a100",
"dY c #a4a200",
"hx c #a4a265",
"b6 c #a54224",
"gU c #a57235",
"#Z c #a59918",
"b1 c #a59919",
"bH c #a5991c",
"aR c #a59a17",
"br c #a59a18",
".Q c #a59a19",
"d9 c #a59a1a",
"az c #a59b18",
"f3 c #a5a100",
"gP c #a69943",
"#. c #a69a18",
"bx c #a69a19",
"ac c #a69b18",
".N c #a69b19",
"cx c #a69b1a",
"dM c #a69b1b",
"gD c #a69c17",
"ga c #a69c18",
"#L c #a69c19",
"g6 c #a69c1a",
"gm c #a69c1b",
"e5 c #a6a100",
"gG c #a6a3a4",
"fA c #a6a400",
"gA c #a79a1a",
"hT c #a79b18",
"bu c #a79b19",
"bG c #a79b1a",
"cw c #a79b1b",
"hf c #a79b1d",
"g5 c #a79c17",
"bh c #a79c18",
".h c #a79c19",
"aD c #a79c1a",
".7 c #a79d18",
"h4 c #a79d19",
"g7 c #a79d1b",
"hh c #a79fa7",
"hj c #a7a600",
"fh c #a83923",
"ed c #a8522d",
"hV c #a89c18",
"#V c #a89c19",
".5 c #a89c1a",
"#X c #a89c1b",
"hU c #a89c1c",
".e c #a89d19",
"am c #a89d1a",
"fG c #a89d1b",
"cf c #a89e19",
"ab c #a89e1a",
"fK c #a8a400",
"fj c #a8a500",
"aM c #a99c19",
"cA c #a99c1b",
"hR c #a99c1c",
"eH c #a99c1d",
"aP c #a99d19",
"dO c #a99d1a",
"#o c #a99d1b",
"#q c #a99d1c",
".9 c #a99e19",
"gS c #a99e1a",
"fs c #a99e1c",
".M c #a99e1d",
"ft c #a99f1c",
"gg c #a9a500",
"dX c #a9a70e",
"ee c #aa260f",
"cK c #aa9546",
".a c #aa9759",
"gC c #aa9d1b",
".8 c #aa9e19",
"bJ c #aa9e1a",
"cy c #aa9e1b",
"a4 c #aa9e1c",
"ao c #aa9e1d",
"#U c #aa9f1a",
"ae c #aa9f1b",
"cQ c #aa9f1c",
"f1 c #aaa8a8",
"dx c #ab4920",
"aZ c #ab974a",
"fV c #ab9e1a",
"aa c #ab9e1c",
"an c #ab9e1d",
"eW c #ab9f1a",
"ad c #ab9f1c",
"eX c #ab9f1d",
".g c #ab9f1e",
"#W c #aba01b",
"eq c #aba01d",
"bj c #aba01e",
"eG c #aba11d",
"eo c #aba11e",
"hI c #aba21d",
"fL c #aba800",
"eZ c #ac582c",
"eV c #ac9f1a",
"bK c #ac9f1c",
"a# c #ac9f1d",
"#Y c #aca01b",
".6 c #aca01c",
"#n c #aca01d",
"e# c #aca01e",
"bg c #aca01f",
"gn c #aca11d",
"#K c #aca11f",
"bt c #aca21d",
"fr c #aca21e",
"hM c #aca932",
"fe c #ad7640",
"a1 c #ad9c3c",
"cO c #ada01c",
"fc c #ada01d",
"fX c #ada01e",
"eb c #ada11e",
"bw c #ada21d",
"#I c #ada21f",
"gl c #ada31e",
"ce c #ada320",
"ht c #ada5ac",
"gf c #adaaa9",
"h3 c #aea01e",
"e. c #aea11c",
"gR c #aea11e",
"h5 c #aea11f",
".P c #aea31e",
"dr c #aea41f",
"h# c #aea9ad",
"dc c #af3e26",
"cD c #af4323",
"ev c #af5631",
"a3 c #afa31e",
"aC c #afa520",
"c0 c #afb199",
"aB c #b0a620",
"gW c #b0aaa9",
"gt c #b0ab44",
"dR c #b1512b",
"ay c #b1a620",
"cS c #b24422",
"hZ c #b2a9b3",
"gY c #b2ae01",
"hL c #b3aab4",
"ek c #b3ac00",
"cF c #b48f2a",
"hc c #b4b001",
"hD c #b4b104",
"cn c #b54422",
"#1 c #b63518",
"hk c #b6b101",
"dF c #b6b547",
"dG c #b7b005",
"gh c #b7b202",
"f2 c #b7b231",
"gI c #b7b302",
"bz c #b83418",
"gH c #b8b31c",
".S c #b93519",
"hE c #b9b401",
"aF c #ba3418",
"bM c #bb3015",
"b9 c #bc3116",
"aU c #bc3b19",
"hu c #bcb702",
"#M c #bd3418",
".j c #bd3518",
"dD c #bdc096",
"cU c #be2e09",
"bk c #be3518",
"aq c #be371a",
"dl c #beb605",
"eg c #bf2f10",
"fB c #bfb602",
"#a c #c0421b",
"ha c #c0bc87",
"dE c #c0c071",
"#t c #c33a1b",
"eA c #c5b901",
"fO c #c7bd05",
"a8 c #c8411d",
"c3 c #c8bf02",
"ag c #c9451d",
"gu c #c9c204",
"gJ c #cabf03",
"cT c #cb2f0a",
"f4 c #d1c604",
"dk c #d1cfc9",
"gw c #d2c705",
"f5 c #d2c806",
"gZ c #d3c804",
"fk c #d4c503",
"fD c #d4c905",
"fN c #d5ca06",
"gv c #d6c904",
"dh c #d7d8d0",
"gx c #d8ca04",
"e7 c #d8cc06",
"e1 c #d94b0f",
"fm c #d9cb05",
"hd c #dac903",
"hF c #daca02",
"gi c #dbcd05",
"c2 c #dbd7be",
"fC c #dccc04",
"e0 c #dd3e0d",
"g0 c #ddce05",
"cV c #de4f15",
"e2 c #de5213",
"bR c #df5110",
"fz c #dfe3d6",
"cJ c #dfe3d9",
"ew c #e04f10",
"bO c #e05210",
"eO c #e0d004",
"bN c #e15213",
"eL c #e15a15",
"dC c #e1e2dc",
"dy c #e26218",
"fn c #e2d203",
"fl c #e2d206",
"fJ c #e2e5de",
"gK c #e3d304",
"cE c #e46818",
"e6 c #e4d305",
"dS c #e55111",
"bP c #e55914",
"cq c #e5a114",
"g1 c #e5d604",
"co c #e66617",
"fM c #e6d705",
"dd c #e75c12",
"bQ c #e76619",
"fP c #e9d703",
"cH c #e9ebe8",
"dT c #ea6a16",
"dW c #eaebe3",
"bl c #eb6b12",
".k c #eb6c12",
"fi c #ebefe4",
"cW c #eda011",
"eB c #eedd06",
"eN c #eef0e3",
"e4 c #eef0e4",
"cI c #efeaf9",
"hl c #f0dc02",
"el c #f0dd05",
"ej c #f0f1e7",
"dU c #f19b10",
"eh c #f39c0f",
"ex c #f49e0e",
"c4 c #f4e200",
"eP c #f5e004",
"gL c #f7e303",
"dA c #f89f0d",
"c1 c #f8f8fa",
"g2 c #f9e503",
"fE c #fae402",
"dz c #fb9c0d",
"dj c #fcfdff",
"de c #fea20b",
"bU c #fea609",
"bV c #fea70b",
".l c #ff461e",
".T c #ff461f",
".U c #ff481e",
".m c #ff491e",
"#b c #ff4b1d",
".n c #ff4c1d",
"#N c #ff4d1d",
"#u c #ff4e1d",
".o c #ff4f1d",
"#2 c #ff501c",
".p c #ff511c",
"ah c #ff521c",
"#3 c #ff531c",
".q c #ff541c",
".r c #ff561b",
".V c #ff571b",
"ar c #ff581b",
".s c #ff591a",
"#c c #ff5a1a",
".t c #ff5b1a",
".W c #ff5c1a",
".u c #ff5d1a",
".X c #ff5f19",
".v c #ff6019",
".Y c #ff6119",
".w c #ff6219",
".Z c #ff6318",
".x c #ff6418",
"#v c #ff6518",
".y c #ff6618",
"#w c #ff6717",
".z c #ff6817",
".A c #ff6917",
"#x c #ff6a17",
".B c #ff6b17",
"#y c #ff6c16",
".C c #ff6d16",
"#z c #ff6e16",
".D c #ff6f16",
".E c #ff7016",
".F c #ff7115",
".G c #ff7215",
".H c #ff7315",
".0 c #ff7415",
"#d c #ff7515",
".1 c #ff7614",
"#4 c #ff7714",
"#e c #ff7814",
"#f c #ff7914",
"#g c #ff7a13",
"#h c #ff7b13",
"aG c #ff7c13",
"#A c #ff7d13",
"#B c #ff7e13",
"#C c #ff7f12",
"#O c #ff8012",
"#5 c #ff8112",
"#P c #ff8212",
"#Q c #ff8312",
"#6 c #ff8411",
"#7 c #ff8511",
"#8 c #ff8611",
"#9 c #ff8711",
"as c #ff8810",
"ai c #ff8910",
"aj c #ff8a10",
"ak c #ff8b10",
"at c #ff8c10",
"a9 c #ff8d0f",
"au c #ff8e0f",
"av c #ff8f0f",
"aH c #ff900f",
"aI c #ff910f",
"aJ c #ff920e",
"aK c #ff930e",
"aV c #ff940e",
"aW c #ff950e",
"aX c #ff960e",
"aY c #ff970d",
"b. c #ff980d",
"b# c #ff990d",
"ba c #ff9a0d",
"bb c #ff9b0c",
"bA c #ff9c0c",
"bm c #ff9d0c",
"bn c #ff9e0c",
"bo c #ff9f0c",
"bB c #ffa00b",
"bC c #ffa10b",
"bD c #ffa20b",
"bE c #ffa30b",
"cp c #ffa40b",
"bS c #ffa50a",
"bT c #ffa60a",
"c. c #ffa70a",
"c# c #ffa909",
"ca c #ffab09",
"cb c #ffac09",
"d2 c #ffd500",
"eD c #ffd700",
"d1 c #ffd800",
"dJ c #ffd900",
"dK c #ffda00",
"d3 c #ffdb00",
"dn c #ffdc00",
"do c #ffde00",
"dI c #ffdf00",
"fo c #ffe100",
"e8 c #ffe200",
"f6 c #ffe300",
"eC c #ffe400",
"gj c #ffe600",
"dm c #ffe800",
"d0 c #ffe900",
"dH c #ffeb00",
"di c #ffffff",
"QtQt.#.a.b.c.d.e.f.g.h.i.j.k.l.m.n.o.p.q.r.s.t.u.v.w.x.y.z.A.B.C.C.D.E.F.G.G.G.H",
"QtQt.I.J.K.L.M.N.O.P.Q.R.S.T.U.n.o.p.q.V.s.W.X.Y.Z.y.z.A.B.C.D.E.G.H.0.0.1.1.1.1",
"Qt.2.3.4.5.6.7.8.6.9#.###a.U#b.o.p.q.V#c.u.X.w.x.y.A.B.C.D.F.G.0#d.1#e#f#f#g#h#h",
"#i#j#k#l#m#n#o#p.6#q#r#s#t#b#u.p.q.V#c.u.X.w#v#w#x#y#z.E.G.0.1#e#f#h#h#A#A#B#C#C",
"#D#E#F#G.e#H#I.e#J#K#L.i#M#N.p.q.V#c.u.X.w#v.z.B.C.D.G.0.1#e#g#h#A#B#O#O#P#P#P#Q",
"#R#S#T#U#V#q#W#V#X#Y#Z#0#1#2#3.r.s.u.X.w.y.A.B.C.E.H#d#4#f#h#A#C#5#P#6#6#7#8#9#9",
"a.#Va##L.eaaabacadae#pafagah.r.s.W.X.w#v.A.B#z.F.0.1#f#h#A#C#5#Q#6#8#9aiaiajakak",
"alam.han.N.han.N.eao.Qapaq.qar.t.X.w#v.z.B#z.F.0.1#f#h#B#O#P#6#9asajakatauauavav",
"aw#paxayazaAaB.haAaCaDaEaF.V.t.u.Y.x#w.B.C.F.0.1#faG#C#P#6#8asajatauavaHaIaJaJaK",
"aLaMaNaOaP#XaQ#V#XaRaSaTaU.s.u.v.Z.y#x.C.E.0.1#faG#C#P#6#9aiakauaHaIaJaVaWaXaYaY",
"aZa0a1a2ama3a4a5a3ada6a7a8.t.X.w.y.A#y.D.H.1#faG#C#P#7#9aja9avaIaKaWaYb.b#babbbb",
"bcbcbdbeacbfbgbhbibj.N.ibkbl.v.x.z.B#z.G#d#f#h#C#P#7asakauaHaJaVaYb#babbbmbnbobo",
"bpbp.3bqbrbsbtbubvbwbxbybz.X.w.y.A.C.E.0#4#h#B#P#6#9akauaHaKaWb.babAbnbBbCbDbDbE",
"QtQt.IbFbGbHbIbJbK#U#.bLbMbNbObPbQbR.G.1#f#A#O#6#9ajauaHaKaXb#bbbnbBbDbEbSbTbUbV",
"QtQtbWbXbYbZb0b1.6#q#rb2b3b4b5b6b7b8b9#e#h#C#P#8aia9aHaKaXb#bbbnbCbEbSc.c#c#cacb",
"QtQtQtQtQtcccd.N#Jcecfcgchcicjckclcmcnco#A#5#6asakavaJaWb#bbbobDcpc.c#cacqcrcsct",
"QtQt.2QtQtcucv.hcwabbucxcy#SczcAcBcCcDcE#C#Q#9ajauaIaVb.bbbnbDbSc.c#cbcFcGcHcIcJ",
"QtQtQtQtQtcucKcLcMcNa5cOcycPcOcQa5cRcScTcUcVasataHaKaYbabnbCcpcWcXcYcZc0c1c2c3c4",
"Qt.2QtQtQtc5c6c7c8c9aDbh.gbr.7a#.Nd.d#dadbdcddauaIaWb#bAbBdedfdgdhdidjdkdldmdndo",
"QtQtQtQtQt.2QtQtdpdqb1aAdr.5dsdraDdtdudvdwdxdyavaJaYbadzdAdBdCdDdEdFdGdHdIdJdndK",
"QtQtQtQtQtQtQt.2dpdLaSdMaAdNcy#V#pdOdOdPdQdRdSaHdTb.bbdUdVdWdXdYdZd0dodJd1d2d2d3",
"QtQtQtQtQtQtQtQtd4d5d6d7d8d9e.e#ea#Yeba5ecedeeefegb#bmeheiejdYekeld1d2dJd2d2d2dJ",
"QtQtbpbpQtQtQtQtQtd4d4d4embveneobrepeq.QereseteuevewbnexeyejezeAeBeCdnd2d2d2d2eD",
"QtQtbpbpQtQtQtQtQtQtQtQteEeFaxeGbxb1bwcxbveHeIeJeKeLbodAeMeNdYeOeBePeCeDd1d2d2eD",
"QtQtQtQtQt.2QtbpQtQt.2QteQeReSeTeUeV#nazeWeX.7eYeZe0e1e2e3e4e5e6eBe7e8dId1d2d2eD",
"QtQtQtQtQtQtQtQtQtQtQtQte9f.f#fafbdOfcaA.hfc#rfdfefffgfhe3fifjfkflfmfnfodod3d3dJ",
"Qt.2QtQtQtbpQtQtQt.2QtQtQtQtQtfpczfqfrfsaReGftfufvfwfxfyeMfzfAfBflfCfDfEe8dId3dJ",
"bpbpQtQtQtQtQtQtQtQtQtQtQt.2QtfFcBamfG#pdOa4fq#V#qfH.KfIeyfJfKfLfMfCfNfOfPfododJ",
"bpbpQtQtQtQtQtQtQtQtQtQtQtQtQtfQfRfSfTfUfVebfWbJfXazfYfZf0f1f2f3f4fCfCfDf5fEf6f6",
"QtQtQtQtQtQtQtbpQtQtQtQtQtQtQtf7f8f9g.g#gafsamga.5fGgbgcgdgegfggghgifCfmf5f5gjf6",
"QtQtQtQtQtQtQtQtQtQtbpbpQtQtQtQtQtQtgkeI#pglgm#pgnfGgogpgqgrgsgtdZgugvfCgwgxgxeC",
"QtQtQtQtQtQtQt.2QtQtbpbpQtQtQtQtQtQtgygzgAgBcPaPgCgDaPgCgDgEgFgGgHgIgJfCfCfCgKgL",
"QtQt.2QtQtQtQtQtQtQtQtQtQt.2QtbpQtQtgMgNgOgPgQbJgR#pgSgReagTgUgVgWgXgYgZg0g1g2g2",
"QtQtQtQtQtQtQtQtQtQtQtQtQtQtQtQtQtQtQtQtQtg3g4g5cxg6bheUg7g8g9h.h#hahbhchdg2g2g2",
"Qt.2QtQtQtQtQtQtQt.2QtQtQtbpQtQtQt.2QtQtQthefba5eqaba5e#ae#phfaxhghhhihjhkhlg2gL",
"QtQtQtQtQt.2QtQtbpbpQtQtQtQtQtQtQtQtQtQtQthmhnhohphqeWangaeWangahrhshtgXgYhuhlgL",
"QtQtQtQtQtQtQt.2bpbpQtQtQtQtQtQtQtQtQtQtQtc6hvhwhxhy#Vcyd9.hbJcw.NhzhAhBhChDhEhF",
"QtQtQtQtQtQtQtQtQtQtQtQtQtQtQtbpQtQtQtQtQtQtQtQthGhHacfshIacaDdraca5hJhKhLhMhNhO",
"QtQtbpbpQtQtQtQtQtQtQtQtQtQtQtQtQtQtbpbpQtQtQtQthPhQbhhRhShThUhShVhUenhWhXhYhZh0",
"QtQtbpbpQtQtQtQtQtQtQtQtQtQtQt.2QtQtbpbpQtQtQtQth1h2aefXgagSh3h4#Vh5h4h6h7h8h9i."};
