/* XPM */
static char *dummy[]={
"40 40 171 2",
".c c #00a15e",
"#J c #2ca160",
"#1 c #32a579",
"#R c #32a679",
".a c #32a67a",
"aO c #33a579",
"ag c #34a579",
"ar c #36a579",
".t c #38a477",
".i c #3ea274",
".r c #41a171",
".d c #42a070",
".e c #42a071",
".s c #42a472",
".# c #43a272",
".N c #45a372",
".L c #4e9e6c",
".M c #4fa06a",
"#K c #50a578",
".k c #529866",
".q c #529e4b",
"#I c #53a577",
".j c #56a169",
".h c #589948",
".n c #589f6a",
".A c #59a16a",
".p c #64935e",
".o c #679c5e",
"aN c #67a996",
".b c #67aa97",
"aC c #6aa995",
".g c #769555",
".v c #789252",
".w c #789758",
"ae c #78995c",
"ad c #799a5c",
".u c #7aa15c",
"## c #7b9d5b",
"af c #81a16d",
".f c #839857",
".y c #859450",
".z c #87974f",
".G c #889e58",
".B c #8da051",
".D c #8da152",
"aq c #8e7d28",
"an c #8e8116",
"#P c #938122",
"ap c #948716",
".9 c #94904b",
"#. c #949144",
"#0 c #968d39",
"#Q c #978a45",
"#8 c #988d3b",
".I c #9a8943",
"ax c #9b8a25",
"#Z c #9c8f17",
".3 c #9c9136",
"#6 c #9d8a2c",
"#Y c #9e8d28",
".H c #9e9744",
"aB c #9f8c36",
"aH c #a08d2c",
"aM c #a08d34",
"aa c #a08e27",
"ao c #a2951e",
"aL c #a29718",
".C c #a38859",
"ac c #a3913a",
"aA c #a39618",
"#7 c #a39619",
"az c #a39816",
"am c #a39818",
"al c #a49625",
"#O c #a58c41",
"ay c #a69a19",
"aI c #a79b1a",
"ab c #a79b1b",
"aK c #a89e1b",
".K c #ad9f46",
".Y c #ae8a39",
"aJ c #b0a31f",
".x c #b19743",
".S c #b2a046",
".l c #bb8630",
"#k c #bd8432",
".m c #bd8c37",
"#v c #c0963e",
".F c #c18224",
"#p c #c39d3a",
".E c #ca832d",
".J c #ff2625",
"Qt c #ff2626",
".R c #ff2725",
".Q c #ff2825",
".P c #ff2925",
".X c #ff2a24",
".O c #ff2a25",
".W c #ff2b24",
".V c #ff2c24",
".U c #ff2d24",
".T c #ff2e24",
".8 c #ff2f23",
".2 c #ff2f24",
".1 c #ff3023",
".0 c #ff3123",
".Z c #ff3223",
".7 c #ff3323",
".6 c #ff3422",
".5 c #ff3522",
".4 c #ff3622",
"#e c #ff3722",
"#c c #ff3821",
"#d c #ff3822",
"#b c #ff3921",
"#a c #ff3a21",
"#j c #ff3b21",
"#i c #ff3c21",
"#g c #ff3d20",
"#h c #ff3d21",
"#f c #ff3e20",
"#o c #ff3f20",
"#n c #ff4020",
"#m c #ff4120",
"#l c #ff421f",
"#u c #ff431f",
"#t c #ff441f",
"#s c #ff451f",
"#q c #ff461e",
"#r c #ff461f",
"#E c #ff471e",
"#y c #ff481e",
"#x c #ff491e",
"#w c #ff4a1e",
"#D c #ff4b1d",
"#C c #ff4c1d",
"#B c #ff4d1d",
"#A c #ff4e1d",
"#z c #ff4f1d",
"#H c #ff501c",
"#G c #ff511c",
"#F c #ff521c",
"#X c #ff531c",
"#N c #ff541c",
"#M c #ff551b",
"#L c #ff561b",
"#W c #ff571b",
"#V c #ff581b",
"#U c #ff591a",
"#T c #ff5a1a",
"#S c #ff5b1a",
"#5 c #ff5c1a",
"#4 c #ff5d1a",
"#3 c #ff5e19",
"#2 c #ff5f19",
"a# c #ff6019",
"a. c #ff6119",
"#9 c #ff6219",
"ak c #ff6318",
"aj c #ff6418",
"ai c #ff6518",
"ah c #ff6618",
"aw c #ff6717",
"av c #ff6817",
"au c #ff6917",
"at c #ff6a17",
"as c #ff6b17",
"aG c #ff6c16",
"aF c #ff6d16",
"aE c #ff6e16",
"aD c #ff6f16",
"QtQtQt.#.a.a.a.a.a.a.a.a.a.a.a.a.a.a.a.a.a.a.a.a.a.a.a.a.a.a.a.b.a.a.c.a.a.a.a.a",
"QtQtQt.d.c.a.a.a.a.a.a.a.c.a.a.a.a.a.a.a.c.a.a.a.a.a.a.a.c.a.a.a.a.a.a.a.a.a.a.a",
"QtQtQt.e.a.a.a.a.a.c.a.a.a.b.a.a.a.c.a.a.a.a.a.a.a.c.a.a.a.b.a.a.a.c.a.a.a.a.a.a",
"QtQtQt.f.g.h.i.a.b.b.a.a.a.a.a.a.a.a.a.a.a.c.a.a.b.b.a.a.a.a.a.a.a.a.a.a.a.c.a.a",
"QtQtQtQtQtQt.j.c.b.b.a.a.a.a.a.a.a.a.a.a.a.a.a.c.b.b.a.a.a.a.a.a.a.a.a.a.a.a.a.c",
"QtQtQtQtQtQt.k.a.a.a.a.a.a.a.a.b.a.a.a.a.a.a.a.a.a.a.a.a.a.a.a.b.a.a.a.a.a.a.a.a",
"QtQtQtQtQtQt.j.a.a.a.a.a.a.a.a.a.a.a.b.b.a.a.a.a.a.a.a.a.a.a.a.a.a.a.b.b.a.a.a.a",
"QtQtQtQtQtQtQt.l.m.n.a.a.a.a.a.c.a.a.b.b.a.a.a.a.a.a.a.a.a.a.a.c.a.a.b.b.a.a.a.a",
"QtQtQtQtQtQtQtQtQt.o.c.a.a.a.a.a.a.a.a.a.a.c.a.b.a.a.c.a.a.a.a.a.a.a.a.a.a.c.a.b",
"QtQtQtQtQtQtQtQtQt.p.a.a.a.a.a.a.a.a.a.a.a.a.a.a.a.a.a.a.a.a.a.a.a.a.a.a.a.a.a.a",
"QtQtQtQtQtQtQtQtQt.q.r.s.t.a.a.a.a.c.a.a.a.b.a.a.a.c.a.a.a.a.a.a.a.c.a.a.a.b.a.a",
"QtQtQtQtQtQtQtQtQtQtQtQt.u.c.a.a.b.b.a.a.a.a.a.a.a.a.a.a.a.c.a.a.b.b.a.a.a.a.a.a",
"QtQtQtQtQtQtQtQtQtQtQtQt.v.a.a.c.b.b.a.a.a.a.a.a.a.a.a.a.a.a.a.c.b.b.a.a.a.a.a.a",
"QtQtQtQtQtQtQtQtQtQtQtQt.w.a.a.a.a.a.a.a.a.a.a.b.a.a.a.a.a.a.a.a.a.a.a.a.a.a.a.b",
"QtQtQtQtQtQtQtQtQtQtQtQt.x.y.z.A.a.a.a.a.a.a.a.a.a.a.b.b.a.a.a.a.a.a.a.a.a.a.a.a",
"QtQtQtQtQtQtQtQtQtQtQtQtQtQtQt.B.a.a.a.a.a.a.a.c.a.a.b.b.a.a.a.a.a.a.a.a.a.a.a.c",
"QtQtQtQtQtQtQtQtQtQtQtQtQtQtQt.C.a.a.c.a.a.a.a.a.a.a.a.a.a.c.a.b.a.a.c.a.a.a.a.a",
"QtQtQtQtQtQtQtQtQtQtQtQtQtQtQt.D.a.a.a.a.a.a.a.a.a.a.a.a.a.a.a.a.a.a.a.a.a.a.a.a",
"QtQtQtQtQtQtQtQtQtQtQtQtQtQtQtQt.E.F.G.a.a.a.a.a.a.c.a.a.a.b.a.a.a.c.a.a.a.a.a.a",
"QtQtQtQtQtQtQtQtQtQtQtQtQtQtQtQtQtQt.H.a.a.c.a.a.b.b.a.a.a.a.a.a.a.a.a.a.a.c.a.a",
"QtQtQtQtQtQtQtQtQtQtQtQtQtQtQtQtQtQt.I.a.a.a.a.c.b.b.a.a.a.a.a.a.a.a.a.a.a.a.a.c",
".JQtQtQtQtQtQtQtQtQtQtQtQtQtQtQtQtQt.K.L.M.N.a.a.a.a.a.a.a.a.a.b.a.a.a.a.a.a.a.a",
".O.O.O.O.P.P.Q.Q.R.JQtQtQtQtQtQtQtQtQtQtQt.S.a.a.a.a.a.a.a.a.a.a.a.a.b.b.a.a.a.a",
".T.T.T.T.U.V.V.V.W.X.P.Q.R.JQtQtQtQtQtQtQt.Y.a.a.a.a.a.a.a.a.a.c.a.a.b.b.a.a.a.a",
".Z.Z.Z.0.0.0.1.1.2.T.U.V.W.O.Q.QQtQtQtQtQt.3.a.b.a.a.c.a.a.a.a.a.a.a.a.a.a.c.a.b",
".4.4.4.4.4.5.6.7.7.Z.0.1.8.T.V.W.O.Q.JQtQtQt.9#.##.a.a.a.a.a.a.a.a.a.a.a.a.a.a.a",
"#a#a#a#a#b#b#c#d#e.4.5.6.7.0.1.2.U.V.X.Q.RQtQtQtQt.c.a.a.a.a.a.a.a.c.a.a.a.b.a.a",
"#f#f#f#f#g#h#h#i#j#a#b#d#e.4.6.7.0.8.T.V.X.Q.JQt#k.a.a.a.a.c.a.a.b.b.a.a.a.a.a.a",
"#l#l#l#m#m#m#n#o#o#f#h#i#a#b#d.4.5.7.0.1.T.V.O.Q#p.a.a.a.a.a.a.c.b.b.a.a.a.a.a.a",
"#q#q#q#r#r#s#t#t#u#m#m#o#o#g#i#a#c#e.5.7.0.8.U.W.P.RQt#v.a.a.a.a.a.a.a.a.a.a.a.b",
"#w#w#w#w#x#x#y#y#q#r#s#t#l#m#o#f#h#a#c#e.5.7.0.2.V.O.QQt.a.a.a.a.a.a.a.a.a.a.a.a",
"#z#A#A#A#B#B#C#D#w#w#y#E#q#s#u#m#n#f#h#a#c.4.6.Z.8.U.W.Q.a.a.a.a.a.a.a.a.a.a.a.c",
"#F#F#F#F#G#G#H#z#z#B#B#D#w#y#E#s#t#m#n#f#i#a#d.5.7.0.T.W#I#J#K.b.a.a.c.a.a.a.a.a",
"#L#L#L#L#L#M#N#N#F#G#H#z#B#C#w#x#E#r#t#m#o#g#j#c.4.7.0.2#O#P#Q#R.a.a.a.a.a.a.a.a",
"#S#S#S#T#U#U#V#W#L#M#N#X#G#H#A#B#w#x#E#s#u#m#f#i#b#e.6.0#Y#Z#0#1.a.c.a.a.a.a.a.a",
"#2#2#3#3#4#4#5#S#S#U#V#L#M#N#F#H#z#B#w#y#q#t#m#o#h#a#e.5#6#7#8#1.a.a.a.a.a.c.a.a",
"#9#9#9#9#9a.a##2#3#4#5#S#U#W#L#N#F#H#A#C#x#E#s#l#o#g#a#daaabacadaeafag.a.a.a.a.c",
"ahahahahahaiajak#9a.#2#3#4#S#U#W#L#N#G#z#B#w#y#r#u#n#g#aalamanaoapaqar.a.a.a.a.a",
"asasasatauauavawahaiaj#9a##2#4#S#U#W#N#F#H#B#D#y#r#u#n#gaxayabazaAaBaC.b.a.a.a.a",
"aDaDaEaEaFaFaGasatauawahaj#9a##2#4#S#V#L#X#G#A#D#y#q#u#naHaIaJaKaLaMaCaNaO.a.a.a"};
