/* XPM */
static char *dummy[]={
"40 40 594 2",
"#I c #00a15e",
"cr c #06a15e",
"#v c #13a15f",
"f5 c #201e39",
"fH c #22203b",
"fs c #231c34",
"f3 c #24130f",
"fe c #24223e",
"fF c #251211",
"e2 c #272641",
"ga c #281512",
"gq c #282530",
"eL c #282641",
"ha c #29263f",
"gK c #292843",
"gc c #2a2842",
"gH c #2b1715",
"gU c #2b2944",
"e0 c #2c1d1a",
"gn c #2d1a17",
"dS c #2d1d1a",
"ec c #2d1e1b",
"fc c #2d1f1c",
"g# c #2e1b18",
"en c #2e1e1b",
"hh c #2e2b35",
"g3 c #2e2c44",
"gz c #2f1c19",
"f2 c #301b19",
"dB c #30221f",
"dT c #302320",
"fR c #311d1a",
"eK c #311e1b",
"eb c #311f1d",
"ey c #312f48",
"fQ c #321d1b",
"dy c #32201d",
"eJ c #32201e",
"fa c #32211d",
"d# c #32a15f",
"dP c #32a579",
"dw c #32a679",
".G c #32a67a",
"dz c #33201d",
"dR c #33211e",
"dA c #33211f",
"da c #33a579",
"fp c #341f1d",
"f1 c #34201d",
"dc c #34211e",
"de c #34221f",
"bf c #34a579",
"fo c #35211e",
"cQ c #35211f",
"dd c #35221f",
"eZ c #36221f",
"cR c #362421",
"fT c #36344a",
"cO c #36a579",
"cd c #36a679",
"ew c #372220",
"fb c #372320",
"ea c #372421",
"gm c #382220",
"gy c #382320",
"fD c #382321",
"fP c #382421",
"ep c #38354c",
"fE c #39221f",
"df c #392926",
"em c #3a2422",
"ct c #3a2a27",
"bZ c #3ba579",
"fm c #3c2623",
"ee c #3c394e",
"dQ c #3d2724",
"dV c #3d3a4f",
"fn c #3e2825",
"f0 c #3f2725",
".F c #3fa578",
"fZ c #402826",
"dg c #403230",
".Z c #40a577",
"bH c #40a578",
"cs c #412726",
"#9 c #41a578",
"#d c #41a678",
"be c #43a578",
"fO c #46a578",
"hg c #484559",
"dx c #492d2b",
"db c #4b2e2c",
"gA c #4b4240",
"gS c #4c3f3d",
"fM c #4da576",
"fr c #4f4b5d",
"gp c #525060",
"cS c #534542",
"cP c #543231",
"dC c #544946",
"hp c #549e58",
"gI c #554b4a",
"g1 c #564b4a",
"d. c #56a371",
"g0 c #56a472",
"go c #58504f",
"cY c #585260",
"dk c #585465",
"c9 c #58a572",
"ch c #5b4a49",
"dF c #64544d",
"hf c #666571",
"gB c #666671",
"h# c #676671",
"e# c #67a996",
"bI c #67aa97",
"cx c #685649",
"cX c #6a626c",
"gJ c #6a6973",
"gZ c #6da05f",
"gT c #6f6e77",
"eY c #6fa268",
"gY c #72a267",
"gR c #739959",
"he c #74a46d",
"b2 c #756458",
"eX c #759d59",
"gl c #759d63",
"g2 c #76777d",
"fN c #76a78b",
"gx c #789d60",
"fG c #797c77",
"dh c #797ea6",
"fq c #797f8a",
"gG c #799f5e",
"fS c #7b8285",
"al c #7c9451",
"eW c #7ca25f",
"g. c #7d9751",
"bX c #7d9a55",
"gb c #818884",
"fY c #839c56",
"bY c #839f5a",
"bW c #85a057",
"ak c #869855",
"f# c #87964b",
"cy c #886d45",
"fd c #888694",
"fl c #88964d",
"am c #889c64",
"h. c #898a8e",
"fC c #89974e",
"g8 c #8aa375",
"aB c #8b7b19",
"e4 c #8b7c14",
"c. c #8b7c16",
"b7 c #8c7e17",
"fL c #8c9c55",
"b6 c #8e7f17",
"eI c #8e913f",
"e3 c #8f7e1c",
"fU c #8f8117",
"b9 c #908116",
"dm c #91821a",
"ay c #918415",
".Y c #928123",
"ev c #929443",
"dH c #938417",
"dn c #938615",
"el c #939443",
"ff c #948615",
"eq c #948618",
"eD c #958817",
"gj c #959743",
"f4 c #959886",
"b5 c #96832a",
"ck c #96871c",
"fu c #968a17",
"gk c #969a3d",
"gX c #96a35e",
"eh c #978527",
"cG c #97871f",
"gr c #978821",
"f6 c #978a16",
"e5 c #978a1a",
"d1 c #978a1c",
".D c #978b36",
"b1 c #978e8a",
"c1 c #98672c",
"fI c #986e2e",
"cz c #98753f",
"hd c #988a19",
".V c #988c16",
".C c #988e38",
"dO c #989037",
"cw c #989293",
".B c #998627",
"ho c #99891a",
"aA c #998c18",
"gF c #998d16",
"gC c #998d17",
"eQ c #998d19",
"dv c #999039",
"e. c #99994c",
"eg c #9a862a",
"g7 c #9a8d16",
"do c #9a8d1a",
"eG c #9a8f16",
"hi c #9a9019",
"bQ c #9b4022",
"bN c #9b4023",
"aG c #9b8925",
"b8 c #9b8e1d",
"er c #9b8f16",
"gP c #9b9017",
"ef c #9c8535",
".7 c #9c892b",
"#3 c #9c892c",
"aR c #9c8c21",
".X c #9c8f18",
"ei c #9c9019",
"eO c #9d4a28",
"#8 c #9d892b",
"bA c #9d892c",
"c3 c #9d8f1d",
"ge c #9d9119",
"d9 c #9d9739",
"eN c #9e4b2b",
"c2 c #9e7334",
"fJ c #9e8132",
"#n c #9e8c28",
"bq c #9e8c29",
"bG c #9e8d25",
"cc c #9e8d30",
"cL c #9e901f",
"bE c #9e9217",
"dM c #9e9314",
"d8 c #9e983b",
"#c c #9f8a2e",
"cK c #9f8e24",
"cq c #9f8e30",
"a9 c #9f8f24",
"gQ c #9f9119",
"gh c #9f911a",
"eu c #9f9317",
"#C c #9f9515",
"b0 c #9f968f",
"dZ c #a0210e",
"bP c #a04324",
"c0 c #a06e3d",
"#u c #a08c2b",
"bS c #a08d2a",
"ad c #a08e26",
"aX c #a08e2c",
".w c #a08f25",
"gW c #a0921b",
"eF c #a0921c",
"fA c #a09224",
"gw c #a09317",
"f9 c #a09318",
"bD c #a0931b",
"#F c #a09514",
"ca c #a09516",
"ci c #a17426",
"a2 c #a18e27",
"#H c #a18e2a",
"#Y c #a18e2e",
"bd c #a18f29",
"gO c #a1931e",
"a4 c #a19331",
"fk c #a19418",
"fy c #a19419",
"c8 c #a1943c",
"aP c #a19516",
"f. c #a19517",
"az c #a1951d",
"c# c #a1951e",
"g4 c #a19615",
"du c #a19617",
"gs c #a19618",
"b. c #a19715",
"eV c #a19948",
"gd c #a27037",
".E c #a2904d",
"cN c #a29131",
"#R c #a29227",
"cM c #a2931f",
"#A c #a29324",
"aQ c #a29617",
"#t c #a29618",
"dL c #a2961b",
"fV c #a2961c",
"hb c #a29716",
"av c #a29717",
"eS c #a29718",
"bn c #a29719",
".y c #a29816",
"gg c #a29817",
"gi c #a29940",
"bM c #a3452a",
"aj c #a38f2d",
"fB c #a39420",
".Q c #a39424",
"bF c #a39619",
"co c #a3961c",
".R c #a39717",
"bU c #a39718",
".S c #a39719",
"fK c #a3971a",
"aJ c #a39815",
"#r c #a39817",
"#7 c #a39818",
"hm c #a39918",
"dE c #a3a4a0",
"g9 c #a3a8a3",
"bO c #a44124",
"d7 c #a49033",
"eH c #a49619",
"cl c #a49718",
"eU c #a4971a",
"cm c #a4971d",
"gV c #a49818",
"aO c #a4981a",
"aM c #a49916",
"ek c #a49917",
"at c #a49918",
"bT c #a49919",
"e6 c #a4991b",
"dK c #a49a16",
"fw c #a49a17",
"cn c #a49a18",
"d4 c #a49a19",
"cA c #a57b39",
"fz c #a5922b",
"a5 c #a59536",
"as c #a59625",
"dN c #a59819",
"#S c #a59918",
"#o c #a59919",
"d6 c #a5991a",
"dJ c #a59a16",
"fi c #a59a17",
".U c #a59a18",
"bp c #a59a19",
"dp c #a59a1c",
"gN c #a59b17",
"c6 c #a59b18",
"gv c #a59b1a",
"cT c #a5b3df",
"bV c #a69232",
"bm c #a69a18",
"#b c #a69a19",
"fg c #a69a1b",
"gt c #a69b16",
"f8 c #a69b17",
"#B c #a69b18",
"ag c #a69b19",
"ds c #a69b1a",
"#. c #a69c18",
"#5 c #a69c19",
"d5 c #a69c1a",
"fW c #a69c1b",
"cJ c #a69d19",
"aH c #a79a19",
"aN c #a79b18",
"bc c #a79b19",
"aI c #a79b1b",
"fj c #a79b1c",
"bC c #a79c18",
".x c #a79c19",
"ai c #a79c1a",
".W c #a79c1d",
"ba c #a79d18",
"#E c #a79d19",
"ej c #a79d1b",
"bR c #a8512f",
"dI c #a89b19",
"#V c #a89c19",
"c7 c #a89c1a",
"aL c #a89c1b",
"cp c #a89c1d",
"#a c #a89d18",
"ax c #a89d19",
"ae c #a89d1a",
"#q c #a89d1b",
"gu c #a89e1b",
"aK c #a99d19",
"f7 c #a99d1a",
"#s c #a99d1b",
"#W c #a99d1c",
"c4 c #a99e19",
".A c #a99e1a",
"aZ c #a99e1b",
"dq c #a99e1c",
"c5 c #a99e1d",
"es c #a99f1b",
"e7 c #a99f1c",
".8 c #aa9d1a",
"#T c #aa9d1d",
"bB c #aa9e1a",
"hc c #aa9e1b",
"fh c #aa9e1c",
"ah c #aa9e1d",
"#U c #aa9f1a",
"a1 c #aa9f1c",
"hk c #aa9f1d",
"e8 c #aaa01d",
"dY c #ab3013",
"a3 c #ab9a39",
"eE c #ab9e1a",
"#6 c #ab9e1c",
"## c #ab9f1a",
"d2 c #ab9f1b",
"af c #ab9f1d",
"#X c #aba01b",
"gM c #aba01c",
"gE c #aba01d",
"et c #aba11b",
"fX c #aba11d",
"e9 c #aba21d",
"eP c #ac733b",
"gL c #ac9f1b",
"eT c #ac9f1c",
"#4 c #ac9f1d",
"cH c #ac9f1e",
".9 c #aca01c",
"#p c #aca01d",
"bb c #aca01f",
"b# c #aca11f",
"bo c #aca21d",
"#G c #aca21f",
"cg c #acacb4",
"cI c #ad9f1e",
"hn c #ada01b",
"eR c #ada01c",
"fx c #ada01e",
"fv c #ada11e",
".z c #ada11f",
"gD c #ada21d",
"bl c #ada31d",
"dr c #ada31e",
"#D c #ada31f",
"g6 c #ada41f",
"d3 c #aea11e",
"gf c #aea11f",
".T c #aea31d",
"g5 c #aea420",
"hl c #afa21c",
"aY c #afa21f",
"a0 c #afa31e",
"cb c #afa420",
"dt c #afa51f",
"hj c #b0a31d",
"aw c #b0a520",
"au c #b1a620",
"d0 c #b85e34",
"ft c #be7437",
"cE c #bf2f09",
"eM c #c4652d",
"e1 c #c5c6cd",
"cF c #c7592b",
"dj c #c9c7ce",
"eC c #ca7438",
"dD c #cacbda",
"ex c #cfcfd7",
"dX c #d05e1a",
"cu c #d0d2e1",
"cD c #d14913",
"eo c #d1d0d7",
"ce c #d2d3e2",
"cZ c #d6911d",
"eB c #d84a0e",
"cW c #d8d6d6",
"bz c #da5e22",
"b3 c #db9918",
"ed c #dcdce1",
"bv c #df5411",
"bw c #e04e11",
"by c #e15612",
"dU c #e1e1e5",
"eA c #e66218",
"cC c #e66b18",
"bx c #e96a19",
"ez c #ea6819",
"dW c #eb980a",
"di c #f0f1f5",
"cB c #f5a10e",
"cv c #f9f9f9",
"dl c #faa20c",
"cV c #fbfbfb",
"cf c #fbfff5",
"cU c #fcfcfe",
"dG c #fea20b",
"br c #fea60b",
".v c #ff431f",
".u c #ff461e",
".P c #ff461f",
".O c #ff481e",
".t c #ff491e",
".6 c #ff4b1d",
".s c #ff4c1d",
"#z c #ff4d1d",
"#m c #ff4e1d",
".r c #ff4f1d",
"#Q c #ff501c",
".q c #ff511c",
"#2 c #ff521c",
"#P c #ff531c",
".p c #ff541c",
".o c #ff561b",
".N c #ff571b",
"ac c #ff581b",
".n c #ff591a",
".5 c #ff5a1a",
".m c #ff5b1a",
".M c #ff5c1a",
".l c #ff5d1a",
".L c #ff5f19",
".k c #ff6019",
".K c #ff6119",
".j c #ff6219",
".J c #ff6318",
".i c #ff6418",
"#l c #ff6518",
".h c #ff6618",
"#k c #ff6717",
".g c #ff6817",
".f c #ff6917",
"#j c #ff6a17",
".e c #ff6b17",
"#i c #ff6c16",
".d c #ff6d16",
"#h c #ff6e16",
".c c #ff6f16",
".b c #ff7016",
".a c #ff7115",
".# c #ff7215",
"Qt c #ff7315",
".I c #ff7415",
".4 c #ff7515",
".H c #ff7614",
"#O c #ff7714",
".3 c #ff7814",
".2 c #ff7914",
".1 c #ff7a13",
".0 c #ff7b13",
"ar c #ff7c13",
"#g c #ff7d13",
"#f c #ff7e13",
"#e c #ff7f12",
"#y c #ff8012",
"#N c #ff8112",
"#x c #ff8212",
"#w c #ff8312",
"#M c #ff8411",
"#L c #ff8511",
"#K c #ff8611",
"#J c #ff8711",
"ab c #ff8810",
"#1 c #ff8910",
"#0 c #ff8a10",
"#Z c #ff8b10",
"aa c #ff8c10",
"aW c #ff8d0f",
"a# c #ff8e0f",
"a. c #ff8f0f",
"aq c #ff900f",
"ap c #ff910f",
"ao c #ff920e",
"an c #ff930e",
"aF c #ff940e",
"aE c #ff950e",
"aD c #ff960e",
"aC c #ff970d",
"aV c #ff980d",
"aU c #ff990d",
"aT c #ff9a0d",
"aS c #ff9b0c",
"bk c #ff9c0c",
"a8 c #ff9d0c",
"a7 c #ff9e0c",
"a6 c #ff9f0c",
"bj c #ffa00b",
"bi c #ffa10b",
"bh c #ffa20b",
"bg c #ffa30b",
"b4 c #ffa40b",
"bu c #ffa50a",
"bt c #ffa60a",
"bs c #ffa70a",
"bL c #ffa909",
"bK c #ffab09",
"bJ c #ffac09",
"cj c #ffae08",
"QtQt.#.#.#.a.b.c.d.d.e.f.g.h.i.j.k.l.m.n.o.p.q.r.s.t.u.v.w.x.y.z.A.B.C.D.E.F.G.G",
".H.H.H.H.H.I.IQt.#.b.c.d.e.f.g.h.J.K.L.M.n.N.p.q.r.s.O.P.Q.R.S.T.U.V.W.X.Y.Z.G.G",
".0.0.0.1.2.2.3.H.4.I.#.a.c.d.e.f.h.i.j.L.l.5.N.p.q.r.6.O.7.8.9#.##.9#a#b#c#d.G.G",
"#e#e#e#f#g#g.0.0.2.3.H.I.#.b#h#i#j#k#l.j.L.l.5.N.p.q#m.6#n#o#p#q#r.9#s#t#u#v.G.G",
"#w#w#x#x#x#y#y#f#g.0.1.3.H.I.#.c.d.e.g#l.j.L.l.5.N.p.q#z#A#B#C#D#E#F#G.x#H#d.G#I",
"#J#J#J#K#L#M#M#x#N#e#g.0.2#O.4Qt.b.d.e.f.h.j.L.l.n.o#P#Q#R#S#T#U#V#W#X#S#Y#d.G.G",
"#Z#Z#Z#0#1#1#J#K#M#w#N#e#g.0.2.H.I.a#h.e.f#l.j.L.M.n.o#2#3#V#4#5#V#6.A#7#8#9.G.G",
"a.a.a.a#a#aa#Z#0ab#J#M#x#y#f.0.2.H.I.a#h.e.g#l.j.L.mac.padae.xafag#Eahaiajakalam",
"ananaoaoapaqa.a#aa#0ab#K#M#x#ear.2.H.I.a.d.e#k.i.K.l.m.Nas#ratau#BavawaxayazaAaB",
"aCaCaCaDaEaFaoapaqa##Z#1#J#M#x#ear.2.H.I.b.d#j.h.J.k.l.naGaHaIaJaKaLaMaNaOaPaQaR",
"aSaSaSaTaUaVaCaEanapa.aW#0#J#L#x#ear.2.HQt.c#i.f.h.j.L.maXaiaYaZ.Ua0a1ata2a3a4a5",
"a6a6a6a7a8aSaTaUaCaFaoaqa##Zab#L#x#e.0.2.4.##h.e.g.i.k.la9#Bb.b#bab.bbbcbdbebfbf",
"bgbgbhbhbibja7bkaTaVaEanaqa##Z#J#M#x#f.0#O.I.b.d.f.h.j.L.Q.RaOblbmbnbobpbq#d.G.G",
"brbsbsbtbubgbhbja7aSaUaDanaqa##0#J#M#y#g.2.H.#bvbwbxbybzbAbB#4bC#UbDbEbFbGbH.GbI",
"bJbJbKbLbLbsbubgbia7aSaUaDanaqaW#1#K#x#e.0.3bMbNbObPbQbRbSbT.9#sbUbVbWbXbYbZ.G.G",
"b0b1b2b3bJbKbLbsb4bha6aSaUaEaoa.#Zab#M#N#g.1b5b6b7b8b9c.c##Ecacb#5cccd.G.G.G.G#I",
"cecfcgchcicjbJbLbsbubha7aSaVaFapa##0#J#w#e.0ckclcmcnbUco#a#Vcp#.#Scqcr.G.G.G.G.G",
"csctcucvcwcxcyczcAcBb4bia7aTaCanaqaacCcDcEcFcGaxcH#.#VcIcJ#ocKcLcMcNcO.G.G.G.G.G",
"cPcQcRcScTcUcVcWcXcYcZbgbjbkaUaEapa##0c0c1c2c3c4#Bc5axc6afc7c8c9d.d#da.G.G.G.G.G",
"dbdcdcdddedfdgdhdidjdkdlbha7aTaCaoa.#Zdmdndodp#rdqdr#rdsdtdudvdw.G.G.G.G.G#I.G.G",
"dxdydydzdcdcdAdBdCdDdEdFdGbjaSaVaFaqaadHdIaLdJ#VaLdKaKdLdMdNdOdP.G.G.G.G.G.G.G#I",
"dQdydydRdcdcdcdzdSdTdUdVdWbia8dXdYdZd0d1d2d3d4.Ad3d5d6d7d8d9e.e#.G.G.G.G.G.G.G.G",
"eadydyebdRdzdzdzdzecedeebtbha7aTefegeheibC.Uejbaekdq#SeldPdPdP.G.G.GbIbI.G.G.G.G",
"emdydydydydzdzdzdceneoepbsbha6aSeqercoai#rafes#rcpeteuev.G.G.G#I.G.GbIbI.G.G.G.G",
"ewdydyebdydzdzdzdzenexeyezeAeBeCeDeEaf#a##afbabceFeGeHeI.G.G.G.G.G.G.G.G.G#I.GbI",
"cQdydydyeJeKdzdzdzdSexeLeMeNeOePeQ.xeReS.xeTbTeUeVeWeXeY.G.G.G.G.G.G.G.G.G.G.G.G",
"eadydydydReZdzdzdze0e1e2bse3e4e5e6#Be7e8bCeje9f.f##I.G.G.G.G.G.G.G#I.G.G.GbI.G.G",
"eaebdyfadcfbeZdzdzfcfdfebsffbcfgekaxfhfibcfjekfkfl.G.G.G.G#I.G.GbIbI.G.G.G.G.G.G",
"eaeJdzdcfmfnfnfofpfqfrfsftfueEfvfwbBfxc6fyfzfAfBfC.G.G.G.G.G.G#IbIbI.G.G.G.G.G.G",
"fDeJdRdQfmfnfmfEfFfGfHfIfJfK#.dq#q#.c7#qbFfLfMfNfO.G.G.G.G.G.G.G.G.G.G.G.G.G.GbI",
"fPdyfnfnfnfnfQfRfSfTfUdnfVaO#rdrfW#rfX#qerfY.G.G.G.GbIbI.G.G.G.G.G.G.G.G.G.G.G.G",
"fZfnf0fnfnf1f2f3f4f5f6##f7fibB#sf8#bfKcaf9g..G#I.G.GbIbI.G.G.G.G.G.G.G.G.G.G.G#I",
"f0fnf0fneZg#gagbgcgdge#Ufx#7bBgfggghgigjgkgl.G.G.G.G.G.G.G#I.GbI.G.G#I.G.G.G.G.G",
"f0fnfngmg#gngogpgqgrgsdKe8bpgtgugvgwgx.G.G.G.G.G.G.G.G.G.G.G.G.G.G.G.G.G.G.G.G.G",
"f0fngygzf2gAgBfHgC#WbpdsgDdsbpgEaigFgG.G.G.G.G.G.G#I.G.G.GbI.G.G.G#I.G.G.G.G.G.G",
"fneZgzgHgIgJgKekgLgMc6eE#pgNfygOgPgQgR.G.G#I.G.GbIbI.G.G.G.G.G.G.G.G.G.G.G#I.G.G",
"f2gzg#gSgTgU#Wdu.A#4avae#4gVgWgXgYgZg0.G.G.G.G#IbIbI.G.G.G.G.G.G.G.G.G.G.G.G.G#I",
"fRgHg1g2g3g4g5.A#rg6aZekdre7g7g8.G.G.G.G.G.G.G.G.G.G.G.G.G.G.GbI.G.G.G.G.G.G.G.G",
"g9h.h#haf.ai#V#rae.8hbaehchbhdhe.G.GbIbI.G.G.G.G.G.G.G.G.G.G.G.G.G.GbIbI.G.G.G.G",
"hfhghhhigghjhkgghl#phmhnfvfwhohp.G.GbIbI.G.G.G.G.G.G.G.G.G.G.G#I.G.GbIbI.G.G.G.G"};
