/* XPM */
static char *dummy[]={
"40 40 593 2",
"fq c #272641",
"fp c #312c35",
"eu c #313131",
"eH c #32314a",
"gE c #32a67a",
"ge c #332810",
"gc c #362a11",
"e5 c #362f30",
"ez c #363636",
"gf c #382c13",
"gd c #392d14",
"cI c #393939",
"gb c #3a2e14",
"cH c #3a3a3a",
"e0 c #3b3332",
"du c #3b3b3b",
"dH c #3c3c3c",
"ev c #3e3e3e",
"cR c #3f3f3f",
"eJ c #404040",
"gG c #41300f",
"ef c #414141",
"cz c #434343",
"b8 c #444444",
"bK c #454545",
"cV c #464646",
"en c #474747",
"dJ c #484848",
"d3 c #494949",
"dE c #4a4a4a",
"fo c #4b3e2c",
"dv c #4b4b4b",
"gg c #4c3914",
"eU c #4c3e23",
"ew c #4c4754",
"dx c #4c4c4c",
"g3 c #4d3a14",
"eo c #4d4d4d",
"db c #4e4e4e",
"dy c #4f4f4f",
"bL c #505050",
"ek c #514950",
"dI c #515151",
"cA c #525252",
"cP c #534f60",
"cS c #535353",
"gn c #543e13",
"gi c #543e14",
"cU c #545062",
"cJ c #545454",
"gz c #553e14",
"gu c #553f14",
"gl c #553f15",
"d# c #555163",
"b9 c #555555",
"gp c #563f14",
"gw c #564015",
"d1 c #56515e",
"ds c #565264",
"gs c #574015",
"gq c #574016",
"gC c #574216",
"gt c #574217",
"eg c #575757",
"gk c #584015",
"gA c #584016",
"gB c #584115",
"gx c #584116",
"gj c #584216",
"cF c #58525a",
"fr c #585766",
"gD c #594116",
"gr c #594217",
"go c #594318",
"cW c #595959",
"gv c #5a4217",
"gy c #5a4418",
"e6 c #5a5868",
"dz c #5a5a5a",
"gh c #5b4317",
"dF c #5b5b5b",
"gI c #5c4212",
"gL c #5c4313",
"gS c #5c4414",
"gm c #5c4418",
"c# c #5c5c5c",
"g2 c #5d4312",
"gX c #5d4413",
"gV c #5d4414",
"g1 c #5d4415",
"gN c #5d4515",
"dA c #5d5d5d",
"gP c #5e4413",
"g0 c #5e4515",
"c. c #5e5e5e",
"gH c #5f4412",
"gQ c #5f4513",
"gY c #5f4514",
"eV c #5f5d6a",
"cC c #5f5f5f",
"gW c #604412",
"gU c #604413",
"gR c #604512",
"gM c #604513",
"cM c #606060",
"gO c #614513",
"gT c #614614",
"gJ c #614715",
"eq c #615f6d",
"cB c #616161",
"gZ c #624513",
"gK c #624514",
"cK c #626262",
"bq c #635a5d",
"cL c #636363",
"eX c #645230",
"gF c #67aa97",
"by c #696269",
"g8 c #6a4f19",
"bG c #6a6263",
"hj c #6b501a",
"g5 c #6c5019",
"hg c #6c511a",
"hd c #6c511b",
"br c #6c666d",
"ha c #6d5019",
"hn c #6d511b",
"h. c #6d531c",
"hm c #6e5119",
"hh c #6e511a",
"hb c #6e521a",
"hk c #6e531c",
"ed c #6e6c78",
"hi c #6f531b",
"em c #6f6f6f",
"ho c #705219",
"g4 c #70521a",
"g9 c #70531a",
"bF c #706358",
"cy c #707070",
"hf c #71521a",
"hc c #71531a",
"hl c #71541a",
"he c #71541b",
"g6 c #71551c",
"h# c #72531a",
"g7 c #73541b",
"cu c #75707b",
"bE c #776954",
"cx c #777ea7",
"eY c #7d7e83",
"b2 c #7f6f5a",
"bx c #806d4e",
"bs c #868287",
"e1 c #88888d",
".C c #8c6f2c",
"ey c #8c94af",
".H c #8d712e",
".K c #8e702c",
".N c #8e702d",
".R c #8e712e",
".t c #8e722e",
".F c #8e722f",
".x c #8f702c",
".G c #8f712c",
".q c #8f712d",
".O c #8f712e",
".o c #8f722e",
".y c #8f732f",
".s c #90722e",
".Q c #90732e",
".B c #90732f",
".w c #907330",
"eZ c #909599",
".L c #91722d",
".J c #91732e",
".v c #91742f",
".A c #917430",
"es c #919196",
".z c #92732e",
".D c #92742f",
".M c #927530",
"b3 c #928f93",
".u c #937430",
".E c #937631",
".I c #947630",
".P c #947631",
".p c #947731",
".r c #947732",
".n c #957832",
"el c #97979a",
"cw c #999bb3",
"e7 c #999c9a",
"e9 c #999e9b",
"ft c #9a7b35",
"fs c #9a7c36",
"fz c #9b7b34",
"#t c #9b7c35",
"#d c #9b7d35",
"fw c #9c7c35",
"fx c #9c7c36",
"#A c #9c7d34",
"#f c #9c7d35",
"#h c #9c7d36",
"#m c #9c7d37",
"#c c #9c7e37",
"#B c #9d7c35",
"#o c #9d7d35",
"fA c #9d7d36",
"#k c #9d7e37",
"#x c #9d7f37",
"#w c #9e7d35",
"fD c #9e7d37",
"#j c #9e7e35",
"#q c #9e7e36",
"fC c #9e7e37",
"#r c #9e7f38",
"#C c #9e8038",
"bp c #9e8445",
"cn c #9f7f36",
"#y c #9f7f37",
"dm c #9f7f38",
"eP c #9f8036",
"#D c #9f8037",
"#p c #9f8038",
"#v c #9f8138",
"#i c #9f8139",
"fE c #a07f37",
"#l c #a08038",
"de c #a08039",
"#s c #a08137",
"cb c #a08138",
"#n c #a08139",
"dc c #a0813a",
"cm c #a08238",
"#z c #a08239",
"ch c #a18036",
"di c #a18038",
"eM c #a18136",
"cc c #a18137",
"#e c #a18138",
"#g c #a18139",
"dn c #a1813a",
"eK c #a18238",
"cp c #a18239",
"dh c #a1823a",
"cf c #a18339",
"dk c #a1833b",
"dr c #a1833c",
"bD c #a18543",
"ce c #a28137",
"dp c #a28138",
"dj c #a28139",
"cq c #a28237",
"cj c #a28238",
"#u c #a28239",
"fB c #a2823a",
"cr c #a28339",
"eR c #a28439",
"ck c #a2843a",
"eI c #a2a6a1",
"eO c #a38238",
"fu c #a3823a",
"fy c #a3833b",
"d4 c #a3833d",
"ca c #a3843a",
"dg c #a3843b",
"do c #a3843c",
"d5 c #a3843d",
"cl c #a3853a",
"ct c #a3853c",
"ci c #a3863a",
"dq c #a4833b",
"cs c #a48439",
"dl c #a4843a",
"dd c #a4843b",
"ec c #a4843c",
"eb c #a4843d",
"be c #a48539",
"ag c #a4853a",
"eT c #a4853b",
"df c #a4853c",
"eN c #a4863a",
"cd c #a4863b",
"cE c #a48842",
"er c #a4a6a5",
"fv c #a5843b",
"bn c #a5853a",
"e# c #a5853c",
"d6 c #a5853d",
"e. c #a5853e",
"#V c #a5863a",
"eL c #a5863b",
"ba c #a5863c",
"aR c #a5863f",
"eQ c #a5873b",
"cg c #a5873c",
"eS c #a5883c",
"cO c #a58841",
"bh c #a68539",
"d7 c #a6853d",
"bb c #a68639",
"at c #a6863a",
"d9 c #a6863e",
"aS c #a6863f",
"bj c #a6873a",
"b# c #a6873b",
"bf c #a6873c",
"#6 c #a6883b",
"aq c #a6883c",
"#J c #a6883d",
"bH c #a6a1a5",
"eW c #a6aba6",
"am c #a7863a",
"ea c #a7863e",
"#0 c #a7873a",
"#H c #a7873b",
"co c #a7873c",
"a3 c #a7873e",
"d8 c #a7873f",
"#F c #a7883b",
"af c #a7883c",
"#9 c #a7883d",
"dB c #a7883e",
"cD c #a7893c",
"#X c #a7893d",
"bd c #a7893e",
"#P c #a8873a",
"bc c #a8873b",
"aU c #a8873f",
"a7 c #a88740",
"bl c #a8883a",
"#U c #a8883c",
"a9 c #a8883f",
"aW c #a88840",
"au c #a8893c",
"#M c #a8893d",
"aj c #a8893e",
"a5 c #a88940",
"#Y c #a88a3d",
"aa c #a88a3e",
"#S c #a88a3f",
"d2 c #a8a9a9",
"#L c #a9883a",
"ac c #a9883b",
"aX c #a9883f",
"b. c #a98840",
"a# c #a9893b",
"a1 c #a98940",
"a8 c #a98941",
"bo c #a98a3c",
"#2 c #a98a3d",
"bv c #a98a3e",
"a0 c #a98a41",
"ej c #a98b3d",
"#T c #a98b3e",
"ae c #a98b3f",
"dC c #a98c40",
"ex c #a9aca9",
"#R c #aa883b",
"#5 c #aa893b",
"bg c #aa893d",
"aY c #aa8940",
"a6 c #aa8941",
"bi c #aa8a3c",
"aH c #aa8a3d",
"aT c #aa8a41",
"e4 c #aa8b3c",
"e3 c #aa8b3d",
"ap c #aa8b3e",
"#1 c #aa8b3f",
"aZ c #aa8b42",
"bC c #aa8c3e",
"#Q c #aa8c3f",
"ad c #aa8c40",
"ei c #aa8d3f",
"cT c #aa8d40",
"ee c #aaacac",
"et c #aaaeae",
"aC c #ab8a3d",
"a2 c #ab8a40",
"aV c #ab8a41",
"#Z c #ab8b3d",
"bw c #ab8b3e",
"a4 c #ab8b42",
"#3 c #ab8c3d",
"bk c #ab8c3e",
"#E c #ab8c3f",
"dL c #ab8c40",
"aM c #ab8c41",
"ab c #ab8d3f",
"a. c #ab8d40",
"ep c #ab8e3f",
"ak c #ab8e40",
"ai c #ac8b3e",
"#N c #ac8c3e",
"aO c #ac8c3f",
"aA c #ac8c41",
"an c #ac8d3e",
"#4 c #ac8d3f",
"#K c #ac8d40",
"aJ c #ac8d41",
"dZ c #ac8d42",
"#O c #ac8e40",
"eh c #ac8e41",
"aF c #ac8e42",
"d0 c #ac8e44",
"ay c #ad8c3d",
"aK c #ad8c3e",
"#G c #ad8d3e",
"dN c #ad8d3f",
"bm c #ad8e3e",
"#I c #ad8e40",
"dP c #ad8e41",
"dS c #ad8e42",
"al c #ad8f40",
"bu c #ad8f41",
"aQ c #ad9042",
"aE c #ae8d3e",
"dR c #ae8d3f",
"ar c #ae8e3e",
"#7 c #ae8e3f",
"ao c #ae8e40",
"#W c #ae8e41",
"dY c #ae8e42",
"as c #ae8f40",
"#8 c #ae8f41",
"aD c #ae8f42",
"dV c #ae8f43",
"ax c #ae9043",
"e8 c #aeb2ac",
"bt c #af8e3f",
"dU c #af8e40",
"aL c #af8e41",
"fU c #af8e43",
"eB c #af8e45",
"aN c #af8f40",
"az c #af8f41",
"cY c #af8f44",
"bN c #af8f45",
"eA c #af8f46",
"cN c #af9041",
"dW c #af9043",
"eG c #af9046",
"aB c #af9143",
"dQ c #af9144",
"e2 c #afb3ad",
"ah c #b09041",
"aP c #b09042",
"c6 c #b09044",
"eF c #b09045",
"av c #b09143",
"dT c #b09244",
"d. c #b09248",
"fP c #b18e42",
"aG c #b19041",
"aw c #b19042",
"c3 c #b19043",
"b0 c #b19045",
"bZ c #b19046",
"aI c #b19143",
"bM c #b19146",
"eE c #b19147",
"dK c #b19243",
"dO c #b19244",
"f3 c #b28f43",
"bP c #b29045",
"dM c #b29142",
"cZ c #b29144",
"bT c #b29145",
"bR c #b29146",
"bU c #b29147",
"dX c #b29244",
"c0 c #b29245",
"bY c #b29247",
"c9 c #b29346",
"f5 c #b39045",
"c1 c #b39144",
"b1 c #b39145",
"bX c #b39146",
"c7 c #b39246",
"eD c #b39247",
"eC c #b39248",
"fn c #b39346",
".T c #b39347",
"bS c #b39348",
"c5 c #b49244",
"g. c #b49246",
"bV c #b49247",
".1 c #b49346",
".6 c #b49347",
"bQ c #b49348",
"c4 c #b49447",
"c8 c #b49448",
"bW c #b49449",
"cX c #b49547",
"fY c #b59144",
"fG c #b59244",
"fL c #b59245",
"fJ c #b59246",
".3 c #b59346",
"bO c #b59347",
".X c #b59446",
".V c #b59447",
".7 c #b59547",
".5 c #b59548",
"c2 c #b59648",
"ga c #b69245",
"f1 c #b69346",
".m c #b69447",
".f c #b69448",
".8 c #b69546",
".Z c #b69547",
".0 c #b69648",
"## c #b69649",
"fN c #b79346",
".k c #b79448",
".4 c #b79547",
".g c #b79548",
"ff c #b79647",
"#a c #b79649",
".S c #b79749",
".Y c #b7974a",
"fS c #b89447",
".b c #b89548",
".e c #b89549",
".i c #b89648",
".j c #b89649",
"fc c #b89748",
".d c #b89749",
"#b c #b8974a",
".W c #b8984a",
".2 c #b8984b",
"fW c #b99548",
".h c #b99649",
"fj c #b99748",
".l c #b99749",
".U c #b99849",
"fi c #b9984a",
"#. c #b9994a",
".9 c #b9994b",
".c c #ba9749",
".a c #ba974a",
"fk c #ba994a",
"fm c #ba994b",
"fg c #ba9a4b",
"fb c #ba9a4c",
"f8 c #bb9748",
"fZ c #bb9849",
"fd c #bb994a",
"fa c #bb9b4c",
"fe c #bb9b4d",
"fh c #bc9a4b",
"f# c #bc9b4b",
"f. c #bc9c4c",
"fl c #bc9c4d",
"f9 c #be9a4a",
".# c #be9a4e",
"Qt c #be9b4f",
"fF c #bf9c4b",
"fQ c #c09a4a",
"f0 c #c09c4d",
"bJ c #c0c5d2",
"fT c #c19c4c",
"f7 c #c19c4d",
"f6 c #c29d4c",
"fM c #c29d4e",
"fR c #c39e4f",
"f4 c #c5a050",
"g# c #c6a150",
"fK c #c7a150",
"fX c #c7a251",
"fH c #c9a454",
"b7 c #c9cbce",
"fI c #caa351",
"fV c #caa452",
"fO c #cba554",
"f2 c #cca654",
"b4 c #d5d3d4",
"dD c #d8d7df",
"bB c #dcdae0",
"cv c #dcdce0",
"dG c #dfdee2",
"cG c #e3e3e8",
"da c #e3e3eb",
"dt c #e4e4eb",
"dw c #e6e5ec",
"cQ c #e7e7ed",
"bz c #e9e8ea",
"bA c #f6f8ef",
"bI c #f9f9f8",
"b6 c #fffefd",
"b5 c #ffffff",
"Qt.#.a.b.c.d.e.f.g.h.i.j.k.g.h.h.h.g.k.b.l.j.e.m.k.h.i.j.k.g.j.l.j.g.f.b.l.d.e.f",
".n.o.p.q.r.s.t.q.t.u.v.w.x.y.z.A.B.C.D.q.E.v.F.G.H.I.J.B.K.A.L.M.B.N.B.O.P.Q.R.L",
".S.T.U.V.W.X.Y.Z.0.d.1.2.3.Y.4.5.S.6.U.1.W.7.Y.8.0.i.6.9.3#..V###a.5.d.Z#b.V.Y.4",
"#c#d#e#f#g#h#i#j#k#l#m#n#o#p#q#r#p#h#s#t#u#k#v#w#x#y#m#z#A#n#B#p#C#k#D#h#n#h#p#j",
"#E#F#G#H#I#J#K#L#M#N#J#O#P#Q#R#S#T#U#G#V#W#X#K#L#Y#Z#J#O#P#O#0#1#T#2#3#F#4#J#E#5",
"#E#6#7#0#8#9a.a##X#Naaa.#0abacadaeaf#7agah#Ma.a##Yaiajak#0alam#K#T#Man#0ao#X#Q#5",
"ab#6#7#H#I#Xa.ac#Yapaa#O#0aba#ae#Qaqar#Vas#Ma.a##T#Zaj#O#0alat#Eaeau#N#F#4#X#Q#5",
"av#1awaiav#Kaxay#KazaAaBaCaDaEaFaD#1aGaHaIaJaxaK#KaLaMaB#ZavaiaDaD#EaNaOaPaAaQaE",
"aRaSaTaUaVaWaTaXaWaYaWaZaUa0aXa1aTaUa2a3a4aWaTaXa5a6a7aZaUaTaUa8a8aWaYa9aVa9a5b.",
"apb##3at#Eba#Q#0afaCbaadbb#Tbcbdaab##Zbe#Kbf#Q#P#Xbgba#Ebbabbhaabd#Ubibjbkba#Tbl",
"ab#Fbm#0as#9a.#L#XaKbdak#P#Q#R#Qaeaf#Gbnaz#Mak#L#Yai#M#O#0#O#0ab#Tbo#3#Hbpbqbrbs",
"#4#6bt#Hbu#9a.a##Ybkbv#O#P#4a##1#Qaq#7bnaz#Ma.#5#2bwaj#O#0#8am#K#1auaKbxbybzbAbB",
"abb##Gbc#O#9ad#L#Mbwajak#0bC#5ae#1aqaK#V#I#Yad#L#Y#Z#Ma.#0#O#0bDbEbFbGbHbIbJbKbL",
"bMbNbObPbQbRbSbTbUbVbRbWbP.TbXbYbQbZbOb0bQbYbSb1bYbVbMbWb0bSb2b3b4b5b6b7b8b9c.c#",
"cacbatccb#cbcdcecfbn#ncgchcicjckclcm#Vcncocpcdcqcrcs#nct#ccucvcwcxcyczcAc#cBc.cC",
"#Eaf#G#H#I#9#KblcD#N#Jak#PbC#Raeaeaf#Gbn#8#X#Kac#Ybw#9cEcFcGb8cHcIcJc#cBcKcLcLcM",
"abb##7#0#8#9a.a##Y#Naaa.#Paba#ad#1af#7bncNaja.#5#YaiajcOcPcQcHcRcScKcLcBcLcLcLcB",
"#Eb##G#H#O#9cT#L#M#Zaaa.#0#Ea#ae#1aq#G#V#I#McTac#YaH#McOcUcQcIcVcAcWcCcLcLcLcLcB",
"cXcY.ZcZ.5c0cXc1c0.XbRc2c3c4c5bY.Vc6.8c3.5c7c8c1c9.1bMd.d#dacHdbcAb9cWcBcKcLcLcB",
"dc#pdddedf#ndg#edhdddcdfdidgdjdkdg#ndldmbadndodpdhdqdcdrdsdtdubLcAdvcWc#cBcLcLcB",
"#Eaf#G#F#I#J#K#L#Y#N#J#K#PbCacae#T#U#G#V#W#X#Kac#2bw#JaddsdwdudxbLdbdydzdAcMcMcB",
"#Eb##7#0#8#9a.ac#XaKaaak#Pabac#Qaeaf#7agcNbda.#5#2aidBdCd#dDcHczbLdydEb9cWdFcMcB",
"#4#6#7#H#I#9a.ac#Y#Zaaak#0#4a#ae#1af#7#V#8aja.a##2aHdBcOcUdGdHdHdIdydvdJbLcWdAcB",
"dKdLdMdNdOdPdQdRdPawdSdT#NaBdUdVdWdLdMbwdXdYdQdRdPaPdZd0d1d2cKcId3dydydEd3b9dzdz",
"d4d5aUd6aWd7d8d7d9aUe.a9e#d8eaaSd8d6aUebaWd9d8d7d9d8e.aWecedeedHefdbdydbd3d3egdz",
"abaf#G#H#Iaq#Kac#Y#N#Jeh#Peiac#S#1af#Gatao#X#Kacejbw#J#O#0ekelemcIendvdydEeoeocW",
"#E#F#G#0#8#9a.#L#XaKbdak#PbCac#1aeaf#Gbnaz#Xepac#Yaibd#O#0abeqerdIcRdJdydydybLcJ",
"ab#6#7#0#8#Xa.a##2bkaa#O#P#4ac#Q#Qaf#7bn#8aja.#5#2#Zaj#O#0#8bjeseteuevd3dybLcJcJ",
"abb##Gbc#I#X#Q#L#M#Zaja.#0#Q#5ae#1bf#G#V#IaacT#L#Y#Z#Mak#0#K#0ewexeyezeveocJcJcJ",
"eAeB.6b0bSbReCbPbReDbMbQbPeDbTeEeCbZ.6eFbSbUbSbTbUeDbZc8b0bQb0eGeHeId3dueJcAcJcJ",
"cdeKatccbfcmeLcqcfat#zbfeMeNeOckcleKateP#9cpeQcqeRbn#neSeMbfcceTeUeVeWeuevefcAcJ",
"#E#F#G#H#I#9#Kbl#X#N#J#O#PbC#Rae#Taf#Gbn#8#X#4#L#Ybw#9#O#0#Oam#Q#TeXeYeZcIcReJeo",
"abb##7#0az#9a.a##M#Nbvak#0abac#Qaeaf#7agah#Ma.#5#Yaiaj#O#0alam#K#T#Fe0e1e2cMcIeu",
"abb##G#H#I#Xeiac#Yapaaak#0#Eacaeaeaq#G#V#I#McTac#2e3ajak#0#Oam#E#Taue4e5e6e7e8e9",
"f.c2f#.ifa.Wfbfc.Wfd#bfefffg.c.2fg##fh.gfafifbfjfifk.Yflfffa.ifmfg.dfdfnfofpfqfr",
"fsftfu#kfvfwdnfw#rfufxfyfz#n#ldm#g#hdifxfvfAdhfw#rfBfxfyfzfBfCdi#lfDfE#kdq#h#g#B",
"fFfGfHb1fIfJfKfL.cfMfNfOfPfM.kfQfRfSfTfUfVfWfXfYfZf0f1f2f3f4f5f6f7f8f9g.fKfNg#ga",
"gbgcgdgegfggghgigjgkglgmgngogpgqgrgsgtgugvgwghgugxgkglgmgngygzgAgrgBgCgpgDglghgz",
"gEgEgFgFgEgGgHgIgJgKgLgMgHgNgOgPgQgRgSgTgUgVgWgXgYgZgXgHgHg0gOgPgQgRg1gMgOgVgHg2",
"gEgEgFgFgEg3g4g5g6g7g8g9g4h.h#hahbhchdhehfhghfhhhig7hjg4g4hkhlhmhbhchnhch#hjhohb"};
