/* XPM */
static char *dummy[]={
"40 40 202 2",
"Qt c None",
"ac c #c3a16d",
"#6 c #c5a370",
"an c #c6a46e",
"a6 c #c2a06d",
"a7 c #c6a46e",
"aw c #c2a06e",
".y c #780401",
"aT c #c4a26d",
"aH c #c5a36f",
"a8 c #c7a46f",
".g c #700100",
".e c #6b0000",
".z c #e04310",
".A c #f47d13",
".c c #6c0000",
".# c #7c0000",
".X c #a51005",
".Y c #e65811",
".Z c #f88e1b",
".n c #6f0100",
".p c #830200",
".l c #880100",
".r c #8a0301",
".I c #9a0902",
"#Y c #c2a06d",
"#Z c #c5a46c",
"#0 c #c6a471",
".w c #820401",
".u c #8b0400",
".B c #aa2109",
".H c #980a02",
".h c #d6380f",
".i c #f17912",
".F c #8e0601",
".D c #9d0701",
"#h c #b61907",
".j c #e67b21",
".R c #ab0e03",
".J c #e44d10",
".K c #f58114",
".O c #9c0d03",
".M c #a90c02",
".Q c #ae1404",
"#i c #e96711",
"#j c #f5831a",
".W c #aa1b06",
".U c #ad1104",
"ax c #c09f68",
"az c #aa8f46",
"ay c #ad924a",
".0 c #c32a0c",
"#c c #bd2609",
".8 c #ab1606",
".1 c #b51405",
".L c #d9611c",
"#H c #bc1d07",
".s c #d93c0d",
".t c #f37912",
"#w c #b41d07",
"#q c #b41705",
"#C c #c62a0b",
".S c #e35710",
".T c #f47b15",
"#S c #be2d09",
"#k c #dd591a",
"#O c #b71e08",
"#1 c #c42a10",
"#I c #ea6911",
"ad c #a79139",
"ao c #a9913f",
"#7 c #ae9250",
"aA c #a48e34",
"aU c #a28d34",
"aI c #a38d3a",
"a9 c #a79239",
".E c #dd450e",
".f c #d44410",
"aK c #8b7d13",
"aJ c #928317",
"#8 c #938123",
"#9 c #998332",
"af c #998824",
"aN c #9a8a20",
"aq c #9b8726",
"ae c #9c8f18",
"aZ c #9d8a2a",
"bc c #9e8b27",
"ap c #9e9218",
"aV c #a19418",
"bb c #a29718",
"aL c #a2971e",
"aC c #a38f29",
"b. c #a39719",
"aB c #a3971a",
"aY c #a49818",
"aW c #a5991a",
"aX c #a59a17",
"aM c #a89d1a",
"ba c #aa9f1c",
"b# c #b0a31e",
"ag c #b43316",
"aO c #b93317",
"a0 c #bb3919",
"a. c #be3418",
"aD c #bf371a",
".d c #c8320c",
"ar c #c8451c",
"bd c #c9431d",
".a c #cb2c0a",
".o c #d13b0c",
".m c #d2350b",
".v c #d84410",
".N c #df5614",
".x c #e05211",
".G c #e05313",
".k c #e1561a",
".V c #e26318",
".P c #e35e14",
".q c #e65a1b",
".2 c #e66013",
".C c #eb621f",
".3 c #ff2625",
".b c #ff2626",
".4 c #ff2725",
".5 c #ff2825",
".6 c #ff2925",
".9 c #ff2a24",
".7 c #ff2a25",
"#. c #ff2b24",
"## c #ff2c24",
"#a c #ff2d24",
"#b c #ff2e24",
"#l c #ff2f23",
"#d c #ff2f24",
"#e c #ff3023",
"#f c #ff3123",
"#g c #ff3223",
"#m c #ff3323",
"#n c #ff3422",
"#o c #ff3522",
"#p c #ff3622",
"#r c #ff3722",
"#t c #ff3821",
"#s c #ff3822",
"#u c #ff3921",
"#v c #ff3a21",
"#x c #ff3b21",
"#y c #ff3c21",
"#A c #ff3d20",
"#z c #ff3d21",
"#B c #ff3e20",
"#D c #ff3f20",
"#E c #ff4020",
"#F c #ff4120",
"#G c #ff421f",
"#J c #ff431f",
"#K c #ff441f",
"#L c #ff451f",
"#N c #ff461e",
"#M c #ff461f",
"#T c #ff471e",
"#P c #ff481e",
"#Q c #ff491e",
"#R c #ff4a1e",
"#U c #ff4b1d",
"#V c #ff4c1d",
"#W c #ff4d1d",
"#X c #ff4e1d",
"#2 c #ff4f1d",
"#3 c #ff501c",
"#4 c #ff511c",
"#5 c #ff521c",
"ah c #ff531c",
"a# c #ff541c",
"aa c #ff551b",
"ab c #ff561b",
"ai c #ff571b",
"aj c #ff581b",
"ak c #ff591a",
"al c #ff5a1a",
"am c #ff5b1a",
"as c #ff5c1a",
"at c #ff5d1a",
"au c #ff5e19",
"av c #ff5f19",
"aE c #ff6019",
"aF c #ff6119",
"aG c #ff6219",
"aP c #ff6318",
"aQ c #ff6418",
"aR c #ff6518",
"aS c #ff6618",
"a1 c #ff6717",
"a2 c #ff6817",
"a3 c #ff6917",
"a4 c #ff6a17",
"a5 c #ff6b17",
"be c #ff6c16",
"bf c #ff6d16",
"bg c #ff6e16",
"bh c #ff6f16",
"QtQtQtQtQtQtQtQtQtQtQtQtQtQtQtQtQtQtQtQtQtQtQtQtQtQtQtQtQtQtQtQtQtQtQtQt.#.a.b.b",
"QtQtQtQtQtQtQtQtQtQtQtQtQtQtQtQtQtQtQtQtQtQtQtQtQtQtQtQtQtQtQtQtQtQtQtQt.c.d.b.b",
"QtQtQtQtQtQtQtQtQtQtQtQtQtQtQtQtQtQtQtQtQtQtQtQtQtQtQtQtQtQtQtQtQtQtQtQt.e.f.b.b",
"QtQtQtQtQtQtQtQtQtQtQtQtQtQtQtQtQtQtQtQtQtQtQtQtQtQtQtQtQtQtQtQtQt.g.h.i.j.k.b.b",
"QtQtQtQtQtQtQtQtQtQtQtQtQtQtQtQtQtQtQtQtQtQtQtQtQtQtQtQtQtQtQtQtQt.l.m.b.b.b.b.b",
"QtQtQtQtQtQtQtQtQtQtQtQtQtQtQtQtQtQtQtQtQtQtQtQtQtQtQtQtQtQtQtQtQt.n.o.b.b.b.b.b",
"QtQtQtQtQtQtQtQtQtQtQtQtQtQtQtQtQtQtQtQtQtQtQtQtQtQtQtQtQtQtQtQtQt.p.q.b.b.b.b.b",
"QtQtQtQtQtQtQtQtQtQtQtQtQtQtQtQtQtQtQtQtQtQtQtQtQtQtQtQtQtQt.r.s.t.b.b.b.b.b.b.b",
"QtQtQtQtQtQtQtQtQtQtQtQtQtQtQtQtQtQtQtQtQtQtQtQtQtQtQtQtQtQt.u.v.b.b.b.b.b.b.b.b",
"QtQtQtQtQtQtQtQtQtQtQtQtQtQtQtQtQtQtQtQtQtQtQtQtQtQtQtQtQtQt.w.x.b.b.b.b.b.b.b.b",
"QtQtQtQtQtQtQtQtQtQtQtQtQtQtQtQtQtQtQtQtQtQtQtQtQtQtQt.y.z.A.B.C.b.b.b.b.b.b.b.b",
"QtQtQtQtQtQtQtQtQtQtQtQtQtQtQtQtQtQtQtQtQtQtQtQtQtQtQt.D.E.b.b.b.b.b.b.b.b.b.b.b",
"QtQtQtQtQtQtQtQtQtQtQtQtQtQtQtQtQtQtQtQtQtQtQtQtQtQtQt.F.G.b.b.b.b.b.b.b.b.b.b.b",
"QtQtQtQtQtQtQtQtQtQtQtQtQtQtQtQtQtQtQtQtQtQtQtQtQtQtQt.H.b.b.b.b.b.b.b.b.b.b.b.b",
"QtQtQtQtQtQtQtQtQtQtQtQtQtQtQtQtQtQtQtQtQtQtQtQt.I.J.K.L.b.b.b.b.b.b.b.b.b.b.b.b",
"QtQtQtQtQtQtQtQtQtQtQtQtQtQtQtQtQtQtQtQtQtQtQtQt.M.N.b.b.b.b.b.b.b.b.b.b.b.b.b.b",
"QtQtQtQtQtQtQtQtQtQtQtQtQtQtQtQtQtQtQtQtQtQtQtQt.O.P.b.b.b.b.b.b.b.b.b.b.b.b.b.b",
"QtQtQtQtQtQtQtQtQtQtQtQtQtQtQtQtQtQtQtQtQtQtQtQt.Q.b.b.b.b.b.b.b.b.b.b.b.b.b.b.b",
"QtQtQtQtQtQtQtQtQtQtQtQtQtQtQtQtQtQtQtQtQt.R.S.T.b.b.b.b.b.b.b.b.b.b.b.b.b.b.b.b",
"QtQtQtQtQtQtQtQtQtQtQtQtQtQtQtQtQtQtQtQtQt.U.V.b.b.b.b.b.b.b.b.b.b.b.b.b.b.b.b.b",
"QtQtQtQtQtQtQtQtQtQtQtQtQtQtQtQtQtQtQtQtQt.W.b.b.b.b.b.b.b.b.b.b.b.b.b.b.b.b.b.b",
"QtQtQtQtQtQtQtQtQtQtQtQtQtQtQtQtQtQt.X.Y.Z.0.b.b.b.b.b.b.b.b.b.b.b.b.b.b.b.b.b.b",
"QtQtQtQtQtQtQtQtQtQtQtQtQtQtQtQtQtQt.1.2.b.b.b.b.b.b.b.b.b.b.b.3.4.5.5.6.6.7.7.7",
"QtQtQtQtQtQtQtQtQtQtQtQtQtQtQtQtQtQt.8.b.b.b.b.b.b.b.b.3.4.5.6.9#.#######a#b#b#b",
"QtQtQtQtQtQtQtQtQtQtQtQtQtQtQtQtQtQt#c.b.b.b.b.b.b.5.5.7#.###a#b#d#e#e#f#f#f#g#g",
"QtQtQtQtQtQtQtQtQtQtQtQtQtQtQt#h#i#j#k.b.b.b.3.5.7#.###b#l#e#f#g#m#m#n#o#p#p#p#p",
"QtQtQtQtQtQtQtQtQtQtQtQtQtQtQt#q.b.b.b.b.4.5.9###a#d#e#f#m#n#o#p#r#s#t#u#u#v#v#v",
"QtQtQtQtQtQtQtQtQtQtQtQtQtQtQt#w.b.b.3.5.9###b#l#f#m#n#p#r#s#u#v#x#y#z#z#A#B#B#B",
"QtQtQtQtQtQtQtQtQtQtQtQtQtQtQt#C.b.5.7###b#e#f#m#o#p#s#u#v#y#z#B#D#D#E#F#F#F#G#G",
"QtQtQtQtQtQtQtQtQtQtQtQt#H#I.b.4.6#.#a#l#f#m#o#r#t#v#y#A#D#D#F#F#J#K#K#L#M#M#N#N",
"QtQtQtQtQtQtQtQtQtQtQtQt#O.b.5.7###d#f#m#o#r#t#v#z#B#D#F#G#K#L#M#N#P#P#Q#Q#R#R#R",
"QtQtQtQtQtQtQtQtQtQtQtQt#S.5#.#a#l#g#n#p#t#v#z#B#E#F#J#L#N#T#P#R#R#U#V#W#W#X#X#X",
"QtQtQtQtQtQtQtQtQt#Y#Z#0#1#.#b#f#m#o#s#v#y#B#E#F#K#L#T#P#R#U#W#W#2#2#3#4#4#5#5#5",
"QtQtQtQtQtQtQtQt#6#7#8#9a.#d#f#m#p#t#x#A#D#F#K#M#T#Q#R#V#W#2#3#4#5a#a#aaabababab",
"QtQtQtQtQtQtQtQtacadaeafag#f#n#r#u#y#B#F#J#L#T#Q#R#W#X#3#4aha#aaabaiajakakalamam",
"QtQtQtQtQtQtQtQtanaoapaqar#o#r#v#z#D#F#K#N#P#R#W#2#3#5a#aaabajakamamasatatauauav",
"QtQtQtQtQtawaxayazaAaBaCaD#s#v#A#D#G#L#T#Q#V#X#3#5a#abaiakamasatauavaEaFaGaGaGaG",
"QtQtQtQtQtaHaIaJaKaLaMaNaO#v#A#E#J#M#P#R#W#2#4a#abaiakamatauavaFaGaPaQaRaSaSaSaS",
"QtQtQtQtQtaTaUaVaWaXaYaZa0#A#E#J#M#P#U#W#3#5a#aiakamatavaEaGaQaRaSa1a2a3a3a4a5a5",
"QtQtQta6a7a8a9b.b#babbbcbd#E#J#N#P#U#X#4ahabajamatavaEaGaQaSa1a3a4a5bebfbfbgbgbh"};
