/* XPM */
static char *dummy[]={
"40 40 561 2",
"Qt c None",
"dC c #c19f6e",
"dW c #c3a26b",
"dp c #c4a16c",
"dV c #c4a16e",
"dX c #c5a36d",
"da c #c6a56e",
"cY c #c3a16e",
"bc c #c3a16a",
"bb c #c4a26e",
"cr c #c1a06a",
"cF c #c3a16f",
"cb c #c9a66f",
"bW c #c19f6d",
".# c #c19f6d",
"bF c #c3a16d",
".I c #c5a46e",
"bp c #c6a56c",
".2 c #c7a46e",
"bd c #c3a365",
"fe c #c3a16f",
"ff c #be9f5f",
"fg c #c5a469",
"cZ c #c3a16d",
"gw c #c3a16e",
"c0 c #b89b55",
"c1 c #c8a768",
"#i c #c1a262",
"#h c #c4a26d",
"#j c #c4a366",
"ex c #bf9e66",
"gB c #b59c48",
"gF c #bea058",
"gN c #c2a35d",
"gx c #b3984c",
"gy c #b69d4b",
"fN c #bf9f67",
"ey c #aa943d",
"ez c #b99e4c",
"f5 c #b19a41",
"gh c #b39a47",
"gq c #ba9d5a",
"bY c #a79236",
"bX c #ba9c5c",
"bZ c #baa04a",
"fq c #af993e",
"fA c #b09748",
"fh c #b39a46",
"gz c #bda052",
"eM c #ab9739",
"eX c #ac953d",
"e3 c #b79a59",
"dY c #a69234",
"e# c #ab9637",
"ej c #ae9645",
"dD c #b79b59",
"fO c #a69235",
"fP c #ac9736",
"eA c #af9740",
"dE c #a4922d",
"dF c #af9939",
"dq c #a79137",
"db c #a99633",
"fQ c #b0983f",
".b c #9f8834",
".a c #b39657",
".c c #9c8632",
"c2 c #a89237",
"aZ c #a4932a",
"aY c #b09749",
"a0 c #b29c3a",
"cs c #a69230",
"cc c #a7952f",
"cG c #ad9545",
"dG c #a49032",
"b0 c #a4902f",
"ci c #897a15",
"#E c #8a7b18",
"cl c #8c7a1e",
"eU c #8c7c16",
"dh c #8c7e15",
"gf c #8f7d20",
"gg c #907e20",
"gc c #907e21",
"#D c #90801a",
"cf c #918317",
".L c #928416",
"c5 c #936627",
"fx c #938615",
"g# c #948125",
"eS c #94851b",
"ch c #948618",
"ee c #948716",
"ge c #958420",
"gb c #958421",
"gG c #958716",
"ck c #958718",
"fy c #966124",
"dv c #978719",
"gO c #97891b",
"cN c #98871b",
"d5 c #988725",
"er c #988818",
"cj c #988a1d",
"eF c #994522",
"fn c #997031",
"cz c #998a1b",
"cg c #998a1f",
".K c #998c17",
"eT c #998c1a",
"de c #998d16",
"b4 c #9a4021",
"b7 c #9a4120",
"fm c #9a742d",
"e0 c #9a8d17",
"dg c #9a8d19",
"d6 c #9b8530",
"ae c #9b8825",
"#9 c #9b892a",
"aD c #9b8b21",
"ga c #9b8b25",
"dM c #9b8c1a",
"f# c #9b8e18",
"gp c #9b8e19",
"f6 c #9b8f18",
"eG c #9c492b",
"bM c #9c8827",
"#. c #9c8928",
"aS c #9c8929",
".R c #9c8b24",
"d3 c #9c8f17",
"eR c #9c9016",
"by c #9d8c25",
"gd c #9d8c27",
"aK c #9d8e22",
"fG c #9d8f18",
"gn c #9d8f1a",
"gr c #9d901a",
"gA c #9d901c",
"#F c #9d901e",
"bJ c #9d9117",
"fR c #9d9119",
"d4 c #9e8932",
"#r c #9e8b25",
".J c #9e8b2c",
"#Q c #9e8c26",
".d c #9e8c28",
"a1 c #9e8e26",
"c3 c #9e8f1e",
"cJ c #9e8f20",
"eD c #9e9019",
"gj c #9e9117",
"gk c #9e911b",
"gm c #9e9217",
"fu c #9e9316",
"dP c #9f200e",
"b5 c #9f4125",
"c6 c #9f6b37",
"a6 c #9f8b27",
"#Z c #9f8d28",
".i c #9f8e24",
"ak c #9f8e25",
"em c #9f921a",
"fv c #9f921b",
"fB c #9f9316",
"cy c #9f9317",
"go c #9f9318",
"fw c #9f931a",
"gu c #9f9417",
"#G c #9f9514",
"fX c #a02915",
"b8 c #a0422a",
"eV c #a05a28",
"fH c #a06c31",
".3 c #a08b31",
"e4 c #a09121",
"cH c #a0921b",
"#R c #a09417",
"ed c #a09419",
"fi c #a0941a",
"gC c #a0941b",
".O c #a09517",
"ek c #a09518",
"aN c #a09614",
"e7 c #a09618",
"e1 c #a1602c",
"fl c #a18239",
"#C c #a18a3a",
"be c #a19028",
"fU c #a19419",
"#S c #a1941c",
"eB c #a19519",
"df c #a1951c",
"#I c #a19615",
"bv c #a19618",
"bf c #a19715",
"eZ c #a19716",
"f0 c #a22c16",
"ao c #a28e29",
"gs c #a29419",
"gt c #a2941d",
"fk c #a29619",
"az c #a29717",
"#q c #a29718",
"bs c #a29719",
"bi c #a29815",
"a5 c #a29818",
"f4 c #a32a15",
"f3 c #a32f17",
"b2 c #a3902a",
"av c #a39622",
"dd c #a39717",
"ea c #a39719",
"cw c #a3971a",
"du c #a39816",
"#o c #a39817",
"g. c #a39818",
"fD c #a3981a",
"dZ c #a39915",
".f c #a39916",
"cL c #a39917",
"dK c #a39918",
"b3 c #a44e30",
"ef c #a45426",
"fa c #a45f2c",
"c4 c #a47a3d",
"#k c #a49031",
"bG c #a49131",
"e6 c #a4932a",
"cI c #a49422",
"e5 c #a49423",
"bq c #a49429",
"el c #a4971b",
"ds c #a49817",
"aR c #a49818",
"#l c #a49819",
"aM c #a4981b",
"aP c #a49916",
"eN c #a49917",
"a4 c #a49918",
"aw c #a49919",
"d1 c #a49a15",
"gI c #a49a16",
"e9 c #a49a17",
"en c #a49a18",
"f1 c #a52b16",
"b6 c #a54224",
"fo c #a55b38",
"fV c #a57235",
"#Y c #a59918",
"b1 c #a59919",
"bI c #a5991c",
"aQ c #a59a17",
"br c #a59a18",
".Q c #a59a19",
"dH c #a59a1a",
"ay c #a59b18",
"fW c #a62a14",
".9 c #a69a18",
"bx c #a69a19",
"ab c #a69b18",
".N c #a69b19",
"cu c #a69b1a",
"dr c #a69b1b",
"fF c #a69c17",
"fj c #a69c18",
"#K c #a69c19",
"f8 c #a69c1a",
"fs c #a69c1b",
"fC c #a79a1a",
"gJ c #a79b18",
"bu c #a79b19",
"bH c #a79b1a",
"ct c #a79b1b",
"gM c #a79b1c",
"gi c #a79b1d",
"f7 c #a79c17",
"bh c #a79c18",
".h c #a79c19",
"aC c #a79c1a",
"gl c #a79c1b",
".6 c #a79d18",
"gQ c #a79d19",
"gT c #a79d1a",
"f9 c #a79d1b",
"fY c #a82b16",
"dN c #a8522d",
"gL c #a89c18",
"#U c #a89c19",
".4 c #a89c1a",
"#W c #a89c1b",
"gK c #a89c1c",
".e c #a89d19",
"al c #a89d1a",
"eY c #a89d1b",
"ce c #a89e19",
"aa c #a89e1a",
"aL c #a99c19",
"cx c #a99c1b",
"gH c #a99c1c",
"ec c #a99c1d",
"aO c #a99d19",
"dt c #a99d1a",
"#n c #a99d1b",
"#p c #a99d1c",
".8 c #a99e19",
"fT c #a99e1a",
"eP c #a99e1c",
".M c #a99e1d",
"eQ c #a99f1c",
"dO c #aa260f",
"f2 c #aa3117",
"fZ c #aa3318",
"eH c #aa3923",
"fE c #aa9d1b",
".7 c #aa9e19",
"bK c #aa9e1a",
"cv c #aa9e1b",
"a3 c #aa9e1c",
"an c #aa9e1d",
"#T c #aa9f1a",
"ad c #aa9f1b",
"cM c #aa9f1c",
"di c #ab4920",
"e8 c #ab9e1a",
"a# c #ab9e1c",
"am c #ab9e1d",
"gv c #ab9f19",
"ep c #ab9f1a",
"ac c #ab9f1c",
"eq c #ab9f1d",
".g c #ab9f1e",
"#V c #aba01b",
"d2 c #aba01d",
"bj c #aba01e",
"eb c #aba11d",
"d0 c #aba11e",
"gD c #aba21d",
"es c #ac582c",
"eo c #ac9f1a",
"bL c #ac9f1c",
"a. c #ac9f1d",
"#X c #aca01b",
".5 c #aca01c",
"#m c #aca01d",
"dJ c #aca01e",
"bg c #aca01f",
"ft c #aca11d",
"#J c #aca11f",
"bt c #aca21d",
"eO c #aca21e",
"eE c #ad7640",
"cK c #ada01c",
"eC c #ada01d",
"f. c #ada01e",
"dL c #ada11e",
"bw c #ada21d",
"#H c #ada21f",
"fr c #ada31e",
"cd c #ada320",
"gP c #aea01e",
"dI c #aea11c",
"fS c #aea11e",
"gR c #aea11f",
".P c #aea31e",
"dc c #aea41f",
"c7 c #af3e26",
"cA c #af4323",
"d7 c #af5631",
"a2 c #afa31e",
"aB c #afa520",
"gS c #b0a21f",
"gU c #b0a31e",
"aA c #b0a620",
"dw c #b1512b",
"ax c #b1a620",
"gE c #b1a721",
"cO c #b24422",
"cm c #b54422",
"#0 c #b63518",
"fc c #b82607",
"bz c #b83418",
".S c #b93519",
"aE c #ba3418",
"bN c #bb3015",
"b9 c #bc3116",
"aT c #bc3b19",
"#L c #bd3418",
".j c #bd3518",
"cQ c #be2e09",
"bk c #be3518",
"ap c #be371a",
"dQ c #bf2f10",
"## c #c0421b",
"#s c #c33a1b",
"fb c #c52707",
"a7 c #c8411d",
"af c #c9451d",
"cP c #cb2f0a",
"fd c #cb340b",
"fz c #d84410",
"eu c #d94b0f",
"fI c #da370a",
"fp c #db410f",
"e2 c #db440e",
"eW c #dc4c12",
"et c #dd3e0d",
"cR c #de4f15",
"bS c #df5110",
"d8 c #e04f10",
"bP c #e05210",
"bO c #e15213",
"eg c #e15a15",
"ev c #e25212",
"dj c #e26218",
"cB c #e46818",
"dx c #e55111",
"bQ c #e55914",
"cn c #e66617",
"eI c #e75918",
"c8 c #e75c12",
"bR c #e76619",
"fK c #e85f14",
"fL c #e86115",
"fM c #e96316",
"fJ c #e96a18",
"dy c #ea6a16",
"bl c #eb6b12",
".k c #eb6c12",
".l c #ff461e",
".T c #ff461f",
".U c #ff481e",
".m c #ff491e",
"#a c #ff4b1d",
".n c #ff4c1d",
"#M c #ff4d1d",
"#t c #ff4e1d",
".o c #ff4f1d",
"#1 c #ff501c",
".p c #ff511c",
"ag c #ff521c",
"#2 c #ff531c",
".q c #ff541c",
".r c #ff561b",
".V c #ff571b",
"aq c #ff581b",
".s c #ff591a",
"#b c #ff5a1a",
".t c #ff5b1a",
".W c #ff5c1a",
".u c #ff5d1a",
".X c #ff5f19",
".v c #ff6019",
".Y c #ff6119",
".w c #ff6219",
".Z c #ff6318",
".x c #ff6418",
"#u c #ff6518",
".y c #ff6618",
"#v c #ff6717",
".z c #ff6817",
".A c #ff6917",
"#w c #ff6a17",
".B c #ff6b17",
"#x c #ff6c16",
".C c #ff6d16",
"#y c #ff6e16",
".D c #ff6f16",
".E c #ff7016",
".F c #ff7115",
".G c #ff7215",
".H c #ff7315",
".0 c #ff7415",
"#c c #ff7515",
".1 c #ff7614",
"#3 c #ff7714",
"#d c #ff7814",
"#e c #ff7914",
"#f c #ff7a13",
"#g c #ff7b13",
"aF c #ff7c13",
"#z c #ff7d13",
"#A c #ff7e13",
"#B c #ff7f12",
"#N c #ff8012",
"#4 c #ff8112",
"#O c #ff8212",
"#P c #ff8312",
"#5 c #ff8411",
"#6 c #ff8511",
"#7 c #ff8611",
"#8 c #ff8711",
"ar c #ff8810",
"ah c #ff8910",
"ai c #ff8a10",
"aj c #ff8b10",
"as c #ff8c10",
"a8 c #ff8d0f",
"at c #ff8e0f",
"au c #ff8f0f",
"aG c #ff900f",
"aH c #ff910f",
"aI c #ff920e",
"aJ c #ff930e",
"aU c #ff940e",
"aV c #ff950e",
"aW c #ff960e",
"aX c #ff970d",
"a9 c #ff980d",
"b. c #ff990d",
"b# c #ff9a0d",
"ba c #ff9b0c",
"bA c #ff9c0c",
"bm c #ff9d0c",
"bn c #ff9e0c",
"bo c #ff9f0c",
"bB c #ffa00b",
"bC c #ffa10b",
"bD c #ffa20b",
"bE c #ffa30b",
"co c #ffa40b",
"bT c #ffa50a",
"bU c #ffa60a",
"bV c #ffa70a",
"c. c #ffa909",
"cS c #ffaa09",
"c# c #ffab09",
"ca c #ffac09",
"cT c #ffad09",
"cp c #ffae08",
"cq c #ffaf08",
"cC c #ffb008",
"cD c #ffb208",
"cE c #ffb307",
"cU c #ffb407",
"cV c #ffb507",
"cX c #ffb706",
"cW c #ffb707",
"dk c #ffb806",
"c9 c #ffb906",
"d. c #ffba06",
"dl c #ffbb06",
"d# c #ffbc05",
"dm c #ffbd05",
"dn c #ffbe05",
"do c #ffbf05",
"dz c #ffc004",
"eJ c #ffc005",
"dR c #ffc104",
"dA c #ffc204",
"dB c #ffc304",
"dS c #ffc404",
"dT c #ffc603",
"dU c #ffc703",
"d9 c #ffca02",
"e. c #ffcb02",
"eh c #ffcc02",
"ei c #ffcf01",
"eK c #ffd001",
"ew c #ffd201",
"eL c #ffd400",
"QtQt.#.a.b.c.d.e.f.g.h.i.j.k.l.m.n.o.p.q.r.s.t.u.v.w.x.y.z.A.B.C.C.D.E.F.G.G.G.H",
"QtQt.I.J.K.L.M.N.O.P.Q.R.S.T.U.n.o.p.q.V.s.W.X.Y.Z.y.z.A.B.C.D.E.G.H.0.0.1.1.1.1",
"QtQt.2.3.4.5.6.7.5.8.9#.##.U#a.o.p.q.V#b.u.X.w.x.y.A.B.C.D.F.G.0#c.1#d#e#e#f#g#g",
"#h#i#j#k#l#m#n#o.5#p#q#r#s#a#t.p.q.V#b.u.X.w#u#v#w#x#y.E.G.0.1#d#e#g#g#z#z#A#B#B",
"#C#D#E#F.e#G#H.e#I#J#K.i#L#M.p.q.V#b.u.X.w#u.z.B.C.D.G.0.1#d#f#g#z#A#N#N#O#O#O#P",
"#Q#R#S#T#U#p#V#U#W#X#Y#Z#0#1#2.r.s.u.X.w.y.A.B.C.E.H#c#3#e#g#z#B#4#O#5#5#6#7#8#8",
"#9#Ua.#K.ea#aaabacad#oaeafag.r.s.W.X.w#u.A.B#y.F.0.1#e#g#z#B#4#P#5#7#8ahahaiajaj",
"akal.ham.N.ham.N.ean.Qaoap.qaq.t.X.w#u.z.B#y.F.0.1#e#g#A#N#O#5#8araiajasatatauau",
"av#oawaxayazaA.hazaBaCaDaE.V.t.u.Y.x#v.B.C.F.0.1#eaF#B#O#5#7araiasatauaGaHaIaIaJ",
"aKaLaMaNaO#WaP#U#WaQaRaSaT.s.u.v.Z.y#w.C.E.0.1#eaF#B#O#5#8ahajataGaHaIaUaVaWaXaX",
"aYaZa0a1ala2a3a4a2aca5a6a7.t.X.w.y.A#x.D.H.1#eaF#B#O#6#8aia8auaHaJaVaXa9b.b#baba",
"bbbcbdbeabbfbgbhbibj.N.ibkbl.v.x.z.B#y.G#c#e#g#B#O#6arajataGaIaUaXb.b#babmbnbobo",
"QtQtbpbqbrbsbtbubvbwbxbybz.X.w.y.A.C.E.0#3#g#A#O#5#8ajataGaJaVa9b#bAbnbBbCbDbDbE",
"QtQtbFbGbHbIbJbKbL#T.9bMbNbObPbQbRbS.G.1#e#z#N#5#8aiataGaJaWb.babnbBbDbEbTbUbVbV",
"QtQtbWbXbYbZb0b1.5#p#qb2b3b4b5b6b7b8b9#d#g#B#O#7aha8aGaJaWb.babnbCbEbTbVc.c.c#ca",
"QtQtQtQtQtcbcc.N#Icdcecfcgchcicjckclcmcn#z#4#5arajauaIaVb.babobDcobVc.c#cacpcpcq",
"QtQtQtQtQtcrcs.hctaabucucv#RcwcxcyczcAcB#B#P#8aiataHaUa9babnbDbTbVc.cacpcCcDcEcE",
"QtQtQtQtQtcFcGcHcIcJa4cKcvcLcKcMa4cNcOcPcQcRarasaGaJaXb#bnbCcobVcScTcCcDcUcVcWcX",
"QtQtQtQtQtcYcZc0c1c2aCbh.gbr.6a..Nc3c4c5c6c7c8ataHaVb.bAbBbEbVc.cTcCcEcVcXc9d.d#",
"QtQtQtQtQtQtQtQtdadbb1azdc.4dddcaCdedfdgdhdidjauaIaXb#bnbDbTc.cacCcEcVdkdldmdndo",
"QtQtQtQtQtQtQtQtdpdqaRdrazdscv#U#odtdtdudvdwdxaGdya9babBbEbVc#cpcDcVdkd#dndzdAdB",
"QtQtQtQtQtQtQtQtdCdDdEdFdGdHdIdJdK#XdLa4dMdNdOdPdQb.bmbCbTc.cacCcUcXdldndRdSdTdU",
"QtQtQtQtQtQtQtQtQtdVdWdXdYbvdZd0brd1d2.Qd3d4d5d6d7d8bnbDbUc.cpcDcVc9dmdzdSdUd9e.",
"QtQtQtQtQtQtQtQtQtQtQtQte#eaawebbxb1bwcubvecedeeefegbobDbVc#cpcEcWd.dndAdTd9ehei",
"QtQtQtQtQtQtQtQtQtQtQtQtejekelemeneo#mayepeq.6ereseteuevbVcacqcEcXd#dodBdUe.eiew",
"QtQtQtQtQtQtQtQtQtQtQtQtexeyezeAeBdteCaz.heC#qeDeEeFeGeHeIcacCcEcXd#eJdSdUeheKeL",
"QtQtQtQtQtQtQtQtQtQtQtQtQtQtQteMcweNeOePaQebeQeReSeTeUeVeWcacqcEcXd#dodBdUe.eiew",
"QtQtQtQtQtQtQtQtQtQtQtQtQtQtQteXcyaleY#odta3eN#U#peZe0e1e2c#cpcEcWd.dndAdTd9ehei",
"QtQtQtQtQtQtQtQtQtQtQtQtQtQtQte3e4e5e6e7e8dLe9bKf.ayf#fafbfcfdcDcVc9dmdzdSdUd9e.",
"QtQtQtQtQtQtQtQtQtQtQtQtQtQtQtfefffgfhfifjePalfj.4eYfkflfmfnfofpcUcXdldndRdSdTdU",
"QtQtQtQtQtQtQtQtQtQtQtQtQtQtQtQtQtQtfqed#ofrfs#ofteYfufvfwfxfyfzcDcVdkd#dndzdAdB",
"QtQtQtQtQtQtQtQtQtQtQtQtQtQtQtQtQtQtfAfBfCfDcLaOfEfFaOfEfFfGfHfIfJfKcVdkfLdmdnfM",
"QtQtQtQtQtQtQtQtQtQtQtQtQtQtQtQtQtQtfNfOfPfQfRbKfS#ofTfSdKfUfVfWfXfYfZf0f1f2f3f4",
"QtQtQtQtQtQtQtQtQtQtQtQtQtQtQtQtQtQtQtQtQtf5f6f7cuf8bhenf9g.g#gagbgcgdgegfgdgbgg",
"QtQtQtQtQtQtQtQtQtQtQtQtQtQtQtQtQtQtQtQtQtgheBa4d2aaa4dJad#ogicugjgkglgmgnglgogp",
"QtQtQtQtQtQtQtQtQtQtQtQtQtQtQtQtQtQtQtQtQtgqgrgsgtguepamfjepamfjgva.fjepa#fjepa3",
"QtQtQtQtQtQtQtQtQtQtQtQtQtQtQtQtQtQtQtQtQtgwgxgygzgA#UcvdH.hbKct.NfT#na4cva3g.ad",
"QtQtQtQtQtQtQtQtQtQtQtQtQtQtQtQtQtQtQtQtQtQtQtQtgBgCabePgDabaCdcab.QaAfj#ogE.haz",
"QtQtQtQtQtQtQtQtQtQtQtQtQtQtQtQtQtQtQtQtQtQtQtQtgFgGbhgHgIgJgKgIgLgKgIaOgMgIaOct",
"QtQtQtQtQtQtQtQtQtQtQtQtQtQtQtQtQtQtQtQtQtQtQtQtgNgOadf.fjfTgPgQ#UgRgQbugSgTbrgU"};
