/* XPM */
static char *dummy[]={
"40 40 530 2",
".G c None",
"dS c #c2a06a",
"dG c #c2a06d",
"dT c #c4a26f",
"dR c #c6a46c",
"do c #c7a46d",
"db c #c9a76f",
"cW c #c6a470",
"bh c #c2a06e",
"bg c #c4a26a",
"cG c #c3a26d",
"cn c #c6a46c",
"cd c #cba870",
"b0 c #c4a26e",
".F c #c4a36e",
".Z c #bf9f65",
"bJ c #c2a267",
"#v c #c4a26a",
"a. c #c6a46c",
"bt c #c8a66c",
"#Z c #c8a66d",
"#d c #c8a66e",
"#I c #caa86f",
"bf c #c6a56b",
"e0 c #c4a36c",
"eZ c #bb9d5b",
"eY c #c4a465",
"f8 c #bfa15d",
"cV c #c2a362",
"cU c #bb9d5b",
"cT c #c3a45d",
"ep c #bb9f54",
"ge c #b59b4e",
"gp c #b99c53",
"gh c #c2a25f",
"f7 c #b19a42",
"f6 c #ba9e52",
"ft c #b1964f",
"eo c #ad973f",
"en c #b9a049",
"f1 c #a89040",
"fH c #b2974b",
"fS c #b49a49",
"bY c #ab943f",
"bZ c #b59c47",
"bX c #b59e43",
"fc c #a7903b",
"e5 c #b09743",
"am c #a38c3d",
"an c #b6985a",
"al c #ac9246",
"eX c #b19846",
"f5 c #bfa354",
"ey c #a7913a",
"eF c #a8913d",
"eS c #a9923e",
"eb c #a28d33",
"d1 c #a79138",
"dQ c #a89138",
"dF c #af9743",
"fr c #aa9538",
"fs c #ab9831",
"em c #b19842",
"dE c #a99632",
"dD c #aa9735",
"dn c #a28e31",
"da c #a38e33",
"fq c #b0993e",
".D c #9f8a32",
".E c #aa8f4a",
".C c #a38d36",
"cS c #a99338",
"a5 c #a6932f",
"a6 c #aa9534",
"a4 c #ae9a36",
"cc c #a18d2f",
"cm c #a28e2f",
"cF c #a59130",
"dC c #a69032",
"bW c #a79232",
"aC c #8b7b19",
"er c #8b7c14",
"c. c #8b7c16",
"b7 c #8c7e17",
"b6 c #8e7f17",
"eq c #8f7e1c",
"b9 c #908116",
"fw c #918020",
"c3 c #91821a",
"az c #918415",
"fy c #928021",
".Y c #928123",
"fA c #938122",
"dg c #938417",
"e1 c #938517",
"c4 c #938615",
"ez c #948615",
"dW c #948618",
"fz c #958420",
"fv c #958421",
"d8 c #958817",
"b5 c #96832a",
"cg c #96871c",
"eK c #968a17",
"dM c #978527",
"cy c #97871f",
"f. c #978a16",
"es c #978a1a",
"dw c #978a1c",
"cL c #98672c",
"eT c #987034",
"fB c #988922",
"gg c #988a19",
".V c #988c16",
".B c #998627",
"go c #99891a",
"aB c #998c18",
"fR c #998d16",
"eh c #998d19",
"dL c #9a862a",
"gd c #9a8d16",
"c5 c #9a8d1a",
"fJ c #9a8e18",
"e# c #9a8f16",
"bR c #9b4022",
"bO c #9b4023",
"eU c #9b702f",
"aH c #9b8925",
"fx c #9b8a27",
"b8 c #9b8e1d",
"dX c #9b8f16",
"fL c #9b8f18",
"fZ c #9b9017",
"dK c #9c8535",
".7 c #9c892b",
"#4 c #9c892c",
"fu c #9c8b27",
"aS c #9c8c21",
".X c #9c8f18",
"dN c #9c9019",
"ef c #9d4a28",
"#9 c #9d892b",
"bC c #9d892c",
"cN c #9d8f1d",
"fO c #9d9018",
"fm c #9d9119",
"ee c #9e4b2b",
"cM c #9e7334",
"eV c #9e8132",
"#n c #9e8c28",
"bs c #9e8c29",
"bI c #9e8d25",
"cD c #9e901f",
"bG c #9e9217",
"dl c #9e9314",
"#c c #9f8a2e",
"cC c #9f8e24",
"b. c #9f8f24",
"f0 c #9f9119",
"fp c #9f911a",
"d0 c #9f9317",
"fN c #9f9318",
"#C c #9f9515",
"du c #a0210e",
"fk c #a02915",
"bQ c #a04324",
"cK c #a06e3d",
"#u c #a08c2b",
"bT c #a08d2a",
"ae c #a08e26",
"aY c #a08e2c",
".w c #a08f25",
"f4 c #a0921b",
"e. c #a0921c",
"eQ c #a09224",
"fG c #a09317",
"fb c #a09318",
"bF c #a0931b",
"fI c #a09418",
"#F c #a09514",
"ca c #a09516",
"fi c #a12915",
"a3 c #a18e27",
"#H c #a18e2a",
"#Y c #a18e2e",
"be c #a18f29",
"fY c #a1931e",
"eE c #a19418",
"eO c #a19419",
"aQ c #a19516",
"ex c #a19517",
"aA c #a1951d",
"c# c #a1951e",
"d# c #a19617",
"fC c #a19618",
"b# c #a19715",
"g. c #a19716",
"ff c #a22915",
"#R c #a29227",
"cE c #a2931f",
"#A c #a29324",
"aR c #a29617",
"#t c #a29618",
"dk c #a2961b",
"e2 c #a2961c",
"ga c #a29716",
"aw c #a29717",
"ej c #a29718",
"bp c #a29719",
".y c #a29816",
"fo c #a29817",
"bN c #a3452a",
"ak c #a38f2d",
"eR c #a39420",
".Q c #a39424",
"bH c #a39619",
"ck c #a3961c",
".R c #a39717",
"bV c #a39718",
".S c #a39719",
"eW c #a3971a",
"aK c #a39815",
"#r c #a39817",
"#8 c #a39818",
"gi c #a39918",
"fe c #a43118",
"bP c #a44124",
"ea c #a49619",
"ch c #a49718",
"el c #a4971a",
"ci c #a4971d",
"f3 c #a49818",
"aP c #a4981a",
"aN c #a49916",
"dP c #a49917",
"au c #a49918",
"bU c #a49919",
"et c #a4991b",
"dj c #a49a16",
"eM c #a49a17",
"cj c #a49a18",
"dz c #a49a19",
"fh c #a53218",
"fj c #a53418",
"eP c #a5922b",
"at c #a59625",
"dm c #a59819",
"#S c #a59918",
"#o c #a59919",
"dB c #a5991a",
"di c #a59a16",
"eC c #a59a17",
".U c #a59a18",
"br c #a59a19",
"c6 c #a59a1c",
"fX c #a59b17",
"cQ c #a59b18",
"fF c #a59b1a",
"bo c #a69a18",
"#b c #a69a19",
"eA c #a69a1b",
"fD c #a69b16",
"fa c #a69b17",
"#B c #a69b18",
"ah c #a69b19",
"c9 c #a69b1a",
"#. c #a69c18",
"#6 c #a69c19",
"dA c #a69c1a",
"e3 c #a69c1b",
"cB c #a69d19",
"aI c #a79a19",
"aO c #a79b18",
"bd c #a79b19",
"aJ c #a79b1b",
"eD c #a79b1c",
"bE c #a79c18",
".x c #a79c19",
"aj c #a79c1a",
"gf c #a79c1b",
".W c #a79c1d",
"bb c #a79d18",
"#E c #a79d19",
"dO c #a79d1b",
"bS c #a8512f",
"dh c #a89b19",
"fM c #a89b1c",
"#V c #a89c19",
"cR c #a89c1a",
"aM c #a89c1b",
"fK c #a89c1c",
"cl c #a89c1d",
"#a c #a89d18",
"ay c #a89d19",
"af c #a89d1a",
"#q c #a89d1b",
"fT c #a89e1a",
"fE c #a89e1b",
"aL c #a99d19",
"f# c #a99d1a",
"#s c #a99d1b",
"#W c #a99d1c",
"cO c #a99e19",
".A c #a99e1a",
"a0 c #a99e1b",
"c7 c #a99e1c",
"cP c #a99e1d",
"dY c #a99f1b",
"eu c #a99f1c",
"fd c #aa2f17",
".8 c #aa9d1a",
"f2 c #aa9d1c",
"#T c #aa9d1d",
"bD c #aa9e1a",
"fU c #aa9e1b",
"eB c #aa9e1c",
"ai c #aa9e1d",
"#U c #aa9f1a",
"a2 c #aa9f1c",
"gl c #aa9f1d",
"ev c #aaa01d",
"fg c #ab2e17",
"dt c #ab3013",
"d9 c #ab9e1a",
"#7 c #ab9e1c",
"## c #ab9f1a",
"dx c #ab9f1b",
"ag c #ab9f1d",
"#X c #aba01b",
"fW c #aba01c",
"fQ c #aba01d",
"dZ c #aba11b",
"e4 c #aba11d",
"ew c #aba21d",
"eg c #ac733b",
"fV c #ac9f1b",
"ek c #ac9f1c",
"#5 c #ac9f1d",
"cz c #ac9f1e",
".9 c #aca01c",
"#p c #aca01d",
"bc c #aca01f",
"ba c #aca11f",
"bq c #aca21d",
"#G c #aca21f",
"cA c #ad9f1e",
"gn c #ada01b",
"ei c #ada01c",
"eN c #ada01e",
"eL c #ada11e",
".z c #ada11f",
"fP c #ada21d",
"bn c #ada31d",
"c8 c #ada31e",
"#D c #ada31f",
"gc c #ada41f",
"dy c #aea11e",
"fn c #aea11f",
".T c #aea31d",
"gb c #aea420",
"gm c #afa21c",
"aZ c #afa21f",
"a1 c #afa31e",
"cb c #afa420",
"d. c #afa51f",
"g# c #afa520",
"gk c #b0a31d",
"gj c #b0a31e",
"ax c #b0a520",
"f9 c #b0a621",
"fl c #b17a3b",
"av c #b1a620",
"eI c #b72807",
"dv c #b85e34",
"e9 c #bd8237",
"eJ c #be7437",
"cw c #bf2f09",
"eH c #c4390e",
"ed c #c4652d",
"cx c #c7592b",
"d7 c #ca7438",
"ds c #d05e1a",
"cv c #d14913",
"eG c #d65215",
"d6 c #d84a0e",
"bB c #da5e22",
"bx c #df5411",
"by c #e04e11",
"bA c #e15612",
"d5 c #e66218",
"cu c #e66b18",
"bz c #e96a19",
"e6 c #ea6416",
"e7 c #ea6515",
"e8 c #ea6615",
"d4 c #ea6819",
".v c #ff431f",
".u c #ff461e",
".P c #ff461f",
".O c #ff481e",
".t c #ff491e",
".6 c #ff4b1d",
".s c #ff4c1d",
"#z c #ff4d1d",
"#m c #ff4e1d",
".r c #ff4f1d",
"#Q c #ff501c",
".q c #ff511c",
"#3 c #ff521c",
"#P c #ff531c",
".p c #ff541c",
".o c #ff561b",
".N c #ff571b",
"ad c #ff581b",
".n c #ff591a",
".5 c #ff5a1a",
".m c #ff5b1a",
".M c #ff5c1a",
".l c #ff5d1a",
".L c #ff5f19",
".k c #ff6019",
".K c #ff6119",
".j c #ff6219",
".J c #ff6318",
".i c #ff6418",
"#l c #ff6518",
".h c #ff6618",
"#k c #ff6717",
".g c #ff6817",
".f c #ff6917",
"#j c #ff6a17",
".e c #ff6b17",
"#i c #ff6c16",
".d c #ff6d16",
"#h c #ff6e16",
".c c #ff6f16",
".b c #ff7016",
".a c #ff7115",
".# c #ff7215",
"Qt c #ff7315",
".I c #ff7415",
".4 c #ff7515",
".H c #ff7614",
"#O c #ff7714",
".3 c #ff7814",
".2 c #ff7914",
".1 c #ff7a13",
".0 c #ff7b13",
"as c #ff7c13",
"#g c #ff7d13",
"#f c #ff7e13",
"#e c #ff7f12",
"#y c #ff8012",
"#N c #ff8112",
"#x c #ff8212",
"#w c #ff8312",
"#M c #ff8411",
"#L c #ff8511",
"#K c #ff8611",
"#J c #ff8711",
"ac c #ff8810",
"#2 c #ff8910",
"#1 c #ff8a10",
"#0 c #ff8b10",
"ab c #ff8c10",
"aX c #ff8d0f",
"aa c #ff8e0f",
"a# c #ff8f0f",
"ar c #ff900f",
"aq c #ff910f",
"ap c #ff920e",
"ao c #ff930e",
"aG c #ff940e",
"aF c #ff950e",
"aE c #ff960e",
"aD c #ff970d",
"aW c #ff980d",
"aV c #ff990d",
"aU c #ff9a0d",
"aT c #ff9b0c",
"bm c #ff9c0c",
"a9 c #ff9d0c",
"a8 c #ff9e0c",
"a7 c #ff9f0c",
"bl c #ffa00b",
"bk c #ffa10b",
"bj c #ffa20b",
"bi c #ffa30b",
"b4 c #ffa40b",
"bw c #ffa50a",
"bv c #ffa60a",
"bu c #ffa70a",
"bM c #ffa909",
"ct c #ffaa09",
"bL c #ffab09",
"bK c #ffac09",
"cs c #ffad09",
"b3 c #ffae08",
"b2 c #ffaf08",
"b1 c #ffb008",
"cf c #ffb208",
"ce c #ffb307",
"cr c #ffb407",
"cq c #ffb507",
"co c #ffb706",
"cp c #ffb707",
"c2 c #ffb806",
"cJ c #ffb906",
"cI c #ffba06",
"c1 c #ffbb06",
"cH c #ffbc05",
"c0 c #ffbd05",
"cZ c #ffbe05",
"cY c #ffbf05",
"df c #ffc004",
"cX c #ffc005",
"dr c #ffc104",
"de c #ffc204",
"dd c #ffc304",
"dc c #ffc404",
"dq c #ffc603",
"dp c #ffc703",
"dJ c #ffca02",
"dI c #ffcb02",
"dH c #ffcc02",
"dV c #ffcf01",
"dU c #ffd001",
"d3 c #ffd201",
"d2 c #ffd400",
"ec c #ffd800",
"QtQt.#.#.#.a.b.c.d.d.e.f.g.h.i.j.k.l.m.n.o.p.q.r.s.t.u.v.w.x.y.z.A.B.C.D.E.F.G.G",
".H.H.H.H.H.I.IQt.#.b.c.d.e.f.g.h.J.K.L.M.n.N.p.q.r.s.O.P.Q.R.S.T.U.V.W.X.Y.Z.G.G",
".0.0.0.1.2.2.3.H.4.I.#.a.c.d.e.f.h.i.j.L.l.5.N.p.q.r.6.O.7.8.9#.##.9#a#b#c#d.G.G",
"#e#e#e#f#g#g.0.0.2.3.H.I.#.b#h#i#j#k#l.j.L.l.5.N.p.q#m.6#n#o#p#q#r.9#s#t#u#v.G.G",
"#w#w#x#x#x#y#y#f#g.0.1.3.H.I.#.c.d.e.g#l.j.L.l.5.N.p.q#z#A#B#C#D#E#F#G.x#H#I.G.G",
"#J#J#J#K#L#M#M#x#N#e#g.0.2#O.4Qt.b.d.e.f.h.j.L.l.n.o#P#Q#R#S#T#U#V#W#X#S#Y#Z.G.G",
"#0#0#0#1#2#2#J#K#M#w#N#e#g.0.2.H.I.a#h.e.f#l.j.L.M.n.o#3#4#V#5#6#V#7.A#8#9a..G.G",
"a#a#a#aaaaab#0#1ac#J#M#x#y#f.0.2.H.I.a#h.e.g#l.j.L.mad.paeaf.xagah#Eaiajakalaman",
"aoaoapapaqara#aaab#1ac#K#M#x#eas.2.H.I.a.d.e#k.i.K.l.m.Nat#rauav#BawaxayazaAaBaC",
"aDaDaDaEaFaGapaqaraa#0#2#J#M#x#eas.2.H.I.b.d#j.h.J.k.l.naHaIaJaKaLaMaNaOaPaQaRaS",
"aTaTaTaUaVaWaDaFaoaqa#aX#1#J#L#x#eas.2.HQt.c#i.f.h.j.L.maYajaZa0.Ua1a2aua3a4a5a6",
"a7a7a7a8a9aTaUaVaDaGaparaa#0ac#L#x#e.0.2.4.##h.e.g.i.k.lb.#Bb#babbb#bcbdbebfbgbh",
"bibibjbjbkbla8bmaUaWaFaoaraa#0#J#M#x#f.0#O.I.b.d.f.h.j.L.Q.RaPbnbobpbqbrbsbt.G.G",
"bubububvbwbibjbla8aTaVaEaoaraa#1#J#M#y#g.2.H.#bxbybzbAbBbCbD#5bE#UbFbGbHbIbJ.G.G",
"bKbKbLbMbMbubwbibka8aTaVaEaoaraX#2#K#x#e.0.3bNbObPbQbRbSbTbU.9#sbVbWbXbYbZb0.G.G",
"b1b2b3b3bKbLbMbub4bja7aTaVaFapa##0ac#M#N#g.1b5b6b7b8b9c.c##Ecacb#6cccd.G.G.G.G.G",
"cecececfb1b3bKbMbubwbja8aTaWaGaqaa#1#J#w#e.0cgchcicjbVck#a#Vcl#.#Scmcn.G.G.G.G.G",
"cococpcqcrcfb1csctbub4bka8aUaDaoarabcucvcwcxcyaycz#.#VcAcB#ocCcDcEcFcG.G.G.G.G.G",
"cHcHcIcJcocqceb1csbMbubiblbmaVaFaqaa#1cKcLcMcNcO#BcPaycQagcRcScTcUcVcW.G.G.G.G.G",
"cXcYcZc0c1c2cqceb1bKbMbwbja8aUaDapa##0c3c4c5c6#rc7c8#rc9d.d#dadb.G.G.G.G.G.G.G.G",
"dcdddedfcZcHc2cqcfb3bLbubiblaTaWaGarabdgdhaMdi#VaMdjaLdkdldmdndo.G.G.G.G.G.G.G.G",
"dpdpdqdcdrcZc1cocrb1bKbMbwbka9dsdtdudvdwdxdydz.AdydAdBdCdDdEdFdG.G.G.G.G.G.G.G.G",
"dHdIdJdpdcdfc0cJcqcfb3bMbvbja8aUdKdLdMdNbE.UdObbdPc7#SdQdRdSdT.G.G.G.G.G.G.G.G.G",
"dUdVdHdJdqdecZcIcpceb3bLbubja7aTdWdXckaj#ragdY#rcldZd0d1.G.G.G.G.G.G.G.G.G.G.G.G",
"d2d3dVdIdpddcYcHcoceb2bKd4d5d6d7d8d9ag#a##agbbbde.e#eaeb.G.G.G.G.G.G.G.G.G.G.G.G",
"ecd2dUdHdpdccXcHcoceb1bKedeeefegeh.xeiej.xekbUelemeneoep.G.G.G.G.G.G.G.G.G.G.G.G",
"d2d3dVdIdpddcYcHcoceb2bKbueqereset#BeuevbEdOewexey.G.G.G.G.G.G.G.G.G.G.G.G.G.G.G",
"dUdVdHdJdqdecZcIcpceb3bLbuezbdeAdPayeBeCbdeDdPeEeF.G.G.G.G.G.G.G.G.G.G.G.G.G.G.G",
"dHdIdJdpdcdfc0cJcqeGeHeIeJeKd9eLeMbDeNcQeOePeQeReS.G.G.G.G.G.G.G.G.G.G.G.G.G.G.G",
"dpdpdqdcdrcZc1cocrb1eTeUeVeW#.c7#q#.cR#qbHeXeYeZe0.G.G.G.G.G.G.G.G.G.G.G.G.G.G.G",
"dcdddedfcZcHc2cqcfb3e1c4e2aP#rc8e3#re4#qdXe5.G.G.G.G.G.G.G.G.G.G.G.G.G.G.G.G.G.G",
"cXcYe6c0c1e7cqcee8e9f.##f#eCbD#sfa#beWcafbfc.G.G.G.G.G.G.G.G.G.G.G.G.G.G.G.G.G.G",
"fdfefffgfhfifgfjfkflfm#UeN#8bDfnfofpfqfrfsft.G.G.G.G.G.G.G.G.G.G.G.G.G.G.G.G.G.G",
"fufvfwfxfvfyfxfzfAfBfCdjevbrfDfEfFfGfH.G.G.G.G.G.G.G.G.G.G.G.G.G.G.G.G.G.G.G.G.G",
"aMfIfJfKfbfLfMfNfO#Wbrc9fPc9brfQajfRfS.G.G.G.G.G.G.G.G.G.G.G.G.G.G.G.G.G.G.G.G.G",
"fTayfU#U#BfVdx.UfVfWcQd9#pfXeOfYfZf0f1.G.G.G.G.G.G.G.G.G.G.G.G.G.G.G.G.G.G.G.G.G",
"f2#r#Xf2aw#Uagd#.A#5awaf#5f3f4f5f6f7f8.G.G.G.G.G.G.G.G.G.G.G.G.G.G.G.G.G.G.G.G.G",
"f9cOg.g#.Agagb.A#rgca0dPc8eugdge.G.G.G.G.G.G.G.G.G.G.G.G.G.G.G.G.G.G.G.G.G.G.G.G",
"eC#VgfaOboaj#V#raf.8gaaffUgagggh.G.G.G.G.G.G.G.G.G.G.G.G.G.G.G.G.G.G.G.G.G.G.G.G",
"a0gigja2fogkglfogm#pgigneLeMgogp.G.G.G.G.G.G.G.G.G.G.G.G.G.G.G.G.G.G.G.G.G.G.G.G"};
