/* XPM */
static char *dummy[]={
"40 40 1025 2",
"mJ c #605a49",
"jq c #686354",
"fR c #6a6556",
"aQ c #6c6759",
"ai c #4c4638",
"fi c #575040",
"i8 c #585141",
"mr c #595242",
"n0 c #1e1b15",
"n6 c #1f1b15",
"n9 c #1f1c15",
"o. c #201c15",
"n7 c #26221c",
"mu c #271c20",
"nT c #27231c",
"n1 c #27231d",
"nY c #28231c",
"nJ c #28241b",
"cQ c #29241b",
"n2 c #29241d",
"nR c #29251b",
"nZ c #29251d",
"nU c #2a251d",
"hr c #2b251c",
"hw c #2b251d",
"kY c #2b261d",
"n3 c #2b271e",
"k1 c #2c261d",
"nX c #2c271f",
"n4 c #2c281f",
"nV c #2d2920",
"nS c #2d2921",
"n8 c #2e2a21",
"am c #2f2920",
"nW c #2f2a21",
"n5 c #2f2b21",
"av c #302921",
"jo c #302a1f",
"mI c #302b20",
"mQ c #312a20",
"aA c #312a21",
"mE c #312b20",
"fO c #312b21",
"mv c #321f31",
"m2 c #322c22",
"m8 c #332c22",
"ma c #342330",
"jK c #342e24",
"k6 c #352e23",
"kG c #362033",
"k7 c #362e2d",
"gc c #363025",
"iZ c #371e37",
"db c #373126",
"nI c #373227",
"mA c #382137",
"cX c #383126",
"cU c #383226",
"cP c #383227",
"aZ c #383228",
"nA c #383327",
"a6 c #383328",
"j7 c #391e3a",
"kX c #393328",
"cV c #39332a",
"nr c #393427",
"aB c #39342a",
"cR c #3a3327",
"cO c #3a3429",
"aw c #3a342b",
"cn c #3a3529",
"an c #3a352b",
"lO c #3b2934",
"hs c #3b3428",
"cL c #3b3429",
"i5 c #3b3528",
"cu c #3b3529",
"jj c #3c203b",
"au c #3c3529",
"hv c #3c352a",
"mm c #3c3628",
"kH c #3c3629",
"hq c #3c362a",
"mB c #3c372c",
"fN c #3d3629",
"cS c #3d362a",
"jm c #3d362b",
"jn c #3d372a",
"cN c #3d372b",
"lg c #3d372c",
"lk c #3d372d",
"iz c #3e223e",
"ht c #3e372a",
"ao c #3e372b",
"cW c #3e372c",
"mD c #3e382b",
"mw c #3f2640",
"mH c #3f372a",
"aC c #3f372b",
"fP c #3f372c",
"kZ c #3f382b",
"ap c #3f382c",
"aD c #3f382d",
"hU c #3f382e",
"fI c #3f392d",
"nP c #3f392e",
"nO c #3f3a2e",
"mi c #402540",
"ia c #402641",
"i4 c #40382b",
"k0 c #40382c",
"kK c #40392c",
"aE c #40392d",
"dt c #40392f",
"nH c #403a2c",
"jk c #403a2d",
"nK c #403a2e",
"hM c #412641",
"al c #413a2d",
"aq c #413a2e",
"fJ c #413a2f",
"fk c #413a30",
"eN c #413b2e",
"fj c #413b2f",
"#6 c #413b30",
"l8 c #413c2e",
"ne c #413c2f",
"km c #422842",
"ld c #422843",
"ak c #423a2e",
"nL c #423b2e",
"cM c #423b2f",
"fH c #423b31",
"jl c #423c2f",
"fd c #423c30",
"#Z c #423c31",
"jp c #423d31",
"jh c #43035a",
"nG c #433c2f",
"cT c #433c30",
"mt c #433c31",
"mG c #433d30",
"mF c #433e32",
"lB c #442944",
"cm c #443d2f",
"ct c #443d30",
"kL c #443d31",
"hu c #443e31",
"cK c #443e33",
"nE c #443f32",
"lX c #452b45",
"hb c #453e30",
"aj c #453e31",
"at c #453e32",
"he c #453f34",
"nF c #463f30",
"nN c #463f31",
"az c #463f32",
"nQ c #464031",
"fK c #464032",
"nM c #473f30",
"iF c #473f31",
"l5 c #474031",
"mC c #474032",
"fM c #474033",
"kJ c #474035",
"hp c #482f48",
"ls c #483a37",
"ms c #484033",
"l1 c #484132",
"ar c #484133",
"ax c #484134",
"ix c #49105b",
"kM c #49314a",
"eB c #494033",
"eM c #494133",
"fQ c #494234",
"ay c #494335",
"jG c #4a344a",
"nx c #4a4233",
"#O c #4a4234",
"ns c #4a4332",
"ny c #4a4333",
"as c #4a4335",
"fL c #4a4436",
"#P c #4a4538",
"j5 c #4b025e",
"h# c #4c354b",
"#Y c #4c4436",
"b3 c #4c4536",
"kp c #4c4537",
"nq c #4d4435",
"#5 c #4d4436",
"fc c #4d4537",
"bX c #4d4637",
"gG c #4d483a",
"kk c #4e0463",
"lT c #4e0563",
"gV c #4e394d",
"nD c #4e4435",
"nn c #4e4534",
"iE c #4e4536",
"gC c #4e483b",
"b# c #4e4940",
"i. c #4f105d",
"gA c #4f3a4e",
"lZ c #4f4537",
"l0 c #4f4636",
"iD c #4f4637",
"eh c #4f4838",
"eG c #4f493b",
"by c #4f493c",
"kc c #500665",
"cy c #504838",
"cv c #504839",
"cs c #504938",
"#x c #50493c",
"br c #504a3c",
"la c #510767",
"gx c #511060",
"gT c #511061",
"f9 c #51165e",
"bW c #514838",
"nu c #514938",
"cg c #514939",
"jP c #51493c",
"nB c #514a38",
"ih c #514a3c",
"#t c #514a3d",
"cY c #514e47",
"g9 c #521062",
"gy c #52175e",
"ju c #52434d",
"i3 c #524838",
"ko c #524938",
"gZ c #524939",
"nz c #524a38",
"cl c #524a39",
"e8 c #524a3a",
"d4 c #524a3c",
"dL c #524b3d",
"nC c #534a39",
"ha c #534a3a",
"eg c #534a3c",
"no c #534b38",
"e9 c #534b3a",
"mo c #534c3b",
"m3 c #534c3d",
"gj c #534c3e",
"#R c #534d3a",
"mL c #534d40",
"kD c #54086a",
"kU c #540a6c",
"lv c #540f68",
"dY c #54414a",
"nv c #544b39",
"cp c #544b3a",
"ch c #544b3b",
"lJ c #544b3c",
"#1 c #544c3a",
"m. c #544c3b",
"ff c #544d3b",
"mX c #544d3e",
"aY c #544d3f",
"mU c #544e41",
"kC c #55096b",
"ky c #550a6c",
"fY c #550a70",
"iQ c #551168",
"g0 c #554b3b",
"nf c #554c39",
"#S c #554c3a",
"fg c #554c3b",
"mn c #554d3b",
"b. c #554d3f",
"mP c #554d40",
"mk c #554e3b",
"k5 c #554e41",
"mT c #555043",
"mV c #555044",
"kj c #56096c",
"kT c #560a6c",
"lS c #560b6f",
"gJ c #560b71",
"iM c #560b72",
"gR c #561168",
"kv c #564353",
"iI c #564d3c",
"mR c #564e3f",
"m7 c #564e41",
"mK c #565042",
"mZ c #565144",
"l# c #570a6d",
"j4 c #570a6e",
"lU c #570a6f",
"h1 c #570b73",
"f6 c #571169",
"hK c #57116a",
"gv c #57116b",
"f8 c #571468",
"eL c #574e3c",
"ck c #574e3e",
"#4 c #57503d",
"m6 c #575043",
"co c #575142",
"m0 c #575143",
"#Q c #575242",
"jE c #580a70",
"fX c #580c72",
"hh c #580d73",
"iu c #58106b",
"h8 c #58116c",
"dZ c #584945",
"#N c #584d3c",
"lM c #584e3b",
"#X c #584e3c",
"#i c #584e3d",
"cz c #584e3e",
"iA c #584f3b",
"eE c #584f3c",
"#M c #584f3d",
"hd c #584f3e",
"#V c #58513d",
"lf c #585143",
"jN c #585144",
"i6 c #58523e",
"#0 c #585242",
"#7 c #585243",
"m4 c #585244",
"l9 c #58533e",
"mM c #585346",
"hL c #590c6f",
"hB c #590c75",
"im c #590d75",
"iR c #59106d",
"mz c #594558",
"ex c #594751",
"gb c #594855",
"eA c #594b4c",
"fb c #594e3d",
"kI c #594f3e",
"nw c #59503d",
"#s c #59503e",
"mj c #59513f",
"e7 c #595145",
"mO c #595244",
"da c #595245",
"mS c #595345",
"fe c #595444",
"mW c #595446",
"jH c #595448",
"jD c #5a0c71",
"j# c #5a0d76",
"g7 c #5a0e70",
"f7 c #5a106e",
"fx c #5a116e",
"fA c #5a126e",
"eZ c #5a146e",
"eK c #5a4f3f",
"bV c #5a503d",
"b2 c #5a503e",
"d6 c #5a503f",
"np c #5a513e",
"cj c #5a513f",
"dM c #5a5140",
"ei c #5a523d",
"lK c #5a533e",
"hT c #5a5344",
"m1 c #5a5447",
"mN c #5a5547",
"j3 c #5b0d73",
"in c #5b0d77",
"gS c #5b0e71",
"iW c #5b0e72",
"gw c #5b0f70",
"iS c #5b0f71",
"eY c #5b1171",
"gQ c #5b1272",
"fB c #5b196e",
"ez c #5b4c50",
"#m c #5b513d",
"b6 c #5b513e",
"iC c #5b513f",
"i2 c #5b5140",
"cx c #5b523f",
"ku c #5b5240",
"d2 c #5b5241",
"nt c #5b533e",
"eC c #5b533f",
"cr c #5b5340",
"jJ c #5b5345",
"l2 c #5b543f",
"#j c #5b5444",
"cf c #5b5445",
"ds c #5b5446",
"jI c #5b5647",
"jO c #5b5649",
"kP c #5c0e74",
"iV c #5c0e75",
"iw c #5c0e76",
"g8 c #5c0f72",
"fy c #5c1071",
"fz c #5c1072",
"hn c #5c1173",
"h7 c #5c1273",
"et c #5c1a6f",
"#h c #5c513e",
"#r c #5c513f",
"ml c #5c5140",
"bR c #5c523d",
"#w c #5c523f",
"#W c #5c5240",
"if c #5c5241",
"d3 c #5c5242",
"b5 c #5c533e",
"hc c #5c5340",
"lD c #5c5341",
"lC c #5c5342",
"#8 c #5c543f",
"l6 c #5c5440",
"i1 c #5c5441",
"gY c #5c5445",
"ks c #5c5545",
"jt c #5c5648",
"li c #5c5749",
"cA c #5c584e",
"h9 c #5d0f75",
"jd c #5d1274",
"iY c #5d4b5b",
"fa c #5d5341",
"ig c #5d5342",
"lE c #5d5343",
"cq c #5d543f",
"#2 c #5d5440",
"d1 c #5d5442",
"ie c #5d5443",
"#T c #5d5540",
"i7 c #5d5541",
"mq c #5d5542",
"gf c #5d5548",
"f# c #5d5642",
"gd c #5d5646",
"gi c #5d5647",
"mY c #5d5749",
"gg c #5d574a",
"m5 c #5d5849",
"be c #5d5950",
"gp c #5e0e7d",
"kB c #5e0f78",
"iv c #5e1077",
"jC c #5e1275",
"fU c #5e4d59",
"cw c #5e5540",
"ci c #5e5541",
"ee c #5e5542",
"aX c #5e5647",
"#U c #5e5743",
"a5 c #5e5747",
"a9 c #5e5748",
"aT c #5e5849",
"aU c #5e584a",
"jL c #5e584b",
"hP c #5e594b",
"kS c #5f0f79",
"g6 c #5f1279",
"iJ c #5f4e5b",
"ey c #5f4f55",
"ek c #5f5052",
"lH c #5f5542",
"kt c #5f5641",
"f. c #5f5642",
"nd c #5f5645",
"#3 c #5f5743",
"a8 c #5f574a",
"a7 c #5f5848",
"a4 c #5f584a",
"aV c #5f594b",
"jg c #600d7c",
"kd c #600f7c",
"fC c #60286c",
"gn c #604f5d",
"kF c #60505f",
"ik c #605445",
"mp c #605642",
"dN c #605644",
"ef c #605645",
"lL c #605740",
"i0 c #605742",
"m# c #605743",
"fh c #605843",
"a0 c #605949",
"k4 c #60594a",
"gh c #605a4c",
"jM c #605a4d",
"kz c #610f7d",
"kV c #613b69",
"#g c #615542",
"ej c #615643",
"l3 c #615740",
"lN c #615743",
"ib c #615745",
"lI c #615746",
"iG c #615840",
"eD c #615841",
"gB c #615846",
"#L c #615a48",
"hz c #615a4d",
"dg c #615b4d",
"e. c #615c4f",
"kQ c #62107f",
"lw c #62117d",
"iT c #62127d",
"fW c #621a79",
"e6 c #624f5f",
"gI c #625060",
"eO c #625655",
"iH c #625743",
"bU c #625843",
"#q c #625844",
"eF c #625845",
"lr c #625846",
"kr c #625943",
"le c #625a4a",
"hR c #625b4d",
"aW c #625c4d",
"lh c #625c4e",
".2 c #625d4f",
"k3 c #625d50",
"k2 c #625f53",
"jW c #63107f",
"ja c #631180",
"jf c #63127e",
"fq c #631481",
"kO c #632375",
"g1 c #635161",
"gW c #635943",
"na c #635945",
"kn c #635947",
"bS c #635a43",
"b0 c #635a44",
"dK c #635a4b",
"lj c #635b4b",
"dp c #635b53",
"ll c #635c4b",
"jr c #635c4c",
"dq c #635d4e",
"a3 c #635d4f",
".X c #635e50",
"bF c #636057",
"lx c #641081",
"gu c #641280",
"je c #64137f",
"j2 c #641380",
"hf c #645262",
"dj c #64535e",
"el c #645459",
"nh c #645947",
"nj c #645a47",
"#v c #645b44",
"ni c #645b45",
"ng c #645b46",
"di c #645b51",
"lq c #645c4d",
"hO c #645e50",
"js c #645f50",
"l. c #651183",
"h2 c #651286",
"iU c #651381",
"j1 c #651382",
"fG c #655462",
"dQ c #655855",
"#n c #655c44",
"n# c #655c48",
"hS c #655c4d",
"bE c #655d4a",
"hV c #655e4d",
"fS c #655e4e",
"d# c #655e4f",
"fT c #655e51",
"hW c #655f50",
"hQ c #656052",
"hy c #656053",
"aF c #656054",
"es c #661287",
"ki c #661383",
"lz c #663375",
"lb c #664273",
"mx c #665766",
"d7 c #665c48",
"dO c #665c49",
"bQ c #665d46",
"ic c #665d49",
"bx c #665d4a",
"bq c #665d4b",
"j8 c #665e4b",
"dr c #665e4e",
"aR c #665f4f",
"bY c #66604c",
"aS c #666051",
"df c #666052",
"dw c #666152",
".N c #666153",
"hx c #666255",
"j0 c #671484",
"eU c #671486",
"lY c #675c48",
"k# c #675d47",
"eJ c #675d4a",
"bZ c #675e48",
"#p c #675e49",
"lF c #675e4a",
"nc c #675e4b",
"d0 c #675f4b",
"ge c #676052",
"dd c #676152",
"dh c #676153",
"d. c #676255",
"b7 c #676257",
"gK c #68138b",
"do c #685862",
"mb c #685867",
"iB c #685d49",
"b4 c #685e48",
"dP c #685e49",
"id c #685e4a",
"#o c #685f48",
"kq c #685f49",
"#l c #685f4a",
".L c #685f4b",
"#z c #68604a",
"nm c #68604c",
"du c #686150",
"lm c #686152",
"lV c #694177",
"kE c #694a71",
"bn c #695f4a",
"eI c #69604b",
"bw c #69604c",
"ed c #69614e",
"bs c #69624d",
"bP c #696251",
"a2 c #696253",
"a1 c #696254",
"c9 c #696558",
"eq c #6a138c",
"k8 c #6a5d69",
"bT c #6a604a",
"b1 c #6a614b",
".M c #6a614d",
"ij c #6a614e",
"hN c #6a6254",
"bz c #6a634e",
"gH c #6a6351",
"dc c #6a6352",
"hX c #6a6354",
"iq c #6b168d",
"em c #6b5b63",
"l4 c #6b604a",
"l7 c #6b604b",
"bt c #6b614b",
"gX c #6b614c",
"gD c #6b624c",
"d8 c #6b624d",
"nk c #6b634d",
"nl c #6b6350",
"d5 c #6b644e",
"j9 c #6b644f",
".V c #6b6451",
"de c #6b6455",
"jX c #6c158f",
"dR c #6c5b67",
"bm c #6c624c",
"jS c #6c634d",
"nb c #6c6451",
"#k c #6c6551",
"#u c #6c6552",
"dv c #6c6556",
"aP c #6c675c",
"jx c #6d158e",
"gm c #6d624e",
"bA c #6d634e",
".0 c #6d644e",
".K c #6d644f",
".S c #6d654e",
"ii c #6d6650",
"lG c #6d6651",
"#y c #6d6653",
"f5 c #6e1395",
"e0 c #6e3680",
"jT c #6e5f6c",
"bl c #6e644d",
"bu c #6e6653",
"eH c #6e6754",
"jV c #6f2888",
"e5 c #6f5d6b",
"jR c #6f654f",
"bp c #6f6651",
"bB c #6f6654",
"bD c #6f6751",
"gE c #6f6754",
"iN c #701694",
"ke c #701695",
"hC c #701797",
"dk c #70606c",
"kW c #706671",
"bk c #706750",
"gl c #706851",
"gF c #706852",
".U c #706853",
"iO c #711794",
"jz c #711795",
"h4 c #711796",
"my c #716571",
"mh c #716671",
"jQ c #716851",
".R c #716853",
"dJ c #716857",
"n. c #716a58",
"jy c #721798",
"kA c #72179b",
"ip c #721897",
"g. c #723f7c",
".5 c #726952",
"#f c #726954",
".Q c #726a53",
"ec c #726a54",
"m9 c #726d5c",
"fw c #73139b",
"ly c #73179b",
"jA c #73189a",
"lc c #736973",
"eb c #736a53",
"lp c #736a59",
"k. c #736b54",
"bC c #736b56",
"dx c #736f61",
"hj c #741899",
"hE c #74199b",
"lR c #743c87",
"bv c #746b56",
"bo c #746c57",
"bj c #746e5b",
"gk c #746f5b",
"jb c #75199c",
"h3 c #75199d",
".T c #756d59",
"d9 c #756e5a",
".1 c #756e5c",
".W c #756f5c",
".I c #75746c",
"g3 c #76189f",
"kf c #76199e",
"lA c #776e77",
"bi c #77746a",
"ji c #777c7a",
"hF c #7818a1",
"hi c #7819a2",
"hD c #781aa1",
"i9 c #786b77",
"ir c #7918a5",
"jY c #7919a2",
"iL c #793d8f",
"kg c #7a19a3",
"fl c #7a6d78",
".P c #7a725c",
".Z c #7a725d",
"er c #7b14ac",
"io c #7b1aa4",
".4 c #7b735e",
"#9 c #7b7563",
"lW c #7b767d",
"ea c #7c745f",
"kR c #7d19ab",
"gL c #7d1ba9",
"jF c #7d7b85",
"gq c #7e1bab",
"jw c #7e4e90",
"dI c #7f7865",
"hZ c #7f7866",
"g4 c #801baf",
".u c #807366",
"dH c #807a68",
"jZ c #811ab0",
"kh c #811ab1",
"h5 c #811ab2",
".m c #817467",
"lo c #817a67",
".J c #817b66",
"kl c #818688",
"fZ c #8217b5",
"hY c #827c69",
"cE c #827c70",
"lt c #827d83",
"fr c #8316b5",
"fp c #835094",
"iX c #83798a",
"ln c #837d6a",
"eV c #8517ba",
"#A c #857f6c",
"cC c #868173",
"j6 c #869888",
"jc c #8719bc",
"dl c #877a86",
"#J c #878175",
"aI c #878274",
"bh c #87857b",
"hG c #881ac1",
"aJ c #888375",
".c c #897d6f",
".6 c #898472",
"cD c #898477",
"hk c #8a19c2",
"ae c #8a8578",
"af c #8a8579",
"ag c #8a8679",
"dB c #8a897e",
"g5 c #8b19c3",
"gM c #8b1ac2",
"#I c #8b8678",
"aO c #8b867a",
".O c #8b8773",
"jB c #8c19c3",
"is c #8c19c5",
".Y c #8c8774",
"iP c #8d19c7",
"fs c #8d1ac9",
"#H c #8d877a",
".3 c #8d8875",
"aM c #8d887d",
"lP c #8d888d",
"mg c #8d898e",
"bd c #8d8a7d",
"h6 c #8e1ac8",
"hl c #8e1aca",
"hH c #8e1acb",
"it c #8f1acc",
".k c #8f8677",
".s c #8f8777",
"e# c #8f8b78",
"ah c #8f8b7f",
"bc c #8f8c7f",
"f0 c #901acc",
"fv c #901bcf",
"bf c #908e83",
"eX c #911acd",
"c. c #918d80",
"cF c #918e85",
".h c #92897a",
"aN c #928c80",
"b9 c #928d7f",
"bg c #929086",
"fu c #931bd0",
"gN c #931bd1",
"hI c #931bd2",
"dn c #938691",
"aH c #938e81",
"#K c #938e82",
"lu c #939099",
"hm c #941bd6",
"iy c #948693",
"eP c #948c92",
"eW c #951bd2",
"f4 c #951bd4",
".y c #958f82",
"#e c #959188",
"hJ c #961bd6",
"ft c #961cd7",
"gP c #961cd8",
"ka c #969196",
"bb c #969389",
".H c #96968e",
"cb c #979284",
"bL c #979386",
"gt c #981cd9",
"gr c #981cda",
"f2 c #981ddb",
"aK c #989589",
".G c #98988f",
"f1 c #991cdb",
"gO c #991ddc",
".t c #998978",
"ew c #998d96",
".i c #998e7f",
"dm c #998e97",
".q c #998f7f",
".w c #999182",
"#d c #999489",
"cI c #999688",
"bK c #99968c",
"mc c #999b9c",
"me c #999c9e",
"gs c #9a1ddd",
".r c #9a8976",
".j c #9a8977",
".l c #9a8a78",
"ad c #9a9688",
"aL c #9a978c",
"jv c #9a979a",
"f3 c #9b1dde",
".e c #9b8f7e",
".o c #9b9183",
"cJ c #9b9689",
"fo c #9c77a7",
".n c #9c907e",
".f c #9c9283",
"aa c #9c9688",
"bJ c #9c998c",
"c# c #9c998f",
"cH c #9c9a8b",
".C c #9c9d95",
"fD c #9d79a6",
"#G c #9d9a8b",
".x c #9e9283",
".a c #9e998c",
"ab c #9e9a8c",
".g c #a09080",
"#c c #a09c92",
"ga c #a0a4a1",
".p c #a19181",
".b c #a19282",
"a# c #a19c8d",
"bM c #a19e91",
"c0 c #a1a096",
"ba c #a1a198",
".D c #a1a29a",
"kN c #a1a6a5",
"Qt c #a29b8d",
"c2 c #a2a197",
".B c #a2a39b",
"c3 c #a3a39b",
"mf c #a3a8a8",
"kx c #a48caf",
"#b c #a4a296",
"c8 c #a4a297",
".F c #a4a59d",
"jU c #a4a5a6",
".v c #a59d8e",
"k9 c #a6abab",
"ca c #a7a495",
"bH c #a7a598",
"c7 c #a7a59b",
"en c #a89ea4",
"ce c #a8a495",
"#F c #a8a595",
"bI c #a8a698",
"iK c #a8a8a9",
".E c #a8aaa2",
".# c #a9a093",
"#E c #a9a697",
"c5 c #a9a79d",
"kw c #a9acac",
"ac c #aaa799",
"#a c #aaa79b",
"c6 c #aaaa9f",
"j. c #aaaaac",
"kb c #aaaaae",
".A c #aaaca5",
".d c #ab9e8d",
"cG c #aba99b",
"md c #acb2b0",
"bO c #ada99c",
"cc c #adab9c",
".9 c #adaba1",
"lQ c #adb3b1",
"#D c #aeaa9c",
"#C c #aeab9e",
"c1 c #aeafa6",
"fn c #af99b3",
"cB c #afaea5",
"dA c #afafa2",
"bN c #b0ada1",
"dz c #b0afa2",
"## c #b1aea3",
"dD c #b2b1a3",
"dX c #b3acb4",
"cd c #b4b2a5",
"dE c #b4b3a7",
"c4 c #b4b3a9",
"dG c #b4b4a8",
".z c #b4b7b1",
"dy c #b5b5aa",
"dF c #b7b8ad",
"#. c #b8b7ae",
"aG c #b9bab1",
"a. c #bbbcb2",
"b8 c #bcbdb5",
"dC c #bdbeb2",
"cZ c #c0c2bb",
"#B c #c4c6bd",
".8 c #c5c7bf",
"bG c #c5c7c0",
"i# c #cbc5cd",
"e1 c #cca5df",
"ep c #ccc0d2",
"eT c #ccc9ce",
"fF c #cec7cd",
".7 c #d1d4ce",
"eQ c #d4d1d3",
"ho c #d6cfd7",
"h. c #d7d0d7",
"e4 c #d7d3d6",
"g# c #d8cada",
"eu c #ded0e1",
"h0 c #dfd7df",
"dV c #e0d2e2",
"dU c #e0dadf",
"fm c #e0dce0",
"gU c #e1dce1",
"il c #e2dee1",
"gz c #e5e1e5",
"fV c #e8e3e8",
"g2 c #eae3eb",
"hg c #eae4eb",
"dS c #eae8e9",
"hA c #ece5ec",
"go c #ede7ed",
"dT c #eff8f0",
"fE c #f4f0f5",
"dW c #f5fff8",
"eo c #f8f9f8",
"ev c #f9f9f9",
"e3 c #fbfbfb",
"e2 c #fefcfe",
"eS c #fefffd",
"eR c #ffffff",
"Qt.#.a.b.c.d.e.f.g.h.i.j.k.l.m.d.n.o.p.h.q.r.s.t.u.v.n.w.x.y.z.A.B.C.D.E.F.G.H.I",
".J.K.L.M.N.O.P.Q.R.S.T.U.V.W.X.Y.Z.Q.R.0.T.R.V.1.2.3.4.5.R.6.7.8.9#.###a#b#c#d#e",
"#f#g#h#i#j#k#l#m#n#o#p#q#r#s#t#u#l#m#v#o#p#q#w#s#x#y#z#m#v#A#B#C#D#E#F#G#H#I#J#K",
"#L#M#N#O#P#Q#R#S#T#U#V#W#X#Y#Z#0#R#1#2#3#4#W#X#5#6#7#R#1#8#9a.a#aaabacadaeafagah",
"aiajakalamanaoapaqarasatauauavawaoapalaxayazauauaAaBaCaDaEaFaGaHaIaJaKaLaMaNaOaP",
"aQaRaSaTaUaVaWaXaYaZa0a1a2a3a4aVaWa5aYa6a7a1a2a3a8aVaWa9b.b#babbbcbdbebfbgbgbhbi",
"bjbkblbmbnbobp.Lbqbrbs.Qbt.0bubvbpbwbxbybz.QbtbAbBbCbDbwbEbFbGbHbIbJbKbHbLbMbNbO",
"bPbQbRbSbnbTbUbVbWbXbYbZbRb0b1bTbUb2bWb3bYb4b5bSb1bTbUb6bWb7b8b9adc.c#cacbcccdce",
"cfcgchcicjcgckclcmcncocgcpcqcrcsckclctcucocvcpcwcxcyczclctcAcBcCcDcEcFcGcHcIcJ#E",
"cKcLaoaucMcNcOcPaucQaBcRcScScTaocLcUaucQcVcRcScScTcWcLcXcucYcZc0c1c2c3c4c5c6c7c8",
"c9d.d#dadbdcdddedfdgdhdidjdkdldmdndodpdgdhdqdrdsdtdudddvdwdxdydzdzdAdBdCdDdEdFdG",
"dHdIdJdKdLbsdMdNdOdPdQdRdSdTdUdVdWdXdYdZd0d1d2d3d4d5d6dNd7d8d9#f#u.We.e#eaebec.S",
"edeeefegeheiejekelemeneoepeqereseteuevewexeyezeAeBeCeDeEbUbt#peF#w#seGeHeI#m#v#o",
"eJeKeLeMeNeOePeQeReSeTeUeVeWeXereYeZe0e1e2e3e4e5e6e7e8e9f.f##Vfafbfcfdfefffg#2fh",
"fiazfjfkflfmfnfofpfqfrfsftfufvfwfxfyfzfAfBfCfDfEfFfGfHfIfJfKfLfMcSfNfOawfPaEalfQ",
"fRfSfTfUfVfWfXfYfZf0ftf1f2f3f4f5f6f6f7fyfyf8f9g.g#gagbcfdLgcgdgegedggfggghgigjcP",
"gkglgmgngofXgpgqgrgsgtf3f3f3ftguf6f6gvfyfyfygwgxgygzgAgBbxgCd5ebgDbAgEbCgFbwbxgG",
"gHbQb6gIgogJgKgLgMgNgOf3f3f3gPgQf6f6gRgvgSgSgSgSgTgUgVb6bWb3bY#ob5gWgXbTbUb6bW#Y",
"gYgZg0g1g2fXg3gLg4g5gPf1gsf3gPg6f6f6f6f6g7gSgSg8g9h.h#hahbcucocgg0cwhccghde9hbcu",
"heauaDhfhghhhigLhjhkhlhmf3f3gPhnf6f6gRf6g7gSgSgSg9hohpcPhqhraBhshtaohuaphvcPhqhw",
"hxhyhzhfhAhBhChDhEhFhGhHhIhJfteYf6f6f6hKhLgSgSgSgxhohMhNhOhPhQhRhShThUhVhWhXhOhP",
"hYhZdJg1h0h1h2hDh3h4h5hkh6hIfth7f6f6f6h8h9gSgSgSi.i#iaibicidd0ieifigihiidMibicid",
"ijeeikgIiliminioh3ipiqirisitfth7gRf6iug8iviwgSgSixiyiziAbUbtiBiCiDiEiF#8iGiAiHbt",
"eJd6iIiJiKiLiMiNh3h3h4iOh5iPiPh7iQiRiSiTiUiUiViWiXiYiZcpi0i1ffi2i3i4i5i6e9cpf.i7",
"i8fM#6fJi9j.j#jajbh3hEiOiOjciPjdiQgvjejfiUjfjgjhjijjcMjkjlfMazfNjmjnjojpcTjkcMfM",
"jqjrjsjtjujvjwfYjxjyh3jzjAjAjBjCf6iUiUiUiUjDjEjFjGjHjIjJ#xjK#0jLjMhPjNjOjIcfjPjK",
".WjQjRjSdPjTjUjVjWjXh3h3h3jYjZj0iUj1iUj2j3j4j5j6j7bCgF.Mj8gCj9k.bm.0gEbC.R.MbqgG",
"gHk#b5bSbnbTkakbkckdkekfkgkhkhkiiUj1j2iwkjkkklkmknbTbUb6kokpbYkqb5bSgXbTkrb6kob3",
"kse8fgktkue8kvkwkxkykzkAkhkhkhj1iUiUkBkCkDkEkFkGcxcl#scphbkH#0e8fgcwi1clkIcphbhq",
"kJcSkKaokLapcukMkNkOkPkQkRkhjZj1iUkSkTkUkVkWjjaoazaDjmkXcNkYanaukZk0azaDjmkXcNk1",
"k2k3k4k5k6fSa3k7k8k9kckdl.kRjZiUiwl#lalblcldlelflgjra3gelhli.Xghljlflklldqlmlhli",
"lnlolplqdLj9d2lrlsltlulvlwlxlyj4kTkClzlAlBlClDlEdLiikulrlFbnd0ielDlEihlGkulrlFbn",
"ijlHlIlJehlKlLlMlNlOlPlQlRlSlTlUlalVlWlXlYiClZl0l1l2l3iAbUl4iBiCiDl0l5l6l3iAlNl7",
"lFd6eLeMl8l9m.m.m#crmambmcmdmemfmgmhmimjmkmli3i4mml9e9m.i0i7mnmli3i4i5l9mom.mpmq",
"mrms#ZcMa6jpmtaqkLfQhbmumvmwmxmymzmAmBfQmChtapmDmEmFkLeNmGfQfMmHapmDmImFkLeNmGfQ",
"mJgiaVmKmLmMmNmOmPmQmRmSjtmTmUmVmWlfk5fOmXdamYmZm0mMm1mOk5m2m3m4m5mZm6mMm1mOm7m8",
"m9n.#ln#nanbncmqndnenfiigDngnhnbd0mqndnenfiigDninj.Vd0d1ndfjnfiinkninjnlnmd1ndfj",
"#jd2nnno#Mnpkonq#OnrnsntnunvnwnpkonqnxnrnyntnunvnwnpnznqnxnAnyntnBnonw#snCnDnxnA",
"nEcNapnFnGnHakapnInJnKnLnHnMnNnHakapcPcQnOnLnHnFnNnHakkZcPcQnPeNnHnFnQnHakkZcPnR",
"nSnTnUnUnVnWnXnYnZn0n1n2n3n4n5nWnXnYnZn6n7n2n3n4n5n8nXnYnZn9n7n2n3nXn5n8n4nYnZo."};
