/* XPM */
static char *dummy[]={
"40 40 1019 2",
"mE c #605a49",
"jl c #686354",
"fO c #6a6556",
"aQ c #6c6759",
"ai c #4c4638",
"fh c #575040",
"i3 c #585141",
"mm c #595242",
"nU c #1e1b15",
"n0 c #1f1b15",
"n3 c #1f1c15",
"n4 c #201c15",
"n1 c #26221c",
"mp c #272017",
"nN c #27231c",
"nV c #27231d",
"nS c #28231c",
"nD c #28241b",
"cQ c #29241b",
"nW c #29241d",
"nL c #29251b",
"nT c #29251d",
"nO c #2a251d",
"ho c #2b251c",
"ht c #2b251d",
"kT c #2b261d",
"nX c #2b271e",
"kW c #2c261d",
"nR c #2c271f",
"nY c #2c281f",
"nP c #2d2920",
"nM c #2d2921",
"n2 c #2e2a21",
"am c #2f2920",
"nQ c #2f2a21",
"nZ c #2f2b21",
"av c #302921",
"jj c #302a1f",
"mD c #302b20",
"mK c #312a20",
"aA c #312a21",
"mz c #312b20",
"fL c #312b21",
"mW c #322c22",
"mq c #33281d",
"m2 c #332c22",
"jF c #342e24",
"l7 c #352b20",
"k1 c #352e23",
"g. c #363025",
"kB c #372b1d",
"db c #373126",
"k2 c #373128",
"nC c #373227",
"iV c #382b1d",
"mv c #382e20",
"cX c #383126",
"cU c #383226",
"cP c #383227",
"aZ c #383228",
"nu c #383327",
"a6 c #383328",
"kS c #393328",
"cV c #39332a",
"nl c #393427",
"aB c #39342a",
"j2 c #3a2c1e",
"cR c #3a3327",
"cO c #3a3429",
"aw c #3a342b",
"cn c #3a3529",
"an c #3a352b",
"lJ c #3b3125",
"hp c #3b3428",
"cL c #3b3429",
"i1 c #3b3528",
"cu c #3b3529",
"je c #3c2f20",
"au c #3c3529",
"hs c #3c352a",
"mh c #3c3628",
"kC c #3c3629",
"hn c #3c362a",
"mw c #3c372c",
"fK c #3d3629",
"cS c #3d362a",
"jh c #3d362b",
"ji c #3d372a",
"cN c #3d372b",
"lb c #3d372c",
"lf c #3d372d",
"iv c #3e3122",
"hq c #3e372a",
"ao c #3e372b",
"cW c #3e372c",
"my c #3e382b",
"mC c #3f372a",
"aC c #3f372b",
"fM c #3f372c",
"kU c #3f382b",
"ap c #3f382c",
"aD c #3f382d",
"hR c #3f382e",
"fF c #3f392d",
"nJ c #3f392e",
"nI c #3f3a2e",
"md c #403425",
"mr c #403426",
"i0 c #40382b",
"kV c #40382c",
"kF c #40392c",
"aE c #40392d",
"dt c #40392f",
"nB c #403a2c",
"jf c #403a2d",
"nE c #403a2e",
"h8 c #413426",
"hJ c #413526",
"al c #413a2d",
"aq c #413a2e",
"fG c #413a2f",
"eM c #413b2e",
"fi c #413b2f",
"#6 c #413b30",
"l3 c #413c2e",
"n. c #413c2f",
"kh c #423628",
"ak c #423a2e",
"nF c #423b2e",
"cM c #423b2f",
"fE c #423b30",
"jg c #423c2f",
"fc c #423c30",
"#Z c #423c31",
"jk c #423d31",
"l. c #433628",
"nA c #433c2f",
"cT c #433c30",
"mo c #433c31",
"mB c #433d30",
"mA c #433e32",
"lw c #443829",
"cm c #443d2f",
"ct c #443d30",
"kG c #443d31",
"hr c #443e31",
"cK c #443e33",
"ny c #443f32",
"lS c #45392b",
"g9 c #453e30",
"aj c #453e31",
"at c #453e32",
"hb c #453f34",
"nz c #463f30",
"nH c #463f31",
"az c #463f32",
"nK c #464031",
"fH c #464032",
"nG c #473f30",
"iB c #473f31",
"l0 c #474031",
"mx c #474032",
"fJ c #474033",
"kE c #474035",
"hm c #483d2f",
"ln c #483f30",
"mn c #484033",
"lW c #484132",
"ar c #484133",
"ax c #484134",
"eA c #494132",
"eL c #494133",
"fN c #494234",
"ay c #494335",
"kH c #4a3e31",
"jB c #4a4034",
"nr c #4a4233",
"#O c #4a4234",
"nm c #4a4332",
"ns c #4a4333",
"as c #4a4335",
"fI c #4a4436",
"#P c #4a4538",
"g7 c #4c4335",
"#Y c #4c4436",
"b3 c #4c4536",
"kk c #4c4537",
"nk c #4d4435",
"#5 c #4d4436",
"fb c #4d4537",
"bX c #4d4637",
"gC c #4d483a",
"nx c #4e4435",
"nh c #4e4534",
"iA c #4e4536",
"gS c #4e4639",
"gy c #4e483b",
"b# c #4e4940",
"lU c #4f4537",
"lV c #4f4636",
"iz c #4f4637",
"gw c #4f473a",
"eh c #4f4838",
"eF c #4f493b",
"by c #4f493c",
"cy c #504838",
"cv c #504839",
"cs c #504938",
"#x c #50493c",
"br c #504a3c",
"bW c #514838",
"no c #514938",
"cg c #514939",
"jK c #51493c",
"nv c #514a38",
"id c #514a3c",
"#t c #514a3d",
"cY c #514e47",
"iZ c #524838",
"kj c #524938",
"gW c #524939",
"nt c #524a38",
"cl c #524a39",
"e7 c #524a3a",
"d4 c #524a3c",
"dL c #524b3d",
"jp c #524e42",
"nw c #534a39",
"g8 c #534a3a",
"eg c #534a3c",
"ni c #534b38",
"e8 c #534b3a",
"mj c #534c3b",
"mX c #534c3d",
"gf c #534c3e",
"#R c #534d3a",
"mG c #534d40",
"np c #544b39",
"cp c #544b3a",
"ch c #544b3b",
"lE c #544b3c",
"#1 c #544c3a",
"l5 c #544c3b",
"fe c #544d3b",
"mR c #544d3e",
"aY c #544d3f",
"mO c #544e41",
"dY c #54513f",
"h. c #554b3b",
"n# c #554c39",
"#S c #554c3a",
"ff c #554c3b",
"mi c #554d3b",
"b. c #554d3f",
"mJ c #554d40",
"mf c #554e3b",
"k0 c #554e41",
"mN c #555043",
"mP c #555044",
"iE c #564e3c",
"mL c #564e3f",
"m1 c #564e41",
"kq c #564f42",
"mF c #565042",
"mT c #565144",
"eK c #574e3c",
"ck c #574e3e",
"#4 c #57503d",
"m0 c #575043",
"co c #575142",
"mU c #575143",
"#Q c #575242",
"#N c #584d3c",
"lH c #584e3b",
"#X c #584e3c",
"#i c #584e3d",
"cz c #584e3e",
"iw c #584f3b",
"eD c #584f3c",
"#M c #584f3d",
"ha c #584f3e",
"#V c #58513d",
"la c #585143",
"jI c #585144",
"dZ c #58523e",
"#0 c #585242",
"#7 c #585243",
"mY c #585244",
"l4 c #58533e",
"mH c #585346",
"fa c #594e3d",
"kD c #594f3e",
"nq c #59503d",
"#s c #59503e",
"me c #59513f",
"mu c #595145",
"ez c #595244",
"da c #595245",
"f9 c #595246",
"ew c #595344",
"mM c #595345",
"e6 c #595441",
"fd c #595444",
"mQ c #595446",
"jC c #595447",
"jc c #5a1c03",
"eJ c #5a4f3f",
"bV c #5a503d",
"b2 c #5a503e",
"d6 c #5a503f",
"nj c #5a513e",
"cj c #5a513f",
"dM c #5a5140",
"ei c #5a523d",
"lF c #5a533e",
"hQ c #5a5344",
"mV c #5a5447",
"mI c #5a5547",
"it c #5b2710",
"#m c #5b513d",
"b6 c #5b513e",
"iy c #5b513f",
"iY c #5b5140",
"gE c #5b523d",
"cx c #5b523f",
"kp c #5b5240",
"d2 c #5b5241",
"nn c #5b533e",
"eB c #5b533f",
"cr c #5b5340",
"jE c #5b5345",
"ey c #5b5346",
"lX c #5b543f",
"#j c #5b5444",
"cf c #5b5445",
"ds c #5b5446",
"jD c #5b5647",
"jJ c #5b5649",
"#h c #5c513e",
"#r c #5c513f",
"mg c #5c5140",
"bR c #5c523d",
"#w c #5c523f",
"#W c #5c5240",
"ib c #5c5241",
"d3 c #5c5242",
"b5 c #5c533e",
"h# c #5c5340",
"ly c #5c5341",
"lx c #5c5342",
"#8 c #5c543f",
"l1 c #5c5440",
"iX c #5c5441",
"gV c #5c5445",
"kn c #5c5545",
"jo c #5c5648",
"ld c #5c5749",
"cA c #5c584e",
"h6 c #5d2c10",
"f# c #5d5341",
"ic c #5d5342",
"lz c #5d5343",
"cq c #5d543f",
"#2 c #5d5440",
"d1 c #5d5442",
"ia c #5d5443",
"#T c #5d5540",
"i2 c #5d5541",
"ml c #5d5542",
"gb c #5d5548",
"f. c #5d5642",
"g# c #5d5646",
"ge c #5d5647",
"mS c #5d5749",
"gc c #5d574a",
"iU c #5d574b",
"mZ c #5d5849",
"be c #5d5950",
"j0 c #5e2202",
"f5 c #5e3116",
"gu c #5e3217",
"cw c #5e5540",
"ci c #5e5541",
"ee c #5e5542",
"aX c #5e5647",
"#U c #5e5743",
"a5 c #5e5747",
"a9 c #5e5748",
"aT c #5e5849",
"aU c #5e584a",
"jG c #5e584b",
"fQ c #5e584c",
"hM c #5e594b",
"lC c #5f5542",
"ko c #5f5641",
"e9 c #5f5642",
"m9 c #5f5645",
"#3 c #5f5743",
"ek c #5f5749",
"a8 c #5f574a",
"a7 c #5f5848",
"ex c #5f5849",
"a4 c #5f584a",
"aV c #5f594b",
"iF c #5f594d",
"gt c #602d10",
"ig c #605544",
"mk c #605642",
"dN c #605644",
"ef c #605645",
"lG c #605740",
"iW c #605742",
"l6 c #605743",
"fg c #605843",
"a0 c #605949",
"kZ c #60594a",
"kA c #605950",
"gd c #605a4c",
"jH c #605a4d",
"gj c #605b4f",
"gQ c #612d10",
"#g c #615542",
"lY c #615740",
"ej c #615742",
"lI c #615743",
"h9 c #615745",
"lD c #615746",
"iC c #615840",
"eC c #615841",
"gx c #615946",
"#L c #615a48",
"hw c #615a4c",
"dg c #615b4d",
"e. c #615c4f",
"g5 c #622d10",
"iD c #625743",
"bU c #625843",
"#q c #625844",
"eE c #625845",
"lm c #625846",
"km c #625943",
"l# c #625a4a",
"hO c #625b4d",
"aW c #625c4d",
"lc c #625c4e",
"e5 c #625c4f",
"gF c #625c50",
"eN c #625d4e",
".2 c #625d4f",
"kY c #625d50",
"kX c #625f53",
"kf c #632304",
"lO c #632405",
"gT c #635943",
"m6 c #635945",
"bS c #635a43",
"b0 c #635a44",
"ki c #635a46",
"dK c #635a4b",
"le c #635b4b",
"lg c #635c4b",
"jm c #635c4c",
"dq c #635d4e",
"a3 c #635d4f",
"dp c #635d50",
"gX c #635d51",
".X c #635e50",
"bF c #636057",
"nb c #645947",
"nd c #645a47",
"#v c #645b44",
"nc c #645b45",
"na c #645b46",
"ll c #645c4d",
"di c #645d4e",
"hL c #645e50",
"dj c #645e51",
"hc c #645e52",
"jn c #645f50",
"j9 c #652506",
"#n c #655c44",
"m5 c #655c48",
"hP c #655c4d",
"bE c #655d4a",
"hS c #655e4d",
"dQ c #655e4e",
"d# c #655e4f",
"fP c #655f50",
"hN c #656052",
"hv c #656053",
"aF c #656054",
"d7 c #665c48",
"dO c #665c49",
"bQ c #665d46",
"i. c #665d49",
"bx c #665d4a",
"bq c #665d4b",
"j3 c #665e4b",
"dr c #665e4e",
"aR c #665f4f",
"ms c #665f57",
"bY c #66604c",
"aS c #666051",
"df c #666052",
"dw c #666152",
".N c #666153",
"hu c #666255",
"k7 c #672607",
"lT c #675c48",
"j6 c #675d47",
"eI c #675d4a",
"bZ c #675e48",
"#p c #675e49",
"lA c #675e4a",
"m8 c #675e4b",
"d0 c #675f4b",
"ga c #676052",
"dd c #676152",
"dh c #676153",
"d. c #676255",
"b7 c #676257",
"lq c #682c0f",
"iM c #682e11",
"gO c #682f11",
"f4 c #683114",
"ix c #685d49",
"b4 c #685e48",
"dP c #685e49",
"i# c #685e4a",
"#o c #685f48",
"kl c #685f49",
"#l c #685f4a",
".L c #685f4b",
"#z c #68604a",
"ng c #68604c",
"du c #686150",
"lh c #686152",
"l8 c #686158",
"do c #686355",
"f2 c #692f11",
"kQ c #694c3b",
"bn c #695f4a",
"eH c #69604b",
"bw c #69604c",
"ed c #69614e",
"bs c #69624d",
"bP c #696251",
"a2 c #696253",
"a1 c #696254",
"c9 c #696558",
"ky c #6a2808",
"hH c #6a2f11",
"bT c #6a604a",
"b1 c #6a614b",
".M c #6a614d",
"if c #6a614e",
"hK c #6a6254",
"bz c #6a634e",
"gD c #6a6351",
"dc c #6a6352",
"hT c #6a6354",
"k3 c #6a655d",
"kx c #6b2909",
"iq c #6b2f10",
"gr c #6b2f11",
"lZ c #6b604a",
"l2 c #6b604b",
"bt c #6b614b",
"gU c #6b614c",
"gz c #6b624c",
"d8 c #6b624d",
"ne c #6b634d",
"nf c #6b6350",
"d5 c #6b644e",
"j4 c #6b644f",
".V c #6b6451",
"de c #6b6455",
"el c #6b6457",
"kP c #6c280a",
"ke c #6c2909",
"kt c #6c290a",
"kO c #6c2a0a",
"h4 c #6c2f11",
"fA c #6c4228",
"bm c #6c624c",
"jN c #6c634d",
"m7 c #6c6451",
"#k c #6c6551",
"#u c #6c6552",
"dv c #6c6556",
"dR c #6c6659",
"aP c #6c675c",
"k6 c #6d2a0a",
"iN c #6d2f10",
"gi c #6d634d",
"bA c #6d634e",
".0 c #6d644e",
".K c #6d644f",
".S c #6d654e",
"ie c #6d6650",
"lB c #6d6651",
"#y c #6d6653",
"jZ c #6e2a0a",
"f3 c #6e3010",
"fv c #6e3011",
"fy c #6e3112",
"eY c #6e3114",
"fz c #6e3519",
"bl c #6e644d",
"bu c #6e6653",
"eG c #6e6754",
"jO c #6e685e",
"lP c #6f290a",
"lN c #6f290b",
"hI c #6f2c0c",
"es c #6f361a",
"jM c #6f654f",
"bp c #6f6651",
"bB c #6f6654",
"bD c #6f6751",
"gA c #6f6754",
"e4 c #6f695c",
"fU c #70270a",
"jz c #702a0a",
"g3 c #702e0e",
"gs c #702f0f",
"bk c #706750",
"gh c #706851",
"gB c #706852",
".U c #706853",
"dk c #706a5e",
"gG c #71280b",
"jy c #712c0c",
"gP c #712e0e",
"iO c #712f0f",
"fw c #713010",
"eX c #713011",
"kz c #71574a",
"jL c #716851",
".R c #716853",
"dJ c #716857",
"m4 c #716a58",
"kR c #716b66",
"mt c #716c65",
"mc c #716c66",
"iI c #72280b",
"fT c #722a0c",
"iS c #722e0e",
"g4 c #722f0f",
"fx c #723010",
"gN c #723012",
".5 c #726952",
"#f c #726954",
".Q c #726a53",
"ec c #726a54",
"m3 c #726d5c",
"hX c #73290b",
"he c #732a0d",
"jY c #732d0d",
"hk c #733011",
"h3 c #733012",
"k8 c #735042",
"eb c #736a53",
"lk c #736a59",
"j5 c #736b54",
"bC c #736b56",
"dx c #736f61",
"k9 c #736f69",
"kK c #742e0e",
"j. c #743112",
"bv c #746b56",
"bo c #746c57",
"bj c #746e5b",
"gg c #746f5b",
"hy c #752a0c",
"ii c #752b0d",
"iR c #752e0e",
"h5 c #752f0f",
"jx c #753112",
"kJ c #753e23",
"lu c #754833",
".T c #756d59",
"d9 c #756e5a",
".1 c #756e5c",
".W c #756f5c",
".I c #75746c",
"i6 c #762b0d",
"is c #762e0e",
"ij c #772b0d",
"ir c #773010",
"lQ c #775041",
"lv c #77736e",
"bi c #77746a",
"jd c #77777c",
"kw c #782f0f",
"i4 c #78736b",
"kN c #792f0f",
"g2 c #793112",
"fS c #79371a",
".P c #7a725c",
".Z c #7a725d",
"fj c #7a766c",
".4 c #7b735e",
"#9 c #7b7563",
"jb c #7c2e0d",
"k. c #7c2f0f",
"f6 c #7c563f",
"ea c #7c745f",
"gl c #7d2c0e",
"ku c #7d2f0f",
"lr c #7d3111",
"iP c #7d3212",
"lR c #7d7876",
"ja c #7e3212",
"kL c #7f3010",
"jR c #7f3110",
"j# c #7f3313",
"dI c #7f7865",
"hV c #7f7866",
"i7 c #803111",
"gq c #803212",
"jX c #803313",
"eZ c #804d36",
".u c #807366",
"dH c #807a68",
"ls c #813110",
"fo c #813214",
"iQ c #813313",
".m c #817467",
"lj c #817a67",
".J c #817b66",
"jW c #823313",
"hU c #827c69",
"cE c #827c70",
"k5 c #833211",
"kd c #833313",
"li c #837d6a",
"lo c #837f7d",
"jV c #843414",
"jA c #857b7d",
"#A c #857f6c",
"hY c #863112",
"eT c #863314",
"cC c #868173",
"j1 c #868d98",
"er c #873212",
"lM c #87523c",
"#J c #878175",
"dl c #878179",
"kg c #878188",
"aI c #878274",
"bh c #87857b",
"jQ c #884428",
"aJ c #888375",
".c c #897d6f",
".6 c #898472",
"cD c #898477",
"iT c #8a7b79",
"ae c #8a8578",
"af c #8a8579",
"ag c #8a8679",
"dB c #8a897e",
"gH c #8b3213",
"#I c #8b8678",
"aO c #8b867a",
".O c #8b8773",
"ep c #8c3313",
".Y c #8c8774",
"im c #8d3616",
"#H c #8d877a",
".3 c #8d8875",
"aM c #8d887d",
"bd c #8d8a7d",
"lK c #8d8a88",
"js c #8e3615",
"mb c #8e8a89",
"jS c #8f3515",
"iH c #8f543d",
".k c #8f8677",
".s c #8f8777",
"e# c #8f8b78",
"ah c #8f8b7f",
"bc c #8f8c7f",
"jr c #90604e",
"bf c #908e83",
"c. c #918d80",
"cF c #918e85",
".h c #92897a",
"aN c #928c80",
"b9 c #928d7f",
"bg c #929086",
"dn c #938d85",
"aH c #938e81",
"#K c #938e82",
"iJ c #943716",
"iK c #943817",
"fn c #946550",
"iu c #948f86",
"eO c #94918b",
"f1 c #953413",
"k# c #953716",
"ju c #953817",
".y c #958f82",
"#e c #959188",
"h0 c #963817",
"bb c #969389",
"j7 c #969391",
".H c #96968e",
"hz c #973717",
"il c #973918",
"cb c #979284",
"bL c #979386",
"jt c #983817",
"aK c #989589",
".G c #98988f",
"hg c #993a18",
".t c #998978",
".i c #998e7f",
".q c #998f7f",
"lp c #999091",
".w c #999182",
"#d c #999489",
"ev c #99948b",
"cI c #999688",
"bK c #99968c",
"jv c #9a3918",
".r c #9a8976",
".j c #9a8977",
".l c #9a8a78",
"dm c #9a948c",
"ad c #9a9688",
"aL c #9a978c",
"jq c #9a9897",
"fu c #9b3513",
"kv c #9b3717",
"lt c #9b3817",
"hB c #9b3a19",
".e c #9b8f7e",
".o c #9b9183",
"cJ c #9b9689",
"l9 c #9b999c",
"i8 c #9c3a19",
".n c #9c907e",
".f c #9c9283",
"aa c #9c9688",
"bJ c #9c998c",
"c# c #9c998f",
"cH c #9c9a8b",
".C c #9c9d95",
"hZ c #9d3a19",
"m# c #9d999e",
"#G c #9d9a8b",
"ka c #9e3a19",
".x c #9e9283",
".a c #9e998c",
"ab c #9e9a8c",
"gZ c #9f3918",
".g c #a09080",
"#c c #a09c92",
"f8 c #a0a1a4",
"hC c #a13a18",
"hA c #a13b1a",
".p c #a19181",
".b c #a19282",
"a# c #a19c8d",
"bM c #a19e91",
"c0 c #a1a096",
"ba c #a1a198",
".D c #a1a29a",
"hf c #a23a19",
"jT c #a23b19",
"Qt c #a29b8d",
"c2 c #a2a197",
"kI c #a2a1a6",
".B c #a2a39b",
"kb c #a33b19",
"c3 c #a3a39b",
"ik c #a43c1a",
"#b c #a4a296",
"c8 c #a4a297",
".F c #a4a59d",
"in c #a53a18",
".v c #a59d8e",
"ma c #a5a3a8",
"fB c #a68979",
"jP c #a6a4a6",
"fm c #a78677",
"ca c #a7a495",
"bH c #a7a598",
"c7 c #a7a59b",
"ce c #a8a495",
"#F c #a8a595",
"em c #a8a59d",
"bI c #a8a698",
"k4 c #a8a6ab",
".E c #a8aaa2",
"gI c #a93d1b",
".# c #a9a093",
"#E c #a9a697",
"c5 c #a9a79d",
"iG c #a9a8a9",
"ac c #aaa799",
"#a c #aaa79b",
"kr c #aaa9ac",
"c6 c #aaaa9f",
".A c #aaaca5",
"kM c #ab3b19",
"gm c #ab3d1b",
".d c #ab9e8d",
"cG c #aba99b",
"eq c #ac3714",
"i5 c #acaaab",
"bO c #ada99c",
"cc c #adab9c",
".9 c #adaba1",
"m. c #adacb2",
"#D c #aeaa9c",
"j8 c #aeaaac",
"#C c #aeab9e",
"lL c #aeadb3",
"c1 c #aeafa6",
"g0 c #af3d1b",
"ks c #af948c",
"cB c #afaea5",
"dA c #afafa2",
"jU c #b03d1a",
"bN c #b0ada1",
"dz c #b0afa2",
"kc c #b13d1a",
"## c #b1aea3",
"h1 c #b23d1a",
"dD c #b2b1a3",
"fl c #b3a399",
"dX c #b4b0ac",
"cd c #b4b2a5",
"dE c #b4b3a7",
"c4 c #b4b3a9",
"dG c #b4b4a8",
".z c #b4b7b1",
"fp c #b53b16",
"fV c #b53b17",
"dy c #b5b5aa",
"dF c #b7b8ad",
"#. c #b8b7ae",
"aG c #b9bab1",
"eU c #ba3c17",
"a. c #bbbcb2",
"i9 c #bc3e19",
"b8 c #bcbdb5",
"dC c #bdbeb2",
"cZ c #c0c2bb",
"hD c #c13d1a",
"hh c #c23e19",
"gJ c #c23f1a",
"g1 c #c33e19",
"jw c #c33f19",
"#B c #c4c6bd",
"io c #c53e19",
".8 c #c5c7bf",
"bG c #c5c7c0",
"iL c #c73f19",
"h2 c #c83f1a",
"fq c #c93f1a",
"hi c #ca3f1a",
"hE c #cb3f1a",
"ip c #cc3f1a",
"fW c #cc401a",
"eW c #cd411a",
"h7 c #cdc8c5",
"eS c #cec9c9",
"fD c #ceccc7",
"ft c #cf3f1b",
"fs c #d0411b",
"gK c #d1411b",
".7 c #d1d4ce",
"hF c #d2401b",
"eV c #d2421b",
"eo c #d2c3c0",
"f0 c #d4411b",
"eP c #d4d3d1",
"hj c #d6401b",
"hG c #d6421b",
"fr c #d7421c",
"hl c #d7d3cf",
"g6 c #d7d4d0",
"e3 c #d7d6d3",
"gM c #d8421c",
"gp c #d9431c",
"gn c #da431c",
"f7 c #dad0ca",
"fX c #db431c",
"fY c #db431d",
"gL c #dc431d",
"go c #dd441d",
"fZ c #de441d",
"e0 c #dfb2a5",
"hW c #dfdcd7",
"fk c #e0dedc",
"dU c #e0dfda",
"et c #e1d6d0",
"gR c #e1dedc",
"dV c #e2d8d2",
"ih c #e2e1de",
"gv c #e5e3e1",
"fR c #e8e5e3",
"dS c #eaeae8",
"gY c #ebe7e3",
"hd c #ebe7e4",
"hx c #ece9e5",
"gk c #edeae7",
"dT c #eff2f8",
"fC c #f5f1f0",
"dW c #f5f6ff",
"en c #f8f9f9",
"eu c #f9f9f9",
"e2 c #fbfbfb",
"eR c #fdffff",
"e1 c #fefdfc",
"eQ c #ffffff",
"Qt.#.a.b.c.d.e.f.g.h.i.j.k.l.m.d.n.o.p.h.q.r.s.t.u.v.n.w.x.y.z.A.B.C.D.E.F.G.H.I",
".J.K.L.M.N.O.P.Q.R.S.T.U.V.W.X.Y.Z.Q.R.0.T.R.V.1.2.3.4.5.R.6.7.8.9#.###a#b#c#d#e",
"#f#g#h#i#j#k#l#m#n#o#p#q#r#s#t#u#l#m#v#o#p#q#w#s#x#y#z#m#v#A#B#C#D#E#F#G#H#I#J#K",
"#L#M#N#O#P#Q#R#S#T#U#V#W#X#Y#Z#0#R#1#2#3#4#W#X#5#6#7#R#1#8#9a.a#aaabacadaeafagah",
"aiajakalamanaoapaqarasatauauavawaoapalaxayazauauaAaBaCaDaEaFaGaHaIaJaKaLaMaNaOaP",
"aQaRaSaTaUaVaWaXaYaZa0a1a2a3a4aVaWa5aYa6a7a1a2a3a8aVaWa9b.b#babbbcbdbebfbgbgbhbi",
"bjbkblbmbnbobp.Lbqbrbs.Qbt.0bubvbpbwbxbybz.QbtbAbBbCbDbwbEbFbGbHbIbJbKbHbLbMbNbO",
"bPbQbRbSbnbTbUbVbWbXbYbZbRb0b1bTbUb2bWb3bYb4b5bSb1bTbUb6bWb7b8b9adc.c#cacbcccdce",
"cfcgchcicjcgckclcmcncocgcpcqcrcsckclctcucocvcpcwcxcyczclctcAcBcCcDcEcFcGcHcIcJ#E",
"cKcLaoaucMcNcOcPaucQaBcRcScScTaocLcUaucQcVcRcScScTcWcLcXcucYcZc0c1c2c3c4c5c6c7c8",
"c9d.d#dadbdcdddedfdgdhdidjdkdldmdndodpdgdhdqdrdsdtdudddvdwdxdydzdzdAdBdCdDdEdFdG",
"dHdIdJdKdLbsdMdNdOdPdQdRdSdTdUdVdWdXdYdZd0d1d2d3d4d5d6dNd7d8d9#f#u.We.e#eaebec.S",
"edeeefegeheiejekdielemeneoepeqereseteuevewexeyezeAeBeCeDbUbt#peE#w#seFeGeH#m#v#o",
"eIeJeKeLeMeNeOePeQeReSeTeUeVeWeqeXeYeZe0e1e2e3e4e5e6e7e8e9f.#Vf#fafbfcfdfeff#2fg",
"fhazfififjfkflfmfnfofpfqfrfsftfufvfwfxfyfzfAfBfCfDaFfEfFfGfHfIfJcSfKfLawfMaEalfN",
"fOdQfPfQfRfSfTfUfVfWfrfXfYfZf0f1f2f2f3fwfwf4f5f6f7f8f9cfdLg.g#gagadggbgcgdgegfcP",
"ggghgigjgkfTglgmgngogpfZfZfZfrgqf2f2grfwfwfwgsgtgugvgwgxbxgyd5ebgzbAgAbCgBbwbxgC",
"gDbQgEgFgkgGgHgIgJgKgLfZfZfZgMgNf2f2gOgrgPgPgPgPgQgRgSb6bWb3bY#ob5gTgUbTbUb6bW#Y",
"gVgWffgXgYfTgZgIg0g1gMfXgofZgMg2f2f2f2f2g3gPgPg4g5g6g7g8g9cucocgh.cwh#cghae8g9cu",
"hbauaphchdhehfgIhghhhihjfZfZgMhkf2f2gOf2g3gPgPgPg5hlhmcPhnhoaBhphqaohraphscPhnht",
"huhvhwhchxhyhzhAhBhChDhEhFhGfreXf2f2f2hHhIgPgPgPgthlhJhKhLhMhNhOhPhQhRhSfPhThLhM",
"hUhVdJgXhWhXhYhAhZh0h1hhh2hFfrh3f2f2f2h4h5gPgPgPh6h7h8h9i.i#d0iaibicidiedMh9i.i#",
"ifeeiggFihiiijikhZiliminioipfrh3gOf2iqg4irisgPgPitiuiviwbUbtixiyiziAiB#8iCiwiDbt",
"eId6iEiFiGiHiIiJhZhZh0iKh1iLiLh3iMiNiOiPiQiQiRiSiTiUiVcpiWiXfeiYiZi0i1dZe8cpe9i2",
"i3fJ#6fGi4i5i6i7i8hZhBiKiKi9iLj.iMgrj#jaiQjajbjcjdjecMjfjgfJazfKjhjijjjkcTjfcMfJ",
"jljmjnjojpjqjrfUjsjthZjujvjvjwjxf2iQiQiQiQjyjzjAjBjCjDjE#xjF#0jGjHhMjIjJjDcfjKjF",
".WjLjMjNdPjOjPjQjRjShZhZhZjTjUjViQjWiQjXjYjZj0j1j2bCgB.Mj3gyj4j5bm.0gAbC.R.MbqgC",
"gDj6b5bSbnbTj7j8j9k.k#kakbkckckdiQjWjXiskekfkgkhkibTbUb6kjkkbYklb5bSgUbTkmb6kjb3",
"kne7ffkokpe7kqkrksktkukvkckckcjWiQiQkwkxkykzkAkBcxcl#scpg9kC#0e7ffcwiXclkDcpg9hn",
"kEcSkFaokGapcukHkIkJkKkLkMkcjUjWiQkNkOkPkQkRjeaoazaDjhkScNkTanaukUkVazaDjhkScNkW",
"kXkYkZk0k1dQa3k2k3k4j9k.k5kMjUiQisk6k7k8k9l.l#lalbjma3galcld.Xgdlelalflgdqlhlcld",
"liljlklldLj4d2lmlnlolplqlrlsltjZkOkxlulvlwlxlylzdLiekplmlAbnd0ialylzidlBkplmlAbn",
"iflClDlEehlFlGlHlIlJlKlLlMlNlOlPk7lQlRlSlTiylUlVlWlXlYiwbUlZixiyizlVl0l1lYiwlIl2",
"lAd6eKeLl3l4l5l5l6crl7l8l9m.m#mambmcmdmemfmgiZi0mhl4e8l5iWi2mimgiZi0i1l4mjl5mkml",
"mmmn#ZcMa6jkmoaqkGfNg9mpmqmrmsmtmumvmwfNmxhqapmymzmAkGeMmBfNfJmCapmymDmAkGeMmBfN",
"mEgeaVmFmGmHmIezmJmKmLmMjomNmOmPmQlak0fLmRdamSmTmUmHmVezk0mWmXmYmZmTm0mHmVezm1m2",
"m3m4#lm5m6m7m8mlm9n.n#iegznanbm7d0mlm9n.n#iegzncnd.Vd0d1m9fin#ienencndnfngd1m9fi",
"#jd2nhni#Mnjkjnk#Onlnmnnnonpnqnjkjnknrnlnsnnnonpnqnjntnknrnunsnnnvninq#snwnxnrnu",
"nycNapnznAnBakapnCnDnEnFnBnGnHnBakapcPcQnInFnBnznHnBakkUcPcQnJeMnBnznKnBakkUcPnL",
"nMnNnOnOnPnQnRnSnTnUnVnWnXnYnZnQnRnSnTn0n1nWnXnYnZn2nRnSnTn3n1nWnXnRnZn2nYnSnTn4"};
