/* XPM */
static char *dummy[]={
"40 40 740 2",
"as c #000000",
"bt c #009f5d",
"gx c #00a05d",
"fj c #00a05e",
".a c #00a15e",
"dH c #039758",
"ek c #059f5f",
".i c #0e8e52",
"hm c #169b64",
"eY c #186336",
"id c #2c8a62",
".Q c #2e8c64",
"h2 c #2e8d65",
"gZ c #2e9068",
"e6 c #2f865d",
".Y c #30996f",
".I c #309b70",
".r c #309b71",
".1 c #31653b",
"#h c #31683f",
"#. c #31875c",
"b6 c #318b65",
"hE c #31986e",
"ds c #319c72",
"aP c #319e74",
"d2 c #31a075",
".z c #31a176",
".0 c #31a276",
"eG c #31a277",
"dU c #31a377",
"bc c #31a478",
"dz c #31a579",
".7 c #327a51",
"fS c #32936a",
"eX c #32936c",
"aB c #32996f",
"fX c #329c71",
"hK c #329f73",
"au c #329f74",
"de c #32a075",
"eb c #32a376",
".A c #32a377",
"#t c #32a378",
".b c #32a579",
"#s c #32a57a",
"Qt c #32a67a",
"#n c #33764e",
"eE c #33855e",
"ib c #338b63",
"dM c #339c72",
"iW c #339e74",
"cB c #33a478",
"eW c #34542f",
"b8 c #346e4a",
"ie c #34714d",
"gG c #347639",
"#q c #348d68",
"eA c #34966e",
".k c #349e70",
"#Y c #34a378",
"gV c #357851",
"h8 c #358a5c",
"aI c #35956c",
"am c #35986e",
"ej c #359870",
"c3 c #359e73",
"ec c #366f33",
".y c #369066",
"dl c #369168",
"iy c #369269",
"h. c #36936c",
"g2 c #37744e",
"#D c #379068",
"jt c #37956c",
".s c #379667",
".c c #389566",
"eH c #395735",
"hY c #396a3b",
"h3 c #396e3e",
"b3 c #398659",
"gE c #398664",
"el c #398c5b",
".J c #39915f",
"eF c #39a27a",
"#e c #3a572f",
".H c #3a7e55",
"fk c #3a9e74",
"gy c #3b8c5c",
"fc c #3b966e",
"#M c #3c7c57",
"#u c #3d7955",
".X c #3d7c53",
"ih c #3d916e",
"bH c #3e7552",
".q c #3e845a",
"bu c #3e8a5c",
"bb c #3e9673",
"c9 c #3e9d72",
"#7 c #3ea07a",
"jo c #3f805a",
"ak c #3f9f7b",
"im c #40946b",
"bs c #409472",
"eR c #416338",
"et c #41733d",
".R c #417c45",
"jh c #418f67",
"h7 c #419e7b",
".B c #427943",
"dV c #42875c",
"h6 c #429171",
"eM c #434f28",
"bI c #449172",
"ei c #457451",
"ad c #457d4c",
"ii c #457d57",
"ff c #458762",
"#8 c #459269",
"g7 c #45956c",
"e3 c #465029",
"bd c #468557",
"hS c #477846",
"dT c #479476",
"g4 c #484e28",
"gX c #48663a",
"## c #48683b",
"bB c #486b43",
"#V c #487248",
"ez c #48724f",
"hL c #487744",
"gk c #48855b",
"js c #489b7b",
"iA c #493e25",
"cm c #498d72",
".6 c #4a552d",
"b5 c #4a5b35",
"b4 c #4a6b3a",
"d9 c #4a9276",
".9 c #4a9a7b",
"fJ c #4b3f28",
"fs c #4b9066",
".l c #4b9666",
"ig c #4c7960",
"jE c #4c997c",
"#m c #4d572f",
"cy c #4d6249",
"gL c #4d6d59",
"bz c #4d826a",
"f7 c #4d9378",
"aO c #4d9479",
"#p c #4d987c",
"iN c #4e4127",
"fU c #4e4129",
"dK c #4f1bd6",
"a4 c #4f28b8",
"gm c #4f3499",
"e8 c #4f411f",
"cR c #4f835d",
"aQ c #4f855b",
".h c #4f8760",
"at c #4f977c",
"aH c #5014eb",
".P c #506c41",
"dN c #507345",
"gj c #509178",
"b7 c #50967c",
"gY c #514722",
"h1 c #516c3e",
"cC c #51815b",
"cz c #518a73",
"#o c #518c74",
"a3 c #519279",
"hp c #519579",
"fq c #51967c",
"hA c #5227c0",
"dn c #52492c",
".x c #528862",
"il c #528f66",
"fE c #5319e5",
"ar c #531be4",
"ea c #534577",
"hO c #53676b",
"iX c #537d56",
"#C c #53957c",
"bR c #54552f",
".8 c #548b75",
"dC c #554c2d",
"jg c #559276",
"fB c #55947c",
"fp c #5620de",
"jm c #5625d9",
"er c #56623a",
".f c #567045",
"av c #56895f",
"cb c #575f45",
"br c #576268",
"#E c #577451",
"dt c #57855b",
"#U c #57937c",
"by c #58575b",
"i. c #585e44",
"bG c #586139",
"ju c #587f58",
"i1 c #5929d2",
"f6 c #593f99",
"if c #596046",
"a7 c #59784d",
"hl c #597f58",
"i9 c #5a21d6",
"hX c #5a565a",
"d8 c #5a587e",
"cs c #5a5f45",
"gD c #5a6146",
"gv c #5a7163",
"gd c #5a7347",
".o c #5a774e",
".K c #5a7c4d",
"hb c #5a7e68",
"fG c #5a8964",
"dq c #5b2fcd",
"bZ c #5b623c",
"h5 c #5b633c",
"eZ c #5b6530",
"em c #5b7144",
"fN c #5b865c",
"#f c #5b907e",
"je c #5c2ecc",
"#4 c #5c2fcf",
"eD c #5c5e38",
"#Z c #5c7d56",
"iU c #5d5031",
"cx c #5d603a",
"hV c #5d656f",
"iI c #5e4f30",
"gN c #5e7648",
"e5 c #5e8676",
"cl c #5f553f",
"gP c #5f5e43",
"fH c #5f734f",
"aX c #5f7753",
"dS c #605677",
"eV c #605b30",
"dQ c #60673d",
".v c #60724c",
"ji c #60754c",
"hQ c #608d6e",
"gi c #61508e",
"fP c #615336",
"g1 c #616a39",
"#i c #616b39",
"bv c #617849",
"#6 c #618f7d",
"hC c #623ac3",
"ab c #623cc3",
"eI c #62622e",
"d6 c #626940",
"f4 c #626944",
"fi c #627c5d",
"d1 c #627d71",
".t c #629667",
"dv c #635938",
"i2 c #63609d",
"gg c #636a46",
"aj c #638d7d",
"jF c #639883",
"hq c #639b87",
"#3 c #6440bf",
"a2 c #64509a",
"dJ c #645838",
"h# c #647163",
".G c #64734d",
"aW c #64805a",
"c2 c #648d7d",
".d c #649767",
"a6 c #64a28e",
".j c #64a592",
"e9 c #655f3b",
".2 c #656b39",
"eh c #656c45",
"aJ c #657243",
"bA c #65a692",
"d. c #65a693",
"ah c #6644ba",
"ba c #66675f",
"gU c #666937",
"ga c #666a55",
"#J c #667164",
".W c #667550",
"jq c #667653",
"jH c #66785e",
"#S c #667c6f",
".Z c #667d53",
"#A c #667d70",
".u c #668b62",
"fR c #66a895",
"b. c #676741",
"dZ c #676c48",
"dW c #677748",
".n c #67815a",
"hh c #67a794",
"cA c #67a996",
".# c #67aa97",
"dF c #6850a6",
"ey c #686e49",
"#W c #688479",
"#r c #688b7e",
"eB c #68a895",
"bU c #694b21",
"aN c #694dac",
"hH c #6950a5",
"#d c #69663e",
"co c #69693d",
"bp c #696943",
"hU c #696961",
"gu c #696e4f",
"iT c #6a5e3b",
"aU c #6a6572",
"h9 c #6a693c",
"cc c #6a7362",
"is c #6a774a",
".m c #6a9268",
"aG c #6b50af",
"ck c #6b674b",
"b9 c #6b693d",
"aR c #6b6b42",
"gK c #6b7152",
".p c #6b9473",
"fA c #6c53ac",
"aZ c #6c643d",
"aK c #6c653d",
"hG c #6c653e",
"eS c #6c6f4d",
"#z c #6c6f62",
"be c #6c7043",
"h4 c #6c7046",
"f9 c #6c7345",
"hy c #6c7348",
"jC c #6c7350",
"e7 c #6d451e",
"jf c #6d55a2",
"dI c #6d613d",
"hz c #6d633c",
"he c #6d6c60",
"aM c #6d7057",
"#R c #6d7063",
"iS c #6d7650",
"jn c #6d897e",
"cH c #6e58a7",
"fO c #6e5f3d",
"dx c #6e618e",
".E c #6e6844",
"bh c #6e6d4a",
"bx c #6e6d4b",
"a1 c #6e7156",
"bJ c #6e7d5e",
".g c #6e8f6e",
"i3 c #6e9c8f",
"bM c #6f572d",
"ao c #6f6042",
"bV c #6f6e43",
"bC c #6f7146",
"gS c #6f7651",
"df c #6f7a51",
"cM c #6f805e",
"hs c #705f41",
"aD c #706142",
"jl c #706195",
".U c #706a46",
"iY c #706b40",
"dy c #70817a",
".e c #708b68",
"az c #715ea1",
"#a c #717451",
"jD c #717f73",
"eP c #71988d",
"gT c #723715",
"gb c #725e9f",
"cG c #72609f",
"ai c #72629d",
"c4 c #72784e",
"hD c #727e79",
"jr c #728075",
"iV c #72837c",
"eO c #728780",
"cg c #73512d",
"iH c #735736",
"du c #735a37",
"i8 c #735e93",
"cV c #73629d",
"jj c #73663c",
"i4 c #736c48",
"gB c #736e4e",
".N c #736f4e",
"g# c #737754",
"hJ c #737d78",
"cL c #738c76",
"#5 c #746699",
"hB c #746b46",
"aS c #746c46",
"bQ c #747653",
"dY c #747b57",
"gc c #747c79",
"#T c #74817c",
"#K c #748580",
"ij c #755231",
"gh c #756c84",
"hw c #756d47",
"ch c #757155",
"#I c #757365",
"#B c #75817c",
"aa c #766a94",
"f5 c #766c89",
"#N c #766d4b",
".S c #767f5a",
"dL c #76817d",
"ip c #76837c",
"f0 c #776847",
"aV c #777b76",
"jG c #777e57",
"a5 c #777f7c",
"al c #77827d",
"iL c #786140",
"iZ c #78623a",
"aw c #786d49",
"aT c #787555",
"dp c #78786a",
"bN c #787a58",
"gH c #787b56",
"bg c #787c59",
"aA c #78837f",
"#g c #788c86",
"jk c #796a4d",
"ef c #796c4a",
"jw c #79705a",
"cW c #79718e",
"eu c #797550",
"dE c #797868",
".C c #79805b",
".w c #798e73",
"iD c #799085",
"g0 c #7a3513",
"ew c #7a6e4c",
"aY c #7a6f48",
"cI c #7a738c",
"ed c #7a7753",
"i0 c #7a786e",
"aC c #7a7a50",
"jv c #7a7c55",
"jc c #7b6039",
"gz c #7b6136",
"iO c #7b6944",
"i7 c #7b694c",
"eL c #7b6a3d",
"#v c #7b6c4b",
"dD c #7b6e4a",
"cP c #7b758a",
"dB c #7b774b",
"e0 c #7b7b73",
"a8 c #7b7f56",
"ac c #7b827f",
"jp c #7b8358",
"#9 c #7b845e",
"ep c #7c7150",
"ca c #7c7153",
"a0 c #7c7550",
"ge c #7c784a",
"eJ c #7c7d77",
"#X c #7c817f",
"jA c #7d5536",
"aL c #7d7651",
"d0 c #7d7885",
"cp c #7d7c75",
"hM c #7d7d55",
".M c #7d7d5c",
"d7 c #7d7d71",
"f3 c #7d7f5b",
"#j c #7d7f70",
"c1 c #7d817f",
"i6 c #7e5f36",
".5 c #7e7249",
"#F c #7e735e",
"jd c #7e7468",
"#y c #7e7869",
"c. c #7e7d78",
"gf c #7e7e5a",
"d4 c #7e7f51",
"#L c #7e8281",
"gq c #7f4d1d",
"g9 c #7f6847",
"iB c #7f6c46",
"e2 c #7f6d40",
"do c #7f714c",
"b2 c #7f7256",
"cr c #7f7355",
"dm c #7f754a",
"f2 c #7f784a",
"an c #7f784d",
"gr c #7f7955",
"#Q c #7f796a",
"g. c #7f7b53",
"cX c #7f7c76",
"#O c #7f7c77",
"#w c #7f7d7a",
"dR c #7f7f76",
"hg c #7f7f7d",
".3 c #7f8073",
".L c #7f8461",
"dP c #7f8563",
"gl c #806439",
"ax c #806c4b",
"dw c #807659",
"iC c #807d77",
"en c #80805f",
"fb c #808080",
"d5 c #808562",
"eq c #808669",
"gp c #816945",
"dj c #816b45",
"#l c #81734a",
"iP c #817d74",
"fh c #817d79",
"fa c #817e7b",
"eo c #817f60",
"dO c #818052",
"hR c #81825d",
"gA c #818260",
"bq c #81826d",
"bW c #81836d",
"a9 c #818766",
".O c #818c70",
"ic c #824625",
"hc c #826544",
"gn c #826f6a",
"da c #827c55",
"bF c #827c5a",
"jx c #827c79",
"fL c #827f78",
"cF c #82807e",
"bf c #82815c",
"e# c #82825a",
"bw c #82825d",
"bi c #828278",
"bD c #82846f",
"hT c #828765",
"hN c #828766",
"fV c #83704b",
"iz c #83774d",
"hx c #837b78",
"bY c #837c59",
"fW c #837e76",
"gO c #83815f",
"cU c #83817e",
"bo c #838765",
"gI c #838767",
".V c #83876c",
"gs c #838867",
".T c #838868",
".D c #838968",
"hu c #846541",
"fg c #847158",
"bn c #84764d",
"iJ c #84765b",
"jB c #847951",
"aq c #84807a",
"dX c #848159",
"b# c #848571",
"gJ c #84866c",
"ev c #84886a",
"gC c #848971",
"g6 c #85766c",
"jy c #85776f",
"#G c #85817c",
"#2 c #85817d",
"ee c #85886b",
".F c #858a70",
"f1 c #86522b",
"i# c #865240",
"fT c #86794e",
"aF c #868078",
"ex c #868569",
"gt c #868970",
"iM c #877045",
"fK c #87744e",
"fe c #877566",
"ho c #877978",
"bO c #878168",
"c7 c #87817b",
"ag c #87827d",
"eg c #87876c",
"i5 c #885834",
"jb c #885931",
"fo c #88827c",
"ft c #88885f",
"di c #89827a",
"cd c #8a6e67",
"iv c #8a7650",
"bP c #8a7852",
"fQ c #8a7c61",
"fZ c #8b6644",
"hr c #8b714a",
"fF c #8b7573",
"bX c #8b7955",
"#H c #8b8172",
"ci c #8b8379",
"fz c #8b837c",
"b0 c #8c3c21",
"cQ c #8c7572",
"bE c #8c7953",
"cO c #8c837b",
"#b c #8c846f",
"bm c #8d471d",
"d3 c #8d4922",
"#P c #8d8478",
"ct c #8e4a38",
"ix c #8e734d",
"#x c #8e8577",
"hF c #8f5a33",
"f# c #8f6b53",
"eT c #908576",
"fD c #908863",
"fI c #917249",
"io c #917f60",
"c8 c #926753",
"dg c #93815b",
"cT c #938475",
"cE c #938477",
"hZ c #94381e",
"iq c #946550",
"ia c #946762",
"dk c #956f49",
"cD c #957f60",
"ay c #958167",
"c5 c #95825c",
"cn c #962b12",
"cj c #968364",
"cu c #97645e",
"aE c #977c57",
"iw c #977e59",
"cN c #97816a",
"fl c #985633",
"jz c #985d3c",
"hf c #98625c",
"cJ c #986b66",
"#c c #987f53",
"e4 c #992e13",
"ap c #997e59",
"a# c #998677",
"hi c #9a5335",
"f. c #9b492e",
"cq c #9b8970",
"cS c #9c775a",
"#k c #9d855f",
"c# c #9d8a6f",
"j. c #9e6560",
"fw c #9f522f",
".4 c #9f855d",
"db c #9f8560",
"dc c #9f866d",
"ae c #9f8c67",
"eN c #a22b12",
"b1 c #a24d37",
"eU c #a28456",
"#0 c #a38c68",
"bS c #a4381d",
"bj c #a44336",
"go c #a45535",
"ha c #a5574f",
"af c #a58a71",
"#1 c #a58a72",
"fv c #a68a73",
"ik c #a75742",
"hn c #a76544",
"hj c #a78965",
"a. c #a78c6d",
"g8 c #a92d15",
"e1 c #a98e68",
"gR c #aa5031",
"c0 c #aa563b",
"dh c #aa8863",
"c6 c #ab8963",
"fd c #ac4831",
"eK c #ac8f67",
"iR c #ad4428",
"fx c #ad996f",
"ja c #b03b1f",
"bK c #b14b2d",
"fm c #b3996f",
"iu c #b54626",
"cw c #b62e14",
"fu c #b69871",
"bL c #b72d0d",
"fn c #b7906d",
"fy c #b7916e",
"f8 c #b83518",
"gQ c #b92c18",
"in c #b9381e",
"fY c #ba4323",
"cY c #ba4a38",
"h0 c #bc2a0b",
"eC c #bc300d",
"iG c #bc3f21",
"hW c #bd3111",
"eQ c #be2008",
"iE c #c0513d",
"cv c #c2483d",
"iQ c #c44437",
"es c #c61d06",
"dG c #c64135",
"d# c #c8381b",
"ce c #c94236",
"cf c #ca2009",
"bT c #ca391e",
"it c #ca3f31",
"cK c #cb3d2c",
"g5 c #cc220e",
"dr c #cd3b2e",
"ht c #cf3c2f",
"g3 c #d23a2c",
"hk c #d52d13",
"hd c #d6200a",
"ir c #d62911",
"gW c #d73627",
"gM c #dc200c",
"cZ c #dc260f",
"gw c #e01f0b",
"dA c #e11702",
"iF c #e21e07",
"hv c #ea1601",
"fM c #ee1601",
"hI c #f21601",
"j# c #f51601",
"bl c #f91500",
"e. c #fa1500",
"hP c #fb1500",
"fC c #fb1703",
"gF c #fc1500",
"fr c #fc1703",
"iK c #fd1500",
"dd c #fe1500",
"bk c #ff1500",
"QtQtQtQtQtQtQtQtQtQtQtQtQtQtQtQtQtQtQtQtQtQtQtQtQtQtQtQtQtQtQt.#QtQt.aQtQtQtQtQt",
"QtQtQtQt.aQtQtQtQtQtQtQt.aQtQtQtQtQtQtQt.aQtQtQtQtQtQtQt.aQtQtQtQtQtQtQtQtQtQtQt",
"Qt.aQtQtQtQtQtQtQt.aQtQtQt.#QtQtQt.aQtQtQtQtQtQtQt.aQtQtQt.#QtQtQt.aQtQtQtQtQtQt",
"QtQtQtQtQt.aQtQt.#.#QtQtQtQtQtQtQtQtQtQtQt.aQtQt.#.#QtQtQtQtQtQtQtQtQtQtQt.aQtQt",
".b.c.d.e.f.g.h.i.j.#Qt.k.l.m.n.o.p.q.rQtQt.s.t.u.v.w.x.y.zQt.k.l.m.n.o.p.q.rQt.a",
".A.B.C.D.E.F.G.H.IQtQt.J.K.L.M.N.O.P.QQtQt.R.S.T.U.V.W.X.YQt.J.Z.L.M.N.O.P.QQtQt",
".0.1.2.3.4.5.6.7.8.9Qt#.###a#b#c#d#e#f#gQt#h#i#j#k#l#m#n#o#p#.###a#b#c#d#e#q#r#s",
"#t#u#v#w#x#y#z#A#B#CQt#D#E#F#G#H#I#J#K#LQt#M#N#O#P#Q#R#S#T#U#D#V#F#G#H#I#J#W#X#s",
"#Y#Z#0#1#2#3#4#5#6#7.a#8#9a.a#aa#4abac#pQtadaeafagah#4aiajak#8#9a.a#aa#4abal#p.#",
"amanaoapaqarasasatQtauavawaxayazasasaA.baBaCaDaEaFasasaG#CauavawaxayasasaHaAQtQt",
"aIaJaKaLaMaNasasaO.aaPaQaRaSaTaUasasaVaWaXaYaZa0a1asasa2a3aPaQaRaSaTasasa4a5QtQt",
"a6a7a8a9b.b#baasbbQtbcbdbebfbgbhbiasbjbkblbmbnbobpbqasbrbsbtbubvbwbgbxasbybzQtQt",
"bAbBbCbDbEbFbGbHbIbJbKbLbMbNbObPbQbRbSbTbTbUbVbWbXbYbZb0b1b2b3b4bNbObPbQb5b6b7Qt",
".Ab8b9c.c#cacbcccdcebkcfcgchcicjckclcmQtQtcncocpcqcrcsctcucvcwcxchcicjckcycz#XcA",
"cBcCcDcEcFcGcHcIcJcKbkcLcMcNcOcPcHazcQQtQtcRcScTcUcVcHcWcXcYcZc0cNcOcPcHazc1c2#s",
"c3c4c5c6c7arasasc8c9d.d#dadbdcazasasaAdddedfdgdhdiasasaG#C.AdjdkdbdcasasaHaAQt.a",
"dldmdndodpdqasasdrQtdsdtdudvdwdxasasdydzdAdBdCdDdEasasdFdGdHdtdIdJdwasasdKdLQtQt",
"dMdNdOdPdQdRdSasdTbkdUdVdWdXdYdZd0asd1dzd2d3d4d5d6d7asd8d9e.dVdWe#dYdZasead1QtQt",
"ebecedeeefegeheiejekbkelemeneoepeqeresQtQteteuevewexeyezeAeBeCemeneoepeqeDeEeFQt",
"eGeHeIeJeKeLeMeNeOePQteQeReSeTeUeVeWeXbkQteYeZe0e1e2e3e4e5#Ue6e7eSeTeUeVe8e9#X#s",
"cBf.f#fafbfbfbfbfbePQtfcfdfefbfbfbfbaAQtbkfffgfhfbfbfbfbfb#Ufcfifefbfbfbfbfb#Xfj",
"fkflfmfnfofpasasfqfrQtfsftfufvcGasasaAQtQtfwfxfyfzasasfAfBfCfsfDfufvasasfEfFfGQt",
"fHfIfJfKfLarasasatQtfMfNfOfPfQazasascQfRfSfTfUfVfWasasaG#CfXfYfOfPfQasasaHcQfZQt",
"f0f1f2f3f4f5f6asf7Qt.zf8f9g.g#gagbasgcdddsgdgegfggghasgigj.zgkglg.g#gaasgmgngoQt",
"gpgqgrgs.EgtgugvgwQtgxgygzgA.MgBgCgDgEQtgFgGgHgI.UgJgKgLgMdzgygNgO.MgBgCgPgQgR.#",
"gSgTgU.3.4.5.6gV.8gWQt#.gX#a#b#c#dgYgZQtQtg0g1#j#k#l#mg2#og3#.gX#a#b#c#dg4g5g6#s",
"g7g8g9#w#x#y#z#A#Bh.bk#D#E#F#G#H#Ih#haQtQthbhc#O#P#Q#R#S#T#Uhd#E#F#G#H#Ihehfhg#s",
"hhhihj#1#2#3asas#6#7Qthk#9a.a#aaasasaAbkQthlaeafagasasaiajhm#8hna.a#asasabhohpQt",
"hqhrhsapaqarasashtQtauavhuaxayazasasaA.bhvaCaDaEaFasasaGceauavhwaxayasasaHhxQtQt",
"aIhyhzaLaMaNhAasaObkaPaQaRhBaTaUhCashDdzhEhFhGa0a1hHasa2a3hIaQaRaSaTaUasa4hJQt.#",
"hKhLhMhNb.b#bahObbQthPhQbvhRbgbxbibybjQteGhSbnhTbpbqhUhVbsbchWbvhRbgbhbihXbzQtQt",
"ebhYbCbDbEbFbGhZbIak.#h0h1bNbObPbQb5h2bkQth3h4bWbXbYh5b0h6h7h8bMbNbObPbQb5b6b7.a",
".Ab8h9c.c#cai.i#ia#CQtibicchcicjckcyidQtbkiecocpcqcrifigcuihiiijchcicjckcycz#X#s",
"cBcCcDcEcFcGasascJikilimcMcNcOcPasasaAQtQtiniocTcUasascWipiqirc0cNcOasasazc1c2#s",
"c3isc5c6c7arasasitbke.iuivdbdcazasascQ.bdedfiwdhdiasasaGcee.d#ixdbdcasasaHaAQtQt",
"iyiziAiBiCarasasiDiEiFiGiHiIiJazasasfhiKiLiMiNiOiPasasaGiQiRiSiTiUiJasasaHiVQtQt",
"iWiXiYiZi0i1aHi2i3.#dUi4i5i6i7i8aHi9j.ddj#jajbjcjdjeaHjfjgdUjhjijjjkjlaHjmjnQt.a",
"QtQtjojpjqjraAjsQtQtQtQtjtjujvjwjxjygobTgRjzjAjBjCjDaAjEQtQtQtjFjujGjHaAjnQtQtQt",
"QtQt.#.#QtQtQtQtQtQtQtQtQtQtQtQtQtQt.#.#QtQtQtQtQtQtQtQtQtQtQtQtQtQt.#.#QtQtQtQt",
"QtQt.#.#QtQtQtQtQtQtQtQtQtQtQt.aQtQt.#.#QtQtQtQtQtQtQtQtQtQtQt.aQtQt.#.#QtQtQtQt"};
