/* XPM */
static char *dummy[]={
"40 40 293 2",
".a c #00a15e",
"aN c #00a35e",
"cH c #00c15c",
"cz c #00d05c",
"cw c #00da5a",
"#. c #00ff5a",
"#E c #01fb5a",
".V c #02b35b",
"#Y c #02f759",
"bw c #03f156",
"cl c #03f85b",
"cD c #03fb5a",
".w c #049759",
"b7 c #04ed55",
"b8 c #04ed56",
"#F c #04f25c",
"cx c #04f55d",
"bv c #05e955",
"cB c #06f25e",
"aV c #07f05f",
"aO c #09ed5f",
"#r c #0aea60",
"b4 c #0b9456",
"ak c #0b9656",
".9 c #0be853",
"ch c #0c8d57",
"cm c #0cd854",
"cq c #0ce761",
"#f c #0e875c",
"## c #0ecc59",
"cy c #0ee563",
"bF c #0fe264",
"bz c #12dc65",
"ag c #13c35c",
"#D c #14cd5e",
"cG c #14da66",
"#l c #15b347",
"c# c #15d768",
"aP c #16d464",
"#m c #16eb66",
"br c #17d469",
"bs c #18d26a",
"cp c #1cc357",
"aU c #1ccc6b",
"by c #1dc96d",
"cd c #1eaf64",
"bt c #1ebf68",
"bG c #1fc76e",
"bD c #20865d",
"bA c #20c16c",
"aS c #20c25a",
"#n c #20c65f",
"cC c #20e36d",
"bn c #22b767",
"#e c #22be61",
"cF c #22c16f",
"cb c #23bc6d",
"#s c #24ac64",
"cA c #25bc71",
"cv c #28b674",
"af c #29b265",
".U c #2bb175",
"bE c #2c976c",
".1 c #2d8548",
"cE c #2dae76",
"bU c #2dd773",
"ce c #2eab78",
"#u c #319871",
"aL c #319c73",
"#z c #31a479",
"aW c #328c70",
"bm c #329a65",
".M c #329a72",
".E c #329c72",
".F c #329e74",
".2 c #32a277",
"Qt c #32a67a",
"aZ c #338b71",
".b c #33a477",
".D c #347c5b",
"bH c #34916d",
"#X c #34ae4a",
"b1 c #36996e",
".t c #379a6f",
".5 c #3b3f44",
"aH c #3b8367",
"cs c #3c896c",
"aI c #3d7d57",
"bV c #3e865c",
"ac c #3f4140",
"bb c #3f9f63",
"aR c #40896e",
"ba c #417862",
"bY c #417f55",
"ck c #418561",
"ci c #419761",
"ar c #425362",
"cj c #435767",
"b# c #445668",
".m c #449667",
"ap c #454e58",
"bu c #456b3c",
"#G c #45735e",
"bT c #468e56",
"at c #484e50",
"a0 c #487177",
"aY c #488476",
".K c #495446",
"#A c #496b60",
"co c #497164",
"aT c #4a6f61",
"ca c #4a8161",
"bB c #4a8261",
".h c #4a8859",
"#b c #4b493e",
"#j c #4b586e",
"aC c #4b5c3d",
"ay c #4b6f65",
"bP c #4b7c51",
"cc c #4b8161",
".G c #4d5c42",
"al c #4d5c75",
"bh c #4d6a5c",
"#Z c #4d7d60",
"bQ c #4e5c72",
"aM c #4f563d",
"#p c #4f5963",
"an c #4f5a6a",
"#h c #4f5b5a",
"#C c #515d55",
"#v c #517668",
"cg c #517a6b",
"#y c #525a56",
"#i c #525d69",
"aq c #525e71",
"a1 c #52727d",
".W c #527465",
"#3 c #527752",
"a. c #53585a",
".L c #535956",
"aX c #535b65",
"a6 c #535e6e",
"aD c #545755",
".P c #547067",
"aK c #555341",
"bx c #555957",
"bq c #557e6d",
"#B c #565342",
"#x c #565641",
"b9 c #565c47",
"cI c #56b78d",
"aw c #58706f",
"bo c #596946",
"aB c #5a726f",
"bI c #5a7875",
"#o c #5b7776",
"av c #5b9683",
"cn c #5c7576",
"#6 c #5d5c4f",
"a5 c #5d5d4f",
"a# c #5d5e57",
".x c #5d6249",
"cf c #5d7477",
"aG c #5d7775",
"b6 c #5db290",
".I c #5e5b3f",
"ao c #5e5b47",
"#S c #5e684d",
"#t c #5e7278",
"cu c #5e7575",
"ax c #5f5c47",
"#q c #5f5c48",
"cr c #607177",
"as c #615e48",
"#g c #61624b",
"bC c #618c81",
"c. c #619d8c",
".4 c #626b76",
"bN c #626d56",
"bp c #629f8d",
"#k c #635f4c",
"b. c #646957",
"aE c #646c71",
"#a c #647082",
"a2 c #64b243",
"bf c #657363",
"#w c #666e73",
"#P c #676b69",
"aQ c #676c6c",
"bi c #676f64",
".# c #67aa97",
"be c #686e6e",
".O c #688867",
".l c #698a6a",
"#5 c #6a6462",
".H c #6a6d6c",
"ah c #6a6e6d",
"az c #6a7379",
"aJ c #6a7874",
"aA c #6a8378",
"bl c #6b8179",
".C c #6d7270",
"ct c #6d7f7a",
"ad c #6e6555",
"#N c #6e6a54",
"b2 c #6e7066",
".B c #6e7373",
"bZ c #6e7765",
"aF c #6e7d7a",
".X c #6f7270",
".Q c #6f7373",
"#9 c #70706c",
"bW c #717867",
"#4 c #747577",
"b5 c #747868",
"au c #748091",
".c c #75954d",
".6 c #767264",
"bJ c #798698",
"am c #7a889c",
"#Q c #7b8949",
"a7 c #7c7546",
"bK c #82784a",
".A c #858789",
".8 c #86885f",
"b0 c #86895e",
"#d c #87885f",
".3 c #88845f",
".s c #888560",
"#8 c #89805d",
"bd c #89835f",
"bj c #89845e",
"#K c #8a7e48",
"aj c #8a8360",
".i c #8a9659",
"ab c #8b8360",
".v c #8b8561",
".y c #8c9294",
"#J c #8d7f69",
"#0 c #8d804b",
"#O c #8e806c",
"bc c #90893a",
"bk c #92863a",
"bR c #92895b",
"ai c #937f39",
"bg c #93833b",
".n c #93843c",
"aa c #94833c",
".q c #949793",
"ae c #95803a",
"#7 c #95803b",
"bX c #95823c",
".7 c #96813b",
"#c c #96823c",
"b3 c #96833c",
".u c #96853e",
"bO c #96923b",
".z c #969ea1",
"bM c #978b3a",
"#W c #988e3c",
"#U c #9a8648",
".0 c #9a8a3c",
"a9 c #9a8b3c",
"#R c #9a8c3c",
".g c #9a8c3d",
"#M c #9b8a3b",
"a4 c #9c893c",
"#2 c #9d893c",
".k c #9d8c3e",
".J c #a38264",
".r c #aa9750",
".Y c #b0934d",
".S c #be9d57",
".R c #c3a076",
".p c #c3c2a7",
"#H c #c6a279",
".o c #c6bc7a",
".N c #ccbe53",
"a3 c #ccc353",
"#L c #cebf53",
".d c #cfbe55",
"bL c #d0b954",
"bS c #d1b954",
"a8 c #d1bb54",
"#V c #d2ba54",
".j c #d2be57",
".T c #d5bb54",
"#1 c #d8be55",
".Z c #dabf56",
"#T c #e5b98d",
".f c #e6cc5e",
"#I c #e9bc91",
".e c #f6dd70",
"QtQtQtQtQtQtQtQtQtQtQtQtQtQtQtQtQtQtQtQtQtQtQtQtQtQtQtQtQtQtQt.#QtQt.aQtQtQtQtQt",
"QtQtQtQt.aQtQtQtQtQtQtQt.aQtQtQtQtQtQtQt.aQtQtQtQtQtQtQt.aQtQtQtQtQtQtQtQtQtQtQt",
"Qt.aQtQtQtQtQtQtQt.aQtQtQt.#QtQtQt.aQtQtQtQtQtQtQt.aQtQtQt.#QtQtQt.aQtQtQtQtQtQt",
"QtQtQtQtQt.aQtQt.#.#QtQtQtQtQtQtQtQtQtQtQt.aQtQt.#.#QtQtQtQtQtQtQtQtQtQtQt.aQtQt",
"QtQtQtQtQtQtQt.a.#.#QtQtQtQtQtQtQtQtQtQtQtQtQt.a.#.#QtQtQtQtQtQtQtQtQtQtQtQtQt.a",
"QtQtQtQtQtQtQtQtQtQtQtQtQtQtQt.#QtQtQtQtQtQtQtQtQtQtQtQtQtQtQt.#QtQtQtQtQtQtQtQt",
"QtQt.#.#Qt.b.c.d.e.f.g.hQtQtQtQtQt.b.i.j.e.f.g.hQtQtQtQtQt.b.c.d.e.f.k.lQtQtQtQt",
"QtQt.#.#Qt.m.n.o.p.q.r.s.tQtQt.aQt.m.u.o.p.q.r.s.tQtQtQtQt.m.n.o.p.q.r.v.tQtQtQt",
"QtQtQtQtQt.w.x.y.z.A.B.C.DQtQtQtQt.E.x.y.z.A.B.C.DQt.aQtQt.E.x.y.z.A.B.C.D.aQt.#",
"QtQtQtQtQt.F.G.H.I.J.K.L.MQtQtQtQt.F.G.H.I.J.K.L.MQtQtQtQt.F.G.H.I.J.K.L.MQtQtQt",
".c.N.e.f.g.O.P.Q.R.S.T.e.f.g.hQt.U.V.W.X.Y.Z.e.f.0.1QtQtQt.2.P.X.Y.Z.e.f.0.lQtQt",
".u.o.p.q.r.3.4.5.6.7.o.p.q.r.8.9#.###a#b#c.o.p.q.r#d#e.UQt#f#a#b#c.o.p.q.r.s.tQt",
"#g.y.z.A.B.C#h#i#j#k.y.z.A.B.C#l#m#n#o#p#q.y.z.A.B.C#l#.#r#s#t#p#q.y.z.A.B.C.DQt",
".G.H.I.J.K.L#u#v#w#x.H.I.J.K#y.MQt#.#z#A#B.H.I.J.K#C#D#E#.#.#F#G#B.H.I.J.K.L.M.#",
".P.Q#H#I#J#K#L.e.f#M#N#H#I#O#P#Q.d.e.f#R#S.Q#H#T#U#V.e.f#W#X#.#Y#Z#0#1.e.f#2#3Qt",
"#a.5#4#5#6#7.o.p.q.r#8#9#5a.a#aa.o.p.q.rabac#4adae.o.p.q.r.safagahai.o.p.q.rajak",
"#t#ialamanao.y.z.A.B.Capamaqaras.y.z.A.B.Catalau#q.y.z.A.B.C.Davawax.y.z.A.B.C.D",
"#zayazaAaBaC.H.I.J.KaDaEaFaGaH.G.H.I.J.K.LaIazaJaK.H.I.J.K#C.MQtaLaM.H.I.J.K.L.M",
"QtaNaO#.aP.P.Q#H#I#OaQaRQt.##Y.P.Q#H#I#OaQaR#..2.P.Q#H#I#OaQaSQt.2aT.Q#H#I#OaQaR",
"QtaU#.aVaW#a.5#4#5a.aXaYQtQtaZ#a.5#4#5a.aXa0Qt###a.5#4#5a.aXa1#.aZ#a.5#4#5a.aXa1",
".ba2a3.e.fa4a5alama6a7a8.e.fa9b.#ialama6a7a8.e.fa4a5alama6a7a8.e.fa4a5alamaqb#ba",
"bbbc.o.p.q.rbdbeaFbfbg.o.p.q.r.vbhazaFbibg.o.p.q.rbjbeaFbibk.o.p.q.rbdbeblaGbmQt",
"bnbo.y.z.A.B.C.DQt.Ebo.y.z.A.B.C.DQt#.bp.x.y.z.A.B.C#lQt.E.x.y.z.A.B.Cbqbr#.bsQt",
"btbu.H.I.J.K.LbvQt.F.G.H.I.J.K#C.MQt.#bw.G.H.I.J.K.L.M#..F.G.H.I.J.Kbxbvby#.bzQt",
"bAbB.Q#H#I#OaQbC#..2aT.Q#H#I#OaQaSQtQt.2bB.Q#H#I#OaQbDQt#Y.P.Q#H#I#OaQaR#.#.br.#",
"bE#a.5#4#5a.aXa1Qt###a.5#4#5a.aXa1#.QtaZ#a.5#4#5a.aXa1QtaZ#a.5#4#5a.aXa1bF#.bGQt",
"bHbI#ialbJbKbL.e.fbMbN#ialbJbKbL.e.fbObP#t#ibQbRbS.e.f.gbP#t#ialbJbKbL.e.fbObTQt",
".#bUbVazbWbX.o.p.q.r.sbYazbZbX.o.p.q.rb0b1ayb2b3.o.p.q.r.sb4ayazb5#c.o.p.q.r.s.t",
".#b6#E#.b7.x.y.z.A.B.C.D#..E.x.y.z.A.B.C#lQt.E.x.y.z.A.B.C.DQt.ab7#g.y.z.A.B.C.D",
"QtQtbG#.b8bu.H.I.J.K.L.MQtbw.G.H.I.J.K.L.M#..Fb9.H.I.J.K.LbvQtQt.Fbu.H.I.J.K.Lc.",
"QtQtQtc##Yca.Q#H#I#OaQbCQt.2bB.Q#H#I#OaQaRQt#Y.P.Q#H#I#OaQaR#.Qtcbcc.Q#H#I#OaQaR",
"QtQtQtQtcd#a.5#4#5a.aXaYQtaZ#a.5#4#5a.aXa1QtaZ#a.5#4#5a.aXa1cec####a.5#4#5a.aXa0",
"QtQt.aQtbHcf#ialamaqb#cg#.ch#t#ialamaqb#ciQtbH#t#ialamaqcjckcl#.cmcn#ialamaqb#cg",
"QtQtQtQtQt#zcoazaAaGcpcqby#.#zayazaAcrcsQt#.Qt#zayazctcucp#.#.cqcv#zayazaFcrcsQt",
"Qt.aQtQtQtQtQtQtcvcw#E#.#.#.cxcybscz#.cAbybs#.bFcB#.#.#.#.cCcAQtQt.aQtQtQtQtQtQt",
"QtQtQtQtQt.aQtQt.#.#cebGcycl#.#.#.#.#.#.#.#.#.#.#.cDcqaUcEQtQtQtQtQtQtQtQt.aQtQt",
"QtQtQtQtQtQtQt.a.#.#QtQtQtQt.UcFbsbsc#cqcGbsbscHcI.#QtQtQtQtQtQtQtQtQtQtQtQtQt.a",
"QtQtQtQtQtQtQtQtQtQtQtQtQtQtQt.#QtQtQtQtQtQtQtQtQtQtQtQtQtQtQt.#QtQtQtQtQtQtQtQt",
"QtQt.#.#QtQtQtQtQtQtQtQtQtQtQtQtQtQt.#.#QtQtQtQtQtQtQtQtQtQtQtQtQtQt.#.#QtQtQtQt",
"QtQt.#.#QtQtQtQtQtQtQtQtQtQtQt.aQtQt.#.#QtQtQtQtQtQtQtQtQtQtQt.aQtQt.#.#QtQtQtQt"};
