/* XPM */
static char *dummy[]={
"40 40 732 2",
"as c #000000",
"bs c #009f5d",
"gv c #00a05d",
"fh c #00a05e",
".a c #00a15e",
"hK c #00fb59",
"gD c #00fc59",
"iE c #00fd59",
"dc c #00fe59",
"bj c #00ff5a",
"bk c #01f958",
"d8 c #01fa58",
"hE c #02f255",
"i4 c #02f557",
"dG c #039758",
"fK c #03ee54",
"fA c #03fb5b",
"fp c #03fc5a",
"hs c #04e952",
"ei c #059f5f",
"iy c #06e855",
"dz c #07df4f",
"eq c #08cc49",
"eO c #0bc447",
"gu c #0ce255",
"bS c #0ce761",
"gK c #0dde55",
".i c #0e8e52",
"ce c #0ecd4b",
"g3 c #0fcf51",
"bR c #10c051",
"hb c #10d64f",
"cv c #12c34e",
"bJ c #12dc65",
"iL c #13d15d",
"hV c #14c447",
"gP c #14da66",
"bK c #15c247",
"gm c #15d768",
"hk c #169b64",
"e7 c #16a856",
"eW c #186336",
"eL c #18aa43",
"jr c #18d26a",
"eA c #19c547",
"e2 c #1aa240",
"gO c #1abe50",
"cY c #1ad853",
"ik c #1bd553",
"cm c #1c9b3d",
"fX c #1ccc6b",
"gn c #1ec268",
"gY c #1f8834",
"iF c #1fb15f",
"hQ c #1fc148",
"gR c #218131",
"g6 c #22a844",
"gQ c #22bc6c",
"hi c #22d152",
"fY c #23b765",
"aW c #25bb70",
"aX c #26ab66",
"cJ c #27d367",
"gU c #27d765",
"eF c #28673c",
"hU c #289b44",
"ie c #2ab374",
"ix c #2adb72",
"fF c #2ba361",
"b0 c #2bba62",
"h9 c #2c8a62",
"fE c #2cb374",
"f6 c #2cb649",
"g1 c #2cd267",
"bT c #2d8236",
"eC c #2d8a61",
"bZ c #2d9443",
"g5 c #2dab74",
"e6 c #2e5f2a",
".Q c #2e8c64",
"hX c #2e8d65",
"gX c #2e9068",
"ib c #2e935f",
"js c #2e9c52",
"c8 c #2eab78",
"dq c #2ecd67",
"e4 c #2f865d",
"hq c #2fcf68",
".Y c #30996f",
".I c #309b70",
".r c #309b71",
"e8 c #30aa54",
"cX c #30c969",
"im c #30cd68",
".1 c #31653b",
"#h c #31683f",
"#. c #31875c",
"b5 c #318b65",
"hA c #31986e",
"dr c #319c72",
"aP c #319e74",
"d0 c #31a075",
".z c #31a176",
".0 c #31a276",
"eE c #31a277",
"dS c #31a377",
"bb c #31a478",
"dy c #31a579",
"id c #31c36c",
".7 c #327a51",
"fQ c #32936a",
"eV c #32936c",
"aB c #32996f",
"fV c #329c71",
"hG c #329f73",
"au c #329f74",
"dd c #32a075",
"e# c #32a376",
".A c #32a377",
"#t c #32a378",
"fi c #32a576",
".b c #32a579",
"#s c #32a57a",
"Qt c #32a67a",
"b1 c #32b871",
"#n c #33764e",
"h7 c #338b63",
"dK c #339c72",
"iP c #339e74",
"cA c #33a478",
"bI c #33b372",
"d. c #33c150",
"eU c #34542f",
"b7 c #346e4a",
"i. c #34714d",
"gE c #347639",
"b2 c #348b5b",
"#q c #348d68",
"ey c #34966e",
".k c #349e70",
"#Y c #34a378",
"iX c #34a45e",
"gT c #357851",
"h3 c #358a5c",
"aI c #35956c",
"am c #35986e",
"eh c #359870",
"c2 c #359e73",
"ig c #35b14c",
"dF c #35c769",
"ea c #366f33",
".y c #369066",
"dk c #369168",
"ir c #369269",
"g8 c #36936c",
"iK c #36c66a",
"cd c #36c96a",
"gW c #375f2c",
"g0 c #37744e",
"e5 c #377631",
"go c #378f36",
"#D c #379068",
"jm c #37956c",
"bl c #37963b",
".s c #379667",
"bi c #37a85d",
"in c #37b853",
".c c #389566",
"g2 c #395b2d",
"hS c #396a3b",
"hY c #396e3e",
"gC c #398664",
"ej c #398c5b",
".J c #39915f",
"eD c #39a27a",
"ij c #39b870",
"#e c #3a572f",
".H c #3a7e55",
"i5 c #3aa749",
"gw c #3b8c5c",
"fa c #3b966e",
"#M c #3c7c57",
"bc c #3c8d5b",
"cs c #3c9555",
"#u c #3d7955",
".X c #3d7c53",
"ia c #3d916e",
"cu c #3dc26c",
"bG c #3e7552",
".q c #3e845a",
"bt c #3e8a5c",
"h5 c #3e9459",
"ba c #3e9673",
"#7 c #3ea07a",
"c7 c #3eb471",
"jh c #3f805a",
"d1 c #3f8f3d",
"ak c #3f9f7b",
"h8 c #40833c",
"if c #40946b",
"br c #409472",
"iz c #40b14d",
"eP c #416338",
"er c #41733d",
".R c #417c45",
"ja c #418f67",
"h2 c #419e7b",
".B c #427943",
"dT c #42875c",
"h1 c #429171",
"eK c #434f28",
"cf c #447c3e",
"bH c #449172",
"di c #44a15b",
"fW c #44af4d",
"eg c #457451",
"ad c #457d4c",
"fd c #458762",
"#8 c #459269",
"e1 c #465029",
"hN c #477846",
"dR c #479476",
"bQ c #486034",
"gV c #48663a",
"## c #48683b",
"bA c #486b43",
"#V c #487248",
"ex c #48724f",
"hH c #487744",
"ic c #487b41",
"gi c #48855b",
"jl c #489b7b",
"it c #493e25",
"ck c #496a46",
"cw c #497341",
"cl c #498d72",
".6 c #4a552d",
"b4 c #4a5b35",
"b3 c #4a6b3a",
"bL c #4a793a",
"d7 c #4a9276",
".9 c #4a9a7b",
"fH c #4b3f28",
"fq c #4b9066",
".l c #4b9666",
"j# c #4b9b7a",
"i# c #4c7960",
"hn c #4c997b",
"jw c #4c997c",
"iH c #4d4227",
"fS c #4d422a",
"#m c #4d572f",
"cx c #4d6249",
"gJ c #4d6d59",
"by c #4d826a",
"f5 c #4d9378",
"aO c #4d9479",
"#p c #4d987c",
"dI c #4f1bd6",
"a3 c #4f28b8",
"gk c #4f3499",
"cQ c #4f835d",
"aQ c #4f855b",
".h c #4f8760",
"at c #4f977c",
"h. c #4fa66d",
"aH c #5014eb",
".P c #506c41",
"dL c #507345",
"gh c #509178",
"b6 c #50967c",
"hW c #516c3e",
"cB c #51815b",
"fZ c #51833e",
"cy c #518a73",
"#o c #518c74",
"a2 c #519279",
"fo c #51967c",
"hg c #51974e",
"fb c #519b51",
"hx c #5227c0",
"e. c #524577",
"dm c #52492c",
".x c #528862",
"fC c #5319e5",
"ar c #531be4",
"bq c #536669",
"hJ c #53676b",
"iQ c #537d56",
"iM c #538f59",
"#C c #53957c",
"i2 c #5427d8",
".8 c #548b75",
"dB c #554c2d",
"iY c #558646",
"fz c #55947c",
"fu c #559549",
"fn c #5620de",
"jf c #5625d9",
"ep c #56623a",
"eB c #56643a",
".f c #567045",
"gx c #568343",
"av c #56895f",
"ca c #575f45",
"hT c #576139",
"#E c #577451",
"ds c #57855b",
"#U c #57937c",
"bx c #58575b",
"hR c #58585b",
"bF c #586139",
"jn c #587f58",
"cb c #588369",
"iU c #5929d2",
"f4 c #593f99",
"cr c #596046",
"gN c #596345",
"a6 c #59784d",
"hj c #597f58",
"d6 c #5a587e",
"gB c #5a6146",
"bY c #5a633c",
"gt c #5a7163",
"gb c #5a7347",
".o c #5a774e",
".K c #5a7c4d",
"h# c #5a7e68",
"i9 c #5b2fcc",
"dp c #5b2fcd",
"h0 c #5b633c",
"eX c #5b6530",
"ek c #5b7144",
"fL c #5b865c",
"fj c #5b8e48",
"#f c #5b907e",
"#4 c #5c2fcf",
"#Z c #5c7d56",
"hd c #5c9971",
"iB c #5d5031",
"hP c #5d656f",
"eG c #5d672f",
"gL c #5e7648",
"bd c #5e7d48",
"e3 c #5e8676",
"ct c #5e9872",
"dQ c #605677",
"eT c #605b30",
"dO c #60673d",
".v c #60724c",
"jb c #60754c",
"hB c #608544",
"hL c #608d6e",
"i3 c #609e76",
"gg c #61508e",
"fN c #615336",
"gZ c #616a39",
"#i c #616b39",
"bu c #617849",
"#6 c #618f7d",
"g4 c #619779",
"cZ c #619955",
"cK c #619d7c",
"hy c #623ac3",
"ab c #623cc3",
"d4 c #626940",
"f2 c #626944",
"fg c #627c5d",
"dZ c #627d71",
"h6 c #629573",
".t c #629667",
"du c #635938",
"iV c #63609d",
"ge c #636a46",
"gS c #636b38",
"aj c #638d7d",
"jx c #639883",
"ho c #639b87",
"#3 c #6440bf",
"a1 c #64509a",
"j. c #645ea5",
"g9 c #647163",
".G c #64734d",
"hc c #647463",
"c1 c #648d7d",
".d c #649767",
"a5 c #64a28e",
".j c #64a592",
".2 c #656b39",
"ef c #656c45",
"aJ c #657243",
"cc c #659075",
"bz c #65a692",
"c9 c #65a693",
"ah c #6644ba",
"b# c #66675f",
"g. c #666a55",
"#J c #667164",
".W c #667550",
"jj c #667653",
"jz c #66785e",
"ju c #667953",
"gj c #667c42",
"#S c #667c6f",
".Z c #667d53",
"#A c #667d70",
".u c #668b62",
"jq c #66937a",
"cI c #669878",
"fP c #66a895",
"a9 c #676741",
"dX c #676c48",
"dU c #677748",
"i6 c #67783d",
".n c #67815a",
"hf c #67a794",
"cz c #67a996",
".# c #67aa97",
"dE c #6850a6",
"iA c #68623a",
"ew c #686e49",
"#W c #688479",
"#r c #688b7e",
"ez c #68a895",
"aN c #694dac",
"hD c #6950a5",
"dt c #69643b",
"#d c #69663e",
"cn c #69693d",
"bo c #696943",
"hO c #696961",
"gs c #696e4f",
"iN c #6a5e3b",
"aU c #6a6572",
"h4 c #6a693c",
"il c #6a774a",
"jp c #6a7e60",
"gl c #6a8473",
".m c #6a9268",
"iw c #6a9f8a",
"aG c #6b50af",
"hw c #6b653d",
"cj c #6b674b",
"b8 c #6b693d",
"aR c #6b6b42",
"gI c #6b7152",
"bU c #6b7245",
".p c #6b9473",
"fy c #6c53ac",
"dH c #6c613d",
"aK c #6c653d",
"hC c #6c653e",
"eQ c #6c6f4d",
"#z c #6c6f62",
"hZ c #6c7046",
"f7 c #6c7345",
"hv c #6c7348",
"bg c #6d6d4b",
"aM c #6d7057",
"#R c #6d7063",
"jg c #6d897e",
"cG c #6e58a7",
"fM c #6e5f3d",
"dw c #6e618e",
".E c #6e6844",
"bw c #6e6d4b",
"a0 c #6e7156",
"aY c #6e794c",
"cW c #6e8c7c",
".g c #6e8f6e",
"iW c #6e9c8f",
"ao c #6f6042",
"i1 c #6f6295",
"bB c #6f7146",
"de c #6f7a51",
"cL c #6f805e",
"aD c #706142",
"je c #706195",
".U c #706a46",
"iR c #706b40",
"dx c #70817a",
"ii c #70887e",
".e c #708b68",
"hl c #709757",
"az c #715ea1",
"iZ c #716b3b",
"#a c #717451",
"jv c #717f73",
"aV c #718178",
"eN c #71988d",
"g# c #725e9f",
"cF c #72609f",
"ai c #72629d",
"c3 c #72784e",
"hz c #727e79",
"hF c #727f78",
"jk c #728075",
"iO c #72837c",
"eM c #728780",
"cP c #728c7c",
"cU c #73629d",
"jc c #73663c",
"gz c #736e4e",
".N c #736f4e",
"f9 c #737754",
"fD c #738b7c",
"#5 c #746699",
"aS c #746c46",
"ha c #747249",
"bP c #747653",
"dW c #747b57",
"ga c #747c79",
"#T c #74817c",
"#K c #748580",
"jt c #748756",
"gf c #756c84",
"ht c #756d47",
"cg c #757155",
"hr c #757247",
"#I c #757365",
"es c #757851",
"#B c #75817c",
"iD c #75877d",
"hu c #75887d",
"aa c #766a94",
"f3 c #766c89",
"#N c #766d4b",
".S c #767f5a",
"dJ c #76817d",
"bm c #768352",
"i7 c #77643a",
"jy c #777e57",
"jo c #777f56",
"a4 c #777f7c",
"al c #77827d",
"iS c #78623a",
"aw c #786d49",
"g7 c #786e49",
"aT c #787555",
"do c #78786a",
"bM c #787a58",
"gF c #787b56",
"bf c #787c59",
"iG c #787d4b",
"aA c #78837f",
"hm c #78877d",
"#g c #788c86",
"jd c #796a4d",
"i0 c #796b4d",
"ed c #796c4a",
"cV c #79718e",
"eb c #797853",
"dD c #797868",
".C c #79805b",
".w c #798e73",
"eu c #7a6e4c",
"cH c #7a738c",
"i8 c #7a7869",
"iT c #7a786e",
"aC c #7a7a50",
"gp c #7a7e57",
"iI c #7b6944",
"eJ c #7b6a3d",
"#v c #7b6c4b",
"dC c #7b6e4a",
"cO c #7b758a",
"dA c #7b774b",
"eY c #7b7b73",
"hI c #7b7f55",
"a7 c #7b7f56",
"ac c #7b827f",
"ji c #7b8358",
"he c #7b837f",
"#9 c #7b845e",
"en c #7c7150",
"c# c #7c7153",
"aZ c #7c7550",
"gc c #7c784a",
"eH c #7c7d77",
"#X c #7c817f",
"aL c #7d7651",
"dY c #7d7885",
"f0 c #7d794b",
"co c #7d7c75",
".M c #7d7d5c",
"d5 c #7d7d71",
"f1 c #7d7f5b",
"#j c #7d7f70",
"c0 c #7d817f",
"dj c #7d8451",
".5 c #7e7249",
"#F c #7e735e",
"#y c #7e7869",
"b9 c #7e7d78",
"gd c #7e7e5a",
"d2 c #7e7f51",
"#L c #7e8281",
"iu c #7f6c46",
"e0 c #7f6d40",
"dn c #7f714c",
"cq c #7f7355",
"dl c #7f754a",
"an c #7f784d",
"#Q c #7f796a",
"f8 c #7f7b53",
"hp c #7f7c4e",
"#O c #7f7c77",
"#w c #7f7d7a",
"dP c #7f7f76",
".3 c #7f8073",
"iq c #7f8152",
".L c #7f8461",
"dN c #7f8663",
"ax c #806c4b",
"dv c #807659",
"iv c #807d77",
"io c #807f53",
"dM c #808053",
"el c #80805f",
"f# c #808080",
"be c #80835c",
"d3 c #808562",
"eo c #808669",
"#l c #81734a",
"iJ c #817d74",
"ff c #817d79",
"f. c #817e7b",
"em c #817f60",
"hM c #81825d",
"gy c #818260",
"bp c #81826d",
"dV c #81835a",
"gM c #81835f",
"bV c #81836d",
"a8 c #818766",
".O c #818c70",
"d# c #827c55",
"bE c #827c5a",
"fJ c #827f78",
"cE c #82807e",
"d9 c #82825a",
"bv c #82825d",
"bh c #828278",
"bC c #82846f",
"bn c #828765",
"fT c #83704b",
"is c #83774d",
"bX c #837c59",
"fU c #837e76",
"cT c #83817e",
"gG c #838767",
".V c #83876c",
"gq c #838867",
".T c #838868",
".D c #838968",
"fe c #847158",
"iC c #84765b",
"aq c #84807a",
"b. c #848571",
"gH c #84866c",
"et c #84886a",
"gA c #848971",
"#G c #85817c",
"#2 c #85817d",
"ec c #85886b",
".F c #858a70",
"e9 c #867457",
"fR c #86794e",
"aF c #868078",
"ev c #868569",
"gr c #868970",
"fI c #87744e",
"fc c #877566",
"bN c #878168",
"c6 c #87817b",
"ag c #87827d",
"ee c #87876c",
"fm c #88827c",
"fr c #88885f",
"fG c #897a4c",
"dh c #89827a",
"bO c #8a7852",
"fO c #8a7c61",
"bW c #8b7955",
"#H c #8b8172",
"ch c #8b8379",
"fx c #8b837c",
"bD c #8c7953",
"cN c #8c837b",
"#b c #8c846f",
"#P c #8d8478",
"#x c #8e8577",
"cR c #8f835e",
"eR c #908576",
"fB c #908863",
"ih c #917f60",
"ip c #92835a",
"df c #93815b",
"cS c #938475",
"cD c #938477",
"cC c #957f60",
"ay c #958167",
"c4 c #95825c",
"ci c #968364",
"aE c #977c57",
"cM c #97816a",
"#c c #987f53",
"ap c #997e59",
"a# c #998677",
"cp c #9b8970",
"#k c #9d855f",
"c. c #9d8a6f",
".4 c #9f855d",
"da c #9f8560",
"db c #9f866d",
"ae c #9f8c67",
"eS c #a28456",
"hh c #a28e67",
"#0 c #a38c68",
"af c #a58a71",
"#1 c #a58a72",
"ft c #a68a73",
"a. c #a78c6d",
"eZ c #a98e68",
"dg c #aa8863",
"c5 c #ab8963",
"eI c #ac8f67",
"fv c #ad996f",
"fk c #b09c70",
"fs c #b69871",
"fl c #b7906d",
"fw c #b7916e",
"QtQtQtQtQtQtQtQtQtQtQtQtQtQtQtQtQtQtQtQtQtQtQtQtQtQtQtQtQtQtQt.#QtQt.aQtQtQtQtQt",
"QtQtQtQt.aQtQtQtQtQtQtQt.aQtQtQtQtQtQtQt.aQtQtQtQtQtQtQt.aQtQtQtQtQtQtQtQtQtQtQt",
"Qt.aQtQtQtQtQtQtQt.aQtQtQt.#QtQtQt.aQtQtQtQtQtQtQt.aQtQtQt.#QtQtQt.aQtQtQtQtQtQt",
"QtQtQtQtQt.aQtQt.#.#QtQtQtQtQtQtQtQtQtQtQt.aQtQt.#.#QtQtQtQtQtQtQtQtQtQtQt.aQtQt",
".b.c.d.e.f.g.h.i.j.#Qt.k.l.m.n.o.p.q.rQtQt.s.t.u.v.w.x.y.zQt.k.l.m.n.o.p.q.rQt.a",
".A.B.C.D.E.F.G.H.IQtQt.J.K.L.M.N.O.P.QQtQt.R.S.T.U.V.W.X.YQt.J.Z.L.M.N.O.P.QQtQt",
".0.1.2.3.4.5.6.7.8.9Qt#.###a#b#c#d#e#f#gQt#h#i#j#k#l#m#n#o#p#.###a#b#c#d#e#q#r#s",
"#t#u#v#w#x#y#z#A#B#CQt#D#E#F#G#H#I#J#K#LQt#M#N#O#P#Q#R#S#T#U#D#V#F#G#H#I#J#W#X#s",
"#Y#Z#0#1#2#3#4#5#6#7.a#8#9a.a#aa#4abac#pQtadaeafagah#4aiajak#8#9a.a#aa#4abal#p.#",
"amanaoapaqarasasatQtauavawaxayazasasaA.baBaCaDaEaFasasaG#CauavawaxayasasaHaAQtQt",
"aIaJaKaLaMaNasasaO.aaPaQaRaSaTaUasasaVaWaXaYaKaZa0asasa1a2aPaQaRaSaTasasa3a4QtQt",
"a5a6a7a8a9b.b#asbaQtbbbcbdbebfbgbhasbibjbkblbmbnbobpasbqbrbsbtbubvbfbwasbxbyQtQt",
"bzbAbBbCbDbEbFbGbHbIbJbKbLbMbNbObPbQbRbSbSbTbUbVbWbXbYbZb0b1b2b3bMbNbObPb4b5b6Qt",
".Ab7b8b9c.c#cacbcccdbjcecfcgchcicjckclQtQtcmcncocpcqcrcsctcucvcwcgchcicjcxcy#Xcz",
"cAcBcCcDcEcFcGcHcIcJbjcKcLcMcNcOcGazcPQtQtcQcRcScTcUcGcVcWcXcYcZcMcNcOcGazc0c1#s",
"c2c3c4c5c6arasasc7c8c9d.d#dadbazasasaAdcdddedfdgdhasasaG#C.AdidjdadbasasaHaAQt.a",
"dkdldmdndodpasasdqQtdrdsdtdudvdwasasdxdydzdAdBdCdDasasdEdFdGdsdHdudvasasdIdJQtQt",
"dKdLdMdNdOdPdQasdRbjdSdTdUdVdWdXdYasdZdyd0d1d2d3d4d5asd6d7d8dTdUd9dWdXase.dZQtQt",
"e#eaebecedeeefegeheibjejekelemeneoepeqQtQtereseteuevewexeyezeAekelemeneoeBeCeDQt",
"eEeFeGeHeIeJeKeLeMeNQteOePeQeReSeTeUeVbjQteWeXeYeZe0e1e2e3#Ue4e5eQeReSeTe6e7#X#s",
"cAe8e9f.f#f#f#f#f#eNQtfafbfcf#f#f#f#aAQtbjfdfefff#f#f#f#f##Ufafgfcf#f#f#f#f##Xfh",
"fifjfkflfmfnasasfofpQtfqfrfsftcFasasaAQtQtfufvfwfxasasfyfzfAfqfBfsftasasfCfDfEQt",
"fFfGfHfIfJarasasatQtfKfLfMfNfOazasascPfPfQfRfSfTfUasasaG#CfVfWfMfNfOasasaHcPfXQt",
"fYfZf0f1f2f3f4asf5Qt.zf6f7f8f9g.g#asgadcdrgbgcgdgegfasgggh.zgigjf8f9g.asgkglgmQt",
"gngogpgq.EgrgsgtguQtgvgwgxgy.MgzgAgBgCQtgDgEgFgG.UgHgIgJgKdygwgLgM.MgzgAgNgOgP.#",
"gQgRgS.3.4.5.6gT.8gUQt#.gV#a#b#c#dgWgXQtQtgYgZ#j#k#l#mg0#og1#.gV#a#b#c#dg2g3g4#s",
"g5g6g7#w#x#y#z#A#Bg8bj#D#E#F#G#H#Ig9h.QtQth#ha#O#P#Q#R#S#T#Uhb#E#F#G#H#Ihchdhe#s",
"hfhghh#1#2#3asas#6#7Qthi#9a.a#aaasasaAbjQthjaeafagasasaiajhk#8hla.a#asasabhmhnQt",
"hohpaoapaqarasashqQtauavhraxayazasasaA.bhsaCaDaEaFasasaGcdauavhtaxayasasaHhuQtQt",
"aIhvhwaLaMaNhxasaObjaPaQaRaSaTaUhyashzdyhAhBhCaZa0hDasa1a2hEaQaRaSaTaUasa3hFQt.#",
"hGhHhIa8a9b.b#hJbaQthKhLbuhMbfbwbhbxbiQteEhNbmbnbobphOhPbrbbhQbuhMbfbgbhhRbyQtQt",
"e#hSbBbCbDbEhThUbHak.#hVhWbMbNbObPb4hXbjQthYhZbVbWbXh0bZh1h2h3bLbMbNbObPb4b5b6.a",
".Ab7h4b9c.c#cah5h6#CQth7h8cgchcicjcxh9Qtbji.cncocpcqcri#ctiaibiccgchcicjcxcy#X#s",
"cAcBcCcDcEcFasascIidieifcLcMcNcOasasaAQtQtigihcScTasascViiijikcZcMcNasasazc0c1#s",
"c2ilc4c5c6arasasimbjbkiniodadbazasascP.bdddeipdgdhasasaGcdbkd.iqdadbasasaHaAQtQt",
"irisitiuivarasasiwixiyiziAiBiCazasasiDiEiFiGiHiIiJasasaGiKiLiMiNiBiCasasaHiOQtQt",
"iPiQiRiSiTiUaHiViW.#dSiXiYiZi0i1aHi2i3dci4i5i6i7i8i9aHj.j#dSjajbjcjdjeaHjfjgQt.a",
"QtQtjhjijjjkaAjlQtQtQtQtjmjnjojphujqgmbSgPjrjsjtjujvaAjwQtQtQtjxjnjyjzaAjgQtQtQt",
"QtQt.#.#QtQtQtQtQtQtQtQtQtQtQtQtQtQt.#.#QtQtQtQtQtQtQtQtQtQtQtQtQtQt.#.#QtQtQtQt",
"QtQt.#.#QtQtQtQtQtQtQtQtQtQtQt.aQtQt.#.#QtQtQtQtQtQtQtQtQtQtQt.aQtQt.#.#QtQtQtQt"};
