/* XPM */
static char *dummy[]={
"40 40 739 2",
"as c #000000",
"bs c #009f5d",
"gw c #00a05d",
"fi c #00a05e",
".a c #00a15e",
"dG c #039758",
"ej c #059f5f",
".i c #0e8e52",
"hl c #169b64",
"eX c #186336",
"ia c #2c8a62",
".Q c #2e8c64",
"h0 c #2e8d65",
"gY c #2e9068",
"e5 c #2f865d",
".Y c #30996f",
".I c #309b70",
".r c #309b71",
".1 c #31653b",
"#h c #31683f",
"#. c #31875c",
"b5 c #318b65",
"hC c #31986e",
"dr c #319c72",
"aP c #319e74",
"d1 c #31a075",
".z c #31a176",
".0 c #31a276",
"eF c #31a277",
"dT c #31a377",
"bb c #31a478",
"dy c #31a579",
".7 c #327a51",
"fR c #32936a",
"eW c #32936c",
"aB c #32996f",
"fW c #329c71",
"hI c #329f73",
"au c #329f74",
"dd c #32a075",
"ea c #32a376",
".A c #32a377",
"#t c #32a378",
".b c #32a579",
"#s c #32a57a",
"Qt c #32a67a",
"#n c #33764e",
"eD c #338a5e",
"i. c #338b63",
"dL c #339c72",
"iV c #339e74",
"cA c #33a478",
"eV c #34542f",
"b7 c #346e4a",
"ib c #34714d",
"gF c #347639",
"#q c #348d68",
"ez c #34966e",
".k c #349e70",
"#Y c #34a378",
"gU c #357851",
"h5 c #358a5c",
"aI c #35956c",
"am c #35986e",
"ei c #359870",
"c2 c #359e73",
"eb c #366f33",
".y c #369066",
"dk c #369168",
"iw c #369269",
"g9 c #36936c",
"g1 c #37744e",
"#D c #379068",
"js c #37956c",
".s c #379667",
".c c #389566",
"eG c #396735",
"hW c #396a3b",
"h1 c #396e3e",
"gD c #398664",
"b2 c #398b59",
"ek c #398c5b",
".J c #39915f",
"eE c #39a27a",
"#e c #3a572f",
".H c #3a7e55",
"fj c #3aa574",
"gx c #3b8c5c",
"fb c #3b966e",
"#M c #3c7c57",
"#u c #3d7955",
".X c #3d7c53",
"ie c #3d916e",
"bG c #3e7552",
".q c #3e845a",
"bt c #3e8a5c",
"ba c #3e9673",
"#7 c #3ea07a",
"c8 c #3eab72",
"jn c #3f805a",
"ak c #3f9f7b",
"ij c #40946b",
"br c #409472",
"eQ c #416338",
"es c #41733d",
".R c #417c45",
"jg c #418f67",
"h4 c #419e7b",
".B c #427943",
"dU c #42875c",
"h3 c #429171",
"eL c #434f28",
"bH c #449172",
"eh c #457451",
"ad c #457d4c",
"fe c #458762",
"if c #459257",
"#8 c #459269",
"g6 c #45aa6c",
"e2 c #465029",
"bc c #468d57",
"hQ c #477846",
"dS c #479476",
"g3 c #485b28",
"gW c #48663a",
"## c #48683b",
"bA c #486b43",
"#V c #487248",
"ey c #48724f",
"hJ c #487744",
"gj c #48855b",
"jr c #489b7b",
"iy c #493e25",
"cl c #498d72",
".6 c #4a552d",
"b4 c #4a5b35",
"b3 c #4a6b3a",
"d8 c #4a9276",
".9 c #4a9a7b",
"fI c #4b3f28",
"fr c #4b9066",
".l c #4b9666",
"id c #4c7960",
"jD c #4c997c",
"#m c #4d572f",
"cx c #4d6249",
"gK c #4d6d59",
"by c #4d826a",
"f6 c #4d9378",
"aO c #4d9479",
"#p c #4d987c",
"iM c #4e4227",
"fT c #4e4229",
"dJ c #4f1bd6",
"a3 c #4f28b8",
"gl c #4f3499",
"e7 c #4f5f1f",
"cQ c #4f835d",
"aQ c #4f855b",
".h c #4f8760",
"at c #4f977c",
"aH c #5014eb",
".P c #506c41",
"dM c #507345",
"gi c #509178",
"b6 c #50967c",
"gX c #515f22",
"hZ c #516c3e",
"cB c #51815b",
"cy c #518a73",
"#o c #518c74",
"a2 c #519279",
"fp c #51967c",
"ho c #519979",
"hz c #5227c0",
"dm c #52492c",
".x c #528862",
"ii c #52b366",
"fD c #5319e5",
"ar c #531be4",
"e# c #534577",
"hM c #53676b",
"iW c #537d56",
"#C c #53957c",
"bQ c #54602f",
".8 c #548b75",
"dB c #554c2d",
"fA c #55947c",
"jf c #559b76",
"fo c #5620de",
"jl c #5625d9",
"eq c #56623a",
".f c #567045",
"av c #56895f",
"ca c #575f45",
"bq c #576668",
"#E c #577451",
"ds c #57855b",
"#U c #57937c",
"bx c #58575b",
"h7 c #585f44",
"bF c #586139",
"jt c #587f58",
"i0 c #5929d2",
"f5 c #593f99",
"ic c #596046",
"a6 c #59784d",
"hk c #597f58",
"i8 c #5a27d6",
"hV c #5a585a",
"d7 c #5a587e",
"cr c #5a6045",
"gC c #5a6146",
"gu c #5a7163",
"gc c #5a7347",
".o c #5a774e",
".K c #5a7c4d",
"ha c #5a7e68",
"fF c #5ab364",
"dp c #5b2fcd",
"bY c #5b633c",
"eY c #5b6530",
"el c #5b7144",
"fM c #5b865c",
"#f c #5b907e",
"jd c #5c2fcc",
"#4 c #5c2fcf",
"eC c #5c6438",
"#Z c #5c7d56",
"iT c #5d5031",
"hT c #5d656f",
"cw c #5d733a",
"iG c #5e5030",
"gM c #5e7648",
"e4 c #5e8676",
"gO c #5f6343",
"ck c #5f6a3f",
"fG c #5fa24f",
"aX c #5faa53",
"dR c #605677",
"eU c #605b30",
"dP c #60673d",
".v c #60724c",
"jh c #60754c",
"hO c #608d6e",
"gh c #61508e",
"fO c #615336",
"g0 c #616a39",
"#i c #616b39",
"bu c #617849",
"#6 c #618f7d",
"hA c #623ac3",
"ab c #623cc3",
"eH c #62672e",
"d5 c #626940",
"f3 c #626944",
"fh c #627c5d",
"d0 c #627d71",
".t c #629667",
"du c #635938",
"i1 c #63609d",
"gf c #636a46",
"aj c #638d7d",
"jE c #639883",
"hp c #639b87",
"#3 c #6440bf",
"a1 c #64509a",
"dI c #645938",
"h. c #647163",
".G c #64734d",
"c1 c #648d7d",
".d c #649767",
"a5 c #64a28e",
".j c #64a592",
"aW c #64ba5a",
".2 c #656b39",
"eg c #656c45",
"aJ c #657243",
"bz c #65a692",
"c9 c #65a693",
"ah c #6644ba",
"b# c #66675f",
"g# c #666a55",
"gT c #666b37",
"#J c #667164",
".W c #667550",
"jp c #667653",
"jG c #66785e",
"#S c #667c6f",
".Z c #667d53",
"#A c #667d70",
".u c #668b62",
"e8 c #66a83b",
"fQ c #66a895",
"a9 c #676741",
"dY c #676c48",
"dV c #677748",
".n c #67815a",
"hg c #67a794",
"cz c #67a996",
".# c #67aa97",
"dE c #6850a6",
"ex c #686e49",
"#W c #688479",
"#r c #688b7e",
"eA c #68a895",
"aN c #694dac",
"hF c #6950a5",
"#d c #69663e",
"cn c #69693d",
"bo c #696943",
"hS c #696961",
"gt c #696e4f",
"iS c #6a5e3b",
"aU c #6a6572",
"h6 c #6a693c",
"ip c #6a774a",
"bT c #6a8321",
"cb c #6a8362",
".m c #6a9268",
"aG c #6b50af",
"cj c #6b674b",
"b8 c #6b693d",
"aR c #6b6b42",
"gJ c #6b7152",
".p c #6b9473",
"fz c #6c53ac",
"aK c #6c653d",
"hE c #6c653e",
"eR c #6c6f4d",
"#z c #6c6f62",
"h2 c #6c7046",
"f8 c #6c7345",
"hx c #6c7348",
"jB c #6c7950",
"bd c #6c7d43",
"je c #6d5ea2",
"dH c #6d613d",
"hy c #6d653c",
"aM c #6d7057",
"#R c #6d7063",
"hd c #6d7460",
"e6 c #6d761e",
"jm c #6d897e",
"cG c #6e58a7",
"fN c #6e5f3d",
"dw c #6e618e",
".E c #6e6844",
"bg c #6e6d4a",
"bw c #6e6d4b",
"a0 c #6e7156",
"iR c #6e8f50",
".g c #6e8f6e",
"i2 c #6e9c8f",
"bI c #6eb35e",
"ao c #6f6042",
"bB c #6f7146",
"bU c #6f7243",
"bL c #6f792d",
"de c #6f7a51",
"cL c #6f805e",
"gR c #6fbc51",
"hr c #706041",
"aD c #706142",
"jk c #706195",
".U c #706a46",
"iX c #706b40",
"dx c #70817a",
".e c #708b68",
"az c #715ea1",
"#a c #717451",
"jC c #717f73",
"eO c #71988d",
"ga c #725e9f",
"cF c #72609f",
"ai c #72629d",
"c3 c #72784e",
"hB c #727e79",
"jq c #728075",
"gS c #728115",
"iU c #72837c",
"eN c #728780",
"iF c #736236",
"i7 c #736293",
"cU c #73629d",
"dt c #736437",
"ji c #73663c",
"gA c #736e4e",
".N c #736f4e",
"g. c #737754",
"cf c #737c2d",
"hH c #737f78",
"cK c #739d76",
"i3 c #73a448",
"#5 c #746699",
"aS c #746c46",
"bP c #747653",
"dX c #747b57",
"gb c #747c79",
"#T c #74817c",
"#K c #748580",
"gg c #756c84",
"hv c #756d47",
"cg c #757155",
"#I c #757365",
"#B c #75817c",
"aa c #766a94",
"f4 c #766c89",
"#N c #766d4b",
"ig c #767c31",
".S c #767f5a",
"dK c #76817d",
"im c #76887c",
"jF c #777e57",
"a4 c #777f7c",
"aV c #778176",
"al c #77827d",
"fZ c #77b747",
"iY c #78623a",
"aw c #786d49",
"aT c #787555",
"do c #78786a",
"bM c #787a58",
"gG c #787b56",
"bf c #787c59",
"aA c #78837f",
"#g c #788c86",
"iK c #78b240",
"jj c #796a4d",
"ee c #796c4a",
"cV c #79718e",
"et c #797850",
"dD c #797868",
"jv c #797e5a",
".C c #79805b",
".w c #798e73",
"iB c #799e85",
"ev c #7a6e4c",
"cH c #7a738c",
"ec c #7a7853",
"iZ c #7a786e",
"aY c #7a7948",
"aC c #7a7a50",
"ju c #7a7f55",
"gZ c #7a8813",
"jb c #7b6439",
"iN c #7b6944",
"eK c #7b6a3d",
"i6 c #7b6b4c",
"#v c #7b6c4b",
"dC c #7b6e4a",
"cO c #7b758a",
"dA c #7b774b",
"eZ c #7b7b73",
"a7 c #7b7f56",
"ac c #7b827f",
"gy c #7b8336",
"jo c #7b8358",
"#9 c #7b845e",
"eo c #7c7150",
"c# c #7c7153",
"aZ c #7c7550",
"gd c #7c784a",
"eI c #7c7d77",
"#X c #7c817f",
"aL c #7d7651",
"dZ c #7d7885",
"co c #7d7c75",
".M c #7d7d5c",
"d6 c #7d7d71",
"hK c #7d7f55",
"f2 c #7d7f5b",
"#j c #7d7f70",
"c0 c #7d817f",
"jz c #7d9c36",
"i5 c #7e6b36",
".5 c #7e7249",
"#F c #7e735e",
"jc c #7e7868",
"#y c #7e7869",
"b9 c #7e7d78",
"ge c #7e7e5a",
"d3 c #7e7f51",
"#L c #7e8281",
"iz c #7f6c46",
"e1 c #7f6d40",
"g8 c #7f6e47",
"dn c #7f714c",
"cq c #7f7355",
"dl c #7f754a",
"an c #7f784d",
"f1 c #7f794a",
"#Q c #7f796a",
"f9 c #7f7b53",
"#O c #7f7c77",
"#w c #7f7d7a",
"gq c #7f7e55",
"dQ c #7f7f76",
".3 c #7f8073",
"hf c #7f837d",
".L c #7f8461",
"dO c #7f8663",
"cW c #7f8c76",
"gp c #7f8f1d",
"b1 c #7fb856",
"ax c #806c4b",
"dv c #807659",
"gk c #807c39",
"iA c #807d77",
"em c #80805f",
"fa c #808080",
"d4 c #808562",
"ep c #808669",
"#l c #81734a",
"iO c #817d74",
"fg c #817d79",
"f# c #817e7b",
"en c #817f60",
"dN c #818052",
"hP c #81825d",
"gz c #818260",
"bp c #81826d",
"bV c #81836d",
"a8 c #818766",
"iI c #818779",
".O c #818c70",
"di c #81a245",
"go c #81c345",
"hb c #827244",
"d# c #827c55",
"bE c #827c5a",
"fK c #827f78",
"cE c #82807e",
"e. c #82825a",
"bv c #82825d",
"bh c #828278",
"i# c #828325",
"gm c #82846a",
"bC c #82846f",
"hR c #828765",
"hL c #828766",
"jw c #828879",
"fU c #83704b",
"ix c #83774d",
"bX c #837c59",
"fV c #837e76",
"cT c #83817e",
"be c #83835c",
"gN c #83835f",
"bn c #838765",
"gH c #838767",
".V c #83876c",
"gr c #838867",
".T c #838868",
"hw c #838878",
".D c #838968",
"ff c #847158",
"ht c #847241",
"iH c #84765b",
"aq c #84807a",
"bm c #84834d",
"dW c #848359",
"b. c #848571",
"gI c #84866c",
"jA c #848751",
"eu c #84886a",
"gB c #848971",
"#G c #85817c",
"#2 c #85817d",
"ed c #85886b",
".F c #858a70",
"jx c #85936f",
"g5 c #85976c",
"fS c #86794e",
"aF c #868078",
"f0 c #86832b",
"ew c #868569",
"gs c #868970",
"h8 c #869440",
"fJ c #87744e",
"fd c #877566",
"iL c #877d45",
"bN c #878168",
"c6 c #87817b",
"ag c #87827d",
"ef c #87876c",
"hn c #878778",
"ja c #887831",
"fn c #88827c",
"i4 c #888634",
"fs c #88885f",
"dh c #89827a",
"bO c #8a7852",
"fP c #8a7c61",
"it c #8a8050",
"cc c #8a9167",
"bW c #8b7955",
"hq c #8b7c4a",
"#H c #8b8172",
"ch c #8b8379",
"fy c #8b837c",
"fE c #8b8b73",
"bD c #8c7953",
"cN c #8c837b",
"#b c #8c846f",
"cP c #8c8c72",
"bZ c #8c9421",
"fY c #8ccd44",
"#P c #8d8478",
"d2 c #8d8f22",
"bl c #8d961d",
"iv c #8e814d",
"#x c #8e8577",
"cs c #8e9638",
"f. c #8f7453",
"hD c #8f8533",
"eS c #908576",
"fC c #908863",
"fH c #917a49",
"il c #917f60",
"c7 c #92b553",
"df c #93815b",
"cS c #938475",
"cD c #938477",
"h9 c #949562",
"hX c #949b1e",
"in c #94b950",
"cC c #957f60",
"ay c #958167",
"c4 c #95825c",
"dj c #958449",
"ci c #968364",
"cm c #969b12",
"aE c #977c57",
"cM c #97816a",
"iu c #978359",
"ct c #97985e",
"#c c #987f53",
"fk c #988e33",
"cI c #989866",
"he c #98995c",
"jy c #98d23c",
"ap c #997e59",
"a# c #998677",
"e3 c #99a213",
"cp c #9b8970",
"hh c #9b9735",
"e9 c #9bab2e",
"cR c #9c835a",
"#k c #9d855f",
"c. c #9d8a6f",
"i9 c #9e9e60",
".4 c #9f855d",
"da c #9f8560",
"db c #9f866d",
"ae c #9f8c67",
"fv c #9f952f",
"eT c #a28456",
"eM c #a2aa12",
"#0 c #a38c68",
"b0 c #a3ba37",
"bi c #a4a836",
"gn c #a4d735",
"af c #a58a71",
"#1 c #a58a72",
"h# c #a5a64f",
"bR c #a5c01d",
"fu c #a68a73",
"a. c #a78c6d",
"hi c #a78e65",
"hm c #a79744",
"ih c #a7c442",
"e0 c #a98e68",
"g7 c #a9a815",
"dg c #aa8863",
"cZ c #aa993b",
"c5 c #ab8963",
"gQ c #abda31",
"eJ c #ac8f67",
"fc c #ac9b31",
"fw c #ad996f",
"iQ c #add228",
"j# c #b0a71f",
"bJ c #b1dd2d",
"fl c #b39c6f",
"is c #b5b926",
"ft c #b69871",
"fm c #b7906d",
"fx c #b7916e",
"cv c #b7c414",
"f7 c #b8b618",
"bK c #b8c20d",
"ik c #b9b11e",
"gP c #b9be18",
"fX c #baaf23",
"cX c #bbc938",
"iE c #bcb121",
"hY c #bcc40b",
"eB c #bcc50d",
"hU c #bdc111",
"eP c #bec408",
"iC c #c1dc3d",
"cu c #c2c23d",
"iP c #c5c737",
"dF c #c6c735",
"er c #c6cc06",
"d. c #c8c11b",
"cd c #c9c936",
"ce c #cacd09",
"iq c #cbcd31",
"cJ c #cbd32c",
"bS c #cbe81e",
"g4 c #cccf0e",
"dq c #cdcd2e",
"hs c #cfcf2f",
"g2 c #d2d22c",
"hj c #d5d113",
"hc c #d6d60a",
"io c #d7d611",
"gV c #d7d727",
"cY c #dcd80f",
"gL c #dcde0c",
"gv c #e0e20b",
"dz c #e1df02",
"iD c #e3e907",
"hu c #eae901",
"fL c #eeee01",
"hG c #f2f201",
"j. c #f5f501",
"bk c #f9f900",
"ir c #faf900",
"d9 c #fafa00",
"hN c #fbfb00",
"fB c #fbfb03",
"gE c #fcfc00",
"fq c #fcfc03",
"iJ c #fdfd00",
"dc c #fefe00",
"bj c #ffff00",
"QtQtQtQtQtQtQtQtQtQtQtQtQtQtQtQtQtQtQtQtQtQtQtQtQtQtQtQtQtQtQt.#QtQt.aQtQtQtQtQt",
"QtQtQtQt.aQtQtQtQtQtQtQt.aQtQtQtQtQtQtQt.aQtQtQtQtQtQtQt.aQtQtQtQtQtQtQtQtQtQtQt",
"Qt.aQtQtQtQtQtQtQt.aQtQtQt.#QtQtQt.aQtQtQtQtQtQtQt.aQtQtQt.#QtQtQt.aQtQtQtQtQtQt",
"QtQtQtQtQt.aQtQt.#.#QtQtQtQtQtQtQtQtQtQtQt.aQtQt.#.#QtQtQtQtQtQtQtQtQtQtQt.aQtQt",
".b.c.d.e.f.g.h.i.j.#Qt.k.l.m.n.o.p.q.rQtQt.s.t.u.v.w.x.y.zQt.k.l.m.n.o.p.q.rQt.a",
".A.B.C.D.E.F.G.H.IQtQt.J.K.L.M.N.O.P.QQtQt.R.S.T.U.V.W.X.YQt.J.Z.L.M.N.O.P.QQtQt",
".0.1.2.3.4.5.6.7.8.9Qt#.###a#b#c#d#e#f#gQt#h#i#j#k#l#m#n#o#p#.###a#b#c#d#e#q#r#s",
"#t#u#v#w#x#y#z#A#B#CQt#D#E#F#G#H#I#J#K#LQt#M#N#O#P#Q#R#S#T#U#D#V#F#G#H#I#J#W#X#s",
"#Y#Z#0#1#2#3#4#5#6#7.a#8#9a.a#aa#4abac#pQtadaeafagah#4aiajak#8#9a.a#aa#4abal#p.#",
"amanaoapaqarasasatQtauavawaxayazasasaA.baBaCaDaEaFasasaG#CauavawaxayasasaHaAQtQt",
"aIaJaKaLaMaNasasaO.aaPaQaRaSaTaUasasaVaWaXaYaKaZa0asasa1a2aPaQaRaSaTasasa3a4QtQt",
"a5a6a7a8a9b.b#asbaQtbbbcbdbebfbgbhasbibjbkblbmbnbobpasbqbrbsbtbubvbfbwasbxbyQtQt",
"bzbAbBbCbDbEbFbGbHbIbJbKbLbMbNbObPbQbRbSbSbTbUbVbWbXbYbZb0b1b2b3bMbNbObPb4b5b6Qt",
".Ab7b8b9c.c#cacbcccdbjcecfcgchcicjckclQtQtcmcncocpcqcrcsctcucvcwcgchcicjcxcy#Xcz",
"cAcBcCcDcEcFcGcHcIcJbjcKcLcMcNcOcGazcPQtQtcQcRcScTcUcGcVcWcXcYcZcMcNcOcGazc0c1#s",
"c2c3c4c5c6arasasc7c8c9d.d#dadbazasasaAdcdddedfdgdhasasaG#C.AdidjdadbasasaHaAQt.a",
"dkdldmdndodpasasdqQtdrdsdtdudvdwasasdxdydzdAdBdCdDasasdEdFdGdsdHdIdvasasdJdKQtQt",
"dLdMdNdOdPdQdRasdSbjdTdUdVdWdXdYdZasd0dyd1d2d3d4d5d6asd7d8d9dUdVe.dXdYase#d0QtQt",
"eaebecedeeefegeheiejbjekelemeneoepeqerQtQteseteuevewexeyezeAeBelemeneoepeCeDeEQt",
"eFeGeHeIeJeKeLeMeNeOQtePeQeReSeTeUeVeWbjQteXeYeZe0e1e2e3e4#Ue5e6eReSeTeUe7e8#X#s",
"cAe9f.f#fafafafafaeOQtfbfcfdfafafafaaAQtbjfefffgfafafafafa#Ufbfhfdfafafafafa#Xfi",
"fjfkflfmfnfoasasfpfqQtfrfsftfucFasasaAQtQtfvfwfxfyasasfzfAfBfrfCftfuasasfDfEfFQt",
"fGfHfIfJfKarasasatQtfLfMfNfOfPazasascPfQfRfSfTfUfVasasaG#CfWfXfNfOfPasasaHcPfYQt",
"fZf0f1f2f3f4f5asf6Qt.zf7f8f9g.g#gaasgbdcdrgcgdgegfggasghgi.zgjgkf9g.g#asglgmgnQt",
"gogpgqgr.EgsgtgugvQtgwgxgygz.MgAgBgCgDQtgEgFgGgH.UgIgJgKgLdygxgMgN.MgAgBgOgPgQ.#",
"gRgSgT.3.4.5.6gU.8gVQt#.gW#a#b#c#dgXgYQtQtgZg0#j#k#l#mg1#og2#.gW#a#b#c#dg3g4g5#s",
"g6g7g8#w#x#y#z#A#Bg9bj#D#E#F#G#H#Ih.h#QtQthahb#O#P#Q#R#S#T#Uhc#E#F#G#H#Ihdhehf#s",
"hghhhi#1#2#3asas#6#7Qthj#9a.a#aaasasaAbjQthkaeafagasasaiajhl#8hma.a#asasabhnhoQt",
"hphqhrapaqarasashsQtauavhtaxayazasasaA.bhuaCaDaEaFasasaGcdauavhvaxayasasaHhwQtQt",
"aIhxhyaLaMaNhzasaObjaPaQaRaSaTaUhAashBdyhChDhEaZa0hFasa1a2hGaQaRaSaTaUasa3hHQt.#",
"hIhJhKhLa9b.b#hMbaQthNhObuhPbfbwbhbxbiQteFhQbmhRbobphShTbrbbhUbuhPbfbgbhhVbyQtQt",
"eahWbBbCbDbEbFhXbHak.#hYhZbMbNbObPb4h0bjQth1h2bVbWbXbYbZh3h4h5bLbMbNbObPb4b5b6.a",
".Ab7h6b9c.c#h7h8h9#CQti.i#cgchcicjcxiaQtbjibcncocpcqicidctieifigcgchcicjcxcy#X#s",
"cAcBcCcDcEcFasascIihiiijcLcMcNcOasasaAQtQtikilcScTasascViminiocZcMcNasasazc0c1#s",
"c2ipc4c5c6arasasiqbjirisitdadbazasascP.bdddeiudgdhasasaGcdird.ivdadbasasaHaAQtQt",
"iwixiyiziAarasasiBiCiDiEiFiGiHazasasiIiJiKiLiMiNiOasasaGiPiQiRiSiTiHasasaHiUQtQt",
"iViWiXiYiZi0aHi1i2.#dTi3i4i5i6i7aHi8i9dcj.j#jajbjcjdaHjejfdTjgjhjijjjkaHjljmQt.a",
"QtQtjnjojpjqaAjrQtQtQtQtjsjtjujvjwjxgnbSgQjyjzjAjBjCaAjDQtQtQtjEjtjFjGaAjmQtQtQt",
"QtQt.#.#QtQtQtQtQtQtQtQtQtQtQtQtQtQt.#.#QtQtQtQtQtQtQtQtQtQtQtQtQtQt.#.#QtQtQtQt",
"QtQt.#.#QtQtQtQtQtQtQtQtQtQtQt.aQtQt.#.#QtQtQtQtQtQtQtQtQtQtQt.aQtQt.#.#QtQtQtQt"};
