/* XPM */
static char *dummy[]={
"40 40 197 2",
".j c #000000",
".a c #00a15e",
"a7 c #05985a",
"aZ c #098a54",
"aW c #157e52",
"ao c #20a95a",
"ae c #2b835e",
"aG c #318e6a",
"aO c #31a076",
"ag c #31a277",
"#T c #31a579",
"#U c #329c74",
"#a c #32a378",
".i c #32a579",
"Qt c #32a67a",
".u c #33a67a",
"#o c #34926e",
"aA c #358164",
"#K c #35906d",
".H c #359970",
"aK c #363329",
"#7 c #38a878",
"#L c #3b5e51",
"#q c #3da674",
"bb c #3eaa76",
"aC c #406357",
"#B c #424444",
"#u c #434545",
"#I c #444746",
".h c #45805e",
".U c #458261",
".Q c #45ab74",
"#c c #46856e",
".O c #4b4b48",
"aY c #4b655d",
".T c #4bad72",
"#g c #4c4d45",
".X c #4e5154",
".K c #505457",
".V c #51524c",
"#m c #51ab6e",
"#k c #525249",
"a# c #52af70",
"aT c #544f3d",
".Z c #545251",
".D c #547d58",
".b c #559a75",
"#H c #565958",
"aE c #566662",
"aV c #576863",
"aa c #58b16f",
".N c #595e61",
"#J c #59887a",
"#S c #5a6962",
"ah c #5a766b",
"ac c #5a7a6e",
"az c #5d6866",
"#A c #5e5f53",
"aN c #5e6758",
"b. c #5eb36d",
"aQ c #5f594b",
"#f c #5f625d",
"#v c #5f6262",
".v c #5fa677",
"#j c #606462",
"#D c #616665",
"#n c #61766f",
".2 c #618471",
"#t c #626766",
".w c #627e60",
".3 c #62887d",
".Y c #63676c",
"ax c #637459",
".9 c #64645b",
"#G c #64675b",
"a4 c #64a391",
".s c #65b46b",
"a3 c #65b56b",
"aF c #677673",
"a0 c #67795b",
".P c #677c5c",
".# c #67aa97",
"aw c #686857",
"#w c #686d6d",
"#e c #687773",
"#C c #69695a",
"#0 c #696c57",
"a. c #697d5e",
"aP c #6a7773",
"aR c #6b6d66",
".5 c #6b7071",
"aS c #6bab94",
"#8 c #6bb669",
"#x c #6c6a60",
".0 c #6c7e5d",
"aI c #6d6b55",
"an c #6d6f65",
"#X c #6d7042",
".8 c #6d7377",
"#s c #6d7775",
".I c #6d8869",
"#W c #6e7475",
"#R c #707474",
"#l c #717878",
"#Y c #72705e",
"#i c #72787a",
"af c #72b967",
"#1 c #737745",
"au c #737774",
".W c #73787d",
"aD c #747661",
"a6 c #757041",
"#Z c #76725d",
"a5 c #767a72",
"a2 c #767e65",
"#E c #77776d",
".4 c #77786e",
"#2 c #777d69",
".k c #77a885",
"a8 c #787447",
"#V c #787b35",
"#N c #797f7f",
"ak c #7c7e74",
"ai c #7d7e75",
".A c #7d8387",
"#6 c #7d8a72",
"aJ c #7e7f67",
"#r c #7e835e",
"#h c #7f8588",
"bc c #7fbc64",
".J c #807d6f",
"as c #808687",
"av c #817e6d",
".C c #818381",
".M c #82888d",
"aU c #837c5b",
"#M c #838889",
".7 c #83888f",
"aX c #83b486",
"#4 c #85be62",
".R c #899161",
"ab c #8bc060",
".r c #8db881",
"ad c #8e8960",
"#. c #8e904f",
"ay c #8f8c7b",
".t c #8faf7d",
"aq c #908d7e",
".B c #91979e",
"a9 c #91b97e",
".y c #92989f",
"ba c #92c25e",
".x c #949082",
".g c #98957c",
"am c #99927a",
"#5 c #9a8b4e",
"#z c #9b937c",
".G c #9c973d",
"ar c #9c998b",
"al c #9d9582",
"#O c #9da5a7",
"#Q c #9da5a8",
"aM c #a0977a",
"b# c #a0bf76",
".L c #a1a6ae",
".6 c #a4a9b2",
"aH c #a99a58",
".S c #a9a246",
".c c #a9bfa1",
"#P c #aaa89a",
"#y c #aea794",
"#F c #b3ab98",
"#9 c #b4a342",
".1 c #b4b21f",
"aj c #b5ae9b",
"## c #b5b62c",
".z c #babfc9",
".p c #bbb3a1",
".o c #bfc0bb",
".l c #c5baa1",
".q c #c8bca2",
".n c #cecdc6",
"a1 c #d3be3c",
"at c #d3bf41",
"#3 c #d3d40a",
"aL c #d4c692",
".m c #d9d1bf",
".d c #dcd2b9",
".f c #dfd5bc",
".F c #e7e706",
"aB c #edd43f",
"ap c #f4da3f",
".e c #f6ebd3",
"#p c #f9de3f",
"#d c #fafa01",
"#b c #ffe340",
".E c #ffff00",
"QtQtQtQtQtQtQtQtQtQtQtQtQtQtQtQtQtQtQtQtQtQtQtQtQtQtQtQtQtQtQt.#QtQt.aQtQtQtQtQt",
"QtQtQtQt.aQtQtQtQtQtQtQt.aQtQtQtQtQtQtQt.aQtQtQtQtQtQtQt.aQtQtQtQtQtQtQtQtQtQtQt",
"Qt.aQtQtQtQtQtQtQt.aQtQtQt.#QtQtQt.aQtQtQtQtQtQtQt.aQtQtQt.#QtQtQt.aQtQtQtQtQtQt",
"QtQtQtQtQt.aQtQt.#.#QtQtQtQtQtQtQtQtQtQtQt.aQtQt.#.#QtQtQtQtQtQtQtQtQtQtQt.aQtQt",
"QtQtQtQtQtQtQt.a.#.#QtQtQtQtQtQtQtQtQtQtQtQtQt.a.#.#QtQtQtQtQtQtQtQtQtQtQtQtQt.a",
"QtQtQtQtQtQtQtQtQtQtQtQtQtQtQt.#QtQtQtQtQtQtQtQtQtQtQtQtQtQtQt.#QtQtQtQtQtQtQtQt",
".b.c.d.e.f.g.h.i.jQt.b.c.d.e.f.g.h.j.#.#Qt.b.c.d.e.f.g.h.jQtQt.b.c.d.e.f.g.h.iQt",
".k.l.m.n.o.p.q.j.j.j.k.l.m.n.o.p.j.j.j.r.s.t.l.m.n.o.p.j.j.j.u.v.l.m.n.o.p.q.jQt",
".w.x.y.z.A.B.C.j.j.j.D.x.y.z.A.B.j.j.j.E.F.G.x.y.z.A.B.j.j.j.H.w.x.y.z.A.B.j.j.j",
".I.J.K.L.M.N.O.P.j.Q.R.J.K.L.M.N.O.j.E.E.E.S.J.K.L.M.N.O.j.E.T.I.J.K.L.M.N.j.j.j",
".U.V.W.X.K.Y.Z.0.j.E.1.V.W.X.K.Y.Z.j.EQtQt.2.V.W.X.K.Y.Z.j.E.E.1.V.W.X.K.Y.Z.jQt",
".3.4.5.6.7.8.9#..j.E##.4.5.6.7.8.9.j#a#bQt#c.4.5.6.7.8.9.j#d.E##.4.5.6.7.8.9.j#a",
"#e#f#g#h#i#j#k#l.j#m#n#f#g#h#i#j#k.j#oQt#p#n#f#g#h#i#j#k.j#o#q#r#f#g#h#i#j#k.j#o",
"#s#t#u#v#w#x#y.d.e.f#z#A#B.j#w#x#y.d.e.f.g#C#D.j#v#E#F.d.e.f.g#G#D.j#v#w#H#I.j#J",
"#K#L#M#N#O.x.l.m.n.o.p.q.j.j.j.x.l.m.n.o.p.q.j.j.j#P.l.m.n.o.p.q.j.j.j#Q#R#S.j#T",
"Qt#U#V#W#X#Y.x.y.z.A.B.C.j.j.j#Z.x.y.z.A.B.C.j.j.j#0.x.y.z.A.B.C.j.j.j#1#2#3.j.a",
"Qt#4.E.E.E.I.J.K.L.M.N.O#5.jQt#6.J.K.L.M.N.O.P.j#b.I.J.K.L.M.N.O#5.j.a#7.E.E.EQt",
"#7.E.E#8Qt#9.V.W.X.K.Y.Za..jQt.U.V.W.X.K.Y.Za..jQt#9.V.W.X.K.Y.Za..jQtQta#.E.Eaa",
"ab.E.EQtQt#c.4.5.6.7.8.9ac.j#b#c.j.5.6.7.8.9ad.jQtae.4.5.6.7.j.9ac.j#bQtQt.E.E.E",
".E.Eaf#bagah#f#g#haiaj.d.e.f.g.j.j.j#h#i#j#kakal.d.e.faman.j.j.j#l.jQt#bQtao.E.E",
".E.E#7Qtap#s#t#u#vaq.l.m.n.o.p.j.j.j#v#w#H#Iar.l.m.n.o.p.q.j.j.jas.jQtQt#bQt.E.E",
".E.EQtQtQtat#L#Mauav.x.y.z.A.B.C.j#M#N#Q#Rawax.x.y.z.A.B.Cay.jazaA.jQtQtQt.E.E.E",
".E.E.E.#QtQtaBaC#WaD.J.K.L.M.N.O.jaC#WaEaFaGaH.J.K.L.M.N.OaI.jaGQtQt#b.#QtQt.E.E",
".E.E.##bQtQtQt#bQt.U.V.W.X.K.Y.Z.jQt.##bQtQt.U.V.j.X.K.Y.Za..j#bQtQt.##bQtQt#4.E",
".E.EQtQt#b.aQt.##b#c.4.5.6.7.8.9.j#aQtQt#b.a#c.j.j.j.7.8.9ac.jQt#bQtQtQt#b.a.E.E",
".E.EQtQtQt#bQtQtagaJ#f#g#h#i#j#kaKaL.d.e.faMaN.j.j.j#i#j#k#l.jQtQt#bQtQtQt.E.E.E",
".E.E.EQtQt.##bQtaOaP#t#u#v#w#H#IaQ.l.m.n.o.p.qaR.j#v#w#H#Ias.jQtQt.a#bQtQtaS.E.E",
".E.E.E.EQtQtQt#bQt#K#L#M#N#Q#RawaT.x.y.z.A.B.CaU.j#N#Q#RaVaW.j#b.#.#Qt#bQtab.E.E",
"aX.E.E.T#bQtQtQt#bQt#UaC#WaYaFaZaH.J.K.L.M.N.Oa0.j#WaYaFa1Qt.j.a#b.#QtQt.E.E.Eaf",
"Qt.E.E.EQt#bQt.#Qt#bQtQtQt#bQtQt.U.V.W.X.K.Y.Za2.j#bQtQtQt#bQtQtQt#bQtQt.E.E.E.#",
"Qt.Q.E.E.EQt#bQtQtQt#b.#QtQt#bQt#c.4.5.6.7.8.9ac.jQt#b.#QtQt#bQtQtQt#b#4.E.EaaQt",
"QtQta3.E.E.E#7#bQtQt.##bQtQtQt#p#n#f#g#h#i#j#k#l.jQt.##bQtQtQt#bQtQtab.E.E#4Qt.a",
"QtQt.a#8.E.E.E.Q#bQtQtQt#b.aQta4a5#t#u#v#w#H#Ias.jQtQtQt#b.aQt.#.E.E.E.EabQtQtQt",
"QtQtQtQtaa.E.E.E#4.EQtQtQt#bQtQt#Ka6#M#N#Q#RaVaA.j#bQtQtQt#bQt#8.E.E.EafQtQtQtQt",
"Qt.aQtQtQt.Q.E.E.E.E.E#7Qt.##bQtQta7a8#WaYaFa1Qt.j.a#bQtQta9.E.E.E.Eb.QtQtQtQtQt",
"QtQtQtQtQt.aQt#8.E.E.E.E.Ea3#7.EQtQtQt.EQt.aQt.E.#.#b..E.E.E.E.E#4QtQtQtQt.aQtQt",
"QtQtQtQtQtQtQt.aaSb#.E.E.E.E.E.E.E.E.E.E.E.E.E.E.E.E.E.E.E.EbabbQtQtQtQtQtQtQt.a",
"QtQtQtQtQtQtQtQtQtQtQtb..E.E.E.E.E.E.E.E.E.E.E.E.E.E.E.E#8QtQt.#QtQtQtQtQtQtQtQt",
"QtQt.#.#QtQtQtQtQtQtQtQtQtQtQtb.bc.E.E.E.E.E.E#4a3#7QtQtQtQtQtQtQtQt.#.#QtQtQtQt",
"QtQt.#.#QtQtQtQtQtQtQtQtQtQtQt.aQtQt.#.#QtQtQtQtQtQtQtQtQtQtQt.aQtQt.#.#QtQtQtQt"};
