/* XPM */
static char *dummy[]={
"40 40 295 2",
".a c #00a15e",
".w c #049759",
"aO c #08a15b",
"b5 c #0b9456",
"ak c #0b9656",
"cj c #0c8d57",
"#f c #0e875c",
"bE c #20865d",
".1 c #2d8548",
"#u c #319871",
"aM c #319c73",
"#z c #31a479",
".M c #329a72",
".E c #329c72",
".F c #329e74",
".2 c #32a277",
"Qt c #32a67a",
"a0 c #338b71",
".b c #33a477",
".D c #347c5b",
"bI c #34916d",
"b2 c #36996e",
".t c #379a6f",
"aX c #388b6e",
".5 c #3b3f44",
"aI c #3b8367",
"cu c #3c896c",
"cf c #3ea672",
"ac c #3f4140",
"aS c #40896e",
".V c #409e45",
"bc c #417862",
"as c #425362",
"bb c #445668",
".m c #449667",
"aq c #454e58",
"ch c #455668",
"cG c #45a56e",
"cl c #475666",
"au c #484e50",
"a1 c #487177",
".K c #495446",
"#A c #496b60",
"aU c #4a6f61",
".h c #4a8859",
"#b c #4b493e",
"#j c #4b586e",
"az c #4b6f65",
"bQ c #4b7c51",
".U c #4ba56a",
".G c #4d5c42",
"am c #4d5c75",
"bj c #4d6a5c",
"bR c #4e5c72",
"#p c #4f5963",
"ao c #4f5a6a",
"#h c #4f5b5a",
"bF c #4f8b60",
"ci c #517a6b",
"#i c #525d69",
"ar c #525e71",
"cq c #526e61",
"a2 c #52727d",
"#3 c #527752",
"a. c #53585a",
".L c #535956",
"aY c #535b65",
"a7 c #535e6e",
"aE c #545755",
".P c #547067",
"aL c #555341",
"#y c #555955",
"by c #555957",
"bs c #557e6d",
"#B c #565342",
"c. c #565c47",
"bd c #57965b",
"cJ c #57a23d",
"cx c #58a663",
"#x c #595540",
"bU c #59874f",
"aN c #5a5239",
"aD c #5c5638",
"#C c #5c5951",
"#6 c #5d5c4f",
"a6 c #5d5d4f",
"a# c #5d5e57",
".x c #5d6249",
".I c #5e5b3f",
"ap c #5e5b47",
"#S c #5e684d",
"#G c #5e6b54",
"#t c #5e7277",
"al c #5e7278",
"ay c #5f5c47",
"#q c #5f5c48",
".W c #5f6f61",
"ct c #607177",
"at c #615e48",
"#g c #61624b",
"bD c #618c81",
"aw c #619481",
"c# c #619d8c",
".4 c #626b76",
"ax c #626c6b",
"br c #629f8d",
"#k c #635f4c",
"cg c #637274",
"b# c #646957",
"aF c #646c71",
"#a c #647082",
"#v c #656f61",
"cm c #657955",
"cC c #65a55b",
"#w c #666e73",
"cp c #667273",
"bo c #668953",
"#P c #676b69",
"aR c #676c6c",
"bk c #676f64",
".# c #67aa97",
"bg c #686e6e",
".O c #688867",
"aC c #696d6a",
"cw c #697172",
"#o c #697271",
".l c #698a6a",
"#5 c #6a6462",
".H c #6a6d6c",
"ah c #6a6e6d",
"aA c #6a7379",
"aK c #6a7874",
"bJ c #6b726f",
"bO c #6d6952",
"aH c #6d716f",
".C c #6d7270",
"bq c #6e623f",
"ad c #6e6555",
"#N c #6e6a54",
"b3 c #6e7066",
".B c #6e7373",
"b0 c #6e7765",
"aG c #6e7d7a",
".X c #6f7270",
".Q c #6f7373",
"af c #6f9a4d",
"bw c #705c2d",
"#9 c #70706c",
"cc c #70a252",
"bh c #716f5e",
"bX c #717867",
"#s c #719149",
"bp c #729c4b",
"cH c #72a653",
"cv c #737d77",
"#4 c #747577",
"b6 c #747868",
"av c #748091",
".c c #75954d",
"b7 c #75a988",
".6 c #767264",
"#Z c #776e50",
"aJ c #796941",
"bn c #797d74",
"bK c #798698",
"aZ c #7a7265",
"an c #7a889c",
"#Q c #7b8949",
"cd c #7c6f4f",
"a8 c #7c7546",
"aB c #7c7d72",
"bB c #7ca24b",
"bZ c #7d6a40",
"cb c #7d6f4f",
"ba c #7d7545",
"cK c #7ea97f",
"bC c #7f704e",
"bv c #7f9e45",
"bH c #7fa64c",
"cB c #80a42e",
"bW c #826f44",
"bL c #82784a",
".A c #858789",
"bz c #85a648",
"ce c #878b3e",
".3 c #88845f",
".s c #888560",
"#8 c #89805d",
"bf c #89835f",
"#K c #8a7e48",
"aj c #8a8360",
".i c #8a9659",
"ab c #8b8360",
".v c #8b8561",
"#e c #8b9a3c",
"aV c #8ba544",
"bl c #8c835d",
".y c #8c9294",
"#J c #8d7f69",
"#0 c #8d804b",
"#O c #8e806c",
"#d c #8e855c",
".8 c #90855b",
"b1 c #92855a",
"bS c #92895b",
"ck c #937a44",
"ai c #937f39",
"bi c #93833b",
".n c #93843c",
".q c #949793",
"ae c #95803a",
"#7 c #95803b",
"bY c #95823c",
".7 c #96813b",
"#c c #96823c",
".u c #96853e",
".z c #969ea1",
"aa c #97823b",
"b4 c #97823c",
"bN c #978b3a",
"bu c #98a63c",
"#U c #9a8648",
".0 c #9a8a3c",
"b. c #9a8b3c",
"#R c #9a8c3c",
".g c #9a8c3d",
"bm c #9b8337",
"a5 c #9c893c",
"#2 c #9d893c",
".k c #9d8c3e",
"be c #9e8435",
"#M c #9e893a",
"#W c #9e8c3a",
"cy c #9ea323",
"bt c #9ea639",
".J c #a38264",
"#X c #a48722",
"ca c #a4a635",
"bP c #a68c35",
"aQ c #a6a131",
"#D c #a9992a",
".r c #aa9750",
"cI c #aaa531",
".Y c #b0934d",
"bA c #b1a52d",
"#l c #b47c0f",
"ag c #b68b22",
"#n c #b89129",
"a3 c #b99525",
"bV c #b9a541",
".S c #be9d57",
"bG c #bea626",
"cr c #c1891d",
"aT c #c18921",
".R c #c3a076",
".p c #c3c2a7",
"cA c #c4a622",
"#H c #c6a279",
".o c #c6bc7a",
"## c #c98b17",
"cs c #caa51e",
".N c #ccbe53",
"cE c #cea72f",
".d c #cfbe55",
"bM c #d0b954",
"#r c #d1a51a",
"bT c #d1b954",
"a9 c #d1bb54",
"#V c #d2ba54",
".j c #d2be57",
".T c #d5bb54",
"#L c #d6bc51",
"aP c #d7a516",
"co c #d8910c",
"#1 c #d8be55",
".Z c #dabf56",
"#m c #dca621",
"a4 c #dcbe4d",
"aW c #dea613",
"cD c #e4a60f",
"#T c #e5b98d",
".f c #e6cc5e",
"#F c #e7a40b",
".9 c #e99a05",
"#I c #e9bc91",
"b9 c #ea9d05",
"cz c #eaa60b",
"b8 c #ed9c03",
"bx c #f19e02",
"cn c #f1a507",
".e c #f6dd70",
"#Y c #f7a202",
"#E c #f7a503",
"cF c #f9a504",
"#. c #ffa600",
"QtQtQtQtQtQtQtQtQtQtQtQtQtQtQtQtQtQtQtQtQtQtQtQtQtQtQtQtQtQtQt.#QtQt.aQtQtQtQtQt",
"QtQtQtQt.aQtQtQtQtQtQtQt.aQtQtQtQtQtQtQt.aQtQtQtQtQtQtQt.aQtQtQtQtQtQtQtQtQtQtQt",
"Qt.aQtQtQtQtQtQtQt.aQtQtQt.#QtQtQt.aQtQtQtQtQtQtQt.aQtQtQt.#QtQtQt.aQtQtQtQtQtQt",
"QtQtQtQtQt.aQtQt.#.#QtQtQtQtQtQtQtQtQtQtQt.aQtQt.#.#QtQtQtQtQtQtQtQtQtQtQt.aQtQt",
"QtQtQtQtQtQtQt.a.#.#QtQtQtQtQtQtQtQtQtQtQtQtQt.a.#.#QtQtQtQtQtQtQtQtQtQtQtQtQt.a",
"QtQtQtQtQtQtQtQtQtQtQtQtQtQtQt.#QtQtQtQtQtQtQtQtQtQtQtQtQtQtQt.#QtQtQtQtQtQtQtQt",
"QtQt.#.#Qt.b.c.d.e.f.g.hQtQtQtQtQt.b.i.j.e.f.g.hQtQtQtQtQt.b.c.d.e.f.k.lQtQtQtQt",
"QtQt.#.#Qt.m.n.o.p.q.r.s.tQtQt.aQt.m.u.o.p.q.r.s.tQtQtQtQt.m.n.o.p.q.r.v.tQtQtQt",
"QtQtQtQtQt.w.x.y.z.A.B.C.DQtQtQtQt.E.x.y.z.A.B.C.DQt.aQtQt.E.x.y.z.A.B.C.D.aQt.#",
"QtQtQtQtQt.F.G.H.I.J.K.L.MQtQtQtQt.F.G.H.I.J.K.L.MQtQtQtQt.F.G.H.I.J.K.L.MQtQtQt",
".c.N.e.f.g.O.P.Q.R.S.T.e.f.g.hQt.U.V.W.X.Y.Z.e.f.0.1QtQtQt.2.P.X.Y.Z.e.f.0.lQtQt",
".u.o.p.q.r.3.4.5.6.7.o.p.q.r.8.9#.###a#b#c.o.p.q.r#d#e.UQt#f#a#b#c.o.p.q.r.s.tQt",
"#g.y.z.A.B.C#h#i#j#k.y.z.A.B.C#l#m#n#o#p#q.y.z.A.B.C#l#.#r#s#t#p#q.y.z.A.B.C.DQt",
".G.H.I.J.K.L#u#v#w#x.H.I.J.K#y.MQt#.#z#A#B.H.I.J.K#C#D#E#.#.#F#G#B.H.I.J.K.L.M.#",
".P.Q#H#I#J#K#L.e.f#M#N#H#I#O#P#Q.d.e.f#R#S.Q#H#T#U#V.e.f#W#X#.#Y#Z#0#1.e.f#2#3Qt",
"#a.5#4#5#6#7.o.p.q.r#8#9#5a.a#aa.o.p.q.rabac#4adae.o.p.q.r.safagahai.o.p.q.rajak",
"al#iamanaoap.y.z.A.B.Caqanarasat.y.z.A.B.Cauamav#q.y.z.A.B.C.Dawaxay.y.z.A.B.C.D",
"#zazaAaBaCaD.H.I.J.KaEaFaGaHaI.G.H.I.J.K.LaJaAaKaL.H.I.J.K#C.MQtaMaN.H.I.J.K.L.M",
"QtaOaP#.aQ.P.Q#H#I#OaRaSQt.##Y.P.Q#H#I#OaRaS#..2.P.Q#H#I#OaRaTQt.2aU.Q#H#I#OaRaS",
"QtaV#.aWaX#a.5#4#5a.aYaZQtQta0#a.5#4#5a.aYa1Qt###a.5#4#5a.aYa2#.a0#a.5#4#5a.aYa2",
".ba3a4.e.fa5a6amana7a8a9.e.fb.b##iamana7baa9.e.f#2a6amana7a8a9.e.fa5a6amanarbbbc",
"bdbe.o.p.q.rbfbgaGbhbi.o.p.q.r.vbjaAaGbkbi.o.p.q.rblbgaGbkbm.o.p.q.rbfbgbnaHboQt",
"bpbq.y.z.A.B.C.DQt.Ebq.y.z.A.B.C.DQt#.br.x.y.z.A.B.C#lQt.E.x.y.z.A.B.Cbsbt#.buQt",
"bvbw.H.I.J.K.L.9Qt.F.G.H.I.J.K#C.MQt.#bx.G.H.I.J.K.L.M#..F.G.H.I.J.Kby.9bz#.bAQt",
"bBbC.Q#H#I#OaRbD#..2aU.Q#H#I#OaRaTQtQt.2bC.Q#H#I#OaRbEQt#Y.P.Q#H#I#OaRaS#.#.bt.#",
"bF#a.5#4#5a.aYa2Qt###a.5#4#5a.aYa2#.Qta0#a.5#4#5a.aYa2Qta0#a.5#4#5a.aYa2bG#.bHQt",
"bIbJ#iambKbLbM.e.fbNbO#iambKbLbM.e.fbPbQal#ibRbSbT.e.f.gbQal#iambKbLbM.e.fbPbUQt",
".#bVbWaAbXbY.o.p.q.r.sbZaAb0bY.o.p.q.rb1b2azb3b4.o.p.q.r.sb5azaAb6#c.o.p.q.r.s.t",
".#b7#E#.b8.x.y.z.A.B.C.D#..E.x.y.z.A.B.C#lQt.E.x.y.z.A.B.C.DQt.ab8#g.y.z.A.B.C.D",
"QtQtbH#.b9bw.H.I.J.K.L.MQtbx.G.H.I.J.K.L.M#..Fc..H.I.J.K.L.9QtQt.Fbw.H.I.J.K.Lc#",
"QtQtQtca#Ycb.Q#H#I#OaRbDQt.2bC.Q#H#I#OaRaSQt#Y.P.Q#H#I#OaRaS#.Qtcccd.Q#H#I#OaRaS",
"QtQtQtQtce#a.5#4#5a.aYaZQta0#a.5#4#5a.aYa2Qta0#a.5#4#5a.aYa2cfca###a.5#4#5a.aYa1",
"QtQt.aQtbIcg#iamanarchci#.cjal#iamanarbbckQtbIal#iamanarclcmcn#.cocp#iamanarbbci",
"QtQtQtQtQt#zcqaAaBaHcrcsbz#.#zazaAaBctcuQt#.Qt#zazaAcvcwcr#.#.cscx#zazaAaGctcuQt",
"Qt.aQtQtQtQtQtQtcxcy#E#.#.#.czcAbucB#.cCbzbu#.bGcD#.#.#.#.cEcCQtQt.aQtQtQtQtQtQt",
"QtQtQtQtQt.aQtQt.#.#cfbHcAcn#.#.#.#.#.#.#.#.#.#.#.cFcsaVcGQtQtQtQtQtQtQtQt.aQtQt",
"QtQtQtQtQtQtQt.a.#.#QtQtQtQt.UcHbubucacscIbubucJcK.#QtQtQtQtQtQtQtQtQtQtQtQtQt.a",
"QtQtQtQtQtQtQtQtQtQtQtQtQtQtQt.#QtQtQtQtQtQtQtQtQtQtQtQtQtQtQt.#QtQtQtQtQtQtQtQt",
"QtQt.#.#QtQtQtQtQtQtQtQtQtQtQtQtQtQt.#.#QtQtQtQtQtQtQtQtQtQtQtQtQtQt.#.#QtQtQtQt",
"QtQt.#.#QtQtQtQtQtQtQtQtQtQtQt.aQtQt.#.#QtQtQtQtQtQtQtQtQtQtQt.aQtQt.#.#QtQtQtQt"};
