/* XPM */
static char *dummy[]={
"40 40 216 2",
".j c #000000",
"bg c #001e11",
"bk c #002314",
"bq c #004b2c",
"aw c #008c52",
".a c #00a15e",
"#s c #010101",
"#f c #010503",
"#e c #013c23",
"ax c #020202",
"aS c #030a07",
"#8 c #040f0b",
"aJ c #050505",
"bh c #05985a",
"bf c #06140f",
".E c #090906",
"b# c #090a0a",
"aa c #091f16",
"a9 c #098a54",
"bo c #0a241a",
"bm c #0c1512",
".R c #0c291e",
"ah c #0e2e22",
"aB c #0f1010",
"#6 c #0f1f19",
"aR c #0f3426",
"am c #123e2d",
"ab c #144331",
"al c #154835",
"a6 c #157e52",
".T c #174e39",
"bp c #18523c",
"br c #192a25",
"bs c #1a5740",
"ag c #1c5d44",
"#7 c #1d6248",
"bu c #1f674c",
"an c #227153",
"ac c #237757",
"bb c #257c5b",
".s c #267c5b",
"bl c #27815f",
"af c #288663",
".2 c #2a281f",
"a3 c #2a453d",
"#p c #2a8864",
"ae c #2a8b66",
"#g c #2b2c2c",
"ak c #2b835e",
".U c #2b916a",
"be c #2d302f",
".P c #2d966e",
"#t c #2e9870",
"bt c #2e9b72",
"a# c #30a076",
"aO c #318e6a",
"aY c #31a076",
"ao c #31a277",
"#W c #31a579",
"bi c #323535",
".4 c #324434",
"#X c #329c74",
"#c c #32a378",
".i c #32a579",
"Qt c #32a67a",
"bv c #33544b",
".u c #33a67a",
"#b c #344a42",
"#r c #34926e",
"aI c #358164",
"#N c #35906d",
".G c #359970",
"aU c #363329",
"#Y c #36423f",
"#O c #3b5e51",
"aK c #406357",
"bn c #406a5e",
"#E c #424444",
"#x c #434545",
"#L c #444746",
"#0 c #444a45",
"#4 c #444e4b",
".h c #45805e",
".V c #458261",
"#d c #46856e",
"bj c #497a6c",
".N c #4b4b48",
"a8 c #4b655d",
"#j c #4c4d45",
"aj c #4d4f4f",
".r c #4d7f71",
".Y c #4e5154",
"#a c #4e5352",
".J c #505457",
".W c #51524c",
"aE c #515351",
"#n c #525249",
"a7 c #538a7a",
".F c #544f3d",
".0 c #545251",
".D c #547d58",
".b c #559a75",
"#K c #565958",
"#V c #566561",
"aM c #566662",
"a5 c #576863",
".M c #595e61",
"#M c #59887a",
"#9 c #5a523e",
"aT c #5a5f5e",
"#u c #5a6763",
"ap c #5a766b",
"ai c #5a7a6e",
"aH c #5d6866",
"#D c #5e5f53",
"aX c #5e6758",
"aP c #5f5846",
"a0 c #5f594b",
"#i c #5f625d",
"#y c #5f6262",
".v c #5fa677",
"#m c #606462",
"#G c #616665",
"#q c #61766f",
".3 c #618471",
"#F c #626358",
".S c #62644e",
"#w c #626766",
".w c #627e60",
".5 c #62887d",
".Z c #63676c",
"#5 c #636969",
"aF c #637459",
"a2 c #63a492",
"## c #64645b",
"#J c #64675b",
"bc c #64a391",
".Q c #667158",
"aN c #677673",
"b. c #67795b",
".O c #677c5c",
".# c #67aa97",
"#z c #686d6d",
"#h c #687773",
".1 c #687a5c",
"#3 c #696c57",
"ad c #697d5e",
"bd c #6a6f6f",
"aZ c #6a7773",
"a1 c #6b6d66",
".7 c #6b7071",
"#A c #6c6a60",
"a4 c #6d6856",
"aQ c #6d6b55",
"av c #6d6f65",
"#. c #6d7377",
"#v c #6d7775",
".H c #6d8869",
"#Z c #6e7475",
"#2 c #706d5b",
"#U c #707474",
"#1 c #71705d",
"#o c #717878",
".t c #719476",
"#l c #72787a",
"aC c #737774",
".X c #73787d",
"aL c #747661",
"ba c #767e65",
"#H c #77776d",
".6 c #77786e",
".k c #77a885",
"#Q c #797f7f",
"as c #7c7e74",
"aq c #7d7e75",
".A c #7d8387",
"a. c #7d8a72",
"#k c #7f8588",
".I c #807d6f",
"aA c #808687",
"aD c #817e6d",
".C c #818381",
".L c #82888d",
"#P c #838889",
".9 c #83888f",
"aG c #8f8c7b",
"ay c #908d7e",
".B c #91979e",
".y c #92989f",
".x c #949082",
"aW c #968f78",
".g c #98957c",
"au c #99927a",
"#C c #9b937c",
"az c #9c998b",
"at c #9d9582",
"#R c #9da5a7",
"#T c #9da5a8",
"aV c #a09885",
".K c #a1a6ae",
".8 c #a4a9b2",
".c c #a9bfa1",
"#S c #aaa89a",
"#B c #aea794",
"#I c #b3ab98",
"ar c #b5ae9b",
".z c #babfc9",
".p c #bbb3a1",
".o c #bfc0bb",
".l c #c5baa1",
".q c #c8bca2",
".n c #cecdc6",
".m c #d9d1bf",
".d c #dcd2b9",
".f c #dfd5bc",
".e c #f6ebd3",
"QtQtQtQtQtQtQtQtQtQtQtQtQtQtQtQtQtQtQtQtQtQtQtQtQtQtQtQtQtQtQt.#QtQt.aQtQtQtQtQt",
"QtQtQtQt.aQtQtQtQtQtQtQt.aQtQtQtQtQtQtQt.aQtQtQtQtQtQtQt.aQtQtQtQtQtQtQtQtQtQtQt",
"Qt.aQtQtQtQtQtQtQt.aQtQtQt.#QtQtQt.aQtQtQtQtQtQtQt.aQtQtQt.#QtQtQt.aQtQtQtQtQtQt",
"QtQtQtQtQt.aQtQt.#.#QtQtQtQtQtQtQtQtQtQtQt.aQtQt.#.#QtQtQtQtQtQtQtQtQtQtQt.aQtQt",
"QtQtQtQtQtQtQt.a.#.#QtQtQtQtQtQtQtQtQtQtQtQtQt.a.#.#QtQtQtQtQtQtQtQtQtQtQtQtQt.a",
"QtQtQtQtQtQtQtQtQtQtQtQtQtQtQt.#QtQtQtQtQtQtQtQtQtQtQtQtQtQtQt.#QtQtQtQtQtQtQtQt",
".b.c.d.e.f.g.h.i.jQt.b.c.d.e.f.g.h.j.#.#Qt.b.c.d.e.f.g.h.jQtQt.b.c.d.e.f.g.h.iQt",
".k.l.m.n.o.p.q.j.j.j.k.l.m.n.o.p.j.j.j.r.s.t.l.m.n.o.p.j.j.j.u.v.l.m.n.o.p.q.jQt",
".w.x.y.z.A.B.C.j.j.j.D.x.y.z.A.B.j.j.j.j.E.F.x.y.z.A.B.j.j.j.G.w.x.y.z.A.B.j.j.j",
".H.I.J.K.L.M.N.O.j.P.Q.I.J.K.L.M.N.j.R.R.R.S.I.J.K.L.M.N.j.T.U.H.I.J.K.L.M.j.j.j",
".V.W.X.Y.J.Z.0.1.j.j.2.W.X.Y.J.Z.0.j.jQtQt.3.W.X.Y.J.Z.0.j.j.j.4.W.X.Y.J.Z.0.jQt",
".5.6.7.8.9#.###a.j.j#b.6.7.8.9#.##.j#c.jQt#d.6.7.8.9#.##.j#e#f#g.6.7.8.9#.##.j#c",
"#h#i#j#k#l#m#n#o.j#p#q#i#j#k#l#m#n.j#rQt#s#q#i#j#k#l#m#n.j#r#t#u#i#j#k#l#m#n.j#r",
"#v#w#x#y#z#A#B.d.e.f#C#D#E.j#z#A#B.d.e.f.g#F#G.j#y#H#I.d.e.f.g#J#G.j#y#z#K#L.j#M",
"#N#O#P#Q#R.x.l.m.n.o.p.q.j.j.j.x.l.m.n.o.p.q.j.j.j#S.l.m.n.o.p.q.j.j.j#T#U#V.j#W",
"Qt#X#Y#Z#0#1.x.y.z.A.B.C.j.j.j#2.x.y.z.A.B.C.j.j.j#3.x.y.z.A.B.C.j.j.j#4#5#6.j.a",
"Qt#7.j#8.j.H.I.J.K.L.M.N#9.jQta..I.J.K.L.M.N.O.j.j.H.I.J.K.L.M.N#9.j.aa#aa.jabQt",
"a##8.jacQt.2.W.X.Y.J.Z.0ad.jQt.V.W.X.Y.J.Z.0ad.jQt.2.W.X.Y.J.Z.0ad.jQtQtae#f.jaf",
"ag.jahQtQt#d.6.7.8.9#.##ai.j.j#d.j.7.8.9#.##aj.jQtak.6.7.8.9.j##ai.j.jQtQtal.jam",
"aa.jan.jaoap#i#j#kaqar.d.e.f.g.j.j.j#k#l#m#nasat.d.e.fauav.j.j.j#o.jQt.jQtaw.j#f",
".j#fa#Qtax#v#w#x#yay.l.m.n.o.p.j.j.j#y#z#K#Laz.l.m.n.o.p.q.j.j.jaA.jQtQt.jQtaa.j",
".j.RQtQtQtaB#O#PaCaD.x.y.z.A.B.C.j#P#Q#T#UaEaF.x.y.z.A.B.CaG.jaHaI.jQtQtQt.jal.j",
".jam.j.#QtQtaJaK#ZaL.I.J.K.L.M.N.jaK#ZaMaNaOaP.I.J.K.L.M.NaQ.jaOQtQt.j.#QtQt.j.j",
".jam.#.jQtQtQt.jQt.V.W.X.Y.J.Z.0.jQt.#.jQtQt.V.W.j.Y.J.Z.0ad.j.jQtQt.#.jQtQt#7.j",
".jaRQtQt.j.aQt.#.j#d.6.7.8.9#.##.j#cQtQt.j.a#d.j.j.j.9#.##ai.jQt.jQtQtQt.j.a.T.j",
".jaSQtQtQt.jQtQtaoaT#i#j#k#l#m#naUaV.d.e.faWaX.j.j.j#l#m#n#o.jQtQt.jQtQtQt.jah.j",
"#8.j.jQtQt.#.jQtaYaZ#w#x#y#z#K#La0.l.m.n.o.p.qa1.j#y#z#K#LaA.jQtQt.a.jQtQta2#f.j",
"a3.jal.jQtQtQt.jQt#N#O#P#Q#T#UaE.F.x.y.z.A.B.Ca4.j#Q#T#Ua5a6.j.j.#.#Qt.jQtag.j.R",
"a7.j#f.U.jQtQtQt.jQt#XaK#Za8aNa9aP.I.J.K.L.M.Nb..j#Za8aNb#Qt.j.a.j.#QtQt.j#8.jan",
"Qtam.j.RQt.jQt.#Qt.jQtQtQt.jQtQt.V.W.X.Y.J.Z.0ba.j.jQtQtQt.jQtQtQt.jQtQtam.jaa.#",
"Qt.P#8.jamQt.jQtQtQt.j.#QtQt.jQt#d.6.7.8.9#.##ai.jQt.j.#QtQt.jQtQtQt.j#7.j#fafQt",
"QtQtbb#f.jaRa#.jQtQt.#.jQtQtQt#s#q#i#j#k#l#m#n#o.jQt.#.jQtQtQt.jQtQtag.j.j#7Qt.a",
"QtQt.aac#f.j.R.P.jQtQtQt.j.aQtbcbd#w#x#y#z#K#LaA.jQtQtQt.j.aQt.#.j.T.j.jagQtQtQt",
"QtQtQtQtaf#8.jaS#7.jQtQtQt.jQtQt#Nbe#P#Q#T#Ua5aI.j.jQtQtQt.jQtacbf.j#fanQtQtQtQt",
"Qt.aQtQtQt.Pah.j.jbg.ja#Qt.#.jQtQtbhbi#Za8aNb#Qt.j.a.jQtQtbjah.j.jbkblQtQtQtQtQt",
"QtQtQtQtQt.aQtacbm.j.j#8albba#.jQtQtQt.jQt.aQt.j.#.#bl.jbf.j.jaS#7QtQtQtQt.aQtQt",
"QtQtQtQtQtQtQt.aa2bnbo.j.j.j.jaaalbpbpbp.jbpbpbqbr.j.j.j.jbfbsbtQtQtQtQtQtQtQt.a",
"QtQtQtQtQtQtQtQtQtQtQtblal.R.j.j.j.j.j.j.j.j.j.j.j.jaaabacQtQt.#QtQtQtQtQtQtQtQt",
"QtQt.#.#QtQtQtQtQtQtQtQtQtQtQtblbubpbvbvbpbpbp#7bba#QtQtQtQtQtQtQtQt.#.#QtQtQtQt",
"QtQt.#.#QtQtQtQtQtQtQtQtQtQtQt.aQtQt.#.#QtQtQtQtQtQtQtQtQtQtQt.aQtQt.#.#QtQtQtQt"};
