/* XPM */
static char *dummy[]={
"40 40 296 2",
".a c #00a15e",
"aN c #00a263",
"cK c #00b895",
"cC c #00c2ae",
"cz c #00cbc1",
"#. c #00e5ff",
"#E c #01e3f9",
".V c #02ad83",
"#Y c #02def7",
"by c #03d9f0",
"cn c #03e1f5",
"cG c #03e3fa",
".w c #049759",
"b9 c #04d5ec",
"c. c #04d7ea",
"#F c #04dcee",
"cA c #04def1",
"bx c #05d2e9",
"cE c #06dced",
"aV c #07dae9",
"aO c #09d9e5",
"#r c #0ad7e1",
"b6 c #0b9456",
"ak c #0b9656",
".9 c #0bd1e3",
"cj c #0c8d57",
"co c #0cc4d8",
"ct c #0cd5dc",
"#f c #0e875c",
"## c #0eb9d2",
"cB c #0ed2d8",
"bH c #0fd0d4",
"bB c #12cdcc",
"ag c #13b2c5",
"#D c #14bfbf",
"cJ c #14cbc8",
"#l c #15a3ae",
"cb c #15c8c4",
"aP c #16c5c2",
"#m c #16d8e7",
"bt c #17c6bf",
"bu c #18c5bc",
"cs c #1cb2c2",
"aU c #1cc1b3",
"bA c #1dbeaf",
"cf c #1ea4a7",
"bv c #1eb4a5",
"bI c #1fbdac",
"bF c #20865d",
"aS c #20b1c2",
"bC c #20b8a7",
"#n c #20b8c2",
"cF c #20d1dd",
"bp c #22af9b",
"#e c #22b4a5",
"cI c #22b9a3",
"cd c #23b49f",
"#s c #24a495",
"cD c #25b69b",
"cy c #28b193",
"af c #29ab92",
".U c #2bae8a",
"bG c #2c9383",
".1 c #2d8548",
"cH c #2dac86",
"bW c #2dc8ce",
"cg c #2ea982",
"#u c #319871",
"aL c #319c73",
"#z c #31a479",
"aW c #328c74",
"bo c #329586",
".M c #329a72",
".E c #329c72",
".F c #329e74",
".2 c #32a277",
"Qt c #32a67a",
"aZ c #338b71",
".b c #33a477",
".D c #347c5b",
"bJ c #34916d",
"#X c #34a492",
"b3 c #36996e",
".t c #379a6f",
".5 c #3b3f44",
"aH c #3b8367",
"cv c #3c896c",
"aI c #3d777e",
"bX c #3e7f88",
"ac c #3f4140",
"bd c #3f9c73",
"aR c #40896e",
"bc c #417862",
"b0 c #41787b",
"cm c #418279",
"ck c #418e96",
"ar c #425362",
"cl c #43576a",
"bb c #445668",
".m c #449667",
"ap c #454e58",
"bw c #456658",
"#G c #45706d",
"bV c #468d62",
"at c #484e50",
"a0 c #487177",
"aY c #487e97",
".K c #495446",
"#A c #496b60",
"cq c #497169",
"aT c #4a6f61",
"cc c #4a7c82",
"bD c #4a7d83",
".h c #4a8859",
"#b c #4b493e",
"#j c #4b586e",
"aC c #4b5b48",
"ay c #4b6f65",
"bR c #4b7c51",
"ce c #4b7c81",
".G c #4d5c42",
"al c #4d5c75",
"bj c #4d6a5c",
"#Z c #4d797b",
"bS c #4e5c72",
"aM c #4f5544",
"#p c #4f5963",
"an c #4f5a6a",
"#h c #4f5b5a",
"#C c #515c5c",
"#v c #517474",
"ci c #517a6b",
"#y c #525a58",
"#i c #525d69",
"aq c #525e71",
"a1 c #52727d",
".W c #52736e",
"#3 c #527752",
"a. c #53585a",
".L c #535956",
"aX c #535b65",
"a6 c #535e6e",
"aD c #545755",
".P c #547067",
"aK c #555341",
"bz c #555957",
"bs c #557e6d",
"#B c #565342",
"#x c #565543",
"c# c #565c47",
"cL c #56b3a7",
"aw c #586e75",
"bq c #596754",
"aB c #5a7079",
"bK c #5a7680",
"#o c #5b757f",
"av c #5b9587",
"cp c #5c747d",
"#6 c #5d5c4f",
"a5 c #5d5d4f",
"a# c #5d5e57",
".x c #5d6249",
"ch c #5d737b",
"aG c #5d757f",
"b8 c #5dafa0",
".I c #5e5b3f",
"ao c #5e5b48",
"#S c #5e684d",
"#t c #5e7278",
"cx c #5e747c",
"ax c #5f5c47",
"#q c #5f5c48",
"cu c #607177",
"as c #615e48",
"#g c #61624b",
"bE c #618c81",
"ca c #619d8c",
".4 c #626b76",
"bP c #626c5d",
"br c #629f8d",
"#k c #635f4c",
"b. c #646957",
"aE c #646c71",
"#a c #647082",
"a2 c #64a979",
"bh c #65726a",
"#w c #666e73",
"#P c #676b69",
"aQ c #676c6c",
"bk c #676f64",
".# c #67aa97",
"bg c #686e6e",
".O c #688867",
".l c #698a6a",
"#5 c #6a6462",
".H c #6a6d6c",
"ah c #6a6e6d",
"az c #6a7379",
"aJ c #6a7874",
"aA c #6a8183",
"cr c #6a8184",
"bn c #6b8082",
".C c #6d7270",
"cw c #6d7e7e",
"ad c #6e6555",
"#N c #6e6a54",
"b4 c #6e7066",
".B c #6e7373",
"b1 c #6e7765",
"aF c #6e7d7a",
".X c #6f7270",
".Q c #6f7373",
"#9 c #70706c",
"bY c #717867",
"#4 c #747577",
"b7 c #747868",
"au c #748091",
".c c #75954d",
".6 c #767264",
"bL c #798698",
"am c #7a889c",
"#Q c #7b8949",
"a7 c #7c7546",
"b# c #7c7547",
"bM c #82784a",
".A c #858789",
".8 c #868765",
"b2 c #868866",
"#d c #878764",
".3 c #88845f",
".s c #888560",
"#8 c #89805d",
"bf c #89835f",
"bl c #898360",
"#K c #8a7e48",
"aj c #8a8360",
".i c #8a9659",
"ab c #8b8360",
".v c #8b8561",
".y c #8c9294",
"#J c #8d7f69",
"#0 c #8d804b",
"#O c #8e806c",
"be c #908843",
"bm c #928540",
"bT c #92895b",
"ai c #937f39",
"bi c #93833b",
".n c #93843c",
"aa c #94823e",
".q c #949793",
"ae c #95803a",
"#7 c #95803b",
"bZ c #95823c",
".7 c #96813b",
"#c c #96823c",
"b5 c #96823d",
".u c #96853e",
"bQ c #969045",
".z c #969ea1",
"bO c #978b3a",
"#W c #988e3f",
"#U c #9a8648",
".0 c #9a8a3c",
"a9 c #9a8b3c",
"#R c #9a8c3c",
".g c #9a8c3d",
"#M c #9b893d",
"a4 c #9c893c",
"ba c #9c893d",
"#2 c #9d893c",
".k c #9d8c3e",
".J c #a38264",
".r c #aa9750",
".Y c #b0934d",
".S c #be9d57",
".R c #c3a076",
".p c #c3c2a7",
"#H c #c6a279",
".o c #c6bc7a",
".N c #ccbe53",
"a3 c #ccc25d",
"#L c #cebe58",
".d c #cfbe55",
"bN c #d0b954",
"bU c #d1b954",
"a8 c #d1bb54",
"#V c #d2ba54",
".j c #d2be57",
".T c #d5bb54",
"#1 c #d8be55",
".Z c #dabf56",
"#T c #e5b98d",
".f c #e6cc5e",
"#I c #e9bc91",
".e c #f6dd70",
"QtQtQtQtQtQtQtQtQtQtQtQtQtQtQtQtQtQtQtQtQtQtQtQtQtQtQtQtQtQtQt.#QtQt.aQtQtQtQtQt",
"QtQtQtQt.aQtQtQtQtQtQtQt.aQtQtQtQtQtQtQt.aQtQtQtQtQtQtQt.aQtQtQtQtQtQtQtQtQtQtQt",
"Qt.aQtQtQtQtQtQtQt.aQtQtQt.#QtQtQt.aQtQtQtQtQtQtQt.aQtQtQt.#QtQtQt.aQtQtQtQtQtQt",
"QtQtQtQtQt.aQtQt.#.#QtQtQtQtQtQtQtQtQtQtQt.aQtQt.#.#QtQtQtQtQtQtQtQtQtQtQt.aQtQt",
"QtQtQtQtQtQtQt.a.#.#QtQtQtQtQtQtQtQtQtQtQtQtQt.a.#.#QtQtQtQtQtQtQtQtQtQtQtQtQt.a",
"QtQtQtQtQtQtQtQtQtQtQtQtQtQtQt.#QtQtQtQtQtQtQtQtQtQtQtQtQtQtQt.#QtQtQtQtQtQtQtQt",
"QtQt.#.#Qt.b.c.d.e.f.g.hQtQtQtQtQt.b.i.j.e.f.g.hQtQtQtQtQt.b.c.d.e.f.k.lQtQtQtQt",
"QtQt.#.#Qt.m.n.o.p.q.r.s.tQtQt.aQt.m.u.o.p.q.r.s.tQtQtQtQt.m.n.o.p.q.r.v.tQtQtQt",
"QtQtQtQtQt.w.x.y.z.A.B.C.DQtQtQtQt.E.x.y.z.A.B.C.DQt.aQtQt.E.x.y.z.A.B.C.D.aQt.#",
"QtQtQtQtQt.F.G.H.I.J.K.L.MQtQtQtQt.F.G.H.I.J.K.L.MQtQtQtQt.F.G.H.I.J.K.L.MQtQtQt",
".c.N.e.f.g.O.P.Q.R.S.T.e.f.g.hQt.U.V.W.X.Y.Z.e.f.0.1QtQtQt.2.P.X.Y.Z.e.f.0.lQtQt",
".u.o.p.q.r.3.4.5.6.7.o.p.q.r.8.9#.###a#b#c.o.p.q.r#d#e.UQt#f#a#b#c.o.p.q.r.s.tQt",
"#g.y.z.A.B.C#h#i#j#k.y.z.A.B.C#l#m#n#o#p#q.y.z.A.B.C#l#.#r#s#t#p#q.y.z.A.B.C.DQt",
".G.H.I.J.K.L#u#v#w#x.H.I.J.K#y.MQt#.#z#A#B.H.I.J.K#C#D#E#.#.#F#G#B.H.I.J.K.L.M.#",
".P.Q#H#I#J#K#L.e.f#M#N#H#I#O#P#Q.d.e.f#R#S.Q#H#T#U#V.e.f#W#X#.#Y#Z#0#1.e.f#2#3Qt",
"#a.5#4#5#6#7.o.p.q.r#8#9#5a.a#aa.o.p.q.rabac#4adae.o.p.q.r.safagahai.o.p.q.rajak",
"#t#ialamanao.y.z.A.B.Capamaqaras.y.z.A.B.Catalau#q.y.z.A.B.C.Davawax.y.z.A.B.C.D",
"#zayazaAaBaC.H.I.J.KaDaEaFaGaH.G.H.I.J.K.LaIazaJaK.H.I.J.K#C.MQtaLaM.H.I.J.K.L.M",
"QtaNaO#.aP.P.Q#H#I#OaQaRQt.##Y.P.Q#H#I#OaQaR#..2.P.Q#H#I#OaQaSQt.2aT.Q#H#I#OaQaR",
"QtaU#.aVaW#a.5#4#5a.aXaYQtQtaZ#a.5#4#5a.aXa0Qt###a.5#4#5a.aXa1#.aZ#a.5#4#5a.aXa1",
".ba2a3.e.fa4a5alama6a7a8.e.fa9b.#ialama6b#a8.e.fbaa5alama6a7a8.e.fa4a5alamaqbbbc",
"bdbe.o.p.q.rbfbgaFbhbi.o.p.q.r.vbjazaFbkbi.o.p.q.rblbgaFbkbm.o.p.q.rbfbgbnaGboQt",
"bpbq.y.z.A.B.C.DQt.Ebq.y.z.A.B.C.DQt#.br.x.y.z.A.B.C#lQt.E.x.y.z.A.B.Cbsbt#.buQt",
"bvbw.H.I.J.K.LbxQt.F.G.H.I.J.K#C.MQt.#by.G.H.I.J.K.L.M#..F.G.H.I.J.KbzbxbA#.bBQt",
"bCbD.Q#H#I#OaQbE#..2aT.Q#H#I#OaQaSQtQt.2bD.Q#H#I#OaQbFQt#Y.P.Q#H#I#OaQaR#.#.bt.#",
"bG#a.5#4#5a.aXa1Qt###a.5#4#5a.aXa1#.QtaZ#a.5#4#5a.aXa1QtaZ#a.5#4#5a.aXa1bH#.bIQt",
"bJbK#ialbLbMbN.e.fbObP#ialbLbMbN.e.fbQbR#t#ibSbTbU.e.f.gbR#t#ialbLbMbN.e.fbQbVQt",
".#bWbXazbYbZ.o.p.q.r.sb0azb1bZ.o.p.q.rb2b3ayb4b5.o.p.q.r.sb6ayazb7#c.o.p.q.r.s.t",
".#b8#E#.b9.x.y.z.A.B.C.D#..E.x.y.z.A.B.C#lQt.E.x.y.z.A.B.C.DQt.ab9#g.y.z.A.B.C.D",
"QtQtbI#.c.bw.H.I.J.K.L.MQtby.G.H.I.J.K.L.M#..Fc#.H.I.J.K.LbxQtQt.Fbw.H.I.J.K.Lca",
"QtQtQtcb#Ycc.Q#H#I#OaQbEQt.2bD.Q#H#I#OaQaRQt#Y.P.Q#H#I#OaQaR#.Qtcdce.Q#H#I#OaQaR",
"QtQtQtQtcf#a.5#4#5a.aXaYQtaZ#a.5#4#5a.aXa1QtaZ#a.5#4#5a.aXa1cgcb###a.5#4#5a.aXa0",
"QtQt.aQtbJch#ialamaqbbci#.cj#t#ialamaqbbckQtbJ#t#ialamaqclcmcn#.cocp#ialamaqbbci",
"QtQtQtQtQt#zcqazcraGcsctbA#.#zayazcrcucvQt#.Qt#zayazcwcxcs#.#.ctcy#zayazaFcucvQt",
"Qt.aQtQtQtQtQtQtcycz#E#.#.#.cAcBbucC#.cDbAbu#.bHcE#.#.#.#.cFcDQtQt.aQtQtQtQtQtQt",
"QtQtQtQtQt.aQtQt.#.#cgbIcBcn#.#.#.#.#.#.#.#.#.#.#.cGctaUcHQtQtQtQtQtQtQtQt.aQtQt",
"QtQtQtQtQtQtQt.a.#.#QtQtQtQt.UcIbubucbctcJbubucKcL.#QtQtQtQtQtQtQtQtQtQtQtQtQt.a",
"QtQtQtQtQtQtQtQtQtQtQtQtQtQtQt.#QtQtQtQtQtQtQtQtQtQtQtQtQtQtQt.#QtQtQtQtQtQtQtQt",
"QtQt.#.#QtQtQtQtQtQtQtQtQtQtQtQtQtQt.#.#QtQtQtQtQtQtQtQtQtQtQtQtQtQt.#.#QtQtQtQt",
"QtQt.#.#QtQtQtQtQtQtQtQtQtQtQt.aQtQt.#.#QtQtQtQtQtQtQtQtQtQtQt.aQtQt.#.#QtQtQtQt"};
