/* XPM */
static char *dummy[]={
"40 40 218 2",
".j c #000000",
".a c #00a15e",
"ax c #00a972",
"bs c #00c4b2",
"bm c #00d6da",
"bi c #00d8df",
".E c #00e5ff",
"#f c #01c7be",
"#t c #01e0f9",
"#g c #01e3f9",
"ay c #02dbf4",
"aT c #03e1f5",
"#9 c #04def1",
"bj c #05985a",
"aK c #05d5ed",
"bh c #06dced",
"b# c #098a54",
"bb c #09c0d4",
".F c #09d0e4",
"ab c #09d9e5",
"bq c #0ad7e1",
".S c #0cd5dc",
"bo c #0cdcf1",
"ai c #0ed2d8",
"#7 c #0fb7c2",
"aC c #0fc0d4",
"aS c #0fd0d4",
"an c #12cdcc",
"ac c #14cbc8",
"a8 c #157e52",
"am c #15c8c4",
".U c #17c6bf",
"br c #18c5bc",
"bt c #19d6e4",
"bu c #1ac3b8",
"ah c #1cc1b3",
"#8 c #1dbeaf",
"bw c #1fbdac",
"ao c #22b9a3",
"ad c #23b79f",
"bd c #25b69b",
".s c #26b59a",
"bn c #27b396",
"ag c #28b193",
".3 c #2aa4a9",
"#q c #2aab8b",
"af c #2aaf8e",
"a4 c #2accd3",
"al c #2b835e",
"#h c #2ba7b6",
".V c #2bae8a",
"bg c #2d7077",
".Q c #2dac86",
"#u c #2ea57f",
"bv c #2ea982",
"aa c #30a77e",
"aP c #318e6a",
"aZ c #31a076",
"ap c #31a277",
"#X c #31a579",
"bk c #32747b",
".5 c #329992",
"#Y c #329c74",
"#d c #32a378",
".i c #32a579",
"Qt c #32a67a",
".u c #33a67a",
"bx c #33c7cb",
"#s c #34926e",
"#c c #349c9c",
"aJ c #358164",
"#O c #35906d",
".H c #359970",
"aV c #363329",
"#Z c #366f70",
"#P c #3b5e51",
"aL c #406357",
"bp c #40bfbe",
"#F c #424444",
"#y c #434545",
"#M c #444746",
"#1 c #446969",
"#5 c #446e6f",
".h c #45805e",
".W c #458261",
"#e c #46856e",
"bl c #49bab4",
".O c #4b4b48",
"b. c #4b655d",
"#k c #4c4d45",
"ak c #4d8a90",
".r c #4db9b1",
".Z c #4e5154",
"#b c #4e888d",
".K c #505457",
".X c #51524c",
"aF c #516868",
"#o c #525249",
"a9 c #53b4aa",
"a5 c #544f3d",
".1 c #545251",
".D c #547d58",
".G c #549085",
".b c #559a75",
"#L c #565958",
"aN c #566662",
"#W c #566965",
"a7 c #576863",
".N c #595e61",
"#N c #59887a",
"aq c #5a766b",
"aj c #5a7a6e",
"#v c #5a7b79",
"aU c #5a7f82",
"a. c #5a8b7e",
"aI c #5d6866",
"#E c #5e5f53",
"aY c #5e6758",
"a1 c #5f594b",
"#j c #5f625d",
"#z c #5f6262",
"aQ c #5f9b90",
".v c #5fa677",
"#n c #606462",
"#H c #616665",
"#r c #61766f",
".4 c #618471",
"#x c #626766",
"#G c #62695f",
".w c #627e60",
".6 c #62887d",
".T c #629686",
".0 c #63676c",
"aG c #637459",
"#6 c #637b7d",
"a3 c #63ab9a",
"#a c #64645b",
"#K c #64675b",
"be c #64a391",
".R c #66917b",
"aO c #677673",
"ba c #67795b",
".P c #677c5c",
".# c #67aa97",
"#A c #686d6d",
"#i c #687773",
".2 c #687e60",
"#4 c #696c57",
"ae c #697d5e",
"a0 c #6a7773",
"bf c #6a7a7b",
"a2 c #6b6d66",
".8 c #6b7071",
"#B c #6c6a60",
"aR c #6d6b55",
"aw c #6d6f65",
"## c #6d7377",
"#w c #6d7775",
"a6 c #6d7c6c",
".I c #6d8869",
"#0 c #6e7475",
"#3 c #707261",
"#V c #707474",
"#2 c #71705e",
"#p c #717878",
".t c #71b094",
"#m c #72787a",
"aD c #737774",
".Y c #73787d",
"aM c #747661",
"bc c #767e65",
"#I c #77776d",
".7 c #77786e",
".k c #77a885",
"#R c #797f7f",
"at c #7c7e74",
"ar c #7d7e75",
".A c #7d8387",
"a# c #7d8a72",
"#l c #7f8588",
".J c #807d6f",
"aB c #808687",
"aE c #817e6d",
".C c #818381",
".M c #82888d",
"#Q c #838889",
"#. c #83888f",
"aH c #8f8c7b",
"az c #908d7e",
".B c #91979e",
".y c #92989f",
".x c #949082",
"aX c #969781",
".g c #98957c",
"av c #99927a",
"#D c #9b937c",
"aA c #9c998b",
"au c #9d9582",
"#S c #9da5a7",
"#U c #9da5a8",
"aW c #a0c6b9",
".L c #a1a6ae",
".9 c #a4a9b2",
".c c #a9bfa1",
"#T c #aaa89a",
"#C c #aea794",
"#J c #b3ab98",
"as c #b5ae9b",
".z c #babfc9",
".p c #bbb3a1",
".o c #bfc0bb",
".l c #c5baa1",
".q c #c8bca2",
".n c #cecdc6",
".m c #d9d1bf",
".d c #dcd2b9",
".f c #dfd5bc",
".e c #f6ebd3",
"QtQtQtQtQtQtQtQtQtQtQtQtQtQtQtQtQtQtQtQtQtQtQtQtQtQtQtQtQtQtQt.#QtQt.aQtQtQtQtQt",
"QtQtQtQt.aQtQtQtQtQtQtQt.aQtQtQtQtQtQtQt.aQtQtQtQtQtQtQt.aQtQtQtQtQtQtQtQtQtQtQt",
"Qt.aQtQtQtQtQtQtQt.aQtQtQt.#QtQtQt.aQtQtQtQtQtQtQt.aQtQtQt.#QtQtQt.aQtQtQtQtQtQt",
"QtQtQtQtQt.aQtQt.#.#QtQtQtQtQtQtQtQtQtQtQt.aQtQt.#.#QtQtQtQtQtQtQtQtQtQtQt.aQtQt",
"QtQtQtQtQtQtQt.a.#.#QtQtQtQtQtQtQtQtQtQtQtQtQt.a.#.#QtQtQtQtQtQtQtQtQtQtQtQtQt.a",
"QtQtQtQtQtQtQtQtQtQtQtQtQtQtQt.#QtQtQtQtQtQtQtQtQtQtQtQtQtQtQt.#QtQtQtQtQtQtQtQt",
".b.c.d.e.f.g.h.i.jQt.b.c.d.e.f.g.h.j.#.#Qt.b.c.d.e.f.g.h.jQtQt.b.c.d.e.f.g.h.iQt",
".k.l.m.n.o.p.q.j.j.j.k.l.m.n.o.p.j.j.j.r.s.t.l.m.n.o.p.j.j.j.u.v.l.m.n.o.p.q.jQt",
".w.x.y.z.A.B.C.j.j.j.D.x.y.z.A.B.j.j.j.E.F.G.x.y.z.A.B.j.j.j.H.w.x.y.z.A.B.j.j.j",
".I.J.K.L.M.N.O.P.j.Q.R.J.K.L.M.N.O.j.S.S.S.T.J.K.L.M.N.O.j.U.V.I.J.K.L.M.N.j.j.j",
".W.X.Y.Z.K.0.1.2.j.E.3.X.Y.Z.K.0.1.j.EQtQt.4.X.Y.Z.K.0.1.j.E.E.5.X.Y.Z.K.0.1.jQt",
".6.7.8.9#.###a#b.j.E#c.7.8.9#.###a.j#d.EQt#e.7.8.9#.###a.j#f#g#h.7.8.9#.###a.j#d",
"#i#j#k#l#m#n#o#p.j#q#r#j#k#l#m#n#o.j#sQt#t#r#j#k#l#m#n#o.j#s#u#v#j#k#l#m#n#o.j#s",
"#w#x#y#z#A#B#C.d.e.f#D#E#F.j#A#B#C.d.e.f.g#G#H.j#z#I#J.d.e.f.g#K#H.j#z#A#L#M.j#N",
"#O#P#Q#R#S.x.l.m.n.o.p.q.j.j.j.x.l.m.n.o.p.q.j.j.j#T.l.m.n.o.p.q.j.j.j#U#V#W.j#X",
"Qt#Y#Z#0#1#2.x.y.z.A.B.C.j.j.j#3.x.y.z.A.B.C.j.j.j#4.x.y.z.A.B.C.j.j.j#5#6#7.j.a",
"Qt#8.E#9.E.I.J.K.L.M.N.Oa..jQta#.J.K.L.M.N.O.P.j.E.I.J.K.L.M.N.Oa..j.aaaab.EacQt",
"aa#9.EadQt.3.X.Y.Z.K.0.1ae.jQt.W.X.Y.Z.K.0.1ae.jQt.3.X.Y.Z.K.0.1ae.jQtQtaf#g.Eag",
"ah.EaiQtQt#e.7.8.9#.###aaj.j.E#e.j.8.9#.###aak.jQtal.7.8.9#..j#aaj.j.EQtQtam.Ean",
"ab.Eao.Eapaq#j#k#laras.d.e.f.g.j.j.j#l#m#n#oatau.d.e.favaw.j.j.j#p.jQt.EQtax.E#g",
".E#gaaQtay#w#x#y#zaz.l.m.n.o.p.j.j.j#z#A#L#MaA.l.m.n.o.p.q.j.j.jaB.jQtQt.EQtab.E",
".E.SQtQtQtaC#P#QaDaE.x.y.z.A.B.C.j#Q#R#U#VaFaG.x.y.z.A.B.CaH.jaIaJ.jQtQtQt.Eam.E",
".Ean.E.#QtQtaKaL#0aM.J.K.L.M.N.O.jaL#0aNaOaPaQ.J.K.L.M.N.OaR.jaPQtQt.E.#QtQt.E.E",
".Ean.#.EQtQtQt.EQt.W.X.Y.Z.K.0.1.jQt.#.EQtQt.W.X.j.Z.K.0.1ae.j.EQtQt.#.EQtQt#8.E",
".EaSQtQt.E.aQt.#.E#e.7.8.9#.###a.j#dQtQt.E.a#e.j.j.j#.###aaj.jQt.EQtQtQt.E.a.U.E",
".EaTQtQtQt.EQtQtapaU#j#k#l#m#n#oaVaW.d.e.faXaY.j.j.j#m#n#o#p.jQtQt.EQtQtQt.Eai.E",
"#9.E.EQtQt.#.EQtaZa0#x#y#z#A#L#Ma1.l.m.n.o.p.qa2.j#z#A#L#MaB.jQtQt.a.EQtQta3#g.E",
"a4.Eam.EQtQtQt.EQt#O#P#Q#R#U#VaFa5.x.y.z.A.B.Ca6.j#R#U#Va7a8.j.E.#.#Qt.EQtah.E.S",
"a9.E#g.V.EQtQtQt.EQt#YaL#0b.aOb#aQ.J.K.L.M.N.Oba.j#0b.aObbQt.j.a.E.#QtQt.E#9.Eao",
"Qtan.E.SQt.EQt.#Qt.EQtQtQt.EQtQt.W.X.Y.Z.K.0.1bc.j.EQtQtQt.EQtQtQt.EQtQtan.Eab.#",
"Qt.Q#9.EanQt.EQtQtQt.E.#QtQt.EQt#e.7.8.9#.###aaj.jQt.E.#QtQt.EQtQtQt.E#8.E#gagQt",
"QtQtbd#g.EaSaa.EQtQt.#.EQtQtQt#t#r#j#k#l#m#n#o#p.jQt.#.EQtQtQt.EQtQtah.E.E#8Qt.a",
"QtQt.aad#g.E.S.Q.EQtQtQt.E.aQtbebf#x#y#z#A#L#MaB.jQtQtQt.E.aQt.#.E.U.E.EahQtQtQt",
"QtQtQtQtag#9.EaT#8.EQtQtQt.EQtQt#Obg#Q#R#U#Va7aJ.j.EQtQtQt.EQtadbh.E#gaoQtQtQtQt",
"Qt.aQtQtQt.Qai.E.Ebi.EaaQt.#.EQtQtbjbk#0b.aObbQt.j.a.EQtQtblai.E.EbmbnQtQtQtQtQt",
"QtQtQtQtQt.aQtadbo.E.E#9ambdaa.EQtQtQt.EQt.aQt.E.#.#bn.Ebh.E.EaT#8QtQtQtQt.aQtQt",
"QtQtQtQtQtQtQt.aa3bpbq.E.E.E.Eabambrbrbr.Ebrbrbsbt.E.E.E.EbhbubvQtQtQtQtQtQtQt.a",
"QtQtQtQtQtQtQtQtQtQtQtbnam.S.E.E.E.E.E.E.E.E.E.E.E.EabacadQtQt.#QtQtQtQtQtQtQtQt",
"QtQt.#.#QtQtQtQtQtQtQtQtQtQtQtbnbwbrbxbxbrbrbr#8bdaaQtQtQtQtQtQtQtQt.#.#QtQtQtQt",
"QtQt.#.#QtQtQtQtQtQtQtQtQtQtQt.aQtQt.#.#QtQtQtQtQtQtQtQtQtQtQt.aQtQt.#.#QtQtQtQt"};
