/* XPM */
static char *dummy[]={
"40 40 657 2",
"hE c #32a67a",
"he c #332810",
"hc c #362a11",
"hf c #382c13",
"hd c #392d14",
"hb c #3a2e14",
"gq c #402641",
"hG c #41300f",
"gp c #432c35",
"f5 c #452f30",
"fw c #49314a",
"fX c #493332",
"hg c #4c3914",
"h3 c #4d3a14",
"f2 c #4e0563",
"fd c #500665",
"fM c #503e23",
"go c #523e2c",
"fT c #540f68",
"hn c #543e13",
"hi c #543e14",
"fm c #550a6c",
"cL c #550a70",
"hz c #553e14",
"hu c #553f14",
"hl c #553f15",
"f1 c #560b6f",
"c3 c #560b71",
"ez c #560b72",
"hp c #563f14",
"hw c #564015",
"d2 c #570b73",
"hs c #574015",
"hq c #574016",
"hC c #574216",
"ht c #574217",
"cK c #580c72",
"dJ c #580d73",
"hk c #584015",
"hA c #584016",
"hB c #584115",
"hx c #584116",
"hj c #584216",
"dQ c #590c75",
"d9 c #590d75",
"hD c #594116",
"hr c #594217",
"ho c #594318",
"eQ c #5a0d76",
"hv c #5a4217",
"hy c #5a4418",
"e. c #5b0d77",
"hh c #5b4317",
"fj c #5b4753",
"eX c #5b494c",
"fz c #5c0e74",
"hI c #5c4212",
"hL c #5c4313",
"hS c #5c4414",
"hm c #5c4418",
"h2 c #5d4312",
"hX c #5d4413",
"hV c #5d4414",
"h1 c #5d4415",
"hN c #5d4515",
"cW c #5e0e7d",
"hP c #5e4413",
"h0 c #5e4515",
"hH c #5f4412",
"hQ c #5f4513",
"hY c #5f4514",
"fe c #600f7c",
"hW c #604412",
"hU c #604413",
"hR c #604512",
"hM c #604513",
"cU c #604f5d",
"fn c #610f7d",
"hO c #614513",
"hT c #614614",
"hJ c #614715",
"fA c #62107f",
"fU c #62117d",
"cJ c #621a79",
"hZ c #624513",
"hK c #624514",
"c2 c #625060",
"ew c #62515b",
"e9 c #63107f",
"eR c #631180",
"cz c #631481",
"fy c #632375",
"dm c #635161",
"fV c #641081",
"cH c #645258",
"dH c #645262",
"fP c #651183",
"d3 c #651286",
"gr c #665766",
"b8 c #671486",
"hF c #67aa97",
"c4 c #68138b",
"f6 c #685867",
"bK c #6a138c",
"h8 c #6a4f19",
"fN c #6a5d69",
"eb c #6b168d",
"ij c #6b501a",
"fQ c #6b5230",
"f. c #6c158f",
"h5 c #6c5019",
"ig c #6c511a",
"id c #6c511b",
"e0 c #6d158e",
"ia c #6d5019",
"in c #6d511b",
"i. c #6d531c",
"im c #6e5119",
"ih c #6e511a",
"ib c #6e521a",
"ik c #6e531c",
"bq c #6e5a5c",
"e6 c #6e5f6c",
"e8 c #6f2888",
"ii c #6f531b",
"eA c #701694",
"ff c #701695",
"dR c #701797",
"io c #705219",
"h4 c #70521a",
"h9 c #70531a",
"eB c #711794",
"e2 c #711795",
"d5 c #711796",
"if c #71521a",
"ic c #71531a",
"il c #71541a",
"ie c #71541b",
"h6 c #71551c",
"e1 c #721798",
"fo c #72179b",
"ea c #721897",
"i# c #72531a",
"fW c #73179b",
"e3 c #73189a",
"h7 c #73541b",
"dL c #741899",
"dT c #74199b",
"f0 c #743c87",
"eS c #75199c",
"d4 c #75199d",
"do c #76189f",
"fg c #76199e",
"bG c #766261",
"by c #766267",
"dU c #7818a1",
"dK c #7819a2",
"dS c #781aa1",
"br c #78666b",
"ec c #7918a5",
"f# c #7919a2",
"ey c #793d8f",
"bF c #796356",
"eO c #796c77",
"fh c #7a19a3",
"bL c #7b14ac",
"e# c #7b1aa4",
"fB c #7d19ab",
"c5 c #7d1ba9",
"cX c #7e1bab",
"eZ c #7e4e90",
"bE c #7f6953",
"cu c #7f7079",
"dp c #801baf",
"fa c #811ab0",
"fi c #811ab1",
"d6 c #811ab2",
"cM c #8217b5",
"fR c #827d83",
"cA c #8316b5",
"cy c #835094",
"b9 c #8517ba",
"b2 c #866f58",
"eT c #8719bc",
"bx c #876d4d",
"dV c #881ac1",
"dM c #8a19c2",
"dq c #8b19c3",
"c6 c #8b1ac2",
"e4 c #8c19c3",
"ed c #8c19c5",
".C c #8c6f2c",
"eC c #8d19c7",
"cB c #8d1ac9",
".H c #8d712e",
"fY c #8d888d",
"d7 c #8e1ac8",
"dN c #8e1aca",
"dW c #8e1acb",
".K c #8e702c",
".N c #8e702d",
".R c #8e712e",
".t c #8e722e",
".F c #8e722f",
"ee c #8f1acc",
".x c #8f702c",
".G c #8f712c",
".q c #8f712d",
".O c #8f712e",
".o c #8f722e",
".y c #8f732f",
"cN c #901acc",
"cE c #901bcf",
".s c #90722e",
".Q c #90732e",
".B c #90732f",
".w c #907330",
"c# c #911acd",
".L c #91722d",
".J c #91732e",
".v c #91742f",
".A c #917430",
".z c #92732e",
".D c #92742f",
".M c #927530",
"bs c #928287",
"cD c #931bd0",
"c7 c #931bd1",
"dX c #931bd2",
".u c #937430",
".E c #937631",
"fS c #939099",
"dO c #941bd6",
".I c #947630",
".P c #947631",
".p c #947731",
".r c #947732",
"c. c #951bd2",
"cR c #951bd4",
".n c #957832",
"dY c #961bd6",
"cC c #961cd7",
"c9 c #961cd8",
"fb c #969196",
"c0 c #981cd9",
"cY c #981cda",
"cP c #981ddb",
"b3 c #988f92",
"cO c #991cdb",
"c8 c #991ddc",
"f7 c #999b9c",
"f9 c #999c9e",
"cZ c #9a1ddd",
"gt c #9a7b35",
"gs c #9a7c36",
"eY c #9a979a",
"cQ c #9b1dde",
"gz c #9b7b34",
"#t c #9b7c35",
"#d c #9b7d35",
"cx c #9c77a7",
"gw c #9c7c35",
"gx c #9c7c36",
"#A c #9c7d34",
"#f c #9c7d35",
"#h c #9c7d36",
"#m c #9c7d37",
"#c c #9c7e37",
"#B c #9d7c35",
"#o c #9d7d35",
"gA c #9d7d36",
"#k c #9d7e37",
"#x c #9d7f37",
"#w c #9e7d35",
"gD c #9e7d37",
"#j c #9e7e35",
"#q c #9e7e36",
"gC c #9e7e37",
"#r c #9e7f38",
"#C c #9e8038",
"cn c #9f7f36",
"#y c #9f7f37",
"dB c #9f7f38",
"fH c #9f8036",
"#D c #9f8037",
"#p c #9f8038",
"#v c #9f8138",
"#i c #9f8139",
"gE c #a07f37",
"#l c #a08038",
"dt c #a08039",
"#s c #a08137",
"cb c #a08138",
"#n c #a08139",
"dr c #a0813a",
"cm c #a08238",
"#z c #a08239",
"bp c #a08445",
"ch c #a18036",
"dx c #a18038",
"fE c #a18136",
"cc c #a18137",
"#e c #a18138",
"#g c #a18139",
"dC c #a1813a",
"fC c #a18238",
"cp c #a18239",
"dw c #a1823a",
"cf c #a18339",
"dz c #a1833b",
"dG c #a1833c",
"fx c #a1a6a5",
"ce c #a28137",
"dE c #a28138",
"dy c #a28139",
"cq c #a28237",
"cj c #a28238",
"#u c #a28239",
"gB c #a2823a",
"cr c #a28339",
"fJ c #a28439",
"ck c #a2843a",
"bD c #a28542",
"fG c #a38238",
"gu c #a3823a",
"gy c #a3833b",
"eD c #a3833d",
"ca c #a3843a",
"dv c #a3843b",
"dD c #a3843c",
"eE c #a3843d",
"cl c #a3853a",
"ct c #a3853c",
"ci c #a3863a",
"dF c #a4833b",
"cs c #a48439",
"dA c #a4843a",
"ds c #a4843b",
"eN c #a4843c",
"eM c #a4843d",
"be c #a48539",
"ag c #a4853a",
"fL c #a4853b",
"du c #a4853c",
"fF c #a4863a",
"cd c #a4863b",
"fl c #a48caf",
"e7 c #a4a5a6",
"gv c #a5843b",
"bn c #a5853a",
"eK c #a5853c",
"eF c #a5853d",
"eJ c #a5853e",
"#V c #a5863a",
"fD c #a5863b",
"ba c #a5863c",
"aR c #a5863f",
"fI c #a5873b",
"cg c #a5873c",
"fK c #a5883c",
"cG c #a58842",
"bh c #a68539",
"eG c #a6853d",
"bb c #a68639",
"at c #a6863a",
"eI c #a6863e",
"aS c #a6863f",
"bj c #a6873a",
"b# c #a6873b",
"bf c #a6873c",
"#6 c #a6883b",
"aq c #a6883c",
"#J c #a6883d",
"cT c #a68841",
"fO c #a6abab",
"am c #a7863a",
"eL c #a7863e",
"#0 c #a7873a",
"#H c #a7873b",
"co c #a7873c",
"a3 c #a7873e",
"eH c #a7873f",
"#F c #a7883b",
"af c #a7883c",
"#9 c #a7883d",
"dZ c #a7883e",
"cF c #a7893c",
"#X c #a7893d",
"bd c #a7893e",
"#P c #a8873a",
"bc c #a8873b",
"aU c #a8873f",
"a7 c #a88740",
"bl c #a8883a",
"#U c #a8883c",
"a9 c #a8883f",
"aW c #a88840",
"au c #a8893c",
"#M c #a8893d",
"aj c #a8893e",
"a5 c #a88940",
"#Y c #a88a3d",
"aa c #a88a3e",
"#S c #a88a3f",
"ex c #a8a8a9",
"#L c #a9883a",
"ac c #a9883b",
"aX c #a9883f",
"b. c #a98840",
"a# c #a9893b",
"a1 c #a98940",
"a8 c #a98941",
"bo c #a98a3c",
"#2 c #a98a3d",
"bv c #a98a3e",
"a0 c #a98a41",
"eW c #a98b3d",
"#T c #a98b3e",
"ae c #a98b3f",
"d0 c #a98c40",
"fk c #a9acac",
"#R c #aa883b",
"#5 c #aa893b",
"bg c #aa893d",
"aY c #aa8940",
"a6 c #aa8941",
"bi c #aa8a3c",
"aH c #aa8a3d",
"aT c #aa8a41",
"f4 c #aa8b3c",
"f3 c #aa8b3d",
"ap c #aa8b3e",
"#1 c #aa8b3f",
"aZ c #aa8b42",
"bC c #aa8c3e",
"#Q c #aa8c3f",
"ad c #aa8c40",
"eV c #aa8d3f",
"c1 c #aa8d40",
"eP c #aaaaac",
"fc c #aaaaae",
"aC c #ab8a3d",
"a2 c #ab8a40",
"aV c #ab8a41",
"#Z c #ab8b3d",
"bw c #ab8b3e",
"a4 c #ab8b42",
"#3 c #ab8c3d",
"bk c #ab8c3e",
"#E c #ab8c3f",
"eg c #ab8c40",
"aM c #ab8c41",
"ab c #ab8d3f",
"a. c #ab8d40",
"e5 c #ab8e3f",
"ak c #ab8e40",
"bH c #aba1a3",
"ai c #ac8b3e",
"#N c #ac8c3e",
"aO c #ac8c3f",
"aA c #ac8c41",
"an c #ac8d3e",
"#4 c #ac8d3f",
"#K c #ac8d40",
"aJ c #ac8d41",
"eu c #ac8d42",
"#O c #ac8e40",
"eU c #ac8e41",
"aF c #ac8e42",
"ev c #ac8e44",
"f8 c #acb2b0",
"ay c #ad8c3d",
"aK c #ad8c3e",
"#G c #ad8d3e",
"ei c #ad8d3f",
"bm c #ad8e3e",
"#I c #ad8e40",
"ek c #ad8e41",
"en c #ad8e42",
"al c #ad8f40",
"bu c #ad8f41",
"aQ c #ad9042",
"fZ c #adb3b1",
"aE c #ae8d3e",
"em c #ae8d3f",
"ar c #ae8e3e",
"#7 c #ae8e3f",
"ao c #ae8e40",
"#W c #ae8e41",
"et c #ae8e42",
"as c #ae8f40",
"#8 c #ae8f41",
"aD c #ae8f42",
"eq c #ae8f43",
"ax c #ae9043",
"bt c #af8e3f",
"ep c #af8e40",
"aL c #af8e41",
"gU c #af8e43",
"fq c #af8e45",
"aN c #af8f40",
"az c #af8f41",
"d# c #af8f44",
"bN c #af8f45",
"fp c #af8f46",
"cS c #af9041",
"er c #af9043",
"fv c #af9046",
"aB c #af9143",
"el c #af9144",
"cw c #af99b3",
"ah c #b09041",
"aP c #b09042",
"dh c #b09044",
"fu c #b09045",
"av c #b09143",
"eo c #b09244",
"gP c #b18e42",
"aG c #b19041",
"aw c #b19042",
"de c #b19043",
"b0 c #b19045",
"bZ c #b19046",
"aI c #b19143",
"bM c #b19146",
"ft c #b19147",
"ef c #b19243",
"ej c #b19244",
"dl c #b19248",
"g3 c #b28f43",
"bP c #b29045",
"eh c #b29142",
"da c #b29144",
"bT c #b29145",
"bR c #b29146",
"bU c #b29147",
"es c #b29244",
"db c #b29245",
"bY c #b29247",
"dk c #b29346",
"g5 c #b39045",
"dc c #b39144",
"b1 c #b39145",
"bX c #b39146",
"di c #b39246",
"fs c #b39247",
"fr c #b39248",
"gn c #b39346",
".T c #b39347",
"bS c #b39348",
"dg c #b49244",
"h. c #b49246",
"bV c #b49247",
".1 c #b49346",
".6 c #b49347",
"bQ c #b49348",
"df c #b49447",
"dj c #b49448",
"bW c #b49449",
"d. c #b49547",
"gY c #b59144",
"gG c #b59244",
"gL c #b59245",
"gJ c #b59246",
".3 c #b59346",
"bO c #b59347",
".X c #b59446",
".V c #b59447",
".7 c #b59547",
".5 c #b59548",
"dd c #b59648",
"ha c #b69245",
"g1 c #b69346",
".m c #b69447",
".f c #b69448",
".8 c #b69546",
".Z c #b69547",
".0 c #b69648",
"## c #b69649",
"gN c #b79346",
".k c #b79448",
".4 c #b79547",
".g c #b79548",
"gf c #b79647",
"#a c #b79649",
".S c #b79749",
".Y c #b7974a",
"gS c #b89447",
".b c #b89548",
".e c #b89549",
".i c #b89648",
".j c #b89649",
"gc c #b89748",
".d c #b89749",
"#b c #b8974a",
".W c #b8984a",
".2 c #b8984b",
"gW c #b99548",
".h c #b99649",
"gj c #b99748",
".l c #b99749",
".U c #b99849",
"gi c #b9984a",
"#. c #b9994a",
".9 c #b9994b",
".c c #ba9749",
".a c #ba974a",
"gk c #ba994a",
"gm c #ba994b",
"gg c #ba9a4b",
"gb c #ba9a4c",
"g8 c #bb9748",
"gZ c #bb9849",
"gd c #bb994a",
"ga c #bb9b4c",
"ge c #bb9b4d",
"gh c #bc9a4b",
"g# c #bc9b4b",
"g. c #bc9c4c",
"gl c #bc9c4d",
"g9 c #be9a4a",
".# c #be9a4e",
"Qt c #be9b4f",
"gF c #bf9c4b",
"gQ c #c09a4a",
"g0 c #c09c4d",
"gT c #c19c4c",
"g7 c #c19c4d",
"g6 c #c29d4c",
"gM c #c29d4e",
"gR c #c39e4f",
"g4 c #c5a050",
"h# c #c6a150",
"gK c #c7a150",
"gX c #c7a251",
"gH c #c9a454",
"gI c #caa351",
"gV c #caa452",
"gO c #cba554",
"g2 c #cca654",
"bJ c #ccc0d2",
"b7 c #ccc9ce",
"b4 c #d7d3d3",
"d1 c #dfd7df",
"bB c #e0dadf",
"cv c #e0dce0",
"d8 c #e2dee1",
"cI c #e8e3e8",
"dn c #eae3eb",
"dI c #eae4eb",
"bz c #eae8e9",
"dP c #ece5ec",
"cV c #ede7ed",
"bA c #eff8f0",
"bI c #f8f9f8",
"b6 c #fefffd",
"b5 c #ffffff",
"Qt.#.a.b.c.d.e.f.g.h.i.j.k.g.h.h.h.g.k.b.l.j.e.m.k.h.i.j.k.g.j.l.j.g.f.b.l.d.e.f",
".n.o.p.q.r.s.t.q.t.u.v.w.x.y.z.A.B.C.D.q.E.v.F.G.H.I.J.B.K.A.L.M.B.N.B.O.P.Q.R.L",
".S.T.U.V.W.X.Y.Z.0.d.1.2.3.Y.4.5.S.6.U.1.W.7.Y.8.0.i.6.9.3#..V###a.5.d.Z#b.V.Y.4",
"#c#d#e#f#g#h#i#j#k#l#m#n#o#p#q#r#p#h#s#t#u#k#v#w#x#y#m#z#A#n#B#p#C#k#D#h#n#h#p#j",
"#E#F#G#H#I#J#K#L#M#N#J#O#P#Q#R#S#T#U#G#V#W#X#K#L#Y#Z#J#O#P#O#0#1#T#2#3#F#4#J#E#5",
"#E#6#7#0#8#9a.a##X#Naaa.#0abacadaeaf#7agah#Ma.a##Yaiajak#0alam#K#T#Man#0ao#X#Q#5",
"ab#6#7#H#I#Xa.ac#Yapaa#O#0aba#ae#Qaqar#Vas#Ma.a##T#Zaj#O#0alat#Eaeau#N#F#4#X#Q#5",
"av#1awaiav#Kaxay#KazaAaBaCaDaEaFaD#1aGaHaIaJaxaK#KaLaMaB#ZavaiaDaD#EaNaOaPaAaQaE",
"aRaSaTaUaVaWaTaXaWaYaWaZaUa0aXa1aTaUa2a3a4aWaTaXa5a6a7aZaUaTaUa8a8aWaYa9aVa9a5b.",
"apb##3at#Eba#Q#0afaCbaadbb#Tbcbdaab##Zbe#Kbf#Q#P#Xbgba#Ebbabbhaabd#Ubibjbkba#Tbl",
"ab#Fbm#0as#9a.#L#XaKbdak#P#Q#R#Qaeaf#Gbnaz#Mak#L#Yai#M#O#0#O#0ab#Tbo#3#Hbpbqbrbs",
"#4#6bt#Hbu#9a.a##Ybkbv#O#P#4a##1#Qaq#7bnaz#Ma.#5#2bwaj#O#0#8am#K#1auaKbxbybzbAbB",
"abb##Gbc#O#9ad#L#Mbwajak#0bC#5ae#1aqaK#V#I#Yad#L#Y#Z#Ma.#0#O#0bDbEbFbGbHbIbJbKbL",
"bMbNbObPbQbRbSbTbUbVbRbWbP.TbXbYbQbZbOb0bQbYbSb1bYbVbMbWb0bSb2b3b4b5b6b7b8b9c.c#",
"cacbatccb#cbcdcecfbn#ncgchcicjckclcm#Vcncocpcdcqcrcs#nct#kcucvcwcxcyczcAcBcCcDcE",
"#Eaf#G#H#I#9#KblcF#N#Jak#PbC#Raeaeaf#Gbn#8#X#Kac#Ybw#9cGcHcIcJcKcLcMcNcCcOcPcQcR",
"abb##7#0#8#9a.a##Y#Naaa.#Paba#ad#1af#7bncSaja.#5#YaiajcTcUcVcKcWcXcYcZc0cQcQcQcC",
"#Eb##G#H#O#9c1#L#M#Zaaa.#0#Ea#ae#1aq#G#V#I#Mc1ac#YaH#McTc2cVc3c4c5c6c7c8cQcQcQc9",
"d.d#.Zda.5dbd.dcdb.XbRdddedfdgbY.Vdh.8de.5didjdcdk.1bMdldmdncKdoc5dpdqc9cOcZcQc9",
"dr#pdsdtdu#ndv#edwdsdrdudxdvdydzdv#ndAdBbadCdDdEdwdFdrdGdHdIdJdKc5dLdMdNdOcQcQc9",
"#Eaf#G#F#I#J#K#L#Y#N#J#K#PbCacae#T#U#G#V#W#X#Kac#2bw#JaddHdPdQdRdSdTdUdVdWdXdYcC",
"#Eb##7#0#8#9a.ac#XaKaaak#Pabac#Qaeaf#7agcSbda.#5#2aidZd0dmd1d2d3dSd4d5d6dMd7dXcC",
"#4#6#7#H#I#9a.ac#Y#Zaaak#0#4a#ae#1af#7#V#8aja.a##2aHdZcTc2d8d9e.e#d4eaebecedeecC",
"efegeheiejekelemekaweneo#NaBepeqeregehbwesetelemekaPeuevewexeyezeAd4d4d5eBd6eCeC",
"eDeEaUeFaWeGeHeGeIaUeJa9eKeHeLaSeHeFaUeMaWeIeHeGeIeHeJaWeNeOePeQeReSd4dTeBeBeTeC",
"abaf#G#H#Iaq#Kac#Y#N#JeU#PeVac#S#1af#Gatao#X#KaceWbw#J#O#0eXeYeZcLe0e1d4e2e3e3e4",
"#E#F#G#0#8#9a.#L#XaKbdak#PbCac#1aeaf#Gbnaz#Xe5ac#Yaibd#O#0abe6e7e8e9f.d4d4d4f#fa",
"ab#6#7#0#8#Xa.a##2bkaa#O#P#4ac#Q#Qaf#7bn#8aja.#5#2#Zaj#O#0#8bjfbfcfdfefffgfhfifi",
"abb##Gbc#I#X#Q#L#M#Zaja.#0#Q#5ae#1bf#G#V#Iaac1#L#Y#Z#Mak#0#K#0fjfkflfmfnfofififi",
"fpfq.6b0bSbRfrbPbRfsbMbQbPfsbTftfrbZ.6fubSbUbSbTbUfsbZdjb0bQb0fvfwfxfyfzfAfBfifa",
"cdfCatccbfcmfDcqcfat#zbffEfFfGckclfCatfH#9cpfIcqfJbn#nfKfEbfccfLfMfNfOfdfefPfBfa",
"#E#F#G#H#I#9#Kbl#X#N#J#O#PbC#Rae#Taf#Gbn#8#X#4#L#Ybw#9#O#0#Oam#Q#TfQfRfSfTfUfVfW",
"abb##7#0az#9a.a##M#Nbvak#0abac#Qaeaf#7agah#Ma.#5#Yaiaj#O#0alam#K#T#FfXfYfZf0f1f2",
"abb##G#H#I#XeVac#Yapaaak#0#Eacaeaeaq#G#V#I#Mc1ac#2f3ajak#0#Oam#E#Tauf4f5f6f7f8f9",
"g.ddg#.iga.Wgbgc.Wgd#bgegfgg.c.2gg##gh.ggagigbgjgigk.Yglgfga.igmgg.dgdgngogpgqgr",
"gsgtgu#kgvgwdCgw#rgugxgygz#n#ldB#g#hdxgxgvgAdwgw#rgBgxgygzgBgCdx#lgDgE#kdF#h#g#B",
"gFgGgHb1gIgJgKgL.cgMgNgOgPgM.kgQgRgSgTgUgVgWgXgYgZg0g1g2g3g4g5g6g7g8g9h.gKgNh#ha",
"hbhchdhehfhghhhihjhkhlhmhnhohphqhrhshthuhvhwhhhuhxhkhlhmhnhyhzhAhrhBhChphDhlhhhz",
"hEhEhFhFhEhGhHhIhJhKhLhMhHhNhOhPhQhRhShThUhVhWhXhYhZhXhHhHh0hOhPhQhRh1hMhOhVhHh2",
"hEhEhFhFhEh3h4h5h6h7h8h9h4i.i#iaibicidieifigifihiih7ijh4h4ikilimibicinici#ijioib"};
