/* XPM */
static char *dummy[]={
"40 40 239 2",
".k c #00a15e",
"bp c #1e1d32",
"a7 c #1f1d37",
"bh c #1f1e39",
"b. c #22203c",
"a3 c #24223e",
"bR c #27253b",
"aZ c #272641",
"bN c #282640",
"aV c #282641",
".h c #29231d",
"bx c #292843",
".C c #2a251f",
".t c #2a2620",
"bk c #2a2842",
"bD c #2b2944",
"bf c #2c2c2c",
"bI c #2d2b45",
".S c #2f2c26",
"#4 c #302b25",
"#C c #302b26",
".K c #302c26",
"a8 c #303030",
".2 c #312d27",
"## c #312d28",
"aT c #312f48",
"aj c #322e2a",
"bl c #322f2a",
".i c #32a67a",
"#z c #333028",
"bu c #333333",
"bm c #343434",
"bi c #353535",
"#J c #36332c",
"bc c #36344a",
"aI c #363636",
".J c #37342a",
"aM c #373737",
"#. c #38342c",
".B c #38352b",
".L c #38352d",
"aR c #38354c",
"aU c #383838",
"#h c #39352e",
"aC c #393939",
"#s c #3a372f",
"aw c #3a3a3a",
"#F c #3b3930",
"ax c #3b3b3b",
"aO c #3c394e",
".s c #3c3a2f",
"al c #3c3c3c",
"#I c #3d3a32",
"aK c #3d3a4f",
"bq c #3d3b33",
"am c #3d3d3d",
"#H c #3e3c31",
".E c #3e3c33",
"#y c #3e3c34",
"ba c #3e3e3e",
".D c #3f3b33",
"#3 c #3f3c32",
"aP c #3f3f3f",
"bt c #403e34",
"bJ c #403f36",
"a4 c #404040",
"#j c #413d38",
"bz c #413e34",
"#A c #413e35",
".x c #413e36",
".Y c #414037",
"ab c #414141",
"#x c #424036",
"be c #424242",
"#Q c #434138",
"aa c #434343",
".u c #444138",
".w c #444239",
"#G c #464539",
"#8 c #473f50",
"af c #474251",
"aX c #47433d",
"#0 c #474442",
"b# c #48443b",
".g c #48453b",
"bQ c #484559",
"aG c #494655",
"av c #494949",
"#b c #4a463c",
".b c #4a483a",
"#R c #4a483e",
"#9 c #4b464d",
"aL c #4b4a41",
".1 c #4c4941",
"#p c #4c4b44",
".4 c #4d4a40",
"a1 c #4d4a43",
"bA c #4d4c43",
".a c #4e4c3e",
".F c #4e4c42",
"#N c #4e4d45",
"a6 c #4f4b5d",
"#t c #504e45",
".H c #504e46",
"#E c #504e47",
"ak c #505050",
"ai c #514d53",
"#w c #514f43",
"#1 c #514f48",
"#v c #515046",
"#V c #525047",
"bo c #525060",
"at c #534f61",
".n c #545247",
".y c #55534a",
".G c #55534c",
".W c #55544d",
"bB c #555555",
"#q c #56534e",
".# c #565449",
"aH c #56544a",
".X c #56554e",
"#l c #57554b",
"br c #575757",
"aB c #585465",
".r c #58564d",
"#B c #59574e",
".v c #59584e",
".V c #595851",
"#o c #595853",
"an c #595959",
".o c #5a5850",
"#Z c #5b5664",
"#U c #5b5952",
"aW c #5b5a51",
"#i c #5b5a55",
".c c #5c5a4f",
"#n c #5c5b51",
"aD c #5c5c5c",
"#r c #5d5b53",
".A c #5d5c52",
".m c #5e5c53",
"ag c #605d68",
"bv c #606060",
"bG c #616161",
"as c #625d6e",
".f c #625f57",
".e c #626057",
".R c #62605c",
"a. c #62615a",
"bd c #636157",
"a0 c #63625a",
".P c #64625c",
".z c #64635b",
"bn c #646464",
".l c #65635a",
"#c c #65645a",
"#k c #666459",
"bP c #666571",
"bs c #666671",
"#a c #67665b",
"bM c #676671",
".j c #67aa97",
"ah c #68656e",
"#K c #68665e",
".M c #686660",
"bE c #686762",
"a# c #696863",
".p c #6a6862",
"bw c #6a6973",
"#S c #6c6a64",
"#W c #6c6b60",
".5 c #6c6b63",
"bF c #6c6b65",
"#u c #6d6b62",
"#g c #6d6c68",
"bO c #6d6d67",
"au c #6d6d68",
".I c #6e6d65",
"by c #6f6e66",
"bC c #6f6e77",
"#2 c #706f67",
".7 c #71706a",
".d c #737169",
".O c #74736d",
"#f c #757571",
"bH c #76777d",
"#P c #77756f",
".3 c #77776c",
"Qt c #79776f",
"#T c #797870",
".6 c #797872",
"a9 c #797c77",
"ay c #797ea6",
"a5 c #797f8a",
".U c #7a7a77",
"#m c #7b7971",
"#O c #7b7a72",
".9 c #7b7b76",
"bb c #7b8285",
".Z c #7e7d77",
".T c #81807d",
"bj c #818884",
".q c #828179",
"#D c #84827d",
".N c #85837f",
"#Y c #858490",
".0 c #878680",
"a2 c #888694",
"bS c #888783",
"bL c #898a8e",
"#X c #8b8a94",
".8 c #8d8d8b",
"ae c #8e8c97",
"#M c #8e8d89",
"#e c #8f8e8b",
"#L c #91908d",
"bg c #959886",
".Q c #969693",
"#d c #979691",
"aF c #a3a4a0",
"bK c #a3a8a3",
"ao c #a5b3df",
"#7 c #acacb4",
"aY c #c5c6cd",
"aA c #c9c7ce",
"aE c #cacbda",
"aS c #cfcfd7",
"ac c #d0d2e1",
"aQ c #d1d0d7",
"#5 c #d2d3e2",
"ar c #d4d3d7",
"aN c #dcdce1",
"aJ c #e1e1e5",
"az c #f0f1f5",
"ad c #f9f9f9",
"aq c #fbfbfb",
"#6 c #fbfff5",
"ap c #fcfcfe",
"Qt.#.a.b.c.d.e.f.g.h.i.i.i.i.i.i.i.i.i.i.i.i.i.i.i.i.i.i.i.i.i.j.i.i.k.i.i.i.i.i",
".l.m.e.n.o.p.q.r.s.t.i.i.k.i.i.i.i.i.i.i.k.i.i.i.i.i.i.i.k.i.i.i.i.i.i.i.i.i.i.i",
".u.v.m.w.x.y.z.A.B.C.i.i.i.j.i.i.i.k.i.i.i.i.i.i.i.k.i.i.i.j.i.i.i.k.i.i.i.i.i.i",
".D.E.F.x.G.p.H.I.J.K.i.i.i.i.i.i.i.i.i.i.i.k.i.i.j.j.i.i.i.i.i.i.i.i.i.i.i.k.i.i",
".L.M.M.N.O.P.p.Q.R.S.i.i.i.i.i.i.i.i.i.i.i.i.i.k.j.j.i.i.i.i.i.i.i.i.i.i.i.i.i.k",
".T.U.V.W.X.Y.Z.0.1.2.i.i.i.i.i.j.i.i.i.i.i.i.i.i.i.i.i.i.i.i.i.j.i.i.i.i.i.i.i.i",
".3.4.5.6.7.8.9.1#.##.i.i.i.i.i.i.i.i.j.j.i.i.i.i.i.i.i.i.i.i.i.i.i.i.j.j.i.i.i.i",
"#a#b#c#d#e#f#g#h#i#j.i.i.i.i.i.k.i.i.j.j.i.i.i.i.i.i.i.i.i.i.i.k.i.i.j.j.i.i.i.i",
"#k.F#l#m#n#o#p#q#r#s.k.i.i.i.i.i.i.i.i.i.i.k.i.j.i.i.k.i.i.i.i.i.i.i.i.i.i.k.i.j",
"#t#u#v#w#x#y#z#A#B#C.i.i.i.i.i.i.i.i.i.i.i.i.i.i.i.i.i.i.i.i.i.i.i.i.i.i.i.i.i.i",
"#D#E#F#G#H#..E#I.w#JQt.#.a.b.c.d.e.f.g.h.i.j.i.i.i.k.i.i.i.i.i.i.i.k.i.i.i.j.i.i",
"#K.R#L#M#N.H#O#P#Q#y.l.m.e.n.o.p.q.r.s.t.i.i.i.i.i.i.i.i.i.k.i.i.j.j.i.i.i.i.i.i",
"#R#S#T#U#F#V#K#W#x#s.u.v.m.w.x.y.z.A.B.C.i.i.i.i.i.i.i.i.i.i.i.k.j.j.i.i.i.i.i.i",
"#X#Y#Z#0#1.p#E#2#3#4.D.E.F.x.G.p.H.I.J.K.i.i.i.j.i.i.i.i.i.i.i.i.i.i.i.i.i.i.i.j",
"#5#6#7#8#9a.a#.Q.R.K.L.M.M.N.O.P.p.Q.R.S.i.i.i.i.i.i.j.j.i.i.i.i.i.i.i.i.i.i.i.i",
"aaabacadaeafagahaiaj.T.U.V.W.X.Y.Z.0.1.2.i.i.i.k.i.i.j.j.i.i.i.i.i.i.i.i.i.i.i.k",
"akalamanaoapaqarasatau.4.5.6.7.8.9.1#.##.i.i.i.i.i.i.i.i.i.k.i.j.i.i.k.i.i.i.i.i",
"avawawaxaxabavayazaAaB#b#c#d#e#f#g#h#i#j.i.i.i.i.i.i.i.i.i.i.i.i.i.i.i.i.i.i.i.i",
"avaCaCaCawawaxawaDaEaFaGaH#m#n#o#p#q#r#s.i.i.i.i.i.k.i.i.i.j.i.i.i.k.i.i.i.i.i.i",
"abaCaCawawawawaCaIawaJaKaL#w#x#y#z#A#B#C.i.k.i.i.j.j.i.i.i.i.i.i.i.i.i.i.i.k.i.i",
"amaCaCaCawaCaCaCaCaMaNaO#F#G#H#..E#I.w#JQt.#.a.b.c.d.e.f.g.h.i.i.i.i.i.i.i.i.i.k",
"aPaCaCaCaCaCaCaCawaMaQaR#L#M#N.H#O#P#Q#y.l.m.e.n.o.p.q.r.s.t.i.j.i.i.i.i.i.i.i.i",
"alaCaCaCaCaCaCaCaCaMaSaT#T#U#F#V#K#W#x#s.u.v.m.w.x.y.z.A.B.C.i.i.i.i.j.j.i.i.i.i",
"alaCaCaCawaUaCaCaCaIaSaVaWaX#1.p#E#2#3#4.D.E.F.x.G.p.H.I.J.K.i.k.i.i.j.j.i.i.i.i",
"amaCaCaCawalaCaCaCaIaYaZa0a1#Ua.a#.Q.R.K.L.M.M.N.O.P.p.Q.R.S.i.i.i.i.i.i.i.k.i.j",
"amaCaCaCawamaxaCaCaUa2a3.V.W.X.Y.Z.0.1.2.T.U.V.W.X.Y.Z.0.1.2.i.i.i.i.i.i.i.i.i.i",
"amaCaCawa4ababaxawa5a6a7.5.6.7.8.9.1#.##.3.4.5.6.7.8.9.1#.##.i.i.i.k.i.i.i.j.i.i",
"amaCawaba4aba4ala8a9b.b##c#d#e#f#g#h#i#j#a#b#c#d#e#f#g#h#i#j.i.i.j.j.i.i.i.i.i.i",
"baaCababababaCaUbbbcbd.F#l#m#n#o#p#q#r#s#k.F#l#m#n#o#p#q#r#s.i.k.j.j.i.i.i.i.i.i",
"aaabbeababawaMbfbgbh#t#u#v#w#x#y#z#A#B#C#t#u#v#w#x#y#z#A#B#C.i.i.i.i.i.i.i.i.i.j",
"beabbeabaxbia8bjbkbl#D#E#F#G#H#..E#I.w#J#D#E#F#G#H#..E#I.w#JQt.#.a.b.c.d.e.f.g.h",
"beababalbibmbnbobpbq#K.R#L#M#N.H#O#P#Q#y#K.R#L#M#N.H#O#P#Q#y.l.m.e.n.o.p.q.r.s.t",
"beabamaIaMbrbsb.bt#s#R#S#T#U#F#V#K#W#x#s#R#S#T#U#F#V#K#W#x#s.u.v.m.w.x.y.z.A.B.C",
"abaxaIbubvbwbxby#3#4bzbAaWaX#1.p#E#2#3#4bzbAaWaX#1.p#E#2#3#4.D.E.F.x.G.p.H.I.J.K",
"aMaIbibBbCbDbE.Q.R.K#hbFa0a1#Ua.a#.Q.R.K#hbFa0a1#Ua.a#.Q.R.K.L.M.M.N.O.P.p.Q.R.S",
"aMbubGbHbIbJ.Z.0.1.2.T.U.V.W.X.Y.Z.0.1.2.T.U.V.W.X.Y.Z.0.1.2.T.U.V.W.X.Y.Z.0.1.2",
"bKbLbMbNbO.8.9.1#.##.3.4.5.6.7.8.9.1#.##.3.4.5.6.7.8.9.1#.##.3.4.5.6.7.8.9.1#.##",
"bPbQbRbS#e#f#g#h#i#j#a#b#c#d#e#f#g#h#i#j#a#b#c#d#e#f#g#h#i#j#a#b#c#d#e#f#g#h#i#j",
"#k.F#l#m#n#o#p#q#r#s#k.F#l#m#n#o#p#q#r#s#k.F#l#m#n#o#p#q#r#s#k.F#l#m#n#o#p#q#r#s",
"#t#u#v#w#x#y#z#A#B#C#t#u#v#w#x#y#z#A#B#C#t#u#v#w#x#y#z#A#B#C#t#u#v#w#x#y#z#A#B#C"};
