/* XPM */
static char *dummy[]={
"40 40 346 2",
"Qt c None",
"cy c #000000",
"dx c #010102",
"dw c #020102",
"dp c #020204",
"b7 c #020d5e",
"cU c #030203",
"do c #030305",
"bC c #03135a",
"ci c #041163",
"d# c #051263",
"de c #06060b",
"c5 c #06060c",
"ca c #061365",
"cQ c #071567",
"cu c #08166a",
"cL c #090912",
"ct c #09176b",
"ch c #09176c",
"bF c #0a0a14",
"cH c #0a186c",
"cP c #0a186d",
"cp c #0a196c",
"b6 c #0a196e",
"cI c #0a1a6c",
"da c #0a1a6f",
"bQ c #0a1a70",
"#r c #0a1d70",
"d. c #0b1c6f",
"#Y c #0b1e71",
"bd c #0b1e72",
"aL c #0b1e73",
"cl c #0c0b16",
"aH c #0c1a6f",
"bP c #0c1b71",
"#q c #0c1e72",
"ax c #0c1f75",
"b5 c #0d1d73",
"am c #0d2073",
"aZ c #0d2075",
"bu c #0d2076",
"a0 c #0d2077",
"bB c #0d207c",
"af c #0e1c70",
"#7 c #0e1c71",
"bn c #0e1d72",
"cD c #0e1e74",
"bm c #0e1e75",
"a9 c #0e1f76",
"#K c #0e247d",
"dq c #0f0e1b",
"cY c #0f1c68",
"#R c #0f1c70",
"bj c #0f1d71",
"ag c #0f1d72",
"aT c #0f1f75",
"cs c #0f2078",
"cG c #0f2079",
"cb c #0f227c",
"cq c #0f227d",
"aU c #10185d",
"#S c #101860",
"#8 c #101961",
"ah c #101962",
"a7 c #101b6b",
"b. c #101c5b",
"bi c #101c6d",
"#A c #101c6e",
"#c c #101d71",
"#d c #101e72",
"a8 c #102077",
"bY c #10237f",
"cE c #10247f",
"c0 c #102481",
"#6 c #111c68",
"#z c #111c69",
"bh c #111d68",
"aG c #111d6a",
"#Q c #111d6b",
"aS c #111d6c",
"#b c #111d6e",
".Q c #111f71",
"as c #112073",
"cZ c #11237d",
"bv c #112580",
"cO c #112583",
"cV c #121122",
"#e c #121e6e",
"#5 c #122172",
"aR c #122173",
"by c #122174",
"bO c #122175",
"ae c #122379",
"bk c #12247d",
"bA c #12247e",
"#P c #122580",
"aM c #122986",
".w c #122987",
"bz c #13257f",
"b4 c #132680",
"bl c #132681",
"b3 c #132782",
"cg c #132783",
".u c #132b8c",
"#Z c #132c8b",
"#y c #132f95",
"#a c #13309b",
"#B c #141e68",
".R c #14216e",
"b2 c #142884",
".6 c #142981",
".M c #142a86",
".v c #1438ac",
"bJ c #152c8e",
"bZ c #152e8f",
"#C c #161d5e",
"a3 c #162e8d",
"be c #163094",
"cc c #163095",
".7 c #163bb5",
"bT c #17162d",
"#T c #171d5e",
"bf c #173094",
"bL c #173195",
"aO c #173196",
"bK c #173298",
"ay c #173397",
"c1 c #17349b",
"cr c #17359b",
"#s c #173db5",
".N c #173eba",
"cz c #181626",
"a2 c #183297",
"ao c #183299",
"bM c #18349a",
"ab c #18369f",
"aB c #1836a1",
"a4 c #1838a5",
"#f c #19256e",
"aA c #19359b",
"bw c #19359c",
"aN c #19369d",
"cd c #19369e",
"b0 c #1937a2",
"ce c #1937a3",
"an c #1938a2",
"cF c #193bab",
"bx c #1940bc",
"bN c #1942c3",
"ap c #1943c2",
"ad c #1943c3",
"a5 c #1944c5",
"bg c #1944c7",
"df c #1a192d",
"cx c #1a1932",
".x c #1a266f",
"#p c #1a2979",
"az c #1a38a1",
"a1 c #1a38a4",
"b1 c #1a3db0",
"cf c #1a3db1",
"aP c #1a3eb2",
"#1 c #1a43c2",
"aC c #1a45c1",
"aQ c #1a46c8",
".8 c #1a47c9",
"aq c #1a47ca",
"#t c #1a47cc",
".P c #1a47cd",
"aD c #1a48cb",
"a6 c #1a48cc",
"dr c #1b1b32",
"#0 c #1b3ba9",
"#L c #1b3cab",
"ac c #1b3eaf",
"#. c #1b49d0",
".O c #1b49d2",
"#2 c #1b4ad1",
"## c #1b4bcf",
"aE c #1b4bd2",
"#x c #1b4bd4",
"aF c #1b4bd6",
"ar c #1b4dd6",
"c6 c #1c1b2f",
".9 c #1c4dd7",
"#O c #1c4dd9",
"#4 c #1c4ed8",
"#M c #1c4eda",
"#u c #1c4edb",
"bq c #1d1c37",
"#v c #1d50db",
"#3 c #1d50dc",
"#N c #1d50dd",
"#w c #1d50de",
"b9 c #1f1e3a",
"dv c #211f38",
"bE c #22203c",
"cC c #232e75",
"ba c #24223e",
"dn c #272540",
"bU c #272634",
"aW c #272641",
"aI c #282641",
"#g c #282e6c",
"bX c #283988",
"cT c #292843",
"ck c #2a2842",
"c4 c #2b2944",
"dd c #2d2b45",
"au c #312f48",
"cA c #32314a",
"c2 c #333d75",
"bS c #36344a",
".S c #364280",
"aj c #38354c",
".o c #3b3348",
"cJ c #3b3f69",
"a. c #3c394e",
"c9 c #3c4987",
"#V c #3d3a4f",
"bc c #3d4c8f",
"#D c #3f447c",
"db c #414b77",
"cR c #424b73",
"aX c #464153",
"cm c #464356",
".n c #473e52",
"bG c #474252",
"ak c #474254",
"br c #474453",
"av c #484354",
"a# c #484456",
"du c #484559",
".B c #494357",
"aJ c #494456",
"#G c #494659",
"#W c #4a4557",
"cv c #4a4f71",
".f c #4b4859",
"#H c #4c4759",
"#l c #4e4a5d",
"bI c #4e5b90",
".E c #4f4a5e",
"bp c #4f4b5d",
".Z c #504c5f",
".5 c #505b94",
"#n c #514d5e",
"#m c #514d5f",
"cw c #525060",
"#I c #534f60",
".0 c #534f61",
".C c #534f62",
"#X c #545062",
".Y c #545063",
".D c #555163",
".# c #565264",
".p c #575365",
"#k c #585465",
"ds c #585766",
"dg c #5a5868",
".e c #5b5668",
".F c #5b5869",
".G c #5d5969",
".q c #5d5a6b",
"cM c #5f5d6a",
".g c #615d6f",
"bV c #615f6e",
".X c #645f71",
".a c #656273",
"dt c #666571",
"cK c #666671",
"dm c #676671",
"cS c #6a6973",
"bs c #6e6c79",
"c3 c #6f6e77",
".1 c #73707e",
"dc c #76777d",
".4 c #777ea7",
"bD c #797c77",
"#h c #797ea6",
"bo c #797f8a",
"bR c #7b8285",
"cW c #7d7e83",
"cj c #818884",
".b c #838290",
"b# c #888694",
"c7 c #88888d",
"dl c #898a8e",
".d c #8c8b99",
"co c #8c94af",
"cX c #909599",
".H c #918f97",
"c. c #919196",
".A c #92909c",
".c c #9494a0",
"b8 c #959886",
"bH c #97979a",
".3 c #999bb3",
"dh c #999c9a",
"dj c #999e9b",
"cB c #a2a6a1",
"#F c #a3a4a0",
"dk c #a3a8a3",
"bW c #a4a6a5",
".T c #a5b3df",
".r c #a6a3ac",
"cN c #a6aba6",
"bb c #a8a9a9",
"cn c #a9aca9",
"bt c #aaacac",
"c# c #aaaeae",
".m c #acacb4",
"di c #aeb2ac",
"c8 c #afb3ad",
".t c #c0c5d2",
"aV c #c5c6cd",
"#j c #c9c7ce",
".L c #c9cbce",
"#E c #cacbda",
"at c #cfcfd7",
".y c #d0d2e1",
"ai c #d1d0d7",
".k c #d2d3e2",
".I c #d6d5d8",
".W c #d8d7db",
"aK c #d8d7df",
".j c #dcdae0",
".2 c #dcdce0",
"#9 c #dcdce1",
"aY c #dfdee2",
"#U c #e1e1e5",
"#o c #e3e3e8",
"aa c #e3e3eb",
"al c #e4e4eb",
"aw c #e6e5ec",
"#J c #e7e7ed",
".h c #e9e8ea",
"#i c #f0f1f5",
".i c #f6f8ef",
".s c #f9f9f8",
".z c #f9f9f9",
".V c #fbfbfb",
".l c #fbfff5",
".U c #fcfcfe",
".K c #fffefd",
".J c #ffffff",
"QtQtQtQtQtQtQtQtQtQtQtQtQtQtQtQtQtQtQtQtQtQtQtQtQtQtQtQtQtQtQtQtQtQtQtQtQtQtQtQt",
"QtQtQtQtQtQtQtQtQtQtQtQtQtQtQtQtQtQtQtQtQtQtQtQtQtQtQtQtQtQtQtQtQtQtQtQtQtQtQtQt",
"QtQtQtQtQtQtQtQtQtQtQtQtQtQtQtQtQtQtQtQtQtQtQtQtQtQtQtQtQtQtQtQtQtQtQtQtQtQtQtQt",
"QtQtQtQtQtQtQtQtQtQtQtQtQtQtQtQtQtQtQtQtQtQtQtQtQtQtQtQtQtQtQtQtQtQtQtQtQtQtQtQt",
"QtQtQtQtQtQtQtQtQtQtQtQtQtQtQtQtQtQtQtQtQtQtQtQtQtQtQtQtQtQtQtQtQtQtQtQtQtQtQtQt",
"QtQtQtQtQtQtQtQtQtQtQtQtQtQtQtQtQtQtQtQtQtQtQtQtQtQtQtQtQtQtQtQtQtQtQtQtQtQtQtQt",
"QtQtQtQtQtQtQtQtQtQtQtQtQtQtQtQtQtQtQtQtQtQtQtQtQtQtQtQtQtQtQtQtQtQtQtQtQtQtQtQt",
"QtQtQtQtQtQtQtQtQtQtQtQtQtQtQtQtQtQtQtQtQtQtQtQtQtQtQtQtQtQtQtQtQtQtQtQtQtQtQtQt",
"QtQtQtQtQtQtQtQtQtQtQtQtQtQtQtQt.#.#.a.b.c.d.e.fQtQtQtQtQtQtQtQtQtQtQtQtQtQtQtQt",
"QtQtQtQtQtQtQtQtQtQtQtQtQtQtQt.#.g.h.i.j.k.l.m.n.oQtQtQtQtQtQtQtQtQtQtQtQtQtQtQt",
"QtQtQtQtQtQtQtQtQtQtQt.#.#.p.q.r.s.t.u.v.w.x.y.z.A.B.C.D.#.EQtQtQtQtQtQtQtQtQtQt",
"QtQtQtQtQtQtQtQtQt.F.G.H.I.J.K.L.M.N.O.P.v.Q.R.S.T.U.V.W.X.Y.ZQtQtQtQtQtQtQtQtQt",
"QtQtQtQtQtQtQt.0.D.1.2.3.4.5.6.7.8.9#.###a#b#c#d#e#f#g#h#i#j#k#lQtQtQtQtQtQtQtQt",
"QtQtQtQtQtQtQt#m#n#o#p#q#r#s#t.9#u#v#w#x#y#z#z#A#c#c#B#C#D#E#F#GQtQtQtQtQtQtQtQt",
"QtQtQtQtQtQtQt#H#I#J#q#K#L#M#N#O#w#w#w.9#P#z#z#Q#c#c#c#R#S#T#U#VQtQtQtQtQtQtQtQt",
"QtQtQtQtQtQtQt#W#X#J#Y#Z#0#1#2#3#w#w#w#4#5#z#z#6#Q#7#7#7#7#8#9a.QtQtQtQtQtQtQtQt",
"QtQtQtQtQtQtQta#.Daa#qab#0acad#4#u#N#w#4ae#z#z#z#zaf#7#7agahaiajQtQtQtQtQtQtQtQt",
"QtQtQtQtQtQtQtak.#alaman#0aoapaqar#w#w#4as#z#z#6#zaf#7#7#7ahatauQtQtQtQtQtQtQtQt",
"QtQtQtQtQtQtQtav.#awaxayazaAaBaCaDaEaF.9.Q#z#z#zaGaH#7#7#7#SataIQtQtQtQtQtQtQtQt",
"QtQtQtQtQtQtQtaJ.DaKaLaMazaNaOaPapaQaE.9aR#z#z#zaSaT#7#7#7aUaVaWQtQtQtQtQtQtQtQt",
"QtQtQtQtQtQtQtaX#XaYaZa0a1aNa2a3a4a5a6.9aR#6#za7aga8a9#7#7b.b#baQtQtQtQtQtQtQtQt",
"QtQtQtQtQtQtQtaX#IbbbcbdbeaNaNaObfaPbgbgaRbhbibjbkblblbmbnbobpbqQtQtQtQtQtQtQtQt",
"QtQtQtQtQtQtQtQtbrbsbtbubvbwaNaAbfbfbxbgbybh#QbzbAblbAbBbCbDbEbFQtQtQtQtQtQtQtQt",
"QtQtQtQtQtQtQtQtQtbGbHbI#rbJbKaNbLbMbMbNbO#zblblblblbPbQbRbSbTQtQtQtQtQtQtQtQtQt",
"QtQtQtQtQtQtQtQtQtbUbVbWbXbYbZaNaNaNb0b1b2blb3blb4b5b6b7b8b9QtQtQtQtQtQtQtQtQtQt",
"QtQtQtQtQtQtQtQtQtQtQtc.c#cacbcccdcecfcfcgblb3b4a9chcicjckclQtQtQtQtQtQtQtQtQtQt",
"QtQtQtQtQtQtQtQtQtQtQtcmcncocpcqcrcfcfcfb3blblcsctcucvcwcxcyQtQtQtQtQtQtQtQtQtQt",
"QtQtQtQtQtQtQtQtQtQtQtczcAcBcCcDcEcFcfb1b3blcGcHcIcJcKbEcyQtQtQtQtQtQtQtQtQtQtQt",
"QtQtQtQtQtQtQtQtQtQtQtQtcLcMcNcacbcOcFb1bla9cPcQcRcScTcUQtQtQtQtQtQtQtQtQtQtQtQt",
"QtQtQtQtQtQtQtQtQtQtQtQtQtcVcWcXcYcZc0c1b6cHctc2c3c4c5QtQtQtQtQtQtQtQtQtQtQtQtQt",
"QtQtQtQtQtQtQtQtQtQtQtQtQtcyc6c7c8c9d.d#dacQdbdcdddeQtQtQtQtQtQtQtQtQtQtQtQtQtQt",
"QtQtQtQtQtQtQtQtQtQtQtQtQtQtcydfdgdhdidjdkdldmdndoQtQtQtQtQtQtQtQtQtQtQtQtQtQtQt",
"QtQtQtQtQtQtQtQtQtQtQtQtQtQtQtdpdqdraWdsdtdudvdwQtQtQtQtQtQtQtQtQtQtQtQtQtQtQtQt",
"QtQtQtQtQtQtQtQtQtQtQtQtQtQtQtQtQtcydxdpdpdwcyQtQtQtQtQtQtQtQtQtQtQtQtQtQtQtQtQt",
"QtQtQtQtQtQtQtQtQtQtQtQtQtQtQtQtQtQtQtQtQtQtQtQtQtQtQtQtQtQtQtQtQtQtQtQtQtQtQtQt",
"QtQtQtQtQtQtQtQtQtQtQtQtQtQtQtQtQtQtQtQtQtQtQtQtQtQtQtQtQtQtQtQtQtQtQtQtQtQtQtQt",
"QtQtQtQtQtQtQtQtQtQtQtQtQtQtQtQtQtQtQtQtQtQtQtQtQtQtQtQtQtQtQtQtQtQtQtQtQtQtQtQt",
"QtQtQtQtQtQtQtQtQtQtQtQtQtQtQtQtQtQtQtQtQtQtQtQtQtQtQtQtQtQtQtQtQtQtQtQtQtQtQtQt",
"QtQtQtQtQtQtQtQtQtQtQtQtQtQtQtQtQtQtQtQtQtQtQtQtQtQtQtQtQtQtQtQtQtQtQtQtQtQtQtQt",
"QtQtQtQtQtQtQtQtQtQtQtQtQtQtQtQtQtQtQtQtQtQtQtQtQtQtQtQtQtQtQtQtQtQtQtQtQtQtQtQt"};
