/* XPM */
static char *dummy[]={
"40 40 381 2",
".d c None",
"bf c None",
"aA c None",
"aN c None",
"an c None",
"d0 c None",
"cN c None",
"cy c None",
"b5 c None",
"d5 c None",
"d6 c None",
".c c None",
".e c None",
"Qt c None",
".# c #000000",
"dk c #030302",
"dG c #0b0806",
"ci c #342e26",
"#T c #3f3324",
"bx c #65605a",
".Q c #696358",
"a2 c #7b7870",
"bg c #84807b",
"d4 c #000000",
"d1 c #020101",
"d3 c #020201",
"dv c #0c0906",
"bQ c #534e44",
".b c #8b8981",
".a c #f8f8f8",
"c0 c #261f16",
"aO c #545043",
"da c #000000",
"b4 c #140f0a",
"a3 c #565144",
"## c #615b4f",
"dR c #040302",
"d2 c #040302",
"dQ c #050403",
"ch c #2d2216",
"aB c #544f42",
"#x c #5d574a",
"ao c #565044",
"by c #534e41",
"#a c #635d51",
".P c #5e584a",
"a. c #575245",
"bh c #534e41",
"#U c #595447",
"#9 c #0a0705",
"#y c #5f594d",
"cM c #16110b",
"dZ c #020201",
".x c #645e52",
".f c #645e52",
".m c #595348",
"#. c #5f594c",
"dl c #221a11",
".w c #484533",
".n c #645e52",
".O c #645e52",
"db c #120d09",
".y c #645e52",
".R c #696459",
".N c #635d51",
"dS c #1b150e",
".M c #625c4f",
".z c #655f53",
"dw c #2f251b",
"dH c #2d2319",
".L c #575243",
".A c #6b655a",
".g c #645e52",
".l c #686356",
"#S c #595246",
"dT c #32261b",
"cZ c #322619",
".o c #6f695d",
".v c #52503e",
".h c #736d62",
".j c #a09a94",
"b6 c #524e42",
".i c #908a82",
".k c #99938b",
"dY c #382d1f",
"#z c #5e594d",
"cO c #564f43",
".K c #9c9890",
".B c #acaaa3",
"bP c #372a1c",
"#b c #7e7a70",
".S c #97958f",
"bz c #605b4f",
".8 c #716c5f",
".9 c #635d50",
".T c #d8d7d5",
".7 c #dbdad7",
"dP c #403425",
"dF c #45392b",
"cj c #6e685f",
"cx c #3a2c1e",
"b3 c #3c2f20",
"dU c #413426",
"bR c #79746c",
"bw c #3e3122",
"be c #413426",
"a1 c #413526",
"cL c #423628",
"dj c #433628",
"du c #443829",
"aM c #483d2f",
"c1 c #4a3e31",
"cg c #4a4034",
"az c #4c4335",
"am c #4e4639",
"#8 c #4f473a",
"dX c #595145",
"b1 c #5a1c03",
"bu c #5b2710",
"bc c #5d2c10",
"bO c #5d574b",
"cv c #5e2202",
"#O c #5e3116",
"#6 c #5e3217",
"#5 c #602d10",
"cY c #605950",
"#V c #605b4f",
"ak c #612d10",
"ax c #622d10",
"a# c #625c50",
"cJ c #632304",
"dB c #632405",
"ap c #635d51",
"aC c #645e52",
"cB c #652506",
"#w c #656054",
"dV c #665f57",
"dg c #672607",
"do c #682c0f",
"bG c #682e11",
"ai c #682f11",
"#N c #683114",
"dI c #686158",
"#L c #692f11",
"d. c #694c3b",
"cW c #6a2808",
"aZ c #6a2f11",
"dc c #6a655d",
"cV c #6b2909",
"br c #6b2f10",
"#3 c #6b2f11",
"c9 c #6c280a",
"cI c #6c2909",
"cR c #6c290a",
"c8 c #6c2a0a",
"ba c #6c2f11",
"#s c #6c4228",
"df c #6d2a0a",
"bH c #6d2f10",
"cu c #6e2a0a",
"#M c #6e3010",
"#n c #6e3011",
"#q c #6e3112",
".2 c #6e3114",
"#r c #6e3519",
"dC c #6f290a",
"dA c #6f290b",
"a0 c #6f2c0c",
".H c #6f361a",
"#D c #70270a",
"ce c #702a0a",
"av c #702e0e",
"#4 c #702f0f",
"aa c #71280b",
"cd c #712c0c",
"aj c #712e0e",
"bI c #712f0f",
"#o c #713010",
".1 c #713011",
"cX c #71574a",
"d# c #716b66",
"dW c #716c65",
"dO c #716c66",
"bC c #72280b",
"#C c #722a0c",
"bM c #722e0e",
"aw c #722f0f",
"#p c #723010",
"ah c #723012",
"a5 c #73290b",
"aE c #732a0d",
"ct c #732d0d",
"aK c #733011",
"b# c #733012",
"dh c #735042",
"di c #736f69",
"c4 c #742e0e",
"bX c #743112",
"aQ c #752a0c",
"bj c #752b0d",
"bL c #752e0e",
"bb c #752f0f",
"cc c #753112",
"c3 c #753e23",
"ds c #754833",
"bT c #762b0d",
"bt c #762e0e",
"bk c #772b0d",
"bs c #773010",
"dD c #775041",
"dt c #77736e",
"b2 c #77777c",
"cU c #782f0f",
"c7 c #792f0f",
"au c #793112",
"#B c #79371a",
"b0 c #7c2e0d",
"cC c #7c2f0f",
"#P c #7c563f",
"#X c #7d2c0e",
"cS c #7d2f0f",
"dp c #7d3111",
"bJ c #7d3212",
"dE c #7d7876",
"bZ c #7e3212",
"c5 c #7f3010",
"cm c #7f3110",
"bY c #7f3313",
"bU c #803111",
"#2 c #803212",
"cs c #803313",
".3 c #804d36",
"dq c #813110",
"#g c #813214",
"bK c #813313",
"cr c #823313",
"de c #833211",
"cH c #833313",
"dm c #837f7d",
"cq c #843414",
"cf c #857b7d",
"a6 c #863112",
".X c #863314",
"cw c #868d98",
".G c #873212",
"dz c #87523c",
"cK c #878188",
"cl c #884428",
"bN c #8a7b79",
"ab c #8b3213",
".E c #8c3313",
"bn c #8d3616",
"dx c #8d8a88",
"b9 c #8e3615",
"dN c #8e8a89",
"cn c #8f3515",
"bB c #8f543d",
"b8 c #90604e",
"bD c #943716",
"bE c #943817",
"#f c #946550",
"bv c #948f86",
"#K c #953413",
"cD c #953716",
"c# c #953817",
"a8 c #963817",
"cz c #969391",
"aR c #973717",
"bm c #973918",
"c. c #983817",
"aG c #993a18",
"dn c #999091",
"ca c #9a3918",
"b7 c #9a9897",
"#m c #9b3513",
"cT c #9b3717",
"dr c #9b3817",
"aT c #9b3a19",
"dJ c #9b999c",
"bV c #9c3a19",
"a7 c #9d3a19",
"dL c #9d999e",
"cE c #9e3a19",
"ar c #9f3918",
"#R c #a0a1a4",
"aU c #a13a18",
"aS c #a13b1a",
"aF c #a23a19",
"co c #a23b19",
"c2 c #a2a1a6",
"cF c #a33b19",
"bl c #a43c1a",
"bo c #a53a18",
"dM c #a5a3a8",
"#t c #a68979",
"ck c #a6a4a6",
"#e c #a78677",
"dd c #a8a6ab",
"ac c #a93d1b",
"bA c #a9a8a9",
"cP c #aaa9ac",
"c6 c #ab3b19",
"#Y c #ab3d1b",
".F c #ac3714",
"bS c #acaaab",
"dK c #adacb2",
"cA c #aeaaac",
"dy c #aeadb3",
"as c #af3d1b",
"cQ c #af948c",
"cp c #b03d1a",
"cG c #b13d1a",
"a9 c #b23d1a",
"#d c #b3a399",
".u c #b4b0ac",
"#h c #b53b16",
"#E c #b53b17",
".Y c #ba3c17",
"bW c #bc3e19",
"aV c #c13d1a",
"aH c #c23e19",
"ad c #c23f1a",
"at c #c33e19",
"cb c #c33f19",
"bp c #c53e19",
"bF c #c73f19",
"b. c #c83f1a",
"#i c #c93f1a",
"aI c #ca3f1a",
"aW c #cb3f1a",
"bq c #cc3f1a",
"#F c #cc401a",
".0 c #cd411a",
"bd c #cdc8c5",
".W c #cec9c9",
"#v c #ceccc7",
"#l c #cf3f1b",
"#k c #d0411b",
"ae c #d1411b",
"aX c #d2401b",
".Z c #d2421b",
".D c #d2c3c0",
"#J c #d4411b",
"aJ c #d6401b",
"aY c #d6421b",
"#j c #d7421c",
"aL c #d7d3cf",
"ay c #d7d4d0",
"ag c #d8421c",
"#1 c #d9431c",
"#Z c #da431c",
"#Q c #dad0ca",
"#G c #db431c",
"#H c #db431d",
"af c #dc431d",
"#0 c #dd441d",
"#I c #de441d",
".4 c #dfb2a5",
"a4 c #dfdcd7",
"#c c #e0dedc",
".r c #e0dfda",
".I c #e1d6d0",
"al c #e1dedc",
".s c #e2d8d2",
"bi c #e2e1de",
"#7 c #e5e3e1",
"#A c #e8e5e3",
".p c #eaeae8",
"aq c #ebe7e3",
"aD c #ebe7e4",
"aP c #ece9e5",
"#W c #edeae7",
".q c #eff2f8",
"#u c #f5f1f0",
".t c #f5f6ff",
".C c #f8f9f9",
".J c #f9f9f9",
".6 c #fbfbfb",
".V c #fdffff",
".5 c #fefdfc",
".U c #ffffff",
"QtQtQtQtQtQtQtQtQtQtQtQtQtQtQtQtQtQtQtQtQtQtQtQtQtQtQtQtQtQtQtQtQtQtQtQtQtQtQtQt",
"QtQtQtQtQtQtQtQtQtQtQtQtQtQtQtQtQtQtQtQtQtQtQtQtQtQtQtQtQtQtQtQtQtQtQtQtQtQtQtQt",
"QtQtQtQtQtQtQtQtQtQtQtQtQtQtQtQtQtQtQtQtQtQtQtQtQtQtQtQtQtQtQtQtQtQtQtQtQtQtQtQt",
"QtQtQtQtQtQtQtQtQtQtQtQtQtQtQtQtQtQtQtQtQtQtQtQtQtQtQtQtQtQtQtQtQtQtQtQtQtQtQtQt",
"QtQtQtQtQtQtQtQtQtQtQtQtQtQtQtQtQtQtQtQtQtQtQtQtQtQtQtQtQtQtQtQtQtQtQtQtQtQtQtQt",
"QtQtQtQtQtQtQtQtQtQtQtQtQtQtQtQtQtQtQtQtQtQtQtQtQtQtQtQtQtQtQtQtQtQtQtQtQtQtQtQt",
"QtQtQtQtQtQtQtQtQtQtQtQtQtQtQtQtQtQt.#.a.b.cQtQtQtQtQtQtQtQtQtQtQtQtQtQtQtQtQtQt",
"QtQtQtQtQtQtQtQtQtQtQtQtQtQtQtQtQtQt.d.e.d.dQtQtQtQtQtQtQtQtQtQtQtQtQtQtQtQtQtQt",
"QtQtQtQtQtQtQtQtQtQtQtQtQtQtQtQt.f.g.h.i.j.k.l.mQtQtQtQtQtQtQtQtQtQtQtQtQtQtQtQt",
"QtQtQtQtQtQtQtQtQtQtQtQtQtQtQt.n.o.p.q.r.s.t.u.v.wQtQtQtQtQtQtQtQtQtQtQtQtQtQtQt",
"QtQtQtQtQtQtQtQtQtQtQt.x.y.z.A.B.C.D.E.F.G.H.I.J.K.L.M.N.O.PQtQtQtQtQtQtQtQtQtQt",
"QtQtQtQtQtQtQtQtQt.Q.R.S.T.U.V.W.X.Y.Z.0.F.1.2.3.4.5.6.7.8.9#.QtQtQtQtQtQtQtQtQt",
"QtQtQtQtQtQtQt###a#b#c#d#e#f#g#h#i#j#k#l#m#n#o#p#q#r#s#t#u#v#w#xQtQtQtQtQtQtQtQt",
"QtQtQtQtQtQtQt#y#z#A#B#C#D#E#F#j#G#H#I#J#K#L#L#M#o#o#N#O#P#Q#R#S#TQtQtQtQtQtQtQt",
"QtQtQtQtQtQtQt#U#V#W#C#X#Y#Z#0#1#I#I#I#j#2#L#L#3#o#o#o#4#5#6#7#8#9QtQtQtQtQtQtQt",
"QtQtQtQtQtQtQta.a##Waaabacadaeaf#I#I#Iagah#L#Lai#3ajajajajakalamanQtQtQtQtQtQtQt",
"QtQtQtQtQtQtQtaoapaq#Caracasatag#G#0#Iagau#L#L#L#LavajajawaxayazaAQtQtQtQtQtQtQt",
"QtQtQtQtQtQtQtaBaCaDaEaFacaGaHaIaJ#I#IagaK#L#Lai#LavajajajaxaLaMaNQtQtQtQtQtQtQt",
"QtQtQtQtQtQtQtaOaCaPaQaRaSaTaUaVaWaXaY#j.1#L#L#LaZa0ajajaj#5aLa1aNQtQtQtQtQtQtQt",
"QtQtQtQtQtQta2a3apa4a5a6aSa7a8a9aHb.aX#jb##L#L#LbabbajajajbcbdbebfQtQtQtQtQtQtQt",
"QtQtQtQtQtQtbgbha#bibjbkbla7bmbnbobpbq#jb#ai#LbrawbsbtajajbubvbwaAQtQtQtQtQtQtQt",
"QtQtQtQtQtQtbxbybzbAbBbCbDa7a7a8bEa9bFbFb#bGbHbIbJbKbKbLbMbNbObP.dQtQtQtQtQtQtQt",
"QtQtQtQtQtQtQtQtbQbRbSbTbUbVa7aTbEbEbWbFbXbG#3bYbZbKbZb0b1b2b3b4.dQtQtQtQtQtQtQt",
"QtQtQtQtQtQtQtQtb5b6b7b8#Db9c.a7c#cacacbcc#LbKbKbKbKcdcecfcgch.dQtQtQtQtQtQtQtQt",
"QtQtQtQtQtQtQtQtQtcicjckclcmcna7a7a7cocpcqbKcrbKcsctcucvcwcxaA.dQtQtQtQtQtQtQtQt",
"QtQtQtQtQtQtQtQtQtQtcyczcAcBcCcDcEcFcGcGcHbKcrcsbtcIcJcKcLcM.dQt.dQtQtQtQtQtQtQt",
"QtQtQtQtQtQtQtQtQtQtcNcOcPcQcRcScTcGcGcGcrbKbKcUcVcWcXcYcZ.#.dQtQtQtQtQtQtQtQtQt",
"QtQtQtQtQtQtQtQtQtQtQtc0c1c2c3c4c5c6cGcpcrbKc7c8c9d.d#b3da.dQtQtQtQtQtQtQtQtQtQt",
"QtQtQtQtQtQtQtQtQtQtQtQtdbdcddcBcCdec6cpbKbtdfdgdhdidjdk.d.dQtQtQtQtQtQtQtQtQtQt",
"QtQtQtQtQtQtQtQtQtQtQtQt.ddldmdndodpdqdrcuc8cVdsdtdudv.d.dQtQtQtQtQtQtQtQtQtQtQt",
"QtQtQtQtQtQtQtQtQtQtQtQtQt.#dwdxdydzdAdBdCdgdDdEdFdG.d.dQtQtQtQtQtQtQtQtQtQtQtQt",
"QtQtQtQtQtQtQtQtQtQtQtQtQtQt.#dHdIdJdKdLdMdNdOdPdQ.d.dQtQtQtQtQtQtQtQtQtQtQtQtQt",
"QtQtQtQtQtQtQtQtQtQtQtQtQtQt.ddRdSdTdUdVdWdXdYdZ.dQtQtQt.dQtQtQtQtQtQtQtQtQtQtQt",
"QtQtQtQtQtQtQtQtQtQtQtQtQtQtQtQtd0.#d1d2d2d3d4.dQtQtQt.d.dQtQtQtQtQtQtQtQtQtQtQt",
"QtQtQtQtQtQtQtQtQtQtQtQtQtQtQtQtQt.d.d.d.d.dQtQtQtQtQtQtQtQtQtQtQtQtQtQtQtQtQtQt",
"QtQtQtQtQtQtQtQtQtQtQtQtQtQtQtQtQtQtQtd5d6QtQtQtQtQtQtQtQtQtQtQtQtQtQtQtQtQtQtQt",
"QtQtQtQtQtQtQtQtQtQtQtQtQtQtQtQtQtQtQtQtQtQtQtQtQtQtQtQtQtQtQtQtQtQtQtQtQtQtQtQt",
"QtQtQtQtQtQtQtQtQtQtQtQtQtQtQtQtQtQtQtQtQtQtQtQtQtQtQtQtQtQtQtQtQtQtQtQtQtQtQtQt",
"QtQtQtQtQtQtQtQtQtQtQtQtQtQtQtQtQtQtQtQtQtQtQtQtQtQtQtQtQtQtQtQtQtQtQtQtQtQtQtQt",
"QtQtQtQtQtQtQtQtQtQtQtQtQtQtQtQtQtQtQtQtQtQtQtQtQtQtQtQtQtQtQtQtQtQtQtQtQtQtQtQt"};
