/* XPM */
static char *dummy[]={
"40 40 247 2",
".d c None",
"ak c None",
"#Z c None",
"#S c None",
"#6 c None",
"bU c None",
"a7 c None",
"aZ c None",
"aI c None",
"bZ c None",
"b0 c None",
".c c None",
".e c None",
"Qt c None",
".# c #000000",
"bo c #030203",
"bA c #06060b",
"#C c #26243f",
"aS c #272634",
".Q c #5b5869",
"as c #5b5a65",
"ad c #73707b",
"al c #7c7b84",
"bY c #000000",
"bV c #010102",
"bX c #020102",
"bu c #06060c",
"aA c #474453",
".b c #84818b",
".a c #f8f8f8",
"bd c #181626",
"#7 c #484354",
"bh c #000000",
"aH c #0a0a14",
"ae c #494456",
"## c #534f61",
"bL c #020204",
"bW c #020204",
"bK c #030305",
"aR c #17162d",
"#0 c #474254",
"#q c #4e4a5d",
"#T c #484456",
"at c #464153",
"#a c #555163",
".P c #4f4a5e",
"#M c #4a4557",
"am c #464153",
"#D c #4c4759",
"#L c #05050a",
"#r c #514d5f",
"a6 c #0c0b16",
"bT c #020102",
".x c #565264",
".f c #565264",
".m c #4b4859",
"#. c #504c5f",
"bp c #121122",
".w c #3b3348",
".n c #565264",
".O c #565264",
"bi c #090912",
".y c #565264",
".R c #5d5969",
".N c #555163",
"bM c #0f0e1b",
".M c #534f62",
".z c #575365",
"bv c #1c1b2f",
"bB c #1a192d",
".L c #494357",
".A c #5d5a6b",
".g c #565264",
".l c #5b5668",
"#B c #494659",
"bN c #1b1b32",
"bc c #1a1932",
".o c #615d6f",
".v c #473e52",
".h c #656273",
".j c #9494a0",
"aJ c #474252",
".i c #838290",
".k c #8c8b99",
"bS c #211f38",
"#s c #514d5e",
"a8 c #464356",
".K c #92909c",
".B c #a6a3ac",
"az c #1d1c37",
"#b c #73707e",
".S c #918f97",
"au c #534f60",
".8 c #645f71",
".9 c #545063",
".T c #d6d5d8",
".7 c #d8d7db",
"bJ c #272540",
"bz c #2d2b45",
"aT c #615f6e",
"aY c #1f1e3a",
"aG c #22203c",
"bO c #272641",
"aB c #6e6c79",
"ar c #24223e",
"aj c #272641",
"ac c #282641",
"bn c #292843",
"a5 c #2a2842",
"bt c #2b2944",
"aW c #2c2c2c",
"aE c #303030",
"#5 c #312f48",
"a2 c #313131",
"be c #32314a",
"bl c #333333",
"b# c #343434",
"a3 c #353535",
"aQ c #36344a",
"#I c #363636",
"#P c #373737",
"#Y c #38354c",
"ab c #383838",
"#u c #393939",
"#k c #3a3a3a",
"#l c #3b3b3b",
"#R c #3c394e",
".1 c #3c3c3c",
"#K c #3d3a4f",
".2 c #3d3d3d",
"aO c #3e3e3e",
"#G c #3f3f3f",
"aw c #404040",
".H c #414141",
"aV c #424242",
".G c #434343",
".X c #444444",
".E c #454545",
"#O c #464646",
"aM c #474747",
"bR c #484559",
"ap c #484848",
"#j c #494949",
"ag c #4a4a4a",
"#3 c #4b4b4b",
"#9 c #4c4c4c",
"aN c #4d4d4d",
"#W c #4e4e4e",
"ay c #4f4b5d",
"a. c #4f4f4f",
".F c #505050",
"ao c #515151",
"bb c #525060",
"#g c #525252",
"#E c #534f60",
"#H c #535353",
"#N c #545062",
"#v c #545454",
"#U c #555163",
".Y c #555555",
"#1 c #565264",
"aD c #575757",
"#p c #585465",
"bP c #585766",
".3 c #595959",
"bC c #5a5868",
"a# c #5a5a5a",
"ah c #5b5b5b",
".0 c #5c5c5c",
"aa c #5d5d5d",
".Z c #5e5e5e",
"bj c #5f5d6a",
"#i c #5f5f5f",
"#y c #606060",
"#h c #616161",
"#w c #626262",
"#x c #636363",
"ba c #646464",
"bQ c #666571",
"bg c #666671",
"bI c #676671",
"bm c #6a6973",
"bs c #6f6e77",
"aL c #6f6f6f",
"#f c #707070",
"by c #76777d",
"#e c #777ea7",
"aF c #797c77",
"#m c #797ea6",
"ax c #797f8a",
"aP c #7b8285",
"bq c #7d7e83",
"a4 c #818884",
"aq c #888694",
"bw c #88888d",
"bH c #898a8e",
"b. c #8c94af",
"br c #909599",
"a0 c #919196",
"aX c #959886",
"aK c #97979a",
"#d c #999bb3",
"bD c #999c9a",
"bF c #999e9b",
"bf c #a2a6a1",
"#A c #a3a4a0",
"bG c #a3a8a3",
"aU c #a4a6a5",
".4 c #a5b3df",
"bk c #a6aba6",
"av c #a8a9a9",
"a9 c #a9aca9",
"aC c #aaacac",
"a1 c #aaaeae",
".u c #acacb4",
"bE c #aeb2ac",
"bx c #afb3ad",
".D c #c0c5d2",
"ai c #c5c6cd",
"#o c #c9c7ce",
".W c #c9cbce",
"#z c #cacbda",
"#4 c #cfcfd7",
".I c #d0d2e1",
"#X c #d1d0d7",
".s c #d2d3e2",
"af c #d8d7df",
".r c #dcdae0",
"#c c #dcdce0",
"#Q c #dcdce1",
"an c #dfdee2",
"#J c #e1e1e5",
"#t c #e3e3e8",
"#V c #e3e3eb",
"#2 c #e4e4eb",
"#8 c #e6e5ec",
"#F c #e7e7ed",
".p c #e9e8ea",
"#n c #f0f1f5",
".q c #f6f8ef",
".C c #f9f9f8",
".J c #f9f9f9",
".6 c #fbfbfb",
".t c #fbfff5",
".5 c #fcfcfe",
".V c #fffefd",
".U c #ffffff",
"QtQtQtQtQtQtQtQtQtQtQtQtQtQtQtQtQtQtQtQtQtQtQtQtQtQtQtQtQtQtQtQtQtQtQtQtQtQtQtQt",
"QtQtQtQtQtQtQtQtQtQtQtQtQtQtQtQtQtQtQtQtQtQtQtQtQtQtQtQtQtQtQtQtQtQtQtQtQtQtQtQt",
"QtQtQtQtQtQtQtQtQtQtQtQtQtQtQtQtQtQtQtQtQtQtQtQtQtQtQtQtQtQtQtQtQtQtQtQtQtQtQtQt",
"QtQtQtQtQtQtQtQtQtQtQtQtQtQtQtQtQtQtQtQtQtQtQtQtQtQtQtQtQtQtQtQtQtQtQtQtQtQtQtQt",
"QtQtQtQtQtQtQtQtQtQtQtQtQtQtQtQtQtQtQtQtQtQtQtQtQtQtQtQtQtQtQtQtQtQtQtQtQtQtQtQt",
"QtQtQtQtQtQtQtQtQtQtQtQtQtQtQtQtQtQtQtQtQtQtQtQtQtQtQtQtQtQtQtQtQtQtQtQtQtQtQtQt",
"QtQtQtQtQtQtQtQtQtQtQtQtQtQtQtQtQtQt.#.a.b.cQtQtQtQtQtQtQtQtQtQtQtQtQtQtQtQtQtQt",
"QtQtQtQtQtQtQtQtQtQtQtQtQtQtQtQtQtQt.d.e.d.dQtQtQtQtQtQtQtQtQtQtQtQtQtQtQtQtQtQt",
"QtQtQtQtQtQtQtQtQtQtQtQtQtQtQtQt.f.g.h.i.j.k.l.mQtQtQtQtQtQtQtQtQtQtQtQtQtQtQtQt",
"QtQtQtQtQtQtQtQtQtQtQtQtQtQtQt.n.o.p.q.r.s.t.u.v.wQtQtQtQtQtQtQtQtQtQtQtQtQtQtQt",
"QtQtQtQtQtQtQtQtQtQtQt.x.y.z.A.B.C.D.E.F.G.H.I.J.K.L.M.N.O.PQtQtQtQtQtQtQtQtQtQt",
"QtQtQtQtQtQtQtQtQt.Q.R.S.T.U.V.W.X.Y.Z.0.F.1.2.3.4.5.6.7.8.9#.QtQtQtQtQtQtQtQtQt",
"QtQtQtQtQtQtQt###a#b#c#d#e#f.G#g.0#h.Z#i#j#k#k#l#l.H#j#m#n#o#p#qQtQtQtQtQtQtQtQt",
"QtQtQtQtQtQtQt#r#s#t.X#k#u#v.0#h#w#x#x#y#j#u#u#u#k#k#l#k.0#z#A#B#CQtQtQtQtQtQtQt",
"QtQtQtQtQtQtQt#D#E#F#k#G#H#w#x#h#x#x#x#h.H#u#u#k#k#k#k#u#I#k#J#K#LQtQtQtQtQtQtQt",
"QtQtQtQtQtQtQt#M#N#F#u#O#g.3#i#x#x#x#x#h.2#u#u#u#k#u#u#u#u#P#Q#R#SQtQtQtQtQtQtQt",
"QtQtQtQtQtQtQt#T#U#V#k#W#g.Y.3#h#w#x#x#h#G#u#u#u#u#u#u#u#k#P#X#Y#ZQtQtQtQtQtQtQt",
"QtQtQtQtQtQtQt#0#1#2#l.F#g#3.3.0#h#x#x#h.1#u#u#u#u#u#u#u#u#P#4#5#6QtQtQtQtQtQtQt",
"QtQtQtQtQtQtQt#7#1#8#l#9.F#Wa.a#aa#y#y#h.1#u#u#u#kab#u#u#u#I#4ac#6QtQtQtQtQtQtQt",
"QtQtQtQtQtQtadae#Uaf#k.G.Fa.ag.Y.3ah#y#h.2#u#u#u#k.1#u#u#u#IaiajakQtQtQtQtQtQtQt",
"QtQtQtQtQtQtalam#Nan.1.1aoa.#3ap.F.3aa#h.2#u#u#u#k.2#l#u#uabaqar#ZQtQtQtQtQtQtQt",
"QtQtQtQtQtQtasatauav#w#u#ja.a.ag#j.Ya#a#.2#u#u#kaw.H.H#l#kaxayaz.dQtQtQtQtQtQtQt",
"QtQtQtQtQtQtQtQtaAaBaC.1.H#Wa.#W#j#jaDa#.2#u#k.Haw.Haw.1aEaFaGaH.dQtQtQtQtQtQtQt",
"QtQtQtQtQtQtQtQtaIaJaKaL#uaM#3a.agaNaN.3aO#u.H.H.H.H#uabaPaQaR.dQtQtQtQtQtQtQtQt",
"QtQtQtQtQtQtQtQtQtaSaTaUao#Gapa.a.a..F#v.G.HaV.H.H#k#PaWaXaY#Z.dQtQtQtQtQtQtQtQt",
"QtQtQtQtQtQtQtQtQtQtaZa0a1a2aO#ja..F#v#vaV.HaV.H#la3aEa4a5a6.dQt.dQtQtQtQtQtQtQt",
"QtQtQtQtQtQtQtQtQtQta7a8a9b.#IaOaN#v#v#vaV.H.H.1a3b#babbbc.#.dQtQtQtQtQtQtQtQtQt",
"QtQtQtQtQtQtQtQtQtQtQtbdbebf#j#law#g#v#vaV.H.2#I#PaDbgaGbh.dQtQtQtQtQtQtQtQtQtQt",
"QtQtQtQtQtQtQtQtQtQtQtQtbibjbka2aO.H#g#v.H#l#Ibl#ybmbnbo.d.dQtQtQtQtQtQtQtQtQtQt",
"QtQtQtQtQtQtQtQtQtQtQtQt.dbpbqbr#u#GawaN#P#Ia3.Ybsbtbu.d.dQtQtQtQtQtQtQtQtQtQtQt",
"QtQtQtQtQtQtQtQtQtQtQtQtQt.#bvbwbx#y#ua2#Pbl#hbybzbA.d.dQtQtQtQtQtQtQtQtQtQtQtQt",
"QtQtQtQtQtQtQtQtQtQtQtQtQtQt.#bBbCbDbEbFbGbHbIbJbK.d.dQtQtQtQtQtQtQtQtQtQtQtQtQt",
"QtQtQtQtQtQtQtQtQtQtQtQtQtQt.dbLbMbNbObPbQbRbSbT.dQtQtQt.dQtQtQtQtQtQtQtQtQtQtQt",
"QtQtQtQtQtQtQtQtQtQtQtQtQtQtQtQtbU.#bVbWbWbXbY.dQtQtQt.d.dQtQtQtQtQtQtQtQtQtQtQt",
"QtQtQtQtQtQtQtQtQtQtQtQtQtQtQtQtQt.d.d.d.d.dQtQtQtQtQtQtQtQtQtQtQtQtQtQtQtQtQtQt",
"QtQtQtQtQtQtQtQtQtQtQtQtQtQtQtQtQtQtQtbZb0QtQtQtQtQtQtQtQtQtQtQtQtQtQtQtQtQtQtQt",
"QtQtQtQtQtQtQtQtQtQtQtQtQtQtQtQtQtQtQtQtQtQtQtQtQtQtQtQtQtQtQtQtQtQtQtQtQtQtQtQt",
"QtQtQtQtQtQtQtQtQtQtQtQtQtQtQtQtQtQtQtQtQtQtQtQtQtQtQtQtQtQtQtQtQtQtQtQtQtQtQtQt",
"QtQtQtQtQtQtQtQtQtQtQtQtQtQtQtQtQtQtQtQtQtQtQtQtQtQtQtQtQtQtQtQtQtQtQtQtQtQtQtQt",
"QtQtQtQtQtQtQtQtQtQtQtQtQtQtQtQtQtQtQtQtQtQtQtQtQtQtQtQtQtQtQtQtQtQtQtQtQtQtQtQt"};
