/* XPM */
static char *dummy[]={
"40 40 371 2",
".d c None",
"a8 c None",
"at c None",
"aF c None",
"ag c None",
"dQ c None",
"cD c None",
"co c None",
"bV c None",
"dV c None",
"dW c None",
".c c None",
".e c None",
"Qt c None",
".# c #000000",
"da c #020303",
"dw c #060d06",
"#Q c #234a23",
"c. c #263a26",
".Q c #57705a",
"bn c #5a6a5a",
"aT c #6f7f72",
"a9 c #7a877b",
"dU c #000000",
"dR c #010201",
"dT c #010202",
"dl c #070f06",
"bG c #435947",
".b c #808e83",
".a c #f8f8f8",
"cQ c #152c16",
"aG c #425a47",
"c2 c #000000",
"bU c #0a1809",
"aU c #435d48",
"## c #4d6751",
"dH c #020502",
"dS c #020502",
"dG c #030603",
"b9 c #173716",
"au c #415b46",
"#w c #49644c",
"ah c #425c46",
"bo c #405a45",
"#a c #4f6953",
".P c #49664e",
"#4 c #445e49",
"b. c #405a45",
"#R c #46604b",
"#3 c #050c05",
"#x c #4b654f",
"cC c #0b1b0b",
"dP c #010202",
".x c #506a54",
".f c #506a54",
".m c #47604a",
"#. c #4b664e",
"db c #112810",
".w c #31503b",
".n c #506a54",
".O c #506a54",
"c3 c #091508",
".y c #506a54",
".R c #576e5b",
".N c #4f6953",
"dI c #0e210e",
".M c #4e6951",
".z c #516b55",
"dm c #1a371a",
"dx c #183518",
".L c #415e47",
".A c #59725c",
".g c #506a54",
".l c #556f5a",
"#P c #446047",
"dJ c #1c3c1a",
"cP c #173c17",
".o c #5b755f",
".v c #3d5a48",
".h c #617a64",
".j c #94a593",
"bW c #405846",
".i c #829682",
".k c #8b9f8b",
"dO c #1e421e",
"#y c #4b644f",
"cE c #415d44",
".K c #90a192",
".B c #a3b0a6",
"bF c #1d421b",
"#b c #6f8372",
".S c #8f9a90",
"bp c #4d6651",
".8 c #5e7863",
".9 c #4f6a52",
".T c #d5d9d7",
".7 c #d7ddd9",
"dF c #244b24",
"dv c #2a4f2b",
"c# c #5e7460",
"cn c #1f451d",
"bT c #1f481f",
"dK c #274c25",
"bH c #6b7e6d",
"cl c #148100",
"cz c #188600",
"bR c #197800",
"dr c #198500",
"cr c #1a8800",
"c8 c #1b8900",
"a5 c #1d7a0a",
"cM c #1d8d00",
"#Z c #1e7e0a",
"cL c #1e8e00",
"ad c #1f7f0a",
"aq c #1f810a",
"cY c #1f8f01",
"cy c #1f9000",
"c7 c #209101",
"ck c #209201",
"bm c #214a21",
"cZ c #218f01",
"cH c #219002",
"b6 c #219400",
"bk c #227609",
"#L c #227910",
"#0 c #227912",
"ab c #22880a",
"#I c #22890a",
"bh c #228d09",
"aR c #229303",
"de c #238908",
"aQ c #238a09",
"bx c #238f08",
"#J c #239109",
"ao c #239305",
"ds c #239401",
"#Y c #239407",
"b5 c #239503",
"#K c #24870d",
"bw c #24880a",
"#X c #248c09",
"a3 c #248d09",
"#m c #249009",
"dq c #249201",
"by c #249406",
"ac c #249505",
"#n c #249508",
"bC c #249605",
"cj c #249703",
"aS c #254c25",
"#p c #25900a",
".1 c #259308",
"#o c #259507",
"ap c #259606",
"cU c #259804",
"bB c #259a04",
"#C c #269400",
"#B c #269602",
"aW c #269700",
"a4 c #269905",
"a7 c #274c25",
"cB c #274c28",
"#6 c #279501",
"bs c #279701",
"aI c #279a01",
"bi c #279c06",
"cX c #279e05",
"dk c #284f28",
"aa c #28950a",
"aC c #289709",
"b4 c #289809",
"ba c #289902",
"bJ c #289b02",
"bb c #289c02",
"bj c #289c05",
"d# c #294e27",
".2 c #298f0d",
"a2 c #29960a",
"ax c #299703",
"bN c #29980a",
"cK c #299e06",
"bQ c #2aa403",
"#q c #2b8d12",
"an c #2b9e09",
"cs c #2ba305",
"cI c #2ba405",
".H c #2c8e13",
"df c #2ca407",
"bz c #2ca408",
"bP c #2da508",
"cV c #2da605",
"cc c #2da706",
"dg c #2da905",
"aE c #2e522e",
"#U c #2ea403",
"bO c #2ea609",
"bK c #2ea706",
"#W c #2ea708",
"c6 c #2eac06",
"cR c #2f542f",
"ci c #2fa709",
"bA c #2fa809",
"#A c #309b12",
"ch c #30a908",
"cx c #30ab08",
"cg c #31ac09",
"b8 c #325233",
"#r c #338523",
"#g c #33a809",
"aX c #33af07",
".G c #33b007",
"as c #345536",
".X c #34ae09",
"cT c #35931d",
".E c #36b707",
"bZ c #36b809",
"af c #37563a",
"#7 c #37b406",
"#2 c #38573b",
"be c #39b70a",
"cd c #39b908",
"#H c #3ac105",
"bt c #3bc009",
"bu c #3bc00b",
"ct c #3bc109",
"b1 c #3cc10a",
"aZ c #3cc20a",
"#l c #3cca05",
"aJ c #3dc209",
"bd c #3dc30b",
"b0 c #3dc50a",
"az c #3dc60b",
"b2 c #3fc60a",
"dh c #3fc808",
"aL c #40c70b",
"cb c #41ab1f",
"cJ c #41c809",
"bL c #41c90b",
"aY c #41ca0a",
"cu c #41cb0a",
"aM c #41d009",
"c0 c #427b38",
"di c #428d2d",
"ce c #42d10a",
"cv c #42d20a",
"dN c #436046",
"ak c #43ce0a",
"bc c #43d30b",
"ay c #44d10a",
"aK c #45d00c",
"bf c #45d609",
".F c #46df03",
".3 c #489b2f",
"cW c #48dd09",
"bE c #49634d",
"#M c #49943b",
"#8 c #49da0c",
"#V c #49dc0c",
"#h c #49eb05",
"al c #4be10a",
"cf c #4be309",
"cw c #4be50a",
"#D c #4bea05",
"a0 c #4ce509",
"#S c #4d6651",
".Y c #4df105",
"#5 c #4e6852",
"dp c #4ea134",
"cO c #4f6650",
"ai c #4f6953",
"dt c #4f893b",
"bM c #4ff307",
"av c #506a54",
"c9 c #50853e",
"b3 c #51fc06",
"#v c #526b56",
"cN c #527f47",
"br c #52ab35",
"#9 c #52fa06",
"am c #52fb05",
"aA c #53fb06",
"aN c #54f806",
"bv c #54ff04",
"bg c #55ff06",
"dL c #566b56",
"dy c #576e58",
"#i c #57ff05",
"a1 c #57ff06",
"aB c #58ff05",
".0 c #58ff06",
"a. c #5aff05",
".Z c #5aff06",
"aO c #5bff04",
"#G c #5bff05",
"c4 c #5c6f5e",
"aP c #5cff05",
"#k c #5cff06",
"#j c #5dff05",
"#E c #5eff05",
"a# c #5fff06",
"bY c #60a747",
"#f c #60ac49",
"#F c #61ff06",
"dM c #657665",
"c1 c #667565",
"dE c #667666",
"d. c #687769",
"dj c #6d7a6e",
"du c #788075",
"bS c #7d7679",
"dc c #7f857c",
"#s c #80b675",
"bD c #818f77",
"#e c #82b973",
"b7 c #848778",
"bl c #859987",
"dn c #888f88",
"cA c #89837f",
"dD c #8a8f88",
"cp c #919891",
"bX c #979b97",
"dd c #979c8f",
"cG c #97bb89",
"cm c #997f97",
"dz c #9d9a99",
"#d c #9dbd97",
"dB c #9f9997",
"#O c #a49ea3",
"ca c #a6a5a3",
"cS c #a79fa2",
"dC c #aaa3a3",
"bq c #aaaaa8",
"bI c #acaca9",
"c5 c #ada6a6",
"cF c #ada9a9",
".u c #adb8ac",
"cq c #afafa9",
"dA c #b3aaae",
"do c #b4abaf",
".4 c #b9f39f",
"#u c #c6d1c8",
"a6 c #c7d0c5",
".D c #c8d9bf",
".W c #ccd0c9",
"#N c #cce0c9",
"ar c #cfd9d0",
"aD c #d0dbcf",
".I c #d3e7ce",
".s c #d4e8d1",
"aV c #d6e2d7",
".r c #d9e2db",
"#c c #dce2dc",
"ae c #dce3dc",
"b# c #dee4e0",
"#1 c #e1e7e1",
"#z c #e3eae3",
"aH c #e4eee5",
"aj c #e4efe3",
"aw c #e5eee4",
".p c #e8ebe9",
"#T c #e8f0e7",
"#t c #f1f6ef",
".q c #f9ecf7",
".J c #f9f9f9",
".C c #faf8fa",
".6 c #fbfbfb",
".5 c #fcfffc",
".V c #fefcff",
".t c #fff2fc",
".U c #ffffff",
"QtQtQtQtQtQtQtQtQtQtQtQtQtQtQtQtQtQtQtQtQtQtQtQtQtQtQtQtQtQtQtQtQtQtQtQtQtQtQtQt",
"QtQtQtQtQtQtQtQtQtQtQtQtQtQtQtQtQtQtQtQtQtQtQtQtQtQtQtQtQtQtQtQtQtQtQtQtQtQtQtQt",
"QtQtQtQtQtQtQtQtQtQtQtQtQtQtQtQtQtQtQtQtQtQtQtQtQtQtQtQtQtQtQtQtQtQtQtQtQtQtQtQt",
"QtQtQtQtQtQtQtQtQtQtQtQtQtQtQtQtQtQtQtQtQtQtQtQtQtQtQtQtQtQtQtQtQtQtQtQtQtQtQtQt",
"QtQtQtQtQtQtQtQtQtQtQtQtQtQtQtQtQtQtQtQtQtQtQtQtQtQtQtQtQtQtQtQtQtQtQtQtQtQtQtQt",
"QtQtQtQtQtQtQtQtQtQtQtQtQtQtQtQtQtQtQtQtQtQtQtQtQtQtQtQtQtQtQtQtQtQtQtQtQtQtQtQt",
"QtQtQtQtQtQtQtQtQtQtQtQtQtQtQtQtQtQt.#.a.b.cQtQtQtQtQtQtQtQtQtQtQtQtQtQtQtQtQtQt",
"QtQtQtQtQtQtQtQtQtQtQtQtQtQtQtQtQtQt.d.e.d.dQtQtQtQtQtQtQtQtQtQtQtQtQtQtQtQtQtQt",
"QtQtQtQtQtQtQtQtQtQtQtQtQtQtQtQt.f.g.h.i.j.k.l.mQtQtQtQtQtQtQtQtQtQtQtQtQtQtQtQt",
"QtQtQtQtQtQtQtQtQtQtQtQtQtQtQt.n.o.p.q.r.s.t.u.v.wQtQtQtQtQtQtQtQtQtQtQtQtQtQtQt",
"QtQtQtQtQtQtQtQtQtQtQt.x.y.z.A.B.C.D.E.F.G.H.I.J.K.L.M.N.O.PQtQtQtQtQtQtQtQtQtQt",
"QtQtQtQtQtQtQtQtQt.Q.R.S.T.U.V.W.X.Y.Z.0.F.1.2.3.4.5.6.7.8.9#.QtQtQtQtQtQtQtQtQt",
"QtQtQtQtQtQtQt###a#b#c#d#e#f#g#h#i#j.Z#k#l#m#n#o#p#q#r#s#t#u#v#wQtQtQtQtQtQtQtQt",
"QtQtQtQtQtQtQt#x#y#z#A#B#C#D.0#j#E#F#F#G#H#I#I#J#n#n#K#L#M#N#O#P#QQtQtQtQtQtQtQt",
"QtQtQtQtQtQtQt#R#S#T#B#U#V#E#F#j#F#F#F#j#W#I#I#X#n#n#n#Y#Z#0#1#2#3QtQtQtQtQtQtQt",
"QtQtQtQtQtQtQt#4#5#T#6#7#8#9a.#F#F#F#Fa#aa#I#Iab#XacacacacadaeafagQtQtQtQtQtQtQt",
"QtQtQtQtQtQtQtahaiaj#Bak#8alama##E#F#Fa#an#I#I#I#IaoacacapaqarasatQtQtQtQtQtQtQt",
"QtQtQtQtQtQtQtauavawaxay#8azaAaB#E#F#Fa#aC#I#Iab#IaoacacacaqaDaEaFQtQtQtQtQtQtQt",
"QtQtQtQtQtQtQtaGavaHaIaJaKaLaMaNaBaOaP#j.1#I#I#IaQaRacacac#ZaDaSaFQtQtQtQtQtQtQt",
"QtQtQtQtQtQtaTaUaiaVaWaXaKaYaZa0aAa1aO#ja2#I#I#Ia3a4acacaca5a6a7a8QtQtQtQtQtQtQt",
"QtQtQtQtQtQta9b.#5b#babbbcaYbdbebfbgaB#ja2ab#IbhapbibjacacbkblbmatQtQtQtQtQtQtQt",
"QtQtQtQtQtQtbnbobpbqbrbsbtaYaYaZbua0bvbva2bwbxbybzbAbAbBbCbDbEbF.dQtQtQtQtQtQtQt",
"QtQtQtQtQtQtQtQtbGbHbIbJbKbLaYaLbububMbvbNbw#XbObPbAbPbQbRbSbTbU.dQtQtQtQtQtQtQt",
"QtQtQtQtQtQtQtQtbVbWbXbY#CbZb0aYb1b2b2b3b4#IbAbAbAbAb5b6b7b8b9.dQtQtQtQtQtQtQtQt",
"QtQtQtQtQtQtQtQtQtc.c#cacbcccdaYaYaYcecfcgbAchbAcicjckclcmcnat.dQtQtQtQtQtQtQtQt",
"QtQtQtQtQtQtQtQtQtQtcocpcqcrcsctcucvcwcwcxbAchcibjcyczcAcBcC.dQt.dQtQtQtQtQtQtQt",
"QtQtQtQtQtQtQtQtQtQtcDcEcFcGcHcIcJcwcwcwchbAbAcKcLcMcNcOcP.#.dQtQtQtQtQtQtQtQtQt",
"QtQtQtQtQtQtQtQtQtQtQtcQcRcScTcUcVcWcwcfchbAcXcYcZc0c1bTc2.dQtQtQtQtQtQtQtQtQtQt",
"QtQtQtQtQtQtQtQtQtQtQtQtc3c4c5crcsc6cWcfbAbjc7c8c9d.d#da.d.dQtQtQtQtQtQtQtQtQtQt",
"QtQtQtQtQtQtQtQtQtQtQtQt.ddbdcdddedfdgdhckcYcLdidjdkdl.d.dQtQtQtQtQtQtQtQtQtQtQt",
"QtQtQtQtQtQtQtQtQtQtQtQtQt.#dmdndodpdqdrdsc8dtdudvdw.d.dQtQtQtQtQtQtQtQtQtQtQtQt",
"QtQtQtQtQtQtQtQtQtQtQtQtQtQt.#dxdydzdAdBdCdDdEdFdG.d.dQtQtQtQtQtQtQtQtQtQtQtQtQt",
"QtQtQtQtQtQtQtQtQtQtQtQtQtQt.ddHdIdJdKdLdMdNdOdP.dQtQtQt.dQtQtQtQtQtQtQtQtQtQtQt",
"QtQtQtQtQtQtQtQtQtQtQtQtQtQtQtQtdQ.#dRdSdSdTdU.dQtQtQt.d.dQtQtQtQtQtQtQtQtQtQtQt",
"QtQtQtQtQtQtQtQtQtQtQtQtQtQtQtQtQt.d.d.d.d.dQtQtQtQtQtQtQtQtQtQtQtQtQtQtQtQtQtQt",
"QtQtQtQtQtQtQtQtQtQtQtQtQtQtQtQtQtQtQtdVdWQtQtQtQtQtQtQtQtQtQtQtQtQtQtQtQtQtQtQt",
"QtQtQtQtQtQtQtQtQtQtQtQtQtQtQtQtQtQtQtQtQtQtQtQtQtQtQtQtQtQtQtQtQtQtQtQtQtQtQtQt",
"QtQtQtQtQtQtQtQtQtQtQtQtQtQtQtQtQtQtQtQtQtQtQtQtQtQtQtQtQtQtQtQtQtQtQtQtQtQtQtQt",
"QtQtQtQtQtQtQtQtQtQtQtQtQtQtQtQtQtQtQtQtQtQtQtQtQtQtQtQtQtQtQtQtQtQtQtQtQtQtQtQt",
"QtQtQtQtQtQtQtQtQtQtQtQtQtQtQtQtQtQtQtQtQtQtQtQtQtQtQtQtQtQtQtQtQtQtQtQtQtQtQtQt"};
