/* XPM */
static char * 2_xpm[] = {
"40 40 319 2",
"  	c None",
". 	c #636D50",
"+ 	c #747D61",
"@ 	c #959982",
"# 	c #A4A793",
"$ 	c #9EA28B",
"% 	c #657154",
"& 	c #5A6347",
"* 	c #6E785B",
"= 	c #E9EBE8",
"- 	c #EFEAF9",
"; 	c #DFE3D9",
"> 	c #E8EBD1",
", 	c #F7F1FF",
"' 	c #B7B9AC",
") 	c #495D3C",
"! 	c #415331",
"~ 	c #646E51",
"{ 	c #6C7559",
"] 	c #AAB1A3",
"^ 	c #F8F8FA",
"/ 	c #DBD7BE",
"( 	c #C8BF02",
"_ 	c #F4E200",
": 	c #C1B902",
"< 	c #9A9B10",
"[ 	c #E8E9CE",
"} 	c #F9F9F9",
"| 	c #9DA390",
"1 	c #526140",
"2 	c #616C4D",
"3 	c #626C4F",
"4 	c #5B6948",
"5 	c #6A7357",
"6 	c #677157",
"7 	c #959B8E",
"8 	c #D7DAD5",
"9 	c #FFFFFF",
"0 	c #FCFDFF",
"a 	c #D1CFC9",
"b 	c #BEB605",
"c 	c #FFE800",
"d 	c #FFDC00",
"e 	c #FFDE00",
"f 	c #A1A105",
"g 	c #9B9C0A",
"h 	c #A5A42D",
"i 	c #FBF39D",
"j 	c #FFFFFC",
"k 	c #FBFBFB",
"l 	c #DBDED7",
"m 	c #6E7A5D",
"n 	c #626D4E",
"o 	c #5E694A",
"p 	c #7E866F",
"q 	c #E1E2DC",
"r 	c #BDC096",
"s 	c #C0C071",
"t 	c #B6B547",
"u 	c #B7B005",
"v 	c #FFEB00",
"w 	c #FFDF00",
"x 	c #FFD900",
"y 	c #FFDA00",
"z 	c #DDD000",
"A 	c #9B9E06",
"B 	c #A0A305",
"C 	c #A3A404",
"D 	c #9B9D07",
"E 	c #999A0F",
"F 	c #899021",
"G 	c #BABD74",
"H 	c #F7F6EF",
"I 	c #CCD2C6",
"J 	c #636D52",
"K 	c #5C6748",
"L 	c #5C664B",
"M 	c #EAEBE3",
"N 	c #A9A70E",
"O 	c #A4A200",
"P 	c #A3A000",
"Q 	c #FFE900",
"R 	c #FFD800",
"S 	c #FFD500",
"T 	c #FFDB00",
"U 	c #D3C600",
"V 	c #939607",
"W 	c #9B9F06",
"X 	c #8F930A",
"Y 	c #7E840E",
"Z 	c #969D3A",
"` 	c #E0E3C9",
" .	c #A09EA4",
"..	c #596344",
"+.	c #5E684D",
"@.	c #F0F1E7",
"#.	c #B3AC00",
"$.	c #F0DD05",
"%.	c #B7B304",
"&.	c #979906",
"*.	c #9FA204",
"=.	c #848B08",
"-.	c #7D8410",
";.	c #E6E7E1",
">.	c #505A38",
",.	c #616B4E",
"'.	c #A4A100",
").	c #C5B901",
"!.	c #EEDD06",
"~.	c #FFE400",
"{.	c #FFD700",
"].	c #A3A206",
"^.	c #929507",
"/.	c #A2A302",
"(.	c #868B07",
"_.	c #E3E4DC",
":.	c #4F5937",
"<.	c #EEF0E3",
"[.	c #E0D004",
"}.	c #F5E004",
"|.	c #ADAA05",
"1.	c #A1A202",
"2.	c #A3A403",
"3.	c #888D07",
"4.	c #D6DACF",
"5.	c #4E5933",
"6.	c #EEF0E4",
"7.	c #A6A100",
"8.	c #E4D305",
"9.	c #D8CC06",
"0.	c #FFE200",
"a.	c #A5A506",
"b.	c #DADCCF",
"c.	c #4D562D",
"d.	c #EBEFE4",
"e.	c #A8A500",
"f.	c #D4C503",
"g.	c #E2D206",
"h.	c #D9CB05",
"i.	c #E2D203",
"j.	c #FFE100",
"k.	c #959706",
"l.	c #A0A100",
"m.	c #455024",
"n.	c #DFE3D6",
"o.	c #A6A400",
"p.	c #BFB602",
"q.	c #DCCC04",
"r.	c #D4C905",
"s.	c #FAE402",
"t.	c #A5A406",
"u.	c #999B06",
"v.	c #A8A701",
"w.	c #7F8508",
"x.	c #D1D1C4",
"y.	c #475024",
"z.	c #E2E5DE",
"A.	c #A8A400",
"B.	c #ABA800",
"C.	c #E6D705",
"D.	c #D5CA06",
"E.	c #C7BD05",
"F.	c #E9D703",
"G.	c #979B06",
"H.	c #AAA902",
"I.	c #ABA901",
"J.	c #818007",
"K.	c #949B84",
"L.	c #434E20",
"M.	c #AAA8A8",
"N.	c #B7B231",
"O.	c #A5A100",
"P.	c #D1C604",
"Q.	c #D2C806",
"R.	c #FFE300",
"S.	c #949507",
"T.	c #9A9D05",
"U.	c #A2A303",
"V.	c #B3AF04",
"W.	c #B8B405",
"X.	c #A8A700",
"Y.	c #A4A301",
"Z.	c #928C76",
"`.	c #5C6649",
" +	c #3D461A",
".+	c #525B43",
"++	c #79806A",
"@+	c #ADAAA9",
"#+	c #A9A500",
"$+	c #B7B202",
"%+	c #DBCD05",
"&+	c #FFE600",
"*+	c #A6A607",
"=+	c #B6B306",
"-+	c #B5B205",
";+	c #B4B100",
">+	c #828500",
",+	c #7B757D",
"'+	c #414C1E",
")+	c #171909",
"!+	c #4E5A40",
"~+	c #9B9C97",
"{+	c #B0AB44",
"]+	c #C9C204",
"^+	c #D6C904",
"/+	c #D2C705",
"(+	c #D8CA04",
"_+	c #A6A605",
":+	c #A3A400",
"<+	c #A1A300",
"[+	c #887F78",
"}+	c #4E5632",
"|+	c #333B15",
"1+	c #393D26",
"2+	c #6F765E",
"3+	c #A6A3A4",
"4+	c #B8B31C",
"5+	c #B7B302",
"6+	c #CABF03",
"7+	c #E3D304",
"8+	c #F7E303",
"9+	c #BBB605",
"0+	c #B9B404",
"a+	c #B6B205",
"b+	c #A6A600",
"c+	c #9EA000",
"d+	c #838E00",
"e+	c #847C99",
"f+	c #414A1C",
"g+	c #989991",
"h+	c #B0AAA9",
"i+	c #8F9500",
"j+	c #B2AE01",
"k+	c #D3C804",
"l+	c #DDCE05",
"m+	c #E5D604",
"n+	c #F9E503",
"o+	c #BAB504",
"p+	c #9A9E00",
"q+	c #8B9300",
"r+	c #8A7E83",
"s+	c #485126",
"t+	c #171C0A",
"u+	c #566041",
"v+	c #AEA9AD",
"w+	c #C0BC87",
"x+	c #9D9E00",
"y+	c #B4B001",
"z+	c #DAC903",
"A+	c #ADAB02",
"B+	c #999D00",
"C+	c #989C00",
"D+	c #848545",
"E+	c #62694F",
"F+	c #394017",
"G+	c #000000",
"H+	c #282F15",
"I+	c #51582F",
"J+	c #A79FA7",
"K+	c #9EA01A",
"L+	c #A7A600",
"M+	c #B6B101",
"N+	c #F0DC02",
"O+	c #ADAC01",
"P+	c #9B9E00",
"Q+	c #9D9D00",
"R+	c #7D8237",
"S+	c #747765",
"T+	c #151708",
"U+	c #6A715B",
"V+	c #ADA5AC",
"W+	c #BCB702",
"X+	c #9C9F00",
"Y+	c #929700",
"Z+	c #8C893C",
"`+	c #747968",
" @	c #495226",
".@	c #020402",
"+@	c #252B0F",
"@@	c #86867C",
"#@	c #9D978F",
"$@	c #959605",
"%@	c #B4B104",
"&@	c #B9B401",
"*@	c #DACA02",
"=@	c #96962B",
"-@	c #787C6D",
";@	c #485327",
">@	c #0F1006",
",@	c #343A1A",
"'@	c #8F9088",
")@	c #B3AAB4",
"!@	c #ACA932",
"~@	c #A1A000",
"{@	c #8C9300",
"]@	c #A2A200",
"^@	c #918E39",
"/@	c #818175",
"(@	c #4B5429",
"_@	c #0D0E06",
":@	c #323818",
"<@	c #6A7157",
"[@	c #9E999C",
"}@	c #B2A9B3",
"|@	c #9F979B",
"1@	c #AAA2A9",
"2@	c #908F88",
"3@	c #727765",
"4@	c #444F23",
"5@	c #060603",
"6@	c #050502",
"7@	c #1F230E",
"8@	c #393F1A",
"9@	c #686E55",
"0@	c #747865",
"a@	c #596343",
"b@	c #3D461D",
"c@	c #010301",
"d@	c #020201",
"                                                                                ",
"                                                                                ",
"                                                                                ",
"                                                                                ",
"                                                                                ",
"                                                                                ",
"                                                                                ",
"                                                                                ",
"                                . . + @ # $ % &                                 ",
"                              . * = - ; > , ' ) !                               ",
"                      . . ~ { ] ^ / ( _ : < [ } | 1 2 3 . 4                     ",
"                  5 6 7 8 9 0 a b c d e _ f g h i j k l m n o                   ",
"                3 p q r s t u v w x d y z A B C D E F G H I J K                 ",
"                L M N O P Q e x R S S T U V V W B B X Y Z `  ...                ",
"                +.@.O #.$.R S x S S S x %.V V &.B B B *.=.-.;.>.                ",
"                ,.@.'.).!.~.d S S S S {.].V V ^.&././././.(._.:.                ",
"                3 <.O [.!.}.~.{.R S S {.|.V V V V 1././.2.3.4.5.                ",
"                . 6.7.8.!.9.0.w R S S {.a.V V ^.V 1./././.3.b.c.                ",
"                . d.e.f.g.h.i.j.e T T x f V V V k.l./././.=.b.m.                ",
"                3 n.o.p.g.q.r.s.0.w T x t.V V V u.v./././.w.x.y.                ",
"                ,.z.A.B.C.q.D.E.F.j.e x t.^.V G.2.H.I././.J.K.L.                ",
"                +.M.N.O.P.q.q.r.Q.s.R.R.t.S.T.U.V.W.W.X.Y.Z.`. +                ",
"                .+++@+#+$+%+q.h.Q.Q.&+R.*+S.&.=+-+W.-+;+>+,+'+)+                ",
"                  !+~+{+P ]+^+q./+(+(+~._+V W.W.W.W.:+<+[+}+|+                  ",
"                  1+2+3+4+5+6+q.q.q.7+8+9+W.0+W.a+b+c+d+e+f+                    ",
"                      g+h+i+j+k+l+m+n+n+o+W.0+a+I.p+q+r+s+t+                    ",
"                      u+v+w+x+y+z+n+n+n+0+W.W.A+B+C+D+E+F+G+                    ",
"                      H+I+J+K+L+M+N+n+8+0+W.O+P+Q+R+S+'+G+                      ",
"                        T+U+V+i+j+W+N+8+W.I.X+Y+Z+`+ @.@                        ",
"                          +@@@#@$@%@&@*@c+P+B+=@-@;@>@                          ",
"                          G+,@'@)@!@~@{@]@Y+^@/@(@_@                            ",
"                            G+:@<@[@}@|@1@2@3@4@5@                              ",
"                              6@7@8@y.9@0@a@b@c@                                ",
"                                  G+d@6@6@c@G+                                  ",
"                                                                                ",
"                                                                                ",
"                                                                                ",
"                                                                                ",
"                                                                                ",
"                                                                                "};
