/* XPM */
static char *dummy[]={
"40 40 363 2",
".d c None",
"a2 c None",
"aC c None",
"ar c None",
"af c None",
"dI c None",
"cv c None",
"cg c None",
"bO c None",
"dN c None",
"dO c None",
".c c None",
".e c None",
"Qt c None",
".# c #000000",
"c4 c #020402",
"do c #0d0e06",
"b2 c #393d26",
"#Q c #434e22",
"bg c #666b59",
".Q c #6a7357",
"aO c #78806e",
"a3 c #85897a",
"dM c #000000",
"dL c #010301",
"dJ c #020201",
"dd c #0f1006",
"bz c #525b43",
".b c #88907f",
".a c #f8f8f8",
"cI c #282f15",
"aD c #515d41",
"cU c #000000",
"bN c #171909",
"aP c #535f42",
"## c #606a4d",
"dz c #050502",
"dK c #050502",
"dy c #060603",
"b1 c #333b15",
"as c #515d40",
"#w c #5c6748",
"ag c #555f42",
"bh c #505c3f",
"#a c #626c4f",
".P c #5b6948",
"#4 c #546043",
"a4 c #505c3f",
"#R c #566245",
"#3 c #0c0d05",
"#x c #5e684b",
"cu c #171c0a",
"dH c #010301",
".x c #636d50",
".f c #636d50",
".m c #5a6347",
"#. c #5e694a",
"c5 c #252b0f",
".w c #415331",
".n c #636d50",
".O c #636d50",
"cV c #151708",
".y c #636d50",
".R c #677157",
".N c #626c4f",
"dA c #1f230e",
".M c #616c4d",
".z c #646e51",
"de c #343a1a",
"dp c #323818",
".L c #526140",
".A c #6c7559",
".g c #636d50",
".l c #657154",
"#P c #596344",
"dB c #393f1a",
"cH c #394017",
".o c #6e785b",
".v c #495d3c",
".h c #747d61",
".j c #a4a793",
"bP c #4e5a40",
".i c #959982",
".k c #9ea28b",
"dG c #3d461d",
"#y c #5c664b",
"cw c #566041",
".K c #9da390",
".B c #aab1a3",
"by c #3d461a",
"#b c #7e866f",
".S c #959b8e",
"bi c #5e684d",
".8 c #6e7a5d",
".9 c #626d4e",
".T c #d7dad5",
".7 c #dbded7",
"dx c #444f23",
"dn c #4b5429",
"b3 c #6f765e",
"cf c #414a1c",
"bM c #414c1e",
"dC c #475024",
"bA c #79806a",
"bf c #434e20",
"aN c #455024",
"a1 c #475024",
"ct c #485126",
"dc c #485327",
"c3 c #495226",
"aB c #4d562d",
"b0 c #4e5632",
"aq c #4e5933",
"ae c #4f5937",
"#2 c #505a38",
"cJ c #51582f",
"dF c #596343",
"bx c #5c6649",
"#S c #5e684d",
"#5 c #616b4e",
"cG c #62694f",
"ah c #626c4f",
"at c #636d50",
"#v c #636d52",
"dD c #686e55",
"dq c #6a7157",
"cW c #6a715b",
"dw c #727765",
"cT c #747765",
"dE c #747865",
"c2 c #747968",
"db c #787c6d",
"bL c #7b757d",
"cS c #7d8237",
"#0 c #7d8410",
"#L c #7e840e",
"aZ c #7f8508",
"bd c #818007",
"dm c #818175",
"bK c #828500",
"cd c #838e00",
"ce c #847c99",
"cF c #848545",
"#Z c #848b08",
"c6 c #86867c",
"ac c #868b07",
"bZ c #887f78",
"ao c #888d07",
"#r c #899021",
"cs c #8a7e83",
"cr c #8b9300",
"c1 c #8c893c",
"dj c #8c9300",
"df c #8f9088",
"#K c #8f930a",
"cj c #8f9500",
"dv c #908f88",
"dl c #918e39",
"bw c #928c76",
"aa c #929507",
"c0 c #929700",
"#I c #939607",
"bp c #949507",
"be c #949b84",
"c8 c #959605",
"aL c #959706",
"da c #96962b",
"#M c #969d3a",
"#X c #979906",
"ba c #979b06",
"ch c #989991",
"cE c #989c00",
"#q c #999a0f",
"aX c #999b06",
"cD c #999d00",
".H c #9a9b10",
"bq c #9a9d05",
"cq c #9a9e00",
".2 c #9b9c0a",
"bQ c #9b9c97",
"#p c #9b9d07",
"cQ c #9b9e00",
"#m c #9b9e06",
"#J c #9b9f06",
"cZ c #9c9f00",
"c7 c #9d978f",
"cR c #9d9d00",
"cz c #9d9e00",
"dr c #9e999c",
"cc c #9ea000",
"cL c #9ea01a",
"dt c #9f979b",
"#Y c #9fa204",
"#O c #a09ea4",
"aM c #a0a100",
"#n c #a0a305",
"di c #a1a000",
".1 c #a1a105",
"am c #a1a202",
"bY c #a1a300",
"dk c #a2a200",
"ab c #a2a302",
"br c #a2a303",
"#C c #a3a000",
"a# c #a3a206",
"bX c #a3a400",
"an c #a3a403",
"#o c #a3a404",
"#6 c #a4a100",
"#B c #a4a200",
"bv c #a4a301",
"bl c #a5a100",
"aW c #a5a406",
".3 c #a5a42d",
"az c #a5a506",
"av c #a6a100",
"b4 c #a6a3a4",
"aR c #a6a400",
"cb c #a6a600",
"bW c #a6a605",
"bG c #a6a607",
"cK c #a79fa7",
"cM c #a7a600",
"a6 c #a8a400",
"aF c #a8a500",
"bu c #a8a700",
"aY c #a8a701",
"bC c #a9a500",
"#A c #a9a70e",
"du c #aaa2a9",
"bj c #aaa8a8",
"bb c #aaa902",
"a7 c #aba800",
"bc c #aba901",
"dh c #aca932",
"cX c #ada5ac",
"al c #adaa05",
"bB c #adaaa9",
"cC c #adab02",
"cP c #adac01",
"cx c #aea9ad",
"ci c #b0aaa9",
"bR c #b0ab44",
"ds c #b2a9b3",
"ck c #b2ae01",
"dg c #b3aab4",
"#U c #b3ac00",
"bs c #b3af04",
"cA c #b4b001",
"bJ c #b4b100",
"c9 c #b4b104",
"bI c #b5b205",
"cN c #b6b101",
"ca c #b6b205",
"bH c #b6b306",
"#f c #b6b547",
"#g c #b7b005",
"bD c #b7b202",
"bk c #b7b231",
"b6 c #b7b302",
"#W c #b7b304",
".u c #b7b9ac",
"b5 c #b8b31c",
"bt c #b8b405",
"d. c #b9b401",
"c# c #b9b404",
"cp c #bab504",
"#s c #babd74",
"c. c #bbb605",
"cY c #bcb702",
"#d c #bdc096",
".X c #beb605",
"aS c #bfb602",
"cy c #c0bc87",
"#e c #c0c071",
".G c #c1b902",
"#7 c #c5b901",
"b. c #c7bd05",
".E c #c8bf02",
"bS c #c9c204",
"b7 c #cabf03",
"#u c #ccd2c6",
"bm c #d1c604",
".W c #d1cfc9",
"a0 c #d1d1c4",
"bU c #d2c705",
"bn c #d2c806",
"#H c #d3c600",
"cl c #d3c804",
"aG c #d4c503",
"aU c #d4c905",
"a9 c #d5ca06",
"bT c #d6c904",
"ap c #d6dacf",
"bV c #d8ca04",
"ax c #d8cc06",
"aI c #d9cb05",
"cB c #dac903",
"d# c #daca02",
"aA c #dadccf",
"bE c #dbcd05",
".D c #dbd7be",
"aT c #dccc04",
"cm c #ddce05",
"#l c #ddd000",
"aQ c #dfe3d6",
".r c #dfe3d9",
"aj c #e0d004",
"#N c #e0e3c9",
"#c c #e1e2dc",
"aJ c #e2d203",
"aH c #e2d206",
"a5 c #e2e5de",
"b8 c #e3d304",
"ad c #e3e4dc",
"aw c #e4d305",
"cn c #e5d604",
"a8 c #e6d705",
"#1 c #e6e7e1",
".I c #e8e9ce",
".s c #e8ebd1",
"b# c #e9d703",
".p c #e9ebe8",
"#z c #eaebe3",
"aE c #ebefe4",
"#8 c #eedd06",
"ai c #eef0e3",
"au c #eef0e4",
".q c #efeaf9",
"cO c #f0dc02",
"#V c #f0dd05",
"#T c #f0f1e7",
".F c #f4e200",
"ak c #f5e004",
"b9 c #f7e303",
".t c #f7f1ff",
"#t c #f7f6ef",
".C c #f8f8fa",
"co c #f9e503",
".J c #f9f9f9",
"aV c #fae402",
".4 c #fbf39d",
".6 c #fbfbfb",
".V c #fcfdff",
"#F c #ffd500",
"a. c #ffd700",
"#E c #ffd800",
"#j c #ffd900",
"#k c #ffda00",
"#G c #ffdb00",
".Z c #ffdc00",
".0 c #ffde00",
"#i c #ffdf00",
"aK c #ffe100",
"ay c #ffe200",
"bo c #ffe300",
"#9 c #ffe400",
"bF c #ffe600",
".Y c #ffe800",
"#D c #ffe900",
"#h c #ffeb00",
".5 c #fffffc",
".U c #ffffff",
"QtQtQtQtQtQtQtQtQtQtQtQtQtQtQtQtQtQtQtQtQtQtQtQtQtQtQtQtQtQtQtQtQtQtQtQtQtQtQtQt",
"QtQtQtQtQtQtQtQtQtQtQtQtQtQtQtQtQtQtQtQtQtQtQtQtQtQtQtQtQtQtQtQtQtQtQtQtQtQtQtQt",
"QtQtQtQtQtQtQtQtQtQtQtQtQtQtQtQtQtQtQtQtQtQtQtQtQtQtQtQtQtQtQtQtQtQtQtQtQtQtQtQt",
"QtQtQtQtQtQtQtQtQtQtQtQtQtQtQtQtQtQtQtQtQtQtQtQtQtQtQtQtQtQtQtQtQtQtQtQtQtQtQtQt",
"QtQtQtQtQtQtQtQtQtQtQtQtQtQtQtQtQtQtQtQtQtQtQtQtQtQtQtQtQtQtQtQtQtQtQtQtQtQtQtQt",
"QtQtQtQtQtQtQtQtQtQtQtQtQtQtQtQtQtQtQtQtQtQtQtQtQtQtQtQtQtQtQtQtQtQtQtQtQtQtQtQt",
"QtQtQtQtQtQtQtQtQtQtQtQtQtQtQtQtQtQt.#.a.b.cQtQtQtQtQtQtQtQtQtQtQtQtQtQtQtQtQtQt",
"QtQtQtQtQtQtQtQtQtQtQtQtQtQtQtQtQtQt.d.e.d.dQtQtQtQtQtQtQtQtQtQtQtQtQtQtQtQtQtQt",
"QtQtQtQtQtQtQtQtQtQtQtQtQtQtQtQt.f.g.h.i.j.k.l.mQtQtQtQtQtQtQtQtQtQtQtQtQtQtQtQt",
"QtQtQtQtQtQtQtQtQtQtQtQtQtQtQt.n.o.p.q.r.s.t.u.v.wQtQtQtQtQtQtQtQtQtQtQtQtQtQtQt",
"QtQtQtQtQtQtQtQtQtQtQt.x.y.z.A.B.C.D.E.F.G.H.I.J.K.L.M.N.O.PQtQtQtQtQtQtQtQtQtQt",
"QtQtQtQtQtQtQtQtQt.Q.R.S.T.U.V.W.X.Y.Z.0.F.1.2.3.4.5.6.7.8.9#.QtQtQtQtQtQtQtQtQt",
"QtQtQtQtQtQtQt###a#b#c#d#e#f#g#h#i#j.Z#k#l#m#n#o#p#q#r#s#t#u#v#wQtQtQtQtQtQtQtQt",
"QtQtQtQtQtQtQt#x#y#z#A#B#C#D.0#j#E#F#F#G#H#I#I#J#n#n#K#L#M#N#O#P#QQtQtQtQtQtQtQt",
"QtQtQtQtQtQtQt#R#S#T#B#U#V#E#F#j#F#F#F#j#W#I#I#X#n#n#n#Y#Z#0#1#2#3QtQtQtQtQtQtQt",
"QtQtQtQtQtQtQt#4#5#T#6#7#8#9.Z#F#F#F#Fa.a##I#Iaa#XababababacadaeafQtQtQtQtQtQtQt",
"QtQtQtQtQtQtQtagahai#Baj#8ak#9a.#E#F#Fa.al#I#I#I#IamababanaoapaqarQtQtQtQtQtQtQt",
"QtQtQtQtQtQtQtasatauavaw#8axay#i#E#F#Fa.az#I#Iaa#IamabababaoaAaBaCQtQtQtQtQtQtQt",
"QtQtQtQtQtQtQtaDataEaFaGaHaIaJaK.0#G#G#j.1#I#I#IaLaMababab#ZaAaNaCQtQtQtQtQtQtQt",
"QtQtQtQtQtQtaOaPahaQaRaSaHaTaUaVay#i#G#jaW#I#I#IaXaYabababaZa0a1a2QtQtQtQtQtQtQt",
"QtQtQtQtQtQta3a4#5a5a6a7a8aTa9b.b#aK.0#jaWaa#IbaanbbbcababbdbebfarQtQtQtQtQtQtQt",
"QtQtQtQtQtQtbgbhbibjbkblbmaTaTaUbnaVboboaWbpbqbrbsbtbtbubvbwbxby.dQtQtQtQtQtQtQt",
"QtQtQtQtQtQtQtQtbzbAbBbCbDbEaTaIbnbnbFbobGbp#XbHbIbtbIbJbKbLbMbN.dQtQtQtQtQtQtQt",
"QtQtQtQtQtQtQtQtbObPbQbR#CbSbTaTbUbVbV#9bW#IbtbtbtbtbXbYbZb0b1.dQtQtQtQtQtQtQtQt",
"QtQtQtQtQtQtQtQtQtb2b3b4b5b6b7aTaTaTb8b9c.btc#btcacbcccdcecfar.dQtQtQtQtQtQtQtQt",
"QtQtQtQtQtQtQtQtQtQtcgchcicjckclcmcncococpbtc#cabccqcrcsctcu.dQt.dQtQtQtQtQtQtQt",
"QtQtQtQtQtQtQtQtQtQtcvcwcxcyczcAcBcocococ#btbtcCcDcEcFcGcH.#.dQtQtQtQtQtQtQtQtQt",
"QtQtQtQtQtQtQtQtQtQtQtcIcJcKcLcMcNcOcob9c#btcPcQcRcScTbMcU.dQtQtQtQtQtQtQtQtQtQt",
"QtQtQtQtQtQtQtQtQtQtQtQtcVcWcXcjckcYcOb9btbccZc0c1c2c3c4.d.dQtQtQtQtQtQtQtQtQtQt",
"QtQtQtQtQtQtQtQtQtQtQtQt.dc5c6c7c8c9d.d#cccQcDdadbdcdd.d.dQtQtQtQtQtQtQtQtQtQtQt",
"QtQtQtQtQtQtQtQtQtQtQtQtQt.#dedfdgdhdidjdkc0dldmdndo.d.dQtQtQtQtQtQtQtQtQtQtQtQt",
"QtQtQtQtQtQtQtQtQtQtQtQtQtQt.#dpdqdrdsdtdudvdwdxdy.d.dQtQtQtQtQtQtQtQtQtQtQtQtQt",
"QtQtQtQtQtQtQtQtQtQtQtQtQtQt.ddzdAdBdCdDdEdFdGdH.dQtQtQt.dQtQtQtQtQtQtQtQtQtQtQt",
"QtQtQtQtQtQtQtQtQtQtQtQtQtQtQtQtdI.#dJdKdKdLdM.dQtQtQt.d.dQtQtQtQtQtQtQtQtQtQtQt",
"QtQtQtQtQtQtQtQtQtQtQtQtQtQtQtQtQt.d.d.d.d.dQtQtQtQtQtQtQtQtQtQtQtQtQtQtQtQtQtQt",
"QtQtQtQtQtQtQtQtQtQtQtQtQtQtQtQtQtQtQtdNdOQtQtQtQtQtQtQtQtQtQtQtQtQtQtQtQtQtQtQt",
"QtQtQtQtQtQtQtQtQtQtQtQtQtQtQtQtQtQtQtQtQtQtQtQtQtQtQtQtQtQtQtQtQtQtQtQtQtQtQtQt",
"QtQtQtQtQtQtQtQtQtQtQtQtQtQtQtQtQtQtQtQtQtQtQtQtQtQtQtQtQtQtQtQtQtQtQtQtQtQtQtQt",
"QtQtQtQtQtQtQtQtQtQtQtQtQtQtQtQtQtQtQtQtQtQtQtQtQtQtQtQtQtQtQtQtQtQtQtQtQtQtQtQt",
"QtQtQtQtQtQtQtQtQtQtQtQtQtQtQtQtQtQtQtQtQtQtQtQtQtQtQtQtQtQtQtQtQtQtQtQtQtQtQtQt"};
