/* XPM */
static char * 3_xpm[] = {
"40 40 329 2",
"  	c None",
". 	c #6A6A51",
"+ 	c #797962",
"@ 	c #959382",
"# 	c #A4A193",
"$ 	c #9E9C8B",
"% 	c #6C6E55",
"& 	c #5F5F48",
"* 	c #75755C",
"= 	c #EBEBE8",
"- 	c #EDECF9",
"; 	c #E1E2D9",
"> 	c #E7E1D1",
", 	c #F4F2FF",
"' 	c #B8B6AC",
") 	c #52593D",
"! 	c #494F32",
"~ 	c #6B6B52",
"{ 	c #71715A",
"] 	c #AEB0A3",
"^ 	c #F8F8FA",
"/ 	c #D8CCBF",
"( 	c #B17109",
"_ 	c #D87F05",
": 	c #AB6D08",
"< 	c #8A6314",
"[ 	c #E6DFCE",
"} 	c #F9F9F9",
"| 	c #A1A190",
"1 	c #5A5D41",
"2 	c #68684E",
"3 	c #696950",
"4 	c #636549",
"5 	c #6F6F58",
"6 	c #6C6E57",
"7 	c #9A9A8F",
"8 	c #D8D9D5",
"9 	c #FFFFFF",
"0 	c #FCFEFF",
"a 	c #D0CCC9",
"b 	c #A96E0B",
"c 	c #EA8A07",
"d 	c #FF9209",
"e 	c #FF9308",
"f 	c #8F6209",
"g 	c #8B620E",
"h 	c #977330",
"i 	c #F0CEA0",
"j 	c #FFFEFC",
"k 	c #FBFBFB",
"l 	c #DCDDD7",
"m 	c #75775E",
"n 	c #69694F",
"o 	c #65654B",
"p 	c #83836F",
"q 	c #E2E1DC",
"r 	c #BBB197",
"s 	c #B6A174",
"t 	c #A9884A",
"u 	c #A2690B",
"v 	c #E48707",
"w 	c #FB9008",
"x 	c #FF8E08",
"y 	c #FF8F08",
"z 	c #C47907",
"A 	c #8C640B",
"B 	c #906509",
"C 	c #916408",
"D 	c #8B630B",
"E 	c #896213",
"F 	c #826823",
"G 	c #B4A175",
"H 	c #F6F3EF",
"I 	c #D0D0C7",
"J 	c #686A52",
"K 	c #636349",
"L 	c #61634B",
"M 	c #EAE9E3",
"N 	c #976A13",
"O 	c #915E03",
"P 	c #8F5B02",
"Q 	c #E38607",
"R 	c #FF8D08",
"S 	c #FF8B09",
"T 	c #FF8C0A",
"U 	c #FF9008",
"V 	c #BB7307",
"W 	c #85600B",
"X 	c #8C640A",
"Y 	c #83600E",
"Z 	c #755911",
"` 	c #917A3C",
" .	c #DFD9C9",
"..	c #9F9FA4",
"+.	c #5F5F44",
"@.	c #63654D",
"#.	c #F0EEE7",
"$.	c #9F6404",
"%.	c #D6830E",
"&.	c #A26B09",
"*.	c #875F0A",
"=.	c #8F6408",
"-.	c #7A5B0B",
";.	c #765C13",
">.	c #E7E6E1",
",.	c #565539",
"'.	c #68684F",
").	c #905C03",
"!.	c #AF6D08",
"~.	c #D4830E",
"{.	c #F28E09",
"].	c #FF9108",
"^.	c #FF8D09",
"/.	c #90630B",
"(.	c #845F0B",
"_.	c #906407",
":.	c #7B5A0B",
"<.	c #E3E2DC",
"[.	c #555438",
"}.	c #EFEDE3",
"|.	c #C87C0C",
"1.	c #DA830C",
"2.	c #F48E07",
"3.	c #99670A",
"4.	c #8F6206",
"5.	c #916508",
"6.	c #7D5C0B",
"7.	c #D9D9CF",
"8.	c #545234",
"9.	c #EEECE4",
"0.	c #925E05",
"a.	c #CB7C0C",
"b.	c #C07B0D",
"c.	c #F48F09",
"d.	c #FD9108",
"e.	c #92640A",
"f.	c #DBD9CF",
"g.	c #514E2E",
"h.	c #EEEEE4",
"i.	c #956003",
"j.	c #BC740A",
"k.	c #CA7E0E",
"l.	c #C1790D",
"m.	c #C97C0B",
"n.	c #F18B09",
"o.	c #FD9007",
"p.	c #FF8F07",
"q.	c #865E0A",
"r.	c #8E6205",
"s.	c #4B4725",
"t.	c #E1E1D6",
"u.	c #925E02",
"v.	c #A96B08",
"w.	c #C47A0C",
"x.	c #BC780C",
"y.	c #DE850B",
"z.	c #FA9109",
"A.	c #92640B",
"B.	c #89610A",
"C.	c #946306",
"D.	c #76570B",
"E.	c #D0CDC5",
"F.	c #4A4425",
"G.	c #E3E4DE",
"H.	c #946004",
"I.	c #976204",
"J.	c #CD800D",
"K.	c #BD790D",
"L.	c #B1720C",
"M.	c #CF7E0B",
"N.	c #F78F08",
"O.	c #FF9207",
"P.	c #89630A",
"Q.	c #976607",
"R.	c #976406",
"S.	c #724E0A",
"T.	c #989885",
"U.	c #484421",
"V.	c #AAA8A8",
"W.	c #A87F36",
"X.	c #925E03",
"Y.	c #BA760B",
"Z.	c #BA780D",
"`.	c #F99107",
" +	c #845D0B",
".+	c #8B630A",
"++	c #906307",
"@+	c #9E6A0A",
"#+	c #A36C0A",
"$+	c #956405",
"%+	c #916306",
"&+	c #8F8377",
"*+	c #63634A",
"=+	c #403A1B",
"-+	c #585843",
";+	c #7D7D6B",
">+	c #ACAAAA",
",+	c #966104",
"'+	c #A26B08",
")+	c #C37B0D",
"!+	c #EC8C09",
"~+	c #93650B",
"{+	c #A16D0B",
"]+	c #A06C0A",
"^+	c #9F6804",
"/+	c #744D00",
"(+	c #79767D",
"_+	c #46421F",
":+	c #171409",
"<+	c #545741",
"[+	c #9B9A97",
"}+	c #A48148",
"|+	c #B2730A",
"1+	c #BF780B",
"2+	c #BB770C",
"3+	c #C0780C",
"4+	c #F49008",
"5+	c #93650A",
"6+	c #906104",
"7+	c #8F5E01",
"8+	c #877A79",
"9+	c #514E32",
"0+	c #363116",
"a+	c #393726",
"b+	c #73725E",
"c+	c #A6A3A5",
"d+	c #A67721",
"e+	c #A26B07",
"f+	c #B4720A",
"g+	c #CA7D0C",
"h+	c #DC860C",
"i+	c #A66F0B",
"j+	c #A46D0A",
"k+	c #A26B0A",
"l+	c #926104",
"m+	c #8D5F02",
"n+	c #7C5A00",
"o+	c #808199",
"p+	c #443E1D",
"q+	c #989791",
"r+	c #AFAAAB",
"s+	c #835A00",
"t+	c #9E6706",
"u+	c #BB770B",
"v+	c #C57A0C",
"w+	c #CC7F0C",
"x+	c #DE880C",
"y+	c #A56E0A",
"z+	c #8B5F02",
"A+	c #815A00",
"B+	c #897F86",
"C+	c #4B4727",
"D+	c #1A180B",
"E+	c #5C5C41",
"F+	c #ACA9AD",
"G+	c #BAA689",
"H+	c #8B5D03",
"I+	c #9F6806",
"J+	c #C2770B",
"K+	c #996607",
"L+	c #8A5D01",
"M+	c #895C00",
"N+	c #7D6C47",
"O+	c #65644F",
"P+	c #3A3617",
"Q+	c #000000",
"R+	c #2B2A15",
"S+	c #524E2F",
"T+	c #A5A0A7",
"U+	c #8F6A1D",
"V+	c #936205",
"W+	c #A16A07",
"X+	c #D6820B",
"Y+	c #996606",
"Z+	c #8B5E02",
"`+	c #8A5A02",
" @	c #786638",
".@	c #757265",
"+@	c #151308",
"@@	c #6E6E5C",
"#@	c #ACA6AD",
"$@	c #A66D08",
"%@	c #8C6003",
"&@	c #855A00",
"*@	c #83693E",
"=@	c #767569",
"-@	c #4C4627",
";@	c #020302",
">@	c #282510",
",@	c #85817C",
"'@	c #9C938F",
")@	c #845B09",
"!@	c #9F6B09",
"~@	c #A46B07",
"{@	c #C2780A",
"]@	c #8A6B2E",
"^@	c #7A7A6D",
"/@	c #4E4A28",
"(@	c #0F0D06",
"_@	c #36331A",
":@	c #8F8E88",
"<@	c #AFABB3",
"[@	c #9E7835",
"}@	c #8E5E03",
"|@	c #805900",
"1@	c #8F5F03",
"2@	c #876B3C",
"3@	c #7F7B75",
"4@	c #4E4A2A",
"5@	c #0D0C06",
"6@	c #343118",
"7@	c #6D6C57",
"8@	c #9D999D",
"9@	c #AEAAB2",
"0@	c #9E979C",
"a@	c #A9A3AA",
"b@	c #8F8C88",
"c@	c #757366",
"d@	c #4A4624",
"e@	c #060503",
"f@	c #050402",
"g@	c #201E0E",
"h@	c #3A341A",
"i@	c #6B6856",
"j@	c #757365",
"k@	c #5F5E44",
"l@	c #413E1E",
"m@	c #010201",
"n@	c #020201",
"                                                                                ",
"                                                                                ",
"                                                                                ",
"                                                                                ",
"                                                                                ",
"                                                                                ",
"                                                                                ",
"                                                                                ",
"                                . . + @ # $ % &                                 ",
"                              . * = - ; > , ' ) !                               ",
"                      . . ~ { ] ^ / ( _ : < [ } | 1 2 3 . 4                     ",
"                  5 6 7 8 9 0 a b c d e _ f g h i j k l m n o                   ",
"                3 p q r s t u v w x d y z A B C D E F G H I J K                 ",
"                L M N O P Q e x R S T U V W W X B B Y Z `  ...+.                ",
"                @.#.O $.%.R S x T T T x &.W W *.B B B =.-.;.>.,.                ",
"                '.#.).!.~.{.].S T T T ^./.W W (.*._._._._.:.<.[.                ",
"                3 }.O |.~.1.2.^.R S T ^.3.W W W W 4._._.5.6.7.8.                ",
"                . 9.0.a.~.b.c.d.R T T ^.e.W W (.W 4._._._.6.f.g.                ",
"                . h.i.j.k.l.m.n.o.p.y x f W W W q.r._._._.-.f.s.                ",
"                3 t.u.v.k.w.x.y.c.z.p.x A.W W W B.C._._._.D.E.F.                ",
"                '.G.H.I.J.w.K.L.M.N.O.x A.(.W P.5.Q.R._._.S.T.U.                ",
"                @.V.W.X.Y.w.w.x.Z.y.`.`.A. +.+++@+#+#+$+%+&+*+=+                ",
"                -+;+>+,+'+)+w.l.Z.Z.!+`.~+ +*.{+]+#+]+^+/+(+_+:+                ",
"                  <+[+}+P |+1+w.2+3+3+4+5+W #+#+#+#+6+7+8+9+0+                  ",
"                  a+b+c+d+e+f+w.w.w.g+h+i+#+j+#+k+l+m+n+o+p+                    ",
"                      q+r+s+t+u+v+w+x+x+y+#+j+k+R.z+A+B+C+D+                    ",
"                      E+F+G+H+I+J+x+x+x+j+#+#+K+L+M+N+O+P+Q+                    ",
"                      R+S+T+U+V+W+X+x+h+j+#+Y+Z+`+ @.@_+Q+                      ",
"                        +@@@#@s+t+$@X+h+#+R.%@&@*@=@-@;@                        ",
"                          >@,@'@)@!@~@{@m+Z+L+]@^@/@(@                          ",
"                          Q+_@:@<@[@}@|@1@&@2@3@4@5@                            ",
"                            Q+6@7@8@9@0@a@b@c@d@e@                              ",
"                              f@g@h@F.i@j@k@l@m@                                ",
"                                  Q+n@f@f@m@Q+                                  ",
"                                                                                ",
"                                                                                ",
"                                                                                ",
"                                                                                ",
"                                                                                ",
"                                                                                "};
