/* XPM */
static char *dummy[]={
"40 40 373 2",
".d c None",
"a9 c None",
"aG c None",
"au c None",
"ah c None",
"dS c None",
"cF c None",
"cq c None",
"bX c None",
"dX c None",
"dY c None",
".c c None",
".e c None",
"Qt c None",
".# c #000000",
"dc c #020302",
"dy c #0d0c06",
"ca c #393726",
"#R c #494523",
"bp c #69675a",
".Q c #6f6f58",
"aU c #7d7e6f",
"b. c #87877a",
"dW c #000000",
"dV c #010201",
"dT c #020201",
"dn c #0f0d06",
"bI c #585843",
".b c #8d8e80",
".a c #f8f8f8",
"cS c #2b2a15",
"aH c #565942",
"c4 c #000000",
"bW c #171409",
"aV c #5a5c43",
"## c #67674e",
"dJ c #050402",
"dU c #050402",
"dI c #060503",
"c# c #363116",
"av c #585a41",
"#w c #636349",
"ai c #5c5c43",
"bq c #575940",
"#a c #696950",
".P c #636549",
"#5 c #5b5d44",
"b# c #575940",
"#S c #5d5f46",
"#4 c #0c0b05",
"#x c #65654c",
"cE c #1a180b",
"dR c #010201",
".x c #6a6a51",
".f c #6a6a51",
".m c #5f5f48",
"#. c #65654b",
"dd c #282510",
".w c #494f32",
".n c #6a6a51",
".O c #6a6a51",
"c5 c #151308",
".y c #6a6a51",
".R c #6c6e57",
".N c #696950",
"dK c #201e0e",
".M c #68684e",
".z c #6b6b52",
"do c #36331a",
"dz c #343118",
".L c #5a5d41",
".A c #71715a",
".g c #6a6a51",
".l c #6c6e55",
"#Q c #5f5f44",
"dL c #3a341a",
"cR c #3a3617",
".o c #75755c",
".v c #52593d",
".h c #797962",
".j c #a4a193",
"bY c #545741",
".i c #959382",
".k c #9e9c8b",
"dQ c #413e1e",
"#y c #61634b",
"cG c #5c5c41",
".K c #a1a190",
".B c #aeb0a3",
"bH c #403a1b",
"#b c #83836f",
".S c #9a9a8f",
"br c #63654d",
".8 c #75775e",
".9 c #69694f",
".T c #d8d9d5",
".7 c #dcddd7",
"dH c #4a4624",
"dx c #4e4a2a",
"cb c #73725e",
"cp c #443e1d",
"bV c #46421f",
"dM c #4a4425",
"bJ c #7d7d6b",
"bo c #484421",
"a8 c #4a4425",
"aT c #4b4725",
"cD c #4b4727",
"db c #4c4627",
"dm c #4e4a28",
"aF c #514e2e",
"c. c #514e32",
"cT c #524e2f",
"at c #545234",
"ag c #555438",
"#3 c #565539",
"dP c #5f5e44",
"bG c #63634a",
"#T c #63654d",
"cQ c #65644f",
"#6 c #68684f",
"#v c #686a52",
"aj c #696950",
"aw c #6a6a51",
"dN c #6b6856",
"dA c #6d6c57",
"c6 c #6e6e5c",
"bm c #724e0a",
"bT c #744d00",
"#M c #755911",
"c3 c #757265",
"dO c #757365",
"dG c #757366",
"a6 c #76570b",
"#1 c #765c13",
"da c #767569",
"c2 c #786638",
"bU c #79767d",
"#0 c #7a5b0b",
"dl c #7a7a6d",
"ae c #7b5a0b",
"cn c #7c5a00",
"ar c #7d5c0b",
"cP c #7d6c47",
"dw c #7f7b75",
"dt c #805900",
"co c #808199",
"cB c #815a00",
"#r c #826823",
"ct c #835a00",
"#L c #83600e",
"d# c #83693e",
"dg c #845b09",
"by c #845d0b",
"ac c #845f0b",
"d. c #855a00",
"#J c #85600b",
"de c #85817c",
"aR c #865e0a",
"#Y c #875f0a",
"dv c #876b3c",
"b9 c #877a79",
"cO c #895c00",
"a4 c #89610a",
"#q c #896213",
"bj c #89630a",
"cC c #897f86",
"c1 c #8a5a02",
"cN c #8a5d01",
".H c #8a6314",
"dk c #8a6b2e",
"cJ c #8b5d03",
"c0 c #8b5e02",
"cA c #8b5f02",
".2 c #8b620e",
"bz c #8b630a",
"#p c #8b630b",
"c9 c #8c6003",
"#K c #8c640a",
"#m c #8c640b",
"cm c #8d5f02",
"ds c #8e5e03",
"aS c #8e6205",
"#C c #8f5b02",
"b8 c #8f5e01",
"du c #8f5f03",
"ap c #8f6206",
".1 c #8f6209",
"#Z c #8f6408",
"cV c #8f6a1d",
"bF c #8f8377",
"dF c #8f8c88",
"dp c #8f8e88",
"#7 c #905c03",
"b7 c #906104",
"bA c #906307",
"ab c #90630b",
"ad c #906407",
"#n c #906509",
"#B c #915e03",
"bE c #916306",
"#o c #916408",
"aq c #916508",
"#N c #917a3c",
"aX c #925e02",
"bu c #925e03",
"ay c #925e05",
"cl c #926104",
"aD c #92640a",
"a3 c #92640b",
"cW c #936205",
"b6 c #93650a",
"bP c #93650b",
"bb c #946004",
"a5 c #946306",
"aJ c #956003",
"bD c #956405",
"bL c #966104",
"bc c #976204",
"bl c #976406",
"bk c #976607",
"#A c #976a13",
".3 c #977330",
"cr c #989791",
"bn c #989885",
"cZ c #996606",
"cM c #996607",
"ao c #99670a",
"bZ c #9b9a97",
"df c #9c938f",
"dB c #9d999d",
"cu c #9e6706",
"bB c #9e6a0a",
"dr c #9e7835",
"dD c #9e979c",
"#V c #9f6404",
"bS c #9f6804",
"cK c #9f6806",
"dh c #9f6b09",
"#P c #9f9fa4",
"bR c #a06c0a",
"cX c #a16a07",
"bQ c #a16d0b",
"#g c #a2690b",
"ce c #a26b07",
"bM c #a26b08",
"#X c #a26b09",
"ck c #a26b0a",
"bC c #a36c0a",
"di c #a46b07",
"cj c #a46d0a",
"b0 c #a48148",
"cz c #a56e0a",
"cU c #a5a0a7",
"c8 c #a66d08",
"ci c #a66f0b",
"cd c #a67721",
"cc c #a6a3a5",
"bt c #a87f36",
"aY c #a96b08",
".X c #a96e0b",
"#f c #a9884a",
"dE c #a9a3aa",
"bs c #aaa8a8",
".G c #ab6d08",
"c7 c #aca6ad",
"cH c #aca9ad",
"bK c #acaaaa",
"dC c #aeaab2",
"#8 c #af6d08",
"cs c #afaaab",
"dq c #afabb3",
".E c #b17109",
"bf c #b1720c",
"b1 c #b2730a",
"cf c #b4720a",
"#s c #b4a175",
"#e c #b6a174",
".u c #b8b6ac",
"bv c #ba760b",
"bw c #ba780d",
"cI c #baa689",
"#I c #bb7307",
"cv c #bb770b",
"b3 c #bb770c",
"#d c #bbb197",
"aK c #bc740a",
"a0 c #bc780c",
"be c #bd790d",
"b2 c #bf780b",
"b4 c #c0780c",
"aA c #c07b0d",
"aM c #c1790d",
"cL c #c2770b",
"dj c #c2780a",
"bN c #c37b0d",
"#l c #c47907",
"aZ c #c47a0c",
"cw c #c57a0c",
"al c #c87c0c",
"aN c #c97c0b",
"cg c #ca7d0c",
"aL c #ca7e0e",
"az c #cb7c0c",
"cx c #cc7f0c",
"bd c #cd800d",
"bg c #cf7e0b",
".W c #d0ccc9",
"a7 c #d0cdc5",
"#u c #d0d0c7",
"#9 c #d4830e",
"cY c #d6820b",
"#W c #d6830e",
".F c #d87f05",
".D c #d8ccbf",
"as c #d9d9cf",
"am c #da830c",
"aE c #dbd9cf",
"ch c #dc860c",
"a1 c #de850b",
"cy c #de880c",
"#O c #dfd9c9",
"aW c #e1e1d6",
".r c #e1e2d9",
"#c c #e2e1dc",
"#D c #e38607",
"af c #e3e2dc",
"ba c #e3e4de",
"#h c #e48707",
".I c #e6dfce",
".s c #e7e1d1",
"#2 c #e7e6e1",
".Y c #ea8a07",
"#z c #eae9e3",
".p c #ebebe8",
"bO c #ec8c09",
".q c #edecf9",
"ax c #eeece4",
"aI c #eeeee4",
"ak c #efede3",
".4 c #f0cea0",
"#U c #f0eee7",
"aO c #f18b09",
"a. c #f28e09",
"an c #f48e07",
"aB c #f48f09",
"b5 c #f49008",
".t c #f4f2ff",
"#t c #f6f3ef",
"bh c #f78f08",
".C c #f8f8fa",
"bx c #f99107",
".J c #f9f9f9",
"a2 c #fa9109",
"#i c #fb9008",
".6 c #fbfbfb",
".V c #fcfeff",
"aP c #fd9007",
"aC c #fd9108",
"#F c #ff8b09",
"#G c #ff8c0a",
"#E c #ff8d08",
"aa c #ff8d09",
"#j c #ff8e08",
"aQ c #ff8f07",
"#k c #ff8f08",
"#H c #ff9008",
"a# c #ff9108",
"bi c #ff9207",
".Z c #ff9209",
".0 c #ff9308",
".5 c #fffefc",
".U c #ffffff",
"QtQtQtQtQtQtQtQtQtQtQtQtQtQtQtQtQtQtQtQtQtQtQtQtQtQtQtQtQtQtQtQtQtQtQtQtQtQtQtQt",
"QtQtQtQtQtQtQtQtQtQtQtQtQtQtQtQtQtQtQtQtQtQtQtQtQtQtQtQtQtQtQtQtQtQtQtQtQtQtQtQt",
"QtQtQtQtQtQtQtQtQtQtQtQtQtQtQtQtQtQtQtQtQtQtQtQtQtQtQtQtQtQtQtQtQtQtQtQtQtQtQtQt",
"QtQtQtQtQtQtQtQtQtQtQtQtQtQtQtQtQtQtQtQtQtQtQtQtQtQtQtQtQtQtQtQtQtQtQtQtQtQtQtQt",
"QtQtQtQtQtQtQtQtQtQtQtQtQtQtQtQtQtQtQtQtQtQtQtQtQtQtQtQtQtQtQtQtQtQtQtQtQtQtQtQt",
"QtQtQtQtQtQtQtQtQtQtQtQtQtQtQtQtQtQtQtQtQtQtQtQtQtQtQtQtQtQtQtQtQtQtQtQtQtQtQtQt",
"QtQtQtQtQtQtQtQtQtQtQtQtQtQtQtQtQtQt.#.a.b.cQtQtQtQtQtQtQtQtQtQtQtQtQtQtQtQtQtQt",
"QtQtQtQtQtQtQtQtQtQtQtQtQtQtQtQtQtQt.d.e.d.dQtQtQtQtQtQtQtQtQtQtQtQtQtQtQtQtQtQt",
"QtQtQtQtQtQtQtQtQtQtQtQtQtQtQtQt.f.g.h.i.j.k.l.mQtQtQtQtQtQtQtQtQtQtQtQtQtQtQtQt",
"QtQtQtQtQtQtQtQtQtQtQtQtQtQtQt.n.o.p.q.r.s.t.u.v.wQtQtQtQtQtQtQtQtQtQtQtQtQtQtQt",
"QtQtQtQtQtQtQtQtQtQtQt.x.y.z.A.B.C.D.E.F.G.H.I.J.K.L.M.N.O.PQtQtQtQtQtQtQtQtQtQt",
"QtQtQtQtQtQtQtQtQt.Q.R.S.T.U.V.W.X.Y.Z.0.F.1.2.3.4.5.6.7.8.9#.QtQtQtQtQtQtQtQtQt",
"QtQtQtQtQtQtQt###a#b#c#d#e#f#g#h#i#j.Z#k#l#m#n#o#p#q#r#s#t#u#v#wQtQtQtQtQtQtQtQt",
"QtQtQtQtQtQtQt#x#y#z#A#B#C#D.0#j#E#F#G#H#I#J#J#K#n#n#L#M#N#O#P#Q#RQtQtQtQtQtQtQt",
"QtQtQtQtQtQtQt#S#T#U#B#V#W#E#F#j#G#G#G#j#X#J#J#Y#n#n#n#Z#0#1#2#3#4QtQtQtQtQtQtQt",
"QtQtQtQtQtQtQt#5#6#U#7#8#9a.a##F#G#G#Gaaab#J#Jac#YadadadadaeafagahQtQtQtQtQtQtQt",
"QtQtQtQtQtQtQtaiajak#Bal#9amanaa#E#F#Gaaao#J#J#J#JapadadaqarasatauQtQtQtQtQtQtQt",
"QtQtQtQtQtQtQtavawaxayaz#9aAaBaC#E#G#GaaaD#J#Jac#JapadadadaraEaFaGQtQtQtQtQtQtQt",
"QtQtQtQtQtQtQtaHawaIaJaKaLaMaNaOaPaQ#k#j.1#J#J#JaRaSadadad#0aEaTaGQtQtQtQtQtQtQt",
"QtQtQtQtQtQtaUaVajaWaXaYaLaZa0a1aBa2aQ#ja3#J#J#Ja4a5adadada6a7a8a9QtQtQtQtQtQtQt",
"QtQtQtQtQtQtb.b##6babbbcbdaZbebfbgbhbi#ja3ac#JbjaqbkbladadbmbnboauQtQtQtQtQtQtQt",
"QtQtQtQtQtQtbpbqbrbsbtbubvaZaZa0bwa1bxbxa3bybzbAbBbCbCbDbEbFbGbH.dQtQtQtQtQtQtQt",
"QtQtQtQtQtQtQtQtbIbJbKbLbMbNaZaMbwbwbObxbPby#YbQbRbCbRbSbTbUbVbW.dQtQtQtQtQtQtQt",
"QtQtQtQtQtQtQtQtbXbYbZb0#Cb1b2aZb3b4b4b5b6#JbCbCbCbCb7b8b9c.c#.dQtQtQtQtQtQtQtQt",
"QtQtQtQtQtQtQtQtQtcacbcccdcecfaZaZaZcgchcibCcjbCckclcmcncocpau.dQtQtQtQtQtQtQtQt",
"QtQtQtQtQtQtQtQtQtQtcqcrcsctcucvcwcxcycyczbCcjckblcAcBcCcDcE.dQt.dQtQtQtQtQtQtQt",
"QtQtQtQtQtQtQtQtQtQtcFcGcHcIcJcKcLcycycycjbCbCcMcNcOcPcQcR.#.dQtQtQtQtQtQtQtQtQt",
"QtQtQtQtQtQtQtQtQtQtQtcScTcUcVcWcXcYcychcjbCcZc0c1c2c3bVc4.dQtQtQtQtQtQtQtQtQtQt",
"QtQtQtQtQtQtQtQtQtQtQtQtc5c6c7ctcuc8cYchbCblc9d.d#dadbdc.d.dQtQtQtQtQtQtQtQtQtQt",
"QtQtQtQtQtQtQtQtQtQtQtQt.ddddedfdgdhdidjcmc0cNdkdldmdn.d.dQtQtQtQtQtQtQtQtQtQtQt",
"QtQtQtQtQtQtQtQtQtQtQtQtQt.#dodpdqdrdsdtdud.dvdwdxdy.d.dQtQtQtQtQtQtQtQtQtQtQtQt",
"QtQtQtQtQtQtQtQtQtQtQtQtQtQt.#dzdAdBdCdDdEdFdGdHdI.d.dQtQtQtQtQtQtQtQtQtQtQtQtQt",
"QtQtQtQtQtQtQtQtQtQtQtQtQtQt.ddJdKdLdMdNdOdPdQdR.dQtQtQt.dQtQtQtQtQtQtQtQtQtQtQt",
"QtQtQtQtQtQtQtQtQtQtQtQtQtQtQtQtdS.#dTdUdUdVdW.dQtQtQt.d.dQtQtQtQtQtQtQtQtQtQtQt",
"QtQtQtQtQtQtQtQtQtQtQtQtQtQtQtQtQt.d.d.d.d.dQtQtQtQtQtQtQtQtQtQtQtQtQtQtQtQtQtQt",
"QtQtQtQtQtQtQtQtQtQtQtQtQtQtQtQtQtQtQtdXdYQtQtQtQtQtQtQtQtQtQtQtQtQtQtQtQtQtQtQt",
"QtQtQtQtQtQtQtQtQtQtQtQtQtQtQtQtQtQtQtQtQtQtQtQtQtQtQtQtQtQtQtQtQtQtQtQtQtQtQtQt",
"QtQtQtQtQtQtQtQtQtQtQtQtQtQtQtQtQtQtQtQtQtQtQtQtQtQtQtQtQtQtQtQtQtQtQtQtQtQtQtQt",
"QtQtQtQtQtQtQtQtQtQtQtQtQtQtQtQtQtQtQtQtQtQtQtQtQtQtQtQtQtQtQtQtQtQtQtQtQtQtQtQt",
"QtQtQtQtQtQtQtQtQtQtQtQtQtQtQtQtQtQtQtQtQtQtQtQtQtQtQtQtQtQtQtQtQtQtQtQtQtQtQtQt"};
