/* XPM */
static char *dummy[]={
"40 40 203 2",
".d c None",
"#T c None",
"#E c None",
"#y c None",
"#K c None",
"bc c None",
"as c None",
"am c None",
"ab c None",
"bh c None",
"bi c None",
".c c None",
".e c None",
"Qt c None",
".# c #000000",
"aI c #030203",
"aU c #06060b",
"#n c #26243f",
"ah c #272634",
".O c #5b5869",
"#Z c #5b5a65",
"#O c #73707b",
"#U c #7c7b84",
"bg c #000000",
"bd c #010102",
"bf c #020102",
"aO c #06060c",
"#6 c #474453",
".b c #84818b",
".a c #f8f8f8",
"ay c #181626",
"#L c #484354",
"aC c #000000",
"aa c #0a0a14",
"#P c #494456",
".5 c #534f61",
"a5 c #020204",
"be c #020204",
"a4 c #030305",
"ag c #17162d",
"#F c #474254",
"#f c #4e4a5d",
"#z c #484456",
"#0 c #464153",
".6 c #555163",
".N c #4f4a5e",
"#u c #4a4557",
"#V c #464153",
"#o c #4c4759",
"#t c #05050a",
"#g c #514d5f",
"ar c #0c0b16",
"bb c #020102",
".x c #565264",
".f c #565264",
".m c #4b4859",
".4 c #504c5f",
"aJ c #121122",
".w c #3b3348",
".n c #565264",
".M c #565264",
"aD c #090912",
".y c #565264",
".P c #5d5969",
".L c #555163",
"a6 c #0f0e1b",
".K c #534f62",
".z c #575365",
"aP c #1c1b2f",
"aV c #1a192d",
".J c #494357",
".A c #5d5a6b",
".g c #565264",
".l c #5b5668",
"#m c #494659",
"a7 c #1b1b32",
"ax c #1a1932",
".o c #615d6f",
".v c #473e52",
".h c #656273",
".j c #9494a0",
"ac c #474252",
".i c #838290",
".k c #8c8b99",
"ba c #211f38",
"#h c #514d5e",
"at c #464356",
".I c #92909c",
".B c #a6a3ac",
"#5 c #1d1c37",
".7 c #73707e",
".Q c #918f97",
"#1 c #534f60",
".2 c #645f71",
".3 c #545063",
".R c #d6d5d8",
".1 c #d8d7db",
"a3 c #272540",
"aT c #2d2b45",
"ai c #615f6e",
"al c #1f1e3a",
"a# c #22203c",
"a8 c #272641",
"#7 c #6e6c79",
"#Y c #24223e",
"#S c #272641",
"#N c #282641",
"aH c #292843",
"aq c #2a2842",
"aN c #2b2944",
"#J c #312f48",
"az c #32314a",
"af c #36344a",
"#D c #38354c",
"#x c #3c394e",
"#s c #3d3a4f",
"b# c #484559",
"#4 c #4f4b5d",
"aw c #525060",
"#p c #534f60",
"#v c #545062",
"#A c #555163",
"#G c #565264",
"#e c #585465",
"a9 c #585766",
"aW c #5a5868",
"aE c #5f5d6a",
"b. c #666571",
"aB c #666671",
"a2 c #676671",
"aG c #6a6973",
"aM c #6f6e77",
"aS c #76777d",
"#. c #777ea7",
"a. c #797c77",
"#b c #797ea6",
"#3 c #797f8a",
"ae c #7b8285",
"aK c #7d7e83",
"ap c #818884",
"#X c #888694",
"aQ c #88888d",
"a1 c #898a8e",
"av c #8c94af",
"aL c #909599",
"an c #919196",
"ak c #959886",
"ad c #97979a",
".9 c #999bb3",
"aX c #999c9a",
"aZ c #999e9b",
"aA c #a2a6a1",
"#l c #a3a4a0",
"a0 c #a3a8a3",
"aj c #a4a6a5",
".Y c #a5b3df",
"aF c #a6aba6",
"#2 c #a8a9a9",
"au c #a9aca9",
"#8 c #aaacac",
"ao c #aaaeae",
".u c #acacb4",
"aY c #aeb2ac",
"aR c #afb3ad",
".D c #c0c5d2",
"#R c #c5c6cd",
"#d c #c9c7ce",
".U c #c9cbce",
"#k c #cacbda",
"#I c #cfcfd7",
".G c #d0d2e1",
"#C c #d1d0d7",
".s c #d2d3e2",
"#Q c #d8d7df",
".r c #dcdae0",
".8 c #dcdce0",
"#w c #dcdce1",
"#W c #dfdee2",
"#r c #e1e1e5",
"#i c #e3e3e8",
"#B c #e3e3eb",
"#H c #e4e4eb",
"#9 c #e5e5e5",
"#M c #e6e5ec",
"#j c #e6e6e6",
".X c #e7e7e7",
"#q c #e7e7ed",
".E c #e8e8e8",
".p c #e9e8ea",
".F c #e9e9e9",
".V c #eaeaea",
".W c #ebebeb",
"#a c #ececec",
"## c #ededed",
"#c c #f0f1f5",
".q c #f6f8ef",
".C c #f9f9f8",
".H c #f9f9f9",
".0 c #fbfbfb",
".t c #fbfff5",
".Z c #fcfcfe",
".T c #fffefd",
".S c #ffffff",
"QtQtQtQtQtQtQtQtQtQtQtQtQtQtQtQtQtQtQtQtQtQtQtQtQtQtQtQtQtQtQtQtQtQtQtQtQtQtQtQt",
"QtQtQtQtQtQtQtQtQtQtQtQtQtQtQtQtQtQtQtQtQtQtQtQtQtQtQtQtQtQtQtQtQtQtQtQtQtQtQtQt",
"QtQtQtQtQtQtQtQtQtQtQtQtQtQtQtQtQtQtQtQtQtQtQtQtQtQtQtQtQtQtQtQtQtQtQtQtQtQtQtQt",
"QtQtQtQtQtQtQtQtQtQtQtQtQtQtQtQtQtQtQtQtQtQtQtQtQtQtQtQtQtQtQtQtQtQtQtQtQtQtQtQt",
"QtQtQtQtQtQtQtQtQtQtQtQtQtQtQtQtQtQtQtQtQtQtQtQtQtQtQtQtQtQtQtQtQtQtQtQtQtQtQtQt",
"QtQtQtQtQtQtQtQtQtQtQtQtQtQtQtQtQtQtQtQtQtQtQtQtQtQtQtQtQtQtQtQtQtQtQtQtQtQtQtQt",
"QtQtQtQtQtQtQtQtQtQtQtQtQtQtQtQtQtQt.#.a.b.cQtQtQtQtQtQtQtQtQtQtQtQtQtQtQtQtQtQt",
"QtQtQtQtQtQtQtQtQtQtQtQtQtQtQtQtQtQt.d.e.d.dQtQtQtQtQtQtQtQtQtQtQtQtQtQtQtQtQtQt",
"QtQtQtQtQtQtQtQtQtQtQtQtQtQtQtQt.f.g.h.i.j.k.l.mQtQtQtQtQtQtQtQtQtQtQtQtQtQtQtQt",
"QtQtQtQtQtQtQtQtQtQtQtQtQtQtQt.n.o.p.q.r.s.t.u.v.wQtQtQtQtQtQtQtQtQtQtQtQtQtQtQt",
"QtQtQtQtQtQtQtQtQtQtQt.x.y.z.A.B.C.D.E.F.E.E.G.H.I.J.K.L.M.NQtQtQtQtQtQtQtQtQtQt",
"QtQtQtQtQtQtQtQtQt.O.P.Q.R.S.T.U.E.V.W.W.F.X.X.W.Y.Z.0.1.2.3.4QtQtQtQtQtQtQtQtQt",
"QtQtQtQtQtQtQt.5.6.7.8.9#.##.E.V.W#a.W.W.F.X.X.X.X.X.F#b#c#d#e#fQtQtQtQtQtQtQtQt",
"QtQtQtQtQtQtQt#g#h#i.E.X#j.V.W#a#a#a#a.W.E.X.X.X.X.X.X.X.W#k#l#m#nQtQtQtQtQtQtQt",
"QtQtQtQtQtQtQt#o#p#q.X.X.V#a#a#a#a#a#a#a.X.X.X.X.X.X.X.X#j.X#r#s#tQtQtQtQtQtQtQt",
"QtQtQtQtQtQtQt#u#v#q.X.E.V.W.W#a#a#a#a#a.X.X.X.X.X.X.X.X.X#j#w#x#yQtQtQtQtQtQtQt",
"QtQtQtQtQtQtQt#z#A#B.X.F.V.V.W#a#a#a#a#a.X.X.X.X.X.X.X.X.X#j#C#D#EQtQtQtQtQtQtQt",
"QtQtQtQtQtQtQt#F#G#H.X.F.V.F.V.W.W#a#a#a.X.X.X.X.X.X.X.X.X#j#I#J#KQtQtQtQtQtQtQt",
"QtQtQtQtQtQtQt#L#G#M.X.F.F.F.F.W.W.W.W#a.X.X.X.X.X#j.X.X.X#j#I#N#KQtQtQtQtQtQtQt",
"QtQtQtQtQtQt#O#P#A#Q.X.E.F.F.F.V.V.W.W#a.X.X.X.X.X.X.X.X.X#j#R#S#TQtQtQtQtQtQtQt",
"QtQtQtQtQtQt#U#V#v#W.X.X.F.F.F.E.F.W.W#a.X.X.X#j.X.X.X.X.X#j#X#Y#EQtQtQtQtQtQtQt",
"QtQtQtQtQtQt#Z#0#1#2#a.X.F.F.F.F.F.V.W.W.X.X.X.X.X.E.E.X.X#3#4#5.dQtQtQtQtQtQtQt",
"QtQtQtQtQtQtQtQt#6#7#8.X.X.F.F.F.F.F.V.W.X.X.X.X.X.E.X.X#9a.a#aa.dQtQtQtQtQtQtQt",
"QtQtQtQtQtQtQtQtabacad###j.E.F.F.F.F.F.V.X.X.E.E.E.E#j#jaeafag.dQtQtQtQtQtQtQtQt",
"QtQtQtQtQtQtQtQtQtahaiaj.V.X.E.F.F.F.F.V.E.E.E.E.E.X#j#9akal#E.dQtQtQtQtQtQtQtQt",
"QtQtQtQtQtQtQtQtQtQtamanao#j.X.F.F.F.V.V.E.E.E.E.X#j#9apaqar.dQt.dQtQtQtQtQtQtQt",
"QtQtQtQtQtQtQtQtQtQtasatauav#j.X.F.V.V.V.E.E.E.X#j#j#aawax.#.dQtQtQtQtQtQtQtQtQt",
"QtQtQtQtQtQtQtQtQtQtQtayazaA.E.X.X.V.V.V.E.E.X#j#j.VaBa#aC.dQtQtQtQtQtQtQtQtQtQt",
"QtQtQtQtQtQtQtQtQtQtQtQtaDaEaF#j.X.X.V.V.E.X#j#j.WaGaHaI.d.dQtQtQtQtQtQtQtQtQtQt",
"QtQtQtQtQtQtQtQtQtQtQtQt.daJaKaL#j.X.X.F#j#j#j.VaMaNaO.d.dQtQtQtQtQtQtQtQtQtQtQt",
"QtQtQtQtQtQtQtQtQtQtQtQtQt.#aPaQaR.W#j#9#j#j.WaSaTaU.d.dQtQtQtQtQtQtQtQtQtQtQtQt",
"QtQtQtQtQtQtQtQtQtQtQtQtQtQt.#aVaWaXaYaZa0a1a2a3a4.d.dQtQtQtQtQtQtQtQtQtQtQtQtQt",
"QtQtQtQtQtQtQtQtQtQtQtQtQtQt.da5a6a7a8a9b.b#babb.dQtQtQt.dQtQtQtQtQtQtQtQtQtQtQt",
"QtQtQtQtQtQtQtQtQtQtQtQtQtQtQtQtbc.#bdbebebfbg.dQtQtQt.d.dQtQtQtQtQtQtQtQtQtQtQt",
"QtQtQtQtQtQtQtQtQtQtQtQtQtQtQtQtQt.d.d.d.d.dQtQtQtQtQtQtQtQtQtQtQtQtQtQtQtQtQtQt",
"QtQtQtQtQtQtQtQtQtQtQtQtQtQtQtQtQtQtQtbhbiQtQtQtQtQtQtQtQtQtQtQtQtQtQtQtQtQtQtQt",
"QtQtQtQtQtQtQtQtQtQtQtQtQtQtQtQtQtQtQtQtQtQtQtQtQtQtQtQtQtQtQtQtQtQtQtQtQtQtQtQt",
"QtQtQtQtQtQtQtQtQtQtQtQtQtQtQtQtQtQtQtQtQtQtQtQtQtQtQtQtQtQtQtQtQtQtQtQtQtQtQtQt",
"QtQtQtQtQtQtQtQtQtQtQtQtQtQtQtQtQtQtQtQtQtQtQtQtQtQtQtQtQtQtQtQtQtQtQtQtQtQtQtQt",
"QtQtQtQtQtQtQtQtQtQtQtQtQtQtQtQtQtQtQtQtQtQtQtQtQtQtQtQtQtQtQtQtQtQtQtQtQtQtQtQt"};
