/* XPM */
static char *dummy[]={
"40 40 223 2",
".d c None",
"#8 c None",
"#R c None",
"#K c None",
"#Z c None",
"bw c None",
"aK c None",
"aD c None",
"ar c None",
"bB c None",
"bC c None",
".c c None",
".e c None",
"Qt c None",
".# c #000000",
"a2 c #030203",
"bc c #06060b",
"#w c #26243f",
"ax c #272634",
".Q c #5b5869",
"ad c #5b5a65",
"#3 c #73707b",
"#9 c #7c7b84",
"bA c #000000",
"bx c #010102",
"bz c #020102",
"a8 c #06060c",
"ak c #474453",
".b c #84818b",
".a c #f8f8f8",
"aR c #181626",
"#0 c #484354",
"aV c #000000",
"aq c #0a0a14",
"#4 c #494456",
"#. c #534f61",
"bn c #020204",
"by c #020204",
"bm c #030305",
"aw c #17162d",
"#S c #474254",
"#m c #4e4a5d",
"#L c #484456",
"ae c #464153",
"## c #555163",
".P c #4f4a5e",
"#F c #4a4557",
"a. c #464153",
"#x c #4c4759",
"#E c #05050a",
"#n c #514d5f",
"aJ c #0c0b16",
"bv c #020102",
".x c #565264",
".f c #565264",
".m c #4b4859",
".9 c #504c5f",
"a3 c #121122",
".w c #3b3348",
".n c #565264",
".O c #565264",
"aW c #090912",
".y c #565264",
".R c #5d5969",
".N c #555163",
"bo c #0f0e1b",
".M c #534f62",
".z c #575365",
"a9 c #1c1b2f",
"bd c #1a192d",
".L c #494357",
".A c #5d5a6b",
".g c #565264",
".l c #5b5668",
"#v c #494659",
"bp c #1b1b32",
"aQ c #1a1932",
".o c #615d6f",
".v c #473e52",
".h c #656273",
".j c #9494a0",
"as c #474252",
".i c #838290",
".k c #8c8b99",
"bu c #211f38",
"#o c #514d5e",
"aL c #464356",
".K c #92909c",
".B c #a6a3ac",
"aj c #1d1c37",
"#a c #73707e",
".S c #918f97",
"af c #534f60",
".7 c #645f71",
".8 c #545063",
".T c #d6d5d8",
".6 c #d8d7db",
"bl c #272540",
"bb c #2d2b45",
"ay c #615f6e",
"aC c #1f1e3a",
"ap c #22203c",
"bq c #272641",
"al c #6e6c79",
"aA c #080808",
"an c #090909",
"aG c #0a0a0a",
"aZ c #0b0b0b",
"#B c #0c0c0c",
"#H c #0d0d0d",
"#q c #0e0e0e",
".0 c #0f0f0f",
".1 c #101010",
"#A c #111111",
".H c #121212",
".G c #131313",
".E c #141414",
"aa c #151515",
"#h c #161616",
"#V c #171717",
"#O c #181818",
".F c #191919",
"#f c #1a1a1a",
"#r c #1b1b1b",
".X c #1c1c1c",
"#W c #1d1d1d",
".2 c #1e1e1e",
".Z c #1f1f1f",
".Y c #202020",
"#s c #212121",
"#g c #222222",
"aO c #232323",
"ac c #24223e",
"#7 c #272641",
"#2 c #282641",
"#e c #282828",
"a1 c #292843",
"aI c #2a2842",
"a7 c #2b2944",
"#Y c #312f48",
"aS c #32314a",
"av c #36344a",
"#Q c #38354c",
"#J c #3c394e",
"#D c #3d3a4f",
"bt c #484559",
"ai c #4f4b5d",
"aP c #525060",
"#y c #534f60",
"#G c #545062",
"#M c #555163",
"#T c #565264",
"#l c #585465",
"br c #585766",
"be c #5a5868",
"aX c #5f5d6a",
"bs c #666571",
"aU c #666671",
"bk c #676671",
"a0 c #6a6973",
"a6 c #6f6e77",
"ba c #76777d",
"#d c #777ea7",
"ao c #797c77",
"#i c #797ea6",
"ah c #797f8a",
"au c #7b8285",
"a4 c #7d7e83",
"aH c #818884",
"ab c #888694",
"b. c #88888d",
"bj c #898a8e",
"aN c #8c94af",
"a5 c #909599",
"aE c #919196",
"aB c #959886",
"at c #97979a",
"#c c #999bb3",
"bf c #999c9a",
"bh c #999e9b",
"aT c #a2a6a1",
"#u c #a3a4a0",
"bi c #a3a8a3",
"az c #a4a6a5",
".3 c #a5b3df",
"aY c #a6aba6",
"ag c #a8a9a9",
"aM c #a9aca9",
"am c #aaacac",
"aF c #aaaeae",
".u c #acacb4",
"bg c #aeb2ac",
"b# c #afb3ad",
".D c #c0c5d2",
"#6 c #c5c6cd",
"#k c #c9c7ce",
".W c #c9cbce",
"#t c #cacbda",
"#X c #cfcfd7",
".I c #d0d2e1",
"#P c #d1d0d7",
".s c #d2d3e2",
"#5 c #d8d7df",
".r c #dcdae0",
"#b c #dcdce0",
"#I c #dcdce1",
"a# c #dfdee2",
"#C c #e1e1e5",
"#p c #e3e3e8",
"#N c #e3e3eb",
"#U c #e4e4eb",
"#1 c #e6e5ec",
"#z c #e7e7ed",
".p c #e9e8ea",
"#j c #f0f1f5",
".q c #f6f8ef",
".C c #f9f9f8",
".J c #f9f9f9",
".5 c #fbfbfb",
".t c #fbfff5",
".4 c #fcfcfe",
".V c #fffefd",
".U c #ffffff",
"QtQtQtQtQtQtQtQtQtQtQtQtQtQtQtQtQtQtQtQtQtQtQtQtQtQtQtQtQtQtQtQtQtQtQtQtQtQtQtQt",
"QtQtQtQtQtQtQtQtQtQtQtQtQtQtQtQtQtQtQtQtQtQtQtQtQtQtQtQtQtQtQtQtQtQtQtQtQtQtQtQt",
"QtQtQtQtQtQtQtQtQtQtQtQtQtQtQtQtQtQtQtQtQtQtQtQtQtQtQtQtQtQtQtQtQtQtQtQtQtQtQtQt",
"QtQtQtQtQtQtQtQtQtQtQtQtQtQtQtQtQtQtQtQtQtQtQtQtQtQtQtQtQtQtQtQtQtQtQtQtQtQtQtQt",
"QtQtQtQtQtQtQtQtQtQtQtQtQtQtQtQtQtQtQtQtQtQtQtQtQtQtQtQtQtQtQtQtQtQtQtQtQtQtQtQt",
"QtQtQtQtQtQtQtQtQtQtQtQtQtQtQtQtQtQtQtQtQtQtQtQtQtQtQtQtQtQtQtQtQtQtQtQtQtQtQtQt",
"QtQtQtQtQtQtQtQtQtQtQtQtQtQtQtQtQtQt.#.a.b.cQtQtQtQtQtQtQtQtQtQtQtQtQtQtQtQtQtQt",
"QtQtQtQtQtQtQtQtQtQtQtQtQtQtQtQtQtQt.d.e.d.dQtQtQtQtQtQtQtQtQtQtQtQtQtQtQtQtQtQt",
"QtQtQtQtQtQtQtQtQtQtQtQtQtQtQtQt.f.g.h.i.j.k.l.mQtQtQtQtQtQtQtQtQtQtQtQtQtQtQtQt",
"QtQtQtQtQtQtQtQtQtQtQtQtQtQtQt.n.o.p.q.r.s.t.u.v.wQtQtQtQtQtQtQtQtQtQtQtQtQtQtQt",
"QtQtQtQtQtQtQtQtQtQtQt.x.y.z.A.B.C.D.E.F.G.H.I.J.K.L.M.N.O.PQtQtQtQtQtQtQtQtQtQt",
"QtQtQtQtQtQtQtQtQt.Q.R.S.T.U.V.W.G.X.Y.Z.F.0.1.2.3.4.5.6.7.8.9QtQtQtQtQtQtQtQtQt",
"QtQtQtQtQtQtQt#.###a#b#c#d#e.G#f.Z#g.Y.Y#h.0.0.0.0.H#h#i#j#k#l#mQtQtQtQtQtQtQtQt",
"QtQtQtQtQtQtQt#n#o#p.G.0#q#r.Z#g#g#g#g#s#h#q#q#q.0.0.0.0.Z#t#u#v#wQtQtQtQtQtQtQt",
"QtQtQtQtQtQtQt#x#y#z.0#A#r#g#g#g#g#g#g#g.H#q#q.0.0.0.0#q#B.0#C#D#EQtQtQtQtQtQtQt",
"QtQtQtQtQtQtQt#F#G#z#q.E#f.2.Y#g#g#g#g#g.1#q#q#q.0#q#q#q#q#H#I#J#KQtQtQtQtQtQtQt",
"QtQtQtQtQtQtQt#L#M#N.0#O#f.X.2#g#g#g#g#g#A#q#q#q#q#q#q#q.0#H#P#Q#RQtQtQtQtQtQtQt",
"QtQtQtQtQtQtQt#S#T#U.0.F#f#V#W.Z#s#g#g#g.0#q#q#q#q#q#q#q#q#H#X#Y#ZQtQtQtQtQtQtQt",
"QtQtQtQtQtQtQt#0#T#1.0#V.F#O.F.2.Z#s#s#g.0#q#q#q.0#H#q#q#q#B#X#2#ZQtQtQtQtQtQtQt",
"QtQtQtQtQtQt#3#4#M#5.0.G.F.F#h.X#W.Z#s#g.1#q#q#q.0.0#q#q#q#B#6#7#8QtQtQtQtQtQtQt",
"QtQtQtQtQtQt#9a.#Ga#.0.0.F.F#Vaa.F.2.Z#g.1#q#q#q.0.1.0#q#q#Habac#RQtQtQtQtQtQtQt",
"QtQtQtQtQtQtadaeafag#g#q#h.F.F#h#h.X.2.2.1#q#q.0#A.H.H.0.0ahaiaj.dQtQtQtQtQtQtQt",
"QtQtQtQtQtQtQtQtakalam.0.H#O.F#O#h#h.X.2.1#q.0.H#A.H#A.0anaoapaq.dQtQtQtQtQtQtQt",
"QtQtQtQtQtQtQtQtarasat#e#qaa#V.F#h#O#O#W.1#q.H.H.H.H#q#Hauavaw.dQtQtQtQtQtQtQtQt",
"QtQtQtQtQtQtQtQtQtaxayaz#f#Aaa.F.F.F.F#r.G.H.H.H.H.0#HaAaBaC#R.dQtQtQtQtQtQtQtQt",
"QtQtQtQtQtQtQtQtQtQtaDaEaFaG.1#h.F.F#r#r.H.H.H.H.0#BanaHaIaJ.dQt.dQtQtQtQtQtQtQt",
"QtQtQtQtQtQtQtQtQtQtaKaLaMaN#B.1#O#r#r#r.H.H.H.0#B#BaOaPaQ.#.dQtQtQtQtQtQtQtQtQt",
"QtQtQtQtQtQtQtQtQtQtQtaRaSaT#h.0#A#f#r#r.H.H.1#B#H.XaUapaV.dQtQtQtQtQtQtQtQtQtQt",
"QtQtQtQtQtQtQtQtQtQtQtQtaWaXaYaG.1.H#f#r.H.0#BaZ#sa0a1a2.d.dQtQtQtQtQtQtQtQtQtQt",
"QtQtQtQtQtQtQtQtQtQtQtQt.da3a4a5#q#A#A#O#H#B#B.Xa6a7a8.d.dQtQtQtQtQtQtQtQtQtQtQt",
"QtQtQtQtQtQtQtQtQtQtQtQtQt.#a9b.b##s#qaG#HaZ#sbabbbc.d.dQtQtQtQtQtQtQtQtQtQtQtQt",
"QtQtQtQtQtQtQtQtQtQtQtQtQtQt.#bdbebfbgbhbibjbkblbm.d.dQtQtQtQtQtQtQtQtQtQtQtQtQt",
"QtQtQtQtQtQtQtQtQtQtQtQtQtQt.dbnbobpbqbrbsbtbubv.dQtQtQt.dQtQtQtQtQtQtQtQtQtQtQt",
"QtQtQtQtQtQtQtQtQtQtQtQtQtQtQtQtbw.#bxbybybzbA.dQtQtQt.d.dQtQtQtQtQtQtQtQtQtQtQt",
"QtQtQtQtQtQtQtQtQtQtQtQtQtQtQtQtQt.d.d.d.d.dQtQtQtQtQtQtQtQtQtQtQtQtQtQtQtQtQtQt",
"QtQtQtQtQtQtQtQtQtQtQtQtQtQtQtQtQtQtQtbBbCQtQtQtQtQtQtQtQtQtQtQtQtQtQtQtQtQtQtQt",
"QtQtQtQtQtQtQtQtQtQtQtQtQtQtQtQtQtQtQtQtQtQtQtQtQtQtQtQtQtQtQtQtQtQtQtQtQtQtQtQt",
"QtQtQtQtQtQtQtQtQtQtQtQtQtQtQtQtQtQtQtQtQtQtQtQtQtQtQtQtQtQtQtQtQtQtQtQtQtQtQtQt",
"QtQtQtQtQtQtQtQtQtQtQtQtQtQtQtQtQtQtQtQtQtQtQtQtQtQtQtQtQtQtQtQtQtQtQtQtQtQtQtQt",
"QtQtQtQtQtQtQtQtQtQtQtQtQtQtQtQtQtQtQtQtQtQtQtQtQtQtQtQtQtQtQtQtQtQtQtQtQtQtQtQt"};
