/* XPM */
static char *dummy[]={
"40 40 376 2",
".d c None",
"ba c None",
"aI c None",
"aw c None",
"aj c None",
"dV c None",
"cI c None",
"ct c None",
"b0 c None",
"d0 c None",
"d1 c None",
".c c None",
".e c None",
"Qt c None",
".# c #000000",
"df c #020203",
"dB c #060b0d",
"#T c #233c47",
"cd c #263439",
".Q c #58656e",
"bs c #5a6468",
"aX c #6f777e",
"bb c #7a8186",
"dZ c #000000",
"dY c #010102",
"dW c #010202",
"dq c #060c0e",
"bL c #434e57",
".b c #80868d",
".a c #f8f8f8",
"cV c #15232b",
"aJ c #424d59",
"c7 c #000000",
"bZ c #091417",
"aY c #434e5b",
"## c #4e5b66",
"dM c #020404",
"dX c #020404",
"dL c #030505",
"cc c #162c34",
"ax c #414c59",
"#x c #495762",
"ak c #43505b",
"bt c #404b58",
"#a c #505d68",
".P c #495764",
"#7 c #444f5c",
"bc c #404b58",
"#U c #46515e",
"#6 c #050a0c",
"#y c #4c5964",
"cH c #0b1519",
"dU c #010102",
".x c #515e69",
".f c #515e69",
".m c #48555e",
"#. c #4b5964",
"dg c #102127",
".w c #323c4e",
".n c #515e69",
".O c #515e69",
"c8 c #081114",
".y c #515e69",
".R c #58636d",
".N c #505d68",
"dN c #0e1a1f",
".M c #4e5c67",
".z c #525f6a",
"dr c #1a2d35",
"dC c #182b33",
".L c #414e5c",
".A c #5a6770",
".g c #515e69",
".l c #55606d",
"#S c #45545e",
"dO c #1a3239",
"cU c #183039",
".o c #5c6974",
".v c #3d4658",
".h c #626f78",
".j c #94a0a3",
"b1 c #414b56",
".i c #829095",
".k c #8b999e",
"dT c #1e343f",
"#z c #4c5862",
"cJ c #42515b",
".K c #9099a0",
".B c #a3a8af",
"bK c #1b363f",
"#b c #6f7a82",
".S c #8f9599",
"bu c #4e5a64",
".8 c #5e6976",
".9 c #4f5d68",
".T c #d5d7d9",
".7 c #d7dadd",
"dK c #243d48",
"dA c #2a424d",
"ce c #5e6a72",
"cs c #1d3842",
"bY c #1f3945",
"dP c #254049",
"bM c #6b757c",
"bW c #006870",
"cq c #006878",
"cE c #006e7c",
"dw c #006f7c",
"cw c #00727e",
"db c #007580",
"cR c #027884",
"cQ c #037985",
"cD c #037986",
"c4 c #037d86",
"cp c #037d88",
"c# c #037f8a",
"#D c #03848b",
"a0 c #03868d",
"c3 c #047a86",
"da c #047a87",
"cM c #047c87",
"dx c #04808a",
"dv c #048189",
"#C c #04848c",
"#9 c #04858c",
"bx c #04868d",
"aL c #048890",
"c. c #05808c",
"be c #05888f",
"bO c #058991",
"bf c #058a92",
"aV c #067c89",
"co c #06828d",
"aA c #06878e",
"bV c #069099",
"#X c #069499",
"bH c #07818c",
"cZ c #07838e",
"bG c #078590",
"bo c #078992",
"c2 c #078a94",
"cx c #079098",
".F c #07d2d1",
"ar c #087e8a",
"af c #087e8b",
"a8 c #08848f",
"cN c #08919a",
"c0 c #08949c",
"dl c #08969e",
"#m c #08babd",
"#1 c #097e8a",
"bD c #097f8b",
"as c #097f8c",
"bn c #098792",
"cP c #098a94",
"ch c #09939c",
"bP c #09959d",
"d# c #0999a1",
"#K c #09b2b5",
"#h c #09dddc",
".Y c #09e2e1",
"dj c #0a7580",
".1 c #0a7f8a",
"#o c #0a7f8b",
"#p c #0a808c",
"dk c #0a909a",
"a1 c #0a9ea4",
".G c #0a9fa5",
"a. c #0aa5a9",
".E c #0aa5ab",
"#E c #0adcdb",
"ap c #0aece9",
"bA c #0af1ee",
"aR c #0af6f0",
"bl c #0af7f1",
"aS c #0afef7",
"bp c #0b686f",
"ag c #0b6a77",
"aU c #0b7581",
"#0 c #0b7783",
"bm c #0b7784",
"a7 c #0b7884",
"bC c #0b7886",
"#M c #0b7b88",
"aF c #0b838e",
"b9 c #0b848f",
"aq c #0b8b94",
"bE c #0b9099",
"bU c #0b919b",
"cn c #0b949c",
"#Z c #0b949d",
"cm c #0b979f",
"cC c #0b98a0",
"bR c #0be4e3",
"aQ c #0be9e4",
"aD c #0bece9",
"b8 c #0bedec",
"bk c #0bf0ec",
"#i c #0bf3ed",
"a5 c #0bf3ee",
"aE c #0bf5f0",
"#F c #0bf8f3",
".0 c #0bf9f5",
"#l c #0bfbf3",
"ab c #0bfdf6",
"#G c #0bfff6",
"#j c #0bfff7",
"aT c #0bfff8",
"#J c #0bfff9",
"a9 c #0c6472",
"#2 c #0c6876",
"at c #0c6b79",
"ae c #0c727f",
"#L c #0c7481",
"bB c #0c7580",
"#n c #0c7987",
"#q c #0c7a87",
"ad c #0c828c",
"a6 c #0c838d",
"bS c #0c848f",
"bT c #0c929c",
"bF c #0c959e",
"#g c #0c979d",
"cl c #0c99a1",
".X c #0c9ea4",
"b4 c #0ca5ad",
"ci c #0ca9ae",
"aM c #0cb5b7",
"dm c #0cbabc",
"aa c #0cebe9",
"#k c #0cfcf7",
"#H c #0cfff4",
"ac c #0cfff6",
".Z c #0cfffb",
"bi c #0da7ac",
"by c #0dafb4",
"cy c #0db1b6",
"b5 c #0db5b9",
"cO c #0dbabc",
"aP c #0dc1c3",
"bj c #0dc8c9",
"c1 c #0dcfcf",
"a4 c #0dd8d7",
"#I c #0dfff4",
"bz c #0eaeb4",
"b6 c #0eb0b5",
"a3 c #0eb2b7",
"b7 c #0eb7ba",
"a2 c #0ebcbe",
"cz c #0ebdbf",
"an c #0ebfc1",
"cj c #0ec2c4",
"cA c #0ec2c5",
"aB c #0ec4c5",
"ck c #0ed5d5",
"cB c #0ed7d7",
"#N c #0f727f",
".2 c #0f7b86",
"bh c #0fb3b8",
"aC c #0fb4ba",
"aO c #0fb8bb",
"bQ c #0fb9bd",
"bg c #0fc3c6",
"ao c #0fd4d4",
"aN c #10c1c3",
"a# c #10cccd",
"#Y c #10cecf",
"#O c #126572",
"#3 c #136472",
"#r c #147b85",
"#B c #148992",
".H c #157c86",
"cY c #1e818b",
"br c #213b47",
"cg c #229aa2",
"#s c #24727f",
"aW c #253e49",
"b# c #254049",
"cG c #273f4a",
"de c #27424b",
"dp c #28414c",
"aH c #2e444f",
"dn c #2f7f86",
"cW c #304851",
".3 c #318c93",
"cb c #334750",
"av c #344853",
"du c #36959a",
"bw c #379fa4",
"ai c #384954",
"#5 c #394a55",
"c5 c #396d76",
"#P c #3c828e",
"dy c #3d8084",
"dc c #3f7d80",
"dS c #44545e",
"cS c #48757b",
"b3 c #499da0",
"bJ c #4a5762",
"#f c #4ba0a6",
"#V c #4e5a64",
"#8 c #4f5c67",
"cT c #4f5d65",
"al c #505d68",
"ay c #515e69",
"#w c #535f69",
"dQ c #56646a",
"dD c #57656d",
"c9 c #5c666d",
"dR c #657075",
"c6 c #657174",
"dJ c #667074",
"dd c #697276",
"do c #6d7479",
"#e c #74aeb4",
"dz c #767e7f",
"#t c #76abb2",
"bI c #778e8b",
"ca c #798680",
"dh c #7c8484",
"bX c #7d7c76",
"cF c #838980",
"bq c #859198",
"ds c #888d8f",
"dI c #888f8f",
"cL c #8ab7b8",
"di c #8f9b97",
"cu c #919698",
"b2 c #979a9b",
"#d c #97b5ba",
"cr c #998b81",
"dE c #9b9d99",
"dG c #9b9e98",
".4 c #a1eeee",
"cf c #a3a6a3",
"#R c #a4a19f",
"cX c #a6a6a0",
"dH c #a8a9a3",
"bv c #a8aaa8",
"bN c #aaacaa",
"cv c #aaafab",
"d. c #abaca6",
"cK c #acada9",
".u c #acb4b7",
"dF c #b2b1aa",
"dt c #b3b2ab",
".D c #bfd7d6",
"b. c #c5cecf",
"#v c #c7ccd0",
".W c #c9d0cf",
"#Q c #c9dcdf",
"au c #cfd5d9",
"aG c #cfd7da",
".I c #cfe2e5",
".s c #d1e4e7",
"aZ c #d6dce1",
".r c #d9dce1",
"#c c #dce0e1",
"ah c #dce1e3",
"bd c #dee1e4",
"#4 c #e1e5e6",
"#A c #e3e8ea",
"am c #e3ebee",
"aK c #e4eaee",
"az c #e4ecee",
"#W c #e7edef",
".p c #e8e9eb",
"#u c #eff6f6",
".q c #f9f3ed",
".J c #f9f9f9",
".C c #faf8f8",
".6 c #fbfbfb",
".5 c #fcfefe",
".t c #fffaf3",
".V c #fffcfc",
".U c #ffffff",
"QtQtQtQtQtQtQtQtQtQtQtQtQtQtQtQtQtQtQtQtQtQtQtQtQtQtQtQtQtQtQtQtQtQtQtQtQtQtQtQt",
"QtQtQtQtQtQtQtQtQtQtQtQtQtQtQtQtQtQtQtQtQtQtQtQtQtQtQtQtQtQtQtQtQtQtQtQtQtQtQtQt",
"QtQtQtQtQtQtQtQtQtQtQtQtQtQtQtQtQtQtQtQtQtQtQtQtQtQtQtQtQtQtQtQtQtQtQtQtQtQtQtQt",
"QtQtQtQtQtQtQtQtQtQtQtQtQtQtQtQtQtQtQtQtQtQtQtQtQtQtQtQtQtQtQtQtQtQtQtQtQtQtQtQt",
"QtQtQtQtQtQtQtQtQtQtQtQtQtQtQtQtQtQtQtQtQtQtQtQtQtQtQtQtQtQtQtQtQtQtQtQtQtQtQtQt",
"QtQtQtQtQtQtQtQtQtQtQtQtQtQtQtQtQtQtQtQtQtQtQtQtQtQtQtQtQtQtQtQtQtQtQtQtQtQtQtQt",
"QtQtQtQtQtQtQtQtQtQtQtQtQtQtQtQtQtQt.#.a.b.cQtQtQtQtQtQtQtQtQtQtQtQtQtQtQtQtQtQt",
"QtQtQtQtQtQtQtQtQtQtQtQtQtQtQtQtQtQt.d.e.d.dQtQtQtQtQtQtQtQtQtQtQtQtQtQtQtQtQtQt",
"QtQtQtQtQtQtQtQtQtQtQtQtQtQtQtQt.f.g.h.i.j.k.l.mQtQtQtQtQtQtQtQtQtQtQtQtQtQtQtQt",
"QtQtQtQtQtQtQtQtQtQtQtQtQtQtQt.n.o.p.q.r.s.t.u.v.wQtQtQtQtQtQtQtQtQtQtQtQtQtQtQt",
"QtQtQtQtQtQtQtQtQtQtQt.x.y.z.A.B.C.D.E.F.G.H.I.J.K.L.M.N.O.PQtQtQtQtQtQtQtQtQtQt",
"QtQtQtQtQtQtQtQtQt.Q.R.S.T.U.V.W.X.Y.Z.0.F.1.2.3.4.5.6.7.8.9#.QtQtQtQtQtQtQtQtQt",
"QtQtQtQtQtQtQt###a#b#c#d#e#f#g#h#i#j#k#l#m#n#o#p#q#r#s#t#u#v#w#xQtQtQtQtQtQtQtQt",
"QtQtQtQtQtQtQt#y#z#A#B#C#D#E#F#j#G#H#I#J#K#L#L#M#o#o#N#O#P#Q#R#S#TQtQtQtQtQtQtQt",
"QtQtQtQtQtQtQt#U#V#W#C#X#Y#G#H#j#I#I#I#j#Z#L#L#0#o#o#o#1#2#3#4#5#6QtQtQtQtQtQtQt",
"QtQtQtQtQtQtQt#7#8#W#9a.a#aaab#H#I#I#Iacad#L#Lae#0afafafafagahaiajQtQtQtQtQtQtQt",
"QtQtQtQtQtQtQtakalam#Cana#aoapac#G#H#Iacaq#L#L#L#LarafafasatauavawQtQtQtQtQtQtQt",
"QtQtQtQtQtQtQtaxayazaAaBa#aCaDaE#G#I#IacaF#L#Lae#LarafafafataGaHaIQtQtQtQtQtQtQt",
"QtQtQtQtQtQtQtaJayaKaLaMaNaOaPaQaRaSaT#j.1#L#L#LaUaVafafaf#2aGaWaIQtQtQtQtQtQtQt",
"QtQtQtQtQtQtaXaYalaZa0a1aNa2a3a4aDa5aS#ja6#L#L#La7a8afafafa9b.b#baQtQtQtQtQtQtQt",
"QtQtQtQtQtQtbbbc#8bdbebfbga2bhbibjbkbl#ja6ae#LbmasbnboafafbpbqbrawQtQtQtQtQtQtQt",
"QtQtQtQtQtQtbsbtbubvbwbxbya2a2a3bza4bAbAa6bBbCbDbEbFbFbGbHbIbJbK.dQtQtQtQtQtQtQt",
"QtQtQtQtQtQtQtQtbLbMbNbObPbQa2aObzbzbRbAbSbB#0bTbUbFbUbVbWbXbYbZ.dQtQtQtQtQtQtQt",
"QtQtQtQtQtQtQtQtb0b1b2b3#Db4b5a2b6b7b7b8b9#LbFbFbFbFc.c#cacbcc.dQtQtQtQtQtQtQtQt",
"QtQtQtQtQtQtQtQtQtcdcecfcgchcia2a2a2cjckclbFcmbFcncocpcqcrcsaw.dQtQtQtQtQtQtQtQt",
"QtQtQtQtQtQtQtQtQtQtctcucvcwcxcyczcAcBcBcCbFcmcnbocDcEcFcGcH.dQt.dQtQtQtQtQtQtQt",
"QtQtQtQtQtQtQtQtQtQtcIcJcKcLcMcNcOcBcBcBcmbFbFcPcQcRcScTcU.#.dQtQtQtQtQtQtQtQtQt",
"QtQtQtQtQtQtQtQtQtQtQtcVcWcXcYcZc0c1cBckcmbFc2c3c4c5c6bYc7.dQtQtQtQtQtQtQtQtQtQt",
"QtQtQtQtQtQtQtQtQtQtQtQtc8c9d.cwcxd#c1ckbFbodadbdcdddedf.d.dQtQtQtQtQtQtQtQtQtQt",
"QtQtQtQtQtQtQtQtQtQtQtQt.ddgdhdidjdkdldmcpc3cQdndodpdq.d.dQtQtQtQtQtQtQtQtQtQtQt",
"QtQtQtQtQtQtQtQtQtQtQtQtQt.#drdsdtdudvdwdxdbdydzdAdB.d.dQtQtQtQtQtQtQtQtQtQtQtQt",
"QtQtQtQtQtQtQtQtQtQtQtQtQtQt.#dCdDdEdFdGdHdIdJdKdL.d.dQtQtQtQtQtQtQtQtQtQtQtQtQt",
"QtQtQtQtQtQtQtQtQtQtQtQtQtQt.ddMdNdOdPdQdRdSdTdU.dQtQtQt.dQtQtQtQtQtQtQtQtQtQtQt",
"QtQtQtQtQtQtQtQtQtQtQtQtQtQtQtQtdV.#dWdXdXdYdZ.dQtQtQt.d.dQtQtQtQtQtQtQtQtQtQtQt",
"QtQtQtQtQtQtQtQtQtQtQtQtQtQtQtQtQt.d.d.d.d.dQtQtQtQtQtQtQtQtQtQtQtQtQtQtQtQtQtQt",
"QtQtQtQtQtQtQtQtQtQtQtQtQtQtQtQtQtQtQtd0d1QtQtQtQtQtQtQtQtQtQtQtQtQtQtQtQtQtQtQt",
"QtQtQtQtQtQtQtQtQtQtQtQtQtQtQtQtQtQtQtQtQtQtQtQtQtQtQtQtQtQtQtQtQtQtQtQtQtQtQtQt",
"QtQtQtQtQtQtQtQtQtQtQtQtQtQtQtQtQtQtQtQtQtQtQtQtQtQtQtQtQtQtQtQtQtQtQtQtQtQtQtQt",
"QtQtQtQtQtQtQtQtQtQtQtQtQtQtQtQtQtQtQtQtQtQtQtQtQtQtQtQtQtQtQtQtQtQtQtQtQtQtQtQt",
"QtQtQtQtQtQtQtQtQtQtQtQtQtQtQtQtQtQtQtQtQtQtQtQtQtQtQtQtQtQtQtQtQtQtQtQtQtQtQtQt"};
