/* XPM */
static char *dummy[]={
"40 40 366 2",
".d c None",
"a5 c None",
"aE c None",
"at c None",
"ag c None",
"dL c None",
"cy c None",
"cj c None",
"dQ c None",
"bS c None",
"dR c None",
".c c None",
".e c None",
"Qt c None",
".# c #000000",
"c7 c #030202",
"dr c #0e060b",
"b5 c #3c2632",
"#R c #4d2237",
"bk c #6b5962",
".Q c #725762",
"aQ c #806f75",
"a6 c #887a80",
"dP c #000000",
"dO c #020101",
"dM c #020102",
"dg c #10060c",
"bD c #5b434c",
".b c #8f7f83",
".a c #f8f8f8",
"cL c #2e1521",
"aF c #5c4149",
"cX c #000000",
"bR c #190912",
"aR c #5f424b",
"## c #694d57",
"dC c #050204",
"dN c #050204",
"dB c #060305",
"b4 c #391528",
"au c #5d4049",
"#x c #664853",
"ah c #5e424c",
"bl c #5c3f48",
"#a c #6b4f59",
".P c #684954",
"#5 c #60434c",
"a7 c #5c3f48",
"#S c #62454e",
"#4 c #0d050a",
"#y c #674b55",
"cx c #1c0a13",
"dK c #020101",
".x c #6c505a",
".f c #6c505a",
".m c #624752",
"#. c #684a55",
"c8 c #2a101e",
".w c #523137",
".n c #6c505a",
".O c #6c505a",
"cY c #160810",
".y c #6c505a",
".R c #705760",
".N c #6b4f59",
"dD c #220e19",
".M c #6b4d58",
".z c #6d515b",
"dh c #391a2a",
"ds c #371828",
".L c #604049",
".A c #745964",
".g c #6c505a",
".l c #71545d",
"#Q c #624450",
"dE c #3e1a2f",
"cK c #3e172c",
".o c #775b65",
".v c #5c3c41",
".h c #7c616c",
".j c #a6939e",
"bT c #594047",
".i c #98828e",
".k c #a18b97",
"dJ c #441d31",
"#z c #664b55",
"cz c #5f414d",
".K c #a39098",
".B c #b1a3a6",
"bC c #451a31",
"#b c #856f77",
".S c #9b8e92",
"bm c #684d57",
".8 c #7a5d66",
".9 c #6c4e59",
".T c #dad5d6",
".7 c #ded7d9",
"dA c #4e2338",
"dq c #52293e",
"b6 c #755e68",
"ci c #481c34",
"bQ c #4b1f36",
"dF c #4f243b",
"bE c #7f6a72",
"bj c #4d2138",
"aP c #4f2439",
"a4 c #4f243b",
"cw c #4f263b",
"c6 c #51263d",
"df c #52273c",
"aD c #542d41",
"b3 c #543243",
"cM c #562f44",
"as c #573343",
"af c #583745",
"#3 c #593846",
"dI c #624350",
"bB c #654953",
"#T c #684d57",
"cJ c #684f5b",
"#6 c #6a4e58",
"ai c #6b4f59",
"av c #6c505a",
"#w c #6d525c",
"dG c #6d5561",
"dt c #705763",
"cZ c #705b63",
"bP c #757d7d",
"cW c #76656f",
"dz c #77656e",
"dH c #77656f",
"c5 c #78686f",
"de c #7b6d73",
"bh c #7d085e",
"ch c #7d998d",
"cV c #7f3767",
"cv c #7f818a",
"#M c #800f5c",
"#1 c #80115b",
"dp c #80757d",
"bO c #81005c",
"a2 c #81095b",
"cI c #834672",
"b2 c #847888",
"c9 c #867c84",
"ad c #870860",
"#0 c #87095f",
"aq c #890861",
"cg c #8a005b",
"c4 c #8a3d78",
"#s c #8c2269",
"dm c #8e0062",
"do c #8e3a7a",
"cu c #8f0061",
"#L c #8f0b68",
"ab c #900868",
"di c #90888d",
"dy c #90888f",
"cm c #910065",
"d# c #91066b",
"bt c #91086b",
"bA c #917690",
"#J c #920869",
"c3 c #930068",
"aN c #93076c",
"dd c #932b78",
"#Y c #94076c",
"be c #96076b",
"a0 c #96076d",
"#r c #961071",
"cH c #97006b",
".H c #971172",
"dw c #97999f",
"cG c #98006d",
"bu c #98066e",
".2 c #980b71",
"cT c #99006e",
"cU c #990071",
"#n c #99076f",
"#q c #990870",
"ck c #999196",
"du c #999b9e",
"ct c #9a006e",
"cC c #9a0071",
"#K c #9a076f",
"#N c #9a3a7a",
"c2 c #9b006f",
"cf c #9b0070",
"cO c #9b1b77",
"bi c #9b858f",
"d. c #9b8f9d",
"dl c #9c0075",
"bU c #9c979a",
"aO c #9d0172",
"ao c #9d0373",
"#Z c #9d0572",
".1 c #9d0674",
"b1 c #9e0073",
"dn c #9e0074",
"#D c #9e0078",
"bv c #9e0474",
"#o c #9e0673",
"aa c #9e0777",
"#P c #9ea4a2",
"b0 c #9f0075",
"#C c #9f0078",
"#7 c #9f007a",
"bz c #9f0276",
"ac c #9f0374",
"#p c #9f0575",
"cN c #9fa6a7",
"ap c #a00475",
"aZ c #a00878",
"aT c #a10079",
"bp c #a1007b",
"ce c #a10177",
"ax c #a1017c",
"aB c #a10778",
"cP c #a20278",
"bZ c #a20679",
"bK c #a20879",
".3 c #a22d84",
"dx c #a2a7aa",
"aH c #a3007b",
"a9 c #a3007c",
"by c #a30279",
"a1 c #a30379",
"b7 c #a3a3a6",
"bG c #a4007d",
"#B c #a40f7e",
"bf c #a5047b",
"c0 c #a5aaad",
"b. c #a6007e",
"bg c #a6027d",
"cS c #a8027e",
"cF c #a8037e",
"an c #a80680",
"dk c #a8338b",
"bn c #a9a8aa",
"cA c #a9abad",
"dv c #a9b2b3",
"bF c #aaa9ac",
"dj c #aab3b4",
"cl c #aca9af",
"cn c #ad0284",
"bV c #ad4597",
"bN c #ae0083",
"#V c #ae0088",
"da c #ae0584",
"bw c #ae0684",
"cD c #af0285",
"bM c #af0685",
"cQ c #b00287",
"bL c #b00786",
"b9 c #b10386",
"bH c #b10388",
"cd c #b10688",
"#X c #b20588",
"#g c #b2078c",
"#f c #b24897",
"cc c #b3058a",
"bx c #b30689",
"bo c #b33295",
"db c #b4028a",
"b8 c #b41d90",
"cs c #b5058c",
"cb c #b6068d",
"c1 c #b7048b",
".X c #b90691",
".u c #b9acb4",
"aU c #ba0393",
".G c #bb0493",
"#t c #bb74a5",
"#e c #bd72a9",
"#8 c #bf0398",
"cB c #bf88b4",
"#d c #bf96b1",
".E c #c20499",
"bb c #c20799",
"bW c #c30599",
"c. c #c5059c",
"bq c #cb06a1",
"br c #cc07a2",
"#I c #cd01a4",
"co c #cd06a3",
"aI c #ce05a6",
"aW c #ce07a4",
"ba c #cf08a5",
"bX c #d006a6",
"a3 c #d1c4ce",
"#v c #d1c6c9",
".W c #d1c9d1",
"bY c #d206a9",
"az c #d208a7",
"aK c #d307aa",
"dc c #d404ab",
"cE c #d405ad",
"bI c #d507ab",
"#m c #d601aa",
"aV c #d606ad",
"cp c #d706ae",
"ak c #da06b1",
".D c #dabed6",
"ar c #dacfd3",
"aL c #dc05b1",
"aJ c #dc08b3",
"aC c #dccfd7",
"c# c #dd06b2",
"ay c #de07b4",
"cq c #df06b4",
"b# c #e007b5",
"bc c #e205b8",
"#O c #e2c9d9",
"#c c #e2dce0",
"aS c #e3d6dc",
".r c #e3d9dc",
"ae c #e4dce1",
"a8 c #e5dee0",
"#9 c #e708bc",
"#2 c #e7e1e5",
"#W c #e907bf",
".I c #e9cee1",
"cR c #ea05c0",
".s c #ead1e1",
"#A c #ebe3e8",
".p c #ebe8e8",
".q c #ebf9f4",
".F c #ed00c1",
"al c #ee06c4",
"aG c #efe4e8",
"aw c #efe4ea",
"aj c #f0e3eb",
"ca c #f105c6",
"#U c #f1e7ed",
".t c #f1fffb",
"cr c #f205c6",
"aX c #f304c8",
"#u c #f7eff6",
"#E c #f800cd",
".4 c #f89de8",
".C c #f8faf9",
".J c #f9f9f9",
"#h c #fa00cc",
".6 c #fbfbfb",
".V c #fcfffc",
".Y c #ff00d2",
"am c #ff00d6",
"bs c #ff00d7",
"bd c #ff00d9",
"#i c #ff00db",
".0 c #ff00dc",
"#k c #ff00de",
"#H c #ff00df",
"#l c #ff00e0",
"#j c #ff00e1",
"#F c #ff00e2",
"a# c #ff00e3",
"#G c #ff00e5",
"a. c #ff01d6",
"aA c #ff01d7",
"aM c #ff01d8",
"aY c #ff01da",
".Z c #ff01dd",
"bJ c #ff02d3",
".5 c #fffcfe",
".U c #ffffff",
"QtQtQtQtQtQtQtQtQtQtQtQtQtQtQtQtQtQtQtQtQtQtQtQtQtQtQtQtQtQtQtQtQtQtQtQtQtQtQtQt",
"QtQtQtQtQtQtQtQtQtQtQtQtQtQtQtQtQtQtQtQtQtQtQtQtQtQtQtQtQtQtQtQtQtQtQtQtQtQtQtQt",
"QtQtQtQtQtQtQtQtQtQtQtQtQtQtQtQtQtQtQtQtQtQtQtQtQtQtQtQtQtQtQtQtQtQtQtQtQtQtQtQt",
"QtQtQtQtQtQtQtQtQtQtQtQtQtQtQtQtQtQtQtQtQtQtQtQtQtQtQtQtQtQtQtQtQtQtQtQtQtQtQtQt",
"QtQtQtQtQtQtQtQtQtQtQtQtQtQtQtQtQtQtQtQtQtQtQtQtQtQtQtQtQtQtQtQtQtQtQtQtQtQtQtQt",
"QtQtQtQtQtQtQtQtQtQtQtQtQtQtQtQtQtQtQtQtQtQtQtQtQtQtQtQtQtQtQtQtQtQtQtQtQtQtQtQt",
"QtQtQtQtQtQtQtQtQtQtQtQtQtQtQtQtQtQt.#.a.b.cQtQtQtQtQtQtQtQtQtQtQtQtQtQtQtQtQtQt",
"QtQtQtQtQtQtQtQtQtQtQtQtQtQtQtQtQtQt.d.e.d.dQtQtQtQtQtQtQtQtQtQtQtQtQtQtQtQtQtQt",
"QtQtQtQtQtQtQtQtQtQtQtQtQtQtQtQt.f.g.h.i.j.k.l.mQtQtQtQtQtQtQtQtQtQtQtQtQtQtQtQt",
"QtQtQtQtQtQtQtQtQtQtQtQtQtQtQt.n.o.p.q.r.s.t.u.v.wQtQtQtQtQtQtQtQtQtQtQtQtQtQtQt",
"QtQtQtQtQtQtQtQtQtQtQt.x.y.z.A.B.C.D.E.F.G.H.I.J.K.L.M.N.O.PQtQtQtQtQtQtQtQtQtQt",
"QtQtQtQtQtQtQtQtQt.Q.R.S.T.U.V.W.X.Y.Z.0.F.1.2.3.4.5.6.7.8.9#.QtQtQtQtQtQtQtQtQt",
"QtQtQtQtQtQtQt###a#b#c#d#e#f#g#h#i#j#k#l#m#n#o#p#q#r#s#t#u#v#w#xQtQtQtQtQtQtQtQt",
"QtQtQtQtQtQtQt#y#z#A#B#C#D#E.0#j#F#G#G#H#I#J#J#K#o#o#L#M#N#O#P#Q#RQtQtQtQtQtQtQt",
"QtQtQtQtQtQtQt#S#T#U#C#V#W#F#G#j#G#G#G#j#X#J#J#Y#o#o#o#Z#0#1#2#3#4QtQtQtQtQtQtQt",
"QtQtQtQtQtQtQt#5#6#U#7#8#9a.#k#G#G#G#Ga#aa#J#Jab#YacacacacadaeafagQtQtQtQtQtQtQt",
"QtQtQtQtQtQtQtahaiaj#Cak#9alama##F#G#Ga#an#J#J#J#JaoacacapaqarasatQtQtQtQtQtQtQt",
"QtQtQtQtQtQtQtauavawaxay#9azaA#i#F#G#Ga#aB#J#Jab#JaoacacacaqaCaDaEQtQtQtQtQtQtQt",
"QtQtQtQtQtQtQtaFavaGaHaIaJaKaLaM.0#H#H#j.1#J#J#JaNaOacacac#0aCaPaEQtQtQtQtQtQtQt",
"QtQtQtQtQtQtaQaRaiaSaTaUaJaVaWaXaAaY#H#jaZ#J#J#Ja0a1acacaca2a3a4a5QtQtQtQtQtQtQt",
"QtQtQtQtQtQta6a7#6a8a9b.b#aVbabbbcbd.0#jaZab#JbeapbfbgacacbhbibjatQtQtQtQtQtQtQt",
"QtQtQtQtQtQtbkblbmbnbobpbqaVaVaWbraXbsbsaZbtbubvbwbxbxbybzbAbBbC.dQtQtQtQtQtQtQt",
"QtQtQtQtQtQtQtQtbDbEbFbGbHbIaVaKbrbrbJbsbKbt#YbLbMbxbMbNbObPbQbR.dQtQtQtQtQtQtQt",
"QtQtQtQtQtQtQtQtbSbTbUbV#DbWbXaVbrbYbYambZ#Jbxbxbxbxb0b1b2b3b4.dQtQtQtQtQtQtQtQt",
"QtQtQtQtQtQtQtQtQtb5b6b7b8b9c.aVaVaVc#cacbbxccbxcdcecfcgchciat.dQtQtQtQtQtQtQtQt",
"QtQtQtQtQtQtQtQtQtQtcjckclcmcncocpcqcrcrcsbxcccdbgctcucvcwcx.dQt.dQtQtQtQtQtQtQt",
"QtQtQtQtQtQtQtQtQtQtcyczcAcBcCcDcEcrcrcrccbxbxcFcGcHcIcJcK.#.dQtQtQtQtQtQtQtQtQt",
"QtQtQtQtQtQtQtQtQtQtQtcLcMcNcOcPcQcRcrcaccbxcScTcUcVcWbQcX.dQtQtQtQtQtQtQtQtQtQt",
"QtQtQtQtQtQtQtQtQtQtQtQtcYcZc0cmcnc1cRcabxbgc2c3c4c5c6c7.d.dQtQtQtQtQtQtQtQtQtQt",
"QtQtQtQtQtQtQtQtQtQtQtQt.dc8c9d.d#dadbdccfcTcGdddedfdg.d.dQtQtQtQtQtQtQtQtQtQtQt",
"QtQtQtQtQtQtQtQtQtQtQtQtQt.#dhdidjdkdldmdnc3dodpdqdr.d.dQtQtQtQtQtQtQtQtQtQtQtQt",
"QtQtQtQtQtQtQtQtQtQtQtQtQtQt.#dsdtdudvdwdxdydzdAdB.d.dQtQtQtQtQtQtQtQtQtQtQtQtQt",
"QtQtQtQtQtQtQtQtQtQtQtQtQtQt.ddCdDdEdFdGdHdIdJdK.dQtQtQt.dQtQtQtQtQtQtQtQtQtQtQt",
"QtQtQtQtQtQtQtQtQtQtQtQtQtQtQtQtdL.#dMdNdNdOdP.dQtQtQt.d.dQtQtQtQtQtQtQtQtQtQtQt",
"QtQtQtQtQtQtQtQtQtQtQtQtQtQtQtQtQt.d.d.d.d.dQtQtQtQtQtQtQtQtQtQtQtQtQtQtQtQtQtQt",
"QtQtQtQtQtQtQtQtQtQtQtQtQtQtQtQtQtQtQtdQdRQtQtQtQtQtQtQtQtQtQtQtQtQtQtQtQtQtQtQt",
"QtQtQtQtQtQtQtQtQtQtQtQtQtQtQtQtQtQtQtQtQtQtQtQtQtQtQtQtQtQtQtQtQtQtQtQtQtQtQtQt",
"QtQtQtQtQtQtQtQtQtQtQtQtQtQtQtQtQtQtQtQtQtQtQtQtQtQtQtQtQtQtQtQtQtQtQtQtQtQtQtQt",
"QtQtQtQtQtQtQtQtQtQtQtQtQtQtQtQtQtQtQtQtQtQtQtQtQtQtQtQtQtQtQtQtQtQtQtQtQtQtQtQt",
"QtQtQtQtQtQtQtQtQtQtQtQtQtQtQtQtQtQtQtQtQtQtQtQtQtQtQtQtQtQtQtQtQtQtQtQtQtQtQtQt"};
