/* XPM */
static char *dummy[]={
"40 40 322 2",
".d c None",
"ad c None",
"c6 c None",
"b3 c None",
"bT c None",
"br c None",
"d. c None",
"d# c None",
".c c None",
".e c None",
"Qt c None",
".# c #000000",
"ct c #020202",
"cN c #070606",
"bF c #2a2827",
"#R c #2d2926",
"a5 c #5d5c5b",
".Q c #5e5c5a",
"aI c #747371",
"aS c #7e7d7c",
"c9 c #000000",
"c7 c #010101",
"cE c #080706",
"bg c #494746",
".b c #848482",
".a c #f8f8f8",
"ca c #1b1917",
"ax c #494745",
"ck c #000000",
"bq c #0d0b0a",
"aJ c #4a4946",
"## c #555351",
"cX c #020202",
"c8 c #020202",
"cW c #030303",
"bE c #1d1918",
"ao c #484744",
"#w c #514e4c",
"ae c #4a4846",
"a6 c #474643",
"#a c #575553",
".P c #514f4d",
"#6 c #4b4a47",
"aT c #474643",
"#S c #4d4c49",
"#5 c #060505",
"#x c #53514f",
"b2 c #0e0d0c",
"c5 c #010101",
".x c #585654",
".f c #585654",
".m c #4e4c4a",
"#. c #53504e",
"cu c #161412",
".w c #3b3936",
".n c #585654",
".O c #585654",
"cl c #0b0a09",
".y c #585654",
".R c #5f5d5b",
".N c #575553",
"cY c #12100f",
".M c #565351",
".z c #595755",
"cF c #211e1d",
"cO c #1f1c1b",
".L c #4a4846",
".A c #605e5c",
".g c #585654",
".l c #5c5b58",
"#Q c #4c4a48",
"cZ c #221e1d",
"c# c #211d1b",
".o c #63615f",
".v c #464542",
".h c #686664",
".j c #979695",
"bs c #484644",
".i c #868483",
".k c #8f8d8c",
"c4 c #272421",
"#y c #53514f",
"b4 c #494745",
".K c #949391",
".B c #a6a6a4",
"bf c #24201e",
"#b c #757372",
".S c #929190",
"a7 c #555351",
".8 c #656461",
".9 c #575452",
".T c #d6d5d5",
".7 c #d8d7d7",
"cV c #2e2a27",
"cM c #33302d",
"bG c #646260",
"bS c #272320",
"bp c #292523",
"c0 c #2e2a28",
"bh c #706f6d",
"bQ c #24130f",
"bn c #251211",
"bZ c #281512",
"cJ c #281613",
"bW c #2a1714",
"cp c #2b1715",
"a4 c #2b2725",
"aP c #2c1d1a",
"b9 c #2d1a17",
"#1 c #2d1d1a",
"ab c #2d1e1b",
"a2 c #2d1f1c",
"bY c #2e1b18",
"al c #2e1e1b",
"aR c #2e2a28",
"ch c #2f1c19",
"aH c #2f2b28",
"bP c #301b19",
"#M c #30221f",
"#2 c #302320",
"cs c #302c2a",
"b1 c #302d2a",
"bB c #311d1a",
"aG c #311e1b",
"cx c #311f1c",
"aa c #311f1d",
"bA c #321d1b",
"#J c #32201d",
"aF c #32201e",
"a0 c #32211d",
"cD c #322e2b",
"#C c #331c1b",
"#K c #33201d",
"#0 c #33211e",
"#L c #33211f",
"#8 c #341d1c",
"#B c #341f1d",
"bO c #34201d",
"#n c #34211e",
"#p c #34221f",
"az c #351e1d",
"bc c #35211e",
".1 c #35211f",
"#o c #35221f",
"ar c #361f1e",
"aO c #36221f",
".2 c #362421",
"aV c #37201e",
"au c #372220",
"a1 c #372320",
"a# c #372421",
"aw c #373431",
"b8 c #382220",
"cg c #382320",
"bl c #382321",
"bz c #382421",
"bm c #39221f",
"#q c #392926",
"cb c #393533",
"bX c #3a2421",
"ak c #3a2422",
".H c #3a2a27",
"#V c #3b2321",
"cy c #3b2522",
"bD c #3b3736",
"ce c #3c2422",
"bJ c #3c2522",
"ba c #3c2623",
"bj c #3d2523",
"cz c #3d2623",
"#Z c #3d2724",
"an c #3d3a37",
"co c #3e2724",
"bb c #3e2825",
"bN c #3f2725",
"#A c #3f2c29",
"bM c #402826",
"#g c #402927",
"#r c #403230",
"ac c #403d3b",
".G c #412726",
"#4 c #413e3c",
".X c #422a28",
"cd c #42322f",
".E c #442928",
"bv c #452c2a",
"aX c #462d2b",
"bK c #472d2b",
"#I c #492d2b",
"b. c #492e2c",
"b# c #4a2f2d",
"#m c #4b2e2c",
"aL c #4b302e",
"ci c #4b4240",
"aA c #4c2f2e",
"bw c #4c302e",
"at c #4c312f",
"cB c #4c3f3d",
"c3 c #4c4947",
"cA c #4e302f",
"b7 c #4e3130",
"bx c #4e3230",
"bI c #4e3a38",
"aB c #4f3331",
"ah c #503231",
"aC c #513331",
"be c #514f4d",
"bL c #523432",
"as c #523433",
"aW c #533533",
".3 c #534542",
".F c #543231",
"#N c #544946",
"cq c #554b4a",
"#T c #555351",
"cf c #563635",
"#9 c #563836",
"cK c #564b4a",
"#7 c #565452",
"#W c #573736",
"af c #575553",
"c. c #58504f",
"ap c #585654",
"#h c #593534",
"ai c #593837",
"cI c #594a48",
"#D c #5a3836",
"aM c #5a3837",
"#v c #5a5856",
"c1 c #5b5958",
".Y c #5c3837",
"a9 c #5d4d4b",
"cP c #5d5b59",
"bk c #5e3a39",
"by c #613b3a",
"a. c #613c3b",
"cm c #61605e",
"aj c #623b3a",
"aD c #623c3c",
"aY c #633c3b",
"aN c #653e3d",
"#i c #663d3d",
"aZ c #673e3e",
".0 c #673f3e",
"bu c #685a59",
"#k c #693f3f",
"c2 c #696766",
"cj c #696867",
"#l c #6a4040",
".Z c #6a4140",
"#f c #6a5b5a",
"#H c #6b4041",
"aE c #6c4141",
"cr c #6c6b6a",
"#j c #6d4242",
"#Y c #6e4242",
"#X c #6e4343",
"#E c #6f4443",
"#F c #704444",
"#G c #714645",
"cC c #71706f",
"cL c #787777",
"bo c #797a7a",
"cv c #7f7e7e",
"bd c #817d7d",
"bC c #817f7f",
"b0 c #868486",
"#e c #897f7e",
"#s c #89817f",
"cG c #898888",
"a3 c #8a8987",
"cU c #8b8989",
"bR c #919495",
"bU c #929191",
"cw c #959393",
"bt c #989797",
"b6 c #9a9292",
"cQ c #9a9a9b",
"cS c #9b9b9c",
"#d c #a29e9c",
"#P c #a2a3a3",
"cc c #a3a3a4",
"bH c #a5a5a5",
"cT c #a5a5a6",
"a8 c #a8a8a8",
"cn c #a8a8a9",
"b5 c #aaaaab",
"bi c #ababab",
"bV c #adacad",
".u c #aeadac",
"cR c #afafb0",
"cH c #b0b0b1",
".4 c #bdb0b0",
".D c #c8c4c4",
"aQ c #c8c7c6",
"#u c #c9c8c8",
".W c #cbcaca",
"#O c #cfcbcb",
"av c #d1d0cf",
"am c #d2d2d0",
".I c #d6d3d2",
".s c #d7d3d3",
"aK c #d9d9d7",
".r c #dcdbdb",
"#c c #dddcdc",
"aU c #dfdede",
"#3 c #e2e1e1",
"#z c #e4e3e3",
"ag c #e5e4e3",
"aq c #e6e5e4",
"ay c #e7e7e5",
".p c #e8e8e8",
"#U c #e9e8e7",
"#t c #f2f0f0",
".q c #f4f5f6",
".C c #f8f9f9",
".J c #f9f9f9",
".6 c #fbfbfb",
".t c #fbfbfd",
".5 c #fcfcfc",
".V c #fdfefe",
".U c #ffffff",
"QtQtQtQtQtQtQtQtQtQtQtQtQtQtQtQtQtQtQtQtQtQtQtQtQtQtQtQtQtQtQtQtQtQtQtQtQtQtQtQt",
"QtQtQtQtQtQtQtQtQtQtQtQtQtQtQtQtQtQtQtQtQtQtQtQtQtQtQtQtQtQtQtQtQtQtQtQtQtQtQtQt",
"QtQtQtQtQtQtQtQtQtQtQtQtQtQtQtQtQtQtQtQtQtQtQtQtQtQtQtQtQtQtQtQtQtQtQtQtQtQtQtQt",
"QtQtQtQtQtQtQtQtQtQtQtQtQtQtQtQtQtQtQtQtQtQtQtQtQtQtQtQtQtQtQtQtQtQtQtQtQtQtQtQt",
"QtQtQtQtQtQtQtQtQtQtQtQtQtQtQtQtQtQtQtQtQtQtQtQtQtQtQtQtQtQtQtQtQtQtQtQtQtQtQtQt",
"QtQtQtQtQtQtQtQtQtQtQtQtQtQtQtQtQtQtQtQtQtQtQtQtQtQtQtQtQtQtQtQtQtQtQtQtQtQtQtQt",
"QtQtQtQtQtQtQtQtQtQtQtQtQtQtQtQtQtQt.#.a.b.cQtQtQtQtQtQtQtQtQtQtQtQtQtQtQtQtQtQt",
"QtQtQtQtQtQtQtQtQtQtQtQtQtQtQtQtQtQt.d.e.d.dQtQtQtQtQtQtQtQtQtQtQtQtQtQtQtQtQtQt",
"QtQtQtQtQtQtQtQtQtQtQtQtQtQtQtQt.f.g.h.i.j.k.l.mQtQtQtQtQtQtQtQtQtQtQtQtQtQtQtQt",
"QtQtQtQtQtQtQtQtQtQtQtQtQtQtQt.n.o.p.q.r.s.t.u.v.wQtQtQtQtQtQtQtQtQtQtQtQtQtQtQt",
"QtQtQtQtQtQtQtQtQtQtQt.x.y.z.A.B.C.D.E.F.G.H.I.J.K.L.M.N.O.PQtQtQtQtQtQtQtQtQtQt",
"QtQtQtQtQtQtQtQtQt.Q.R.S.T.U.V.W.X.Y.Z.0.F.1.2.3.4.5.6.7.8.9#.QtQtQtQtQtQtQtQtQt",
"QtQtQtQtQtQtQt###a#b#c#d#e#f#g#h#i#j#k#l#m#n#n#o#p#q#r#s#t#u#v#wQtQtQtQtQtQtQtQt",
"QtQtQtQtQtQtQt#x#y#z#A#B#C#D.0#j#E#F#G#H#I#J#J#K#n#n#L#M#N#O#P#Q#RQtQtQtQtQtQtQt",
"QtQtQtQtQtQtQt#S#T#U#B#V#W#X#G#Y#G#G#G#j#Z#J#J#0#n#n#n#K#1#2#3#4#5QtQtQtQtQtQtQt",
"QtQtQtQtQtQtQt#6#7#U#8.E#9a.#l#F#G#G#G#Xa##J#Jaa#0#K#K#K#Kab#cacadQtQtQtQtQtQtQt",
"QtQtQtQtQtQtQtaeafag#Bah#9aiaj#X#E#G#G#Xak#J#J#J#J#K#K#K#nalamanadQtQtQtQtQtQtQt",
"QtQtQtQtQtQtQtaoapaqaras#9ata.#i#j#G#G#Xau#J#Jaa#J#K#K#K#KalavawadQtQtQtQtQtQtQt",
"QtQtQtQtQtQtQtaxapayazaAasaBaCaD.0#laE#j.1#J#J#JaFaG#K#K#K#1avaHadQtQtQtQtQtQtQt",
"QtQtQtQtQtQtaIaJafaK#8.GasahaLaMa.aN#l#ja##J#J#J#0aO#K#K#KaPaQaRadQtQtQtQtQtQtQt",
"QtQtQtQtQtQtaSaT#7aUaraVaWahataXaWaYaZ#ja#aa#Ja0#na1aO#K#Ka2a3a4adQtQtQtQtQtQtQt",
"QtQtQtQtQtQta5a6a7a8a9#8b.ahahaLb#aMaYaYa#aF#K#nbabbbbbc#Bbdbebf.dQtQtQtQtQtQtQt",
"QtQtQtQtQtQtQtQtbgbhbiarbjaBahaBb#b#bkaYblaF#0#Zbabbbabmbnbobpbq.dQtQtQtQtQtQtQt",
"QtQtQtQtQtQtQtQtbrbsbtbu#Cbvbwahb#bxbxbybz#JbbbbbbbbbAbBbCbDbE.dQtQtQtQtQtQtQtQt",
"QtQtQtQtQtQtQtQtQtbFbGbHbIbJbKahahahbLaibMbbbNbbbbbObPbQbRbSad.dQtQtQtQtQtQtQtQt",
"QtQtQtQtQtQtQtQtQtQtbTbUbVbWbXb#ahbLaiaibNbbbNbbaObYbZb0b1b2.dQt.dQtQtQtQtQtQtQt",
"QtQtQtQtQtQtQtQtQtQtb3b4b5b6bPbXb7aiaiaibNbbbbb8bYb9c.#Tc#.#.dQtQtQtQtQtQtQtQtQt",
"QtQtQtQtQtQtQtQtQtQtQtcacbcccdbccecfaiaibNbbcgchbPcicjbpck.dQtQtQtQtQtQtQtQtQtQt",
"QtQtQtQtQtQtQtQtQtQtQtQtclcmcnbWbXcocfaibbaOchcpcqcrcsct.d.dQtQtQtQtQtQtQtQtQtQt",
"QtQtQtQtQtQtQtQtQtQtQtQt.dcucvcwcxcyczcAbPchbYcBcCcDcE.d.dQtQtQtQtQtQtQtQtQtQtQt",
"QtQtQtQtQtQtQtQtQtQtQtQtQt.#cFcGcHcIbAcJbBcpcKcLcMcN.d.dQtQtQtQtQtQtQtQtQtQtQtQt",
"QtQtQtQtQtQtQtQtQtQtQtQtQtQt.#cOcPcQcRcScTcUcjcVcW.d.dQtQtQtQtQtQtQtQtQtQtQtQtQt",
"QtQtQtQtQtQtQtQtQtQtQtQtQtQt.dcXcYcZc0c1c2c3c4c5.dQtQtQt.dQtQtQtQtQtQtQtQtQtQtQt",
"QtQtQtQtQtQtQtQtQtQtQtQtQtQtQtQtc6.#c7c8c8c7c9.dQtQtQt.d.dQtQtQtQtQtQtQtQtQtQtQt",
"QtQtQtQtQtQtQtQtQtQtQtQtQtQtQtQtQt.d.d.d.d.dQtQtQtQtQtQtQtQtQtQtQtQtQtQtQtQtQtQt",
"QtQtQtQtQtQtQtQtQtQtQtQtQtQtQtQtQtQtQtd.d#QtQtQtQtQtQtQtQtQtQtQtQtQtQtQtQtQtQtQt",
"QtQtQtQtQtQtQtQtQtQtQtQtQtQtQtQtQtQtQtQtQtQtQtQtQtQtQtQtQtQtQtQtQtQtQtQtQtQtQtQt",
"QtQtQtQtQtQtQtQtQtQtQtQtQtQtQtQtQtQtQtQtQtQtQtQtQtQtQtQtQtQtQtQtQtQtQtQtQtQtQtQt",
"QtQtQtQtQtQtQtQtQtQtQtQtQtQtQtQtQtQtQtQtQtQtQtQtQtQtQtQtQtQtQtQtQtQtQtQtQtQtQtQt",
"QtQtQtQtQtQtQtQtQtQtQtQtQtQtQtQtQtQtQtQtQtQtQtQtQtQtQtQtQtQtQtQtQtQtQtQtQtQtQtQt"};
