/* XPM */
static char *dummy[]={
"40 40 172 2",
".a c None",
"#0 c #c6a46d",
"#8 c #c7a46e",
"#Q c #c8a671",
"aP c #c5a370",
"aO c #c6a46f",
"ag c #c4a370",
"ar c #c7a56f",
"aC c #c8a56e",
".s c #f78128",
"aN c #c6a46e",
".g c #f47323",
".q c #ea7018",
".r c #f88f1d",
".c c #e66418",
".b c #ea690e",
".# c #f77b22",
".M c #f9912a",
".K c #ee781f",
".L c #f68516",
".i c #e45d10",
".j c #f68d22",
".h c #f99020",
".m c #f88629",
".z c #f88d2b",
"#J c #c6a471",
"#H c #c4a26e",
"#I c #c4a36b",
".o c #e96414",
".n c #f48517",
".p c #f89827",
".e c #f17813",
".f c #f78d21",
".t c #fa992a",
".u c #f0700f",
".v c #f07f20",
"#. c #f78f28",
".d c #f68527",
".x c #f27d1a",
".y c #f68518",
".F c #f9942c",
".B c #eb6211",
".C c #f99c23",
".A c #fa9922",
".8 c #f37c1f",
".9 c #f47d12",
".H c #ef7318",
".G c #f68b1a",
"af c #bd9e64",
"ae c #aa9147",
"ad c #ac9247",
".J c #f99c27",
".X c #f37c16",
".2 c #f48920",
".w c #f88f26",
".R c #fa9d2a",
".k c #f27a14",
".l c #f5821d",
"#u c #f89027",
"#j c #f07819",
"#o c #f99a23",
".D c #f37b19",
".E c #f47a15",
"#Z c #a08b33",
"#P c #a18840",
"#7 c #a28b36",
"ac c #a89138",
"aq c #917d27",
"aB c #a28c35",
"aM c #a38d33",
"an c #8e8116",
"#O c #938122",
"ap c #948716",
"ax c #9b8a25",
"#Y c #9c8f17",
"#5 c #9d8a2c",
"#X c #9e8d28",
"aH c #a08d2c",
"aa c #a08e27",
"ao c #a2951e",
"aL c #a29718",
"aA c #a39618",
"#6 c #a39619",
"az c #a39816",
"am c #a39818",
"al c #a49625",
"#N c #a58c41",
"ay c #a69a19",
"aI c #a79b1a",
"ab c #a79b1b",
"aK c #a89e1b",
"aJ c #b0a31f",
".I c #ff2625",
"Qt c #ff2626",
".Q c #ff2725",
".P c #ff2825",
".O c #ff2925",
".W c #ff2a24",
".N c #ff2a25",
".V c #ff2b24",
".U c #ff2c24",
".T c #ff2d24",
".S c #ff2e24",
".7 c #ff2f23",
".1 c #ff2f24",
".0 c #ff3023",
".Z c #ff3123",
".Y c #ff3223",
".6 c #ff3323",
".5 c #ff3422",
".4 c #ff3522",
".3 c #ff3622",
"#d c #ff3722",
"#b c #ff3821",
"#c c #ff3822",
"#a c #ff3921",
"## c #ff3a21",
"#i c #ff3b21",
"#h c #ff3c21",
"#f c #ff3d20",
"#g c #ff3d21",
"#e c #ff3e20",
"#n c #ff3f20",
"#m c #ff4020",
"#l c #ff4120",
"#k c #ff421f",
"#t c #ff431f",
"#s c #ff441f",
"#r c #ff451f",
"#p c #ff461e",
"#q c #ff461f",
"#D c #ff471e",
"#x c #ff481e",
"#w c #ff491e",
"#v c #ff4a1e",
"#C c #ff4b1d",
"#B c #ff4c1d",
"#A c #ff4d1d",
"#z c #ff4e1d",
"#y c #ff4f1d",
"#G c #ff501c",
"#F c #ff511c",
"#E c #ff521c",
"#W c #ff531c",
"#M c #ff541c",
"#L c #ff551b",
"#K c #ff561b",
"#V c #ff571b",
"#U c #ff581b",
"#T c #ff591a",
"#S c #ff5a1a",
"#R c #ff5b1a",
"#4 c #ff5c1a",
"#3 c #ff5d1a",
"#2 c #ff5e19",
"#1 c #ff5f19",
"a# c #ff6019",
"a. c #ff6119",
"#9 c #ff6219",
"ak c #ff6318",
"aj c #ff6418",
"ai c #ff6518",
"ah c #ff6618",
"aw c #ff6717",
"av c #ff6817",
"au c #ff6917",
"at c #ff6a17",
"as c #ff6b17",
"aG c #ff6c16",
"aF c #ff6d16",
"aE c #ff6e16",
"aD c #ff6f16",
"QtQtQt.#.a.a.a.a.a.a.a.a.a.a.a.a.a.a.a.a.a.a.a.a.a.a.a.a.a.a.a.a.a.a.a.a.a.a.a.a",
"QtQtQt.b.a.a.a.a.a.a.a.a.a.a.a.a.a.a.a.a.a.a.a.a.a.a.a.a.a.a.a.a.a.a.a.a.a.a.a.a",
"QtQtQt.c.a.a.a.a.a.a.a.a.a.a.a.a.a.a.a.a.a.a.a.a.a.a.a.a.a.a.a.a.a.a.a.a.a.a.a.a",
"QtQtQt.d.e.f.g.a.a.a.a.a.a.a.a.a.a.a.a.a.a.a.a.a.a.a.a.a.a.a.a.a.a.a.a.a.a.a.a.a",
"QtQtQtQtQtQt.h.a.a.a.a.a.a.a.a.a.a.a.a.a.a.a.a.a.a.a.a.a.a.a.a.a.a.a.a.a.a.a.a.a",
"QtQtQtQtQtQt.i.a.a.a.a.a.a.a.a.a.a.a.a.a.a.a.a.a.a.a.a.a.a.a.a.a.a.a.a.a.a.a.a.a",
"QtQtQtQtQtQt.j.a.a.a.a.a.a.a.a.a.a.a.a.a.a.a.a.a.a.a.a.a.a.a.a.a.a.a.a.a.a.a.a.a",
"QtQtQtQtQtQtQt.k.l.m.a.a.a.a.a.a.a.a.a.a.a.a.a.a.a.a.a.a.a.a.a.a.a.a.a.a.a.a.a.a",
"QtQtQtQtQtQtQtQtQt.n.a.a.a.a.a.a.a.a.a.a.a.a.a.a.a.a.a.a.a.a.a.a.a.a.a.a.a.a.a.a",
"QtQtQtQtQtQtQtQtQt.o.a.a.a.a.a.a.a.a.a.a.a.a.a.a.a.a.a.a.a.a.a.a.a.a.a.a.a.a.a.a",
"QtQtQtQtQtQtQtQtQt.p.q.r.s.a.a.a.a.a.a.a.a.a.a.a.a.a.a.a.a.a.a.a.a.a.a.a.a.a.a.a",
"QtQtQtQtQtQtQtQtQtQtQtQt.t.a.a.a.a.a.a.a.a.a.a.a.a.a.a.a.a.a.a.a.a.a.a.a.a.a.a.a",
"QtQtQtQtQtQtQtQtQtQtQtQt.u.a.a.a.a.a.a.a.a.a.a.a.a.a.a.a.a.a.a.a.a.a.a.a.a.a.a.a",
"QtQtQtQtQtQtQtQtQtQtQtQt.v.a.a.a.a.a.a.a.a.a.a.a.a.a.a.a.a.a.a.a.a.a.a.a.a.a.a.a",
"QtQtQtQtQtQtQtQtQtQtQtQt.w.x.y.z.a.a.a.a.a.a.a.a.a.a.a.a.a.a.a.a.a.a.a.a.a.a.a.a",
"QtQtQtQtQtQtQtQtQtQtQtQtQtQtQt.A.a.a.a.a.a.a.a.a.a.a.a.a.a.a.a.a.a.a.a.a.a.a.a.a",
"QtQtQtQtQtQtQtQtQtQtQtQtQtQtQt.B.a.a.a.a.a.a.a.a.a.a.a.a.a.a.a.a.a.a.a.a.a.a.a.a",
"QtQtQtQtQtQtQtQtQtQtQtQtQtQtQt.C.a.a.a.a.a.a.a.a.a.a.a.a.a.a.a.a.a.a.a.a.a.a.a.a",
"QtQtQtQtQtQtQtQtQtQtQtQtQtQtQtQt.D.E.F.a.a.a.a.a.a.a.a.a.a.a.a.a.a.a.a.a.a.a.a.a",
"QtQtQtQtQtQtQtQtQtQtQtQtQtQtQtQtQtQt.G.a.a.a.a.a.a.a.a.a.a.a.a.a.a.a.a.a.a.a.a.a",
"QtQtQtQtQtQtQtQtQtQtQtQtQtQtQtQtQtQt.H.a.a.a.a.a.a.a.a.a.a.a.a.a.a.a.a.a.a.a.a.a",
".IQtQtQtQtQtQtQtQtQtQtQtQtQtQtQtQtQt.J.K.L.M.a.a.a.a.a.a.a.a.a.a.a.a.a.a.a.a.a.a",
".N.N.N.N.O.O.P.P.Q.IQtQtQtQtQtQtQtQtQtQtQt.R.a.a.a.a.a.a.a.a.a.a.a.a.a.a.a.a.a.a",
".S.S.S.S.T.U.U.U.V.W.O.P.Q.IQtQtQtQtQtQtQt.X.a.a.a.a.a.a.a.a.a.a.a.a.a.a.a.a.a.a",
".Y.Y.Y.Z.Z.Z.0.0.1.S.T.U.V.N.P.PQtQtQtQtQt.2.a.a.a.a.a.a.a.a.a.a.a.a.a.a.a.a.a.a",
".3.3.3.3.3.4.5.6.6.Y.Z.0.7.S.U.V.N.P.IQtQtQt.8.9#..a.a.a.a.a.a.a.a.a.a.a.a.a.a.a",
"#########a#a#b#c#d.3.4.5.6.Z.0.1.T.U.W.P.QQtQtQtQt.a.a.a.a.a.a.a.a.a.a.a.a.a.a.a",
"#e#e#e#e#f#g#g#h#i###a#c#d.3.5.6.Z.7.S.U.W.P.IQt#j.a.a.a.a.a.a.a.a.a.a.a.a.a.a.a",
"#k#k#k#l#l#l#m#n#n#e#g#h###a#c.3.4.6.Z.0.S.U.N.P#o.a.a.a.a.a.a.a.a.a.a.a.a.a.a.a",
"#p#p#p#q#q#r#s#s#t#l#l#n#n#f#h###b#d.4.6.Z.7.T.V.O.QQt#u.a.a.a.a.a.a.a.a.a.a.a.a",
"#v#v#v#v#w#w#x#x#p#q#r#s#k#l#n#e#g###b#d.4.6.Z.1.U.N.PQt.a.a.a.a.a.a.a.a.a.a.a.a",
"#y#z#z#z#A#A#B#C#v#v#x#D#p#r#t#l#m#e#g###b.3.5.Y.7.T.V.P.a.a.a.a.a.a.a.a.a.a.a.a",
"#E#E#E#E#F#F#G#y#y#A#A#C#v#x#D#r#s#l#m#e#h###c.4.6.Z.S.V#H#I#J.a.a.a.a.a.a.a.a.a",
"#K#K#K#K#K#L#M#M#E#F#G#y#A#B#v#w#D#q#s#l#n#f#i#b.3.6.Z.1#N#O#P#Q.a.a.a.a.a.a.a.a",
"#R#R#R#S#T#T#U#V#K#L#M#W#F#G#z#A#v#w#D#r#t#l#e#h#a#d.5.Z#X#Y#Z#0.a.a.a.a.a.a.a.a",
"#1#1#2#2#3#3#4#R#R#T#U#K#L#M#E#G#y#A#v#x#p#s#l#n#g###d.4#5#6#7#8.a.a.a.a.a.a.a.a",
"#9#9#9#9#9a.a##1#2#3#4#R#T#V#K#M#E#G#z#B#w#D#r#k#n#f###caaabacadaeafag.a.a.a.a.a",
"ahahahahahaiajak#9a.#1#2#3#R#T#V#K#M#F#y#A#v#x#q#t#m#f##alamanaoapaqar.a.a.a.a.a",
"asasasatauauavawahaiaj#9a##1#3#R#T#V#M#E#G#A#C#x#q#t#m#faxayabazaAaBaC.a.a.a.a.a",
"aDaDaEaEaFaFaGasatauawahaj#9a##1#3#R#U#K#W#F#z#C#x#p#t#maHaIaJaKaLaMaNaOaP.a.a.a"};
