/* XPM */
static char *dummy[]={
"40 40 1013 2",
"my c #605a49",
"jg c #686354",
"fP c #6a6556",
"aQ c #6c6759",
"ai c #4c4638",
"fi c #575040",
"iY c #585141",
"mg c #595242",
"nO c #1e1b15",
"nU c #1f1b15",
"nX c #1f1c15",
"nY c #201c15",
"nV c #26221c",
"nH c #27231c",
"nP c #27231d",
"nM c #28231c",
"nx c #28241b",
"cQ c #29241b",
"nQ c #29241d",
"nF c #29251b",
"nN c #29251d",
"nI c #2a251d",
"mj c #2a2617",
"hk c #2b251c",
"hp c #2b251d",
"kN c #2b261d",
"nR c #2b271e",
"kQ c #2c261d",
"nL c #2c271f",
"nS c #2c281f",
"nJ c #2d2920",
"nG c #2d2921",
"nW c #2e2a21",
"am c #2f2920",
"nK c #2f2a21",
"nT c #2f2b21",
"av c #302921",
"je c #302a1f",
"mx c #302b20",
"mF c #312a20",
"aA c #312a21",
"mt c #312b20",
"fM c #312b21",
"mR c #322c22",
"mX c #332c22",
"jz c #342e24",
"kV c #352e23",
"g# c #363025",
"db c #373126",
"nw c #373227",
"cX c #383126",
"cU c #383226",
"cP c #383227",
"aZ c #383228",
"no c #383327",
"a6 c #383328",
"kW c #383427",
"kM c #393328",
"cV c #39332a",
"nf c #393427",
"aB c #39342a",
"cR c #3a3327",
"mk c #3a341c",
"cO c #3a3429",
"aw c #3a342b",
"cn c #3a3529",
"an c #3a352b",
"l1 c #3a361f",
"hl c #3b3428",
"cL c #3b3429",
"iV c #3b3528",
"cu c #3b3529",
"au c #3c3529",
"ho c #3c352a",
"mb c #3c3628",
"kw c #3c3629",
"hj c #3c362a",
"mq c #3c372c",
"fL c #3d3629",
"cS c #3d362a",
"jc c #3d362b",
"jd c #3d372a",
"cN c #3d372b",
"k7 c #3d372c",
"l# c #3d372d",
"hm c #3e372a",
"ao c #3e372b",
"cW c #3e372c",
"ms c #3e382b",
"kv c #3e391b",
"mw c #3f372a",
"aC c #3f372b",
"fN c #3f372c",
"kO c #3f382b",
"ap c #3f382c",
"aD c #3f382d",
"hM c #3f382e",
"fG c #3f392d",
"nD c #3f392e",
"nC c #3f3a2e",
"iU c #40382b",
"kP c #40382c",
"kz c #40392c",
"aE c #40392d",
"dt c #40392f",
"iP c #403a1c",
"nv c #403a2c",
"ja c #403a2d",
"ny c #403a2e",
"al c #413a2d",
"aq c #413a2e",
"fH c #413a2f",
"eN c #413b2e",
"fj c #413b2f",
"#6 c #413b30",
"lD c #413c24",
"lX c #413c2e",
"fk c #413c2f",
"mp c #413d1f",
"ak c #423a2e",
"nz c #423b2e",
"cM c #423b2f",
"jb c #423c2f",
"fd c #423c30",
"#Z c #423c31",
"jf c #423d31",
"nu c #433c2f",
"cT c #433c30",
"mi c #433c31",
"mv c #433d30",
"mu c #433e32",
"cm c #443d2f",
"ct c #443d30",
"kA c #443d31",
"jW c #443e1d",
"hn c #443e31",
"cK c #443e33",
"ns c #443f32",
"g6 c #453e30",
"aj c #453e31",
"at c #453e32",
"h. c #453f34",
"j# c #45411f",
"nt c #463f30",
"nB c #463f31",
"az c #463f32",
"nE c #464031",
"fI c #464032",
"nA c #473f30",
"iw c #473f31",
"lU c #474031",
"mr c #474032",
"fK c #474033",
"ky c #474035",
"mh c #484033",
"lQ c #484132",
"ar c #484133",
"ax c #484134",
"iq c #484421",
"eM c #494133",
"eB c #494232",
"fO c #494234",
"ml c #494325",
"ay c #494335",
"nl c #4a4233",
"#O c #4a4234",
"ng c #4a4332",
"nm c #4a4333",
"as c #4a4335",
"h4 c #4a4425",
"lh c #4a442f",
"fJ c #4a4436",
"#P c #4a4538",
"l9 c #4a4624",
"hE c #4b4725",
"kb c #4b4727",
"#Y c #4c4436",
"b3 c #4c4536",
"ke c #4c4537",
"k4 c #4c4627",
"ne c #4d4435",
"#5 c #4d4436",
"fc c #4d4537",
"bX c #4d4637",
"gA c #4d483a",
"nr c #4e4435",
"nb c #4e4534",
"iv c #4e4536",
"gw c #4e483b",
"b# c #4e4940",
"lq c #4e4a28",
"lM c #4e4a2a",
"lO c #4f4537",
"lP c #4f4636",
"iu c #4f4637",
"eh c #4f4838",
"eG c #4f493b",
"by c #4f493c",
"cy c #504838",
"cv c #504839",
"cs c #504938",
"#x c #50493c",
"br c #504a3c",
"bW c #514838",
"ni c #514938",
"cg c #514939",
"jE c #51493c",
"np c #514a38",
"i# c #514a3c",
"#t c #514a3d",
"hi c #514e2e",
"jv c #514e32",
"cY c #514e47",
"iT c #524838",
"kd c #524938",
"gT c #524939",
"nn c #524a38",
"cl c #524a39",
"e8 c #524a3a",
"d4 c #524a3c",
"dL c #524b3d",
"kB c #524e2f",
"nq c #534a39",
"g5 c #534a3a",
"eg c #534a3c",
"nc c #534b38",
"e9 c #534b3a",
"md c #534c3b",
"mS c #534c3d",
"gg c #534c3e",
"#R c #534d3a",
"mA c #534d40",
"nj c #544b39",
"cp c #544b3a",
"ch c #544b3b",
"ly c #544b3c",
"#1 c #544c3a",
"lZ c #544c3b",
"ff c #544d3b",
"mM c #544d3e",
"aY c #544d3f",
"mJ c #544e41",
"g4 c #545234",
"jj c #545641",
"dY c #54593e",
"g7 c #554b3b",
"m5 c #554c39",
"#S c #554c3a",
"fg c #554c3b",
"mc c #554d3b",
"b. c #554d3f",
"mE c #554d40",
"m# c #554e3b",
"kU c #554e41",
"mI c #555043",
"mK c #555044",
"gP c #555438",
"mG c #564e3f",
"mW c #564e41",
"mz c #565042",
"mO c #565144",
"gu c #565539",
"eL c #574e3c",
"ck c #574e3e",
"#4 c #57503d",
"mV c #575043",
"co c #575142",
"mP c #575143",
"#Q c #575242",
"#N c #584d3c",
"lB c #584e3b",
"#X c #584e3c",
"#i c #584e3d",
"cz c #584e3e",
"ir c #584f3b",
"eE c #584f3c",
"#M c #584f3d",
"g9 c #584f3e",
"#V c #58513d",
"k6 c #585143",
"jC c #585144",
"iW c #58523e",
"#0 c #585242",
"#7 c #585243",
"mT c #585244",
"lY c #58533e",
"mB c #585346",
"fb c #594e3d",
"kx c #594f3e",
"nk c #59503d",
"#s c #59503e",
"m. c #59513f",
"mD c #595244",
"da c #595245",
"mH c #595345",
"fe c #595444",
"mL c #595446",
"jw c #595447",
"dZ c #59563e",
"eK c #5a4f3f",
"bV c #5a503d",
"b2 c #5a503e",
"d6 c #5a503f",
"nd c #5a513e",
"cj c #5a513f",
"dM c #5a5140",
"ei c #5a523d",
"lz c #5a533e",
"hL c #5a5344",
"mQ c #5a5447",
"mC c #5a5547",
"#m c #5b513d",
"b6 c #5b513e",
"it c #5b513f",
"iS c #5b5140",
"gC c #5b523d",
"cx c #5b523f",
"kj c #5b5240",
"d2 c #5b5241",
"nh c #5b533e",
"eC c #5b533f",
"cr c #5b5340",
"jy c #5b5345",
"lR c #5b543f",
"#j c #5b5444",
"cf c #5b5445",
"ds c #5b5446",
"jx c #5b5647",
"jD c #5b5649",
"e7 c #5b5741",
"kk c #5b5b40",
"#h c #5c513e",
"#r c #5c513f",
"ma c #5c5140",
"bR c #5c523d",
"#w c #5c523f",
"#W c #5c5240",
"h9 c #5c5241",
"d3 c #5c5242",
"b5 c #5c533e",
"g8 c #5c5340",
"ls c #5c5341",
"lr c #5c5342",
"#8 c #5c543f",
"lV c #5c5440",
"iR c #5c5441",
"gS c #5c5445",
"kh c #5c5545",
"ji c #5c5648",
"k9 c #5c5749",
"eA c #5c5843",
"cA c #5c584e",
"ex c #5c5d42",
"fa c #5d5341",
"i. c #5d5342",
"lt c #5d5343",
"cq c #5d543f",
"#2 c #5d5440",
"d1 c #5d5442",
"h8 c #5d5443",
"#T c #5d5540",
"iX c #5d5541",
"mf c #5d5542",
"gc c #5d5548",
"f# c #5d5642",
"ga c #5d5646",
"gf c #5d5647",
"mN c #5d5749",
"gd c #5d574a",
"mU c #5d5849",
"be c #5d5950",
"cw c #5e5540",
"ci c #5e5541",
"ee c #5e5542",
"aX c #5e5647",
"#U c #5e5743",
"a5 c #5e5747",
"a9 c #5e5748",
"aT c #5e5849",
"aU c #5e584a",
"jA c #5e584b",
"hH c #5e594b",
"ez c #5e5a46",
"g. c #5e5d44",
"lw c #5f5542",
"ki c #5f5641",
"f. c #5f5642",
"m4 c #5f5645",
"#3 c #5f5743",
"a8 c #5f574a",
"a7 c #5f5848",
"a4 c #5f584a",
"aV c #5f594b",
"mo c #5f5e44",
"me c #605642",
"dN c #605644",
"ef c #605645",
"lA c #605740",
"iQ c #605742",
"l0 c #605743",
"fh c #605843",
"a0 c #605949",
"kT c #60594a",
"ge c #605a4c",
"jB c #605a4d",
"fS c #60624a",
"#g c #615542",
"lS c #615740",
"lC c #615743",
"h5 c #615745",
"lx c #615746",
"ix c #615840",
"eD c #615841",
"gv c #615946",
"#L c #615a48",
"hs c #615a4c",
"dg c #615b4d",
"e. c #615c4f",
"iz c #61634b",
"iy c #625743",
"bU c #625843",
"#q c #625844",
"eF c #625845",
"lg c #625846",
"ej c #625941",
"kg c #625943",
"k5 c #625a4a",
"hJ c #625b4d",
"aW c #625c4d",
"k8 c #625c4e",
".2 c #625d4f",
"kS c #625d50",
"ek c #625f48",
"kR c #625f53",
"gQ c #635943",
"m1 c #635945",
"bS c #635a43",
"b0 c #635a44",
"dK c #635a4b",
"l. c #635b4b",
"la c #635c4b",
"jh c #635c4c",
"dq c #635d4e",
"a3 c #635d4f",
".X c #635e50",
"ey c #636049",
"bF c #636057",
"iO c #63634a",
"eO c #63634c",
"gk c #63654d",
"m7 c #645947",
"kc c #645a46",
"m9 c #645a47",
"#v c #645b44",
"m8 c #645b45",
"m6 c #645b46",
"lf c #645c4d",
"hG c #645e50",
"di c #645f4e",
"dp c #645f50",
"#n c #655c44",
"m0 c #655c48",
"hK c #655c4d",
"bE c #655d4a",
"hN c #655e4d",
"fQ c #655e4e",
"d# c #655e4f",
"hO c #655f50",
"fR c #656050",
"hI c #656052",
"hr c #656053",
"aF c #656054",
"ku c #65644f",
"d7 c #665c48",
"dO c #665c49",
"bQ c #665d46",
"h6 c #665d49",
"bx c #665d4a",
"bq c #665d4b",
"jX c #665e4b",
"dr c #665e4e",
"aR c #665f4f",
"bY c #66604c",
"aS c #666051",
"df c #666052",
"dw c #666152",
".N c #666153",
"hq c #666255",
"lN c #675c48",
"j0 c #675d47",
"eJ c #675d4a",
"bZ c #675e48",
"#p c #675e49",
"lu c #675e4a",
"m3 c #675e4b",
"d0 c #675f4b",
"gb c #676052",
"dd c #676152",
"dh c #676153",
"d. c #676255",
"b7 c #676257",
"dQ c #67634d",
"e6 c #67674e",
"is c #685d49",
"b4 c #685e48",
"dP c #685e49",
"h7 c #685e4a",
"#o c #685f48",
"kf c #685f49",
"#l c #685f4a",
".L c #685f4b",
"#z c #68604a",
"na c #68604c",
"du c #686150",
"lb c #686152",
"el c #68654d",
"gD c #68684f",
"fF c #686a52",
"bn c #695f4a",
"eI c #69604b",
"bw c #69604c",
"ed c #69614e",
"bs c #69624d",
"bP c #696251",
"a2 c #696253",
"a1 c #696254",
"c9 c #696558",
"dj c #696850",
"gU c #696950",
"bT c #6a604a",
"b1 c #6a614b",
".M c #6a614d",
"ib c #6a614e",
"hF c #6a6254",
"bz c #6a634e",
"gB c #6a6351",
"dc c #6a6352",
"hP c #6a6354",
"h# c #6a6a51",
"lT c #6b604a",
"lW c #6b604b",
"bt c #6b614b",
"gR c #6b614c",
"gx c #6b624c",
"d8 c #6b624d",
"n. c #6b634d",
"n# c #6b6350",
"d5 c #6b644e",
"jY c #6b644f",
".V c #6b6451",
"de c #6b6455",
"mm c #6b6856",
"do c #6b6c55",
"bm c #6c624c",
"jH c #6c634d",
"m2 c #6c6451",
"#k c #6c6551",
"#u c #6c6552",
"dv c #6c6556",
"aP c #6c675c",
"bA c #6d634e",
"gj c #6d644d",
".0 c #6d644e",
".K c #6d644f",
".S c #6d654e",
"ia c #6d6650",
"lv c #6d6651",
"#y c #6d6653",
"l2 c #6d6c57",
"bl c #6e644d",
"bu c #6e6653",
"eH c #6e6754",
"kX c #6e6e5c",
"jG c #6f654f",
"bp c #6f6651",
"bB c #6f6654",
"bD c #6f6751",
"gy c #6f6754",
"em c #6f6e57",
"bk c #706750",
"gi c #706851",
"gz c #706852",
".U c #706853",
"jF c #716851",
".R c #716853",
"dJ c #716857",
"mZ c #716a58",
"io c #724e0a",
".5 c #726952",
"#f c #726954",
".Q c #726a53",
"ec c #726a54",
"mY c #726d5c",
"dR c #727158",
"e5 c #72745c",
"eb c #736a53",
"le c #736a59",
"jZ c #736b54",
"bC c #736b56",
"dx c #736f61",
"jI c #73715d",
"i9 c #744d00",
"bv c #746b56",
"bo c #746c57",
"bj c #746e5b",
"gh c #746f5b",
"f6 c #755911",
".T c #756d59",
"d9 c #756e5a",
".1 c #756e5c",
".W c #756f5c",
"kL c #757265",
"mn c #757365",
"l8 c #757366",
".I c #75746c",
"dk c #75755e",
"h2 c #76570b",
"gs c #765c13",
"k3 c #767569",
"bi c #77746a",
"kK c #786638",
"j. c #79767d",
"gr c #7a5b0b",
".P c #7a725c",
".Z c #7a725d",
"lp c #7a7a6d",
"gN c #7b5a0b",
".4 c #7b735e",
"#9 c #7b7563",
"jU c #7c5a00",
"ea c #7c745f",
"iZ c #7c7c6a",
"g2 c #7d5c0b",
"kt c #7d6c47",
"dI c #7f7865",
"hR c #7f7966",
"lL c #7f7b75",
"fl c #7f7f6b",
"lI c #805900",
".u c #807366",
"dH c #807a68",
"jV c #808199",
"k# c #815a00",
".m c #817467",
"ld c #817a67",
".J c #817b66",
"fB c #826823",
"hQ c #827c69",
"cE c #827c70",
"j3 c #835a00",
"f5 c #83600e",
"k2 c #83693e",
"lc c #837d6a",
"lk c #845b09",
"iG c #845d0b",
"gL c #845f0b",
"k1 c #855a00",
"f3 c #85600b",
"#A c #857f6c",
"li c #85817c",
"hC c #865e0a",
"cC c #868173",
"gp c #875f0a",
"lK c #876b3c",
"ju c #877a79",
"#J c #878175",
"aI c #878274",
"bh c #87857b",
"aJ c #888375",
"ks c #895c00",
"h0 c #89610a",
"fA c #896213",
"il c #89630a",
".c c #897d6f",
"ka c #897f86",
".6 c #898472",
"cD c #898477",
"kJ c #8a5a02",
"kr c #8a5d01",
"et c #8a6314",
"lo c #8a6b2e",
"ae c #8a8578",
"af c #8a8579",
"ag c #8a8679",
"dB c #8a897e",
"kn c #8b5d03",
"kI c #8b5e02",
"k. c #8b5f02",
"eZ c #8b620e",
"iH c #8b630a",
"fz c #8b630b",
"#I c #8b8678",
"aO c #8b867a",
".O c #8b8773",
"k0 c #8c6003",
"f4 c #8c640a",
"fw c #8c640b",
".Y c #8c8774",
"dl c #8c8979",
"jT c #8d5f02",
"#H c #8d877a",
".3 c #8d8875",
"aM c #8d887d",
"bd c #8d8a7d",
"lH c #8e5e03",
"hD c #8e6205",
"fW c #8f5b02",
"jt c #8f5e01",
"lJ c #8f5f03",
"g0 c #8f6206",
"eY c #8f6209",
"gq c #8f6408",
"kD c #8f6a1d",
"iN c #8f8377",
".k c #8f8677",
".s c #8f8777",
"e# c #8f8b78",
"ah c #8f8b7f",
"bc c #8f8c7f",
"l7 c #8f8c88",
"lE c #8f8e88",
"gE c #905c03",
"js c #906104",
"iI c #906307",
"gK c #90630b",
"gM c #906407",
"fx c #906509",
"bf c #908e83",
"fV c #915e03",
"iM c #916306",
"fy c #916408",
"g1 c #916508",
"f7 c #917a3c",
"c. c #918d80",
"cF c #918e85",
"hT c #925e02",
"iC c #925e03",
"hb c #925e05",
"jS c #926104",
"hg c #92640a",
"hZ c #92640b",
".h c #92897a",
"aN c #928c80",
"b9 c #928d7f",
"bg c #929086",
"kE c #936205",
"jr c #93650a",
"i5 c #93650b",
"aH c #938e81",
"#K c #938e82",
"id c #946004",
"h1 c #946306",
"hu c #956003",
"iL c #956405",
".y c #958f82",
"#e c #959188",
"i1 c #966104",
"bb c #969389",
"eP c #96968b",
".H c #96968e",
"ie c #976204",
"in c #976406",
"im c #976607",
"fU c #976a13",
"e0 c #977330",
"cb c #979284",
"bL c #979386",
"dn c #989585",
"aK c #989589",
"j1 c #989791",
"ip c #989885",
".G c #98988f",
"kH c #996606",
"kq c #996607",
"gZ c #99670a",
".t c #998978",
".i c #998e7f",
".q c #998f7f",
".w c #999182",
"#d c #999489",
"cI c #999688",
"bK c #99968c",
".r c #9a8976",
".j c #9a8977",
".l c #9a8a78",
"ad c #9a9688",
"aL c #9a978c",
".e c #9b8f7e",
".o c #9b9183",
"cJ c #9b9689",
"jk c #9b9a97",
".n c #9c907e",
".f c #9c9283",
"lj c #9c938f",
"aa c #9c9688",
"bJ c #9c998c",
"c# c #9c998f",
"cH c #9c9a8b",
".C c #9c9d95",
"l3 c #9d999d",
"#G c #9d9a8b",
"dm c #9d9a8c",
"ew c #9d9d8b",
"j4 c #9e6706",
"iJ c #9e6a0a",
"lG c #9e7835",
".x c #9e9283",
"l5 c #9e979c",
".a c #9e998c",
"ab c #9e9a8c",
"gm c #9f6404",
"i8 c #9f6804",
"ko c #9f6806",
"ll c #9f6b09",
"f9 c #9f9fa4",
"i7 c #a06c0a",
".g c #a09080",
"#c c #a09c92",
"kF c #a16a07",
"i6 c #a16d0b",
".p c #a19181",
".b c #a19282",
"a# c #a19c8d",
"bM c #a19e91",
"c0 c #a1a096",
"ba c #a1a198",
".D c #a1a29a",
"fq c #a2690b",
"jL c #a26b07",
"i2 c #a26b08",
"go c #a26b09",
"jR c #a26b0a",
"Qt c #a29b8d",
"c2 c #a2a197",
".B c #a2a39b",
"iK c #a36c0a",
"c3 c #a3a39b",
"lm c #a46b07",
"jQ c #a46d0a",
"jl c #a48148",
"#b c #a4a296",
"c8 c #a4a297",
".F c #a4a59d",
"j9 c #a56e0a",
".v c #a59d8e",
"kC c #a5a0a7",
"kZ c #a66d08",
"jP c #a66f0b",
"jK c #a67721",
"jJ c #a6a3a5",
"ca c #a7a495",
"bH c #a7a598",
"c7 c #a7a59b",
"iB c #a87f36",
"ce c #a8a495",
"#F c #a8a595",
"bI c #a8a698",
".E c #a8aaa2",
"hU c #a96b08",
"eU c #a96e0b",
"fp c #a9884a",
".# c #a9a093",
"l6 c #a9a3aa",
"#E c #a9a697",
"c5 c #a9a79d",
"en c #a9ab9d",
"ac c #aaa799",
"#a c #aaa79b",
"iA c #aaa8a8",
"c6 c #aaaa9f",
".A c #aaaca5",
"es c #ab6d08",
".d c #ab9e8d",
"cG c #aba99b",
"kY c #aca6ad",
"kl c #aca9ad",
"i0 c #acaaaa",
"bO c #ada99c",
"cc c #adab9c",
".9 c #adaba1",
"#D c #aeaa9c",
"l4 c #aeaab2",
"#C c #aeab9e",
"c1 c #aeafa6",
"gF c #af6d08",
"j2 c #afaaab",
"lF c #afabb3",
"cB c #afaea5",
"dA c #afafa2",
"bN c #b0ada1",
"dz c #b0afa2",
"eq c #b17109",
"ih c #b1720c",
"## c #b1aea3",
"jm c #b2730a",
"dD c #b2b1a3",
"jM c #b4720a",
"fC c #b4a175",
"cd c #b4b2a5",
"dE c #b4b3a7",
"c4 c #b4b3a9",
"dG c #b4b4a8",
".z c #b4b7b1",
"dy c #b5b5aa",
"fo c #b6a174",
"dF c #b7b8ad",
"dX c #b8b6ac",
"#. c #b8b7ae",
"aG c #b9bab1",
"iD c #ba760b",
"iE c #ba780d",
"km c #baa689",
"f2 c #bb7307",
"j5 c #bb770b",
"jo c #bb770c",
"fn c #bbb197",
"a. c #bbbcb2",
"hv c #bc740a",
"hW c #bc780c",
"b8 c #bcbdb5",
"ig c #bd790d",
"dC c #bdbeb2",
"jn c #bf780b",
"jp c #c0780c",
"hd c #c07b0d",
"cZ c #c0c2bb",
"hx c #c1790d",
"kp c #c2770b",
"ln c #c2780a",
"i3 c #c37b0d",
"fv c #c47907",
"hV c #c47a0c",
"#B c #c4c6bd",
"j6 c #c57a0c",
".8 c #c5c7bf",
"bG c #c5c7c0",
"gW c #c87c0c",
"hy c #c97c0b",
"jN c #ca7d0c",
"hw c #ca7e0e",
"hc c #cb7c0c",
"j7 c #cc7f0c",
"if c #cd800d",
"ii c #cf7e0b",
"eT c #d0ccc9",
"h3 c #d0cdc5",
"fE c #d0d0c7",
".7 c #d1d4ce",
"gG c #d4830e",
"eQ c #d4d5d1",
"kG c #d6820b",
"gn c #d6830e",
"er c #d87f05",
"ep c #d8ccbf",
"e4 c #d8d9d3",
"g3 c #d9d9cf",
"gX c #da830c",
"hh c #dbd9cf",
"jO c #dc860c",
"hX c #de850b",
"j8 c #de880c",
"f8 c #dfd9c9",
"hS c #e1e1d6",
"dU c #e1e2d9",
"fm c #e2e1dc",
"fX c #e38607",
"gO c #e3e2dc",
"ic c #e3e4de",
"fr c #e48707",
"eu c #e6dfce",
"dV c #e7e1d1",
"gt c #e7e6e1",
"eV c #ea8a07",
"fT c #eae9e3",
"dS c #ebebe8",
"i4 c #ec8c09",
"dT c #edecf9",
"ha c #eeece4",
"ht c #eeeee4",
"gV c #efede3",
"e1 c #f0cea0",
"gl c #f0eee7",
"hz c #f18b09",
"gH c #f28e09",
"gY c #f48e07",
"he c #f48f09",
"jq c #f49008",
"dW c #f4f2ff",
"fD c #f6f3ef",
"ij c #f78f08",
"eo c #f8f8fa",
"iF c #f99107",
"ev c #f9f9f9",
"hY c #fa9109",
"fs c #fb9008",
"e3 c #fbfbfb",
"eS c #fcfeff",
"hA c #fd9007",
"hf c #fd9108",
"fZ c #ff8b09",
"f0 c #ff8c0a",
"fY c #ff8d08",
"gJ c #ff8d09",
"ft c #ff8e08",
"hB c #ff8f07",
"fu c #ff8f08",
"f1 c #ff9008",
"gI c #ff9108",
"ik c #ff9207",
"eW c #ff9209",
"eX c #ff9308",
"e2 c #fffefc",
"eR c #ffffff",
"Qt.#.a.b.c.d.e.f.g.h.i.j.k.l.m.d.n.o.p.h.q.r.s.t.u.v.n.w.x.y.z.A.B.C.D.E.F.G.H.I",
".J.K.L.M.N.O.P.Q.R.S.T.U.V.W.X.Y.Z.Q.R.0.T.R.V.1.2.3.4.5.R.6.7.8.9#.###a#b#c#d#e",
"#f#g#h#i#j#k#l#m#n#o#p#q#r#s#t#u#l#m#v#o#p#q#w#s#x#y#z#m#v#A#B#C#D#E#F#G#H#I#J#K",
"#L#M#N#O#P#Q#R#S#T#U#V#W#X#Y#Z#0#R#1#2#3#4#W#X#5#6#7#R#1#8#9a.a#aaabacadaeafagah",
"aiajakalamanaoapaqarasatauauavawaoapalaxayazauauaAaBaCaDaEaFaGaHaIaJaKaLaMaNaOaP",
"aQaRaSaTaUaVaWaXaYaZa0a1a2a3a4aVaWa5aYa6a7a1a2a3a8aVaWa9b.b#babbbcbdbebfbgbgbhbi",
"bjbkblbmbnbobp.Lbqbrbs.Qbt.0bubvbpbwbxbybz.QbtbAbBbCbDbwbEbFbGbHbIbJbKbHbLbMbNbO",
"bPbQbRbSbnbTbUbVbWbXbYbZbRb0b1bTbUb2bWb3bYb4b5bSb1bTbUb6bWb7b8b9adc.c#cacbcccdce",
"cfcgchcicjcgckclcmcncocgcpcqcrcsckclctcucocvcpcwcxcyczclctcAcBcCcDcEcFcGcHcIcJ#E",
"cKcLaoaucMcNcOcPaucQaBcRcScScTaocLcUaucQcVcRcScScTcWcLcXcucYcZc0c1c2c3c4c5c6c7c8",
"c9d.d#dadbdcdddedfdgdhdidjdkdldmdndodpdgdhdqdrdsdtdudddvdwdxdydzdzdAdBdCdDdEdFdG",
"dHdIdJdKdLbsdMdNdOdPdQdRdSdTdUdVdWdXdYdZd0d1d2d3d4d5d6dNd7d8d9#f#u.We.e#eaebec.S",
"edeeefegeheiejekelemeneoepeqereseteuevewexeyezeAeBeCeDeEbUbt#peF#w#seGeHeI#m#v#o",
"eJeKeLeMeNeOePeQeReSeTeUeVeWeXereYeZe0e1e2e3e4e5e6e7e8e9f.f##Vfafbfcfdfefffg#2fh",
"fiazfjfkflfmfnfofpfqfrfsfteWfufvfwfxfyfzfAfBfCfDfEfFfdfGfHfIfJfKcSfLfMawfNaEalfO",
"fPfQfRfSfTfUfVfWfXeXftfYfZf0f1f2f3f3f4fxfxf5f6f7f8f9g.cfdLg#gagbgbdggcgdgegfggcP",
"ghgigjgkglfVgmgnfYfZftf0f0f0ftgof3f3gpfxfxfxgqgrgsgtgugvbxgwd5ebgxbAgybCgzbwbxgA",
"gBbQgCgDglgEgFgGgHgIfZf0f0f0gJgKf3f3gLgpgMgMgMgMgNgOgPb6bWb3bY#ob5gQgRbTbUb6bW#Y",
"gSgTfggUgVfVgWgGgXgYgJfYfZf0gJgZf3f3f3f3g0gMgMg1g2g3g4g5g6cucocgg7cwg8cgg9e9g6cu",
"h.auaph#hahbhcgGhdhehffYf0f0gJhgf3f3gLf3g0gMgMgMg2hhhicPhjhkaBhlhmaohnaphocPhjhp",
"hqhrhsh#hthuhvhwhxhyhzhAhBfufteYf3f3f3hChDgMgMgMgrhhhEhFhGhHhIhJhKhLhMhNhOhPhGhH",
"hQhRdJgUhShThUhwhVhWhXhehYhBfthZf3f3f3h0h1gMgMgMh2h3h4h5h6h7d0h8h9i.i#iadMh5h6h7",
"ibeedNgDicidieifhVigihiiijikfthZgLf3ilg1imingMgMioipiqirbUbtisitiuiviw#8ixiriybt",
"eJd6eLiziAiBiCiDhVhVhWiEhXiFiFhZiGiHiIiJiKiKiLiMiNiOiPcpiQiRffiSiTiUiViWe9cpf.iX",
"iYfK#6fHiZi0i1i2i3hVhxiEiEi4iFi5iGgpi6i7iKi7i8i9j.j#cMjajbfKazfLjcjdjejfcTjacMfK",
"jgjhdpjijjjkjlfWjmjnhVjojpjpjqjrf3iKiKiKiKjsjtjujvjwjxjy#xjz#0jAjBhHjCjDjxcfjEjz",
".WjFjGjHdPjIjJjKjLjMhVhVhVjNjOjPiKjQiKjRjSjTjUjVjWbCgz.MjXgwjYjZbm.0gybC.R.MbqgA",
"gBj0b5bSbnbTj1j2j3j4j5j6j7j8j8j9iKjQjRink.k#kakbkcbTbUb6kdkebYkfb5bSgRbTkgb6kdb3",
"khe8fgkikje8kkklkmknkokpj8j8j8jQiKiKkqkrksktkukvcxcl#scpg6kw#0e8fgcwiRclkxcpg6hj",
"kycSkzaokAapcukBkCkDkEkFkGj8jOjQiKkHkIkJkKkLj#aoazaDjckMcNkNanaukOkPazaDjckMcNkQ",
"kRkSkTkUkVfQa3kWkXkYj3j4kZkGjOiKink0k1k2k3k4k5k6k7jha3gbk8k9.Xgel.k6l#ladqlbk8k9",
"lcldlelfdLjYd2lglhliljlklllmlnjTkIkrlolplqlrlsltdLiakjlglubnd0h8lslti#lvkjlglubn",
"iblwlxlyehlzlAlBlClDlElFlGlHlIlJk1lKlLlMlNitlOlPlQlRlSirbUlTisitiulPlUlVlSirlClW",
"lud6eLeMlXlYlZlZl0crl1l2l3l4l5l6l7l8l9m.m#maiTiUmblYe9lZiQiXmcmaiTiUiVlYmdlZmemf",
"mgmh#ZcMa6jfmiaqkAfOg6mjmkmlmmmnmompmqfOmrhmapmsmtmukAeNmvfOfKmwapmsmxmukAeNmvfO",
"mygfaVmzmAmBmCmDmEmFmGmHjimImJmKmLk6kUfMmMdamNmOmPmBmQmDkUmRmSmTmUmOmVmBmQmDmWmX",
"mYmZ#lm0m1m2m3mfm4fkm5iagxm6m7m2d0mfm4fkm5iagxm8m9.Vd0d1m4fjm5ian.m8m9n#nad1m4fj",
"#jd2nbnc#Mndkdne#Onfngnhninjnkndkdnenlnfnmnhninjnkndnnnenlnonmnhnpncnk#snqnrnlno",
"nscNapntnunvakapnwnxnynznvnAnBnvakapcPcQnCnznvntnBnvakkOcPcQnDeNnvntnEnvakkOcPnF",
"nGnHnInInJnKnLnMnNnOnPnQnRnSnTnKnLnMnNnUnVnQnRnSnTnWnLnMnNnXnVnQnRnLnTnWnSnMnNnY"};
