/* XPM */
static char *dummy[]={
"40 40 309 2",
"cN c #006f7c",
"ca c #00727e",
".j c #00a15e",
"aH c #03848b",
"bp c #03868d",
"cj c #047c87",
"cM c #048189",
"aG c #04848c",
"aV c #04858c",
"bK c #04868d",
"be c #048890",
"by c #05888f",
"bQ c #058991",
"bz c #058a92",
"b. c #06878e",
"aR c #069499",
"cq c #07838e",
"cb c #079098",
"ae c #07d2d1",
"ck c #08919a",
"cr c #08949c",
"cF c #08969e",
"b6 c #09939c",
"bR c #09959d",
"cx c #0999a1",
"ax c #09dddc",
"an c #09e2e1",
"cD c #0a7580",
"cE c #0a909a",
"bq c #0a9ea4",
"aW c #0aa5a9",
"ad c #0aa5ab",
"aI c #0adcdb",
"a6 c #0aece9",
"bN c #0af1ee",
"bk c #0af6f0",
"bF c #0af7f1",
"bl c #0afef7",
"bT c #0be4e3",
"bj c #0be9e4",
"bb c #0bece9",
"b1 c #0bedec",
"bE c #0bf0ec",
"ay c #0bf3ed",
"bu c #0bf3ee",
"bc c #0bf5f0",
"aJ c #0bf8f3",
"ap c #0bf9f5",
"aB c #0bfbf3",
"aZ c #0bfdf6",
"aK c #0bfff6",
"az c #0bfff7",
"bm c #0bfff8",
"aN c #0bfff9",
"aw c #0c979d",
"am c #0c9ea4",
"bX c #0ca5ad",
"b7 c #0ca9ae",
"bf c #0cb5b7",
"cG c #0cbabc",
"aY c #0cebe9",
"aA c #0cfcf7",
"aL c #0cfff4",
"a0 c #0cfff6",
"ao c #0cfffb",
"bC c #0da7ac",
"bL c #0dafb4",
"cc c #0db1b6",
"bY c #0db5b9",
"cl c #0dbabc",
"bi c #0dc1c3",
"bD c #0dc8c9",
"cs c #0dcfcf",
"bt c #0dd8d7",
"aM c #0dfff4",
"bM c #0eaeb4",
"bZ c #0eb0b5",
"bs c #0eb2b7",
"b0 c #0eb7ba",
"br c #0ebcbe",
"cd c #0ebdbf",
"a4 c #0ebfc1",
"b8 c #0ec2c4",
"ce c #0ec2c5",
"b# c #0ec4c5",
"b9 c #0ed5d5",
"cf c #0ed7d7",
"bB c #0fb3b8",
"ba c #0fb4ba",
"bh c #0fb8bb",
"bS c #0fb9bd",
"bA c #0fc3c6",
"a5 c #0fd4d4",
"bg c #10c1c3",
"aX c #10cccd",
"aS c #10cecf",
"aF c #148992",
"cp c #1e818b",
"cW c #1f3439",
"b5 c #229aa2",
"cX c #254049",
"cI c #27353a",
"cV c #2e3537",
"cn c #304851",
"cu c #313634",
"cP c #314046",
"Qt c #32a67a",
"#v c #333028",
"cz c #353229",
"#0 c #36332b",
"cL c #36959a",
"bJ c #379fa4",
"#B c #38352d",
"cA c #383e3e",
"#y c #39362d",
".M c #393730",
".U c #3a372f",
"#A c #3e3c32",
"#C c #3f3c33",
".h c #424036",
".Z c #424037",
"cg c #435059",
".G c #444238",
"#i c #444239",
"#u c #44423a",
"bU c #444d56",
".i c #45433b",
".2 c #47433c",
"#R c #47443c",
"#T c #47443e",
".z c #47453d",
"#z c #49483b",
"#b c #49483f",
"bW c #499da0",
"#k c #4a4740",
".I c #4a4741",
"## c #4a4840",
"bG c #4b4a41",
".N c #4b4a42",
"av c #4ba0a6",
".L c #4c493f",
"#. c #4c4a41",
"#p c #4c4b44",
".F c #4d4a43",
"bH c #4d5962",
".4 c #4e4d43",
"aP c #4e5a64",
".s c #4f4d44",
"#I c #4f4d46",
".O c #4f4e46",
"aD c #4f5962",
"aU c #4f5c67",
".v c #504d46",
".J c #504e47",
"#W c #50504c",
"a2 c #505d68",
".D c #514e46",
"aT c #514f49",
"a8 c #515e69",
"#U c #524f48",
"#F c #525047",
"#D c #525048",
"a. c #525b60",
".c c #53514a",
".E c #545149",
".a c #54524b",
"cH c #54534c",
"#9 c #545a5e",
".t c #55534a",
".X c #55544d",
"#3 c #555a5c",
"#X c #556068",
".A c #56544c",
".5 c #56554b",
"cY c #56646a",
".Y c #57554e",
"#t c #575649",
"#n c #57564b",
"cQ c #57656d",
".P c #58554f",
".H c #58574f",
".# c #595650",
"ag c #596062",
"a# c #59636a",
"#s c #5a5850",
"#O c #5a5852",
".y c #5b5851",
"#c c #5b5a51",
".R c #5c5a54",
".3 c #5c5c53",
"cv c #5c666d",
"#Y c #5d6870",
"#4 c #5d6872",
"b3 c #5d6971",
".C c #5f5e56",
".b c #5f5e57",
"aC c #5f5f5b",
".g c #615f58",
".k c #615f59",
"cy c #615f5a",
"#o c #61605b",
".r c #626059",
"#l c #65635b",
".l c #65635f",
"#r c #65645a",
"af c #65645c",
"#a c #66645c",
".B c #66655d",
".d c #66655f",
"#S c #67665e",
".u c #67aa97",
"#P c #68665e",
".e c #68665f",
"#2 c #686660",
".o c #696761",
"#V c #696860",
"aO c #696862",
".S c #696863",
"b2 c #6a6863",
".w c #6a6962",
"#L c #6a6964",
"cU c #6a6a66",
"aq c #6a6a67",
"bO c #6a747b",
"#x c #6b6964",
"#h c #6b6a66",
".p c #6c6a63",
"#j c #6c6b67",
"#g c #6d6d69",
"ar c #6d777f",
".K c #6e6d65",
"a7 c #6e6e64",
"#m c #6f6d63",
"cm c #6f6d67",
"#q c #6f6e66",
"#Q c #706f65",
"ct c #706f67",
"#M c #716f68",
".6 c #717069",
"#1 c #71706a",
".x c #74736c",
"au c #74aeb4",
"#w c #75746c",
".Q c #77746f",
".f c #787670",
"#E c #787672",
"a1 c #787772",
"cO c #797973",
".7 c #7a7a74",
"#K c #7b7973",
"#J c #7b7a72",
"#f c #7b7a75",
".V c #7b7a76",
"#Z c #7b888b",
".9 c #7c7b76",
"#8 c #7c7d7b",
"cB c #7c8484",
".q c #7d7c75",
"bv c #7d7d77",
"#N c #7e7d76",
".0 c #7e7d77",
"bw c #81817c",
".W c #82827e",
".1 c #86857f",
"cJ c #888d8f",
"#d c #898883",
"ci c #8ab7b8",
"#e c #8c8b86",
"ah c #8c9195",
".n c #8d8c88",
"#H c #8e8d89",
".m c #8f8f8b",
"cC c #8f9b97",
"#G c #90908c",
"c. c #919698",
"bn c #949491",
".8 c #959593",
".T c #969693",
"bV c #979a9b",
"at c #97b5ba",
"cR c #9b9d99",
"cT c #9b9e98",
"aa c #9da1a7",
"b4 c #a3a6a3",
"co c #a6a6a0",
"bI c #a8aaa8",
"bP c #aaacaa",
"c# c #aaafab",
"cw c #abaca6",
"ch c #acada9",
"cS c #b2b1aa",
"cK c #b3b2ab",
"ac c #bfd7d6",
"al c #c9d0cf",
"ai c #d2d3d5",
"bo c #d6dce1",
"#7 c #d9dce1",
"as c #dce0e1",
"bx c #dee1e4",
"aE c #e3e8ea",
"a3 c #e3ebee",
"bd c #e4eaee",
"a9 c #e4ecee",
"aQ c #e7edef",
"#5 c #e8e9eb",
"#6 c #f9f3ed",
"ab c #faf8f8",
"ak c #fffcfc",
"aj c #ffffff",
"QtQtQtQtQtQtQtQtQtQtQtQtQtQtQtQtQtQtQtQtQtQtQtQtQtQtQtQtQtQt.#.a.b.c.d.e.f.g.h.i",
"QtQtQtQt.jQtQtQtQtQtQtQt.jQtQtQtQtQtQtQt.jQtQtQtQtQtQtQt.jQt.k.l.m.n.o.p.q.r.s.t",
"Qt.jQtQtQtQtQtQtQt.jQtQtQt.uQtQtQt.jQtQtQtQtQtQtQt.jQtQtQt.u.v.w.x.y.z.A.B.C.D.E",
"QtQtQtQtQt.jQtQt.u.uQtQtQtQtQtQtQtQtQtQtQt.jQtQt.u.uQtQtQtQt.F.G.H.I.#.w.J.K.L.E",
"QtQtQtQtQtQtQt.j.u.uQtQtQtQtQtQtQtQtQtQtQtQtQt.j.u.uQtQtQtQt.M.N.O.P.Q.R.S.T.l.U",
"QtQtQtQtQtQtQtQtQtQtQtQtQtQtQt.uQtQtQtQtQtQtQtQtQtQtQtQtQtQt.V.W.#.X.Y.Z.0.1.a.2",
"QtQt.u.uQtQtQtQtQtQtQtQtQtQtQtQtQtQt.u.uQtQtQtQtQtQtQtQtQtQt.3.4.5.6.7.8.9#.###a",
"QtQt.u.uQtQtQtQtQtQtQtQtQtQtQt.jQtQt.u.uQtQtQtQtQtQtQtQtQtQt#b#c#d#e#f#g#h#i#j#k",
"QtQtQtQtQt.jQt.uQtQt.jQtQtQtQtQtQtQtQtQtQt.jQt.uQtQt.jQtQtQt.G#l.6#m#n#o#p#o#q#r",
"QtQtQtQtQtQtQtQtQtQtQtQtQtQtQtQtQtQtQtQtQtQtQtQtQtQtQtQtQtQt.Z.K#s#t.h#u#v.p#w#x",
"Qt.jQtQtQt.uQtQtQt.jQtQtQtQtQtQtQt.jQtQt.#.a.b.c.d.e.f.g.h.i#y#u#i#z#A#B#C#D.R#E",
".u.uQtQtQtQtQtQtQtQtQtQtQt.jQtQt.u.uQtQt.k.l.m.n.o.p.q.r.s.t.Z#F#G#H#I.J#J#K.P#L",
".u.uQtQtQtQtQtQtQtQtQtQtQtQtQt.j.u.uQtQt.v.w.x.y.z.A.B.C.D.E.a#M#N#O#C#F#P#Q.2#.",
"QtQtQtQtQtQtQt.uQtQtQtQtQtQtQtQtQtQtQtQt.F.G.H.I.#.w.J.K.L.E#R.H#S#T#U#V#W#X#Y#Z",
"QtQtQtQtQtQtQtQtQtQt.u.uQtQtQtQtQtQtQtQt.M.N.O.P.Q.R.S.T.l.U#0#1#V#O#2#3#4#5#6#7",
"QtQtQtQtQtQtQt.jQtQt.u.uQtQtQtQtQtQtQtQt.V.W.#.X.Y.Z.0.1.a.2.V#8#9a.a#aaabacadae",
"QtQt.jQtQtQtQtQtQtQtQtQtQt.jQt.uQtQt.jQt.3.4.5.6.7.8.9#.##afagahaiajakalamanaoap",
"QtQtQtQtQtQtQtQtQtQtQtQtQtQtQtQtQtQtQtQt#b#c#d#e#f#g#h#iaqarasatauavawaxayazaAaB",
"Qt.jQtQtQtQtQtQtQt.jQtQtQt.uQtQtQt.jQtQt.G#l.6#m#n#o#paCaDaEaFaGaHaIaJazaKaLaMaN",
"QtQtQtQtQt.jQtQt.u.uQtQtQtQtQtQtQtQtQtQt.Z.K#s#t.h#u#vaOaPaQaGaRaSaKaLazaMaMaMaz",
"QtQtQtQtQtQtQt.j.u.u.#.a.b.c.d.e.f.g.h.i#y#u#i#z#A#B#CaTaUaQaVaWaXaYaZaLaMaMaMa0",
"QtQtQtQtQtQtQtQtQtQt.k.l.m.n.o.p.q.r.s.t.Z#F#G#H#I.J#Ja1a2a3aGa4aXa5a6a0aKaLaMa0",
"QtQt.u.uQtQtQtQtQtQt.v.w.x.y.z.A.B.C.D.E.a#M#N#O#C#F#Pa7a8a9b.b#aXbabbbcaKaMaMa0",
"QtQt.u.uQtQtQtQtQtQt.F.G.H.I.#.w.J.K.L.E#R.H#S#T#U#V.J#qa8bdbebfbgbhbibjbkblbmaz",
"QtQtQtQtQt.jQt.uQtQt.M.N.O.P.Q.R.S.T.l.U#0#1#V#O#2#O.Sbna2bobpbqbgbrbsbtbbbublaz",
"QtQtQtQtQtQtQtQtQtQt.V.W.#.X.Y.Z.0.1.a.2.V.W.#.X.Y.ZbvbwaUbxbybzbAbrbBbCbDbEbFaz",
"Qt.jQtQtQt.uQtQtQt.j.3.4.5.6.7.8.9#.###a.3.4.5.6.7.8#fbGbHbIbJbKbLbrbrbsbMbtbNbN",
".u.uQtQtQtQtQtQtQtQt#b#c#d#e#f#g#h#i#j#k#b#c#d#e#f#g#h#i#hbObPbQbRbSbrbhbMbMbTbN",
".u.uQtQtQtQtQtQtQtQt.G#l.6#m#n#o#p#o#q#r.G#l.6#m#n#o#p#o#qbUbVbWaHbXbYbrbZb0b0b1",
"QtQtQtQtQtQtQt.uQtQt.Z.K#s#t.h#u#v.p#w#x.Z.K#s#t.h#u#v.p#wb2b3b4b5b6b7brbrbrb8b9",
".#.a.b.c.d.e.f.g.h.i#y#u#i#z#A#B#C#D.R#E#y#u#i#z#A#B#C#D.R#E#yc.c#cacbcccdcecfcf",
".k.l.m.n.o.p.q.r.s.t.Z#F#G#H#I.J#J#K.#.S.Z#F#G#H#I.J#J#K.#.S.Zcgchcicjckclcfcfcf",
".v.w.x.y.z.A.B.C.D.E.a#M#N#O#C#F#P#Q.2#..a#M#N#O#C#F#P#Q.2#..acmcncocpcqcrcscfb9",
".F.G.H.I.#.w.J.K.L.E#R.H#S#T#U#V.Jct#y#i#R.H#S#T#U#V.Jct#y#i#R.Hcucvcwcacbcxcsb9",
".M.N.O.P.Q.R.S.T.l.U#0#1#V#O#2#O.S.Tcycz#0#1#V#O#2#O.S.Tcycz#0#1#VcAcBcCcDcEcFcG",
".V.W.#.X.Y.Z.0.1.a.2.V.W.#.X.Y.Z.0.1.a.2.V.W.#.X.Y.Z.0.1.a.2.V.W.#cHcIcJcKcLcMcN",
".3.4.5.6.7.8.9#.###a.3.4.5.6.7.8.9#.###a.3.4.5.6.7.8.9#.###a.3.4.5.6cOcPcQcRcScT",
"#b#c#d#e#f#g#h#i#j#k#b#c#d#e#f#g#h#i#j#k#b#c#d#e#f#g#h#i#j#k#b#c#d#e#fcUcVcWcXcY",
".G#l.6#m#n#o#p#o#q#r.G#l.6#m#n#o#p#o#q#r.G#l.6#m#n#o#p#o#q#r.G#l.6#m#n#o#p#o#q#r",
".Z.K#s#t.h#u#v.p#w#x.Z.K#s#t.h#u#v.p#w#x.Z.K#s#t.h#u#v.p#w#x.Z.K#s#t.h#u#v.p#w#x"};
