/* XPM */
static char *dummy[]={
"40 40 562 2",
".2 c #00a15e",
"gU c #272640",
"gT c #2e2d2e",
"gc c #32314a",
"dT c #32a579",
"Qt c #32a67a",
"c5 c #33a579",
"cu c #36a579",
"cc c #36a679",
"gH c #373328",
"bW c #3aa579",
"gw c #3b382b",
".# c #3fa578",
".I c #40a578",
".3 c #41a578",
"bd c #43a577",
"fo c #45a578",
"gS c #47411c",
"f9 c #4b4752",
"fp c #4ca474",
"fq c #4da576",
"fG c #4e484b",
"gj c #4f4a15",
"d9 c #534f60",
"el c #545062",
"ev c #555163",
"gn c #559f55",
"c7 c #55a370",
"eK c #565264",
"fm c #574d5c",
"c6 c #57a476",
"gV c #585766",
"gI c #5a5868",
"c8 c #5aa675",
"#j c #5da472",
"#i c #5ea476",
"gk c #5f5d6a",
"dP c #605456",
"fP c #615f6d",
"gq c #645d1d",
"fR c #659f62",
"ge c #669e5b",
"dn c #67a996",
"bp c #67aa97",
"#k c #68a472",
"bc c #68a996",
"fx c #6e6c78",
"gm c #6e9f64",
"gt c #6ea163",
"cr c #716055",
"eM c #71a270",
"gA c #72a36a",
"cG c #736662",
"eN c #739c58",
"gM c #74a46c",
"cs c #756a67",
"dC c #777ea7",
"cZ c #786859",
"f2 c #789f5a",
"dz c #797278",
"ga c #799f5d",
"bY c #7a994f",
"eO c #7ca160",
"gr c #7d7e83",
"fz c #829d53",
"fI c #839c59",
"fc c #869b5a",
"bX c #869f67",
"gx c #88888d",
"bZ c #88a25b",
"cj c #897a15",
"#F c #8a7b18",
"eY c #8a9b4a",
"cY c #8b6f48",
"e6 c #8b7b16",
"e9 c #8b994d",
"cm c #8c7a1e",
"du c #8c7e15",
"g# c #8c94af",
"fr c #8d9d55",
"ct c #8f8682",
"#E c #90801a",
"gs c #909599",
"cg c #918317",
"f0 c #919196",
"e# c #919540",
".L c #928416",
"fS c #929540",
"da c #936627",
"f8 c #948125",
"e4 c #94851b",
"ci c #948618",
"er c #948716",
"gB c #958716",
"cl c #958718",
".c c #958836",
"dg c #959090",
"em c #969842",
"dK c #978719",
"gN c #97891b",
".b c #978a38",
"fH c #97979a",
"fT c #979941",
"cR c #98871b",
"eg c #988725",
"eF c #988818",
"ck c #988a1d",
"dV c #989334",
"ex c #98984e",
"eU c #994522",
"fw c #99732d",
"cC c #998a1b",
"ch c #998a1f",
".K c #998c17",
"e5 c #998c1a",
"dr c #998d16",
"dB c #999bb3",
"gJ c #999c9a",
"gL c #999e9b",
"b4 c #9a4021",
"b7 c #9a4120",
"fa c #9a5d2e",
"cX c #9a753f",
"fk c #9a8d18",
"dt c #9a8d19",
"eh c #9b8530",
"af c #9b8825",
"a. c #9b892a",
"aE c #9b8b21",
"d3 c #9b8c1a",
"f3 c #9b8f18",
"eV c #9c492b",
"bL c #9c8827",
"## c #9c8928",
"aT c #9c8929",
".R c #9c8b24",
"fO c #9c8e18",
"ee c #9c8f17",
"e3 c #9c9016",
"by c #9d8c25",
"aL c #9d8e22",
"gf c #9d901a",
"gp c #9d901c",
"#G c #9d901e",
"bI c #9d9117",
"fV c #9d9119",
"c9 c #9d9239",
"e7 c #9e5928",
"df c #9e7842",
"ef c #9e8932",
"#s c #9e8b25",
".J c #9e8b2c",
"#R c #9e8c26",
".d c #9e8c28",
"a2 c #9e8e26",
"d. c #9e8f1e",
"cN c #9e8f20",
"eS c #9e9019",
"fD c #9e9316",
"a0 c #9e932b",
"d6 c #9f200e",
"b5 c #9f4125",
"fl c #9f5d2d",
"db c #9f6b37",
"a7 c #9f8b27",
"#0 c #9f8d28",
".i c #9f8e24",
"al c #9f8e25",
"eA c #9f921a",
"fE c #9f921b",
"fJ c #9f9316",
"cB c #9f9317",
"fF c #9f931a",
"gi c #9f9417",
"#H c #9f9514",
"eP c #9f9847",
"b8 c #a0422a",
".4 c #a08b31",
"fd c #a09121",
"cL c #a0921b",
"#S c #a09417",
"eq c #a09419",
"fs c #a0941a",
"gu c #a0941b",
".O c #a09517",
"ey c #a09518",
"aO c #a09614",
"fg c #a09618",
"dU c #a09c5e",
"fv c #a18239",
"#D c #a18a3a",
"be c #a19028",
"dF c #a1933f",
"fY c #a19419",
"#T c #a1941c",
"eQ c #a19519",
"ds c #a1951c",
"#J c #a19615",
"bv c #a19618",
"bf c #a19715",
"f# c #a19716",
"ap c #a28e29",
"dX c #a29033",
"gg c #a29419",
"gh c #a2941d",
"fu c #a29619",
"aA c #a29717",
"#r c #a29718",
"bs c #a29719",
"bi c #a29815",
"a6 c #a29818",
"dW c #a29a3f",
"gd c #a2a6a1",
"b2 c #a3902a",
"b0 c #a3902f",
"cv c #a39231",
"aw c #a39622",
"dq c #a39717",
"gR c #a39718",
"en c #a39719",
"cz c #a3971a",
"do c #a3973b",
"dJ c #a39816",
"#p c #a39817",
"f7 c #a39818",
"fL c #a3981a",
"ea c #a39915",
".f c #a39916",
"cP c #a39917",
"d1 c #a39918",
"b3 c #a44e30",
"es c #a45426",
"d# c #a47a3d",
"#l c #a49031",
"bF c #a49131",
"ff c #a4932a",
"cM c #a49422",
"fe c #a49423",
"bq c #a49429",
"cd c #a49530",
"ez c #a4971b",
"dH c #a49817",
"aS c #a49818",
"#m c #a49819",
"aN c #a4981b",
"aQ c #a49916",
"eZ c #a49917",
"a5 c #a49918",
"ax c #a49919",
"ec c #a49a15",
"gD c #a49a16",
"fi c #a49a17",
"eB c #a49a18",
"go c #a4a265",
"fQ c #a4a6a5",
"b6 c #a54224",
"fZ c #a57235",
"#Z c #a59918",
"b1 c #a59919",
"bH c #a5991c",
"aR c #a59a17",
"br c #a59a18",
".Q c #a59a19",
"dY c #a59a1a",
"az c #a59b18",
"fU c #a69943",
"#. c #a69a18",
"bx c #a69a19",
"ac c #a69b18",
".N c #a69b19",
"cx c #a69b1a",
"dG c #a69b1b",
"fN c #a69c17",
"ft c #a69c18",
"#L c #a69c19",
"f5 c #a69c1a",
"fB c #a69c1b",
"gl c #a6aba6",
"fK c #a79a1a",
"gE c #a79b18",
"bu c #a79b19",
"bG c #a79b1a",
"cw c #a79b1b",
"gb c #a79b1d",
"f4 c #a79c17",
"bh c #a79c18",
".h c #a79c19",
"aD c #a79c1a",
".7 c #a79d18",
"gP c #a79d19",
"f6 c #a79d1b",
"eW c #a83923",
"d4 c #a8522d",
"gG c #a89c18",
"#V c #a89c19",
".5 c #a89c1a",
"#X c #a89c1b",
"gF c #a89c1c",
".e c #a89d19",
"am c #a89d1a",
"f. c #a89d1b",
"cf c #a89e19",
"ab c #a89e1a",
"fn c #a8a9a9",
"aM c #a99c19",
"cA c #a99c1b",
"gC c #a99c1c",
"ep c #a99c1d",
"aP c #a99d19",
"dI c #a99d1a",
"#o c #a99d1b",
"#q c #a99d1c",
".9 c #a99e19",
"fX c #a99e1a",
"e1 c #a99e1c",
".M c #a99e1d",
"e2 c #a99f1c",
"g. c #a9aca9",
"d5 c #aa260f",
"cK c #aa9546",
".a c #aa9759",
"fM c #aa9d1b",
".8 c #aa9e19",
"bJ c #aa9e1a",
"cy c #aa9e1b",
"a4 c #aa9e1c",
"ao c #aa9e1d",
"#U c #aa9f1a",
"ae c #aa9f1b",
"cQ c #aa9f1c",
"fy c #aaacac",
"f1 c #aaaeae",
"dv c #ab4920",
"aZ c #ab974a",
"fh c #ab9e1a",
"aa c #ab9e1c",
"an c #ab9e1d",
"eD c #ab9f1a",
"ad c #ab9f1c",
"eE c #ab9f1d",
".g c #ab9f1e",
"#W c #aba01b",
"ed c #aba01d",
"bj c #aba01e",
"eo c #aba11d",
"eb c #aba11e",
"gv c #aba21d",
"c0 c #aba3a2",
"eG c #ac582c",
"eC c #ac9f1a",
"bK c #ac9f1c",
"a# c #ac9f1d",
"#Y c #aca01b",
".6 c #aca01c",
"#n c #aca01d",
"d0 c #aca01e",
"bg c #aca01f",
"fC c #aca11d",
"#K c #aca11f",
"bt c #aca21d",
"e0 c #aca21e",
"eT c #ad7640",
"a1 c #ad9c3c",
"cO c #ada01c",
"eR c #ada01d",
"fj c #ada01e",
"d2 c #ada11e",
"bw c #ada21d",
"#I c #ada21f",
"fA c #ada31e",
"ce c #ada320",
"cF c #ae8233",
"gO c #aea01e",
"dZ c #aea11c",
"fW c #aea11e",
"gQ c #aea11f",
".P c #aea31e",
"dp c #aea41f",
"gK c #aeb2ac",
"dc c #af3e26",
"cD c #af4323",
"ei c #af5631",
"a3 c #afa31e",
"aC c #afa520",
"gy c #afb3ad",
"aB c #b0a620",
"dL c #b1512b",
"ay c #b1a620",
"cS c #b24422",
"cn c #b54422",
"#1 c #b63518",
"bz c #b83418",
".S c #b93519",
"aF c #ba3418",
"bM c #bb3015",
"b9 c #bc3116",
"aU c #bc3b19",
"#M c #bd3418",
".j c #bd3518",
"cU c #be2e09",
"bk c #be3518",
"aq c #be371a",
"d7 c #bf2f10",
"#a c #c0421b",
"c2 c #c0c5d2",
"#t c #c33a1b",
"a8 c #c8411d",
"ag c #c9451d",
"dk c #c9cbce",
"cT c #cb2f0a",
"dh c #d6d4d3",
"e8 c #d8d7df",
"eI c #d94b0f",
"cJ c #dcdae0",
"dA c #dcdce0",
"eH c #dd3e0d",
"eJ c #dd5113",
"cV c #de4f15",
"bR c #df5110",
"fb c #dfdee2",
"ej c #e04f10",
"bO c #e05210",
"bN c #e15213",
"et c #e15a15",
"dw c #e26218",
"cq c #e39d17",
"dQ c #e3e3e8",
"ew c #e3e3eb",
"cE c #e46818",
"eL c #e4e4eb",
"dM c #e55111",
"bP c #e55914",
"gz c #e5e5e5",
"co c #e66617",
"eX c #e6e5ec",
"dS c #e6e6e6",
"dd c #e75c12",
"bQ c #e76619",
"dR c #e7e7e7",
"e. c #e7e7ed",
"c3 c #e8e8e8",
"cH c #e9e8ea",
"c4 c #e9e9e9",
"dN c #ea6a16",
"dl c #eaeaea",
"bl c #eb6b12",
".k c #eb6c12",
"cW c #eb9d14",
"dm c #ebebeb",
"dE c #ececec",
"dD c #ededed",
"dO c #f09911",
"d8 c #f29a10",
"ek c #f49c0f",
"cI c #f6f8ef",
"eu c #f79e0d",
"dy c #f79e0e",
"c1 c #f9f9f8",
"dx c #fb9c0d",
"de c #fea20b",
"bU c #fea609",
"bV c #fea70b",
".l c #ff461e",
".T c #ff461f",
".U c #ff481e",
".m c #ff491e",
"#b c #ff4b1d",
".n c #ff4c1d",
"#N c #ff4d1d",
"#u c #ff4e1d",
".o c #ff4f1d",
"#2 c #ff501c",
".p c #ff511c",
"ah c #ff521c",
"#3 c #ff531c",
".q c #ff541c",
".r c #ff561b",
".V c #ff571b",
"ar c #ff581b",
".s c #ff591a",
"#c c #ff5a1a",
".t c #ff5b1a",
".W c #ff5c1a",
".u c #ff5d1a",
".X c #ff5f19",
".v c #ff6019",
".Y c #ff6119",
".w c #ff6219",
".Z c #ff6318",
".x c #ff6418",
"#v c #ff6518",
".y c #ff6618",
"#w c #ff6717",
".z c #ff6817",
".A c #ff6917",
"#x c #ff6a17",
".B c #ff6b17",
"#y c #ff6c16",
".C c #ff6d16",
"#z c #ff6e16",
".D c #ff6f16",
".E c #ff7016",
".F c #ff7115",
".G c #ff7215",
".H c #ff7315",
".0 c #ff7415",
"#d c #ff7515",
".1 c #ff7614",
"#4 c #ff7714",
"#e c #ff7814",
"#f c #ff7914",
"#g c #ff7a13",
"#h c #ff7b13",
"aG c #ff7c13",
"#A c #ff7d13",
"#B c #ff7e13",
"#C c #ff7f12",
"#O c #ff8012",
"#5 c #ff8112",
"#P c #ff8212",
"#Q c #ff8312",
"#6 c #ff8411",
"#7 c #ff8511",
"#8 c #ff8611",
"#9 c #ff8711",
"as c #ff8810",
"ai c #ff8910",
"aj c #ff8a10",
"ak c #ff8b10",
"at c #ff8c10",
"a9 c #ff8d0f",
"au c #ff8e0f",
"av c #ff8f0f",
"aH c #ff900f",
"aI c #ff910f",
"aJ c #ff920e",
"aK c #ff930e",
"aV c #ff940e",
"aW c #ff950e",
"aX c #ff960e",
"aY c #ff970d",
"b. c #ff980d",
"b# c #ff990d",
"ba c #ff9a0d",
"bb c #ff9b0c",
"bA c #ff9c0c",
"bm c #ff9d0c",
"bn c #ff9e0c",
"bo c #ff9f0c",
"bB c #ffa00b",
"bC c #ffa10b",
"bD c #ffa20b",
"bE c #ffa30b",
"cp c #ffa40b",
"bS c #ffa50a",
"bT c #ffa60a",
"c. c #ffa70a",
"c# c #ffa909",
"ca c #ffab09",
"cb c #ffac09",
"dj c #fffefd",
"di c #ffffff",
"QtQt.#.a.b.c.d.e.f.g.h.i.j.k.l.m.n.o.p.q.r.s.t.u.v.w.x.y.z.A.B.C.C.D.E.F.G.G.G.H",
"QtQt.I.J.K.L.M.N.O.P.Q.R.S.T.U.n.o.p.q.V.s.W.X.Y.Z.y.z.A.B.C.D.E.G.H.0.0.1.1.1.1",
"Qt.2.3.4.5.6.7.8.6.9#.###a.U#b.o.p.q.V#c.u.X.w.x.y.A.B.C.D.F.G.0#d.1#e#f#f#g#h#h",
"#i#j#k#l#m#n#o#p.6#q#r#s#t#b#u.p.q.V#c.u.X.w#v#w#x#y#z.E.G.0.1#e#f#h#h#A#A#B#C#C",
"#D#E#F#G.e#H#I.e#J#K#L.i#M#N.p.q.V#c.u.X.w#v.z.B.C.D.G.0.1#e#g#h#A#B#O#O#P#P#P#Q",
"#R#S#T#U#V#q#W#V#X#Y#Z#0#1#2#3.r.s.u.X.w.y.A.B.C.E.H#d#4#f#h#A#C#5#P#6#6#7#8#9#9",
"a.#Va##L.eaaabacadae#pafagah.r.s.W.X.w#v.A.B#z.F.0.1#f#h#A#C#5#Q#6#8#9aiaiajakak",
"alam.han.N.han.N.eao.Qapaq.qar.t.X.w#v.z.B#z.F.0.1#f#h#B#O#P#6#9asajakatauauavav",
"aw#paxayazaAaB.haAaCaDaEaF.V.t.u.Y.x#w.B.C.F.0.1#faG#C#P#6#8asajatauavaHaIaJaJaK",
"aLaMaNaOaP#XaQ#V#XaRaSaTaU.s.u.v.Z.y#x.C.E.0.1#faG#C#P#6#9aiakauaHaIaJaVaWaXaYaY",
"aZa0a1a2ama3a4a5a3ada6a7a8.t.X.w.y.A#y.D.H.1#faG#C#P#7#9aja9avaIaKaWaYb.b#babbbb",
"bcbcbdbeacbfbgbhbibj.N.ibkbl.v.x.z.B#z.G#d#f#h#C#P#7asakauaHaJaVaYb#babbbmbnbobo",
"bpbp.3bqbrbsbtbubvbwbxbybz.X.w.y.A.C.E.0#4#h#B#P#6#9akauaHaKaWb.babAbnbBbCbDbDbE",
"QtQt.IbFbGbHbIbJbK#U#.bLbMbNbObPbQbR.G.1#f#A#O#6#9ajauaHaKaXb#bbbnbBbDbEbSbTbUbV",
"QtQtbWbXbYbZb0b1.6#q#rb2b3b4b5b6b7b8b9#e#h#C#P#8aia9aHaKaXb#bbbnbCbEbSc.c#c#cacb",
"QtQtQtQtQtcccd.N#Jcecfcgchcicjckclcmcnco#A#5#6asakavaJaWb#bbbobDcpc.c#cacqcrcsct",
"QtQt.2QtQtcucv.hcwabbucxcy#SczcAcBcCcDcE#C#Q#9ajauaIaVb.bbbnbDbSc.c#cbcFcGcHcIcJ",
"QtQtQtQtQtcucKcLcMcNa5cOcycPcOcQa5cRcScTcUcVasataHaKaYbabnbCcpcWcXcYcZc0c1c2c3c4",
"Qt.2QtQtQtc5c6c7c8c9aDbh.gbr.7a#.Nd.d#dadbdcddauaIaWb#bAbBdedfdgdhdidjdkc3dldmdm",
"QtQtQtQtQt.2QtQtdndob1aAdp.5dqdpaDdrdsdtdudvdwavaJaYbadxdydzdAdBdCdDc3dldmdEdmdm",
"QtQtQtQtQtQtQt.2dndFaSdGaAdHcy#V#pdIdIdJdKdLdMaHdNb.bbdOdPdQc3dRdSdldmdEdEdEdEdm",
"QtQtQtQtQtQtQtQtdTdUdVdWdXdYdZd0d1#Yd2a5d3d4d5d6d7b#bmd8d9e.dRdRdldEdEdEdEdEdEdE",
"QtQtbpbpQtQtQtQtQtdTdTdTe#bveaebbreced.Qeeefegeheiejbnekele.dRc3dldmdmdEdEdEdEdE",
"QtQtbpbpQtQtQtQtQtQtQtQtemenaxeobxb1bwcxbvepeqeresetboeuevewdRc4dldldmdEdEdEdEdE",
"QtQtQtQtQt.2QtbpQtQt.2QtexeyezeAeBeC#nazeDeE.7eFeGeHeIeJeKeLdRc4dlc4dldmdmdEdEdE",
"QtQtQtQtQtQtQtQtQtQtQtQteMeNeOePeQdIeRaA.heR#reSeTeUeVeWeKeXdRc4c4c4c4dmdmdmdmdE",
"Qt.2QtQtQtbpQtQtQt.2QtQtQtQtQteYczeZe0e1aReoe2e3e4e5e6e7eve8dRc3c4c4c4dldldmdmdE",
"bpbpQtQtQtQtQtQtQtQtQtQtQt.2Qte9cBamf.#pdIa4eZ#V#qf#.KfaelfbdRdRc4c4c4c3c4dmdmdE",
"bpbpQtQtQtQtQtQtQtQtQtQtQtQtQtfcfdfefffgfhd2fibJfjazfkflfmfndEdRc4c4c4c4c4dldmdm",
"QtQtQtQtQtQtQtbpQtQtQtQtQtQtQtfofpfqfrfsfte1amft.5f.fufvfwfxfydRdRc4c4c4c4c4dldm",
"QtQtQtQtQtQtQtQtQtQtbpbpQtQtQtQtQtQtfzeq#pfAfB#pfCf.fDfEfFfGfHdDdSc3c4c4c4c4c4dl",
"QtQtQtQtQtQtQt.2QtQtbpbpQtQtQtQtQtQtfIfJfKfLcPaPfMfNaPfMfNfOfPfQdldRc3c4c4c4c4dl",
"QtQt.2QtQtQtQtQtQtQtQtQtQt.2QtbpQtQtfRfSfTfUfVbJfW#pfXfWd1fYfZf0f1dSdRc4c4c4dldl",
"QtQtQtQtQtQtQtQtQtQtQtQtQtQtQtQtQtQtQtQtQtf2f3f4cxf5bheBf6f7f8f9g.g#dSdRc4dldldl",
"Qt.2QtQtQtQtQtQtQt.2QtQtQtbpQtQtQt.2QtQtQtgaeQa5edaba5d0ae#pgbfLgcgdc3dRdRdldldl",
"QtQtQtQtQt.2QtQtbpbpQtQtQtQtQtQtQtQtQtQtQtgegfggghgieDanfteDanftgjgkgldSdRdRdldl",
"QtQtQtQtQtQtQt.2bpbpQtQtQtQtQtQtQtQtQtQtQtc6gmgngogp#VcydY.hbJcw.NgqgrgsdSdRdRc4",
"QtQtQtQtQtQtQtQtQtQtQtQtQtQtQtbpQtQtQtQtQtQtQtQtgtguace1gvacaDdpaca5gwgxgydmdSgz",
"QtQtbpbpQtQtQtQtQtQtQtQtQtQtQtQtQtQtbpbpQtQtQtQtgAgBbhgCgDgEgFgDgGgFeagHgIgJgKgL",
"QtQtbpbpQtQtQtQtQtQtQtQtQtQtQt.2QtQtbpbpQtQtQtQtgMgNaefjftfXgOgP#VgQgPgRgSgTgUgV"};
