/* XPM */
static char *dummy[]={
"40 40 656 2",
"h3 c #006f7c",
"h# c #00727e",
".2 c #00a15e",
"d0 c #03848b",
"fK c #03868d",
"hp c #047c87",
"h2 c #048189",
"dZ c #04848c",
"eC c #04858c",
"ge c #04868d",
"fq c #048890",
"fV c #05888f",
"gt c #058991",
"fW c #058a92",
"f# c #06878e",
"en c #069499",
"hy c #07838e",
"ha c #079098",
"c4 c #07d2d1",
"hq c #08919a",
"hz c #08949c",
"hT c #08969e",
"gW c #09939c",
"gu c #09959d",
"hJ c #0999a1",
"dH c #09dddc",
"dm c #09e2e1",
"hR c #0a7580",
"hS c #0a909a",
"fL c #0a9ea4",
"eD c #0aa5a9",
"c3 c #0aa5ab",
"d1 c #0adcdb",
"eV c #0aece9",
"gh c #0af1ee",
"fw c #0af6f0",
"f2 c #0af7f1",
"fx c #0afef7",
"gw c #0be4e3",
"fv c #0be9e4",
"fc c #0bece9",
"gL c #0bedec",
"f1 c #0bf0ec",
"dI c #0bf3ed",
"fP c #0bf3ee",
"fd c #0bf5f0",
"d2 c #0bf8f3",
"do c #0bf9f5",
"dL c #0bfbf3",
"eG c #0bfdf6",
"d3 c #0bfff6",
"dJ c #0bfff7",
"fy c #0bfff8",
"d6 c #0bfff9",
"dG c #0c979d",
"dl c #0c9ea4",
"gH c #0ca5ad",
"gX c #0ca9ae",
"fr c #0cb5b7",
"hU c #0cbabc",
"eF c #0cebe9",
"dK c #0cfcf7",
"d4 c #0cfff4",
"eH c #0cfff6",
"dn c #0cfffb",
"fZ c #0da7ac",
"gf c #0dafb4",
"hb c #0db1b6",
"gI c #0db5b9",
"hr c #0dbabc",
"fu c #0dc1c3",
"f0 c #0dc8c9",
"hA c #0dcfcf",
"fO c #0dd8d7",
"d5 c #0dfff4",
"gg c #0eaeb4",
"gJ c #0eb0b5",
"fN c #0eb2b7",
"gK c #0eb7ba",
"fM c #0ebcbe",
"hc c #0ebdbf",
"eT c #0ebfc1",
"gY c #0ec2c4",
"hd c #0ec2c5",
"fa c #0ec4c5",
"gZ c #0ed5d5",
"he c #0ed7d7",
"fY c #0fb3b8",
"fb c #0fb4ba",
"ft c #0fb8bb",
"gv c #0fb9bd",
"fX c #0fc3c6",
"eU c #0fd4d4",
"fs c #10c1c3",
"eE c #10cccd",
"eo c #10cecf",
"dY c #148992",
"hx c #1e818b",
"gV c #229aa2",
"im c #254048",
"il c #2d4134",
"hv c #304851",
"d7 c #32a579",
"Qt c #32a67a",
"c5 c #33a579",
"i# c #35422d",
"h1 c #36959a",
"cu c #36a579",
"cc c #36a679",
"gd c #379fa4",
"hY c #3a4730",
"bW c #3aa579",
".# c #3fa578",
".I c #40a578",
".3 c #41a578",
"bd c #43a577",
"gi c #45a578",
"ik c #46491f",
"hm c #475457",
"gE c #49514f",
"gG c #499da0",
"dF c #4ba0a6",
"gj c #4ca474",
"gk c #4da576",
"hG c #4e4e16",
"el c #4e5a64",
"eB c #4f5c67",
"eR c #505d68",
"e9 c #515e69",
"gb c #525860",
"hL c #559f55",
"c7 c #55a370",
"in c #56646a",
"ia c #57656d",
"c6 c #57a476",
"c8 c #5aa675",
"dW c #5c5e5a",
"hH c #5c666d",
"#j c #5da472",
"gT c #5e6a71",
"#i c #5ea476",
"hO c #63651f",
"g0 c #659f62",
"hB c #669e5b",
"dp c #67a996",
"bp c #67aa97",
"#k c #68a472",
"bc c #68a996",
"gr c #6b747b",
"cr c #6c6a59",
"hK c #6e9f64",
"hV c #6ea163",
"cG c #6f7167",
"fe c #71a270",
"cs c #72756c",
"h4 c #72a36a",
"ff c #739c58",
"ie c #74a46c",
"dE c #74aeb4",
"dB c #757b7c",
"cZ c #76735e",
"hf c #789f5a",
"hs c #799f5d",
"bY c #7a994f",
"hP c #7c8484",
"fg c #7ca160",
"gx c #829d53",
"gM c #839c59",
"f3 c #869b5a",
"bX c #869f67",
"cY c #88774b",
"hZ c #888d8f",
"bZ c #88a25b",
"cj c #897a15",
"#F c #8a7b18",
"fz c #8a9b4a",
"ho c #8ab7b8",
"fH c #8b7b16",
"fQ c #8b994d",
"cm c #8c7a1e",
"dw c #8c7e15",
"gl c #8d9d55",
"ct c #8e9386",
"hQ c #8f9b97",
"#E c #90801a",
"cg c #918317",
"ep c #919540",
"g9 c #919698",
".L c #928416",
"g1 c #929540",
"da c #936627",
"dg c #939592",
"hl c #948125",
"fF c #94851b",
"ci c #948618",
"eN c #948716",
"h5 c #958716",
"cl c #958718",
".c c #958836",
"eI c #969842",
"cX c #977c42",
"dR c #978719",
"if c #97891b",
".b c #978a38",
"g2 c #979941",
"gF c #979a9b",
"dD c #97b5ba",
"cR c #98871b",
"ew c #988725",
"e4 c #988818",
"ck c #988a1d",
"d9 c #989334",
"eW c #98984e",
"fm c #994522",
"gq c #99732d",
"cC c #998a1b",
"ch c #998a1f",
".K c #998c17",
"fG c #998c1a",
"dt c #998d16",
"b4 c #9a4021",
"b7 c #9a4120",
"fT c #9a5e2e",
"g# c #9a8d18",
"dv c #9a8d19",
"df c #9b7e45",
"ex c #9b8530",
"af c #9b8825",
"a. c #9b892a",
"aE c #9b8b21",
"ef c #9b8c1a",
"hg c #9b8f18",
"ib c #9b9d99",
"id c #9b9e98",
"fn c #9c492b",
"bL c #9c8827",
"## c #9c8928",
"aT c #9c8929",
".R c #9c8b24",
"gS c #9c8e18",
"eu c #9c8f17",
"fE c #9c9016",
"by c #9d8c25",
"aL c #9d8e22",
"hC c #9d901a",
"hN c #9d901c",
"#G c #9d901e",
"bI c #9d9117",
"g4 c #9d9119",
"c9 c #9d9239",
"fI c #9e5929",
"ev c #9e8932",
"#s c #9e8b25",
".J c #9e8b2c",
"#R c #9e8c26",
".d c #9e8c28",
"a2 c #9e8e26",
"d. c #9e8f1e",
"cN c #9e8f20",
"fk c #9e9019",
"gB c #9e9316",
"a0 c #9e932b",
"ei c #9f200e",
"b5 c #9f4125",
"ga c #9f5e2d",
"db c #9f6b37",
"a7 c #9f8b27",
"#0 c #9f8d28",
".i c #9f8e24",
"al c #9f8e25",
"eZ c #9f921a",
"gC c #9f921b",
"gN c #9f9316",
"cB c #9f9317",
"gD c #9f931a",
"hF c #9f9417",
"#H c #9f9514",
"fh c #9f9847",
"b8 c #a0422a",
".4 c #a08b31",
"f4 c #a09121",
"cL c #a0921b",
"#S c #a09417",
"eM c #a09419",
"gm c #a0941a",
"hW c #a0941b",
".O c #a09517",
"eX c #a09518",
"aO c #a09614",
"f7 c #a09618",
"d8 c #a09c5e",
"gp c #a18239",
"#D c #a18a3a",
"be c #a19028",
"dM c #a1933f",
"g7 c #a19419",
"#T c #a1941c",
"fi c #a19519",
"du c #a1951c",
"#J c #a19615",
"bv c #a19618",
"bf c #a19715",
"fS c #a19716",
"ap c #a28e29",
"e# c #a29033",
"hD c #a29419",
"hE c #a2941d",
"go c #a29619",
"aA c #a29717",
"#r c #a29718",
"bs c #a29719",
"bi c #a29815",
"a6 c #a29818",
"e. c #a29a3f",
"b2 c #a3902a",
"b0 c #a3902f",
"cv c #a39231",
"aw c #a39622",
"ds c #a39717",
"ij c #a39718",
"eJ c #a39719",
"cz c #a3971a",
"dq c #a3973b",
"dQ c #a39816",
"#p c #a39817",
"hk c #a39818",
"gP c #a3981a",
"eq c #a39915",
".f c #a39916",
"cP c #a39917",
"ed c #a39918",
"hu c #a3991a",
"gU c #a3a6a3",
"b3 c #a44e30",
"eO c #a45426",
"d# c #a47a3d",
"#l c #a49031",
"bF c #a49131",
"f6 c #a4932a",
"cM c #a49422",
"f5 c #a49423",
"bq c #a49429",
"cd c #a49530",
"eY c #a4971b",
"dO c #a49817",
"aS c #a49818",
"#m c #a49819",
"aN c #a4981b",
"aQ c #a49916",
"fA c #a49917",
"a5 c #a49918",
"ax c #a49919",
"es c #a49a15",
"h7 c #a49a16",
"f9 c #a49a17",
"e0 c #a49a18",
"hM c #a4a265",
"b6 c #a54224",
"g8 c #a57235",
"#Z c #a59918",
"b1 c #a59919",
"bH c #a5991c",
"aR c #a59a17",
"br c #a59a18",
".Q c #a59a19",
"ea c #a59a1a",
"az c #a59b18",
"g3 c #a69943",
"#. c #a69a18",
"bx c #a69a19",
"ac c #a69b18",
".N c #a69b19",
"cx c #a69b1a",
"dN c #a69b1b",
"gR c #a69c17",
"gn c #a69c18",
"#L c #a69c19",
"hi c #a69c1a",
"gz c #a69c1b",
"hw c #a6a6a0",
"gO c #a79a1a",
"h8 c #a79b18",
"bu c #a79b19",
"bG c #a79b1a",
"cw c #a79b1b",
"ht c #a79b1d",
"hh c #a79c17",
"bh c #a79c18",
".h c #a79c19",
"aD c #a79c1a",
".7 c #a79d18",
"ih c #a79d19",
"hj c #a79d1b",
"fo c #a83923",
"eg c #a8522d",
"i. c #a89c18",
"#V c #a89c19",
".5 c #a89c1a",
"#X c #a89c1b",
"h9 c #a89c1c",
".e c #a89d19",
"am c #a89d1a",
"fR c #a89d1b",
"cf c #a89e19",
"ab c #a89e1a",
"c0 c #a8a8a5",
"gc c #a8aaa8",
"aM c #a99c19",
"cA c #a99c1b",
"h6 c #a99c1c",
"eL c #a99c1d",
"aP c #a99d19",
"dP c #a99d1a",
"#o c #a99d1b",
"#q c #a99d1c",
".9 c #a99e19",
"g6 c #a99e1a",
"fC c #a99e1c",
".M c #a99e1d",
"fD c #a99f1c",
"eh c #aa260f",
"cK c #aa9546",
".a c #aa9759",
"gQ c #aa9d1b",
".8 c #aa9e19",
"bJ c #aa9e1a",
"cy c #aa9e1b",
"a4 c #aa9e1c",
"ao c #aa9e1d",
"#U c #aa9f1a",
"ae c #aa9f1b",
"cQ c #aa9f1c",
"gs c #aaacaa",
"h. c #aaafab",
"dx c #ab4920",
"aZ c #ab974a",
"f8 c #ab9e1a",
"aa c #ab9e1c",
"an c #ab9e1d",
"e2 c #ab9f1a",
"ad c #ab9f1c",
"e3 c #ab9f1d",
".g c #ab9f1e",
"#W c #aba01b",
"et c #aba01d",
"bj c #aba01e",
"eK c #aba11d",
"er c #aba11e",
"hX c #aba21d",
"hI c #abaca6",
"e5 c #ac582c",
"cF c #ac8836",
"e1 c #ac9f1a",
"bK c #ac9f1c",
"a# c #ac9f1d",
"#Y c #aca01b",
".6 c #aca01c",
"#n c #aca01d",
"ec c #aca01e",
"bg c #aca01f",
"gA c #aca11d",
"#K c #aca11f",
"bt c #aca21d",
"fB c #aca21e",
"hn c #acada9",
"fl c #ad7640",
"a1 c #ad9c3c",
"cO c #ada01c",
"fj c #ada01d",
"g. c #ada01e",
"ee c #ada11e",
"bw c #ada21d",
"#I c #ada21f",
"gy c #ada31e",
"ce c #ada320",
"ig c #aea01e",
"eb c #aea11c",
"g5 c #aea11e",
"ii c #aea11f",
".P c #aea31e",
"dr c #aea41f",
"dc c #af3e26",
"cD c #af4323",
"ey c #af5631",
"a3 c #afa31e",
"aC c #afa520",
"aB c #b0a620",
"dS c #b1512b",
"ay c #b1a620",
"cS c #b24422",
"ic c #b2b1aa",
"h0 c #b3b2ab",
"cn c #b54422",
"#1 c #b63518",
"bz c #b83418",
".S c #b93519",
"aF c #ba3418",
"bM c #bb3015",
"b9 c #bc3116",
"aU c #bc3b19",
"#M c #bd3418",
".j c #bd3518",
"cU c #be2e09",
"bk c #be3518",
"aq c #be371a",
"ej c #bf2f10",
"c2 c #bfd7d6",
"#a c #c0421b",
"#t c #c33a1b",
"a8 c #c8411d",
"ag c #c9451d",
"dk c #c9d0cf",
"cT c #cb2f0a",
"dh c #d5d6d4",
"fJ c #d6dce1",
"e7 c #d94b0f",
"cJ c #d9dce1",
"dC c #dce0e1",
"e6 c #dd3e0d",
"e8 c #dd5113",
"cV c #de4f15",
"fU c #dee1e4",
"bR c #df5110",
"ez c #e04f10",
"bO c #e05210",
"bN c #e15213",
"eP c #e15a15",
"dy c #e26218",
"cq c #e29f18",
"dX c #e3e8ea",
"eS c #e3ebee",
"cE c #e46818",
"fp c #e4eaee",
"f. c #e4ecee",
"dT c #e55111",
"bP c #e55914",
"co c #e66617",
"dd c #e75c12",
"bQ c #e76619",
"em c #e7edef",
"cH c #e8e9eb",
"dU c #ea6a16",
"bl c #eb6b12",
".k c #eb6c12",
"cW c #eb9e14",
"dV c #f09a12",
"ek c #f19b10",
"eA c #f49d0f",
"eQ c #f79e0e",
"dA c #f79f0f",
"cI c #f9f3ed",
"c1 c #faf8f8",
"dz c #fb9c0d",
"de c #fea20b",
"bU c #fea609",
"bV c #fea70b",
".l c #ff461e",
".T c #ff461f",
".U c #ff481e",
".m c #ff491e",
"#b c #ff4b1d",
".n c #ff4c1d",
"#N c #ff4d1d",
"#u c #ff4e1d",
".o c #ff4f1d",
"#2 c #ff501c",
".p c #ff511c",
"ah c #ff521c",
"#3 c #ff531c",
".q c #ff541c",
".r c #ff561b",
".V c #ff571b",
"ar c #ff581b",
".s c #ff591a",
"#c c #ff5a1a",
".t c #ff5b1a",
".W c #ff5c1a",
".u c #ff5d1a",
".X c #ff5f19",
".v c #ff6019",
".Y c #ff6119",
".w c #ff6219",
".Z c #ff6318",
".x c #ff6418",
"#v c #ff6518",
".y c #ff6618",
"#w c #ff6717",
".z c #ff6817",
".A c #ff6917",
"#x c #ff6a17",
".B c #ff6b17",
"#y c #ff6c16",
".C c #ff6d16",
"#z c #ff6e16",
".D c #ff6f16",
".E c #ff7016",
".F c #ff7115",
".G c #ff7215",
".H c #ff7315",
".0 c #ff7415",
"#d c #ff7515",
".1 c #ff7614",
"#4 c #ff7714",
"#e c #ff7814",
"#f c #ff7914",
"#g c #ff7a13",
"#h c #ff7b13",
"aG c #ff7c13",
"#A c #ff7d13",
"#B c #ff7e13",
"#C c #ff7f12",
"#O c #ff8012",
"#5 c #ff8112",
"#P c #ff8212",
"#Q c #ff8312",
"#6 c #ff8411",
"#7 c #ff8511",
"#8 c #ff8611",
"#9 c #ff8711",
"as c #ff8810",
"ai c #ff8910",
"aj c #ff8a10",
"ak c #ff8b10",
"at c #ff8c10",
"a9 c #ff8d0f",
"au c #ff8e0f",
"av c #ff8f0f",
"aH c #ff900f",
"aI c #ff910f",
"aJ c #ff920e",
"aK c #ff930e",
"aV c #ff940e",
"aW c #ff950e",
"aX c #ff960e",
"aY c #ff970d",
"b. c #ff980d",
"b# c #ff990d",
"ba c #ff9a0d",
"bb c #ff9b0c",
"bA c #ff9c0c",
"bm c #ff9d0c",
"bn c #ff9e0c",
"bo c #ff9f0c",
"bB c #ffa00b",
"bC c #ffa10b",
"bD c #ffa20b",
"bE c #ffa30b",
"cp c #ffa40b",
"bS c #ffa50a",
"bT c #ffa60a",
"c. c #ffa70a",
"c# c #ffa909",
"ca c #ffab09",
"cb c #ffac09",
"dj c #fffcfc",
"di c #ffffff",
"QtQt.#.a.b.c.d.e.f.g.h.i.j.k.l.m.n.o.p.q.r.s.t.u.v.w.x.y.z.A.B.C.C.D.E.F.G.G.G.H",
"QtQt.I.J.K.L.M.N.O.P.Q.R.S.T.U.n.o.p.q.V.s.W.X.Y.Z.y.z.A.B.C.D.E.G.H.0.0.1.1.1.1",
"Qt.2.3.4.5.6.7.8.6.9#.###a.U#b.o.p.q.V#c.u.X.w.x.y.A.B.C.D.F.G.0#d.1#e#f#f#g#h#h",
"#i#j#k#l#m#n#o#p.6#q#r#s#t#b#u.p.q.V#c.u.X.w#v#w#x#y#z.E.G.0.1#e#f#h#h#A#A#B#C#C",
"#D#E#F#G.e#H#I.e#J#K#L.i#M#N.p.q.V#c.u.X.w#v.z.B.C.D.G.0.1#e#g#h#A#B#O#O#P#P#P#Q",
"#R#S#T#U#V#q#W#V#X#Y#Z#0#1#2#3.r.s.u.X.w.y.A.B.C.E.H#d#4#f#h#A#C#5#P#6#6#7#8#9#9",
"a.#Va##L.eaaabacadae#pafagah.r.s.W.X.w#v.A.B#z.F.0.1#f#h#A#C#5#Q#6#8#9aiaiajakak",
"alam.han.N.han.N.eao.Qapaq.qar.t.X.w#v.z.B#z.F.0.1#f#h#B#O#P#6#9asajakatauauavav",
"aw#paxayazaAaB.haAaCaDaEaF.V.t.u.Y.x#w.B.C.F.0.1#faG#C#P#6#8asajatauavaHaIaJaJaK",
"aLaMaNaOaP#XaQ#V#XaRaSaTaU.s.u.v.Z.y#x.C.E.0.1#faG#C#P#6#9aiakauaHaIaJaVaWaXaYaY",
"aZa0a1a2ama3a4a5a3ada6a7a8.t.X.w.y.A#y.D.H.1#faG#C#P#7#9aja9avaIaKaWaYb.b#babbbb",
"bcbcbdbeacbfbgbhbibj.N.ibkbl.v.x.z.B#z.G#d#f#h#C#P#7asakauaHaJaVaYb#babbbmbnbobo",
"bpbp.3bqbrbsbtbubvbwbxbybz.X.w.y.A.C.E.0#4#h#B#P#6#9akauaHaKaWb.babAbnbBbCbDbDbE",
"QtQt.IbFbGbHbIbJbK#U#.bLbMbNbObPbQbR.G.1#f#A#O#6#9ajauaHaKaXb#bbbnbBbDbEbSbTbUbV",
"QtQtbWbXbYbZb0b1.6#q#rb2b3b4b5b6b7b8b9#e#h#C#P#8aia9aHaKaXb#bbbnbCbEbSc.c#c#cacb",
"QtQtQtQtQtcccd.N#Jcecfcgchcicjckclcmcnco#A#5#6asakavaJaWb#bbbobDcpc.c#cacqcrcsct",
"QtQt.2QtQtcucv.hcwabbucxcy#SczcAcBcCcDcE#C#Q#9ajauaIaVb.bbbnbDbSc.c#cbcFcGcHcIcJ",
"QtQtQtQtQtcucKcLcMcNa5cOcycPcOcQa5cRcScTcUcVasataHaKaYbabnbCcpcWcXcYcZc0c1c2c3c4",
"Qt.2QtQtQtc5c6c7c8c9aDbh.gbr.7a#.Nd.d#dadbdcddauaIaWb#bAbBdedfdgdhdidjdkdldmdndo",
"QtQtQtQtQt.2QtQtdpdqb1aAdr.5dsdraDdtdudvdwdxdyavaJaYbadzdAdBdCdDdEdFdGdHdIdJdKdL",
"QtQtQtQtQtQtQt.2dpdMaSdNaAdOcy#V#pdPdPdQdRdSdTaHdUb.bbdVdWdXdYdZd0d1d2dJd3d4d5d6",
"QtQtQtQtQtQtQtQtd7d8d9e.e#eaebeced#Yeea5efegeheiejb#bmekelemdZeneod3d4dJd5d5d5dJ",
"QtQtbpbpQtQtQtQtQtd7d7d7epbveqerbreset.QeuevewexeyezbneAeBemeCeDeEeFeGd4d5d5d5eH",
"QtQtbpbpQtQtQtQtQtQtQtQteIeJaxeKbxb1bwcxbveLeMeNeOePboeQeReSdZeTeEeUeVeHd3d4d5eH",
"QtQtQtQtQt.2QtbpQtQt.2QteWeXeYeZe0e1#naze2e3.7e4e5e6e7e8e9f.f#faeEfbfcfdd3d5d5eH",
"QtQtQtQtQtQtQtQtQtQtQtQtfefffgfhfidPfjaA.hfj#rfkflfmfnfoe9fpfqfrfsftfufvfwfxfydJ",
"Qt.2QtQtQtbpQtQtQt.2QtQtQtQtQtfzczfAfBfCaReKfDfEfFfGfHfIeRfJfKfLfsfMfNfOfcfPfxdJ",
"bpbpQtQtQtQtQtQtQtQtQtQtQt.2QtfQcBamfR#pdPa4fA#V#qfS.KfTeBfUfVfWfXfMfYfZf0f1f2dJ",
"bpbpQtQtQtQtQtQtQtQtQtQtQtQtQtf3f4f5f6f7f8eef9bJg.azg#gagbgcgdgegffMfMfNggfOghgh",
"QtQtQtQtQtQtQtbpQtQtQtQtQtQtQtgigjgkglgmgnfCamgn.5fRgogpgqgrgsgtgugvfMftgggggwgh",
"QtQtQtQtQtQtQtQtQtQtbpbpQtQtQtQtQtQtgxeM#pgygz#pgAfRgBgCgDgEgFgGd0gHgIfMgJgKgKgL",
"QtQtQtQtQtQtQt.2QtQtbpbpQtQtQtQtQtQtgMgNgOgPcPaPgQgRaPgQgRgSgTgUgVgWgXfMfMfMgYgZ",
"QtQt.2QtQtQtQtQtQtQtQtQtQt.2QtbpQtQtg0g1g2g3g4bJg5#pg6g5edg7g8g9h.h#hahbhchdhehe",
"QtQtQtQtQtQtQtQtQtQtQtQtQtQtQtQtQtQtQtQtQthfhghhcxhibhe0hjhkhlhmhnhohphqhrhehehe",
"Qt.2QtQtQtQtQtQtQt.2QtQtQtbpQtQtQt.2QtQtQthsfia5etaba5ecae#phthuhvhwhxhyhzhAhegZ",
"QtQtQtQtQt.2QtQtbpbpQtQtQtQtQtQtQtQtQtQtQthBhChDhEhFe2angne2angnhGhHhIh#hahJhAgZ",
"QtQtQtQtQtQtQt.2bpbpQtQtQtQtQtQtQtQtQtQtQtc6hKhLhMhN#Vcyea.hbJcw.NhOhPhQhRhShThU",
"QtQtQtQtQtQtQtQtQtQtQtQtQtQtQtbpQtQtQtQtQtQtQtQthVhWacfChXacaDdraca5hYhZh0h1h2h3",
"QtQtbpbpQtQtQtQtQtQtQtQtQtQtQtQtQtQtbpbpQtQtQtQth4h5bhh6h7h8h9h7i.h9eqi#iaibicid",
"QtQtbpbpQtQtQtQtQtQtQtQtQtQtQt.2QtQtbpbpQtQtQtQtieifaeg.gng6igih#Viiihijikilimin"};
