/* XPM */
static char *dummy[]={
"40 40 214 2",
".j c #000000",
".a c #00a15e",
".5 c #019e5d",
"a# c #089c5b",
"a9 c #098a54",
"a7 c #157e52",
"ad c #2b835e",
"#Z c #318e6a",
"aZ c #31a076",
"aS c #31a277",
"#P c #31a579",
"#Q c #329c74",
".6 c #32a378",
".i c #32a579",
"Qt c #32a67a",
".r c #33a67a",
"#m c #34926e",
"aD c #358164",
"#G c #35906d",
".B c #359970",
"aU c #363329",
"#k c #379e74",
"a3 c #38a176",
"#H c #3b5e51",
"au c #3e9d72",
"#R c #406357",
"#w c #424444",
"#p c #434545",
"#E c #444746",
".h c #45805e",
".K c #458261",
"af c #45976e",
".1 c #46856e",
".I c #4b4b48",
"#X c #4b655d",
"av c #4b936a",
".9 c #4c4d45",
".N c #4e5154",
".E c #505457",
".L c #51524c",
"#b c #525249",
"#T c #525c52",
"#7 c #528f66",
"a5 c #544f3d",
".P c #545251",
".A c #547d58",
".b c #559a75",
"#D c #565958",
"aJ c #566662",
"#O c #576863",
"bs c #57713d",
"aR c #588a63",
".H c #595e61",
"#F c #59887a",
"#l c #5a766b",
".0 c #5a7a6e",
"bp c #5c5a53",
"aC c #5d6866",
"#v c #5e5f53",
"aX c #5e6758",
"ba c #5e865f",
"a1 c #5f594b",
".8 c #5f625d",
"#q c #5f6262",
".s c #5fa677",
"#a c #606462",
"#y c #616665",
"bg c #61766f",
"#o c #626766",
".t c #627e60",
".T c #62887d",
".O c #63676c",
"aA c #637459",
".Z c #64645b",
"bh c #64a391",
".R c #65815b",
"#C c #66665a",
"#Y c #677673",
"b. c #67795b",
".J c #677c5c",
".# c #67aa97",
"az c #685551",
"#r c #686d6d",
".7 c #687773",
"#x c #696458",
"#W c #696c57",
".Q c #697d5e",
"a0 c #6a7773",
"a2 c #6b6d66",
".V c #6b7071",
"#0 c #6b7d57",
"#s c #6c6a60",
"aK c #6d6b55",
"an c #6d6f65",
".Y c #6d7377",
"#n c #6d7775",
".C c #6d8869",
"#S c #6e7475",
"bj c #6f6334",
"bq c #6f706e",
"#N c #707474",
"#c c #717878",
"#j c #726649",
"a. c #727853",
"## c #72787a",
"ax c #737774",
".M c #73787d",
"aI c #747661",
"bk c #75362f",
"#e c #756863",
"#U c #756e5b",
"a8 c #759b88",
"#i c #766762",
"#V c #766d5b",
".S c #76705c",
"bi c #76706f",
"#d c #76724e",
"bb c #767e65",
"#z c #77776d",
".U c #77786e",
".k c #77a885",
"bo c #783b35",
"aF c #78744f",
"bn c #79582f",
"#J c #797f7f",
"ak c #7c7e74",
"ai c #7d7e75",
".x c #7d8387",
"#4 c #7d8a72",
"aT c #7e625e",
"bt c #7e927f",
"#6 c #7f6f4c",
"#. c #7f8588",
".D c #807d6f",
"at c #808687",
"ay c #817e6d",
".z c #818381",
".G c #82888d",
"a6 c #836a56",
"#I c #838889",
".X c #83888f",
"#5 c #85664a",
"aN c #856b48",
"#8 c #86543a",
"ag c #8b6644",
"ap c #8e5329",
"ac c #8e554f",
"aB c #8f8c7b",
"ar c #908d7e",
".y c #91979e",
".v c #92989f",
".u c #949082",
"aM c #985d3c",
".g c #98957c",
"am c #99927a",
"#3 c #9a573e",
"#u c #9b937c",
"as c #9c998b",
"al c #9d9582",
"#K c #9da5a7",
"#M c #9da5a8",
"bl c #9e4923",
"aL c #9e5939",
"#B c #9f9078",
"aW c #a08f78",
".F c #a1a6ae",
"bc c #a45535",
".W c #a4a9b2",
"be c #a64520",
"#2 c #a95e46",
".c c #a9bfa1",
"ab c #aa5031",
"#L c #aaa89a",
"#f c #ae3b24",
"#t c #aea794",
"aP c #b14b2d",
"#A c #b3ab98",
"#9 c #b4341f",
".4 c #b5372c",
"aj c #b5ae9b",
"aQ c #b7472a",
".w c #babfc9",
"a4 c #bb5742",
".p c #bbb3a1",
"ao c #be4326",
".o c #bfc0bb",
"bd c #c43e22",
"#h c #c5381e",
"aO c #c54d38",
".l c #c5baa1",
".q c #c8bca2",
"#g c #ca391e",
"aG c #ce442f",
".n c #cecdc6",
"aE c #d1341a",
"b# c #d31b0a",
"aw c #d32010",
"aV c #d49c85",
"aa c #d73016",
".m c #d9d1bf",
".d c #dcd2b9",
"ah c #de2c13",
".f c #dfd5bc",
"aY c #e62308",
"bm c #ea230b",
"aH c #ed1805",
"ae c #f11e07",
"aq c #f41602",
".e c #f6ebd3",
"#1 c #f71903",
"bf c #f91501",
"br c #f91904",
".2 c #fa1601",
".3 c #ff1500",
"QtQtQtQtQtQtQtQtQtQtQtQtQtQtQtQtQtQtQtQtQtQtQtQtQtQtQtQtQtQtQt.#QtQt.aQtQtQtQtQt",
"QtQtQtQt.aQtQtQtQtQtQtQt.aQtQtQtQtQtQtQt.aQtQtQtQtQtQtQt.aQtQtQtQtQtQtQtQtQtQtQt",
"Qt.aQtQtQtQtQtQtQt.aQtQtQt.#QtQtQt.aQtQtQtQtQtQtQt.aQtQtQt.#QtQtQt.aQtQtQtQtQtQt",
"QtQtQtQtQt.aQtQt.#.#QtQtQtQtQtQtQtQtQtQtQt.aQtQt.#.#QtQtQtQtQtQtQtQtQtQtQt.aQtQt",
"QtQtQtQtQtQtQt.a.#.#QtQtQtQtQtQtQtQtQtQtQtQtQt.a.#.#QtQtQtQtQtQtQtQtQtQtQtQtQt.a",
"QtQtQtQtQtQtQtQtQtQtQtQtQtQtQt.#QtQtQtQtQtQtQtQtQtQtQtQtQtQtQt.#QtQtQtQtQtQtQtQt",
".b.c.d.e.f.g.h.i.jQt.b.c.d.e.f.g.h.j.#.#Qt.b.c.d.e.f.g.h.jQtQt.b.c.d.e.f.g.h.iQt",
".k.l.m.n.o.p.q.j.j.j.k.l.m.n.o.p.j.j.j.#.r.k.l.m.n.o.p.j.j.j.r.s.l.m.n.o.p.q.jQt",
".t.u.v.w.x.y.z.j.j.j.A.u.v.w.x.y.j.j.jQt.B.A.u.v.w.x.y.j.j.j.B.t.u.v.w.x.y.j.j.j",
".C.D.E.F.G.H.I.J.jQt.C.D.E.F.G.H.I.jQtQtQt.C.D.E.F.G.H.I.jQtQt.C.D.E.F.G.H.j.j.j",
".K.L.M.N.E.O.P.Q.j.a.K.L.M.N.E.O.P.j.R.R.R.S.L.M.N.E.O.P.jQtQt.K.L.M.N.E.O.P.jQt",
".T.U.V.W.X.Y.Z.0.jQt.1.U.V.W.X.Y.Z.j.2.3.3.4.U.V.W.X.Y.Z.j.5Qt.1.U.V.W.X.Y.Z.j.6",
".7.8.9#.###a#b#c.j#d#e.8.9#.###a#b.j#f#g#h#i.8.9#.###a#b.j#j#k#l.8.9#.###a#b.j#m",
"#n#o#p#q#r#s#t.d.e.f#u#v#w.j#r#s#t.d.e.f.g#x#y.j#q#z#A.d.e.f#B#C#y.j#q#r#D#E.j#F",
"#G#H#I#J#K.u.l.m.n.o.p.q.j.j.j.u.l.m.n.o.p.q.j.j.j#L.l.m.n.o.p.q.j.j.j#M#N#O.j#P",
"Qt#Q#R#S#T#U.u.v.w.x.y.z.j.j.j#V.u.v.w.x.y.z.j.j.j#W.u.v.w.x.y.z.j.j.j#X#Y#Z.j.a",
"QtQt.a#0#1#2.D.E.F.G.H.I#3.jQt#4.D.E.F.G.H.I.J.j.3.C.D.E.F.G.H.I#5.j.3#6QtQtQtQt",
"QtQt#7#1.3#8.L.M.N.E.O.P.Q.jQt.K.L.M.N.E.O.P.Q.jQt#9.L.M.N.E.O.P.Q.j.3.3a.QtQtQt",
"Qta#aa.3ab.1.U.V.W.X.Y.Z.0.j.3.1.j.V.W.X.Y.Zac.jQtad.U.V.W.X.j.Z.0.j.3.3aeafQtQt",
"Qtag.3ah#k#l.8.9#.aiaj.d.e.f.g.j.j.j#.###a#bakal.d.e.faman.j.j.j#c.jQtao.3apQtQt",
"Qtah.3a.aq#n#o#p#qar.l.m.n.o.p.j.j.j#q#r#D#Eas.l.m.n.o.p.q.j.j.jat.jQt#7.3#1au.a",
"av.3aeQtQtaw#H#Iaxay.u.v.w.x.y.z.j#I#J#M#NazaA.u.v.w.x.y.zaB.jaCaD.jQtQtaE.3a.Qt",
"aF.3aG.#QtQtaH#R#SaI.D.E.F.G.H.I.j#R#SaJ#Y#Z#2.D.E.F.G.H.IaK.j#ZQtQt.3.#aL.3aMQt",
"aN.3aO.3QtQtQt.3Qt.K.L.M.N.E.O.P.jQt.#.3QtQt.K.L.j.N.E.O.P.Q.j.3QtQt.#.3aN.3aPQt",
"#6.3aQQt.3.aQt.#.3.1.U.V.W.X.Y.Z.j.6QtQt.3.a.1.j.j.j.X.Y.Z.0.jQt.3QtQtQt.3.3aL.#",
"aR.3ahQtQt.3QtQtaSaT.8.9#.###a#baUaV.d.e.faWaX.j.j.j###a#b#c.jQtQt.3QtQtao.3#6Qt",
"QtaY.3aRQt.#.3QtaZa0#o#p#q#r#D#Ea1.l.m.n.o.p.qa2.j#q#r#D#Eat.jQtQt.a.3a3#1.3avQt",
".#a4.3aoQtQtQt.3Qt#G#H#I#J#M#Naza5.u.v.w.x.y.za6.j#J#M#N#Oa7.j.3.#.#Qt.3.3aoQtQt",
".#a8#1.3.3QtQtQt.3Qt#Q#R#S#X#Ya9#2.D.E.F.G.H.Ib..j#S#X#Yb#Qt.j.a.3.#ba#1.3aRQtQt",
"QtQt#6.3#1.3Qt.#Qt.3QtQtQt.3QtQt.K.L.M.N.E.O.Pbb.j.3QtQtQt.3QtQtQt.3ae.3bcQtQt.#",
"QtQtQtbc.3#1.3QtQtQt.3.#QtQt.3Qt.1.U.V.W.X.Y.Z.0.jQt.3.#QtQt.3Qta.ae.3bda3QtQtQt",
"QtQtQtQtbc.3.3beafQt.#.3QtQtQtbfbg.8.9#.###a#b#c.jQt.#.3QtQtaubc.3.3aoa3QtQtQt.a",
"QtQt.aQtQtaF#1.3#1aLafQt.3.aQtbhbi#o#p#q#r#D#Eat.jQtQtQt.3bjae.3.3aM.aQtQtQtQtQt",
"QtQtQtQtQtQtavaP.3.3.3#gaN.3QtQt#Gbk#I#J#M#N#OaD.j.3aFaQ.3.3.3#gaRQtQtQtQtQtQtQt",
"Qt.aQtQtQtQtQtQtaRbl#1.3.3.3bmbdaMbnbo#Sbpbqb#ao.j.3.3.3.3aG.RQtQt.aQtQtQtQtQtQt",
"QtQtQtQtQt.aQtQt.#.#au#6bdae.3.3.3.3.3.3.3.3.3.3.3br#gagafQtQtQtQtQtQtQtQt.aQtQt",
"QtQtQtQtQtQtQt.a.#.#QtQtQtQtava.aMaMbc#gabaMaMbsbt.#QtQtQtQtQtQtQtQtQtQtQtQtQt.a",
"QtQtQtQtQtQtQtQtQtQtQtQtQtQtQt.#QtQtQtQtQtQtQtQtQtQtQtQtQtQtQt.#QtQtQtQtQtQtQtQt",
"QtQt.#.#QtQtQtQtQtQtQtQtQtQtQtQtQtQt.#.#QtQtQtQtQtQtQtQtQtQtQtQtQtQt.#.#QtQtQtQt",
"QtQt.#.#QtQtQtQtQtQtQtQtQtQtQt.aQtQt.#.#QtQtQtQtQtQtQtQtQtQtQt.aQtQt.#.#QtQtQtQt"};
