/* XPM */
static char *dummy[]={
"40 40 272 2",
".a c #00a15e",
".w c #049759",
"aJ c #08a35d",
"bY c #0b9456",
"af c #0b9656",
"c# c #0c8d57",
"#e c #0e875c",
"bA c #20865d",
".1 c #2d8548",
"#r c #319871",
"aH c #319c73",
"#w c #31a479",
".M c #329a72",
".E c #329c72",
".F c #329e74",
".2 c #32a277",
"Qt c #32a67a",
"aU c #338b71",
".b c #33a477",
".D c #347c5b",
"bD c #34916d",
"bW c #36996e",
".t c #379a6f",
"aR c #388c6f",
".5 c #3b3f44",
"aC c #3b8367",
"cg c #3c896c",
"b7 c #3eaa76",
"a. c #3f4140",
"aL c #40896e",
".V c #40ac55",
"a9 c #417862",
"am c #425362",
"a8 c #445668",
".m c #449667",
"ak c #454e58",
"b9 c #455668",
"ck c #45ab74",
"cb c #475766",
"ao c #484e50",
"aV c #487177",
".K c #495446",
"#x c #496b60",
"aP c #4a6f61",
".h c #4a8859",
"#b c #4b493e",
"#i c #4b586e",
"at c #4b6f65",
"bK c #4b7c51",
".U c #4bad72",
".G c #4d5c42",
"ag c #4d5c75",
"be c #4d6a5c",
"bL c #4e5c72",
"#n c #4f5963",
"ai c #4f5a6a",
"#g c #4f5b5a",
"bB c #4f9369",
"c. c #517a6b",
"#h c #525d69",
"al c #525e71",
"cd c #527063",
"aX c #52727d",
"#Z c #527752",
"#6 c #53585a",
".L c #535956",
"aS c #535b65",
"a2 c #535e6e",
"ay c #545755",
".P c #547067",
"aF c #555341",
"bu c #555957",
"#v c #555a55",
"bp c #557e6d",
"#y c #565342",
"b4 c #565c47",
"b. c #579c61",
"cm c #57b753",
"ci c #58b16f",
"#u c #595640",
"bP c #598c54",
"aI c #5a5639",
"aG c #5c5c54",
"#z c #5c5d51",
"#2 c #5d5c4f",
"a1 c #5d5d4f",
"#7 c #5d5e57",
".x c #5d6249",
".I c #5e5b3f",
"aj c #5e5b47",
"#O c #5e684d",
"#C c #5e705b",
"#q c #5e7278",
"as c #5f5c47",
"#o c #5f5c48",
".W c #5f7364",
"cf c #607177",
"an c #615e48",
"#f c #61624b",
"by c #618c81",
"aq c #619582",
"b5 c #619d8c",
".4 c #626b76",
"bn c #629f8d",
"#j c #635f4c",
"b8 c #637376",
"a6 c #646957",
"az c #646c71",
"#a c #647082",
"ax c #656032",
"#s c #657466",
"cc c #65815e",
"cj c #65b56b",
"#t c #666e73",
"bj c #66955f",
"#L c #676b69",
"aK c #676c6c",
"bf c #676f64",
".# c #67aa97",
"bb c #686e6e",
"ar c #687268",
".O c #688867",
"aw c #69726a",
".l c #698a6a",
"#1 c #6a6462",
".H c #6a6d6c",
"ac c #6a6e6d",
"au c #6a7379",
"aE c #6a7874",
"bI c #6d6c54",
".C c #6d7270",
"aB c #6d7573",
"bi c #6d776f",
"#m c #6d786f",
"a# c #6e6555",
"bm c #6e6744",
"bl c #6e693f",
"#J c #6e6a54",
"bX c #6e7066",
".B c #6e7373",
"bU c #6e7765",
"aA c #6e7d7a",
".X c #6f7270",
".Q c #6f7373",
"ab c #6fab5e",
"br c #706b2d",
"#5 c #70706c",
"b6 c #70b465",
"bc c #717261",
"bR c #717867",
"#p c #71a35c",
"bk c #72af5f",
"cl c #72b967",
"ch c #737e79",
"#0 c #747577",
"bZ c #747868",
"ap c #748091",
".c c #75954d",
"b0 c #75af8e",
".6 c #767264",
"aD c #797752",
"bE c #798698",
"aT c #7a7e71",
"ah c #7a889c",
"#M c #7b8949",
"a3 c #7c7546",
"av c #7c8372",
"bw c #7cb762",
"a7 c #7d7546",
"bT c #7d784f",
"#V c #7e814c",
"cn c #7eb289",
"bz c #7f7c5b",
"bx c #7f824e",
"bq c #7fb45e",
"bC c #7fbc64",
"bF c #82784a",
"bQ c #828644",
".A c #858789",
"bv c #85be62",
".3 c #88845f",
".s c #888560",
"#4 c #89805d",
"ba c #89835f",
"#G c #8a7e48",
"ae c #8a8360",
".i c #8a9659",
"#9 c #8b8360",
".v c #8b8561",
"#d c #8bb356",
"aQ c #8bc060",
"bg c #8c835e",
".y c #8c9294",
"#F c #8d7f69",
"#W c #8d804b",
"#K c #8e806c",
"bV c #92885d",
".8 c #92895a",
"bM c #92895b",
"ad c #937f39",
"bd c #93833b",
".n c #93843c",
"ca c #938e59",
".q c #949793",
"aa c #95803a",
"#3 c #95803b",
"bS c #95823c",
".7 c #96813b",
"#c c #96823c",
".u c #96853e",
".z c #969ea1",
"#8 c #97823c",
"bH c #978b3a",
"#Q c #9a8648",
".0 c #9a8a3c",
"a5 c #9a8b3c",
"#N c #9a8c3c",
".g c #9a8c3d",
"bh c #9b8539",
"a0 c #9c893c",
"#Y c #9d893c",
".k c #9d8c3e",
"b# c #9e8935",
"#I c #9e8a3a",
"#S c #9e8e3b",
".J c #a38264",
"bJ c #a69039",
"bO c #a69235",
".r c #aa9750",
".Y c #b0934d",
"bo c #b4a237",
"#k c #b4b30f",
".S c #be9d57",
"aO c #c1b04a",
"ce c #c1c31d",
".R c #c3a076",
"#T c #c3bc11",
".p c #c3c2a7",
"#D c #c6a279",
"aY c #c6b81d",
".o c #c6bc7a",
"aW c #c9b846",
"## c #c9cc17",
".N c #ccbe53",
".d c #cfbe55",
"bG c #d0b954",
"bN c #d1b954",
"a4 c #d1bb54",
"#R c #d2ba54",
".j c #d2be57",
".T c #d5bb54",
"#X c #d8be55",
"#H c #d8c04f",
"#l c #d8d80c",
".Z c #dabf56",
"aZ c #dcc34d",
"#P c #e5b98d",
".f c #e6cc5e",
"#E c #e9bc91",
"bs c #e9d03e",
".9 c #e9e805",
"#A c #e9e905",
"b2 c #edd43d",
"b1 c #eded03",
"bt c #f1d73e",
"b3 c #f1f102",
".e c #f6dd70",
"aM c #f7dc40",
"#U c #f7f702",
"#B c #fcfc00",
"aN c #ffe340",
"#. c #ffff00",
"QtQtQtQtQtQtQtQtQtQtQtQtQtQtQtQtQtQtQtQtQtQtQtQtQtQtQtQtQtQtQt.#QtQt.aQtQtQtQtQt",
"QtQtQtQt.aQtQtQtQtQtQtQt.aQtQtQtQtQtQtQt.aQtQtQtQtQtQtQt.aQtQtQtQtQtQtQtQtQtQtQt",
"Qt.aQtQtQtQtQtQtQt.aQtQtQt.#QtQtQt.aQtQtQtQtQtQtQt.aQtQtQt.#QtQtQt.aQtQtQtQtQtQt",
"QtQtQtQtQt.aQtQt.#.#QtQtQtQtQtQtQtQtQtQtQt.aQtQt.#.#QtQtQtQtQtQtQtQtQtQtQt.aQtQt",
"QtQtQtQtQtQtQt.a.#.#QtQtQtQtQtQtQtQtQtQtQtQtQt.a.#.#QtQtQtQtQtQtQtQtQtQtQtQtQt.a",
"QtQtQtQtQtQtQtQtQtQtQtQtQtQtQt.#QtQtQtQtQtQtQtQtQtQtQtQtQtQtQt.#QtQtQtQtQtQtQtQt",
"QtQt.#.#Qt.b.c.d.e.f.g.hQtQtQtQtQt.b.i.j.e.f.g.hQtQtQtQtQt.b.c.d.e.f.k.lQtQtQtQt",
"QtQt.#.#Qt.m.n.o.p.q.r.s.tQtQt.aQt.m.u.o.p.q.r.s.tQtQtQtQt.m.n.o.p.q.r.v.tQtQtQt",
"QtQtQtQtQt.w.x.y.z.A.B.C.DQtQtQtQt.E.x.y.z.A.B.C.DQt.aQtQt.E.x.y.z.A.B.C.D.aQt.#",
"QtQtQtQtQt.F.G.H.I.J.K.L.MQtQtQtQt.F.G.H.I.J.K.L.MQtQtQtQt.F.G.H.I.J.K.L.MQtQtQt",
".c.N.e.f.g.O.P.Q.R.S.T.e.f.g.hQt.U.V.W.X.Y.Z.e.f.0.1QtQtQt.2.P.X.Y.Z.e.f.0.lQtQt",
".u.o.p.q.r.3.4.5.6.7.o.p.q.r.8.9#.###a#b#c.o.p.q.r.8#d.UQt#e#a#b#c.o.p.q.r.s.tQt",
"#f.y.z.A.B.C#g#h#i#j.y.z.A.B.C#k#.#l#m#n#o.y.z.A.B.C#k#.#.#p#q#n#o.y.z.A.B.C.DQt",
".G.H.I.J.K.L#r#s#t#u.H.I.J.K#v.MQt#.#w#x#y.H.I.J.K#z#A#.#.#.#B#C#y.H.I.J.K.L.M.#",
".P.Q#D#E#F#G#H.e.f#I#J#D#E#K#L#M.d.e.f#N#O.Q#D#P#Q#R.e.f#S#T#.#U#V#W#X.e.f#Y#ZQt",
"#a.5#0#1#2#3.o.p.q.r#4#5#1#6#7#8.o.p.q.r#9a.#0a#aa.o.p.q.r.sab##acad.o.p.q.raeaf",
"#q#hagahaiaj.y.z.A.B.Cakahalaman.y.z.A.B.Caoagap#o.y.z.A.B.C.Daqaras.y.z.A.B.C.D",
"#watauavawax.H.I.J.KayazaAaBaC.G.H.I.J.K.LaDauaEaF.H.I.J.KaG.MQtaHaI.H.I.J.K.L.M",
"QtaJ#.#.#U.P.Q#D#E#KaKaLQt.#aM.P.Q#D#E#KaKaLaN.2.P.Q#D#E#KaKaOQt.2aP.Q#D#E#KaKaL",
"QtaQ#.#.aR#a.5#0#1#6aSaTQtQtaU#a.5#0#1#6aSaVQtaW#a.5#0#1#6aSaXaNaU#a.5#0#1#6aSaX",
".baYaZ.e.fa0a1agaha2a3a4.e.fa5a6#hagaha2a7a4.e.f#Ya1agaha2a3a4.e.fa0a1agahala8a9",
"b.b#.o.p.q.rbabbaAbcbd.o.p.q.r.vbeauaAbfbd.o.p.q.rbgbbaAbfbh.o.p.q.rbabbavbibjQt",
"bkbl.y.z.A.B.C.DQt.Ebm.y.z.A.B.C.DQtaNbn.x.y.z.A.B.CboQt.E.x.y.z.A.B.Cbp#.#.#.Qt",
"bqbr.H.I.J.K.LbsQt.F.G.H.I.J.KaG.MQt.#bt.G.H.I.J.K.L.MaN.F.G.H.I.J.Kbubsbv#.#.Qt",
"bwbx.Q#D#E#KaKbyaN.2aP.Q#D#E#KaKaOQtQt.2bz.Q#D#E#KaKbAQtaM.P.Q#D#E#KaKaL#.#.#..#",
"bB#a.5#0#1#6aSaXQtaW#a.5#0#1#6aSaXaNQtaU#a.5#0#1#6aSaXQtaU#a.5#0#1#6aSaX#.#.bCQt",
"bD#m#hagbEbFbG.e.fbHbI#hagbEbFbG.e.fbJbK#q#hbLbMbN.e.f.gbK#q#hagbEbFbG.e.fbObPQt",
".##BbQaubRbS.o.p.q.r.sbTaubUbS.o.p.q.rbVbWatbX#8.o.p.q.r.sbYataubZ#c.o.p.q.r.s.t",
".#b0#.#.b1.x.y.z.A.B.C.DaN.E.x.y.z.A.B.CboQt.E.x.y.z.A.B.C.DQt.ab2#f.y.z.A.B.C.D",
"QtQtbC#.b3br.H.I.J.K.L.MQtbt.G.H.I.J.K.L.MaN.Fb4.H.I.J.K.LbsQtQt.Fbr.H.I.J.K.Lb5",
"QtQtQt#.#Ubx.Q#D#E#KaKbyQt.2bz.Q#D#E#KaKaLQtaM.P.Q#D#E#KaKaLaNQtb6bx.Q#D#E#KaKaL",
"QtQtQtQt###a.5#0#1#6aSaTQtaU#a.5#0#1#6aSaXQtaU#a.5#0#1#6aSaXb7#.###a.5#0#1#6aSaV",
"QtQt.aQtbDb8#hagahalb9c.aNc##q#hagahala8caQtbD#q#hagahalcbcc#.#.#l#m#hagahala8c.",
"QtQtQtQtQt#wcdauavbice#.bv#.#watauavcfcgQt#.Qt#watauchbice#.#.#.ci#watauaAcfcgQt",
"Qt.aQtQtQtQtQtQtci#.#.#.#.#.#.#.#.#.#.cjbv#.#.#.#.#.#.#.#.#.cjQtQt.aQtQtQtQtQtQt",
"QtQtQtQtQt.aQtQt.#.#b7bC#.#.#.#.#.#.#.#.#.#.#.#.#.#.#.aQckQtQtQtQtQtQtQtQt.aQtQt",
"QtQtQtQtQtQtQt.a.#.#QtQtQtQt.Ucl#.#.#.#.#.#.#.cmcn.#QtQtQtQtQtQtQtQtQtQtQtQtQt.a",
"QtQtQtQtQtQtQtQtQtQtQtQtQtQtQt.#QtQtQtQtQtQtQtQtQtQtQtQtQtQtQt.#QtQtQtQtQtQtQtQt",
"QtQt.#.#QtQtQtQtQtQtQtQtQtQtQtQtQtQt.#.#QtQtQtQtQtQtQtQtQtQtQtQtQtQt.#.#QtQtQtQt",
"QtQt.#.#QtQtQtQtQtQtQtQtQtQtQt.aQtQt.#.#QtQtQtQtQtQtQtQtQtQtQt.aQtQt.#.#QtQtQtQt"};
