/* XPM */
static char *dummy[]={
"40 40 735 2",
"as c #000000",
"bt c #009f5d",
"gw c #00a05d",
"fi c #00a05e",
".a c #00a15e",
"dH c #039758",
"ej c #059f5f",
".i c #0e8e52",
"hk c #169b64",
"eX c #186336",
"i. c #2c8a62",
"eG c #2e5939",
".Q c #2e8c64",
"hX c #2e8d65",
"gX c #2e9068",
"eD c #2f855f",
"e5 c #2f865d",
".Y c #30996f",
".I c #309b70",
".r c #309b71",
".1 c #31653b",
"#h c #31683f",
"#. c #31875c",
"b6 c #318b65",
"hC c #31986e",
"ds c #319c72",
"aP c #319e74",
"d2 c #31a075",
".z c #31a176",
".0 c #31a276",
"eF c #31a277",
"dU c #31a377",
"bc c #31a478",
"dz c #31a579",
"e8 c #32664d",
".7 c #327a51",
"fQ c #32936a",
"eW c #32936c",
"aB c #32996f",
"fV c #329c71",
"hI c #329f73",
"au c #329f74",
"de c #32a075",
"ea c #32a376",
".A c #32a377",
"#t c #32a378",
".b c #32a579",
"#s c #32a57a",
"Qt c #32a67a",
"#n c #33764e",
"h8 c #338b63",
"dM c #339c72",
"iR c #339e74",
"cB c #33a478",
"eV c #34542f",
"b8 c #346e4a",
"i# c #34714d",
"gE c #347639",
"#q c #348d68",
"ez c #34966e",
"c9 c #349d75",
".k c #349e70",
"#Y c #34a378",
"gT c #357851",
"h3 c #358a5c",
"aI c #35956c",
"am c #35986e",
"ei c #359870",
"c3 c #359e73",
"fj c #359e74",
"eb c #366f33",
"b3 c #36865a",
".y c #369066",
"dl c #369168",
"it c #369269",
"g8 c #36936c",
"g5 c #369872",
"g0 c #37744e",
"id c #377f5c",
"#D c #379068",
"jo c #37956c",
".s c #379667",
"ig c #38926f",
".c c #389566",
"hT c #396a3b",
"hY c #396e3e",
"gD c #398664",
"ek c #398c5b",
".J c #39915f",
"eE c #39a27a",
"e7 c #3a4326",
"#e c #3a572f",
"aX c #3a7b5f",
".H c #3a7e55",
"aW c #3b8568",
"gx c #3b8c5c",
"fb c #3b966e",
"#M c #3c7c57",
"fE c #3c8d6d",
"#u c #3d7955",
".X c #3d7c53",
"ic c #3d916e",
"gR c #3e3d26",
"bH c #3e7552",
"fF c #3e775a",
"gQ c #3e7c62",
".q c #3e845a",
"bu c #3e8a5c",
"bb c #3e9673",
"#7 c #3ea07a",
"g2 c #3f4f2b",
"iG c #3f6753",
"jj c #3f805a",
"ak c #3f9f7b",
"gY c #403c27",
"bd c #408559",
"ih c #40946b",
"bs c #409472",
"gW c #414928",
"eQ c #416338",
"fY c #416e59",
"es c #41733d",
".R c #417c45",
"jc c #418f67",
"h2 c #419e7b",
"go c #42705b",
".B c #427943",
"dV c #42875c",
"h1 c #429171",
"eL c #434f28",
"bU c #43502e",
"fX c #446f5d",
"bI c #449172",
"bS c #45443e",
"eh c #457451",
"ad c #457d4c",
"fe c #458762",
"#8 c #459269",
"e2 c #465029",
"ju c #466658",
"hO c #477846",
"dT c #479476",
"cn c #48352d",
"e3 c #48382f",
"gn c #485f54",
"gV c #48663a",
"## c #48683b",
"bB c #486b43",
"#V c #487248",
"ey c #48724f",
"hJ c #487744",
"bJ c #48816b",
"gj c #48855b",
"jn c #489b7b",
"iv c #493e25",
"iM c #495049",
"cm c #498d72",
"eM c #4a3630",
"e6 c #4a492a",
".6 c #4a552d",
"b5 c #4a5b35",
"gP c #4a5b52",
"b4 c #4a6b3a",
"d9 c #4a9276",
".9 c #4a9a7b",
"fH c #4b3f28",
"bK c #4b5850",
"jv c #4b5a47",
"iZ c #4b7056",
"fr c #4b9066",
".l c #4b9666",
"eP c #4c2e2f",
"bR c #4c5532",
"ib c #4c7960",
"jz c #4c997c",
"er c #4d2c30",
"cw c #4d3938",
"iI c #4d4127",
"#m c #4d572f",
"cy c #4d6249",
"gJ c #4d6d59",
"b2 c #4d7867",
"bz c #4d826a",
"f5 c #4d9378",
"aO c #4d9479",
"#p c #4d987c",
"fS c #4e412a",
"hn c #4e957a",
"dK c #4f1bd6",
"a4 c #4f28b8",
"gl c #4f3499",
"bL c #4f3932",
"hU c #4f4136",
"b0 c #4f4336",
"cR c #4f835d",
"aQ c #4f855b",
".h c #4f8760",
"jb c #4f9278",
"at c #4f977c",
"aH c #5014eb",
"bT c #504848",
"cx c #50613f",
".P c #506c41",
"dN c #507345",
"gi c #509178",
"b7 c #50967c",
"hV c #513730",
"gp c #51522d",
"cl c #515743",
"hW c #516c3e",
"cC c #51815b",
"cz c #518a73",
"#o c #518c74",
"a3 c #519279",
"fp c #51967c",
"hy c #5227c0",
"cf c #522f32",
"dn c #52492c",
".x c #528862",
"fC c #5319e5",
"ar c #531be4",
"g3 c #533138",
"g6 c #533732",
"gO c #53383b",
"e# c #534577",
"hL c #53676b",
"iS c #537d56",
"#C c #53957c",
"eB c #543c31",
"cg c #545438",
"br c #546268",
".8 c #548b75",
"dA c #552832",
"iA c #552f38",
"dC c #554c2d",
"b1 c #555551",
"fA c #55947c",
"fo c #5620de",
"jh c #5625d9",
"bm c #564e30",
"eq c #56623a",
".f c #567045",
"av c #56895f",
"i4 c #5722d8",
"ht c #572834",
"hb c #572f35",
"e9 c #575045",
"bM c #575935",
"cb c #575f45",
"#E c #577451",
"dt c #57855b",
"#U c #57937c",
"fK c #582835",
"gv c #582f39",
"gK c #58303a",
"h9 c #584b33",
"ie c #58553b",
"hS c #58565b",
"by c #58575b",
"h6 c #585850",
"h5 c #585e44",
"eC c #585f39",
"bG c #586139",
"jp c #587f58",
"hG c #592835",
"i6 c #592936",
"iW c #5929d2",
"hR c #593d34",
"f4 c #593f99",
"ct c #59504a",
"cs c #595f46",
"ia c #596046",
"il c #596c64",
"a7 c #59784d",
"hj c #597f58",
"bl c #5a2937",
"d8 c #5a587e",
"gC c #5a6146",
"dj c #5a6f52",
"gu c #5a7163",
"gc c #5a7347",
".o c #5a774e",
".K c #5a7c4d",
"h# c #5a7e68",
"dd c #5b2837",
"gb c #5b2937",
"j# c #5b2fcc",
"dq c #5b2fcd",
"d3 c #5b4f33",
"gN c #5b5e44",
"if c #5b605c",
"bZ c #5b623c",
"h0 c #5b633c",
"eY c #5b6530",
"el c #5b7144",
"fL c #5b865c",
"#f c #5b907e",
"bk c #5c2938",
"fq c #5c2b39",
"#4 c #5c2fcf",
"c8 c #5c6d66",
"iN c #5c7855",
"#Z c #5c7d56",
"iD c #5d4f31",
"iP c #5d5031",
"hQ c #5d656f",
"im c #5e373b",
"eH c #5e622f",
"cc c #5e7466",
"gL c #5e7648",
"e4 c #5e8676",
"f6 c #5f4037",
"bj c #5f4c4e",
"iz c #5f5d5e",
"cZ c #603539",
"dS c #605677",
"eU c #605b30",
"dQ c #60673d",
".v c #60724c",
"jd c #60754c",
"hM c #608d6e",
"gh c #61508e",
"fN c #615336",
"cY c #615557",
"gZ c #616a39",
"#i c #616b39",
"bv c #617849",
"#6 c #618f7d",
"hA c #623ac3",
"ab c #623cc3",
"cK c #624951",
"d6 c #626940",
"f2 c #626944",
"fh c #627c5d",
"d1 c #627d71",
".t c #629667",
"hi c #633b3a",
"dJ c #635838",
"dv c #635938",
"iX c #63609d",
"gf c #636a46",
"be c #637146",
"aj c #638d7d",
"jA c #639883",
"ho c #639b87",
"#3 c #6440bf",
"i7 c #644439",
"ip c #644e42",
"a2 c #64509a",
"fZ c #645637",
"gy c #64643e",
"gS c #646938",
"g9 c #647163",
".G c #64734d",
"c2 c #648d7d",
".d c #649767",
"a6 c #64a28e",
".j c #64a592",
"ii c #65423b",
".2 c #656b39",
"eg c #656c45",
"aJ c #657243",
"bA c #65a692",
"d. c #65a693",
"ah c #6644ba",
"ba c #66675f",
"g. c #666a55",
"#J c #667164",
".W c #667550",
"jl c #667653",
"jC c #66785e",
"#S c #667c6f",
".Z c #667d53",
"#A c #667d70",
".u c #668b62",
"fP c #66a895",
"gU c #67434e",
"io c #674b54",
"ja c #6756a4",
"b. c #676741",
"dZ c #676c48",
"dW c #677748",
".n c #67815a",
"hf c #67a794",
"cA c #67a996",
".# c #67aa97",
"g1 c #684751",
"dr c #684851",
"dF c #6850a6",
"i0 c #685b3f",
"hc c #686c62",
"ex c #686e49",
"#W c #688479",
"#r c #688b7e",
"cL c #688e7b",
"eA c #68a895",
"d# c #69443c",
"hr c #694952",
"aN c #694dac",
"iL c #694f57",
"hF c #6950a5",
"#d c #69663e",
"co c #69693d",
"bp c #696943",
"hP c #696961",
"gt c #696e4f",
"jx c #697452",
"dG c #6a4c55",
"iO c #6a5e3b",
"aU c #6a6572",
"h4 c #6a693c",
"in c #6a774a",
".m c #6a9268",
"ce c #6b4d56",
"aG c #6b50af",
"ck c #6b674b",
"b9 c #6b693d",
"aR c #6b6b42",
"gI c #6b7152",
".p c #6b9473",
"iB c #6c493d",
"fz c #6c53ac",
"iC c #6c5838",
"hg c #6c5945",
"du c #6c5b39",
"dI c #6c613d",
"hx c #6c633d",
"aZ c #6c643d",
"aK c #6c653d",
"hE c #6c653e",
"eR c #6c6f4d",
"#z c #6c6f62",
"hZ c #6c7046",
"f7 c #6c7345",
"hw c #6c7348",
"cv c #6d525a",
"bV c #6d6e44",
"aM c #6d7057",
"#R c #6d7063",
"ji c #6d897e",
"cH c #6e58a7",
"h. c #6e5e62",
"fM c #6e5f3d",
"dx c #6e618e",
".E c #6e6844",
"bh c #6e6d4a",
"bx c #6e6d4b",
"a1 c #6e7156",
"g4 c #6e7974",
".g c #6e8f6e",
"iY c #6e9c8f",
"fW c #6f4c3d",
"hq c #6f5f41",
"ao c #6f6042",
"bC c #6f7146",
"jr c #6f715e",
"df c #6f7a51",
"cM c #6f805e",
"iy c #6f9288",
"fv c #70573f",
"i3 c #705f94",
"aD c #706142",
"jg c #706195",
"gk c #70663f",
".U c #706a46",
"iT c #706b40",
"dy c #70817a",
".e c #708b68",
"fc c #714f45",
"fk c #715b40",
"hD c #715e3e",
"az c #715ea1",
"#a c #717451",
"jt c #717976",
"jy c #717f73",
"eO c #71988d",
"g# c #725e9f",
"cG c #72609f",
"ai c #72629d",
"hd c #726669",
"aY c #726f4b",
"cd c #727170",
"c4 c #72784e",
"hH c #727d78",
"hB c #727e79",
"jm c #728075",
"iQ c #72837c",
"ik c #72837d",
"eN c #728780",
"i8 c #735c38",
"cV c #73629d",
"je c #73663c",
"cu c #73686b",
"gA c #736e4e",
".N c #736f4e",
"gm c #73706f",
"f9 c #737754",
"aV c #737b77",
"#5 c #746699",
"hz c #746b46",
"h7 c #746b6d",
"aS c #746c46",
"bQ c #747653",
"dY c #747b57",
"ga c #747c79",
"cX c #747e7a",
"#T c #74817c",
"#K c #748580",
"i1 c #756039",
"gg c #756c84",
"hu c #756d47",
"ch c #757155",
"#I c #757365",
"#B c #75817c",
"aa c #766a94",
"f3 c #766c89",
"#N c #766d4b",
".S c #767f5a",
"dL c #76817d",
"i5 c #776a6e",
"et c #777551",
"jB c #777e57",
"a5 c #777f7c",
"al c #77827d",
"i9 c #786139",
"iU c #78623a",
"aw c #786d49",
"cJ c #786e71",
"aT c #787555",
"dp c #78786a",
"bN c #787a58",
"gF c #787b56",
"jq c #787c56",
"bg c #787c59",
"aA c #78837f",
"#g c #788c86",
"ha c #796648",
"i2 c #79694c",
"jf c #796a4d",
"ee c #796c4a",
"cW c #79718e",
"ec c #797753",
"dE c #797868",
"iF c #797e7c",
".C c #79805b",
".w c #798e73",
"ev c #7a6e4c",
"cI c #7a738c",
"iV c #7a786e",
"aC c #7a7a50",
"jw c #7a7a55",
"hv c #7a7c7b",
"js c #7a7d7b",
"c0 c #7b5c4b",
"hs c #7b6645",
"iJ c #7b6944",
"g7 c #7b6948",
"eK c #7b6a3d",
"#v c #7b6c4b",
"dD c #7b6e4a",
"j. c #7b7469",
"cP c #7b758a",
"dB c #7b774b",
"bn c #7b7750",
"eZ c #7b7b73",
"a8 c #7b7f56",
"ac c #7b827f",
"jk c #7b8358",
"#9 c #7b845e",
"eo c #7c7150",
"ca c #7c7153",
"a0 c #7c7550",
"cQ c #7c7778",
"fD c #7c7779",
"gd c #7c784a",
"gq c #7c7a57",
"hK c #7c7d55",
"eI c #7c7d77",
"he c #7c7f7e",
"#X c #7c817f",
"aL c #7d7651",
"d0 c #7d7885",
"hm c #7d7a7b",
"cp c #7d7c75",
".M c #7d7d5c",
"d7 c #7d7d71",
"f1 c #7d7f5b",
"#j c #7d7f70",
"c1 c #7d817f",
"iH c #7e7149",
".5 c #7e7249",
"#F c #7e735e",
"f0 c #7e784b",
"#y c #7e7869",
"c. c #7e7d78",
"ge c #7e7e5a",
"d4 c #7e7f51",
"#L c #7e8281",
"iw c #7f6c46",
"e1 c #7f6d40",
"do c #7f714c",
"cr c #7f7355",
"dm c #7f754a",
"an c #7f784d",
"#Q c #7f796a",
"f8 c #7f7b53",
"#O c #7f7c77",
"#w c #7f7d7a",
"dR c #7f7f76",
".3 c #7f8073",
".L c #7f8461",
"dP c #7f8563",
"ax c #806c4b",
"dw c #807659",
"ix c #807d77",
"dO c #808052",
"em c #80805f",
"fa c #808080",
"d5 c #808562",
"ep c #808669",
"#l c #81734a",
"iK c #817d74",
"fg c #817d79",
"f# c #817e7b",
"en c #817f60",
"bf c #81815c",
"hN c #81825d",
"gz c #818260",
"bq c #81826d",
"bW c #81836d",
"a9 c #818766",
".O c #818c70",
"da c #827c55",
"bF c #827c5a",
"fJ c #827f78",
"cF c #82807e",
"dX c #828159",
"gM c #82815f",
"e. c #82825a",
"bw c #82825d",
"bi c #828278",
"bD c #82846f",
"bo c #828765",
"fT c #83704b",
"iu c #83774d",
"iq c #837752",
"bY c #837c59",
"fU c #837e76",
"cU c #83817e",
"gG c #838767",
".V c #83876c",
"gr c #838867",
".T c #838868",
".D c #838968",
"hl c #846950",
"ff c #847158",
"hp c #84724c",
"is c #847450",
"iE c #84765b",
"aq c #84807a",
"b# c #848571",
"gH c #84866c",
"eu c #84886a",
"gB c #848971",
"#G c #85817c",
"#2 c #85817d",
"ed c #85886b",
".F c #858a70",
"dk c #86704e",
"fR c #86794e",
"aF c #868078",
"ew c #868569",
"gs c #868970",
"fI c #87744e",
"fd c #877566",
"bO c #878168",
"c7 c #87817b",
"ag c #87827d",
"ef c #87876c",
"fn c #88827c",
"fs c #88885f",
"f. c #896c55",
"di c #89827a",
"bP c #8a7852",
"fO c #8a7c61",
"bX c #8b7955",
"#H c #8b8172",
"ci c #8b8379",
"fy c #8b837c",
"fG c #8c734b",
"bE c #8c7953",
"cO c #8c837b",
"#b c #8c846f",
"#P c #8d8478",
"#x c #8e8577",
"eS c #908576",
"fB c #908863",
"ij c #917f60",
"cS c #93785d",
"ir c #937f5a",
"dg c #93815b",
"cT c #938475",
"cE c #938477",
"cD c #957f60",
"ay c #958167",
"c5 c #95825c",
"cj c #968364",
"aE c #977c57",
"cN c #97816a",
"#c c #987f53",
"ap c #997e59",
"a# c #998677",
"cq c #9b8970",
"#k c #9d855f",
"c# c #9d8a6f",
".4 c #9f855d",
"db c #9f8560",
"dc c #9f866d",
"ae c #9f8c67",
"eT c #a28456",
"#0 c #a38c68",
"hh c #a48a67",
"af c #a58a71",
"#1 c #a58a72",
"fu c #a68a73",
"a. c #a78c6d",
"e0 c #a98e68",
"dh c #aa8863",
"c6 c #ab8963",
"eJ c #ac8f67",
"fw c #ad996f",
"fl c #b19970",
"ft c #b69871",
"fm c #b7906d",
"fx c #b7916e",
"QtQtQtQtQtQtQtQtQtQtQtQtQtQtQtQtQtQtQtQtQtQtQtQtQtQtQtQtQtQtQt.#QtQt.aQtQtQtQtQt",
"QtQtQtQt.aQtQtQtQtQtQtQt.aQtQtQtQtQtQtQt.aQtQtQtQtQtQtQt.aQtQtQtQtQtQtQtQtQtQtQt",
"Qt.aQtQtQtQtQtQtQt.aQtQtQt.#QtQtQt.aQtQtQtQtQtQtQt.aQtQtQt.#QtQtQt.aQtQtQtQtQtQt",
"QtQtQtQtQt.aQtQt.#.#QtQtQtQtQtQtQtQtQtQtQt.aQtQt.#.#QtQtQtQtQtQtQtQtQtQtQt.aQtQt",
".b.c.d.e.f.g.h.i.j.#Qt.k.l.m.n.o.p.q.rQtQt.s.t.u.v.w.x.y.zQt.k.l.m.n.o.p.q.rQt.a",
".A.B.C.D.E.F.G.H.IQtQt.J.K.L.M.N.O.P.QQtQt.R.S.T.U.V.W.X.YQt.J.Z.L.M.N.O.P.QQtQt",
".0.1.2.3.4.5.6.7.8.9Qt#.###a#b#c#d#e#f#gQt#h#i#j#k#l#m#n#o#p#.###a#b#c#d#e#q#r#s",
"#t#u#v#w#x#y#z#A#B#CQt#D#E#F#G#H#I#J#K#LQt#M#N#O#P#Q#R#S#T#U#D#V#F#G#H#I#J#W#X#s",
"#Y#Z#0#1#2#3#4#5#6#7.a#8#9a.a#aa#4abac#pQtadaeafagah#4aiajak#8#9a.a#aa#4abal#p.#",
"amanaoapaqarasasatQtauavawaxayazasasaA.baBaCaDaEaFasasaG#CauavawaxayasasaHaAQtQt",
"aIaJaKaLaMaNasasaO.aaPaQaRaSaTaUasasaVaWaXaYaZa0a1asasa2a3aPaQaRaSaTasasa4a5QtQt",
"a6a7a8a9b.b#baasbbQtbcbdbebfbgbhbiasbjbkblbmbnbobpbqasbrbsbtbubvbwbgbxasbybzQtQt",
"bAbBbCbDbEbFbGbHbIbJbKbLbMbNbObPbQbRbSbTbTbUbVbWbXbYbZb0b1b2b3b4bNbObPbQb5b6b7Qt",
".Ab8b9c.c#cacbcccdcebkcfcgchcicjckclcmQtQtcncocpcqcrcsctcucvcwcxchcicjckcycz#XcA",
"cBcCcDcEcFcGcHcIcJcKbkcLcMcNcOcPcHazcQQtQtcRcScTcUcVcHcWcXcYcZc0cNcOcPcHazc1c2#s",
"c3c4c5c6c7arasasc8c9d.d#dadbdcazasasaAdddedfdgdhdiasasaG#C.AdjdkdbdcasasaHaAQt.a",
"dldmdndodpdqasasdrQtdsdtdudvdwdxasasdydzdAdBdCdDdEasasdFdGdHdtdIdJdwasasdKdLQtQt",
"dMdNdOdPdQdRdSasdTbkdUdVdWdXdYdZd0asd1dzd2d3d4d5d6d7asd8d9bldVdWe.dYdZase#d1QtQt",
"eaebecedeeefegeheiejbkekelemeneoepeqerQtQteseteuevewexeyezeAeBelemeneoepeCeDeEQt",
"eFeGeHeIeJeKeLeMeNeOQtePeQeReSeTeUeVeWbkQteXeYeZe0e1e2e3e4#Ue5e6eReSeTeUe7e8#X#s",
"cBe9f.f#fafafafafaeOQtfbfcfdfafafafaaAQtbkfefffgfafafafafa#Ufbfhfdfafafafafa#Xfi",
"fjfkflfmfnfoasasfpfqQtfrfsftfucGasasaAQtQtfvfwfxfyasasfzfAfqfrfBftfuasasfCfDfEQt",
"fFfGfHfIfJarasasatQtfKfLfMfNfOazasascQfPfQfRfSfTfUasasaG#CfVfWfMfNfOasasaHcQfXQt",
"fYfZf0f1f2f3f4asf5Qt.zf6f7f8f9g.g#asgagbdsgcgdgegfggasghgi.zgjgkf8f9g.asglgmgnQt",
"gogpgqgr.EgsgtgugvQtgwgxgygz.MgAgBgCgDQtgbgEgFgG.UgHgIgJgKdzgxgLgM.MgAgBgNgOgP.#",
"gQgRgS.3.4.5.6gT.8gUQt#.gV#a#b#c#dgWgXQtQtgYgZ#j#k#l#mg0#og1#.gV#a#b#c#dg2g3g4#s",
"g5g6g7#w#x#y#z#A#Bg8bk#D#E#F#G#H#Ig9h.QtQth#ha#O#P#Q#R#S#T#Uhb#E#F#G#H#Ihchdhe#s",
"hfhghh#1#2#3asas#6#7Qthi#9a.a#aaasasaAbkQthjaeafagasasaiajhk#8hla.a#asasabhmhnQt",
"hohphqapaqarasashrQtauavhsaxayazasasaA.bhtaCaDaEaFasasaGceauavhuaxayasasaHhvQtQt",
"aIhwhxaLaMaNhyasaObkaPaQaRhzaTaUhAashBdzhChDhEa0a1hFasa2a3hGaQaRaSaTaUasa4hHQt.#",
"hIhJhKa9b.b#bahLbbQtgbhMbvhNbgbxbibybjQteFhObnbobpbqhPhQbsbchRbvhNbgbhbihSbzQtQt",
"eahTbCbDbEbFbGhUbIak.#hVhWbNbObPbQb5hXbkQthYhZbWbXbYh0b0h1h2h3bMbNbObPbQb5b6b7.a",
".Ab8h4c.c#cah5h6h7#CQth8h9chcicjckcyi.Qtbki#cocpcqcriaibcuicidiechcicjckcycz#X#s",
"cBcCcDcEcFcGasascJifigihcMcNcOcPasasaAQtQtiiijcTcUasascWikilimc0cNcOasasazc1c2#s",
"c3inc5c6c7arasasiobkddipiqdbdcazasascQ.bdedfirdhdiasasaGceddd#isdbdcasasaHaAQtQt",
"itiuiviwixarasasiyiziAiBiCiDiEazasasiFddiGiHiIiJiKasasaGiLiMiNiOiPiEasasaHiQQtQt",
"iRiSiTiUiViWaHiXiY.#dUiZi0i1i2i3aHi4i5gbi6i7i8i9j.j#aHjajbdUjcjdjejfjgaHjhjiQt.a",
"QtQtjjjkjljmaAjnQtQtQtQtjojpjqjrjsjtgnbTgPjujvjwjxjyaAjzQtQtQtjAjpjBjCaAjiQtQtQt",
"QtQt.#.#QtQtQtQtQtQtQtQtQtQtQtQtQtQt.#.#QtQtQtQtQtQtQtQtQtQtQtQtQtQt.#.#QtQtQtQt",
"QtQt.#.#QtQtQtQtQtQtQtQtQtQtQt.aQtQt.#.#QtQtQtQtQtQtQtQtQtQtQt.aQtQt.#.#QtQtQtQt"};
