/* XPM */
static char *dummy[]={
"40 40 632 2",
".2 c #00a15e",
"h0 c #272640",
"hF c #281613",
"gT c #2a1714",
"hZ c #2e2d2e",
"g5 c #301b19",
"ht c #311f1c",
"hE c #321d1b",
"g9 c #32314a",
"d6 c #32a579",
"Qt c #32a67a",
"d0 c #331c1b",
"c5 c #33a579",
"eD c #341d1c",
"dZ c #341f1d",
"fm c #351e1d",
"ha c #35211e",
"e9 c #361f1e",
"cu c #36a579",
"cc c #36a679",
"fM c #37201e",
"hN c #373328",
"gU c #3a2421",
"bW c #3aa579",
"em c #3b2321",
"hu c #3b2522",
"hA c #3b382b",
"hb c #3c2422",
"gF c #3c2522",
"gf c #3d2523",
"hv c #3d2623",
"hl c #3e2724",
"dY c #3f2c29",
".# c #3fa578",
"dG c #402927",
".I c #40a578",
"fD c #412726",
".3 c #41a578",
"dl c #422a28",
"h# c #42322f",
"bd c #43a577",
"c3 c #442928",
"gr c #452c2a",
"f6 c #45a578",
"fO c #462d2b",
"gG c #472d2b",
"hY c #47411c",
"f4 c #492e2c",
"f5 c #4a2f2d",
"fE c #4b302e",
"g2 c #4b4752",
"fn c #4c2f2e",
"gs c #4c302e",
"f# c #4c312f",
"f7 c #4ca474",
"f8 c #4da576",
"hw c #4e302f",
"g6 c #4e3130",
"gt c #4e3230",
"gE c #4e3a38",
"go c #4e484b",
"fo c #4f3331",
"hi c #4f4a15",
"eR c #503231",
"fp c #513331",
"gH c #523432",
"f. c #523433",
"fN c #533533",
"ek c #534f60",
"c4 c #543231",
"eC c #545062",
"eP c #555163",
"hn c #559f55",
"c7 c #55a370",
"hc c #563635",
"eE c #563836",
"e7 c #565264",
"en c #573736",
"f1 c #574d5c",
"c6 c #57a476",
"h1 c #585766",
"dH c #593534",
"eS c #593837",
"hD c #594a48",
"d1 c #5a3836",
"fF c #5a3837",
"hO c #5a5868",
"c8 c #5aa675",
"dm c #5c3837",
"f3 c #5d4d4b",
"#j c #5da472",
"gg c #5e3a39",
"#i c #5ea476",
"hj c #5f5d6a",
"dW c #605456",
"gu c #613b3a",
"eF c #613c3b",
"gC c #615f6d",
"eT c #623b3a",
"fq c #623c3c",
"fP c #633c3b",
"hq c #645d1d",
"fG c #653e3d",
"gI c #659f62",
"dI c #663d3d",
"hd c #669e5b",
"fQ c #673e3e",
"do c #673f3e",
"dp c #67a996",
"bp c #67aa97",
"gq c #685a59",
"#k c #68a472",
"bc c #68a996",
"dK c #693f3f",
"dL c #6a4040",
"dn c #6a4140",
"dF c #6a5b5a",
"d5 c #6b4041",
"fr c #6c4141",
"dJ c #6d4242",
"ep c #6e4242",
"eo c #6e4343",
"gd c #6e6c78",
"hm c #6e9f64",
"hx c #6ea163",
"d2 c #6f4443",
"d3 c #704444",
"d4 c #714645",
"cr c #716055",
"fa c #71a270",
"hG c #72a36a",
"cG c #736662",
"fb c #739c58",
"hS c #74a46c",
"cs c #756a67",
"dE c #777ea7",
"cZ c #786859",
"gV c #789f5a",
"dB c #797278",
"g7 c #799f5d",
"bY c #7a994f",
"fc c #7ca160",
"hr c #7d7e83",
"gh c #829d53",
"gv c #839c59",
"fR c #869b5a",
"bX c #869f67",
"hB c #88888d",
"bZ c #88a25b",
"cj c #897a15",
"#F c #8a7b18",
"fs c #8a9b4a",
"cY c #8b6f48",
"fA c #8b7b16",
"fH c #8b994d",
"cm c #8c7a1e",
"dw c #8c7e15",
"g4 c #8c94af",
"f9 c #8d9d55",
"ct c #8f8682",
"#E c #90801a",
"hs c #909599",
"cg c #918317",
"gR c #919196",
"eq c #919540",
".L c #928416",
"gJ c #929540",
"da c #936627",
"g1 c #948125",
"fy c #94851b",
"ci c #948618",
"eL c #948716",
"hH c #958716",
"cl c #958718",
".c c #958836",
"dg c #959090",
"eG c #969842",
"dR c #978719",
"hT c #97891b",
".b c #978a38",
"gp c #97979a",
"gK c #979941",
"cR c #98871b",
"ex c #988725",
"e2 c #988818",
"ck c #988a1d",
"d8 c #989334",
"eU c #98984e",
"fi c #994522",
"gc c #99732d",
"cC c #998a1b",
"ch c #998a1f",
".K c #998c17",
"fz c #998c1a",
"dt c #998d16",
"dD c #999bb3",
"hP c #999c9a",
"hR c #999e9b",
"b4 c #9a4021",
"b7 c #9a4120",
"fK c #9a5d2e",
"cX c #9a753f",
"fZ c #9a8d18",
"dv c #9a8d19",
"ey c #9b8530",
"af c #9b8825",
"a. c #9b892a",
"aE c #9b8b21",
"ee c #9b8c1a",
"gW c #9b8f18",
"fj c #9c492b",
"bL c #9c8827",
"## c #9c8928",
"aT c #9c8929",
".R c #9c8b24",
"gB c #9c8e18",
"ev c #9c8f17",
"fx c #9c9016",
"by c #9d8c25",
"aL c #9d8e22",
"he c #9d901a",
"hp c #9d901c",
"#G c #9d901e",
"bI c #9d9117",
"gM c #9d9119",
"c9 c #9d9239",
"fB c #9e5928",
"df c #9e7842",
"ew c #9e8932",
"#s c #9e8b25",
".J c #9e8b2c",
"#R c #9e8c26",
".d c #9e8c28",
"a2 c #9e8e26",
"d. c #9e8f1e",
"cN c #9e8f20",
"fg c #9e9019",
"gl c #9e9316",
"a0 c #9e932b",
"eh c #9f200e",
"b5 c #9f4125",
"f0 c #9f5d2d",
"db c #9f6b37",
"a7 c #9f8b27",
"#0 c #9f8d28",
".i c #9f8e24",
"al c #9f8e25",
"eX c #9f921a",
"gm c #9f921b",
"gw c #9f9316",
"cB c #9f9317",
"gn c #9f931a",
"hh c #9f9417",
"#H c #9f9514",
"fd c #9f9847",
"b8 c #a0422a",
".4 c #a08b31",
"fS c #a09121",
"cL c #a0921b",
"#S c #a09417",
"eK c #a09419",
"g. c #a0941a",
"hy c #a0941b",
".O c #a09517",
"eV c #a09518",
"aO c #a09614",
"fV c #a09618",
"d7 c #a09c5e",
"gb c #a18239",
"#D c #a18a3a",
"be c #a19028",
"dM c #a1933f",
"gP c #a19419",
"#T c #a1941c",
"fe c #a19519",
"du c #a1951c",
"#J c #a19615",
"bv c #a19618",
"bf c #a19715",
"fJ c #a19716",
"ap c #a28e29",
"e. c #a29033",
"hf c #a29419",
"hg c #a2941d",
"ga c #a29619",
"aA c #a29717",
"#r c #a29718",
"bs c #a29719",
"bi c #a29815",
"a6 c #a29818",
"d9 c #a29a3f",
"h. c #a2a6a1",
"b2 c #a3902a",
"b0 c #a3902f",
"cv c #a39231",
"aw c #a39622",
"ds c #a39717",
"hX c #a39718",
"eH c #a39719",
"cz c #a3971a",
"dq c #a3973b",
"dQ c #a39816",
"#p c #a39817",
"g0 c #a39818",
"gy c #a3981a",
"er c #a39915",
".f c #a39916",
"cP c #a39917",
"ec c #a39918",
"b3 c #a44e30",
"eM c #a45426",
"d# c #a47a3d",
"#l c #a49031",
"bF c #a49131",
"fU c #a4932a",
"cM c #a49422",
"fT c #a49423",
"bq c #a49429",
"cd c #a49530",
"eW c #a4971b",
"dO c #a49817",
"aS c #a49818",
"#m c #a49819",
"aN c #a4981b",
"aQ c #a49916",
"ft c #a49917",
"a5 c #a49918",
"ax c #a49919",
"et c #a49a15",
"hJ c #a49a16",
"fX c #a49a17",
"eY c #a49a18",
"ho c #a4a265",
"gD c #a4a6a5",
"b6 c #a54224",
"gQ c #a57235",
"#Z c #a59918",
"b1 c #a59919",
"bH c #a5991c",
"aR c #a59a17",
"br c #a59a18",
".Q c #a59a19",
"e# c #a59a1a",
"az c #a59b18",
"gL c #a69943",
"#. c #a69a18",
"bx c #a69a19",
"ac c #a69b18",
".N c #a69b19",
"cx c #a69b1a",
"dN c #a69b1b",
"gA c #a69c17",
"g# c #a69c18",
"#L c #a69c19",
"gY c #a69c1a",
"gj c #a69c1b",
"hk c #a6aba6",
"gx c #a79a1a",
"hK c #a79b18",
"bu c #a79b19",
"bG c #a79b1a",
"cw c #a79b1b",
"g8 c #a79b1d",
"gX c #a79c17",
"bh c #a79c18",
".h c #a79c19",
"aD c #a79c1a",
".7 c #a79d18",
"hV c #a79d19",
"gZ c #a79d1b",
"fk c #a83923",
"ef c #a8522d",
"hM c #a89c18",
"#V c #a89c19",
".5 c #a89c1a",
"#X c #a89c1b",
"hL c #a89c1c",
".e c #a89d19",
"am c #a89d1a",
"fI c #a89d1b",
"cf c #a89e19",
"ab c #a89e1a",
"f2 c #a8a9a9",
"aM c #a99c19",
"cA c #a99c1b",
"hI c #a99c1c",
"eJ c #a99c1d",
"aP c #a99d19",
"dP c #a99d1a",
"#o c #a99d1b",
"#q c #a99d1c",
".9 c #a99e19",
"gO c #a99e1a",
"fv c #a99e1c",
".M c #a99e1d",
"fw c #a99f1c",
"g3 c #a9aca9",
"eg c #aa260f",
"cK c #aa9546",
".a c #aa9759",
"gz c #aa9d1b",
".8 c #aa9e19",
"bJ c #aa9e1a",
"cy c #aa9e1b",
"a4 c #aa9e1c",
"ao c #aa9e1d",
"#U c #aa9f1a",
"ae c #aa9f1b",
"cQ c #aa9f1c",
"ge c #aaacac",
"gS c #aaaeae",
"dx c #ab4920",
"aZ c #ab974a",
"fW c #ab9e1a",
"aa c #ab9e1c",
"an c #ab9e1d",
"e0 c #ab9f1a",
"ad c #ab9f1c",
"e1 c #ab9f1d",
".g c #ab9f1e",
"#W c #aba01b",
"eu c #aba01d",
"bj c #aba01e",
"eI c #aba11d",
"es c #aba11e",
"hz c #aba21d",
"c0 c #aba3a2",
"e3 c #ac582c",
"eZ c #ac9f1a",
"bK c #ac9f1c",
"a# c #ac9f1d",
"#Y c #aca01b",
".6 c #aca01c",
"#n c #aca01d",
"eb c #aca01e",
"bg c #aca01f",
"gk c #aca11d",
"#K c #aca11f",
"bt c #aca21d",
"fu c #aca21e",
"fh c #ad7640",
"a1 c #ad9c3c",
"cO c #ada01c",
"ff c #ada01d",
"fY c #ada01e",
"ed c #ada11e",
"bw c #ada21d",
"#I c #ada21f",
"gi c #ada31e",
"ce c #ada320",
"cF c #ae8233",
"hU c #aea01e",
"ea c #aea11c",
"gN c #aea11e",
"hW c #aea11f",
".P c #aea31e",
"dr c #aea41f",
"hQ c #aeb2ac",
"dc c #af3e26",
"cD c #af4323",
"ez c #af5631",
"a3 c #afa31e",
"aC c #afa520",
"hC c #afb3ad",
"aB c #b0a620",
"dS c #b1512b",
"ay c #b1a620",
"cS c #b24422",
"cn c #b54422",
"#1 c #b63518",
"bz c #b83418",
".S c #b93519",
"aF c #ba3418",
"bM c #bb3015",
"b9 c #bc3116",
"aU c #bc3b19",
"#M c #bd3418",
".j c #bd3518",
"cU c #be2e09",
"bk c #be3518",
"aq c #be371a",
"ei c #bf2f10",
"#a c #c0421b",
"c2 c #c0c5d2",
"#t c #c33a1b",
"a8 c #c8411d",
"ag c #c9451d",
"dk c #c9cbce",
"cT c #cb2f0a",
"dh c #d6d4d3",
"fC c #d8d7df",
"e5 c #d94b0f",
"cJ c #dcdae0",
"dC c #dcdce0",
"e4 c #dd3e0d",
"e6 c #dd5113",
"cV c #de4f15",
"bR c #df5110",
"fL c #dfdee2",
"eA c #e04f10",
"bO c #e05210",
"bN c #e15213",
"eN c #e15a15",
"dy c #e26218",
"cq c #e39d17",
"dX c #e3e3e8",
"eQ c #e3e3eb",
"cE c #e46818",
"e8 c #e4e4eb",
"dT c #e55111",
"bP c #e55914",
"co c #e66617",
"fl c #e6e5ec",
"dd c #e75c12",
"bQ c #e76619",
"el c #e7e7ed",
"cH c #e9e8ea",
"dU c #ea6a16",
"bl c #eb6b12",
".k c #eb6c12",
"cW c #eb9d14",
"dV c #f09911",
"ej c #f29a10",
"eB c #f49c0f",
"cI c #f6f8ef",
"eO c #f79e0d",
"dA c #f79e0e",
"c1 c #f9f9f8",
"dz c #fb9c0d",
"de c #fea20b",
"bU c #fea609",
"bV c #fea70b",
".l c #ff461e",
".T c #ff461f",
".U c #ff481e",
".m c #ff491e",
"#b c #ff4b1d",
".n c #ff4c1d",
"#N c #ff4d1d",
"#u c #ff4e1d",
".o c #ff4f1d",
"#2 c #ff501c",
".p c #ff511c",
"ah c #ff521c",
"#3 c #ff531c",
".q c #ff541c",
".r c #ff561b",
".V c #ff571b",
"ar c #ff581b",
".s c #ff591a",
"#c c #ff5a1a",
".t c #ff5b1a",
".W c #ff5c1a",
".u c #ff5d1a",
".X c #ff5f19",
".v c #ff6019",
".Y c #ff6119",
".w c #ff6219",
".Z c #ff6318",
".x c #ff6418",
"#v c #ff6518",
".y c #ff6618",
"#w c #ff6717",
".z c #ff6817",
".A c #ff6917",
"#x c #ff6a17",
".B c #ff6b17",
"#y c #ff6c16",
".C c #ff6d16",
"#z c #ff6e16",
".D c #ff6f16",
".E c #ff7016",
".F c #ff7115",
".G c #ff7215",
".H c #ff7315",
".0 c #ff7415",
"#d c #ff7515",
".1 c #ff7614",
"#4 c #ff7714",
"#e c #ff7814",
"#f c #ff7914",
"#g c #ff7a13",
"#h c #ff7b13",
"aG c #ff7c13",
"#A c #ff7d13",
"#B c #ff7e13",
"#C c #ff7f12",
"#O c #ff8012",
"#5 c #ff8112",
"#P c #ff8212",
"#Q c #ff8312",
"#6 c #ff8411",
"#7 c #ff8511",
"#8 c #ff8611",
"#9 c #ff8711",
"as c #ff8810",
"ai c #ff8910",
"aj c #ff8a10",
"ak c #ff8b10",
"at c #ff8c10",
"a9 c #ff8d0f",
"au c #ff8e0f",
"av c #ff8f0f",
"aH c #ff900f",
"aI c #ff910f",
"aJ c #ff920e",
"aK c #ff930e",
"aV c #ff940e",
"aW c #ff950e",
"aX c #ff960e",
"aY c #ff970d",
"b. c #ff980d",
"b# c #ff990d",
"ba c #ff9a0d",
"bb c #ff9b0c",
"bA c #ff9c0c",
"bm c #ff9d0c",
"bn c #ff9e0c",
"bo c #ff9f0c",
"bB c #ffa00b",
"bC c #ffa10b",
"bD c #ffa20b",
"bE c #ffa30b",
"cp c #ffa40b",
"bS c #ffa50a",
"bT c #ffa60a",
"c. c #ffa70a",
"c# c #ffa909",
"ca c #ffab09",
"cb c #ffac09",
"dj c #fffefd",
"di c #ffffff",
"QtQt.#.a.b.c.d.e.f.g.h.i.j.k.l.m.n.o.p.q.r.s.t.u.v.w.x.y.z.A.B.C.C.D.E.F.G.G.G.H",
"QtQt.I.J.K.L.M.N.O.P.Q.R.S.T.U.n.o.p.q.V.s.W.X.Y.Z.y.z.A.B.C.D.E.G.H.0.0.1.1.1.1",
"Qt.2.3.4.5.6.7.8.6.9#.###a.U#b.o.p.q.V#c.u.X.w.x.y.A.B.C.D.F.G.0#d.1#e#f#f#g#h#h",
"#i#j#k#l#m#n#o#p.6#q#r#s#t#b#u.p.q.V#c.u.X.w#v#w#x#y#z.E.G.0.1#e#f#h#h#A#A#B#C#C",
"#D#E#F#G.e#H#I.e#J#K#L.i#M#N.p.q.V#c.u.X.w#v.z.B.C.D.G.0.1#e#g#h#A#B#O#O#P#P#P#Q",
"#R#S#T#U#V#q#W#V#X#Y#Z#0#1#2#3.r.s.u.X.w.y.A.B.C.E.H#d#4#f#h#A#C#5#P#6#6#7#8#9#9",
"a.#Va##L.eaaabacadae#pafagah.r.s.W.X.w#v.A.B#z.F.0.1#f#h#A#C#5#Q#6#8#9aiaiajakak",
"alam.han.N.han.N.eao.Qapaq.qar.t.X.w#v.z.B#z.F.0.1#f#h#B#O#P#6#9asajakatauauavav",
"aw#paxayazaAaB.haAaCaDaEaF.V.t.u.Y.x#w.B.C.F.0.1#faG#C#P#6#8asajatauavaHaIaJaJaK",
"aLaMaNaOaP#XaQ#V#XaRaSaTaU.s.u.v.Z.y#x.C.E.0.1#faG#C#P#6#9aiakauaHaIaJaVaWaXaYaY",
"aZa0a1a2ama3a4a5a3ada6a7a8.t.X.w.y.A#y.D.H.1#faG#C#P#7#9aja9avaIaKaWaYb.b#babbbb",
"bcbcbdbeacbfbgbhbibj.N.ibkbl.v.x.z.B#z.G#d#f#h#C#P#7asakauaHaJaVaYb#babbbmbnbobo",
"bpbp.3bqbrbsbtbubvbwbxbybz.X.w.y.A.C.E.0#4#h#B#P#6#9akauaHaKaWb.babAbnbBbCbDbDbE",
"QtQt.IbFbGbHbIbJbK#U#.bLbMbNbObPbQbR.G.1#f#A#O#6#9ajauaHaKaXb#bbbnbBbDbEbSbTbUbV",
"QtQtbWbXbYbZb0b1.6#q#rb2b3b4b5b6b7b8b9#e#h#C#P#8aia9aHaKaXb#bbbnbCbEbSc.c#c#cacb",
"QtQtQtQtQtcccd.N#Jcecfcgchcicjckclcmcnco#A#5#6asakavaJaWb#bbbobDcpc.c#cacqcrcsct",
"QtQt.2QtQtcucv.hcwabbucxcy#SczcAcBcCcDcE#C#Q#9ajauaIaVb.bbbnbDbSc.c#cbcFcGcHcIcJ",
"QtQtQtQtQtcucKcLcMcNa5cOcycPcOcQa5cRcScTcUcVasataHaKaYbabnbCcpcWcXcYcZc0c1c2c3c4",
"Qt.2QtQtQtc5c6c7c8c9aDbh.gbr.7a#.Nd.d#dadbdcddauaIaWb#bAbBdedfdgdhdidjdkdldmdndo",
"QtQtQtQtQt.2QtQtdpdqb1aAdr.5dsdraDdtdudvdwdxdyavaJaYbadzdAdBdCdDdEdFdGdHdIdJdKdL",
"QtQtQtQtQtQtQt.2dpdMaSdNaAdOcy#V#pdPdPdQdRdSdTaHdUb.bbdVdWdXdYdZd0d1dodJd2d3d4d5",
"QtQtQtQtQtQtQtQtd6d7d8d9e.e#eaebec#Yeda5eeefegeheib#bmejekeldZemeneod4epd4d4d4dJ",
"QtQtbpbpQtQtQtQtQtd6d6d6eqbveresbreteu.QevewexeyezeAbneBeCeleDc3eEeFdLd3d4d4d4eo",
"QtQtbpbpQtQtQtQtQtQtQtQteGeHaxeIbxb1bwcxbveJeKeLeMeNboeOePeQdZeReEeSeTeod2d4d4eo",
"QtQtQtQtQt.2QtbpQtQt.2QteUeVeWeXeYeZ#naze0e1.7e2e3e4e5e6e7e8e9f.eEf#eFdIdJd4d4eo",
"QtQtQtQtQtQtQtQtQtQtQtQtfafbfcfdfedPffaA.hff#rfgfhfifjfke7flfmfnf.fofpfqdodLfrdJ",
"Qt.2QtQtQtbpQtQtQt.2QtQtQtQtQtfsczftfufvaReIfwfxfyfzfAfBePfCeDfDf.eRfEfFeFfGdLdJ",
"bpbpQtQtQtQtQtQtQtQtQtQtQt.2QtfHcBamfI#pdPa4ft#V#qfJ.KfKeCfLe9fMfNeRf#fOfNfPfQdJ",
"bpbpQtQtQtQtQtQtQtQtQtQtQtQtQtfRfSfTfUfVfWedfXbJfYazfZf0f1f2f3eDf4eReRfEf5fFfPfP",
"QtQtQtQtQtQtQtbpQtQtQtQtQtQtQtf6f7f8f9g.g#fvamg#.5fIgagbgcgdgee9gffoeRfof5f5ggfP",
"QtQtQtQtQtQtQtQtQtQtbpbpQtQtQtQtQtQtgheK#pgigj#pgkfIglgmgngogpgqd0grgseRf5gtgtgu",
"QtQtQtQtQtQtQt.2QtQtbpbpQtQtQtQtQtQtgvgwgxgycPaPgzgAaPgzgAgBgCgDgEgFgGeReReRgHeS",
"QtQt.2QtQtQtQtQtQtQtQtQtQt.2QtbpQtQtgIgJgKgLgMbJgN#pgOgNecgPgQgRgSgTgUf5eRgHeSeS",
"QtQtQtQtQtQtQtQtQtQtQtQtQtQtQtQtQtQtQtQtQtgVgWgXcxgYbheYgZg0g1g2g3g4g5gUg6eSeSeS",
"Qt.2QtQtQtQtQtQtQt.2QtQtQtbpQtQtQt.2QtQtQtg7fea5euaba5ebae#pg8gyg9h.h#hahbhceSeS",
"QtQtQtQtQt.2QtQtbpbpQtQtQtQtQtQtQtQtQtQtQthdhehfhghhe0ang#e0ang#hihjhkgTgUhlhceS",
"QtQtQtQtQtQtQt.2bpbpQtQtQtQtQtQtQtQtQtQtQtc6hmhnhohp#Vcye#.hbJcw.Nhqhrhshthuhvhw",
"QtQtQtQtQtQtQtQtQtQtQtQtQtQtQtbpQtQtQtQtQtQtQtQthxhyacfvhzacaDdraca5hAhBhChDhEhF",
"QtQtbpbpQtQtQtQtQtQtQtQtQtQtQtQtQtQtbpbpQtQtQtQthGhHbhhIhJhKhLhJhMhLerhNhOhPhQhR",
"QtQtbpbpQtQtQtQtQtQtQtQtQtQtQt.2QtQtbpbpQtQtQtQthShTaefYg#gOhUhV#VhWhVhXhYhZh0h1"};
