/* XPM */
static char *dummy[]={
"40 40 216 2",
".j c #00a15e",
"bt c #202032",
"bu c #272641",
"bh c #282735",
"bs c #2f2e35",
"b. c #313133",
"a7 c #32314a",
"Qt c #32a67a",
"#v c #333028",
"bm c #333241",
"bc c #353229",
"#0 c #36332b",
"#B c #38352d",
"#y c #39362d",
".M c #393730",
"bd c #39373c",
".U c #3a372f",
"#A c #3e3c32",
"#C c #3f3c33",
".h c #424036",
".Z c #424037",
".G c #444238",
"#i c #444239",
"#u c #44423a",
".i c #45433b",
"a3 c #464355",
".2 c #47433c",
"#R c #47443c",
"#T c #47443e",
".z c #47453d",
"#z c #49483b",
"#b c #49483f",
"aW c #4a4552",
"#k c #4a4740",
".I c #4a4741",
"## c #4a4840",
"aR c #4b4941",
".N c #4b4a42",
".L c #4c493f",
"#. c #4c4a41",
"#p c #4c4b44",
".F c #4d4a43",
".4 c #4e4d43",
".s c #4f4d44",
"#I c #4f4d46",
".O c #4f4e46",
".v c #504d46",
".J c #504e47",
"#W c #504e4b",
".D c #514e46",
"aD c #514f48",
"aS c #524e5e",
"#U c #524f48",
"#F c #525047",
"#D c #525048",
"aw c #534f5e",
"aB c #534f60",
".c c #53514a",
"aE c #545062",
".E c #545149",
".a c #54524b",
"bg c #54534c",
"aG c #555163",
".t c #55534a",
".X c #55544d",
"aJ c #565264",
"a. c #56535d",
".A c #56544c",
".5 c #56554b",
"#9 c #57535b",
".Y c #57554e",
"#t c #575649",
"#n c #57564b",
".P c #58554f",
"#3 c #58555a",
".H c #58574f",
"bv c #585766",
".# c #595650",
"#X c #5a5664",
"#s c #5a5850",
"#O c #5a5852",
"bn c #5a5868",
".y c #5b5851",
"a# c #5b5965",
"#c c #5b5a51",
".R c #5c5a54",
"ag c #5c5a60",
".3 c #5c5c53",
"b# c #5f5d6a",
".C c #5f5e56",
".b c #5f5e57",
"av c #5f5e5b",
"#Y c #605d6b",
"aZ c #605e6d",
"#4 c #615e6d",
".g c #615f58",
".k c #615f59",
"bb c #615f5a",
"#o c #61605b",
".r c #626059",
"#l c #65635b",
"af c #65635c",
".l c #65635f",
"#r c #65645a",
"#a c #66645c",
".B c #66655d",
".d c #66655f",
"#S c #67665e",
".u c #67aa97",
"#P c #68665e",
".e c #68665f",
"#2 c #686660",
".o c #696761",
"aA c #696762",
"#V c #696860",
".S c #696863",
"aY c #6a6863",
".w c #6a6962",
"#L c #6a6964",
"br c #6a6a66",
"#x c #6b6964",
"ao c #6b6966",
"#h c #6b6a66",
".p c #6c6a63",
"#j c #6c6b67",
"aU c #6d6b78",
"#g c #6d6d69",
"aI c #6e6d64",
".K c #6e6d65",
"#m c #6f6d63",
"a6 c #6f6d66",
"#q c #6f6e66",
"#Q c #706f65",
"a9 c #706f67",
"ap c #716e7b",
"#M c #716f68",
".6 c #717069",
"#1 c #71706a",
".x c #74736c",
"#w c #75746c",
".Q c #77746f",
"as c #777ea7",
".f c #787670",
"#E c #787672",
"aF c #797671",
"bl c #797973",
".7 c #7a7a74",
"#K c #7b7973",
"#J c #7b7a72",
"#f c #7b7a75",
".V c #7b7a76",
".9 c #7c7b76",
"#Z c #7c7b87",
"#8 c #7c7c7b",
".q c #7d7c75",
"aO c #7d7c77",
"be c #7d7e83",
"#N c #7e7d76",
".0 c #7e7d77",
"aP c #81807c",
".W c #82827e",
".1 c #86857f",
"bi c #88888d",
"#d c #898883",
"#e c #8c8b86",
"a5 c #8c94af",
".n c #8d8c88",
"ah c #8e8c93",
"#H c #8e8d89",
".m c #8f8f8b",
"#G c #90908c",
"bf c #909599",
"a1 c #919196",
"aM c #949491",
".8 c #959593",
".T c #969693",
"aX c #97979a",
"ar c #999bb3",
"bo c #999c9a",
"bq c #999e9b",
"aa c #a09da5",
"a8 c #a2a6a1",
"a0 c #a4a6a5",
"ba c #a6aba6",
"aT c #a8a9a9",
"a4 c #a9aca9",
"aV c #aaacac",
"a2 c #aaaeae",
"bp c #aeb2ac",
"bj c #afb3ad",
"ac c #c0c5d2",
"al c #c9cbce",
"ai c #d2d1d4",
"aN c #d8d7df",
"#7 c #dcdae0",
"aq c #dcdce0",
"aQ c #dfdee2",
"ax c #e3e3e8",
"aH c #e3e3eb",
"aK c #e4e4eb",
"bk c #e5e5e5",
"aL c #e6e5ec",
"az c #e6e6e6",
"ay c #e7e7e7",
"aC c #e7e7ed",
"ad c #e8e8e8",
"#5 c #e9e8ea",
"ae c #e9e9e9",
"am c #eaeaea",
"an c #ebebeb",
"au c #ececec",
"at c #ededed",
"#6 c #f6f8ef",
"ab c #f9f9f8",
"ak c #fffefd",
"aj c #ffffff",
"QtQtQtQtQtQtQtQtQtQtQtQtQtQtQtQtQtQtQtQtQtQtQtQtQtQtQtQtQtQt.#.a.b.c.d.e.f.g.h.i",
"QtQtQtQt.jQtQtQtQtQtQtQt.jQtQtQtQtQtQtQt.jQtQtQtQtQtQtQt.jQt.k.l.m.n.o.p.q.r.s.t",
"Qt.jQtQtQtQtQtQtQt.jQtQtQt.uQtQtQt.jQtQtQtQtQtQtQt.jQtQtQt.u.v.w.x.y.z.A.B.C.D.E",
"QtQtQtQtQt.jQtQt.u.uQtQtQtQtQtQtQtQtQtQtQt.jQtQt.u.uQtQtQtQt.F.G.H.I.#.w.J.K.L.E",
"QtQtQtQtQtQtQt.j.u.uQtQtQtQtQtQtQtQtQtQtQtQtQt.j.u.uQtQtQtQt.M.N.O.P.Q.R.S.T.l.U",
"QtQtQtQtQtQtQtQtQtQtQtQtQtQtQt.uQtQtQtQtQtQtQtQtQtQtQtQtQtQt.V.W.#.X.Y.Z.0.1.a.2",
"QtQt.u.uQtQtQtQtQtQtQtQtQtQtQtQtQtQt.u.uQtQtQtQtQtQtQtQtQtQt.3.4.5.6.7.8.9#.###a",
"QtQt.u.uQtQtQtQtQtQtQtQtQtQtQt.jQtQt.u.uQtQtQtQtQtQtQtQtQtQt#b#c#d#e#f#g#h#i#j#k",
"QtQtQtQtQt.jQt.uQtQt.jQtQtQtQtQtQtQtQtQtQt.jQt.uQtQt.jQtQtQt.G#l.6#m#n#o#p#o#q#r",
"QtQtQtQtQtQtQtQtQtQtQtQtQtQtQtQtQtQtQtQtQtQtQtQtQtQtQtQtQtQt.Z.K#s#t.h#u#v.p#w#x",
"Qt.jQtQtQt.uQtQtQt.jQtQtQtQtQtQtQt.jQtQt.#.a.b.c.d.e.f.g.h.i#y#u#i#z#A#B#C#D.R#E",
".u.uQtQtQtQtQtQtQtQtQtQtQt.jQtQt.u.uQtQt.k.l.m.n.o.p.q.r.s.t.Z#F#G#H#I.J#J#K.P#L",
".u.uQtQtQtQtQtQtQtQtQtQtQtQtQt.j.u.uQtQt.v.w.x.y.z.A.B.C.D.E.a#M#N#O#C#F#P#Q.2#.",
"QtQtQtQtQtQtQt.uQtQtQtQtQtQtQtQtQtQtQtQt.F.G.H.I.#.w.J.K.L.E#R.H#S#T#U#V#W#X#Y#Z",
"QtQtQtQtQtQtQtQtQtQt.u.uQtQtQtQtQtQtQtQt.M.N.O.P.Q.R.S.T.l.U#0#1#V#O#2#3#4#5#6#7",
"QtQtQtQtQtQtQt.jQtQt.u.uQtQtQtQtQtQtQtQt.V.W.#.X.Y.Z.0.1.a.2.V#8#9a.a#aaabacadae",
"QtQt.jQtQtQtQtQtQtQtQtQtQt.jQt.uQtQt.jQt.3.4.5.6.7.8.9#.##afagahaiajakaladamanan",
"QtQtQtQtQtQtQtQtQtQtQtQtQtQtQtQtQtQtQtQt#b#c#d#e#f#g#h#iaoapaqarasatadamanauanan",
"Qt.jQtQtQtQtQtQtQt.jQtQtQt.uQtQtQt.jQtQt.G#l.6#m#n#o#pavawaxadayazamanauauauauan",
"QtQtQtQtQt.jQtQt.u.uQtQtQtQtQtQtQtQtQtQt.Z.K#s#t.h#u#vaAaBaCayayamauauauauauauau",
"QtQtQtQtQtQtQt.j.u.u.#.a.b.c.d.e.f.g.h.i#y#u#i#z#A#B#CaDaEaCayadamananauauauauau",
"QtQtQtQtQtQtQtQtQtQt.k.l.m.n.o.p.q.r.s.t.Z#F#G#H#I.J#JaFaGaHayaeamamanauauauauau",
"QtQt.u.uQtQtQtQtQtQt.v.w.x.y.z.A.B.C.D.E.a#M#N#O#C#F#PaIaJaKayaeamaeamananauauau",
"QtQt.u.uQtQtQtQtQtQt.F.G.H.I.#.w.J.K.L.E#R.H#S#T#U#V.J#qaJaLayaeaeaeaeananananau",
"QtQtQtQtQt.jQt.uQtQt.M.N.O.P.Q.R.S.T.l.U#0#1#V#O#2#O.SaMaGaNayadaeaeaeamamananau",
"QtQtQtQtQtQtQtQtQtQt.V.W.#.X.Y.Z.0.1.a.2.V.W.#.X.Y.ZaOaPaEaQayayaeaeaeadaeananau",
"Qt.jQtQtQt.uQtQtQt.j.3.4.5.6.7.8.9#.###a.3.4.5.6.7.8#faRaSaTauayaeaeaeaeaeamanan",
".u.uQtQtQtQtQtQtQtQt#b#c#d#e#f#g#h#i#j#k#b#c#d#e#f#g#h#i#haUaVayayaeaeaeaeaeaman",
".u.uQtQtQtQtQtQtQtQt.G#l.6#m#n#o#p#o#q#r.G#l.6#m#n#o#p#o#qaWaXatazadaeaeaeaeaeam",
"QtQtQtQtQtQtQt.uQtQt.Z.K#s#t.h#u#v.p#w#x.Z.K#s#t.h#u#v.p#waYaZa0amayadaeaeaeaeam",
".#.a.b.c.d.e.f.g.h.i#y#u#i#z#A#B#C#D.R#E#y#u#i#z#A#B#C#D.R#E#ya1a2azayaeaeaeamam",
".k.l.m.n.o.p.q.r.s.t.Z#F#G#H#I.J#J#K.#.S.Z#F#G#H#I.J#J#K.#.S.Za3a4a5azayaeamamam",
".v.w.x.y.z.A.B.C.D.E.a#M#N#O#C#F#P#Q.2#..a#M#N#O#C#F#P#Q.2#..aa6a7a8adayayamamam",
".F.G.H.I.#.w.J.K.L.E#R.H#S#T#U#V.Ja9#y#i#R.H#S#T#U#V.Ja9#y#i#R.Hb.b#baazayayamam",
".M.N.O.P.Q.R.S.T.l.U#0#1#V#O#2#O.S.Tbbbc#0#1#V#O#2#O.S.Tbbbc#0#1#Vbdbebfazayayae",
".V.W.#.X.Y.Z.0.1.a.2.V.W.#.X.Y.Z.0.1.a.2.V.W.#.X.Y.Z.0.1.a.2.V.W.#bgbhbibjanazbk",
".3.4.5.6.7.8.9#.###a.3.4.5.6.7.8.9#.###a.3.4.5.6.7.8.9#.###a.3.4.5.6blbmbnbobpbq",
"#b#c#d#e#f#g#h#i#j#k#b#c#d#e#f#g#h#i#j#k#b#c#d#e#f#g#h#i#j#k#b#c#d#e#fbrbsbtbubv",
".G#l.6#m#n#o#p#o#q#r.G#l.6#m#n#o#p#o#q#r.G#l.6#m#n#o#p#o#q#r.G#l.6#m#n#o#p#o#q#r",
".Z.K#s#t.h#u#v.p#w#x.Z.K#s#t.h#u#v.p#w#x.Z.K#s#t.h#u#v.p#w#x.Z.K#s#t.h#u#v.p#w#x"};
