/* XPM */
static char *dummy[]={
"40 40 219 2",
".k c #00a15e",
"b# c #1e1d32",
"aW c #1f1d37",
"a5 c #1f1e39",
"aZ c #22203c",
"aT c #24223e",
"bx c #27253b",
"aP c #272641",
"bt c #282640",
"aL c #282641",
".h c #29231d",
"bf c #292843",
".C c #2a251f",
".t c #2a2620",
"a7 c #2a2842",
"bk c #2b2944",
"bo c #2d2b45",
".S c #2f2c26",
"#4 c #302b25",
"#C c #302b26",
".K c #302c26",
".2 c #312d27",
"## c #312d28",
"aK c #312f48",
"ai c #322e2a",
"a8 c #322f2a",
".i c #32a67a",
"#z c #333028",
"#J c #36332c",
"a2 c #36344a",
".J c #37342a",
"#. c #38342c",
".B c #38352b",
".L c #38352d",
"aI c #38354c",
"#h c #39352e",
"#s c #3a372f",
"#F c #3b3930",
"aG c #3c394e",
".s c #3c3a2f",
"#I c #3d3a32",
"aD c #3d3a4f",
"ba c #3d3b33",
"#H c #3e3c31",
".E c #3e3c33",
"#y c #3e3c34",
".D c #3f3b33",
"#3 c #3f3c32",
"bd c #403e34",
"bp c #403f36",
"#j c #413d38",
"bh c #413e34",
"#A c #413e35",
".x c #413e36",
".Y c #414037",
"#x c #424036",
"#Q c #434138",
".u c #444138",
".w c #444239",
"#G c #464539",
"#8 c #473f50",
"ae c #474251",
"aN c #47433d",
"#0 c #474442",
"a0 c #48443b",
".g c #48453b",
"bw c #484559",
"az c #494655",
"#b c #4a463c",
".b c #4a483a",
"#R c #4a483e",
"#9 c #4b464d",
"aE c #4b4a41",
".1 c #4c4941",
"#p c #4c4b44",
".4 c #4d4a40",
"aR c #4d4a43",
"bi c #4d4c43",
".a c #4e4c3e",
".F c #4e4c42",
"#N c #4e4d45",
"aV c #4f4b5d",
"#t c #504e45",
".H c #504e46",
"#E c #504e47",
"ah c #514d53",
"#w c #514f43",
"#1 c #514f48",
"#v c #515046",
"#V c #525047",
"b. c #525060",
"ar c #534f61",
".n c #545247",
".y c #55534a",
".G c #55534c",
".W c #55544d",
"#q c #56534e",
".# c #565449",
"aA c #56544a",
".X c #56554e",
"#l c #57554b",
"aw c #585465",
".r c #58564d",
"#B c #59574e",
".v c #59584e",
".V c #595851",
"#o c #595853",
".o c #5a5850",
"#Z c #5b5664",
"#U c #5b5952",
"aM c #5b5a51",
"#i c #5b5a55",
".c c #5c5a4f",
"#n c #5c5b51",
"#r c #5d5b53",
".A c #5d5c52",
".m c #5e5c53",
"af c #605d68",
"aq c #625d6e",
".f c #625f57",
".e c #626057",
".R c #62605c",
"a. c #62615a",
"a3 c #636157",
"aQ c #63625a",
".P c #64625c",
".z c #64635b",
".l c #65635a",
"#c c #65645a",
"#k c #666459",
"bv c #666571",
"bc c #666671",
"#a c #67665b",
"bs c #676671",
".j c #67aa97",
"ag c #68656e",
"#K c #68665e",
".M c #686660",
"bl c #686762",
"a# c #696863",
".p c #6a6862",
"be c #6a6973",
"#S c #6c6a64",
"#W c #6c6b60",
".5 c #6c6b63",
"bm c #6c6b65",
"#u c #6d6b62",
"#g c #6d6c68",
"bu c #6d6d67",
"as c #6d6d68",
".I c #6e6d65",
"bg c #6f6e66",
"bj c #6f6e77",
"#2 c #706f67",
".7 c #71706a",
".d c #737169",
".O c #74736d",
"#f c #757571",
"bn c #76777d",
"#P c #77756f",
".3 c #77776c",
"Qt c #79776f",
"#T c #797870",
".6 c #797872",
"aY c #797c77",
"at c #797ea6",
"aU c #797f8a",
".U c #7a7a77",
"#m c #7b7971",
"#O c #7b7a72",
".9 c #7b7b76",
"a1 c #7b8285",
".Z c #7e7d77",
".T c #81807d",
"a6 c #818884",
".q c #828179",
"#D c #84827d",
".N c #85837f",
"#Y c #858490",
".0 c #878680",
"aS c #888694",
"by c #888783",
"br c #898a8e",
"#X c #8b8a94",
".8 c #8d8d8b",
"ad c #8e8c97",
"#M c #8e8d89",
"#e c #8f8e8b",
"#L c #91908d",
"a4 c #959886",
".Q c #969693",
"#d c #979691",
"ay c #a3a4a0",
"bq c #a3a8a3",
"am c #a5b3df",
"#7 c #acacb4",
"aO c #c5c6cd",
"av c #c9c7ce",
"ax c #cacbda",
"aJ c #cfcfd7",
"ab c #d0d2e1",
"aH c #d1d0d7",
"#5 c #d2d3e2",
"ap c #d4d3d7",
"aF c #dcdce1",
"aC c #e1e1e5",
"aX c #e5e5e5",
"aB c #e6e6e6",
"ak c #e7e7e7",
"aa c #e8e8e8",
"aj c #e9e9e9",
"bb c #eaeaea",
"al c #ebebeb",
"a9 c #ececec",
"au c #f0f1f5",
"ac c #f9f9f9",
"ao c #fbfbfb",
"#6 c #fbfff5",
"an c #fcfcfe",
"Qt.#.a.b.c.d.e.f.g.h.i.i.i.i.i.i.i.i.i.i.i.i.i.i.i.i.i.i.i.i.i.j.i.i.k.i.i.i.i.i",
".l.m.e.n.o.p.q.r.s.t.i.i.k.i.i.i.i.i.i.i.k.i.i.i.i.i.i.i.k.i.i.i.i.i.i.i.i.i.i.i",
".u.v.m.w.x.y.z.A.B.C.i.i.i.j.i.i.i.k.i.i.i.i.i.i.i.k.i.i.i.j.i.i.i.k.i.i.i.i.i.i",
".D.E.F.x.G.p.H.I.J.K.i.i.i.i.i.i.i.i.i.i.i.k.i.i.j.j.i.i.i.i.i.i.i.i.i.i.i.k.i.i",
".L.M.M.N.O.P.p.Q.R.S.i.i.i.i.i.i.i.i.i.i.i.i.i.k.j.j.i.i.i.i.i.i.i.i.i.i.i.i.i.k",
".T.U.V.W.X.Y.Z.0.1.2.i.i.i.i.i.j.i.i.i.i.i.i.i.i.i.i.i.i.i.i.i.j.i.i.i.i.i.i.i.i",
".3.4.5.6.7.8.9.1#.##.i.i.i.i.i.i.i.i.j.j.i.i.i.i.i.i.i.i.i.i.i.i.i.i.j.j.i.i.i.i",
"#a#b#c#d#e#f#g#h#i#j.i.i.i.i.i.k.i.i.j.j.i.i.i.i.i.i.i.i.i.i.i.k.i.i.j.j.i.i.i.i",
"#k.F#l#m#n#o#p#q#r#s.k.i.i.i.i.i.i.i.i.i.i.k.i.j.i.i.k.i.i.i.i.i.i.i.i.i.i.k.i.j",
"#t#u#v#w#x#y#z#A#B#C.i.i.i.i.i.i.i.i.i.i.i.i.i.i.i.i.i.i.i.i.i.i.i.i.i.i.i.i.i.i",
"#D#E#F#G#H#..E#I.w#JQt.#.a.b.c.d.e.f.g.h.i.j.i.i.i.k.i.i.i.i.i.i.i.k.i.i.i.j.i.i",
"#K.R#L#M#N.H#O#P#Q#y.l.m.e.n.o.p.q.r.s.t.i.i.i.i.i.i.i.i.i.k.i.i.j.j.i.i.i.i.i.i",
"#R#S#T#U#F#V#K#W#x#s.u.v.m.w.x.y.z.A.B.C.i.i.i.i.i.i.i.i.i.i.i.k.j.j.i.i.i.i.i.i",
"#X#Y#Z#0#1.p#E#2#3#4.D.E.F.x.G.p.H.I.J.K.i.i.i.j.i.i.i.i.i.i.i.i.i.i.i.i.i.i.i.j",
"#5#6#7#8#9a.a#.Q.R.K.L.M.M.N.O.P.p.Q.R.S.i.i.i.i.i.i.j.j.i.i.i.i.i.i.i.i.i.i.i.i",
"aaaaabacadaeafagahai.T.U.V.W.X.Y.Z.0.1.2.i.i.i.k.i.i.j.j.i.i.i.i.i.i.i.i.i.i.i.k",
"ajakakalamanaoapaqaras.4.5.6.7.8.9.1#.##.i.i.i.i.i.i.i.i.i.k.i.j.i.i.k.i.i.i.i.i",
"ajakakakakakajatauavaw#b#c#d#e#f#g#h#i#j.i.i.i.i.i.i.i.i.i.i.i.i.i.i.i.i.i.i.i.i",
"aaakakakakakakakalaxayazaA#m#n#o#p#q#r#s.i.i.i.i.i.k.i.i.i.j.i.i.i.k.i.i.i.i.i.i",
"akakakakakakakakaBakaCaDaE#w#x#y#z#A#B#C.i.k.i.i.j.j.i.i.i.i.i.i.i.i.i.i.i.k.i.i",
"akakakakakakakakakaBaFaG#F#G#H#..E#I.w#JQt.#.a.b.c.d.e.f.g.h.i.i.i.i.i.i.i.i.i.k",
"akakakakakakakakakaBaHaI#L#M#N.H#O#P#Q#y.l.m.e.n.o.p.q.r.s.t.i.j.i.i.i.i.i.i.i.i",
"akakakakakakakakakaBaJaK#T#U#F#V#K#W#x#s.u.v.m.w.x.y.z.A.B.C.i.i.i.i.j.j.i.i.i.i",
"akakakakakaBakakakaBaJaLaMaN#1.p#E#2#3#4.D.E.F.x.G.p.H.I.J.K.i.k.i.i.j.j.i.i.i.i",
"akakakakakakakakakaBaOaPaQaR#Ua.a#.Q.R.K.L.M.M.N.O.P.p.Q.R.S.i.i.i.i.i.i.i.k.i.j",
"akakakaBakakakakakaBaSaT.V.W.X.Y.Z.0.1.2.T.U.V.W.X.Y.Z.0.1.2.i.i.i.i.i.i.i.i.i.i",
"akakakakakaaaaakakaUaVaW.5.6.7.8.9.1#.##.3.4.5.6.7.8.9.1#.##.i.i.i.k.i.i.i.j.i.i",
"akakakakakaaakakaXaYaZa0#c#d#e#f#g#h#i#j#a#b#c#d#e#f#g#h#i#j.i.i.j.j.i.i.i.i.i.i",
"akakaaaaaaaaaBaBa1a2a3.F#l#m#n#o#p#q#r#s#k.F#l#m#n#o#p#q#r#s.i.k.j.j.i.i.i.i.i.i",
"aaaaaaaaaaakaBaXa4a5#t#u#v#w#x#y#z#A#B#C#t#u#v#w#x#y#z#A#B#C.i.i.i.i.i.i.i.i.i.j",
"aaaaaaaaakaBaXa6a7a8#D#E#F#G#H#..E#I.w#J#D#E#F#G#H#..E#I.w#JQt.#.a.b.c.d.e.f.g.h",
"aaaaaaakaBaBa9b.b#ba#K.R#L#M#N.H#O#P#Q#y#K.R#L#M#N.H#O#P#Q#y.l.m.e.n.o.p.q.r.s.t",
"aaaaakaBaBbbbcaZbd#s#R#S#T#U#F#V#K#W#x#s#R#S#T#U#F#V#K#W#x#s.u.v.m.w.x.y.z.A.B.C",
"aaakaBaBalbebfbg#3#4bhbiaMaN#1.p#E#2#3#4bhbiaMaN#1.p#E#2#3#4.D.E.F.x.G.p.H.I.J.K",
"aBaBaBbbbjbkbl.Q.R.K#hbmaQaR#Ua.a#.Q.R.K#hbmaQaR#Ua.a#.Q.R.K.L.M.M.N.O.P.p.Q.R.S",
"aBaBalbnbobp.Z.0.1.2.T.U.V.W.X.Y.Z.0.1.2.T.U.V.W.X.Y.Z.0.1.2.T.U.V.W.X.Y.Z.0.1.2",
"bqbrbsbtbu.8.9.1#.##.3.4.5.6.7.8.9.1#.##.3.4.5.6.7.8.9.1#.##.3.4.5.6.7.8.9.1#.##",
"bvbwbxby#e#f#g#h#i#j#a#b#c#d#e#f#g#h#i#j#a#b#c#d#e#f#g#h#i#j#a#b#c#d#e#f#g#h#i#j",
"#k.F#l#m#n#o#p#q#r#s#k.F#l#m#n#o#p#q#r#s#k.F#l#m#n#o#p#q#r#s#k.F#l#m#n#o#p#q#r#s",
"#t#u#v#w#x#y#z#A#B#C#t#u#v#w#x#y#z#A#B#C#t#u#v#w#x#y#z#A#B#C#t#u#v#w#x#y#z#A#B#C"};
