/* XPM */
static char *dummy[]={
"40 40 559 2",
"eU c #272641",
"eT c #312c35",
"e# c #32314a",
"f8 c #32a67a",
"fI c #332810",
"fG c #362a11",
"ex c #362f30",
"fJ c #382c13",
"fH c #392d14",
"fF c #3a2e14",
"er c #3b3332",
"g. c #41300f",
"eS c #4b3e2c",
"fK c #4c3914",
"el c #4c3e23",
"d1 c #4c4754",
"gv c #4d3a14",
"dU c #514950",
"cG c #534f60",
"fR c #543e13",
"fM c #543e14",
"cJ c #545062",
"f3 c #553e14",
"fY c #553f14",
"fP c #553f15",
"cY c #555163",
"fT c #563f14",
"f0 c #564015",
"dC c #56515e",
"de c #565264",
"fW c #574015",
"fU c #574016",
"f6 c #574216",
"fX c #574217",
"fO c #584015",
"f4 c #584016",
"f5 c #584115",
"f1 c #584116",
"fN c #584216",
"cA c #58525a",
"eV c #585766",
"f7 c #594116",
"fV c #594217",
"fS c #594318",
"fZ c #5a4217",
"f2 c #5a4418",
"ey c #5a5868",
"fL c #5b4317",
"ga c #5c4212",
"gd c #5c4313",
"gk c #5c4414",
"fQ c #5c4418",
"gu c #5d4312",
"gp c #5d4413",
"gn c #5d4414",
"gt c #5d4415",
"gf c #5d4515",
"gh c #5e4413",
"gs c #5e4515",
"g# c #5f4412",
"gi c #5f4513",
"gq c #5f4514",
"em c #5f5d6a",
"go c #604412",
"gm c #604413",
"gj c #604512",
"ge c #604513",
"gg c #614513",
"gl c #614614",
"gb c #614715",
"dX c #615f6d",
"gr c #624513",
"gc c #624514",
"bq c #635a5d",
"eo c #645230",
"f9 c #67aa97",
"by c #696269",
"gA c #6a4f19",
"bG c #6a6263",
"gN c #6b501a",
"gx c #6c5019",
"gK c #6c511a",
"gH c #6c511b",
"br c #6c666d",
"gE c #6d5019",
"gR c #6d511b",
"gC c #6d531c",
"gQ c #6e5119",
"gL c #6e511a",
"gF c #6e521a",
"gO c #6e531c",
"dP c #6e6c78",
"gM c #6f531b",
"gS c #705219",
"gw c #70521a",
"gB c #70531a",
"bF c #706358",
"gJ c #71521a",
"gG c #71531a",
"gP c #71541a",
"gI c #71541b",
"gy c #71551c",
"gD c #72531a",
"gz c #73541b",
"cs c #75707b",
"bE c #776954",
"cv c #777ea7",
"ep c #7d7e83",
"b2 c #7f6f5a",
"bx c #806d4e",
"bs c #868287",
"es c #88888d",
".C c #8c6f2c",
"d3 c #8c94af",
".H c #8d712e",
".K c #8e702c",
".N c #8e702d",
".R c #8e712e",
".t c #8e722e",
".F c #8e722f",
".x c #8f702c",
".G c #8f712c",
".q c #8f712d",
".O c #8f712e",
".o c #8f722e",
".y c #8f732f",
".s c #90722e",
".Q c #90732e",
".B c #90732f",
".w c #907330",
"eq c #909599",
".L c #91722d",
".J c #91732e",
".v c #91742f",
".A c #917430",
"dZ c #919196",
".z c #92732e",
".D c #92742f",
".M c #927530",
"b3 c #928f93",
".u c #937430",
".E c #937631",
".I c #947630",
".P c #947631",
".p c #947731",
".r c #947732",
".n c #957832",
"dV c #97979a",
"cu c #999bb3",
"ez c #999c9a",
"eB c #999e9b",
"eX c #9a7b35",
"eW c #9a7c36",
"e3 c #9b7b34",
"#t c #9b7c35",
"#d c #9b7d35",
"e0 c #9c7c35",
"e1 c #9c7c36",
"#A c #9c7d34",
"#f c #9c7d35",
"#h c #9c7d36",
"#m c #9c7d37",
"#c c #9c7e37",
"#B c #9d7c35",
"#o c #9d7d35",
"e4 c #9d7d36",
"#k c #9d7e37",
"#x c #9d7f37",
"#w c #9e7d35",
"e7 c #9e7d37",
"#j c #9e7e35",
"#q c #9e7e36",
"e6 c #9e7e37",
"#r c #9e7f38",
"#C c #9e8038",
"bp c #9e8445",
"cl c #9f7f36",
"#y c #9f7f37",
"d. c #9f7f38",
"eg c #9f8036",
"#D c #9f8037",
"#p c #9f8038",
"#v c #9f8138",
"#i c #9f8139",
"e8 c #a07f37",
"#l c #a08038",
"c2 c #a08039",
"#s c #a08137",
"c# c #a08138",
"#n c #a08139",
"c0 c #a0813a",
"ck c #a08238",
"#z c #a08239",
"cf c #a18036",
"c6 c #a18038",
"ed c #a18136",
"ca c #a18137",
"#e c #a18138",
"#g c #a18139",
"d# c #a1813a",
"eb c #a18238",
"cn c #a18239",
"c5 c #a1823a",
"cd c #a18339",
"c8 c #a1833b",
"dd c #a1833c",
"bD c #a18543",
"cc c #a28137",
"db c #a28138",
"c7 c #a28139",
"co c #a28237",
"ch c #a28238",
"#u c #a28239",
"e5 c #a2823a",
"cp c #a28339",
"ei c #a28439",
"ci c #a2843a",
"ea c #a2a6a1",
"ef c #a38238",
"eY c #a3823a",
"e2 c #a3833b",
"dE c #a3833d",
"c. c #a3843a",
"c4 c #a3843b",
"da c #a3843c",
"dF c #a3843d",
"cj c #a3853a",
"cr c #a3853c",
"cg c #a3863a",
"dc c #a4833b",
"cq c #a48439",
"c9 c #a4843a",
"c1 c #a4843b",
"dO c #a4843c",
"dN c #a4843d",
"be c #a48539",
"ag c #a4853a",
"ek c #a4853b",
"c3 c #a4853c",
"ee c #a4863a",
"cb c #a4863b",
"cz c #a48842",
"dY c #a4a6a5",
"eZ c #a5843b",
"bn c #a5853a",
"dL c #a5853c",
"dG c #a5853d",
"dK c #a5853e",
"#V c #a5863a",
"ec c #a5863b",
"ba c #a5863c",
"aR c #a5863f",
"eh c #a5873b",
"ce c #a5873c",
"ej c #a5883c",
"cF c #a58841",
"bh c #a68539",
"dH c #a6853d",
"bb c #a68639",
"at c #a6863a",
"dJ c #a6863e",
"aS c #a6863f",
"bj c #a6873a",
"b# c #a6873b",
"bf c #a6873c",
"#6 c #a6883b",
"aq c #a6883c",
"#J c #a6883d",
"bH c #a6a1a5",
"en c #a6aba6",
"am c #a7863a",
"dM c #a7863e",
"#0 c #a7873a",
"#H c #a7873b",
"cm c #a7873c",
"a3 c #a7873e",
"dI c #a7873f",
"#F c #a7883b",
"af c #a7883c",
"#9 c #a7883d",
"dh c #a7883e",
"cy c #a7893c",
"#X c #a7893d",
"bd c #a7893e",
"#P c #a8873a",
"bc c #a8873b",
"aU c #a8873f",
"a7 c #a88740",
"bl c #a8883a",
"#U c #a8883c",
"a9 c #a8883f",
"aW c #a88840",
"au c #a8893c",
"#M c #a8893d",
"aj c #a8893e",
"a5 c #a88940",
"#Y c #a88a3d",
"aa c #a88a3e",
"#S c #a88a3f",
"dD c #a8a9a9",
"#L c #a9883a",
"ac c #a9883b",
"aX c #a9883f",
"b. c #a98840",
"a# c #a9893b",
"a1 c #a98940",
"a8 c #a98941",
"bo c #a98a3c",
"#2 c #a98a3d",
"bv c #a98a3e",
"a0 c #a98a41",
"dT c #a98b3d",
"#T c #a98b3e",
"ae c #a98b3f",
"di c #a98c40",
"d2 c #a9aca9",
"#R c #aa883b",
"#5 c #aa893b",
"bg c #aa893d",
"aY c #aa8940",
"a6 c #aa8941",
"bi c #aa8a3c",
"aH c #aa8a3d",
"aT c #aa8a41",
"ew c #aa8b3c",
"ev c #aa8b3d",
"ap c #aa8b3e",
"#1 c #aa8b3f",
"aZ c #aa8b42",
"bC c #aa8c3e",
"#Q c #aa8c3f",
"ad c #aa8c40",
"dS c #aa8d3f",
"cI c #aa8d40",
"dQ c #aaacac",
"d0 c #aaaeae",
"aC c #ab8a3d",
"a2 c #ab8a40",
"aV c #ab8a41",
"#Z c #ab8b3d",
"bw c #ab8b3e",
"a4 c #ab8b42",
"#3 c #ab8c3d",
"bk c #ab8c3e",
"#E c #ab8c3f",
"dm c #ab8c40",
"aM c #ab8c41",
"ab c #ab8d3f",
"a. c #ab8d40",
"dW c #ab8e3f",
"ak c #ab8e40",
"ai c #ac8b3e",
"#N c #ac8c3e",
"aO c #ac8c3f",
"aA c #ac8c41",
"an c #ac8d3e",
"#4 c #ac8d3f",
"#K c #ac8d40",
"aJ c #ac8d41",
"dA c #ac8d42",
"#O c #ac8e40",
"dR c #ac8e41",
"aF c #ac8e42",
"dB c #ac8e44",
"ay c #ad8c3d",
"aK c #ad8c3e",
"#G c #ad8d3e",
"do c #ad8d3f",
"bm c #ad8e3e",
"#I c #ad8e40",
"dq c #ad8e41",
"dt c #ad8e42",
"al c #ad8f40",
"bu c #ad8f41",
"aQ c #ad9042",
"aE c #ae8d3e",
"ds c #ae8d3f",
"ar c #ae8e3e",
"#7 c #ae8e3f",
"ao c #ae8e40",
"#W c #ae8e41",
"dz c #ae8e42",
"as c #ae8f40",
"#8 c #ae8f41",
"aD c #ae8f42",
"dw c #ae8f43",
"ax c #ae9043",
"eA c #aeb2ac",
"bt c #af8e3f",
"dv c #af8e40",
"aL c #af8e41",
"fm c #af8e43",
"d5 c #af8e45",
"aN c #af8f40",
"az c #af8f41",
"cL c #af8f44",
"bN c #af8f45",
"d4 c #af8f46",
"cE c #af9041",
"dx c #af9043",
"e. c #af9046",
"aB c #af9143",
"dr c #af9144",
"et c #afb3ad",
"ah c #b09041",
"aP c #b09042",
"cT c #b09044",
"d9 c #b09045",
"av c #b09143",
"du c #b09244",
"cX c #b09248",
"fh c #b18e42",
"aG c #b19041",
"aw c #b19042",
"cQ c #b19043",
"b0 c #b19045",
"bZ c #b19046",
"aI c #b19143",
"bM c #b19146",
"d8 c #b19147",
"dl c #b19243",
"dp c #b19244",
"fv c #b28f43",
"bP c #b29045",
"dn c #b29142",
"cM c #b29144",
"bT c #b29145",
"bR c #b29146",
"bU c #b29147",
"dy c #b29244",
"cN c #b29245",
"bY c #b29247",
"cW c #b29346",
"fx c #b39045",
"cO c #b39144",
"b1 c #b39145",
"bX c #b39146",
"cU c #b39246",
"d7 c #b39247",
"d6 c #b39248",
"eR c #b39346",
".T c #b39347",
"bS c #b39348",
"cS c #b49244",
"fC c #b49246",
"bV c #b49247",
".1 c #b49346",
".6 c #b49347",
"bQ c #b49348",
"cR c #b49447",
"cV c #b49448",
"bW c #b49449",
"cK c #b49547",
"fq c #b59144",
"f. c #b59244",
"fd c #b59245",
"fb c #b59246",
".3 c #b59346",
"bO c #b59347",
".X c #b59446",
".V c #b59447",
".7 c #b59547",
".5 c #b59548",
"cP c #b59648",
"fE c #b69245",
"ft c #b69346",
".m c #b69447",
".f c #b69448",
".8 c #b69546",
".Z c #b69547",
".0 c #b69648",
"## c #b69649",
"ff c #b79346",
".k c #b79448",
".4 c #b79547",
".g c #b79548",
"eJ c #b79647",
"#a c #b79649",
".S c #b79749",
".Y c #b7974a",
"fk c #b89447",
".b c #b89548",
".e c #b89549",
".i c #b89648",
".j c #b89649",
"eG c #b89748",
".d c #b89749",
"#b c #b8974a",
".W c #b8984a",
".2 c #b8984b",
"fo c #b99548",
".h c #b99649",
"eN c #b99748",
".l c #b99749",
".U c #b99849",
"eM c #b9984a",
"#. c #b9994a",
".9 c #b9994b",
".c c #ba9749",
".a c #ba974a",
"eO c #ba994a",
"eQ c #ba994b",
"eK c #ba9a4b",
"eF c #ba9a4c",
"fA c #bb9748",
"fr c #bb9849",
"eH c #bb994a",
"eE c #bb9b4c",
"eI c #bb9b4d",
"eL c #bc9a4b",
"eD c #bc9b4b",
"eC c #bc9c4c",
"eP c #bc9c4d",
"fB c #be9a4a",
".# c #be9a4e",
"Qt c #be9b4f",
"e9 c #bf9c4b",
"fi c #c09a4a",
"fs c #c09c4d",
"bJ c #c0c5d2",
"fl c #c19c4c",
"fz c #c19c4d",
"fy c #c29d4c",
"fe c #c29d4e",
"fj c #c39e4f",
"fw c #c5a050",
"fD c #c6a150",
"fc c #c7a150",
"fp c #c7a251",
"f# c #c9a454",
"b7 c #c9cbce",
"fa c #caa351",
"fn c #caa452",
"fg c #cba554",
"fu c #cca654",
"b4 c #d5d3d4",
"dj c #d8d7df",
"bB c #dcdae0",
"ct c #dcdce0",
"dk c #dfdee2",
"cB c #e3e3e8",
"cZ c #e3e3eb",
"df c #e4e4eb",
"eu c #e5e5e5",
"dg c #e6e5ec",
"cD c #e6e6e6",
"cC c #e7e7e7",
"cH c #e7e7ed",
"bK c #e8e8e8",
"bz c #e9e8ea",
"bL c #e9e9e9",
"b8 c #eaeaea",
"b9 c #ebebeb",
"cx c #ececec",
"cw c #ededed",
"bA c #f6f8ef",
"bI c #f9f9f8",
"b6 c #fffefd",
"b5 c #ffffff",
"Qt.#.a.b.c.d.e.f.g.h.i.j.k.g.h.h.h.g.k.b.l.j.e.m.k.h.i.j.k.g.j.l.j.g.f.b.l.d.e.f",
".n.o.p.q.r.s.t.q.t.u.v.w.x.y.z.A.B.C.D.q.E.v.F.G.H.I.J.B.K.A.L.M.B.N.B.O.P.Q.R.L",
".S.T.U.V.W.X.Y.Z.0.d.1.2.3.Y.4.5.S.6.U.1.W.7.Y.8.0.i.6.9.3#..V###a.5.d.Z#b.V.Y.4",
"#c#d#e#f#g#h#i#j#k#l#m#n#o#p#q#r#p#h#s#t#u#k#v#w#x#y#m#z#A#n#B#p#C#k#D#h#n#h#p#j",
"#E#F#G#H#I#J#K#L#M#N#J#O#P#Q#R#S#T#U#G#V#W#X#K#L#Y#Z#J#O#P#O#0#1#T#2#3#F#4#J#E#5",
"#E#6#7#0#8#9a.a##X#Naaa.#0abacadaeaf#7agah#Ma.a##Yaiajak#0alam#K#T#Man#0ao#X#Q#5",
"ab#6#7#H#I#Xa.ac#Yapaa#O#0aba#ae#Qaqar#Vas#Ma.a##T#Zaj#O#0alat#Eaeau#N#F#4#X#Q#5",
"av#1awaiav#Kaxay#KazaAaBaCaDaEaFaD#1aGaHaIaJaxaK#KaLaMaB#ZavaiaDaD#EaNaOaPaAaQaE",
"aRaSaTaUaVaWaTaXaWaYaWaZaUa0aXa1aTaUa2a3a4aWaTaXa5a6a7aZaUaTaUa8a8aWaYa9aVa9a5b.",
"apb##3at#Eba#Q#0afaCbaadbb#Tbcbdaab##Zbe#Kbf#Q#P#Xbgba#Ebbabbhaabd#Ubibjbkba#Tbl",
"ab#Fbm#0as#9a.#L#XaKbdak#P#Q#R#Qaeaf#Gbnaz#Mak#L#Yai#M#O#0#O#0ab#Tbo#3#Hbpbqbrbs",
"#4#6bt#Hbu#9a.a##Ybkbv#O#P#4a##1#Qaq#7bnaz#Ma.#5#2bwaj#O#0#8am#K#1auaKbxbybzbAbB",
"abb##Gbc#O#9ad#L#Mbwajak#0bC#5ae#1aqaK#V#I#Yad#L#Y#Z#Ma.#0#O#0bDbEbFbGbHbIbJbKbL",
"bMbNbObPbQbRbSbTbUbVbRbWbP.TbXbYbQbZbOb0bQbYbSb1bYbVbMbWb0bSb2b3b4b5b6b7bKb8b9b9",
"c.c#atcab#c#cbcccdbn#ncecfcgchcicjck#Vclcmcncbcocpcq#ncr#ccsctcucvcwbKb8b9cxb9b9",
"#Eaf#G#H#I#9#Kblcy#N#Jak#PbC#Raeaeaf#Gbn#8#X#Kac#Ybw#9czcAcBbKcCcDb8b9cxcxcxcxb9",
"abb##7#0#8#9a.a##Y#Naaa.#Paba#ad#1af#7bncEaja.#5#YaiajcFcGcHcCcCb8cxcxcxcxcxcxcx",
"#Eb##G#H#O#9cI#L#M#Zaaa.#0#Ea#ae#1aq#G#V#I#McIac#YaH#McFcJcHcCbKb8b9b9cxcxcxcxcx",
"cKcL.ZcM.5cNcKcOcN.XbRcPcQcRcSbY.VcT.8cQ.5cUcVcOcW.1bMcXcYcZcCbLb8b8b9cxcxcxcxcx",
"c0#pc1c2c3#nc4#ec5c1c0c3c6c4c7c8c4#nc9d.bad#dadbc5dcc0dddedfcCbLb8bLb8b9b9cxcxcx",
"#Eaf#G#F#I#J#K#L#Y#N#J#K#PbCacae#T#U#G#V#W#X#Kac#2bw#JaddedgcCbLbLbLbLb9b9b9b9cx",
"#Eb##7#0#8#9a.ac#XaKaaak#Pabac#Qaeaf#7agcEbda.#5#2aidhdicYdjcCbKbLbLbLb8b8b9b9cx",
"#4#6#7#H#I#9a.ac#Y#Zaaak#0#4a#ae#1af#7#V#8aja.a##2aHdhcFcJdkcCcCbLbLbLbKbLb9b9cx",
"dldmdndodpdqdrdsdqawdtdu#NaBdvdwdxdmdnbwdydzdrdsdqaPdAdBdCdDcxcCbLbLbLbLbLb8b9b9",
"dEdFaUdGaWdHdIdHdJaUdKa9dLdIdMaSdIdGaUdNaWdJdIdHdJdIdKaWdOdPdQcCcCbLbLbLbLbLb8b9",
"abaf#G#H#Iaq#Kac#Y#N#JdR#PdSac#S#1af#Gatao#X#KacdTbw#J#O#0dUdVcwcDbKbLbLbLbLbLb8",
"#E#F#G#0#8#9a.#L#XaKbdak#PbCac#1aeaf#Gbnaz#XdWac#Yaibd#O#0abdXdYb8cCbKbLbLbLbLb8",
"ab#6#7#0#8#Xa.a##2bkaa#O#P#4ac#Q#Qaf#7bn#8aja.#5#2#Zaj#O#0#8bjdZd0cDcCbLbLbLb8b8",
"abb##Gbc#I#X#Q#L#M#Zaja.#0#Q#5ae#1bf#G#V#IaacI#L#Y#Z#Mak#0#K#0d1d2d3cDcCbLb8b8b8",
"d4d5.6b0bSbRd6bPbRd7bMbQbPd7bTd8d6bZ.6d9bSbUbSbTbUd7bZcVb0bQb0e.e#eabKcCcCb8b8b8",
"cbebatcabfckeccocdat#zbfedeeefcicjebateg#9cnehcoeibn#nejedbfcaekelemencDcCcCb8b8",
"#E#F#G#H#I#9#Kbl#X#N#J#O#PbC#Rae#Taf#Gbn#8#X#4#L#Ybw#9#O#0#Oam#Q#TeoepeqcDcCcCbL",
"abb##7#0az#9a.a##M#Nbvak#0abac#Qaeaf#7agah#Ma.#5#Yaiaj#O#0alam#K#T#Feresetb9cDeu",
"abb##G#H#I#XdSac#Yapaaak#0#Eacaeaeaq#G#V#I#McIac#2evajak#0#Oam#E#TauewexeyezeAeB",
"eCcPeD.ieE.WeFeG.WeH#beIeJeK.c.2eK##eL.geEeMeFeNeMeO.YePeJeE.ieQeK.deHeReSeTeUeV",
"eWeXeY#keZe0d#e0#reYe1e2e3#n#ld.#g#hc6e1eZe4c5e0#re5e1e2e3e5e6c6#le7e8#kdc#h#g#B",
"e9f.f#b1fafbfcfd.cfefffgfhfe.kfifjfkflfmfnfofpfqfrfsftfufvfwfxfyfzfAfBfCfcfffDfE",
"fFfGfHfIfJfKfLfMfNfOfPfQfRfSfTfUfVfWfXfYfZf0fLfYf1fOfPfQfRf2f3f4fVf5f6fTf7fPfLf3",
"f8f8f9f9f8g.g#gagbgcgdgeg#gfggghgigjgkglgmgngogpgqgrgpg#g#gsggghgigjgtgegggng#gu",
"f8f8f9f9f8gvgwgxgygzgAgBgwgCgDgEgFgGgHgIgJgKgJgLgMgzgNgwgwgOgPgQgFgGgRgGgDgNgSgF"};
