/* XPM */
static char *dummy[]={
"40 40 1021 2",
"mT c #3d372c",
"l# c #463f32",
"hy c #453f32",
"ds c #443e31",
"n6 c #28231a",
"jr c #423b30",
"fX c #413b30",
"l. c #6a6557",
"cV c #2c251b",
"nO c #322c20",
"fs c #2b2319",
"hx c #6a6456",
"ay c #332d21",
"h. c #2c251b",
"i2 c #2b2419",
"a1 c #3d372c",
"dr c #696455",
"kM c #2c251b",
"mw c #2b2419",
"k9 c #635d4f",
"hw c #645f50",
"dq c #666051",
"cU c #3f382c",
"mS c #585042",
"jq c #615a4c",
"fW c #625c4d",
"g9 c #3f382c",
"cT c #3d372c",
"g8 c #3e382c",
"kL c #3f382c",
"fr c #362e23",
"i1 c #362f24",
"kK c #3f392d",
"mv c #373024",
"jJ c #148100",
"j4 c #188600",
"iX c #197800",
"lK c #198500",
"jW c #1a8800",
"k2 c #1b8900",
"hR c #1d7a0a",
"kk c #1d8d00",
"ge c #1e7e0a",
"kj c #1e8e00",
"ml c #1f2918",
"kn c #1f3e1b",
"iA c #1f421c",
"jL c #1f451d",
"iZ c #1f471f",
"gy c #1f7f0a",
"gM c #1f810a",
"kE c #1f8f01",
"j3 c #1f9000",
"mm c #203b1c",
"k1 c #209101",
"jI c #209201",
"nY c #211e17",
"mr c #21411f",
"id c #214a21",
"kF c #218f01",
"kf c #219002",
"jl c #219400",
"n0 c #221e17",
"ib c #227609",
"fQ c #227910",
"gf c #227912",
"gw c #22880a",
"fN c #22890a",
"i. c #228d09",
"hu c #229303",
"n1 c #23201a",
"lm c #238908",
"ht c #238a09",
"is c #238f08",
"fO c #239109",
"gK c #239305",
"lL c #239401",
"gd c #239407",
"jk c #239503",
"nZ c #24201a",
"nP c #24211b",
"l0 c #24391f",
"l8 c #244b24",
"fP c #24870d",
"ir c #24880a",
"gc c #248c09",
"hP c #248d09",
"ff c #249009",
"lJ c #249201",
"it c #249406",
"gx c #249505",
"fg c #249508",
"ix c #249605",
"jH c #249703",
"hv c #254c25",
"fi c #25900a",
"eO c #259308",
"fh c #259507",
"gL c #259606",
"kA c #259804",
"iw c #259a04",
"n4 c #26221b",
"fH c #269400",
"fG c #269602",
"hI c #269700",
"hQ c #269905",
"n5 c #27231b",
"mn c #274b25",
"hT c #274c25",
"j6 c #274c28",
"gp c #279501",
"in c #279701",
"hl c #279a01",
"i# c #279c06",
"kD c #279e05",
"nW c #28241c",
"nX c #28241d",
"ls c #284f28",
"gv c #28950a",
"g5 c #289709",
"jj c #289809",
"h3 c #289902",
"iP c #289b02",
"h4 c #289c02",
"ia c #289c05",
"nQ c #29241d",
"k5 c #294e27",
"eP c #298f0d",
"hO c #29960a",
"g0 c #299703",
"iT c #29980a",
"ki c #299e06",
"iW c #2aa403",
"nF c #2b261c",
"nK c #2b261d",
"nS c #2b261e",
"nR c #2b271e",
"lF c #2b4024",
"lO c #2b4f2b",
"fj c #2b8d12",
"gJ c #2b9e09",
"jX c #2ba305",
"kg c #2ba405",
"mt c #2c251b",
"cK c #2c271e",
"n3 c #2c271f",
"ej c #2c8e13",
"ln c #2ca407",
"iu c #2ca408",
"iG c #2d271c",
"cO c #2d271e",
"nV c #2d2820",
"iV c #2da508",
"kB c #2da605",
"jA c #2da706",
"lo c #2da905",
"me c #2e271d",
"kv c #2e281f",
"nU c #2e2920",
"n2 c #2e2a21",
"g7 c #2e522e",
"g# c #2ea403",
"iU c #2ea609",
"iQ c #2ea706",
"gb c #2ea708",
"k0 c #2eac06",
"cs c #2f281d",
"gR c #2f291d",
"kx c #2f542f",
"jG c #2fa709",
"iv c #2fa809",
"e0 c #30291d",
"iD c #302a1d",
"nT c #302c22",
"fF c #309b12",
"jF c #30a908",
"j2 c #30ab08",
"mc c #312a1d",
"jE c #31ac09",
"j9 c #322c20",
"kX c #323628",
"jn c #325233",
"bY c #332c20",
"ao c #332c22",
"nA c #332d22",
"fk c #338523",
"f# c #33a809",
"hJ c #33af07",
"ei c #33b007",
"av c #342c22",
"gO c #345536",
"eK c #34ae09",
"i9 c #352f25",
"nf c #353024",
"cP c #353027",
"kz c #35931d",
"nt c #363025",
"cL c #363027",
"nr c #363125",
"cB c #363127",
"eg c #36b707",
"je c #36b809",
"aa c #372f22",
"ma c #373023",
"eD c #373024",
"bw c #373025",
"mD c #373026",
"gj c #373125",
"jQ c #373126",
"mG c #373127",
"gX c #373128",
"at c #373129",
"gS c #373228",
"gA c #37563a",
"gq c #37b406",
"eu c #383124",
"ig c #383125",
"cI c #383227",
"mN c #383228",
"ap c #383229",
"kw c #383329",
"gh c #38573b",
"lU c #393224",
"lW c #393225",
"fA c #393328",
"kq c #393329",
"e2 c #39332a",
"h7 c #39b70a",
"jB c #39b908",
"dZ c #3a3326",
"fq c #3a3327",
"cC c #3a3328",
"lv c #3a3426",
"i0 c #3a3427",
"an c #3a3428",
"aR c #3a3429",
"nL c #3a352a",
"fM c #3ac105",
"mu c #3b3427",
"gT c #3b3428",
"cH c #3b3429",
"fp c #3b3528",
"cJ c #3b3529",
"nG c #3b362b",
"io c #3bc009",
"ip c #3bc00b",
"jY c #3bc109",
"cE c #3c3529",
"gW c #3c352a",
"cg c #3c362a",
"ms c #3c362b",
"nB c #3c372b",
"jg c #3cc10a",
"hL c #3cc20a",
"fe c #3cca05",
"cM c #3d3529",
"cD c #3d3629",
"#7 c #3d362a",
"iF c #3d362b",
"ku c #3d372b",
"e5 c #3d392b",
"hm c #3dc209",
"h6 c #3dc30b",
"jf c #3dc50a",
"g2 c #3dc60b",
"gV c #3e362a",
"gU c #3e372a",
"#3 c #3e372b",
"#W c #3e372c",
"iM c #3e382b",
"aq c #3f372c",
"kr c #3f382b",
"au c #3f382c",
"cG c #3f382d",
"ar c #3f392c",
"ax c #3f392d",
"kQ c #3f392e",
"kW c #3f392f",
"aw c #3f3a2f",
"lj c #3f442f",
"jh c #3fc60a",
"lp c #3fc808",
"#H c #40382a",
"lS c #40382b",
"er c #40392b",
"e3 c #40392d",
"kt c #40392e",
"iJ c #403a2d",
"hd c #403a2f",
"ho c #40c70b",
"nN c #41392d",
"nC c #413a2d",
"nJ c #413a2e",
"nH c #413b2d",
"mh c #413b2e",
"iK c #413b2f",
"m1 c #413b30",
"dQ c #415a47",
"jz c #41ab1f",
"kh c #41c809",
"iR c #41c90b",
"hK c #41ca0a",
"jZ c #41cb0a",
"hp c #41d009",
"d9 c #423a2c",
"if c #423a2d",
"nE c #423a2e",
"eC c #423b2d",
"cQ c #423c2f",
"mi c #423c30",
"d. c #423c31",
"jb c #425745",
"kc c #425c43",
"kG c #427b38",
"lq c #428d2d",
"jC c #42d10a",
"j0 c #42d20a",
"hX c #433b2d",
"lz c #433b2e",
"nM c #433b2f",
"cN c #433c2f",
"cF c #433c30",
"iI c #433c31",
"iH c #433e32",
"mq c #436046",
"gG c #43ce0a",
"h5 c #43d30b",
"m# c #443c2e",
"mg c #443d31",
"mk c #443d32",
"cR c #443e31",
"mf c #444033",
"aH c #444037",
"g1 c #44d10a",
"eZ c #453e2e",
"nD c #453e2f",
"cS c #453e31",
"kI c #453f31",
"e4 c #453f32",
"mj c #454034",
"hn c #45d00c",
"h8 c #45d609",
"iC c #463e2f",
"mb c #463f2f",
"cr c #463f31",
"ks c #463f32",
"iE c #464032",
"kJ c #464033",
"eh c #46df03",
"## c #473f30",
"gQ c #473f31",
"cf c #474031",
"cm c #474032",
"iL c #474033",
"md c #474133",
"en c #475d47",
"fU c #475e46",
"am c #484034",
"#C c #484132",
"bT c #484133",
"as c #484134",
"al c #484234",
"bn c #484235",
"eQ c #489b2f",
"kC c #48dd09",
"bO c #494133",
"dU c #494136",
"nI c #494233",
"#w c #494234",
"e1 c #494335",
"bh c #494336",
"iz c #49634d",
"fR c #49943b",
"gr c #49da0c",
"ga c #49dc0c",
"fa c #49eb05",
"nn c #4a4133",
"eY c #4a4233",
"jT c #4a4234",
"lt c #4a4236",
"#o c #4a4335",
"f6 c #4a4337",
"iB c #4b4334",
"dD c #4b4337",
"ng c #4b4434",
"d2 c #4b4436",
"ns c #4b4534",
"nu c #4b4535",
"gH c #4be10a",
"jD c #4be309",
"j1 c #4be50a",
"fI c #4bea05",
"d8 c #4c4334",
"lg c #4c4438",
"mE c #4c4537",
"hB c #4c4538",
"fD c #4c634e",
"ik c #4c644f",
"hM c #4ce509",
"hW c #4d4435",
"lb c #4d4539",
"dR c #4d5742",
"f9 c #4d6651",
"eL c #4df105",
"ly c #4e4435",
"nm c #4e4535",
"nz c #4e4536",
"#V c #4e4637",
"mx c #4e4638",
"k8 c #4e483a",
"eq c #4e5744",
"eW c #4e6850",
"go c #4e6852",
"lI c #4ea134",
"ny c #4f4636",
"#2 c #4f4637",
"#6 c #4f4738",
"km c #4f6650",
"gE c #4f6953",
"lM c #4f893b",
"iS c #4ff307",
"c. c #504839",
"h1 c #504939",
"eX c #505140",
"ep c #505c48",
"gY c #506a54",
"k3 c #50853e",
"lx c #514738",
"bN c #514837",
"bS c #514838",
"cc c #514939",
"k# c #51493a",
"cn c #514b3d",
"ji c #51fc06",
"j8 c #524838",
"d7 c #524839",
"jS c #524938",
"a. c #524939",
"nj c #524a38",
"gC c #524a39",
"do c #524c3d",
"ch c #524c3e",
"b9 c #524d3e",
"fo c #526b56",
"kl c #527f47",
"im c #52ab35",
"gs c #52fa06",
"gI c #52fb05",
"lR c #534939",
"gP c #534a3a",
"ni c #534b39",
"ce c #534b3a",
"i8 c #534b3e",
"np c #534c39",
"eA c #534c3a",
"#5 c #534c3b",
"j. c #534c3e",
"#Y c #534d3b",
"gD c #534e3f",
"mK c #534f43",
"ea c #535f4a",
"eo c #53624b",
"de c #536853",
"g3 c #53fb06",
"eB c #544a3a",
"cl c #544b3a",
"c# c #544b3b",
"nl c #544c3a",
"cp c #544c3b",
"ey c #544d3b",
"i3 c #544d3e",
"fz c #544d3f",
"mJ c #544d40",
"gB c #544e40",
"hq c #54f806",
"iq c #54ff04",
"lY c #554b3a",
"m. c #554b3b",
"mU c #554c3a",
"#Z c #554c3b",
"ck c #554c3c",
"m2 c #554d3a",
"ko c #554d3b",
"fB c #554e3f",
"k. c #554f40",
"eb c #55644e",
"h9 c #55ff06",
"cd c #564d3c",
"aQ c #564f41",
"ih c #56513e",
"lX c #56523e",
"mI c #565245",
"eE c #56624f",
"mo c #566b56",
"#9 c #574d3e",
"cq c #574e3d",
"#S c #57503d",
"mA c #575042",
"mP c #575142",
"mB c #575245",
"mz c #575246",
"mO c #575346",
"l1 c #576e58",
"fb c #57ff05",
"hN c #57ff06",
"#U c #584e3d",
"lB c #584f3b",
"lE c #584f3c",
"kp c #584f3d",
"#n c #584f3e",
"nv c #58503b",
"hZ c #58503c",
"no c #58513c",
"ev c #58513d",
"aV c #585142",
"i5 c #585144",
"mL c #585345",
"dj c #586d59",
"g4 c #58ff05",
"eN c #58ff06",
"ew c #594f3d",
"#v c #594f3e",
"et c #59503c",
"nk c #59503d",
"nw c #59503e",
"nh c #59513c",
"dY c #59513d",
"hV c #59513e",
"aS c #595243",
"mM c #595244",
"jp c #595344",
".6 c #595346",
"nq c #5a503d",
"ie c #5a503e",
"lV c #5a503f",
"a# c #5a513e",
"#0 c #5a523e",
"es c #5a5240",
"nx c #5a5241",
"kP c #5a5244",
"bv c #5a5341",
"aI c #5a5343",
"mC c #5a5344",
"mF c #5a5345",
"#X c #5a5446",
".3 c #5a5447",
"#8 c #5a5545",
"jo c #5a5546",
"#4 c #5a5547",
"gt c #5aff05",
"eM c #5aff06",
"ci c #5b513e",
"#F c #5b523f",
"dX c #5b5241",
"ez c #5b533f",
"hG c #5b5341",
"jP c #5b5342",
"k7 c #5b5345",
"gi c #5b5441",
"hc c #5b5446",
"mR c #5b5447",
"ex c #5b5547",
".U c #5b5548",
"mH c #5b5648",
"dI c #5b634e",
"dJ c #5b715b",
"hr c #5bff04",
"fL c #5bff05",
"#T c #5c523f",
"dT c #5c5240",
"dB c #5c5241",
"#G c #5c533e",
"ca c #5c533f",
"dF c #5c5341",
"hU c #5c5342",
"gn c #5c5540",
"i7 c #5c5546",
"i6 c #5c564a",
"kV c #5c5749",
"ec c #5c6f59",
"kY c #5c6f5e",
"eV c #5c7560",
"hs c #5cff05",
"fd c #5cff06",
"d1 c #5d523f",
"#r c #5d533f",
"#z c #5d5340",
"la c #5d5341",
"dC c #5d5342",
"ka c #5d5440",
"li c #5d5442",
"lf c #5d5443",
"m7 c #5d5542",
"fw c #5d5547",
"c9 c #5d5647",
"my c #5d5749",
"dw c #5d574a",
"aC c #5d574e",
"fc c #5dff05",
"#m c #5e523f",
"ii c #5e5440",
"lQ c #5e5441",
"dG c #5e5443",
"bI c #5e5540",
"cb c #5e5541",
"dW c #5e5542",
"hA c #5e5544",
"co c #5e5642",
"l9 c #5e5643",
"hF c #5e5645",
"dn c #5e5647",
"e. c #5e5742",
"kR c #5e5747",
"fy c #5e5748",
"ak c #5e594d",
"jx c #5e735f",
"fJ c #5eff05",
"bP c #5f5540",
"lT c #5f5640",
"bV c #5f5641",
"kb c #5f5642",
"cj c #5f5643",
"hD c #5f5644",
"dA c #5f5645",
"lA c #5f5742",
"ne c #5f5746",
"aM c #5f5749",
"lD c #5f5843",
"fV c #5f5848",
"aX c #5f5849",
"dp c #5f594b",
"i4 c #5f594c",
"e# c #5f5a43",
"aN c #5f5a4c",
"ja c #5f5a4d",
"fC c #5f5b4e",
"dd c #5f5d4e",
"gu c #5fff06",
"lC c #605541",
"h0 c #605641",
"ld c #605645",
"lZ c #605743",
"ij c #605744",
"m0 c #605745",
"dV c #605844",
"aP c #60594a",
"j# c #60594c",
"he c #605a4a",
"fx c #605a4b",
"mQ c #605a4d",
"dk c #606051",
"df c #607660",
"jd c #60a747",
"f. c #60ac49",
"bW c #615741",
"hY c #615840",
"bJ c #615841",
"#1 c #615944",
"lu c #615945",
"aU c #615a4a",
"ha c #615a4c",
"aO c #615b4c",
"dc c #615b4d",
"fK c #61ff06",
"gm c #625842",
"#A c #625942",
"nd c #625946",
"j7 c #625b47",
"aZ c #625b4b",
"dl c #625b4d",
"c7 c #625c4d",
"fv c #625c4e",
"kU c #625c4f",
"#s c #635942",
"d5 c #635943",
"mX c #635a44",
"bu c #635b47",
"k6 c #635b4c",
"a0 c #635c4c",
"kN c #635e51",
".G c #64594c",
"m4 c #645a44",
"bM c #645a45",
"nb c #645b44",
"bR c #645b45",
"bU c #645b46",
"#l c #645b47",
"jO c #645c47",
"kO c #645c4c",
"hj c #645d4d",
"kS c #645d4e",
"aY c #645d4f",
"aL c #645e50",
"mY c #655b48",
"bH c #655c46",
"#u c #655c47",
"#B c #655c48",
"bg c #655d49",
"hb c #655d4d",
"aW c #655e50",
"#R c #655e52",
"hf c #655f50",
"hh c #655f51",
"h# c #656052",
"hi c #656053",
"mp c #657665",
"m9 c #665b48",
"#k c #665c47",
"#E c #665c48",
"gl c #665d47",
"d0 c #665d48",
"le c #665d49",
"f5 c #665d4a",
"dS c #665e4a",
".9 c #665f4c",
"#j c #665f53",
"ft c #666051",
"kH c #667565",
"l7 c #667666",
"lP c #675c47",
"jR c #675e47",
"dz c #675e4a",
"hz c #675e4b",
"#. c #675f4b",
"c8 c #675f4f",
"dm c #67604f",
"fu c #676052",
"gk c #67614d",
"bG c #67614e",
"d# c #676151",
"db c #676153",
"c6 c #676254",
"d6 c #685d48",
"lw c #685d49",
"bQ c #685e48",
"dH c #685e4a",
"#t c #685f48",
"#y c #685f49",
"#q c #685f4a",
"na c #68604a",
"n. c #68604d",
"m8 c #68614b",
"kT c #686153",
"aJ c #686253",
"k4 c #687769",
"bL c #695f49",
"hE c #695f4a",
"d4 c #69604a",
"m5 c #69604d",
"mZ c #69614e",
"m3 c #69624c",
"#D c #69624f",
"aT c #696253",
"aK c #696254",
"bq c #6a614a",
"bf c #6a614c",
"f4 c #6a614d",
"nc c #6a614e",
"mV c #6a624c",
".5 c #6a624e",
".1 c #6a624f",
"f8 c #6a634d",
"m6 c #6a634f",
"hg c #6a6354",
"iN c #6a7d6c",
"bc c #6b614b",
"bK c #6b614c",
"f0 c #6b624b",
"bX c #6b624c",
"ju c #6b624d",
".S c #6b624f",
"dy c #6b634c",
"n# c #6b634f",
".Z c #6c634c",
"mW c #6c644f",
"du c #6c6451",
"bs c #6c6551",
"da c #6c6556",
".g c #6c6960",
"e6 c #6c7e6e",
"bb c #6d644e",
"bt c #6d654f",
"jN c #6d6550",
"jM c #6d6552",
"fY c #6d6752",
"lr c #6d7a6e",
"bp c #6e644e",
"js c #6e654f",
"ba c #6e6752",
"bi c #6e6852",
"jv c #6e6853",
"bl c #6f6652",
"bo c #6f6853",
"be c #706752",
"jw c #706755",
"bj c #706851",
"f2 c #706853",
"f1 c #706856",
"dE c #706952",
"hC c #706953",
"d3 c #706b58",
".X c #716852",
"jt c #716853",
"bd c #716856",
"bk c #716857",
"f7 c #716952",
"fZ c #716953",
"br c #716957",
"lc c #716a53",
"lh c #716a54",
".8 c #716a55",
"#p c #716b58",
"#x c #716b59",
"dx c #726a53",
"f3 c #726a54",
".Y c #726a55",
".2 c #726c59",
"b8 c #726e63",
"bm c #736b55",
".R c #736b56",
".T c #736c59",
".0 c #746c57",
".Q c #746c58",
"dv c #746d5a",
"dt c #756d59",
"cA c #777469",
"bF c #787468",
"lN c #788075",
"#Q c #797367",
"dg c #7b8c79",
".W c #7d7560",
"iY c #7d7679",
".P c #7d786d",
"b# c #7d7a6e",
".l c #7f7163",
"lk c #7f857c",
"az c #807c72",
"fl c #80b675",
"aG c #817f74",
"iy c #818f77",
".B c #827163",
".u c #827263",
"ad c #827d70",
"e9 c #82b973",
"aB c #847e73",
"#i c #847f73",
"jm c #848778",
"ic c #859987",
"ae c #868173",
"aD c #87857b",
"di c #879885",
"aA c #888377",
"lG c #888f88",
"af c #898376",
"j5 c #89837f",
"ag c #898477",
"ah c #898478",
"ac c #8a8376",
"b2 c #8a867a",
"aj c #8a867b",
"l6 c #8a8f88",
"ab c #8b867a",
"#P c #8c877b",
"#O c #8c887a",
"aF c #8c8a80",
"eF c #8c968c",
"b7 c #8d887c",
".7 c #8d8978",
"#h c #8d897c",
"c0 c #8d8c81",
"em c #8d9d8d",
"b0 c #8e8a7e",
"dh c #8e9d8b",
".i c #918574",
".E c #91897a",
".j c #91897b",
"aE c #918e84",
"jU c #919891",
".q c #928777",
"bA c #928e80",
".A c #938675",
".t c #938a7b",
"#g c #938e80",
"ai c #938e82",
".V c #93907d",
"b1 c #939083",
"cy c #939084",
".k c #948675",
".z c #948b7b",
"bZ c #948e81",
".4 c #94917e",
".F c #958675",
"a5 c #958f83",
"by c #959082",
"a6 c #959287",
".w c #968d7e",
".o c #968d7f",
".h c #968f81",
"c5 c #969384",
"bz c #979486",
"bB c #979488",
"b3 c #97948a",
"jc c #979b97",
"ll c #979c8f",
"ke c #97bb89",
"b6 c #989384",
"jK c #997f97",
".s c #998774",
".r c #999081",
".y c #999082",
"cx c #999488",
"bD c #999586",
"#L c #999587",
".D c #9a8a7a",
".b c #9a9b93",
"#K c #9b9587",
"#N c #9b9688",
"a4 c #9b9689",
"b5 c #9b9888",
"b. c #9b988b",
".d c #9b9b92",
"a3 c #9c988a",
"Qt c #9c9d96",
".N c #9d9a8f",
"l2 c #9d9a99",
".f c #9d9e95",
"e8 c #9dbd97",
"bx c #9e9b8c",
"cz c #9e9c91",
"l4 c #9f9997",
".e c #9fa097",
"ed c #9faba0",
".C c #a0998c",
"#J c #a09b8c",
"#f c #a09c8d",
".O c #a09e93",
"cv c #a09f95",
".n c #a29381",
"a2 c #a29e90",
".# c #a2a39b",
".v c #a39481",
"ct c #a3a298",
"fT c #a49ea3",
"a9 c #a4a194",
".c c #a4a59d",
".p c #a59586",
".x c #a59686",
".a c #a5a69f",
"cu c #a6a59b",
"jy c #a6a5a3",
".m c #a79e8e",
"ky c #a79fa2",
"#e c #a7a494",
"bE c #a7a495",
"#c c #a7a497",
"a8 c #a8a698",
"#b c #a9a597",
"l5 c #aaa3a3",
"#d c #aaa797",
"cw c #aaa89d",
".M c #aaa89f",
"il c #aaaaa8",
"#M c #aba99a",
"cZ c #abaa9c",
"iO c #acaca9",
"kZ c #ada6a6",
"kd c #ada9a9",
".L c #adaba0",
"dP c #adb8ac",
"cX c #aeada0",
"jV c #afafa9",
"#I c #b0aea1",
"#a c #b2b0a2",
"cY c #b2b2a5",
"l3 c #b3aaae",
"b4 c #b3b0a2",
".K c #b3b1a7",
"bC c #b3b2a3",
"lH c #b4abaf",
"c3 c #b6b5a9",
"c4 c #b6b6aa",
".J c #b7b7ae",
"cW c #b7b8ad",
".I c #b9b8af",
"c2 c #b9baad",
"eR c #b9f39f",
"a7 c #babaaf",
"c1 c #bdbfb2",
".H c #c0c1ba",
"fn c #c6d1c8",
"hS c #c7d0c5",
"ef c #c8d9bf",
"eJ c #ccd0c9",
"fS c #cce0c9",
"gN c #cfd9d0",
"g6 c #d0dbcf",
"eG c #d1d5d3",
"eU c #d3d9d5",
"ek c #d3e7ce",
"dN c #d4e8d1",
"hH c #d6e2d7",
"dM c #d9e2db",
"e7 c #dce2dc",
"gz c #dce3dc",
"h2 c #dee4e0",
"gg c #e1e7e1",
"fE c #e3eae3",
"hk c #e4eee5",
"gF c #e4efe3",
"gZ c #e5eee4",
"dK c #e8ebe9",
"g. c #e8f0e7",
"fm c #f1f6ef",
"dL c #f9ecf7",
"el c #f9f9f9",
"ee c #faf8fa",
"eT c #fbfbfb",
"eS c #fcfffc",
"eI c #fefcff",
"dO c #fff2fc",
"eH c #ffffff",
"Qt.#.#.a.b.c.d.e.f.g.h.i.j.k.l.m.n.o.p.q.r.s.t.k.u.m.v.w.x.q.y.s.z.A.B.C.D.E.F.G",
".H.I.J.K.L.L.M.N.O.P.Q.R.S.T.U.V.W.X.Y.Z.Q.0.1.2.3.4.W.X.Y.Z.Q.Q.5.2.6.7.8.9#.##",
"#a#b#c#d#e#f#g#h#i#j#k#l#m#n#o#p#q#r#s#t#k#u#m#v#w#x#y#z#A#t#u#B#m#v#C#D#E#F#G#H",
"#I#J#K#L#M#N#O#P#Q#R#S#T#U#V#W#X#Y#Z#0#1#S#T#U#2#3#4#5#Z#0#1#S#T#U#6#7#8#9a.a#aa",
"abacadaeafagahaiajakalam#3anaoapaqar#Wasalam#3anaoatauauaqasasam#3anavawaxau#7ay",
"azajaAaBaCaDaEaFaGaHaIaJaKaLaMaNaOaPaQaRaSaJaTaLaMaNaOaUaQaRaVaJaTaWaXaYaZa0aOa1",
"a2a3a4a5a6a7a8a9b.b#ba.Xbbbcbdbe.Ybfbgbhbibjbbbcbkblbmbfbgbnbobjbpbqbrbsbtbubvbw",
"bxbybzbAbBbCbDbEa3bFbGbHbIbJbKbLbM#rbNbObGbHbPbJbKbQbR#rbSbTbGbUbVbWbXbQbR#rbSbY",
"bZb0b1b2b3b4b5b6b7b8b9c.c#cacbcccdcecfcgchc.c#cicjccckclcmcgcnc.c##Tcocpcqa.crcs",
"ctcuctcvctcwcxcyczcAcBcCcDcEcFcGcHcIcJcKcLcCcDcMcNcGcHcIcJcOcPcCcDcMcQcRcScTcUcV",
"cWcXcYcZc0c1c2c3c4c5c6c7c8c9d.aZd#dadbdcc6dddedfdgdhdidjdkdcc6dldmdnd.dodpdqdrds",
"dt.0dudvdw.V.Wdx.RdydzdAdBdCdDdEdFdG#ldHdIdJdKdLdMdNdOdPdQdRdSdAdTdCdUdVdWdXdYdZ",
"d0#ld1#vd2d3d4d1d5#td6#zd7d8d9e.e#eaebecedeeefegeheiejekelemeneoepeqeresbP#zeteu",
"ev#zew#VcGexey#Zez#1eA#veBeCeDeEeFeGeHeIeJeKeLeMeNeheOePeQeReSeTeUeVeWeXcceYeZe0",
"e1as#3cJaoe2aue3au#we4cDcJe5e6e7e8e9f.f#fafbfceMfdfefffgfhfifjfkflfmfnfofpfqfrfs",
"aSftfufvfwdwfxfyfzfAfBfvfCfDfEfFfGfHfIeNfcfJfKfKfLfMfNfNfOfgfgfPfQfRfSfTfUfVfWfX",
"fYfZbbf0f1f2f3f4f5f6bif7f8f9g.fGg#gafJfKfcfKfKfKfcgbfNfNgcfgfgfggdgegfggghgibvgj",
"gkglbIgmbKbLbMd1bS#wbGglgngog.gpgqgrgsgtfKfKfKfKgugvfNfNgwgcgxgxgxgxgygzgA#rbSbY",
"gBcc#Z#rdWgCcqclcrcggDcccpgEgFfGgGgrgHgIgufJfKfKgugJfNfNfNfNgKgxgxgLgMgNgOgPgQgR",
"gSgTgUgVcRaxgWcIcgcOgXcHgUgYgZg0g1grg2g3g4fJfKfKgug5fNfNgwfNgKgxgxgxgMg6g7g8g9h.",
"h#hahbhchdhehfhghhdphihahjgYhkhlhmhnhohphqg4hrhsfceOfNfNfNhthugxgxgxgeg6hvhwhxhy",
"hzhAdFdChBhCdFhD#BhEdzhFhGgEhHhIhJhnhKhLhMg3hNhrfchOfNfNfNhPhQgxgxgxhRhShThUhVdZ",
"d6#zbShWhXe.hYhZh0bcd6#zh1goh2h3h4h5hKh6h7h8h9g4fchOgwfNi.gLi#iagxgxibicid#zeteu",
"eyieeBifigiheAc#iiijey#veBikiliminiohKhKhLiphMiqiqhOirisitiuiviviwixiyiziAiBiCiD",
"iEgUiF#3iGiHiIiJiKiLiEgU#7iMiNiOiPiQiRhKhoipipiSiqiTirgciUiViviViWiXiYiZgTi0i1i2",
"i3i4i4i4i5i6exi7i8i9j.j#i4jajbjcjdfHjejfhKjgjhjhjijjfNivivivivjkjljmjnjojpfVjqjr",
"badxjsbXbdjt.Yjuf5f6jvfZjsf0jwjxjyjzjAjBhKhKhKjCjDjEivjFivjGjHjIjJjKjLjMjNjOjPjQ",
"gkjRbIgmbKbLbMd1jSjTgkglbPbJjubLjUjVjWjXjYjZj0j1j1j2ivjFjGiaj3j4j5j6j7bQbR#rj8j9",
"k.k##Zkakbcecq#Zcf#7gBk##Z#rkbcekckdkekfkgkhj1j1j1jFivivkikjkkklkmknkbkokpclcmgR",
"kqcEkrkrkskt#7fAkukvkwcEkrkrksktcHkxkykzkAkBkCj1jDjFivkDkEkFkGkHiZ#7kIkJcmkKkLkM",
"kNdpkOkPkQkRkSkTkUkVkNdpkOkPkWc9kSkXkYkZjWjXk0kCjDiviak1k2k3k4k5k6k7hdk8.Uk9l.l#",
"hzhAladClblchUldlehEdzhAlalflglhlildljlklllmlnlolpjIkEkjlqlrlshAladGltlucjhUhVlv",
"lw#zlxlylzlAhYlBlCbcd6lad7hWiflDhYlEiilFlGlHlIlJlKlLk2lMlNlOlPlQlRhWlSeslT#zetlU",
"kolVeBiflWlXcpcpcbdVkoielYeCeuihcpcpiilZl0l1l2l3l4l5l6l7l8l9ko#vm.m#madok#iBmbmc",
"mdkr#Waumemfmgmhmialmdkr#WariGmjmkmhmialcrmlmmmnmompmqmrmsasbTlS#3axmtmugVgTmvmw",
"mxjpmymzmAmB#XmCmAmDmEjpmymzmAmB#XmFmAmGd2mCmHmImJmKmLmMmAmN#omFkVmOmPmQmRi7mSmT",
"mUmVmWmXmYmZ.5lim0m1m2m3mWm4mYm5m6m7m0m1m2m8btm4m9n.n#m7m0m1m2nabtnbm9ncn#ndnenf",
"ngnhninjnkewnlnmnngjngnonpnjnqkpmUnmeYnrnsnonpnjnqkp#ZnmeYntnunvnljSnqnwnxnynznA",
"nBnCnCnD#CarnEaufAnFnGnCnHnDnIarnJaufAnKnGnCmhnDnIarnCarfAnKnLiJmhnDnIiJnMnN#WnO",
"nPnQnRnSnTnUnVnWnXnYnZnQnRnSnTnUnVnXnXn0nZnQnRnSnTnUnVnXnXn0n1nQnSnSnTn2n3n4n5n6"};
