/* XPM */
static char *dummy[]={
"40 40 154 2",
"#v c #000000",
"#z c #010101",
"#C c #030303",
"#P c #060605",
"#u c #080807",
"#J c #080808",
"#U c #0a0a09",
"#N c #0e0e0d",
"#y c #10100f",
"#E c #11100e",
"#S c #151514",
"#L c #1b1b19",
"#O c #1c1c17",
"#R c #20201c",
"#t c #22211b",
"#X c #24231d",
"#G c #272724",
"#p c #282620",
"aq c #2b2922",
"#s c #2d2d2b",
"#Z c #2e2e2c",
"ab c #2f2f2a",
"au c #302e28",
"#7 c #31312f",
"av c #323129",
"#l c #333028",
"#H c #34332d",
".M c #353229",
"at c #35332c",
"#r c #353532",
".H c #36332b",
"#B c #363634",
"ak c #37352d",
"#6 c #38352c",
".d c #38352d",
"Qt c #39362d",
"#M c #393732",
"#Q c #3b3934",
"ax c #3b3a34",
".c c #3e3c32",
"#q c #3e3d39",
"aj c #3e3d3a",
".e c #3f3c33",
"#D c #403f36",
"#k c #424036",
".i c #424037",
"ai c #424039",
"#W c #42413b",
"ar c #43423a",
"## c #444238",
".a c #444239",
"#Y c #444442",
".# c #45423a",
".y c #46423c",
"as c #46453b",
"aw c #46453d",
"ap c #464642",
".A c #47443c",
".D c #47443e",
".b c #49483b",
".2 c #49483f",
"#. c #4a4740",
".0 c #4a4840",
".z c #4c4a41",
"#e c #4c4b44",
"#5 c #4d4b43",
"ao c #4d4b46",
".U c #4e4d43",
"#A c #4f4c45",
".m c #4f4d46",
"an c #4f4d48",
"#w c #504e46",
".n c #504e47",
".E c #514f48",
".j c #525047",
".f c #525048",
"#3 c #52504a",
"aa c #545247",
".s c #54524b",
".P c #55544d",
".V c #56554b",
".Q c #56554e",
"#j c #575649",
"#c c #57564b",
".B c #58574f",
".q c #595750",
"#i c #595850",
".v c #5a5852",
"al c #5a5953",
".3 c #5b5a51",
".T c #5c5c53",
".g c #5d5b54",
"#I c #5d5c59",
"#2 c #5e5c55",
"#F c #5e5d58",
"#x c #5e5d5b",
"#V c #5e5e57",
"ah c #5f5d57",
".L c #615f5a",
"#K c #615f5b",
"#8 c #616057",
"#d c #61605b",
"ac c #64635d",
"am c #65635a",
"#a c #65635b",
"#g c #65645a",
"ag c #656560",
".1 c #66645c",
".C c #67665e",
"af c #676763",
".w c #68665e",
".J c #68665f",
".F c #696860",
".r c #6a6863",
"#o c #6a6964",
".8 c #6b6a66",
"#m c #6c6a63",
".9 c #6c6b67",
"#0 c #6d6b66",
".7 c #6d6d69",
"#h c #6e6d65",
"#9 c #6e6d66",
"#b c #6f6d63",
"#f c #6f6e66",
".x c #706f65",
".G c #706f67",
".t c #716f68",
".W c #717069",
".I c #71706a",
"#n c #75746c",
"a# c #777671",
".h c #787672",
"a. c #797872",
".X c #7a7a74",
"ae c #7a7a77",
".p c #7b7973",
".o c #7b7a72",
".6 c #7b7a75",
".N c #7b7a76",
"#4 c #7c7b75",
".Z c #7c7b76",
".u c #7e7d76",
".R c #7e7d77",
"#T c #80807a",
"#1 c #80807c",
".O c #82827e",
".S c #85847f",
"ad c #878681",
".4 c #898883",
".5 c #8c8b86",
".l c #8d8c89",
".k c #90908c",
".Y c #959593",
".K c #969693",
"Qt.#.a.b.c.d.e.f.g.hQt.#.a.b.c.d.e.f.g.hQt.#.a.b.c.d.e.f.g.hQt.#.a.b.c.d.e.f.g.h",
".i.j.k.l.m.n.o.p.q.r.i.j.k.l.m.n.o.p.q.r.i.j.k.l.m.n.o.p.q.r.i.j.k.l.m.n.o.p.q.r",
".s.t.u.v.e.j.w.x.y.z.s.t.u.v.e.j.w.x.y.z.s.t.u.v.e.j.w.x.y.z.s.t.u.v.e.j.w.x.y.z",
".A.B.C.D.E.F.n.GQt.a.A.B.C.D.E.F.n.GQt.a.A.B.C.D.E.F.n.GQt.a.A.B.C.D.E.F.n.GQt.a",
".H.I.F.v.J.v.r.K.L.M.H.I.F.v.J.v.r.K.L.M.H.I.F.v.J.v.r.K.L.M.H.I.F.v.J.v.r.K.L.M",
".N.O.q.P.Q.i.R.S.s.y.N.O.q.P.Q.i.R.S.s.y.N.O.q.P.Q.i.R.S.s.y.N.O.q.P.Q.i.R.S.s.y",
".T.U.V.W.X.Y.Z.z.0.1.T.U.V.W.X.Y.Z.z.0.1.T.U.V.W.X.Y.Z.z.0.1.T.U.V.W.X.Y.Z.z.0.1",
".2.3.4.5.6.7.8.a.9#..2.3.4.5.6.7.8.a.9#..2.3.4.5.6.7.8.a.9#..2.3.4.5.6.7.8.a.9#.",
"###a.W#b#c#d#e#d#f#g###a.W#b#c#d#e#d#f#g###a.W#b#c#d#e#d#f#g###a.W#b#c#d#e#d#f#g",
".i#h#i#j#k.##l#m#n#o.i#h#i#j#k.##l#m#n#o.i#h#i#j#k.##l#m#n#o.i#h#i#j#k.##p#q#r#s",
"Qt.#.a.b.c.d.e.f.g.hQt.#.a.b.c.d.e.f.g.hQt.#.a.b.c.d.e.f.g.hQt.#.a###t#u#v#v#v#v",
".i.j.k.l.m.n.o.p.q.r.i.j.k.l.m.n.o.p.q.r.i.j.k.l.m.n.o.p.q.r.i#w#x#y#z#v#v#v#v#v",
".s.t.u.v.e.j.w.x.y.z.s.t.u.v.e.j.w.x.y.z.s.t.u.v.e.j.w.x.y.z#A#B#C#v#v#v#v#v#v#v",
".A.B.C.D.E.F.n.GQt.a.A.B.C.D.E.F.n.GQt.a.A.B.C.D.E.F.n.GQt#D#E#v#v#v#v#v#v#v#v#v",
".H.I.F.v.J.v.r.K.L.M.H.I.F.v.J.v.r.K.L.M.H.I.F.v.J.v.r.K#F#E#v#v#v#v#v#v#v#v#v#v",
".N.O.q.P.Q.i.R.S.s.y.N.O.q.P.Q.i.R.S.s.y.N.O.q.P.Q.i.R.S#G#v#v#v#v#v#v#v#v#v#v#v",
".T.U.V.W.X.Y.Z.z.0.1.T.U.V.W.X.Y.Z.z.0.1.T.U.V.W.X.Y.Z#H#z#v#v#v#v#v#v#v#v#v#v#v",
".2.3.4.5.6.7.8.a.9#..2.3.4.5.6.7.8.a.9#..2.3.4.5.6.7#I#J#v#v#v#v#v#v#v#v#v#v#v#v",
"###a.W#b#c#d#e#d#f#g###a.W#b#c#d#e#d#f#g###a.W#b#c#K#L#v#v#v#v#v#v#v#v#v#v#v#v#v",
".i#h#i#j#k.##l#m#n#o.i#h#i#j#k.##l#m#n#o.i#h#i#j#k#M#v#v#v#v#v#v#v#v#v#v#v#v#v#v",
"Qt.#.a.b.c.d.e.f.g.hQt.#.a.b.c.d.e.f.g.hQt.#.a.b.c#N#v#v#v#v#v#v#v#v#v#v#v#v#v#v",
".i.j.k.l.m.n.o.p.q.r.i.j.k.l.m.n.o.p.q.r.i.j.k.l.y#v#v#v#v#v#v#v#v#v#v#v#v#v#v#v",
".s.t.u.v.e.j.w.x.y.z.s.t.u.v.e.j.w.x.y.z.s.t.u.v#O#v#v#v#v#v#v#v#v#v#v#v#v#v#v#v",
".A.B.C.D.E.F.n.GQt.a.A.B.C.D.E.F.n.GQt.a.A.B.C.y#P#v#v#v#v#v#v#v#v#v#v#v#v#v#v#v",
".H.I.F.v.J.v.r.K.L.M.H.I.F.v.J.v.r.K.L.M.H.I.F#Q#z#v#v#v#v#v#v#v#v#v#v#v#v#v#v#v",
".N.O.q.P.Q.i.R.S.s.y.N.O.q.P.Q.i.R.S.s.y.N.O.q#R#v#v#v#v#v#v#v#v#v#v#v#v#v#v#v#v",
".T.U.V.W.X.Y.Z.z.0.1.T.U.V.W.X.Y.Z.z.0.1.T.U.V#S#v#v#v#v#v#v#v#v#v#v#v#v#v#v#v#v",
".2.3.4.5.6.7.8.a.9#..2.3.4.5.6.7.8.a.9#..2.3#T#U#v#v#v#v#v#v#v#v#v#v#v#v#v#v#v#v",
"###a.W#b#c#d#e#d#f#g###a.W#b#c#d#e#d#f#g###a#V#z#v#v#v#v#v#v#v#v#v#v#v#v#v#v#v#v",
".i#h#i#j#k.##l#m#n#o.i#h#i#j#k.##l#m#n#o.i#h#W#v#v#v#v#v#v#v#v#v#v#v#v#v#v#v#v#v",
"Qt.#.a.b.c.d.e.f.g.hQt.#.a.b.c.d.e.f.g.hQt.##X#v#v#v#v#v#v#v#v#v#v#v#v#v#v#v#v#v",
".i.j.k.l.m.n.o.p.q.r.i.j.k.l.m.n.o.p.q.r.i.j#Y#z#v#v#v#v#v#v#v#v#v#v#v#v#v#v#v#v",
".s.t.u.v.e.j.w.x.y.z.s.t.u.v.e.j.w.x.y.z.s.t#B#v#v#v#v#v#v#v#v#v#v#v#v#v#v#v#v#v",
".A.B.C.D.E.F.n.GQt.a.A.B.C.D.E.F.n.GQt.a.A.B#G#v#v#v#v#v#v#v#v#v#v#v#v#v#v#v#v#v",
".H.I.F.v.J.v.r.K.L.M.H.I.F.v.J.v.r.K.L.M.H.I#Z#v#v#v#v#v#v#v#v#v#v#v#v#v#v#v#v#v",
"#0#1#2#3.P.i#4#1#5#6#0#1#2#3.P.i#4#1#5#6#0#1#7#v#v#v#v#v#v#v#v#v#v#v#v#v#v#v#v#v",
"#i#8#9a..I.la#.n#Daa#i#8#9a..I.la#.n#Daa#i#8ab#z#v#v#v#v#v#v#v#v#v#v#v#v#v#v#v#v",
"#D#Vacadaeafag.Aahai#D#Vacadaeafag.Aahai#D#Vaj#v#v#v#v#v#v#v#v#v#v#v#v#v#v#v#v#v",
"ak#oalam.Qan#Wao.E.zak#oalam.Qan#Wao.E.zak#oap#v#v#v#v#v#v#v#v#v#v#v#v#v#v#v#v#v",
"aq#3arasatau#pavawaiaq#3arasatau#pavawaiaq#3ax#z#v#v#v#v#v#v#v#v#v#v#v#v#v#v#v#v"};
