/* XPM */
static char *dummy[]={
"40 40 540 2",
"#I c #00a15e",
"cr c #06a15e",
"#v c #13a15f",
"fn c #201e39",
"e9 c #22203b",
"eW c #231c34",
"eM c #24223e",
"eB c #272641",
"fG c #282530",
"em c #282641",
"gk c #29263f",
"fW c #292843",
"fu c #2a2842",
"f5 c #2b2944",
"gr c #2e2b35",
"gb c #2e2c44",
"eb c #312f48",
"c9 c #32a15f",
"dB c #32a579",
"do c #32a679",
".G c #32a67a",
"d. c #33a579",
"bf c #34a579",
"fg c #36344a",
"cN c #36a579",
"cd c #36a679",
"d5 c #38354c",
"bZ c #3ba579",
"dW c #3c394e",
"dE c #3d3a4f",
".F c #3fa578",
".Z c #40a577",
"bH c #40a578",
"#9 c #41a578",
"#d c #41a678",
"be c #43a578",
"fe c #46a578",
"gq c #484559",
"fc c #4da576",
"eV c #4f4b5d",
"fF c #525060",
"gz c #549e58",
"c8 c #56a371",
"g# c #56a472",
"cW c #585260",
"dc c #585465",
"c7 c #58a572",
"ch c #5b4a49",
"dr c #64544d",
"gp c #666571",
"fP c #666671",
"gj c #676671",
"dU c #67a996",
"bI c #67aa97",
"cw c #685649",
"cV c #6a626c",
"fV c #6a6973",
"g. c #6da05f",
"f4 c #6f6e77",
"ez c #6fa268",
"f9 c #72a267",
"f3 c #739959",
"go c #74a46d",
"b2 c #756458",
"ey c #759d59",
"fD c #759d63",
"ga c #76777d",
"fd c #76a78b",
"fN c #789d60",
"e8 c #797c77",
"d# c #797ea6",
"eU c #797f8a",
"fU c #799f5e",
"ff c #7b8285",
"al c #7c9451",
"ex c #7ca25f",
"fs c #7d9751",
"bX c #7d9a55",
"ft c #818884",
"fl c #839c56",
"bY c #839f5a",
"bW c #85a057",
"ak c #869855",
"eK c #87964b",
"cx c #886d45",
"eL c #888694",
"eT c #88964d",
"am c #889c64",
"gi c #898a8e",
"e6 c #89974e",
"gg c #8aa375",
"aB c #8b7b19",
"eD c #8b7c14",
"c. c #8b7c16",
"b7 c #8c7e17",
"fb c #8c9c55",
"b6 c #8e7f17",
"el c #8e913f",
"eC c #8f7e1c",
"fh c #8f8117",
"b9 c #908116",
"de c #91821a",
"ay c #918415",
".Y c #928123",
"e# c #929443",
"dt c #938417",
"df c #938615",
"d3 c #939443",
"eN c #948615",
"d6 c #948618",
"eg c #958817",
"fB c #959743",
"fm c #959886",
"b5 c #96832a",
"ck c #96871c",
"eY c #968a17",
"fC c #969a3d",
"f8 c #96a35e",
"dZ c #978527",
"cF c #97871f",
"fH c #978821",
"fo c #978a16",
"eE c #978a1a",
"dK c #978a1c",
".D c #978b36",
"b1 c #978e8a",
"cZ c #98672c",
"f. c #986e2e",
"cy c #98753f",
"gn c #988a19",
".V c #988c16",
".C c #988e38",
"dA c #989037",
"cv c #989293",
".B c #998627",
"gy c #99891a",
"aA c #998c18",
"fT c #998d16",
"fQ c #998d17",
"er c #998d19",
"dn c #999039",
"dT c #99994c",
"dY c #9a862a",
"gf c #9a8d16",
"dg c #9a8d1a",
"ej c #9a8f16",
"gs c #9a9019",
"bQ c #9b4022",
"bN c #9b4023",
"aG c #9b8925",
"b8 c #9b8e1d",
"d7 c #9b8f16",
"f1 c #9b9017",
"dX c #9c8535",
".7 c #9c892b",
"#3 c #9c892c",
"aR c #9c8c21",
".X c #9c8f18",
"d0 c #9c9019",
"ep c #9d4a28",
"#8 c #9d892b",
"bA c #9d892c",
"c1 c #9d8f1d",
"fw c #9d9119",
"dS c #9d9739",
"eo c #9e4b2b",
"c0 c #9e7334",
"f# c #9e8132",
"#n c #9e8c28",
"bq c #9e8c29",
"bG c #9e8d25",
"cc c #9e8d30",
"cK c #9e901f",
"bE c #9e9217",
"dy c #9e9314",
"dR c #9e983b",
"#c c #9f8a2e",
"cJ c #9f8e24",
"cq c #9f8e30",
"a9 c #9f8f24",
"f2 c #9f9119",
"fz c #9f911a",
"e. c #9f9317",
"#C c #9f9515",
"b0 c #9f968f",
"dI c #a0210e",
"bP c #a04324",
"cY c #a06e3d",
"#u c #a08c2b",
"bS c #a08d2a",
"ad c #a08e26",
"aX c #a08e2c",
".w c #a08f25",
"f7 c #a0921b",
"ei c #a0921c",
"e4 c #a09224",
"fM c #a09317",
"fr c #a09318",
"bD c #a0931b",
"#F c #a09514",
"ca c #a09516",
"ci c #a17426",
"a2 c #a18e27",
"#H c #a18e2a",
"#Y c #a18e2e",
"bd c #a18f29",
"f0 c #a1931e",
"a4 c #a19331",
"eS c #a19418",
"e2 c #a19419",
"c6 c #a1943c",
"aP c #a19516",
"eJ c #a19517",
"az c #a1951d",
"c# c #a1951e",
"gc c #a19615",
"dm c #a19617",
"fI c #a19618",
"b. c #a19715",
"ew c #a19948",
"fv c #a27037",
".E c #a2904d",
"cM c #a29131",
"#R c #a29227",
"cL c #a2931f",
"#A c #a29324",
"aQ c #a29617",
"#t c #a29618",
"dx c #a2961b",
"fi c #a2961c",
"gl c #a29716",
"av c #a29717",
"et c #a29718",
"bn c #a29719",
".y c #a29816",
"fy c #a29817",
"fA c #a29940",
"bM c #a3452a",
"aj c #a38f2d",
"e5 c #a39420",
".Q c #a39424",
"bF c #a39619",
"co c #a3961c",
".R c #a39717",
"bU c #a39718",
".S c #a39719",
"fa c #a3971a",
"aJ c #a39815",
"#r c #a39817",
"#7 c #a39818",
"gw c #a39918",
"dq c #a3a4a0",
"gh c #a3a8a3",
"bO c #a44124",
"dQ c #a49033",
"ek c #a49619",
"cl c #a49718",
"ev c #a4971a",
"cm c #a4971d",
"f6 c #a49818",
"aO c #a4981a",
"aM c #a49916",
"d2 c #a49917",
"at c #a49918",
"bT c #a49919",
"eF c #a4991b",
"dw c #a49a16",
"e0 c #a49a17",
"cn c #a49a18",
"dN c #a49a19",
"cz c #a57b39",
"e3 c #a5922b",
"a5 c #a59536",
"as c #a59625",
"dz c #a59819",
"#S c #a59918",
"#o c #a59919",
"dP c #a5991a",
"dv c #a59a16",
"eQ c #a59a17",
".U c #a59a18",
"bp c #a59a19",
"dh c #a59a1c",
"fZ c #a59b17",
"c4 c #a59b18",
"fL c #a59b1a",
"cR c #a5b3df",
"bV c #a69232",
"bm c #a69a18",
"#b c #a69a19",
"eO c #a69a1b",
"fJ c #a69b16",
"fq c #a69b17",
"#B c #a69b18",
"ag c #a69b19",
"dk c #a69b1a",
"#. c #a69c18",
"#5 c #a69c19",
"dO c #a69c1a",
"fj c #a69c1b",
"cI c #a69d19",
"aH c #a79a19",
"aN c #a79b18",
"bc c #a79b19",
"aI c #a79b1b",
"eR c #a79b1c",
"bC c #a79c18",
".x c #a79c19",
"ai c #a79c1a",
".W c #a79c1d",
"ba c #a79d18",
"#E c #a79d19",
"d1 c #a79d1b",
"bR c #a8512f",
"du c #a89b19",
"#V c #a89c19",
"c5 c #a89c1a",
"aL c #a89c1b",
"cp c #a89c1d",
"#a c #a89d18",
"ax c #a89d19",
"ae c #a89d1a",
"#q c #a89d1b",
"fK c #a89e1b",
"aK c #a99d19",
"fp c #a99d1a",
"#s c #a99d1b",
"#W c #a99d1c",
"c2 c #a99e19",
".A c #a99e1a",
"aZ c #a99e1b",
"di c #a99e1c",
"c3 c #a99e1d",
"d8 c #a99f1b",
"eG c #a99f1c",
".8 c #aa9d1a",
"#T c #aa9d1d",
"bB c #aa9e1a",
"gm c #aa9e1b",
"eP c #aa9e1c",
"ah c #aa9e1d",
"#U c #aa9f1a",
"a1 c #aa9f1c",
"gu c #aa9f1d",
"eH c #aaa01d",
"dH c #ab3013",
"a3 c #ab9a39",
"eh c #ab9e1a",
"#6 c #ab9e1c",
"## c #ab9f1a",
"dL c #ab9f1b",
"af c #ab9f1d",
"#X c #aba01b",
"fY c #aba01c",
"fS c #aba01d",
"d9 c #aba11b",
"fk c #aba11d",
"eI c #aba21d",
"eq c #ac733b",
"fX c #ac9f1b",
"eu c #ac9f1c",
"#4 c #ac9f1d",
"cG c #ac9f1e",
".9 c #aca01c",
"#p c #aca01d",
"bb c #aca01f",
"b# c #aca11f",
"bo c #aca21d",
"#G c #aca21f",
"cg c #acacb4",
"cH c #ad9f1e",
"gx c #ada01b",
"es c #ada01c",
"e1 c #ada01e",
"eZ c #ada11e",
".z c #ada11f",
"fR c #ada21d",
"bl c #ada31d",
"dj c #ada31e",
"#D c #ada31f",
"ge c #ada41f",
"dM c #aea11e",
"fx c #aea11f",
".T c #aea31d",
"gd c #aea420",
"gv c #afa21c",
"aY c #afa21f",
"a0 c #afa31e",
"cb c #afa420",
"dl c #afa51f",
"gt c #b0a31d",
"aw c #b0a520",
"au c #b1a620",
"dJ c #b85e34",
"eX c #be7437",
"cD c #bf2f09",
"en c #c4652d",
"eA c #c5c6cd",
"cE c #c7592b",
"db c #c9c7ce",
"ef c #ca7438",
"dp c #cacbda",
"ea c #cfcfd7",
"dG c #d05e1a",
"ct c #d0d2e1",
"cC c #d14913",
"d4 c #d1d0d7",
"ce c #d2d3e2",
"cX c #d6911d",
"ee c #d84a0e",
"cU c #d8d6d6",
"bz c #da5e22",
"b3 c #db9918",
"dV c #dcdce1",
"bv c #df5411",
"bw c #e04e11",
"by c #e15612",
"dD c #e1e1e5",
"e7 c #e5e5e5",
"ed c #e66218",
"cB c #e66b18",
"dC c #e6e6e6",
"cP c #e7e7e7",
"cs c #e8e8e8",
"bx c #e96a19",
"cO c #e9e9e9",
"ec c #ea6819",
"fO c #eaeaea",
"dF c #eb980a",
"cQ c #ebebeb",
"fE c #ececec",
"da c #f0f1f5",
"cA c #f5a10e",
"cu c #f9f9f9",
"dd c #faa20c",
"cT c #fbfbfb",
"cf c #fbfff5",
"cS c #fcfcfe",
"ds c #fea20b",
"br c #fea60b",
".v c #ff431f",
".u c #ff461e",
".P c #ff461f",
".O c #ff481e",
".t c #ff491e",
".6 c #ff4b1d",
".s c #ff4c1d",
"#z c #ff4d1d",
"#m c #ff4e1d",
".r c #ff4f1d",
"#Q c #ff501c",
".q c #ff511c",
"#2 c #ff521c",
"#P c #ff531c",
".p c #ff541c",
".o c #ff561b",
".N c #ff571b",
"ac c #ff581b",
".n c #ff591a",
".5 c #ff5a1a",
".m c #ff5b1a",
".M c #ff5c1a",
".l c #ff5d1a",
".L c #ff5f19",
".k c #ff6019",
".K c #ff6119",
".j c #ff6219",
".J c #ff6318",
".i c #ff6418",
"#l c #ff6518",
".h c #ff6618",
"#k c #ff6717",
".g c #ff6817",
".f c #ff6917",
"#j c #ff6a17",
".e c #ff6b17",
"#i c #ff6c16",
".d c #ff6d16",
"#h c #ff6e16",
".c c #ff6f16",
".b c #ff7016",
".a c #ff7115",
".# c #ff7215",
"Qt c #ff7315",
".I c #ff7415",
".4 c #ff7515",
".H c #ff7614",
"#O c #ff7714",
".3 c #ff7814",
".2 c #ff7914",
".1 c #ff7a13",
".0 c #ff7b13",
"ar c #ff7c13",
"#g c #ff7d13",
"#f c #ff7e13",
"#e c #ff7f12",
"#y c #ff8012",
"#N c #ff8112",
"#x c #ff8212",
"#w c #ff8312",
"#M c #ff8411",
"#L c #ff8511",
"#K c #ff8611",
"#J c #ff8711",
"ab c #ff8810",
"#1 c #ff8910",
"#0 c #ff8a10",
"#Z c #ff8b10",
"aa c #ff8c10",
"aW c #ff8d0f",
"a# c #ff8e0f",
"a. c #ff8f0f",
"aq c #ff900f",
"ap c #ff910f",
"ao c #ff920e",
"an c #ff930e",
"aF c #ff940e",
"aE c #ff950e",
"aD c #ff960e",
"aC c #ff970d",
"aV c #ff980d",
"aU c #ff990d",
"aT c #ff9a0d",
"aS c #ff9b0c",
"bk c #ff9c0c",
"a8 c #ff9d0c",
"a7 c #ff9e0c",
"a6 c #ff9f0c",
"bj c #ffa00b",
"bi c #ffa10b",
"bh c #ffa20b",
"bg c #ffa30b",
"b4 c #ffa40b",
"bu c #ffa50a",
"bt c #ffa60a",
"bs c #ffa70a",
"bL c #ffa909",
"bK c #ffab09",
"bJ c #ffac09",
"cj c #ffae08",
"QtQt.#.#.#.a.b.c.d.d.e.f.g.h.i.j.k.l.m.n.o.p.q.r.s.t.u.v.w.x.y.z.A.B.C.D.E.F.G.G",
".H.H.H.H.H.I.IQt.#.b.c.d.e.f.g.h.J.K.L.M.n.N.p.q.r.s.O.P.Q.R.S.T.U.V.W.X.Y.Z.G.G",
".0.0.0.1.2.2.3.H.4.I.#.a.c.d.e.f.h.i.j.L.l.5.N.p.q.r.6.O.7.8.9#.##.9#a#b#c#d.G.G",
"#e#e#e#f#g#g.0.0.2.3.H.I.#.b#h#i#j#k#l.j.L.l.5.N.p.q#m.6#n#o#p#q#r.9#s#t#u#v.G.G",
"#w#w#x#x#x#y#y#f#g.0.1.3.H.I.#.c.d.e.g#l.j.L.l.5.N.p.q#z#A#B#C#D#E#F#G.x#H#d.G#I",
"#J#J#J#K#L#M#M#x#N#e#g.0.2#O.4Qt.b.d.e.f.h.j.L.l.n.o#P#Q#R#S#T#U#V#W#X#S#Y#d.G.G",
"#Z#Z#Z#0#1#1#J#K#M#w#N#e#g.0.2.H.I.a#h.e.f#l.j.L.M.n.o#2#3#V#4#5#V#6.A#7#8#9.G.G",
"a.a.a.a#a#aa#Z#0ab#J#M#x#y#f.0.2.H.I.a#h.e.g#l.j.L.mac.padae.xafag#Eahaiajakalam",
"ananaoaoapaqa.a#aa#0ab#K#M#x#ear.2.H.I.a.d.e#k.i.K.l.m.Nas#ratau#BavawaxayazaAaB",
"aCaCaCaDaEaFaoapaqa##Z#1#J#M#x#ear.2.H.I.b.d#j.h.J.k.l.naGaHaIaJaKaLaMaNaOaPaQaR",
"aSaSaSaTaUaVaCaEanapa.aW#0#J#L#x#ear.2.HQt.c#i.f.h.j.L.maXaiaYaZ.Ua0a1ata2a3a4a5",
"a6a6a6a7a8aSaTaUaCaFaoaqa##Zab#L#x#e.0.2.4.##h.e.g.i.k.la9#Bb.b#bab.bbbcbdbebfbf",
"bgbgbhbhbibja7bkaTaVaEanaqa##Z#J#M#x#f.0#O.I.b.d.f.h.j.L.Q.RaOblbmbnbobpbq#d.G.G",
"brbsbsbtbubgbhbja7aSaUaDanaqa##0#J#M#y#g.2.H.#bvbwbxbybzbAbB#4bC#UbDbEbFbGbH.GbI",
"bJbJbKbLbLbsbubgbia7aSaUaDanaqaW#1#K#x#e.0.3bMbNbObPbQbRbSbT.9#sbUbVbWbXbYbZ.G.G",
"b0b1b2b3bJbKbLbsb4bha6aSaUaEaoa.#Zab#M#N#g.1b5b6b7b8b9c.c##Ecacb#5cccd.G.G.G.G#I",
"cecfcgchcicjbJbLbsbubha7aSaVaFapa##0#J#w#e.0ckclcmcnbUco#a#Vcp#.#Scqcr.G.G.G.G.G",
"cscsctcucvcwcxcyczcAb4bia7aTaCanaqaacBcCcDcEcFaxcG#.#VcHcI#ocJcKcLcMcN.G.G.G.G.G",
"cOcPcPcQcRcScTcUcVcWcXbgbjbkaUaEapa##0cYcZc0c1c2#Bc3axc4afc5c6c7c8c9d..G.G.G.G.G",
"cOcPcPcPcPcPcOd#dadbdcddbha7aTaCaoa.#Zdedfdgdh#rdidj#rdkdldmdndo.G.G.G.G.G#I.G.G",
"cscPcPcPcPcPcPcPcQdpdqdrdsbjaSaVaFaqaadtduaLdv#VaLdwaKdxdydzdAdB.G.G.G.G.G.G.G#I",
"cPcPcPcPcPcPcPcPdCcPdDdEdFbia8dGdHdIdJdKdLdMdN.AdMdOdPdQdRdSdTdU.G.G.G.G.G.G.G.G",
"cPcPcPcPcPcPcPcPcPdCdVdWbtbha7aTdXdYdZd0bC.Ud1bad2di#Sd3dBdBdB.G.G.GbIbI.G.G.G.G",
"cPcPcPcPcPcPcPcPcPdCd4d5bsbha6aSd6d7coai#rafd8#rcpd9e.e#.G.G.G#I.G.GbIbI.G.G.G.G",
"cPcPcPcPcPcPcPcPcPdCeaebecedeeefegehaf#a##afbabceiejekel.G.G.G.G.G.G.G.G.G#I.GbI",
"cPcPcPcPcPdCcPcPcPdCeaemeneoepeqer.xeset.xeubTevewexeyez.G.G.G.G.G.G.G.G.G.G.G.G",
"cPcPcPcPcPcPcPcPcPdCeAeBbseCeDeEeF#BeGeHbCd1eIeJeK#I.G.G.G.G.G.G.G#I.G.G.GbI.G.G",
"cPcPcPdCcPcPcPcPcPdCeLeMbseNbceOd2axePeQbceRd2eSeT.G.G.G.G#I.G.GbIbI.G.G.G.G.G.G",
"cPcPcPcPcPcscscPcPeUeVeWeXeYeheZe0bBe1c4e2e3e4e5e6.G.G.G.G.G.G#IbIbI.G.G.G.G.G.G",
"cPcPcPcPcPcscPcPe7e8e9f.f#fa#.di#q#.c5#qbFfbfcfdfe.G.G.G.G.G.G.G.G.G.G.G.G.G.GbI",
"cPcPcscscscsdCdCfffgfhdffiaO#rdjfj#rfk#qd7fl.G.G.G.GbIbI.G.G.G.G.G.G.G.G.G.G.G.G",
"cscscscscscPdCe7fmfnfo##fpeQbB#sfq#bfacafrfs.G#I.G.GbIbI.G.G.G.G.G.G.G.G.G.G.G#I",
"cscscscscPdCe7ftfufvfw#Ue1#7bBfxfyfzfAfBfCfD.G.G.G.G.G.G.G#I.GbI.G.G#I.G.G.G.G.G",
"cscscscPdCdCfEfFfGfHfIdweHbpfJfKfLfMfN.G.G.G.G.G.G.G.G.G.G.G.G.G.G.G.G.G.G.G.G.G",
"cscscPdCdCfOfPe9fQ#WbpdkfRdkbpfSaifTfU.G.G.G.G.G.G#I.G.G.GbI.G.G.G#I.G.G.G.G.G.G",
"cscPdCdCcQfVfWd2fXfYc4eh#pfZe2f0f1f2f3.G.G#I.G.GbIbI.G.G.G.G.G.G.G.G.G.G.G#I.G.G",
"dCdCdCfOf4f5#Wdm.A#4avae#4f6f7f8f9g.g#.G.G.G.G#IbIbI.G.G.G.G.G.G.G.G.G.G.G.G.G#I",
"dCdCcQgagbgcgd.A#rgeaZd2djeGgfgg.G.G.G.G.G.G.G.G.G.G.G.G.G.G.GbI.G.G.G.G.G.G.G.G",
"ghgigjgkeJai#V#rae.8glaegmglgngo.G.GbIbI.G.G.G.G.G.G.G.G.G.G.G.G.G.GbIbI.G.G.G.G",
"gpgqgrgsfygtgufygv#pgwgxeZe0gygz.G.GbIbI.G.G.G.G.G.G.G.G.G.G.G#I.G.GbIbI.G.G.G.G"};
