/* XPM */
static char *dummy[]={
"40 40 298 2",
".j c #00a15e",
"Qt c #32a67a",
"#v c #333028",
"co c #353229",
"#0 c #36332b",
"#B c #38352d",
"cj c #393031",
"#y c #39362d",
".M c #393730",
".U c #3a372f",
"cK c #3b2e33",
"cL c #3e1f30",
"#A c #3e3c32",
"cx c #3f2631",
"#C c #3f3c33",
".h c #424036",
".Z c #424037",
"cp c #44373a",
".G c #444238",
"#i c #444239",
"#u c #44423a",
".i c #45433b",
".2 c #47433c",
"#R c #47443c",
"#T c #47443e",
".z c #47453d",
"#z c #49483b",
"#b c #49483f",
"cE c #4a313d",
"#k c #4a4740",
".I c #4a4741",
"## c #4a4840",
".N c #4b4a42",
".L c #4c493f",
"bx c #4c4941",
"#. c #4c4a41",
"#p c #4c4b44",
".F c #4d4a43",
".4 c #4e4d43",
"cM c #4f243b",
".s c #4f4d44",
"#I c #4f4d46",
".O c #4f4e46",
".v c #504d46",
".J c #504e47",
".D c #514e46",
"#U c #524f48",
"#F c #525047",
"#D c #525048",
".c c #53514a",
"#W c #544e4a",
".E c #545149",
".a c #54524b",
"cw c #54534c",
".t c #55534a",
".X c #55544d",
"cc c #562f44",
".A c #56544c",
".5 c #56554b",
".Y c #57554e",
"#t c #575649",
"#n c #57564b",
".P c #58554f",
".H c #58574f",
".# c #595650",
"bL c #5a4348",
"#s c #5a5850",
"#O c #5a5852",
".y c #5b5851",
"#c c #5b5a51",
".R c #5c5a54",
".3 c #5c5c53",
"b7 c #5e414c",
".C c #5f5e56",
".b c #5f5e57",
"aC c #615e5a",
".g c #615f58",
".k c #615f59",
"cn c #615f5a",
"#o c #61605b",
"#3 c #625455",
".r c #626059",
"#9 c #645255",
"a. c #655156",
"#l c #65635b",
".l c #65635f",
"#r c #65645a",
"by c #664c56",
"aD c #664e56",
"af c #66635c",
"#a c #66645c",
".B c #66655d",
".d c #66655f",
"ag c #67595a",
"#S c #67665e",
".u c #67aa97",
"aN c #684d57",
"#P c #68665e",
".e c #68665f",
"#2 c #686660",
".o c #696761",
"#V c #696860",
".S c #696863",
"aR c #6a4e58",
"bR c #6a6863",
".w c #6a6962",
"#L c #6a6964",
"cJ c #6a6a66",
"aY c #6b4f59",
"aM c #6b6761",
"#x c #6b6964",
"aq c #6b6966",
"#h c #6b6a66",
"a4 c #6c505a",
"#X c #6c545c",
".p c #6c6a63",
"#j c #6c6b67",
"cN c #6d5561",
"#g c #6d6d69",
"a# c #6e5860",
".K c #6e6d65",
"#m c #6f6d63",
"a3 c #6f6d64",
"cb c #6f6d66",
"#q c #6f6e66",
"cF c #705763",
"ck c #705b63",
"#Q c #706f65",
"ci c #706f67",
"#M c #716f68",
".6 c #717069",
"#1 c #71706a",
"#Y c #745c65",
"bS c #745d67",
".x c #74736c",
"#4 c #755c64",
"#w c #75746c",
".Q c #77746f",
".f c #787670",
"#E c #787672",
"aX c #797671",
"cD c #797973",
".7 c #7a7a74",
"#K c #7b7973",
"#J c #7b7a72",
"#f c #7b7a75",
".V c #7b7a76",
".9 c #7c7b76",
".q c #7d7c75",
"bF c #7e6971",
"bn c #7e7c77",
"#N c #7e7d76",
".0 c #7e7d77",
"#8 c #7f7c79",
"ar c #826d74",
".W c #82827e",
"bo c #83807b",
"cq c #867c84",
".1 c #86857f",
"#d c #898883",
"#e c #8c8b86",
".n c #8d8c88",
"cC c #8e0062",
"#H c #8e8d89",
"#Z c #8f7b85",
".m c #8f8f8b",
"cy c #90888d",
"#G c #90908c",
"b1 c #910065",
"cs c #91066b",
"bf c #949491",
".8 c #959593",
".T c #969693",
"ah c #978b8e",
"cI c #97999f",
"bZ c #999196",
"cG c #999b9e",
"c. c #9a0071",
"ce c #9b1b77",
"cr c #9b8f9d",
"cB c #9c0075",
"bM c #9c979a",
"aH c #9e0078",
"aG c #9f0078",
"aS c #9f007a",
"cd c #9fa6a7",
"bh c #a10079",
"bB c #a1007b",
"a6 c #a1017c",
"cf c #a20278",
"b# c #a3007b",
"bq c #a3007c",
"bT c #a3a3a6",
"bH c #a4007d",
"aF c #a40f7e",
"cl c #a5aaad",
"br c #a6007e",
"cA c #a8338b",
"bz c #a9a8aa",
"b8 c #a9abad",
"cH c #a9b2b3",
"aa c #aa9d9f",
"bG c #aaa9ac",
"cz c #aab3b4",
"b0 c #aca9af",
"b2 c #ad0284",
"bN c #ad4597",
"aP c #ae0088",
"ct c #ae0584",
"c# c #af0285",
"cg c #b00287",
"bV c #b10386",
"bI c #b10388",
"aw c #b2078c",
"av c #b24897",
"bA c #b33295",
"cu c #b4028a",
"bU c #b41d90",
"cm c #b7048b",
"am c #b90691",
"bi c #ba0393",
"au c #bd72a9",
"aT c #bf0398",
"b9 c #bf88b4",
"at c #bf96b1",
"ad c #c20499",
"bu c #c20799",
"bO c #c30599",
"bW c #c5059c",
"bC c #cb06a1",
"bD c #cc07a2",
"b3 c #cd06a3",
"ba c #ce05a6",
"bk c #ce07a4",
"bt c #cf08a5",
"bP c #d006a6",
"al c #d1c9d1",
"bQ c #d206a9",
"a8 c #d208a7",
"bc c #d307aa",
"cv c #d404ab",
"ca c #d405ad",
"bJ c #d507ab",
"bj c #d606ad",
"ai c #d6d1d2",
"b4 c #d706ae",
"a0 c #da06b1",
"ac c #dabed6",
"bd c #dc05b1",
"bb c #dc08b3",
"bX c #dd06b2",
"a7 c #de07b4",
"b5 c #df06b4",
"bs c #e007b5",
"bv c #e205b8",
"as c #e2dce0",
"bg c #e3d6dc",
"#7 c #e3d9dc",
"bp c #e5dee0",
"aU c #e708bc",
"aQ c #e907bf",
"ch c #ea05c0",
"aE c #ebe3e8",
"#5 c #ebe8e8",
"#6 c #ebf9f4",
"ae c #ed00c1",
"a1 c #ee06c4",
"b. c #efe4e8",
"a5 c #efe4ea",
"aZ c #f0e3eb",
"bY c #f105c6",
"aO c #f1e7ed",
"b6 c #f205c6",
"bl c #f304c8",
"aI c #f800cd",
"ab c #f8faf9",
"ax c #fa00cc",
"ak c #fcfffc",
"an c #ff00d2",
"a2 c #ff00d6",
"bE c #ff00d7",
"bw c #ff00d9",
"ay c #ff00db",
"ap c #ff00dc",
"aA c #ff00de",
"aL c #ff00df",
"aB c #ff00e0",
"az c #ff00e1",
"aJ c #ff00e2",
"aW c #ff00e3",
"aK c #ff00e5",
"aV c #ff01d6",
"a9 c #ff01d7",
"be c #ff01d8",
"bm c #ff01da",
"ao c #ff01dd",
"bK c #ff02d3",
"aj c #ffffff",
"QtQtQtQtQtQtQtQtQtQtQtQtQtQtQtQtQtQtQtQtQtQtQtQtQtQtQtQtQtQt.#.a.b.c.d.e.f.g.h.i",
"QtQtQtQt.jQtQtQtQtQtQtQt.jQtQtQtQtQtQtQt.jQtQtQtQtQtQtQt.jQt.k.l.m.n.o.p.q.r.s.t",
"Qt.jQtQtQtQtQtQtQt.jQtQtQt.uQtQtQt.jQtQtQtQtQtQtQt.jQtQtQt.u.v.w.x.y.z.A.B.C.D.E",
"QtQtQtQtQt.jQtQt.u.uQtQtQtQtQtQtQtQtQtQtQt.jQtQt.u.uQtQtQtQt.F.G.H.I.#.w.J.K.L.E",
"QtQtQtQtQtQtQt.j.u.uQtQtQtQtQtQtQtQtQtQtQtQtQt.j.u.uQtQtQtQt.M.N.O.P.Q.R.S.T.l.U",
"QtQtQtQtQtQtQtQtQtQtQtQtQtQtQt.uQtQtQtQtQtQtQtQtQtQtQtQtQtQt.V.W.#.X.Y.Z.0.1.a.2",
"QtQt.u.uQtQtQtQtQtQtQtQtQtQtQtQtQtQt.u.uQtQtQtQtQtQtQtQtQtQt.3.4.5.6.7.8.9#.###a",
"QtQt.u.uQtQtQtQtQtQtQtQtQtQtQt.jQtQt.u.uQtQtQtQtQtQtQtQtQtQt#b#c#d#e#f#g#h#i#j#k",
"QtQtQtQtQt.jQt.uQtQt.jQtQtQtQtQtQtQtQtQtQt.jQt.uQtQt.jQtQtQt.G#l.6#m#n#o#p#o#q#r",
"QtQtQtQtQtQtQtQtQtQtQtQtQtQtQtQtQtQtQtQtQtQtQtQtQtQtQtQtQtQt.Z.K#s#t.h#u#v.p#w#x",
"Qt.jQtQtQt.uQtQtQt.jQtQtQtQtQtQtQt.jQtQt.#.a.b.c.d.e.f.g.h.i#y#u#i#z#A#B#C#D.R#E",
".u.uQtQtQtQtQtQtQtQtQtQtQt.jQtQt.u.uQtQt.k.l.m.n.o.p.q.r.s.t.Z#F#G#H#I.J#J#K.P#L",
".u.uQtQtQtQtQtQtQtQtQtQtQtQtQt.j.u.uQtQt.v.w.x.y.z.A.B.C.D.E.a#M#N#O#C#F#P#Q.2#.",
"QtQtQtQtQtQtQt.uQtQtQtQtQtQtQtQtQtQtQtQt.F.G.H.I.#.w.J.K.L.E#R.H#S#T#U#V#W#X#Y#Z",
"QtQtQtQtQtQtQtQtQtQt.u.uQtQtQtQtQtQtQtQt.M.N.O.P.Q.R.S.T.l.U#0#1#V#O#2#3#4#5#6#7",
"QtQtQtQtQtQtQt.jQtQt.u.uQtQtQtQtQtQtQtQt.V.W.#.X.Y.Z.0.1.a.2.V#8#9a.a#aaabacadae",
"QtQt.jQtQtQtQtQtQtQtQtQtQt.jQt.uQtQt.jQt.3.4.5.6.7.8.9#.##afagahaiajakalamanaoap",
"QtQtQtQtQtQtQtQtQtQtQtQtQtQtQtQtQtQtQtQt#b#c#d#e#f#g#h#iaqarasatauavawaxayazaAaB",
"Qt.jQtQtQtQtQtQtQt.jQtQtQt.uQtQtQt.jQtQt.G#l.6#m#n#o#paCaDaEaFaGaHaIapazaJaKaKaL",
"QtQtQtQtQt.jQtQt.u.uQtQtQtQtQtQtQtQtQtQt.Z.K#s#t.h#u#vaMaNaOaGaPaQaJaKazaKaKaKaz",
"QtQtQtQtQtQtQt.j.u.u.#.a.b.c.d.e.f.g.h.i#y#u#i#z#A#B#C#UaRaOaSaTaUaVaAaKaKaKaKaW",
"QtQtQtQtQtQtQtQtQtQt.k.l.m.n.o.p.q.r.s.t.Z#F#G#H#I.J#JaXaYaZaGa0aUa1a2aWaJaKaKaW",
"QtQt.u.uQtQtQtQtQtQt.v.w.x.y.z.A.B.C.D.E.a#M#N#O#C#F#Pa3a4a5a6a7aUa8a9ayaJaKaKaW",
"QtQt.u.uQtQtQtQtQtQt.F.G.H.I.#.w.J.K.L.E#R.H#S#T#U#V.J#qa4b.b#babbbcbdbeapaLaLaz",
"QtQtQtQtQt.jQt.uQtQt.M.N.O.P.Q.R.S.T.l.U#0#1#V#O#2#O.SbfaYbgbhbibbbjbkbla9bmaLaz",
"QtQtQtQtQtQtQtQtQtQt.V.W.#.X.Y.Z.0.1.a.2.V.W.#.X.Y.ZbnboaRbpbqbrbsbjbtbubvbwapaz",
"Qt.jQtQtQt.uQtQtQt.j.3.4.5.6.7.8.9#.###a.3.4.5.6.7.8#fbxbybzbAbBbCbjbjbkbDblbEbE",
".u.uQtQtQtQtQtQtQtQt#b#c#d#e#f#g#h#i#j#k#b#c#d#e#f#g#h#i#hbFbGbHbIbJbjbcbDbDbKbE",
".u.uQtQtQtQtQtQtQtQt.G#l.6#m#n#o#p#o#q#r.G#l.6#m#n#o#p#o#qbLbMbNaHbObPbjbDbQbQa2",
"QtQtQtQtQtQtQt.uQtQt.Z.K#s#t.h#u#v.p#w#x.Z.K#s#t.h#u#v.p#wbRbSbTbUbVbWbjbjbjbXbY",
".#.a.b.c.d.e.f.g.h.i#y#u#i#z#A#B#C#D.R#E#y#u#i#z#A#B#C#D.R#E#ybZb0b1b2b3b4b5b6b6",
".k.l.m.n.o.p.q.r.s.t.Z#F#G#H#I.J#J#K.#.S.Z#F#G#H#I.J#J#K.#.S.Zb7b8b9c.c#cab6b6b6",
".v.w.x.y.z.A.B.C.D.E.a#M#N#O#C#F#P#Q.2#..a#M#N#O#C#F#P#Q.2#..acbcccdcecfcgchb6bY",
".F.G.H.I.#.w.J.K.L.E#R.H#S#T#U#V.Jci#y#i#R.H#S#T#U#V.Jci#y#i#R.Hcjckclb1b2cmchbY",
".M.N.O.P.Q.R.S.T.l.U#0#1#V#O#2#O.S.Tcnco#0#1#V#O#2#O.S.Tcnco#0#1#Vcpcqcrcsctcucv",
".V.W.#.X.Y.Z.0.1.a.2.V.W.#.X.Y.Z.0.1.a.2.V.W.#.X.Y.Z.0.1.a.2.V.W.#cwcxcyczcAcBcC",
".3.4.5.6.7.8.9#.###a.3.4.5.6.7.8.9#.###a.3.4.5.6.7.8.9#.###a.3.4.5.6cDcEcFcGcHcI",
"#b#c#d#e#f#g#h#i#j#k#b#c#d#e#f#g#h#i#j#k#b#c#d#e#f#g#h#i#j#k#b#c#d#e#fcJcKcLcMcN",
".G#l.6#m#n#o#p#o#q#r.G#l.6#m#n#o#p#o#q#r.G#l.6#m#n#o#p#o#q#r.G#l.6#m#n#o#p#o#q#r",
".Z.K#s#t.h#u#v.p#w#x.Z.K#s#t.h#u#v.p#w#x.Z.K#s#t.h#u#v.p#w#x.Z.K#s#t.h#u#v.p#w#x"};
