/* XPM */
static char *dummy[]={
"40 40 1012 2",
".w c None",
".v c #7b230f",
"aQ c #832812",
".Q c #852912",
"b4 c #864228",
"#D c #8e2e15",
"#e c #952e14",
"ao c #963016",
"#Z c #973418",
"bd c #9a391d",
"bC c #9b4125",
"d9 c #474133",
"cC c #66635a",
"cx c #8a887e",
"cy c #908e84",
"cz c #938f86",
"cv c #949289",
"cB c #959287",
"cu c #96958b",
"cw c #9c9d94",
"cA c #9d9b92",
"ct c #a3a39a",
"eC c #797564",
"cs c #979485",
"gs c #231f17",
"gy c #241f17",
"kM c #252017",
"nR c #252018",
"nT c #262118",
"eb c #2b241c",
"iR c #2b251c",
"iN c #2c261c",
"ms c #2c271d",
"ej c #2d261e",
"en c #2e271e",
"mH c #312614",
"mE c #312a20",
"nX c #322713",
"gz c #322d24",
"gA c #332c22",
"gr c #332d22",
"iM c #332d23",
"eo c #332d25",
"ek c #332e25",
"ei c #342d21",
"kL c #342d23",
"mr c #342e23",
"kH c #342e25",
"ec c #342e26",
"nS c #342f26",
"mx c #352e24",
"gx c #352f23",
"gq c #352f24",
"nO c #352f26",
"nW c #353025",
"mD c #362f23",
"gt c #362f24",
"gw c #362f25",
"gu c #363024",
"kK c #363025",
"go c #372f24",
"eh c #373024",
"em c #373025",
"nQ c #373026",
"gn c #373125",
"f8 c #373126",
"kI c #383126",
"ga c #383226",
"ko c #383227",
"mC c #393226",
"ee c #393227",
"iw c #393326",
"ip c #393327",
"gp c #393328",
"iO c #393329",
"iS c #393428",
"ea c #3a3327",
"eq c #3a3328",
"l8 c #3a3427",
"el c #3a3428",
"mv c #3a3429",
"mt c #3a342a",
"nu c #3b301a",
"ed c #3b3429",
"gv c #3b3529",
"iQ c #3b352a",
"gm c #3b352b",
"ep c #3c3429",
"mG c #3c3529",
"mz c #3c352a",
"kJ c #3c362a",
"iP c #3c362b",
"mF c #3c362c",
"e# c #3d362a",
"mu c #3d362b",
"nP c #3d372b",
"my c #3d372c",
"nG c #3e311a",
"m6 c #3e321f",
"nV c #3e382b",
"eL c #3e382c",
"dX c #3e382d",
"dS c #3e382e",
"mj c #3f321c",
"io c #3f372a",
"iv c #3f382b",
"iL c #3f382c",
"mf c #3f392d",
"mq c #40392c",
"mw c #40392d",
"nF c #413a2d",
"e. c #413a2e",
"nU c #413b2e",
"ef c #423b2f",
"mp c #423d33",
"f7 c #433c2f",
"mB c #433c30",
"kr c #433d2f",
"nn c #443720",
"nC c #443d2f",
"dI c #444034",
"gB c #444138",
"eg c #453e31",
"lY c #463922",
"h3 c #463e2f",
"lS c #463e30",
"hV c #463f30",
"mA c #463f32",
"iZ c #464035",
"kG c #464036",
"nN c #464136",
"lP c #473f30",
"k8 c #484135",
"lg c #484236",
"dH c #494033",
"hU c #494132",
"g0 c #494337",
"lO c #4a4132",
"fO c #4a4334",
"fI c #4a4335",
"g7 c #4a4337",
"iK c #4a453a",
"dR c #4b4335",
"g. c #4c4435",
"f1 c #4c4436",
"kk c #4c4536",
"kN c #4c4a43",
"lH c #4d3f27",
"nE c #4d4436",
"fH c #4d4535",
"f6 c #4d4536",
"kn c #4d4636",
"j1 c #4e4535",
"in c #4e4536",
"kq c #4e4636",
"nB c #4e4637",
"ir c #4e4737",
"l9 c #4e4738",
"dq c #4e483a",
"nh c #4e493b",
"eW c #4e493f",
"hT c #4f4536",
"l7 c #4f4636",
"lR c #4f4637",
"is c #4f4737",
"dK c #4f4837",
"dm c #4f483b",
"fl c #4f493b",
"mQ c #4f4a3f",
"eB c #4f4a40",
"h2 c #504637",
"m. c #504738",
"hC c #50483a",
"iu c #504938",
"il c #504939",
"fe c #504a3c",
"f9 c #504a3d",
"f2 c #514838",
"f5 c #514839",
"dL c #514938",
"g# c #51493a",
"hw c #51493b",
"l5 c #514a39",
"ly c #514a3b",
"kj c #514b3d",
"dJ c #514c3d",
"i9 c #514d41",
"jj c #514d43",
"nz c #524939",
"km c #52493a",
"nD c #524a39",
"kp c #524a3a",
"dT c #524c3e",
"dY c #524d3e",
"dQ c #534939",
"dF c #534a3a",
"mh c #534a3b",
"dG c #544a3a",
"im c #544b3b",
"nm c #544c3b",
"dO c #544d3b",
"me c #544e3b",
"l4 c #544f43",
"l6 c #554b3b",
"db c #554c3b",
"mb c #554c3c",
"mg c #554f41",
"iq c #55503d",
"mc c #55503e",
"dP c #564c3c",
"dW c #564d3c",
"f4 c #564e3d",
"k4 c #565246",
"mi c #574e3b",
"hy c #574e3c",
"dl c #574e3d",
"kl c #574f3d",
"it c #574f3e",
"f0 c #575042",
"lU c #584e3d",
"hu c #584e3e",
"lX c #584f3b",
"lx c #584f3e",
"ma c #58503e",
"iD c #585347",
"dU c #59513e",
"ik c #595145",
"hW c #59523d",
"md c #595240",
"dc c #595243",
"df c #5a503d",
"fN c #5a503e",
"hv c #5a503f",
"hY c #5a513d",
"f3 c #5a513e",
"dM c #5a523e",
"ki c #5a5548",
"ny c #5a5549",
"fR c #5b513e",
"fC c #5b523d",
"nt c #5b523e",
"nA c #5b523f",
"ix c #5b5240",
"dN c #5b5340",
"dV c #5b5441",
"hh c #5b574b",
"ks c #5b574d",
"jt c #5c5137",
"da c #5c513e",
"dk c #5c523f",
"ht c #5c5241",
"m# c #5c5340",
"hB c #5c5342",
"mY c #5c5445",
"dE c #5c5544",
"m1 c #5c5546",
"jo c #5c584f",
"dp c #5d523f",
"lN c #5d5240",
"jg c #5d5647",
"iT c #5d584d",
"hS c #5e5340",
"ji c #5e5647",
"cX c #5e584a",
"gb c #5e5b51",
"eK c #5f5848",
"cR c #5f594c",
"er c #5f5a4f",
"eV c #605848",
"hQ c #60584b",
"e6 c #605c52",
"d# c #615642",
"hz c #615744",
"fG c #615843",
"cF c #615844",
"nl c #615945",
"hX c #625841",
"fM c #625843",
"dj c #625844",
"fQ c #625942",
"lG c #625a46",
"cH c #625d4f",
"h4 c #635843",
"j2 c #635942",
"fD c #635943",
"hZ c #635944",
"ds c #635a43",
"fk c #635a47",
"fd c #635a48",
"do c #635b43",
"jI c #635b48",
"lV c #635c48",
"cG c #645a47",
"dg c #645b43",
"fB c #645b45",
"cV c #645b48",
"cP c #645b49",
"hx c #645d47",
"m5 c #645e4f",
"fq c #646055",
"jJ c #646157",
"lr c #655740",
"fP c #655b46",
"lW c #655b47",
"fK c #655c46",
"ns c #655c47",
"fc c #655c48",
"de c #655d47",
"lD c #655d4a",
"hD c #655e48",
"k7 c #655e4e",
"hR c #665b46",
"h1 c #665b47",
"fF c #665c47",
"fj c #665c48",
"cE c #665d47",
"di c #665d48",
"jF c #665d49",
"lA c #665e49",
"hs c #665e4b",
"lf c #665e4e",
"hA c #665f4b",
"mZ c #665f4e",
"j0 c #666153",
"j3 c #666156",
"f# c #675d47",
"nc c #675d49",
"jD c #675e47",
"lz c #675f4b",
"mX c #675f4f",
"fJ c #67604d",
"mR c #67604e",
"gZ c #676050",
"ff c #67614b",
"gL c #676358",
"dh c #685e48",
"cM c #685f48",
"m0 c #68604f",
"jC c #68614b",
"fm c #68614c",
"dd c #68614e",
"fA c #68614f",
"mU c #686152",
"nd c #68624c",
"lM c #686254",
"fE c #695f49",
"fL c #695f4a",
"nk c #69604a",
"jf c #696150",
"ni c #69624d",
"dn c #69624e",
"dr c #69624f",
"j. c #696250",
"mW c #696352",
"ia c #696457",
"fS c #69655a",
"e9 c #6a6049",
"f. c #6a604a",
"eS c #6a6351",
"jc c #6a6354",
"mV c #6a6455",
"h0 c #6b604a",
"lQ c #6b604b",
"lT c #6b614b",
"cL c #6b624c",
"jE c #6b624d",
"eJ c #6b6351",
"eR c #6b6352",
"eM c #6b6452",
"m4 c #6b6453",
"je c #6b6554",
"d8 c #6b675c",
"cK c #6c624b",
"na c #6c624d",
"fb c #6c634d",
"cO c #6c634e",
"lF c #6c634f",
"e8 c #6c644c",
"fp c #6c644e",
"ld c #6c6454",
"eF c #6c6554",
"jd c #6c6657",
"jH c #6d644f",
"fh c #6d6452",
"ng c #6d654f",
"eQ c #6d6556",
"gX c #6d6655",
"eG c #6d6656",
"eU c #6d6756",
"i4 c #6d695f",
"mL c #6d6960",
"lC c #6e6550",
"fn c #6e6552",
"nf c #6e6553",
"nj c #6e6652",
"cW c #6e6754",
"cQ c #6e6755",
"eI c #6e6756",
"mT c #6e6758",
"eH c #6e6858",
"gV c #6e6a61",
"fg c #6f664f",
"jG c #6f674f",
"n# c #6f6750",
"k6 c #6f6755",
"lb c #6f6859",
"hr c #6f685b",
"e7 c #6f6956",
"lw c #6f6a5c",
"ne c #706750",
"d. c #706752",
"le c #706755",
"jb c #706959",
"jh c #706a5a",
"mo c #706a5e",
"kA c #716653",
"cU c #716854",
"cN c #716855",
"gY c #716856",
"g6 c #716956",
"g5 c #716a5a",
"eA c #716a5e",
"mS c #716b5b",
"iY c #716b5f",
"gG c #716d63",
"e1 c #716d64",
"lB c #726956",
"fo c #726a54",
"fi c #726a55",
"l. c #726b5b",
"eP c #726c5b",
"k5 c #726c5c",
"lc c #726c5d",
"hH c #726e61",
"fa c #736a55",
"nb c #736b55",
"m3 c #736c5c",
"m2 c #736c5d",
"gl c #736e60",
"eD c #746d5a",
"eE c #746d5b",
"g2 c #746d5c",
"ja c #746d5d",
"j# c #746d5e",
"la c #746e5d",
"gW c #746e5e",
"kE c #747065",
"cJ c #756d57",
"lh c #756f5c",
"jB c #757163",
"cT c #766d58",
"cZ c #766e58",
"k9 c #766f5d",
"g4 c #76705f",
"nI c #767267",
"kW c #776d59",
"eO c #77705f",
"eT c #777060",
"eN c #777160",
"g8 c #78715e",
"g1 c #78715f",
"l# c #787160",
"iy c #787465",
"ka c #796e57",
"h. c #797365",
"kF c #797366",
"ij c #797367",
"g3 c #7a7361",
"g9 c #7a7362",
"nM c #7a7467",
"#1 c #7b240f",
"gK c #7b7567",
"dZ c #7b7667",
"dD c #7b776c",
"fZ c #7c786a",
"cD c #7d7762",
"li c #7d7767",
"lE c #7e7865",
"hP c #7f7a6d",
"bF c #80422b",
"co c #807c70",
"cg c #807d71",
"l3 c #817c6e",
"dt c #827b69",
"ez c #827b6e",
"iX c #827c6f",
"kv c #827c70",
"d7 c #827d6f",
"js c #828075",
"cI c #837d69",
"c0 c #837d6b",
"hE c #837d6c",
"iC c #837d70",
"cS c #837e6a",
"k0 c #838178",
".e c #842b12",
"gJ c #847e71",
"cY c #847f6b",
"mP c #848076",
"lm c #848278",
"a. c #852812",
".m c #852c13",
"h5 c #857e6c",
"gI c #857e71",
"nL c #857f71",
"ey c #857f73",
"hd c #85837a",
".t c #862d13",
"nK c #867f72",
"iW c #867f73",
"lL c #868073",
"iI c #868175",
"c9 c #86847a",
".u c #872610",
"jR c #877a5e",
"dC c #878275",
"i8 c #878379",
"iJ c #878478",
"e5 c #87847a",
".g c #882611",
"iG c #888375",
"mO c #88857b",
"mn c #898376",
"iV c #898476",
"ex c #898477",
"mN c #89857b",
".n c #8a2610",
"ii c #8a8579",
"i6 c #8a867c",
"i7 c #8a877d",
".f c #8b2710",
"mm c #8b8477",
"ew c #8b8578",
"hO c #8b8679",
"ku c #8b867a",
"e3 c #8b877d",
"e4 c #8b887e",
"#d c #8c2e15",
"hN c #8c8779",
"kh c #8c877a",
"gH c #8c877b",
"b9 c #8c887a",
"gk c #8d887a",
"nJ c #8d887b",
"kz c #8d887c",
"iB c #8d897b",
"d5 c #8e897b",
"ih c #8e897c",
"c5 c #8e8a7c",
"k1 c #8e8b82",
"e2 c #8e8c82",
"#I c #8f2e17",
"a1 c #8f361d",
"j6 c #8f8a7d",
"c8 c #8f8b7e",
"iH c #8f8b7f",
"k3 c #8f8c81",
"#U c #902e18",
"am c #903114",
"bP c #904b30",
"iF c #908a7e",
"eu c #908b7f",
"jV c #908c7f",
"mM c #908d83",
"i5 c #908d84",
"jr c #908e84",
"aG c #91351c",
"bX c #914b30",
"lv c #918d80",
"aP c #92321a",
"ax c #92361c",
"l2 c #928d7f",
"d6 c #928d80",
"he c #928e84",
"gg c #938f83",
"kw c #938f86",
"hg c #939085",
"jn c #939184",
"hb c #939289",
"b2 c #944e31",
"l1 c #948e81",
"dA c #948f81",
"c6 c #948f82",
"gj c #949081",
"ig c #949082",
"jm c #949184",
"#H c #953118",
".c c #953219",
".s c #95331a",
"i. c #958f82",
"dB c #959082",
"c7 c #959083",
"ky c #959182",
"i# c #959183",
"ev c #959184",
"kf c #959186",
"nx c #959284",
"gf c #959285",
"ke c #959385",
"kY c #95938a",
"ae c #963616",
".A c #96381e",
"aR c #963e22",
"bM c #964f32",
"id c #969082",
"ml c #969185",
"j5 c #969283",
"ha c #96948b",
"#7 c #973717",
"et c #979286",
"j9 c #979485",
"hq c #979488",
"kZ c #97978f",
"#f c #983418",
"bV c #985133",
"fW c #989485",
"jU c #989486",
"jY c #989586",
".# c #99391d",
"cm c #999381",
"cd c #999382",
"kg c #999486",
"fV c #999487",
"gi c #999586",
"jM c #999589",
"hp c #99958a",
"ce c #999685",
"lq c #999686",
"nw c #999688",
"kd c #999689",
"jq c #99978c",
"jp c #99978e",
"at c #9a3a20",
"cn c #9a9685",
"h9 c #9a9687",
"k# c #9a9688",
"j7 c #9a978d",
"k2 c #9a988e",
"cf c #9b9685",
"ck c #9b9786",
"cb c #9b9787",
"dz c #9b9788",
"jQ c #9b978a",
"ge c #9b988a",
"hf c #9b998f",
"hc c #9b9b92",
"aD c #9c3a20",
"hM c #9c9889",
"fw c #9c988d",
"jl c #9c9a90",
".7 c #9d391c",
"ie c #9d998b",
"i3 c #9d9c93",
".Z c #9e3a1c",
"bo c #9e3f23",
"ic c #9e998a",
"cc c #9e9a8b",
"hG c #9e9a8c",
"jA c #9e9a8d",
"cl c #9e9b8b",
"d3 c #9e9b8d",
"gD c #9e9c91",
"jN c #9e9c92",
"mK c #9e9d94",
"#E c #9f391d",
"aq c #9f3a1d",
".j c #9f3d1f",
"c3 c #9f9a8c",
"np c #9f9b8c",
"d2 c #9f9b8d",
"jX c #9f9c8c",
"jT c #9f9c8d",
"fz c #9f9c8f",
"jW c #9f9c91",
"lp c #9f9d8e",
"kC c #9f9d92",
"aL c #a03d22",
"bU c #a05736",
"iz c #a09b8d",
"gh c #a09c8e",
"lk c #a09d8d",
"fU c #a09d8f",
"kc c #a09d91",
"nv c #a09e91",
"gE c #a09e93",
"#A c #a13a1c",
"bH c #a15536",
"c# c #a19d8c",
"b8 c #a19d8e",
"ch c #a19e8c",
"cj c #a19e8e",
"d1 c #a19e8f",
"l0 c #a19e90",
"gd c #a19e92",
"cr c #a19f8f",
"ft c #a19f93",
"gF c #a1a095",
"e0 c #a1a097",
"#t c #a23a1d",
".S c #a23a1e",
"bK c #a25837",
"cq c #a29e8c",
"fu c #a29e93",
"ci c #a29f8f",
"jw c #a29f93",
"m9 c #a2a094",
"kD c #a2a196",
"h# c #a2a299",
".y c #a3371a",
"#4 c #a3391d",
"ar c #a33c21",
"lu c #a39f90",
"ca c #a3a090",
"fx c #a3a093",
"jx c #a3a095",
"ll c #a3a191",
"nH c #a3a298",
"kX c #a3a299",
"kS c #a3a39c",
"#k c #a43b1d",
"bg c #a44326",
"bR c #a45536",
"d4 c #a4a192",
"jP c #a4a193",
"fX c #a4a194",
"jZ c #a4a196",
"kU c #a4a197",
"nr c #a4a296",
"ho c #a4a297",
"ab c #a53a1d",
"iA c #a5a193",
"fY c #a5a397",
".9 c #a63a1e",
"bZ c #a65737",
"if c #a6a295",
"lK c #a6a393",
"nq c #a6a396",
"lj c #a6a597",
"kV c #a6a59a",
".U c #a7391c",
"aj c #a73b1e",
".2 c #a73b1f",
"bW c #a75a38",
"dv c #a7a395",
"c2 c #a7a396",
"dy c #a7a494",
"k. c #a7a495",
"fy c #a7a498",
"jz c #a7a499",
"lo c #a7a597",
"fv c #a7a59a",
"i2 c #a7a79f",
"#C c #a8391b",
"## c #a8391c",
".D c #a8421f",
".K c #a8431f",
"b1 c #a85736",
"h7 c #a8a496",
"dx c #a8a595",
"lJ c #a8a596",
"jL c #a8a699",
".G c #a93e1e",
"#N c #a93e1f",
"bN c #a95b39",
"dw c #a9a496",
"h8 c #a9a596",
"hL c #a9a697",
"lt c #a9a798",
"n. c #a9a79d",
"eZ c #a9a9a1",
"#w c #aa3a1c",
"#S c #aa3f1f",
"ak c #aa401d",
"aK c #aa4429",
"c4 c #aaa798",
"hJ c #aaa799",
"b7 c #aaa899",
"jy c #aaa89d",
"#n c #ab3b1c",
".T c #ab3f23",
"an c #ab421d",
"aC c #ab4429",
"bm c #ab4829",
"bD c #ab603e",
"fs c #aba99d",
"jv c #aba99e",
"hn c #abaa9e",
"jk c #abaca5",
"#. c #ac4023",
"aB c #ac4224",
"bt c #ac4929",
"bJ c #ac5f3c",
"hK c #aca799",
"hm c #aca89b",
"hk c #aca99f",
"m8 c #acaa9f",
"b5 c #acab9b",
".o c #ad3a1c",
"ai c #ad3f1e",
"#0 c #ad4020",
"ac c #ad411e",
"#O c #ad4123",
"#j c #ad4223",
"aJ c #ad4224",
"#s c #ad4323",
"kx c #adaa9c",
"kT c #adaba1",
"#z c #ae4324",
"ln c #aead9f",
"kt c #aeada4",
"gU c #aeafa7",
"gS c #aeafa8",
"i0 c #aeb0a9",
"#g c #af3719",
".h c #af3b1c",
"ah c #af3c1c",
"#2 c #af401e",
"a# c #af401f",
"av c #af4121",
"#5 c #af421f",
"#b c #af4220",
"bT c #af613d",
"j8 c #afad9e",
"iE c #afaea5",
"kP c #afafa7",
"eX c #afb1ab",
"aA c #b04222",
"bs c #b04828",
".x c #b04925",
"as c #b0492b",
"bz c #b04e2d",
"b0 c #b06441",
"b6 c #b0aea0",
"kR c #b0b0a8",
"gT c #b0b1a9",
"mI c #b0b1ab",
"#o c #b14624",
"aw c #b14628",
"bk c #b14928",
"aY c #b15231",
"kB c #b1b1a8",
"i1 c #b1b1ab",
"mJ c #b1b2ab",
"#G c #b24324",
"aE c #b24524",
"#x c #b24624",
"aF c #b24728",
"bA c #b24d2c",
"bb c #b25432",
"c. c #b2b1a1",
"cp c #b2b1a2",
"jO c #b2b1a4",
"gC c #b2b2aa",
"bj c #b34c2b",
"aT c #b3502f",
"bS c #b35c39",
"bE c #b36340",
"eY c #b3b4ae",
"#y c #b44322",
"#P c #b44324",
"#a c #b44424",
"au c #b44524",
".H c #b44a25",
"br c #b44d2b",
"hl c #b4b2a7",
"gP c #b4b4af",
"#q c #b5381a",
".E c #b5401e",
"#p c #b54321",
".3 c #b54424",
"#6 c #b54523",
".V c #b54524",
".M c #b54a25",
"bI c #b55d3a",
"bG c #b55f3c",
"aM c #b64624",
"#i c #b64a28",
"af c #b64c24",
"#8 c #b64c25",
"gR c #b6b8b1",
"#c c #b7401d",
"#9 c #b7421f",
".W c #b74622",
"ad c #b74623",
".R c #b74d25",
"mk c #b7b7af",
"gO c #b7b8b1",
"gQ c #b7b8b2",
".P c #b8411f",
"ag c #b84220",
".4 c #b84723",
".N c #b84b27",
".z c #b84b28",
"kQ c #b8bab3",
".5 c #b9411e",
".X c #b9421e",
"aN c #b94323",
"Qt c #b94924",
".d c #b94b24",
"aO c #b94c2b",
"by c #b95432",
"bi c #b95534",
".L c #ba4320",
".F c #ba4420",
"#X c #ba4723",
"al c #ba4724",
".l c #ba4b24",
"#m c #ba4b26",
"bu c #ba4f2d",
"a0 c #ba5330",
"es c #babab2",
"iU c #babab3",
"ib c #babbb1",
"j4 c #babbb3",
".p c #bb3f1d",
".i c #bb401d",
"#L c #bb4723",
"#v c #bb4c27",
"bf c #bb502d",
"a6 c #bb5330",
"bY c #bb633e",
"lZ c #bbbbb2",
"#Y c #bc4622",
"#M c #bc4722",
"#B c #bc4d27",
"a8 c #bc5834",
"bQ c #bc643e",
"lI c #bcbcb2",
"#r c #bd4321",
"#h c #bd4422",
".Y c #bd4a23",
"be c #bd4f2d",
"bw c #bd5733",
"a3 c #bd5835",
".6 c #be4a23",
"bc c #be502f",
"bn c #be512e",
"bp c #be5733",
"bL c #be643e",
"du c #bebfb6",
"hj c #bebfb7",
"d0 c #bec0b7",
"az c #bf512c",
"bv c #bf522e",
"aS c #bf5833",
"b3 c #bf6a42",
"h6 c #bfbfb6",
"#V c #c0441f",
"aI c #c0512c",
"hI c #c0c1b8",
"ls c #c0c1b9",
"gN c #c0c4be",
"#Q c #c14420",
"#T c #c14722",
"ap c #c15731",
"kb c #c1c4bb",
"#J c #c24520",
"#K c #c24721",
"#F c #c24722",
"bO c #c26740",
"#R c #c34721",
".1 c #c35025",
"aH c #c3562f",
"ay c #c3572f",
"hF c #c3c5be",
"#W c #c44821",
".b c #c44c25",
".8 c #c45126",
"a5 c #c4542f",
"b# c #c45b35",
"aW c #c45c36",
"c1 c #c4c5be",
"jK c #c4c6bf",
"jS c #c4c7bf",
".I c #c54c26",
".r c #c54d25",
"b. c #c5542e",
"aV c #c55933",
"bl c #c55d38",
"no c #c5c7bf",
"gc c #c5c8bf",
"aa c #c64922",
"#3 c #c64a23",
".k c #c64e27",
".q c #c64e28",
"bB c #c65933",
"aZ c #c65a36",
".B c #c74d26",
".a c #c74e27",
"bq c #c7623c",
"kO c #c7cac5",
"a7 c #c85e36",
"a2 c #c85e37",
"bx c #c8633d",
"fT c #c9ccc5",
"ba c #ca663a",
"hi c #caccc6",
"ju c #cacec6",
"m7 c #cacec7",
"bh c #cc653e",
"fr c #ccd1c9",
"aX c #cd683b",
".0 c #cf5225",
"gM c #cfd4d0",
"a4 c #d05f37",
"#u c #d15c2c",
"#l c #d15c2d",
"a9 c #d16038",
".O c #d2562a",
".C c #d2572a",
"aU c #d2623a",
".J c #d3572a",
"Qt.#.a.b.c.d.e.f.g.h.i.j.k.b.c.l.m.n.g.o.p.j.q.r.s.l.t.n.u.v.w.w.w.w.w.w.w.w.w.w",
".x.y.z.A.B.C.D.E.F.G.H.y.z.A.I.J.K.E.L.G.M.y.N.A.b.O.K.E.P.Q.w.w.w.w.w.w.w.w.w.w",
".R.S.T.U.V.W.X.Y.Z.0.1.2.T.U.3.4.5.6.7.0.8.9#.###a#b#c.6#d#e.w.w.w.w.w.w.w.w.w.w",
"#f#g#h#i#j#k#l#m#n#o#p#q#r#i#s#t#u#v#w#x#y#q#r#i#z#A#u#B#C#D.w.w.w.w.w.w.w.w.w.w",
"#E#F#G#H#I#J#K#L#M#N#O#F#P#H#I#Q#R#L#M#S#.#T.3#H#U#V#W#X#Y#Z.w.w.w.w.w.w.w.w.w.w",
"#0#1#2#3#4#5#6#7#8#9.ha.a#aaabacadaeafagaha.aiaaajakalamanao.w.w.w.w.w.w.w.w.w.w",
"apaqarasatauavawaxayazaAaBaCaDaEavaFaGaHaIaAaJaKaLaMaNaOaPaQ.w.w.w.w.w.w.w.w.w.w",
"aRaSaTaUaVaWaXaYaZa0a1a2a3a4a5aWaXaYaZa6a1a7a8a9b.b#babbbcbd.w.w.w.w.w.w.w.w.w.w",
"bebfbgaWbhbibjbkblbmbfbnbobpbqbibrbsblbtbubvbobwbxbybzbAbBbC.w.w.w.w.w.w.w.w.w.w",
"bDbEbFbGbHbIbJbKbLbMbNbObPbQbRbSbTbUbLbVbWbObXbYbZb0b1b2b3b4.w.w.w.w.w.w.w.w.w.w",
"b5b6b7b8b9c.c#cab8cbcccdcecfcgc.chcicjckclcmcncncocpcqcicrcsctcucvcwcxcyczcAcBcC",
"cDcEcFcGcHcIcJcKcLcMcNcOcPcQcRcScTcKcLcMcUcOcVcWcXcYcZcKcLc0c1c2c3c4cac5c6c7c8c9",
"d.d#dadbdcdddedfdgdhdidjdkdldmdndedfdocMdidjdpdldqdrdedfdsdtdudvdwdxdydzdAdBdCdD",
"dEdFdGdHdIdJdKdLdMdNdOdPdQdRdSdTdKdLdUdVdOdWdQdRdXdYdKdLdUdZd0d1d2d3d4dAd5d6d7d8",
"d9e.e#eaebecedeeedefege.eheiejekedeeelefegefemeieneoepeeeqereseteuevewexeyezeAeB",
"eCeDeEeFeGeHeIeJeKeLeMeNeOePeQeHeIeReKeLeSeTeOePeQeHeUeReVeWeXeYeZe0e1e2e3e4e5e6",
"e7e8e9f.f#fafbfcfdfefffgf#cLfhficOfjfkflfmfgf#cLfnfofpfjfkfqfrfsftfufvfwfxfyfzco",
"fAfBfCfDfEfFfGdffHfIfJfKfCfDfLfFfMfNfHfOfJfPfCfQfLfFfMfRfHfSfTfUfVc8fwcifWfXfYfZ",
"f0f1f2f3f4f1f5f6f7f8f9g.f2f3f4g.g#f6f7gafeg.f2dUdlg.g#f6f7gbgcgdgegfggghgigjgkgl",
"gmemgngoedgpgqgrgqgseogtguemgveqgwgrgxgygzgtguemgveqgwgAgxgBgCgDgEgFgGgHgIgJgKgL",
"gMgNgOgPgQgRgSgTgUgVgWgXgYgZg0g1g2g3g4g5gWgXg6gZg7g8g2g9g4h.h#hahbhchde2hehfhghh",
"hihjhkhlhmhnhohphqhrhshthuhvhwhxhyhvhzf#hAhBhuhvhChDhyhvhzhEhFdvhGc4cac5dAc7c8hH",
"hIhJhKhLhLhMhNhOhPhQhRhShThUhVhWhXhYhZh0h1hSh2hUh3dMhXhYh4h5h6h7h8dxdyh9i.i#dCia",
"ibicidieifigihiiijikiliminioipiqirisdNitiuiminiviwiqirisixiyd0d1izd3iAi.iBd6iCiD",
"iEiFdCiGiHhOiIeuiJiKiLgriMgxiNiOiPgpiQiLiLgriMgxiRiOiPiSiQiTiUeteuevewiViWiXiYiZ",
"i0i1i2i3i4i5i6i7i8i9j.j#jajbjcjdjejfjgiPfAjajajhjcjdjej.jijjjkjljmjnjojpjqjrjsjt",
"jujvjwjxjyhpfxjzjAjBjCfgjDjEfnfafpjFcVflfmjGjDcLfnfijHjFjIjJjKfXjLjMjNjOjPfxjQjR",
"jSjTjUjVjWjXjYifjZj0fJfKfCfDfLf#fMfNj1fIfJfKfCj2fLf#fMfRj1j3j4d5j5j6j7j8j9k.k#ka",
"kbkckdkekfhGkgdAkhkikjkkf5f3klkkkmknf7kokjf1f5f3klkkkpkqkrksktdCkukvkwkxfWkykzkA",
"kBkCgEkDkEkhgIgJkFkGkHgugnkIkJeqkKkLgukMekgugngnkJelemkLgukNkOkPkQkRkSkTkUgEkVkW",
"kXkYhbkZk0k1hek2k3k4k5eFk6k7k8k9l.l#lalblcldlelflglhl.l#gWliljlkllcrlmlnlolplqlr",
"lsiAd2ltluc5dBdBlvlwhAhBlxhvlyhDhyhvdjf#lzhBlxhvhClAhyhvcFfLlBlClDe7cRlElFjIlGlH",
"lIh7h8lJlKgidBdBlLlMh1lNhTlOlPhWhXhYhZlQfFlNlRlOlSdMhXhYhZlTdidjdplUkklVlWdflXlY",
"lZd1hGl0jPl1ihl2l3l4l5l6l7iol8iql9m.m#mailmbl7iviwmcl9m.dNmdmelUdGg.mfmgmhismimj",
"mkmleuigmmmnlLiXmompmqmrgqgumsmtmumviPmwmqmrmxguiNmtmymvmze.mAmBmCmDmEmFkJmGemmH",
"mImJi2mKmLmMmNmOmPmQmRmSl.mTmUmVmWmXmYiQmZmSl.mTmUmVmWm0m1kJmZm2m3eHmUeHj.m4m5m6",
"m7m8m9jZn.hpfxfyjAjBfmn#dhnafnnbjHnccPflndnedhcLnffangnccVnhninedhcLnfnjnknlnmnn",
"nojTjUjVkcnpjYnqnrj0fJnsfCfDfLf#fMfNinfIfJnsfCfDfLf#fMfRinfIfJnsntfQf.f#fMf3fHnu",
"kbnvnwnxkfnpkgiggknydTf6nznAklf6mhnBf7kodTf6nzntlxf6mhnBnCipkjf6nzf3manDimnEnFnG",
"kBkCgEnHnInJnKnLnMnNnOemgamCnPednQmrgnnRnSemgaganPedf8mrgnnTecemgakIkJnUnVnWgrnX"};
