/* XPM */
static char *dummy[]={
"40 40 882 2",
"Qt c None",
".i c #8f8e87",
".v c #a1a197",
".h c #b1b1a9",
".m c #b1b1aa",
".g c #b2b3ab",
".l c #b2b3ac",
".r c #b3b3ac",
".u c #b3b4ac",
".t c #b8bab3",
".p c #b9bab3",
".j c #b9bbb4",
".d c #babbb4",
".o c #bec1ba",
".b c #bec1bb",
".a c #bfc2bc",
".f c #c0c2bc",
".k c #c0c3bc",
".n c #c0c3bd",
".q c #c1c3bc",
".c c #c1c3bd",
".s c #c1c3be",
".# c #c1c4be",
".e c #c4c7c1",
"er c #4b3b20",
"eg c #4d3f27",
"dQ c #4e412a",
"eS c #4f4331",
"dI c #504938",
"e2 c #55370c",
"fr c #573d19",
"eq c #59380e",
"cM c #594f3e",
"dk c #5a4e36",
"cR c #5a503f",
"eR c #5c390d",
"dF c #5c4e34",
"cL c #5d5443",
"de c #5e5340",
"c8 c #5e5544",
"ad c #5e5950",
"dR c #5f5338",
"am c #5f5a51",
"cQ c #605134",
"ce c #60543b",
"cE c #60543d",
"dG c #605641",
"db c #605642",
"dl c #615742",
"cS c #615743",
"#X c #635f54",
"#1 c #645f54",
"da c #665432",
"dd c #665c47",
"cK c #665e4a",
"eh c #676150",
"dP c #69430c",
"cT c #695a3f",
"ax c #69665c",
"a# c #6a665a",
"e1 c #6b4007",
"fq c #6c4107",
"ef c #6d450b",
"dm c #6d5f42",
"e0 c #714405",
"cd c #716a5a",
"cD c #726b5a",
"fp c #734506",
"dc c #736b58",
"fB c #74490a",
"cB c #756f5f",
"cb c #766f5f",
"dH c #776e5a",
"fA c #7a4a06",
"ep c #7a4b08",
"f2 c #7a541c",
"k8 c #7a5b21",
"f1 c #7b4b06",
"gB c #7b5721",
"cc c #7b7461",
"cJ c #7b7565",
"eQ c #7c4c07",
"k3 c #7c5919",
"cC c #7c7462",
"cg c #7c7565",
"cG c #7c7665",
"jT c #7d5918",
"g# c #7f500c",
"cF c #7f7761",
"ca c #7f796a",
"cA c #7f7a6a",
"cj c #80725a",
"cf c #807964",
"ci c #807b6a",
"cI c #817b6b",
"#9 c #817b6f",
"#R c #817c6f",
"c# c #828179",
"cH c #837d6c",
"#8 c #837d71",
"bQ c #838175",
"h6 c #845a18",
"gb c #845b19",
"c7 c #846020",
"ch c #847d6c",
"#2 c #847d72",
"#Y c #847e72",
"#4 c #847f72",
"ga c #855a14",
"kH c #855b19",
"#Q c #857f72",
"#3 c #857f73",
"#S c #858073",
"iI c #865a16",
"kl c #865f25",
"gt c #86611c",
"dA c #86723c",
"#5 c #868074",
"#Z c #868174",
"ai c #86847a",
"k6 c #875c19",
"kj c #875e18",
"h7 c #875e1a",
"#m c #878175",
".5 c #878275",
"ap c #87847a",
"kY c #885c19",
"e7 c #885e18",
"#O c #888376",
"#P c #888477",
"#W c #888478",
"aW c #888479",
"gp c #895d19",
"iS c #89601a",
"e# c #897337",
"ac c #898378",
"#f c #898476",
"#a c #898477",
"#0 c #898478",
"#7 c #898579",
"gf c #8a5d19",
"kQ c #8a5d1b",
"kK c #8a5e19",
"al c #8a8478",
"av c #8a8479",
".4 c #8a8577",
"#v c #8a8578",
"a. c #8a8579",
"au c #8a877c",
"gc c #8b5e1b",
"dz c #8b6220",
"#n c #8b8577",
"## c #8b8678",
"#z c #8b8679",
"#t c #8b8779",
"bE c #8b877b",
"aq c #8b877c",
"bv c #8b887b",
"bl c #8b887c",
"aj c #8b887d",
"hZ c #8c5f19",
"kg c #8c601e",
"eI c #8c6420",
".X c #8c8779",
"#u c #8c877b",
"#I c #8c877c",
"#B c #8c887c",
"#w c #8c887d",
"k4 c #8d6221",
"kV c #8d6322",
"lV c #8d6723",
"#A c #8d887b",
"#H c #8d887c",
"eZ c #8e5c0a",
"gm c #8e6322",
"iz c #8e6b29",
"#N c #8e887c",
"bm c #8e897c",
"ab c #8e897d",
"bB c #8e8a7c",
"ar c #8e8a7d",
"kk c #8f601b",
"kf c #8f601c",
"lv c #8f692a",
"#g c #8f897d",
"bL c #8f8a7c",
"#U c #8f8a7f",
"#6 c #8f8b7f",
"aw c #8f8d82",
"ah c #8f8d83",
"at c #8f8d84",
"fy c #905d0b",
"fg c #90601c",
"k2 c #90611a",
"kb c #90611c",
"jk c #90641c",
"kP c #90661d",
"fh c #906622",
"#b c #908a7f",
"bg c #908c7f",
"aa c #908c80",
"ak c #908c81",
"ba c #908d7f",
"bM c #908d80",
"as c #908e84",
"fo c #915e0a",
"gs c #91611b",
"f# c #91611c",
"kT c #91621b",
"dJ c #917937",
"df c #917b3e",
".6 c #918c80",
".Q c #918c82",
"a7 c #918d7f",
"a0 c #918d80",
"bC c #918d81",
"bn c #918e81",
"an c #918f85",
"ag c #918f86",
"fz c #925d0c",
"f0 c #925e0c",
"gj c #92621b",
"kO c #92631b",
".W c #928d82",
".K c #928d83",
"aY c #928e81",
".P c #928e82",
"ae c #929086",
"k# c #93651f",
"iM c #93661d",
"gl c #93661f",
"aR c #938d80",
"aN c #938d81",
"aH c #938e81",
".J c #938e82",
".D c #938e83",
".E c #938e84",
"fZ c #94610c",
"hS c #94641b",
"j3 c #94661f",
"e. c #946924",
"j2 c #946b24",
"#V c #948f83",
"bo c #949185",
"bD c #949285",
"e3 c #956620",
"jE c #95691e",
"iV c #956c27",
"bJ c #959083",
"bN c #959285",
"af c #959388",
"ao c #959389",
"k. c #966721",
"#p c #969183",
"bz c #969184",
"bt c #969185",
"bj c #969283",
"a2 c #969284",
"b# c #969385",
"aZ c #969485",
"gJ c #97620f",
"gk c #976b1f",
"c9 c #977f3e",
"#x c #979283",
"#E c #979284",
"aC c #979285",
"aP c #979385",
"bh c #979389",
"lQ c #986c1f",
"lq c #986c22",
"ge c #986d1e",
"kJ c #986e1e",
"#D c #989284",
"#L c #989384",
"#y c #989385",
"aT c #989386",
"bs c #989587",
"bb c #98958a",
"hU c #99641a",
"j9 c #99651b",
"hY c #99671c",
"j6 c #99681f",
"kU c #996c1f",
"kR c #996e1e",
"#q c #999486",
"aG c #999487",
"az c #999587",
"#s c #999588",
".C c #99958a",
"bI c #999688",
".V c #99968a",
"a8 c #99968b",
"g. c #9a620c",
"j7 c #9a651b",
"gK c #9a6713",
"ka c #9a681f",
"ki c #9a6820",
"iE c #9a6c1e",
"i5 c #9a6e22",
"aM c #9a9587",
"#G c #9a9688",
"#M c #9a9689",
".O c #9a968b",
"#T c #9a978c",
"bO c #9a988e",
"fe c #9b661b",
"h4 c #9b671d",
"h5 c #9b681d",
"hX c #9b681e",
"e6 c #9b6920",
"iN c #9b6e1d",
"go c #9b7122",
"aX c #9b9789",
"aI c #9b988d",
"bF c #9b998f",
"bw c #9b9a90",
"e8 c #9c661b",
"f. c #9c671b",
"hV c #9c691b",
"a6 c #9c9889",
"b. c #9c988a",
"bp c #9c9b91",
"gA c #9d640c",
"ff c #9d671b",
"j8 c #9d671c",
"hW c #9d681c",
"h3 c #9d681d",
"iF c #9d691d",
"kc c #9d6b23",
"iv c #9d6f1f",
"cU c #9d701e",
"eB c #9d7021",
"g3 c #9d7124",
"kX c #9d7223",
"ju c #9d722c",
"k5 c #9d7323",
"#o c #9d9889",
"bf c #9d998a",
"aA c #9d9a8f",
"hT c #9e661d",
"h2 c #9e671d",
"hR c #9e6c1f",
"hB c #9e7220",
"eJ c #9e8235",
"#C c #9e9989",
"#K c #9e998a",
".3 c #9e9a8b",
".B c #9e9a8d",
".N c #9e9a8e",
"br c #9e9b8d",
"by c #9e9c8d",
"e9 c #9f681c",
"fa c #9f6c24",
"jO c #9f6f1e",
"#l c #9f9b8c",
"bH c #9f9c8e",
"dj c #a06c13",
"j4 c #a06c1e",
"ib c #a0731f",
"eo c #a1660a",
"ke c #a16c1f",
"iH c #a16f1d",
"cN c #a18740",
"e4 c #a26d1f",
"fc c #a26e1f",
"iP c #a26f1d",
"hr c #a2701e",
"iL c #a2711f",
"ay c #a29e90",
"aU c #a29f92",
"h1 c #a36d20",
"kd c #a36e23",
"hy c #a3721f",
"iR c #a37220",
"lE c #a37320",
"#j c #a39e91",
"#e c #a39f91",
".9 c #a39f92",
"aQ c #a39f93",
"bu c #a3a092",
"eP c #a4680b",
"dO c #a46a0a",
"fb c #a46f24",
"lB c #a4711f",
"iK c #a47321",
"c5 c #a47720",
"jn c #a47725",
"c6 c #a47821",
".0 c #a49f92",
".Z c #a4a092",
"aK c #a4a093",
"bA c #a4a192",
"bK c #a4a193",
"aD c #a4a194",
"iG c #a5721f",
"lJ c #a5731f",
"iQ c #a57620",
"iJ c #a57720",
"ig c #a57721",
"c4 c #a57820",
".8 c #a5a192",
"#d c #a5a193",
"#i c #a5a293",
"#r c #a5a294",
".A c #a5a295",
"lP c #a6741f",
"hn c #a67821",
"iy c #a67921",
"iY c #a67926",
".I c #a6a295",
"#F c #a6a394",
".M c #a6a395",
"aB c #a6a597",
"b9 c #a6a59c",
"bV c #a6a69c",
"dE c #a77112",
"lU c #a7751f",
"hw c #a77821",
"d3 c #a77926",
"c0 c #a77a22",
"kG c #a77d32",
"h0 c #a86d1d",
"iW c #a87726",
"c1 c #a87a21",
"if c #a87a22",
"#k c #a8a495",
"#. c #a8a595",
".1 c #a8a596",
"bd c #a8a696",
"aJ c #a8a698",
"ee c #a96e0a",
"dS c #a97826",
"c2 c #a97a21",
"iw c #a97b21",
"cW c #a97b22",
"dU c #a97b27",
"ei c #a98b37",
"a5 c #a9a697",
".2 c #a9a797",
"aO c #a9a89a",
"j5 c #aa7324",
"jm c #aa7627",
"lH c #aa7a21",
"cZ c #aa7a22",
"jt c #aa7a2d",
"c3 c #aa7b21",
"cY c #aa7b22",
"fS c #aa7b28",
"cV c #aa7c22",
"a3 c #aaa798",
"a1 c #aaa799",
"aS c #aaa99c",
"kh c #ab7324",
"gg c #ab7621",
"gq c #ab7720",
"gh c #ab7821",
"lR c #ab7b21",
"ie c #ab7b22",
"ix c #ab7c21",
"cX c #ab7c22",
"kA c #ab7c29",
"ic c #ab7d22",
"a9 c #aba89a",
".z c #aba89b",
".H c #aba89c",
"bq c #aba99c",
"kN c #ac7322",
"h# c #ac7416",
"gi c #ac7422",
"e5 c #ac7525",
"kZ c #ac7721",
"d2 c #ac7828",
"dn c #ac7921",
"gd c #ac7a24",
"id c #ac7d23",
"bc c #aca99b",
".U c #aca99c",
"#J c #acaa9c",
"bx c #acaa9d",
"gr c #ad7422",
"k1 c #ad7522",
"fd c #ad7525",
"iO c #ad7722",
"jH c #ad7820",
"kS c #ad7821",
"kL c #ad7822",
"k0 c #ad7920",
"eu c #ad7923",
"jp c #ad7925",
"jq c #ad7926",
"hu c #ad7a22",
"d9 c #ad7c2e",
"aF c #ada99b",
"bi c #adaa9c",
"bG c #adaa9e",
"bP c #adab9f",
"b6 c #adada4",
"b2 c #adaea4",
"k7 c #ae7522",
"jQ c #ae7921",
"kM c #ae7a22",
"eD c #ae7a23",
"kI c #ae7c24",
"js c #ae7c2b",
"i4 c #ae7c2e",
"bU c #aeaea5",
"d5 c #af7a26",
"jx c #af7b23",
"lM c #af7c23",
"kF c #af7c25",
"ey c #af7d25",
"eG c #af7e25",
"d0 c #af7e2f",
"f9 c #b07b12",
"d6 c #b07b27",
"iX c #b07b2a",
"iA c #b07c22",
"d8 c #b07d2b",
"gn c #b07f2b",
".Y c #b0aea0",
"bX c #b0afa6",
"b8 c #b0b0a7",
"b5 c #b0b1a7",
"bT c #b0b1a8",
"iD c #b17c22",
"jL c #b17d22",
"fK c #b17e25",
"kx c #b17e26",
".y c #b1aea3",
".7 c #b1afa0",
"#c c #b1afa1",
"bS c #b1b2aa",
"b1 c #b1b3aa",
"dT c #b27c2b",
"jV c #b27d24",
"jB c #b28026",
"kW c #b2812b",
"aE c #b2afa3",
"#h c #b2b0a1",
"b4 c #b2b3ab",
"jd c #b37720",
"gz c #b37f14",
"jZ c #b38026",
"aL c #b3b0a3",
"aV c #b3b0a4",
"a4 c #b3b1a4",
"be c #b3b2a5",
"bY c #b3b4ab",
"jc c #b47c2b",
"lf c #b47e29",
"bk c #b4b2a5",
"b0 c #b4b4ac",
"bZ c #b4b5ac",
"bR c #b4b5ad",
"j. c #b5761f",
"ii c #b57c25",
"is c #b57d25",
"jj c #b57d2c",
"i0 c #b57e27",
"jl c #b57f2a",
"jo c #b58029",
"i3 c #b5812e",
".S c #b5b3aa",
".x c #b5b4aa",
".G c #b5b4ab",
".T c #b5b5ab",
"en c #b67a0f",
"i2 c #b6882d",
"le c #b77f31",
"d1 c #b7802b",
"g2 c #b87f32",
"dW c #b88028",
"i1 c #b88029",
"gU c #b88032",
"d4 c #b8812a",
"dZ c #b8832f",
".w c #b8b7af",
".F c #b8b8b0",
"lb c #b97c2a",
"eO c #b97d10",
"dp c #b98224",
"cz c #b98e39",
".L c #b9b9b0",
".R c #b9b9b1",
"gQ c #ba7d2a",
"lc c #ba8132",
"dy c #ba8224",
"dt c #ba8324",
"ld c #ba8337",
"es c #ba8828",
"dY c #ba8a2e",
"jf c #bb7f23",
"dX c #bb822a",
"gR c #bb8232",
"dw c #bb8324",
"iZ c #bb832b",
"eY c #bb840f",
"li c #bb8437",
"gT c #bb8538",
"kt c #bb872d",
"jr c #bb8a2d",
"bW c #bbbcb2",
"jh c #bc7a22",
"j# c #bc7b22",
"l. c #bc7e2a",
"i8 c #bc7f23",
"la c #bc7f29",
"lt c #bc8128",
"dx c #bc8324",
"fG c #bc8325",
"dq c #bc8424",
"dv c #bc8425",
"lp c #bc8436",
"g1 c #bc8437",
"hA c #bc8629",
"ha c #bc8f36",
"b3 c #bcbcb3",
"b7 c #bcbdb4",
"i7 c #bd7d28",
"gN c #bd7e29",
"jb c #bd8029",
"lo c #bd8128",
"do c #bd8424",
"du c #bd8425",
"kE c #bd8426",
"dr c #bd8524",
"ds c #bd8525",
"lu c #bd8536",
"eE c #bd8627",
"hx c #bd8b27",
"c. c #bdbdb4",
"ll c #be7f2b",
"gP c #be8129",
"g0 c #be8228",
"ji c #be822a",
"jR c #be8424",
"iU c #be8524",
"iT c #be8525",
"dV c #be852c",
"fn c #be860f",
"iB c #be8625",
"ev c #be8627",
"ht c #be872a",
"hl c #be8927",
"ho c #be8b27",
"gX c #bf802b",
"ln c #bf822b",
"gS c #bf8328",
"jI c #bf8524",
"il c #bf8625",
"jW c #bf8627",
"lL c #bf882b",
"lS c #bf8c28",
"jv c #bf8c29",
"d7 c #bf8d2e",
"i9 c #c07f23",
"gZ c #c0832b",
"iC c #c08625",
"lD c #c0882b",
"jF c #c08a27",
"lO c #c08d28",
"jg c #c17f23",
"i6 c #c18627",
"lF c #c18b27",
"lI c #c18d28",
"g6 c #c18e17",
"ly c #c18e28",
"gE c #c18f18",
"ij c #c28229",
"ls c #c2872b",
"lj c #c2872c",
"iu c #c28826",
"gV c #c2882c",
"jy c #c28928",
"eC c #c28b29",
"lh c #c38729",
"lm c #c3872b",
"eH c #c38828",
"jP c #c38a26",
"lw c #c38d28",
"ia c #c39438",
"jM c #c48625",
"l# c #c48729",
"lg c #c48827",
"ez c #c48828",
"gO c #c48829",
"gY c #c4882b",
"ip c #c48926",
"jU c #c48c29",
"hh c #c48d23",
"hz c #c48e30",
"hs c #c58f30",
"gI c #c59526",
"hg c #c5962f",
"je c #c68428",
"lk c #c68528",
"lr c #c68628",
"k9 c #c68927",
"gM c #c68928",
"j0 c #c68929",
"lK c #c69031",
"gW c #c78628",
"jC c #c78a29",
"jS c #c78c29",
"ky c #c78f31",
"lC c #c79131",
"in c #c88a2e",
"ik c #c88b2d",
"hm c #c88c27",
"im c #c88c2e",
"fL c #c89031",
"ks c #c98b29",
"jN c #c98d29",
"eA c #c98f2c",
"ex c #c9902b",
"kw c #ca8d2c",
"fN c #ca8e2b",
"fD c #ca8f2b",
"eF c #ca912b",
"h. c #ca9c2b",
"io c #cb8c2b",
"lx c #cb8d27",
"fJ c #cb8d2a",
"lG c #cb8e27",
"kq c #cb8e2c",
"kr c #cb8e2d",
"jK c #cb8f28",
"kC c #cb8f2b",
"kv c #cb902c",
"jD c #cb912d",
"it c #cc8d2b",
"fQ c #cc8f2c",
"fH c #cc8f2d",
"kn c #cc902c",
"fI c #cc902e",
"j1 c #cc912d",
"jA c #cc922b",
"hL c #cc9c3c",
"kz c #cd8e2b",
"ja c #cd9128",
"hv c #cd9129",
"jY c #cd932c",
"fR c #ce8f2b",
"fM c #ce9330",
"kB c #ce9331",
"f3 c #cea22c",
"lN c #cf922a",
"dN c #cf9713",
"cP c #d0ae3d",
"jG c #d1952b",
"et c #d1972e",
"ed c #d29b14",
"fx c #d2a226",
"ir c #d3922d",
"hp c #d3982c",
"jw c #d3982e",
"gL c #d39d2d",
"fY c #d3a429",
"ew c #d4992e",
"fC c #d49b2f",
"ku c #d49b30",
"jJ c #d5972b",
"lz c #d5992c",
"hq c #d59a2c",
"f5 c #d5a22b",
"iq c #d6922b",
"kp c #d69632",
"kD c #d69633",
"jX c #d69a2e",
"jz c #d69a2f",
"lT c #d69b2d",
"km c #d69d30",
"hf c #d6a836",
"fF c #d79732",
"fP c #d79733",
"ih c #d79a2e",
"hQ c #d79b2c",
"lA c #d79b2d",
"gw c #d7a228",
"fU c #d7a42a",
"ft c #d7a42c",
"d# c #d7b743",
"f6 c #d8a42a",
"fT c #d8a830",
"g7 c #d8ac33",
"ko c #d99b35",
"gF c #d9ad33",
"fE c #da9c35",
"fX c #daaa2b",
"fw c #daaa2d",
"f4 c #daad2c",
"fO c #db9d35",
"gD c #dba423",
"fs c #dbab2f",
"gv c #dbaf2e",
"ck c #dca438",
"he c #dca52e",
"g5 c #dea624",
"gC c #dea62c",
"hM c #dfa32f",
"di c #dfb43b",
"eX c #e0b329",
"g8 c #e0b638",
"f8 c #e0b94e",
"gG c #e1b73a",
"hk c #e2a830",
"gu c #e2b033",
"fV c #e2b43b",
"dD c #e2ba42",
"gy c #e2bc53",
"fv c #e3b232",
"fu c #e3b63c",
"cx c #e4aa38",
"fW c #e4b434",
"fm c #e4b82c",
"cu c #e5a836",
"co c #e5a936",
"cw c #e5a937",
"fi c #e5bc4c",
"ea c #e6be39",
"i# c #e7a830",
"cv c #e7aa38",
"ct c #e7ab38",
"em c #e7bc3b",
"hi c #e8ac2f",
"cn c #e8ac38",
"cs c #e8ac39",
"cr c #e8ad3a",
"cl c #e8ae3a",
"cm c #e8af3a",
"eU c #e8b838",
"fj c #e8b938",
"eT c #e8bf4b",
"i. c #e9a930",
"h9 c #e9aa30",
"hJ c #e9ab2f",
"hN c #e9ab31",
"cp c #e9ad39",
"cq c #e9ad3a",
"hb c #e9ae31",
"cy c #e9af3a",
"h8 c #eaaa30",
"hP c #eaab30",
"hO c #eaac31",
"eN c #eac241",
"g9 c #eac759",
"gH c #eac75a",
"dK c #ebc13b",
"eK c #ebc74c",
"gx c #ecc857",
"f7 c #ecc95a",
"hI c #eeb131",
"hd c #eeb230",
"ej c #eec94c",
"eW c #f0cd45",
"hE c #f1b332",
"fl c #f1ce47",
"hK c #f2b333",
"fk c #f2cd46",
"eV c #f2cf49",
"hG c #f3b635",
"g4 c #f3b732",
"hF c #f3b736",
"dM c #f3d766",
"hj c #f4b633",
"ec c #f4da6e",
"d. c #f4da6f",
"eM c #f5d237",
"el c #f5d33b",
"dB c #f5de84",
"hH c #f6bc3a",
"cO c #f6dc72",
"dg c #f7e08a",
"hC c #f8b835",
"hD c #f8b935",
"hc c #f8ba35",
"eL c #f9d948",
"ek c #f9da47",
"eb c #f9dc5a",
"dL c #f9de61",
"dh c #fae68f",
"dC c #fae794",
"QtQtQtQtQtQtQtQtQtQtQtQtQtQtQtQtQtQtQtQtQtQtQtQtQtQtQtQtQtQtQtQtQtQtQtQtQtQtQtQt",
"QtQtQtQtQtQtQtQtQtQtQtQtQtQtQtQtQtQtQtQtQtQtQtQtQtQtQtQtQtQtQtQtQtQtQtQtQtQtQtQt",
"QtQtQtQtQtQtQtQtQtQtQtQtQtQtQtQtQtQtQtQtQtQtQtQtQtQtQtQtQtQtQtQtQtQtQtQtQtQtQtQt",
"QtQtQtQtQtQtQtQtQtQtQtQtQtQtQtQtQtQtQtQtQtQtQtQtQtQtQtQtQtQtQtQtQtQtQtQtQtQtQtQt",
"QtQtQtQtQtQtQtQtQtQtQtQtQtQtQtQtQtQtQtQtQtQtQtQtQtQtQtQtQtQtQtQtQtQtQtQtQtQtQtQt",
"QtQtQtQtQtQtQtQtQtQtQtQtQtQtQtQtQtQtQtQtQtQtQtQtQtQtQtQtQtQtQtQtQtQtQtQtQtQtQtQt",
"QtQtQtQtQtQtQtQtQtQtQtQtQtQtQtQtQtQtQtQtQtQtQtQtQtQtQtQtQtQtQtQtQtQtQtQtQtQtQtQt",
"QtQtQtQtQtQtQtQtQtQtQtQtQtQtQtQtQtQtQtQtQtQtQtQtQtQtQtQtQtQtQtQtQtQtQtQtQtQtQtQt",
"QtQtQtQtQtQtQtQtQtQtQtQtQtQtQtQtQtQtQtQtQtQtQtQtQtQtQtQtQtQtQtQtQtQtQtQtQtQtQtQt",
"QtQtQtQtQtQtQtQtQtQtQtQtQtQtQtQtQtQtQtQtQtQtQtQtQtQtQtQtQtQtQtQtQtQtQtQtQtQtQtQt",
".#.a.b.c.d.e.f.g.h.i.#.a.b.c.j.e.k.l.m.i.n.a.o.c.p.e.q.r.m.i.n.a.o.s.t.e.c.u.m.v",
".w.x.x.y.z.A.B.C.D.E.F.x.G.y.H.I.B.C.J.K.L.x.G.y.H.M.N.O.P.Q.R.S.T.y.U.M.N.V.W.X",
".Y.Z.0.1.2.3.4.4.5.6.7.8.9#..2.3###a.5#b#c#d#e#..2.3.X#f.5#g#h#i#j#k.2#l.X#f#m#n",
".U#o#p#q#r#s#t#u#v#w.U#o#x#y#r#s#z#A#a#B.U#C#D#E#F#G#z#H#a#I#J#K#L#p.M#M#z#N#O#P",
"#Q#Q#R#S#m#T#U#V#W#X#Y#Q#R#Q#Z#T#U#V#0#1#2#3#R#4#5#T#6#V#7#1#8#3#9#4#5#T#6#Va.a#",
"#waaabacadaeafagahaiajakabalamanaoanahapaqakaralamasaoanatapauakaravamawaoanasax",
"ay#qaz.JaAaBaCaDaEaFayaGazaHaIaJaCaKaLaFayaMazaN#TaOaPaQaLaFayaMazaR.VaSaTaUaVaW",
"aXaYaZa0#Ta1a2a3a4a5a6aYaZa7a8a9a2a5a4a5b.aHb#babbbca2bdbea5bfaHb#bgbhbibj.1bkbl",
"bmbnboblbpbqbrbsbtbubmbnbobvbwbxby#sbzbAbBbCbDbEbFbGbHbIbJbKbLbMbNbEbObPbHbIbJbQ",
"bRbSbTbUbVbWbXbYbZb0bRb1bTb2bVb3bXbYbZb0bRb4b5b6bVb7bXbYbZb0bRb4b8b6b9c.bXbYbZc#",
"cacbcccdcecfcgchcicjckclcmcncocncncncpcqcrcscsctcucvcwcxcyczcAcBcCcDcEcFcGcHcIcJ",
"cKcLcMcNcOcPcQcRcScTcUcVcWcXcYcYcZc0c1c2c1c3c1c2c3c1c4c5c6c7cKc8cMc9d.d#dacMdbdc",
"dddedfdgdhdidjdkdldmdndodpdqdrdsdtdudvdtdwdxdpdydxdwdydydwdzdddedAdBdCdDdEdFdGdH",
"dIdJdKdLdMdNdOdPdQdRdSdTdUdVdWdXdYdZd0dSd1d2d3d4d5d6d7d8d9e.dIe#eaebecedeeefegeh",
"eiejekelemeneoepeqereseteuevewexeyezeAeBeCeteDeEeweFeGeHeAeIeJeKeLeMeNeOePeQeReS",
"eTeUeVeWeXeYeZe0e1e2e3e4e5e6e7e8e9f.f#fafbfcfde6e7fee9fffgfhfifjfkflfmfnfofpfqfr",
"fsftfufvfwfxfyfzfAfBfCfDfEfFfGfHfIfJfKfLfMfNfOfPfGfQfIfReyfSfTfUfVfWfXfYfZf0f1f2",
"f3f4f5f6f7f8f9g.g#gagbgcgdgegfggghgigjgkglgmgngogpgggqgrgsgtgugvf5gwgxgygzgAg#gB",
"gCgDgEgFgGgHgIgJgKgLgMgNgOgPgQgRgSgTgUgVgWgXgYgZgQgRg0g1g2g3g4g5g6g7g8g9h.gJh#ha",
"hbhchdhehfhghhhihjhkhlhmhnhohphqhrhshthuhvhmhwhxhphqhyhzhAhBhChDhEhFhGhHhIhJhKhL",
"hMhNhOhPhPhPhPhPhPhQhRhShThUhVhWhXhYhZh0h1hSh2hUhVh3h4h5h6h7h8h9i.i.i.i.i#i#hOia",
"ibiccXidcXcXieifc3igihiiijikiliminioipiqirisijikiliminitiuiviwixiwc3ixiwiyhniyiz",
"iAildviBiCildsiliBiDiEiFiGiHiIiJiKiLiMiNiOiFiGiPiIiQiKiRiMiSdsiTdvdqiUiTdqdvdsiV",
"iWiXiYiZi0i1i2i3i4i5i6i7i8i9j.j#jajbjcjdjei7jfjgj.jhjajijjjkjljmjnjojpjqjrjsjtju",
"jvjwjxjyjzjAjBjCjDjEjFjGjHjIjJjKjLjMjNjOjPjGjQjRjJjKjLjMjSjTjUjwjVjWjXjYjZj0j1j2",
"j3j4j5j6e7j7j8j9f#k.k#j4j5kae7j7j8j7kbkckdkej5kae7j7j8fekfkgkdkekhkikjj7j8fekkkl",
"kmknkokpfGkqkrksjZktkukvkokpfGkwkrfJkxkyfMkvkokpdukwkrkzeykAkBkCkokDkEkwkrfRkFkG",
"kHgckIkJkKkLkMkNkOkPgbkQkIkRgpkShugrkTkUk#kVkWkXkYkZk0k1k2k3j3k4kWk5k6kZk0k7k2k8",
"k9l.l#lalblcgSldlelflggNlhjblblcg0lileljlklllmlnlblclolplelqlrlllsgZlblcltlulelv",
"lwlxc2lylzlAlBlClDlElFlGlHlIlzlAlJlKlLlMlNlxlHlOlzlAlPlKhtlQlNlxlRlSlzlTlUhshtlV"};
