/* XPM */
static char *dummy[]={
"40 40 764 2",
"iP c #605a49",
"hi c #686354",
"f# c #6a6556",
"aQ c #6c6759",
"ai c #4c4638",
"eR c #575040",
"g9 c #585141",
"iG c #595242",
"jV c #1e1b15",
"j1 c #1f1b15",
"j4 c #1f1c15",
"j5 c #201c15",
"j2 c #26221c",
"jO c #27231c",
"jW c #27231d",
"jT c #28231c",
"jF c #28241b",
"cP c #29241b",
"jX c #29241d",
"jM c #29251b",
"jU c #29251d",
"fZ c #2a241c",
"f4 c #2a251c",
"jP c #2a251d",
"f6 c #2b251c",
"f7 c #2b251d",
"hX c #2b261d",
"jY c #2b271e",
"hZ c #2c261d",
"jS c #2c271f",
"jZ c #2c281f",
"jQ c #2d2920",
"jN c #2d2921",
"j3 c #2e2a21",
"am c #2f2920",
"jR c #2f2a21",
"j0 c #2f2b21",
"av c #302921",
"e2 c #302a1f",
"eZ c #302a20",
"iO c #302b20",
"iV c #312a20",
"aA c #312a21",
"he c #312b20",
"e8 c #312b21",
"iK c #312c21",
"i3 c #322c22",
"i6 c #332c22",
"hp c #332d23",
"hu c #342e23",
"hz c #342e24",
"fe c #342f24",
"h4 c #352e23",
"fl c #352f24",
"ga c #363024",
"fo c #363025",
"eU c #363227",
"da c #373126",
"jE c #373227",
"h. c #373228",
"cW c #383126",
"cT c #383226",
"cO c #383227",
"aZ c #383228",
"jx c #383327",
"a6 c #383328",
"fY c #393227",
"hV c #393328",
"cU c #39332a",
"jp c #393427",
"aB c #39342a",
"cQ c #3a3327",
"hS c #3a3328",
"cN c #3a3429",
"aw c #3a342b",
"cn c #3a3529",
"an c #3a352b",
"eX c #3b3428",
"cK c #3b3429",
"eH c #3b3528",
"cu c #3b3529",
"f2 c #3b352a",
"hW c #3b352b",
"hN c #3b3629",
"hT c #3b362c",
"hU c #3c3429",
"g4 c #3c3528",
"au c #3c3529",
"eY c #3c352a",
"iD c #3c3628",
"eC c #3c3629",
"f3 c #3c362a",
"hc c #3d3529",
"e7 c #3d3629",
"cR c #3d362a",
"hf c #3d362b",
"i# c #3d362c",
"hd c #3d372a",
"cM c #3d372b",
"id c #3d372c",
"ie c #3d372d",
"f0 c #3e372a",
"ao c #3e372b",
"cV c #3e372c",
"iJ c #3e382b",
"f5 c #3e382c",
"gi c #3e382d",
"eB c #3f372a",
"aC c #3f372b",
"e9 c #3f372c",
"iA c #3f382a",
"eG c #3f382b",
"ap c #3f382c",
"aD c #3f382d",
"gq c #3f382e",
"eW c #3f392d",
"jK c #3f392e",
"jJ c #3f3a2e",
"g6 c #40382b",
"hY c #40382c",
"hQ c #40392c",
"aE c #40392d",
"dj c #40392e",
"dn c #40392f",
"jD c #403a2c",
"ha c #403a2d",
"eT c #403a2e",
"eV c #403a2f",
"e0 c #403b2f",
"al c #413a2d",
"aq c #413a2e",
"e3 c #413a2f",
"et c #413b2e",
"eS c #413b2f",
"#6 c #413b30",
"iw c #413c2e",
"jc c #413c2f",
"h# c #413c30",
"ak c #423a2e",
"jG c #423b2e",
"cL c #423b2f",
"e1 c #423b30",
"hg c #423c2f",
"eN c #423c30",
"#Z c #423c31",
"hh c #423d31",
"jC c #433c2f",
"cS c #433c30",
"iH c #433c31",
"iN c #433d30",
"iL c #433d31",
"iM c #433e32",
"cm c #443d2f",
"ct c #443d30",
"hR c #443d31",
"f1 c #443e31",
"cJ c #443e33",
"jA c #443f32",
"fU c #453e30",
"aj c #453e31",
"at c #453e32",
"fX c #453f34",
"jB c #463f30",
"jI c #463f31",
"az c #463f32",
"jL c #464031",
"e4 c #464032",
"jH c #473f30",
"gY c #473f31",
"it c #474031",
"iI c #474032",
"e6 c #474033",
"hP c #474035",
"ei c #484031",
"gV c #484032",
"hb c #484033",
"ed c #484132",
"ar c #484133",
"ax c #484134",
"gS c #494132",
"es c #494133",
"f. c #494234",
"ay c #494335",
"ju c #4a4233",
"#O c #4a4234",
"jq c #4a4332",
"jv c #4a4333",
"as c #4a4335",
"e5 c #4a4436",
"#P c #4a4538",
"#Y c #4c4436",
"b3 c #4c4536",
"fI c #4c4537",
"jo c #4d4435",
"#5 c #4d4436",
"eM c #4d4537",
"bX c #4d4637",
"fG c #4d483a",
"jz c #4e4435",
"jl c #4e4534",
"ec c #4e4535",
"eb c #4e4536",
"fC c #4e483b",
"b# c #4e4940",
"gR c #4f4536",
"eh c #4f4537",
"is c #4f4636",
"gX c #4f4637",
"d6 c #4f4838",
"em c #4f493b",
"by c #4f493c",
"cx c #504838",
"cv c #504839",
"ho c #50483b",
"cs c #504938",
"#x c #50493c",
"br c #504a3c",
"bW c #514838",
"jr c #514938",
"cg c #514939",
"hA c #51493c",
"jy c #514a38",
"fP c #514a39",
"gH c #514a3c",
"#t c #514a3d",
"cX c #514e47",
"eF c #524838",
"hK c #524938",
"fN c #524939",
"jw c #524a38",
"cl c #524a39",
"ev c #524a3a",
"dR c #524a3c",
"fk c #524a3d",
"gD c #524b3c",
"dF c #524b3d",
"fR c #534a39",
"fT c #534a3a",
"d5 c #534a3c",
"jm c #534b38",
"ew c #534b3a",
"dO c #534b3d",
"eE c #534c3a",
"iB c #534c3b",
"gB c #534c3d",
"fv c #534c3e",
"#R c #534d3a",
"iR c #534d40",
"js c #544b39",
"cp c #544b3a",
"ch c #544b3b",
"gL c #544b3c",
"#1 c #544c3a",
"ix c #544c3b",
"ez c #544d3b",
"i1 c #544d3e",
"aY c #544d3f",
"fV c #554b3b",
"jd c #554c39",
"#S c #554c3a",
"eP c #554c3b",
"g1 c #554d3b",
"b. c #554d3f",
"iU c #554d40",
"iC c #554e3b",
"iy c #554e3c",
"h3 c #554e41",
"iW c #564e3f",
"i5 c #564e41",
"iQ c #565042",
"iZ c #565144",
"er c #574e3c",
"ck c #574e3e",
"#4 c #57503d",
"i. c #575042",
"g# c #575043",
"co c #575142",
"i0 c #575143",
"#Q c #575242",
"#N c #584d3c",
"ir c #584e3b",
"#X c #584e3c",
"#i c #584e3d",
"cy c #584e3e",
"gO c #584f3b",
"d9 c #584f3c",
"#M c #584f3d",
"fQ c #584f3e",
"#V c #58513d",
"ic c #585143",
"hw c #585144",
"hr c #585145",
"g7 c #58523e",
"#0 c #585242",
"#7 c #585243",
"i4 c #585244",
"eu c #58533e",
"iS c #585346",
"eL c #594e3d",
"hM c #594f3e",
"jt c #59503d",
"#s c #59503e",
"hv c #595243",
"gh c #595244",
"d# c #595245",
"hO c #595343",
"iX c #595345",
"hm c #595346",
"eO c #595444",
"eq c #5a4f3f",
"bV c #5a503d",
"b2 c #5a503e",
"dT c #5a503f",
"jn c #5a513e",
"cj c #5a513f",
"dG c #5a5140",
"d7 c #5a523d",
"gM c #5a523e",
"cr c #5a523f",
"gl c #5a5244",
"ee c #5a533e",
"gp c #5a5344",
"ht c #5a5345",
"fj c #5a5446",
"i2 c #5a5447",
"iT c #5a5547",
"eA c #5b503f",
"#m c #5b513d",
"b6 c #5b513e",
"ea c #5b513f",
"g3 c #5b5140",
"cw c #5b523f",
"ey c #5b5240",
"dM c #5b5241",
"gT c #5b533e",
"ej c #5b533f",
"eD c #5b5340",
"hy c #5b5345",
"gW c #5b543f",
"#j c #5b5444",
"cf c #5b5445",
"dm c #5b5446",
"fb c #5b5547",
"hx c #5b5647",
"hn c #5b5649",
"#h c #5c513e",
"#r c #5c513f",
"iz c #5c5140",
"bR c #5c523d",
"#w c #5c523f",
"#W c #5c5240",
"gz c #5c5241",
"dN c #5c5242",
"b5 c #5c533e",
"fW c #5c5340",
"g2 c #5c5341",
"#8 c #5c543f",
"iu c #5c5440",
"g5 c #5c5441",
"fM c #5c5445",
"ff c #5c5545",
"fd c #5c5546",
"hs c #5c5647",
"hl c #5c5648",
"h7 c #5c5749",
"cz c #5c584e",
"eK c #5d5341",
"gA c #5d5342",
"im c #5d5343",
"#2 c #5d5440",
"dL c #5d5442",
"gC c #5d5443",
"#T c #5d5540",
"g8 c #5d5541",
"iF c #5d5542",
"fr c #5d5548",
"eJ c #5d5642",
"fp c #5d5646",
"fu c #5d5647",
"iY c #5d5749",
"fs c #5d574a",
"fn c #5d5849",
"fc c #5d584b",
"be c #5d5950",
"cq c #5e5540",
"ci c #5e5541",
"d3 c #5e5542",
"aX c #5e5647",
"#U c #5e5743",
"a5 c #5e5747",
"a9 c #5e5748",
"aT c #5e5849",
"aU c #5e584a",
"hq c #5e584b",
"ge c #5e594b",
"fS c #5f5541",
"ip c #5f5542",
"fO c #5f5641",
"eI c #5f5642",
"jb c #5f5645",
"#3 c #5f5743",
"a8 c #5f574a",
"a7 c #5f5848",
"a4 c #5f584a",
"aV c #5f594b",
"iE c #605642",
"dH c #605644",
"d4 c #605645",
"gN c #605740",
"ex c #605742",
"g0 c #605743",
"eQ c #605843",
"a0 c #605949",
"h2 c #60594a",
"ft c #605a4c",
"fi c #605a4d",
"fm c #605b4d",
"#g c #615542",
"gK c #615645",
"d8 c #615740",
"iv c #615743",
"gx c #615745",
"iq c #615746",
"ef c #615840",
"ek c #615841",
"#L c #615a48",
"h8 c #615a4c",
"df c #615b4d",
"fg c #615b4e",
"dX c #615c4f",
"gZ c #625743",
"bU c #625843",
"#q c #625844",
"el c #625845",
"il c #625846",
"hL c #625943",
"h9 c #625a4b",
"g. c #625b4d",
"aW c #625c4d",
"h6 c #625c4e",
"fh c #625c4f",
".2 c #625d4f",
"h1 c #625d50",
"h0 c #625f53",
"gP c #635844",
"fK c #635943",
"e. c #635944",
"j. c #635945",
"bS c #635a43",
"b0 c #635a44",
"dE c #635a4b",
"ib c #635b4b",
"if c #635c4b",
"hj c #635c4c",
"dk c #635d4e",
"a3 c #635d4f",
".X c #635e50",
"bF c #636057",
"jf c #645947",
"jh c #645a47",
"#v c #645b44",
"jg c #645b45",
"je c #645b46",
"gw c #645b4c",
"gg c #645c4c",
"ik c #645c4d",
"ia c #645d4d",
"dh c #645d4e",
"gd c #645e50",
"hk c #645f50",
"#n c #655c44",
"i9 c #655c48",
"go c #655c4d",
"bE c #655d4a",
"gr c #655e4d",
"fa c #655e4e",
"d. c #655e4f",
"gc c #655f50",
"gf c #655f52",
"gk c #656052",
"f9 c #656053",
"aF c #656054",
"dU c #665c48",
"dI c #665c49",
"bQ c #665d46",
"gF c #665d49",
"bx c #665d4a",
"bq c #665d4b",
"dK c #665e4b",
"di c #665e4d",
"dl c #665e4e",
"hI c #665f4c",
"gm c #665f4e",
"aR c #665f4f",
"bY c #66604c",
"aS c #666051",
"de c #666052",
"dq c #666152",
".N c #666153",
"f8 c #666255",
"hH c #675d47",
"gy c #675d49",
"ep c #675d4a",
"bZ c #675e48",
"#p c #675e49",
"in c #675e4a",
"ja c #675e4b",
"dQ c #675f4b",
"gj c #67604f",
"h5 c #676051",
"fq c #676052",
"gb c #676150",
"dc c #676152",
"dg c #676153",
"c9 c #676255",
"b7 c #676257",
"e# c #685d48",
"eg c #685d49",
"b4 c #685e48",
"dJ c #685e49",
"gG c #685e4a",
"#o c #685f48",
"hJ c #685f49",
"#l c #685f4a",
".L c #685f4b",
"#z c #68604a",
"jk c #68604c",
"do c #686150",
"ig c #686152",
"bn c #695f4a",
"eo c #69604b",
"bw c #69604c",
"d2 c #69614e",
"bs c #69624d",
"bP c #696251",
"a2 c #696253",
"a1 c #696254",
"c8 c #696558",
"bT c #6a604a",
"b1 c #6a614b",
"fJ c #6a614c",
".M c #6a614d",
"gJ c #6a614e",
"gn c #6a6254",
"dP c #6a634d",
"bz c #6a634e",
"fH c #6a6351",
"db c #6a6352",
"gs c #6a6354",
"gQ c #6b604a",
"gU c #6b604b",
"bt c #6b614b",
"fL c #6b614c",
"fz c #6b624b",
"fD c #6b624c",
"dV c #6b624d",
"ji c #6b634d",
"jj c #6b6350",
"dS c #6b644e",
"hG c #6b644f",
".V c #6b6451",
"dd c #6b6455",
"bm c #6c624c",
"hD c #6c634d",
"j# c #6c6451",
"gE c #6c654f",
"#k c #6c6551",
"#u c #6c6552",
"dp c #6c6556",
"aP c #6c675c",
"bA c #6d634e",
".0 c #6d644e",
".K c #6d644f",
".S c #6d654e",
"gI c #6d6650",
"io c #6d6651",
"#y c #6d6653",
"bl c #6e644d",
"bu c #6e6653",
"en c #6e6754",
"fy c #6f654e",
"hC c #6f654f",
"bp c #6f6651",
"bB c #6f6654",
"bD c #6f6751",
"fE c #6f6754",
"bk c #706750",
"hE c #706751",
"fB c #706752",
"fx c #706851",
"fF c #706852",
".U c #706853",
"hB c #716851",
".R c #716853",
"dD c #716857",
"i8 c #716a58",
".5 c #726952",
"#f c #726954",
"gv c #726958",
".Q c #726a53",
"d1 c #726a54",
"i7 c #726d5c",
"d0 c #736a53",
"ij c #736a59",
"hF c #736b54",
"bC c #736b56",
"dr c #736f61",
"bv c #746b56",
"fA c #746b57",
"bo c #746c57",
"bj c #746e5b",
"fw c #746f5b",
".T c #756d59",
"dW c #756e5a",
".1 c #756e5c",
".W c #756f5c",
".I c #75746c",
"bi c #77746a",
".P c #7a725c",
".Z c #7a725d",
".4 c #7b735e",
"#9 c #7b7563",
"dZ c #7c745f",
"dC c #7f7865",
".u c #807366",
"gu c #807966",
"dB c #807a68",
".m c #817467",
"ii c #817a67",
".J c #817b66",
"gt c #827c69",
"cD c #827c70",
"ih c #837d6a",
"#A c #857f6c",
"cB c #868173",
"#J c #878175",
"aI c #878274",
"bh c #87857b",
"aJ c #888375",
".c c #897d6f",
".6 c #898472",
"cC c #898477",
"ae c #8a8578",
"af c #8a8579",
"ag c #8a8679",
"dv c #8a897e",
"#I c #8b8678",
"aO c #8b867a",
".O c #8b8773",
".Y c #8c8774",
"#H c #8d877a",
".3 c #8d8875",
"aM c #8d887d",
"bd c #8d8a7d",
".k c #8f8677",
".s c #8f8777",
"dY c #8f8b78",
"ah c #8f8b7f",
"bc c #8f8c7f",
"bf c #908e83",
"c. c #918d80",
"cE c #918e85",
".h c #92897a",
"aN c #928c80",
"b9 c #928d7f",
"bg c #929086",
"aH c #938e81",
"#K c #938e82",
".y c #958f82",
"#e c #959188",
"bb c #969389",
".H c #96968e",
"cb c #979284",
"bL c #979386",
"aK c #989589",
".G c #98988f",
".t c #998978",
".i c #998e7f",
".q c #998f7f",
".w c #999182",
"#d c #999489",
"cH c #999688",
"bK c #99968c",
".r c #9a8976",
".j c #9a8977",
".l c #9a8a78",
"ad c #9a9688",
"aL c #9a978c",
".e c #9b8f7e",
".o c #9b9183",
"cI c #9b9689",
".n c #9c907e",
".f c #9c9283",
"aa c #9c9688",
"bJ c #9c998c",
"c# c #9c998f",
"cG c #9c9a8b",
".C c #9c9d95",
"#G c #9d9a8b",
".x c #9e9283",
".a c #9e998c",
"ab c #9e9a8c",
".g c #a09080",
"#c c #a09c92",
".p c #a19181",
".b c #a19282",
"a# c #a19c8d",
"bM c #a19e91",
"cZ c #a1a096",
"ba c #a1a198",
".D c #a1a29a",
"Qt c #a29b8d",
"c1 c #a2a197",
".B c #a2a39b",
"c2 c #a3a39b",
"#b c #a4a296",
"c7 c #a4a297",
".F c #a4a59d",
".v c #a59d8e",
"ca c #a7a495",
"bH c #a7a598",
"c6 c #a7a59b",
"ce c #a8a495",
"#F c #a8a595",
"bI c #a8a698",
".E c #a8aaa2",
".# c #a9a093",
"#E c #a9a697",
"c4 c #a9a79d",
"ac c #aaa799",
"#a c #aaa79b",
"c5 c #aaaa9f",
".A c #aaaca5",
".d c #ab9e8d",
"cF c #aba99b",
"bO c #ada99c",
"cc c #adab9c",
".9 c #adaba1",
"#D c #aeaa9c",
"#C c #aeab9e",
"c0 c #aeafa6",
"cA c #afaea5",
"du c #afafa2",
"bN c #b0ada1",
"dt c #b0afa2",
"## c #b1aea3",
"dx c #b2b1a3",
"cd c #b4b2a5",
"dy c #b4b3a7",
"c3 c #b4b3a9",
"dA c #b4b4a8",
".z c #b4b7b1",
"ds c #b5b5aa",
"dz c #b7b8ad",
"#. c #b8b7ae",
"aG c #b9bab1",
"a. c #bbbcb2",
"b8 c #bcbdb5",
"dw c #bdbeb2",
"cY c #c0c2bb",
"#B c #c4c6bd",
".8 c #c5c7bf",
"bG c #c5c7c0",
".7 c #d1d4ce",
"Qt.#.a.b.c.d.e.f.g.h.i.j.k.l.m.d.n.o.p.h.q.r.s.t.u.v.n.w.x.y.z.A.B.C.D.E.F.G.H.I",
".J.K.L.M.N.O.P.Q.R.S.T.U.V.W.X.Y.Z.Q.R.0.T.R.V.1.2.3.4.5.R.6.7.8.9#.###a#b#c#d#e",
"#f#g#h#i#j#k#l#m#n#o#p#q#r#s#t#u#l#m#v#o#p#q#w#s#x#y#z#m#v#A#B#C#D#E#F#G#H#I#J#K",
"#L#M#N#O#P#Q#R#S#T#U#V#W#X#Y#Z#0#R#1#2#3#4#W#X#5#6#7#R#1#8#9a.a#aaabacadaeafagah",
"aiajakalamanaoapaqarasatauauavawaoapalaxayazauauaAaBaCaDaEaFaGaHaIaJaKaLaMaNaOaP",
"aQaRaSaTaUaVaWaXaYaZa0a1a2a3a4aVaWa5aYa6a7a1a2a3a8aVaWa9b.b#babbbcbdbebfbgbgbhbi",
"bjbkblbmbnbobp.Lbqbrbs.Qbt.0bubvbpbwbxbybz.QbtbAbBbCbDbwbEbFbGbHbIbJbKbHbLbMbNbO",
"bPbQbRbSbnbTbUbVbWbXbYbZbRb0b1bTbUb2bWb3bYb4b5bSb1bTbUb6bWb7b8b9adc.c#cacbcccdce",
"cfcgchcicjcgckclcmcncocgcpcqcrcsckclctcucocvcpcqcwcxcyclctczcAcBcCcDcEcFcGcHcI#E",
"cJcKaoaucLcMcNcOaucPaBcQcRcRcSaocKcTaucPcUcQcRcRcScVcKcWcucXcYcZc0c1c2c3c4c5c6c7",
"c8c9d.d#dadbdcdddedfdgdhdicfdjbPdcdddedfdgdkdldmdndodcdpdqdrdsdtdtdudvdwdxdydzdA",
"dBdCdDdEdFbsdGdHdIdJdKdLdMdNdOdPdGdHdIdJdQdLdMdNdRdSdTdHdUdVdW#f#u.WdXdYdZd0d1.S",
"d2d3d4d5d6d7d8d9e.bte#eaebecedeeefd9#qbtegeaeheceiejekd9bUbt#pel#w#semeneo#m#v#o",
"epeqereseteuevewexeyezeAbWeBeCeuevewexeDeEeaeFeGeHeueveweIeJ#VeKeLeMeNeOezeP#2eQ",
"eRazeSeTeUeVcLeWeSazajeXeYeCeZe0e1eWeSazajeXeYeCe2e0e1eWe3e4e5e6cRe7e8awe9aEalf.",
"f#faaSaTfbfcaTfd#tfefffgfhfifjfcaTfdfkflcffgfhfmfjfcfnfddFfofpfqfqdffrfsftfufvcO",
"fwfxfybmbnbobDbwdKbrdP.Qfz.0bBfAbDbwbqbybz.Qfz.0bBbCfBbwbxfCdSd0fDbAfEbCfFbwbxfG",
"fHbQbRbSbnbTbUbVbWbXbY#ob5b0b1bTbUb2bWfIbY#ob5bSfJbTbUb6bWb3bY#ob5fKfLbTbUb6bW#Y",
"fMfNePfOcrfPfQfRctcu#7cgePfSeycgfQfRctcu#0cgePcieDcgfQfTfUcucocgfVcqfWcgfQewfUcu",
"fXauapcRcScVcufYcRfZaweXf0aof1cVf2fYf3f4aweXf0aof1f5eYcOf3f6aBeXf0aof1apeYcOf3f7",
"f8f9g.g#gagbgca2gdgegfaWggghgigjgca1gdgegkg.ggglgigmgcgngdgegkg.gogpgqgrgcgsgdge",
"gtgugvgwdFbzdGgxgydJdKdLgzgAgBdSdGgxgydJdQgCgzgAgDgEdGgxgFgGdQgCgzgAgHgIdGgxgFgG",
"gJd3gKgLd6gMgNgOgPgQegeaebgRgSgTd8gObUgUegeaehebgVgWefgObUbtegeagXebgY#8efgOgZbt",
"epdTereseteuewcpg0eDg1eabWeBeCeuewcpexg2ezg3eFeGg4euewcpexg5ezg3eFg6eHg7ewcpeIg8",
"g9e6#6e3h.h#cShaeNhbazhccMhdheh#cShaeNe6aze7hfhdeZh#cShahge6aze7hfhde2hhcShacLe6",
"hihjhkhlhmhnhlgphohpgphqfihqhrhnhsht#xhuhvhqfihqhwhnhxhy#xhz#0hqfigehwhnhxcfhAhz",
".WhBhChDbnbohEbwdKbrdPhFbm.KbBbofBfJdKbydShFbm.0bBbCfF.MdKfChGhFbm.0fEbC.R.MbqfG",
"fHhHb5bSbnbTbUbVfNbXhIhJb5b0fJbTbUb2fNbXbYhJb5bSfLbTbUb6hKfIbYhJb5bSfLbThLb6hKb3",
"ffevePfOeyevhMewcthNhOevePfOeDclhMewfUeChvevePfSfWcl#scpfUeC#0evePcqg5clhMcpfUf3",
"hPcRhQaohRapf3hScMf6hThUeGhQazaDf3hVcMf7hWaueGhQazaDhfhVcMhXanaueGhYazaDhfhVcMhZ",
"h0h1h2h3h4faa3h5h6h7.Xh8h9i.i#iaa3fqh6h7.Xftibicidhja3fqh6h7.Xftibicieifdkigh6h7",
"ihiiijikdFhGdMilgG#ldKgCgzimgBgEdMilinbndQgCg2imdFgIeyilinbndQgCg2imgHioeyilinbn",
"gJipiqgLd6eegNir#qgQegeaebisesgTgNgObUgQegeaehisedgWd8gObUgQegeagXisitiud8gOivgU",
"indTeresiweuixixg0g5iyizbWiAeCeuiBixg0g5iCizeFg6iDeuewixexg8g1izeFg6eHeuiBixiEiF",
"iGhb#ZcLa6hhiHaqhRf.iIf0apiJiKhhhRaqiLf.iIf0apiJheiMhRetiNf.e6eBapiJiOiMhRetiNf.",
"iPfuaViQiRiSiTghiUiViWiXiYiZi0iSiTghh3e8i1d#iYiZi0iSi2ghh3i3gBi4fniZg#iSi2ghi5i6",
"i7i8#li9j.j#jaiFjbjcjdgIfDjejfj#dQiFjbjcjdgIfDjgjh.VdQdLjbeSjdgIjijgjhjjjkdLjbeS",
"#jdMjljm#MjnhKjo#OjpjqgTjrjsjtjnhKjojujpjvgTjrjsjtjnjwjojujxjvgTjyjmjt#sfRjzjujx",
"jAcMapjBjCjDakapjEjFeTjGjDjHjIjDakapcOcPjJjGjDjBjIjDakeGcOcPjKetjDjBjLjDakeGcOjM",
"jNjOjPjPjQjRjSjTjUjVjWjXjYjZj0jRjSjTjUj1j2jXjYjZj0j3jSjTjUj4j2jXjYjSj0j3jZjTjUj5"};
