/* XPM */
static char *dummy[]={
"40 40 725 2",
"fX c #000000",
"fE c #030201",
"jl c #040303",
"hv c #060504",
"fF c #070604",
"fw c #070605",
"fD c #080704",
"fG c #080705",
"gZ c #080706",
"hl c #080806",
"fz c #090705",
"fC c #090805",
"fy c #090806",
"gM c #090807",
"fB c #0a0806",
"fH c #0a0906",
"gw c #0a0907",
"fx c #0b0907",
"fA c #0b0a07",
"iV c #0b0a08",
"iE c #0c0b09",
"hG c #0c0c0a",
"gf c #0d0c09",
"he c #0d0c0a",
"fY c #0e0c09",
"hT c #0e0c0a",
"fI c #0e0d0b",
"h. c #11100e",
"jk c #16140f",
"i7 c #1c1913",
"js c #211d16",
"hu c #221e17",
"iU c #242019",
"jm c #25211b",
"jb c #26221c",
"ji c #28231c",
"jq c #28241c",
"jr c #28241d",
"gY c #29241c",
"jc c #29241d",
"jj c #29251d",
"fg c #2a251c",
"fi c #2a251d",
"ja c #2a261c",
"fd c #2b261d",
"jd c #2b271e",
"fl c #2c271e",
"je c #2c271f",
"hx c #2d281e",
"jh c #2d281f",
"jp c #2d2820",
"gO c #2e271d",
"ib c #2e281d",
"jo c #2e2921",
"jg c #2e2a21",
"gG c #2f291f",
"jf c #2f2b21",
"h7 c #302a1f",
"jn c #302b22",
"iD c #302c23",
"hk c #312b21",
"dq c #322b22",
"dB c #332c22",
"g4 c #352f25",
"g9 c #353026",
"iv c #362f25",
"i1 c #373126",
"fc c #383227",
"dQ c #383228",
"fj c #383229",
"dT c #383328",
"fh c #383329",
"gA c #393225",
"dY c #393328",
"fe c #393329",
"dD c #39332a",
"dx c #39342b",
"gs c #3a3427",
"dr c #3a342b",
"gL c #3a352a",
"h1 c #3b3427",
"f. c #3b3428",
"dA c #3b3529",
"i# c #3b362b",
"hr c #3c3429",
"dw c #3c3529",
"fb c #3c352a",
"dp c #3c3629",
"e7 c #3c362a",
"do c #3d362a",
"gE c #3d362b",
"gF c #3d372a",
"dz c #3d372b",
"i8 c #3d372c",
"fk c #3e362a",
"f# c #3e372a",
"dC c #3e372b",
"hB c #3e372d",
"h6 c #3e382b",
"h5 c #3e382c",
"hJ c #3e382e",
"i2 c #3e392d",
"h4 c #3f372b",
"ds c #3f372c",
"hs c #3f382b",
"dE c #3f382c",
"ff c #3f382d",
"j# c #3f392c",
"ht c #3f392d",
"fq c #3f392e",
"dF c #40382d",
"gr c #40392b",
"dk c #40392d",
"hw c #40392e",
"i3 c #403a2c",
"gJ c #403a2d",
"dh c #403a2e",
"fJ c #403a2f",
"gz c #413a2c",
"dt c #413a2d",
"dd c #413a2f",
"h9 c #413b2e",
"gQ c #413b2f",
"c7 c #413b30",
"i6 c #423a2e",
"gK c #423b2f",
"id c #423c30",
"gH c #423d31",
"i. c #433c30",
"gI c #433c31",
"gP c #433e32",
"gk c #443c2e",
"h8 c #443d31",
"fa c #443e31",
"ic c #443f33",
"i9 c #453e2f",
"eV c #453e30",
"e0 c #453f31",
"ga c #463e30",
"i4 c #463f2f",
"e6 c #463f31",
"gD c #463f32",
"gN c #464032",
"i5 c #474031",
"gR c #474033",
"dn c #474034",
"ia c #474133",
"j. c #484132",
"dv c #484134",
"ie c #484234",
"hF c #48443a",
"du c #494234",
"dG c #494235",
"dy c #494335",
"i0 c #4a4133",
"iT c #4a4233",
"eN c #4a4234",
"iM c #4a4333",
"hh c #4a4334",
"dm c #4a4335",
"ep c #4a4437",
"eG c #4b4335",
"iW c #4b4434",
"ey c #4b4435",
"ek c #4b4538",
"c1 c #4c4537",
"eg c #4c4639",
"gj c #4d4435",
"cT c #4d4638",
"f2 c #4d4639",
"e# c #4d4739",
"iS c #4e4435",
"g# c #4e4535",
"c6 c #4e4537",
"dc c #4e4637",
"cN c #4e4739",
"cG c #4e483a",
"fv c #4e493d",
"hW c #4f4536",
"gv c #4f4838",
"io c #4f4839",
"g. c #504637",
"fR c #50493b",
"gi c #514738",
"ex c #514838",
"eP c #514939",
"iO c #514a38",
"eZ c #514a39",
"hn c #514a3a",
"gX c #514a3c",
"hd c #524938",
"e3 c #524a39",
"hj c #524a3a",
"iY c #524b39",
"if c #524b3c",
"g3 c #524b3d",
"gq c #534939",
"iZ c #534a38",
"iR c #534a39",
"iP c #534b38",
"eU c #534b3a",
"gB c #534c3a",
"h2 c #534c3b",
"dP c #534c3e",
"gy c #544a3a",
"e5 c #544b3a",
"e8 c #544b3b",
"hq c #544c3b",
"dS c #544c3f",
"df c #544d3b",
"d2 c #544d3f",
"c9 c #544e3b",
"g0 c #544e3f",
"eQ c #554b3b",
"iw c #554c39",
"iF c #554c3a",
"d. c #554c3b",
"hZ c #554d3b",
"fW c #554d3d",
"e1 c #554f40",
"hm c #555041",
"hS c #564d3d",
"in c #564f41",
"eW c #565041",
"ii c #565144",
"iq c #565245",
"e4 c #574e3d",
"iu c #574f42",
"eO c #575041",
"ij c #575042",
"gS c #575141",
"hi c #575142",
"gt c #57523e",
"ir c #575246",
"hp c #584e3d",
"gd c #584f3b",
"gm c #584f3c",
"eT c #584f3e",
"hY c #58503e",
"c3 c #58513d",
"hA c #585143",
"gU c #585144",
"ig c #585244",
"ik c #585246",
"c5 c #594e3c",
"db c #594e3d",
"c0 c #594f3e",
"iQ c #59503d",
"cF c #59503e",
"iX c #59523d",
"im c #595244",
"dZ c #595343",
"it c #595344",
"c8 c #595445",
"gx c #5a503f",
"fT c #5a5140",
"hI c #5a5244",
"dU c #5a5344",
"fp c #5a5345",
"de c #5a5445",
"is c #5a5446",
"il c #5a5447",
"di c #5a5546",
"cJ c #5b513d",
"gp c #5b513f",
"h0 c #5b5140",
"hP c #5b5240",
"f4 c #5b5241",
"iN c #5b533e",
"dl c #5b533f",
"dR c #5b5445",
"gW c #5b5547",
"gV c #5b5649",
"g1 c #5b564a",
"cQ c #5c513d",
"ew c #5c513e",
"f9 c #5c513f",
"cW c #5c523e",
"eF c #5c523f",
"fP c #5c5241",
"er c #5c533e",
"dj c #5c533f",
"eS c #5c5340",
"f1 c #5c5341",
"d# c #5c543f",
"gb c #5c5540",
"dH c #5c5545",
"g2 c #5c5546",
"hM c #5c5749",
"#5 c #5c574e",
"cE c #5d523f",
"gh c #5d5240",
"eB c #5d533e",
"c4 c #5d5340",
"fQ c #5d5342",
"hN c #5d5343",
"eI c #5d543f",
"e2 c #5d5440",
"eY c #5d5441",
"iB c #5d5442",
"d1 c #5d5547",
"dL c #5d5548",
"dO c #5d5647",
"ip c #5d5749",
"dM c #5d574a",
"ih c #5d5849",
"ab c #5d584e",
"hf c #5e543f",
"eX c #5e5440",
"fO c #5e5443",
"eR c #5e5540",
"e9 c #5e5541",
"ho c #5e5542",
"f0 c #5e5544",
"gl c #5e5742",
"dX c #5e5748",
"cz c #5e584b",
"gT c #5e594c",
"gu c #5f5642",
"iC c #5f5645",
"gC c #5f5743",
"hK c #5f5848",
"fM c #5f594b",
"cv c #5f594c",
"gn c #605641",
"f5 c #605645",
"h3 c #605743",
"iL c #605745",
"da c #605844",
"dN c #605a4b",
"cp c #605a4d",
"ge c #615742",
"fU c #615745",
"hX c #615840",
"gc c #615841",
"dg c #615944",
"fK c #615a4a",
"fn c #615b4c",
"dK c #615b4d",
"cg c #615b4e",
"dW c #615c4e",
"eL c #625842",
"hQ c #625846",
"eC c #625942",
"ev c #625944",
"hC c #625b4b",
"d0 c #625c4e",
"hL c #625c4f",
"es c #635943",
"eE c #635944",
"cD c #635945",
"cX c #635a43",
"eM c #635a44",
"cS c #635a46",
"hz c #635b4b",
"hH c #635c4c",
"hD c #635d4e",
"hy c #635e51",
"cK c #645a43",
"hg c #645a45",
"cZ c #645a46",
"fr c #645d4d",
"fu c #645e50",
"iy c #655a47",
"iI c #655b48",
"e. c #655d4a",
"fo c #655d4d",
"fs c #655e50",
"fL c #655f50",
"fm c #656052",
"f6 c #665c48",
"cY c #665d48",
"fV c #665d49",
"g8 c #665d4a",
"hb c #66604c",
"eq c #66604d",
"dV c #666051",
"dI c #666052",
"cR c #675d48",
"cM c #675d49",
"hR c #675d4a",
"eK c #675e47",
"eH c #675e48",
"cC c #675e49",
"fZ c #675e4b",
"fN c #675f4b",
"ez c #67604d",
"dJ c #676052",
"gg c #685d48",
"f8 c #685d49",
"eA c #685e48",
"cL c #685f48",
"hc c #685f49",
"f7 c #685f4a",
"iA c #68604d",
"hE c #686153",
"eJ c #695f49",
"hV c #695f4a",
"eD c #696049",
"cV c #69604a",
"cP c #69604b",
"cI c #69614b",
"iJ c #69614e",
"eu c #6a604a",
"d9 c #6a614c",
"ef c #6a614d",
"iK c #6a624e",
"iG c #6a634d",
"ft c #6a6354",
"go c #6b614b",
"et c #6b614c",
"d5 c #6b624c",
"ha c #6b624d",
"ix c #6b634d",
"iz c #6b6350",
"d3 c #6b654f",
"eb c #6c624c",
"d6 c #6c634d",
"cB c #6c644d",
"iH c #6c644e",
"ct c #6c6451",
"cn c #6c6452",
"g5 c #6c654f",
"ea c #6c6550",
"ce c #6c6552",
"eh c #6c6650",
"#Q c #6c675c",
"#S c #6c685d",
"g7 c #6d634d",
"cr c #6d644e",
"cl c #6d654e",
"fS c #6d6650",
"el c #6d6651",
"h# c #6d6751",
"hO c #6e6751",
"cH c #6e6855",
"d7 c #6f6755",
"f3 c #6f6852",
"cO c #6f6855",
"cU c #6f6956",
"ec c #706755",
"en c #706856",
"hU c #706953",
"c2 c #706a57",
"d8 c #716853",
"eo c #716854",
"ee c #716953",
"ej c #716954",
"em c #726953",
"ed c #726955",
"ei c #726a53",
"cd c #726a54",
"ck c #726a55",
"cj c #736a53",
"d4 c #736a54",
"g6 c #736b54",
"cs c #736b55",
"cx c #736b56",
"cy c #746e5a",
"cu c #746e5b",
"cm c #756d5a",
"cc c #756e5a",
"co c #756e5b",
"cf c #756f5c",
".h c #75746c",
".l c #76746d",
".s c #76756d",
"a. c #77746b",
"ci c #7d7560",
"aj c #817d72",
"af c #817d73",
"#4 c #827c71",
"#K c #827d70",
"a# c #827e73",
"aa c #837d71",
"ag c #837d72",
"ak c #837e72",
"#1 c #837e74",
"#g c #868174",
".0 c #868175",
"#V c #878274",
"#J c #888275",
"#L c #888375",
"#G c #888376",
"#3 c #888377",
"#9 c #88857c",
"ae c #88867c",
"#R c #898275",
"#U c #898276",
"#Y c #898376",
"#u c #898477",
"ai c #89867d",
"am c #89877d",
".7 c #8a8578",
"br c #8a867a",
"#2 c #8a867b",
"bb c #8a877a",
"#W c #8b8578",
"#M c #8b8579",
".Z c #8b8678",
"#o c #8b8679",
"#A c #8b867a",
"#0 c #8b877a",
"al c #8b897e",
"#X c #8c867a",
"#T c #8c877a",
"ah c #8c8a7f",
"#I c #8d877b",
".Y c #8d887a",
"#O c #8d887d",
"#H c #8d897e",
"ac c #8d8b81",
"b1 c #8d8c81",
".6 c #8e897b",
"#B c #8e8a7e",
"#v c #8e8a7f",
"bU c #8e8d82",
"#. c #8f897c",
"#h c #8f897d",
"#f c #8f8a7c",
"#p c #8f8a7f",
"bg c #8f8b7e",
"b# c #8f8b7f",
"#6 c #8f8c82",
"## c #908a7f",
"ch c #908c79",
".8 c #918c80",
".R c #918c82",
"cq c #918d7a",
"b. c #928d7f",
"#P c #928d80",
".1 c #928d81",
"cw c #928e7b",
"a5 c #928e80",
"aP c #928e81",
".N c #928e84",
"#8 c #929086",
"#Z c #938d81",
"bl c #938e80",
"cA c #938f7c",
"aN c #938f82",
".I c #938f85",
"ba c #939083",
"#7 c #939087",
"ad c #939187",
"aW c #948f82",
"a4 c #949082",
".F c #949086",
"aI c #958f83",
"aB c #959083",
"av c #969084",
"ao c #969184",
"a8 c #969283",
"aS c #969284",
"aJ c #969287",
".g c #96968e",
"aC c #979388",
"a1 c #979586",
".k c #97968e",
".r c #97978e",
"ar c #989386",
"bv c #989387",
"aE c #989487",
".E c #989489",
"aw c #98948a",
"aO c #989586",
"a6 c #98958a",
"bs c #98958b",
".f c #98988f",
".q c #989990",
"#k c #999486",
"bp c #999487",
"bk c #999588",
"be c #999688",
"ap c #99968b",
"bm c #99968c",
"bh c #99978d",
".v c #999990",
"#q c #9a9486",
"#x c #9a9586",
"bf c #9a9588",
"#E c #9a9688",
"bu c #9a9788",
"#N c #9a978c",
"bc c #9a988e",
"#D c #9b9587",
"#n c #9b9688",
"#t c #9b9689",
"#y c #9b9789",
".o c #9b9c94",
"aA c #9c9789",
"#F c #9c978a",
"#r c #9c988a",
"aQ c #9c998d",
".j c #9c9d94",
".c c #9c9d95",
"aM c #9d998a",
"#l c #9d998b",
"a0 c #9d9a8b",
"bj c #9d9a8c",
"bo c #9d9b8c",
".t c #9d9e96",
".m c #9d9f97",
"#j c #9e9a8a",
".X c #9e9a8b",
"aL c #9e9a8e",
".5 c #9e9b8c",
".i c #9e9f97",
"#w c #9f9a8b",
"#e c #9f9b8c",
"aF c #9f9b8f",
"Qt c #9fa098",
"ay c #a09c90",
".D c #a09c92",
"as c #a09d90",
".M c #a09d92",
"bK c #a1a096",
"an c #a29e90",
"bz c #a2a197",
".# c #a2a39b",
".n c #a2a39c",
".a c #a2a49c",
"bw c #a3a298",
"by c #a3a398",
"bE c #a4a297",
"bM c #a4a298",
"bP c #a4a398",
"bL c #a4a399",
"bG c #a4a499",
".b c #a4a59e",
".e c #a4a69e",
".C c #a5a296",
"bx c #a5a49a",
"bF c #a5a59a",
"bJ c #a5a59b",
".p c #a5a69e",
".u c #a5a69f",
"#d c #a7a494",
"bD c #a7a59b",
"aV c #a8a495",
".T c #a8a496",
"#c c #a8a498",
".W c #a8a595",
"aR c #a8a596",
".3 c #a8a597",
".4 c #a8a598",
"aq c #a8a699",
".d c #a8aaa2",
"#b c #a9a597",
".U c #a9a598",
".V c #a9a697",
"aX c #a9a698",
"bq c #a9a798",
"bI c #a9a79c",
"bB c #a9a79d",
"ax c #a9a89b",
"#m c #aaa799",
".B c #aaa79b",
"#s c #aaa899",
".H c #aaa89b",
"aD c #aaa99c",
"bC c #aaaa9f",
"bO c #aaaaa0",
"a2 c #aba899",
"#z c #aba89a",
".Q c #aba89b",
"a7 c #aba99b",
"b9 c #abaa9c",
"aK c #abaa9d",
"aY c #aca99a",
"bd c #acaa9c",
"bT c #acab9d",
"au c #ada99c",
"aT c #adaa9b",
"bi c #adaa9d",
".A c #adaa9f",
"bn c #adab9e",
".L c #adaba0",
"aH c #aea99c",
"bt c #aeac9f",
"bR c #aeada0",
".S c #afad9f",
"#i c #b0ada0",
"at c #b0ada1",
".2 c #b0aea0",
"#C c #b0aea1",
"az c #b1ada1",
".9 c #b1aea0",
"aG c #b1aea1",
"#a c #b1afa1",
"bS c #b1b1a4",
"bW c #b2b1a4",
"c# c #b2b1a5",
"b2 c #b2b2a4",
"b7 c #b2b2a5",
"c. c #b3b2a5",
"b3 c #b3b2a6",
"cb c #b3b3a6",
"bX c #b3b3a7",
".z c #b4b2a8",
"aU c #b4b3a5",
"b5 c #b4b3a7",
"bZ c #b4b4a7",
"aZ c #b5b3a6",
"a3 c #b5b4a7",
"bA c #b5b4aa",
"bH c #b5b5ab",
"a9 c #b6b4a7",
".y c #b6b5ac",
".G c #b6b6ac",
".K c #b6b6ad",
"bQ c #b6b7ac",
".P c #b7b6ad",
"b0 c #b7b7ac",
"bN c #b7b7ad",
"b6 c #b7b8ac",
"bY c #b7b8ad",
"b4 c #b8b9ae",
"ca c #b8baaf",
".x c #b9b8af",
"b8 c #bdbeb1",
"bV c #bdbeb2",
".w c #bfc0b9",
".J c #bfc0ba",
".O c #c0c1ba",
"Qt.#.a.b.c.d.e.f.g.h.i.#.a.e.j.d.e.f.k.l.m.#.n.e.o.d.p.q.r.s.t.#.#.u.o.d.p.v.r.s",
".w.x.y.z.A.B.C.D.E.F.w.x.G.z.A.H.C.D.E.I.J.x.K.z.L.H.C.M.E.N.O.x.P.z.L.Q.C.M.E.R",
".S.T.U.V.W.X.Y.Z.0.1.2.3.4.V.W.5.6.7.0.8.9.3.4.V.W.5#..7.0###a#b#c.V#d#e#f.7#g#h",
"#i#j#k#l#m#n.7#o.7#p#i.X#q#r#s#t.7#o#u#v.2#w#x#y#z#y.7#A#u#B#C#e#D#E#z#F.7#A#G#H",
"#I#J#K#L#M#N#O#P#A#Q#I#R#K#J#M#N#O#P#A#S#T#U#K#V#W#N#O.1#A#S#X#Y#K#V#W#N#O#Z#0#S",
"#1#2#3#4#5#6#7#8#9a.a##2#3aaabacad#8aea.af#2#3agabahad#8aia.aj#2#3akabalad#8ama.",
"an#n#taoapaqarasatauan#t#tavawaxarayazauanaA#taBaCaDaEaFaGaHan#F#taIaJaKaEaLaGaH",
"aMaNaOaPaQaRaSaTaUaVaMaWaOaP#NaXaSaYaZ#da0aWa1aPap#maSa2a3#d.Xa4a1a5a6a7a8#ma9#d",
"b.b#babbbcbda0bebfaX#PbgbabbbhbibjbebkaXblbgbabbbmbnbo#Ebpbqblbgbabrbsbt.5bubv#m",
"bwbxbybzbxbAbBbCbDbEbwbFbybzbGbHbIbCbDbEbwbJbybKbL.GbIbCbDbMbwbJbwbKbybNbIbObDbP",
"bQbRbSbTbUbVbWbXbYbZb0bRbWbTb1bVb2b3b4b5b6bRb7bdb1b8b2b7b4bXbYbRb7b9b1b8c.c#cacb",
"cccdcecfcgchcicjckclcmckcncocpcqcicjckcrcmcsctcucvcwcicjckcrcmcxctcyczcAcicjcscB",
"cCcDcEcFcGcHcIcJcKcLcMcDcEcFcNcOcPcQcKcLcRcScEcFcTcUcVcWcXcLcYcZcEc0c1c2cVcWcXcL",
"c3c4c5c6c7c8c9d.d#dac3c4dbdcdddedfd.d#dgc3c4dbdcdhdidfd.djdgc3c4dbdcdkdidfd.dldg",
"dmdndodpdqdrdsdtdkdudmdvdodwdqdxdsdtdkdudydvdzdAdBdxdsdtdkdudydvdCdAdBdDdEdtdFdG",
"dHdIdJdKdLdMdNdOdPdQdRdIdJdKdLdMdNdOdSdTdUdVdJdWdLdMdNdXdSdYdZdVdJd0d1dMdNdXd2dY",
"d3d4d5d6d7ckd8d9e.e#eacdebd6ecedeeefe.egeheid6ebecejejefe.ekelemcrd5eneocdefe.ep",
"eqcLereseteuevewexeyezeAeBeCeteDeEeFexeGezeHeIeCeteJeEeFexdmezeKeIeLeteJeMcEexeN",
"eOePeQeReSePeTeUeVdweWePeQeXeYeZeTeUe0dpe1ePeQe2eYe3e4e5e6e7e1ePe8e2e9e3e4e5e6e7",
"dDf.f#dCfadEfbfce7fdfef.f#dCfafffbfce7fgfhf.f#f#fafffbfce7fifjf.f#fkfafffbfce7fl",
"fmfnfofpfqfrfsftfufvfwfxfyfyfzfAfBfCfDfEfFfxfyfBfGfAfHfzfDfIfmfnfodRfJfKfLftfufM",
"fNfOfPfQfRfSfTfUfVfWfXfXfXfXfXfXfXfXfXfXfXfXfXfXfXfXfXfXfXfYfZf0f1fQf2f3f4f5f6f7",
"f8f9g.g#gagbgcgdgecFfXfXfXfXfXfXfXfXfXfXfXfXfXfXfXfXfXfXfXgfggghgigjgkglgcgmgngo",
"dfgpgqgrgsgteUe5gugvfXfXfXfXfXfXfXfXfXfXfXfXfXfXfXfXfXfXfXgwdfgxgygzgAgtgBe8e9gC",
"gDdogEgFgGgHgIgJgKgLfXfXfXfXfXfXfXfXfXfXfXfXfXfXfXfXfXfXfXgMgNf#gEdzgOgPgIgJgQgR",
"gSczcpgTgUgVgWdRgXgYfXfXfXfXfXfXfXfXfXfXfXfXfXfXfXfXfXfXfXgZg0cvcvcvgUg1gWg2g3g4",
"g5g6d6g7ecckeeefg8g9fXfXfXfXfXfXfXfXfXfXfXfXfXfXfXfXfXfXfXh.h#eicrebenejcdhag8ep",
"hbhceBeseteuevewhddYfXfXfXfXfXfXfXfXfXfXfXfXfXfXfXfXfXfXfXheezeHhfeLeteJhgcEhdhh",
"hihjd.eReYe3eTe5eVhkfXfXfXfXfXfXfXfXfXfXfXfXfXfXfXfXfXfXfXhlhmhnd.eXhoeUhphqe6do",
"drhrhsdEgDhtgEdYgFhufXfXfXfXfXfXfXfXfXfXfXfXfXfXfXfXfXfXfXhvdDdwhshsgDhwgEdYgFhx",
"hydNhzhAhBhChDhEd0hFfXfXfXfXfXfXfXfXfXfXfXfXfXfXfXfXfXfXfXhGhyfMhHhIhJhKhDhEhLhM",
"fNfOf1hNfRhOhPhQhRhSfXfXfXfXfXfXfXfXfXfXfXfXfXfXfXfXfXfXfXhTfZf0fQfQf2hUf1fUcMhV",
"f8gpg.hWe6gbhXgdgehYfXfXfXfXfXfXfXfXfXfXfXfXfXfXfXfXfXfXfXgff8ghgig#gkglhXgdgngo",
"hZh0gqgrh1gth2hqgugvfXfXfXfXfXfXfXfXfXfXfXfXfXfXfXfXfXfXfXfxhZgxgygzgAgthqhqe9h3",
"gRh4h5h6h7gPh8h9i.i#fXfXfXfXfXfXfXfXfXfXfXfXfXfXfXfXfXfXfXgMiahsh5h5ibich8h9idie",
"ifigihiiijikiliminfdfXfXfXfXfXfXfXfXfXfXfXfXfXfXfXfXfXfXfXhvioimipiqijirisitiuiv",
"iwg5ixhgiyiziAiBiCiDfXfXfXfXfXfXfXfXfXfXfXfXfXfXfXfXfXfXfXiEiFiGiHeMiIiJiKiBiLc7",
"iMiNiOiPiQcFiRiSiTiUfXfXfXfXfXfXfXfXfXfXfXfXfXfXfXfXfXfXfXiViWiXiYiZiQiQe5g#i0i1",
"i2h9i3i4i5i3i6hsfci7fXfXfXfXfXfXfXfXfXfXfXfXfXfXfXfXfXfXfXhvi8dtgJi9j.j#i6dEdYja",
"jbjcjdjejfjgjhjijjjkfXfXfXfXfXfXfXfXfXfXfXfXfXfXfXfXfXfXfXjljmjcjdjdjnjojpjqjrjs"};
