/* XPM */
static char *dummy[]={
"40 40 525 2",
"#I c #00a15e",
"cl c #06a15e",
"#v c #13a15f",
"cT c #32a15f",
"dm c #32a579",
"d# c #32a679",
".G c #32a67a",
"cU c #33a579",
"bf c #34a579",
"cE c #36a579",
"cb c #36a679",
"bY c #3ba579",
".F c #3fa578",
".Z c #40a577",
"bG c #40a578",
"#9 c #41a578",
"#d c #41a678",
"be c #43a578",
"eV c #46a578",
"eT c #4da576",
"gk c #549e58",
"cS c #56a371",
"f3 c #56a472",
"cR c #58a572",
"dE c #67a996",
"bH c #67aa97",
"f2 c #6da05f",
"ek c #6fa268",
"f1 c #72a267",
"fW c #739959",
"gc c #74a46d",
"ej c #759d59",
"fo c #759d63",
"eU c #76a78b",
"fC c #789d60",
"fN c #799f5e",
"al c #7c9451",
"ei c #7ca25f",
"e9 c #7d9751",
"bW c #7d9a55",
"e0 c #839c56",
"bX c #839f5a",
"bV c #85a057",
"ak c #869855",
"et c #87964b",
"eA c #88964d",
"am c #889c64",
"eN c #89974e",
"g# c #8aa375",
"aB c #8b7b19",
"em c #8b7c14",
"b8 c #8b7c16",
"b5 c #8c7e17",
"eS c #8c9c55",
"b4 c #8e7f17",
"d8 c #8e913f",
"el c #8f7e1c",
"b7 c #908116",
"fr c #918020",
"c1 c #91821a",
"ay c #918415",
"ft c #928021",
".Y c #928123",
"dW c #929443",
"fv c #938122",
"de c #938417",
"eW c #938517",
"c2 c #938615",
"dO c #939443",
"eu c #948615",
"dR c #948618",
"fu c #958420",
"fq c #958421",
"d3 c #958817",
"fm c #959743",
"b3 c #96832a",
"ce c #96871c",
"eF c #968a17",
"fn c #969a3d",
"f0 c #96a35e",
"dK c #978527",
"cw c #97871f",
"e5 c #978a16",
"en c #978a1a",
"du c #978a1c",
".D c #978b36",
"cJ c #98672c",
"eO c #987034",
"fw c #988922",
"gb c #988a19",
".V c #988c16",
".C c #988e38",
"dl c #989037",
".B c #998627",
"gj c #99891a",
"aA c #998c18",
"fM c #998d16",
"ec c #998d19",
"d. c #999039",
"dD c #99994c",
"dJ c #9a862a",
"g. c #9a8d16",
"c3 c #9a8d1a",
"fE c #9a8e18",
"d6 c #9a8f16",
"bP c #9b4022",
"bM c #9b4023",
"eP c #9b702f",
"aG c #9b8925",
"fs c #9b8a27",
"b6 c #9b8e1d",
"dS c #9b8f16",
"fG c #9b8f18",
"fU c #9b9017",
"dI c #9c8535",
".7 c #9c892b",
"#3 c #9c892c",
"fp c #9c8b27",
"aR c #9c8c21",
".X c #9c8f18",
"dL c #9c9019",
"ea c #9d4a28",
"#8 c #9d892b",
"bz c #9d892c",
"cL c #9d8f1d",
"fJ c #9d9018",
"fh c #9d9119",
"dC c #9d9739",
"e# c #9e4b2b",
"cK c #9e7334",
"eQ c #9e8132",
"#n c #9e8c28",
"bq c #9e8c29",
"bF c #9e8d25",
"ca c #9e8d30",
"cB c #9e901f",
"bD c #9e9217",
"dj c #9e9314",
"dB c #9e983b",
"#c c #9f8a2e",
"cA c #9f8e24",
"ck c #9f8e30",
"a9 c #9f8f24",
"fV c #9f9119",
"fk c #9f911a",
"dV c #9f9317",
"fI c #9f9318",
"#C c #9f9515",
"ds c #a0210e",
"ff c #a02915",
"bO c #a04324",
"cI c #a06e3d",
"#u c #a08c2b",
"bR c #a08d2a",
"ad c #a08e26",
"aX c #a08e2c",
".w c #a08f25",
"fZ c #a0921b",
"d5 c #a0921c",
"eL c #a09224",
"fB c #a09317",
"e8 c #a09318",
"bC c #a0931b",
"fD c #a09418",
"#F c #a09514",
"c. c #a09516",
"fd c #a12915",
"a2 c #a18e27",
"#H c #a18e2a",
"#Y c #a18e2e",
"bd c #a18f29",
"fT c #a1931e",
"a4 c #a19331",
"ez c #a19418",
"eJ c #a19419",
"cQ c #a1943c",
"aP c #a19516",
"es c #a19517",
"az c #a1951d",
"b9 c #a1951e",
"c9 c #a19617",
"fx c #a19618",
"b. c #a19715",
"f5 c #a19716",
"eh c #a19948",
"fa c #a22915",
".E c #a2904d",
"cD c #a29131",
"#R c #a29227",
"cC c #a2931f",
"#A c #a29324",
"aQ c #a29617",
"#t c #a29618",
"di c #a2961b",
"eX c #a2961c",
"f7 c #a29716",
"av c #a29717",
"ee c #a29718",
"bn c #a29719",
".y c #a29816",
"fj c #a29817",
"fl c #a29940",
"bL c #a3452a",
"aj c #a38f2d",
"eM c #a39420",
".Q c #a39424",
"bE c #a39619",
"ci c #a3961c",
".R c #a39717",
"bT c #a39718",
".S c #a39719",
"eR c #a3971a",
"aJ c #a39815",
"#r c #a39817",
"#7 c #a39818",
"gd c #a39918",
"f# c #a43118",
"bN c #a44124",
"dA c #a49033",
"d7 c #a49619",
"cf c #a49718",
"eg c #a4971a",
"cg c #a4971d",
"fY c #a49818",
"aO c #a4981a",
"aM c #a49916",
"dN c #a49917",
"at c #a49918",
"bS c #a49919",
"eo c #a4991b",
"dh c #a49a16",
"eH c #a49a17",
"ch c #a49a18",
"dx c #a49a19",
"fc c #a53218",
"fe c #a53418",
"eK c #a5922b",
"a5 c #a59536",
"as c #a59625",
"dk c #a59819",
"#S c #a59918",
"#o c #a59919",
"dz c #a5991a",
"dg c #a59a16",
"ex c #a59a17",
".U c #a59a18",
"bp c #a59a19",
"c4 c #a59a1c",
"fS c #a59b17",
"cO c #a59b18",
"fA c #a59b1a",
"bU c #a69232",
"bm c #a69a18",
"#b c #a69a19",
"ev c #a69a1b",
"fy c #a69b16",
"e7 c #a69b17",
"#B c #a69b18",
"ag c #a69b19",
"c7 c #a69b1a",
"#. c #a69c18",
"#5 c #a69c19",
"dy c #a69c1a",
"eY c #a69c1b",
"cz c #a69d19",
"aH c #a79a19",
"aN c #a79b18",
"bc c #a79b19",
"aI c #a79b1b",
"ey c #a79b1c",
"bB c #a79c18",
".x c #a79c19",
"ai c #a79c1a",
"ga c #a79c1b",
".W c #a79c1d",
"ba c #a79d18",
"#E c #a79d19",
"dM c #a79d1b",
"bQ c #a8512f",
"df c #a89b19",
"fH c #a89b1c",
"#V c #a89c19",
"cP c #a89c1a",
"aL c #a89c1b",
"fF c #a89c1c",
"cj c #a89c1d",
"#a c #a89d18",
"ax c #a89d19",
"ae c #a89d1a",
"#q c #a89d1b",
"fO c #a89e1a",
"fz c #a89e1b",
"aK c #a99d19",
"e6 c #a99d1a",
"#s c #a99d1b",
"#W c #a99d1c",
"cM c #a99e19",
".A c #a99e1a",
"aZ c #a99e1b",
"c5 c #a99e1c",
"cN c #a99e1d",
"dT c #a99f1b",
"ep c #a99f1c",
"f. c #aa2f17",
".8 c #aa9d1a",
"fX c #aa9d1c",
"#T c #aa9d1d",
"bA c #aa9e1a",
"fP c #aa9e1b",
"ew c #aa9e1c",
"ah c #aa9e1d",
"#U c #aa9f1a",
"a1 c #aa9f1c",
"gg c #aa9f1d",
"eq c #aaa01d",
"fb c #ab2e17",
"dr c #ab3013",
"a3 c #ab9a39",
"d4 c #ab9e1a",
"#6 c #ab9e1c",
"## c #ab9f1a",
"dv c #ab9f1b",
"af c #ab9f1d",
"#X c #aba01b",
"fR c #aba01c",
"fL c #aba01d",
"dU c #aba11b",
"eZ c #aba11d",
"er c #aba21d",
"eb c #ac733b",
"fQ c #ac9f1b",
"ef c #ac9f1c",
"#4 c #ac9f1d",
"cx c #ac9f1e",
".9 c #aca01c",
"#p c #aca01d",
"bb c #aca01f",
"b# c #aca11f",
"bo c #aca21d",
"#G c #aca21f",
"cy c #ad9f1e",
"gi c #ada01b",
"ed c #ada01c",
"eI c #ada01e",
"eG c #ada11e",
".z c #ada11f",
"fK c #ada21d",
"bl c #ada31d",
"c6 c #ada31e",
"#D c #ada31f",
"f9 c #ada41f",
"dw c #aea11e",
"fi c #aea11f",
".T c #aea31d",
"f8 c #aea420",
"gh c #afa21c",
"aY c #afa21f",
"a0 c #afa31e",
"c# c #afa420",
"c8 c #afa51f",
"f6 c #afa520",
"gf c #b0a31d",
"ge c #b0a31e",
"aw c #b0a520",
"f4 c #b0a621",
"fg c #b17a3b",
"au c #b1a620",
"eD c #b72807",
"dt c #b85e34",
"e4 c #bd8237",
"eE c #be7437",
"cu c #bf2f09",
"eC c #c4390e",
"e. c #c4652d",
"cv c #c7592b",
"d2 c #ca7438",
"dq c #d05e1a",
"ct c #d14913",
"eB c #d65215",
"d1 c #d84a0e",
"by c #da5e22",
"bu c #df5411",
"bv c #e04e11",
"bx c #e15612",
"d0 c #e66218",
"cs c #e66b18",
"bw c #e96a19",
"e1 c #ea6416",
"e2 c #ea6515",
"e3 c #ea6615",
"dZ c #ea6819",
".v c #ff431f",
".u c #ff461e",
".P c #ff461f",
".O c #ff481e",
".t c #ff491e",
".6 c #ff4b1d",
".s c #ff4c1d",
"#z c #ff4d1d",
"#m c #ff4e1d",
".r c #ff4f1d",
"#Q c #ff501c",
".q c #ff511c",
"#2 c #ff521c",
"#P c #ff531c",
".p c #ff541c",
".o c #ff561b",
".N c #ff571b",
"ac c #ff581b",
".n c #ff591a",
".5 c #ff5a1a",
".m c #ff5b1a",
".M c #ff5c1a",
".l c #ff5d1a",
".L c #ff5f19",
".k c #ff6019",
".K c #ff6119",
".j c #ff6219",
".J c #ff6318",
".i c #ff6418",
"#l c #ff6518",
".h c #ff6618",
"#k c #ff6717",
".g c #ff6817",
".f c #ff6917",
"#j c #ff6a17",
".e c #ff6b17",
"#i c #ff6c16",
".d c #ff6d16",
"#h c #ff6e16",
".c c #ff6f16",
".b c #ff7016",
".a c #ff7115",
".# c #ff7215",
"Qt c #ff7315",
".I c #ff7415",
".4 c #ff7515",
".H c #ff7614",
"#O c #ff7714",
".3 c #ff7814",
".2 c #ff7914",
".1 c #ff7a13",
".0 c #ff7b13",
"ar c #ff7c13",
"#g c #ff7d13",
"#f c #ff7e13",
"#e c #ff7f12",
"#y c #ff8012",
"#N c #ff8112",
"#x c #ff8212",
"#w c #ff8312",
"#M c #ff8411",
"#L c #ff8511",
"#K c #ff8611",
"#J c #ff8711",
"ab c #ff8810",
"#1 c #ff8910",
"#0 c #ff8a10",
"#Z c #ff8b10",
"aa c #ff8c10",
"aW c #ff8d0f",
"a# c #ff8e0f",
"a. c #ff8f0f",
"aq c #ff900f",
"ap c #ff910f",
"ao c #ff920e",
"an c #ff930e",
"aF c #ff940e",
"aE c #ff950e",
"aD c #ff960e",
"aC c #ff970d",
"aV c #ff980d",
"aU c #ff990d",
"aT c #ff9a0d",
"aS c #ff9b0c",
"bk c #ff9c0c",
"a8 c #ff9d0c",
"a7 c #ff9e0c",
"a6 c #ff9f0c",
"bj c #ffa00b",
"bi c #ffa10b",
"bh c #ffa20b",
"bg c #ffa30b",
"b2 c #ffa40b",
"bt c #ffa50a",
"bs c #ffa60a",
"br c #ffa70a",
"bK c #ffa909",
"cr c #ffaa09",
"bJ c #ffab09",
"bI c #ffac09",
"cq c #ffad09",
"b1 c #ffae08",
"b0 c #ffaf08",
"bZ c #ffb008",
"cd c #ffb208",
"cc c #ffb307",
"cp c #ffb407",
"co c #ffb507",
"cm c #ffb706",
"cn c #ffb707",
"c0 c #ffb806",
"cH c #ffb906",
"cG c #ffba06",
"cZ c #ffbb06",
"cF c #ffbc05",
"cY c #ffbd05",
"cX c #ffbe05",
"cW c #ffbf05",
"dd c #ffc004",
"cV c #ffc005",
"dp c #ffc104",
"dc c #ffc204",
"db c #ffc304",
"da c #ffc404",
"do c #ffc603",
"dn c #ffc703",
"dH c #ffca02",
"dG c #ffcb02",
"dF c #ffcc02",
"dQ c #ffcf01",
"dP c #ffd001",
"dY c #ffd201",
"dX c #ffd400",
"d9 c #ffd800",
"QtQt.#.#.#.a.b.c.d.d.e.f.g.h.i.j.k.l.m.n.o.p.q.r.s.t.u.v.w.x.y.z.A.B.C.D.E.F.G.G",
".H.H.H.H.H.I.IQt.#.b.c.d.e.f.g.h.J.K.L.M.n.N.p.q.r.s.O.P.Q.R.S.T.U.V.W.X.Y.Z.G.G",
".0.0.0.1.2.2.3.H.4.I.#.a.c.d.e.f.h.i.j.L.l.5.N.p.q.r.6.O.7.8.9#.##.9#a#b#c#d.G.G",
"#e#e#e#f#g#g.0.0.2.3.H.I.#.b#h#i#j#k#l.j.L.l.5.N.p.q#m.6#n#o#p#q#r.9#s#t#u#v.G.G",
"#w#w#x#x#x#y#y#f#g.0.1.3.H.I.#.c.d.e.g#l.j.L.l.5.N.p.q#z#A#B#C#D#E#F#G.x#H#d.G#I",
"#J#J#J#K#L#M#M#x#N#e#g.0.2#O.4Qt.b.d.e.f.h.j.L.l.n.o#P#Q#R#S#T#U#V#W#X#S#Y#d.G.G",
"#Z#Z#Z#0#1#1#J#K#M#w#N#e#g.0.2.H.I.a#h.e.f#l.j.L.M.n.o#2#3#V#4#5#V#6.A#7#8#9.G.G",
"a.a.a.a#a#aa#Z#0ab#J#M#x#y#f.0.2.H.I.a#h.e.g#l.j.L.mac.padae.xafag#Eahaiajakalam",
"ananaoaoapaqa.a#aa#0ab#K#M#x#ear.2.H.I.a.d.e#k.i.K.l.m.Nas#ratau#BavawaxayazaAaB",
"aCaCaCaDaEaFaoapaqa##Z#1#J#M#x#ear.2.H.I.b.d#j.h.J.k.l.naGaHaIaJaKaLaMaNaOaPaQaR",
"aSaSaSaTaUaVaCaEanapa.aW#0#J#L#x#ear.2.HQt.c#i.f.h.j.L.maXaiaYaZ.Ua0a1ata2a3a4a5",
"a6a6a6a7a8aSaTaUaCaFaoaqa##Zab#L#x#e.0.2.4.##h.e.g.i.k.la9#Bb.b#bab.bbbcbdbebfbf",
"bgbgbhbhbibja7bkaTaVaEanaqa##Z#J#M#x#f.0#O.I.b.d.f.h.j.L.Q.RaOblbmbnbobpbq#d.G.G",
"brbrbrbsbtbgbhbja7aSaUaDanaqa##0#J#M#y#g.2.H.#bubvbwbxbybzbA#4bB#UbCbDbEbFbG.GbH",
"bIbIbJbKbKbrbtbgbia7aSaUaDanaqaW#1#K#x#e.0.3bLbMbNbObPbQbRbS.9#sbTbUbVbWbXbY.G.G",
"bZb0b1b1bIbJbKbrb2bha6aSaUaEaoa.#Zab#M#N#g.1b3b4b5b6b7b8b9#Ec.c##5cacb.G.G.G.G#I",
"cccccccdbZb1bIbKbrbtbha7aSaVaFapa##0#J#w#e.0cecfcgchbTci#a#Vcj#.#Sckcl.G.G.G.G.G",
"cmcmcncocpcdbZcqcrbrb2bia7aTaCanaqaacsctcucvcwaxcx#.#Vcycz#ocAcBcCcDcE.G.G.G.G.G",
"cFcFcGcHcmcoccbZcqbKbrbgbjbkaUaEapa##0cIcJcKcLcM#BcNaxcOafcPcQcRcScTcU.G.G.G.G.G",
"cVcWcXcYcZc0coccbZbIbKbtbha7aTaCaoa.#Zc1c2c3c4#rc5c6#rc7c8c9d.d#.G.G.G.G.G#I.G.G",
"dadbdcddcXcFc0cocdb1bJbrbgbjaSaVaFaqaadedfaLdg#VaLdhaKdidjdkdldm.G.G.G.G.G.G.G#I",
"dndndodadpcXcZcmcpbZbIbKbtbia8dqdrdsdtdudvdwdx.AdwdydzdAdBdCdDdE.G.G.G.G.G.G.G.G",
"dFdGdHdndaddcYcHcocdb1bKbsbha7aTdIdJdKdLbB.UdMbadNc5#SdOdmdmdm.G.G.GbHbH.G.G.G.G",
"dPdQdFdHdodccXcGcnccb1bJbrbha6aSdRdSciai#rafdT#rcjdUdVdW.G.G.G#I.G.GbHbH.G.G.G.G",
"dXdYdQdGdndbcWcFcmccb0bIdZd0d1d2d3d4af#a##afbabcd5d6d7d8.G.G.G.G.G.G.G.G.G#I.GbH",
"d9dXdPdFdndacVcFcmccbZbIe.e#eaebec.xedee.xefbSegeheiejek.G.G.G.G.G.G.G.G.G.G.G.G",
"dXdYdQdGdndbcWcFcmccb0bIbrelemeneo#BepeqbBdMereset#I.G.G.G.G.G.G.G#I.G.G.GbH.G.G",
"dPdQdFdHdodccXcGcnccb1bJbreubcevdNaxewexbceydNezeA.G.G.G.G#I.G.GbHbH.G.G.G.G.G.G",
"dFdGdHdndaddcYcHcoeBeCeDeEeFd4eGeHbAeIcOeJeKeLeMeN.G.G.G.G.G.G#IbHbH.G.G.G.G.G.G",
"dndndodadpcXcZcmcpbZeOePeQeR#.c5#q#.cP#qbEeSeTeUeV.G.G.G.G.G.G.G.G.G.G.G.G.G.GbH",
"dadbdcddcXcFc0cocdb1eWc2eXaO#rc6eY#reZ#qdSe0.G.G.G.GbHbH.G.G.G.G.G.G.G.G.G.G.G.G",
"cVcWe1cYcZe2cocce3e4e5##e6exbA#se7#beRc.e8e9.G#I.G.GbHbH.G.G.G.G.G.G.G.G.G.G.G#I",
"f.f#fafbfcfdfbfefffgfh#UeI#7bAfifjfkflfmfnfo.G.G.G.G.G.G.G#I.GbH.G.G#I.G.G.G.G.G",
"fpfqfrfsfqftfsfufvfwfxdheqbpfyfzfAfBfC.G.G.G.G.G.G.G.G.G.G.G.G.G.G.G.G.G.G.G.G.G",
"aLfDfEfFe8fGfHfIfJ#Wbpc7fKc7bpfLaifMfN.G.G.G.G.G.G#I.G.G.GbH.G.G.G#I.G.G.G.G.G.G",
"fOaxfP#U#BfQdv.UfQfRcOd4#pfSeJfTfUfVfW.G.G#I.G.GbHbH.G.G.G.G.G.G.G.G.G.G.G#I.G.G",
"fX#r#XfXav#Uafc9.A#4avae#4fYfZf0f1f2f3.G.G.G.G#IbHbH.G.G.G.G.G.G.G.G.G.G.G.G.G#I",
"f4cMf5f6.Af7f8.A#rf9aZdNc6epg.g#.G.G.G.G.G.G.G.G.G.G.G.G.G.G.GbH.G.G.G.G.G.G.G.G",
"ex#VgaaNbmai#V#rae.8f7aefPf7gbgc.G.GbHbH.G.G.G.G.G.G.G.G.G.G.G.G.G.GbHbH.G.G.G.G",
"aZgdgea1fjgfggfjgh#pgdgieGeHgjgk.G.GbHbH.G.G.G.G.G.G.G.G.G.G.G#I.G.GbHbH.G.G.G.G"};
