/* XPM */
static char *dummy[]={
"40 40 550 2",
"#I c #00a15e",
"cr c #06a15e",
"ft c #080808",
"fc c #090909",
"f3 c #0b0b0b",
"dH c #0c0c0c",
"d0 c #0d0d0d",
"ds c #0e0e0e",
"cQ c #0f0f0f",
"cR c #101010",
"e. c #111111",
"ct c #121212",
"cs c #131313",
"#v c #13a15f",
"db c #161616",
"cP c #191919",
"fW c #1c1c1c",
"cS c #1e1e1e",
"dt c #1f1f1f",
"fv c #201e39",
"f4 c #212121",
"fe c #22203b",
"e3 c #231c34",
"fM c #232323",
"eT c #24223e",
"eI c #272641",
"fO c #282530",
"et c #282641",
"gu c #29263f",
"f6 c #292843",
"fC c #2a2842",
"gd c #2b2944",
"gB c #2e2b35",
"gl c #2e2c44",
"ei c #312f48",
"d# c #32a15f",
"dG c #32a579",
"dr c #32a679",
".G c #32a67a",
"da c #33a579",
"bf c #34a579",
"fn c #36344a",
"cO c #36a579",
"cd c #36a679",
"ea c #38354c",
"bZ c #3ba579",
"d2 c #3c394e",
"dJ c #3d3a4f",
".F c #3fa578",
".Z c #40a577",
"bH c #40a578",
"#9 c #41a578",
"#d c #41a678",
"be c #43a578",
"fl c #46a578",
"gA c #484559",
"fj c #4da576",
"e2 c #4f4b5d",
"fN c #525060",
"gJ c #549e58",
"d. c #56a371",
"gj c #56a472",
"cY c #585260",
"df c #585465",
"c9 c #58a572",
"ch c #5b4a49",
"dw c #64544d",
"gz c #666571",
"fX c #666671",
"gt c #676671",
"dZ c #67a996",
"bI c #67aa97",
"cx c #685649",
"cX c #6a626c",
"f5 c #6a6973",
"gi c #6da05f",
"gc c #6f6e77",
"eG c #6fa268",
"gh c #72a267",
"gb c #739959",
"gy c #74a46d",
"b2 c #756458",
"eF c #759d59",
"fL c #759d63",
"gk c #76777d",
"fk c #76a78b",
"fV c #789d60",
"fd c #797c77",
"dc c #797ea6",
"e1 c #797f8a",
"f2 c #799f5e",
"fm c #7b8285",
"al c #7c9451",
"eE c #7ca25f",
"fA c #7d9751",
"bX c #7d9a55",
"fB c #818884",
"fs c #839c56",
"bY c #839f5a",
"bW c #85a057",
"ak c #869855",
"eR c #87964b",
"cy c #886d45",
"eS c #888694",
"e0 c #88964d",
"am c #889c64",
"gs c #898a8e",
"fb c #89974e",
"gq c #8aa375",
"aB c #8b7b19",
"eK c #8b7c14",
"c. c #8b7c16",
"b7 c #8c7e17",
"fi c #8c9c55",
"b6 c #8e7f17",
"es c #8e913f",
"eJ c #8f7e1c",
"fo c #8f8117",
"b9 c #908116",
"dh c #91821a",
"ay c #918415",
".Y c #928123",
"eg c #929443",
"dy c #938417",
"di c #938615",
"d9 c #939443",
"eU c #948615",
"eb c #948618",
"en c #958817",
"fJ c #959743",
"fu c #959886",
"b5 c #96832a",
"ck c #96871c",
"e5 c #968a17",
"fK c #969a3d",
"gg c #96a35e",
"d5 c #978527",
"cG c #97871f",
"fP c #978821",
"fw c #978a16",
"eL c #978a1a",
"dP c #978a1c",
".D c #978b36",
"b1 c #978e8a",
"c1 c #98672c",
"ff c #986e2e",
"cz c #98753f",
"gx c #988a19",
".V c #988c16",
".C c #988e38",
"dF c #989037",
"cw c #989293",
".B c #998627",
"gI c #99891a",
"aA c #998c18",
"f1 c #998d16",
"fY c #998d17",
"ey c #998d19",
"dq c #999039",
"dY c #99994c",
"d4 c #9a862a",
"gp c #9a8d16",
"dj c #9a8d1a",
"eq c #9a8f16",
"gC c #9a9019",
"bQ c #9b4022",
"bN c #9b4023",
"aG c #9b8925",
"b8 c #9b8e1d",
"ec c #9b8f16",
"g# c #9b9017",
"d3 c #9c8535",
".7 c #9c892b",
"#3 c #9c892c",
"aR c #9c8c21",
".X c #9c8f18",
"d6 c #9c9019",
"ew c #9d4a28",
"#8 c #9d892b",
"bA c #9d892c",
"c3 c #9d8f1d",
"fE c #9d9119",
"dX c #9d9739",
"ev c #9e4b2b",
"c2 c #9e7334",
"fg c #9e8132",
"#n c #9e8c28",
"bq c #9e8c29",
"bG c #9e8d25",
"cc c #9e8d30",
"cL c #9e901f",
"bE c #9e9217",
"dD c #9e9314",
"dW c #9e983b",
"#c c #9f8a2e",
"cK c #9f8e24",
"cq c #9f8e30",
"a9 c #9f8f24",
"ga c #9f9119",
"fH c #9f911a",
"ef c #9f9317",
"#C c #9f9515",
"b0 c #9f968f",
"dN c #a0210e",
"bP c #a04324",
"c0 c #a06e3d",
"#u c #a08c2b",
"bS c #a08d2a",
"ad c #a08e26",
"aX c #a08e2c",
".w c #a08f25",
"gf c #a0921b",
"ep c #a0921c",
"f# c #a09224",
"fU c #a09317",
"fz c #a09318",
"bD c #a0931b",
"#F c #a09514",
"ca c #a09516",
"ci c #a17426",
"a2 c #a18e27",
"#H c #a18e2a",
"#Y c #a18e2e",
"bd c #a18f29",
"g. c #a1931e",
"a4 c #a19331",
"eZ c #a19418",
"e9 c #a19419",
"c8 c #a1943c",
"aP c #a19516",
"eQ c #a19517",
"az c #a1951d",
"c# c #a1951e",
"gm c #a19615",
"dp c #a19617",
"fQ c #a19618",
"b. c #a19715",
"eD c #a19948",
"fD c #a27037",
".E c #a2904d",
"cN c #a29131",
"#R c #a29227",
"cM c #a2931f",
"#A c #a29324",
"aQ c #a29617",
"#t c #a29618",
"dC c #a2961b",
"fp c #a2961c",
"gv c #a29716",
"av c #a29717",
"eA c #a29718",
"bn c #a29719",
".y c #a29816",
"fG c #a29817",
"fI c #a29940",
"bM c #a3452a",
"aj c #a38f2d",
"fa c #a39420",
".Q c #a39424",
"bF c #a39619",
"co c #a3961c",
".R c #a39717",
"bU c #a39718",
".S c #a39719",
"fh c #a3971a",
"aJ c #a39815",
"#r c #a39817",
"#7 c #a39818",
"gG c #a39918",
"dv c #a3a4a0",
"gr c #a3a8a3",
"bO c #a44124",
"dV c #a49033",
"er c #a49619",
"cl c #a49718",
"eC c #a4971a",
"cm c #a4971d",
"ge c #a49818",
"aO c #a4981a",
"aM c #a49916",
"d8 c #a49917",
"at c #a49918",
"bT c #a49919",
"eM c #a4991b",
"dB c #a49a16",
"e7 c #a49a17",
"cn c #a49a18",
"dS c #a49a19",
"cA c #a57b39",
"f. c #a5922b",
"a5 c #a59536",
"as c #a59625",
"dE c #a59819",
"#S c #a59918",
"#o c #a59919",
"dU c #a5991a",
"dA c #a59a16",
"eX c #a59a17",
".U c #a59a18",
"bp c #a59a19",
"dk c #a59a1c",
"f9 c #a59b17",
"c6 c #a59b18",
"fT c #a59b1a",
"cT c #a5b3df",
"bV c #a69232",
"bm c #a69a18",
"#b c #a69a19",
"eV c #a69a1b",
"fR c #a69b16",
"fy c #a69b17",
"#B c #a69b18",
"ag c #a69b19",
"dn c #a69b1a",
"#. c #a69c18",
"#5 c #a69c19",
"dT c #a69c1a",
"fq c #a69c1b",
"cJ c #a69d19",
"aH c #a79a19",
"aN c #a79b18",
"bc c #a79b19",
"aI c #a79b1b",
"eY c #a79b1c",
"bC c #a79c18",
".x c #a79c19",
"ai c #a79c1a",
".W c #a79c1d",
"ba c #a79d18",
"#E c #a79d19",
"d7 c #a79d1b",
"bR c #a8512f",
"dz c #a89b19",
"#V c #a89c19",
"c7 c #a89c1a",
"aL c #a89c1b",
"cp c #a89c1d",
"#a c #a89d18",
"ax c #a89d19",
"ae c #a89d1a",
"#q c #a89d1b",
"fS c #a89e1b",
"aK c #a99d19",
"fx c #a99d1a",
"#s c #a99d1b",
"#W c #a99d1c",
"c4 c #a99e19",
".A c #a99e1a",
"aZ c #a99e1b",
"dl c #a99e1c",
"c5 c #a99e1d",
"ed c #a99f1b",
"eN c #a99f1c",
".8 c #aa9d1a",
"#T c #aa9d1d",
"bB c #aa9e1a",
"gw c #aa9e1b",
"eW c #aa9e1c",
"ah c #aa9e1d",
"#U c #aa9f1a",
"a1 c #aa9f1c",
"gE c #aa9f1d",
"eO c #aaa01d",
"dM c #ab3013",
"a3 c #ab9a39",
"eo c #ab9e1a",
"#6 c #ab9e1c",
"## c #ab9f1a",
"dQ c #ab9f1b",
"af c #ab9f1d",
"#X c #aba01b",
"f8 c #aba01c",
"f0 c #aba01d",
"ee c #aba11b",
"fr c #aba11d",
"eP c #aba21d",
"ex c #ac733b",
"f7 c #ac9f1b",
"eB c #ac9f1c",
"#4 c #ac9f1d",
"cH c #ac9f1e",
".9 c #aca01c",
"#p c #aca01d",
"bb c #aca01f",
"b# c #aca11f",
"bo c #aca21d",
"#G c #aca21f",
"cg c #acacb4",
"cI c #ad9f1e",
"gH c #ada01b",
"ez c #ada01c",
"e8 c #ada01e",
"e6 c #ada11e",
".z c #ada11f",
"fZ c #ada21d",
"bl c #ada31d",
"dm c #ada31e",
"#D c #ada31f",
"go c #ada41f",
"dR c #aea11e",
"fF c #aea11f",
".T c #aea31d",
"gn c #aea420",
"gF c #afa21c",
"aY c #afa21f",
"a0 c #afa31e",
"cb c #afa420",
"do c #afa51f",
"gD c #b0a31d",
"aw c #b0a520",
"au c #b1a620",
"dO c #b85e34",
"e4 c #be7437",
"cE c #bf2f09",
"eu c #c4652d",
"eH c #c5c6cd",
"cF c #c7592b",
"de c #c9c7ce",
"em c #ca7438",
"du c #cacbda",
"eh c #cfcfd7",
"dL c #d05e1a",
"cu c #d0d2e1",
"cD c #d14913",
"e# c #d1d0d7",
"ce c #d2d3e2",
"cZ c #d6911d",
"el c #d84a0e",
"cW c #d8d6d6",
"bz c #da5e22",
"b3 c #db9918",
"d1 c #dcdce1",
"bv c #df5411",
"bw c #e04e11",
"by c #e15612",
"dI c #e1e1e5",
"ek c #e66218",
"cC c #e66b18",
"bx c #e96a19",
"ej c #ea6819",
"dK c #eb980a",
"dd c #f0f1f5",
"cB c #f5a10e",
"cv c #f9f9f9",
"dg c #faa20c",
"cV c #fbfbfb",
"cf c #fbfff5",
"cU c #fcfcfe",
"dx c #fea20b",
"br c #fea60b",
".v c #ff431f",
".u c #ff461e",
".P c #ff461f",
".O c #ff481e",
".t c #ff491e",
".6 c #ff4b1d",
".s c #ff4c1d",
"#z c #ff4d1d",
"#m c #ff4e1d",
".r c #ff4f1d",
"#Q c #ff501c",
".q c #ff511c",
"#2 c #ff521c",
"#P c #ff531c",
".p c #ff541c",
".o c #ff561b",
".N c #ff571b",
"ac c #ff581b",
".n c #ff591a",
".5 c #ff5a1a",
".m c #ff5b1a",
".M c #ff5c1a",
".l c #ff5d1a",
".L c #ff5f19",
".k c #ff6019",
".K c #ff6119",
".j c #ff6219",
".J c #ff6318",
".i c #ff6418",
"#l c #ff6518",
".h c #ff6618",
"#k c #ff6717",
".g c #ff6817",
".f c #ff6917",
"#j c #ff6a17",
".e c #ff6b17",
"#i c #ff6c16",
".d c #ff6d16",
"#h c #ff6e16",
".c c #ff6f16",
".b c #ff7016",
".a c #ff7115",
".# c #ff7215",
"Qt c #ff7315",
".I c #ff7415",
".4 c #ff7515",
".H c #ff7614",
"#O c #ff7714",
".3 c #ff7814",
".2 c #ff7914",
".1 c #ff7a13",
".0 c #ff7b13",
"ar c #ff7c13",
"#g c #ff7d13",
"#f c #ff7e13",
"#e c #ff7f12",
"#y c #ff8012",
"#N c #ff8112",
"#x c #ff8212",
"#w c #ff8312",
"#M c #ff8411",
"#L c #ff8511",
"#K c #ff8611",
"#J c #ff8711",
"ab c #ff8810",
"#1 c #ff8910",
"#0 c #ff8a10",
"#Z c #ff8b10",
"aa c #ff8c10",
"aW c #ff8d0f",
"a# c #ff8e0f",
"a. c #ff8f0f",
"aq c #ff900f",
"ap c #ff910f",
"ao c #ff920e",
"an c #ff930e",
"aF c #ff940e",
"aE c #ff950e",
"aD c #ff960e",
"aC c #ff970d",
"aV c #ff980d",
"aU c #ff990d",
"aT c #ff9a0d",
"aS c #ff9b0c",
"bk c #ff9c0c",
"a8 c #ff9d0c",
"a7 c #ff9e0c",
"a6 c #ff9f0c",
"bj c #ffa00b",
"bi c #ffa10b",
"bh c #ffa20b",
"bg c #ffa30b",
"b4 c #ffa40b",
"bu c #ffa50a",
"bt c #ffa60a",
"bs c #ffa70a",
"bL c #ffa909",
"bK c #ffab09",
"bJ c #ffac09",
"cj c #ffae08",
"QtQt.#.#.#.a.b.c.d.d.e.f.g.h.i.j.k.l.m.n.o.p.q.r.s.t.u.v.w.x.y.z.A.B.C.D.E.F.G.G",
".H.H.H.H.H.I.IQt.#.b.c.d.e.f.g.h.J.K.L.M.n.N.p.q.r.s.O.P.Q.R.S.T.U.V.W.X.Y.Z.G.G",
".0.0.0.1.2.2.3.H.4.I.#.a.c.d.e.f.h.i.j.L.l.5.N.p.q.r.6.O.7.8.9#.##.9#a#b#c#d.G.G",
"#e#e#e#f#g#g.0.0.2.3.H.I.#.b#h#i#j#k#l.j.L.l.5.N.p.q#m.6#n#o#p#q#r.9#s#t#u#v.G.G",
"#w#w#x#x#x#y#y#f#g.0.1.3.H.I.#.c.d.e.g#l.j.L.l.5.N.p.q#z#A#B#C#D#E#F#G.x#H#d.G#I",
"#J#J#J#K#L#M#M#x#N#e#g.0.2#O.4Qt.b.d.e.f.h.j.L.l.n.o#P#Q#R#S#T#U#V#W#X#S#Y#d.G.G",
"#Z#Z#Z#0#1#1#J#K#M#w#N#e#g.0.2.H.I.a#h.e.f#l.j.L.M.n.o#2#3#V#4#5#V#6.A#7#8#9.G.G",
"a.a.a.a#a#aa#Z#0ab#J#M#x#y#f.0.2.H.I.a#h.e.g#l.j.L.mac.padae.xafag#Eahaiajakalam",
"ananaoaoapaqa.a#aa#0ab#K#M#x#ear.2.H.I.a.d.e#k.i.K.l.m.Nas#ratau#BavawaxayazaAaB",
"aCaCaCaDaEaFaoapaqa##Z#1#J#M#x#ear.2.H.I.b.d#j.h.J.k.l.naGaHaIaJaKaLaMaNaOaPaQaR",
"aSaSaSaTaUaVaCaEanapa.aW#0#J#L#x#ear.2.HQt.c#i.f.h.j.L.maXaiaYaZ.Ua0a1ata2a3a4a5",
"a6a6a6a7a8aSaTaUaCaFaoaqa##Zab#L#x#e.0.2.4.##h.e.g.i.k.la9#Bb.b#bab.bbbcbdbebfbf",
"bgbgbhbhbibja7bkaTaVaEanaqa##Z#J#M#x#f.0#O.I.b.d.f.h.j.L.Q.RaOblbmbnbobpbq#d.G.G",
"brbsbsbtbubgbhbja7aSaUaDanaqa##0#J#M#y#g.2.H.#bvbwbxbybzbAbB#4bC#UbDbEbFbGbH.GbI",
"bJbJbKbLbLbsbubgbia7aSaUaDanaqaW#1#K#x#e.0.3bMbNbObPbQbRbSbT.9#sbUbVbWbXbYbZ.G.G",
"b0b1b2b3bJbKbLbsb4bha6aSaUaEaoa.#Zab#M#N#g.1b5b6b7b8b9c.c##Ecacb#5cccd.G.G.G.G#I",
"cecfcgchcicjbJbLbsbubha7aSaVaFapa##0#J#w#e.0ckclcmcnbUco#a#Vcp#.#Scqcr.G.G.G.G.G",
"csctcucvcwcxcyczcAcBb4bia7aTaCanaqaacCcDcEcFcGaxcH#.#VcIcJ#ocKcLcMcNcO.G.G.G.G.G",
"cPcQcRcScTcUcVcWcXcYcZbgbjbkaUaEapa##0c0c1c2c3c4#Bc5axc6afc7c8c9d.d#da.G.G.G.G.G",
"dbcQcQcQcQctdbdcdddedfdgbha7aTaCaoa.#Zdhdidjdk#rdldm#rdndodpdqdr.G.G.G.G.G#I.G.G",
"dbdsdsdscQcQcQcQdtdudvdwdxbjaSaVaFaqaadydzaLdA#VaLdBaKdCdDdEdFdG.G.G.G.G.G.G.G#I",
"ctdsdscQcQcQcQdsdHcQdIdJdKbia8dLdMdNdOdPdQdRdS.AdRdTdUdVdWdXdYdZ.G.G.G.G.G.G.G.G",
"cRdsdsdscQdsdsdsdsd0d1d2btbha7aTd3d4d5d6bC.Ud7bad8dl#Sd9dGdGdG.G.G.GbIbI.G.G.G.G",
"e.dsdsdsdsdsdsdscQd0e#eabsbha6aSebeccoai#rafed#rcpeeefeg.G.G.G#I.G.GbIbI.G.G.G.G",
"cQdsdsdsdsdsdsdsdsd0eheiejekelemeneoaf#a##afbabcepeqeres.G.G.G.G.G.G.G.G.G#I.GbI",
"cQdsdsdscQd0dsdsdsdHeheteuevewexey.xezeA.xeBbTeCeDeEeFeG.G.G.G.G.G.G.G.G.G.G.G.G",
"cRdsdsdscQcQdsdsdsdHeHeIbseJeKeLeM#BeNeObCd7ePeQeR#I.G.G.G.G.G.G.G#I.G.G.GbI.G.G",
"cRdsdsdscQcRcQdsdsd0eSeTbseUbceVd8axeWeXbceYd8eZe0.G.G.G.G#I.G.GbIbI.G.G.G.G.G.G",
"cRdsdscQe.ctctcQcQe1e2e3e4e5eoe6e7bBe8c6e9f.f#fafb.G.G.G.G.G.G#IbIbI.G.G.G.G.G.G",
"cRdscQcte.cte.cQfcfdfefffgfh#.dl#q#.c7#qbFfifjfkfl.G.G.G.G.G.G.G.G.G.G.G.G.G.GbI",
"cRdsctctctctdsd0fmfnfodifpaO#rdmfq#rfr#qecfs.G.G.G.GbIbI.G.G.G.G.G.G.G.G.G.G.G.G",
"csctctctctcQd0ftfufvfw##fxeXbB#sfy#bfhcafzfA.G#I.G.GbIbI.G.G.G.G.G.G.G.G.G.G.G#I",
"ctctctctcQdHfcfBfCfDfE#Ue8#7bBfFfGfHfIfJfKfL.G.G.G.G.G.G.G#I.GbI.G.G#I.G.G.G.G.G",
"ctctctcQdHdHfMfNfOfPfQdBeObpfRfSfTfUfV.G.G.G.G.G.G.G.G.G.G.G.G.G.G.G.G.G.G.G.G.G",
"ctctcRdHd0fWfXfefY#WbpdnfZdnbpf0aif1f2.G.G.G.G.G.G#I.G.G.GbI.G.G.G#I.G.G.G.G.G.G",
"ctcQdHf3f4f5f6d8f7f8c6eo#pf9e9g.g#gagb.G.G#I.G.GbIbI.G.G.G.G.G.G.G.G.G.G.G#I.G.G",
"d0dHdHfWgcgd#Wdp.A#4avae#4gegfggghgigj.G.G.G.G#IbIbI.G.G.G.G.G.G.G.G.G.G.G.G.G#I",
"d0f3f4gkglgmgn.A#rgoaZd8dmeNgpgq.G.G.G.G.G.G.G.G.G.G.G.G.G.G.GbI.G.G.G.G.G.G.G.G",
"grgsgtgueQai#V#rae.8gvaegwgvgxgy.G.GbIbI.G.G.G.G.G.G.G.G.G.G.G.G.G.GbIbI.G.G.G.G",
"gzgAgBgCfGgDgEfGgF#pgGgHe6e7gIgJ.G.GbIbI.G.G.G.G.G.G.G.G.G.G.G#I.G.GbIbI.G.G.G.G"};
