/* XPM */
static char *dummy[]={
"40 40 753 2",
"#o c #000000",
"ft c #000100",
"ad c #000829",
"jp c #000838",
"au c #000e63",
"aL c #001071",
"ib c #00158d",
"eX c #0019a9",
"eI c #001bb8",
"gA c #001cbc",
"ec c #001dc9",
"aD c #0021e2",
"#w c #0023f0",
"bK c #0026fb",
"fL c #0026fe",
"aM c #0026ff",
"jz c #003ddf",
"jJ c #0041da",
"bj c #0053c0",
"jP c #005fb2",
"fc c #007443",
"fK c #009172",
"jA c #009f5d",
".a c #00a15e",
"dD c #010208",
"j. c #0126f8",
"dG c #0126fb",
"eK c #012af9",
"aU c #020101",
"jF c #0226f6",
"g# c #0227f8",
"fG c #030302",
"fF c #030304",
"bS c #031166",
"iP c #0326f1",
"hw c #032ef5",
"cz c #040403",
"#4 c #040404",
"gV c #041677",
"#5 c #04174b",
"#x c #0428f5",
"ef c #0431f1",
"bq c #050404",
"cX c #050505",
"d0 c #06150f",
"#W c #061613",
"jy c #0635ed",
"ix c #06452b",
"#M c #070605",
".Z c #070d0c",
"cN c #080808",
"ez c #081b14",
"eh c #082af0",
"ff c #093ee5",
"c6 c #0a0b0b",
"iZ c #0a241a",
"jB c #0a2be4",
"jN c #0a42e1",
"#6 c #0b43d4",
"e# c #0b8e58",
"iL c #0c1126",
"jL c #0c35f1",
"eb c #0c3edb",
"g. c #0c46dc",
"aC c #0d0d0c",
"al c #0d0e0f",
"g9 c #0e0e0f",
"jr c #0e2cd2",
".R c #0e2e22",
"eN c #0e49d8",
"bI c #0f0f0d",
"b# c #0f0f0e",
"dH c #0f35d5",
"bA c #0f3736",
"hd c #0f4dd4",
"fi c #0f975f",
"gJ c #101010",
"#. c #103527",
"bi c #103b41",
"ac c #111111",
"ae c #11427e",
"#7 c #1146ce",
"fe c #1256cc",
"g4 c #131212",
"gz c #133126",
"iF c #13905d",
"ed c #145ac8",
"d1 c #152cb7",
"fd c #155dc4",
"h7 c #161717",
"eZ c #16241e",
"aV c #164936",
"c7 c #171717",
"cO c #171818",
"d9 c #171820",
"dI c #1736df",
"hv c #1761bf",
"hM c #181917",
"bk c #1836ce",
".Q c #18503a",
"jO c #1865bc",
"is c #191a1a",
"jQ c #1947e4",
"#E c #19503a",
"dR c #19553f",
"ds c #1a1b16",
"#V c #1a1f18",
"dQ c #1a2419",
"da c #1a46af",
"jR c #1a69b8",
"hc c #1b5b43",
"gk c #1c1c1c",
"e. c #1c5d44",
"eM c #1c6db3",
"cW c #1d1e1e",
"dF c #1d70af",
"hk c #1e1e1a",
"fb c #1e2824",
".9 c #1e3929",
"hS c #1e9061",
"av c #1f39d3",
"jT c #1f75ac",
"a4 c #2054b6",
"eq c #216e50",
"#N c #216e51",
"hp c #219c63",
"eH c #22291f",
"fg c #227da3",
"hr c #232426",
"ji c #233dc5",
"eg c #23819f",
"ep c #242431",
"fJ c #247758",
"fI c #252727",
"hy c #253fc9",
"iQ c #257c5b",
".2 c #25869a",
"i9 c #25869b",
"#v c #262523",
"dC c #263cb1",
"aN c #273ec7",
"#g c #277959",
"jK c #278996",
"fs c #28282e",
"eW c #282f2c",
"#p c #284230",
"eL c #288d93",
".r c #298662",
"jH c #298964",
"g5 c #298965",
"cl c #2a2b29",
"id c #2a5bd3",
"jx c #2a8260",
"eJ c #2a918e",
"aT c #2b2b2b",
"f9 c #2b2d2d",
".j c #2b8f69",
".A c #2b916b",
"iz c #2b968a",
"ba c #2c916b",
"bJ c #2d8866",
"i0 c #2d9a86",
"iC c #2e44b3",
".i c #2e9970",
"jS c #2e9d82",
"gx c #2f3a36",
"hu c #2f3c38",
"#X c #2f485b",
"aK c #302f2e",
"ho c #304cf0",
".z c #30926b",
"jG c #30a075",
"dE c #30a07d",
"ee c #30a17e",
"hN c #313434",
".0 c #315871",
"gW c #319d74",
"hx c #31a479",
"fh c #31a579",
"#3 c #323333",
"hb c #323d2f",
"ia c #32413d",
"bT c #329f75",
"ie c #32a077",
"jq c #32a177",
"iA c #32a378",
"g6 c #32a478",
"br c #32a479",
".I c #32a579",
"Qt c #32a67a",
"jU c #3367cb",
"b0 c #339972",
"d. c #339a73",
"d# c #33a076",
"fW c #34322d",
"cu c #343532",
"gK c #34584b",
"cA c #348a69",
"gO c #34906c",
".h c #34a075",
"gU c #35362a",
"if c #358969",
"eO c #35a077",
".k c #35a479",
"ga c #368668",
"gB c #368f6d",
"iB c #36906e",
"e6 c #369e76",
".B c #36a479",
"bR c #373731",
"jD c #379773",
"eA c #379e74",
"bh c #383734",
"g8 c #383935",
"a3 c #383c5a",
"iG c #3848ac",
".H c #389e74",
"cb c #393b3b",
"gX c #399871",
".b c #39a379",
"dz c #3a3936",
"cY c #3a3a38",
"hR c #3a3d3e",
"eP c #3a4aa3",
"jw c #3a8669",
".q c #3a9e75",
".t c #3aa379",
"f# c #3b3b37",
"ea c #3b967a",
"he c #3b9775",
"fM c #3b9976",
"eB c #3d498d",
"jE c #3d9b78",
"e7 c #3e7e60",
".S c #3e8967",
"jC c #3e9a78",
"iw c #3f8169",
"at c #40464b",
"ig c #404f94",
"jM c #4077be",
"eY c #408e70",
"dJ c #409370",
"bz c #414953",
"jo c #416d5d",
"iR c #418b6b",
"hl c #418d6c",
"bB c #419274",
"dk c #42413d",
"fE c #42433e",
"bU c #428978",
".y c #42a078",
".l c #42a77d",
"ik c #43518b",
"hq c #43715d",
"am c #43855a",
"hF c #444137",
"f. c #44464a",
"er c #448d69",
"iO c #449074",
".g c #44a179",
"fH c #45494b",
"g7 c #457c5f",
"iN c #45856d",
".C c #45a87e",
"gw c #46443c",
"e5 c #464f7e",
"a5 c #465186",
"dZ c #465540",
"h. c #474a4d",
"cC c #475f59",
"jj c #47675c",
"bb c #478266",
"iD c #47856e",
"cB c #478970",
"b3 c #484a47",
"f0 c #484b49",
"jb c #494b48",
".Y c #496756",
"jI c #4984b4",
"db c #4a557e",
"iE c #4a8772",
"cy c #4b4d49",
"dA c #4b5b58",
".1 c #4b86ae",
"## c #4ba179",
"fP c #4c4e4e",
"gC c #4c6f63",
"af c #4c8574",
".p c #4ca67e",
"dP c #4d4e5c",
"gp c #4d556f",
"bl c #4d557c",
"hT c #4d5984",
"gb c #4d6b61",
"gY c #4d6f5b",
"i1 c #4d8670",
".u c #4dab83",
"jf c #4e514d",
"f8 c #4e5152",
"js c #4e7065",
"ei c #4e795f",
"iM c #4e8773",
"gI c #4f5150",
"hY c #4f5452",
"c9 c #4f5662",
"hf c #4f7a65",
"ca c #50524c",
"jn c #50605b",
"iJ c #51524d",
".m c #51ad85",
"aB c #525251",
"hE c #52544e",
"ex c #535151",
"c5 c #53524a",
"iy c #5390aa",
".x c #53ac84",
".D c #53ae86",
"ir c #54545e",
"fX c #545656",
"hA c #545752",
"gS c #545758",
".f c #54ad86",
"cM c #555248",
"fx c #55554c",
"as c #555950",
"cv c #555959",
"es c #556255",
"i8 c #556460",
"#F c #559d77",
"hm c #55ae86",
"hZ c #565347",
"dY c #565753",
"fZ c #565958",
"i. c #565a5a",
"hU c #565f5d",
"iv c #566083",
"iK c #56664d",
"i# c #566762",
"bL c #567c6e",
".P c #568969",
"dl c #57554c",
"hP c #575956",
"aJ c #585b5d",
"#U c #585c56",
"ck c #585c5a",
"cc c #585c5d",
"ev c #585c60",
"d8 c #585d4f",
"aw c #585d7e",
".v c #58b088",
"gT c #595a4e",
"eF c #595a5b",
"i7 c #595b56",
"en c #595b5c",
"a2 c #595b62",
"je c #595c5a",
"fO c #595d5c",
"g1 c #595d61",
"gM c #596e69",
".o c #59b18a",
"g3 c #5a5a5a",
"ar c #5a5d60",
"el c #5a5e61",
"iS c #5a5e6a",
"bV c #5a6871",
"gy c #5a7a72",
".n c #5ab28b",
"bZ c #5b5b53",
"h6 c #5b5c52",
"fk c #5b5d57",
"iX c #5b5e56",
"i3 c #5b5e59",
"by c #5b5e5e",
"e0 c #5b5f60",
"ht c #5b5f6d",
"gL c #5b6584",
"j# c #5b7f73",
".3 c #5b8d8e",
".J c #5b9e79",
".E c #5bb38b",
".w c #5bb48c",
"bH c #5c5d56",
"bu c #5c5f5b",
"ab c #5c5f63",
"cx c #5c605f",
"em c #5c6064",
"eE c #5c6165",
"gP c #5c628e",
"iY c #5c675b",
".e c #5cb48c",
"hn c #5cb48d",
"bp c #5d5c59",
"d7 c #5d6060",
"eu c #5d6165",
"ha c #5d6558",
"ey c #5d6e53",
"fa c #5d7064",
"b. c #5e5e5c",
"ej c #5e5f5b",
"fl c #5e615d",
"dO c #5e6161",
"eo c #5e6856",
"#8 c #5e687f",
"eV c #5e6f63",
"bW c #5f615c",
"eC c #5f615e",
"h# c #5f6163",
"hQ c #5f625f",
"cj c #5f636b",
"aS c #5f6468",
"aO c #5f666f",
"eG c #5f6b58",
"fj c #5f726b",
"bC c #5f7469",
"bD c #60635d",
"fw c #606463",
"hV c #606464",
"iI c #606466",
"g2 c #606469",
"b2 c #606562",
"ao c #606569",
"ct c #606761",
"#y c #6069ad",
"e4 c #61635a",
"bQ c #616562",
"ew c #61656a",
"aA c #61666a",
"ja c #616764",
"il c #616956",
"hz c #616d69",
"gN c #617b74",
"aX c #62645c",
"hj c #62645e",
"bN c #626563",
"hB c #626564",
"jv c #626a7e",
"ju c #627671",
"aW c #628879",
"aP c #636565",
"bg c #636668",
"bx c #636765",
"hD c #636767",
"#O c #638464",
"ic c #63a59a",
"ax c #646664",
"gZ c #646766",
"aG c #64686c",
"b1 c #647973",
".s c #64a693",
"bc c #65665f",
"dU c #656869",
"i6 c #656969",
"a1 c #65696b",
"g0 c #65696d",
"dX c #656a6e",
"i2 c #656e66",
"dB c #656f79",
"dd c #65736d",
"bs c #658179",
"hs c #666967",
"eD c #666a6f",
"jg c #666b6b",
"jh c #66a895",
"gF c #676863",
"eU c #676967",
"bM c #676a63",
"hX c #676b6b",
"ek c #676b70",
"fY c #676c6c",
"iW c #676c6f",
"aI c #676c70",
"jk c #676f6e",
".# c #67aa97",
"cd c #686a65",
"gl c #686d70",
"a9 c #686d71",
"bf c #686d72",
"gq c #68775e",
"cs c #68816d",
"aF c #696960",
"bt c #696b64",
"jc c #696d6e",
"et c #696d70",
"a0 c #696d72",
"hO c #696e6e",
"bY c #696e6f",
"aq c #696e72",
"iV c #696e73",
"fN c #697271",
"cP c #6a685f",
"a6 c #6a6d6b",
"gD c #6a786c",
"an c #6b6a5f",
"hg c #6b6d68",
"iH c #6b6e61",
"bm c #6b6e6e",
"b5 c #6b6f6f",
"b4 c #6b6f70",
"cw c #6b7071",
"bG c #6b7072",
"jd c #6b7172",
"e3 c #6b7175",
"iq c #6c6d69",
"h8 c #6c7171",
"bo c #6c7176",
"#h c #6c9a78",
"cm c #6d7171",
"cD c #6d7172",
"iT c #6d7274",
"b6 c #6e6e65",
"a8 c #6e7278",
"go c #6e7373",
"dc c #6e7577",
"ih c #6e7a78",
"dS c #6e836f",
"f7 c #6f695a",
"hL c #6f7364",
"aY c #6f7477",
"aR c #6f7478",
"jt c #6f7576",
"#f c #6f9172",
"eQ c #70726c",
"jl c #707575",
"h9 c #707576",
"bd c #707578",
"aE c #708670",
"ci c #709a7a",
"gE c #716f6c",
"fQ c #71726c",
"c# c #717366",
"ay c #71757a",
"az c #71767a",
"hC c #717779",
"ij c #717c7a",
"gQ c #727066",
"#Y c #72757f",
"hW c #727778",
"d2 c #728169",
"dK c #728269",
"#D c #73716a",
"cE c #737878",
"c8 c #73787a",
"fu c #73787b",
"d6 c #73787d",
"fv c #73797c",
"aQ c #74787d",
"bP c #74797c",
"a7 c #74797e",
"dN c #747a7e",
"cr c #747cba",
".G c #74a793",
"be c #75797f",
"bn c #757a7f",
"eT c #757a80",
"bw c #767b7f",
"aZ c #767b80",
"it c #767e7e",
"d3 c #77776f",
"iu c #778482",
"ii c #778583",
"gd c #787971",
"#T c #787c80",
"iU c #787c82",
"aH c #787d82",
".c c #78ae9a",
"gG c #797e83",
"gm c #797f7f",
"i5 c #797f83",
"dL c #7a796f",
"bE c #7a7e80",
"in c #7a7e82",
"ap c #7a7e84",
"d4 c #7a7f84",
"gc c #7a807f",
"eR c #7b8083",
"#Q c #7b8086",
"ak c #7b8186",
"dT c #7c7a76",
"fy c #7c7e74",
"#2 c #7c8287",
".8 c #7c8870",
"cn c #7d7e76",
"e8 c #7d8286",
"aa c #7d8388",
"ag c #7d8571",
"e2 c #7e838a",
"#S c #7e8488",
"ip c #7e8489",
"ah c #7f8180",
"fm c #7f8382",
"#a c #7faf88",
"#n c #807a6d",
"bX c #808588",
"bF c #80868b",
".d c #80b39e",
"#Z c #81827f",
"a. c #81868c",
"ce c #827f71",
"gj c #828585",
"gt c #82888d",
".F c #82b4a0",
"de c #83806f",
"hh c #83878b",
"dW c #83898e",
"gv c #84847b",
"im c #858273",
"dt c #858473",
"cf c #868071",
"fD c #878473",
"gu c #878c8f",
"gH c #878c92",
".T c #87ae8d",
"ge c #888575",
"gi c #888e94",
"aj c #898f95",
"#L c #8a8272",
"#9 c #8a877b",
"cF c #8a8f8e",
"hi c #8a8f96",
"bO c #8a9095",
"jm c #8b9294",
"#P c #8c887a",
"dr c #8c8a82",
"i4 c #8c9196",
"bv c #8d9298",
"e9 c #8d9299",
"eS c #8f939b",
"#1 c #8f959b",
"b9 c #9090a0",
"gf c #90918d",
"gR c #90959c",
"c. c #90a78e",
"#q c #91a287",
"cG c #928d7e",
"gr c #928f85",
"dp c #929698",
"fn c #949185",
"gh c #949aa0",
"b7 c #959181",
"di c #959899",
"e1 c #9599a1",
".O c #959a81",
"d5 c #959ba2",
"gn c #959fa1",
"dx c #96999a",
"hG c #97949c",
"dM c #979da4",
"dm c #989481",
"dy c #989893",
"dj c #989894",
"cq c #98a18c",
"co c #999486",
"#G c #99a58a",
"#0 c #9a9fa7",
"dq c #9c9e9e",
"ch c #9cc2a2",
"fz c #9d9684",
"hK c #9d9788",
"cV c #9e9883",
"dV c #9ea3ab",
"cp c #9f9988",
"f1 c #a09c8d",
"ai c #a0a5ae",
"df c #a29f92",
"cZ c #a39f90",
"du c #a39f94",
"h0 c #a59d89",
"dn c #a5a5a3",
"a# c #a5aab2",
"gg c #a5abb3",
"cg c #a5bfa4",
"fR c #a7a08d",
"fr c #a7a68d",
"h5 c #a8a191",
"b8 c #a8a495",
"gs c #a8adb5",
"c4 c #a9a28f",
"#l c #a9aba8",
"h3 c #a9aba9",
"cL c #aaa28e",
"#C c #aaaba7",
"dw c #aaaeb1",
"#R c #aab0b8",
"#e c #aba690",
"#u c #abaaa2",
"#K c #acaaa1",
"#m c #ada99e",
"h4 c #ada99f",
"dh c #adb0b4",
"io c #adb2bb",
"cU c #aea793",
"dg c #aeb0b2",
".X c #afaa94",
"#J c #afb2b0",
"dv c #afb2b4",
"cQ c #b1a894",
"#t c #b3b5b3",
".4 c #b3baa9",
"#i c #b4ab96",
"#z c #b6ae99",
".K c #babea6",
"#r c #bbb6a7",
"c3 c #bbb7a7",
"fV c #bcb7a9",
"do c #bcbfc4",
"#H c #bdb8aa",
"f5 c #bdbbb2",
"cK c #beb9aa",
"h1 c #bfbcb1",
"f6 c #c0b6a1",
"#B c #c0c2c0",
"#j c #c1beb5",
"fC c #c2baa2",
"fo c #c2baa6",
"#A c #c2bfb7",
"fU c #c4c5bf",
"#k c #c4c5c3",
"cH c #c5bba5",
"#s c #c5c4bf",
"#I c #c5c5c1",
".7 c #c6c0ac",
"c0 c #c7bea8",
"h2 c #c7c7c5",
"f2 c #c8bda5",
".U c #c8c8af",
"f4 c #c9c9c2",
"cT c #cac7bc",
"#b c #cccab1",
".N c #cdc6b2",
"fS c #cec5af",
"fT c #d2cec2",
"c2 c #d3d0c3",
"cJ c #d4d0c4",
"cR c #d5ccb7",
"hH c #d6ceb7",
"hJ c #d6cfbb",
"f3 c #d6d0c0",
"fA c #d9d3bc",
"#d c #dad3c0",
"cI c #dad3c1",
"c1 c #dad3c2",
".L c #dbd2bb",
"cS c #dbd6c8",
"fq c #dcd2bb",
".5 c #ddd4be",
".W c #ddd5c2",
"fp c #e1d8c1",
".V c #e4dcc7",
"fB c #e6dec6",
"#c c #e6dec9",
".6 c #e6decb",
".M c #e8e0cd",
"hI c #e9e1ce",
"QtQtQtQtQtQtQtQtQtQtQtQtQtQtQtQtQtQtQtQtQtQtQtQtQtQtQtQtQtQtQt.#QtQt.aQtQtQtQtQt",
"QtQtQtQt.aQtQtQtQtQtQtQt.aQtQtQtQtQtQtQt.aQtQtQtQtQtQtQt.aQtQtQtQtQtQtQtQtQtQtQt",
"Qt.aQtQtQtQtQtQtQt.aQtQtQt.#QtQtQt.aQtQtQtQtQtQtQt.aQtQtQt.#QtQtQt.aQtQtQtQtQtQt",
"QtQtQtQtQt.aQtQt.#.#QtQtQtQtQtQtQtQtQtQtQt.aQtQt.#.#QtQtQtQtQtQtQtQtQtQtQt.aQtQt",
"QtQtQtQtQtQtQt.a.#.#QtQtQtQtQtQtQtQtQtQtQtQtQt.a.#.#QtQtQtQtQtQtQtQtQtQtQtQtQt.a",
"QtQtQtQtQtQtQtQtQtQtQtQtQtQtQt.#QtQtQtQtQtQtQtQtQtQtQtQtQtQtQt.#QtQtQtQtQtQtQtQt",
"Qt.b.c.d.e.f.g.h.i.j.k.l.m.n.o.p.q.r.s.#Qt.t.u.v.w.x.y.z.AQt.B.C.D.E.F.G.H.IQtQt",
"Qt.J.K.L.M.N.O.P.Q.R.S.T.U.V.W.X.Y.Z.0.1.2.3.4.5.6.7.8.9#..j###a#b#c#d#e#f#gQtQt",
"Qt#h#i#j#k#l#m#n#o#o#p#q#r#s#t#u#v#o#o#w#x#y#z#A#B#C#D#o#o#E#F#G#H#I#J#K#L#M#N.#",
"Qt#O#P#Q#R#S#T#U#V#W#X#Y#Z#0#1#2#3#4#5#6#7#8#9a.a#aaabacadaeafagahaiajakal#o#oQt",
"QtamanaoapaqarasatauavawaxayazaAaBaCaDQtQtaEaFaGaHaIaJaKaLaMaNaOaPaQaRaSaTaUaVQt",
".#aWaXaYaZa0a1a2a3aua4a5a6a7a8a9b.b#baaMQtbbbcbdbebfbgbhbibjbkblbmbnboa9bpbqbrQt",
".#bsbtbubvbwbxbybzbAbBbCbDbEbFbGbHbIbJ.IbKbLbMbNbObPbQbRbSbTbUbVbWbX#SbYbZ#4b0Qt",
"Qtb1b2b3b4b5b6b7b8b9c.c#cacbcccdcecfcgchcicjckclcmcncocpcqcrcsctcucvcwcxcyczcA.#",
"QtcBcCcDcEcFcGcHcIcJcKcLcMcNcOcPcQcRcScTcUcVcWcXcYcZc0c1c2c3c4c5c6c7c8cmc9#4d.Qt",
"Qtd#dadbdcdddedfdgdhdidjdk#o#odldmdndodpdqdr#o#odsdtdudvdwdxdydz#o#odAdBdCdDdE.a",
"QtdFdGdHdIdJdKdLaZdMdNdOdPdQdRdSdTdUdVdWdXdYdZd0d1d2d3d4d5d6d7d8d9e.e#eaebecedQt",
"eeefaMegQteheiejekelemeneoepeqereseteuevewexeyezeAeBeCeDeleEeFeGeHeIQtQteJeKaMeL",
"eMaMeNQtQteOePeQeReSeTeUeVeWeXeYeZe0e1e2e3e4e5eze6e7eQe8e9f.f#fafbfcaMQtQtfdaMfe",
"ffaMfgaMfhfifjfkflfmfnfofpfqfrfsftcXfufvfwfxfyfzfAfBfCfDfEfFfGfHfIfJQtaMQtfKaMeK",
"aMeKeeQtfLfMfNfOfPfQfRfSfTfUfVfW#o#ofXfYfZf0f1f2f3f4f5f6f7#o#of8f9fJQtQtaMQtffaM",
"aMg.QtQtQtg#gagbgcgdgegfggghgigjgkglgmgngogpgqgrdMgsgtgugvgwgxgygzgAQtQtQtaMfdaM",
"aMfeaM.#QtQtbKgBgCgDgEgFgGgHdXgIgJgKgLgMgNgOgPgQevgRazgSgTgUgVgWQtQtaM.#QtQtaMaM",
"aMfe.#aMQtQtQtaMQtgXgYgZg0g1g2g3g4g5.#aMQtg6g7g8g9h.emh#hahbhcaMQtQt.#aMQtQtdFaM",
"aMhdQtQtaM.aQt.#fLhehfhghhhiazhjhkhlhmhnhohphq#o#ohraHhshthuhcQtaMQtQtQtaM.ahvaM",
"aMhwQtQtQtaMQtQthxhyhzhAhBhChDhEhFhGhHhIhJhKhLhMcXhNhOhPhQhRhcQtQtaMQtQtQtaMeNaM",
"efaMaMQtQt.#aMQthxhShThUhVhWhXhYhZh0h1h2h3h4h5h6h7h8h9i.i#iaibQtQt.aaMQtQticeKaM",
"idaMfdaMQtQtQtaMQtieifigihiiijikiliminioipd4iqirisitiuiviwixhcaM.#.#QtaMQteMaMg.",
"iyaMeKizaMQtQtQtaMQtiAiBiCiDiEiFiGiHiIape3emiJiKiLiMiNiOiPfJiQ.aaM.#QtQtaMefaMfg",
"QtfeaMg.QtaMQt.#QtaMQtQtQtaMQtQtiRiSiTiUiViWiXiYiZaMQtQtQtaMQtQtQtaMQtQtfeaMff.#",
"Qti0efaMfeQtaMQtQtQtaM.#QtQtaMhxi1i2i3i4i5i6i7i8iZQtaM.#QtQtaMQtQtQtaMdFaMeKeLQt",
"QtQti9eKaMhdeeaMQtQt.#aMQtQtQtj.j#jajbjcjdjejfjgiZQt.#aMQtQtQtaMQtQteMaMaMdFQt.a",
"QtQt.aegeKaMg.i0aMQtQtQtaM.aQtjhjijjjkjljmi6jnjojpQtQtQtaM.aQt.#aMhvaMaMeMQtQtQt",
"QtQtQtQteLefaMhwdFaMQtQtQtaMQtQtjqjrjsjtjujvjwjxiZaMQtQtQtaMQtegjyaMeKfgQtQtQtQt",
"Qt.aQtQtQti0eNaMaMjzaMeeQt.#aMQtQtjAjBjCjDjEjFjGjH.aaMQtQtjIeNaMaMjJjKQtQtQtQtQt",
"QtQtQtQtQt.aQtegjLaMaMeffdi9eeaMQtQtQtaMQt.aQtaM.#.#jKaMjyaMaMhwdFQtQtQtQt.aQtQt",
"QtQtQtQtQtQtQt.aicjMjNaMaMaMaMfffdjOjOjOaMjOjOjPjQaMaMaMaMjyjRjSQtQtQtQtQtQtQt.a",
"QtQtQtQtQtQtQtQtQtQtQtjKfdg.aMaMaMaMaMaMaMaMaMaMaMaMffedegQtQt.#QtQtQtQtQtQtQtQt",
"QtQt.#.#QtQtQtQtQtQtQtQtQtQtQtjKjTjOjUjUjOjOjOdFi9eeQtQtQtQtQtQtQtQt.#.#QtQtQtQt",
"QtQt.#.#QtQtQtQtQtQtQtQtQtQtQt.aQtQt.#.#QtQtQtQtQtQtQtQtQtQtQt.aQtQt.#.#QtQtQtQt"};
