/* XPM */
static char *dummy[]={
"40 40 596 2",
".2 c #00a15e",
"hq c #272640",
"hp c #2e2d2e",
"gv c #313131",
"gK c #32314a",
"d2 c #32a579",
"Qt c #32a67a",
"c5 c #33a579",
"gH c #363636",
"cu c #36a579",
"cc c #36a679",
"hd c #373328",
"dX c #393939",
"dW c #3a3a3a",
"bW c #3aa579",
"g5 c #3b382b",
"e0 c #3b3b3b",
"fy c #3c3c3c",
"gw c #3e3e3e",
"ei c #3f3f3f",
".# c #3fa578",
"gM c #404040",
".I c #40a578",
"fZ c #414141",
".3 c #41a578",
"dG c #434343",
"bd c #43a577",
"dl c #444444",
"c3 c #454545",
"fO c #45a578",
"ex c #464646",
"ho c #47411c",
"g# c #474747",
"fA c #484848",
"fN c #494949",
"fr c #4a4a4a",
"gE c #4b4752",
"e1 c #4b4b4b",
"fc c #4c4c4c",
"fP c #4ca474",
"ga c #4d4d4d",
"fQ c #4da576",
"f8 c #4e484b",
"eK c #4e4e4e",
"gS c #4f4a15",
"fd c #4f4f4f",
"c4 c #505050",
"fz c #515151",
"dH c #525252",
"eg c #534f60",
"ej c #535353",
"ew c #545062",
"dY c #545454",
"eI c #555163",
"dm c #555555",
"gW c #559f55",
"c7 c #55a370",
"eY c #565264",
"fL c #574d5c",
"f0 c #575757",
"c6 c #57a476",
"hr c #585766",
"ey c #595959",
"he c #5a5868",
"fe c #5a5a5a",
"c8 c #5aa675",
"fs c #5b5b5b",
"do c #5c5c5c",
"ff c #5d5d5d",
"#j c #5da472",
"dn c #5e5e5e",
"#i c #5ea476",
"gT c #5f5d6a",
"dJ c #5f5f5f",
"dU c #605456",
"d1 c #606060",
"gi c #615f6d",
"dI c #616161",
"dZ c #626262",
"d0 c #636363",
"gZ c #645d1d",
"gk c #659f62",
"gN c #669e5b",
"dp c #67a996",
"bp c #67aa97",
"#k c #68a472",
"bc c #68a996",
"fX c #6e6c78",
"gV c #6e9f64",
"g2 c #6ea163",
"g. c #6f6f6f",
"dF c #707070",
"cr c #716055",
"e2 c #71a270",
"g8 c #72a36a",
"cG c #736662",
"e3 c #739c58",
"hi c #74a46c",
"cs c #756a67",
"dE c #777ea7",
"cZ c #786859",
"gx c #789f5a",
"dB c #797278",
"gI c #799f5d",
"bY c #7a994f",
"e4 c #7ca160",
"g0 c #7d7e83",
"f1 c #829d53",
"gb c #839c59",
"fB c #869b5a",
"bX c #869f67",
"g6 c #88888d",
"bZ c #88a25b",
"cj c #897a15",
"#F c #8a7b18",
"fg c #8a9b4a",
"cY c #8b6f48",
"fo c #8b7b16",
"ft c #8b994d",
"cm c #8c7a1e",
"dw c #8c7e15",
"gG c #8c94af",
"fR c #8d9d55",
"ct c #8f8682",
"#E c #90801a",
"g1 c #909599",
"cg c #918317",
"gt c #919196",
"ek c #919540",
".L c #928416",
"gl c #929540",
"da c #936627",
"gD c #948125",
"fm c #94851b",
"ci c #948618",
"eE c #948716",
"g9 c #958716",
"cl c #958718",
".c c #958836",
"dg c #959090",
"ez c #969842",
"dP c #978719",
"hj c #97891b",
".b c #978a38",
"f9 c #97979a",
"gm c #979941",
"cR c #98871b",
"er c #988725",
"eT c #988818",
"ck c #988a1d",
"d4 c #989334",
"eL c #98984e",
"f. c #994522",
"fW c #99732d",
"cC c #998a1b",
"ch c #998a1f",
".K c #998c17",
"fn c #998c1a",
"dt c #998d16",
"dD c #999bb3",
"hf c #999c9a",
"hh c #999e9b",
"b4 c #9a4021",
"b7 c #9a4120",
"fw c #9a5d2e",
"cX c #9a753f",
"fJ c #9a8d18",
"dv c #9a8d19",
"es c #9b8530",
"af c #9b8825",
"a. c #9b892a",
"aE c #9b8b21",
"ea c #9b8c1a",
"gy c #9b8f18",
"f# c #9c492b",
"bL c #9c8827",
"## c #9c8928",
"aT c #9c8929",
".R c #9c8b24",
"gh c #9c8e18",
"ep c #9c8f17",
"fl c #9c9016",
"by c #9d8c25",
"aL c #9d8e22",
"gO c #9d901a",
"gY c #9d901c",
"#G c #9d901e",
"bI c #9d9117",
"go c #9d9119",
"c9 c #9d9239",
"fp c #9e5928",
"df c #9e7842",
"eq c #9e8932",
"#s c #9e8b25",
".J c #9e8b2c",
"#R c #9e8c26",
".d c #9e8c28",
"a2 c #9e8e26",
"d. c #9e8f1e",
"cN c #9e8f20",
"e8 c #9e9019",
"f5 c #9e9316",
"a0 c #9e932b",
"ed c #9f200e",
"b5 c #9f4125",
"fK c #9f5d2d",
"db c #9f6b37",
"a7 c #9f8b27",
"#0 c #9f8d28",
".i c #9f8e24",
"al c #9f8e25",
"eO c #9f921a",
"f6 c #9f921b",
"gc c #9f9316",
"cB c #9f9317",
"f7 c #9f931a",
"gR c #9f9417",
"#H c #9f9514",
"e5 c #9f9847",
"b8 c #a0422a",
".4 c #a08b31",
"fC c #a09121",
"cL c #a0921b",
"#S c #a09417",
"eD c #a09419",
"fS c #a0941a",
"g3 c #a0941b",
".O c #a09517",
"eM c #a09518",
"aO c #a09614",
"fF c #a09618",
"d3 c #a09c5e",
"fV c #a18239",
"#D c #a18a3a",
"be c #a19028",
"dK c #a1933f",
"gr c #a19419",
"#T c #a1941c",
"e6 c #a19519",
"du c #a1951c",
"#J c #a19615",
"bv c #a19618",
"bf c #a19715",
"fv c #a19716",
"ap c #a28e29",
"d6 c #a29033",
"gP c #a29419",
"gQ c #a2941d",
"fU c #a29619",
"aA c #a29717",
"#r c #a29718",
"bs c #a29719",
"bi c #a29815",
"a6 c #a29818",
"d5 c #a29a3f",
"gL c #a2a6a1",
"b2 c #a3902a",
"b0 c #a3902f",
"cv c #a39231",
"aw c #a39622",
"ds c #a39717",
"hn c #a39718",
"eA c #a39719",
"cz c #a3971a",
"dq c #a3973b",
"dO c #a39816",
"#p c #a39817",
"gC c #a39818",
"ge c #a3981a",
"el c #a39915",
".f c #a39916",
"cP c #a39917",
"e. c #a39918",
"b3 c #a44e30",
"eF c #a45426",
"d# c #a47a3d",
"#l c #a49031",
"bF c #a49131",
"fE c #a4932a",
"cM c #a49422",
"fD c #a49423",
"bq c #a49429",
"cd c #a49530",
"eN c #a4971b",
"dM c #a49817",
"aS c #a49818",
"#m c #a49819",
"aN c #a4981b",
"aQ c #a49916",
"fh c #a49917",
"a5 c #a49918",
"ax c #a49919",
"en c #a49a15",
"h# c #a49a16",
"fH c #a49a17",
"eP c #a49a18",
"gX c #a4a265",
"gj c #a4a6a5",
"b6 c #a54224",
"gs c #a57235",
"#Z c #a59918",
"b1 c #a59919",
"bH c #a5991c",
"aR c #a59a17",
"br c #a59a18",
".Q c #a59a19",
"d7 c #a59a1a",
"az c #a59b18",
"gn c #a69943",
"#. c #a69a18",
"bx c #a69a19",
"ac c #a69b18",
".N c #a69b19",
"cx c #a69b1a",
"dL c #a69b1b",
"gg c #a69c17",
"fT c #a69c18",
"#L c #a69c19",
"gA c #a69c1a",
"f3 c #a69c1b",
"gU c #a6aba6",
"gd c #a79a1a",
"ha c #a79b18",
"bu c #a79b19",
"bG c #a79b1a",
"cw c #a79b1b",
"gJ c #a79b1d",
"gz c #a79c17",
"bh c #a79c18",
".h c #a79c19",
"aD c #a79c1a",
".7 c #a79d18",
"hl c #a79d19",
"gB c #a79d1b",
"fa c #a83923",
"eb c #a8522d",
"hc c #a89c18",
"#V c #a89c19",
".5 c #a89c1a",
"#X c #a89c1b",
"hb c #a89c1c",
".e c #a89d19",
"am c #a89d1a",
"fu c #a89d1b",
"cf c #a89e19",
"ab c #a89e1a",
"fM c #a8a9a9",
"aM c #a99c19",
"cA c #a99c1b",
"h. c #a99c1c",
"eC c #a99c1d",
"aP c #a99d19",
"dN c #a99d1a",
"#o c #a99d1b",
"#q c #a99d1c",
".9 c #a99e19",
"gq c #a99e1a",
"fj c #a99e1c",
".M c #a99e1d",
"fk c #a99f1c",
"gF c #a9aca9",
"ec c #aa260f",
"cK c #aa9546",
".a c #aa9759",
"gf c #aa9d1b",
".8 c #aa9e19",
"bJ c #aa9e1a",
"cy c #aa9e1b",
"a4 c #aa9e1c",
"ao c #aa9e1d",
"#U c #aa9f1a",
"ae c #aa9f1b",
"cQ c #aa9f1c",
"fY c #aaacac",
"gu c #aaaeae",
"dx c #ab4920",
"aZ c #ab974a",
"fG c #ab9e1a",
"aa c #ab9e1c",
"an c #ab9e1d",
"eR c #ab9f1a",
"ad c #ab9f1c",
"eS c #ab9f1d",
".g c #ab9f1e",
"#W c #aba01b",
"eo c #aba01d",
"bj c #aba01e",
"eB c #aba11d",
"em c #aba11e",
"g4 c #aba21d",
"c0 c #aba3a2",
"eU c #ac582c",
"eQ c #ac9f1a",
"bK c #ac9f1c",
"a# c #ac9f1d",
"#Y c #aca01b",
".6 c #aca01c",
"#n c #aca01d",
"d9 c #aca01e",
"bg c #aca01f",
"f4 c #aca11d",
"#K c #aca11f",
"bt c #aca21d",
"fi c #aca21e",
"e9 c #ad7640",
"a1 c #ad9c3c",
"cO c #ada01c",
"e7 c #ada01d",
"fI c #ada01e",
"e# c #ada11e",
"bw c #ada21d",
"#I c #ada21f",
"f2 c #ada31e",
"ce c #ada320",
"cF c #ae8233",
"hk c #aea01e",
"d8 c #aea11c",
"gp c #aea11e",
"hm c #aea11f",
".P c #aea31e",
"dr c #aea41f",
"hg c #aeb2ac",
"dc c #af3e26",
"cD c #af4323",
"et c #af5631",
"a3 c #afa31e",
"aC c #afa520",
"g7 c #afb3ad",
"aB c #b0a620",
"dQ c #b1512b",
"ay c #b1a620",
"cS c #b24422",
"cn c #b54422",
"#1 c #b63518",
"bz c #b83418",
".S c #b93519",
"aF c #ba3418",
"bM c #bb3015",
"b9 c #bc3116",
"aU c #bc3b19",
"#M c #bd3418",
".j c #bd3518",
"cU c #be2e09",
"bk c #be3518",
"aq c #be371a",
"ee c #bf2f10",
"#a c #c0421b",
"c2 c #c0c5d2",
"#t c #c33a1b",
"a8 c #c8411d",
"ag c #c9451d",
"dk c #c9cbce",
"cT c #cb2f0a",
"dh c #d6d4d3",
"fq c #d8d7df",
"eW c #d94b0f",
"cJ c #dcdae0",
"dC c #dcdce0",
"eV c #dd3e0d",
"eX c #dd5113",
"cV c #de4f15",
"bR c #df5110",
"fx c #dfdee2",
"eu c #e04f10",
"bO c #e05210",
"bN c #e15213",
"eG c #e15a15",
"dy c #e26218",
"cq c #e39d17",
"dV c #e3e3e8",
"eJ c #e3e3eb",
"cE c #e46818",
"eZ c #e4e4eb",
"dR c #e55111",
"bP c #e55914",
"co c #e66617",
"fb c #e6e5ec",
"dd c #e75c12",
"bQ c #e76619",
"eh c #e7e7ed",
"cH c #e9e8ea",
"dS c #ea6a16",
"bl c #eb6b12",
".k c #eb6c12",
"cW c #eb9d14",
"dT c #f09911",
"ef c #f29a10",
"ev c #f49c0f",
"cI c #f6f8ef",
"eH c #f79e0d",
"dA c #f79e0e",
"c1 c #f9f9f8",
"dz c #fb9c0d",
"de c #fea20b",
"bU c #fea609",
"bV c #fea70b",
".l c #ff461e",
".T c #ff461f",
".U c #ff481e",
".m c #ff491e",
"#b c #ff4b1d",
".n c #ff4c1d",
"#N c #ff4d1d",
"#u c #ff4e1d",
".o c #ff4f1d",
"#2 c #ff501c",
".p c #ff511c",
"ah c #ff521c",
"#3 c #ff531c",
".q c #ff541c",
".r c #ff561b",
".V c #ff571b",
"ar c #ff581b",
".s c #ff591a",
"#c c #ff5a1a",
".t c #ff5b1a",
".W c #ff5c1a",
".u c #ff5d1a",
".X c #ff5f19",
".v c #ff6019",
".Y c #ff6119",
".w c #ff6219",
".Z c #ff6318",
".x c #ff6418",
"#v c #ff6518",
".y c #ff6618",
"#w c #ff6717",
".z c #ff6817",
".A c #ff6917",
"#x c #ff6a17",
".B c #ff6b17",
"#y c #ff6c16",
".C c #ff6d16",
"#z c #ff6e16",
".D c #ff6f16",
".E c #ff7016",
".F c #ff7115",
".G c #ff7215",
".H c #ff7315",
".0 c #ff7415",
"#d c #ff7515",
".1 c #ff7614",
"#4 c #ff7714",
"#e c #ff7814",
"#f c #ff7914",
"#g c #ff7a13",
"#h c #ff7b13",
"aG c #ff7c13",
"#A c #ff7d13",
"#B c #ff7e13",
"#C c #ff7f12",
"#O c #ff8012",
"#5 c #ff8112",
"#P c #ff8212",
"#Q c #ff8312",
"#6 c #ff8411",
"#7 c #ff8511",
"#8 c #ff8611",
"#9 c #ff8711",
"as c #ff8810",
"ai c #ff8910",
"aj c #ff8a10",
"ak c #ff8b10",
"at c #ff8c10",
"a9 c #ff8d0f",
"au c #ff8e0f",
"av c #ff8f0f",
"aH c #ff900f",
"aI c #ff910f",
"aJ c #ff920e",
"aK c #ff930e",
"aV c #ff940e",
"aW c #ff950e",
"aX c #ff960e",
"aY c #ff970d",
"b. c #ff980d",
"b# c #ff990d",
"ba c #ff9a0d",
"bb c #ff9b0c",
"bA c #ff9c0c",
"bm c #ff9d0c",
"bn c #ff9e0c",
"bo c #ff9f0c",
"bB c #ffa00b",
"bC c #ffa10b",
"bD c #ffa20b",
"bE c #ffa30b",
"cp c #ffa40b",
"bS c #ffa50a",
"bT c #ffa60a",
"c. c #ffa70a",
"c# c #ffa909",
"ca c #ffab09",
"cb c #ffac09",
"dj c #fffefd",
"di c #ffffff",
"QtQt.#.a.b.c.d.e.f.g.h.i.j.k.l.m.n.o.p.q.r.s.t.u.v.w.x.y.z.A.B.C.C.D.E.F.G.G.G.H",
"QtQt.I.J.K.L.M.N.O.P.Q.R.S.T.U.n.o.p.q.V.s.W.X.Y.Z.y.z.A.B.C.D.E.G.H.0.0.1.1.1.1",
"Qt.2.3.4.5.6.7.8.6.9#.###a.U#b.o.p.q.V#c.u.X.w.x.y.A.B.C.D.F.G.0#d.1#e#f#f#g#h#h",
"#i#j#k#l#m#n#o#p.6#q#r#s#t#b#u.p.q.V#c.u.X.w#v#w#x#y#z.E.G.0.1#e#f#h#h#A#A#B#C#C",
"#D#E#F#G.e#H#I.e#J#K#L.i#M#N.p.q.V#c.u.X.w#v.z.B.C.D.G.0.1#e#g#h#A#B#O#O#P#P#P#Q",
"#R#S#T#U#V#q#W#V#X#Y#Z#0#1#2#3.r.s.u.X.w.y.A.B.C.E.H#d#4#f#h#A#C#5#P#6#6#7#8#9#9",
"a.#Va##L.eaaabacadae#pafagah.r.s.W.X.w#v.A.B#z.F.0.1#f#h#A#C#5#Q#6#8#9aiaiajakak",
"alam.han.N.han.N.eao.Qapaq.qar.t.X.w#v.z.B#z.F.0.1#f#h#B#O#P#6#9asajakatauauavav",
"aw#paxayazaAaB.haAaCaDaEaF.V.t.u.Y.x#w.B.C.F.0.1#faG#C#P#6#8asajatauavaHaIaJaJaK",
"aLaMaNaOaP#XaQ#V#XaRaSaTaU.s.u.v.Z.y#x.C.E.0.1#faG#C#P#6#9aiakauaHaIaJaVaWaXaYaY",
"aZa0a1a2ama3a4a5a3ada6a7a8.t.X.w.y.A#y.D.H.1#faG#C#P#7#9aja9avaIaKaWaYb.b#babbbb",
"bcbcbdbeacbfbgbhbibj.N.ibkbl.v.x.z.B#z.G#d#f#h#C#P#7asakauaHaJaVaYb#babbbmbnbobo",
"bpbp.3bqbrbsbtbubvbwbxbybz.X.w.y.A.C.E.0#4#h#B#P#6#9akauaHaKaWb.babAbnbBbCbDbDbE",
"QtQt.IbFbGbHbIbJbK#U#.bLbMbNbObPbQbR.G.1#f#A#O#6#9ajauaHaKaXb#bbbnbBbDbEbSbTbUbV",
"QtQtbWbXbYbZb0b1.6#q#rb2b3b4b5b6b7b8b9#e#h#C#P#8aia9aHaKaXb#bbbnbCbEbSc.c#c#cacb",
"QtQtQtQtQtcccd.N#Jcecfcgchcicjckclcmcnco#A#5#6asakavaJaWb#bbbobDcpc.c#cacqcrcsct",
"QtQt.2QtQtcucv.hcwabbucxcy#SczcAcBcCcDcE#C#Q#9ajauaIaVb.bbbnbDbSc.c#cbcFcGcHcIcJ",
"QtQtQtQtQtcucKcLcMcNa5cOcycPcOcQa5cRcScTcUcVasataHaKaYbabnbCcpcWcXcYcZc0c1c2c3c4",
"Qt.2QtQtQtc5c6c7c8c9aDbh.gbr.7a#.Nd.d#dadbdcddauaIaWb#bAbBdedfdgdhdidjdkdldmdndo",
"QtQtQtQtQt.2QtQtdpdqb1aAdr.5dsdraDdtdudvdwdxdyavaJaYbadzdAdBdCdDdEdFdGdHdodIdndJ",
"QtQtQtQtQtQtQt.2dpdKaSdLaAdMcy#V#pdNdNdOdPdQdRaHdSb.bbdTdUdVdldWdXdYdodIdZd0d0d1",
"QtQtQtQtQtQtQtQtd2d3d4d5d6d7d8d9e.#Ye#a5eaebecedeeb#bmefegehdWeiejdZd0dId0d0d0dI",
"QtQtbpbpQtQtQtQtQtd2d2d2ekbvelembreneo.QepeqereseteubnevewehdXexdHeydJd0d0d0d0dI",
"QtQtbpbpQtQtQtQtQtQtQtQtezeAaxeBbxb1bwcxbveCeDeEeFeGboeHeIeJdWeKdHdmeydIdZd0d0dI",
"QtQtQtQtQt.2QtbpQtQt.2QteLeMeNeOePeQ#nazeReS.7eTeUeVeWeXeYeZe0c4dHe1eydodId0d0dI",
"QtQtQtQtQtQtQtQtQtQtQtQte2e3e4e5e6dNe7aA.he7#re8e9f.f#faeYfbe0fcc4eKfdfeffd1d1dI",
"Qt.2QtQtQtbpQtQtQt.2QtQtQtQtQtfgczfhfifjaReBfkflfmfnfofpeIfqdWdGc4fdfrdmeyfsd1dI",
"bpbpQtQtQtQtQtQtQtQtQtQtQt.2QtftcBamfu#pdNa4fh#V#qfv.Kfwewfxfyfyfzfde1fAc4eyffdI",
"bpbpQtQtQtQtQtQtQtQtQtQtQtQtQtfBfCfDfEfFfGe#fHbJfIazfJfKfLfMdZdXfNfdfdfrfNdmfefe",
"QtQtQtQtQtQtQtbpQtQtQtQtQtQtQtfOfPfQfRfSfTfjamfT.5fufUfVfWfXfYfyfZeKfdeKfNfNf0fe",
"QtQtQtQtQtQtQtQtQtQtbpbpQtQtQtQtQtQtf1eD#pf2f3#pf4fuf5f6f7f8f9g.dXg#e1fdfrgagaey",
"QtQtQtQtQtQtQt.2QtQtbpbpQtQtQtQtQtQtgbgcgdgecPaPgfggaPgfggghgigjfzeifAfdfdfdc4dY",
"QtQt.2QtQtQtQtQtQtQtQtQtQt.2QtbpQtQtgkglgmgngobJgp#pgqgpe.grgsgtgugvgwfNfdc4dYdY",
"QtQtQtQtQtQtQtQtQtQtQtQtQtQtQtQtQtQtQtQtQtgxgygzcxgAbhePgBgCgDgEgFgGgHgwgadYdYdY",
"Qt.2QtQtQtQtQtQtQt.2QtQtQtbpQtQtQt.2QtQtQtgIe6a5eoaba5d9ae#pgJgegKgLfNe0gMdHdYdY",
"QtQtQtQtQt.2QtQtbpbpQtQtQtQtQtQtQtQtQtQtQtgNgOgPgQgReRanfTeRanfTgSgTgUgvgwfZdHdY",
"QtQtQtQtQtQtQt.2bpbpQtQtQtQtQtQtQtQtQtQtQtc6gVgWgXgY#Vcyd7.hbJcw.NgZg0g1dXeigMga",
"QtQtQtQtQtQtQtQtQtQtQtQtQtQtQtbpQtQtQtQtQtQtQtQtg2g3acfjg4acaDdraca5g5g6g7d1dXgv",
"QtQtbpbpQtQtQtQtQtQtQtQtQtQtQtQtQtQtbpbpQtQtQtQtg8g9bhh.h#hahbh#hchbelhdhehfhghh",
"QtQtbpbpQtQtQtQtQtQtQtQtQtQtQt.2QtQtbpbpQtQtQtQthihjaefIfTgqhkhl#Vhmhlhnhohphqhr"};
