/* XPM */
static char *dummy[]={
"40 40 1015 2",
"mN c #3d372c",
"k7 c #463f32",
"hw c #453f32",
"ds c #443e31",
"n0 c #28231a",
"jn c #423b30",
"fY c #413b30",
"k6 c #6a6557",
"cV c #2c251b",
"nI c #322c20",
"ft c #2b2319",
"hv c #6a6456",
"ay c #332d21",
"h. c #2c251b",
"i0 c #2b2419",
"a1 c #3d372c",
"dr c #696455",
"kI c #2c251b",
"mr c #2b2419",
"k5 c #635d4f",
"hu c #645f50",
"dq c #666051",
"cU c #3f382c",
"mM c #585042",
"jm c #615a4c",
"fX c #625c4d",
"g9 c #3f382c",
"cT c #3d372c",
"g8 c #3e382c",
"kH c #3f382c",
"fs c #362e23",
"iZ c #362f24",
"kG c #3f392d",
"mq c #373024",
"nS c #211e17",
"nU c #221e17",
"nV c #23201a",
"nT c #24201a",
"nJ c #24211b",
"nY c #26221b",
"nZ c #27231b",
"nQ c #28241c",
"nR c #28241d",
"nK c #29241d",
"nz c #2b261c",
"nE c #2b261d",
"nM c #2b261e",
"nL c #2b271e",
"mg c #2c1c1f",
"mo c #2c251b",
"cK c #2c271e",
"nX c #2c271f",
"iE c #2d271c",
"cO c #2d271e",
"nP c #2d2820",
"m# c #2e271d",
"kr c #2e281f",
"nO c #2e2920",
"nW c #2e2a21",
"cs c #2f281d",
"gS c #2f291d",
"e0 c #30291d",
"iB c #302a1d",
"nN c #302c22",
"l9 c #312a1d",
"j5 c #322c20",
"bY c #332c20",
"ao c #332c22",
"nu c #332d22",
"av c #342c22",
"i7 c #352f25",
"n# c #353024",
"cP c #353027",
"nn c #363025",
"cL c #363027",
"nl c #363125",
"cB c #363127",
"aa c #372f22",
"l7 c #373023",
"eD c #373024",
"bw c #373025",
"my c #373026",
"gk c #373125",
"jM c #373126",
"mB c #373127",
"gY c #373128",
"at c #373129",
"gT c #373228",
"eu c #383124",
"id c #383125",
"cI c #383227",
"mI c #383228",
"ap c #383229",
"ks c #383329",
"kT c #392e2d",
"lQ c #393224",
"lS c #393225",
"fB c #393328",
"km c #393329",
"e2 c #39332a",
"dZ c #3a3326",
"fr c #3a3327",
"cC c #3a3328",
"lr c #3a3426",
"iY c #3a3427",
"an c #3a3428",
"aR c #3a3429",
"nF c #3a352a",
"mp c #3b3427",
"gU c #3b3428",
"cH c #3b3429",
"cJ c #3b3529",
"nA c #3b362b",
"fq c #3c3429",
"cE c #3c3529",
"gX c #3c352a",
"cg c #3c362a",
"mn c #3c362b",
"nv c #3c372b",
"lW c #3d222b",
"cM c #3d3529",
"cD c #3d3629",
"#7 c #3d362a",
"iD c #3d362b",
"kq c #3d372b",
"mh c #3e1e2e",
"gW c #3e362a",
"gV c #3e372a",
"#3 c #3e372b",
"#W c #3e372c",
"iK c #3e382b",
"e5 c #3e382c",
"aq c #3f372c",
"kn c #3f382b",
"au c #3f382c",
"cG c #3f382d",
"ar c #3f392c",
"ax c #3f392d",
"kM c #3f392e",
"kS c #3f392f",
"aw c #3f3a2f",
"#H c #40382a",
"lO c #40382b",
"e3 c #40392d",
"kp c #40392e",
"iH c #403a2d",
"hd c #403a2f",
"kj c #411e2e",
"nH c #41392d",
"nw c #413a2d",
"nD c #413a2e",
"nB c #413b2d",
"mc c #413b2e",
"iI c #413b2f",
"mV c #413b30",
"er c #42372c",
"d9 c #423a2c",
"ic c #423a2d",
"ny c #423a2e",
"eC c #423b2d",
"cQ c #423c2f",
"md c #423c30",
"d. c #423c31",
"mm c #431f30",
"lB c #432931",
"hU c #433b2d",
"lv c #433b2e",
"nG c #433b2f",
"cN c #433c2f",
"cF c #433c30",
"iG c #433c31",
"iF c #433e32",
"l6 c #443c2e",
"mb c #443d31",
"mf c #443d32",
"cR c #443e31",
"ma c #444033",
"aH c #444037",
"iy c #451c31",
"eZ c #453e2e",
"nx c #453e2f",
"cS c #453e31",
"kE c #453f31",
"e4 c #453f32",
"me c #454034",
"iA c #463e2f",
"l8 c #463f2f",
"cr c #463f31",
"ko c #463f32",
"iC c #464032",
"kF c #464033",
"## c #473f30",
"gR c #473f31",
"cf c #474031",
"cm c #474032",
"iJ c #474033",
"m. c #474133",
"jH c #481c34",
"am c #484034",
"#C c #484132",
"bT c #484133",
"as c #484134",
"al c #484234",
"bn c #484235",
"bO c #494133",
"dU c #494136",
"nC c #494233",
"#w c #494234",
"e1 c #494335",
"bh c #494336",
"iX c #4a1f35",
"lf c #4a3935",
"nh c #4a4133",
"eY c #4a4233",
"jP c #4a4234",
"lp c #4a4236",
"#o c #4a4335",
"f7 c #4a4337",
"iz c #4b4334",
"dD c #4b4337",
"na c #4b4434",
"d2 c #4b4436",
"nm c #4b4534",
"no c #4b4535",
"d8 c #4c4334",
"lc c #4c4438",
"mz c #4c4537",
"hz c #4c4538",
"ia c #4d2138",
"hT c #4d4435",
"k9 c #4d4539",
"l4 c #4e2338",
"mi c #4e243a",
"lu c #4e4435",
"ng c #4e4535",
"nt c #4e4536",
"#V c #4e4637",
"ms c #4e4638",
"k4 c #4e483a",
"ht c #4f2439",
"hQ c #4f243b",
"j2 c #4f263b",
"ns c #4f4636",
"#2 c #4f4637",
"#6 c #4f4738",
"c. c #504839",
"k1 c #51263d",
"lt c #514738",
"bN c #514837",
"bS c #514838",
"cc c #514939",
"j7 c #51493a",
"cn c #514b3d",
"lo c #52273c",
"lK c #52293e",
"hY c #52473a",
"j4 c #524838",
"d7 c #524839",
"jO c #524938",
"a. c #524939",
"nd c #524a38",
"gC c #524a39",
"do c #524c3d",
"ch c #524c3e",
"b9 c #524d3e",
"lN c #534939",
"gQ c #534a3a",
"nc c #534b39",
"ce c #534b3a",
"i6 c #534b3e",
"nj c #534c39",
"eA c #534c3a",
"#5 c #534c3b",
"i8 c #534c3e",
"#Y c #534d3b",
"gD c #534e3f",
"mF c #534f43",
"g7 c #542d41",
"jj c #543243",
"eB c #544a3a",
"cl c #544b3a",
"c# c #544b3b",
"nf c #544c3a",
"cp c #544c3b",
"ey c #544d3b",
"i1 c #544d3e",
"fA c #544d3f",
"mE c #544d40",
"gB c #544e40",
"ih c #55493a",
"lU c #554b3a",
"gE c #554b3b",
"mO c #554c3a",
"#Z c #554c3b",
"ck c #554c3c",
"mW c #554d3a",
"kk c #554d3b",
"fC c #554e3f",
"j6 c #554f40",
"kt c #562f44",
"cd c #564d3c",
"aQ c #564f41",
"ie c #56513e",
"lT c #56523e",
"mD c #565245",
"gP c #573343",
"eX c #574a41",
"#9 c #574d3e",
"cq c #574e3d",
"#S c #57503d",
"mv c #575042",
"mK c #575142",
"mw c #575245",
"mu c #575246",
"mJ c #575346",
"gA c #583745",
"j# c #584146",
"#U c #584e3d",
"lx c #584f3b",
"lA c #584f3c",
"kl c #584f3d",
"#n c #584f3e",
"np c #58503b",
"hW c #58503c",
"ni c #58513c",
"ev c #58513d",
"aV c #585142",
"i3 c #585144",
"mG c #585345",
"gi c #593846",
"ew c #594f3d",
"#v c #594f3e",
"et c #59503c",
"ne c #59503d",
"nq c #59503e",
"nb c #59513c",
"dY c #59513d",
"hS c #59513e",
"aS c #595243",
"mH c #595244",
"jl c #595344",
".6 c #595346",
"nk c #5a503d",
"ib c #5a503e",
"lR c #5a503f",
"a# c #5a513e",
"#0 c #5a523e",
"es c #5a5240",
"nr c #5a5241",
"kL c #5a5244",
"bv c #5a5341",
"aI c #5a5343",
"mx c #5a5344",
"mA c #5a5345",
"#X c #5a5446",
".3 c #5a5447",
"#8 c #5a5545",
"#4 c #5a5547",
"ci c #5b513e",
"#F c #5b523f",
"dX c #5b5241",
"ez c #5b533f",
"jL c #5b5342",
"k3 c #5b5345",
"hc c #5b5446",
"jk c #5b5447",
"ex c #5b5547",
".U c #5b5548",
"mC c #5b5648",
"dQ c #5c3f41",
"eq c #5c4948",
"#T c #5c523f",
"dT c #5c5240",
"dB c #5c5241",
"#G c #5c533e",
"ca c #5c533f",
"dF c #5c5341",
"hR c #5c5342",
"gj c #5c5442",
"i5 c #5c5546",
"i4 c #5c564a",
"kR c #5c5749",
"dR c #5d4940",
"d1 c #5d523f",
"#r c #5d533f",
"#z c #5d5340",
"k8 c #5d5341",
"dC c #5d5342",
"j8 c #5d5440",
"le c #5d5442",
"lb c #5d5443",
"m1 c #5d5542",
"fx c #5d5547",
"c9 c #5d5647",
"mt c #5d5749",
"dw c #5d574a",
"aC c #5d574e",
"k. c #5e414b",
"#m c #5e523f",
"go c #5e5340",
"if c #5e5440",
"lM c #5e5441",
"dG c #5e5443",
"bI c #5e5540",
"cb c #5e5541",
"dW c #5e5542",
"hy c #5e5544",
"co c #5e5642",
"l5 c #5e5643",
"hD c #5e5645",
"dn c #5e5647",
"e. c #5e5742",
"kN c #5e5747",
"fz c #5e5748",
"ak c #5e594d",
"bP c #5f5540",
"lP c #5f5640",
"bV c #5f5641",
"j9 c #5f5642",
"cj c #5f5643",
"hB c #5f5644",
"dA c #5f5645",
"lw c #5f5742",
"n. c #5f5746",
"aM c #5f5749",
"lz c #5f5843",
"fW c #5f5848",
"aX c #5f5849",
"dp c #5f594b",
"i2 c #5f594c",
"aN c #5f5a4c",
"j. c #5f5a4d",
"fV c #60464e",
"ly c #605541",
"hX c #605641",
"l# c #605645",
"lV c #605743",
"ig c #605744",
"mU c #605745",
"dV c #605844",
"aP c #60594a",
"i9 c #60594c",
"he c #605a4a",
"fy c #605a4b",
"mL c #605a4d",
"en c #614548",
"ep c #614c4c",
"bW c #615741",
"hV c #615840",
"bJ c #615841",
"#1 c #615944",
"lq c #615945",
"fD c #61594e",
"aU c #615a4a",
"ha c #615a4c",
"aO c #615b4c",
"dc c #615b4d",
"ml c #624350",
"gn c #625842",
"#A c #625942",
"m9 c #625946",
"aZ c #625b4b",
"dl c #625b4d",
"c7 c #625c4d",
"fw c #625c4e",
"kQ c #625c4f",
"e# c #635743",
"#s c #635942",
"d5 c #635943",
"dd c #63594f",
"mR c #635a44",
"bu c #635b47",
"k2 c #635b4c",
"a0 c #635c4c",
"kJ c #635e51",
"ea c #64504d",
".G c #64594c",
"mY c #645a44",
"bM c #645a45",
"j3 c #645a47",
"m7 c #645b44",
"bR c #645b45",
"bU c #645b46",
"#l c #645b47",
"jK c #645c47",
"kK c #645c4c",
"hj c #645d4d",
"kO c #645d4e",
"aY c #645d4f",
"aL c #645e50",
"ix c #654953",
"fE c #654c54",
"eE c #655452",
"mS c #655b48",
"bH c #655c46",
"#u c #655c47",
"#B c #655c48",
"bg c #655d49",
"hb c #655d4d",
"aW c #655e50",
"#R c #655e52",
"hf c #655f50",
"hh c #655f51",
"h# c #656052",
"hi c #656053",
"ii c #664c55",
"eo c #664f50",
"m3 c #665b48",
"dk c #665b52",
"#k c #665c47",
"#E c #665c48",
"gm c #665d47",
"d0 c #665d48",
"la c #665d49",
"f6 c #665d4a",
"dS c #665e4a",
".9 c #665f4c",
"#j c #665f53",
"fu c #666051",
"lL c #675c47",
"jN c #675e47",
"dz c #675e4a",
"hx c #675e4b",
"#. c #675f4b",
"c8 c #675f4f",
"dm c #67604f",
"fv c #676052",
"gl c #67614d",
"bG c #67614e",
"d# c #676151",
"db c #676153",
"c6 c #676254",
"g. c #684d57",
"ki c #684f5b",
"eb c #685252",
"dI c #685751",
"d6 c #685d48",
"ls c #685d49",
"bQ c #685e48",
"dH c #685e4a",
"#t c #685f48",
"#y c #685f49",
"#q c #685f4a",
"m6 c #68604a",
"m4 c #68604d",
"m2 c #68614b",
"kP c #686153",
"aJ c #686253",
"bL c #695f49",
"hC c #695f4a",
"d4 c #69604a",
"mZ c #69604d",
"mT c #69614e",
"mX c #69624c",
"#D c #69624f",
"aT c #696253",
"aK c #696254",
"eW c #6a4d57",
"gp c #6a4e58",
"bq c #6a614a",
"bf c #6a614c",
"f5 c #6a614d",
"m8 c #6a614e",
"mP c #6a624c",
".5 c #6a624e",
".1 c #6a624f",
"m0 c #6a634f",
"hg c #6a6354",
"gF c #6b4f59",
"de c #6b5258",
"bc c #6b614b",
"bK c #6b614c",
"f1 c #6b624b",
"bX c #6b624c",
"jq c #6b624d",
".S c #6b624f",
"dy c #6b634c",
"m5 c #6b634f",
"gZ c #6c505a",
"f9 c #6c614e",
".Z c #6c634c",
"mQ c #6c644f",
"du c #6c6451",
"bs c #6c6551",
"da c #6c6556",
".g c #6c6960",
"fp c #6d525c",
"mj c #6d5561",
"bb c #6d644e",
"bt c #6d654f",
"jJ c #6d6550",
"jI c #6d6552",
"fZ c #6d6752",
"bp c #6e644e",
"jo c #6e654f",
"ba c #6e6752",
"bi c #6e6852",
"jr c #6e6853",
"bl c #6f6652",
"bo c #6f6853",
"dj c #70565b",
"lX c #705763",
"kU c #705b63",
"be c #706752",
"js c #706755",
"bj c #706851",
"f3 c #706853",
"f2 c #706856",
"dE c #706952",
"hA c #706953",
"d3 c #706b58",
".X c #716852",
"jp c #716853",
"bd c #716856",
"bk c #716857",
"f8 c #716952",
"f0 c #716953",
"br c #716957",
"l. c #716a53",
"ld c #716a54",
".8 c #716a55",
"#p c #716b58",
"#x c #716b59",
"ec c #725a5f",
"dx c #726a53",
"f4 c #726a54",
".Y c #726a55",
".2 c #726c59",
"b8 c #726e63",
"bm c #736b55",
".R c #736b56",
".T c #736c59",
"dJ c #745a61",
"jt c #745e67",
".0 c #746c57",
".Q c #746c58",
"dv c #746d5a",
"dt c #756d59",
"iW c #757d7d",
"kD c #76656f",
"eV c #775b63",
"l3 c #77656e",
"mk c #77656f",
"cA c #777469",
"df c #785f68",
"k0 c #78686f",
"bF c #787468",
"#Q c #797367",
"ln c #7b6d73",
"i. c #7d085e",
".W c #7d7560",
".P c #7d786d",
"b# c #7d7a6e",
"jG c #7d998d",
"iL c #7e6971",
"kC c #7f3767",
".l c #7f7163",
"j1 c #7f818a",
"fR c #800f5c",
"gg c #80115b",
"lJ c #80757d",
"az c #807c72",
"iV c #81005c",
"hO c #81095b",
"e6 c #816b73",
"aG c #817f74",
".B c #827163",
".u c #827263",
"ad c #827d70",
"kh c #834672",
"ji c #847888",
"aB c #847e73",
"#i c #847f73",
"lg c #867c84",
"ae c #868173",
"gy c #870860",
"gf c #87095f",
"aD c #87857b",
"aA c #888377",
"gN c #890861",
"af c #898376",
"ag c #898477",
"ah c #898478",
"jF c #8a005b",
"kZ c #8a3d78",
"ac c #8a8376",
"b2 c #8a867a",
"aj c #8a867b",
"ab c #8b867a",
"fl c #8c2269",
"#P c #8c877b",
"#O c #8c887a",
"aF c #8c8a80",
"b7 c #8d887c",
".7 c #8d8978",
"#h c #8d897c",
"c0 c #8d8c81",
"lG c #8e0062",
"lI c #8e3a7a",
"b0 c #8e8a7e",
"j0 c #8f0061",
"fQ c #8f0b68",
"dg c #8f7a84",
"gw c #900868",
"lC c #90888d",
"l2 c #90888f",
"jS c #910065",
"li c #91066b",
"ip c #91086b",
"iw c #917690",
".i c #918574",
".E c #91897a",
".j c #91897b",
"aE c #918e84",
"fO c #920869",
".q c #928777",
"bA c #928e80",
"kY c #930068",
"hr c #93076c",
"lm c #932b78",
".A c #938675",
".t c #938a7b",
"#g c #938e80",
"ai c #938e82",
".V c #93907d",
"b1 c #939083",
"cy c #939084",
"gd c #94076c",
".k c #948675",
".z c #948b7b",
"bZ c #948e81",
".4 c #94917e",
".F c #958675",
"a5 c #958f83",
"by c #959082",
"a6 c #959287",
"h7 c #96076b",
"hM c #96076d",
"fk c #961071",
".w c #968d7e",
".o c #968d7f",
".h c #968f81",
"c5 c #969384",
"kg c #97006b",
"ej c #971172",
"eF c #978b8e",
"bz c #979486",
"bB c #979488",
"b3 c #97948a",
"l0 c #97999f",
"kf c #98006d",
"iq c #98066e",
"eP c #980b71",
"b6 c #989384",
"kA c #99006e",
"kB c #990071",
"fg c #99076f",
"fj c #990870",
".s c #998774",
".r c #999081",
".y c #999082",
"jQ c #999196",
"cx c #999488",
"bD c #999586",
"#L c #999587",
"lY c #999b9e",
"jZ c #9a006e",
"kb c #9a0071",
"fP c #9a076f",
"fS c #9a3a7a",
".D c #9a8a7a",
".b c #9a9b93",
"kX c #9b006f",
"jE c #9b0070",
"kv c #9b1b77",
"i# c #9b858f",
"di c #9b868f",
"lh c #9b8f9d",
"#K c #9b9587",
"#N c #9b9688",
"a4 c #9b9689",
"b5 c #9b9888",
"b. c #9b988b",
".d c #9b9b92",
"lF c #9c0075",
"ja c #9c979a",
"a3 c #9c988a",
"Qt c #9c9d96",
"hs c #9d0172",
"gL c #9d0373",
"ge c #9d0572",
"eO c #9d0674",
".N c #9d9a8f",
".f c #9d9e95",
"jh c #9e0073",
"lH c #9e0074",
"fI c #9e0078",
"ir c #9e0474",
"fh c #9e0673",
"gv c #9e0777",
"dh c #9e8c95",
"bx c #9e9b8c",
"cz c #9e9c91",
"fU c #9ea4a2",
"jg c #9f0075",
"fH c #9f0078",
"gq c #9f007a",
"iv c #9f0276",
"gx c #9f0374",
"fi c #9f0575",
"em c #9f8d93",
".e c #9fa097",
"ku c #9fa6a7",
"gM c #a00475",
"hL c #a00878",
".C c #a0998c",
"#J c #a09b8c",
"#f c #a09c8d",
".O c #a09e93",
"cv c #a09f95",
"hF c #a10079",
"il c #a1007b",
"jD c #a10177",
"g1 c #a1017c",
"g5 c #a10778",
"kw c #a20278",
"jf c #a20679",
"iR c #a20879",
"eQ c #a22d84",
".n c #a29381",
"a2 c #a29e90",
".# c #a2a39b",
"l1 c #a2a7aa",
"hl c #a3007b",
"h0 c #a3007c",
"iu c #a30279",
"hN c #a30379",
".v c #a39481",
"ct c #a3a298",
"ju c #a3a3a6",
"iN c #a4007d",
"fG c #a40f7e",
"a9 c #a4a194",
".c c #a4a59d",
"h8 c #a5047b",
".p c #a59586",
".x c #a59686",
".a c #a5a69f",
"kV c #a5aaad",
"h1 c #a6007e",
"h9 c #a6027d",
"cu c #a6a59b",
".m c #a79e8e",
"#e c #a7a494",
"bE c #a7a495",
"#c c #a7a497",
"kz c #a8027e",
"ke c #a8037e",
"gK c #a80680",
"lE c #a8338b",
"a8 c #a8a698",
"#b c #a9a597",
"ij c #a9a8aa",
"k# c #a9abad",
"lZ c #a9b2b3",
"#d c #aaa797",
"cw c #aaa89d",
".M c #aaa89f",
"iM c #aaa9ac",
"lD c #aab3b4",
"#M c #aba99a",
"cZ c #abaa9c",
"ed c #ac9ea0",
"jR c #aca9af",
"jT c #ad0284",
"jb c #ad4597",
".L c #adaba0",
"iU c #ae0083",
"ga c #ae0088",
"lj c #ae0584",
"is c #ae0684",
"cX c #aeada0",
"kc c #af0285",
"iT c #af0685",
"kx c #b00287",
"iS c #b00786",
"#I c #b0aea1",
"jw c #b10386",
"iO c #b10388",
"jC c #b10688",
"gc c #b20588",
"f# c #b2078c",
"f. c #b24897",
"#a c #b2b0a2",
"cY c #b2b2a5",
"jB c #b3058a",
"it c #b30689",
"ik c #b33295",
"b4 c #b3b0a2",
".K c #b3b1a7",
"bC c #b3b2a3",
"lk c #b4028a",
"jv c #b41d90",
"jY c #b5058c",
"jA c #b6068d",
"c3 c #b6b5a9",
"c4 c #b6b6aa",
"kW c #b7048b",
".J c #b7b7ae",
"cW c #b7b8ad",
"eK c #b90691",
"dP c #b9acb4",
".I c #b9b8af",
"c2 c #b9baad",
"hG c #ba0393",
"a7 c #babaaf",
"ei c #bb0493",
"fm c #bb74a5",
"e9 c #bd72a9",
"c1 c #bdbfb2",
"gr c #bf0398",
"ka c #bf88b4",
"e8 c #bf96b1",
".H c #c0c1ba",
"eg c #c20499",
"h4 c #c20799",
"jc c #c30599",
"jx c #c5059c",
"im c #cb06a1",
"in c #cc07a2",
"fN c #cd01a4",
"jU c #cd06a3",
"hm c #ce05a6",
"hI c #ce07a4",
"h3 c #cf08a5",
"jd c #d006a6",
"hP c #d1c4ce",
"fo c #d1c6c9",
"eJ c #d1c9d1",
"je c #d206a9",
"g3 c #d208a7",
"ho c #d307aa",
"ll c #d404ab",
"kd c #d405ad",
"iP c #d507ab",
"ff c #d601aa",
"hH c #d606ad",
"eG c #d6d1d2",
"jV c #d706ae",
"gH c #da06b1",
"ef c #dabed6",
"gO c #dacfd3",
"eU c #dad3d5",
"hp c #dc05b1",
"hn c #dc08b3",
"g6 c #dccfd7",
"jy c #dd06b2",
"g2 c #de07b4",
"jW c #df06b4",
"h2 c #e007b5",
"h5 c #e205b8",
"fT c #e2c9d9",
"e7 c #e2dce0",
"hE c #e3d6dc",
"dM c #e3d9dc",
"gz c #e4dce1",
"hZ c #e5dee0",
"gs c #e708bc",
"gh c #e7e1e5",
"gb c #e907bf",
"ek c #e9cee1",
"ky c #ea05c0",
"dN c #ead1e1",
"fF c #ebe3e8",
"dK c #ebe8e8",
"dL c #ebf9f4",
"eh c #ed00c1",
"gI c #ee06c4",
"hk c #efe4e8",
"g0 c #efe4ea",
"gG c #f0e3eb",
"jz c #f105c6",
"g# c #f1e7ed",
"dO c #f1fffb",
"jX c #f205c6",
"hJ c #f304c8",
"fn c #f7eff6",
"fJ c #f800cd",
"eR c #f89de8",
"ee c #f8faf9",
"el c #f9f9f9",
"fa c #fa00cc",
"eT c #fbfbfb",
"eI c #fcfffc",
"eL c #ff00d2",
"gJ c #ff00d6",
"io c #ff00d7",
"h6 c #ff00d9",
"fb c #ff00db",
"eN c #ff00dc",
"fd c #ff00de",
"fM c #ff00df",
"fe c #ff00e0",
"fc c #ff00e1",
"fK c #ff00e2",
"gu c #ff00e3",
"fL c #ff00e5",
"gt c #ff01d6",
"g4 c #ff01d7",
"hq c #ff01d8",
"hK c #ff01da",
"eM c #ff01dd",
"iQ c #ff02d3",
"eS c #fffcfe",
"eH c #ffffff",
"Qt.#.#.a.b.c.d.e.f.g.h.i.j.k.l.m.n.o.p.q.r.s.t.k.u.m.v.w.x.q.y.s.z.A.B.C.D.E.F.G",
".H.I.J.K.L.L.M.N.O.P.Q.R.S.T.U.V.W.X.Y.Z.Q.0.1.2.3.4.W.X.Y.Z.Q.Q.5.2.6.7.8.9#.##",
"#a#b#c#d#e#f#g#h#i#j#k#l#m#n#o#p#q#r#s#t#k#u#m#v#w#x#y#z#A#t#u#B#m#v#C#D#E#F#G#H",
"#I#J#K#L#M#N#O#P#Q#R#S#T#U#V#W#X#Y#Z#0#1#S#T#U#2#3#4#5#Z#0#1#S#T#U#6#7#8#9a.a#aa",
"abacadaeafagahaiajakalam#3anaoapaqar#Wasalam#3anaoatauauaqasasam#3anavawaxau#7ay",
"azajaAaBaCaDaEaFaGaHaIaJaKaLaMaNaOaPaQaRaSaJaTaLaMaNaOaUaQaRaVaJaTaWaXaYaZa0aOa1",
"a2a3a4a5a6a7a8a9b.b#ba.Xbbbcbdbe.Ybfbgbhbibjbbbcbkblbmbfbgbnbobjbpbqbrbsbtbubvbw",
"bxbybzbAbBbCbDbEa3bFbGbHbIbJbKbLbM#rbNbObGbHbPbJbKbQbR#rbSbTbGbUbVbWbXbQbR#rbSbY",
"bZb0b1b2b3b4b5b6b7b8b9c.c#cacbcccdcecfcgchc.c#cicjccckclcmcgcnc.c##Tcocpcqa.crcs",
"ctcuctcvctcwcxcyczcAcBcCcDcEcFcGcHcIcJcKcLcCcDcMcNcGcHcIcJcOcPcCcDcMcQcRcScTcUcV",
"cWcXcYcZc0c1c2c3c4c5c6c7c8c9d.aZd#dadbdcc6dddedfdgdhdidjdkdcc6dldmdnd.dodpdqdrds",
"dt.0dudvdw.V.Wdx.RdydzdAdBdCdDdEdFdG#ldHdIdJdKdLdMdNdOdPdQdRdSdAdTdCdUdVdWdXdYdZ",
"d0#ld1#vd2d3d4d1d5#td6#zd7d8d9e.e#eaebecedeeefegeheiejekelemeneoepeqeresbP#zeteu",
"ev#zew#VcGexey#Zez#1eA#veBeCeDeEeFeGeHeIeJeKeLeMeNeheOePeQeReSeTeUeVeWeXcceYeZe0",
"e1as#3cJaoe2aue3au#we4cDcJe5e6e7e8e9f.f#fafbfcfdfefffgfhfifjfkflfmfnfofpfqfrfsft",
"aSfufvfwfxdwfyfzfAfBfCfwfDfEfFfGfHfIfJeNfcfKfLfLfMfNfOfOfPfhfhfQfRfSfTfUfVfWfXfY",
"fZf0bbf1f2f3f4f5f6f7bif8f9g.g#fHgagbfKfLfcfLfLfLfcgcfOfOgdfhfhfhgegfggghgigjbvgk",
"glgmbIgnbKbLbMd1bS#wbGgmgogpg#gqgrgsgtfdfLfLfLfLgugvfOfOgwgdgxgxgxgxgygzgA#rbSbY",
"gBcc#Z#rdWgCcqclcrcggDccgEgFgGfHgHgsgIgJgufKfLfLgugKfOfOfOfOgLgxgxgMgNgOgPgQgRgS",
"gTgUgVgWcRaxgXcIcgcOgYcHgVgZg0g1g2gsg3g4fbfKfLfLgug5fOfOgwfOgLgxgxgxgNg6g7g8g9h.",
"h#hahbhchdhehfhghhdphihahjgZhkhlhmhnhohphqeNfMfMfceOfOfOfOhrhsgxgxgxgfg6hthuhvhw",
"hxhydFdChzhAdFhB#BhCdzhDdBgFhEhFhGhnhHhIhJg4hKfMfchLfOfOfOhMhNgxgxgxhOhPhQhRhSdZ",
"d6#zbShThUe.hVhWhXbcd6#zhYgphZh0h1h2hHh3h4h5h6eNfchLgwfOh7gMh8h9gxgxi.i#ia#zeteu",
"eyibeBicidieeAc#ifigey#vihiiijikilimhHhHhIinhJioiohLipiqirisititiuiviwixiyiziAiB",
"iCgViD#3iEiFiGiHiIiJiCgV#7iKiLiMiNiOiPhHhoininiQioiRipgdiSiTitiTiUiViWiXgUiYiZi0",
"i1i2i2i2i3i4exi5i6i7i8i9i2j.j#jajbfIjcjdhHinjejegJjffOititititjgjhjijjjkjlfWjmjn",
"badxjobXbdjp.Yjqf6f7jrf0jof1jsjtjujvjwjxhHhHhHjyjzjAitjBitjCjDjEjFjGjHjIjJjKjLjM",
"gljNbIgnbKbLbMd1jOjPglgmbPbJjqbLjQjRjSjTjUjVjWjXjXjYitjBjCh9jZj0j1j2j3bQbR#rj4j5",
"j6j7#Zj8j9cecq#Zcf#7gBj7#Z#rj9cek.k#kakbkckdjXjXjXjBititkekfkgkhkikjj9kkklclcmgS",
"kmcEknknkokp#7fBkqkrkscEknknkokpcHktkukvkwkxkyjXjzjBitkzkAkBkCkDiX#7kEkFcmkGkHkI",
"kJdpkKkLkMkNkOkPkQkRkJdpkKkLkSc9kOkTkUkVjSjTkWkyjzith9kXkYkZk0k1k2k3hdk4.Uk5k6k7",
"hxhyk8dCk9l.hRl#lahCdzhyk8lblcldlel#lflglhliljlklljEkAkflmlnlohyk8dGlplqcjhRhSlr",
"ls#zltlulvlwhVlxlybcd6k8d7hTiclzhVlAiflBlClDlElFlGlHkYlIlJlKlLlMlNhTlOeslP#zetlQ",
"kklReBiclSlTcpcpcbdVkkiblUeCeuiecpcpiflVlWlXlYlZl0l1l2l3l4l5kk#vgEl6l7doj7izl8l9",
"m.kn#Waum#mambmcmdalm.kn#WariEmemfmcmdalcrmgmhmimjmkmlmmmnasbTlO#3axmompgWgUmqmr",
"msjlmtmumvmw#Xmxmvmymzjlmtmumvmw#XmAmvmBd2mxmCmDmEmFmGmHmvmI#omAkRmJmKmLjki5mMmN",
"mOmPmQmRmSmT.5lemUmVmWmXmQmYmSmZm0m1mUmVmWm2btmYm3m4m5m1mUmVmWm6btm7m3m8m5m9n.n#",
"nanbncndneewnfngnhgknaninjndnkklmOngeYnlnmninjndnkkl#ZngeYnnnonpnfjOnknqnrnsntnu",
"nvnwnwnx#CarnyaufBnznAnwnBnxnCarnDaufBnEnAnwmcnxnCarnwarfBnEnFiHmcnxnCiHnGnH#WnI",
"nJnKnLnMnNnOnPnQnRnSnTnKnLnMnNnOnPnRnRnUnTnKnLnMnNnOnPnRnRnUnVnKnMnMnNnWnXnYnZn0"};
