/* XPM */
static char *dummy[]={
"40 40 201 2",
".a c #00a15e",
"#8 c #32a579",
"Qt c #32a67a",
"a6 c #33a579",
".A c #34a076",
"ax c #34a579",
".g c #36986f",
".i c #369b71",
"aI c #36a579",
".e c #37976e",
"a7 c #37a579",
".b c #38976e",
".p c #3c8964",
".Z c #3d976e",
".r c #408763",
".B c #409d71",
".n c #418763",
".C c #41a271",
".t c #438662",
".K c #468662",
".y c #477b5a",
".w c #4a7958",
".0 c #4d9a69",
"#0 c #4fa477",
".1 c #50a26b",
".H c #536b4d",
"#1 c #53a576",
"#2 c #53a577",
".J c #566e4f",
".F c #596c4d",
".D c #5a7954",
".W c #5f512c",
".Q c #616144",
"#j c #63714f",
"az c #659852",
".T c #666346",
"ao c #67a996",
".# c #67aa97",
".O c #685f42",
".S c #6a6343",
".j c #6c7e53",
".Y c #725a3b",
".k c #769554",
".l c #7c9455",
".L c #7f7f4b",
"ay c #83a16f",
"#e c #8a5432",
".2 c #8b5935",
"aL c #8b7d13",
"aA c #8e9a67",
"#k c #8f8544",
"#y c #904226",
"#s c #913d24",
"#E c #914921",
"#. c #924b3a",
"aK c #928317",
"a. c #938123",
"#J c #954327",
"#l c #959449",
"ae c #98923c",
".3 c #994939",
"a# c #998332",
"ag c #998824",
"aO c #9a8a20",
".u c #9b5823",
"ar c #9b8726",
"af c #9c8f18",
"aZ c #9d8a2a",
"bb c #9e8b27",
"aq c #9e9218",
"aU c #9f8d35",
"#Q c #a0351b",
"aJ c #a08d3b",
"aB c #a18e37",
"aV c #a19418",
"ba c #a29718",
"aM c #a2971e",
"aD c #a38f29",
"ap c #a39346",
"#9 c #a39353",
"a9 c #a39719",
"aC c #a3971a",
"#U c #a4431d",
"a8 c #a4923a",
"aY c #a49818",
".M c #a4985d",
"aW c #a5991a",
"aX c #a59a17",
"aN c #a89d1a",
"b# c #aa9f1c",
"#3 c #b03a1e",
".N c #b07b47",
"b. c #b0a31e",
"ah c #b43316",
"aP c #b93317",
"a0 c #bb3919",
".v c #bc852f",
"aa c #be3418",
"#m c #be662a",
".U c #be6726",
"aE c #bf371a",
".f c #c8320c",
"as c #c8451c",
"bc c #c9431d",
".c c #cb2c0a",
".V c #cb8329",
".q c #d13b0c",
"#K c #d1711f",
".o c #d2350b",
".h c #d34410",
".x c #d84410",
".G c #db450e",
".P c #df5614",
".z c #e05211",
".I c #e05313",
".m c #e1561a",
".X c #e26318",
".R c #e35e14",
".s c #e65a1b",
".4 c #e66013",
".E c #eb621f",
".5 c #ff2625",
".d c #ff2626",
".6 c #ff2725",
".7 c #ff2825",
".8 c #ff2925",
"## c #ff2a24",
".9 c #ff2a25",
"#a c #ff2b24",
"#b c #ff2c24",
"#c c #ff2d24",
"#d c #ff2e24",
"#n c #ff2f23",
"#f c #ff2f24",
"#g c #ff3023",
"#h c #ff3123",
"#i c #ff3223",
"#o c #ff3323",
"#p c #ff3422",
"#q c #ff3522",
"#r c #ff3622",
"#t c #ff3722",
"#v c #ff3821",
"#u c #ff3822",
"#w c #ff3921",
"#x c #ff3a21",
"#z c #ff3b21",
"#A c #ff3c21",
"#C c #ff3d20",
"#B c #ff3d21",
"#D c #ff3e20",
"#F c #ff3f20",
"#G c #ff4020",
"#H c #ff4120",
"#I c #ff421f",
"#L c #ff431f",
"#M c #ff441f",
"#N c #ff451f",
"#P c #ff461e",
"#O c #ff461f",
"#V c #ff471e",
"#R c #ff481e",
"#S c #ff491e",
"#T c #ff4a1e",
"#W c #ff4b1d",
"#X c #ff4c1d",
"#Y c #ff4d1d",
"#Z c #ff4e1d",
"#4 c #ff4f1d",
"#5 c #ff501c",
"#6 c #ff511c",
"#7 c #ff521c",
"ai c #ff531c",
"ab c #ff541c",
"ac c #ff551b",
"ad c #ff561b",
"aj c #ff571b",
"ak c #ff581b",
"al c #ff591a",
"am c #ff5a1a",
"an c #ff5b1a",
"at c #ff5c1a",
"au c #ff5d1a",
"av c #ff5e19",
"aw c #ff5f19",
"aF c #ff6019",
"aG c #ff6119",
"aH c #ff6219",
"aQ c #ff6318",
"aR c #ff6418",
"aS c #ff6518",
"aT c #ff6618",
"a1 c #ff6717",
"a2 c #ff6817",
"a3 c #ff6917",
"a4 c #ff6a17",
"a5 c #ff6b17",
"bd c #ff6c16",
"be c #ff6d16",
"bf c #ff6e16",
"bg c #ff6f16",
"QtQtQtQtQtQtQtQtQtQtQtQtQtQtQtQtQtQtQtQtQtQtQtQtQtQtQtQtQtQtQt.#QtQt.aQt.b.c.d.d",
"QtQtQtQt.aQtQtQtQtQtQtQt.aQtQtQtQtQtQtQt.aQtQtQtQtQtQtQt.aQtQtQtQtQtQtQt.e.f.d.d",
"Qt.aQtQtQtQtQtQtQt.aQtQtQt.#QtQtQt.aQtQtQtQtQtQtQt.aQtQtQt.#QtQtQt.aQtQt.g.h.d.d",
"QtQtQtQtQt.aQtQt.#.#QtQtQtQtQtQtQtQtQtQtQt.aQtQt.#.#QtQtQtQtQtQtQt.i.j.k.l.m.d.d",
"QtQtQtQtQtQtQt.a.#.#QtQtQtQtQtQtQtQtQtQtQtQtQt.a.#.#QtQtQtQtQtQtQt.n.o.d.d.d.d.d",
"QtQtQtQtQtQtQtQtQtQtQtQtQtQtQt.#QtQtQtQtQtQtQtQtQtQtQtQtQtQtQt.#Qt.p.q.d.d.d.d.d",
"QtQt.#.#QtQtQtQtQtQtQtQtQtQtQtQtQtQt.#.#QtQtQtQtQtQtQtQtQtQtQtQtQt.r.s.d.d.d.d.d",
"QtQt.#.#QtQtQtQtQtQtQtQtQtQtQt.aQtQt.#.#QtQtQtQtQtQtQtQtQtQt.t.u.v.d.d.d.d.d.d.d",
"QtQtQtQtQt.aQt.#QtQt.aQtQtQtQtQtQtQtQtQtQt.aQt.#QtQt.aQtQtQt.w.x.d.d.d.d.d.d.d.d",
"QtQtQtQtQtQtQtQtQtQtQtQtQtQtQtQtQtQtQtQtQtQtQtQtQtQtQtQtQtQt.y.z.d.d.d.d.d.d.d.d",
"Qt.aQtQtQt.#QtQtQt.aQtQtQtQtQtQtQt.aQtQtQt.#QtQtQt.aQt.A.B.C.D.E.d.d.d.d.d.d.d.d",
".#.#QtQtQtQtQtQtQtQtQtQtQt.aQtQt.#.#QtQtQtQtQtQtQtQtQt.F.G.d.d.d.d.d.d.d.d.d.d.d",
".#.#QtQtQtQtQtQtQtQtQtQtQtQtQt.a.#.#QtQtQtQtQtQtQtQtQt.H.I.d.d.d.d.d.d.d.d.d.d.d",
"QtQtQtQtQtQtQt.#QtQtQtQtQtQtQtQtQtQtQtQtQtQtQt.#QtQtQt.J.d.d.d.d.d.d.d.d.d.d.d.d",
"QtQtQtQtQtQtQtQtQtQt.#.#QtQtQtQtQtQtQtQtQtQtQtQt.K.L.M.N.d.d.d.d.d.d.d.d.d.d.d.d",
"QtQtQtQtQtQtQt.aQtQt.#.#QtQtQtQtQtQtQtQtQtQtQt.a.O.P.d.d.d.d.d.d.d.d.d.d.d.d.d.d",
"QtQt.aQtQtQtQtQtQtQtQtQtQt.aQt.#QtQt.aQtQtQtQtQt.Q.R.d.d.d.d.d.d.d.d.d.d.d.d.d.d",
"QtQtQtQtQtQtQtQtQtQtQtQtQtQtQtQtQtQtQtQtQtQtQtQt.S.d.d.d.d.d.d.d.d.d.d.d.d.d.d.d",
"Qt.aQtQtQtQtQtQtQt.aQtQtQt.#QtQtQt.aQtQtQt.T.U.V.d.d.d.d.d.d.d.d.d.d.d.d.d.d.d.d",
"QtQtQtQtQt.aQtQt.#.#QtQtQtQtQtQtQtQtQtQtQt.W.X.d.d.d.d.d.d.d.d.d.d.d.d.d.d.d.d.d",
"QtQtQtQtQtQtQt.a.#.#QtQtQtQtQtQtQtQtQtQtQt.Y.d.d.d.d.d.d.d.d.d.d.d.d.d.d.d.d.d.d",
"QtQtQtQtQtQtQtQtQtQtQtQtQtQtQt.#QtQt.Z.0.1.2.d.d.d.d.d.d.d.d.d.d.d.d.d.d.d.d.d.d",
"QtQt.#.#QtQtQtQtQtQtQtQtQtQtQtQtQtQt.3.4.d.d.d.d.d.d.d.d.d.d.d.5.6.7.7.8.8.9.9.9",
"QtQt.#.#QtQtQtQtQtQtQtQtQtQtQt.aQtQt#..d.d.d.d.d.d.d.d.5.6.7.8###a#b#b#b#c#d#d#d",
"QtQtQtQtQt.aQt.#QtQt.aQtQtQtQtQtQtQt#e.d.d.d.d.d.d.7.7.9#a#b#c#d#f#g#g#h#h#h#i#i",
"QtQtQtQtQtQtQtQtQtQtQtQtQtQtQt#j#k#l#m.d.d.d.5.7.9#a#b#d#n#g#h#i#o#o#p#q#r#r#r#r",
"Qt.aQtQtQt.#QtQtQt.aQtQtQtQtQt#s.d.d.d.d.6.7###b#c#f#g#h#o#p#q#r#t#u#v#w#w#x#x#x",
".#.#QtQtQtQtQtQtQtQtQtQtQt.aQt#y.d.d.5.7###b#d#n#h#o#p#r#t#u#w#x#z#A#B#B#C#D#D#D",
".#.#QtQtQtQtQtQtQtQtQtQtQtQtQt#E.d.7.9#b#d#g#h#o#q#r#u#w#x#A#B#D#F#F#G#H#H#H#I#I",
"QtQtQtQtQtQtQt.#QtQtQtQt#J#K.d.6.8#a#c#n#h#o#q#t#v#x#A#C#F#F#H#H#L#M#M#N#O#O#P#P",
"QtQtQtQtQtQtQtQtQtQt.#.##Q.d.7.9#b#f#h#o#q#t#v#x#B#D#F#H#I#M#N#O#P#R#R#S#S#T#T#T",
"QtQtQtQtQtQtQt.aQtQt.#.##U.7#a#c#n#i#p#r#v#x#B#D#G#H#L#N#P#V#R#T#T#W#X#Y#Y#Z#Z#Z",
"QtQt.aQtQtQtQtQtQt#0#1#2#3#a#d#h#o#q#u#x#A#D#G#H#M#N#V#R#T#W#Y#Y#4#4#5#6#6#7#7#7",
"QtQtQtQtQtQtQtQt#8#9a.a#aa#f#h#o#r#v#z#C#F#H#M#O#V#S#T#X#Y#4#5#6#7ababacadadadad",
"Qt.aQtQtQtQtQtQt#8aeafagah#h#p#t#w#A#D#H#L#N#V#S#T#Y#Z#5#6aiabacadajakalalamanan",
"QtQtQtQtQt.aQtQtaoapaqaras#q#t#x#B#F#H#M#P#R#T#Y#4#5#7abacadakalananatauauavavaw",
"QtQtQtQtQtaxayazaAaBaCaDaE#u#x#C#F#I#N#V#S#X#Z#5#7abadajalanatauavawaFaGaHaHaHaH",
"QtQtQtQtQtaIaJaKaLaMaNaOaP#x#C#G#L#O#R#T#Y#4#6abadajalanauavawaGaHaQaRaSaTaTaTaT",
"QtQt.#.#QtaIaUaVaWaXaYaZa0#C#G#L#O#R#W#Y#5#7abajalanauawaFaHaRaSaTa1a2a3a3a4a5a5",
"QtQt.#aoa6a7a8a9b.b#babbbc#G#L#P#R#W#Z#6aiadakanauawaFaHaRaTa1a3a4a5bdbebebfbfbg"};
