/* XPM */
static char * 11_xpm[] = {
"40 40 327 2",
"  	c None",
". 	c #506A54",
"+ 	c #617A64",
"@ 	c #829682",
"# 	c #94A593",
"$ 	c #8B9F8B",
"% 	c #556F5A",
"& 	c #47604A",
"* 	c #5B755F",
"= 	c #E8EBE9",
"- 	c #F9ECF7",
"; 	c #D9E2DB",
"> 	c #D4E8D1",
", 	c #FFF2FC",
"' 	c #ADB8AC",
") 	c #3D5A48",
"! 	c #31503B",
"~ 	c #516B55",
"{ 	c #59725C",
"] 	c #A3B0A6",
"^ 	c #FAF8FA",
"/ 	c #C8D9BF",
"( 	c #36B707",
"_ 	c #46DF03",
": 	c #33B007",
"< 	c #2C8E13",
"[ 	c #D3E7CE",
"} 	c #F9F9F9",
"| 	c #90A192",
"1 	c #415E47",
"2 	c #4E6951",
"3 	c #4F6953",
"4 	c #49664E",
"5 	c #57705A",
"6 	c #576E5B",
"7 	c #8F9A90",
"8 	c #D5D9D7",
"9 	c #FFFFFF",
"0 	c #FEFCFF",
"a 	c #CCD0C9",
"b 	c #34AE09",
"c 	c #4DF105",
"d 	c #5AFF06",
"e 	c #58FF06",
"f 	c #259308",
"g 	c #298F0D",
"h 	c #489B2F",
"i 	c #B9F39F",
"j 	c #FCFFFC",
"k 	c #FBFBFB",
"l 	c #D7DDD9",
"m 	c #5E7863",
"n 	c #4F6A52",
"o 	c #4B664E",
"p 	c #6F8372",
"q 	c #DCE2DC",
"r 	c #9DBD97",
"s 	c #82B973",
"t 	c #60AC49",
"u 	c #33A809",
"v 	c #49EB05",
"w 	c #57FF05",
"x 	c #5DFF05",
"y 	c #5CFF06",
"z 	c #3CCA05",
"A 	c #249009",
"B 	c #249508",
"C 	c #259507",
"D 	c #25900A",
"E 	c #2B8D12",
"F 	c #338523",
"G 	c #80B675",
"H 	c #F1F6EF",
"I 	c #C6D1C8",
"J 	c #526B56",
"K 	c #49644C",
"L 	c #4B644F",
"M 	c #E3EAE3",
"N 	c #309B12",
"O 	c #269602",
"P 	c #269400",
"Q 	c #4BEA05",
"R 	c #5EFF05",
"S 	c #61FF06",
"T 	c #5BFF05",
"U 	c #3AC105",
"V 	c #22890A",
"W 	c #239109",
"X 	c #24870D",
"Y 	c #227910",
"Z 	c #49943B",
"` 	c #CCE0C9",
" .	c #A49EA3",
"..	c #446047",
"+.	c #4D6651",
"@.	c #E8F0E7",
"#.	c #2EA403",
"$.	c #49DC0C",
"%.	c #2EA708",
"&.	c #248C09",
"*.	c #239407",
"=.	c #1E7E0A",
"-.	c #227912",
";.	c #E1E7E1",
">.	c #38573B",
",.	c #4E6852",
"'.	c #279501",
").	c #37B406",
"!.	c #49DA0C",
"~.	c #52FA06",
"{.	c #5AFF05",
"].	c #5FFF06",
"^.	c #28950A",
"/.	c #22880A",
"(.	c #249505",
"_.	c #1F7F0A",
":.	c #DCE3DC",
"<.	c #37563A",
"[.	c #E4EFE3",
"}.	c #43CE0A",
"|.	c #4BE10A",
"1.	c #52FB05",
"2.	c #2B9E09",
"3.	c #239305",
"4.	c #259606",
"5.	c #1F810A",
"6.	c #CFD9D0",
"7.	c #345536",
"8.	c #E5EEE4",
"9.	c #299703",
"0.	c #44D10A",
"a.	c #3DC60B",
"b.	c #53FB06",
"c.	c #58FF05",
"d.	c #289709",
"e.	c #D0DBCF",
"f.	c #2E522E",
"g.	c #E4EEE5",
"h.	c #279A01",
"i.	c #3DC209",
"j.	c #45D00C",
"k.	c #40C70B",
"l.	c #41D009",
"m.	c #54F806",
"n.	c #5BFF04",
"o.	c #5CFF05",
"p.	c #238A09",
"q.	c #229303",
"r.	c #254C25",
"s.	c #D6E2D7",
"t.	c #269700",
"u.	c #33AF07",
"v.	c #41CA0A",
"w.	c #3CC20A",
"x.	c #4CE509",
"y.	c #57FF06",
"z.	c #29960A",
"A.	c #248D09",
"B.	c #269905",
"C.	c #1D7A0A",
"D.	c #C7D0C5",
"E.	c #274C25",
"F.	c #DEE4E0",
"G.	c #289902",
"H.	c #289C02",
"I.	c #43D30B",
"J.	c #3DC30B",
"K.	c #39B70A",
"L.	c #45D609",
"M.	c #55FF06",
"N.	c #228D09",
"O.	c #279C06",
"P.	c #289C05",
"Q.	c #227609",
"R.	c #859987",
"S.	c #214A21",
"T.	c #AAAAA8",
"U.	c #52AB35",
"V.	c #279701",
"W.	c #3BC009",
"X.	c #3BC00B",
"Y.	c #54FF04",
"Z.	c #24880A",
"`.	c #238F08",
" +	c #249406",
".+	c #2CA408",
"++	c #2FA809",
"@+	c #259A04",
"#+	c #249605",
"$+	c #818F77",
"%+	c #49634D",
"&+	c #1D421B",
"*+	c #435947",
"=+	c #6B7E6D",
"-+	c #ACACA9",
";+	c #289B02",
">+	c #2EA706",
",+	c #41C90B",
"'+	c #4FF307",
")+	c #29980A",
"!+	c #2EA609",
"~+	c #2DA508",
"{+	c #2AA403",
"]+	c #197800",
"^+	c #7D7679",
"/+	c #1F481F",
"(+	c #0A1809",
"_+	c #405846",
":+	c #979B97",
"<+	c #60A747",
"[+	c #36B809",
"}+	c #3DC50A",
"|+	c #3CC10A",
"1+	c #3FC60A",
"2+	c #51FC06",
"3+	c #289809",
"4+	c #239503",
"5+	c #219400",
"6+	c #848778",
"7+	c #325233",
"8+	c #173716",
"9+	c #263A26",
"0+	c #5E7460",
"a+	c #A6A5A3",
"b+	c #41AB1F",
"c+	c #2DA706",
"d+	c #39B908",
"e+	c #42D10A",
"f+	c #4BE309",
"g+	c #31AC09",
"h+	c #30A908",
"i+	c #2FA709",
"j+	c #249703",
"k+	c #209201",
"l+	c #148100",
"m+	c #997F97",
"n+	c #1F451D",
"o+	c #919891",
"p+	c #AFAFA9",
"q+	c #1A8800",
"r+	c #2BA305",
"s+	c #3BC109",
"t+	c #41CB0A",
"u+	c #42D20A",
"v+	c #4BE50A",
"w+	c #30AB08",
"x+	c #1F9000",
"y+	c #188600",
"z+	c #89837F",
"A+	c #274C28",
"B+	c #0B1B0B",
"C+	c #415D44",
"D+	c #ADA9A9",
"E+	c #97BB89",
"F+	c #219002",
"G+	c #2BA405",
"H+	c #41C809",
"I+	c #299E06",
"J+	c #1E8E00",
"K+	c #1D8D00",
"L+	c #527F47",
"M+	c #4F6650",
"N+	c #173C17",
"O+	c #000000",
"P+	c #152C16",
"Q+	c #2F542F",
"R+	c #A79FA2",
"S+	c #35931D",
"T+	c #259804",
"U+	c #2DA605",
"V+	c #48DD09",
"W+	c #279E05",
"X+	c #1F8F01",
"Y+	c #218F01",
"Z+	c #427B38",
"`+	c #667565",
" @	c #091508",
".@	c #5C6F5E",
"+@	c #ADA6A6",
"@@	c #2EAC06",
"#@	c #209101",
"$@	c #1B8900",
"%@	c #50853E",
"&@	c #687769",
"*@	c #294E27",
"=@	c #020303",
"-@	c #112810",
";@	c #7F857C",
">@	c #979C8F",
",@	c #238908",
"'@	c #2CA407",
")@	c #2DA905",
"!@	c #3FC808",
"~@	c #428D2D",
"{@	c #6D7A6E",
"]@	c #284F28",
"^@	c #070F06",
"/@	c #1A371A",
"(@	c #888F88",
"_@	c #B4ABAF",
":@	c #4EA134",
"<@	c #249201",
"[@	c #198500",
"}@	c #239401",
"|@	c #4F893B",
"1@	c #788075",
"2@	c #2A4F2B",
"3@	c #060D06",
"4@	c #183518",
"5@	c #576E58",
"6@	c #9D9A99",
"7@	c #B3AAAE",
"8@	c #9F9997",
"9@	c #AAA3A3",
"0@	c #8A8F88",
"a@	c #667666",
"b@	c #244B24",
"c@	c #030603",
"d@	c #020502",
"e@	c #0E210E",
"f@	c #1C3C1A",
"g@	c #566B56",
"h@	c #657665",
"i@	c #436046",
"j@	c #1E421E",
"k@	c #010202",
"l@	c #010201",
"                                                                                ",
"                                                                                ",
"                                                                                ",
"                                                                                ",
"                                                                                ",
"                                                                                ",
"                                                                                ",
"                                                                                ",
"                                . . + @ # $ % &                                 ",
"                              . * = - ; > , ' ) !                               ",
"                      . . ~ { ] ^ / ( _ : < [ } | 1 2 3 . 4                     ",
"                  5 6 7 8 9 0 a b c d e _ f g h i j k l m n o                   ",
"                3 p q r s t u v w x d y z A B C D E F G H I J K                 ",
"                L M N O P Q e x R S S T U V V W B B X Y Z `  ...                ",
"                +.@.O #.$.R S x S S S x %.V V &.B B B *.=.-.;.>.                ",
"                ,.@.'.).!.~.{.S S S S ].^.V V /.&.(.(.(.(._.:.<.                ",
"                3 [.O }.!.|.1.].R S S ].2.V V V V 3.(.(.4.5.6.7.                ",
"                . 8.9.0.!.a.b.c.R S S ].d.V V /.V 3.(.(.(.5.e.f.                ",
"                . g.h.i.j.k.l.m.c.n.o.x f V V V p.q.(.(.(.=.e.r.                ",
"                3 s.t.u.j.v.w.x.b.y.n.x z.V V V A.B.(.(.(.C.D.E.                ",
"                ,.F.G.H.I.v.J.K.L.M.c.x z./.V N.4.O.P.(.(.Q.R.S.                ",
"                +.T.U.V.W.v.v.w.X.x.Y.Y.z.Z.`. +.+++++@+#+$+%+&+                ",
"                *+=+-+;+>+,+v.k.X.X.'+Y.)+Z.&.!+~+++~+{+]+^+/+(+                ",
"                  _+:+<+P [+}+v.|+1+1+2+3+V ++++++++4+5+6+7+8+                  ",
"                  9+0+a+b+c+d+v.v.v.e+f+g+++h+++i+j+k+l+m+n+                    ",
"                      o+p+q+r+s+t+u+v+v+w+++h+i+P.x+y+z+A+B+                    ",
"                      C+D+E+F+G+H+v+v+v+h+++++I+J+K+L+M+N+O+                    ",
"                      P+Q+R+S+T+U+V+v+f+h+++W+X+Y+Z+`+/+O+                      ",
"                         @.@+@q+r+@@V+f+++P.#@$@%@&@*@=@                        ",
"                          -@;@>@,@'@)@!@k+X+J+~@{@]@^@                          ",
"                          O+/@(@_@:@<@[@}@$@|@1@2@3@                            ",
"                            O+4@5@6@7@8@9@0@a@b@c@                              ",
"                              d@e@f@E.g@h@i@j@k@                                ",
"                                  O+l@d@d@k@O+                                  ",
"                                                                                ",
"                                                                                ",
"                                                                                ",
"                                                                                ",
"                                                                                ",
"                                                                                "};
