/* XPM */
static char *dummy[]={
"40 40 604 2",
"eB c #080808",
"el c #090909",
"e1 c #0b0b0b",
"d# c #0c0c0c",
"dg c #0d0d0d",
"c5 c #0e0e0e",
"ch c #0f0f0f",
"ci c #101010",
"dl c #111111",
"b3 c #121212",
"b2 c #131313",
"cI c #161616",
"cg c #191919",
"eN c #1c1c1c",
"cj c #1e1e1e",
"c6 c #1f1f1f",
"eD c #201e3a",
"e2 c #212121",
"en c #22203c",
"d6 c #232037",
"eH c #232323",
"d1 c #24223e",
"dX c #272641",
"dU c #282641",
"fh c #292640",
"e4 c #292843",
"eJ c #2a2633",
"eF c #2a2842",
"fb c #2b2944",
"fd c #2e2c44",
"fm c #2f2a39",
"dE c #312f48",
"hb c #32a67a",
"gS c #342810",
"gU c #352911",
"ez c #36344a",
"dn c #38354c",
"gT c #3a2d14",
"gR c #3b2e14",
"di c #3c394e",
"db c #3d3a4f",
"fl c #484559",
"h# c #49340e",
"gQ c #4d3913",
"d5 c #4f4b5d",
"bY c #524650",
"eI c #525060",
"hz c #543d13",
"gI c #543e14",
"gP c #543f15",
"gA c #553e13",
"gM c #553e14",
"gF c #553f14",
"gy c #553f15",
"gC c #563f14",
"gJ c #564015",
"c9 c #564f54",
"cp c #565162",
"gE c #574015",
"gO c #574116",
"gx c #584015",
"gD c #584116",
"gw c #584217",
"cM c #585465",
"gN c #594116",
"gL c #594317",
"gB c #594318",
"b7 c #594f52",
"gG c #5a4216",
"gK c #5b4318",
"gz c #5b4418",
"g0 c #5c4415",
"gH c #5c4418",
"h. c #5d4313",
"gX c #5d4413",
"g4 c #5d4414",
"g8 c #5d4514",
"gY c #5e4312",
"g2 c #5e4413",
"g7 c #5f4412",
"g1 c #5f4413",
"g5 c #5f4513",
"gV c #5f4615",
"g3 c #604512",
"gZ c #604513",
"g9 c #604514",
"g6 c #614513",
"gW c #624513",
"fk c #666571",
"eO c #666671",
"bN c #675e61",
"co c #67616f",
"fg c #676671",
"ha c #67aa97",
"e3 c #6a6973",
"hn c #6b501a",
"hu c #6c5019",
"he c #6c501a",
"hy c #6c511a",
"ht c #6c521b",
"hj c #6d511a",
"hk c #6d521b",
"hh c #6d521c",
"b8 c #6d6055",
"hs c #6e5119",
"hv c #6e521b",
"hq c #6e531b",
"hi c #6f511a",
"hf c #6f5219",
"hp c #6f531b",
"hc c #6f531c",
"fa c #6f6e77",
"hw c #705219",
"ho c #70521a",
"hl c #70531a",
"hg c #71531a",
"hx c #71541b",
"hm c #72541b",
"hd c #73541a",
"hr c #73541b",
"bZ c #745f40",
"fc c #76777d",
"b9 c #776854",
"em c #797c77",
"cJ c #797ea6",
"d4 c #797f8a",
"ey c #7b8285",
"c. c #7c6c52",
"eE c #818884",
"d0 c #888694",
".P c #896c2a",
"ff c #898a8e",
".s c #8a6d2b",
".H c #8d702d",
".L c #8d712e",
".C c #8e702c",
".J c #8e702d",
".O c #8e702e",
".u c #8e712d",
".N c #8e712e",
".k c #8e722e",
".y c #8f702c",
".Q c #8f712e",
".z c #8f722f",
".p c #8f732f",
"bM c #8f8b8f",
".o c #90702c",
".E c #90722d",
".w c #90722e",
".G c #90732e",
".n c #90732f",
".x c #907330",
".D c #907430",
".q c #91722e",
".I c #91732e",
".m c #91732f",
".B c #91742f",
".M c #92732f",
".A c #92742f",
".l c #93742f",
".F c #937531",
".r c #937631",
"b6 c #938f96",
".t c #947630",
".v c #957731",
"eC c #959886",
".K c #967731",
"bL c #969295",
"fX c #977833",
"eG c #977c37",
"bO c #988045",
"#F c #997a34",
"fW c #9a7b35",
"#G c #9a7c35",
"#D c #9a7c36",
"fS c #9b7a34",
"#z c #9b7c35",
"fP c #9b7c36",
"#n c #9b7d35",
"#l c #9b7d36",
"fL c #9c7b34",
"fT c #9c7c35",
"fJ c #9c7c36",
"#v c #9c7d35",
"#p c #9c7d36",
"#f c #9c7d37",
"#s c #9c7e37",
"cN c #9c7e38",
"#q c #9d7c34",
"#h c #9d7d35",
"#j c #9d7d36",
"dT c #9d7d37",
"fU c #9d7e37",
"#d c #9d7f37",
"c2 c #9d7f38",
"#B c #9e7d35",
"c4 c #9e7e35",
"#C c #9e7e36",
"#x c #9e7e37",
"#k c #9e7f37",
"#w c #9e7f38",
"dS c #9e7f39",
"ex c #9e7f3a",
"cq c #9e834c",
"#r c #9f7f37",
"fO c #9f7f38",
"cY c #9f8037",
"#i c #9f8038",
"e6 c #9f8137",
"f. c #9f8138",
"#t c #9f8139",
"c# c #9f823c",
"#e c #a07f37",
"#y c #a08037",
"dN c #a08038",
"#u c #a08138",
"#g c #a08139",
"dG c #a0813a",
"cS c #a08239",
"cP c #a18035",
"cV c #a18037",
"fV c #a18039",
"e9 c #a18136",
"cU c #a18137",
"dL c #a18138",
"fM c #a18139",
"dJ c #a1813a",
"#o c #a18239",
"dP c #a1823a",
"br c #a1823c",
"dc c #a1843c",
"#m c #a28138",
"fN c #a28139",
"c1 c #a28238",
"#A c #a28239",
"fI c #a2823a",
"ew c #a2823b",
"cX c #a28339",
"#E c #a2833a",
"e5 c #a2843a",
"bJ c #a2843c",
"c0 c #a38237",
"dI c #a3823a",
"f# c #a38338",
"cR c #a38339",
"dQ c #a3833a",
"fK c #a3833b",
"dO c #a3843b",
"cQ c #a3853a",
"cW c #a3853b",
"eK c #a3863a",
"cZ c #a3863b",
"eA c #a3863c",
"aa c #a3863d",
"c8 c #a3a4a0",
"fe c #a3a8a3",
"bK c #a48439",
"fR c #a4843b",
"eu c #a4843d",
"bG c #a4853a",
"dM c #a4853b",
"dK c #a4853c",
"bx c #a4863a",
"cT c #a4863b",
"bs c #a4863c",
"fi c #a4873b",
"e8 c #a4873c",
"bU c #a4873d",
"fQ c #a5843b",
"bq c #a5843d",
"dZ c #a58539",
"de c #a5853a",
"dF c #a5853c",
"er c #a5853d",
"eo c #a5853e",
"ay c #a58639",
"al c #a5863a",
"bv c #a5863b",
"dH c #a5863c",
"#6 c #a5873b",
"bP c #a5873c",
"#8 c #a5873d",
"aE c #a5883d",
"d3 c #a5883e",
"ck c #a5b3df",
"bD c #a6853a",
"dR c #a6853c",
"ev c #a6853d",
"et c #a6853e",
"bz c #a68638",
"ad c #a6863a",
"b0 c #a6863b",
"#S c #a6873b",
"cO c #a6873c",
"dV c #a6873d",
"ep c #a6873e",
"#Q c #a6883c",
"#J c #a6883d",
"#Y c #a6893e",
"#2 c #a7863a",
"eq c #a7863e",
"bo c #a7863f",
"bt c #a78739",
"aC c #a7873a",
"ai c #a7873b",
"es c #a7873e",
"bf c #a7873f",
"aG c #a7883a",
"e7 c #a7883c",
"dd c #a7883d",
"bd c #a7883f",
"a7 c #a78840",
"c3 c #a7893c",
"an c #a7893d",
"d. c #a7893e",
"cd c #a8863a",
"#V c #a88739",
"#N c #a8873a",
"bI c #a8873b",
"b# c #a8873f",
"a9 c #a88740",
"ac c #a8883a",
"aD c #a8883b",
"bE c #a8883c",
"bk c #a8883f",
"bg c #a88840",
"d2 c #a8893c",
"as c #a8893d",
"ah c #a8893e",
"af c #a88a3d",
"#P c #a88a3e",
"bh c #a9873f",
"#L c #a9883a",
"#0 c #a9883b",
"bA c #a9883c",
"bm c #a9883f",
"bi c #a98840",
"cf c #a9893b",
"a# c #a9893c",
"bc c #a98940",
"bn c #a98941",
"#4 c #a98a3d",
"aB c #a98a3e",
"bl c #a98a41",
"#H c #a98b3e",
"bB c #a98b3f",
"a4 c #a98b40",
"bu c #a98c3e",
"bH c #a98c3f",
"a. c #aa893b",
"aw c #aa893c",
"a8 c #aa8940",
"bb c #aa8941",
"bF c #aa8a3c",
"#X c #aa8a3d",
"aO c #aa8a3e",
"ba c #aa8a41",
"ap c #aa8b3e",
"#W c #aa8c3e",
"#3 c #aa8c3f",
"dk c #aa8c40",
"eg c #aa8c41",
"av c #aa8d3f",
"#Z c #aa8d40",
"fn c #aa8d45",
"aq c #ab8a3c",
"aW c #ab8a3d",
"be c #ab8a41",
"#5 c #ab8b3d",
"b. c #ab8b42",
"bC c #ab8c3e",
"#O c #ab8c3f",
"aQ c #ab8c40",
"#M c #ab8d3f",
"#9 c #ab8d40",
"aI c #ab8d41",
"aS c #ac8a3d",
"#I c #ac8b3d",
"ag c #ac8b3e",
"ej c #ac8b3f",
"bj c #ac8b41",
"bS c #ac8c3d",
"dY c #ac8c3e",
"bp c #ac8c42",
"by c #ac8d3f",
"aj c #ac8d40",
"aU c #ac8d41",
"#1 c #ac8e3f",
"#K c #ac8e40",
"cc c #ac8e41",
"dj c #ac8f41",
"bX c #acacb4",
"d9 c #ad8b3e",
"at c #ad8c3e",
"eb c #ad8c3f",
"bw c #ad8d3e",
"a3 c #ad8d3f",
"aT c #ad8d40",
"ed c #ad8d41",
"e0 c #ad8d44",
"cb c #ad8e3f",
"ar c #ad8e40",
"ec c #ad8e41",
"aM c #ad8e42",
"ax c #ad8f40",
"ao c #ad8f41",
"aY c #ad8f42",
"bR c #ad9041",
"ca c #ae8d3e",
"cH c #ae8d44",
"eL c #ae8e3e",
"ce c #ae8e3f",
"#T c #ae8e40",
"b1 c #ae8f40",
"eM c #ae8f41",
"a2 c #ae8f42",
"eP c #ae8f45",
"aF c #ae9040",
"#U c #ae9041",
"aK c #ae9042",
"a1 c #ae9043",
"ef c #af8d40",
"#R c #af8e3e",
"bQ c #af8e3f",
"#7 c #af8e40",
"e# c #af8e41",
"aA c #af8f3f",
"aZ c #af8f40",
"am c #af8f41",
"aL c #af8f42",
"eZ c #af8f45",
"ab c #af9041",
"e. c #af9042",
"dB c #af9045",
"eX c #af9046",
"aX c #af9142",
"aV c #af9143",
"ee c #af9144",
"cG c #b08e44",
"ak c #b08f3f",
"bT c #b08f40",
"au c #b09040",
"ae c #b09041",
"cE c #b09046",
"fj c #b09141",
"aJ c #b09143",
"aR c #b09244",
"ga c #b18e42",
"du c #b19043",
"dy c #b19044",
"cx c #b19045",
"cr c #b19046",
"aH c #b19141",
"aP c #b19142",
"ei c #b19143",
"eR c #b19146",
"eT c #b19147",
"az c #b19241",
"ea c #b19243",
"dx c #b19245",
"dp c #b19246",
"d8 c #b19345",
"f2 c #b28f43",
"dr c #b29043",
".j c #b29044",
"cv c #b29045",
"eW c #b29046",
"aN c #b29141",
"a0 c #b29142",
"dv c #b29144",
"f8 c #b29145",
"cB c #b29146",
"ct c #b29147",
"df c #b29241",
"d7 c #b29243",
"#b c #b29246",
"eS c #b29247",
"a5 c #b29344",
"gu c #b38f44",
"gq c #b39043",
"dA c #b39144",
"gh c #b39145",
"cD c #b39146",
"dt c #b39245",
"cw c #b39246",
"eU c #b39247",
"cz c #b39248",
"a6 c #b39343",
".Y c #b39347",
"cC c #b39348",
"eh c #b39445",
"ds c #b39446",
"dw c #b39447",
"gf c #b49044",
"gs c #b49144",
".i c #b49246",
"eV c #b49247",
".2 c #b49346",
".T c #b49347",
"cs c #b49348",
"ek c #b49444",
".0 c #b49447",
"cy c #b49448",
"cu c #b49449",
"dz c #b49547",
"go c #b59245",
"gm c #b59246",
".4 c #b59346",
"eQ c #b59347",
"cA c #b59348",
".5 c #b59447",
"eY c #b59448",
"do c #b59547",
".8 c #b59548",
"fF c #b5954a",
"dq c #b59649",
"g. c #b69346",
".V c #b69446",
".f c #b69447",
".h c #b69448",
"#a c #b69547",
"cF c #b69549",
".R c #b69648",
"f0 c #b79346",
".b c #b79448",
"## c #b79547",
"Qt c #b79548",
"fy c #b79647",
".S c #b79648",
".X c #b79649",
".7 c #b79749",
"#. c #b7974a",
".W c #b7984a",
"f6 c #b89447",
"fv c #b89547",
".g c #b89548",
".e c #b89549",
"fo c #b89647",
".c c #b89648",
".a c #b89649",
"dC c #b89748",
".9 c #b89749",
"ft c #b8974a",
".6 c #b8984a",
"gd c #b99547",
".# c #b99649",
"fD c #b99748",
"fE c #b99749",
"fw c #b99849",
".1 c #b9984a",
".U c #b9994a",
".3 c #b9994b",
"fA c #b99a4c",
".d c #ba9749",
"fq c #ba994b",
"fp c #ba9a4b",
"fC c #ba9a4c",
"gp c #bb974a",
"fY c #bb984a",
".Z c #bb9949",
"fB c #bb994a",
"#c c #bb9a4b",
"fz c #bb9b4b",
"fx c #bb9b4c",
"gj c #bc984a",
"fH c #bc9b4b",
"fs c #bc9b4c",
"fu c #bc9c4d",
"gk c #bd9849",
"gc c #bd994b",
"fr c #bd9b4b",
"gb c #be9a4b",
"fG c #be9d4d",
"f5 c #bf9a4c",
"fZ c #bf9b4c",
"gi c #c09b4d",
"f7 c #c29d4c",
"gg c #c39e4e",
"f3 c #c39f4e",
"f4 c #c49e4d",
"dW c #c5c6cd",
"gn c #c8a251",
"ge c #c8a352",
"f9 c #c9a351",
"gl c #c9a352",
"cL c #c9c7ce",
"gt c #caa351",
"c7 c #cacbda",
"f1 c #cba553",
"g# c #cca654",
"gr c #cfa856",
"dD c #cfcfd7",
"gv c #d0a955",
"b4 c #d0d2e1",
"dm c #d1d0d7",
"bV c #d2d3e2",
"cn c #d7d5d7",
"dh c #dcdce1",
"da c #e1e1e5",
"cK c #f0f1f5",
"b5 c #f9f9f9",
"cm c #fbfbfb",
"bW c #fbfff5",
"cl c #fcfcfe",
"Qt.#.a.a.b.b.c.#.#.b.bQt.d.a.e.fQt.#.c.#.bQt.e.#.#Qt.b.g.d.a.e.hQt.#.c.#.b.i.j.j",
".k.l.m.n.o.p.q.r.n.s.t.u.v.w.x.y.z.A.B.p.C.D.E.F.G.H.I.J.K.m.L.E.p.M.N.r.C.O.P.Q",
".R.S.T.U.V.W.f.X.R.Y.Z.0.1.2.3.4.XQt.5.6.4.6.5.7.R.8.9.0.1.2#.##.7#a#b#c.4.1.2.R",
"#d#e#f#g#h#i#j#i#k#l#m#n#o#p#o#q#k#r#s#t#h#u#v#i#w#x#y#z#A#p#i#B#i#C#D#E#h#u#F#G",
"#H#I#J#K#L#M#N#O#P#Q#R#S#T#J#U#V#W#X#Y#Z#0#1#2#3#P#4#5#6#7#8#9a.#3a#aaabac#1adae",
"afagah#Kac#1aiaj#P#6akalamanao#Napaq#P#Zacaradaj#Hasatalau#Java.#Waw#8#U#Naxayaz",
"#H#Xah#Kac#9aiaj#P#6aA#S#Tanao#N#Wa#aB#9aCarad#9#Hafat#6#Tan#Za.#OaDaEaFaGaralaH",
"aj#7aIaJ#IaKagaLaM#PaNaOaPaQaRaSaoaTaUaVaWaXagaKaYajaZapa0aQa1ata2a3a4a5#5aX#Xa6",
"a7a8a9b.b#bab#bbbcbdbebfbebgb.bhbcbcbgbab#bab#bbbcbia8bfbjbkblbmbnbmbobpb#bebqbr",
"an#Xbs#9btbuadaBanbvbwbxbybs#Kbz#4bA#8bB#2bCbDaBanbEbFbGa3bsbHac#HbIbJax#2bCbKa3",
"bLbMbNbO#L#MbIaj#PbPbQalaZ#JbR#V#Haq#P#9ac#1#2aj#HafbSalbT#Java.#Wa#bU#U#NarayaH",
"bVbWbXbYbZ#Kaiaj#H#6akb0aZanao#N#WawaB#9aCb1adaj#HafatbvaZan#Za.#Ma##8abaCb1alaH",
"b2b3b4b5b6b7b8b9c.c#cab0cbancccd#Ha##P#ZaC#MaC#MaBan#5#6ceanbHa.#WcfaEb1aCbyadae",
"cgchcicjckclcmcncocpcqcrcsctcucv.Ycwctcucxcycvczczct.TcrcAcBcCcD.YcBcEcFcvcycGcH",
"cIchchchchb3cIcJcKcLcMcNcO#t#QcPcQcRcScTcUbvcVcW#EcXbKcYbI#tcZc0bGc1c2c3cU#6c4bG",
"cIc5c5c5chchchchc6c7c8c9a3#Jao#V#H#Xd.#9aD#1#2#OaB#4#IbvaZ#J#Ma.#Wa#aaabac#1alae",
"b3c5c5chchchchc5d#chdadbdcddao#N#W#XaB#9aGaxadajaBasbwalae#J#Za.#Oa#aEabaGb1dedf",
"cic5c5c5chc5c5c5c5dgdhdicbandj#Napa#aB#9aCbyaC#9#Pas#I#6ceandka.#3aDaEb1aC#1adae",
"dlc5c5c5c5c5c5c5chdgdmdndodpdqdrdsdt#b.8dudodvdw.0dx.4dy#adpdzdA.0dtdBdCdudodu.2",
"chc5c5c5c5c5c5c5c5dgdDdEdFdGdHcV#EdIdJdKdLdMdNdO#EdPdQ#idR#gdO#mdO#AdScOdLdMdT#w",
"chc5c5c5chdgc5c5c5d#dDdU#T#J#U#V#W#Xd.#9#0#1#2#3#P#4#I#6#7dV#9a.#3a#aaabac#1adae",
"cic5c5c5chchc5c5c5d#dWdXam#Jao#Napaq#P#Zaccb#2ajaBasdYalau#Java.#3awaE#UaCardZaz",
"cic5c5c5chcichc5c5dgd0d1aranao#N#Wa#aB#9aCarad#9#HafdY#6#Tanava.#Md2d3abaGaralaH",
"cic5c5chdlb3b3chchd4d5d6d7ccd8d9e.e#aYaRdYeaebaJa1ecae#Oa6edeeefe.#TegehdYeiejek",
"cic5chb3dlb3dlchelemenbrbmeobgdRepeqeobkerbkerbfeseteseubieobfevbfeqeubcerbkewex",
"cic5b3b3b3b3c5dgeyez#X#S#T#J#U#V#W#Xd.#9#0cbai#3#P#4#I#6#7dV#9a.#Oa#eAabaDcbadae",
"b2b3b3b3b3chdgeBeCeD#RalaZ#JbR#V#H#Xd.#9aD#1#2#9aBafbSalbT#Java.#Wa#bU#UaccbayaH",
"b3b3b3b3chd#eleEeFeGak#6aZddaoac#WbFaB#KaCb1adajaBafatbvaZddavaw#Ma##8abaGb1alaH",
"b3b3b3chd#d#eHeIeJeKeL#Scbandj#V#Ha#aB#9aCbyaCaQaBan#5#6ceanbHa.#WcfaEeMaCbyadau",
"b3b3cid#dgeNeOenePcEeQcx.TeRcycveScBeTcscxcscxeSeUcBeVcxcseWcCcDeUcBeXeYcxcseZe0",
"b3chd#e1e2e3e4cQe5e6aCe6e7#tancPcQbK#oe8e9#ScUcTe5cXdZcYbEf.cTc0dMf#c2afcU#6c4al",
"dgd#d#eNfafbbDaQ#PcO#Ral#T#J#U#V#HbFd.#9aD#1aC#OaB#4#5alaZdV#9a.#Wa#aa#UaD#1adae",
"dge1e2fcfd#MaiaT#P#6akalamddao#Nap#XaB#9aCaxadajaBasbwalaudd#3a.#Oaw#8#UaCb1dedf",
"fefffgfhf##Mai#O#PfibQ#Scbandj#Vapa#aB#9aC#1aC#9#Paf#I#6cean#3a.#3aDaEb1aC#Kalfj",
"fkflfmfnfofpdCfq.3dqfr.Sfsftfufv.Ufw.6fxfyfz.cfAfq.WfB.SfsftfCfDfpfEfFfGfyfx##fH",
"#ifIfJfKfLfM#xfNfOfP#m#pfQfJfRfSdNfM#jfIfTfMfUfNfO#x#e#ffQfTdP#h#gfVfWdF#z#AfX#z",
"fYfZf0f1f2f3.if4f5f6f7f8f9g.g#gagbgcgdgegfggghf4gigjgkf8glgmgngofZgpgqgrgsgtgugv",
"gwgxgygzgAgBgCgDgDgEgwgFgGgygHgIgwgEgJgKgAgLgMgNgOgNgOgFgGgPgzgFgwgEgQgRgSgTgUgT",
"gVgWgXgYgZg0gZg1g2g3g4g5g6g4g7g1g8g6g2gYg3g4gZg9h.g3g4g5gWg4g7gZg4g6h#hahbhbhbhb",
"hchdhehfhghhhghihjhghkhlhmhnhohphqhrhehshghthghlhuhghvhlhmhnhwhxhyhrhzhahbhbhbhb"};
