/* XPM */
static char *dummy[]={
"40 40 250 2",
".j c #00a15e",
"b1 c #202032",
"b2 c #272641",
"bQ c #282735",
"b0 c #2f2e35",
"bw c #313131",
"bH c #313133",
"bD c #32314a",
"Qt c #32a67a",
"#v c #333028",
"bU c #333241",
"bL c #353229",
"#0 c #36332b",
"bB c #363636",
"#B c #38352d",
"#y c #39362d",
".M c #393730",
"bM c #39373c",
"aE c #393939",
".U c #3a372f",
"aD c #3a3a3a",
"aZ c #3b3b3b",
"bb c #3c3c3c",
"#A c #3e3c32",
"bx c #3e3e3e",
"#C c #3f3c33",
"aM c #3f3f3f",
"bF c #404040",
"bk c #414141",
".h c #424036",
".Z c #424037",
"aw c #434343",
".G c #444238",
"#i c #444239",
"#u c #44423a",
"am c #444444",
".i c #45433b",
"ad c #454545",
"by c #464355",
"aQ c #464646",
".2 c #47433c",
"#R c #47443c",
"#T c #47443e",
".z c #47453d",
"bp c #474747",
"bd c #484848",
"#z c #49483b",
"#b c #49483f",
"bh c #494949",
"bm c #4a4552",
"#k c #4a4740",
".I c #4a4741",
"## c #4a4840",
"a8 c #4a4a4a",
"be c #4b4941",
".N c #4b4a42",
"a0 c #4b4b4b",
".L c #4c493f",
"#. c #4c4a41",
"#p c #4c4b44",
"a2 c #4c4c4c",
".F c #4d4a43",
"bq c #4d4d4d",
".4 c #4e4d43",
"aV c #4e4e4e",
".s c #4f4d44",
"#I c #4f4d46",
".O c #4f4e46",
"a3 c #4f4f4f",
".v c #504d46",
".J c #504e47",
"#W c #504e4b",
"ae c #505050",
".D c #514e46",
"aO c #514f48",
"bc c #515151",
"bf c #524e5e",
"#U c #524f48",
"#F c #525047",
"#D c #525048",
"ax c #525252",
"aB c #534f5e",
"aK c #534f60",
".c c #53514a",
"aN c #535353",
"aP c #545062",
".E c #545149",
".a c #54524b",
"bP c #54534c",
"aF c #545454",
"aT c #555163",
".t c #55534a",
".X c #55544d",
"an c #555555",
"aX c #565264",
"a. c #56535d",
".A c #56544c",
".5 c #56554b",
"#9 c #57535b",
".Y c #57554e",
"#t c #575649",
"#n c #57564b",
"bl c #575757",
".P c #58554f",
"#3 c #58555a",
".H c #58574f",
"b3 c #585766",
".# c #595650",
"aR c #595959",
"#X c #5a5664",
"#s c #5a5850",
"#O c #5a5852",
"bV c #5a5868",
"a4 c #5a5a5a",
".y c #5b5851",
"a# c #5b5965",
"#c c #5b5a51",
"a9 c #5b5b5b",
".R c #5c5a54",
"ag c #5c5a60",
".3 c #5c5c53",
"ap c #5c5c5c",
"a5 c #5d5d5d",
"ao c #5e5e5e",
"bI c #5f5d6a",
".C c #5f5e56",
".b c #5f5e57",
"aA c #5f5e5b",
"az c #5f5f5f",
"#Y c #605d6b",
"bs c #605e6d",
"aI c #606060",
"#4 c #615e6d",
".g c #615f58",
".k c #615f59",
"bK c #615f5a",
"#o c #61605b",
"ay c #616161",
".r c #626059",
"aG c #626262",
"aH c #636363",
"#l c #65635b",
"af c #65635c",
".l c #65635f",
"#r c #65645a",
"#a c #66645c",
".B c #66655d",
".d c #66655f",
"#S c #67665e",
".u c #67aa97",
"#P c #68665e",
".e c #68665f",
"#2 c #686660",
".o c #696761",
"aJ c #696762",
"#V c #696860",
".S c #696863",
"br c #6a6863",
".w c #6a6962",
"#L c #6a6964",
"bZ c #6a6a66",
"#x c #6b6964",
"aq c #6b6966",
"#h c #6b6a66",
".p c #6c6a63",
"#j c #6c6b67",
"bi c #6d6b78",
"#g c #6d6d69",
"aW c #6e6d64",
".K c #6e6d65",
"#m c #6f6d63",
"bC c #6f6d66",
"#q c #6f6e66",
"bo c #6f6f6f",
"#Q c #706f65",
"bG c #706f67",
"av c #707070",
"ar c #716e7b",
"#M c #716f68",
".6 c #717069",
"#1 c #71706a",
".x c #74736c",
"#w c #75746c",
".Q c #77746f",
"au c #777ea7",
".f c #787670",
"#E c #787672",
"aS c #797671",
"bT c #797973",
".7 c #7a7a74",
"#K c #7b7973",
"#J c #7b7a72",
"#f c #7b7a75",
".V c #7b7a76",
".9 c #7c7b76",
"#Z c #7c7b87",
"#8 c #7c7c7b",
".q c #7d7c75",
"b. c #7d7c77",
"bN c #7d7e83",
"#N c #7e7d76",
".0 c #7e7d77",
"b# c #81807c",
".W c #82827e",
".1 c #86857f",
"bR c #88888d",
"#d c #898883",
"#e c #8c8b86",
"bA c #8c94af",
".n c #8d8c88",
"ah c #8e8c93",
"#H c #8e8d89",
".m c #8f8f8b",
"#G c #90908c",
"bO c #909599",
"bu c #919196",
"a6 c #949491",
".8 c #959593",
".T c #969693",
"bn c #97979a",
"at c #999bb3",
"bW c #999c9a",
"bY c #999e9b",
"aa c #a09da5",
"bE c #a2a6a1",
"bt c #a4a6a5",
"bJ c #a6aba6",
"bg c #a8a9a9",
"bz c #a9aca9",
"bj c #aaacac",
"bv c #aaaeae",
"bX c #aeb2ac",
"bS c #afb3ad",
"ac c #c0c5d2",
"al c #c9cbce",
"ai c #d2d1d4",
"a7 c #d8d7df",
"#7 c #dcdae0",
"as c #dcdce0",
"ba c #dfdee2",
"aC c #e3e3e8",
"aU c #e3e3eb",
"aY c #e4e4eb",
"a1 c #e6e5ec",
"aL c #e7e7ed",
"#5 c #e9e8ea",
"#6 c #f6f8ef",
"ab c #f9f9f8",
"ak c #fffefd",
"aj c #ffffff",
"QtQtQtQtQtQtQtQtQtQtQtQtQtQtQtQtQtQtQtQtQtQtQtQtQtQtQtQtQtQt.#.a.b.c.d.e.f.g.h.i",
"QtQtQtQt.jQtQtQtQtQtQtQt.jQtQtQtQtQtQtQt.jQtQtQtQtQtQtQt.jQt.k.l.m.n.o.p.q.r.s.t",
"Qt.jQtQtQtQtQtQtQt.jQtQtQt.uQtQtQt.jQtQtQtQtQtQtQt.jQtQtQt.u.v.w.x.y.z.A.B.C.D.E",
"QtQtQtQtQt.jQtQt.u.uQtQtQtQtQtQtQtQtQtQtQt.jQtQt.u.uQtQtQtQt.F.G.H.I.#.w.J.K.L.E",
"QtQtQtQtQtQtQt.j.u.uQtQtQtQtQtQtQtQtQtQtQtQtQt.j.u.uQtQtQtQt.M.N.O.P.Q.R.S.T.l.U",
"QtQtQtQtQtQtQtQtQtQtQtQtQtQtQt.uQtQtQtQtQtQtQtQtQtQtQtQtQtQt.V.W.#.X.Y.Z.0.1.a.2",
"QtQt.u.uQtQtQtQtQtQtQtQtQtQtQtQtQtQt.u.uQtQtQtQtQtQtQtQtQtQt.3.4.5.6.7.8.9#.###a",
"QtQt.u.uQtQtQtQtQtQtQtQtQtQtQt.jQtQt.u.uQtQtQtQtQtQtQtQtQtQt#b#c#d#e#f#g#h#i#j#k",
"QtQtQtQtQt.jQt.uQtQt.jQtQtQtQtQtQtQtQtQtQt.jQt.uQtQt.jQtQtQt.G#l.6#m#n#o#p#o#q#r",
"QtQtQtQtQtQtQtQtQtQtQtQtQtQtQtQtQtQtQtQtQtQtQtQtQtQtQtQtQtQt.Z.K#s#t.h#u#v.p#w#x",
"Qt.jQtQtQt.uQtQtQt.jQtQtQtQtQtQtQt.jQtQt.#.a.b.c.d.e.f.g.h.i#y#u#i#z#A#B#C#D.R#E",
".u.uQtQtQtQtQtQtQtQtQtQtQt.jQtQt.u.uQtQt.k.l.m.n.o.p.q.r.s.t.Z#F#G#H#I.J#J#K.P#L",
".u.uQtQtQtQtQtQtQtQtQtQtQtQtQt.j.u.uQtQt.v.w.x.y.z.A.B.C.D.E.a#M#N#O#C#F#P#Q.2#.",
"QtQtQtQtQtQtQt.uQtQtQtQtQtQtQtQtQtQtQtQt.F.G.H.I.#.w.J.K.L.E#R.H#S#T#U#V#W#X#Y#Z",
"QtQtQtQtQtQtQtQtQtQt.u.uQtQtQtQtQtQtQtQt.M.N.O.P.Q.R.S.T.l.U#0#1#V#O#2#3#4#5#6#7",
"QtQtQtQtQtQtQt.jQtQt.u.uQtQtQtQtQtQtQtQt.V.W.#.X.Y.Z.0.1.a.2.V#8#9a.a#aaabacadae",
"QtQt.jQtQtQtQtQtQtQtQtQtQt.jQt.uQtQt.jQt.3.4.5.6.7.8.9#.##afagahaiajakalamanaoap",
"QtQtQtQtQtQtQtQtQtQtQtQtQtQtQtQtQtQtQtQt#b#c#d#e#f#g#h#iaqarasatauavawaxapayaoaz",
"Qt.jQtQtQtQtQtQtQt.jQtQtQt.uQtQtQt.jQtQt.G#l.6#m#n#o#paAaBaCamaDaEaFapayaGaHaHaI",
"QtQtQtQtQt.jQtQt.u.uQtQtQtQtQtQtQtQtQtQt.Z.K#s#t.h#u#vaJaKaLaDaMaNaGaHayaHaHaHay",
"QtQtQtQtQtQtQt.j.u.u.#.a.b.c.d.e.f.g.h.i#y#u#i#z#A#B#CaOaPaLaEaQaxaRazaHaHaHaHay",
"QtQtQtQtQtQtQtQtQtQt.k.l.m.n.o.p.q.r.s.t.Z#F#G#H#I.J#JaSaTaUaDaVaxanaRayaGaHaHay",
"QtQt.u.uQtQtQtQtQtQt.v.w.x.y.z.A.B.C.D.E.a#M#N#O#C#F#PaWaXaYaZaeaxa0aRapayaHaHay",
"QtQt.u.uQtQtQtQtQtQt.F.G.H.I.#.w.J.K.L.E#R.H#S#T#U#V.J#qaXa1aZa2aeaVa3a4a5aIaIay",
"QtQtQtQtQt.jQt.uQtQt.M.N.O.P.Q.R.S.T.l.U#0#1#V#O#2#O.Sa6aTa7aDawaea3a8anaRa9aIay",
"QtQtQtQtQtQtQtQtQtQt.V.W.#.X.Y.Z.0.1.a.2.V.W.#.X.Y.Zb.b#aPbabbbbbca3a0bdaeaRa5ay",
"Qt.jQtQtQt.uQtQtQt.j.3.4.5.6.7.8.9#.###a.3.4.5.6.7.8#fbebfbgaGaEbha3a3a8bhana4a4",
".u.uQtQtQtQtQtQtQtQt#b#c#d#e#f#g#h#i#j#k#b#c#d#e#f#g#h#i#hbibjbbbkaVa3aVbhbhbla4",
".u.uQtQtQtQtQtQtQtQt.G#l.6#m#n#o#p#o#q#r.G#l.6#m#n#o#p#o#qbmbnboaEbpa0a3a8bqbqaR",
"QtQtQtQtQtQtQt.uQtQt.Z.K#s#t.h#u#v.p#w#x.Z.K#s#t.h#u#v.p#wbrbsbtbcaMbda3a3a3aeaF",
".#.a.b.c.d.e.f.g.h.i#y#u#i#z#A#B#C#D.R#E#y#u#i#z#A#B#C#D.R#E#ybubvbwbxbha3aeaFaF",
".k.l.m.n.o.p.q.r.s.t.Z#F#G#H#I.J#J#K.#.S.Z#F#G#H#I.J#J#K.#.S.ZbybzbAbBbxbqaFaFaF",
".v.w.x.y.z.A.B.C.D.E.a#M#N#O#C#F#P#Q.2#..a#M#N#O#C#F#P#Q.2#..abCbDbEbhaZbFaxaFaF",
".F.G.H.I.#.w.J.K.L.E#R.H#S#T#U#V.JbG#y#i#R.H#S#T#U#V.JbG#y#i#R.HbHbIbJbwbxbkaxaF",
".M.N.O.P.Q.R.S.T.l.U#0#1#V#O#2#O.S.TbKbL#0#1#V#O#2#O.S.TbKbL#0#1#VbMbNbOaEaMbFbq",
".V.W.#.X.Y.Z.0.1.a.2.V.W.#.X.Y.Z.0.1.a.2.V.W.#.X.Y.Z.0.1.a.2.V.W.#bPbQbRbSaIaEbw",
".3.4.5.6.7.8.9#.###a.3.4.5.6.7.8.9#.###a.3.4.5.6.7.8.9#.###a.3.4.5.6bTbUbVbWbXbY",
"#b#c#d#e#f#g#h#i#j#k#b#c#d#e#f#g#h#i#j#k#b#c#d#e#f#g#h#i#j#k#b#c#d#e#fbZb0b1b2b3",
".G#l.6#m#n#o#p#o#q#r.G#l.6#m#n#o#p#o#q#r.G#l.6#m#n#o#p#o#q#r.G#l.6#m#n#o#p#o#q#r",
".Z.K#s#t.h#u#v.p#w#x.Z.K#s#t.h#u#v.p#w#x.Z.K#s#t.h#u#v.p#w#x.Z.K#s#t.h#u#v.p#w#x"};
