/* XPM */
static char *dummy[]={
"40 40 614 2",
"eJ c #201e3a",
"er c #22203c",
"e. c #232037",
"d4 c #24223e",
"d0 c #272641",
"dX c #282641",
"fr c #292640",
"fa c #292843",
"eR c #2a2633",
"eM c #2a2842",
"fk c #2b2944",
"eH c #2c2c2c",
"fn c #2e2c44",
"fw c #2f2a39",
"ep c #303030",
"dG c #312f48",
"hl c #32a67a",
"e9 c #333333",
"g2 c #342810",
"eO c #343434",
"g4 c #352911",
"eK c #353535",
"eE c #36344a",
"db c #363636",
"di c #373737",
"dp c #38354c",
"dW c #383838",
"c7 c #393939",
"g3 c #3a2d14",
"cJ c #3a3a3a",
"g1 c #3b2e14",
"cK c #3b3b3b",
"dk c #3c394e",
"ch c #3c3c3c",
"dd c #3d3a4f",
"ci c #3d3d3d",
"eC c #3e3e3e",
"dn c #3f3f3f",
"d7 c #404040",
"b3 c #414141",
"eG c #424242",
"b2 c #434343",
"fv c #484559",
"hj c #49340e",
"cI c #494949",
"g0 c #4d3913",
"d9 c #4f4b5d",
"cg c #505050",
"bY c #524650",
"eQ c #525060",
"hJ c #543d13",
"gS c #543e14",
"gZ c #543f15",
"gK c #553e13",
"gW c #553e14",
"gP c #553f14",
"gI c #553f15",
"fi c #555555",
"gM c #563f14",
"gT c #564015",
"d# c #564f54",
"cp c #565162",
"gO c #574015",
"gY c #574116",
"eV c #575757",
"gH c #584015",
"gN c #584116",
"gG c #584217",
"cO c #585465",
"gX c #594116",
"gV c #594317",
"gL c #594318",
"b7 c #594f52",
"cj c #595959",
"gQ c #5a4216",
"gU c #5b4318",
"gJ c #5b4418",
"h. c #5c4415",
"gR c #5c4418",
"c8 c #5c5c5c",
"hi c #5d4313",
"g7 c #5d4413",
"hc c #5d4414",
"hg c #5d4514",
"g8 c #5e4312",
"ha c #5e4413",
"hf c #5f4412",
"h# c #5f4413",
"hd c #5f4513",
"g5 c #5f4615",
"hb c #604512",
"g9 c #604513",
"hh c #604514",
"f. c #606060",
"he c #614513",
"fl c #616161",
"g6 c #624513",
"eP c #646464",
"fu c #666571",
"eW c #666671",
"bN c #675e61",
"co c #67616f",
"fq c #676671",
"hk c #67aa97",
"f# c #6a6973",
"hx c #6b501a",
"hE c #6c5019",
"ho c #6c501a",
"hI c #6c511a",
"hD c #6c521b",
"ht c #6d511a",
"hu c #6d521b",
"hr c #6d521c",
"b8 c #6d6055",
"hC c #6e5119",
"hF c #6e521b",
"hA c #6e531b",
"hs c #6f511a",
"hp c #6f5219",
"hz c #6f531b",
"hm c #6f531c",
"fj c #6f6e77",
"hG c #705219",
"hy c #70521a",
"hv c #70531a",
"hq c #71531a",
"hH c #71541b",
"hw c #72541b",
"hn c #73541a",
"hB c #73541b",
"bZ c #745f40",
"fm c #76777d",
"b9 c #776854",
"eq c #797c77",
"cL c #797ea6",
"d8 c #797f8a",
"eD c #7b8285",
"c. c #7c6c52",
"eL c #818884",
"d3 c #888694",
".P c #896c2a",
"fp c #898a8e",
".s c #8a6d2b",
".H c #8d702d",
".L c #8d712e",
".C c #8e702c",
".J c #8e702d",
".O c #8e702e",
".u c #8e712d",
".N c #8e712e",
".k c #8e722e",
".y c #8f702c",
".Q c #8f712e",
".z c #8f722f",
".p c #8f732f",
"bM c #8f8b8f",
".o c #90702c",
".E c #90722d",
".w c #90722e",
".G c #90732e",
".n c #90732f",
".x c #907330",
".D c #907430",
".q c #91722e",
".I c #91732e",
".m c #91732f",
".B c #91742f",
".M c #92732f",
".A c #92742f",
".l c #93742f",
".F c #937531",
".r c #937631",
"b6 c #938f96",
".t c #947630",
".v c #957731",
"eI c #959886",
".K c #967731",
"bL c #969295",
"f7 c #977833",
"eN c #977c37",
"bO c #988045",
"#F c #997a34",
"f6 c #9a7b35",
"#G c #9a7c35",
"#D c #9a7c36",
"f2 c #9b7a34",
"#z c #9b7c35",
"fZ c #9b7c36",
"#n c #9b7d35",
"#l c #9b7d36",
"fV c #9c7b34",
"f3 c #9c7c35",
"fT c #9c7c36",
"#v c #9c7d35",
"#p c #9c7d36",
"#f c #9c7d37",
"#s c #9c7e37",
"cP c #9c7e38",
"#q c #9d7c34",
"#h c #9d7d35",
"#j c #9d7d36",
"dV c #9d7d37",
"f4 c #9d7e37",
"#d c #9d7f37",
"c4 c #9d7f38",
"#B c #9e7d35",
"c6 c #9e7e35",
"#C c #9e7e36",
"#x c #9e7e37",
"#k c #9e7f37",
"#w c #9e7f38",
"dU c #9e7f39",
"eB c #9e7f3a",
"cq c #9e834c",
"#r c #9f7f37",
"fY c #9f7f38",
"c0 c #9f8037",
"#i c #9f8038",
"fc c #9f8137",
"fg c #9f8138",
"#t c #9f8139",
"c# c #9f823c",
"#e c #a07f37",
"#y c #a08037",
"dP c #a08038",
"#u c #a08138",
"#g c #a08139",
"dI c #a0813a",
"cU c #a08239",
"cR c #a18035",
"cX c #a18037",
"f5 c #a18039",
"ff c #a18136",
"cW c #a18137",
"dN c #a18138",
"fW c #a18139",
"dL c #a1813a",
"#o c #a18239",
"dR c #a1823a",
"br c #a1823c",
"de c #a1843c",
"#m c #a28138",
"fX c #a28139",
"c3 c #a28238",
"#A c #a28239",
"fS c #a2823a",
"eA c #a2823b",
"cZ c #a28339",
"#E c #a2833a",
"fb c #a2843a",
"bJ c #a2843c",
"c2 c #a38237",
"dK c #a3823a",
"fh c #a38338",
"cT c #a38339",
"dS c #a3833a",
"fU c #a3833b",
"dQ c #a3843b",
"cS c #a3853a",
"cY c #a3853b",
"eS c #a3863a",
"c1 c #a3863b",
"eF c #a3863c",
"aa c #a3863d",
"d. c #a3a4a0",
"fo c #a3a8a3",
"bK c #a48439",
"f1 c #a4843b",
"ey c #a4843d",
"bG c #a4853a",
"dO c #a4853b",
"dM c #a4853c",
"bx c #a4863a",
"cV c #a4863b",
"bs c #a4863c",
"fs c #a4873b",
"fe c #a4873c",
"bU c #a4873d",
"f0 c #a5843b",
"bq c #a5843d",
"d2 c #a58539",
"dg c #a5853a",
"dH c #a5853c",
"ev c #a5853d",
"es c #a5853e",
"ay c #a58639",
"al c #a5863a",
"bv c #a5863b",
"dJ c #a5863c",
"#6 c #a5873b",
"bP c #a5873c",
"#8 c #a5873d",
"aE c #a5883d",
"d6 c #a5883e",
"ck c #a5b3df",
"bD c #a6853a",
"dT c #a6853c",
"ez c #a6853d",
"ex c #a6853e",
"bz c #a68638",
"ad c #a6863a",
"b0 c #a6863b",
"#S c #a6873b",
"cQ c #a6873c",
"dY c #a6873d",
"et c #a6873e",
"#Q c #a6883c",
"#J c #a6883d",
"#Y c #a6893e",
"#2 c #a7863a",
"eu c #a7863e",
"bo c #a7863f",
"bt c #a78739",
"aC c #a7873a",
"ai c #a7873b",
"ew c #a7873e",
"bf c #a7873f",
"aG c #a7883a",
"fd c #a7883c",
"df c #a7883d",
"bd c #a7883f",
"a7 c #a78840",
"c5 c #a7893c",
"an c #a7893d",
"da c #a7893e",
"cd c #a8863a",
"#V c #a88739",
"#N c #a8873a",
"bI c #a8873b",
"b# c #a8873f",
"a9 c #a88740",
"ac c #a8883a",
"aD c #a8883b",
"bE c #a8883c",
"bk c #a8883f",
"bg c #a88840",
"d5 c #a8893c",
"as c #a8893d",
"ah c #a8893e",
"af c #a88a3d",
"#P c #a88a3e",
"bh c #a9873f",
"#L c #a9883a",
"#0 c #a9883b",
"bA c #a9883c",
"bm c #a9883f",
"bi c #a98840",
"cf c #a9893b",
"a# c #a9893c",
"bc c #a98940",
"bn c #a98941",
"#4 c #a98a3d",
"aB c #a98a3e",
"bl c #a98a41",
"#H c #a98b3e",
"bB c #a98b3f",
"a4 c #a98b40",
"bu c #a98c3e",
"bH c #a98c3f",
"a. c #aa893b",
"aw c #aa893c",
"a8 c #aa8940",
"bb c #aa8941",
"bF c #aa8a3c",
"#X c #aa8a3d",
"aO c #aa8a3e",
"ba c #aa8a41",
"ap c #aa8b3e",
"#W c #aa8c3e",
"#3 c #aa8c3f",
"dm c #aa8c40",
"ek c #aa8c41",
"av c #aa8d3f",
"#Z c #aa8d40",
"fx c #aa8d45",
"aq c #ab8a3c",
"aW c #ab8a3d",
"be c #ab8a41",
"#5 c #ab8b3d",
"b. c #ab8b42",
"bC c #ab8c3e",
"#O c #ab8c3f",
"aQ c #ab8c40",
"#M c #ab8d3f",
"#9 c #ab8d40",
"aI c #ab8d41",
"aS c #ac8a3d",
"#I c #ac8b3d",
"ag c #ac8b3e",
"en c #ac8b3f",
"bj c #ac8b41",
"bS c #ac8c3d",
"d1 c #ac8c3e",
"bp c #ac8c42",
"by c #ac8d3f",
"aj c #ac8d40",
"aU c #ac8d41",
"#1 c #ac8e3f",
"#K c #ac8e40",
"cc c #ac8e41",
"dl c #ac8f41",
"bX c #acacb4",
"eb c #ad8b3e",
"at c #ad8c3e",
"ef c #ad8c3f",
"bw c #ad8d3e",
"a3 c #ad8d3f",
"aT c #ad8d40",
"eh c #ad8d41",
"e8 c #ad8d44",
"cb c #ad8e3f",
"ar c #ad8e40",
"eg c #ad8e41",
"aM c #ad8e42",
"ax c #ad8f40",
"ao c #ad8f41",
"aY c #ad8f42",
"bR c #ad9041",
"ca c #ae8d3e",
"cH c #ae8d44",
"eT c #ae8e3e",
"ce c #ae8e3f",
"#T c #ae8e40",
"b1 c #ae8f40",
"eU c #ae8f41",
"a2 c #ae8f42",
"eX c #ae8f45",
"aF c #ae9040",
"#U c #ae9041",
"aK c #ae9042",
"a1 c #ae9043",
"ej c #af8d40",
"#R c #af8e3e",
"bQ c #af8e3f",
"#7 c #af8e40",
"ed c #af8e41",
"aA c #af8f3f",
"aZ c #af8f40",
"am c #af8f41",
"aL c #af8f42",
"e7 c #af8f45",
"ab c #af9041",
"ec c #af9042",
"dD c #af9045",
"e5 c #af9046",
"aX c #af9142",
"aV c #af9143",
"ei c #af9144",
"cG c #b08e44",
"ak c #b08f3f",
"bT c #b08f40",
"au c #b09040",
"ae c #b09041",
"cE c #b09046",
"ft c #b09141",
"aJ c #b09143",
"aR c #b09244",
"gk c #b18e42",
"dw c #b19043",
"dA c #b19044",
"cx c #b19045",
"cr c #b19046",
"aH c #b19141",
"aP c #b19142",
"em c #b19143",
"eZ c #b19146",
"e1 c #b19147",
"az c #b19241",
"ee c #b19243",
"dz c #b19245",
"dr c #b19246",
"ea c #b19345",
"ga c #b28f43",
"dt c #b29043",
".j c #b29044",
"cv c #b29045",
"e4 c #b29046",
"aN c #b29141",
"a0 c #b29142",
"dx c #b29144",
"gg c #b29145",
"cB c #b29146",
"ct c #b29147",
"dh c #b29241",
"e# c #b29243",
"#b c #b29246",
"e0 c #b29247",
"a5 c #b29344",
"gE c #b38f44",
"gA c #b39043",
"dC c #b39144",
"gr c #b39145",
"cD c #b39146",
"dv c #b39245",
"cw c #b39246",
"e2 c #b39247",
"cz c #b39248",
"a6 c #b39343",
".Y c #b39347",
"cC c #b39348",
"el c #b39445",
"du c #b39446",
"dy c #b39447",
"gp c #b49044",
"gC c #b49144",
".i c #b49246",
"e3 c #b49247",
".2 c #b49346",
".T c #b49347",
"cs c #b49348",
"eo c #b49444",
".0 c #b49447",
"cy c #b49448",
"cu c #b49449",
"dB c #b49547",
"gy c #b59245",
"gw c #b59246",
".4 c #b59346",
"eY c #b59347",
"cA c #b59348",
".5 c #b59447",
"e6 c #b59448",
"dq c #b59547",
".8 c #b59548",
"fP c #b5954a",
"ds c #b59649",
"gi c #b69346",
".V c #b69446",
".f c #b69447",
".h c #b69448",
"#a c #b69547",
"cF c #b69549",
".R c #b69648",
"g. c #b79346",
".b c #b79448",
"## c #b79547",
"Qt c #b79548",
"fI c #b79647",
".S c #b79648",
".X c #b79649",
".7 c #b79749",
"#. c #b7974a",
".W c #b7984a",
"ge c #b89447",
"fF c #b89547",
".g c #b89548",
".e c #b89549",
"fy c #b89647",
".c c #b89648",
".a c #b89649",
"dE c #b89748",
".9 c #b89749",
"fD c #b8974a",
".6 c #b8984a",
"gn c #b99547",
".# c #b99649",
"fN c #b99748",
"fO c #b99749",
"fG c #b99849",
".1 c #b9984a",
".U c #b9994a",
".3 c #b9994b",
"fK c #b99a4c",
".d c #ba9749",
"fA c #ba994b",
"fz c #ba9a4b",
"fM c #ba9a4c",
"gz c #bb974a",
"f8 c #bb984a",
".Z c #bb9949",
"fL c #bb994a",
"#c c #bb9a4b",
"fJ c #bb9b4b",
"fH c #bb9b4c",
"gt c #bc984a",
"fR c #bc9b4b",
"fC c #bc9b4c",
"fE c #bc9c4d",
"gu c #bd9849",
"gm c #bd994b",
"fB c #bd9b4b",
"gl c #be9a4b",
"fQ c #be9d4d",
"gd c #bf9a4c",
"f9 c #bf9b4c",
"gs c #c09b4d",
"gf c #c29d4c",
"gq c #c39e4e",
"gb c #c39f4e",
"gc c #c49e4d",
"dZ c #c5c6cd",
"gx c #c8a251",
"go c #c8a352",
"gh c #c9a351",
"gv c #c9a352",
"cN c #c9c7ce",
"gD c #caa351",
"c9 c #cacbda",
"g# c #cba553",
"gj c #cca654",
"gB c #cfa856",
"dF c #cfcfd7",
"gF c #d0a955",
"b4 c #d0d2e1",
"do c #d1d0d7",
"bV c #d2d3e2",
"cn c #d7d5d7",
"dj c #dcdce1",
"dc c #e1e1e5",
"cM c #f0f1f5",
"b5 c #f9f9f9",
"cm c #fbfbfb",
"bW c #fbfff5",
"cl c #fcfcfe",
"Qt.#.a.a.b.b.c.#.#.b.bQt.d.a.e.fQt.#.c.#.bQt.e.#.#Qt.b.g.d.a.e.hQt.#.c.#.b.i.j.j",
".k.l.m.n.o.p.q.r.n.s.t.u.v.w.x.y.z.A.B.p.C.D.E.F.G.H.I.J.K.m.L.E.p.M.N.r.C.O.P.Q",
".R.S.T.U.V.W.f.X.R.Y.Z.0.1.2.3.4.XQt.5.6.4.6.5.7.R.8.9.0.1.2#.##.7#a#b#c.4.1.2.R",
"#d#e#f#g#h#i#j#i#k#l#m#n#o#p#o#q#k#r#s#t#h#u#v#i#w#x#y#z#A#p#i#B#i#C#D#E#h#u#F#G",
"#H#I#J#K#L#M#N#O#P#Q#R#S#T#J#U#V#W#X#Y#Z#0#1#2#3#P#4#5#6#7#8#9a.#3a#aaabac#1adae",
"afagah#Kac#1aiaj#P#6akalamanao#Napaq#P#Zacaradaj#Hasatalau#Java.#Waw#8#U#Naxayaz",
"#H#Xah#Kac#9aiaj#P#6aA#S#Tanao#N#Wa#aB#9aCarad#9#Hafat#6#Tan#Za.#OaDaEaFaGaralaH",
"aj#7aIaJ#IaKagaLaM#PaNaOaPaQaRaSaoaTaUaVaWaXagaKaYajaZapa0aQa1ata2a3a4a5#5aX#Xa6",
"a7a8a9b.b#bab#bbbcbdbebfbebgb.bhbcbcbgbab#bab#bbbcbia8bfbjbkblbmbnbmbobpb#bebqbr",
"an#Xbs#9btbuadaBanbvbwbxbybs#Kbz#4bA#8bB#2bCbDaBanbEbFbGa3bsbHac#HbIbJax#2bCbKa3",
"bLbMbNbO#L#MbIaj#PbPbQalaZ#JbR#V#Haq#P#9ac#1#2aj#HafbSalbT#Java.#Wa#bU#U#NarayaH",
"bVbWbXbYbZ#Kaiaj#H#6akb0aZanao#N#WawaB#9aCb1adaj#HafatbvaZan#Za.#Ma##8abaCb1alaH",
"b2b3b4b5b6b7b8b9c.c#cab0cbancccd#Ha##P#ZaC#MaC#MaBan#5#6ceanbHa.#WcfaEb1aCbyadae",
"cgchcicjckclcmcncocpcqcrcsctcucv.Ycwctcucxcycvczczct.TcrcAcBcCcD.YcBcEcFcvcycGcH",
"cIcJcJcKcKb3cIcLcMcNcOcPcQ#t#QcRcScTcUcVcWbvcXcY#EcZbKc0bI#tc1c2bGc3c4c5cW#6c6bG",
"cIc7c7c7cJcJcKcJc8c9d.d#a3#Jao#V#H#Xda#9aD#1#2#OaB#4#IbvaZ#J#Ma.#Wa#aaabac#1alae",
"b3c7c7cJcJcJcJc7dbcJdcdddedfao#N#W#XaB#9aGaxadajaBasbwalae#J#Za.#Oa#aEabaGb1dgdh",
"cic7c7c7cJc7c7c7c7didjdkcbandl#Napa#aB#9aCbyaC#9#Pas#I#6ceandma.#3aDaEb1aC#1adae",
"dnc7c7c7c7c7c7c7cJdidodpdqdrdsdtdudv#b.8dwdqdxdy.0dz.4dA#adrdBdC.0dvdDdEdwdqdw.2",
"chc7c7c7c7c7c7c7c7didFdGdHdIdJcX#EdKdLdMdNdOdPdQ#EdRdS#idT#gdQ#mdQ#AdUcQdNdOdV#w",
"chc7c7c7cJdWc7c7c7dbdFdX#T#J#U#V#W#Xda#9#0#1#2#3#P#4#I#6#7dY#9a.#3a#aaabac#1adae",
"cic7c7c7cJchc7c7c7dbdZd0am#Jao#Napaq#P#Zaccb#2ajaBasd1alau#Java.#3awaE#UaCard2az",
"cic7c7c7cJcicKc7c7dWd3d4aranao#N#Wa#aB#9aCarad#9#Hafd1#6#Tanava.#Md5d6abaGaralaH",
"cic7c7cJd7b3b3cKcJd8d9e.e#cceaebecedaYaRd1eeefaJa1egae#Oa6eheiejec#Tekeld1emeneo",
"cic7cJb3d7b3d7chepeqerbrbmesbgdTeteuesbkevbkevbfewexeweybiesbfezbfeueybcevbkeAeB",
"eCc7b3b3b3b3c7dWeDeE#X#S#T#J#U#V#W#Xda#9#0cbai#3#P#4#I#6#7dY#9a.#Oa#eFabaDcbadae",
"b2b3eGb3b3cJdieHeIeJ#RalaZ#JbR#V#H#Xda#9aD#1#2#9aBafbSalbT#Java.#Wa#bU#UaccbayaH",
"eGb3eGb3cKeKepeLeMeNak#6aZdfaoac#WbFaB#KaCb1adajaBafatbvaZdfavaw#Ma##8abaGb1alaH",
"eGb3b3cheKeOePeQeReSeT#Scbandl#V#Ha#aB#9aCbyaCaQaBan#5#6ceanbHa.#WcfaEeUaCbyadau",
"eGb3cidbdieVeWereXcEeYcx.TeZcycve0cBe1cscxcscxe0e2cBe3cxcse4cCcDe2cBe5e6cxcse7e8",
"b3cKdbe9f.f#facSfbfcaCfcfd#tancRcSbK#ofeff#ScWcVfbcZd2c0bEfgcVc2dOfhc4afcW#6c6al",
"didbeKfifjfkbDaQ#PcQ#Ral#T#J#U#V#HbFda#9aD#1aC#OaB#4#5alaZdY#9a.#Wa#aa#UaD#1adae",
"die9flfmfn#MaiaT#P#6akalamdfao#Nap#XaB#9aCaxadajaBasbwalaudf#3a.#Oaw#8#UaCb1dgdh",
"fofpfqfrfh#Mai#O#PfsbQ#Scbandl#Vapa#aB#9aC#1aC#9#Paf#I#6cean#3a.#3aDaEb1aC#Kalft",
"fufvfwfxfyfzdEfA.3dsfB.SfCfDfEfF.UfG.6fHfIfJ.cfKfA.WfL.SfCfDfMfNfzfOfPfQfIfH##fR",
"#ifSfTfUfVfW#xfXfYfZ#m#pf0fTf1f2dPfW#jfSf3fWf4fXfY#x#e#ff0f3dR#h#gf5f6dH#z#Af7#z",
"f8f9g.g#gagb.igcgdgegfggghgigjgkglgmgngogpgqgrgcgsgtgugggvgwgxgyf9gzgAgBgCgDgEgF",
"gGgHgIgJgKgLgMgNgNgOgGgPgQgIgRgSgGgOgTgUgKgVgWgXgYgXgYgPgQgZgJgPgGgOg0g1g2g3g4g3",
"g5g6g7g8g9h.g9h#hahbhchdhehchfh#hghehag8hbhcg9hhhihbhchdg6hchfg9hchehjhkhlhlhlhl",
"hmhnhohphqhrhqhshthqhuhvhwhxhyhzhAhBhohChqhDhqhvhEhqhFhvhwhxhGhHhIhBhJhkhlhlhlhl"};
