/* XPM */
static char *dummy[]={
"40 40 894 2",
"kV c #3d372c",
"jl c #463f32",
"gV c #453f32",
"ds c #443e31",
"l7 c #28231a",
"i. c #423b30",
"fJ c #413b30",
"jk c #6a6557",
"cV c #2c251b",
"lP c #322c20",
"fm c #2b2319",
"gU c #6a6456",
"ay c #332d21",
"gA c #2c251b",
"hP c #2b2419",
"a1 c #3d372c",
"dr c #696455",
"i2 c #2c251b",
"ky c #2b2419",
"jj c #635d4f",
"gT c #645f50",
"dq c #666051",
"cU c #3f382c",
"kU c #585042",
"h9 c #615a4c",
"fI c #625c4d",
"gz c #3f382c",
"cT c #3d372c",
"gy c #3e382c",
"i1 c #3f382c",
"fl c #362e23",
"hO c #362f24",
"i0 c #3f392d",
"kx c #373024",
"hu c #1f1d37",
"ko c #1f1e31",
"ij c #1f1e3a",
"kn c #201c20",
"lZ c #211e17",
"iL c #211f33",
"l1 c #221e17",
"hM c #22203b",
"l2 c #23201a",
"l0 c #24201a",
"lQ c #24211b",
"kt c #242137",
"hi c #24223e",
"l5 c #26221b",
"j2 c #26232f",
"l6 c #27231b",
"k. c #272540",
"kp c #272640",
"g7 c #272641",
"lX c #28241c",
"lY c #28241d",
"gS c #282641",
"lR c #29241d",
"jf c #292843",
"ix c #2a2842",
"lG c #2b261c",
"lL c #2b261d",
"lT c #2b261e",
"lS c #2b271e",
"jz c #2b2944",
"kv c #2c251b",
"cK c #2c271e",
"l4 c #2c271f",
"ih c #2c2c2c",
"hA c #2d271c",
"cO c #2d271e",
"lW c #2d2820",
"jM c #2d2a35",
"jQ c #2d2b45",
"kg c #2e271d",
"iT c #2e281f",
"lV c #2e2920",
"l3 c #2e2a21",
"cs c #2f281d",
"gm c #2f291d",
"e0 c #30291d",
"hx c #302a1d",
"lU c #302c22",
"hK c #303030",
"ke c #312a1d",
"gx c #312f48",
"iu c #313131",
"iA c #322c20",
"ja c #322f2e",
"iV c #32314a",
"bY c #332c20",
"ao c #332c22",
"lB c #332d22",
"jd c #333333",
"av c #342c22",
"iI c #343434",
"hW c #352f25",
"lg c #353024",
"cP c #353027",
"iv c #353535",
"lu c #363025",
"cL c #363027",
"ls c #363125",
"cB c #363127",
"h7 c #36344a",
"fZ c #363636",
"aa c #372f22",
"kc c #373023",
"eD c #373024",
"bw c #373025",
"kF c #373026",
"f3 c #373125",
"io c #373126",
"kI c #373127",
"gs c #373128",
"at c #373129",
"gn c #373228",
"g. c #373737",
"eu c #383124",
"hl c #383125",
"cI c #383227",
"kP c #383228",
"ap c #383229",
"iU c #383329",
"gj c #38354c",
"gR c #383838",
"jW c #393224",
"jY c #393225",
"fu c #393328",
"iO c #393329",
"e2 c #39332a",
"fz c #393939",
"dZ c #3a3326",
"fk c #3a3327",
"cC c #3a3328",
"jC c #3a3426",
"hN c #3a3427",
"an c #3a3428",
"aR c #3a3429",
"lM c #3a352a",
"fe c #3a3a3a",
"kw c #3b3427",
"go c #3b3428",
"cH c #3b3429",
"cJ c #3b3529",
"e5 c #3b352a",
"lH c #3b362b",
"ff c #3b3b3b",
"cE c #3c3529",
"gr c #3c352a",
"cg c #3c362a",
"ku c #3c362b",
"lC c #3c372b",
"ga c #3c394e",
"eO c #3c3c3c",
"cM c #3d3529",
"cD c #3d3629",
"#7 c #3d362a",
"hz c #3d362b",
"iS c #3d372b",
"f1 c #3d3a4f",
"eP c #3d3d3d",
"gq c #3e362a",
"gp c #3e372a",
"#3 c #3e372b",
"#W c #3e372c",
"hG c #3e382b",
"e6 c #3e382c",
"h5 c #3e3e3e",
"aq c #3f372c",
"iP c #3f382b",
"au c #3f382c",
"cG c #3f382d",
"ar c #3f392c",
"ax c #3f392d",
"i6 c #3f392e",
"j# c #3f392f",
"aw c #3f3a2f",
"jv c #3f3a37",
"fX c #3f3f3f",
"#H c #40382a",
"jU c #40382b",
"er c #40382c",
"e3 c #40392d",
"iR c #40392e",
"hD c #403a2d",
"gF c #403a2f",
"hr c #404040",
"lO c #41392d",
"lD c #413a2d",
"lK c #413a2e",
"lI c #413b2d",
"kj c #413b2e",
"hE c #413b2f",
"k3 c #413b30",
"ej c #414141",
"d9 c #423a2c",
"hk c #423a2d",
"lF c #423a2e",
"eC c #423b2d",
"cQ c #423c2f",
"kk c #423c30",
"d. c #423c31",
"ig c #424242",
"h# c #433b2d",
"jG c #433b2e",
"lN c #433b2f",
"cN c #433c2f",
"cF c #433c30",
"hC c #433c31",
"hB c #433e32",
"ei c #434343",
"kb c #443c2e",
"ki c #443d31",
"km c #443d32",
"cR c #443e31",
"kh c #444033",
"aH c #444037",
"eK c #444444",
"eZ c #453e2e",
"lE c #453e2f",
"cS c #453e31",
"iY c #453f31",
"e4 c #453f32",
"kl c #454034",
"eg c #454545",
"hw c #463e2f",
"kd c #463f2f",
"cr c #463f31",
"iQ c #463f32",
"hy c #464032",
"iZ c #464033",
"f9 c #464646",
"## c #473f30",
"gl c #473f31",
"cf c #474031",
"cm c #474032",
"hF c #474033",
"kf c #474133",
"iF c #474354",
"h3 c #474747",
"am c #484034",
"#C c #484132",
"bT c #484133",
"as c #484134",
"al c #484234",
"bn c #484235",
"h0 c #484350",
"ks c #484559",
"hg c #484848",
"bO c #494133",
"dU c #494136",
"lJ c #494233",
"#w c #494234",
"e1 c #494335",
"bh c #494336",
"fd c #494949",
"lo c #4a4133",
"dQ c #4a4150",
"eY c #4a4233",
"ir c #4a4234",
"jA c #4a4236",
"#o c #4a4335",
"fS c #4a4337",
"g4 c #4a4a4a",
"hv c #4b4334",
"dD c #4b4337",
"lh c #4b4434",
"d2 c #4b4436",
"lt c #4b4534",
"lv c #4b4535",
"fG c #4b4856",
"gv c #4b4b4b",
"d8 c #4c4334",
"js c #4c4438",
"kG c #4c4537",
"gY c #4c4538",
"gN c #4c4c4c",
"h. c #4d4435",
"jn c #4d4539",
"h4 c #4d4d4d",
"jF c #4e4435",
"ln c #4e4535",
"lA c #4e4536",
"#V c #4e4637",
"kz c #4e4638",
"en c #4e4754",
"ji c #4e483a",
"gh c #4e4e4e",
"lz c #4f4636",
"#2 c #4f4637",
"#6 c #4f4738",
"ht c #4f4b5d",
"gO c #4f4f4f",
"c. c #504839",
"eh c #505050",
"jE c #514738",
"hd c #51473a",
"bN c #514837",
"bS c #514838",
"cc c #514939",
"iC c #51493a",
"eq c #514a4d",
"cn c #514b3d",
"eX c #514b44",
"hf c #515151",
"iz c #524838",
"d7 c #524839",
"iq c #524938",
"a. c #524939",
"lk c #524a38",
"gc c #524a39",
"dR c #524a49",
"do c #524c3d",
"ch c #524c3e",
"b9 c #524d3e",
"fx c #524e5c",
"hp c #524e5e",
"iK c #525060",
"fa c #525252",
"jT c #534939",
"gk c #534a3a",
"lj c #534b39",
"ce c #534b3a",
"hV c #534b3e",
"lq c #534c39",
"eA c #534c3a",
"#5 c #534c3b",
"hX c #534c3e",
"#Y c #534d3b",
"gd c #534e3f",
"kM c #534f43",
"fV c #534f60",
"eW c #534f61",
"fY c #535353",
"ho c #54493b",
"eB c #544a3a",
"cl c #544b3a",
"c# c #544b3b",
"ge c #544b3c",
"lm c #544c3a",
"cp c #544c3b",
"ey c #544d3b",
"hQ c #544d3e",
"ft c #544d3f",
"kL c #544d40",
"ep c #544d52",
"gb c #544e40",
"f8 c #545062",
"fA c #545454",
"j0 c #554b3a",
"ka c #554b3b",
"kW c #554c3a",
"#Z c #554c3b",
"ck c #554c3c",
"k4 c #554d3a",
"iM c #554d3b",
"fv c #554e3f",
"iB c #554f40",
"gf c #555163",
"eL c #555555",
"cd c #564d3c",
"aQ c #564f41",
"eo c #565057",
"hm c #56513e",
"jZ c #56523e",
"kK c #565245",
"gt c #565264",
"#9 c #574d3e",
"cq c #574e3d",
"#S c #57503d",
"kC c #575042",
"kR c #575142",
"ea c #575153",
"kD c #575245",
"kB c #575246",
"kQ c #575346",
"hJ c #575757",
"#U c #584e3d",
"jI c #584f3b",
"jL c #584f3c",
"iN c #584f3d",
"#n c #584f3e",
"lw c #58503b",
"hb c #58503c",
"lp c #58513c",
"ev c #58513d",
"aV c #585142",
"hS c #585144",
"kN c #585345",
"de c #585460",
"fj c #585465",
"kq c #585766",
"ew c #594f3d",
"#v c #594f3e",
"et c #59503c",
"ll c #59503d",
"lx c #59503e",
"li c #59513c",
"dY c #59513d",
"g9 c #59513e",
"aS c #595243",
"kO c #595244",
"h8 c #595344",
".6 c #595346",
"eb c #595359",
"eQ c #595959",
"lr c #5a503d",
"hj c #5a503e",
"jX c #5a503f",
"a# c #5a513e",
"#0 c #5a523e",
"es c #5a5240",
"ly c #5a5241",
"i5 c #5a5244",
"bv c #5a5341",
"aI c #5a5343",
"kE c #5a5344",
"kH c #5a5345",
"#X c #5a5446",
".3 c #5a5447",
"#8 c #5a5545",
"#4 c #5a5547",
"eE c #5a5557",
"j3 c #5a5868",
"gP c #5a5a5a",
"ci c #5b513e",
"#F c #5b523f",
"dX c #5b5241",
"ez c #5b533f",
"in c #5b5342",
"jh c #5b5345",
"f2 c #5b5442",
"gE c #5b5446",
"kT c #5b5447",
"ex c #5b5547",
".U c #5b5548",
"kJ c #5b5648",
"g5 c #5b5b5b",
"#T c #5c523f",
"dT c #5c5240",
"dB c #5c5241",
"#G c #5c533e",
"ca c #5c533f",
"dF c #5c5341",
"g8 c #5c5342",
"f7 c #5c5441",
"hU c #5c5546",
"hT c #5c564a",
"j. c #5c5749",
"eN c #5c5c5c",
"d1 c #5d523f",
"#r c #5d533f",
"#z c #5d5340",
"jm c #5d5341",
"dC c #5d5342",
"iD c #5d5440",
"ju c #5d5442",
"jr c #5d5443",
"k9 c #5d5542",
"fq c #5d5547",
"c9 c #5d5647",
"kA c #5d5749",
"dw c #5d574a",
"aC c #5d574e",
"dj c #5d5865",
"gQ c #5d5d5d",
"#m c #5e523f",
"hn c #5e5440",
"jS c #5e5441",
"dG c #5e5443",
"bI c #5e5540",
"cb c #5e5541",
"dW c #5e5542",
"gX c #5e5544",
"co c #5e5642",
"k# c #5e5643",
"g2 c #5e5645",
"dn c #5e5647",
"e. c #5e5742",
"i7 c #5e5747",
"fs c #5e5748",
"dI c #5e5856",
"ak c #5e594d",
"eM c #5e5e5e",
"bP c #5f5540",
"jV c #5f5640",
"bV c #5f5641",
"iE c #5f5642",
"cj c #5f5643",
"g0 c #5f5644",
"dA c #5f5645",
"jH c #5f5742",
"lf c #5f5746",
"aM c #5f5749",
"jK c #5f5843",
"fH c #5f5848",
"aX c #5f5849",
"dp c #5f594b",
"hR c #5f594c",
"fw c #5f594f",
"aN c #5f5a4c",
"hZ c #5f5a4d",
"ec c #5f5b65",
"jb c #5f5d6a",
"fc c #5f5f5f",
"jJ c #605541",
"hc c #605641",
"jp c #605645",
"j1 c #605743",
"e# c #605744",
"k2 c #605745",
"dV c #605844",
"aP c #60594a",
"hY c #60594c",
"dd c #605950",
"gG c #605a4a",
"fr c #605a4b",
"kS c #605a4d",
"dJ c #605c6a",
"fD c #606060",
"bW c #615741",
"ha c #615840",
"bJ c #615841",
"#1 c #615944",
"jB c #615945",
"aU c #615a4a",
"gC c #615a4c",
"aO c #615b4c",
"dc c #615b4d",
"dk c #615c54",
"ie c #615f6d",
"fb c #616161",
"f6 c #625842",
"#A c #625942",
"le c #625946",
"iy c #625a48",
"aZ c #625b4b",
"dl c #625b4d",
"c7 c #625c4d",
"fp c #625c4e",
"i9 c #625c4f",
"eV c #625d6e",
"fB c #626262",
"#s c #635942",
"d5 c #635943",
"kZ c #635a44",
"bu c #635b47",
"jg c #635b4c",
"a0 c #635c4c",
"i3 c #635e51",
"fC c #636363",
".G c #64594c",
"k6 c #645a44",
"bM c #645a45",
"ld c #645b44",
"bR c #645b45",
"bU c #645b46",
"#l c #645b47",
"im c #645c47",
"i4 c #645c4c",
"gL c #645d4e",
"aY c #645d4f",
"aL c #645e50",
"df c #64606e",
"iJ c #646464",
"k0 c #655b48",
"bH c #655c46",
"#u c #655c47",
"#B c #655c48",
"bg c #655d49",
"gD c #655d4d",
"aW c #655e50",
"#R c #655e52",
"gH c #655f50",
"gJ c #655f51",
"gB c #656052",
"gK c #656053",
"l# c #665b48",
"#k c #665c47",
"#E c #665c48",
"f5 c #665d47",
"d0 c #665d48",
"jq c #665d49",
"fR c #665d4a",
"dS c #665e4a",
".9 c #665f4c",
"#j c #665f53",
"fn c #666051",
"kr c #666571",
"iX c #666671",
"jR c #675c47",
"ip c #675e47",
"dz c #675e4a",
"gW c #675e4b",
"#. c #675f4b",
"c8 c #675f4f",
"dm c #67604f",
"fo c #676052",
"f4 c #67614d",
"bG c #67614e",
"d# c #676151",
"db c #676153",
"c6 c #676254",
"j9 c #676671",
"d6 c #685d48",
"jD c #685d49",
"bQ c #685e48",
"dH c #685e4a",
"#t c #685f48",
"#y c #685f49",
"#q c #685f4a",
"lc c #68604a",
"la c #68604d",
"l. c #68614b",
"i8 c #686153",
"aJ c #686253",
"bL c #695f49",
"g1 c #695f4a",
"d4 c #69604a",
"k7 c #69604d",
"k1 c #69614e",
"k5 c #69624c",
"#D c #69624f",
"aT c #696253",
"aK c #696254",
"bq c #6a614a",
"bf c #6a614c",
"fQ c #6a614d",
"fU c #6a614e",
"kX c #6a624c",
".5 c #6a624e",
".1 c #6a624f",
"k8 c #6a634f",
"gI c #6a6354",
"je c #6a6973",
"bc c #6b614b",
"bK c #6b614c",
"fM c #6b624b",
"bX c #6b624c",
"ib c #6b624d",
".S c #6b624f",
"dy c #6b634c",
"lb c #6b634f",
".Z c #6c634c",
"kY c #6c644f",
"du c #6c6451",
"bs c #6c6551",
"da c #6c6556",
".g c #6c6960",
"bb c #6d644e",
"bt c #6d654f",
"il c #6d6550",
"ik c #6d6552",
"fK c #6d6752",
"hH c #6d6b78",
"bp c #6e644e",
"i# c #6e654f",
"ba c #6e6752",
"bi c #6e6852",
"ic c #6e6853",
"bl c #6f6652",
"bo c #6f6853",
"e7 c #6f6c79",
"jy c #6f6e77",
"h2 c #6f6f6f",
"be c #706752",
"id c #706755",
"bj c #706851",
"fO c #706853",
"fN c #706856",
"dE c #706952",
"gZ c #706953",
"d3 c #706b58",
"f# c #707070",
".X c #716852",
"ia c #716853",
"bd c #716856",
"bk c #716857",
"fT c #716952",
"fL c #716953",
"br c #716957",
"jo c #716a53",
"jt c #716a54",
".8 c #716a55",
"#p c #716b58",
"#x c #716b59",
"dx c #726a53",
"fP c #726a54",
".Y c #726a55",
".2 c #726c59",
"b8 c #726e63",
"bm c #736b55",
".R c #736b56",
".T c #736c59",
".0 c #746c57",
".Q c #746c58",
"dv c #746d5a",
"dt c #756d59",
"jP c #76777d",
"cA c #777469",
"f. c #777ea7",
"bF c #787468",
"#Q c #797367",
"hL c #797c77",
"fg c #797ea6",
"hs c #797f8a",
"h6 c #7b8285",
"dg c #7c7a86",
".W c #7d7560",
".P c #7d786d",
"b# c #7d7a6e",
"jw c #7d7e83",
".l c #7f7163",
"az c #807c72",
"aG c #817f74",
"iw c #818884",
".B c #827163",
".u c #827263",
"ad c #827d70",
"aB c #847e73",
"#i c #847f73",
"ae c #868173",
"aD c #87857b",
"aA c #888377",
"di c #888691",
"hh c #888694",
"jN c #88888d",
"af c #898376",
"ag c #898477",
"ah c #898478",
"j8 c #898a8e",
"ac c #8a8376",
"b2 c #8a867a",
"aj c #8a867b",
"ab c #8b867a",
"#P c #8c877b",
"#O c #8c887a",
"aF c #8c8a80",
"iH c #8c94af",
"b7 c #8d887c",
".7 c #8d8978",
"#h c #8d897c",
"c0 c #8d8c81",
"b0 c #8e8a7e",
"eF c #8e8c92",
"dh c #8e8d96",
"em c #8f8d97",
"jx c #909599",
".i c #918574",
".E c #91897a",
".j c #91897b",
"aE c #918e84",
"is c #919196",
".q c #928777",
"bA c #928e80",
".A c #938675",
".t c #938a7b",
"#g c #938e80",
"ai c #938e82",
".V c #93907d",
"b1 c #939083",
"cy c #939084",
".k c #948675",
".z c #948b7b",
"bZ c #948e81",
".4 c #94917e",
".F c #958675",
"a5 c #958f83",
"by c #959082",
"a6 c #959287",
"ii c #959886",
".w c #968d7e",
".o c #968d7f",
".h c #968f81",
"c5 c #969384",
"bz c #979486",
"bB c #979488",
"b3 c #97948a",
"h1 c #97979a",
"b6 c #989384",
".s c #998774",
".r c #999081",
".y c #999082",
"cx c #999488",
"bD c #999586",
"#L c #999587",
"e9 c #999bb3",
"j4 c #999c9a",
"j6 c #999e9b",
".D c #9a8a7a",
".b c #9a9b93",
"#K c #9b9587",
"#N c #9b9688",
"a4 c #9b9689",
"b5 c #9b9888",
"b. c #9b988b",
".d c #9b9b92",
"a3 c #9c988a",
"Qt c #9c9d96",
".N c #9d9a8f",
".f c #9d9e95",
"bx c #9e9b8c",
"cz c #9e9c91",
".e c #9fa097",
".C c #a0998c",
"#J c #a09b8c",
"#f c #a09c8d",
".O c #a09e93",
"cv c #a09f95",
".n c #a29381",
"a2 c #a29e90",
"ed c #a29ea6",
".# c #a2a39b",
"iW c #a2a6a1",
".v c #a39481",
"ct c #a3a298",
"fF c #a3a4a0",
"j7 c #a3a8a3",
"a9 c #a4a194",
".c c #a4a59d",
"if c #a4a6a5",
".p c #a59586",
".x c #a59686",
".a c #a5a69f",
"eR c #a5b3df",
"cu c #a6a59b",
"jc c #a6aba6",
".m c #a79e8e",
"#e c #a7a494",
"bE c #a7a495",
"#c c #a7a497",
"a8 c #a8a698",
"hq c #a8a9a9",
"#b c #a9a597",
"iG c #a9aca9",
"#d c #aaa797",
"cw c #aaa89d",
".M c #aaa89f",
"hI c #aaacac",
"it c #aaaeae",
"#M c #aba99a",
"cZ c #abaa9c",
"dP c #acacb4",
".L c #adaba0",
"cX c #aeada0",
"j5 c #aeb2ac",
"jO c #afb3ad",
"#I c #b0aea1",
"#a c #b2b0a2",
"cY c #b2b2a5",
"b4 c #b3b0a2",
".K c #b3b1a7",
"bC c #b3b2a3",
"c3 c #b6b5a9",
"c4 c #b6b6aa",
".J c #b7b7ae",
"cW c #b7b8ad",
".I c #b9b8af",
"c2 c #b9baad",
"a7 c #babaaf",
"c1 c #bdbfb2",
".H c #c0c1ba",
"ef c #c0c5d2",
"g6 c #c5c6cd",
"fi c #c9c7ce",
"eJ c #c9cbce",
"fE c #cacbda",
"gw c #cfcfd7",
"ek c #d0d2e1",
"gi c #d1d0d7",
"eG c #d2d1d4",
"dN c #d2d3e2",
"eU c #d4d3d7",
"g3 c #d8d7df",
"dM c #dcdae0",
"e8 c #dcdce0",
"g# c #dcdce1",
"he c #dfdee2",
"f0 c #e1e1e5",
"fy c #e3e3e8",
"gg c #e3e3eb",
"gu c #e4e4eb",
"gM c #e6e5ec",
"fW c #e7e7ed",
"dK c #e9e8ea",
"fh c #f0f1f5",
"dL c #f6f8ef",
"ee c #f9f9f8",
"el c #f9f9f9",
"eT c #fbfbfb",
"dO c #fbfff5",
"eS c #fcfcfe",
"eI c #fffefd",
"eH c #ffffff",
"Qt.#.#.a.b.c.d.e.f.g.h.i.j.k.l.m.n.o.p.q.r.s.t.k.u.m.v.w.x.q.y.s.z.A.B.C.D.E.F.G",
".H.I.J.K.L.L.M.N.O.P.Q.R.S.T.U.V.W.X.Y.Z.Q.0.1.2.3.4.W.X.Y.Z.Q.Q.5.2.6.7.8.9#.##",
"#a#b#c#d#e#f#g#h#i#j#k#l#m#n#o#p#q#r#s#t#k#u#m#v#w#x#y#z#A#t#u#B#m#v#C#D#E#F#G#H",
"#I#J#K#L#M#N#O#P#Q#R#S#T#U#V#W#X#Y#Z#0#1#S#T#U#2#3#4#5#Z#0#1#S#T#U#6#7#8#9a.a#aa",
"abacadaeafagahaiajakalam#3anaoapaqar#Wasalam#3anaoatauauaqasasam#3anavawaxau#7ay",
"azajaAaBaCaDaEaFaGaHaIaJaKaLaMaNaOaPaQaRaSaJaTaLaMaNaOaUaQaRaVaJaTaWaXaYaZa0aOa1",
"a2a3a4a5a6a7a8a9b.b#ba.Xbbbcbdbe.Ybfbgbhbibjbbbcbkblbmbfbgbnbobjbpbqbrbsbtbubvbw",
"bxbybzbAbBbCbDbEa3bFbGbHbIbJbKbLbM#rbNbObGbHbPbJbKbQbR#rbSbTbGbUbVbWbXbQbR#rbSbY",
"bZb0b1b2b3b4b5b6b7b8b9c.c#cacbcccdcecfcgchc.c#cicjccckclcmcgcnc.c##Tcocpcqa.crcs",
"ctcuctcvctcwcxcyczcAcBcCcDcEcFcGcHcIcJcKcLcCcDcMcNcGcHcIcJcOcPcCcDcMcQcRcScTcUcV",
"cWcXcYcZc0c1c2c3c4c5c6c7c8c9d.aZd#dadbdcc6dddedfdgdhdidjdkdcc6dldmdnd.dodpdqdrds",
"dt.0dudvdw.V.Wdx.RdydzdAdBdCdDdEdFdG#ldHdIdJdKdLdMdNdOdPdQdRdSdAdTdCdUdVdWdXdYdZ",
"d0#ld1#vd2d3d4d1d5#td6#zd7d8d9e.e#eaebecedeeefegeheiejekelemeneoepeqeresbP#zeteu",
"ev#zew#VcGexey#Zez#1eA#veBeCeDeEeFeGeHeIeJeKeLeMeNeheOePeQeReSeTeUeVeWeXcceYeZe0",
"e1as#3cJaoe2aue3au#we4cDe5e6e7e8e9f.f#eifaeNfbeMfcfdfefeffffejfdfgfhfifjcHfkflfm",
"aSfnfofpfqdwfrfsftfufvfpfwfxfyeKfefzfAeNfbfBfCfCfDfdfzfzfzfefefffeeNfEfFfGfHfIfJ",
"fKfLbbfMfNfOfPfQfRfSbifTfUfVfWfefXfYfBfCfbfCfCfCfbejfzfzfefefefefzfZfef0f1f2bvf3",
"f4f5bIf6bKbLbMd1bS#wbGf5f7f8fWfzf9faeQfcfCfCfCfCfbePfzfzfzfefzfzfzfzg.g#ga#rbSbY",
"gbcc#Z#rdWgccqclcrcggdccgegfggfeghfaeLeQfbfBfCfCfbfXfzfzfzfzfzfzfzfeg.gigjgkglgm",
"gngogpgqcRaxgrcIcgcOgscH#3gtguffehfagveQeNfbfCfCfbeOfzfzfzfzfzfzfzfzg.gwgxgygzgA",
"gBgCgDgEgFgGgHgIgJdpgKgCgLgtgMffgNehghgOgPgQfDfDfbeOfzfzfzfegRfzfzfzfZgwgSgTgUgV",
"gWgXdFdCgYgZdFg0#Bg1dzg2dXgfg3feeiehgOg4eLeQg5fDfbePfzfzfzfeeOfzfzfzfZg6g7g8g9dZ",
"d6#zbSh.h#e.hahbhcbcd6#zhdf8heeOeOhfgOgvhgeheQgQfbePfzfzfzfeePfffzfzgRhhhi#zeteu",
"eyhjeBhkhlhmeAc#hne#ey#vhohphqfBfzfdgOgOg4fdeLgPgPePfzfzfehrejejfffehshthuhvhwhx",
"hygphz#3hAhBhChDhEhFhygp#7hGhHhIeOejghgOghfdfdhJgPePfzfeejhrejhreOhKhLhMgohNhOhP",
"hQhRhRhRhShTexhUhVhWhXhYhRhZh0h1h2fzh3gvgOg4h4h4eQh5fzejejejejfzgRh6h7.3h8fHh9i.",
"badxi#bXbdia.YibfRfSicfLi#fMidieifhffXhggOgOgOehfAeiejigejejfeg.ihiiijikiliminio",
"f4ipbIf6bKbLbMd1iqirf4f5bPbJibbLisitiuh5fdgOehfAfAigejigejffivhKiwixiybQbR#riziA",
"iBiC#ZiDiEcecq#Zcf#7gbiC#Z#riEceiFiGiHfZh5h4fAfAfAigejejeOiviIiJiKiLiEiMiNclcmgm",
"iOcEiPiPiQiR#7fuiSiTiUcEiPiPiQiRcHiViWfdffhrfafAfAigejePfZg.hJiXhM#7iYiZcmi0i1i2",
"i3dpi4i5i6i7gLi8i9j.i3dpi4i5j#c9gLjajbjciuh5ejfafAejfffZjdfDjejfjgjhgFji.Ujjjkjl",
"gWgXjmdCjnjog8jpjqg1dzgXjmjrjsjtjujpjvjwjxfzfXhrh4g.fZiveLjyjzgXjmdGjAjBcjg8g9jC",
"jD#zjEjFjGjHhajIjJbcd6jmd7h.hkjKhajLhnjMjNjOfDfziug.jdfbjPjQjRjSjTh.jUesjV#zetjW",
"iMjXeBhkjYjZcpcpcbdViMhjj0eCeuhmcpcphnj1j2j3j4j5j6j7j8j9k.k#iM#vkakbkcdoiChvkdke",
"kfiP#WaukgkhkikjkkalkfiP#WarhAklkmkjkkalcrknkokpkqkrksktkuasbTjU#3axkvkwgqgokxky",
"kzh8kAkBkCkD#XkEkCkFkGh8kAkBkCkD#XkHkCkId2kEkJkKkLkMkNkOkCkP#okHj.kQkRkSkThUkUkV",
"kWkXkYkZk0k1.5juk2k3k4k5kYk6k0k7k8k9k2k3k4l.btk6l#lalbk9k2k3k4lcbtldl#fUlblelflg",
"lhliljlkllewlmlnlof3lhlplqlklriNkWlneYlsltlplqlklriN#ZlneYlulvlwlmiqlrlxlylzlAlB",
"lClDlDlE#CarlFaufulGlHlDlIlElJarlKaufulLlHlDkjlElJarlDarfulLlMhDkjlElJhDlNlO#WlP",
"lQlRlSlTlUlVlWlXlYlZl0lRlSlTlUlVlWlYlYl1l0lRlSlTlUlVlWlYlYl1l2lRlTlTlUl3l4l5l6l7"};
