/* XPM */
static char *dummy[]={
"40 40 1023 2",
"mI c #605a49",
"jn c #686354",
"fP c #6a6556",
"aQ c #6c6759",
"ai c #4c4638",
"fh c #575040",
"i4 c #585141",
"mq c #595242",
"jd c #006870",
"j2 c #006878",
"kh c #006e7c",
"lS c #006f7c",
"k# c #00727e",
"l# c #007580",
"kA c #027884",
"kz c #037985",
"kg c #037986",
"kS c #037d86",
"j1 c #037d88",
"jB c #037f8a",
"fW c #03848b",
"hX c #03868d",
"kR c #047a86",
"l. c #047a87",
"kv c #047c87",
"lT c #04808a",
"lR c #048189",
"fV c #04848c",
"gF c #04858c",
"iI c #04868d",
"hw c #048890",
"jA c #05808c",
"ii c #05888f",
"i7 c #058991",
"ij c #058a92",
"hG c #067c89",
"j0 c #06828d",
"hd c #06878e",
"jc c #069099",
"gn c #069499",
"iS c #07818c",
"kN c #07838e",
"iR c #078590",
"is c #078992",
"kQ c #078a94",
"ka c #079098",
"er c #07d2d1",
"g2 c #087e8a",
"gN c #087e8b",
"h5 c #08848f",
"kw c #08919a",
"kO c #08949c",
"lw c #08969e",
"fu c #08babd",
"gr c #097e8a",
"iO c #097f8b",
"g3 c #097f8c",
"ir c #098792",
"ky c #098a94",
"jT c #09939c",
"i8 c #09959d",
"k9 c #0999a1",
"f3 c #09b2b5",
"fp c #09dddc",
"eU c #09e2e1",
"lu c #0a7580",
"eX c #0a7f8a",
"fw c #0a7f8b",
"fx c #0a808c",
"lv c #0a909a",
"hY c #0a9ea4",
"es c #0a9fa5",
"gG c #0aa5a9",
"eq c #0aa5ab",
"fX c #0adcdb",
"g0 c #0aece9",
"iL c #0af1ee",
"hC c #0af6f0",
"ip c #0af7f1",
"hD c #0afef7",
"it c #0b686f",
"gO c #0b6a77",
"hF c #0b7581",
"gq c #0b7783",
"iq c #0b7784",
"h4 c #0b7884",
"iN c #0b7886",
"f5 c #0b7b88",
"hi c #0b838e",
"jz c #0b848f",
"g1 c #0b8b94",
"iP c #0b9099",
"jb c #0b919b",
"jZ c #0b949c",
"gp c #0b949d",
"jY c #0b979f",
"kf c #0b98a0",
"j. c #0be4e3",
"hB c #0be9e4",
"hg c #0bece9",
"jy c #0bedec",
"io c #0bf0ec",
"fq c #0bf3ed",
"h2 c #0bf3ee",
"hh c #0bf5f0",
"fY c #0bf8f3",
"eW c #0bf9f5",
"ft c #0bfbf3",
"gJ c #0bfdf6",
"fZ c #0bfff6",
"fr c #0bfff7",
"hE c #0bfff8",
"f2 c #0bfff9",
"h6 c #0c6472",
"gs c #0c6876",
"g4 c #0c6b79",
"gM c #0c727f",
"f4 c #0c7481",
"iM c #0c7580",
"fv c #0c7987",
"fy c #0c7a87",
"gL c #0c828c",
"h3 c #0c838d",
"j# c #0c848f",
"ja c #0c929c",
"iQ c #0c959e",
"fo c #0c979d",
"jX c #0c99a1",
"eT c #0c9ea4",
"ju c #0ca5ad",
"jU c #0ca9ae",
"hx c #0cb5b7",
"lx c #0cbabc",
"gI c #0cebe9",
"fs c #0cfcf7",
"f0 c #0cfff4",
"gK c #0cfff6",
"eV c #0cfffb",
"im c #0da7ac",
"iJ c #0dafb4",
"kb c #0db1b6",
"jv c #0db5b9",
"kx c #0dbabc",
"hA c #0dc1c3",
"in c #0dc8c9",
"kP c #0dcfcf",
"h1 c #0dd8d7",
"f1 c #0dfff4",
"iK c #0eaeb4",
"jw c #0eb0b5",
"h0 c #0eb2b7",
"jx c #0eb7ba",
"hZ c #0ebcbe",
"kc c #0ebdbf",
"gY c #0ebfc1",
"jV c #0ec2c4",
"kd c #0ec2c5",
"he c #0ec4c5",
"jW c #0ed5d5",
"ke c #0ed7d7",
"f6 c #0f727f",
"eY c #0f7b86",
"il c #0fb3b8",
"hf c #0fb4ba",
"hz c #0fb8bb",
"i9 c #0fb9bd",
"ik c #0fc3c6",
"gZ c #0fd4d4",
"hy c #10c1c3",
"gH c #10cccd",
"go c #10cecf",
"f7 c #126572",
"gt c #136472",
"fz c #147b85",
"fU c #148992",
"et c #157c86",
"iV c #1d363e",
"j4 c #1d3842",
"nY c #1e1b15",
"mt c #1e2422",
"kM c #1e818b",
"n4 c #1f1b15",
"n7 c #1f1c15",
"mu c #1f3237",
"kV c #1f3844",
"jf c #1f3944",
"n8 c #201c15",
"kD c #203439",
"mz c #21343d",
"iv c #213b47",
"jS c #229aa2",
"m# c #243234",
"mh c #243d47",
"fA c #24727f",
"hH c #253e49",
"mv c #253f48",
"h8 c #254049",
"n5 c #26221c",
"nR c #27231c",
"nZ c #27231d",
"kj c #273f4a",
"lc c #27424b",
"nW c #28231c",
"nH c #28241b",
"lA c #28414c",
"cQ c #29241b",
"n0 c #29241d",
"nP c #29251b",
"nX c #29251d",
"nS c #2a251d",
"hm c #2b251c",
"hr c #2b251d",
"kX c #2b261d",
"n1 c #2b271e",
"lN c #2b3839",
"lW c #2b424c",
"k0 c #2c261d",
"nV c #2c271f",
"n2 c #2c281f",
"nT c #2d2920",
"nQ c #2d2921",
"n6 c #2e2a21",
"hk c #2e444f",
"am c #2f2920",
"nU c #2f2a21",
"n3 c #2f2b21",
"ly c #2f7f86",
"av c #302921",
"jl c #302a1f",
"mH c #302b20",
"kK c #304851",
"mP c #312a20",
"aA c #312a21",
"mD c #312b20",
"fM c #312b21",
"k6 c #31332e",
"eZ c #318c93",
"m1 c #322c22",
"m7 c #332c22",
"jD c #334750",
"jH c #342e24",
"g6 c #344853",
"k5 c #352e23",
"ga c #363025",
"lQ c #36959a",
"db c #373126",
"nG c #373227",
"iH c #379fa4",
"cX c #383126",
"cU c #383226",
"cP c #383227",
"aZ c #383228",
"ny c #383327",
"a6 c #383328",
"gQ c #384954",
"kW c #393328",
"cV c #39332a",
"np c #393427",
"aB c #39342a",
"gv c #394a55",
"kT c #396d76",
"cR c #3a3327",
"cO c #3a3429",
"aw c #3a342b",
"cn c #3a3529",
"an c #3a352b",
"hn c #3b3428",
"cL c #3b3429",
"i1 c #3b3528",
"cu c #3b3529",
"kJ c #3b352a",
"au c #3c3529",
"hq c #3c352a",
"ml c #3c3628",
"kE c #3c3629",
"hl c #3c362a",
"mA c #3c372c",
"f8 c #3c828e",
"fL c #3d3629",
"cS c #3d362a",
"jj c #3d362b",
"jk c #3d372a",
"cN c #3d372b",
"lf c #3d372c",
"lj c #3d372d",
"lU c #3d8084",
"ho c #3e372a",
"ao c #3e372b",
"cW c #3e372c",
"mC c #3e382b",
"mG c #3f372a",
"aC c #3f372b",
"fN c #3f372c",
"kY c #3f382b",
"ap c #3f382c",
"aD c #3f382d",
"hP c #3f382e",
"fG c #3f392d",
"nN c #3f392e",
"nM c #3f3a2e",
"lr c #3f423a",
"la c #3f7d80",
"i0 c #40382b",
"kZ c #40382c",
"kH c #40392c",
"aE c #40392d",
"dt c #40392f",
"nF c #403a2c",
"jh c #403a2d",
"nI c #403a2e",
"fi c #403b30",
"al c #413a2d",
"aq c #413a2e",
"fH c #413a2f",
"eM c #413b2e",
"jg c #413b2f",
"#6 c #413b30",
"l7 c #413c2e",
"nd c #413c2f",
"dY c #414856",
"ak c #423a2e",
"nJ c #423b2e",
"cM c #423b2f",
"fF c #423b31",
"ji c #423c2f",
"fc c #423c30",
"#Z c #423c31",
"jm c #423d31",
"nE c #433c2f",
"cT c #433c30",
"ms c #433c31",
"mF c #433d30",
"mE c #433e32",
"jr c #434b54",
"ks c #435059",
"cm c #443d2f",
"ct c #443d30",
"kI c #443d31",
"hp c #443e31",
"cK c #443e33",
"nC c #443f32",
"my c #44545e",
"g8 c #453e30",
"aj c #453e31",
"at c #453e32",
"ha c #453f34",
"nD c #463f30",
"nL c #463f31",
"az c #463f32",
"nO c #464031",
"fI c #464032",
"nK c #473f30",
"iB c #473f31",
"l4 c #474031",
"mB c #474032",
"fK c #474033",
"kG c #474035",
"ex c #475058",
"mr c #484033",
"l0 c #484132",
"ar c #484133",
"ax c #484134",
"g# c #48545a",
"kB c #48757b",
"eL c #494133",
"fO c #494234",
"ay c #494335",
"jt c #499da0",
"nv c #4a4233",
"#O c #4a4234",
"nq c #4a4332",
"nw c #4a4333",
"as c #4a4335",
"fJ c #4a4436",
"#P c #4a4538",
"iU c #4a5762",
"fn c #4ba0a6",
"#Y c #4c4436",
"b3 c #4c4536",
"km c #4c4537",
"no c #4d4435",
"#5 c #4d4436",
"fb c #4d4537",
"bX c #4d4637",
"gB c #4d483a",
"fS c #4d585f",
"iF c #4d5962",
"nB c #4e4435",
"nm c #4e4534",
"iA c #4e4536",
"gx c #4e483b",
"b# c #4e4940",
"dZ c #4e4d4b",
"gl c #4e5a64",
"e5 c #4e5c66",
"lY c #4f4537",
"lZ c #4f4636",
"iz c #4f4637",
"eh c #4f4838",
"eF c #4f493b",
"by c #4f493c",
"eA c #4f5250",
"ez c #4f5354",
"gE c #4f5c67",
"kC c #4f5d65",
"cy c #504838",
"cv c #504839",
"cs c #504938",
"#x c #50493c",
"br c #504a3c",
"gW c #505d68",
"bW c #514838",
"ns c #514938",
"cg c #514939",
"jM c #51493c",
"nz c #514a38",
"id c #514a3c",
"#t c #514a3d",
"cY c #514e47",
"hb c #515e69",
"iZ c #524838",
"kl c #524938",
"gU c #524939",
"nx c #524a38",
"cl c #524a39",
"e7 c #524a3a",
"d4 c #524a3c",
"dL c #524b3d",
"ey c #52585a",
"nA c #534a39",
"g7 c #534a3a",
"eg c #534a3c",
"nn c #534b38",
"e8 c #534b3a",
"mn c #534c3b",
"m2 c #534c3d",
"gh c #534c3e",
"#R c #534d3a",
"mK c #534d40",
"ek c #535756",
"fE c #535f69",
"nt c #544b39",
"cp c #544b3a",
"ch c #544b3b",
"lI c #544b3c",
"#1 c #544c3a",
"l9 c #544c3b",
"gV c #544c3c",
"fe c #544d3b",
"mW c #544d3e",
"aY c #544d3f",
"mT c #544e41",
"e6 c #545446",
"dj c #545e64",
"g9 c #554b3b",
"ne c #554c39",
"#S c #554c3a",
"ff c #554c3b",
"mm c #554d3b",
"b. c #554d3f",
"mO c #554d40",
"mj c #554e3b",
"k4 c #554e41",
"mS c #555043",
"mU c #555044",
"iE c #564d3d",
"mQ c #564e3f",
"m6 c #564e41",
"mJ c #565042",
"mY c #565144",
"mw c #56646a",
"eK c #574e3c",
"ck c #574e3e",
"#4 c #57503d",
"m5 c #575043",
"co c #575142",
"mZ c #575143",
"#Q c #575242",
"el c #575d5e",
"ma c #57656d",
"#N c #584d3c",
"lL c #584e3b",
"#X c #584e3c",
"#i c #584e3d",
"cz c #584e3e",
"iw c #584f3b",
"eD c #584f3c",
"#M c #584f3d",
"h# c #584f3e",
"#V c #58513d",
"le c #585143",
"jK c #585144",
"i2 c #58523e",
"#0 c #585242",
"#7 c #585243",
"m3 c #585244",
"l8 c #58533e",
"mL c #585346",
"eN c #585c5a",
"do c #586069",
"fa c #594e3d",
"kF c #594f3e",
"nu c #59503d",
"#s c #59503e",
"mi c #59513f",
"mN c #595244",
"da c #595245",
"mR c #595345",
"fd c #595444",
"mV c #595446",
"jE c #595448",
"eJ c #5a4f3f",
"bV c #5a503d",
"b2 c #5a503e",
"d6 c #5a503f",
"gD c #5a513e",
"cj c #5a513f",
"dM c #5a5140",
"ei c #5a523d",
"lJ c #5a533e",
"hO c #5a5344",
"m0 c #5a5447",
"mM c #5a5547",
"#m c #5b513d",
"b6 c #5b513e",
"iy c #5b513f",
"iY c #5b5140",
"cx c #5b523f",
"kr c #5b5240",
"d2 c #5b5241",
"nr c #5b533e",
"eB c #5b533f",
"cr c #5b5340",
"jG c #5b5345",
"l1 c #5b543f",
"#j c #5b5444",
"cf c #5b5445",
"ds c #5b5446",
"jF c #5b5647",
"jL c #5b5649",
"#h c #5c513e",
"#r c #5c513f",
"mk c #5c5140",
"bR c #5c523d",
"#w c #5c523f",
"#W c #5c5240",
"ib c #5c5241",
"d3 c #5c5242",
"b5 c #5c533e",
"h. c #5c5340",
"lC c #5c5341",
"lB c #5c5342",
"#8 c #5c543f",
"l5 c #5c5440",
"iX c #5c5441",
"gT c #5c5445",
"kp c #5c5545",
"jq c #5c5648",
"lh c #5c5749",
"cA c #5c584e",
"dQ c #5c5e59",
"em c #5c6569",
"k7 c #5c666d",
"dR c #5c666e",
"e4 c #5c6773",
"f# c #5d5341",
"ic c #5d5342",
"lD c #5d5343",
"cq c #5d543f",
"#2 c #5d5440",
"d1 c #5d5442",
"ia c #5d5443",
"#T c #5d5540",
"i3 c #5d5541",
"mp c #5d5542",
"gd c #5d5548",
"f. c #5d5642",
"gb c #5d5646",
"gg c #5d5647",
"mX c #5d5749",
"ge c #5d574a",
"m4 c #5d5849",
"be c #5d5950",
"cw c #5e5540",
"ci c #5e5541",
"ee c #5e5542",
"ig c #5e5546",
"aX c #5e5647",
"#U c #5e5743",
"a5 c #5e5747",
"a9 c #5e5748",
"aT c #5e5849",
"aU c #5e584a",
"jI c #5e584b",
"hK c #5e594b",
"jQ c #5e6a71",
"lG c #5f5542",
"kq c #5f5641",
"e9 c #5f5642",
"nc c #5f5645",
"#3 c #5f5743",
"ej c #5f5744",
"a8 c #5f574a",
"a7 c #5f5848",
"a4 c #5f584a",
"aV c #5f594b",
"mo c #605642",
"dN c #605644",
"ef c #605645",
"lK c #605740",
"iW c #605742",
"m. c #605743",
"fg c #605843",
"a0 c #605949",
"k3 c #60594a",
"gf c #605a4c",
"jJ c #605a4d",
"di c #605d52",
"dp c #605d54",
"#g c #615542",
"l2 c #615740",
"lM c #615743",
"h9 c #615745",
"lH c #615746",
"iC c #615840",
"eC c #615841",
"gw c #615946",
"#L c #615a48",
"hu c #615a4d",
"dg c #615b4d",
"e. c #615c4f",
"dk c #616c72",
"iD c #625743",
"bU c #625843",
"#q c #625844",
"eE c #625845",
"lq c #625846",
"ko c #625943",
"kk c #625a47",
"ld c #625a4a",
"hM c #625b4d",
"aW c #625c4d",
"lg c #625c4e",
".2 c #625d4f",
"k2 c #625d50",
"k1 c #625f53",
"gR c #635943",
"n# c #635945",
"bS c #635a43",
"b0 c #635a44",
"dK c #635a4b",
"li c #635b4b",
"lk c #635c4b",
"jo c #635c4c",
"dq c #635d4e",
"a3 c #635d4f",
".X c #635e50",
"fR c #635f52",
"bF c #636057",
"ng c #645947",
"ni c #645a47",
"#v c #645b44",
"nh c #645b45",
"nf c #645b46",
"lp c #645c4d",
"hJ c #645e50",
"jp c #645f50",
"#n c #655c44",
"n. c #655c48",
"hN c #655c4d",
"bE c #655d4a",
"hQ c #655e4d",
"fQ c #655e4e",
"d# c #655e4f",
"hR c #655f50",
"hL c #656052",
"ht c #656053",
"aF c #656054",
"mx c #657075",
"kU c #657174",
"d7 c #665c48",
"dO c #665c49",
"bQ c #665d46",
"i. c #665d49",
"bx c #665d4a",
"bq c #665d4b",
"j5 c #665e4b",
"dr c #665e4e",
"aR c #665f4f",
"bY c #66604c",
"aS c #666051",
"df c #666052",
"dw c #666152",
".N c #666153",
"hs c #666255",
"mg c #667074",
"lX c #675c48",
"j8 c #675d47",
"eI c #675d4a",
"bZ c #675e48",
"#p c #675e49",
"lE c #675e4a",
"nb c #675e4b",
"d0 c #675f4b",
"gc c #676052",
"dd c #676152",
"dh c #676153",
"d. c #676255",
"b7 c #676257",
"ix c #685d49",
"b4 c #685e48",
"dP c #685e49",
"i# c #685e4a",
"#o c #685f48",
"kn c #685f49",
"#l c #685f4a",
".L c #685f4b",
"#z c #68604a",
"nl c #68604c",
"du c #686150",
"ll c #686152",
"bn c #695f4a",
"eH c #69604b",
"bw c #69604c",
"ed c #69614e",
"bs c #69624d",
"bP c #696251",
"a2 c #696253",
"a1 c #696254",
"c9 c #696558",
"lb c #697276",
"bT c #6a604a",
"b1 c #6a614b",
".M c #6a614d",
"if c #6a614e",
"hI c #6a6254",
"bz c #6a634e",
"gC c #6a6351",
"dc c #6a6352",
"hS c #6a6354",
"i5 c #6a747b",
"l3 c #6b604a",
"l6 c #6b604b",
"bt c #6b614b",
"gS c #6b614c",
"gy c #6b624c",
"d8 c #6b624d",
"nj c #6b634d",
"nk c #6b6350",
"d5 c #6b644e",
"j6 c #6b644f",
".V c #6b6451",
"de c #6b6455",
"bm c #6c624c",
"jP c #6c634d",
"gk c #6c634f",
"na c #6c6451",
"#k c #6c6551",
"#u c #6c6552",
"dv c #6c6556",
"aP c #6c675c",
"fj c #6c767e",
"bA c #6d634e",
".0 c #6d644e",
".K c #6d644f",
".S c #6d654e",
"ie c #6d6650",
"lF c #6d6651",
"#y c #6d6653",
"lz c #6d7479",
"bl c #6e644d",
"bu c #6e6653",
"eG c #6e6754",
"jO c #6f654f",
"bp c #6f6651",
"bB c #6f6654",
"bD c #6f6751",
"gz c #6f6754",
"bk c #706750",
"gj c #706851",
"gA c #706852",
".U c #706853",
"jN c #716851",
".R c #716853",
"dJ c #716857",
"hV c #716858",
"m9 c #716a58",
".5 c #726952",
"#f c #726954",
".Q c #726a53",
"ec c #726a54",
"m8 c #726d5c",
"eb c #736a53",
"lo c #736a59",
"j7 c #736b54",
"bC c #736b56",
"dx c #736f61",
"bv c #746b56",
"bo c #746c57",
"bj c #746e5b",
"gi c #746f5b",
"fm c #74aeb4",
".T c #756d59",
"d9 c #756e5a",
".1 c #756e5c",
".W c #756f5c",
".I c #75746c",
"lV c #767e7f",
"fB c #76abb2",
"bi c #77746a",
"iT c #778e8b",
"jC c #798680",
".P c #7a725c",
".Z c #7a725d",
".4 c #7b735e",
"#9 c #7b7563",
"dl c #7b878a",
"ea c #7c745f",
"ls c #7c8484",
"je c #7d7c76",
"dI c #7f7865",
"hU c #7f7866",
".u c #807366",
"dH c #807a68",
".m c #817467",
"ln c #817a67",
".J c #817b66",
"hT c #827c69",
"cE c #827c70",
"lm c #837d6a",
"ki c #838980",
"#A c #857f6c",
"iu c #859198",
"cC c #868173",
"#J c #878175",
"aI c #878274",
"bh c #87857b",
"dn c #879396",
"aJ c #888375",
"lO c #888d8f",
"mf c #888f8f",
".c c #897d6f",
".6 c #898472",
"cD c #898477",
"ae c #8a8578",
"af c #8a8579",
"ag c #8a8679",
"dB c #8a897e",
"ku c #8ab7b8",
"#I c #8b8678",
"aO c #8b867a",
".O c #8b8773",
".Y c #8c8774",
"eO c #8c9194",
"#H c #8d877a",
".3 c #8d8875",
"aM c #8d887d",
"bd c #8d8a7d",
"ew c #8d959b",
".k c #8f8677",
".s c #8f8777",
"e# c #8f8b78",
"ah c #8f8b7f",
"bc c #8f8c7f",
"dm c #8f999a",
"lt c #8f9b97",
"bf c #908e83",
"c. c #918d80",
"cF c #918e85",
"j9 c #919698",
".h c #92897a",
"aN c #928c80",
"b9 c #928d7f",
"bg c #929086",
"aH c #938e81",
"#K c #938e82",
".y c #958f82",
"#e c #959188",
"bb c #969389",
".H c #96968e",
"cb c #979284",
"bL c #979386",
"js c #979a9b",
"fl c #97b5ba",
"aK c #989589",
".G c #98988f",
".t c #998978",
"j3 c #998b81",
".i c #998e7f",
".q c #998f7f",
".w c #999182",
"#d c #999489",
"cI c #999688",
"bK c #99968c",
".r c #9a8976",
".j c #9a8977",
".l c #9a8a78",
"ad c #9a9688",
"aL c #9a978c",
".e c #9b8f7e",
".o c #9b9183",
"cJ c #9b9689",
"mb c #9b9d99",
"md c #9b9e98",
".n c #9c907e",
".f c #9c9283",
"aa c #9c9688",
"bJ c #9c998c",
"c# c #9c998f",
"cH c #9c9a8b",
".C c #9c9d95",
"#G c #9d9a8b",
".x c #9e9283",
".a c #9e998c",
"ab c #9e9a8c",
"en c #9fa3a8",
".g c #a09080",
"#c c #a09c92",
".p c #a19181",
".b c #a19282",
"a# c #a19c8d",
"bM c #a19e91",
"c0 c #a1a096",
"ba c #a1a198",
".D c #a1a29a",
"e0 c #a1eeee",
"Qt c #a29b8d",
"c2 c #a2a197",
".B c #a2a39b",
"c3 c #a3a39b",
"jR c #a3a6a3",
"g. c #a4a19f",
"#b c #a4a296",
"c8 c #a4a297",
".F c #a4a59d",
".v c #a59d8e",
"kL c #a6a6a0",
"ca c #a7a495",
"bH c #a7a598",
"c7 c #a7a59b",
"ce c #a8a495",
"#F c #a8a595",
"bI c #a8a698",
"me c #a8a9a3",
".E c #a8aaa2",
"iG c #a8aaa8",
".# c #a9a093",
"#E c #a9a697",
"c5 c #a9a79d",
"ac c #aaa799",
"#a c #aaa79b",
"c6 c #aaaa9f",
".A c #aaaca5",
"i6 c #aaacaa",
"k. c #aaafab",
".d c #ab9e8d",
"cG c #aba99b",
"k8 c #abaca6",
"kt c #acada9",
"dX c #acb4b7",
"bO c #ada99c",
"cc c #adab9c",
".9 c #adaba1",
"#D c #aeaa9c",
"#C c #aeab9e",
"c1 c #aeafa6",
"cB c #afaea5",
"dA c #afafa2",
"bN c #b0ada1",
"dz c #b0afa2",
"## c #b1aea3",
"dD c #b2b1a3",
"mc c #b2b1aa",
"lP c #b3b2ab",
"cd c #b4b2a5",
"dE c #b4b3a7",
"c4 c #b4b3a9",
"dG c #b4b4a8",
".z c #b4b7b1",
"dy c #b5b5aa",
"dF c #b7b8ad",
"#. c #b8b7ae",
"aG c #b9bab1",
"a. c #bbbcb2",
"b8 c #bcbdb5",
"dC c #bdbeb2",
"ep c #bfd7d6",
"cZ c #c0c2bb",
"#B c #c4c6bd",
".8 c #c5c7bf",
"bG c #c5c7c0",
"h7 c #c5cecf",
"fD c #c7ccd0",
"eS c #c9d0cf",
"f9 c #c9dcdf",
"g5 c #cfd5d9",
"hj c #cfd7da",
"eu c #cfe2e5",
"eP c #d1d3d5",
".7 c #d1d4ce",
"dV c #d1e4e7",
"e3 c #d3d6d9",
"hW c #d6dce1",
"dU c #d9dce1",
"fk c #dce0e1",
"gP c #dce1e3",
"ih c #dee1e4",
"gu c #e1e5e6",
"fT c #e3e8ea",
"gX c #e3ebee",
"hv c #e4eaee",
"hc c #e4ecee",
"gm c #e7edef",
"dS c #e8e9eb",
"fC c #eff6f6",
"dT c #f9f3ed",
"ev c #f9f9f9",
"eo c #faf8f8",
"e2 c #fbfbfb",
"e1 c #fcfefe",
"dW c #fffaf3",
"eR c #fffcfc",
"eQ c #ffffff",
"Qt.#.a.b.c.d.e.f.g.h.i.j.k.l.m.d.n.o.p.h.q.r.s.t.u.v.n.w.x.y.z.A.B.C.D.E.F.G.H.I",
".J.K.L.M.N.O.P.Q.R.S.T.U.V.W.X.Y.Z.Q.R.0.T.R.V.1.2.3.4.5.R.6.7.8.9#.###a#b#c#d#e",
"#f#g#h#i#j#k#l#m#n#o#p#q#r#s#t#u#l#m#v#o#p#q#w#s#x#y#z#m#v#A#B#C#D#E#F#G#H#I#J#K",
"#L#M#N#O#P#Q#R#S#T#U#V#W#X#Y#Z#0#R#1#2#3#4#W#X#5#6#7#R#1#8#9a.a#aaabacadaeafagah",
"aiajakalamanaoapaqarasatauauavawaoapalaxayazauauaAaBaCaDaEaFaGaHaIaJaKaLaMaNaOaP",
"aQaRaSaTaUaVaWaXaYaZa0a1a2a3a4aVaWa5aYa6a7a1a2a3a8aVaWa9b.b#babbbcbdbebfbgbgbhbi",
"bjbkblbmbnbobp.Lbqbrbs.Qbt.0bubvbpbwbxbybz.QbtbAbBbCbDbwbEbFbGbHbIbJbKbHbLbMbNbO",
"bPbQbRbSbnbTbUbVbWbXbYbZbRb0b1bTbUb2bWb3bYb4b5bSb1bTbUb6bWb7b8b9adc.c#cacbcccdce",
"cfcgchcicjcgckclcmcncocgcpcqcrcsckclctcucocvcpcwcxcyczclctcAcBcCcDcEcFcGcHcIcJ#E",
"cKcLaoaucMcNcOcPaucQaBcRcScScTaocLcUaucQcVcRcScScTcWcLcXcucYcZc0c1c2c3c4c5c6c7c8",
"c9d.d#dadbdcdddedfdgdhdidjdkdldmdndodpdgdhdqdrdsdtdudddvdwdxdydzdzdAdBdCdDdEdFdG",
"dHdIdJdKdLbsdMdNdOdPdQdRdSdTdUdVdWdXdYdZd0d1d2d3d4d5d6dNd7d8d9#f#u.We.e#eaebec.S",
"edeeefegeheiejekelemeneoepeqereseteuevewexeyezeAareBeCeDbUbt#peE#w#seFeGeH#m#v#o",
"eIeJeKeLeMeNeOePeQeReSeTeUeVeWereXeYeZe0e1e2e3e4e5e6e7e8e9f.#Vf#fafbfcfdfeff#2fg",
"fhaz#6fifjfkflfmfnfofpfqfrfsftfufvfwfxfyfzfAfBfCfDfEfFfGfHfIfJfKcSfLfMawfNaEalfO",
"fPfQfRfSfTfUfVfWfXfYfrfZf0f1f2f3f4f4f5fwfwf6f7f8f9g.g#dsdLgagbgcgcdggdgegfggghcP",
"gigjgkglgmfVgngofZf0frf1f1f1frgpf4f4gqfwfwfwgrgsgtgugvgwbxgxd5ebgybAgzbCgAbwbxgB",
"gCbQgDgEgmgFgGgHgIgJf0f1f1f1gKgLf4f4gMgqgNgNgNgNgOgPgQb6bWb3bY#ob5gRgSbTbUb6bW#Y",
"gTgUgVgWgXfVgYgHgZg0gKfZf0f1gKg1f4f4f4f4g2gNgNg3g4g5g6g7g8cucocgg9cwh.cgh#e8g8cu",
"haauaDhbhchdhegHhfhghhfZf1f1gKhif4f4gMf4g2gNgNgNg4hjhkcPhlhmaBhnhoaohpaphqcPhlhr",
"hshthuhbhvhwhxhyhzhAhBhChDhEfreXf4f4f4hFhGgNgNgNgshjhHhIhJhKhLhMhNhOhPhQhRhShJhK",
"hThUhVgWhWhXhYhyhZh0h1hgh2hDfrh3f4f4f4h4h5gNgNgNh6h7h8h9i.i#d0iaibicidiedMh9i.i#",
"ifeeiggEihiiijikhZiliminioipfrh3gMf4iqg3irisgNgNitiuiviwbUbtixiyiziAiB#8iCiwiDbt",
"eId6iEiFiGiHiIiJhZhZh0iKh1iLiLh3iMiNiOiPiQiQiRiSiTiUiVcpiWiXfeiYiZi0i1i2e8cpe9i3",
"i4fK#6fHi5i6i7i8i9hZhziKiKj.iLj#iMgqjajbiQjbjcjdjejfjgjhjifKazfLjjjkjljmcTjhcMfK",
"jnjojpjqjrjsjtfWjujvhZjwjxjxjyjzf4iQiQiQiQjAjBjCjDjEjFjG#xjH#0jIjJhKjKjLjFcfjMjH",
".WjNjOjPdPjQjRjSjTjUhZhZhZjVjWjXiQjYiQjZj0j1j2j3j4bCgA.Mj5gxj6j7bm.0gzbC.R.MbqgB",
"gCj8b5bSbnbTj9k.k#kakbkckdkekekfiQjYjZiskgkhkikjkkbTbUb6klkmbYknb5bSgSbTkob6klb3",
"kpe7ffkqkre7ksktkukvkwkxkekekejYiQiQkykzkAkBkCkDcxcl#scpg8kE#0e7ffcwiXclkFcpg8hl",
"kGcSkHaokIapkJkKkLkMkNkOkPkejWjYiQkQkRkSkTkUkVaoazaDjjkWcNkXanaukYkZazaDjjkWcNk0",
"k1k2k3k4k5fQa3k6k7k8k#kak9kPjWiQisl.l#lalblcldlelfjoa3gclglh.Xgflileljlkdqlllglh",
"lmlnlolpdLj6d2lqlrlsltlulvlwlxj1kRkzlylzlAlBlClDdLiekrlqlEbnd0ialClDidlFkrlqlEbn",
"iflGlHlIehlJlKlLlMlNlOlPlQlRlSlTl#lUlVlWlXiylYlZl0l1l2iwbUl3ixiyizlZl4l5l2iwlMl6",
"lEd6eKeLl7l8l9l9m.crm#mambmcmdmemfmgmhmimjmkiZi0mll8e8l9iWi3mmmkiZi0i1l8mnl9momp",
"mqmr#ZcMa6jmmsaqkIfOg8mtmumvmwmxmymzmAfOmBhoapmCmDmEkIeMmFfOfKmGapmCmHmEkIeMmFfO",
"mIggaVmJmKmLmMmNmOmPmQmRjqmSmTmUmVlek4fMmWdamXmYmZmLm0mNk4m1m2m3m4mYm5mLm0mNm6m7",
"m8m9#ln.n#nanbmpncndneiegynfngnad0mpncndneiegynhni.Vd0d1ncjgneienjnhninknld1ncjg",
"#jd2nmnn#MgDklno#OnpnqnrnsntnugDklnonvnpnwnrnsntnugDnxnonvnynwnrnznnnu#snAnBnvny",
"nCcNapnDnEnFakapnGnHnInJnFnKnLnFakapcPcQnMnJnFnDnLnFakkYcPcQnNeMnFnDnOnFakkYcPnP",
"nQnRnSnSnTnUnVnWnXnYnZn0n1n2n3nUnVnWnXn4n5n0n1n2n3n6nVnWnXn7n5n0n1nVn3n6n2nWnXn8"};
