/* XPM */
static char *dummy[]={
"40 40 648 2",
"fT c #198500",
"e6 c #1a8800",
"fd c #219002",
"fK c #238908",
"fS c #249201",
"fq c #259804",
"cL c #269400",
"cK c #269602",
"dU c #269700",
"gh c #274c25",
"cY c #279501",
"eq c #279701",
"dJ c #279a01",
"d1 c #289902",
"eH c #289b02",
"d2 c #289c02",
"dD c #299703",
"e7 c #2ba305",
"fe c #2ba405",
"fL c #2ca407",
"fr c #2da605",
"e0 c #2da706",
"fM c #2da905",
"cU c #2ea403",
"eI c #2ea706",
"fG c #2eac06",
"fn c #2f542f",
"cJ c #309b12",
"gg c #324820",
"hv c #32a67a",
"g7 c #332810",
"cA c #33a809",
"dV c #33af07",
"b8 c #34ae09",
"fW c #35451f",
"fp c #35931d",
"g5 c #362a11",
"bK c #36b707",
"eR c #36b809",
"cZ c #37b406",
"g8 c #382c13",
"g6 c #392d14",
"fO c #394921",
"d5 c #39b70a",
"e1 c #39b908",
"g4 c #3a2e14",
"er c #3bc009",
"es c #3bc00b",
"e8 c #3bc109",
"eT c #3cc10a",
"dX c #3cc20a",
"dK c #3dc209",
"d4 c #3dc30b",
"eS c #3dc50a",
"dF c #3dc60b",
"eU c #3fc60a",
"fN c #3fc808",
"dM c #40c70b",
"hx c #41300f",
"eZ c #41ab1f",
"ff c #41c809",
"eJ c #41c90b",
"dW c #41ca0a",
"e9 c #41cb0a",
"dN c #41d009",
"e2 c #42d10a",
"f. c #42d20a",
"di c #43ce0a",
"d3 c #43d30b",
"dE c #44d10a",
"dL c #45d00c",
"d6 c #45d609",
"bL c #46df03",
"fa c #475f43",
"fs c #48dd09",
"c0 c #49da0c",
"cV c #49dc0c",
"cB c #49eb05",
"gf c #4a4b23",
"eO c #4b5d45",
"dj c #4be10a",
"e3 c #4be309",
"f# c #4be50a",
"cM c #4bea05",
"g9 c #4c3914",
"fD c #4c451d",
"dY c #4ce509",
"hU c #4d3a14",
"cS c #4d6651",
"b9 c #4df105",
"cX c #4e6852",
"fR c #4ea134",
"dg c #4f6953",
"eK c #4ff307",
"en c #506750",
"dB c #506a54",
"eV c #51fc06",
"ep c #52ab35",
"c1 c #52fa06",
"dk c #52fb05",
"cH c #53674d",
"dG c #53fb06",
"he c #543e13",
"h# c #543e14",
"dO c #54f806",
"et c #54ff04",
"hq c #553e14",
"hl c #553f14",
"hc c #553f15",
"d7 c #55ff06",
"hg c #563f14",
"hn c #564015",
"gi c #566b56",
"hj c #574015",
"hh c #574016",
"ht c #574216",
"hk c #574217",
"fX c #576e58",
"cC c #57ff05",
"dZ c #57ff06",
"hb c #584015",
"hr c #584016",
"hs c #584115",
"ho c #584116",
"ha c #584216",
"dH c #58ff05",
"c# c #58ff06",
"hu c #594116",
"hi c #594217",
"hf c #594318",
"hm c #5a4217",
"hp c #5a4418",
"c2 c #5aff05",
"c. c #5aff06",
"h. c #5b4317",
"dP c #5bff04",
"cP c #5bff05",
"hz c #5c4212",
"hC c #5c4313",
"hJ c #5c4414",
"hd c #5c4418",
"fE c #5c6f5e",
"dQ c #5cff05",
"cE c #5cff06",
"hT c #5d4312",
"hO c #5d4413",
"hM c #5d4414",
"hS c #5d4415",
"hE c #5d4515",
"bq c #5d6e50",
"cD c #5dff05",
"hG c #5e4413",
"hR c #5e4515",
"eX c #5e745f",
"cN c #5eff05",
"hy c #5f4412",
"hH c #5f4513",
"hP c #5f4514",
"c3 c #5fff06",
"hN c #604412",
"hL c #604413",
"hI c #604512",
"hD c #604513",
"eQ c #60a747",
"cz c #60ac49",
"hF c #614513",
"hK c #614614",
"hA c #614715",
"cO c #61ff06",
"hQ c #624513",
"hB c #624514",
"fH c #635d28",
"by c #64775b",
"bG c #677656",
"hw c #67aa97",
"br c #687c60",
"hZ c #6a4f19",
"ia c #6b501a",
"bF c #6b744d",
"eF c #6b7e6c",
"hW c #6c5019",
"h9 c #6c511a",
"h6 c #6c511b",
"h3 c #6d5019",
"ie c #6d511b",
"h1 c #6d531c",
"id c #6e5119",
"i. c #6e511a",
"h4 c #6e521a",
"ib c #6e531c",
"i# c #6f531b",
"if c #705219",
"hV c #70521a",
"h0 c #70531a",
"h8 c #71521a",
"h5 c #71531a",
"ic c #71541a",
"h7 c #71541b",
"hX c #71551c",
"cv c #71836f",
"h2 c #72531a",
"hY c #73541b",
"bE c #73774b",
"b2 c #7b7b52",
"bx c #7d7946",
"fI c #7f857c",
"cy c #82b973",
"bs c #86947a",
"fP c #888f88",
".C c #8c6f2c",
".H c #8d712e",
".K c #8e702c",
".N c #8e702d",
".R c #8e712e",
".t c #8e722e",
".F c #8e722f",
".x c #8f702c",
".G c #8f712c",
".q c #8f712d",
".O c #8f712e",
".o c #8f722e",
".y c #8f732f",
".s c #90722e",
".Q c #90732e",
".B c #90732f",
".w c #907330",
"b3 c #90998c",
".L c #91722d",
".J c #91732e",
".v c #91742f",
".A c #917430",
"e4 c #919891",
".z c #92732e",
".D c #92742f",
".M c #927530",
".u c #937430",
".E c #937631",
".I c #947630",
".P c #947631",
".p c #947731",
".r c #947732",
".n c #957832",
"eP c #979b97",
"fJ c #979c8f",
"fc c #97bb89",
"gk c #9a7b35",
"gj c #9a7c36",
"gq c #9b7b34",
"#t c #9b7c35",
"#d c #9b7d35",
"gn c #9c7c35",
"go c #9c7c36",
"#A c #9c7d34",
"#f c #9c7d35",
"#h c #9c7d36",
"#m c #9c7d37",
"#c c #9c7e37",
"cu c #9c7f37",
"#B c #9d7c35",
"#o c #9d7d35",
"gr c #9d7d36",
"#k c #9d7e37",
"#x c #9d7f37",
"bp c #9d8843",
"fY c #9d9a99",
"cx c #9dbd97",
"#w c #9e7d35",
"gu c #9e7d37",
"#j c #9e7e35",
"#q c #9e7e36",
"gt c #9e7e37",
"#r c #9e7f38",
"#C c #9e8038",
"cn c #9f7f36",
"#y c #9f7f37",
"dv c #9f7f38",
"fy c #9f8036",
"#D c #9f8037",
"#p c #9f8038",
"#v c #9f8138",
"#i c #9f8139",
"f0 c #9f9997",
"gv c #a07f37",
"#l c #a08038",
"dn c #a08039",
"#s c #a08137",
"cb c #a08138",
"#n c #a08139",
"dl c #a0813a",
"cm c #a08238",
"#z c #a08239",
"bD c #a08841",
"ch c #a18036",
"dr c #a18038",
"fv c #a18136",
"cc c #a18137",
"#e c #a18138",
"#g c #a18139",
"dw c #a1813a",
"ft c #a18238",
"cp c #a18239",
"dq c #a1823a",
"cf c #a18339",
"dt c #a1833b",
"dA c #a1833c",
"ce c #a28137",
"dy c #a28138",
"ds c #a28139",
"cq c #a28237",
"cj c #a28238",
"#u c #a28239",
"gs c #a2823a",
"cr c #a28339",
"fA c #a28439",
"ck c #a2843a",
"fx c #a38238",
"gl c #a3823a",
"gp c #a3833b",
"eu c #a3833d",
"ca c #a3843a",
"dp c #a3843b",
"dx c #a3843c",
"ev c #a3843d",
"cl c #a3853a",
"ci c #a3863a",
"ct c #a3863c",
"bH c #a3ad9f",
"dz c #a4833b",
"cs c #a48439",
"du c #a4843a",
"dm c #a4843b",
"eE c #a4843c",
"eD c #a4843d",
"be c #a48539",
"ag c #a4853a",
"fC c #a4853b",
"do c #a4853c",
"fw c #a4863a",
"cd c #a4863b",
"cR c #a48a40",
"cG c #a48a41",
"gm c #a5843b",
"bn c #a5853a",
"eB c #a5853c",
"ew c #a5853d",
"eA c #a5853e",
"#V c #a5863a",
"fu c #a5863b",
"ba c #a5863c",
"aR c #a5863f",
"fz c #a5873b",
"cg c #a5873c",
"fB c #a5883c",
"bh c #a68539",
"ex c #a6853d",
"bb c #a68639",
"at c #a6863a",
"ez c #a6863e",
"aS c #a6863f",
"bj c #a6873a",
"b# c #a6873b",
"bf c #a6873c",
"#6 c #a6883b",
"aq c #a6883c",
"#J c #a6883d",
"eY c #a6a5a3",
"am c #a7863a",
"eC c #a7863e",
"#0 c #a7873a",
"#H c #a7873b",
"co c #a7873c",
"a3 c #a7873e",
"ey c #a7873f",
"#F c #a7883b",
"af c #a7883c",
"#9 c #a7883d",
"dR c #a7883e",
"cF c #a7893c",
"#X c #a7893d",
"bd c #a7893e",
"fo c #a79fa2",
"#P c #a8873a",
"bc c #a8873b",
"aU c #a8873f",
"a7 c #a88740",
"bl c #a8883a",
"#U c #a8883c",
"a9 c #a8883f",
"aW c #a88840",
"au c #a8893c",
"#M c #a8893d",
"aj c #a8893e",
"a5 c #a88940",
"#Y c #a88a3d",
"aa c #a88a3e",
"#S c #a88a3f",
"dS c #a88d40",
"#L c #a9883a",
"ac c #a9883b",
"aX c #a9883f",
"b. c #a98840",
"a# c #a9893b",
"a1 c #a98940",
"a8 c #a98941",
"bo c #a98a3c",
"#2 c #a98a3d",
"bv c #a98a3e",
"a0 c #a98a41",
"eN c #a98b3d",
"#T c #a98b3e",
"ae c #a98b3f",
"#R c #aa883b",
"#5 c #aa893b",
"bg c #aa893d",
"aY c #aa8940",
"a6 c #aa8941",
"bi c #aa8a3c",
"aH c #aa8a3d",
"aT c #aa8a41",
"fV c #aa8b3c",
"fU c #aa8b3d",
"ap c #aa8b3e",
"#1 c #aa8b3f",
"aZ c #aa8b42",
"bC c #aa8c3e",
"#Q c #aa8c3f",
"ad c #aa8c40",
"eM c #aa8d3f",
"cW c #aa8d40",
"eo c #aaaaa8",
"aC c #ab8a3d",
"a2 c #ab8a40",
"aV c #ab8a41",
"#Z c #ab8b3d",
"bw c #ab8b3e",
"a4 c #ab8b42",
"#3 c #ab8c3d",
"bk c #ab8c3e",
"#E c #ab8c3f",
"d9 c #ab8c40",
"aM c #ab8c41",
"ab c #ab8d3f",
"a. c #ab8d40",
"eW c #ab8e3f",
"ak c #ab8e40",
"ai c #ac8b3e",
"#N c #ac8c3e",
"aO c #ac8c3f",
"aA c #ac8c41",
"an c #ac8d3e",
"#4 c #ac8d3f",
"#K c #ac8d40",
"aJ c #ac8d41",
"el c #ac8d42",
"#O c #ac8e40",
"eL c #ac8e41",
"aF c #ac8e42",
"em c #ac8f44",
"eG c #acaca9",
"ay c #ad8c3d",
"aK c #ad8c3e",
"#G c #ad8d3e",
"e# c #ad8d3f",
"bm c #ad8e3e",
"#I c #ad8e40",
"eb c #ad8e41",
"ee c #ad8e42",
"al c #ad8f40",
"bu c #ad8f41",
"aQ c #ad9042",
"fF c #ada6a6",
"fb c #ada9a9",
"aE c #ae8d3e",
"ed c #ae8d3f",
"ar c #ae8e3e",
"#7 c #ae8e3f",
"ao c #ae8e40",
"#W c #ae8e41",
"ek c #ae8e42",
"as c #ae8f40",
"#8 c #ae8f41",
"aD c #ae8f42",
"eh c #ae8f43",
"ax c #ae9043",
"bt c #af8e3f",
"eg c #af8e40",
"aL c #af8e41",
"gL c #af8e43",
"fh c #af8e45",
"aN c #af8f40",
"az c #af8f41",
"c5 c #af8f44",
"bN c #af8f45",
"fg c #af8f46",
"cQ c #af9041",
"ei c #af9043",
"fm c #af9046",
"aB c #af9143",
"ec c #af9144",
"e5 c #afafa9",
"ah c #b09041",
"aP c #b09042",
"db c #b09044",
"fl c #b09045",
"av c #b09143",
"ef c #b09244",
"df c #b09347",
"gG c #b18e42",
"aG c #b19041",
"aw c #b19042",
"d. c #b19043",
"b0 c #b19045",
"bZ c #b19046",
"aI c #b19143",
"bM c #b19146",
"fk c #b19147",
"d8 c #b19243",
"ea c #b19244",
"gU c #b28f43",
"bP c #b29045",
"e. c #b29142",
"c6 c #b29144",
"bT c #b29145",
"bR c #b29146",
"bU c #b29147",
"ej c #b29244",
"c7 c #b29245",
"bY c #b29247",
"de c #b29346",
"gW c #b39045",
"c8 c #b39144",
"b1 c #b39145",
"bX c #b39146",
"dc c #b39246",
"fj c #b39247",
"fi c #b39248",
"ge c #b39346",
".T c #b39347",
"bS c #b39348",
"fZ c #b3aaae",
"da c #b49244",
"g1 c #b49246",
"bV c #b49247",
".1 c #b49346",
".6 c #b49347",
"bQ c #b49348",
"d# c #b49447",
"dd c #b49448",
"bW c #b49449",
"c4 c #b49547",
"fQ c #b4abaf",
"gP c #b59144",
"gx c #b59244",
"gC c #b59245",
"gA c #b59246",
".3 c #b59346",
"bO c #b59347",
".X c #b59446",
".V c #b59447",
".7 c #b59547",
".5 c #b59548",
"c9 c #b59648",
"g3 c #b69245",
"gS c #b69346",
".m c #b69447",
".f c #b69448",
".8 c #b69546",
".Z c #b69547",
".0 c #b69648",
"## c #b69649",
"gE c #b79346",
".k c #b79448",
".4 c #b79547",
".g c #b79548",
"f8 c #b79647",
"#a c #b79649",
".S c #b79749",
".Y c #b7974a",
"gJ c #b89447",
".b c #b89548",
".e c #b89549",
".i c #b89648",
".j c #b89649",
"f5 c #b89748",
".d c #b89749",
"#b c #b8974a",
".W c #b8984a",
".2 c #b8984b",
"gN c #b99548",
".h c #b99649",
"ga c #b99748",
".l c #b99749",
".U c #b99849",
"g# c #b9984a",
"#. c #b9994a",
".9 c #b9994b",
".c c #ba9749",
".a c #ba974a",
"gb c #ba994a",
"gd c #ba994b",
"f9 c #ba9a4b",
"f4 c #ba9a4c",
"gZ c #bb9748",
"gQ c #bb9849",
"f6 c #bb994a",
"f3 c #bb9b4c",
"f7 c #bb9b4d",
"g. c #bc9a4b",
"f2 c #bc9b4b",
"f1 c #bc9c4c",
"gc c #bc9c4d",
"g0 c #be9a4a",
".# c #be9a4e",
"Qt c #be9b4f",
"gw c #bf9c4b",
"gH c #c09a4a",
"gR c #c09c4d",
"gK c #c19c4c",
"gY c #c19c4d",
"gX c #c29d4c",
"gD c #c29d4e",
"gI c #c39e4f",
"gV c #c5a050",
"g2 c #c6a150",
"gB c #c7a150",
"gO c #c7a251",
"bJ c #c8d9bf",
"gy c #c9a454",
"gz c #caa351",
"gM c #caa452",
"gF c #cba554",
"gT c #cca654",
"b7 c #ccd0c9",
"b4 c #d4d7d3",
"dT c #d6e2d7",
"bB c #d9e2db",
"cw c #dce2dc",
"d0 c #dee4e0",
"cI c #e3eae3",
"dI c #e4eee5",
"dh c #e4efe3",
"dC c #e5eee4",
"bz c #e8ebe9",
"cT c #e8f0e7",
"bA c #f9ecf7",
"bI c #faf8fa",
"b6 c #fefcff",
"b5 c #ffffff",
"Qt.#.a.b.c.d.e.f.g.h.i.j.k.g.h.h.h.g.k.b.l.j.e.m.k.h.i.j.k.g.j.l.j.g.f.b.l.d.e.f",
".n.o.p.q.r.s.t.q.t.u.v.w.x.y.z.A.B.C.D.q.E.v.F.G.H.I.J.B.K.A.L.M.B.N.B.O.P.Q.R.L",
".S.T.U.V.W.X.Y.Z.0.d.1.2.3.Y.4.5.S.6.U.1.W.7.Y.8.0.i.6.9.3#..V###a.5.d.Z#b.V.Y.4",
"#c#d#e#f#g#h#i#j#k#l#m#n#o#p#q#r#p#h#s#t#u#k#v#w#x#y#m#z#A#n#B#p#C#k#D#h#n#h#p#j",
"#E#F#G#H#I#J#K#L#M#N#J#O#P#Q#R#S#T#U#G#V#W#X#K#L#Y#Z#J#O#P#O#0#1#T#2#3#F#4#J#E#5",
"#E#6#7#0#8#9a.a##X#Naaa.#0abacadaeaf#7agah#Ma.a##Yaiajak#0alam#K#T#Man#0ao#X#Q#5",
"ab#6#7#H#I#Xa.ac#Yapaa#O#0aba#ae#Qaqar#Vas#Ma.a##T#Zaj#O#0alat#Eaeau#N#F#4#X#Q#5",
"av#1awaiav#Kaxay#KazaAaBaCaDaEaFaD#1aGaHaIaJaxaK#KaLaMaB#ZavaiaDaD#EaNaOaPaAaQaE",
"aRaSaTaUaVaWaTaXaWaYaWaZaUa0aXa1aTaUa2a3a4aWaTaXa5a6a7aZaUaTaUa8a8aWaYa9aVa9a5b.",
"apb##3at#Eba#Q#0afaCbaadbb#Tbcbdaab##Zbe#Kbf#Q#P#Xbgba#Ebbabbhaabd#Ubibjbkba#Tbl",
"ab#Fbm#0as#9a.#L#XaKbdak#P#Q#R#Qaeaf#Gbnaz#Mak#L#Yai#M#O#0#O#0ab#Tbo#3#Hbpbqbrbs",
"#4#6bt#Hbu#9a.a##Ybkbv#O#P#4a##1#Qaq#7bnaz#Ma.#5#2bwaj#O#0#8am#K#1auaKbxbybzbAbB",
"abb##Gbc#O#9ad#L#Mbwajak#0bC#5ae#1aqaK#V#I#Yad#L#Y#Z#Ma.#0#O#0bDbEbFbGbHbIbJbKbL",
"bMbNbObPbQbRbSbTbUbVbRbWbP.TbXbYbQbZbOb0bQbYbSb1bYbVbMbWb0bSb2b3b4b5b6b7b8b9c.c#",
"cacbatccb#cbcdcecfbn#ncgchcicjckclcm#Vcncocpcdcqcrcs#nctcucvcwcxcyczcAcBcCcDc.cE",
"#Eaf#G#H#I#9#KblcF#N#Jak#PbC#Raeaeaf#Gbn#8#X#Kac#Ybw#9cGcHcIcJcKcLcMc#cDcNcOcOcP",
"abb##7#0#8#9a.a##Y#Naaa.#Paba#ad#1af#7bncQaja.#5#YaiajcRcScTcKcUcVcNcOcDcOcOcOcD",
"#Eb##G#H#O#9cW#L#M#Zaaa.#0#Ea#ae#1aq#G#V#I#McWac#YaH#McRcXcTcYcZc0c1c2cOcOcOcOc3",
"c4c5.Zc6.5c7c4c8c7.XbRc9d.d#dabY.Vdb.8d..5dcddc8de.1bMdfdgdhcKdic0djdkc3cNcOcOc3",
"dl#pdmdndo#ndp#edqdmdldodrdpdsdtdp#ndudvbadwdxdydqdzdldAdBdCdDdEc0dFdGdHcNcOcOc3",
"#Eaf#G#F#I#J#K#L#Y#N#J#K#PbCacae#T#U#G#V#W#X#Kac#2bw#JcWdBdIdJdKdLdMdNdOdHdPdQcD",
"#Eb##7#0#8#9a.ac#XaKaaak#Pabac#Qaeaf#7agcQbda.#5#2aidRdSdgdTdUdVdLdWdXdYdGdZdPcD",
"#4#6#7#H#I#9a.ac#Y#Zaaak#0#4a#ae#1af#7#V#8aja.a##2aHdRcRcXd0d1d2d3dWd4d5d6d7dHcD",
"d8d9e.e#eaebecedebaweeef#NaBegeheid9e.bwejekecedebaPelemeneoepeqerdWdWdXesdYetet",
"euevaUewaWexeyexezaUeAa9eBeyeCaSeyewaUeDaWezeyexezeyeAaWeEeFeGeHeIeJdWdMeseseKet",
"abaf#G#H#Iaq#Kac#Y#N#JeL#PeMac#S#1af#Gatao#X#KaceNbw#J#O#0eOePeQcLeReSdWeTeUeUeV",
"#E#F#G#0#8#9a.#L#XaKbdak#PbCac#1aeaf#Gbnaz#XeWac#Yaibd#O#0abeXeYeZe0e1dWdWdWe2e3",
"ab#6#7#0#8#Xa.a##2bkaa#O#P#4ac#Q#Qaf#7bn#8aja.#5#2#Zaj#O#0#8bje4e5e6e7e8e9f.f#f#",
"abb##Gbc#I#X#Q#L#M#Zaja.#0#Q#5ae#1bf#G#V#IaacW#L#Y#Z#Mak#0#K#0fafbfcfdfefff#f#f#",
"fgfh.6b0bSbRfibPbRfjbMbQbPfjbTfkfibZ.6flbSbUbSbTbUfjbZddb0bQb0fmfnfofpfqfrfsf#e3",
"cdftatccbfcmfucqcfat#zbffvfwfxckclftatfy#9cpfzcqfAbn#nfBfvbfccfCfDfEfFe6e7fGfse3",
"#E#F#G#H#I#9#Kbl#X#N#J#O#PbC#Rae#Taf#Gbn#8#X#4#L#Ybw#9#O#0#Oam#Q#TfHfIfJfKfLfMfN",
"abb##7#0az#9a.a##M#Nbvak#0abac#Qaeaf#7agah#Ma.#5#Yaiaj#O#0alam#K#T#FfOfPfQfRfSfT",
"abb##G#H#I#XeMac#Yapaaak#0#Eacaeaeaq#G#V#I#McWac#2fUajak#0#Oam#E#TaufVfWfXfYfZf0",
"f1c9f2.if3.Wf4f5.Wf6#bf7f8f9.c.2f9##g..gf3g#f4gag#gb.Ygcf8f3.igdf9.df6gegfggghgi",
"gjgkgl#kgmgndwgn#rglgogpgq#n#ldv#g#hdrgogmgrdqgn#rgsgogpgqgsgtdr#lgugv#kdz#h#g#B",
"gwgxgyb1gzgAgBgC.cgDgEgFgGgD.kgHgIgJgKgLgMgNgOgPgQgRgSgTgUgVgWgXgYgZg0g1gBgEg2g3",
"g4g5g6g7g8g9h.h#hahbhchdhehfhghhhihjhkhlhmhnh.hlhohbhchdhehphqhrhihshthghuhch.hq",
"hvhvhwhwhvhxhyhzhAhBhChDhyhEhFhGhHhIhJhKhLhMhNhOhPhQhOhyhyhRhFhGhHhIhShDhFhMhyhT",
"hvhvhwhwhvhUhVhWhXhYhZh0hVh1h2h3h4h5h6h7h8h9h8i.i#hYiahVhVibicidh4h5ieh5h2iaifh4"};
