/* XPM */
static char *dummy[]={
"40 40 594 2",
"ev c #201e3a",
"eg c #22203c",
"dZ c #232037",
"dU c #24223e",
"dQ c #272641",
"dN c #282641",
"e9 c #292640",
"eU c #292843",
"eB c #2a2633",
"ex c #2a2842",
"e3 c #2b2944",
"e5 c #2e2c44",
"fc c #2f2a39",
"dx c #312f48",
"g3 c #32a67a",
"gI c #342810",
"gK c #352911",
"es c #36344a",
"dg c #38354c",
"gJ c #3a2d14",
"gH c #3b2e14",
"dc c #3c394e",
"c8 c #3d3a4f",
"fb c #484559",
"g1 c #49340e",
"gG c #4d3913",
"dY c #4f4b5d",
"bY c #524650",
"eA c #525060",
"hp c #543d13",
"gy c #543e14",
"gF c #543f15",
"gq c #553e13",
"gC c #553e14",
"gv c #553f14",
"go c #553f15",
"gs c #563f14",
"gz c #564015",
"c4 c #564f54",
"cn c #565162",
"gu c #574015",
"gE c #574116",
"gn c #584015",
"gt c #584116",
"gm c #584217",
"cJ c #585465",
"gD c #594116",
"gB c #594317",
"gr c #594318",
"b6 c #594f52",
"gw c #5a4216",
"gA c #5b4318",
"gp c #5b4418",
"gQ c #5c4415",
"gx c #5c4418",
"g0 c #5d4313",
"gN c #5d4413",
"gU c #5d4414",
"gY c #5d4514",
"gO c #5e4312",
"gS c #5e4413",
"gX c #5f4412",
"gR c #5f4413",
"gV c #5f4513",
"gL c #5f4615",
"gT c #604512",
"gP c #604513",
"gZ c #604514",
"gW c #614513",
"gM c #624513",
"fa c #666571",
"eG c #666671",
"bN c #675e61",
"cm c #67616f",
"e8 c #676671",
"g2 c #67aa97",
"eT c #6a6973",
"hd c #6b501a",
"hk c #6c5019",
"g6 c #6c501a",
"ho c #6c511a",
"hj c #6c521b",
"h# c #6d511a",
"ha c #6d521b",
"g9 c #6d521c",
"b7 c #6d6055",
"hi c #6e5119",
"hl c #6e521b",
"hg c #6e531b",
"h. c #6f511a",
"g7 c #6f5219",
"hf c #6f531b",
"g4 c #6f531c",
"e2 c #6f6e77",
"hm c #705219",
"he c #70521a",
"hb c #70531a",
"g8 c #71531a",
"hn c #71541b",
"hc c #72541b",
"g5 c #73541a",
"hh c #73541b",
"bZ c #745f40",
"e4 c #76777d",
"b8 c #776854",
"ef c #797c77",
"cG c #797ea6",
"dX c #797f8a",
"er c #7b8285",
"b9 c #7c6c52",
"ew c #818884",
"dT c #888694",
".P c #896c2a",
"e7 c #898a8e",
".s c #8a6d2b",
".H c #8d702d",
".L c #8d712e",
".C c #8e702c",
".J c #8e702d",
".O c #8e702e",
".u c #8e712d",
".N c #8e712e",
".k c #8e722e",
".y c #8f702c",
".Q c #8f712e",
".z c #8f722f",
".p c #8f732f",
"bM c #8f8b8f",
".o c #90702c",
".E c #90722d",
".w c #90722e",
".G c #90732e",
".n c #90732f",
".x c #907330",
".D c #907430",
".q c #91722e",
".I c #91732e",
".m c #91732f",
".B c #91742f",
".M c #92732f",
".A c #92742f",
".l c #93742f",
".F c #937531",
".r c #937631",
"b5 c #938f96",
".t c #947630",
".v c #957731",
"eu c #959886",
".K c #967731",
"bL c #969295",
"fN c #977833",
"ey c #977c37",
"bO c #988045",
"#F c #997a34",
"fM c #9a7b35",
"#G c #9a7c35",
"#D c #9a7c36",
"fI c #9b7a34",
"#z c #9b7c35",
"fF c #9b7c36",
"#n c #9b7d35",
"#l c #9b7d36",
"fB c #9c7b34",
"fJ c #9c7c35",
"fz c #9c7c36",
"#v c #9c7d35",
"#p c #9c7d36",
"#f c #9c7d37",
"#s c #9c7e37",
"cK c #9c7e38",
"#q c #9d7c34",
"#h c #9d7d35",
"#j c #9d7d36",
"dM c #9d7d37",
"fK c #9d7e37",
"#d c #9d7f37",
"cZ c #9d7f38",
"#B c #9e7d35",
"c1 c #9e7e35",
"#C c #9e7e36",
"#x c #9e7e37",
"#k c #9e7f37",
"#w c #9e7f38",
"dL c #9e7f39",
"eq c #9e7f3a",
"co c #9e834c",
"#r c #9f7f37",
"fE c #9f7f38",
"cV c #9f8037",
"#i c #9f8038",
"eW c #9f8137",
"e0 c #9f8138",
"#t c #9f8139",
"c. c #9f823c",
"#e c #a07f37",
"#y c #a08037",
"dG c #a08038",
"#u c #a08138",
"#g c #a08139",
"dz c #a0813a",
"cP c #a08239",
"cM c #a18035",
"cS c #a18037",
"fL c #a18039",
"eZ c #a18136",
"cR c #a18137",
"dE c #a18138",
"fC c #a18139",
"dC c #a1813a",
"#o c #a18239",
"dI c #a1823a",
"br c #a1823c",
"c9 c #a1843c",
"#m c #a28138",
"fD c #a28139",
"cY c #a28238",
"#A c #a28239",
"fy c #a2823a",
"ep c #a2823b",
"cU c #a28339",
"#E c #a2833a",
"eV c #a2843a",
"bJ c #a2843c",
"cX c #a38237",
"dB c #a3823a",
"e1 c #a38338",
"cO c #a38339",
"dJ c #a3833a",
"fA c #a3833b",
"dH c #a3843b",
"cN c #a3853a",
"cT c #a3853b",
"eC c #a3863a",
"cW c #a3863b",
"et c #a3863c",
"aa c #a3863d",
"c3 c #a3a4a0",
"e6 c #a3a8a3",
"bK c #a48439",
"fH c #a4843b",
"en c #a4843d",
"bG c #a4853a",
"dF c #a4853b",
"dD c #a4853c",
"bx c #a4863a",
"cQ c #a4863b",
"bs c #a4863c",
"f. c #a4873b",
"eY c #a4873c",
"bU c #a4873d",
"fG c #a5843b",
"bq c #a5843d",
"dS c #a58539",
"d# c #a5853a",
"dy c #a5853c",
"ek c #a5853d",
"eh c #a5853e",
"ay c #a58639",
"al c #a5863a",
"bv c #a5863b",
"dA c #a5863c",
"#6 c #a5873b",
"bP c #a5873c",
"#8 c #a5873d",
"aE c #a5883d",
"dW c #a5883e",
"ci c #a5b3df",
"bD c #a6853a",
"dK c #a6853c",
"eo c #a6853d",
"em c #a6853e",
"bz c #a68638",
"ad c #a6863a",
"b0 c #a6863b",
"#S c #a6873b",
"cL c #a6873c",
"dO c #a6873d",
"ei c #a6873e",
"#Q c #a6883c",
"#J c #a6883d",
"#Y c #a6893e",
"#2 c #a7863a",
"ej c #a7863e",
"bo c #a7863f",
"bt c #a78739",
"aC c #a7873a",
"ai c #a7873b",
"el c #a7873e",
"bf c #a7873f",
"aG c #a7883a",
"eX c #a7883c",
"d. c #a7883d",
"bd c #a7883f",
"a7 c #a78840",
"c0 c #a7893c",
"an c #a7893d",
"c5 c #a7893e",
"cc c #a8863a",
"#V c #a88739",
"#N c #a8873a",
"bI c #a8873b",
"b# c #a8873f",
"a9 c #a88740",
"ac c #a8883a",
"aD c #a8883b",
"bE c #a8883c",
"bk c #a8883f",
"bg c #a88840",
"dV c #a8893c",
"as c #a8893d",
"ah c #a8893e",
"af c #a88a3d",
"#P c #a88a3e",
"bh c #a9873f",
"#L c #a9883a",
"#0 c #a9883b",
"bA c #a9883c",
"bm c #a9883f",
"bi c #a98840",
"ce c #a9893b",
"a# c #a9893c",
"bc c #a98940",
"bn c #a98941",
"#4 c #a98a3d",
"aB c #a98a3e",
"bl c #a98a41",
"#H c #a98b3e",
"bB c #a98b3f",
"a4 c #a98b40",
"bu c #a98c3e",
"bH c #a98c3f",
"a. c #aa893b",
"aw c #aa893c",
"a8 c #aa8940",
"bb c #aa8941",
"bF c #aa8a3c",
"#X c #aa8a3d",
"aO c #aa8a3e",
"ba c #aa8a41",
"ap c #aa8b3e",
"#W c #aa8c3e",
"#3 c #aa8c3f",
"de c #aa8c40",
"e# c #aa8c41",
"av c #aa8d3f",
"#Z c #aa8d40",
"fd c #aa8d45",
"aq c #ab8a3c",
"aW c #ab8a3d",
"be c #ab8a41",
"#5 c #ab8b3d",
"b. c #ab8b42",
"bC c #ab8c3e",
"#O c #ab8c3f",
"aQ c #ab8c40",
"#M c #ab8d3f",
"#9 c #ab8d40",
"aI c #ab8d41",
"aS c #ac8a3d",
"#I c #ac8b3d",
"ag c #ac8b3e",
"ec c #ac8b3f",
"bj c #ac8b41",
"bS c #ac8c3d",
"dR c #ac8c3e",
"bp c #ac8c42",
"by c #ac8d3f",
"aj c #ac8d40",
"aU c #ac8d41",
"#1 c #ac8e3f",
"#K c #ac8e40",
"cb c #ac8e41",
"dd c #ac8f41",
"bX c #acacb4",
"d2 c #ad8b3e",
"at c #ad8c3e",
"d6 c #ad8c3f",
"bw c #ad8d3e",
"a3 c #ad8d3f",
"aT c #ad8d40",
"d8 c #ad8d41",
"eS c #ad8d44",
"ca c #ad8e3f",
"ar c #ad8e40",
"d7 c #ad8e41",
"aM c #ad8e42",
"ax c #ad8f40",
"ao c #ad8f41",
"aY c #ad8f42",
"bR c #ad9041",
"c# c #ae8d3e",
"cF c #ae8d44",
"eD c #ae8e3e",
"cd c #ae8e3f",
"#T c #ae8e40",
"b1 c #ae8f40",
"eE c #ae8f41",
"a2 c #ae8f42",
"eH c #ae8f45",
"aF c #ae9040",
"#U c #ae9041",
"aK c #ae9042",
"a1 c #ae9043",
"e. c #af8d40",
"#R c #af8e3e",
"bQ c #af8e3f",
"#7 c #af8e40",
"d4 c #af8e41",
"aA c #af8f3f",
"aZ c #af8f40",
"am c #af8f41",
"aL c #af8f42",
"eR c #af8f45",
"ab c #af9041",
"d3 c #af9042",
"du c #af9045",
"eP c #af9046",
"aX c #af9142",
"aV c #af9143",
"d9 c #af9144",
"cE c #b08e44",
"ak c #b08f3f",
"bT c #b08f40",
"au c #b09040",
"ae c #b09041",
"cC c #b09046",
"f# c #b09141",
"aJ c #b09143",
"aR c #b09244",
"f2 c #b18e42",
"dn c #b19043",
"dr c #b19044",
"cv c #b19045",
"cp c #b19046",
"aH c #b19141",
"aP c #b19142",
"eb c #b19143",
"eJ c #b19146",
"eL c #b19147",
"az c #b19241",
"d5 c #b19243",
"dq c #b19245",
"di c #b19246",
"d1 c #b19345",
"fS c #b28f43",
"dk c #b29043",
".j c #b29044",
"ct c #b29045",
"eO c #b29046",
"aN c #b29141",
"a0 c #b29142",
"do c #b29144",
"fY c #b29145",
"cz c #b29146",
"cr c #b29147",
"da c #b29241",
"d0 c #b29243",
"#b c #b29246",
"eK c #b29247",
"a5 c #b29344",
"gk c #b38f44",
"gg c #b39043",
"dt c #b39144",
"f9 c #b39145",
"cB c #b39146",
"dm c #b39245",
"cu c #b39246",
"eM c #b39247",
"cx c #b39248",
"a6 c #b39343",
".Y c #b39347",
"cA c #b39348",
"ea c #b39445",
"dl c #b39446",
"dp c #b39447",
"f7 c #b49044",
"gi c #b49144",
".i c #b49246",
"eN c #b49247",
".2 c #b49346",
".T c #b49347",
"cq c #b49348",
"ed c #b49444",
".0 c #b49447",
"cw c #b49448",
"cs c #b49449",
"ds c #b49547",
"ge c #b59245",
"gc c #b59246",
".4 c #b59346",
"eI c #b59347",
"cy c #b59348",
".5 c #b59447",
"eQ c #b59448",
"dh c #b59547",
".8 c #b59548",
"fv c #b5954a",
"dj c #b59649",
"f0 c #b69346",
".V c #b69446",
".f c #b69447",
".h c #b69448",
"#a c #b69547",
"cD c #b69549",
".R c #b69648",
"fQ c #b79346",
".b c #b79448",
"## c #b79547",
"Qt c #b79548",
"fo c #b79647",
".S c #b79648",
".X c #b79649",
".7 c #b79749",
"#. c #b7974a",
".W c #b7984a",
"fW c #b89447",
"fl c #b89547",
".g c #b89548",
".e c #b89549",
"fe c #b89647",
".c c #b89648",
".a c #b89649",
"dv c #b89748",
".9 c #b89749",
"fj c #b8974a",
".6 c #b8984a",
"f5 c #b99547",
".# c #b99649",
"ft c #b99748",
"fu c #b99749",
"fm c #b99849",
".1 c #b9984a",
".U c #b9994a",
".3 c #b9994b",
"fq c #b99a4c",
".d c #ba9749",
"fg c #ba994b",
"ff c #ba9a4b",
"fs c #ba9a4c",
"gf c #bb974a",
"fO c #bb984a",
".Z c #bb9949",
"fr c #bb994a",
"#c c #bb9a4b",
"fp c #bb9b4b",
"fn c #bb9b4c",
"g# c #bc984a",
"fx c #bc9b4b",
"fi c #bc9b4c",
"fk c #bc9c4d",
"ga c #bd9849",
"f4 c #bd994b",
"fh c #bd9b4b",
"f3 c #be9a4b",
"fw c #be9d4d",
"fV c #bf9a4c",
"fP c #bf9b4c",
"g. c #c09b4d",
"fX c #c29d4c",
"f8 c #c39e4e",
"fT c #c39f4e",
"fU c #c49e4d",
"dP c #c5c6cd",
"gd c #c8a251",
"f6 c #c8a352",
"fZ c #c9a351",
"gb c #c9a352",
"cI c #c9c7ce",
"gj c #caa351",
"c2 c #cacbda",
"fR c #cba553",
"f1 c #cca654",
"gh c #cfa856",
"dw c #cfcfd7",
"gl c #d0a955",
"b3 c #d0d2e1",
"df c #d1d0d7",
"bV c #d2d3e2",
"cl c #d7d5d7",
"db c #dcdce1",
"c7 c #e1e1e5",
"ee c #e5e5e5",
"c6 c #e6e6e6",
"cg c #e7e7e7",
"b2 c #e8e8e8",
"cf c #e9e9e9",
"eF c #eaeaea",
"ch c #ebebeb",
"ez c #ececec",
"cH c #f0f1f5",
"b4 c #f9f9f9",
"ck c #fbfbfb",
"bW c #fbfff5",
"cj c #fcfcfe",
"Qt.#.a.a.b.b.c.#.#.b.bQt.d.a.e.fQt.#.c.#.bQt.e.#.#Qt.b.g.d.a.e.hQt.#.c.#.b.i.j.j",
".k.l.m.n.o.p.q.r.n.s.t.u.v.w.x.y.z.A.B.p.C.D.E.F.G.H.I.J.K.m.L.E.p.M.N.r.C.O.P.Q",
".R.S.T.U.V.W.f.X.R.Y.Z.0.1.2.3.4.XQt.5.6.4.6.5.7.R.8.9.0.1.2#.##.7#a#b#c.4.1.2.R",
"#d#e#f#g#h#i#j#i#k#l#m#n#o#p#o#q#k#r#s#t#h#u#v#i#w#x#y#z#A#p#i#B#i#C#D#E#h#u#F#G",
"#H#I#J#K#L#M#N#O#P#Q#R#S#T#J#U#V#W#X#Y#Z#0#1#2#3#P#4#5#6#7#8#9a.#3a#aaabac#1adae",
"afagah#Kac#1aiaj#P#6akalamanao#Napaq#P#Zacaradaj#Hasatalau#Java.#Waw#8#U#Naxayaz",
"#H#Xah#Kac#9aiaj#P#6aA#S#Tanao#N#Wa#aB#9aCarad#9#Hafat#6#Tan#Za.#OaDaEaFaGaralaH",
"aj#7aIaJ#IaKagaLaM#PaNaOaPaQaRaSaoaTaUaVaWaXagaKaYajaZapa0aQa1ata2a3a4a5#5aX#Xa6",
"a7a8a9b.b#bab#bbbcbdbebfbebgb.bhbcbcbgbab#bab#bbbcbia8bfbjbkblbmbnbmbobpb#bebqbr",
"an#Xbs#9btbuadaBanbvbwbxbybs#Kbz#4bA#8bB#2bCbDaBanbEbFbGa3bsbHac#HbIbJax#2bCbKa3",
"bLbMbNbO#L#MbIaj#PbPbQalaZ#JbR#V#Haq#P#9ac#1#2aj#HafbSalbT#Java.#Wa#bU#U#NarayaH",
"bVbWbXbYbZ#Kaiaj#H#6akb0aZanao#N#WawaB#9aCb1adaj#HafatbvaZan#Za.#Ma##8abaCb1alaH",
"b2b2b3b4b5b6b7b8b9c.c#b0caancbcc#Ha##P#ZaC#MaC#MaBan#5#6cdanbHa.#WceaEb1aCbyadae",
"cfcgcgchcicjckclcmcncocpcqcrcsct.Ycucrcscvcwctcxcxcr.TcpcyczcAcB.YczcCcDctcwcEcF",
"cfcgcgcgcgcgcfcGcHcIcJcKcL#t#QcMcNcOcPcQcRbvcScT#EcUbKcVbI#tcWcXbGcYcZc0cR#6c1bG",
"b2cgcgcgcgcgcgcgchc2c3c4a3#Jao#V#H#Xc5#9aD#1#2#OaB#4#IbvaZ#J#Ma.#Wa#aaabac#1alae",
"cgcgcgcgcgcgcgcgc6cgc7c8c9d.ao#N#W#XaB#9aGaxadajaBasbwalae#J#Za.#Oa#aEabaGb1d#da",
"cgcgcgcgcgcgcgcgcgc6dbdccaandd#Napa#aB#9aCbyaC#9#Pas#I#6cdandea.#3aDaEb1aC#1adae",
"cgcgcgcgcgcgcgcgcgc6dfdgdhdidjdkdldm#b.8dndhdodp.0dq.4dr#adidsdt.0dmdudvdndhdn.2",
"cgcgcgcgcgcgcgcgcgc6dwdxdydzdAcS#EdBdCdDdEdFdGdH#EdIdJ#idK#gdH#mdH#AdLcLdEdFdM#w",
"cgcgcgcgcgc6cgcgcgc6dwdN#T#J#U#V#W#Xc5#9#0#1#2#3#P#4#I#6#7dO#9a.#3a#aaabac#1adae",
"cgcgcgcgcgcgcgcgcgc6dPdQam#Jao#Napaq#P#Zacca#2ajaBasdRalau#Java.#3awaE#UaCardSaz",
"cgcgcgc6cgcgcgcgcgc6dTdUaranao#N#Wa#aB#9aCarad#9#HafdR#6#Tanava.#MdVdWabaGaralaH",
"cgcgcgcgcgb2b2cgcgdXdYdZd0cbd1d2d3d4aYaRdRd5d6aJa1d7ae#Oa6d8d9e.d3#Te#eadRebeced",
"cgcgcgcgcgb2cgcgeeefegbrbmehbgdKeiejehbkekbkekbfelemelenbiehbfeobfejenbcekbkepeq",
"cgcgb2b2b2b2c6c6eres#X#S#T#J#U#V#W#Xc5#9#0caai#3#P#4#I#6#7dO#9a.#Oa#etabaDcaadae",
"b2b2b2b2b2cgc6eeeuev#RalaZ#JbR#V#H#Xc5#9aD#1#2#9aBafbSalbT#Java.#Wa#bU#UaccaayaH",
"b2b2b2b2cgc6eeewexeyak#6aZd.aoac#WbFaB#KaCb1adajaBafatbvaZd.avaw#Ma##8abaGb1alaH",
"b2b2b2cgc6c6ezeAeBeCeD#Scaandd#V#Ha#aB#9aCbyaCaQaBan#5#6cdanbHa.#WceaEeEaCbyadau",
"b2b2cgc6c6eFeGegeHcCeIcv.TeJcwcteKczeLcqcvcqcveKeMczeNcvcqeOcAcBeMczePeQcvcqeReS",
"b2cgc6c6cheTeUcNeVeWaCeWeX#tancMcNbK#oeYeZ#ScRcQeVcUdScVbEe0cQcXdFe1cZafcR#6c1al",
"c6c6c6eFe2e3bDaQ#PcL#Ral#T#J#U#V#HbFc5#9aD#1aC#OaB#4#5alaZdO#9a.#Wa#aa#UaD#1adae",
"c6c6che4e5#MaiaT#P#6akalamd.ao#Nap#XaB#9aCaxadajaBasbwalaud.#3a.#Oaw#8#UaCb1d#da",
"e6e7e8e9e1#Mai#O#Pf.bQ#Scaandd#Vapa#aB#9aC#1aC#9#Paf#I#6cdan#3a.#3aDaEb1aC#Kalf#",
"fafbfcfdfeffdvfg.3djfh.Sfifjfkfl.Ufm.6fnfofp.cfqfg.Wfr.Sfifjfsftfffufvfwfofn##fx",
"#ifyfzfAfBfC#xfDfEfF#m#pfGfzfHfIdGfC#jfyfJfCfKfDfE#x#e#ffGfJdI#h#gfLfMdy#z#AfN#z",
"fOfPfQfRfSfT.ifUfVfWfXfYfZf0f1f2f3f4f5f6f7f8f9fUg.g#gafYgbgcgdgefPgfggghgigjgkgl",
"gmgngogpgqgrgsgtgtgugmgvgwgogxgygmgugzgAgqgBgCgDgEgDgEgvgwgFgpgvgmgugGgHgIgJgKgJ",
"gLgMgNgOgPgQgPgRgSgTgUgVgWgUgXgRgYgWgSgOgTgUgPgZg0gTgUgVgMgUgXgPgUgWg1g2g3g3g3g3",
"g4g5g6g7g8g9g8h.h#g8hahbhchdhehfhghhg6hig8hjg8hbhkg8hlhbhchdhmhnhohhhpg2g3g3g3g3"};
