/* XPM */
static char *dummy[]={
"50 50 255 2",
"Qt c None",
".# c #000000",
".x c #010101",
"b0 c #040404",
".i c #0b0b0b",
"b7 c #111111",
"b8 c #1a1a1a",
"b1 c #1f1f1f",
"#y c #2e0000",
"#x c #300200",
"be c #310400",
"#6 c #330505",
"ao c #350707",
"#F c #350800",
"aK c #370a00",
"#G c #380c00",
"b3 c #393939",
"br c #3f1401",
"#2 c #411600",
"#L c #441a00",
"#M c #461c00",
"bv c #461d1a",
"bm c #471a1a",
"#8 c #481e00",
"a9 c #492000",
"#X c #4b2200",
"bM c #4b2310",
"#Y c #512902",
"bJ c #522b13",
"aq c #572929",
"bu c #573100",
"a8 c #593300",
"ar c #5b2d2d",
"ae c #5e3030",
"#w c #5f3b00",
"ad c #633f00",
"ap c #663838",
"bd c #664200",
"aW c #684500",
"ag c #6a4700",
"b6 c #6a6a6a",
"aA c #744646",
"#S c #775700",
"aB c #794b4b",
"az c #7a5a00",
"#1 c #7f5151",
"#T c #816210",
"aJ c #836500",
"aL c #856700",
"bk c #876900",
"af c #8c5e5e",
"aV c #8c6f00",
"b4 c #959595",
"bw c #977f41",
"#7 c #9b6d6d",
"#E c #a08800",
"bC c #a18b46",
"#o c #a28a00",
"an c #a48c00",
"bl c #a67878",
"#H c #a68f0b",
"at c #a89103",
"#v c #ab9400",
"#z c #ac9600",
"bt c #b09a00",
"bx c #b19c00",
"aU c #b5a000",
"a7 c #b5a00e",
"#n c #b6a200",
"by c #b6a20b",
"bj c #b8a426",
"as c #b98b8b",
"#K c #baa600",
"b5 c #bdbdbd",
"bD c #beaf79",
".c c #bfac00",
".d c #bfac01",
".a c #c0ad03",
".n c #c0ad04",
"#D c #c0ae05",
"bN c #c0ae3f",
"#f c #c1ae07",
"aS c #c1af08",
"#R c #c2af0a",
"#u c #c2b00b",
".q c #c2b00c",
".H c #c3b10f",
"a6 c #c3b110",
".y c #c3b211",
"#V c #c4b213",
".F c #c4b315",
".V c #c5b316",
".f c #c5b418",
".8 c #c5b41a",
"bR c #c5b52e",
".O c #c6b51b",
"#p c #c6b61d",
"#s c #c7b51d",
"ac c #c7b61f",
"aG c #c7b620",
".z c #c7b722",
"bS c #c7b728",
"#g c #c8b721",
"aC c #c8b723",
".r c #c8b823",
".b c #c8b824",
"bq c #c8b95a",
"aM c #c9b927",
".G c #c9b928",
"#B c #c9b92a",
".3 c #c9ba29",
"aR c #caba2b",
"aI c #caba2c",
".I c #cabb2e",
".m c #cbbb2f",
".P c #cbbb30",
"#N c #cbbb3d",
"#m c #cbbc31",
"am c #ccbc30",
".A c #ccbc32",
"bz c #ccbd35",
"au c #cdbe35",
".W c #cdbe37",
".M c #cdbf39",
".h c #cebe37",
"#C c #cebf3a",
".s c #cebf3c",
"bf c #cec03d",
".l c #cfc13f",
".1 c #cfc140",
".N c #d0c140",
".e c #d0c142",
"bL c #d0c243",
".E c #d0c245",
".w c #d1c346",
"#h c #d1c348",
"#U c #d1c448",
"bV c #d1c44a",
"bn c #d2c44b",
"#t c #d2c54c",
"#l c #d3c54f",
"bF c #d3c650",
"#. c #d4c651",
"#9 c #d4c752",
".2 c #d4c754",
"aT c #d4c852",
"#O c #d5c857",
"#3 c #d5c959",
"bO c #d6c95a",
".0 c #d6ca5b",
"aF c #d6ca5d",
"bh c #d7cb60",
"bg c #d7cc62",
".9 c #d8cb61",
"bI c #d8ce8d",
"#k c #d9cd65",
"bU c #d9ce67",
"aH c #dacf6a",
".g c #dacf6d",
"bK c #dad07d",
".k c #dbd06e",
"ay c #dbd070",
"ax c #dcd173",
".T c #ddd275",
".U c #ddd377",
"bW c #ddd379",
"#4 c #ddd37a",
"a. c #ded379",
".v c #ded479",
"bc c #dfd57f",
"#e c #dfd781",
".4 c #e0d784",
"bT c #e1d886",
"ah c #e1d889",
"#Z c #e1d98a",
"aQ c #e2d989",
"bY c #e2d98b",
"#I c #e3da8c",
"a5 c #e3da8e",
"bi c #e3da90",
"bG c #e4db91",
".6 c #e4dc94",
"#i c #e4de97",
"#d c #e5dd97",
".j c #e5dd98",
"bs c #e6de99",
"#Q c #e6de9a",
"#A c #e6df9d",
"bX c #e7df9e",
"bH c #e7e09f",
"## c #e7e0a1",
"a1 c #e7e1a3",
"bZ c #e8e0a1",
".Q c #e8e1a3",
".X c #e8e1a5",
"#b c #e8e2a5",
"#c c #e9e2a7",
"bQ c #e9e3a9",
"al c #eae2a7",
"bE c #eae3a9",
"bo c #eae3ab",
"#a c #eae4ab",
".D c #eae4ad",
"bB c #ebe3ac",
".Y c #ebe5af",
".J c #ebe7b2",
"#P c #ece5b1",
".7 c #ece6b3",
"a3 c #ece7b5",
"ai c #ede7b6",
"a4 c #ede7b8",
"aD c #ede8b7",
".S c #ede8b9",
"aX c #ede8ba",
".p c #eee9ba",
"#j c #eee9bc",
".5 c #eeeabd",
"aa c #efebbf",
"b2 c #efebc1",
".Z c #efebc2",
".B c #f0ebc1",
"#r c #f0ebc3",
"ab c #f0ecc3",
".L c #f0ecc4",
"#W c #f1ecc6",
"b. c #f1ecc8",
"bb c #f1eeca",
"aE c #f2eec9",
".o c #f2eecb",
"#q c #f3efcf",
"#0 c #f3efd0",
".t c #f3f0cd",
".u c #f3f0d1",
"b# c #f4f1d3",
".R c #f4f1d5",
"ba c #f4f2d4",
"aP c #f5f1d6",
"aw c #f5f2d7",
"ak c #f5f3d9",
".K c #f5f3da",
"aY c #f6f3d9",
"#J c #f6f3db",
".C c #f6f4dd",
"#5 c #f7f5e1",
"bP c #f8f5e1",
"aN c #f8f6e3",
"a# c #f9f6e5",
"av c #f9f7e7",
"bp c #f9f7e8",
"aj c #f9f8e9",
"aZ c #f9f9ea",
"a2 c #faf7e8",
"aO c #faf8e9",
"a0 c #faf8eb",
"bA c #faf9ed",
"QtQtQtQtQtQtQtQtQtQtQtQtQtQtQtQtQtQtQtQtQtQtQtQt.#.#QtQtQtQtQtQtQtQtQtQtQtQtQtQtQtQtQtQtQtQtQtQtQtQt",
"QtQtQtQtQtQtQtQtQtQtQtQtQtQtQtQtQtQtQtQtQtQtQt.#.#.#.#QtQtQtQtQtQtQtQtQtQtQtQtQtQtQtQtQtQtQtQtQtQtQt",
"QtQtQtQtQtQtQtQtQtQtQtQtQtQtQtQtQtQtQtQtQtQtQt.#.#.#.#QtQtQtQtQtQtQtQtQtQtQtQtQtQtQtQtQtQtQtQtQtQtQt",
"QtQtQtQtQtQtQtQtQtQtQtQtQtQtQtQtQtQtQtQtQtQtQt.#.#.#.#QtQtQtQtQtQtQtQtQtQtQtQtQtQtQtQtQtQtQtQtQtQtQt",
"QtQtQtQtQtQtQtQtQtQtQtQtQtQtQtQtQtQtQtQtQtQt.#.#.a.b.#.#QtQtQtQtQtQtQtQtQtQtQtQtQtQtQtQtQtQtQtQtQtQt",
"QtQtQtQtQtQtQtQtQtQtQtQtQtQtQtQtQtQtQtQtQtQt.#.c.d.e.f.#QtQtQtQtQtQtQtQtQtQtQtQtQtQtQtQtQtQtQtQtQtQt",
"QtQtQtQtQtQtQtQtQtQtQtQtQtQtQtQtQtQtQtQtQt.#.#.c.c.g.h.i.#QtQtQtQtQtQtQtQtQtQtQtQtQtQtQtQtQtQtQtQtQt",
"QtQtQtQtQtQtQtQtQtQtQtQtQtQtQtQtQtQtQtQt.#.#.c.c.c.j.k.l.#.#QtQtQtQtQtQtQtQtQtQtQtQtQtQtQtQtQtQtQtQt",
"QtQtQtQtQtQtQtQtQtQtQtQtQtQtQtQtQtQtQt.#.#.c.c.m.n.o.p.k.q.#.#QtQtQtQtQtQtQtQtQtQtQtQtQtQtQtQtQtQtQt",
"QtQtQtQtQtQtQtQtQtQtQtQtQtQtQtQtQtQt.#.#.#.a.r.s.n.t.u.v.w.x.#.#QtQtQtQtQtQtQtQtQtQtQtQtQtQtQtQtQtQt",
"QtQtQtQtQtQtQtQtQtQtQtQtQtQtQtQtQt.#.#.#.c.y.z.A.c.B.C.D.E.F.#.#.#QtQtQtQtQtQtQtQtQtQtQtQtQtQtQtQtQt",
"QtQtQtQtQtQtQtQtQtQtQtQtQtQtQtQt.#.#.#.c.a.G.H.I.c.J.K.L.M.N.n.#.#.#QtQtQtQtQtQtQtQtQtQtQtQtQtQtQtQt",
"QtQtQtQtQtQtQtQtQtQtQtQtQtQtQt.#.#.#.c.c.O.f.b.P.c.Q.R.S.T.U.H.c.#.#.#QtQtQtQtQtQtQtQtQtQtQtQtQtQtQt",
"QtQtQtQtQtQtQtQtQtQtQtQtQtQt.#.#.#.c.c.a.l.V.W.b.c.X.u.D.Y.Z.0.c.c.#.#.#QtQtQtQtQtQtQtQtQtQtQtQtQtQt",
"QtQtQtQtQtQtQtQtQtQtQtQtQt.#.#.#.#.c.c.V.1.2.3.a.c.4.5.L.S.6.7.8.c.#.#.#.#QtQtQtQtQtQtQtQtQtQtQtQtQt",
"QtQtQtQtQtQtQtQtQtQtQtQtQt.#.#.#.c.c.d.1.9.b.c.c.c#.###a#b#c#d#e#f.c.#.#.#QtQtQtQtQtQtQtQtQtQtQtQtQt",
"QtQtQtQtQtQtQtQtQtQtQtQt.#.#.#.c.c.c.O.k#g.c.c.c.c.F.f.W#h.D#i#j#k.c.c.#.#.#QtQtQtQtQtQtQtQtQtQtQtQt",
"QtQtQtQtQtQtQtQtQtQtQt.#.#.#.c.c.c.a#l#m.n.c.c#n#o#o#n.c.c#p.j#q#r.l.c.c.#.#.#QtQtQtQtQtQtQtQtQtQtQt",
"QtQtQtQtQtQtQtQtQtQt.#.#.#.#.c.c.c#s#t#u.c#v#w#x#y#y#x#w#z.c.H#A.R#r#B.c.#.#.#.#QtQtQtQtQtQtQtQtQtQt",
"QtQtQtQtQtQtQtQtQtQt.#.#.#.c.c.c.c#C#D.c#E#F#y#y#y#y#y#y#G#H.G.A#I#J#r.O.c.#.#.#QtQtQtQtQtQtQtQtQtQt",
"QtQtQtQtQtQtQtQtQt.#.#.#.c.c.c.c#f#C.c#K#L#y#y#y#y#y#y#y#y#M#N.f#O#P.R#Q.a.c.#.#.#QtQtQtQtQtQtQtQtQt",
"QtQtQtQtQtQtQtQtQt.#.#.c.c.c.c.c#R#u.c#S#y#y#y#y#y#y#y#y#y#y#T#U#V#d#W.u#h.c.c.#.#QtQtQtQtQtQtQtQtQt",
"QtQtQtQtQtQtQtQt.#.#.#.c.c.c.c.c.a.c.c#X#y#y#y#y#y#y#y#y#y#y#Y.2#D#Z.5#0.B#R.c.#.#.#QtQtQtQtQtQtQtQt",
"QtQtQtQtQtQtQtQt.#.#.c.c.c.c.c.c#f.H.c#G#y#y#y#y#y#y#y#y#1#y#2#3#f#4#5.L#q.U.c.c.#.#QtQtQtQtQtQtQtQt",
"QtQtQtQtQtQtQt.#.#.#.c.c.c.c.c.c.q.V.c#2#y#y#y#y#y#y#y#6#7#y#8#9#fa.#5a#aaabac.c.#.#.#QtQtQtQtQtQtQt",
"QtQtQtQtQtQtQt.#.#.c.c.c.c.c.c.c#g#m.cad#y#y#y#y#y#y#yaeaf#yag.1.aahaiajakal.I.c.c.#.#QtQtQtQtQtQtQt",
"QtQtQtQtQtQtQt.#.#.c.c.c.c.c.c.aam.w.can#x#y#yaoapaqarasae#xatau.a##.Qavaw.Bax.V.c.#.#QtQtQtQtQtQtQt",
"QtQtQtQtQtQt.#.#.#.c.c.c.c.c.c.aauay.c.caz#y#yaoaeaAaBae#6az.f#gaCaDaEa#aE.u#AaF.a.#.#.#QtQtQtQtQtQt",
"QtQtQtQtQtQt.#.#.c.c.c.c.c.c.c.caGaHaI.c.caJ#F#y#y#y#yaKaL#DaM#f.g.uaNaO.R#5aPaQaR.c.#.#QtQtQtQtQtQt",
"QtQtQtQtQtQt.#.#.c.c.c.c.c.c.c.caS.EaTaM.H.caUaVaWaWaVaU.c.n#faRaXaYaZa0.Kaiaw#A#O.a.#.#QtQtQtQtQtQt",
"QtQtQtQtQtQt.#.#.c#D.a.c.c.c.c.c.c.nax.l#C#D.c.c.c.c.c.c.c.c.fa1.Ba#a#a2#ja3a4#ba5a6.#.#QtQtQtQtQtQt",
"QtQtQtQtQt.#.#.#.caMa7a8a9aV.c.c.c.cau#e.0.I#f.n.c.c.c.c.c#pa5b.b#aZbabbbcaH.ga5#a.r.#.#.#QtQtQtQtQt",
"QtQtQtQtQt.#.#.c#u#Obd#y#ybe#n.c.c.c.HaFa.bf#taI.c.abg.wbh.Yaa.7aNaN#JbibjbkaU#ka3.T.q.#.#QtQtQtQtQt",
"QtQtQtQtQt.#.#.caM#Cbd#yblbm#n.c.c.c.q.F.w#3aM.c.c.dbn.k#A#ibo#qa#bp.Sbq#F#ybrbq.Dbsac.#.#QtQtQtQtQt",
"QtQtQtQtQt.#.#.caI.sbtbubvbw.c.c.c.c#V.c.HauaIbxa8a8bybz.p.7aPa#bAbB#cbC#y#y#ybDa5bE.b.#.#QtQtQtQtQt",
"QtQtQtQtQt.#.#.c#VbF#D.c.c.c.c.c.c.c.c.c.c#f.qaJ#y#ybk#CaYb..Cbp.BbGbHbI#2#ybJbK.T.7bL.#.#QtQtQtQtQt",
"QtQtQtQt.#.#.#.c.caR#f.c.c.c.c.c.c.c.c.c.c.c.c#z#MbMbNbO#5bbbPab.7b#.obQbR#obSaS.TbT#O.#.#.#QtQtQtQt",
"QtQtQtQt.#.#.#.c.c.c.c.c.c.c.c.c.c.c.c.c.c.c.c.c#ubU.HbT#JaPb.aiahbg.U#Q#IbV.VaMbWa5ax.#.#.#QtQtQtQt",
"QtQtQtQt.#.#.c.c.c.c.c.c.c.c.c.c.c.c.c.c.c.c.c.c.c.f.kbXakba.kaS.d.c.c#f.Mbz#l#IbY.4bc.c.#.#QtQtQtQt",
"QtQtQtQt.#.#.c.c.c.c.c.c.#.#.#.#.#.#.c.c.c.c.c.c.caxbZ#W.C#jaC.#.#.#.#.#b0b1.qacax#9a6.c.#.#QtQtQtQt",
"QtQtQtQt.#.#.c.c.c.c.#.#.#.#.#.#.#.#.#.c.c.c.c.c.dbTb2#W#OaM.#.#.#.#.#.#.#.#.#.c.c.q.c.c.#.#QtQtQtQt",
"QtQtQtQt.#.#.c.#.#.#.#.#.#.#.#.#.#.#.#.#.#.#.#.c.f#caDb3.#.#.#.#.#.#.#.#.#.#.#.#.#.#.#.c.#.#QtQtQtQt",
"QtQtQtQt.#.c.c.#.#.#.#.#.#QtQtQtQt.#.#.#.#.#.#.#b4b5b4.x.#.#.#.#QtQtQtQtQt.#.#.#.#.#.#.c.c.#QtQtQtQt",
"QtQtQt.#.#.c.#.#.#.#QtQtQtQtQtQtQtQtQtQt.#.#.#.#b6b5b3.#.#.#QtQtQtQtQtQtQtQtQtQt.#.#.#.#.c.#.#QtQtQt",
"QtQtQt.#.#.#.#.#QtQtQtQtQtQtQtQtQtQtQtQtQtQt.#.#b7b8.#.#QtQtQtQtQtQtQtQtQtQtQtQtQtQt.#.#.#.#.#QtQtQt",
"QtQtQt.#.#.#.#QtQtQtQtQtQtQtQtQtQtQtQtQtQtQtQt.#.#.#.#QtQtQtQtQtQtQtQtQtQtQtQtQtQtQtQt.#.#.#.#QtQtQt",
"QtQtQt.#.#.#QtQtQtQtQtQtQtQtQtQtQtQtQtQtQtQtQt.#.#.#.#QtQtQtQtQtQtQtQtQtQtQtQtQtQtQtQtQt.#.#.#QtQtQt",
"QtQtQtQt.#QtQtQtQtQtQtQtQtQtQtQtQtQtQtQtQtQtQtQt.#.#QtQtQtQtQtQtQtQtQtQtQtQtQtQtQtQtQtQtQt.#QtQtQtQt",
"QtQtQtQt.#QtQtQtQtQtQtQtQtQtQtQtQtQtQtQtQtQtQtQt.#.#QtQtQtQtQtQtQtQtQtQtQtQtQtQtQtQtQtQtQt.#QtQtQtQt",
"QtQtQtQtQtQtQtQtQtQtQtQtQtQtQtQtQtQtQtQtQtQtQtQt.#.#QtQtQtQtQtQtQtQtQtQtQtQtQtQtQtQtQtQtQtQtQtQtQtQt"};
