/* XPM */
static char *dummy[]={
"40 40 648 2",
"fb c #201e3a",
"eQ c #22203c",
"ev c #232037",
"f# c #24130f",
"em c #24223e",
"eO c #251211",
"ef c #272641",
"fd c #281512",
"ea c #282641",
"fZ c #292640",
"fI c #292843",
"fl c #2a2633",
"ff c #2a2842",
"fF c #2b1715",
"fS c #2b2944",
"ed c #2c1d1a",
"fi c #2d1a17",
"dk c #2d1d1a",
"du c #2d1e1b",
"ek c #2d1f1c",
"fc c #2e1b18",
"dA c #2e1e1b",
"fV c #2e2c44",
"fq c #2f1c19",
"f4 c #2f2a39",
"f. c #301b19",
"dc c #30221f",
"dl c #302320",
"e3 c #311d1a",
"e# c #311e1b",
"dt c #311f1d",
"dU c #312f48",
"e2 c #321d1b",
"d# c #32201d",
"e. c #32201e",
"ei c #32211d",
"hT c #32a67a",
"da c #33201d",
"dj c #33211e",
"db c #33211f",
"es c #341f1d",
"e9 c #34201d",
"cJ c #34211e",
"cL c #34221f",
"hy c #342810",
"er c #35211e",
"ch c #35211f",
"cK c #35221f",
"hA c #352911",
"ec c #36221f",
"ci c #362421",
"e5 c #36344a",
"dS c #372220",
"ej c #372320",
"ds c #372421",
"fh c #382220",
"fp c #382320",
"eM c #382321",
"e1 c #382421",
"dC c #38354c",
"eN c #39221f",
"cM c #392926",
"dz c #3a2422",
"b3 c #3a2a27",
"hz c #3a2d14",
"hx c #3b2e14",
"ep c #3c2623",
"dw c #3c394e",
"di c #3d2724",
"dn c #3d3a4f",
"eq c #3e2825",
"e8 c #3f2725",
"e7 c #402826",
"cN c #403230",
"b2 c #412726",
"f3 c #484559",
"d. c #492d2b",
"hR c #49340e",
"cI c #4b2e2c",
"fr c #4b4240",
"fQ c #4c3f3d",
"hw c #4d3913",
"eu c #4f4b5d",
"bY c #524650",
"fk c #525060",
"cj c #534542",
"cg c #543231",
"if c #543d13",
"ho c #543e14",
"hv c #543f15",
"dd c #544946",
"hg c #553e13",
"hs c #553e14",
"hl c #553f14",
"he c #553f15",
"fG c #554b4a",
"hi c #563f14",
"hp c #564015",
"fT c #564b4a",
"dg c #564f54",
"cp c #565162",
"hk c #574015",
"hu c #574116",
"hd c #584015",
"hj c #584116",
"hc c #584217",
"fj c #58504f",
"cR c #585465",
"ht c #594116",
"hr c #594317",
"hh c #594318",
"b7 c #594f52",
"hm c #5a4216",
"hq c #5b4318",
"hf c #5b4418",
"hG c #5c4415",
"hn c #5c4418",
"hQ c #5d4313",
"hD c #5d4413",
"hK c #5d4414",
"hO c #5d4514",
"hE c #5e4312",
"hI c #5e4413",
"hN c #5f4412",
"hH c #5f4413",
"hL c #5f4513",
"hB c #5f4615",
"hJ c #604512",
"hF c #604513",
"hP c #604514",
"hM c #614513",
"hC c #624513",
"f2 c #666571",
"fs c #666671",
"bN c #675e61",
"co c #67616f",
"fY c #676671",
"hS c #67aa97",
"fH c #6a6973",
"h5 c #6b501a",
"ia c #6c5019",
"hW c #6c501a",
"ie c #6c511a",
"i# c #6c521b",
"h1 c #6d511a",
"h2 c #6d521b",
"hZ c #6d521c",
"b8 c #6d6055",
"i. c #6e5119",
"ib c #6e521b",
"h8 c #6e531b",
"h0 c #6f511a",
"hX c #6f5219",
"h7 c #6f531b",
"hU c #6f531c",
"fR c #6f6e77",
"ic c #705219",
"h6 c #70521a",
"h3 c #70531a",
"hY c #71531a",
"id c #71541b",
"h4 c #72541b",
"hV c #73541a",
"h9 c #73541b",
"bZ c #745f40",
"fU c #76777d",
"b9 c #776854",
"eP c #797c77",
"cO c #797ea6",
"et c #797f8a",
"e4 c #7b8285",
"c. c #7c6c52",
"fe c #818884",
"el c #888694",
".P c #896c2a",
"fX c #898a8e",
".s c #8a6d2b",
".H c #8d702d",
".L c #8d712e",
".C c #8e702c",
".J c #8e702d",
".O c #8e702e",
".u c #8e712d",
".N c #8e712e",
".k c #8e722e",
".y c #8f702c",
".Q c #8f712e",
".z c #8f722f",
".p c #8f732f",
"bM c #8f8b8f",
".o c #90702c",
".E c #90722d",
".w c #90722e",
".G c #90732e",
".n c #90732f",
".x c #907330",
".D c #907430",
".q c #91722e",
".I c #91732e",
".m c #91732f",
".B c #91742f",
".M c #92732f",
".A c #92742f",
".l c #93742f",
".F c #937531",
".r c #937631",
"b6 c #938f96",
".t c #947630",
".v c #957731",
"fa c #959886",
".K c #967731",
"bL c #969295",
"gD c #977833",
"fg c #977c37",
"bO c #988045",
"#F c #997a34",
"gC c #9a7b35",
"#G c #9a7c35",
"#D c #9a7c36",
"gy c #9b7a34",
"#z c #9b7c35",
"gv c #9b7c36",
"#n c #9b7d35",
"#l c #9b7d36",
"gr c #9c7b34",
"gz c #9c7c35",
"gp c #9c7c36",
"#v c #9c7d35",
"#p c #9c7d36",
"#f c #9c7d37",
"#s c #9c7e37",
"cS c #9c7e38",
"#q c #9d7c34",
"#h c #9d7d35",
"#j c #9d7d36",
"d9 c #9d7d37",
"gA c #9d7e37",
"#d c #9d7f37",
"c7 c #9d7f38",
"#B c #9e7d35",
"c9 c #9e7e35",
"#C c #9e7e36",
"#x c #9e7e37",
"#k c #9e7f37",
"#w c #9e7f38",
"d8 c #9e7f39",
"e0 c #9e7f3a",
"cq c #9e834c",
"#r c #9f7f37",
"gu c #9f7f38",
"c3 c #9f8037",
"#i c #9f8038",
"fK c #9f8137",
"fO c #9f8138",
"#t c #9f8139",
"c# c #9f823c",
"#e c #a07f37",
"#y c #a08037",
"d3 c #a08038",
"#u c #a08138",
"#g c #a08139",
"dW c #a0813a",
"cX c #a08239",
"cU c #a18035",
"c0 c #a18037",
"gB c #a18039",
"fN c #a18136",
"cZ c #a18137",
"d1 c #a18138",
"gs c #a18139",
"dZ c #a1813a",
"#o c #a18239",
"d5 c #a1823a",
"br c #a1823c",
"do c #a1843c",
"#m c #a28138",
"gt c #a28139",
"c6 c #a28238",
"#A c #a28239",
"go c #a2823a",
"eZ c #a2823b",
"c2 c #a28339",
"#E c #a2833a",
"fJ c #a2843a",
"bJ c #a2843c",
"c5 c #a38237",
"dY c #a3823a",
"fP c #a38338",
"cW c #a38339",
"d6 c #a3833a",
"gq c #a3833b",
"d4 c #a3843b",
"cV c #a3853a",
"c1 c #a3853b",
"fm c #a3863a",
"c4 c #a3863b",
"e6 c #a3863c",
"aa c #a3863d",
"df c #a3a4a0",
"fW c #a3a8a3",
"bK c #a48439",
"gx c #a4843b",
"eX c #a4843d",
"bG c #a4853a",
"d2 c #a4853b",
"d0 c #a4853c",
"bx c #a4863a",
"cY c #a4863b",
"bs c #a4863c",
"f0 c #a4873b",
"fM c #a4873c",
"bU c #a4873d",
"gw c #a5843b",
"bq c #a5843d",
"eh c #a58539",
"dq c #a5853a",
"dV c #a5853c",
"eU c #a5853d",
"eR c #a5853e",
"ay c #a58639",
"al c #a5863a",
"bv c #a5863b",
"dX c #a5863c",
"#6 c #a5873b",
"bP c #a5873c",
"#8 c #a5873d",
"aE c #a5883d",
"eo c #a5883e",
"ck c #a5b3df",
"bD c #a6853a",
"d7 c #a6853c",
"eY c #a6853d",
"eW c #a6853e",
"bz c #a68638",
"ad c #a6863a",
"b0 c #a6863b",
"#S c #a6873b",
"cT c #a6873c",
"eb c #a6873d",
"eS c #a6873e",
"#Q c #a6883c",
"#J c #a6883d",
"#Y c #a6893e",
"#2 c #a7863a",
"eT c #a7863e",
"bo c #a7863f",
"bt c #a78739",
"aC c #a7873a",
"ai c #a7873b",
"eV c #a7873e",
"bf c #a7873f",
"aG c #a7883a",
"fL c #a7883c",
"dp c #a7883d",
"bd c #a7883f",
"a7 c #a78840",
"c8 c #a7893c",
"an c #a7893d",
"dh c #a7893e",
"cd c #a8863a",
"#V c #a88739",
"#N c #a8873a",
"bI c #a8873b",
"b# c #a8873f",
"a9 c #a88740",
"ac c #a8883a",
"aD c #a8883b",
"bE c #a8883c",
"bk c #a8883f",
"bg c #a88840",
"en c #a8893c",
"as c #a8893d",
"ah c #a8893e",
"af c #a88a3d",
"#P c #a88a3e",
"bh c #a9873f",
"#L c #a9883a",
"#0 c #a9883b",
"bA c #a9883c",
"bm c #a9883f",
"bi c #a98840",
"cf c #a9893b",
"a# c #a9893c",
"bc c #a98940",
"bn c #a98941",
"#4 c #a98a3d",
"aB c #a98a3e",
"bl c #a98a41",
"#H c #a98b3e",
"bB c #a98b3f",
"a4 c #a98b40",
"bu c #a98c3e",
"bH c #a98c3f",
"a. c #aa893b",
"aw c #aa893c",
"a8 c #aa8940",
"bb c #aa8941",
"bF c #aa8a3c",
"#X c #aa8a3d",
"aO c #aa8a3e",
"ba c #aa8a41",
"ap c #aa8b3e",
"#W c #aa8c3e",
"#3 c #aa8c3f",
"dy c #aa8c40",
"eH c #aa8c41",
"av c #aa8d3f",
"#Z c #aa8d40",
"f5 c #aa8d45",
"aq c #ab8a3c",
"aW c #ab8a3d",
"be c #ab8a41",
"#5 c #ab8b3d",
"b. c #ab8b42",
"bC c #ab8c3e",
"#O c #ab8c3f",
"aQ c #ab8c40",
"#M c #ab8d3f",
"#9 c #ab8d40",
"aI c #ab8d41",
"aS c #ac8a3d",
"#I c #ac8b3d",
"ag c #ac8b3e",
"eK c #ac8b3f",
"bj c #ac8b41",
"bS c #ac8c3d",
"eg c #ac8c3e",
"bp c #ac8c42",
"by c #ac8d3f",
"aj c #ac8d40",
"aU c #ac8d41",
"#1 c #ac8e3f",
"#K c #ac8e40",
"cc c #ac8e41",
"dx c #ac8f41",
"bX c #acacb4",
"ey c #ad8b3e",
"at c #ad8c3e",
"eC c #ad8c3f",
"bw c #ad8d3e",
"a3 c #ad8d3f",
"aT c #ad8d40",
"eE c #ad8d41",
"fE c #ad8d44",
"cb c #ad8e3f",
"ar c #ad8e40",
"eD c #ad8e41",
"aM c #ad8e42",
"ax c #ad8f40",
"ao c #ad8f41",
"aY c #ad8f42",
"bR c #ad9041",
"ca c #ae8d3e",
"cH c #ae8d44",
"fn c #ae8e3e",
"ce c #ae8e3f",
"#T c #ae8e40",
"b1 c #ae8f40",
"fo c #ae8f41",
"a2 c #ae8f42",
"ft c #ae8f45",
"aF c #ae9040",
"#U c #ae9041",
"aK c #ae9042",
"a1 c #ae9043",
"eG c #af8d40",
"#R c #af8e3e",
"bQ c #af8e3f",
"#7 c #af8e40",
"eA c #af8e41",
"aA c #af8f3f",
"aZ c #af8f40",
"am c #af8f41",
"aL c #af8f42",
"fD c #af8f45",
"ab c #af9041",
"ez c #af9042",
"dQ c #af9045",
"fB c #af9046",
"aX c #af9142",
"aV c #af9143",
"eF c #af9144",
"cG c #b08e44",
"ak c #b08f3f",
"bT c #b08f40",
"au c #b09040",
"ae c #b09041",
"cE c #b09046",
"f1 c #b09141",
"aJ c #b09143",
"aR c #b09244",
"gS c #b18e42",
"dJ c #b19043",
"dN c #b19044",
"cx c #b19045",
"cr c #b19046",
"aH c #b19141",
"aP c #b19142",
"eJ c #b19143",
"fv c #b19146",
"fx c #b19147",
"az c #b19241",
"eB c #b19243",
"dM c #b19245",
"dE c #b19246",
"ex c #b19345",
"gI c #b28f43",
"dG c #b29043",
".j c #b29044",
"cv c #b29045",
"fA c #b29046",
"aN c #b29141",
"a0 c #b29142",
"dK c #b29144",
"gO c #b29145",
"cB c #b29146",
"ct c #b29147",
"dr c #b29241",
"ew c #b29243",
"#b c #b29246",
"fw c #b29247",
"a5 c #b29344",
"ha c #b38f44",
"g8 c #b39043",
"dP c #b39144",
"gZ c #b39145",
"cD c #b39146",
"dI c #b39245",
"cw c #b39246",
"fy c #b39247",
"cz c #b39248",
"a6 c #b39343",
".Y c #b39347",
"cC c #b39348",
"eI c #b39445",
"dH c #b39446",
"dL c #b39447",
"gX c #b49044",
"h. c #b49144",
".i c #b49246",
"fz c #b49247",
".2 c #b49346",
".T c #b49347",
"cs c #b49348",
"eL c #b49444",
".0 c #b49447",
"cy c #b49448",
"cu c #b49449",
"dO c #b49547",
"g6 c #b59245",
"g4 c #b59246",
".4 c #b59346",
"fu c #b59347",
"cA c #b59348",
".5 c #b59447",
"fC c #b59448",
"dD c #b59547",
".8 c #b59548",
"gl c #b5954a",
"dF c #b59649",
"gQ c #b69346",
".V c #b69446",
".f c #b69447",
".h c #b69448",
"#a c #b69547",
"cF c #b69549",
".R c #b69648",
"gG c #b79346",
".b c #b79448",
"## c #b79547",
"Qt c #b79548",
"ge c #b79647",
".S c #b79648",
".X c #b79649",
".7 c #b79749",
"#. c #b7974a",
".W c #b7984a",
"gM c #b89447",
"gb c #b89547",
".g c #b89548",
".e c #b89549",
"f6 c #b89647",
".c c #b89648",
".a c #b89649",
"dR c #b89748",
".9 c #b89749",
"g# c #b8974a",
".6 c #b8984a",
"gV c #b99547",
".# c #b99649",
"gj c #b99748",
"gk c #b99749",
"gc c #b99849",
".1 c #b9984a",
".U c #b9994a",
".3 c #b9994b",
"gg c #b99a4c",
".d c #ba9749",
"f8 c #ba994b",
"f7 c #ba9a4b",
"gi c #ba9a4c",
"g7 c #bb974a",
"gE c #bb984a",
".Z c #bb9949",
"gh c #bb994a",
"#c c #bb9a4b",
"gf c #bb9b4b",
"gd c #bb9b4c",
"g1 c #bc984a",
"gn c #bc9b4b",
"g. c #bc9b4c",
"ga c #bc9c4d",
"g2 c #bd9849",
"gU c #bd994b",
"f9 c #bd9b4b",
"gT c #be9a4b",
"gm c #be9d4d",
"gL c #bf9a4c",
"gF c #bf9b4c",
"g0 c #c09b4d",
"gN c #c29d4c",
"gY c #c39e4e",
"gJ c #c39f4e",
"gK c #c49e4d",
"ee c #c5c6cd",
"g5 c #c8a251",
"gW c #c8a352",
"gP c #c9a351",
"g3 c #c9a352",
"cQ c #c9c7ce",
"h# c #caa351",
"de c #cacbda",
"gH c #cba553",
"gR c #cca654",
"g9 c #cfa856",
"dT c #cfcfd7",
"hb c #d0a955",
"b4 c #d0d2e1",
"dB c #d1d0d7",
"bV c #d2d3e2",
"cn c #d7d5d7",
"dv c #dcdce1",
"dm c #e1e1e5",
"cP c #f0f1f5",
"b5 c #f9f9f9",
"cm c #fbfbfb",
"bW c #fbfff5",
"cl c #fcfcfe",
"Qt.#.a.a.b.b.c.#.#.b.bQt.d.a.e.fQt.#.c.#.bQt.e.#.#Qt.b.g.d.a.e.hQt.#.c.#.b.i.j.j",
".k.l.m.n.o.p.q.r.n.s.t.u.v.w.x.y.z.A.B.p.C.D.E.F.G.H.I.J.K.m.L.E.p.M.N.r.C.O.P.Q",
".R.S.T.U.V.W.f.X.R.Y.Z.0.1.2.3.4.XQt.5.6.4.6.5.7.R.8.9.0.1.2#.##.7#a#b#c.4.1.2.R",
"#d#e#f#g#h#i#j#i#k#l#m#n#o#p#o#q#k#r#s#t#h#u#v#i#w#x#y#z#A#p#i#B#i#C#D#E#h#u#F#G",
"#H#I#J#K#L#M#N#O#P#Q#R#S#T#J#U#V#W#X#Y#Z#0#1#2#3#P#4#5#6#7#8#9a.#3a#aaabac#1adae",
"afagah#Kac#1aiaj#P#6akalamanao#Napaq#P#Zacaradaj#Hasatalau#Java.#Waw#8#U#Naxayaz",
"#H#Xah#Kac#9aiaj#P#6aA#S#Tanao#N#Wa#aB#9aCarad#9#Hafat#6#Tan#Za.#OaDaEaFaGaralaH",
"aj#7aIaJ#IaKagaLaM#PaNaOaPaQaRaSaoaTaUaVaWaXagaKaYajaZapa0aQa1ata2a3a4a5#5aX#Xa6",
"a7a8a9b.b#bab#bbbcbdbebfbebgb.bhbcbcbgbab#bab#bbbcbia8bfbjbkblbmbnbmbobpb#bebqbr",
"an#Xbs#9btbuadaBanbvbwbxbybs#Kbz#4bA#8bB#2bCbDaBanbEbFbGa3bsbHac#HbIbJax#2bCbKa3",
"bLbMbNbO#L#MbIaj#PbPbQalaZ#JbR#V#Haq#P#9ac#1#2aj#HafbSalbT#Java.#Wa#bU#U#NarayaH",
"bVbWbXbYbZ#Kaiaj#H#6akb0aZanao#N#WawaB#9aCb1adaj#HafatbvaZan#Za.#Ma##8abaCb1alaH",
"b2b3b4b5b6b7b8b9c.c#cab0cbancccd#Ha##P#ZaC#MaC#MaBan#5#6ceanbHa.#WcfaEb1aCbyadae",
"cgchcicjckclcmcncocpcqcrcsctcucv.Ycwctcucxcycvczczct.TcrcAcBcCcD.YcBcEcFcvcycGcH",
"cIcJcJcKcLcMcNcOcPcQcRcScT#t#QcUcVcWcXcYcZbvc0c1#Ec2bKc3bI#tc4c5bGc6c7c8cZ#6c9bG",
"d.d#d#dacJcJdbdcdddedfdga3#Jao#V#H#Xdh#9aD#1#2#OaB#4#IbvaZ#J#Ma.#Wa#aaabac#1alae",
"did#d#djcJcJcJdadkdldmdndodpao#N#W#XaB#9aGaxadajaBasbwalae#J#Za.#Oa#aEabaGb1dqdr",
"dsd#d#dtdjdadadadadudvdwcbandx#Napa#aB#9aCbyaC#9#Pas#I#6ceandya.#3aDaEb1aC#1adae",
"dzd#d#d#d#dadadacJdAdBdCdDdEdFdGdHdI#b.8dJdDdKdL.0dM.4dN#adEdOdP.0dIdQdRdJdDdJ.2",
"dSd#d#dtd#dadadadadAdTdUdVdWdXc0#EdYdZd0d1d2d3d4#Ed5d6#id7#gd4#md4#Ad8cTd1d2d9#w",
"chd#d#d#e.e#dadadadkdTea#T#J#U#V#W#Xdh#9#0#1#2#3#P#4#I#6#7eb#9a.#3a#aaabac#1adae",
"dsd#d#d#djecdadadaedeeefam#Jao#Napaq#P#Zaccb#2ajaBasegalau#Java.#3awaE#UaCarehaz",
"dsdtd#eicJejecdadaekelemaranao#N#Wa#aB#9aCarad#9#Hafeg#6#Tanava.#MeneoabaGaralaH",
"dse.dacJepeqeqereseteuevewccexeyezeAaYaRegeBeCaJa1eDae#Oa6eEeFeGez#TeHeIegeJeKeL",
"eMe.djdiepeqepeNeOePeQbrbmeRbgd7eSeTeRbkeUbkeUbfeVeWeVeXbieRbfeYbfeTeXbceUbkeZe0",
"e1d#eqeqeqeqe2e3e4e5#X#S#T#J#U#V#W#Xdh#9#0cbai#3#P#4#I#6#7eb#9a.#Oa#e6abaDcbadae",
"e7eqe8eqeqe9f.f#fafb#RalaZ#JbR#V#H#Xdh#9aD#1#2#9aBafbSalbT#Java.#Wa#bU#UaccbayaH",
"e8eqe8eqecfcfdfefffgak#6aZdpaoac#WbFaB#KaCb1adajaBafatbvaZdpavaw#Ma##8abaGb1alaH",
"e8eqeqfhfcfifjfkflfmfn#Scbandx#V#Ha#aB#9aCbyaCaQaBan#5#6ceanbHa.#WcfaEfoaCbyadau",
"e8eqfpfqf.frfseQftcEfucx.TfvcycvfwcBfxcscxcscxfwfycBfzcxcsfAcCcDfycBfBfCcxcsfDfE",
"eqecfqfFfGfHfIcVfJfKaCfKfL#tancUcVbK#ofMfN#ScZcYfJc2ehc3bEfOcYc5d2fPc7afcZ#6c9al",
"f.fqfcfQfRfSbDaQ#PcT#Ral#T#J#U#V#HbFdh#9aD#1aC#OaB#4#5alaZeb#9a.#Wa#aa#UaD#1adae",
"e3fFfTfUfV#MaiaT#P#6akalamdpao#Nap#XaB#9aCaxadajaBasbwalaudp#3a.#Oaw#8#UaCb1dqdr",
"fWfXfYfZfP#Mai#O#Pf0bQ#Scbandx#Vapa#aB#9aC#1aC#9#Paf#I#6cean#3a.#3aDaEb1aC#Kalf1",
"f2f3f4f5f6f7dRf8.3dFf9.Sg.g#gagb.Ugc.6gdgegf.cggf8.Wgh.Sg.g#gigjf7gkglgmgegd##gn",
"#igogpgqgrgs#xgtgugv#m#pgwgpgxgyd3gs#jgogzgsgAgtgu#x#e#fgwgzd5#h#ggBgCdV#z#AgD#z",
"gEgFgGgHgIgJ.igKgLgMgNgOgPgQgRgSgTgUgVgWgXgYgZgKg0g1g2gOg3g4g5g6gFg7g8g9h.h#hahb",
"hchdhehfhghhhihjhjhkhchlhmhehnhohchkhphqhghrhshthuhthuhlhmhvhfhlhchkhwhxhyhzhAhz",
"hBhChDhEhFhGhFhHhIhJhKhLhMhKhNhHhOhMhIhEhJhKhFhPhQhJhKhLhChKhNhFhKhMhRhShThThThT",
"hUhVhWhXhYhZhYh0h1hYh2h3h4h5h6h7h8h9hWi.hYi#hYh3iahYibh3h4h5icidieh9ifhShThThThT"};
