/* XPM */
static char *dummy[]={
"40 40 888 2",
".a c #00a15e",
"Qt c #32a67a",
"ex c #4b3b20",
"em c #4d3f27",
"dW c #4e412a",
"eY c #4f4331",
"dO c #504938",
"e8 c #55370c",
"fx c #573d19",
"ew c #59380e",
"cS c #594f3e",
"dq c #5a4e36",
"cX c #5a503f",
"eX c #5c390d",
"dL c #5c4e34",
"cR c #5d5443",
"dk c #5e5340",
"dc c #5e5544",
"aj c #5e5950",
"dX c #5f5338",
"as c #5f5a51",
"cW c #605134",
"ck c #60543b",
"cK c #60543d",
"dM c #605641",
"dh c #605642",
"dr c #615742",
"cY c #615743",
"#3 c #635f54",
"#7 c #645f54",
"dg c #665432",
"dj c #665c47",
"cQ c #665e4a",
"en c #676150",
".# c #67aa97",
"dV c #69430c",
"cZ c #695a3f",
"aD c #69665c",
"af c #6a665a",
"e7 c #6b4007",
"fw c #6c4107",
"el c #6d450b",
"ds c #6d5f42",
"e6 c #714405",
"cj c #716a5a",
"cJ c #726b5a",
"fv c #734506",
"di c #736b58",
"fH c #74490a",
"cH c #756f5f",
"ch c #766f5f",
"dN c #776e5a",
"fG c #7a4a06",
"ev c #7a4b08",
"f8 c #7a541c",
"lc c #7a5b21",
"f7 c #7b4b06",
"gH c #7b5721",
"ci c #7b7461",
"cP c #7b7565",
"eW c #7c4c07",
"k9 c #7c5919",
"cI c #7c7462",
"cm c #7c7565",
"cM c #7c7665",
"jZ c #7d5918",
"gf c #7f500c",
"cL c #7f7761",
"cg c #7f796a",
"cG c #7f7a6a",
"cp c #80725a",
"cl c #807964",
"co c #807b6a",
"cO c #817b6b",
"ad c #817b6f",
"#X c #817c6f",
"cf c #828179",
"cN c #837d6c",
"ac c #837d71",
"bW c #838175",
"ia c #845a18",
"gh c #845b19",
"db c #846020",
"cn c #847d6c",
"#8 c #847d72",
"#4 c #847e72",
"a. c #847f72",
"gg c #855a14",
"kN c #855b19",
"#W c #857f72",
"#9 c #857f73",
"#Y c #858073",
"iO c #865a16",
"kr c #865f25",
"gz c #86611c",
"dG c #86723c",
"a# c #868074",
"#5 c #868174",
"ao c #86847a",
"la c #875c19",
"kp c #875e18",
"ib c #875e1a",
"#s c #878175",
"## c #878275",
"av c #87847a",
"k4 c #885c19",
"fb c #885e18",
"#U c #888376",
"#V c #888477",
"#2 c #888478",
"a2 c #888479",
"gv c #895d19",
"iY c #89601a",
"ef c #897337",
"ai c #898378",
"#l c #898476",
"#g c #898477",
"#6 c #898478",
"ab c #898579",
"gl c #8a5d19",
"kW c #8a5d1b",
"kQ c #8a5e19",
"ar c #8a8478",
"aB c #8a8479",
"#. c #8a8577",
"#B c #8a8578",
"ae c #8a8579",
"aA c #8a877c",
"gi c #8b5e1b",
"dF c #8b6220",
"#t c #8b8577",
"#f c #8b8678",
"#F c #8b8679",
"#z c #8b8779",
"bK c #8b877b",
"aw c #8b877c",
"bB c #8b887b",
"br c #8b887c",
"ap c #8b887d",
".k c #8b8e85",
"h5 c #8c5f19",
"km c #8c601e",
"eO c #8c6420",
".3 c #8c8779",
"#A c #8c877b",
"#O c #8c877c",
"#H c #8c887c",
"#C c #8c887d",
".r c #8c8e86",
"l. c #8d6221",
"k1 c #8d6322",
"l1 c #8d6723",
"#G c #8d887b",
"#N c #8d887c",
"e5 c #8e5c0a",
"gs c #8e6322",
"iF c #8e6b29",
"#T c #8e887c",
"bs c #8e897c",
"ah c #8e897d",
"bH c #8e8a7c",
"ax c #8e8a7d",
"kq c #8f601b",
"kl c #8f601c",
"lB c #8f692a",
"#m c #8f897d",
"bR c #8f8a7c",
"#0 c #8f8a7f",
"aa c #8f8b7f",
"aC c #8f8d82",
"an c #8f8d83",
"az c #8f8d84",
"fE c #905d0b",
"fm c #90601c",
"k8 c #90611a",
"kh c #90611c",
"jq c #90641c",
"kV c #90661d",
"fn c #906622",
"#h c #908a7f",
"bm c #908c7f",
"ag c #908c80",
"aq c #908c81",
"bg c #908d7f",
"bS c #908d80",
"ay c #908e84",
"fu c #915e0a",
"gy c #91611b",
"ff c #91611c",
"kZ c #91621b",
"dP c #917937",
"dl c #917b3e",
"#a c #918c80",
".W c #918c82",
"bb c #918d7f",
"a6 c #918d80",
"bI c #918d81",
"bt c #918e81",
"at c #918f85",
"am c #918f86",
"fF c #925d0c",
"f6 c #925e0c",
"gp c #92621b",
"kU c #92631b",
".2 c #928d82",
".Q c #928d83",
"a4 c #928e81",
".V c #928e82",
"ak c #929086",
"kf c #93651f",
"iS c #93661d",
"gr c #93661f",
"aX c #938d80",
"aT c #938d81",
"aN c #938e81",
".P c #938e82",
".J c #938e83",
".K c #938e84",
"f5 c #94610c",
"hY c #94641b",
"j9 c #94661f",
"ee c #946924",
"j8 c #946b24",
"#1 c #948f83",
"bu c #949185",
"bJ c #949285",
"e9 c #956620",
"jK c #95691e",
"i1 c #956c27",
"bP c #959083",
"bT c #959285",
"al c #959388",
"au c #959389",
"ke c #966721",
"#v c #969183",
"bF c #969184",
"bz c #969185",
"bp c #969283",
"a8 c #969284",
"bf c #969385",
"a5 c #969485",
"gP c #97620f",
"gq c #976b1f",
"dd c #977f3e",
"#D c #979283",
"#K c #979284",
"aI c #979285",
"aV c #979385",
"bn c #979389",
"lW c #986c1f",
"lw c #986c22",
"gk c #986d1e",
"kP c #986e1e",
"#J c #989284",
"#R c #989384",
"#E c #989385",
"aZ c #989386",
"by c #989587",
"bh c #98958a",
"h0 c #99641a",
"kd c #99651b",
"h4 c #99671c",
"ka c #99681f",
"k0 c #996c1f",
"kX c #996e1e",
"#w c #999486",
"aM c #999487",
"aF c #999587",
"#y c #999588",
".I c #99958a",
"bO c #999688",
".1 c #99968a",
"bc c #99968b",
"ge c #9a620c",
"kb c #9a651b",
"gQ c #9a6713",
"kg c #9a681f",
"ko c #9a6820",
"iK c #9a6c1e",
"j# c #9a6e22",
"aS c #9a9587",
"#M c #9a9688",
"#S c #9a9689",
".U c #9a968b",
"#Z c #9a978c",
"bU c #9a988e",
"fk c #9b661b",
"i. c #9b671d",
"i# c #9b681d",
"h3 c #9b681e",
"fa c #9b6920",
"iT c #9b6e1d",
"gu c #9b7122",
"a3 c #9b9789",
"aO c #9b988d",
"bL c #9b998f",
"bC c #9b9a90",
"fc c #9c661b",
"fe c #9c671b",
"h1 c #9c691b",
"ba c #9c9889",
"be c #9c988a",
"bv c #9c9b91",
"gG c #9d640c",
"fl c #9d671b",
"kc c #9d671c",
"h2 c #9d681c",
"h9 c #9d681d",
"iL c #9d691d",
"ki c #9d6b23",
"iB c #9d6f1f",
"c0 c #9d701e",
"eH c #9d7021",
"g9 c #9d7124",
"k3 c #9d7223",
"jA c #9d722c",
"l# c #9d7323",
"#u c #9d9889",
"bl c #9d998a",
"aG c #9d9a8f",
".B c #9da196",
"hZ c #9e661d",
"h8 c #9e671d",
"hX c #9e6c1f",
"hH c #9e7220",
"eP c #9e8235",
"#I c #9e9989",
"#Q c #9e998a",
".9 c #9e9a8b",
".H c #9e9a8d",
".T c #9e9a8e",
"bx c #9e9b8d",
"bE c #9e9c8d",
"fd c #9f681c",
"fg c #9f6c24",
"jU c #9f6f1e",
"#r c #9f9b8c",
"bN c #9f9c8e",
"dp c #a06c13",
"k. c #a06c1e",
"ih c #a0731f",
"eu c #a1660a",
"kk c #a16c1f",
"iN c #a16f1d",
"cT c #a18740",
"f. c #a26d1f",
"fi c #a26e1f",
"iV c #a26f1d",
"hx c #a2701e",
"iR c #a2711f",
"aE c #a29e90",
"a0 c #a29f92",
"h7 c #a36d20",
"kj c #a36e23",
"hE c #a3721f",
"iX c #a37220",
"lK c #a37320",
"#p c #a39e91",
"#k c #a39f91",
"#d c #a39f92",
"aW c #a39f93",
"bA c #a3a092",
"eV c #a4680b",
"dU c #a46a0a",
"fh c #a46f24",
"lH c #a4711f",
"iQ c #a47321",
"d# c #a47720",
"jt c #a47725",
"da c #a47821",
".6 c #a49f92",
".5 c #a4a092",
"aQ c #a4a093",
"bG c #a4a192",
"bQ c #a4a193",
"aJ c #a4a194",
"iM c #a5721f",
"lP c #a5731f",
"iW c #a57620",
"iP c #a57720",
"im c #a57721",
"d. c #a57820",
"#c c #a5a192",
"#j c #a5a193",
"#o c #a5a293",
"#x c #a5a294",
".G c #a5a295",
"lV c #a6741f",
"ht c #a67821",
"iE c #a67921",
"i4 c #a67926",
".O c #a6a295",
"#L c #a6a394",
".S c #a6a395",
"aH c #a6a597",
"cd c #a6a59c",
"b1 c #a6a69c",
"dK c #a77112",
"l0 c #a7751f",
"hC c #a77821",
"d9 c #a77926",
"c6 c #a77a22",
"kM c #a77d32",
"h6 c #a86d1d",
"i2 c #a87726",
"c7 c #a87a21",
"il c #a87a22",
"#q c #a8a495",
"#e c #a8a595",
".7 c #a8a596",
"bj c #a8a696",
"aP c #a8a698",
"ek c #a96e0a",
"dY c #a97826",
"c8 c #a97a21",
"iC c #a97b21",
"c2 c #a97b22",
"d0 c #a97b27",
"eo c #a98b37",
"b# c #a9a697",
".8 c #a9a797",
"aU c #a9a89a",
"k# c #aa7324",
"js c #aa7627",
"lN c #aa7a21",
"c5 c #aa7a22",
"jz c #aa7a2d",
"c9 c #aa7b21",
"c4 c #aa7b22",
"fY c #aa7b28",
"c1 c #aa7c22",
"a9 c #aaa798",
"a7 c #aaa799",
"aY c #aaa99c",
"kn c #ab7324",
"gm c #ab7621",
"gw c #ab7720",
"gn c #ab7821",
"lX c #ab7b21",
"ik c #ab7b22",
"iD c #ab7c21",
"c3 c #ab7c22",
"kG c #ab7c29",
"ii c #ab7d22",
"bd c #aba89a",
".F c #aba89b",
".N c #aba89c",
"bw c #aba99c",
"kT c #ac7322",
"hf c #ac7416",
"go c #ac7422",
"f# c #ac7525",
"k5 c #ac7721",
"d8 c #ac7828",
"dt c #ac7921",
"gj c #ac7a24",
"ij c #ac7d23",
"bi c #aca99b",
".0 c #aca99c",
"#P c #acaa9c",
"bD c #acaa9d",
"gx c #ad7422",
"k7 c #ad7522",
"fj c #ad7525",
"iU c #ad7722",
"jN c #ad7820",
"kY c #ad7821",
"kR c #ad7822",
"k6 c #ad7920",
"eA c #ad7923",
"jv c #ad7925",
"jw c #ad7926",
"hA c #ad7a22",
"ed c #ad7c2e",
"aL c #ada99b",
"bo c #adaa9c",
"bM c #adaa9e",
"bV c #adab9f",
"ca c #adada4",
"b8 c #adaea4",
".j c #adb0a7",
".q c #adb0a8",
".p c #adb2a9",
"lb c #ae7522",
"jW c #ae7921",
"kS c #ae7a22",
"eJ c #ae7a23",
"kO c #ae7c24",
"jy c #ae7c2b",
"j. c #ae7c2e",
"b0 c #aeaea5",
".i c #aeb2a9",
"e# c #af7a26",
"jD c #af7b23",
"lS c #af7c23",
"kL c #af7c25",
"eE c #af7d25",
"eM c #af7e25",
"d6 c #af7e2f",
".x c #afb2aa",
"gd c #b07b12",
"ea c #b07b27",
"i3 c #b07b2a",
"iG c #b07c22",
"ec c #b07d2b",
"gt c #b07f2b",
".4 c #b0aea0",
"b3 c #b0afa6",
"cc c #b0b0a7",
"c# c #b0b1a7",
"bZ c #b0b1a8",
".A c #b0b3ab",
"iJ c #b17c22",
"jR c #b17d22",
"fQ c #b17e25",
"kD c #b17e26",
".E c #b1aea3",
"#b c #b1afa0",
"#i c #b1afa1",
"bY c #b1b2aa",
"b7 c #b1b3aa",
"dZ c #b27c2b",
"j1 c #b27d24",
"jH c #b28026",
"k2 c #b2812b",
"aK c #b2afa3",
"#n c #b2b0a1",
"c. c #b2b3ab",
"jj c #b37720",
"gF c #b37f14",
"j5 c #b38026",
"aR c #b3b0a3",
"a1 c #b3b0a4",
"b. c #b3b1a4",
"bk c #b3b2a5",
"b4 c #b3b4ab",
"ji c #b47c2b",
"ll c #b47e29",
"bq c #b4b2a5",
"b6 c #b4b4ac",
"b5 c #b4b5ac",
"bX c #b4b5ad",
".z c #b4b9b1",
"je c #b5761f",
"io c #b57c25",
"iy c #b57d25",
"jp c #b57d2c",
"i6 c #b57e27",
"jr c #b57f2a",
"ju c #b58029",
"i9 c #b5812e",
".Y c #b5b3aa",
".D c #b5b4aa",
".M c #b5b4ab",
".Z c #b5b5ab",
".u c #b5b9b1",
".m c #b5bab2",
"et c #b67a0f",
"i8 c #b6882d",
".f c #b6bab2",
"lk c #b77f31",
"d7 c #b7802b",
"g8 c #b87f32",
"d2 c #b88028",
"i7 c #b88029",
"g0 c #b88032",
"e. c #b8812a",
"d5 c #b8832f",
".C c #b8b7af",
".L c #b8b8b0",
"lh c #b97c2a",
"eU c #b97d10",
"dv c #b98224",
"cF c #b98e39",
".R c #b9b9b0",
".X c #b9b9b1",
".c c #b9c1b9",
"gW c #ba7d2a",
"li c #ba8132",
"dE c #ba8224",
"dz c #ba8324",
"lj c #ba8337",
"ey c #ba8828",
"d4 c #ba8a2e",
".t c #bac0b8",
".d c #bac0b9",
"jl c #bb7f23",
"d3 c #bb822a",
"gX c #bb8232",
"dC c #bb8324",
"i5 c #bb832b",
"e4 c #bb840f",
"lo c #bb8437",
"gZ c #bb8538",
"kz c #bb872d",
"jx c #bb8a2d",
"b2 c #bbbcb2",
".l c #bbc1ba",
".y c #bbc2bb",
"jn c #bc7a22",
"jf c #bc7b22",
"le c #bc7e2a",
"jc c #bc7f23",
"lg c #bc7f29",
"lz c #bc8128",
"dD c #bc8324",
"fM c #bc8325",
"dw c #bc8424",
"dB c #bc8425",
"lv c #bc8436",
"g7 c #bc8437",
"hG c #bc8629",
"hg c #bc8f36",
"b9 c #bcbcb3",
"cb c #bcbdb4",
".h c #bcc1ba",
".o c #bcc2ba",
".s c #bcc2bb",
"jb c #bd7d28",
"gT c #bd7e29",
"jh c #bd8029",
"lu c #bd8128",
"du c #bd8424",
"dA c #bd8425",
"kK c #bd8426",
"dx c #bd8524",
"dy c #bd8525",
"lA c #bd8536",
"eK c #bd8627",
"hD c #bd8b27",
"ce c #bdbdb4",
".w c #bdc2ba",
".e c #bdc2bb",
".b c #bdc3bc",
"lr c #be7f2b",
"gV c #be8129",
"g6 c #be8228",
"jo c #be822a",
"jX c #be8424",
"i0 c #be8524",
"iZ c #be8525",
"d1 c #be852c",
"ft c #be860f",
"iH c #be8625",
"eB c #be8627",
"hz c #be872a",
"hr c #be8927",
"hu c #be8b27",
".v c #bec5be",
"g3 c #bf802b",
"lt c #bf822b",
"gY c #bf8328",
"jO c #bf8524",
"ir c #bf8625",
"j2 c #bf8627",
"lR c #bf882b",
"lY c #bf8c28",
"jB c #bf8c29",
"eb c #bf8d2e",
".n c #bfc6bf",
"jd c #c07f23",
"g5 c #c0832b",
"iI c #c08625",
"lJ c #c0882b",
"jL c #c08a27",
"lU c #c08d28",
"jm c #c17f23",
"ja c #c18627",
"lL c #c18b27",
"lO c #c18d28",
"ha c #c18e17",
"lE c #c18e28",
"gK c #c18f18",
".g c #c1c6bf",
"ip c #c28229",
"ly c #c2872b",
"lp c #c2872c",
"iA c #c28826",
"g1 c #c2882c",
"jE c #c28928",
"eI c #c28b29",
"ln c #c38729",
"ls c #c3872b",
"eN c #c38828",
"jV c #c38a26",
"lC c #c38d28",
"ig c #c39438",
"jS c #c48625",
"lf c #c48729",
"lm c #c48827",
"eF c #c48828",
"gU c #c48829",
"g4 c #c4882b",
"iv c #c48926",
"j0 c #c48c29",
"hn c #c48d23",
"hF c #c48e30",
"hy c #c58f30",
"gO c #c59526",
"hm c #c5962f",
"jk c #c68428",
"lq c #c68528",
"lx c #c68628",
"ld c #c68927",
"gS c #c68928",
"j6 c #c68929",
"lQ c #c69031",
"g2 c #c78628",
"jI c #c78a29",
"jY c #c78c29",
"kE c #c78f31",
"lI c #c79131",
"it c #c88a2e",
"iq c #c88b2d",
"hs c #c88c27",
"is c #c88c2e",
"fR c #c89031",
"ky c #c98b29",
"jT c #c98d29",
"eG c #c98f2c",
"eD c #c9902b",
"kC c #ca8d2c",
"fT c #ca8e2b",
"fJ c #ca8f2b",
"eL c #ca912b",
"he c #ca9c2b",
"iu c #cb8c2b",
"lD c #cb8d27",
"fP c #cb8d2a",
"lM c #cb8e27",
"kw c #cb8e2c",
"kx c #cb8e2d",
"jQ c #cb8f28",
"kI c #cb8f2b",
"kB c #cb902c",
"jJ c #cb912d",
"iz c #cc8d2b",
"fW c #cc8f2c",
"fN c #cc8f2d",
"kt c #cc902c",
"fO c #cc902e",
"j7 c #cc912d",
"jG c #cc922b",
"hR c #cc9c3c",
"kF c #cd8e2b",
"jg c #cd9128",
"hB c #cd9129",
"j4 c #cd932c",
"fX c #ce8f2b",
"fS c #ce9330",
"kH c #ce9331",
"f9 c #cea22c",
"lT c #cf922a",
"dT c #cf9713",
"cV c #d0ae3d",
"jM c #d1952b",
"ez c #d1972e",
"ej c #d29b14",
"fD c #d2a226",
"ix c #d3922d",
"hv c #d3982c",
"jC c #d3982e",
"gR c #d39d2d",
"f4 c #d3a429",
"eC c #d4992e",
"fI c #d49b2f",
"kA c #d49b30",
"jP c #d5972b",
"lF c #d5992c",
"hw c #d59a2c",
"g# c #d5a22b",
"iw c #d6922b",
"kv c #d69632",
"kJ c #d69633",
"j3 c #d69a2e",
"jF c #d69a2f",
"lZ c #d69b2d",
"ks c #d69d30",
"hl c #d6a836",
"fL c #d79732",
"fV c #d79733",
"in c #d79a2e",
"hW c #d79b2c",
"lG c #d79b2d",
"gC c #d7a228",
"f0 c #d7a42a",
"fz c #d7a42c",
"df c #d7b743",
"ga c #d8a42a",
"fZ c #d8a830",
"hb c #d8ac33",
"ku c #d99b35",
"gL c #d9ad33",
"fK c #da9c35",
"f3 c #daaa2b",
"fC c #daaa2d",
"g. c #daad2c",
"fU c #db9d35",
"gJ c #dba423",
"fy c #dbab2f",
"gB c #dbaf2e",
"cq c #dca438",
"hk c #dca52e",
"h# c #dea624",
"gI c #dea62c",
"hS c #dfa32f",
"do c #dfb43b",
"e3 c #e0b329",
"hc c #e0b638",
"gc c #e0b94e",
"gM c #e1b73a",
"hq c #e2a830",
"gA c #e2b033",
"f1 c #e2b43b",
"dJ c #e2ba42",
"gE c #e2bc53",
"fB c #e3b232",
"fA c #e3b63c",
"cD c #e4aa38",
"f2 c #e4b434",
"fs c #e4b82c",
"cA c #e5a836",
"cu c #e5a936",
"cC c #e5a937",
"fo c #e5bc4c",
"eg c #e6be39",
"if c #e7a830",
"cB c #e7aa38",
"cz c #e7ab38",
"es c #e7bc3b",
"ho c #e8ac2f",
"ct c #e8ac38",
"cy c #e8ac39",
"cx c #e8ad3a",
"cr c #e8ae3a",
"cs c #e8af3a",
"e0 c #e8b838",
"fp c #e8b938",
"eZ c #e8bf4b",
"ie c #e9a930",
"id c #e9aa30",
"hP c #e9ab2f",
"hT c #e9ab31",
"cv c #e9ad39",
"cw c #e9ad3a",
"hh c #e9ae31",
"cE c #e9af3a",
"ic c #eaaa30",
"hV c #eaab30",
"hU c #eaac31",
"eT c #eac241",
"hd c #eac759",
"gN c #eac75a",
"dQ c #ebc13b",
"eQ c #ebc74c",
"gD c #ecc857",
"gb c #ecc95a",
"hO c #eeb131",
"hj c #eeb230",
"ep c #eec94c",
"e2 c #f0cd45",
"hK c #f1b332",
"fr c #f1ce47",
"hQ c #f2b333",
"fq c #f2cd46",
"e1 c #f2cf49",
"hM c #f3b635",
"h. c #f3b732",
"hL c #f3b736",
"dS c #f3d766",
"hp c #f4b633",
"ei c #f4da6e",
"de c #f4da6f",
"eS c #f5d237",
"er c #f5d33b",
"dH c #f5de84",
"hN c #f6bc3a",
"cU c #f6dc72",
"dm c #f7e08a",
"hI c #f8b835",
"hJ c #f8b935",
"hi c #f8ba35",
"eR c #f9d948",
"eq c #f9da47",
"eh c #f9dc5a",
"dR c #f9de61",
"dn c #fae68f",
"dI c #fae794",
"QtQtQtQtQtQtQtQtQtQtQtQtQtQtQtQtQtQtQtQtQtQtQtQtQtQtQtQtQtQtQt.#QtQt.aQtQtQtQtQt",
"QtQtQtQt.aQtQtQtQtQtQtQt.aQtQtQtQtQtQtQt.aQtQtQtQtQtQtQt.aQtQtQtQtQtQtQtQtQtQtQt",
"Qt.aQtQtQtQtQtQtQt.aQtQtQt.#QtQtQt.aQtQtQtQtQtQtQt.aQtQtQt.#QtQtQt.aQtQtQtQtQtQt",
"QtQtQtQtQt.aQtQt.#.#QtQtQtQtQtQtQtQtQtQtQt.aQtQt.#.#QtQtQtQtQtQtQtQtQtQtQt.aQtQt",
"QtQtQtQtQtQtQt.a.#.#QtQtQtQtQtQtQtQtQtQtQtQtQt.a.#.#QtQtQtQtQtQtQtQtQtQtQtQtQt.a",
"QtQtQtQtQtQtQtQtQtQtQtQtQtQtQt.#QtQtQtQtQtQtQtQtQtQtQtQtQtQtQt.#QtQtQtQtQtQtQtQt",
"QtQt.#.#QtQtQtQtQtQtQtQtQtQtQtQtQtQt.#.#QtQtQtQtQtQtQtQtQtQtQtQtQtQt.#.#QtQtQtQt",
"QtQt.#.#QtQtQtQtQtQtQtQtQtQtQt.aQtQt.#.#QtQtQtQtQtQtQtQtQtQtQt.aQtQt.#.#QtQtQtQt",
"QtQtQtQtQt.aQt.#QtQt.aQtQtQtQtQtQtQtQtQtQt.aQt.#QtQt.aQtQtQtQtQtQtQtQtQtQt.aQt.#",
"QtQtQtQtQtQtQtQtQtQtQtQtQtQtQtQtQtQtQtQtQtQtQtQtQtQtQtQtQtQtQtQtQtQtQtQtQtQtQtQt",
".b.c.d.e.f.g.h.i.j.k.b.l.d.e.m.n.o.p.q.r.s.h.t.e.u.v.w.x.q.r.s.l.t.y.z.n.e.A.q.B",
".C.D.D.E.F.G.H.I.J.K.L.D.M.E.N.O.H.I.P.Q.R.D.M.E.N.S.T.U.V.W.X.Y.Z.E.0.S.T.1.2.3",
".4.5.6.7.8.9#.#.###a#b#c#d#e.8.9#f#g###h#i#j#k#e.8.9.3#l###m#n#o#p#q.8#r.3#l#s#t",
".0#u#v#w#x#y#z#A#B#C.0#u#D#E#x#y#F#G#g#H.0#I#J#K#L#M#F#N#g#O#P#Q#R#v.S#S#F#T#U#V",
"#W#W#X#Y#s#Z#0#1#2#3#4#W#X#W#5#Z#0#1#6#7#8#9#Xa.a##Zaa#1ab#7ac#9ada.a##Zaa#1aeaf",
"#CagahaiajakalamanaoapaqaharasatauatanavawaqaxarasayauatazavaAaqaxaBasaCauatayaD",
"aE#waF.PaGaHaIaJaKaLaEaMaFaNaOaPaIaQaRaLaEaSaFaT#ZaUaVaWaRaLaEaSaFaX.1aYaZa0a1a2",
"a3a4a5a6#Za7a8a9b.b#baa4a5bbbcbda8b#b.b#beaNbfbgbhbia8bjbkb#blaNbfbmbnbobp.7bqbr",
"bsbtbubrbvbwbxbybzbAbsbtbubBbCbDbE#ybFbGbHbIbJbKbLbMbNbObPbQbRbSbTbKbUbVbNbObPbW",
"bXbYbZb0b1b2b3b4b5b6bXb7bZb8b1b9b3b4b5b6bXc.c#cab1cbb3b4b5b6bXc.cccacdceb3b4b5cf",
"cgchcicjckclcmcncocpcqcrcsctcuctctctcvcwcxcycyczcAcBcCcDcEcFcGcHcIcJcKcLcMcNcOcP",
"cQcRcScTcUcVcWcXcYcZc0c1c2c3c4c4c5c6c7c8c7c9c7c8c9c7d.d#dadbcQdccSdddedfdgcSdhdi",
"djdkdldmdndodpdqdrdsdtdudvdwdxdydzdAdBdzdCdDdvdEdDdCdEdEdCdFdjdkdGdHdIdJdKdLdMdN",
"dOdPdQdRdSdTdUdVdWdXdYdZd0d1d2d3d4d5d6dYd7d8d9e.e#eaebecedeedOefegeheiejekelemen",
"eoepeqereseteuevewexeyezeAeBeCeDeEeFeGeHeIezeJeKeCeLeMeNeGeOePeQeReSeTeUeVeWeXeY",
"eZe0e1e2e3e4e5e6e7e8e9f.f#fafbfcfdfefffgfhfifjfafbfkfdflfmfnfofpfqfrfsftfufvfwfx",
"fyfzfAfBfCfDfEfFfGfHfIfJfKfLfMfNfOfPfQfRfSfTfUfVfMfWfOfXeEfYfZf0f1f2f3f4f5f6f7f8",
"f9g.g#gagbgcgdgegfggghgigjgkglgmgngogpgqgrgsgtgugvgmgwgxgygzgAgBg#gCgDgEgFgGgfgH",
"gIgJgKgLgMgNgOgPgQgRgSgTgUgVgWgXgYgZg0g1g2g3g4g5gWgXg6g7g8g9h.h#hahbhchdhegPhfhg",
"hhhihjhkhlhmhnhohphqhrhshthuhvhwhxhyhzhAhBhshChDhvhwhEhFhGhHhIhJhKhLhMhNhOhPhQhR",
"hShThUhVhVhVhVhVhVhWhXhYhZh0h1h2h3h4h5h6h7hYh8h0h1h9i.i#iaibicidieieieieififhUig",
"ihiic3ijc3c3ikilc9iminioipiqirisitiuiviwixiyipiqirisitiziAiBiCiDiCc9iDiCiEhtiEiF",
"iGirdBiHiIirdyiriHiJiKiLiMiNiOiPiQiRiSiTiUiLiMiViOiWiQiXiSiYdyiZdBdwi0iZdwdBdyi1",
"i2i3i4i5i6i7i8i9j.j#jajbjcjdjejfjgjhjijjjkjbjljmjejnjgjojpjqjrjsjtjujvjwjxjyjzjA",
"jBjCjDjEjFjGjHjIjJjKjLjMjNjOjPjQjRjSjTjUjVjMjWjXjPjQjRjSjYjZj0jCj1j2j3j4j5j6j7j8",
"j9k.k#kafbkbkckdffkekfk.k#kgfbkbkckbkhkikjkkk#kgfbkbkcfkklkmkjkkknkokpkbkcfkkqkr",
"ksktkukvfMkwkxkyj5kzkAkBkukvfMkCkxfPkDkEfSkBkukvdAkCkxkFeEkGkHkIkukJkKkCkxfXkLkM",
"kNgikOkPkQkRkSkTkUkVghkWkOkXgvkYhAgxkZk0kfk1k2k3k4k5k6k7k8k9j9l.k2l#lak5k6lbk8lc",
"ldlelflglhligYljlklllmgTlnjhlhlig6lolklplqlrlsltlhlilulvlklwlxlrlyg5lhlilzlAlklB",
"lClDc8lElFlGlHlIlJlKlLlMlNlOlFlGlPlQlRlSlTlDlNlUlFlGlVlQhzlWlTlDlXlYlFlZl0hyhzl1"};
