/* XPM */
static char *dummy[]={
"40 40 1008 2",
"mt c #605a49",
"ja c #686354",
"fP c #6a6556",
"aQ c #6c6759",
"ai c #4c4638",
"fi c #575040",
"iS c #585141",
"mb c #595242",
"nJ c #1e1b15",
"nP c #1f1b15",
"nS c #1f1c15",
"nT c #201c15",
"nQ c #26221c",
"nC c #27231c",
"nK c #27231d",
"nH c #28231c",
"ns c #28241b",
"cQ c #29241b",
"nL c #29241d",
"nA c #29251b",
"nI c #29251d",
"me c #292917",
"nD c #2a251d",
"hh c #2b251c",
"hm c #2b251d",
"kI c #2b261d",
"nM c #2b271e",
"kL c #2c261d",
"nG c #2c271f",
"nN c #2c281f",
"nE c #2d2920",
"nB c #2d2921",
"nR c #2e2a21",
"am c #2f2920",
"nF c #2f2a21",
"nO c #2f2b21",
"av c #302921",
"j. c #302a1f",
"ms c #302b20",
"mA c #312a20",
"aA c #312a21",
"mo c #312b20",
"fM c #312b21",
"mM c #322c22",
"mS c #332c22",
"jt c #342e24",
"kQ c #352e23",
"g. c #363025",
"db c #373126",
"nr c #373227",
"cX c #383126",
"cU c #383226",
"cP c #383227",
"aZ c #383228",
"nj c #383327",
"a6 c #383328",
"kR c #383627",
"kH c #393328",
"cV c #39332a",
"na c #393427",
"aB c #39342a",
"lW c #393c1f",
"mf c #393e1c",
"cR c #3a3327",
"cO c #3a3429",
"aw c #3a342b",
"cn c #3a3529",
"an c #3a352b",
"hi c #3b3428",
"cL c #3b3429",
"iP c #3b3528",
"cu c #3b3529",
"au c #3c3529",
"hl c #3c352a",
"l8 c #3c3628",
"kq c #3c3629",
"hg c #3c362a",
"ml c #3c372c",
"fL c #3d3629",
"cS c #3d362a",
"i8 c #3d362b",
"i9 c #3d372a",
"cN c #3d372b",
"k2 c #3d372c",
"k6 c #3d372d",
"kp c #3d421b",
"mk c #3d441e",
"iJ c #3d461b",
"hj c #3e372a",
"ao c #3e372b",
"cW c #3e372c",
"mn c #3e382b",
"mr c #3f372a",
"aC c #3f372b",
"fN c #3f372c",
"kJ c #3f382b",
"ap c #3f382c",
"aD c #3f382d",
"hH c #3f382e",
"g8 c #3f392c",
"fG c #3f392d",
"ny c #3f392e",
"nx c #3f3a2e",
"ly c #3f4224",
"iO c #40382b",
"kK c #40382c",
"kt c #40392c",
"aE c #40392d",
"dt c #40392f",
"nq c #403a2c",
"i6 c #403a2d",
"nt c #403a2e",
"kG c #404b1e",
"al c #413a2d",
"aq c #413a2e",
"fH c #413a2f",
"eN c #413b2e",
"fj c #413b2f",
"#6 c #413b30",
"lS c #413c2e",
"fk c #413c2f",
"jQ c #414a1c",
"i5 c #414b1e",
"ak c #423a2e",
"nu c #423b2e",
"cM c #423b2f",
"i7 c #423c2f",
"fd c #423c30",
"#Z c #423c31",
"j# c #423d31",
"np c #433c2f",
"cT c #433c30",
"md c #433c31",
"mq c #433d30",
"mp c #433e32",
"ij c #434e20",
"cm c #443d2f",
"ct c #443d30",
"ku c #443d31",
"hk c #443e31",
"cK c #443e33",
"nn c #443f32",
"l4 c #444f23",
"g3 c #453e30",
"aj c #453e31",
"at c #453e32",
"g7 c #453f34",
"hz c #455024",
"no c #463f30",
"nw c #463f31",
"az c #463f32",
"nz c #464031",
"fI c #464032",
"mg c #464f24",
"nv c #473f30",
"ip c #473f31",
"lP c #474031",
"mm c #474032",
"fK c #474033",
"ks c #474035",
"hY c #475024",
"mc c #484033",
"lL c #484132",
"ar c #484133",
"ax c #484134",
"j7 c #485126",
"ll c #485327",
"eM c #494133",
"eB c #494232",
"fO c #494234",
"ay c #494335",
"lc c #49462f",
"kZ c #495226",
"ng c #4a4233",
"#O c #4a4234",
"nb c #4a4332",
"nh c #4a4333",
"as c #4a4335",
"fJ c #4a4436",
"#P c #4a4538",
"lH c #4b5429",
"#Y c #4c4436",
"b3 c #4c4536",
"k. c #4c4537",
"dY c #4c5c3d",
"n# c #4d4435",
"#5 c #4d4436",
"fc c #4d4537",
"bX c #4d4637",
"gz c #4d483a",
"hf c #4d562d",
"nm c #4e4435",
"m8 c #4e4534",
"io c #4e4536",
"gv c #4e483b",
"b# c #4e4940",
"jp c #4e5632",
"g1 c #4e5933",
"lJ c #4f4537",
"lK c #4f4636",
"in c #4f4637",
"eh c #4f4838",
"eG c #4f493b",
"by c #4f493c",
"gN c #4f5937",
"je c #4f5940",
"cy c #504838",
"cv c #504839",
"cs c #504938",
"#x c #50493c",
"br c #504a3c",
"gt c #505a38",
"bW c #514838",
"nd c #514938",
"cg c #514939",
"jy c #51493c",
"nk c #514a38",
"h5 c #514a3c",
"#t c #514a3d",
"cY c #514e47",
"kv c #51582f",
"iN c #524838",
"j9 c #524938",
"gR c #524939",
"ni c #524a38",
"cl c #524a39",
"e8 c #524a3a",
"d4 c #524a3c",
"dL c #524b3d",
"nl c #534a39",
"g2 c #534a3a",
"eg c #534a3c",
"m9 c #534b38",
"e9 c #534b3a",
"m. c #534c3b",
"mN c #534c3d",
"gf c #534c3e",
"#R c #534d3a",
"mv c #534d40",
"ne c #544b39",
"cp c #544b3a",
"ch c #544b3b",
"lt c #544b3c",
"#1 c #544c3a",
"lU c #544c3b",
"ff c #544d3b",
"mH c #544d3e",
"aY c #544d3f",
"mE c #544e41",
"g4 c #554b3b",
"m0 c #554c39",
"#S c #554c3a",
"fg c #554c3b",
"l9 c #554d3b",
"b. c #554d3f",
"mz c #554d40",
"l6 c #554e3b",
"kP c #554e41",
"mD c #555043",
"mF c #555044",
"dZ c #55583d",
"ex c #556041",
"is c #564e3c",
"mB c #564e3f",
"mR c #564e41",
"mu c #565042",
"mJ c #565144",
"ke c #565e40",
"eL c #574e3c",
"ck c #574e3e",
"#4 c #57503d",
"mQ c #575043",
"co c #575142",
"mK c #575143",
"#Q c #575242",
"#N c #584d3c",
"lw c #584e3b",
"#X c #584e3c",
"#i c #584e3d",
"cz c #584e3e",
"ik c #584f3b",
"eE c #584f3c",
"#M c #584f3d",
"g6 c #584f3e",
"#V c #58513d",
"k1 c #585143",
"jw c #585144",
"iQ c #58523e",
"#0 c #585242",
"#7 c #585243",
"mO c #585244",
"lT c #58533e",
"mw c #585346",
"fb c #594e3d",
"kr c #594f3e",
"nf c #59503d",
"#s c #59503e",
"l5 c #59513f",
"my c #595244",
"da c #595245",
"mC c #595345",
"fe c #595444",
"mG c #595446",
"jq c #595547",
"e7 c #595840",
"eA c #595a43",
"f9 c #596144",
"mj c #596343",
"eK c #5a4f3f",
"bV c #5a503d",
"b2 c #5a503e",
"d6 c #5a503f",
"n. c #5a513e",
"cj c #5a513f",
"dM c #5a5140",
"ei c #5a523d",
"lu c #5a533e",
"hG c #5a5344",
"mL c #5a5447",
"mx c #5a5547",
"ez c #5a5c45",
"#m c #5b513d",
"b6 c #5b513e",
"im c #5b513f",
"iM c #5b5140",
"gB c #5b523d",
"cx c #5b523f",
"kd c #5b5240",
"d2 c #5b5241",
"nc c #5b533e",
"eC c #5b533f",
"cr c #5b5340",
"js c #5b5345",
"lM c #5b543f",
"#j c #5b5444",
"cf c #5b5445",
"ds c #5b5446",
"jr c #5b5647",
"jx c #5b5649",
"#h c #5c513e",
"#r c #5c513f",
"l7 c #5c5140",
"bR c #5c523d",
"#w c #5c523f",
"#W c #5c5240",
"h3 c #5c5241",
"d3 c #5c5242",
"b5 c #5c533e",
"g5 c #5c5340",
"ln c #5c5341",
"lm c #5c5342",
"#8 c #5c543f",
"lQ c #5c5440",
"iL c #5c5441",
"gQ c #5c5445",
"kb c #5c5545",
"jd c #5c5648",
"k4 c #5c5749",
"cA c #5c584e",
"fS c #5c644a",
"iI c #5c6649",
"fa c #5d5341",
"h4 c #5d5342",
"lo c #5d5343",
"cq c #5d543f",
"#2 c #5d5440",
"d1 c #5d5442",
"h2 c #5d5443",
"#T c #5d5540",
"iR c #5d5541",
"ma c #5d5542",
"gb c #5d5548",
"f# c #5d5642",
"g# c #5d5646",
"ge c #5d5647",
"mI c #5d5749",
"gc c #5d574a",
"mP c #5d5849",
"be c #5d5950",
"it c #5d664b",
"cw c #5e5540",
"ci c #5e5541",
"ee c #5e5542",
"aX c #5e5647",
"#U c #5e5743",
"a5 c #5e5747",
"a9 c #5e5748",
"aT c #5e5849",
"aU c #5e584a",
"ju c #5e584b",
"hC c #5e594b",
"ek c #5e6047",
"gj c #5e684d",
"lr c #5f5542",
"kc c #5f5641",
"f. c #5f5642",
"h8 c #5f5644",
"mZ c #5f5645",
"#3 c #5f5743",
"a8 c #5f574a",
"a7 c #5f5848",
"a4 c #5f584a",
"aV c #5f594b",
"ey c #5f6348",
"m# c #605642",
"dN c #605644",
"ef c #605645",
"lv c #605740",
"iK c #605742",
"lV c #605743",
"fh c #605843",
"a0 c #605949",
"kO c #60594a",
"gd c #605a4c",
"jv c #605a4d",
"eO c #60644c",
"#g c #615542",
"lN c #615740",
"lx c #615743",
"hZ c #615745",
"ls c #615746",
"iq c #615840",
"eD c #615841",
"ej c #615941",
"gu c #615946",
"#L c #615a48",
"hp c #615b4c",
"dg c #615b4d",
"e. c #615c4f",
"e6 c #616b4d",
"gC c #616b4e",
"ir c #625743",
"bU c #625843",
"#q c #625844",
"eF c #625845",
"lb c #625846",
"ka c #625943",
"k0 c #625a4a",
"hE c #625b4d",
"aW c #625c4d",
"k3 c #625c4e",
".2 c #625d4f",
"kN c #625d50",
"kM c #625f53",
"ko c #62694f",
"gS c #626c4f",
"gO c #635943",
"mW c #635945",
"bS c #635a43",
"b0 c #635a44",
"dK c #635a4b",
"j8 c #635b46",
"k5 c #635b4b",
"k7 c #635c4b",
"jb c #635c4c",
"dq c #635d4e",
"a3 c #635d4f",
".X c #635e50",
"di c #635f4e",
"dp c #63604f",
"bF c #636057",
"el c #63674c",
"dj c #636a4f",
"g9 c #636d50",
"fF c #636d52",
"m2 c #645947",
"m4 c #645a47",
"#v c #645b44",
"m3 c #645b45",
"m1 c #645b46",
"la c #645c4d",
"hB c #645e50",
"jc c #645f50",
"dQ c #64654d",
"#n c #655c44",
"mV c #655c48",
"hF c #655c4d",
"bE c #655d4a",
"hI c #655e4d",
"fQ c #655e4e",
"d# c #655e4f",
"hJ c #655f50",
"fR c #656050",
"hD c #656052",
"ho c #656053",
"aF c #656054",
"do c #656e54",
"d7 c #665c48",
"dO c #665c49",
"bQ c #665d46",
"h0 c #665d49",
"bx c #665d4a",
"bq c #665d4b",
"jR c #665e4b",
"dr c #665e4e",
"aR c #665f4f",
"bY c #66604c",
"aS c #666051",
"df c #666052",
"dw c #666152",
".N c #666153",
"hn c #666255",
"lI c #675c48",
"jU c #675d47",
"eJ c #675d4a",
"bZ c #675e48",
"#p c #675e49",
"lp c #675e4a",
"mY c #675e4b",
"d0 c #675f4b",
"ga c #676052",
"dd c #676152",
"dh c #676153",
"d. c #676255",
"b7 c #676257",
"il c #685d49",
"b4 c #685e48",
"dP c #685e49",
"h1 c #685e4a",
"#o c #685f48",
"k# c #685f49",
"#l c #685f4a",
".L c #685f4b",
"#z c #68604a",
"m7 c #68604c",
"du c #686150",
"k8 c #686152",
"mh c #686e55",
"bn c #695f4a",
"eI c #69604b",
"bw c #69604c",
"ed c #69614e",
"bs c #69624d",
"bP c #696251",
"a2 c #696253",
"a1 c #696254",
"c9 c #696558",
"bT c #6a604a",
"b1 c #6a614b",
".M c #6a614d",
"h7 c #6a614e",
"hA c #6a6254",
"bz c #6a634e",
"gA c #6a6351",
"dc c #6a6352",
"hK c #6a6354",
"lX c #6a7157",
"kS c #6a715b",
"lO c #6b604a",
"lR c #6b604b",
"bt c #6b614b",
"gP c #6b614c",
"gw c #6b624c",
"d8 c #6b624d",
"m5 c #6b634d",
"m6 c #6b6350",
"d5 c #6b644e",
"jS c #6b644f",
".V c #6b6451",
"de c #6b6455",
"em c #6b7156",
"bm c #6c624c",
"jB c #6c634d",
"mX c #6c6451",
"#k c #6c6551",
"#u c #6c6552",
"dv c #6c6556",
"aP c #6c675c",
"dR c #6c7358",
"e5 c #6c775b",
"bA c #6d634e",
"gi c #6d644d",
".0 c #6d644e",
".K c #6d644f",
".S c #6d654e",
"h6 c #6d6650",
"lq c #6d6651",
"#y c #6d6653",
"bl c #6e644d",
"bu c #6e6653",
"eH c #6e6754",
"jA c #6f654f",
"bp c #6f6651",
"bB c #6f6654",
"bD c #6f6751",
"gx c #6f6754",
"jC c #6f755d",
"bk c #706750",
"gh c #706851",
"gy c #706852",
".U c #706853",
"jz c #716851",
".R c #716853",
"dJ c #716857",
"mU c #716a58",
"dk c #71785e",
".5 c #726952",
"#f c #726954",
".Q c #726a53",
"ec c #726a54",
"mT c #726d5c",
"l3 c #727765",
"eb c #736a53",
"l# c #736a59",
"jT c #736b54",
"bC c #736b56",
"dx c #736f61",
"bv c #746b56",
"bo c #746c57",
"bj c #746e5b",
"gg c #746f5b",
"kF c #747765",
"mi c #747865",
"kY c #747968",
".T c #756d59",
"d9 c #756e5a",
".1 c #756e5c",
".W c #756f5c",
".I c #75746c",
"bi c #77746a",
"lk c #787c6d",
"iT c #787f69",
".P c #7a725c",
".Z c #7a725d",
"fl c #7a826b",
".4 c #7b735e",
"#9 c #7b7563",
"i4 c #7b757d",
"ea c #7c745f",
"kE c #7d8237",
"gr c #7d8410",
"f5 c #7e840e",
"dI c #7f7865",
"hM c #7f7966",
"hW c #7f8508",
".u c #807366",
"dH c #807a68",
".m c #817467",
"l. c #817a67",
".J c #817b66",
"ih c #818007",
"lG c #818175",
"hL c #827c69",
"cE c #827c70",
"i3 c #828500",
"k9 c #837d6a",
"jO c #838e00",
"jP c #847c99",
"kn c #848545",
"gq c #848b08",
"#A c #857f6c",
"cC c #868173",
"ld c #86867c",
"gL c #868b07",
"#J c #878175",
"aI c #878274",
"bh c #87857b",
"jo c #887f78",
"aJ c #888375",
"gZ c #888d07",
".c c #897d6f",
".6 c #898472",
"cD c #898477",
"fB c #899021",
"j6 c #8a7e83",
"ae c #8a8578",
"af c #8a8579",
"ag c #8a8679",
"dB c #8a897e",
"#I c #8b8678",
"aO c #8b867a",
".O c #8b8773",
"j5 c #8b9300",
".Y c #8c8774",
"kX c #8c893c",
"dl c #8c8f79",
"lD c #8c9300",
"#H c #8d877a",
".3 c #8d8875",
"aM c #8d887d",
"bd c #8d8a7d",
".k c #8f8677",
".s c #8f8777",
"e# c #8f8b78",
"ah c #8f8b7f",
"bc c #8f8c7f",
"lz c #8f9088",
"f4 c #8f930a",
"jX c #8f9500",
"bf c #908e83",
"l2 c #908f88",
"c. c #918d80",
"lF c #918e39",
"cF c #918e85",
".h c #92897a",
"iH c #928c76",
"aN c #928c80",
"b9 c #928d7f",
"bg c #929086",
"gJ c #929507",
"kW c #929700",
"eP c #92978a",
"aH c #938e81",
"#K c #938e82",
"f2 c #939607",
"iA c #949507",
"ii c #949b84",
".y c #958f82",
"#e c #959188",
"lf c #959605",
"hx c #959706",
"bb c #969389",
"lj c #96962b",
".H c #96968e",
"f6 c #969d3a",
"cb c #979284",
"bL c #979386",
"go c #979906",
"ie c #979b06",
"aK c #989589",
".G c #98988f",
"jV c #989991",
"dn c #989b85",
"km c #989c00",
".t c #998978",
".i c #998e7f",
".q c #998f7f",
".w c #999182",
"#d c #999489",
"cI c #999688",
"bK c #99968c",
"fA c #999a0f",
"hU c #999b06",
"kl c #999d00",
".r c #9a8976",
".j c #9a8977",
".l c #9a8a78",
"ad c #9a9688",
"aL c #9a978c",
"et c #9a9b10",
"iB c #9a9d05",
"j4 c #9a9e00",
"ew c #9a9f8b",
".e c #9b8f7e",
".o c #9b9183",
"cJ c #9b9689",
"eZ c #9b9c0a",
"jf c #9b9c97",
"fz c #9b9d07",
"kC c #9b9e00",
"fw c #9b9e06",
"f3 c #9b9f06",
".n c #9c907e",
".f c #9c9283",
"aa c #9c9688",
"bJ c #9c998c",
"c# c #9c998f",
"cH c #9c9a8b",
".C c #9c9d95",
"kV c #9c9f00",
"le c #9d978f",
"#G c #9d9a8b",
"kD c #9d9d00",
"kh c #9d9e00",
"dm c #9d9f8c",
".x c #9e9283",
".a c #9e998c",
"lY c #9e999c",
"ab c #9e9a8c",
"jN c #9ea000",
"kx c #9ea01a",
"l0 c #9f979b",
"gp c #9fa204",
".g c #a09080",
"#c c #a09c92",
"f8 c #a09ea4",
"hy c #a0a100",
"fx c #a0a305",
".p c #a19181",
".b c #a19282",
"a# c #a19c8d",
"bM c #a19e91",
"lC c #a1a000",
"c0 c #a1a096",
"eY c #a1a105",
"ba c #a1a198",
"gX c #a1a202",
".D c #a1a29a",
"jn c #a1a300",
"Qt c #a29b8d",
"c2 c #a2a197",
"lE c #a2a200",
"gK c #a2a302",
"iC c #a2a303",
".B c #a2a39b",
"fW c #a3a000",
"gI c #a3a206",
"c3 c #a3a39b",
"jm c #a3a400",
"gY c #a3a403",
"fy c #a3a404",
"gD c #a4a100",
"fV c #a4a200",
"#b c #a4a296",
"c8 c #a4a297",
"iG c #a4a301",
".F c #a4a59d",
".v c #a59d8e",
"iw c #a5a100",
"hT c #a5a406",
"e0 c #a5a42d",
"hd c #a5a506",
"h# c #a6a100",
"jD c #a6a3a4",
"hO c #a6a400",
"jM c #a6a600",
"jl c #a6a605",
"iZ c #a6a607",
"en c #a6ac9d",
"kw c #a79fa7",
"ca c #a7a495",
"bH c #a7a598",
"c7 c #a7a59b",
"ky c #a7a600",
"i. c #a8a400",
"ce c #a8a495",
"hr c #a8a500",
"#F c #a8a595",
"bI c #a8a698",
"iF c #a8a700",
"hV c #a8a701",
".E c #a8aaa2",
".# c #a9a093",
"iV c #a9a500",
"#E c #a9a697",
"fU c #a9a70e",
"c5 c #a9a79d",
"l1 c #aaa2a9",
"ac c #aaa799",
"#a c #aaa79b",
"iu c #aaa8a8",
"if c #aaa902",
"c6 c #aaaa9f",
".A c #aaaca5",
".d c #ab9e8d",
"i# c #aba800",
"ig c #aba901",
"cG c #aba99b",
"lB c #aca932",
"kT c #ada5ac",
"bO c #ada99c",
"gW c #adaa05",
"iU c #adaaa9",
"kk c #adab02",
"cc c #adab9c",
".9 c #adaba1",
"kB c #adac01",
"kf c #aea9ad",
"#D c #aeaa9c",
"#C c #aeab9e",
"c1 c #aeafa6",
"cB c #afaea5",
"dA c #afafa2",
"jW c #b0aaa9",
"jg c #b0ab44",
"bN c #b0ada1",
"dz c #b0afa2",
"## c #b1aea3",
"lZ c #b2a9b3",
"jY c #b2ae01",
"dD c #b2b1a3",
"lA c #b3aab4",
"gl c #b3ac00",
"iD c #b3af04",
"ki c #b4b001",
"i2 c #b4b100",
"lg c #b4b104",
"cd c #b4b2a5",
"dE c #b4b3a7",
"c4 c #b4b3a9",
"dG c #b4b4a8",
".z c #b4b7b1",
"i1 c #b5b205",
"dy c #b5b5aa",
"kz c #b6b101",
"jL c #b6b205",
"i0 c #b6b306",
"fp c #b6b547",
"fq c #b7b005",
"iW c #b7b202",
"iv c #b7b231",
"jF c #b7b302",
"gn c #b7b304",
"dF c #b7b8ad",
"dX c #b7b9ac",
"jE c #b8b31c",
"iE c #b8b405",
"#. c #b8b7ae",
"lh c #b9b401",
"jK c #b9b404",
"aG c #b9bab1",
"j3 c #bab504",
"fC c #babd74",
"jJ c #bbb605",
"a. c #bbbcb2",
"kU c #bcb702",
"b8 c #bcbdb5",
"dC c #bdbeb2",
"fn c #bdc096",
"eU c #beb605",
"hP c #bfb602",
"kg c #c0bc87",
"fo c #c0c071",
"cZ c #c0c2bb",
"es c #c1b902",
"#B c #c4c6bd",
"gE c #c5b901",
".8 c #c5c7bf",
"bG c #c5c7c0",
"ic c #c7bd05",
"eq c #c8bf02",
"jh c #c9c204",
"jG c #cabf03",
"fE c #ccd2c6",
"ix c #d1c604",
"eT c #d1cfc9",
"hX c #d1d1c4",
".7 c #d1d4ce",
"jj c #d2c705",
"iy c #d2c806",
"f1 c #d3c600",
"jZ c #d3c804",
"eQ c #d3d6d1",
"hs c #d4c503",
"hR c #d4c905",
"ib c #d5ca06",
"ji c #d6c904",
"g0 c #d6dacf",
"e4 c #d7dad3",
"jk c #d8ca04",
"hb c #d8cc06",
"hu c #d9cb05",
"kj c #dac903",
"li c #daca02",
"he c #dadccf",
"iX c #dbcd05",
"ep c #dbd7be",
"hQ c #dccc04",
"j0 c #ddce05",
"fv c #ddd000",
"hN c #dfe3d6",
"dU c #dfe3d9",
"gU c #e0d004",
"f7 c #e0e3c9",
"fm c #e1e2dc",
"hv c #e2d203",
"ht c #e2d206",
"h9 c #e2e5de",
"jH c #e3d304",
"gM c #e3e4dc",
"ha c #e4d305",
"j1 c #e5d604",
"ia c #e6d705",
"gs c #e6e7e1",
"eu c #e8e9ce",
"dV c #e8ebd1",
"id c #e9d703",
"dS c #e9ebe8",
"fT c #eaebe3",
"hq c #ebefe4",
"gF c #eedd06",
"gT c #eef0e3",
"h. c #eef0e4",
"dT c #efeaf9",
"kA c #f0dc02",
"gm c #f0dd05",
"gk c #f0f1e7",
"er c #f4e200",
"gV c #f5e004",
"jI c #f7e303",
"dW c #f7f1ff",
"fD c #f7f6ef",
"eo c #f8f8fa",
"j2 c #f9e503",
"ev c #f9f9f9",
"hS c #fae402",
"e1 c #fbf39d",
"e3 c #fbfbfb",
"eS c #fcfdff",
"fZ c #ffd500",
"gH c #ffd700",
"fY c #ffd800",
"ft c #ffd900",
"fu c #ffda00",
"f0 c #ffdb00",
"eW c #ffdc00",
"eX c #ffde00",
"fs c #ffdf00",
"hw c #ffe100",
"hc c #ffe200",
"iz c #ffe300",
"gG c #ffe400",
"iY c #ffe600",
"eV c #ffe800",
"fX c #ffe900",
"fr c #ffeb00",
"e2 c #fffffc",
"eR c #ffffff",
"Qt.#.a.b.c.d.e.f.g.h.i.j.k.l.m.d.n.o.p.h.q.r.s.t.u.v.n.w.x.y.z.A.B.C.D.E.F.G.H.I",
".J.K.L.M.N.O.P.Q.R.S.T.U.V.W.X.Y.Z.Q.R.0.T.R.V.1.2.3.4.5.R.6.7.8.9#.###a#b#c#d#e",
"#f#g#h#i#j#k#l#m#n#o#p#q#r#s#t#u#l#m#v#o#p#q#w#s#x#y#z#m#v#A#B#C#D#E#F#G#H#I#J#K",
"#L#M#N#O#P#Q#R#S#T#U#V#W#X#Y#Z#0#R#1#2#3#4#W#X#5#6#7#R#1#8#9a.a#aaabacadaeafagah",
"aiajakalamanaoapaqarasatauauavawaoapalaxayazauauaAaBaCaDaEaFaGaHaIaJaKaLaMaNaOaP",
"aQaRaSaTaUaVaWaXaYaZa0a1a2a3a4aVaWa5aYa6a7a1a2a3a8aVaWa9b.b#babbbcbdbebfbgbgbhbi",
"bjbkblbmbnbobp.Lbqbrbs.Qbt.0bubvbpbwbxbybz.QbtbAbBbCbDbwbEbFbGbHbIbJbKbHbLbMbNbO",
"bPbQbRbSbnbTbUbVbWbXbYbZbRb0b1bTbUb2bWb3bYb4b5bSb1bTbUb6bWb7b8b9adc.c#cacbcccdce",
"cfcgchcicjcgckclcmcncocgcpcqcrcsckclctcucocvcpcwcxcyczclctcAcBcCcDcEcFcGcHcIcJ#E",
"cKcLaoaucMcNcOcPaucQaBcRcScScTaocLcUaucQcVcRcScScTcWcLcXcucYcZc0c1c2c3c4c5c6c7c8",
"c9d.d#dadbdcdddedfdgdhdidjdkdldmdndodpdgdhdqdrdsdtdudddvdwdxdydzdzdAdBdCdDdEdFdG",
"dHdIdJdKdLbsdMdNdOdPdQdRdSdTdUdVdWdXdYdZd0d1d2d3d4d5d6dNd7d8d9#f#u.We.e#eaebec.S",
"edeeefegeheiejekelemeneoepeqereseteuevewexeyezeAeBeCeDeEbUbt#peF#w#seGeHeI#m#v#o",
"eJeKeLeMeNeOePeQeReSeTeUeVeWeXereYeZe0e1e2e3e4e5e6e7e8e9f.f##Vfafbfcfdfefffg#2fh",
"fiazfjfkflfmfnfofpfqfrfsfteWfufvfwfxfyfzfAfBfCfDfEfFfdfGfHfIfJfKcSfLfMawfNaEalfO",
"fPfQfRfSfTfUfVfWfXeXftfYfZfZf0f1f2f2f3fxfxf4f5f6f7f8f9cfdLg.g#gagadggbgcgdgegfcP",
"ggghgigjgkfVglgmfYfZftfZfZfZftgnf2f2gofxfxfxgpgqgrgsgtgubxgvd5ebgwbAgxbCgybwbxgz",
"gAbQgBgCgkgDgEgFgGeWfZfZfZfZgHgIf2f2gJgogKgKgKgKgLgMgNb6bWb3bY#ob5gOgPbTbUb6bW#Y",
"gQgRfggSgTfVgUgFgVgGgHfYfZfZgHgWf2f2f2f2gXgKgKgYgZg0g1g2g3cucocgg4cwg5cgg6e9g3cu",
"g7aug8g9h.h#hagFhbhcfsfYfZfZgHhdf2f2gJf2gXgKgKgKgZhehfcPhghhaBhihjaohkaphlcPhghm",
"hnhohpg9hqhrhshthuhvhweXf0f0fteYf2f2f2hxhygKgKgKgqhehzhAhBhChDhEhFhGhHhIhJhKhBhC",
"hLhMdJgShNhOhPhthQhRhShcfsf0fthTf2f2f2hUhVgKgKgKhWhXhYhZh0h1d0h2h3h4h5h6dMhZh0h1",
"h7eeh8gCh9i.i#iahQibicidhweXfthTgJf2iegYifiggKgKihiiijikbUbtiliminioip#8iqikirbt",
"eJd6isitiuiviwixhQhQhRiyhSizizhTiAiBiCiDiEiEiFiGiHiIiJcpiKiLffiMiNiOiPiQe9cpf.iR",
"iSfK#6fHiTiUiViWiXhQhuiyiyiYiziZiAgoi0i1iEi1i2i3i4i5cMi6i7fKazfLi8i9j.j#cTi6cMfK",
"jajbjcjdjejfjgfWjhjihQjjjkjkgGjlf2iEiEiEiEjmjnjojpjqjrjs#xjt#0jujvhCjwjxjrcfjyjt",
".WjzjAjBdPjCjDjEjFjGhQhQhQjHjIjJiEjKiEjLjMjNjOjPjQbCgy.MjRgvjSjTbm.0gxbC.R.Mbqgz",
"gAjUb5bSbnbTjVjWjXjYjZj0j1j2j2j3iEjKjLigj4j5j6j7j8bTbUb6j9k.bYk#b5bSgPbTkab6j9b3",
"kbe8fgkckde8kekfkgkhkikjj2j2j2jKiEiEkkklkmknkokpcxcl#scpg3kq#0e8fgcwiLclkrcpg3hg",
"kscSktaokuapcukvkwkxkykzkAj2jIjKiEkBkCkDkEkFkGaoazaDi8kHcNkIanaukJkKazaDi8kHcNkL",
"kMkNkOkPkQfQa3kRkSkTjXjYkUkAjIiEigkVkWkXkYkZk0k1k2jba3gak3k4.Xgdk5k1k6k7dqk8k3k4",
"k9l.l#ladLjSd2lblcldlelflglhlijNkCklljlklllmlnlodLh6kdlblpbnd0h2lnloh5lqkdlblpbn",
"h7lrlsltehlulvlwlxlylzlAlBlClDlEkWlFlGlHlIimlJlKlLlMlNikbUlOiliminlKlPlQlNiklxlR",
"lpd6eLeMlSlTlUlUlVcrlWlXlYlZl0l1l2l3l4l5l6l7iNiOl8lTe9lUiKiRl9l7iNiOiPlTm.lUm#ma",
"mbmc#ZcMa6j#mdaqkufOg3memfmgmhmimjmkmlfOmmhjapmnmompkueNmqfOfKmrapmnmsmpkueNmqfO",
"mtgeaVmumvmwmxmymzmAmBmCjdmDmEmFmGk1kPfMmHdamImJmKmwmLmykPmMmNmOmPmJmQmwmLmymRmS",
"mTmU#lmVmWmXmYmamZfkm0h6gwm1m2mXd0mamZfkm0h6gwm3m4.Vd0d1mZfjm0h6m5m3m4m6m7d1mZfj",
"#jd2m8m9#Mn.j9n##Onanbncndnenfn.j9n#ngnanhncndnenfn.nin#ngnjnhncnkm9nf#snlnmngnj",
"nncNapnonpnqakapnrnsntnunqnvnwnqakapcPcQnxnunqnonwnqakkJcPcQnyeNnqnonznqakkJcPnA",
"nBnCnDnDnEnFnGnHnInJnKnLnMnNnOnFnGnHnInPnQnLnMnNnOnRnGnHnInSnQnLnMnGnOnRnNnHnInT"};
