/* XPM */
static char *dummy[]={
"40 40 286 2",
".j c #00a15e",
"cz c #202032",
"cA c #272641",
"cq c #281613",
"cl c #282735",
"bU c #2a1714",
"cy c #2f2e35",
"bZ c #301b19",
"cg c #311f1c",
"b9 c #313133",
"cp c #321d1b",
"b2 c #32314a",
"Qt c #32a67a",
"aH c #331c1b",
"#v c #333028",
"cs c #333241",
"aW c #341d1c",
"aG c #341f1d",
"ba c #351e1d",
"b5 c #35211e",
"cc c #353229",
"a8 c #361f1e",
"#0 c #36332b",
"bp c #37201e",
"#B c #38352d",
"#y c #39362d",
".M c #393730",
"cd c #39373c",
"bV c #3a2421",
".U c #3a372f",
"aQ c #3b2321",
"ch c #3b2522",
"b6 c #3c2422",
"bP c #3c2522",
"bC c #3d2523",
"ci c #3d2623",
"ca c #3e2724",
"#A c #3e3c32",
"aF c #3f2c29",
"#C c #3f3c33",
"aw c #402927",
"bi c #412726",
"am c #422a28",
"b4 c #42322f",
".h c #424036",
".Z c #424037",
"ad c #442928",
".G c #444238",
"#i c #444239",
"#u c #44423a",
"bH c #452c2a",
".i c #45433b",
"br c #462d2b",
"bW c #464355",
"bQ c #472d2b",
".2 c #47433c",
"#R c #47443c",
"#T c #47443e",
".z c #47453d",
"by c #492e2c",
"#z c #49483b",
"#b c #49483f",
"bz c #4a2f2d",
"bE c #4a4552",
"#k c #4a4740",
".I c #4a4741",
"## c #4a4840",
"bj c #4b302e",
"bu c #4b4941",
".N c #4b4a42",
"bb c #4c2f2e",
"bI c #4c302e",
"b. c #4c312f",
".L c #4c493f",
"#. c #4c4a41",
"#p c #4c4b44",
".F c #4d4a43",
"cj c #4e302f",
"b0 c #4e3130",
"bJ c #4e3230",
"bO c #4e3a38",
".4 c #4e4d43",
"bc c #4f3331",
".s c #4f4d44",
"#I c #4f4d46",
".O c #4f4e46",
"a2 c #503231",
".v c #504d46",
".J c #504e47",
"#W c #504e4b",
"bd c #513331",
".D c #514e46",
"aU c #514f48",
"bR c #523432",
"a9 c #523433",
"bv c #524e5e",
"#U c #524f48",
"#F c #525047",
"#D c #525048",
"bq c #533533",
"aD c #534f5e",
"aO c #534f60",
".c c #53514a",
"ae c #543231",
"aV c #545062",
".E c #545149",
".a c #54524b",
"ck c #54534c",
"a0 c #555163",
".t c #55534a",
".X c #55544d",
"b7 c #563635",
"aX c #563836",
"a6 c #565264",
"a. c #56535d",
".A c #56544c",
".5 c #56554b",
"aR c #573736",
"#9 c #57535b",
".Y c #57554e",
"#t c #575649",
"#n c #57564b",
".P c #58554f",
"#3 c #58555a",
".H c #58574f",
"cB c #585766",
"ax c #593534",
"a3 c #593837",
"co c #594a48",
".# c #595650",
"aI c #5a3836",
"bk c #5a3837",
"#X c #5a5664",
"#s c #5a5850",
"#O c #5a5852",
"ct c #5a5868",
".y c #5b5851",
"a# c #5b5965",
"#c c #5b5a51",
"an c #5c3837",
".R c #5c5a54",
"ag c #5c5a60",
".3 c #5c5c53",
"bx c #5d4d4b",
"bD c #5e3a39",
"c. c #5f5d6a",
".C c #5f5e56",
".b c #5f5e57",
"aC c #5f5e5b",
"#Y c #605d6b",
"bM c #605e6d",
"bK c #613b3a",
"aY c #613c3b",
"#4 c #615e6d",
".g c #615f58",
".k c #615f59",
"cb c #615f5a",
"#o c #61605b",
"a4 c #623b3a",
"be c #623c3c",
".r c #626059",
"bs c #633c3b",
"bl c #653e3d",
"#l c #65635b",
"af c #65635c",
".l c #65635f",
"#r c #65645a",
"ay c #663d3d",
"#a c #66645c",
".B c #66655d",
".d c #66655f",
"bt c #673e3e",
"ap c #673f3e",
"#S c #67665e",
".u c #67aa97",
"bG c #685a59",
"#P c #68665e",
".e c #68665f",
"#2 c #686660",
"aA c #693f3f",
".o c #696761",
"aN c #696762",
"#V c #696860",
".S c #696863",
"aB c #6a4040",
"ao c #6a4140",
"av c #6a5b5a",
"bL c #6a6863",
".w c #6a6962",
"#L c #6a6964",
"cx c #6a6a66",
"aM c #6b4041",
"#x c #6b6964",
"aq c #6b6966",
"#h c #6b6a66",
"bf c #6c4141",
".p c #6c6a63",
"#j c #6c6b67",
"az c #6d4242",
"bA c #6d6b78",
"#g c #6d6d69",
"aT c #6e4242",
"aS c #6e4343",
"a5 c #6e6d64",
".K c #6e6d65",
"aJ c #6f4443",
"#m c #6f6d63",
"b1 c #6f6d66",
"#q c #6f6e66",
"aK c #704444",
"#Q c #706f65",
"b8 c #706f67",
"aL c #714645",
"ar c #716e7b",
"#M c #716f68",
".6 c #717069",
"#1 c #71706a",
".x c #74736c",
"#w c #75746c",
".Q c #77746f",
"au c #777ea7",
".f c #787670",
"#E c #787672",
"aZ c #797671",
"cr c #797973",
".7 c #7a7a74",
"#K c #7b7973",
"#J c #7b7a72",
"#f c #7b7a75",
".V c #7b7a76",
".9 c #7c7b76",
"#Z c #7c7b87",
"#8 c #7c7c7b",
".q c #7d7c75",
"bm c #7d7c77",
"ce c #7d7e83",
"#N c #7e7d76",
".0 c #7e7d77",
"bn c #81807c",
".W c #82827e",
".1 c #86857f",
"cm c #88888d",
"#d c #898883",
"#e c #8c8b86",
"bY c #8c94af",
".n c #8d8c88",
"ah c #8e8c93",
"#H c #8e8d89",
".m c #8f8f8b",
"#G c #90908c",
"cf c #909599",
"bS c #919196",
"bg c #949491",
".8 c #959593",
".T c #969693",
"bF c #97979a",
"at c #999bb3",
"cu c #999c9a",
"cw c #999e9b",
"aa c #a09da5",
"b3 c #a2a6a1",
"bN c #a4a6a5",
"c# c #a6aba6",
"bw c #a8a9a9",
"bX c #a9aca9",
"bB c #aaacac",
"bT c #aaaeae",
"cv c #aeb2ac",
"cn c #afb3ad",
"ac c #c0c5d2",
"al c #c9cbce",
"ai c #d2d1d4",
"bh c #d8d7df",
"#7 c #dcdae0",
"as c #dcdce0",
"bo c #dfdee2",
"aE c #e3e3e8",
"a1 c #e3e3eb",
"a7 c #e4e4eb",
"b# c #e6e5ec",
"aP c #e7e7ed",
"#5 c #e9e8ea",
"#6 c #f6f8ef",
"ab c #f9f9f8",
"ak c #fffefd",
"aj c #ffffff",
"QtQtQtQtQtQtQtQtQtQtQtQtQtQtQtQtQtQtQtQtQtQtQtQtQtQtQtQtQtQt.#.a.b.c.d.e.f.g.h.i",
"QtQtQtQt.jQtQtQtQtQtQtQt.jQtQtQtQtQtQtQt.jQtQtQtQtQtQtQt.jQt.k.l.m.n.o.p.q.r.s.t",
"Qt.jQtQtQtQtQtQtQt.jQtQtQt.uQtQtQt.jQtQtQtQtQtQtQt.jQtQtQt.u.v.w.x.y.z.A.B.C.D.E",
"QtQtQtQtQt.jQtQt.u.uQtQtQtQtQtQtQtQtQtQtQt.jQtQt.u.uQtQtQtQt.F.G.H.I.#.w.J.K.L.E",
"QtQtQtQtQtQtQt.j.u.uQtQtQtQtQtQtQtQtQtQtQtQtQt.j.u.uQtQtQtQt.M.N.O.P.Q.R.S.T.l.U",
"QtQtQtQtQtQtQtQtQtQtQtQtQtQtQt.uQtQtQtQtQtQtQtQtQtQtQtQtQtQt.V.W.#.X.Y.Z.0.1.a.2",
"QtQt.u.uQtQtQtQtQtQtQtQtQtQtQtQtQtQt.u.uQtQtQtQtQtQtQtQtQtQt.3.4.5.6.7.8.9#.###a",
"QtQt.u.uQtQtQtQtQtQtQtQtQtQtQt.jQtQt.u.uQtQtQtQtQtQtQtQtQtQt#b#c#d#e#f#g#h#i#j#k",
"QtQtQtQtQt.jQt.uQtQt.jQtQtQtQtQtQtQtQtQtQt.jQt.uQtQt.jQtQtQt.G#l.6#m#n#o#p#o#q#r",
"QtQtQtQtQtQtQtQtQtQtQtQtQtQtQtQtQtQtQtQtQtQtQtQtQtQtQtQtQtQt.Z.K#s#t.h#u#v.p#w#x",
"Qt.jQtQtQt.uQtQtQt.jQtQtQtQtQtQtQt.jQtQt.#.a.b.c.d.e.f.g.h.i#y#u#i#z#A#B#C#D.R#E",
".u.uQtQtQtQtQtQtQtQtQtQtQt.jQtQt.u.uQtQt.k.l.m.n.o.p.q.r.s.t.Z#F#G#H#I.J#J#K.P#L",
".u.uQtQtQtQtQtQtQtQtQtQtQtQtQt.j.u.uQtQt.v.w.x.y.z.A.B.C.D.E.a#M#N#O#C#F#P#Q.2#.",
"QtQtQtQtQtQtQt.uQtQtQtQtQtQtQtQtQtQtQtQt.F.G.H.I.#.w.J.K.L.E#R.H#S#T#U#V#W#X#Y#Z",
"QtQtQtQtQtQtQtQtQtQt.u.uQtQtQtQtQtQtQtQt.M.N.O.P.Q.R.S.T.l.U#0#1#V#O#2#3#4#5#6#7",
"QtQtQtQtQtQtQt.jQtQt.u.uQtQtQtQtQtQtQtQt.V.W.#.X.Y.Z.0.1.a.2.V#8#9a.a#aaabacadae",
"QtQt.jQtQtQtQtQtQtQtQtQtQt.jQt.uQtQt.jQt.3.4.5.6.7.8.9#.##afagahaiajakalamanaoap",
"QtQtQtQtQtQtQtQtQtQtQtQtQtQtQtQtQtQtQtQt#b#c#d#e#f#g#h#iaqarasatauavawaxayazaAaB",
"Qt.jQtQtQtQtQtQtQt.jQtQtQt.uQtQtQt.jQtQt.G#l.6#m#n#o#paCaDaEaFaGaHaIapazaJaKaLaM",
"QtQtQtQtQt.jQtQt.u.uQtQtQtQtQtQtQtQtQtQt.Z.K#s#t.h#u#vaNaOaPaGaQaRaSaLaTaLaLaLaz",
"QtQtQtQtQtQtQt.j.u.u.#.a.b.c.d.e.f.g.h.i#y#u#i#z#A#B#CaUaVaPaWadaXaYaBaKaLaLaLaS",
"QtQtQtQtQtQtQtQtQtQt.k.l.m.n.o.p.q.r.s.t.Z#F#G#H#I.J#JaZa0a1aGa2aXa3a4aSaJaLaLaS",
"QtQt.u.uQtQtQtQtQtQt.v.w.x.y.z.A.B.C.D.E.a#M#N#O#C#F#Pa5a6a7a8a9aXb.aYayazaLaLaS",
"QtQt.u.uQtQtQtQtQtQt.F.G.H.I.#.w.J.K.L.E#R.H#S#T#U#V.J#qa6b#babba9bcbdbeapaBbfaz",
"QtQtQtQtQt.jQt.uQtQt.M.N.O.P.Q.R.S.T.l.U#0#1#V#O#2#O.Sbga0bhaWbia9a2bjbkaYblaBaz",
"QtQtQtQtQtQtQtQtQtQt.V.W.#.X.Y.Z.0.1.a.2.V.W.#.X.Y.ZbmbnaVboa8bpbqa2b.brbqbsbtaz",
"Qt.jQtQtQt.uQtQtQt.j.3.4.5.6.7.8.9#.###a.3.4.5.6.7.8#fbubvbwbxaWbya2a2bjbzbkbsbs",
".u.uQtQtQtQtQtQtQtQt#b#c#d#e#f#g#h#i#j#k#b#c#d#e#f#g#h#i#hbAbBa8bCbca2bcbzbzbDbs",
".u.uQtQtQtQtQtQtQtQt.G#l.6#m#n#o#p#o#q#r.G#l.6#m#n#o#p#o#qbEbFbGaHbHbIa2bzbJbJbK",
"QtQtQtQtQtQtQt.uQtQt.Z.K#s#t.h#u#v.p#w#x.Z.K#s#t.h#u#v.p#wbLbMbNbObPbQa2a2a2bRa3",
".#.a.b.c.d.e.f.g.h.i#y#u#i#z#A#B#C#D.R#E#y#u#i#z#A#B#C#D.R#E#ybSbTbUbVbza2bRa3a3",
".k.l.m.n.o.p.q.r.s.t.Z#F#G#H#I.J#J#K.#.S.Z#F#G#H#I.J#J#K.#.S.ZbWbXbYbZbVb0a3a3a3",
".v.w.x.y.z.A.B.C.D.E.a#M#N#O#C#F#P#Q.2#..a#M#N#O#C#F#P#Q.2#..ab1b2b3b4b5b6b7a3a3",
".F.G.H.I.#.w.J.K.L.E#R.H#S#T#U#V.Jb8#y#i#R.H#S#T#U#V.Jb8#y#i#R.Hb9c.c#bUbVcab7a3",
".M.N.O.P.Q.R.S.T.l.U#0#1#V#O#2#O.S.Tcbcc#0#1#V#O#2#O.S.Tcbcc#0#1#Vcdcecfcgchcicj",
".V.W.#.X.Y.Z.0.1.a.2.V.W.#.X.Y.Z.0.1.a.2.V.W.#.X.Y.Z.0.1.a.2.V.W.#ckclcmcncocpcq",
".3.4.5.6.7.8.9#.###a.3.4.5.6.7.8.9#.###a.3.4.5.6.7.8.9#.###a.3.4.5.6crcsctcucvcw",
"#b#c#d#e#f#g#h#i#j#k#b#c#d#e#f#g#h#i#j#k#b#c#d#e#f#g#h#i#j#k#b#c#d#e#fcxcyczcAcB",
".G#l.6#m#n#o#p#o#q#r.G#l.6#m#n#o#p#o#q#r.G#l.6#m#n#o#p#o#q#r.G#l.6#m#n#o#p#o#q#r",
".Z.K#s#t.h#u#v.p#w#x.Z.K#s#t.h#u#v.p#w#x.Z.K#s#t.h#u#v.p#w#x.Z.K#s#t.h#u#v.p#w#x"};
