/* XPM */
static char *dummy[]={
"40 40 273 2",
".k c #00a15e",
"bV c #1e1d32",
"bs c #1f1d37",
"bL c #1f1e39",
"bx c #22203c",
"bJ c #24130f",
"bl c #24223e",
"bv c #251211",
"cn c #27253b",
"be c #272641",
"bN c #281512",
"cj c #282640",
"b. c #282641",
".h c #29231d",
"b5 c #292843",
".C c #2a251f",
".t c #2a2620",
"bP c #2a2842",
"b2 c #2b1715",
"c# c #2b2944",
"bc c #2c1d1a",
"bS c #2d1a17",
"aR c #2d1d1a",
"aY c #2d1e1b",
"bj c #2d1f1c",
"ce c #2d2b45",
"bM c #2e1b18",
"a2 c #2e1e1b",
"bY c #2f1c19",
".S c #2f2c26",
"bI c #301b19",
"aJ c #30221f",
"aS c #302320",
"#4 c #302b25",
"#C c #302b26",
".K c #302c26",
"bB c #311d1a",
"a9 c #311e1b",
"aX c #311f1d",
".2 c #312d27",
"## c #312d28",
"a7 c #312f48",
"bA c #321d1b",
"aG c #32201d",
"a8 c #32201e",
"bh c #32211d",
"aj c #322e2a",
"bQ c #322f2a",
".i c #32a67a",
"aH c #33201d",
"aQ c #33211e",
"aI c #33211f",
"#z c #333028",
"bp c #341f1d",
"bH c #34201d",
"aw c #34211e",
"ay c #34221f",
"bo c #35211e",
"al c #35211f",
"ax c #35221f",
"bb c #36221f",
"am c #362421",
"#J c #36332c",
"bD c #36344a",
"a5 c #372220",
"bi c #372320",
"aW c #372421",
".J c #37342a",
"bR c #382220",
"bX c #382320",
"bt c #382321",
"bz c #382421",
"#. c #38342c",
".B c #38352b",
".L c #38352d",
"a4 c #38354c",
"bu c #39221f",
"az c #392926",
"#h c #39352e",
"a1 c #3a2422",
"ab c #3a2a27",
"#s c #3a372f",
"#F c #3b3930",
"bm c #3c2623",
"a0 c #3c394e",
".s c #3c3a2f",
"aP c #3d2724",
"#I c #3d3a32",
"aU c #3d3a4f",
"bW c #3d3b33",
"bn c #3e2825",
"#H c #3e3c31",
".E c #3e3c33",
"#y c #3e3c34",
"bG c #3f2725",
".D c #3f3b33",
"#3 c #3f3c32",
"bF c #402826",
"aA c #403230",
"b1 c #403e34",
"cf c #403f36",
"aa c #412726",
"#j c #413d38",
"b7 c #413e34",
"#A c #413e35",
".x c #413e36",
".Y c #414037",
"#x c #424036",
"#Q c #434138",
".u c #444138",
".w c #444239",
"#G c #464539",
"#8 c #473f50",
"af c #474251",
"ba c #47433d",
"#0 c #474442",
"by c #48443b",
".g c #48453b",
"cm c #484559",
"aF c #492d2b",
"aN c #494655",
"#b c #4a463c",
".b c #4a483a",
"#R c #4a483e",
"av c #4b2e2c",
"bZ c #4b4240",
"#9 c #4b464d",
"aV c #4b4a41",
"b9 c #4c3f3d",
".1 c #4c4941",
"#p c #4c4b44",
".4 c #4d4a40",
"bg c #4d4a43",
"b8 c #4d4c43",
".a c #4e4c3e",
".F c #4e4c42",
"#N c #4e4d45",
"br c #4f4b5d",
"#t c #504e45",
".H c #504e46",
"#E c #504e47",
"ai c #514d53",
"#w c #514f43",
"#1 c #514f48",
"#v c #515046",
"#V c #525047",
"bU c #525060",
"an c #534542",
"at c #534f61",
"ak c #543231",
"aK c #544946",
".n c #545247",
"b3 c #554b4a",
".y c #55534a",
".G c #55534c",
".W c #55544d",
"cc c #564b4a",
"#q c #56534e",
".# c #565449",
"aO c #56544a",
".X c #56554e",
"#l c #57554b",
"bT c #58504f",
"aE c #585465",
".r c #58564d",
"#B c #59574e",
".v c #59584e",
".V c #595851",
"#o c #595853",
".o c #5a5850",
"#Z c #5b5664",
"#U c #5b5952",
"b# c #5b5a51",
"#i c #5b5a55",
".c c #5c5a4f",
"#n c #5c5b51",
"#r c #5d5b53",
".A c #5d5c52",
".m c #5e5c53",
"ag c #605d68",
"as c #625d6e",
".f c #625f57",
".e c #626057",
".R c #62605c",
"a. c #62615a",
"bE c #636157",
"bf c #63625a",
".P c #64625c",
".z c #64635b",
".l c #65635a",
"#c c #65645a",
"#k c #666459",
"cl c #666571",
"b0 c #666671",
"#a c #67665b",
"ci c #676671",
".j c #67aa97",
"ah c #68656e",
"#K c #68665e",
".M c #686660",
"ca c #686762",
"a# c #696863",
".p c #6a6862",
"b4 c #6a6973",
"#S c #6c6a64",
"#W c #6c6b60",
".5 c #6c6b63",
"cb c #6c6b65",
"#u c #6d6b62",
"#g c #6d6c68",
"ck c #6d6d67",
"au c #6d6d68",
".I c #6e6d65",
"b6 c #6f6e66",
"c. c #6f6e77",
"#2 c #706f67",
".7 c #71706a",
".d c #737169",
".O c #74736d",
"#f c #757571",
"cd c #76777d",
"#P c #77756f",
".3 c #77776c",
"Qt c #79776f",
"#T c #797870",
".6 c #797872",
"bw c #797c77",
"aB c #797ea6",
"bq c #797f8a",
".U c #7a7a77",
"#m c #7b7971",
"#O c #7b7a72",
".9 c #7b7b76",
"bC c #7b8285",
".Z c #7e7d77",
".T c #81807d",
"bO c #818884",
".q c #828179",
"#D c #84827d",
".N c #85837f",
"#Y c #858490",
".0 c #878680",
"bk c #888694",
"co c #888783",
"ch c #898a8e",
"#X c #8b8a94",
".8 c #8d8d8b",
"ae c #8e8c97",
"#M c #8e8d89",
"#e c #8f8e8b",
"#L c #91908d",
"bK c #959886",
".Q c #969693",
"#d c #979691",
"aM c #a3a4a0",
"cg c #a3a8a3",
"ao c #a5b3df",
"#7 c #acacb4",
"bd c #c5c6cd",
"aD c #c9c7ce",
"aL c #cacbda",
"a6 c #cfcfd7",
"ac c #d0d2e1",
"a3 c #d1d0d7",
"#5 c #d2d3e2",
"ar c #d4d3d7",
"aZ c #dcdce1",
"aT c #e1e1e5",
"aC c #f0f1f5",
"ad c #f9f9f9",
"aq c #fbfbfb",
"#6 c #fbfff5",
"ap c #fcfcfe",
"Qt.#.a.b.c.d.e.f.g.h.i.i.i.i.i.i.i.i.i.i.i.i.i.i.i.i.i.i.i.i.i.j.i.i.k.i.i.i.i.i",
".l.m.e.n.o.p.q.r.s.t.i.i.k.i.i.i.i.i.i.i.k.i.i.i.i.i.i.i.k.i.i.i.i.i.i.i.i.i.i.i",
".u.v.m.w.x.y.z.A.B.C.i.i.i.j.i.i.i.k.i.i.i.i.i.i.i.k.i.i.i.j.i.i.i.k.i.i.i.i.i.i",
".D.E.F.x.G.p.H.I.J.K.i.i.i.i.i.i.i.i.i.i.i.k.i.i.j.j.i.i.i.i.i.i.i.i.i.i.i.k.i.i",
".L.M.M.N.O.P.p.Q.R.S.i.i.i.i.i.i.i.i.i.i.i.i.i.k.j.j.i.i.i.i.i.i.i.i.i.i.i.i.i.k",
".T.U.V.W.X.Y.Z.0.1.2.i.i.i.i.i.j.i.i.i.i.i.i.i.i.i.i.i.i.i.i.i.j.i.i.i.i.i.i.i.i",
".3.4.5.6.7.8.9.1#.##.i.i.i.i.i.i.i.i.j.j.i.i.i.i.i.i.i.i.i.i.i.i.i.i.j.j.i.i.i.i",
"#a#b#c#d#e#f#g#h#i#j.i.i.i.i.i.k.i.i.j.j.i.i.i.i.i.i.i.i.i.i.i.k.i.i.j.j.i.i.i.i",
"#k.F#l#m#n#o#p#q#r#s.k.i.i.i.i.i.i.i.i.i.i.k.i.j.i.i.k.i.i.i.i.i.i.i.i.i.i.k.i.j",
"#t#u#v#w#x#y#z#A#B#C.i.i.i.i.i.i.i.i.i.i.i.i.i.i.i.i.i.i.i.i.i.i.i.i.i.i.i.i.i.i",
"#D#E#F#G#H#..E#I.w#JQt.#.a.b.c.d.e.f.g.h.i.j.i.i.i.k.i.i.i.i.i.i.i.k.i.i.i.j.i.i",
"#K.R#L#M#N.H#O#P#Q#y.l.m.e.n.o.p.q.r.s.t.i.i.i.i.i.i.i.i.i.k.i.i.j.j.i.i.i.i.i.i",
"#R#S#T#U#F#V#K#W#x#s.u.v.m.w.x.y.z.A.B.C.i.i.i.i.i.i.i.i.i.i.i.k.j.j.i.i.i.i.i.i",
"#X#Y#Z#0#1.p#E#2#3#4.D.E.F.x.G.p.H.I.J.K.i.i.i.j.i.i.i.i.i.i.i.i.i.i.i.i.i.i.i.j",
"#5#6#7#8#9a.a#.Q.R.K.L.M.M.N.O.P.p.Q.R.S.i.i.i.i.i.i.j.j.i.i.i.i.i.i.i.i.i.i.i.i",
"aaabacadaeafagahaiaj.T.U.V.W.X.Y.Z.0.1.2.i.i.i.k.i.i.j.j.i.i.i.i.i.i.i.i.i.i.i.k",
"akalamanaoapaqarasatau.4.5.6.7.8.9.1#.##.i.i.i.i.i.i.i.i.i.k.i.j.i.i.k.i.i.i.i.i",
"avawawaxayazaAaBaCaDaE#b#c#d#e#f#g#h#i#j.i.i.i.i.i.i.i.i.i.i.i.i.i.i.i.i.i.i.i.i",
"aFaGaGaHawawaIaJaKaLaMaNaO#m#n#o#p#q#r#s.i.i.i.i.i.k.i.i.i.j.i.i.i.k.i.i.i.i.i.i",
"aPaGaGaQawawawaHaRaSaTaUaV#w#x#y#z#A#B#C.i.k.i.i.j.j.i.i.i.i.i.i.i.i.i.i.i.k.i.i",
"aWaGaGaXaQaHaHaHaHaYaZa0#F#G#H#..E#I.w#JQt.#.a.b.c.d.e.f.g.h.i.i.i.i.i.i.i.i.i.k",
"a1aGaGaGaGaHaHaHawa2a3a4#L#M#N.H#O#P#Q#y.l.m.e.n.o.p.q.r.s.t.i.j.i.i.i.i.i.i.i.i",
"a5aGaGaXaGaHaHaHaHa2a6a7#T#U#F#V#K#W#x#s.u.v.m.w.x.y.z.A.B.C.i.i.i.i.j.j.i.i.i.i",
"alaGaGaGa8a9aHaHaHaRa6b.b#ba#1.p#E#2#3#4.D.E.F.x.G.p.H.I.J.K.i.k.i.i.j.j.i.i.i.i",
"aWaGaGaGaQbbaHaHaHbcbdbebfbg#Ua.a#.Q.R.K.L.M.M.N.O.P.p.Q.R.S.i.i.i.i.i.i.i.k.i.j",
"aWaXaGbhawbibbaHaHbjbkbl.V.W.X.Y.Z.0.1.2.T.U.V.W.X.Y.Z.0.1.2.i.i.i.i.i.i.i.i.i.i",
"aWa8aHawbmbnbnbobpbqbrbs.5.6.7.8.9.1#.##.3.4.5.6.7.8.9.1#.##.i.i.i.k.i.i.i.j.i.i",
"bta8aQaPbmbnbmbubvbwbxby#c#d#e#f#g#h#i#j#a#b#c#d#e#f#g#h#i#j.i.i.j.j.i.i.i.i.i.i",
"bzaGbnbnbnbnbAbBbCbDbE.F#l#m#n#o#p#q#r#s#k.F#l#m#n#o#p#q#r#s.i.k.j.j.i.i.i.i.i.i",
"bFbnbGbnbnbHbIbJbKbL#t#u#v#w#x#y#z#A#B#C#t#u#v#w#x#y#z#A#B#C.i.i.i.i.i.i.i.i.i.j",
"bGbnbGbnbbbMbNbObPbQ#D#E#F#G#H#..E#I.w#J#D#E#F#G#H#..E#I.w#JQt.#.a.b.c.d.e.f.g.h",
"bGbnbnbRbMbSbTbUbVbW#K.R#L#M#N.H#O#P#Q#y#K.R#L#M#N.H#O#P#Q#y.l.m.e.n.o.p.q.r.s.t",
"bGbnbXbYbIbZb0bxb1#s#R#S#T#U#F#V#K#W#x#s#R#S#T#U#F#V#K#W#x#s.u.v.m.w.x.y.z.A.B.C",
"bnbbbYb2b3b4b5b6#3#4b7b8b#ba#1.p#E#2#3#4b7b8b#ba#1.p#E#2#3#4.D.E.F.x.G.p.H.I.J.K",
"bIbYbMb9c.c#ca.Q.R.K#hcbbfbg#Ua.a#.Q.R.K#hcbbfbg#Ua.a#.Q.R.K.L.M.M.N.O.P.p.Q.R.S",
"bBb2cccdcecf.Z.0.1.2.T.U.V.W.X.Y.Z.0.1.2.T.U.V.W.X.Y.Z.0.1.2.T.U.V.W.X.Y.Z.0.1.2",
"cgchcicjck.8.9.1#.##.3.4.5.6.7.8.9.1#.##.3.4.5.6.7.8.9.1#.##.3.4.5.6.7.8.9.1#.##",
"clcmcnco#e#f#g#h#i#j#a#b#c#d#e#f#g#h#i#j#a#b#c#d#e#f#g#h#i#j#a#b#c#d#e#f#g#h#i#j",
"#k.F#l#m#n#o#p#q#r#s#k.F#l#m#n#o#p#q#r#s#k.F#l#m#n#o#p#q#r#s#k.F#l#m#n#o#p#q#r#s",
"#t#u#v#w#x#y#z#A#B#C#t#u#v#w#x#y#z#A#B#C#t#u#v#w#x#y#z#A#B#C#t#u#v#w#x#y#z#A#B#C"};
