/* XPM */
static char *dummy[]={
"40 40 1028 2",
".z c #00a15e",
"gX c #262119",
"kW c #272219",
"i3 c #282118",
"iY c #282218",
"nZ c #28221a",
"n4 c #28231a",
"mI c #292219",
"kY c #2b261d",
"n5 c #2c271e",
"mD c #2e271d",
"gG c #2e281c",
"eD c #2f281e",
"g0 c #2f2a21",
"g5 c #2f6046",
"eI c #30281e",
"eM c #30291e",
"gY c #302a22",
"eJ c #302a23",
"gR c #302b22",
"eR c #30573f",
"kX c #312b22",
"eE c #312b23",
"kR c #312c23",
"gf c #322c1f",
"eC c #322c21",
"n0 c #322c24",
"g3 c #324230",
"Qt c #32a67a",
"eL c #332c21",
"gW c #332d22",
"iX c #332d23",
"mE c #332d25",
"b0 c #33a479",
".A c #33a579",
"iJ c #342d21",
"kV c #342d23",
"nY c #342e23",
"mH c #342e24",
"aE c #34a57a",
".# c #34a67a",
"iD c #352e22",
"mn c #352f22",
"fR c #352f23",
"eQ c #352f24",
"ep c #362f21",
"gS c #362f24",
"gT c #363024",
"kS c #363025",
"mG c #373024",
"gV c #373025",
"kT c #373125",
"kU c #373126",
"fk c #374432",
"n2 c #383125",
"eG c #383126",
"n1 c #383226",
"nU c #383227",
"nW c #393126",
"nV c #393327",
"eK c #393328",
"eN c #393429",
"eB c #3a3327",
"eF c #3a3328",
"i1 c #3a3329",
"eP c #3a3428",
"gZ c #3a3429",
"iZ c #3a352b",
"g4 c #3a543f",
"el c #3b3328",
"eh c #3b3429",
"mK c #3b342a",
"gU c #3b3529",
"nX c #3b352a",
"i4 c #3b362b",
"eb c #3c352a",
"eO c #3c362a",
"m8 c #3c362b",
"g1 c #3c372a",
"mJ c #3c372c",
"i0 c #3d362b",
"n3 c #3d372b",
"js c #3d372c",
"d1 c #3e3628",
"g2 c #3e382b",
"iW c #3e382c",
"f# c #3e382d",
"mC c #3f382c",
"i2 c #3f392d",
"jx c #3f392e",
"ih c #40372a",
"l9 c #40382a",
"mL c #403a2d",
"ib c #41382b",
"l5 c #41392b",
"eH c #423c30",
"iC c #433b2e",
"iI c #433c2e",
"eA c #433c30",
"ez c #433d30",
"mM c #433d31",
"mB c #443c30",
"gF c #443d30",
"mF c #443d31",
"nT c #443f34",
"gx c #453e30",
"nN c #453f31",
"gb c #473f31",
"dX c #474032",
"ia c #483f31",
"dw c #484031",
"nC c #484032",
"hT c #484034",
"dS c #484133",
"ey c #484339",
"jk c #48443a",
"l4 c #494031",
"mi c #494134",
"hM c #494135",
"dL c #494234",
"fJ c #494235",
"fC c #494335",
"np c #494336",
"li c #494337",
"iV c #49433a",
"kb c #4a4336",
"ln c #4a4338",
"nk c #4a4436",
"mA c #4a4437",
"gr c #4b4436",
"hi c #4b4438",
"gA c #4b4538",
"hp c #4b4539",
"gy c #4b4639",
"ea c #4c4436",
"gq c #4c4639",
"ky c #4c4739",
"ek c #4d4536",
"nG c #4d4537",
"kv c #4d4637",
"ks c #4d473a",
"nL c #4d483a",
"mT c #4d483e",
"f9 c #4e4636",
"gw c #4e4637",
"kx c #4e4737",
"ed c #4e4838",
"nJ c #4e483b",
"ga c #4f4636",
"eo c #4f4637",
"iG c #4f4737",
"gz c #4f4738",
"iF c #4f4838",
"mp c #4f4939",
"iB c #504637",
"ge c #504737",
"gv c #504738",
"gs c #504838",
"kw c #504839",
"iz c #504938",
"gD c #504939",
"ms c #514738",
"kt c #514839",
"nH c #514939",
"e# c #524939",
"nI c #52493a",
"en c #52493b",
"mk c #524a39",
"gE c #524a3a",
"gQ c #524c41",
"ej c #534939",
"iA c #534a3a",
"eg c #534c3b",
"l1 c #534c3c",
"e. c #534d3b",
"ec c #534e41",
"iE c #534f3d",
"ig c #544a3a",
"mm c #544b3b",
"mg c #544c3b",
"mo c #544f3d",
"ei c #544f42",
"l0 c #554b3b",
"dr c #554e40",
"mj c #555042",
"mh c #564b3b",
"dm c #564f42",
"dK c #574d3c",
"dR c #574e3c",
"dW c #574e3d",
"b1 c #574e42",
"ee c #574f3c",
"dd c #575043",
"em c #575242",
"hK c #584e3e",
"gB c #584f3c",
"gt c #584f3d",
"hP c #584f3e",
"ml c #58503d",
"fQ c #58503f",
"lE c #585143",
"ku c #594f3d",
"lK c #594f3e",
"lN c #594f3f",
"nK c #59503d",
"hO c #59503e",
"hV c #59513e",
"gu c #59513f",
"k6 c #595348",
"hL c #5a503f",
"mq c #5a513e",
"gC c #5a513f",
"ie c #5a523e",
"kz c #5a523f",
"iH c #5a5340",
"ob c #5a5449",
"hd c #5a564b",
"dZ c #5b513e",
"lL c #5b5140",
"d0 c #5b523d",
"nM c #5b5240",
"mr c #5b5341",
"lA c #5b574c",
"dN c #5c523f",
"dU c #5c533f",
"ic c #5c5541",
"ii c #5c5641",
"e1 c #5c584e",
"#Q c #5d5146",
"f8 c #5d533f",
"g# c #5d5340",
"nA c #5d543f",
"f3 c #5d5440",
"ka c #5d5540",
"m. c #5d5641",
"d9 c #5d594d",
"dJ c #5e5340",
"gc c #5e5540",
"ef c #5e5642",
"m1 c #5e5647",
"iK c #5e5744",
"m7 c #5e5747",
"jb c #5e5a4f",
"i# c #5f5441",
"hQ c #5f5542",
"lO c #5f5642",
"hJ c #5f5645",
"mt c #5f5845",
"jG c #5f5b51",
"cB c #5f5c51",
"gd c #605740",
"jr c #605848",
"jw c #605849",
"m9 c #605a49",
"jf c #605c53",
"ij c #615641",
"lZ c #615643",
"f4 c #615741",
"l7 c #615742",
"id c #615841",
"fP c #615844",
"du c #615845",
"m2 c #615a49",
"c0 c #615c4e",
"mz c #615d51",
"l6 c #625841",
"dO c #625842",
"lC c #625844",
"l3 c #625942",
"nz c #625943",
"f7 c #625944",
"f. c #625a4a",
"ac c #63584c",
"g. c #635944",
"f2 c #635a44",
"j9 c #635a45",
"dl c #635a46",
"db c #635a47",
"dv c #635b47",
"jt c #635c4a",
"jl c #635c4b",
"nF c #635d4e",
"dI c #645a46",
"dQ c #645b46",
"dV c #645b47",
"nj c #645b48",
"dT c #645c46",
"fe c #645e4c",
"dP c #655b46",
"dH c #655c46",
"hS c #655d49",
"dY c #655e4b",
"fa c #655e4d",
"f6 c #665c46",
"i. c #665c47",
"lD c #665c48",
"l2 c #665d47",
"fB c #665d48",
"hI c #665d49",
"e2 c #665f4d",
"f1 c #66604e",
"#q c #675a4e",
"k# c #675c47",
"nB c #675d47",
"hR c #675d48",
"jQ c #675d49",
"no c #675e49",
"ni c #675e4a",
"j8 c #67604e",
"it c #676055",
"nD c #67614e",
"#p c #67a996",
"aD c #67aa97",
"lJ c #685f47",
"di c #685f48",
"lh c #686050",
"m6 c #686151",
"mX c #686251",
"gp c #686356",
"fG c #695f48",
"fx c #695f49",
"ng c #695f4a",
"fF c #696049",
"fL c #69604a",
"hh c #696151",
"m0 c #696251",
"mZ c #696352",
"f5 c #6a604a",
"k. c #6a604b",
"ne c #6a614a",
"nq c #6a614b",
"lP c #6a614d",
"fN c #6a624e",
"ho c #6a6251",
"hN c #6a634c",
"jo c #6a6353",
"hW c #6b614d",
"dg c #6b624b",
"hU c #6b634d",
"lM c #6b644d",
"jq c #6b6452",
"hf c #6b6454",
"fv c #6b6550",
"mY c #6b6556",
".2 c #6c5d50",
"if c #6c614b",
"l8 c #6c614c",
"dh c #6c624d",
"nf c #6c634c",
"do c #6c634d",
"lB c #6c634e",
"fO c #6c644e",
"jv c #6c6453",
"jP c #6c6550",
"dc c #6c6552",
"fh c #6c6554",
"fj c #6c6555",
"nl c #6c6650",
"fD c #6c6651",
"e8 c #6c6655",
"mf c #6c6755",
"dG c #6c675b",
"lH c #6d634d",
"lI c #6d644e",
"fH c #6d644f",
"fK c #6d654e",
"e6 c #6d6555",
"e9 c #6d6654",
"fc c #6d6655",
"dM c #6d6755",
"jp c #6d6758",
"ju c #6d6858",
"fE c #6e654e",
"jR c #6e654f",
"fz c #6e6550",
"dt c #6e6551",
"fw c #6e664f",
"nn c #6e6651",
"dp c #6e6652",
"fd c #6e6654",
"fi c #6e6754",
"mV c #6e6755",
"kI c #6e695c",
"me c #6e6a5f",
"m# c #6f654f",
"ik c #6f6550",
"nm c #6f664f",
"nh c #6f6651",
"dj c #6f6652",
"d# c #6f6752",
"lo c #6f6857",
"m5 c #6f6859",
"lm c #6f6958",
"n. c #6f6959",
"e7 c #6f695a",
"nS c #6f6a5c",
"by c #706456",
"da c #706752",
"fy c #706755",
"dk c #706853",
"fM c #706856",
"lj c #706957",
"lq c #706a59",
"fA c #716853",
"dq c #716854",
"nr c #716856",
"fI c #716953",
"lg c #716957",
"m3 c #716a5a",
"fg c #716a5b",
"hq c #716b58",
"jn c #716b5b",
"gL c #716e64",
"jS c #726954",
"ns c #726a54",
"hj c #726b59",
"hn c #726b5a",
"m4 c #726b5b",
"mW c #726c5b",
"kr c #726d62",
"hg c #736a58",
"jm c #736c5c",
"ny c #736d5c",
"lf c #736d5e",
"f0 c #736e62",
"hk c #746d5c",
"e5 c #746d5d",
"k2 c #747167",
"a8 c #756b5f",
"lp c #756e5e",
"ex c #756e62",
"ll c #756f5e",
"he c #756f60",
"iU c #756f62",
"mU c #757162",
"e3 c #766f5e",
"eW c #767369",
".B c #776b60",
"ff c #777060",
"hm c #777160",
"n9 c #777369",
"df c #786f5a",
"fb c #787060",
"e4 c #787160",
"mS c #787165",
"j7 c #787468",
"kQ c #78756a",
"lG c #79705b",
"lk c #797161",
"ki c #797468",
"hH c #79756a",
"d. c #79766a",
"jC c #79766c",
"hr c #7a7362",
"iQ c #7a7468",
"h6 c #7a756a",
".y c #7b220f",
"hl c #7b7362",
"fu c #7b776a",
"hB c #7b8177",
"aF c #7c7164",
"cP c #7c786c",
"lX c #7c796e",
"lY c #7d7762",
"cG c #7d796d",
"gP c #7e786b",
"nd c #7f7a68",
"k5 c #807a6c",
"oa c #807a6d",
"jO c #807d71",
".a c #81766d",
"km c #817c70",
"lv c #828177",
"ae c #832711",
"ew c #837d6f",
"is c #837e72",
"jD c #838178",
"iT c #847d70",
"gO c #847d71",
"k4 c #847e71",
"h. c #848379",
"b4 c #85452e",
"mR c #857f71",
"d8 c #857f72",
"iS c #857f73",
"ds c #85806e",
"nc c #858379",
"cp c #86442b",
"i8 c #868072",
"iy c #868073",
"j. c #868174",
"jj c #868479",
"cw c #86887d",
".q c #87250f",
"gN c #878073",
"i7 c #878275",
"j# c #878276",
".i c #882510",
"kk c #888275",
"e0 c #88857b",
"a7 c #892b14",
"o# c #898275",
"nb c #89867b",
"eX c #89867d",
".x c #8a2711",
"ev c #8a8477",
"dF c #8a8578",
"jF c #8a877d",
".j c #8b2711",
"a9 c #8b381f",
"eu c #8b8578",
"iR c #8b8579",
"de c #8b8673",
"ir c #8b8679",
"dn c #8b8774",
"kl c #8b877a",
"eZ c #8b887d",
"mQ c #8c8679",
"lF c #8c8774",
"md c #8c877a",
"kE c #8c887c",
"ja c #8c887d",
"kn c #8c887f",
"na c #8c897f",
"lw c #8c8980",
"d6 c #8d887a",
"kq c #8d897c",
"gM c #8d897d",
"eY c #8d897f",
"jE c #8d8980",
"l# c #8d8a7e",
"h# c #8d8b82",
"aO c #8e341d",
"iP c #8e897c",
"c9 c #8e897d",
"hG c #8e8a7d",
"cx c #8e8e84",
"aX c #8f341d",
"go c #8f8a7c",
"j3 c #8f8a7d",
"c6 c #8f8b7d",
"gk c #8f8b7f",
"cy c #8f8f84",
"cu c #8f9186",
"ao c #902d14",
".1 c #902f16",
"aA c #903015",
"kH c #908b7e",
"es c #908b7f",
"fV c #908c7e",
"k3 c #908c7f",
"av c #912e14",
"#U c #912f18",
"#r c #913218",
".h c #913518",
"iq c #918c7e",
"lV c #918c7f",
"j2 c #918d7f",
"o. c #918d81",
"lx c #918d83",
"ha c #918e84",
"#R c #923118",
"ak c #923216",
"cr c #924a2e",
"hF c #928d80",
"nP c #928f82",
"ji c #929086",
"lt c #929087",
"#n c #933418",
".p c #933719",
"c7 c #938d80",
"d7 c #938e80",
"ke c #938f84",
"kD c #939082",
"j4 c #939086",
"g8 c #939187",
"jg c #939189",
"ct c #93978b",
"#P c #943117",
".w c #943819",
"ch c #945033",
"cZ c #948f7e",
"gj c #949083",
"je c #949185",
"#o c #952e14",
"#T c #953118",
"a6 c #95361d",
"bh c #953b21",
"b9 c #955133",
"dD c #959082",
"kp c #959182",
"gn c #959183",
"mP c #959184",
"i9 c #959185",
"cA c #95958a",
"#3 c #963219",
".f c #96351c",
"bp c #963c21",
"cj c #964e31",
"cD c #96917f",
"dE c #969183",
"kG c #969283",
"c8 c #969284",
"et c #969285",
"fW c #969287",
"hc c #969388",
"lz c #969389",
"jK c #96938a",
"ay c #973518",
"## c #97361a",
".o c #97361c",
".F c #973a1f",
"cN c #97917f",
"ix c #979183",
"mc c #979284",
"cV c #979381",
"le c #979382",
"lW c #979385",
"j6 c #979485",
"ca c #984f32",
"cF c #989381",
"iO c #989385",
"cT c #989482",
"cL c #989483",
"fX c #989485",
"ly c #98968c",
"g7 c #98978d",
"#M c #99361b",
"#h c #99371a",
".P c #993b20",
"my c #999385",
"jJ c #999588",
"i6 c #99958a",
"cY c #999686",
"jh c #99978d",
"ls c #99988e",
"cz c #999a90",
"ar c #9a3618",
"#F c #9a361b",
".Y c #9a3c20",
"cc c #9a5134",
"iM c #9a9486",
"er c #9a9489",
"gm c #9a9687",
"fU c #9a9688",
"jN c #9a9689",
"h5 c #9a978c",
"hb c #9a988e",
"aC c #9b3418",
"aw c #9b361a",
"#w c #9b371b",
".c c #9b391c",
"cX c #9b9686",
"kF c #9b9687",
"mO c #9b968b",
"nR c #9b9787",
"h9 c #9b9788",
"d5 c #9b9789",
"iv c #9b978a",
"dC c #9b9889",
"ai c #9c3819",
"ck c #9c5335",
"lS c #9c988a",
"cE c #9c9989",
"h4 c #9c998d",
"lu c #9c9c94",
"cv c #9c9f96",
"af c #9d371a",
"b2 c #9d593a",
"cO c #9d9989",
"hD c #9d998a",
"gi c #9d9a8c",
"kC c #9d9a8d",
"k0 c #9d9a90",
"gI c #9d9b90",
"g9 c #9d9e95",
"cs c #9da198",
"aH c #9e3b1d",
"c3 c #9e998b",
"lr c #9e9e95",
".4 c #9f3a1d",
"cn c #9f583a",
"cJ c #9f9b8b",
"kO c #9f9d92",
"jd c #9f9d93",
".r c #a0351a",
"ab c #a03a1b",
"fo c #a09c91",
"cC c #a09d8e",
"cM c #a09e8e",
"jX c #a09e93",
"kM c #a09f99",
"g6 c #a0a097",
"cf c #a15334",
"ip c #a19d8e",
"jW c #a19d92",
"cU c #a19e8f",
"ft c #a19e91",
"nv c #a19e93",
"gJ c #a19f95",
"gK c #a1a095",
".k c #a2361a",
"d4 c #a29d8f",
"iu c #a29e8f",
"kg c #a29e90",
"jZ c #a29e91",
"fq c #a29e94",
"fr c #a29f92",
"k1 c #a2a095",
"n7 c #a2a096",
"n8 c #a2a196",
".D c #a33a1c",
"#7 c #a33b20",
"bx c #a33e21",
"bK c #a34023",
"b7 c #a35435",
"mw c #a39f90",
"fY c #a39f91",
"j0 c #a39f93",
"d3 c #a3a091",
"jM c #a3a092",
"gl c #a3a093",
"fT c #a3a193",
"fn c #a3a195",
"fp c #a3a196",
".N c #a43b1d",
"#0 c #a43b21",
"mv c #a4a192",
"kd c #a4a294",
"gh c #a4a295",
"jB c #a4a39a",
"eV c #a4a39b",
".W c #a53b1d",
".m c #a53e1f",
"bS c #a54124",
"bZ c #a54829",
"cI c #a5a18f",
"cR c #a5a190",
"c5 c #a5a292",
"nx c #a5a296",
"jY c #a5a298",
"cK c #a5a394",
"jH c #a5a395",
"jV c #a5a397",
"nu c #a5a498",
"#c c #a63d1f",
".t c #a63f20",
"aU c #a63f25",
"aK c #a64225",
"cS c #a6a394",
"iw c #a6a395",
"nQ c #a6a396",
"fs c #a6a397",
"nw c #a6a399",
"kB c #a6a497",
"nO c #a6a498",
"jy c #a6a7a0",
"#z c #a7381b",
"aI c #a73e21",
"a2 c #a74025",
"a1 c #a74327",
"aT c #a74328",
"c# c #a75c39",
"lU c #a7a494",
"dA c #a7a495",
"h8 c #a7a595",
"kP c #a7a69b",
"#I c #a8381b",
"#O c #a8391b",
"aV c #a84021",
"aB c #a8411c",
".C c #a84321",
"aJ c #a84428",
"h7 c #a8a495",
"dB c #a8a595",
"mx c #a8a597",
"fZ c #a8a59a",
"lc c #a8a697",
"h3 c #a8a69c",
"n# c #a8a8a2",
"#s c #a93518",
".6 c #a93a1d",
".U c #a93d1e",
".L c #a93e1e",
"aL c #a94021",
"ci c #a95d3a",
"dz c #a9a495",
"in c #a9a596",
"dy c #a9a598",
"io c #a9a696",
"kf c #a9a697",
"hC c #a9a698",
"iN c #a9a699",
"kh c #a9a69b",
"h2 c #a9a79a",
"nE c #a9a79b",
"jA c #a9a9a1",
"#j c #aa3b1e",
"bB c #aa4627",
"b5 c #aa5a3a",
"c2 c #aaa699",
"lT c #aaa799",
"lR c #aaa79a",
"jI c #aaa89b",
"l. c #aaa99a",
"eU c #aaaaa2",
"c4 c #aba799",
"hE c #aba899",
"mb c #aba89a",
"ld c #abab9d",
"jc c #abaca5",
"eS c #abada6",
".5 c #ac4023",
"bF c #ac4626",
"bX c #ac4b2b",
"lb c #acab9b",
"ad c #ad4020",
"#d c #ad4023",
"a3 c #ad4323",
"fm c #adaca0",
"hy c #adaea7",
"#k c #ae3f21",
"cl c #ae5c3a",
"im c #aeab9e",
"hZ c #aeaca2",
"cW c #aeada0",
"#e c #af3f21",
"bQ c #af4828",
"h1 c #afab9f",
"jU c #afaea3",
"kK c #afafa8",
"hz c #afb4ac",
"an c #b03b1c",
".7 c #b04022",
"aM c #b04222",
"a0 c #b04224",
"aS c #b04324",
".I c #b04722",
"bI c #b04929",
"cd c #b05d3b",
"ko c #b0ad9f",
"nt c #b0afa4",
"kL c #b0b1a9",
".R c #b14822",
"b# c #b14d2d",
"b6 c #b15e3c",
"kN c #b1b0a6",
"#C c #b2371a",
"#B c #b24423",
"#K c #b24523",
"#v c #b24525",
"#l c #b24623",
"bT c #b2502e",
"jz c #b2b3ad",
".S c #b3411f",
"#Z c #b34522",
"aR c #b34524",
"#E c #b34625",
"#L c #b34626",
"at c #b34a22",
"al c #b34b22",
"bW c #b34f2d",
"h0 c #b3b1a6",
"cH c #b3b2a3",
"cQ c #b3b3a3",
"hv c #b3b5af",
"hA c #b3bab1",
"a. c #b43f1e",
".J c #b4411f",
"#6 c #b44622",
"aW c #b44626",
"aN c #b44727",
"bL c #b4512f",
"j5 c #b4b2a4",
"i5 c #b4b4ac",
"eT c #b4b5af",
"#m c #b53f1d",
"#4 c #b5401e",
"ah c #b54221",
".X c #b54523",
".b c #b54622",
"#A c #b54725",
"bH c #b5502d",
"ce c #b55f3b",
"gH c #b5b6ad",
"#V c #b6401e",
"aq c #b64322",
".O c #b64624",
"#J c #b64725",
"b3 c #b66440",
"k9 c #b6b6a8",
"k8 c #b6b6a9",
"kj c #b6b7af",
"hw c #b6b7b1",
".v c #b74622",
".E c #b74724",
".8 c #b74924",
"#u c #b74a28",
"bP c #b7512e",
"bE c #b75433",
"be c #b75833",
"cm c #b7603c",
"ax c #b84422",
".g c #b84722",
".M c #b84c26",
"bw c #b84e2e",
"bz c #b84f2d",
"bN c #b8502e",
"bC c #b8522f",
"jL c #b8b8ac",
"la c #b8b9ab",
"kZ c #b8b9b1",
"hx c #b8bab3",
".T c #b9411e",
".K c #b9411f",
".Z c #b94524",
".V c #b94c26",
"b. c #b95430",
"bV c #b95634",
"bn c #b95934",
"co c #b9633f",
"k7 c #b9baad",
"n6 c #b9bab2",
"hu c #b9bbb4",
".s c #ba3d1b",
".l c #ba3d1c",
"a4 c #ba4323",
"am c #ba4622",
"a# c #ba4623",
".Q c #ba4624",
"au c #ba4722",
"#X c #ba4723",
".9 c #bb421e",
"#f c #bb421f",
"#Y c #bb4521",
".u c #bb4925",
".3 c #bb4f26",
"bv c #bb5b35",
"#D c #bc3f1e",
"#t c #bc401e",
"#5 c #bc4521",
"aa c #bc4621",
".G c #bc4725",
"a5 c #bc4b29",
"bA c #bc502d",
"aY c #bc522b",
"bg c #bc542f",
"aG c #bc5530",
"bq c #bc5631",
"b8 c #bc6640",
"eq c #bcbdb6",
"#2 c #bd4725",
".n c #bd4a26",
"aP c #bd532c",
"bj c #bd5733",
"cg c #bd6640",
"#9 c #be4825",
".d c #be4b26",
"bi c #be5732",
"br c #be5834",
"c. c #be643e",
"mN c #bec0b8",
"#8 c #bf4623",
"#1 c #bf4723",
"cq c #bf6a42",
"j1 c #bfc1ba",
"#S c #c04723",
"#g c #c04923",
"#. c #c04a23",
"bJ c #c05430",
"bR c #c15430",
"bo c #c15735",
"aj c #c24c26",
"as c #c24d26",
"aQ c #c2532e",
"aZ c #c2542f",
"bf c #c25836",
"cb c #c2673f",
"iL c #c2c4bc",
"az c #c34d26",
"#y c #c3532b",
"dx c #c3c4bc",
"bl c #c4532e",
"#H c #c4542b",
"bY c #c45631",
"bO c #c45b36",
"hY c #c4c6be",
"d2 c #c4c6bf",
"ht c #c4c8c3",
"#W c #c54721",
"#N c #c5542b",
"bG c #c55c37",
"bu c #c56137",
"ma c #c5c7c0",
"ap c #c64a23",
"bb c #c65934",
"bc c #c65b35",
"ag c #c74a23",
"mu c #c7cac3",
"bt c #c85c35",
"bm c #c86438",
".e c #c94d25",
"#b c #c95225",
"bd c #c96538",
"c1 c #c9ccc6",
"gg c #cacec6",
"kJ c #cacec9",
"il c #cbcec6",
"lQ c #ccd0cb",
"#i c #cd5227",
"bM c #cd663e",
"kA c #cdd2cb",
"bU c #ce663e",
"#a c #cf5327",
"fS c #cfd3cd",
"hs c #cfd3d0",
"#G c #d0592b",
"#x c #d05a2b",
"fl c #d0d5cd",
".0 c #d15529",
"bs c #d1633b",
".H c #d25529",
"bk c #d2633b",
"jT c #d2d7d0",
"ba c #d3643b",
"kc c #d3d8d2",
"bD c #d46b42",
"hX c #d4d7d1",
"QtQtQtQtQtQtQtQt.#.a.b.c.d.e.f.g.h.i.j.k.l.m.n.e.o.g.p.q.j.r.s.t.u.e.o.v.w.q.x.y",
"QtQtQtQt.zQtQtQt.A.B.C.D.E.F.G.H.I.J.K.L.M.N.O.P.Q.H.R.S.T.U.V.W.X.Y.Z.0.R.S.T.1",
"Qt.zQtQtQtQtQtQt.A.2.3.4.5.6.7.8.9#.###a#b#c#d.6#e.8#f#g#h#i#b#c#d#j#k#l#m#g#n#o",
"QtQtQtQtQt.zQtQt#p#q#r#s#t#u#v#w#x#y#z#A#B#C#D#u#E#F#G#H#I#J#K#C#D#u#L#M#G#N#O#P",
"QtQtQtQtQtQtQt.z#p#Q#R#S.G#T#U#V#W#X#Y#Z#0#1#2#3#U#4#W#X#5#6#7#8#9#3#Ua.#Wa#aaab",
"QtQtQtQtQtQtQtQt.AacadaeafagahaiajakalamanaoafapaqarasakatauanavawapaxayazaAaBaC",
"QtQtaDaDQtQtQtQtaEaFaGaHaIaJaKaLaMaNaOaPaQaRaSaTaUaVaMaWaXaYaZaRa0a1a2a3a4a5a6a7",
"QtQtaDaDQtQtQtQtaEa8a9b.b#babbbcbdbebfbgbhbibjbkblbcbmbnbobgbpbqbrbsblbtbubvbwbx",
"QtQtQtQtQt.zQtaD.AbybzbAbBbCbDbEbzbFbGbHbIbJbKbLbMbEbNbFbObPbQbRbSbTbUbVbWbXbYbZ",
"QtQtQtQtQtQtQtQtb0b1b2b3b4b5b6b7b8b9c.c#cacbcccdcecfcgchc.cicjcbckclcmcncocpcqcr",
"csctcucvcwcxcyczcAcBcCcDcEcFcGcHcIcJcKcLcMcNcOcFcPcQcRcJcScTcUcNcOcVcPcWcXcYcZc0",
"c1c2c3c4c5c6c7c8c9d.d#dadbdcdddedfdgdhdidjdkdldcdmdndfdgdodidpdqdldcdrdsdtdudvdw",
"dxdydzdAdBdCdDdEdFdGdHdIdJdKdLdMdHdNdOdidPdQdJdRdSdMdTdUdOdidPdVdJdWdXdYdQdZd0d1",
"d2d3d4d5cKdEd6d7d8d9e.dKe#eaebecede#eeefegdKe#eaeheiede#dRefegdKejekelemeneodRep",
"eqereseteuevd8ewexeyezeAeBeCeDeEebeFeGeHezeAeBeCeIeJebeKeGeHeAeAeFeLeMeNeOePeQeR",
"eSeTeUeVeWeXeYeZe0e1e2e3e4e5e6e7e8e9f.f#fae3fbe5fce7e8fdf.f#fee3ffe5fcfgfhfifjfk",
"flfmfnfofpfqfrfsftfufvfwfxfxfyfzfAfBdbfCfDfEfFfGfyfHfIfBdbfJfDfKfLdifMfNfOfPfQfR",
"fSfTfUfVfWcSfXfYfZf0f1f2f3f4f5f6f7f8f9dXf1f7f3f4f5f6g.g#gagbf1f7gcgdf5f6g.f8gegf",
"ggghgigjgkglgmgngogpgqgrgsgtguekgvgwgxeKgygrgsgtguekgzgwgxeFgAgrgsgBgCgDgEekgFgG",
"gHgIgJgKgLgMgNgOgPgQgRgSgTgSgUeFgVgWeQgXgYgSgTgSgZePgVgWeQgXg0gSgTgSgZg1g2g3g4g5",
"g6g7g8g9h.h#hahbhchdhehfhghhhihjhkhlhmhnhehfhghohphqhkhrhme5hshthuhvhwhxhyhzhAhB",
"c1hChDhEc5c6hFc8hGhHhIhJhKhLhMhNhOhPhQhRhShJhKhLhThUhVhKhQhWhXhYhZh0h1h2h3h4h5h6",
"dxhCdzh7h8h9dEdEeudGi.i#ejiaibicidief4ifi.i#igiaihiiidieijikilimc4inioipiqirisit",
"d2fYiuiviwixd6d7iyd9iziAiBiCiDiEiFiGhOiHiziAgeiIiJiEiFiGhOiKiLfYiMdDiNiOiPc9iQit",
"eqeresetiReviSiTiUiViWgSiXeQiYiZi0ePi1i2iWgSiXeQi3i4i0ePgZeHi5i6i7i8i9j.j#iPjajb",
"jcjdjejejfjgjhjijjjkjljme5jnjojpjojqjrjsjtjme5jnjojujojvjwjxjyjzjAjBjCjDjEjFe0jG",
"c1jHjIjJjKjLcKjMjNjOjPfwfFfFfyfzfIjQdVfCfDfwfLfxfMjRjSjQdVgAjTjUjVjWjXjYjZjVj0cG",
"j1j2gnj3j4j5j6cSd5j7j8j9f3f4k.k#g.f8gadXj8g.kaf4k.i.g.g#gakbkckdfUj2kekffXkgkhki",
"kjkkklkmknkoh9kpkqkrkseaktkugCkvkwkxgxeFkyeaktgtkzgwkwiGgxf#kAkBkCkDkEiwkFkGkHkI",
"kJkKhxkLkMkNjYkOkPkQkRkSkTgVeOehkUkVgTkWkXkSkTgVebeheGkVgTkYkZk0gKk1k2k3kkk4k5k6",
"k7k8k9l.l#lalblcldlelfjolglhliljhnlklllmlfjolglhlnlohnlklplqlrlsltlulvlwlxlylzlA",
"delBlClDlElFlGlHlIlJhIhJlKlLhMlMhOlNlOhRhIhJlKlLhTfOhVlKhQlPlQlRlSlTlUfVlVlWj3lX",
"lYlZdJl0l1dMl2dNl3dik#dJejl4l5iil6iel7l8k#dJejl4l9m.l6ieijm#mambh7dBdBh9mcc8mdme",
"mfmgmhmiezmjizmkmlefizmmgeiCmnmompgvmqmrizigmsiIiDiEmpgvhVmtmumvmwd5mxmymdd7kkmz",
"mAmBmCeOmDmEi0gUeFmFi2mGmHkSmImJjsgUmKmLi2gVmHkSiYmJjsgUmKmMmNmOlVmPmQeviSmRmSmT",
"mUmVmWmXhhmYmZm0m1jsm2m3m4m5m6mYmXm0m7m8m9m3jnn.m6mYmXhom7f#n#jzjAeVjCjDnanbnce1",
"ndnenffxngnhfAninjnknlnmf5fFfMnnfInonjnpfDfwnqfFnrfznsnonjgAjTntnunvjXnwjZnxj0cG",
"nynznAidfLnBg.f8f9nCj8j9f3f4k.nBg.f8gadXnDj9gcf4k.nBg.g#gakbkckdfUj2kekffXjZnEki",
"nFnGnHhOkzgwnIiGgxePnJnGnHnKkzgwnHgzgxePnLnGnHnKnMgwktgznNf#kAnOginPkEnQnRc8iqnS",
"nTnUnVnWehnXeGnYkTnZn0gVn1n2n3nXeGnYkTn4kRgVn1n2n3nXeGnYkTn5n6k0n7n8n9o.o#d8oaob"};
