/* XPM */
static char *dummy[]={
"40 40 1025 2",
"mX c #3d372c",
"ld c #463f32",
"hC c #453f32",
"ds c #443e31",
"o. c #28231a",
"jv c #423b30",
"f0 c #413b30",
"lc c #6a6557",
"cV c #2c251b",
"nS c #322c20",
"ft c #2b2319",
"hB c #6a6456",
"ay c #332d21",
"hb c #2c251b",
"i7 c #2b2419",
"a1 c #3d372c",
"dr c #696455",
"kR c #2c251b",
"mA c #2b2419",
"lb c #635d4f",
"hA c #645f50",
"dq c #666051",
"cU c #3f382c",
"mW c #585042",
"ju c #615a4c",
"fZ c #625c4d",
"ha c #3f382c",
"cT c #3d372c",
"h# c #3e382c",
"kQ c #3f382c",
"fs c #362e23",
"i6 c #362f24",
"kP c #3f392d",
"mz c #373024",
"i2 c #006870",
"jN c #006878",
"j8 c #006e7c",
"lO c #006f7c",
"j0 c #00727e",
"k6 c #007580",
"ko c #027884",
"kn c #037985",
"j7 c #037986",
"kK c #037d86",
"jM c #037d88",
"jq c #037f8a",
"fI c #03848b",
"hL c #03868d",
"kJ c #047a86",
"k5 c #047a87",
"kj c #047c87",
"lP c #04808a",
"lN c #048189",
"fH c #04848c",
"gr c #04858c",
"is c #04868d",
"ho c #048890",
"jp c #05808c",
"h6 c #05888f",
"iU c #058991",
"h7 c #058a92",
"hy c #067c89",
"jL c #06828d",
"g3 c #06878e",
"i1 c #069099",
"gb c #069499",
"iC c #07818c",
"kF c #07838e",
"iB c #078590",
"ie c #078992",
"kI c #078a94",
"j1 c #079098",
"eh c #07d2d1",
"gN c #087e8a",
"gz c #087e8b",
"hT c #08848f",
"kk c #08919a",
"kG c #08949c",
"ls c #08969e",
"fg c #08babd",
"gf c #097e8a",
"iy c #097f8b",
"gO c #097f8c",
"id c #098792",
"km c #098a94",
"jE c #09939c",
"iV c #09959d",
"k4 c #0999a1",
"fP c #09b2b5",
"fb c #09dddc",
"eL c #09e2e1",
"lq c #0a7580",
"eO c #0a7f8a",
"fi c #0a7f8b",
"fj c #0a808c",
"lr c #0a909a",
"hM c #0a9ea4",
"ei c #0a9fa5",
"gs c #0aa5a9",
"eg c #0aa5ab",
"fJ c #0adcdb",
"gL c #0aece9",
"iv c #0af1ee",
"hu c #0af6f0",
"ib c #0af7f1",
"hv c #0afef7",
"if c #0b686f",
"gA c #0b6a77",
"hx c #0b7581",
"ge c #0b7783",
"ic c #0b7784",
"hS c #0b7884",
"ix c #0b7886",
"fR c #0b7b88",
"g8 c #0b838e",
"jo c #0b848f",
"gM c #0b8b94",
"iz c #0b9099",
"i0 c #0b919b",
"jK c #0b949c",
"gd c #0b949d",
"jJ c #0b979f",
"j6 c #0b98a0",
"iX c #0be4e3",
"ht c #0be9e4",
"g6 c #0bece9",
"jn c #0bedec",
"ia c #0bf0ec",
"fc c #0bf3ed",
"hQ c #0bf3ee",
"g7 c #0bf5f0",
"fK c #0bf8f3",
"eN c #0bf9f5",
"ff c #0bfbf3",
"gv c #0bfdf6",
"fL c #0bfff6",
"fd c #0bfff7",
"hw c #0bfff8",
"fO c #0bfff9",
"hU c #0c6472",
"gg c #0c6876",
"gP c #0c6b79",
"gy c #0c727f",
"fQ c #0c7481",
"iw c #0c7580",
"fh c #0c7987",
"fk c #0c7a87",
"gx c #0c828c",
"hR c #0c838d",
"iY c #0c848f",
"iZ c #0c929c",
"iA c #0c959e",
"fa c #0c979d",
"jI c #0c99a1",
"eK c #0c9ea4",
"jj c #0ca5ad",
"jF c #0ca9ae",
"hp c #0cb5b7",
"lt c #0cbabc",
"gu c #0cebe9",
"fe c #0cfcf7",
"fM c #0cfff4",
"gw c #0cfff6",
"eM c #0cfffb",
"i. c #0da7ac",
"it c #0dafb4",
"j2 c #0db1b6",
"jk c #0db5b9",
"kl c #0dbabc",
"hs c #0dc1c3",
"i# c #0dc8c9",
"kH c #0dcfcf",
"hP c #0dd8d7",
"fN c #0dfff4",
"iu c #0eaeb4",
"jl c #0eb0b5",
"hO c #0eb2b7",
"jm c #0eb7ba",
"hN c #0ebcbe",
"j3 c #0ebdbf",
"gJ c #0ebfc1",
"jG c #0ec2c4",
"j4 c #0ec2c5",
"g4 c #0ec4c5",
"jH c #0ed5d5",
"j5 c #0ed7d7",
"fS c #0f727f",
"eP c #0f7b86",
"h9 c #0fb3b8",
"g5 c #0fb4ba",
"hr c #0fb8bb",
"iW c #0fb9bd",
"h8 c #0fc3c6",
"gK c #0fd4d4",
"hq c #10c1c3",
"gt c #10cccd",
"gc c #10cecf",
"fT c #126572",
"gh c #136472",
"fl c #147b85",
"fG c #148992",
"ej c #157c86",
"iF c #1d363e",
"jP c #1d3842",
"kE c #1e818b",
"mp c #1f2423",
"mq c #1f3237",
"i4 c #1f3844",
"kr c #203439",
"n2 c #211e17",
"mv c #21343d",
"ih c #213b47",
"n4 c #221e17",
"jD c #229aa2",
"n5 c #23201a",
"n3 c #24201a",
"nT c #24211b",
"l4 c #243134",
"ma c #243d47",
"fm c #24727f",
"hz c #253e49",
"mr c #253f48",
"hW c #254049",
"n8 c #26221b",
"n9 c #27231b",
"k. c #273f4a",
"k9 c #27424b",
"n0 c #28241c",
"n1 c #28241d",
"lw c #28414c",
"nU c #29241d",
"nJ c #2b261c",
"nO c #2b261d",
"nW c #2b261e",
"nV c #2b271e",
"lJ c #2b3839",
"lS c #2b424c",
"mx c #2c251b",
"cK c #2c271e",
"n7 c #2c271f",
"iL c #2d271c",
"cO c #2d271e",
"nZ c #2d2820",
"mi c #2e271d",
"kz c #2e281f",
"nY c #2e2920",
"n6 c #2e2a21",
"h. c #2e444f",
"cs c #2f281d",
"gU c #2f291d",
"lu c #2f7f86",
"e0 c #30291d",
"iI c #302a1d",
"nX c #302c22",
"kC c #304851",
"mg c #312a1d",
"k1 c #31332f",
"eQ c #318c93",
"kb c #322c20",
"bY c #332c20",
"ao c #332c22",
"nE c #332d22",
"js c #334750",
"av c #342c22",
"gR c #344853",
"jc c #352f25",
"nj c #353024",
"cP c #353027",
"nx c #363025",
"cL c #363027",
"nv c #363125",
"cB c #363127",
"lM c #36959a",
"aa c #372f22",
"me c #373023",
"eD c #373024",
"bw c #373025",
"mH c #373026",
"gl c #373125",
"jU c #373126",
"mK c #373127",
"g0 c #373128",
"at c #373129",
"gV c #373228",
"ir c #379fa4",
"eu c #383124",
"ik c #383125",
"cI c #383227",
"mR c #383228",
"ap c #383229",
"kA c #383329",
"gC c #384954",
"lY c #393224",
"l0 c #393225",
"fB c #393328",
"ku c #393329",
"e2 c #39332a",
"gj c #394a55",
"kL c #396d76",
"dZ c #3a3326",
"fr c #3a3327",
"cC c #3a3328",
"lz c #3a3426",
"i5 c #3a3427",
"an c #3a3428",
"aR c #3a3429",
"nP c #3a352a",
"my c #3b3427",
"gW c #3b3428",
"cH c #3b3429",
"kB c #3b342a",
"cJ c #3b3529",
"e5 c #3b352a",
"nK c #3b362b",
"cE c #3c3529",
"gZ c #3c352a",
"cg c #3c362a",
"mw c #3c362b",
"nF c #3c372b",
"fU c #3c828e",
"cM c #3d3529",
"cD c #3d3629",
"#7 c #3d362a",
"iK c #3d362b",
"ky c #3d372b",
"e6 c #3d382c",
"lQ c #3d8084",
"gY c #3e362a",
"gX c #3e372a",
"#3 c #3e372b",
"#W c #3e372c",
"iR c #3e382b",
"ln c #3e4139",
"aq c #3f372c",
"kv c #3f382b",
"au c #3f382c",
"cG c #3f382d",
"ar c #3f392c",
"ax c #3f392d",
"kV c #3f392e",
"k0 c #3f392f",
"aw c #3f3a2f",
"k7 c #3f7d80",
"#H c #40382a",
"lW c #40382b",
"er c #40382d",
"e3 c #40392d",
"kx c #40392e",
"iO c #403a2d",
"hg c #403a2f",
"nR c #41392d",
"nG c #413a2d",
"nN c #413a2e",
"nL c #413b2d",
"ml c #413b2e",
"iP c #413b2f",
"m5 c #413b30",
"dQ c #414856",
"d9 c #423a2c",
"ij c #423a2d",
"nI c #423a2e",
"eC c #423b2d",
"cQ c #423c2f",
"mm c #423c30",
"d. c #423c31",
"h0 c #433b2d",
"lD c #433b2e",
"nQ c #433b2f",
"cN c #433c2f",
"cF c #433c30",
"iN c #433c31",
"iM c #433e32",
"jg c #434b54",
"kg c #435059",
"md c #443c2e",
"mk c #443d31",
"mo c #443d32",
"cR c #443e31",
"mj c #444033",
"aH c #444037",
"mu c #44545e",
"eZ c #453e2e",
"nH c #453e2f",
"cS c #453e31",
"kN c #453f31",
"e4 c #453f32",
"mn c #454034",
"iH c #463e2f",
"mf c #463f2f",
"cr c #463f31",
"kw c #463f32",
"iJ c #464032",
"kO c #464033",
"## c #473f30",
"gT c #473f31",
"cf c #474031",
"cm c #474032",
"iQ c #474033",
"mh c #474133",
"en c #475058",
"am c #484034",
"#C c #484132",
"bT c #484133",
"as c #484134",
"al c #484234",
"bn c #484235",
"fX c #48545a",
"kp c #48757b",
"bO c #494133",
"dU c #494136",
"nM c #494233",
"#w c #494234",
"e1 c #494335",
"bh c #494336",
"ji c #499da0",
"nr c #4a4133",
"eY c #4a4233",
"jX c #4a4234",
"lx c #4a4236",
"#o c #4a4335",
"f9 c #4a4337",
"iE c #4a5762",
"iG c #4b4334",
"dD c #4b4337",
"nk c #4b4434",
"d2 c #4b4436",
"nw c #4b4534",
"ny c #4b4535",
"f# c #4ba0a6",
"d8 c #4c4334",
"lk c #4c4438",
"mI c #4c4537",
"hF c #4c4538",
"hZ c #4d4435",
"lf c #4d4539",
"fE c #4d5860",
"ip c #4d5861",
"lC c #4e4435",
"nq c #4e4535",
"nD c #4e4536",
"#V c #4e4637",
"mB c #4e4638",
"la c #4e483a",
"dR c #4e4e4b",
"eq c #4e5150",
"g# c #4e5a64",
"eW c #4e5b66",
"nC c #4f4636",
"#2 c #4f4637",
"#6 c #4f4738",
"gq c #4f5c67",
"kq c #4f5d65",
"c. c #504839",
"h4 c #50483b",
"eX c #504e45",
"gH c #505d68",
"lB c #514738",
"bN c #514837",
"bS c #514838",
"cc c #514939",
"kd c #51493a",
"cn c #514b3d",
"ep c #515555",
"g1 c #515e69",
"ka c #524838",
"d7 c #524839",
"jW c #524938",
"a. c #524939",
"nn c #524a38",
"gE c #524a39",
"do c #524c3d",
"ch c #524c3e",
"b9 c #524d3e",
"lV c #534939",
"gS c #534a3a",
"nm c #534b39",
"ce c #534b3a",
"jb c #534b3e",
"nt c #534c39",
"eA c #534c3a",
"#5 c #534c3b",
"jd c #534c3e",
"#Y c #534d3b",
"gF c #534e3f",
"mO c #534f43",
"eo c #53595b",
"fq c #535f69",
"eB c #544a3a",
"io c #544a3b",
"cl c #544b3a",
"c# c #544b3b",
"np c #544c3a",
"cp c #544c3b",
"gG c #544c3c",
"ey c #544d3b",
"i8 c #544d3e",
"fA c #544d3f",
"mN c #544d40",
"gD c #544e40",
"ea c #545856",
"de c #545e64",
"l2 c #554b3a",
"mc c #554b3b",
"mY c #554c3a",
"#Z c #554c3b",
"ck c #554c3c",
"m6 c #554d3a",
"ks c #554d3b",
"fC c #554e3f",
"kc c #554f40",
"cd c #564d3c",
"aQ c #564f41",
"il c #56513e",
"l1 c #56523e",
"mM c #565245",
"eb c #565c5d",
"ms c #56646a",
"#9 c #574d3e",
"cq c #574e3d",
"#S c #57503d",
"mE c #575042",
"mT c #575142",
"mF c #575245",
"mD c #575246",
"mS c #575346",
"eE c #575b5a",
"l5 c #57656d",
"#U c #584e3d",
"lF c #584f3b",
"lI c #584f3c",
"kt c #584f3d",
"#n c #584f3e",
"nz c #58503b",
"h2 c #58503c",
"ns c #58513c",
"ev c #58513d",
"aV c #585142",
"j. c #585144",
"mP c #585345",
"dj c #586069",
"ew c #594f3d",
"#v c #594f3e",
"et c #59503c",
"no c #59503d",
"nA c #59503e",
"nl c #59513c",
"dY c #59513d",
"hY c #59513e",
"aS c #595243",
"mQ c #595244",
"jt c #595344",
".6 c #595346",
"nu c #5a503d",
"ii c #5a503e",
"lZ c #5a503f",
"a# c #5a513e",
"#0 c #5a523e",
"es c #5a5240",
"nB c #5a5241",
"kU c #5a5244",
"bv c #5a5341",
"aI c #5a5343",
"mG c #5a5344",
"mJ c #5a5345",
"#X c #5a5446",
".3 c #5a5447",
"#8 c #5a5545",
"#4 c #5a5547",
"ci c #5b513e",
"#F c #5b523f",
"dX c #5b5241",
"ez c #5b533f",
"jT c #5b5342",
"l# c #5b5345",
"gk c #5b5442",
"hf c #5b5446",
"mV c #5b5447",
"ex c #5b5547",
".U c #5b5548",
"mL c #5b5648",
"#T c #5c523f",
"dT c #5c5240",
"dB c #5c5241",
"#G c #5c533e",
"ca c #5c533f",
"dF c #5c5341",
"hX c #5c5342",
"gp c #5c5441",
"ja c #5c5546",
"j# c #5c564a",
"kZ c #5c5749",
"dI c #5c5e58",
"k2 c #5c666d",
"dJ c #5c666e",
"eV c #5c6773",
"d1 c #5d523f",
"#r c #5d533f",
"#z c #5d5340",
"le c #5d5341",
"dC c #5d5342",
"ke c #5d5440",
"lm c #5d5442",
"lj c #5d5443",
"n# c #5d5542",
"fx c #5d5547",
"c9 c #5d5647",
"mC c #5d5749",
"dw c #5d574a",
"aC c #5d574e",
"ec c #5d6569",
"#m c #5e523f",
"im c #5e5440",
"lU c #5e5441",
"dG c #5e5443",
"bI c #5e5540",
"cb c #5e5541",
"dW c #5e5542",
"hE c #5e5544",
"co c #5e5642",
"mb c #5e5643",
"hJ c #5e5645",
"dn c #5e5647",
"e. c #5e5742",
"kW c #5e5747",
"fz c #5e5748",
"ak c #5e594d",
"jB c #5e6971",
"bP c #5f5540",
"lX c #5f5640",
"bV c #5f5641",
"kf c #5f5642",
"cj c #5f5643",
"hH c #5f5644",
"dA c #5f5645",
"lE c #5f5742",
"ni c #5f5746",
"aM c #5f5749",
"lH c #5f5843",
"fY c #5f5848",
"aX c #5f5849",
"dp c #5f594b",
"i9 c #5f594c",
"aN c #5f5a4c",
"jf c #5f5a4d",
"fD c #5f5a4f",
"dd c #5f5b51",
"lG c #605541",
"h3 c #605641",
"lh c #605645",
"l3 c #605743",
"in c #605744",
"m4 c #605745",
"dV c #605844",
"e# c #605845",
"aP c #60594a",
"je c #60594c",
"hh c #605a4a",
"fy c #605a4b",
"mU c #605a4d",
"dk c #605e55",
"bW c #615741",
"h1 c #615840",
"bJ c #615841",
"#1 c #615944",
"ly c #615945",
"aU c #615a4a",
"hd c #615a4c",
"aO c #615b4c",
"dc c #615b4d",
"df c #616c72",
"go c #625842",
"#A c #625942",
"nh c #625946",
"k# c #625b48",
"aZ c #625b4b",
"dl c #625b4d",
"c7 c #625c4d",
"fw c #625c4e",
"kY c #625c4f",
"#s c #635942",
"d5 c #635943",
"m1 c #635a44",
"bu c #635b47",
"l. c #635b4c",
"a0 c #635c4c",
"kS c #635e51",
".G c #64594c",
"m8 c #645a44",
"bM c #645a45",
"nf c #645b44",
"bR c #645b45",
"bU c #645b46",
"#l c #645b47",
"jS c #645c47",
"kT c #645c4c",
"hm c #645d4e",
"aY c #645d4f",
"aL c #645e50",
"m2 c #655b48",
"bH c #655c46",
"#u c #655c47",
"#B c #655c48",
"bg c #655d49",
"he c #655d4d",
"aW c #655e50",
"#R c #655e52",
"hi c #655f50",
"hk c #655f51",
"hc c #656052",
"hl c #656053",
"mt c #657075",
"kM c #657174",
"nb c #665b48",
"#k c #665c47",
"#E c #665c48",
"gn c #665d47",
"d0 c #665d48",
"li c #665d49",
"f8 c #665d4a",
"dS c #665e4a",
".9 c #665f4c",
"#j c #665f53",
"fu c #666051",
"m# c #667074",
"lT c #675c47",
"jV c #675e47",
"dz c #675e4a",
"hD c #675e4b",
"#. c #675f4b",
"c8 c #675f4f",
"dm c #67604f",
"fv c #676052",
"gm c #67614d",
"bG c #67614e",
"d# c #676151",
"db c #676153",
"c6 c #676254",
"d6 c #685d48",
"lA c #685d49",
"bQ c #685e48",
"dH c #685e4a",
"#t c #685f48",
"#y c #685f49",
"#q c #685f4a",
"ne c #68604a",
"nc c #68604d",
"na c #68614b",
"kX c #686153",
"aJ c #686253",
"bL c #695f49",
"hI c #695f4a",
"d4 c #69604a",
"m9 c #69604d",
"m3 c #69614e",
"m7 c #69624c",
"#D c #69624f",
"aT c #696253",
"aK c #696254",
"k8 c #697276",
"bq c #6a614a",
"bf c #6a614c",
"f7 c #6a614d",
"ng c #6a614e",
"mZ c #6a624c",
".5 c #6a624e",
".1 c #6a624f",
"n. c #6a634f",
"hj c #6a6354",
"iS c #6a747b",
"bc c #6b614b",
"bK c #6b614c",
"f3 c #6b624b",
"bX c #6b624c",
"jy c #6b624d",
".S c #6b624f",
"dy c #6b634c",
"nd c #6b634f",
".Z c #6c634c",
"m0 c #6c644f",
"du c #6c6451",
"bs c #6c6551",
"da c #6c6556",
".g c #6c6960",
"e7 c #6c767d",
"bb c #6d644e",
"bt c #6d654f",
"jR c #6d6550",
"jQ c #6d6552",
"f1 c #6d6752",
"lv c #6d7479",
"bp c #6e644e",
"jw c #6e654f",
"ba c #6e6752",
"bi c #6e6852",
"jz c #6e6853",
"bl c #6f6652",
"bo c #6f6853",
"be c #706752",
"jA c #706755",
"bj c #706851",
"f5 c #706853",
"f4 c #706856",
"dE c #706952",
"hG c #706953",
"d3 c #706b58",
".X c #716852",
"jx c #716853",
"bd c #716856",
"bk c #716857",
"g. c #716952",
"f2 c #716953",
"br c #716957",
"lg c #716a53",
"ll c #716a54",
".8 c #716a55",
"#p c #716b58",
"#x c #716b59",
"dx c #726a53",
"f6 c #726a54",
".Y c #726a55",
".2 c #726c59",
"b8 c #726e63",
"bm c #736b55",
".R c #736b56",
".T c #736c59",
".0 c #746c57",
".Q c #746c58",
"dv c #746d5a",
"f. c #74aeb4",
"dt c #756d59",
"lR c #767e7f",
"fn c #76abb2",
"cA c #777469",
"iD c #778e8b",
"bF c #787468",
"#Q c #797367",
"jr c #798680",
"dg c #7b878a",
"lo c #7c8484",
".W c #7d7560",
".P c #7d786d",
"b# c #7d7a6e",
"i3 c #7d7c76",
".l c #7f7163",
"az c #807c72",
"aG c #817f74",
".B c #827163",
".u c #827263",
"ad c #827d70",
"j9 c #838980",
"aB c #847e73",
"#i c #847f73",
"ig c #859198",
"ae c #868173",
"aD c #87857b",
"di c #879396",
"aA c #888377",
"lK c #888d8f",
"m. c #888f8f",
"af c #898376",
"ag c #898477",
"ah c #898478",
"ac c #8a8376",
"b2 c #8a867a",
"aj c #8a867b",
"ki c #8ab7b8",
"ab c #8b867a",
"#P c #8c877b",
"#O c #8c887a",
"aF c #8c8a80",
"eF c #8c9194",
"b7 c #8d887c",
".7 c #8d8978",
"#h c #8d897c",
"c0 c #8d8c81",
"em c #8d959b",
"b0 c #8e8a7e",
"dh c #8e9899",
"lp c #8f9b97",
".i c #918574",
".E c #91897a",
".j c #91897b",
"aE c #918e84",
"jY c #919698",
".q c #928777",
"bA c #928e80",
".A c #938675",
".t c #938a7b",
"#g c #938e80",
"ai c #938e82",
".V c #93907d",
"b1 c #939083",
"cy c #939084",
".k c #948675",
".z c #948b7b",
"bZ c #948e81",
".4 c #94917e",
".F c #958675",
"a5 c #958f83",
"by c #959082",
"a6 c #959287",
".w c #968d7e",
".o c #968d7f",
".h c #968f81",
"c5 c #969384",
"bz c #979486",
"bB c #979488",
"b3 c #97948a",
"jh c #979a9b",
"e9 c #97b5ba",
"b6 c #989384",
".s c #998774",
"jO c #998b81",
".r c #999081",
".y c #999082",
"cx c #999488",
"bD c #999586",
"#L c #999587",
".D c #9a8a7a",
".b c #9a9b93",
"#K c #9b9587",
"#N c #9b9688",
"a4 c #9b9689",
"b5 c #9b9888",
"b. c #9b988b",
".d c #9b9b92",
"l6 c #9b9d99",
"l8 c #9b9e98",
"a3 c #9c988a",
"Qt c #9c9d96",
".N c #9d9a8f",
".f c #9d9e95",
"bx c #9e9b8c",
"cz c #9e9c91",
".e c #9fa097",
"ed c #9fa3a8",
".C c #a0998c",
"#J c #a09b8c",
"#f c #a09c8d",
".O c #a09e93",
"cv c #a09f95",
"eR c #a1eeee",
".n c #a29381",
"a2 c #a29e90",
".# c #a2a39b",
".v c #a39481",
"ct c #a3a298",
"jC c #a3a6a3",
"a9 c #a4a194",
"fW c #a4a19f",
".c c #a4a59d",
".p c #a59586",
".x c #a59686",
".a c #a5a69f",
"cu c #a6a59b",
"kD c #a6a6a0",
".m c #a79e8e",
"#e c #a7a494",
"bE c #a7a495",
"#c c #a7a497",
"a8 c #a8a698",
"l9 c #a8a9a3",
"iq c #a8aaa8",
"#b c #a9a597",
"#d c #aaa797",
"cw c #aaa89d",
".M c #aaa89f",
"iT c #aaacaa",
"jZ c #aaafab",
"#M c #aba99a",
"cZ c #abaa9c",
"k3 c #abaca6",
"kh c #acada9",
"dP c #acb4b7",
".L c #adaba0",
"cX c #aeada0",
"#I c #b0aea1",
"#a c #b2b0a2",
"l7 c #b2b1aa",
"cY c #b2b2a5",
"b4 c #b3b0a2",
".K c #b3b1a7",
"bC c #b3b2a3",
"lL c #b3b2ab",
"c3 c #b6b5a9",
"c4 c #b6b6aa",
".J c #b7b7ae",
"cW c #b7b8ad",
".I c #b9b8af",
"c2 c #b9baad",
"a7 c #babaaf",
"c1 c #bdbfb2",
"ef c #bfd7d6",
".H c #c0c1ba",
"hV c #c5cecf",
"fp c #c7ccd0",
"eJ c #c9d0cf",
"fV c #c9dcdf",
"gQ c #cfd5d9",
"g9 c #cfd7da",
"ek c #cfe2e5",
"eG c #d1d3d5",
"dN c #d1e4e7",
"eU c #d3d6d9",
"hK c #d6dce1",
"dM c #d9dce1",
"e8 c #dce0e1",
"gB c #dce1e3",
"h5 c #dee1e4",
"gi c #e1e5e6",
"fF c #e3e8ea",
"gI c #e3ebee",
"hn c #e4eaee",
"g2 c #e4ecee",
"ga c #e7edef",
"dK c #e8e9eb",
"fo c #eff6f6",
"dL c #f9f3ed",
"el c #f9f9f9",
"ee c #faf8f8",
"eT c #fbfbfb",
"eS c #fcfefe",
"dO c #fffaf3",
"eI c #fffcfc",
"eH c #ffffff",
"Qt.#.#.a.b.c.d.e.f.g.h.i.j.k.l.m.n.o.p.q.r.s.t.k.u.m.v.w.x.q.y.s.z.A.B.C.D.E.F.G",
".H.I.J.K.L.L.M.N.O.P.Q.R.S.T.U.V.W.X.Y.Z.Q.0.1.2.3.4.W.X.Y.Z.Q.Q.5.2.6.7.8.9#.##",
"#a#b#c#d#e#f#g#h#i#j#k#l#m#n#o#p#q#r#s#t#k#u#m#v#w#x#y#z#A#t#u#B#m#v#C#D#E#F#G#H",
"#I#J#K#L#M#N#O#P#Q#R#S#T#U#V#W#X#Y#Z#0#1#S#T#U#2#3#4#5#Z#0#1#S#T#U#6#7#8#9a.a#aa",
"abacadaeafagahaiajakalam#3anaoapaqar#Wasalam#3anaoatauauaqasasam#3anavawaxau#7ay",
"azajaAaBaCaDaEaFaGaHaIaJaKaLaMaNaOaPaQaRaSaJaTaLaMaNaOaUaQaRaVaJaTaWaXaYaZa0aOa1",
"a2a3a4a5a6a7a8a9b.b#ba.Xbbbcbdbe.Ybfbgbhbibjbbbcbkblbmbfbgbnbobjbpbqbrbsbtbubvbw",
"bxbybzbAbBbCbDbEa3bFbGbHbIbJbKbLbM#rbNbObGbHbPbJbKbQbR#rbSbTbGbUbVbWbXbQbR#rbSbY",
"bZb0b1b2b3b4b5b6b7b8b9c.c#cacbcccdcecfcgchc.c#cicjccckclcmcgcnc.c##Tcocpcqa.crcs",
"ctcuctcvctcwcxcyczcAcBcCcDcEcFcGcHcIcJcKcLcCcDcMcNcGcHcIcJcOcPcCcDcMcQcRcScTcUcV",
"cWcXcYcZc0c1c2c3c4c5c6c7c8c9d.aZd#dadbdcc6dddedfdgdhdidjdkdcc6dldmdnd.dodpdqdrds",
"dt.0dudvdw.V.Wdx.RdydzdAdBdCdDdEdFdG#ldHdIdJdKdLdMdNdOdPdQdRdSdAdTdCdUdVdWdXdYdZ",
"d0#ld1#vd2d3d4d1d5#td6#zd7d8d9e.e#eaebecedeeefegeheiejekelemeneoepeqeresbP#zeteu",
"ev#zew#VcGexey#Zez#1eA#veBeCeDeEeFeGeHeIeJeKeLeMeNeheOePeQeReSeTeUeVeWeXcceYeZe0",
"e1as#3cJaoe2aue3au#we4cDe5e6e7e8e9f.f#fafbfcfdfefffgfhfifjfkflfmfnfofpfqcHfrfsft",
"aSfufvfwfxdwfyfzfAfBfCfwfDfEfFfGfHfIfJfKfdfLfMfNfOfPfQfQfRfififSfTfUfVfWfXfYfZf0",
"f1f2bbf3f4f5f6f7f8f9big..1g#gafHgbgcfLfMfdfNfNfNfdgdfQfQgefififigfggghgigjgkbvgl",
"gmgnbIgobKbLbMd1bS#wbGgngpgqgagrgsgtgugvfMfNfNfNgwgxfQfQgygegzgzgzgzgAgBgC#rbSbY",
"gDcc#Z#rdWgEcqclcrcggFccgGgHgIfHgJgtgKgLgwfLfMfNgwgMfQfQfQfQgNgzgzgOgPgQgRgSgTgU",
"gVgWgXgYcRaxgZcIcgcOg0cH#3g1g2g3g4gtg5g6g7fLfNfNgwg8fQfQgyfQgNgzgzgzgPg9h.h#hahb",
"hchdhehfhghhhihjhkdphlhdhmg1hnhohphqhrhshthuhvhwfdeOfQfQfQhxhygzgzgzggg9hzhAhBhC",
"hDhEdFdChFhGdFhH#BhIdzhJdXgHhKhLhMhqhNhOhPg6hQhvfdhRfQfQfQhShTgzgzgzhUhVhWhXhYdZ",
"d6#zbShZh0e.h1h2h3bcd6#zh4gqh5h6h7h8hNh9i.i#iaibfdhRgyfQicgOidiegzgzifigih#zeteu",
"eyiieBijikileAc#iminey#vioipiqirisithNhNhOiuhPivivhRiwixiyiziAiAiBiCiDiEiFiGiHiI",
"iJgXiK#3iLiMiNiOiPiQiJgX#7iRiSiTiUiViWhNhriuiuiXiviYiwgeiZi0iAi0i1i2i3i4gWi5i6i7",
"i8i9i9i9j.j#exjajbjcjdjei9jfjgjhjifIjjjkhNjljmjmjnjofQiAiAiAiAjpjqjrjs.3jtfYjujv",
"badxjwbXbdjx.Yjyf8f9jzf2jwf3jAjBjCjDjEjFhNhNhNjGjHjIiAjJiAjKjLjMjNjOjPjQjRjSjTjU",
"gmjVbIgobKbLbMd1jWjXgmgnbPbJjybLjYjZj0j1j2j3j4j5j5j6iAjJjKiej7j8j9k.k#bQbR#rkakb",
"kckd#Zkekfcecq#Zcf#7gDkd#Z#rkfcekgkhkikjkkklj5j5j5jJiAiAkmknkokpkqkrkfksktclcmgU",
"kucEkvkvkwkx#7fBkykzkAcEkvkvkwkxkBkCkDkEkFkGkHj5jHjJiAkIkJkKkLkMi4#7kNkOcmkPkQkR",
"kSdpkTkUkVkWhmkXkYkZkSdpkTkUk0c9hmk1k2k3j0j1k4kHjHiAiek5k6k7k8k9l.l#hgla.Ulblcld",
"hDhEledClflghXlhlihIdzhEleljlklllmlhlnlolplqlrlsltjMkJknlulvlwhEledGlxlycjhXhYlz",
"lA#zlBlClDlEh1lFlGbcd6led7hZijlHh1lIimlJlKlLlMlNlOlPk6lQlRlSlTlUlVhZlWeslX#zetlY",
"kslZeBijl0l1cpcpcbdVksiil2eCeuilcpcpiml3l4l5l6l7l8l9m.m#mambks#vmcmdmedokdiGmfmg",
"mhkv#Waumimjmkmlmmalmhkv#WariLmnmomlmmalcrmpmqmrmsmtmumvmwasbTlW#3axmxmygYgWmzmA",
"mBjtmCmDmEmF#XmGmEmHmIjtmCmDmEmF#XmJmEmKd2mGmLmMmNmOmPmQmEmR#omJkZmSmTmUmVjamWmX",
"mYmZm0m1m2m3.5lmm4m5m6m7m0m8m2m9n.n#m4m5m6nabtm8nbncndn#m4m5m6nebtnfnbngndnhninj",
"nknlnmnnnoewnpnqnrglnknsntnnnuktmYnqeYnvnwnsntnnnukt#ZnqeYnxnynznpjWnunAnBnCnDnE",
"nFnGnGnH#CarnIaufBnJnKnGnLnHnMarnNaufBnOnKnGmlnHnMarnGarfBnOnPiOmlnHnMiOnQnR#WnS",
"nTnUnVnWnXnYnZn0n1n2n3nUnVnWnXnYnZn1n1n4n3nUnVnWnXnYnZn1n1n4n5nUnWnWnXn6n7n8n9o."};
