/* XPM */
static char *dummy[]={
"40 40 4 1",
"a c #43e4a1",
"# c #75e9bd",
"b c #aaedda",
". c #ffd800",
"........................................",
".###a#######a#######a#######a##########.",
".a#######a###b###a#######a###b###a#####.",
".####a##bb###########a##bb###########a#.",
".######abb#############abb#############.",
".##############b###############b#######.",
".#bb##############bb##############bb###.",
".#bb###########a##bb###########a##bb###.",
".####a#b##a##########a#b##a##########a#.",
".######################################.",
".a###b###a#######a###b###a#######a###b#.",
".b###########a##bb###########a##bb#####.",
".b#############abb#############abb#####.",
".######b###############b###############.",
".#########bb##############bb###########.",
".######a##bb###########a##bb###########.",
".#a##########a#b##a##########a#b##a####.",
".######################################.",
".a#######a###b###a#######a###b###a#####.",
".####a##bb###########a##bb###########a#.",
".######abb#############abb#############.",
".##############b###############b#######.",
".#bb##############bb##############bb###.",
".#bb###########a##bb###########a##bb###.",
".####a#b##a##########a#b##a##########a#.",
".######################################.",
".a###b###a#######a###b###a#######a###b#.",
".b###########a##bb###########a##bb#####.",
".b#############abb#############abb#####.",
".######b###############b###############.",
".#########bb##############bb###########.",
".######a##bb###########a##bb###########.",
".#a##########a#b##a##########a#b##a####.",
".######################################.",
".a#######a###b###a#######a###b###a#####.",
".####a##bb###########a##bb###########a#.",
".######abb#############abb#############.",
".##############b###############b#######.",
".#bb##############bb##############bb###.",
"........................................"};
