/* XPM */
static char *dummy[]={
"40 40 495 2",
"e8 c #32a67a",
"eI c #332810",
"eG c #362a11",
"eJ c #382c13",
"eH c #392d14",
"eF c #3a2e14",
"f. c #41300f",
"eK c #4c3914",
"fv c #4d3a14",
"eR c #543e13",
"eM c #543e14",
"e3 c #553e14",
"eY c #553f14",
"eP c #553f15",
"eT c #563f14",
"e0 c #564015",
"eW c #574015",
"eU c #574016",
"e6 c #574216",
"eX c #574217",
"eO c #584015",
"e4 c #584016",
"e5 c #584115",
"e1 c #584116",
"eN c #584216",
"e7 c #594116",
"eV c #594217",
"eS c #594318",
"eZ c #5a4217",
"e2 c #5a4418",
"eL c #5b4317",
"fa c #5c4212",
"fd c #5c4313",
"fk c #5c4414",
"eQ c #5c4418",
"fu c #5d4312",
"fp c #5d4413",
"fn c #5d4414",
"ft c #5d4415",
"ff c #5d4515",
"fh c #5e4413",
"fs c #5e4515",
"f# c #5f4412",
"fi c #5f4513",
"fq c #5f4514",
"fo c #604412",
"fm c #604413",
"fj c #604512",
"fe c #604513",
"fg c #614513",
"fl c #614614",
"fb c #614715",
"fr c #624513",
"fc c #624514",
"e9 c #67aa97",
"fA c #6a4f19",
"fN c #6b501a",
"fx c #6c5019",
"fK c #6c511a",
"fH c #6c511b",
"fE c #6d5019",
"fR c #6d511b",
"fC c #6d531c",
"fQ c #6e5119",
"fL c #6e511a",
"fF c #6e521a",
"fO c #6e531c",
"fM c #6f531b",
"fS c #705219",
"fw c #70521a",
"fB c #70531a",
"fJ c #71521a",
"fG c #71531a",
"fP c #71541a",
"fI c #71541b",
"fy c #71551c",
"fD c #72531a",
"fz c #73541b",
".C c #8c6f2c",
".H c #8d712e",
".K c #8e702c",
".N c #8e702d",
".R c #8e712e",
".t c #8e722e",
".F c #8e722f",
".x c #8f702c",
".G c #8f712c",
".q c #8f712d",
".O c #8f712e",
".o c #8f722e",
".y c #8f732f",
".s c #90722e",
".Q c #90732e",
".B c #90732f",
".w c #907330",
".L c #91722d",
".J c #91732e",
".v c #91742f",
".A c #917430",
".z c #92732e",
".D c #92742f",
".M c #927530",
".u c #937430",
".E c #937631",
".I c #947630",
".P c #947631",
".p c #947731",
".r c #947732",
".n c #957832",
"dY c #9a7b35",
"dX c #9a7c36",
"d3 c #9b7b34",
"#t c #9b7c35",
"#d c #9b7d35",
"d1 c #9c7c35",
"d2 c #9c7c36",
"#A c #9c7d34",
"#f c #9c7d35",
"#h c #9c7d36",
"#m c #9c7d37",
"#c c #9c7e37",
"#B c #9d7c35",
"#o c #9d7d35",
"d4 c #9d7d36",
"#k c #9d7e37",
"#x c #9d7f37",
"#w c #9e7d35",
"d7 c #9e7d37",
"#j c #9e7e35",
"#q c #9e7e36",
"d6 c #9e7e37",
"#r c #9e7f38",
"#C c #9e8038",
"b3 c #9f7f36",
"#y c #9f7f37",
"cK c #9f7f38",
"dA c #9f8036",
"#D c #9f8037",
"#p c #9f8038",
"#v c #9f8138",
"#i c #9f8139",
"d8 c #a07f37",
"#l c #a08038",
"cC c #a08039",
"b9 c #a08136",
"#s c #a08137",
"bR c #a08138",
"#n c #a08139",
"cA c #a0813a",
"b2 c #a08238",
"#z c #a08239",
"bX c #a18036",
"cG c #a18038",
"dx c #a18136",
"bS c #a18137",
"#e c #a18138",
"#g c #a18139",
"cL c #a1813a",
"dD c #a18237",
"dw c #a18238",
"b5 c #a18239",
"cF c #a1823a",
"bV c #a18339",
"cI c #a1833b",
"bU c #a28137",
"cN c #a28138",
"cH c #a28139",
"b6 c #a28237",
"bZ c #a28238",
"#u c #a28239",
"d5 c #a2823a",
"ca c #a28338",
"b7 c #a28339",
"cQ c #a2833b",
"dB c #a28439",
"b0 c #a2843a",
"cd c #a38237",
"dz c #a38238",
"dZ c #a3823a",
"cP c #a3833b",
"d. c #a3833d",
"bQ c #a3843a",
"cE c #a3843b",
"cM c #a3843c",
"d# c #a3843d",
"b1 c #a3853a",
"c# c #a3853b",
"bY c #a3863a",
"cc c #a3863b",
"cO c #a4833b",
"b8 c #a48439",
"cJ c #a4843a",
"cB c #a4843b",
"dh c #a4843d",
"bd c #a48539",
"ag c #a4853a",
"cR c #a4853b",
"cD c #a4853c",
"dy c #a4863a",
"bT c #a4863b",
"d0 c #a5843b",
"bm c #a5853a",
"df c #a5853c",
"da c #a5853d",
"de c #a5853e",
"#V c #a5863a",
"cb c #a5863b",
"b# c #a5863c",
"dj c #a5863e",
"aR c #a5863f",
"c. c #a5873b",
"bW c #a5873c",
"dC c #a5883c",
"bg c #a68539",
"db c #a6853d",
"dk c #a6853e",
"ba c #a68639",
"at c #a6863a",
"dd c #a6863e",
"aS c #a6863f",
"bi c #a6873a",
"b. c #a6873b",
"be c #a6873c",
"#6 c #a6883b",
"aq c #a6883c",
"#J c #a6883d",
"am c #a7863a",
"dl c #a7863d",
"dg c #a7863e",
"di c #a7863f",
"#0 c #a7873a",
"#H c #a7873b",
"b4 c #a7873c",
"a3 c #a7873e",
"dc c #a7873f",
"#F c #a7883b",
"af c #a7883c",
"#9 c #a7883d",
"bv c #a7893c",
"#X c #a7893d",
"bc c #a7893e",
"#P c #a8873a",
"bb c #a8873b",
"aU c #a8873f",
"a7 c #a88740",
"bk c #a8883a",
"bw c #a8883b",
"#U c #a8883c",
"a9 c #a8883f",
"aW c #a88840",
"au c #a8893c",
"#M c #a8893d",
"aj c #a8893e",
"a5 c #a88940",
"#Y c #a88a3d",
"aa c #a88a3e",
"#S c #a88a3f",
"#L c #a9883a",
"ac c #a9883b",
"aX c #a9883f",
"a# c #a9893b",
"dp c #a9893d",
"a1 c #a98940",
"a8 c #a98941",
"bn c #a98a3c",
"#2 c #a98a3d",
"br c #a98a3e",
"a0 c #a98a41",
"dn c #a98b3d",
"#T c #a98b3e",
"ae c #a98b3f",
"bx c #a98c3f",
"#R c #aa883b",
"#5 c #aa893b",
"bt c #aa893c",
"bf c #aa893d",
"aY c #aa8940",
"a6 c #aa8941",
"dq c #aa8a3b",
"bh c #aa8a3c",
"aH c #aa8a3d",
"aT c #aa8a41",
"dF c #aa8b3d",
"ap c #aa8b3e",
"#1 c #aa8b3f",
"aZ c #aa8b42",
"bu c #aa8c3e",
"#Q c #aa8c3f",
"ad c #aa8c40",
"bo c #aa8d3f",
"ch c #aa8d40",
"cg c #ab893c",
"dE c #ab8a3c",
"aC c #ab8a3d",
"a2 c #ab8a40",
"aV c #ab8a41",
"#Z c #ab8b3d",
"bs c #ab8b3e",
"a4 c #ab8b42",
"#3 c #ab8c3d",
"bj c #ab8c3e",
"#E c #ab8c3f",
"cU c #ab8c40",
"aM c #ab8c41",
"ab c #ab8d3f",
"a. c #ab8d40",
"do c #ab8e3f",
"ak c #ab8e40",
"ai c #ac8b3e",
"ci c #ac8c3d",
"#N c #ac8c3e",
"aO c #ac8c3f",
"aA c #ac8c41",
"an c #ac8d3e",
"#4 c #ac8d3f",
"#K c #ac8d40",
"aJ c #ac8d41",
"#O c #ac8e40",
"dm c #ac8e41",
"aF c #ac8e42",
"ay c #ad8c3d",
"aK c #ad8c3e",
"c6 c #ad8c3f",
"#G c #ad8d3e",
"ce c #ad8d3f",
"c9 c #ad8d40",
"c8 c #ad8d41",
"bl c #ad8e3e",
"#I c #ad8e40",
"cS c #ad8e41",
"cZ c #ad8e42",
"al c #ad8f40",
"bq c #ad8f41",
"aQ c #ad9042",
"aE c #ae8d3e",
"cY c #ae8d3f",
"ar c #ae8e3e",
"#7 c #ae8e3f",
"ao c #ae8e40",
"#W c #ae8e41",
"c5 c #ae8e42",
"as c #ae8f40",
"#8 c #ae8f41",
"aD c #ae8f42",
"c2 c #ae8f43",
"ax c #ae9043",
"bp c #af8e3f",
"c1 c #af8e40",
"aL c #af8e41",
"em c #af8e43",
"ds c #af8e45",
"aN c #af8f40",
"az c #af8f41",
"ck c #af8f44",
"bz c #af8f45",
"dr c #af8f46",
"cf c #af9041",
"c3 c #af9043",
"aB c #af9143",
"cX c #af9144",
"ah c #b09041",
"aP c #b09042",
"c7 c #b09043",
"cs c #b09044",
"dv c #b09045",
"av c #b09143",
"c0 c #b09244",
"eh c #b18e42",
"aG c #b19041",
"aw c #b19042",
"cp c #b19043",
"bM c #b19045",
"bL c #b19046",
"aI c #b19143",
"cw c #b19145",
"by c #b19146",
"du c #b19147",
"cT c #b19243",
"cW c #b19244",
"ev c #b28f43",
"cv c #b29044",
"bB c #b29045",
"cV c #b29142",
"cl c #b29144",
"bF c #b29145",
"bD c #b29146",
"bG c #b29147",
"c4 c #b29244",
"cm c #b29245",
"cx c #b29246",
"bK c #b29247",
"cu c #b29346",
"ex c #b39045",
"cn c #b39144",
"bN c #b39145",
"bJ c #b39146",
"cz c #b39244",
"ct c #b39246",
"bP c #b39247",
"dt c #b39248",
".T c #b39347",
"bE c #b39348",
"cy c #b39447",
"cr c #b49244",
"eC c #b49246",
"bH c #b49247",
".1 c #b49346",
".6 c #b49347",
"bC c #b49348",
"cq c #b49447",
"bO c #b49448",
"bI c #b49449",
"cj c #b49547",
"eq c #b59144",
"e. c #b59244",
"ed c #b59245",
"eb c #b59246",
".3 c #b59346",
"bA c #b59347",
".X c #b59446",
".V c #b59447",
".7 c #b59547",
".5 c #b59548",
"co c #b59648",
"eE c #b69245",
"et c #b69346",
".m c #b69447",
".f c #b69448",
".8 c #b69546",
".Z c #b69547",
".0 c #b69648",
"## c #b69649",
"ef c #b79346",
".k c #b79448",
".4 c #b79547",
".g c #b79548",
"dN c #b79647",
"#a c #b79649",
".S c #b79749",
".Y c #b7974a",
"ek c #b89447",
".b c #b89548",
".e c #b89549",
".i c #b89648",
".j c #b89649",
"dK c #b89748",
".d c #b89749",
"#b c #b8974a",
".W c #b8984a",
".2 c #b8984b",
"eo c #b99548",
".h c #b99649",
"dR c #b99748",
".l c #b99749",
".U c #b99849",
"dQ c #b9984a",
"#. c #b9994a",
".9 c #b9994b",
"dW c #ba9748",
".c c #ba9749",
".a c #ba974a",
"dS c #ba994a",
"dU c #ba994b",
"dO c #ba9a4b",
"dJ c #ba9a4c",
"eA c #bb9748",
"er c #bb9849",
"dL c #bb994a",
"dV c #bb9a4c",
"dI c #bb9b4c",
"dM c #bb9b4d",
"dP c #bc9a4b",
"dH c #bc9b4b",
"dG c #bc9c4c",
"dT c #bc9c4d",
"eB c #be9a4a",
".# c #be9a4e",
"Qt c #be9b4f",
"d9 c #bf9c4b",
"ei c #c09a4a",
"es c #c09c4d",
"el c #c19c4c",
"ez c #c19c4d",
"ey c #c29d4c",
"ee c #c29d4e",
"ej c #c39e4f",
"ew c #c5a050",
"eD c #c6a150",
"ec c #c7a150",
"ep c #c7a251",
"e# c #c9a454",
"ea c #caa351",
"en c #caa452",
"eg c #cba554",
"eu c #cca654",
"Qt.#.a.b.c.d.e.f.g.h.i.j.k.g.h.h.h.g.k.b.l.j.e.m.k.h.i.j.k.g.j.l.j.g.f.b.l.d.e.f",
".n.o.p.q.r.s.t.q.t.u.v.w.x.y.z.A.B.C.D.q.E.v.F.G.H.I.J.B.K.A.L.M.B.N.B.O.P.Q.R.L",
".S.T.U.V.W.X.Y.Z.0.d.1.2.3.Y.4.5.S.6.U.1.W.7.Y.8.0.i.6.9.3#..V###a.5.d.Z#b.V.Y.4",
"#c#d#e#f#g#h#i#j#k#l#m#n#o#p#q#r#p#h#s#t#u#k#v#w#x#y#m#z#A#n#B#p#C#k#D#h#n#h#p#j",
"#E#F#G#H#I#J#K#L#M#N#J#O#P#Q#R#S#T#U#G#V#W#X#K#L#Y#Z#J#O#P#O#0#1#T#2#3#F#4#J#E#5",
"#E#6#7#0#8#9a.a##X#Naaa.#0abacadaeaf#7agah#Ma.a##Yaiajak#0alam#K#T#Man#0ao#X#Q#5",
"ab#6#7#H#I#Xa.ac#Yapaa#O#0aba#ae#Qaqar#Vas#Ma.a##T#Zaj#O#0alat#Eaeau#N#F#4#X#Q#5",
"av#1awaiav#Kaxay#KazaAaBaCaDaEaFaD#1aGaHaIaJaxaK#KaLaMaB#ZavaiaDaD#EaNaOaPaAaQaE",
"aRaSaTaUaVaWaTaXaWaYaWaZaUa0aXa1aTaUa2a3a4aWaTaXa5a6a7aZaUaTaUa8a8aWaYa9aVa9a0aX",
"apb.#3at#Eb##Q#0afaCb#adba#Tbbbcaab.#Zbd#Kbe#Q#P#Xbfb##Ebaabbgaabc#Ubhbibjb##Tbk",
"ab#Fbl#0as#9a.#L#XaKbcak#P#Q#R#Qaeaf#Gbmaz#Mak#L#Yai#M#O#0#O#0ab#Tbn#3#H#I#9bo#5",
"#4#6bp#Hbq#9a.a##Ybjbr#O#P#4a##1#Qaq#7bmaz#Ma.#5#2bsaj#O#0#8am#K#1auaK#H#Ibcbobt",
"abb.#Gbb#O#9ad#L#Mbsajak#0bu#5ae#1aqaK#V#I#Yad#L#Y#Z#Ma.#0#O#0#E#Tbv#Zbw#4#Xbx#5",
"bybzbAbBbCbDbEbFbGbHbDbIbB.TbJbKbCbLbAbMbCbKbEbNbKbHbybIbMbObBbPbEbD.6bDbCbDbEbJ",
"bQbRatbSb.bRbTbUbVbm#nbWbXbYbZb0b1b2#Vb3b4b5bTb6b7b8#nbWb9c.bXc#b0cabdbScbbRcccd",
"#Eaf#G#H#I#9#Kbkbv#N#Jak#Pbu#Raeaeaf#Gbm#8#X#Kac#Ybs#9#O#0#O#0#1br#2bs#Hce#Jbo#5",
"abb.#7#0#8#9a.a##Y#Naaa.#Paba#ad#1af#7bmcfaja.#5#Yaiaj#O#0alam#K#Tauce#Haobc#Qcg",
"#Eb.#G#H#O#9ch#L#M#Zaaa.#0#Ea#ae#1aq#G#V#I#Mchac#YaH#Ma.#0#Oam#E#Tauci#F#4#Xbx#5",
"cjck.Zcl.5cmcjcncm.XbDcocpcqcrbK.Vcs.8cp.5ctbOcncu.1bycocp.5cv.Tcqcw.1cl.Vcxcycz",
"cA#pcBcCcD#ncE#ecFcBcAcDcGcEcHcIcE#ncJcKb#cLcMcNcFcOcAcD#lcDcGcPcQb5bQ#ncR#ncEbZ",
"#Eaf#G#F#I#J#K#L#Y#N#J#K#Pbuacae#T#U#G#V#W#X#Kac#2bs#J#O#0#O#0#1br#2#Z#Fce#J#E#5",
"#Eb.#7#0#8#9a.ac#XaKaaak#Pabac#Qaeaf#7agcfbca.#5#2aiajak#0alam#K#T#M#N#Hao#9#Q#5",
"#4#6#7#H#I#9a.ac#Y#Zaaak#0#4a#ae#1af#7#V#8aja.a##2aHaj#O#0cSat#E#Tau#Naf#4#Mbo#5",
"cTcUcVcecWcScXcYcSawcZc0#NaBc1c2c3cUcVbsc4c5cXcYcSaPcZcW#NcWc6c7c3c8ahc9aIcZaBbp",
"d.d#aUdaaWdbdcdbddaUdea9dfdcdgaSdcdaaUdhaWdddcdbdddcdeaWdfa9dbdidcdja3daa9dkdcdl",
"abaf#G#H#Iaq#Kac#Y#N#Jdm#Pboac#S#1af#Gatao#X#Kacdnbs#J#O#0#Oam#1ae#2bj#F#4#JcU#5",
"#E#F#G#0#8#9a.#L#XaKbcak#Pbuac#1aeaf#Gbmaz#Xdoac#Yaibc#O#0#Oam#E#Tdpbj#H#I#9bo#5",
"ab#6#7#0#8#Xa.a##2bjaa#O#P#4ac#Q#Qaf#7bm#8aja.#5#2#Zaj#O#0#8bi#Kaeau#G#H#Ibcbodq",
"abb.#Gbb#I#X#Q#L#M#Zaja.#0#Q#5ae#1be#G#V#Iaach#L#Y#Z#Mak#0#K#0#E#Tau#Zbw#4#Xbx#5",
"drds.6bMbEbDdtbBbDbPbybCbBbPbFdudtbL.6dvbEbGbEbFbGbPbLbObMbCbMbKbPbybPbMbPbDbPbJ",
"bTdwatbSbeb2cbb6bVat#zbedxdydzb0b1dwatdA#9b5c.b6dBbm#ndCdxbebScRbQb7bddDb.b2bTcd",
"#E#F#G#H#I#9#Kbk#X#N#J#O#Pbu#Rae#Taf#Gbm#8#X#4#L#Ybs#9#O#0#Oam#Q#T#2#3#H#4#J#E#5",
"abb.#7#0az#9a.a##M#Nbrak#0abac#Qaeaf#7agah#Ma.#5#Yaiaj#O#0alam#K#Tau#Gb.ao#X#QdE",
"abb.#G#H#I#Xboac#Yapaaak#0#Eacaeaeaq#G#V#I#Mchac#2dFajak#0#Oam#E#Tau#3af#4#M#Q#5",
"dGcodH.idI.WdJdK.WdL#bdMdNdO.c.2dO##dP.gdIdQdJdRdQdS.YdTdNdI.idUdO.ddLdKdV.WdJdW",
"dXdYdZ#kd0d1cLd1#rdZd2cPd3#n#lcK#g#hcGd2d0d4cFd1#rd5d2cPd3d5d6cG#ld7d8#kcO#h#g#B",
"d9e.e#bNeaebeced.ceeefegehee.keiejekelemeneoepeqereseteuevewexeyezeAeBeCecefeDeE",
"eFeGeHeIeJeKeLeMeNeOePeQeReSeTeUeVeWeXeYeZe0eLeYe1eOePeQeRe2e3e4eVe5e6eTe7ePeLe3",
"e8e8e9e9e8f.f#fafbfcfdfef#fffgfhfifjfkflfmfnfofpfqfrfpf#f#fsfgfhfifjftfefgfnf#fu",
"e8e8e9e9e8fvfwfxfyfzfAfBfwfCfDfEfFfGfHfIfJfKfJfLfMfzfNfwfwfOfPfQfFfGfRfGfDfNfSfF"};
