/* XPM */
static char *dummy[]={
"40 40 347 2",
"Qt c None",
"#1 c #000000",
"#0 c #010000",
"#4 c #010100",
"c1 c #020202",
"aU c #040301",
"b9 c #050303",
"aY c #050402",
"ay c #080504",
"a5 c #090704",
"dw c #090909",
"ak c #0a0606",
"ao c #0a0705",
"b1 c #0d0a06",
"a# c #0f0909",
"cN c #110d08",
"aF c #130b0b",
"b7 c #130e09",
"aN c #150c05",
"c4 c #160d0d",
"#T c #161005",
"#Y c #161105",
"#U c #161106",
"cs c #17100d",
"#X c #171105",
"#R c #171106",
"aG c #180f0f",
"#S c #181106",
"cS c #1a130e",
"dv c #1c1b1c",
"cu c #1d1310",
"bU c #1d150b",
"c7 c #1d1a19",
"cH c #1e1312",
"df c #1f1312",
"cF c #201711",
"dc c #211e1d",
"c2 c #221e1c",
"dh c #23201e",
"dp c #252425",
"aL c #261816",
"cQ c #271917",
"bd c #281408",
"cz c #291b18",
"dq c #292626",
"bK c #2b180a",
"aA c #2d1d1a",
"c6 c #2f1f1c",
"de c #30201c",
"cd c #311f1e",
"du c #332f2f",
"dd c #34221e",
"be c #351908",
"cn c #37251f",
"c5 c #392620",
"c0 c #3b2a0b",
"dy c #3c2d0e",
"di c #3d2d0f",
"db c #3e2c0c",
"dj c #3f2f0f",
"cg c #402924",
"c8 c #402f0f",
"bQ c #412928",
"cP c #422e25",
"cI c #432c25",
"bg c #432f23",
"cV c #43310f",
"dg c #442d26",
"bx c #452b1f",
"bj c #452f25",
"cE c #45320e",
"dx c #454242",
"b. c #462f26",
"dt c #463310",
"a. c #46340f",
"an c #463510",
"cl c #472d2b",
"bm c #47340f",
"bT c #473410",
"#6 c #473510",
"cT c #473613",
"a7 c #483510",
"cm c #483610",
"bI c #492d29",
"bs c #492f1f",
"ab c #493014",
"bb c #493222",
"#Z c #493611",
"b8 c #493711",
"#5 c #493714",
"#9 c #493814",
"a6 c #493815",
"ai c #4a3116",
"af c #4a3711",
"az c #4a3815",
"al c #4a3915",
"as c #4b3328",
"cJ c #4b3329",
"#8 c #4b3811",
"cK c #4b3914",
"aM c #4b3915",
"c3 c #4c322b",
"ah c #4c331d",
"ct c #4c3812",
"bY c #4d322c",
"cq c #4d3429",
"ac c #4d3521",
"aP c #4d3828",
"#3 c #4d3912",
"cf c #4d3a12",
"#2 c #4d3a15",
"aV c #4d3b15",
"#7 c #4d3b16",
"aT c #4e280f",
"aX c #4e3a13",
"at c #4e3b16",
"cA c #4e3c15",
"ae c #4e3c16",
"aZ c #4f290f",
"bA c #4f2e1b",
"do c #4f4b4c",
"bl c #50240a",
"b5 c #50332f",
"a3 c #503a29",
".5 c #503d16",
"cr c #51352e",
"au c #51382a",
"#Q c #513c13",
"#t c #513d16",
"#n c #513e16",
"am c #513e17",
"b0 c #523320",
"cy c #52362e",
".# c #523e17",
".H c #523f17",
"bu c #532407",
"bS c #53280d",
"cx c #53392b",
"#s c #533f17",
"bp c #543019",
"aS c #543c2b",
"#W c #543f14",
"#V c #554118",
"bF c #56392f",
"a0 c #563e2c",
"bZ c #573931",
"ad c #583c30",
"cw c #583d2d",
"bN c #593b31",
"aO c #5b341a",
"c. c #5b3d33",
"cj c #5c3c33",
"cR c #5c3e31",
"cb c #5d3e34",
"a4 c #5e3317",
"b2 c #5e3b25",
"cp c #5e412f",
"ax c #5f4133",
"cX c #5f4414",
"ag c #604235",
"bH c #604634",
"a8 c #612b0b",
"b6 c #613b28",
"co c #614233",
"cW c #614513",
"d. c #614614",
"dk c #614716",
"ap c #624434",
"c9 c #624613",
"d# c #624815",
"dl c #624817",
"cY c #644916",
"da c #654815",
"cZ c #654915",
"ds c #654b18",
"dm c #654b19",
"cc c #664436",
"dn c #664b18",
"dr c #674b18",
"ck c #694738",
"aE c #694838",
"aj c #694938",
"cv c #6a4837",
"bX c #6b4936",
"bO c #6b4e39",
"bL c #6c3606",
"#H c #6c501a",
"aa c #6d4d3a",
"#C c #6d521b",
"#K c #6d521c",
"#M c #6d531d",
"b4 c #6e4c38",
"#I c #6e531c",
"#L c #6e531d",
"#F c #6e541d",
"bV c #6f4831",
"#E c #6f521b",
"cC c #6f531a",
".y c #6f541b",
".e c #6f541c",
"#P c #6f541d",
"aH c #704e3b",
"cO c #70513c",
"#J c #70521b",
"#D c #70531b",
"cM c #70541b",
".8 c #70541c",
".r c #70551c",
"#p c #70551d",
"#O c #71531c",
".6 c #71541c",
"cU c #71551b",
"## c #71551c",
".Q c #71551d",
".v c #71561d",
"cL c #72531a",
"cB c #72541a",
"#N c #72541c",
".s c #72551b",
".j c #72551c",
"#B c #72561b",
"#e c #72561c",
".U c #72561d",
"#x c #72561e",
".B c #72571d",
".n c #72571e",
".M c #73551c",
"#G c #73551d",
"#w c #73561b",
".b c #73561c",
"#. c #73561d",
".z c #73571d",
".l c #73571e",
"#u c #73571f",
".4 c #73581e",
"#a c #73581f",
"cD c #74561b",
".I c #74561c",
"#l c #74561d",
"#m c #74571c",
".W c #74571d",
".E c #74571e",
".h c #74581e",
".0 c #74581f",
".3 c #74591f",
"bE c #75471f",
".2 c #75571c",
".C c #75571d",
"#b c #75571e",
".p c #75581d",
".k c #75581e",
"#j c #75581f",
"#f c #75591d",
"#d c #75591e",
".R c #75591f",
".a c #76571c",
".o c #76571d",
".m c #76581c",
".g c #76581d",
".X c #76581e",
"#o c #76591d",
".q c #76591e",
".L c #76591f",
"bP c #765940",
"ce c #765a1e",
"#z c #765a1f",
".N c #77571c",
".Z c #77571d",
"#c c #77581c",
".f c #77581d",
".u c #77591d",
".9 c #77591e",
".t c #775a1d",
".D c #775a1e",
".7 c #775a1f",
"#v c #775b1e",
".O c #775b1f",
"ca c #78533e",
".V c #78581d",
".S c #78581e",
".G c #78591d",
".Y c #78591e",
".i c #785a1d",
"#q c #785a1e",
".c c #785b1e",
".T c #785b1f",
"#y c #785b20",
"aK c #79553f",
".1 c #79581d",
"aW c #79581e",
"#A c #79591d",
".P c #79591e",
".F c #795a1d",
".d c #795a1e",
".A c #795b1e",
".w c #795b1f",
"#k c #795b20",
"#r c #795c1f",
"#g c #795c20",
".K c #7a5a1e",
"#h c #7a5a1f",
"ba c #7a5a43",
".x c #7a5b1e",
"#i c #7a5b1f",
".J c #7a5c20",
"bW c #7b553f",
"aB c #7d5841",
"bG c #7d5f44",
"b3 c #7f5941",
"aR c #806347",
"bv c #823805",
"a9 c #834710",
"bh c #846248",
"bC c #853609",
"bk c #873b10",
"aD c #875c3d",
"cG c #876347",
"ci c #886146",
"aI c #896044",
"bR c #8a541d",
"a1 c #8b6d4e",
"bM c #8c5915",
"aJ c #8c5e39",
"aC c #8e6240",
"ch c #90684b",
"br c #91521d",
"by c #94571e",
"ar c #95622f",
"bo c #956926",
"c# c #966e4e",
"bD c #975409",
"bi c #987252",
"bz c #9b6121",
"bJ c #9c5916",
"bq c #9e6622",
"bc c #a0400d",
"av c #a06b39",
"a2 c #a0805c",
"b# c #a27b57",
"bf c #a4520e",
"bB c #a75616",
"aQ c #aa8a63",
"aw c #ab722f",
"bn c #b25507",
"bw c #b57b1e",
"aq c #b67b39",
"bt c #c0570f",
"QtQtQtQtQt.#.a.b.c.d.e.f.g.h.i.j.k.f.l.i.m.n.o.p.q.d.r.o.f.h.i.s.k.f.h.t.u.v.a.g",
"QtQtQtQtQt.#.a.b.w.x.y.g.o.k.x.j.k.f.z.A.g.B.o.C.D.x.r.o.g.h.x.j.k.f.E.F.G.v.a.C",
"QtQtQtQtQt.H.a.I.J.K.r.f.g.L.d.M.k.N.h.w.o.l.a.C.O.P.Q.o.o.R.x.b.k.f.R.d.S.n.a.C",
"QtQtQtQtQt.#.a.j.T.P.U.f.a.R.V.W.X.m.l.Y.Z.0.a.W.L.1.l.o.2.3.G.C.X.g.h.f.V.4.a.I",
"QtQtQtQtQt.5.a.6.7.S.8.o.2.l.f.M.W.a.v.9.Z.U.a#..k.V##.C.C#a.f.b.W.g.n.g.V.Q.a.b",
"QtQtQtQtQt.#.a.b.7.d.e.f.g.h.i.j#b#c.l.u.g.n.o.p#d.i.r.C.g.h.u#e.E.f.h.u.u.v.a#f",
"QtQtQtQtQt.#.a.b.T.x.y.f.g.k.x.j.k.f.z.A.f.B.o.C.q.x.r.o.g.h.x.j.k.f.l.i.G.v.a.C",
"QtQtQtQtQt.H.a.I#g#h.e.f.o.L#i.j.k.N.E#i.g.l.a.C.T.K##.o.g.R.x.M.k.Z#j.d.Y.U.a.C",
"QtQtQtQtQt.#.a.b#k.P.U.f.a.R.Y#l.X#c.l.d.o.h.a.C.7.P.l.o.a.R.P.I.X.f.3.G.V.l.a#m",
"QtQtQtQtQt.5.a.6.7.P.Q.o.2.4.V.b.W.a.v.9.Z.l.o.b#j.V.U.C.2#a.f.I#b.g.n.g.V.U.a.b",
"QtQtQtQtQt#n.a.b.7.Y.e.g.m.h.u.j.W.m.l#o.g.U.a.W#d.G.r.C.g.h.u.b.E.f.l#o.u#p.a.p",
"QtQtQtQtQt.#.a.b.c.x.e.f.g.h.A.j.k.f.z#q.g.n.a.p.q.d#p.o.g.h.A#e.k.f.E.i.u.v.a.p",
"QtQtQtQtQt.#.a.b#r#i.y.g.o.R.x.j.k.f.l.x.g.B.o.C.7.K.r.o.g.k.x.M.k.f.h.d.G.v.a.C",
"QtQtQtQtQt#s.a.b#g.P.Q.f.g.L.P.b.X.f.h.A.o.h.a.C.O.P.U.o.o.R.d.I.k.f.R.G.V.l.a.2",
"QtQtQtQtQt#n.a.j.O.P.U.f.a.0.V.W.X.g.U.9.Z.h.a#..R.G.l.o.2.3.V.C.k.g.4.g.V.l.a.I",
"QtQtQtQtQt#t.a.j.7.Y.e.g.a#u.f.j.W.m.U#o.o.v.o.W.k.G.r.C.p.0.f.M.W.g.n.g.f#p.a#m",
"QtQtQtQtQt.#.a#.#v.d.e.f.f.h.i.j.k.f.l.t.g.n.o.p.q.d#p.o.g.h.i#w.k.f.0.t.G.v.a.p",
"QtQtQtQtQt.#.a.b.w.x.y.f.o.k.x.j.k.f.z.A#c.B.o.C.D.x.r.o.g.h.x.j.k.f.E.F.G.v.a.p",
"QtQtQtQtQt.H.a.b#g.K.8.f.g.L.K.M.k.Z.h#i.f.l.a.C.T.d.Q.o.g.R.K.b.k.f.R.d.S#x.a.2",
"QtQtQtQtQt.#.a.j#y.P.U.f.a.R.S.W.X.a.z#q.Z.0.a.W#z#A.l.o.a.3.G.2.X.f.0.f.V.h.a#m",
"QtQtQtQtQt.5.a.6.7.Y.8.o.2.l.f.b.W.m.v.u.Z#x.a.b.k.G.Q.C.2#a.f.b.W.g#x.g.f.v.a.b",
"QtQtQtQtQt.#.a.b.D.d.e.g.g.h.i.j.p.g.l.t.m.n.o.p#d.i.r.C.g.h.t.b.h.f.h.u.u.v.a.p",
"QtQtQtQtQt.#.a.b.T.x.y.f.f.h.x.j.k.f#..A.g.B.o.C.q.x.r.o.g.h.x#B.k.f.l.i.G.v.a.p",
"QtQtQtQtQt.#.a.b#g.K#C#D#E#F#G#H#I#J#K.U#D#p.a.C.T.d#I#E#E#L#G#H#I#J#M#N#O#P.a.C",
"QtQtQtQtQt.H.a.b#k.P#Q#R#R#R#S#T#R#R#U#S#R#V.a.C.7#A#W#X#X#R#S#Y#R#R#U#R#R.H.a#m",
"QtQtQtQtQt.5.a.6.7.Y#Z#0#1#1#1#1#1#1#1#1#1#2.a.b.k.Y#3#4#1#1#1#1#1#1#1#1#1#5.a.b",
"QtQtQtQtQt#n.a#e.7.Y#6#0#1#1#1#1#1#1#1#1#1#7.o.W#d.G#8#0#1#1#1#1#1#1#1#1#1#9.a.p",
"QtQtQtQtQt.H.a.b.T.xa.#1#1a#aaabacad#1#1#1ae.o.C.q.daf#0#1#1agahaiajak#1#1al.a.p",
"QtQtQtQtQtam.a.b#r#ian#1#1aoapaqaras#1#1#1at.a.C.D.d#8#0#1#1auavawaxay#1#1az.a.C",
"QtQtQtQtQt.H.a.b#g.K#6#1#1aAaBaCaDaEaF#1#1ae.a.C.T.P#8#0#1aGaHaIaJaKaL#1#1aM.a.2",
"QtQtQtQtQt#t.a.j.T.Paf#0aNaOaPaQaRaSaTaU#1aV.a.b.RaWaX#4aYaZa0a1a2a3a4a5#1a6.a.I",
"QtQtQtQtQt.5.a.j.7.Ga7#0a8a9b.b#babbbcbd#1aV.a.z.k.G#8#0bebfbgbhbibjbkbl#1#9.a#m",
"QtQtQtQtQt.#.a.b.D.dbm#0bnbobpbqbrbsbtbu#1at.o.p.q.daf#0bvbwbxbybzbAbBbC#1al.a.g",
"QtQtQtQtQt.#.a.b.w.xa.#1bDbEbFbGbHbIbJbK#1at.o.C.D.x#8#0bLbMbNbObPbQbRbS#1az.a.C",
"QtQtQtQtQt.H.a.I#g.KbT#1bUbVbWbXbYbZb0a5#1ae.a.C#y.d#8#0b1b2b3b4bFb5b6b7#1aM.a.C",
"QtQtQtQtQt.#.a.M#y.Pb8#0b9c.c#cacbcccd#1#1at.o.WceaWcf#4#1cgchcicjckcl#1#1az.a.I",
"QtQtQtQtQt.5.a##.7.Ycm#0#1cncocpcqcrcs#1#1#2.a.b.k.Yct#0#1cucvcwcxcycz#1#1#5.a.I",
"QtQtQtQtQtcAcBcC#.cDcE#1#1cFcGcHcIcJb1#1#1cKcLcM##.Ia7#0#1cNcOcPcQcRcS#1#1cTcLcU",
"QtQtQtQtQtcVcWcXcYcZc0#1c1c2c3c4c5c6c7#1#1c8c9d.d#dadb#0#1dcdddedfdgdh#1#1dic9d.",
"QtQtQtQtQtdjdkdldmdncV#0#1#1do#1dpdq#1#1#1c8drdndsdndt#4#1#1dudvdwdx#1#1#1dydrdn"};
