/* XPM */
static char *dummy[]={
"40 40 349 2",
"#3 c #000000",
".w c #00a15e",
"#2 c #010000",
"#6 c #010100",
"c3 c #020202",
"aW c #040301",
"c# c #050303",
"a0 c #050402",
"aA c #080504",
"a7 c #090704",
"dy c #090909",
"am c #0a0606",
"aq c #0a0705",
"b3 c #0d0a06",
"ab c #0f0909",
"cP c #110d08",
"aH c #130b0b",
"b9 c #130e09",
"aP c #150c05",
"c6 c #160d0d",
"#V c #161005",
"#0 c #161105",
"#W c #161106",
"cu c #17100d",
"#Z c #171105",
"#T c #171106",
"aI c #180f0f",
"#U c #181106",
"cU c #1a130e",
"dx c #1c1b1c",
"cw c #1d1310",
"bW c #1d150b",
"c9 c #1d1a19",
"cJ c #1e1312",
"dh c #1f1312",
"cH c #201711",
"de c #211e1d",
"c4 c #221e1c",
"dj c #23201e",
"dr c #252425",
"aN c #261816",
"cS c #271917",
"bf c #281408",
"cB c #291b18",
"ds c #292626",
"bM c #2b180a",
"aC c #2d1d1a",
"c8 c #2f1f1c",
"dg c #30201c",
"cf c #311f1e",
"Qt c #32a67a",
"dw c #332f2f",
"df c #34221e",
"bg c #351908",
"cp c #37251f",
"c7 c #392620",
"c2 c #3b2a0b",
"dA c #3c2d0e",
"dk c #3d2d0f",
"dd c #3e2c0c",
"dl c #3f2f0f",
"ci c #402924",
"d. c #402f0f",
"bS c #412928",
"cR c #422e25",
"cK c #432c25",
"bi c #432f23",
"cX c #43310f",
"di c #442d26",
"bz c #452b1f",
"bl c #452f25",
"cG c #45320e",
"dz c #454242",
"ba c #462f26",
"dv c #463310",
"aa c #46340f",
"ap c #463510",
"cn c #472d2b",
"bo c #47340f",
"bV c #473410",
"#8 c #473510",
"cV c #473613",
"a9 c #483510",
"co c #483610",
"bK c #492d29",
"bu c #492f1f",
"ad c #493014",
"bd c #493222",
"#1 c #493611",
"c. c #493711",
"#7 c #493714",
"a# c #493814",
"a8 c #493815",
"ak c #4a3116",
"ah c #4a3711",
"aB c #4a3815",
"an c #4a3915",
"au c #4b3328",
"cL c #4b3329",
"a. c #4b3811",
"cM c #4b3914",
"aO c #4b3915",
"c5 c #4c322b",
"aj c #4c331d",
"cv c #4c3812",
"b0 c #4d322c",
"cs c #4d3429",
"ae c #4d3521",
"aR c #4d3828",
"#5 c #4d3912",
"ch c #4d3a12",
"#4 c #4d3a15",
"aX c #4d3b15",
"#9 c #4d3b16",
"aV c #4e280f",
"aZ c #4e3a13",
"av c #4e3b16",
"cC c #4e3c15",
"ag c #4e3c16",
"a1 c #4f290f",
"bC c #4f2e1b",
"dq c #4f4b4c",
"bn c #50240a",
"b7 c #50332f",
"a5 c #503a29",
".6 c #503d16",
"ct c #51352e",
"aw c #51382a",
"#S c #513c13",
"#v c #513d16",
"#p c #513e16",
"ao c #513e17",
"b2 c #523320",
"cA c #52362e",
".# c #523e17",
".I c #523f17",
"bw c #532407",
"bU c #53280d",
"cz c #53392b",
"#u c #533f17",
"br c #543019",
"aU c #543c2b",
"#Y c #543f14",
"#X c #554118",
"bH c #56392f",
"a2 c #563e2c",
"b1 c #573931",
"af c #583c30",
"cy c #583d2d",
"bP c #593b31",
"aQ c #5b341a",
"ca c #5b3d33",
"cl c #5c3c33",
"cT c #5c3e31",
"cd c #5d3e34",
"a6 c #5e3317",
"b4 c #5e3b25",
"cr c #5e412f",
"az c #5f4133",
"cZ c #5f4414",
"ai c #604235",
"bJ c #604634",
"b. c #612b0b",
"b8 c #613b28",
"cq c #614233",
"cY c #614513",
"da c #614614",
"dm c #614716",
"ar c #624434",
"d# c #624613",
"db c #624815",
"dn c #624817",
"c0 c #644916",
"dc c #654815",
"c1 c #654915",
"du c #654b18",
"do c #654b19",
"ce c #664436",
"dp c #664b18",
"dt c #674b18",
"#h c #67aa97",
"cm c #694738",
"aG c #694838",
"al c #694938",
"cx c #6a4837",
"bZ c #6b4936",
"bQ c #6b4e39",
"bN c #6c3606",
"#J c #6c501a",
"ac c #6d4d3a",
"#E c #6d521b",
"#M c #6d521c",
"#O c #6d531d",
"b6 c #6e4c38",
"#K c #6e531c",
"#N c #6e531d",
"#H c #6e541d",
"bX c #6f4831",
"#G c #6f521b",
"cE c #6f531a",
".z c #6f541b",
".e c #6f541c",
"#R c #6f541d",
"aJ c #704e3b",
"cQ c #70513c",
"#L c #70521b",
"#F c #70531b",
"cO c #70541b",
".9 c #70541c",
".r c #70551c",
"#r c #70551d",
"#Q c #71531c",
".7 c #71541c",
"cW c #71551b",
"#a c #71551c",
".R c #71551d",
".v c #71561d",
"cN c #72531a",
"cD c #72541a",
"#P c #72541c",
".s c #72551b",
".j c #72551c",
"#D c #72561b",
"#f c #72561c",
".V c #72561d",
"#z c #72561e",
".C c #72571d",
".n c #72571e",
".N c #73551c",
"#I c #73551d",
"#y c #73561b",
".b c #73561c",
"## c #73561d",
".A c #73571d",
".l c #73571e",
"#w c #73571f",
".5 c #73581e",
"#b c #73581f",
"cF c #74561b",
".J c #74561c",
"#n c #74561d",
"#o c #74571c",
".X c #74571d",
".F c #74571e",
".h c #74581e",
".1 c #74581f",
".4 c #74591f",
"bG c #75471f",
".3 c #75571c",
".D c #75571d",
"#c c #75571e",
".p c #75581d",
".k c #75581e",
"#l c #75581f",
"#g c #75591d",
"#e c #75591e",
".S c #75591f",
".a c #76571c",
".o c #76571d",
".m c #76581c",
".g c #76581d",
".Y c #76581e",
"#q c #76591d",
".q c #76591e",
".M c #76591f",
"bR c #765940",
"cg c #765a1e",
"#B c #765a1f",
".O c #77571c",
".0 c #77571d",
"#d c #77581c",
".f c #77581d",
".u c #77591d",
"#. c #77591e",
".t c #775a1d",
".E c #775a1e",
".8 c #775a1f",
"#x c #775b1e",
".P c #775b1f",
"cc c #78533e",
".W c #78581d",
".T c #78581e",
".H c #78591d",
".Z c #78591e",
".i c #785a1d",
"#s c #785a1e",
".c c #785b1e",
".U c #785b1f",
"#A c #785b20",
"aM c #79553f",
".2 c #79581d",
"aY c #79581e",
"#C c #79591d",
".Q c #79591e",
".G c #795a1d",
".d c #795a1e",
".B c #795b1e",
".x c #795b1f",
"#m c #795b20",
"#t c #795c1f",
"#i c #795c20",
".L c #7a5a1e",
"#j c #7a5a1f",
"bc c #7a5a43",
".y c #7a5b1e",
"#k c #7a5b1f",
".K c #7a5c20",
"bY c #7b553f",
"aD c #7d5841",
"bI c #7d5f44",
"b5 c #7f5941",
"aT c #806347",
"bx c #823805",
"b# c #834710",
"bj c #846248",
"bE c #853609",
"bm c #873b10",
"aF c #875c3d",
"cI c #876347",
"ck c #886146",
"aK c #896044",
"bT c #8a541d",
"a3 c #8b6d4e",
"bO c #8c5915",
"aL c #8c5e39",
"aE c #8e6240",
"cj c #90684b",
"bt c #91521d",
"bA c #94571e",
"at c #95622f",
"bq c #956926",
"cb c #966e4e",
"bF c #975409",
"bk c #987252",
"bB c #9b6121",
"bL c #9c5916",
"bs c #9e6622",
"be c #a0400d",
"ax c #a06b39",
"a4 c #a0805c",
"bb c #a27b57",
"bh c #a4520e",
"bD c #a75616",
"aS c #aa8a63",
"ay c #ab722f",
"bp c #b25507",
"by c #b57b1e",
"as c #b67b39",
"bv c #c0570f",
"QtQtQtQtQt.#.a.b.c.d.e.f.g.h.i.j.k.f.l.i.m.n.o.p.q.d.r.o.f.h.i.s.k.f.h.t.u.v.a.g",
"QtQtQtQt.w.#.a.b.x.y.z.g.o.k.y.j.k.f.A.B.g.C.o.D.E.y.r.o.g.h.y.j.k.f.F.G.H.v.a.D",
"Qt.wQtQtQt.I.a.J.K.L.r.f.g.M.d.N.k.O.h.x.o.l.a.D.P.Q.R.o.o.S.y.b.k.f.S.d.T.n.a.D",
"QtQtQtQtQt.#.a.j.U.Q.V.f.a.S.W.X.Y.m.l.Z.0.1.a.X.M.2.l.o.3.4.H.D.Y.g.h.f.W.5.a.J",
"QtQtQtQtQt.6.a.7.8.T.9.o.3.l.f.N.X.a.v#..0.V.a##.k.W#a.D.D#b.f.b.X.g.n.g.W.R.a.b",
"QtQtQtQtQt.#.a.b.8.d.e.f.g.h.i.j#c#d.l.u.g.n.o.p#e.i.r.D.g.h.u#f.F.f.h.u.u.v.a#g",
"QtQt#h#hQt.#.a.b.U.y.z.f.g.k.y.j.k.f.A.B.f.C.o.D.q.y.r.o.g.h.y.j.k.f.l.i.H.v.a.D",
"QtQt#h#hQt.I.a.J#i#j.e.f.o.M#k.j.k.O.F#k.g.l.a.D.U.L#a.o.g.S.y.N.k.0#l.d.Z.V.a.D",
"QtQtQtQtQt.#.a.b#m.Q.V.f.a.S.Z#n.Y#d.l.d.o.h.a.D.8.Q.l.o.a.S.Q.J.Y.f.4.H.W.l.a#o",
"QtQtQtQtQt.6.a.7.8.Q.R.o.3.5.W.b.X.a.v#..0.l.o.b#l.W.V.D.3#b.f.J#c.g.n.g.W.V.a.b",
"Qt.wQtQtQt#p.a.b.8.Z.e.g.m.h.u.j.X.m.l#q.g.V.a.X#e.H.r.D.g.h.u.b.F.f.l#q.u#r.a.p",
"#h#hQtQtQt.#.a.b.c.y.e.f.g.h.B.j.k.f.A#s.g.n.a.p.q.d#r.o.g.h.B#f.k.f.F.i.u.v.a.p",
"#h#hQtQtQt.#.a.b#t#k.z.g.o.S.y.j.k.f.l.y.g.C.o.D.8.L.r.o.g.k.y.N.k.f.h.d.H.v.a.D",
"QtQtQtQtQt#u.a.b#i.Q.R.f.g.M.Q.b.Y.f.h.B.o.h.a.D.P.Q.V.o.o.S.d.J.k.f.S.H.W.l.a.3",
"QtQtQtQtQt#p.a.j.P.Q.V.f.a.1.W.X.Y.g.V#..0.h.a##.S.H.l.o.3.4.W.D.k.g.5.g.W.l.a.J",
"QtQtQtQtQt#v.a.j.8.Z.e.g.a#w.f.j.X.m.V#q.o.v.o.X.k.H.r.D.p.1.f.N.X.g.n.g.f#r.a#o",
"QtQt.wQtQt.#.a###x.d.e.f.f.h.i.j.k.f.l.t.g.n.o.p.q.d#r.o.g.h.i#y.k.f.1.t.H.v.a.p",
"QtQtQtQtQt.#.a.b.x.y.z.f.o.k.y.j.k.f.A.B#d.C.o.D.E.y.r.o.g.h.y.j.k.f.F.G.H.v.a.p",
"Qt.wQtQtQt.I.a.b#i.L.9.f.g.M.L.N.k.0.h#k.f.l.a.D.U.d.R.o.g.S.L.b.k.f.S.d.T#z.a.3",
"QtQtQtQtQt.#.a.j#A.Q.V.f.a.S.T.X.Y.a.A#s.0.1.a.X#B#C.l.o.a.4.H.3.Y.f.1.f.W.h.a#o",
"QtQtQtQtQt.6.a.7.8.Z.9.o.3.l.f.b.X.m.v.u.0#z.a.b.k.H.R.D.3#b.f.b.X.g#z.g.f.v.a.b",
"QtQtQtQtQt.#.a.b.E.d.e.g.g.h.i.j.p.g.l.t.m.n.o.p#e.i.r.D.g.h.t.b.h.f.h.u.u.v.a.p",
"QtQt#h#hQt.#.a.b.U.y.z.f.f.h.y.j.k.f##.B.g.C.o.D.q.y.r.o.g.h.y#D.k.f.l.i.H.v.a.p",
"QtQt#h#hQt.#.a.b#i.L#E#F#G#H#I#J#K#L#M.V#F#r.a.D.U.d#K#G#G#N#I#J#K#L#O#P#Q#R.a.D",
"QtQtQtQtQt.I.a.b#m.Q#S#T#T#T#U#V#T#T#W#U#T#X.a.D.8#C#Y#Z#Z#T#U#0#T#T#W#T#T.I.a#o",
"QtQtQtQtQt.6.a.7.8.Z#1#2#3#3#3#3#3#3#3#3#3#4.a.b.k.Z#5#6#3#3#3#3#3#3#3#3#3#7.a.b",
"Qt.wQtQtQt#p.a#f.8.Z#8#2#3#3#3#3#3#3#3#3#3#9.o.X#e.Ha.#2#3#3#3#3#3#3#3#3#3a#.a.p",
"#h#hQtQtQt.I.a.b.U.yaa#3#3abacadaeaf#3#3#3ag.o.D.q.dah#2#3#3aiajakalam#3#3an.a.p",
"#h#hQtQtQtao.a.b#t#kap#3#3aqarasatau#3#3#3av.a.D.E.da.#2#3#3awaxayazaA#3#3aB.a.D",
"QtQtQtQtQt.I.a.b#i.L#8#3#3aCaDaEaFaGaH#3#3ag.a.D.U.Qa.#2#3aIaJaKaLaMaN#3#3aO.a.3",
"QtQtQtQtQt#v.a.j.U.Qah#2aPaQaRaSaTaUaVaW#3aX.a.b.SaYaZ#6a0a1a2a3a4a5a6a7#3a8.a.J",
"QtQtQtQtQt.6.a.j.8.Ha9#2b.b#babbbcbdbebf#3aX.a.A.k.Ha.#2bgbhbibjbkblbmbn#3a#.a#o",
"QtQt.wQtQt.#.a.b.E.dbo#2bpbqbrbsbtbubvbw#3av.o.p.q.dah#2bxbybzbAbBbCbDbE#3an.a.g",
"QtQtQtQtQt.#.a.b.x.yaa#3bFbGbHbIbJbKbLbM#3av.o.D.E.ya.#2bNbObPbQbRbSbTbU#3aB.a.D",
"Qt.wQtQtQt.I.a.J#i.LbV#3bWbXbYbZb0b1b2a7#3ag.a.D#A.da.#2b3b4b5b6bHb7b8b9#3aO.a.D",
"QtQtQtQtQt.#.a.N#A.Qc.#2c#cacbcccdcecf#3#3av.o.XcgaYch#6#3cicjckclcmcn#3#3aB.a.J",
"QtQtQtQtQt.6.a#a.8.Zco#2#3cpcqcrcsctcu#3#3#4.a.b.k.Zcv#2#3cwcxcyczcAcB#3#3#7.a.J",
"QtQtQtQtQtcCcDcE##cFcG#3#3cHcIcJcKcLb3#3#3cMcNcO#a.Ja9#2#3cPcQcRcScTcU#3#3cVcNcW",
"QtQt#h#hQtcXcYcZc0c1c2#3c3c4c5c6c7c8c9#3#3d.d#dadbdcdd#2#3dedfdgdhdidj#3#3dkd#da",
"QtQt#h#hQtdldmdndodpcX#2#3#3dq#3drds#3#3#3d.dtdpdudpdv#6#3#3dwdxdydz#3#3#3dAdtdp"};
