/* XPM */
static char *dummy[]={
"40 40 345 2",
"#V c #000000",
".2 c #00a15e",
"#U c #010100",
"#3 c #020100",
"#Y c #020200",
"aM c #020201",
"c8 c #020202",
"aU c #030200",
"do c #030201",
"aV c #040301",
"ca c #040302",
"#5 c #050303",
"b5 c #070503",
"ah c #080504",
"bX c #090704",
"dk c #0a0a0a",
"az c #0b0707",
"dg c #0b0a0a",
"ar c #0c0807",
"#7 c #0d0804",
"cH c #0d0a06",
"ae c #0f0909",
"#8 c #120b08",
"cD c #120d09",
"aC c #130b0b",
"au c #140d0c",
"a2 c #150c05",
"c5 c #160d0d",
"#Q c #161106",
"cp c #17100d",
"#L c #171105",
"#K c #171106",
"#M c #171206",
"#N c #181106",
"#J c #181206",
"bW c #191009",
"di c #191212",
"b4 c #1d150b",
"cX c #1d1915",
"c2 c #1d1a19",
"cK c #1e1312",
"b# c #1f1106",
"cM c #1f1610",
"cy c #211811",
"c7 c #221e1c",
"cS c #231d19",
"dq c #252425",
"ba c #281408",
"cU c #281a18",
"dp c #292626",
"co c #2a1b1a",
"dj c #2c2222",
"aS c #2d1c11",
"aH c #2d1d1a",
"cu c #2e1e1b",
"c3 c #2f1f1c",
"a6 c #2f2018",
"a4 c #311a09",
"cA c #31221a",
"bP c #32200a",
".y c #32a67a",
"a9 c #35251b",
"#9 c #35251e",
"ds c #35280d",
"#6 c #37261e",
"c9 c #37290d",
"cc c #382421",
"cB c #38261f",
"c4 c #392620",
"dl c #392a0e",
"cY c #3a2b0e",
"dh c #3a2d2c",
"cV c #3b2621",
"c# c #3c2625",
"cj c #3c2723",
"cW c #3e2922",
"bM c #402927",
"cN c #403112",
"aN c #41291a",
"cR c #412f0c",
"bi c #413212",
"#Z c #413213",
"af c #423313",
"cE c #433312",
"aI c #433414",
"bo c #442e23",
"c1 c #44300d",
"#W c #453513",
"#1 c #453514",
"bf c #462f26",
"cb c #463514",
"a. c #463614",
"bG c #47230a",
"bl c #472f23",
"an c #473124",
"aA c #473614",
"dc c #48340e",
"df c #483511",
"bE c #492c25",
"ch c #492e2c",
"ac c #493014",
"bc c #4a3322",
"dw c #4a3610",
"dn c #4a3611",
"bT c #4b3329",
"b2 c #4c302e",
"bt c #4c3122",
"c6 c #4c322b",
"cx c #4c3810",
"#R c #4c3a16",
"bU c #4d312d",
"ab c #4d3521",
"a0 c #4d3828",
"aW c #4e280f",
"#4 c #4e3a11",
"ag c #4e3a12",
"#0 c #4e3b12",
"cJ c #4f372c",
"at c #4f3b12",
"#O c #4f3c16",
"dr c #4f4b4c",
"#T c #503c13",
"a# c #513c12",
"#2 c #513c13",
"am c #513d12",
"aL c #513d13",
"b9 c #523530",
"ct c #52362d",
"ay c #52372c",
"aB c #523d13",
"#X c #533e14",
"bw c #543019",
"aX c #543c2b",
"cO c #543e13",
"aT c #543f14",
"cs c #553a2c",
"bB c #563324",
"cr c #563b2c",
"cn c #573931",
"aa c #573c2f",
"#j c #574014",
".x c #574113",
".J c #574114",
"#I c #574115",
".T c #584114",
"b1 c #593c30",
"aJ c #594114",
".9 c #594214",
"cv c #594215",
"#P c #594315",
"bY c #5a3823",
"cC c #5a3b32",
"#S c #5a4215",
".1 c #5a4315",
"bH c #5b2905",
"a1 c #5b341a",
"av c #5b3e31",
"ci c #5b4315",
"#o c #5b4316",
"a3 c #5b4416",
"bS c #5c412f",
"cf c #5d3e34",
"bJ c #5e3e30",
"cT c #5e4232",
"bq c #5f2608",
"da c #5f4514",
"bh c #60290c",
"b3 c #603c2b",
"cL c #614134",
"d. c #614613",
"c0 c #614615",
"bO c #62330f",
"cZ c #624513",
"cP c #624715",
"dv c #624817",
"al c #634435",
"d# c #634815",
"aq c #644536",
"db c #644914",
"du c #644a18",
"c. c #654336",
"b6 c #654437",
"cQ c #654915",
"bK c #654936",
"dd c #654a18",
"cm c #664536",
"de c #664b18",
"dm c #674b18",
"cI c #674b37",
"dt c #674c18",
"#c c #67aa97",
"aD c #694838",
"cg c #6a4738",
"cq c #6a4837",
"#D c #6c511b",
"ai c #6d4d39",
"ad c #6d4d3a",
"#C c #6d521b",
"#x c #6d521c",
"#v c #6d531d",
"bA c #6e451a",
"#w c #6e511b",
"#y c #6e531c",
"#F c #6e531d",
"#A c #6e541d",
"b0 c #6f4c38",
"#t c #6f521b",
"#s c #6f541c",
"br c #702e05",
"#E c #70521b",
"#u c #70531b",
"cG c #70541b",
"#B c #70541c",
".B c #70551c",
".t c #70551d",
"#a c #70561d",
"bV c #71441d",
"bR c #714e3a",
"#z c #71541c",
".F c #71551c",
".a c #71551d",
".p c #71561c",
".k c #71561d",
".P c #71561e",
"ck c #724f3b",
"cF c #72531a",
"#G c #72541c",
"#l c #72551c",
"#h c #72551d",
"## c #72561c",
".s c #72561d",
".8 c #72561e",
".6 c #72571e",
"#n c #72581e",
".w c #73561d",
".7 c #73571d",
".g c #73571e",
".d c #73581e",
".W c #73581f",
"cw c #74561b",
".4 c #74561c",
".f c #74571c",
".q c #74571d",
".N c #74571e",
".n c #74581d",
".E c #74581e",
"#k c #74581f",
"#. c #74591e",
".M c #74591f",
".H c #75561c",
".u c #75571c",
".b c #75571d",
"#p c #75571e",
".r c #75581d",
"Qt c #75581e",
".3 c #75581f",
".O c #75591e",
".R c #75591f",
"bQ c #764823",
"#H c #76561c",
".l c #76571c",
".Q c #76571d",
".5 c #76581c",
".D c #76581d",
"#g c #76581e",
".i c #76591d",
".m c #76591e",
".z c #76591f",
"aK c #765a1f",
"a5 c #773311",
"cz c #77543f",
".G c #77571d",
".V c #77581c",
".h c #77581d",
".Z c #77581e",
".c c #77591d",
"#f c #77591e",
"#q c #775a1d",
"#b c #775a1e",
".U c #775a1f",
"#e c #775a20",
"#m c #775b20",
"bD c #78513a",
".Y c #78581d",
"#i c #78581e",
".j c #78591d",
".I c #78591e",
".e c #785a1d",
".v c #785a1e",
"#r c #785a1f",
"#d c #785b1f",
".K c #785b20",
".0 c #79581e",
".X c #79591d",
".S c #79591e",
".# c #795a1d",
".o c #795a1e",
".C c #795b1e",
"cl c #7a553e",
"b8 c #7a553f",
"as c #7a591e",
".L c #7a5a1e",
"bd c #7a5a43",
".A c #7a5b1e",
"a8 c #7a5d44",
"bg c #7b3810",
"bZ c #7d5740",
"aG c #7d5841",
"bC c #7d5a44",
"bL c #7d5f44",
"b. c #7e340f",
"aR c #805c42",
"aY c #806347",
"bN c #814e1e",
"bj c #823209",
"aO c #835f44",
"ax c #86562d",
"aE c #875f43",
"cd c #8a6448",
"ce c #8b6347",
"aF c #8e5f39",
"aw c #8f5f37",
"bu c #91521d",
"bI c #915e13",
"b7 c #926b4c",
"a7 c #957454",
"by c #963d0b",
"aQ c #977352",
"ao c #986637",
"bx c #9c5318",
"ak c #9d6a33",
"bv c #9e6622",
"bn c #9e662b",
"aP c #9e7b58",
"be c #a27b57",
"bb c #a7500d",
"aZ c #aa8a63",
"aj c #ac7738",
"bF c #ae5b13",
"bz c #b16004",
"bm c #b2762e",
"ap c #b37831",
"bs c #b67919",
"bk c #bb831f",
"bp c #bd570f",
"Qt.#.a.b.c.d.e.f.g.hQt.i.j.k.l.m.n.o.p.q.j.g.e.r.s.hQt.i.e.t.u.v.w.#.x.y.y.y.y.y",
".z.A.B.b.j.g.C.f.g.D.E.v.j.a.l.mQt.A.F.q.c.g.C.r.s.GQt.c.o.t.H.I.q.A.J.y.y.y.y.y",
".K.L.s.l.h.M.o.b.N.D.O.v.j.P.Q.m.m.L.w.b.h.R.o.D.s.h.R.v.S.P.l.I.O.o.T.y.y.y.y.y",
".U.S.N.u.V.W.j.D.N.V.E.m.j.g.l.r.E.X.E.u.h.d.Y.Z.w.hQt.D.X.g.l.c.g.0.1.y.y.2.y.y",
".3.I.a.4.5.6.h.u.w.G.7.b.Y.t.l.r.7.j.s.4.h.8.h.D.F.5.g.b.j.t.l.m.s.j.9.y.y.y.y.2",
"Qt.v.a.u.c.d.c.f.g.h#..i.j.k.l.m.n.o##.4.c.d.c.r.s.h.O.D.j#a.u.v.s.e.J.y.y.y.y.y",
".m.A.B.b.c.g.C.f.N.DQt#b.e.k.Q.m.r.A##.f.j.g.C.r.s.GQt.c.o.t.u.v.w.C.J#c.y.y.y.y",
"#d.L.a.b.h.M.o.u.g.DQt.v.X.k.Q.D.m.L.s.q.h.3.o.D.s.G.3.v.o.k.H.IQt.L.T#c.y.y.y.y",
"#e.S.g.l.h.M.j.b.E.D.O#f.I.g.l.D.O.X.q.b.h.M.j.Z.7.h.R.c.S.g.l.c.E.S.1.y.y.2.y#c",
".R.I.s.H.V.6.h.b.7.G.7.r.I.s.l.b.g.j.7.4.h.6.h#g#h.5.g.b.X.s.l.i.s#i.1.y.y.y.y.y",
"Qt.I.p.u.c.W.c.f.w.h.E.r.j.t.l.m.E.j.a.4.c.g.h.b.F.D.E.r.j.t.u#b.s.j.T.y.y#c.y.y",
".O.C.a.b.j.g.o.f.g.hQt.c.e.k.Q.m.n.A.s.b.j.g.e.r.s.hQt.i.v#a.u.v.w.C#j.y.y.y.y.y",
".U.L.F.Q.h#k.A.f.7.QQt.v.j.t.Q.D.m.A#l.q.h.N.A.Q.s.hQt.v.#.k.H.I.E.L.T.y.y.y.y.y",
"#m.S.8.l.h.M.S.b.N.5.O.v.I.6.l.D.m.S.7.b.h.R.S#g.7.h.R.I.X.6.l#fQt.S.9.y.y.y.y#c",
".z.I.N.u.V#n.h.Q.N.h.g.D.I.g.l.r.E.Y.E.H.h.g.h#f.w.5.E.D.X.g.l.i.g#i#o.y.y.y.y.y",
".3.I.B.4.5.6.D.4.s.h.g.b.j.B.l.r.g.j.p.4.h.g.h.b.F.Q.E.b.j.B.u#f.s.j.T.y.y.y.y.2",
".O.o.p.b.c.d.e.f.g.hQt.i.j.k.l.m.n.o.k.f.j.g.e.r.s.hQt.i.j.k.u#d.w.o.J.y.y.y.y.y",
".z.A.B.Q.h.g.A.f.g.Q.E.v.e.t.Q.i.r.A#l.4.h.g.C.b.s.hQt.c.o#a.H.v.7.A.J.y.y.y.y.y",
".K.L.s.u.h.R.o.b.N.DQt.v.S.s.Q#g.m.L.w.b.h.M.o.D.w.h.R.I.S.s.l#fQt.o.T.y.y.y.y.y",
"#e.X.N.l.V#k.j.Q#p.D.E#f#i.g.l.D.O.X.E.b.h.E.Y.Z.w.hQt.D.X.g.l.c.N#i.1.y.y.2.y.y",
".3.j.k.H.5.8.h.b.w.G.7.b.I.t.l.b.g.j.s.4.h.8.h.D#l.5.g.b.j.a.u.i.k.j.9.y.y.y.y.2",
"Qt.e.F.u.c.d.c.f.7.h#..D.j.k.l.m.q.e.k.4.c.g.c.r.s.h.O.r.j#a.u.v.s.e.J.y.y.y.y.y",
".m.A.F.b.j.g.C.f.g.D.E#q.j#a.Q.m.n.A##.f.j.g.C.r.s.h.E.c.o.k.u.v.w.A.J#c.y.y.y.y",
"#r.L#s#t#u#v#l#w#x#t#y.F#z#A.Q.D.m.L#B#C#u#v#l#t#D#E#F#z#G#A#H.IQt.o.T#c.y.y.y.y",
".U.S#I#J#K#K#K#K#K#L#K#M#N#O.l.D.O.X#P#J#L#Q#K#K#Q#L#K#K#K#R.l#fQt.S#S.y.y.2.y#c",
".R#i#T#U#V#V#V#V#V#V#V#V#V#W#H.b.g.j#X#Y#V#V#V#V#V#V#V#V#V#Z.u.i.s.Y.1.y.y.y.y.y",
"Qt.I#0#U#V#V#V#V#V#V#V#V#V#1.l.m.q.j#2#3#V#V#V#V#V#V#V#V#V#Z.u#b.s.j.T.y.y#c.y.y",
"Qt.C#4#U#V#5#6#7#8#9#V#V#Va..Q.m.n.Ca##3#V#Vaaabacadae#V#Vaf.u.v.s.C.J.y.y.y.y.y",
".U.Lag#U#Vahaiajakal#V#V#Va..Q.m#g.Aam#3#V#Vanaoapaqar#V#Vaf#H.I.q.A.J.y.y.y.y.y",
"#dasat#U#Vauavawaxayaz#V#VaA.l.m.m.SaB#3#VaCaDaEaFaGaH#V#VaI.l.IQt.SaJ.y.y.y.y#c",
"aK.IaL#UaMaNaOaPaQaRaS#U#V#1.l.r.E.XaTaUaVaWaXaYaZa0a1a2#V#Z.l.c.6#ia3.y.y.y.y.y",
".3.Iat#Ua4a5a6a7a8a9b.b##V#W.l.r.7.jaB#3babbbcbdbebfbgbh#Vbi.u#f.s.j.T.y.y.y.y.2",
"Qt.o#4#Ubjbkblbmbnbobpbq#Va..l.m.n.#a##3brbsbtbubvbwbxby#Vaf.u.v.w.e.J.y.y.y.y.y",
".z.A#4#UbzbAbBbCbDbEbFbG#Va..Q.D.r.Aa##3bHbIbJbKbLbMbNbO#Vaf.H.v.7.A.J.y.y.y.y.y",
".K.Lag#UbPbQbRbSbTbUbVbW#VaA.Q.i.m.LaB#3bXbYbZb0b1b2b3b4#VaI.l.IQt.o.T.y.y.y.y.y",
"aK.X#2#Ub5b6b7b8b9c.c#ca#Vcb.l.DQt.XaTaU#Vcccdcecfcgch#5#Vaf.l.c.d.0ci.y.y.2.y.y",
"#k#iat#U#Vcjckclcmcnco#V#V#W.l.r.7.jaB#Y#Vcpcqcrcsctcu#V#Vbi.u.D.s.jcv.y.y.y.y.2",
".Fcwcx#U#VcyczcAcBcCcD#V#VcEcF#lcG.4#4#3#VcHcIcJcKcLcM#V#VcNcF.f#tcwcO.y.y.y.y.y",
"cPcQcR#U#VcScTcUcVcWcX#V#VcYcZcPc0cQc1#3#Vc2c3c4c5c6c7c8#Vc9d.d#dadbdc#c.y.y.y.y",
"dddedf#3#Vdgdhazdidjdk#V#Vdldmdedddedndo#V#Vdpdq#Vdr#V#V#Vdsdtdtdudvdw#c.y.y.y.y"};
